G04 #@! TF.GenerationSoftware,KiCad,Pcbnew,(5.1.4)-1*
G04 #@! TF.CreationDate,2020-08-13T18:30:19+03:00*
G04 #@! TF.ProjectId,4_switch_array,345f7377-6974-4636-985f-61727261792e,rev?*
G04 #@! TF.SameCoordinates,Original*
G04 #@! TF.FileFunction,Other,Fab,Top*
%FSLAX46Y46*%
G04 Gerber Fmt 4.6, Leading zero omitted, Abs format (unit mm)*
G04 Created by KiCad (PCBNEW (5.1.4)-1) date 2020-08-13 18:30:19*
%MOMM*%
%LPD*%
G04 APERTURE LIST*
%ADD10C,0.100000*%
%ADD11C,0.150000*%
G04 APERTURE END LIST*
D10*
X139000000Y-45500000D02*
X139000000Y-52500000D01*
X141500000Y-45500000D02*
X139000000Y-45500000D01*
X141500000Y-52500000D02*
X141500000Y-45500000D01*
X139000000Y-52500000D02*
X141500000Y-52500000D01*
X143635000Y-46730000D02*
X144635000Y-45730000D01*
X143635000Y-71130000D02*
X143635000Y-46730000D01*
X149985000Y-71130000D02*
X143635000Y-71130000D01*
X149985000Y-45730000D02*
X149985000Y-71130000D01*
X144635000Y-45730000D02*
X149985000Y-45730000D01*
X126500000Y-73000000D02*
X139500000Y-73000000D01*
X126500000Y-69000000D02*
X126500000Y-73000000D01*
X139500000Y-69000000D02*
X126500000Y-69000000D01*
X139500000Y-73000000D02*
X139500000Y-69000000D01*
X167000000Y-54500000D02*
X154000000Y-54500000D01*
X167000000Y-58500000D02*
X167000000Y-54500000D01*
X154000000Y-58500000D02*
X167000000Y-58500000D01*
X154000000Y-54500000D02*
X154000000Y-58500000D01*
X126500000Y-58500000D02*
X139500000Y-58500000D01*
X126500000Y-54500000D02*
X126500000Y-58500000D01*
X139500000Y-54500000D02*
X126500000Y-54500000D01*
X139500000Y-58500000D02*
X139500000Y-54500000D01*
X167000000Y-69000000D02*
X154000000Y-69000000D01*
X167000000Y-73000000D02*
X167000000Y-69000000D01*
X154000000Y-73000000D02*
X167000000Y-73000000D01*
X154000000Y-69000000D02*
X154000000Y-73000000D01*
X139253625Y-65253625D02*
G75*
G02X135020000Y-63500000I-1753625J1753625D01*
G01*
X139253625Y-61746375D02*
G75*
G03X135020000Y-63500000I-1753625J-1753625D01*
G01*
X139250000Y-65240000D02*
X139250000Y-61740000D01*
X157253625Y-50753625D02*
G75*
G02X153020000Y-49000000I-1753625J1753625D01*
G01*
X157253625Y-47246375D02*
G75*
G03X153020000Y-49000000I-1753625J-1753625D01*
G01*
X157250000Y-50740000D02*
X157250000Y-47240000D01*
X137753625Y-50713625D02*
G75*
G02X133520000Y-48960000I-1753625J1753625D01*
G01*
X137753625Y-47206375D02*
G75*
G03X133520000Y-48960000I-1753625J-1753625D01*
G01*
X137750000Y-50700000D02*
X137750000Y-47200000D01*
X157253625Y-65253625D02*
G75*
G02X153020000Y-63500000I-1753625J1753625D01*
G01*
X157253625Y-61746375D02*
G75*
G03X153020000Y-63500000I-1753625J-1753625D01*
G01*
X157250000Y-65240000D02*
X157250000Y-61740000D01*
X148000000Y-78850000D02*
X147375000Y-79850000D01*
X148625000Y-79850000D02*
X148000000Y-78850000D01*
X143050000Y-79850000D02*
X150450000Y-79850000D01*
X143050000Y-74100000D02*
X143050000Y-79850000D01*
X150450000Y-74100000D02*
X143050000Y-74100000D01*
X150450000Y-79850000D02*
X150450000Y-74100000D01*
X127150000Y-65000000D02*
X126150000Y-64375000D01*
X126150000Y-65625000D02*
X127150000Y-65000000D01*
X126150000Y-60050000D02*
X126150000Y-67450000D01*
X131900000Y-60050000D02*
X126150000Y-60050000D01*
X131900000Y-67450000D02*
X131900000Y-60050000D01*
X126150000Y-67450000D02*
X131900000Y-67450000D01*
X166350000Y-48000000D02*
X167350000Y-48625000D01*
X167350000Y-47375000D02*
X166350000Y-48000000D01*
X167350000Y-52950000D02*
X167350000Y-45550000D01*
X161600000Y-52950000D02*
X167350000Y-52950000D01*
X161600000Y-45550000D02*
X161600000Y-52950000D01*
X167350000Y-45550000D02*
X161600000Y-45550000D01*
X127150000Y-50500000D02*
X126150000Y-49875000D01*
X126150000Y-51125000D02*
X127150000Y-50500000D01*
X126150000Y-45550000D02*
X126150000Y-52950000D01*
X131900000Y-45550000D02*
X126150000Y-45550000D01*
X131900000Y-52950000D02*
X131900000Y-45550000D01*
X126150000Y-52950000D02*
X131900000Y-52950000D01*
X166350000Y-62500000D02*
X167350000Y-63125000D01*
X167350000Y-61875000D02*
X166350000Y-62500000D01*
X167350000Y-67450000D02*
X167350000Y-60050000D01*
X161600000Y-67450000D02*
X167350000Y-67450000D01*
X161600000Y-60050000D02*
X161600000Y-67450000D01*
X167350000Y-60050000D02*
X161600000Y-60050000D01*
X150000000Y-36650000D02*
X150625000Y-35650000D01*
X149375000Y-35650000D02*
X150000000Y-36650000D01*
X159950000Y-35650000D02*
X147550000Y-35650000D01*
X159950000Y-41400000D02*
X159950000Y-35650000D01*
X147550000Y-41400000D02*
X159950000Y-41400000D01*
X147550000Y-35650000D02*
X147550000Y-41400000D01*
X136000000Y-36650000D02*
X136625000Y-35650000D01*
X135375000Y-35650000D02*
X136000000Y-36650000D01*
X145950000Y-35650000D02*
X133550000Y-35650000D01*
X145950000Y-41400000D02*
X145950000Y-35650000D01*
X133550000Y-41400000D02*
X145950000Y-41400000D01*
X133550000Y-35650000D02*
X133550000Y-41400000D01*
D11*
X143202380Y-52452380D02*
X142630952Y-52452380D01*
X142916666Y-52452380D02*
X142916666Y-51452380D01*
X142821428Y-51595238D01*
X142726190Y-51690476D01*
X142630952Y-51738095D01*
X143821428Y-51452380D02*
X143916666Y-51452380D01*
X144011904Y-51500000D01*
X144059523Y-51547619D01*
X144107142Y-51642857D01*
X144154761Y-51833333D01*
X144154761Y-52071428D01*
X144107142Y-52261904D01*
X144059523Y-52357142D01*
X144011904Y-52404761D01*
X143916666Y-52452380D01*
X143821428Y-52452380D01*
X143726190Y-52404761D01*
X143678571Y-52357142D01*
X143630952Y-52261904D01*
X143583333Y-52071428D01*
X143583333Y-51833333D01*
X143630952Y-51642857D01*
X143678571Y-51547619D01*
X143726190Y-51500000D01*
X143821428Y-51452380D01*
X144773809Y-51452380D02*
X144869047Y-51452380D01*
X144964285Y-51500000D01*
X145011904Y-51547619D01*
X145059523Y-51642857D01*
X145107142Y-51833333D01*
X145107142Y-52071428D01*
X145059523Y-52261904D01*
X145011904Y-52357142D01*
X144964285Y-52404761D01*
X144869047Y-52452380D01*
X144773809Y-52452380D01*
X144678571Y-52404761D01*
X144630952Y-52357142D01*
X144583333Y-52261904D01*
X144535714Y-52071428D01*
X144535714Y-51833333D01*
X144583333Y-51642857D01*
X144630952Y-51547619D01*
X144678571Y-51500000D01*
X144773809Y-51452380D01*
X145535714Y-51785714D02*
X145535714Y-52452380D01*
X145535714Y-51880952D02*
X145583333Y-51833333D01*
X145678571Y-51785714D01*
X145821428Y-51785714D01*
X145916666Y-51833333D01*
X145964285Y-51928571D01*
X145964285Y-52452380D01*
X146773809Y-51928571D02*
X146440476Y-51928571D01*
X146440476Y-52452380D02*
X146440476Y-51452380D01*
X146916666Y-51452380D01*
X140607142Y-49166666D02*
X140654761Y-49214285D01*
X140702380Y-49357142D01*
X140702380Y-49452380D01*
X140654761Y-49595238D01*
X140559523Y-49690476D01*
X140464285Y-49738095D01*
X140273809Y-49785714D01*
X140130952Y-49785714D01*
X139940476Y-49738095D01*
X139845238Y-49690476D01*
X139750000Y-49595238D01*
X139702380Y-49452380D01*
X139702380Y-49357142D01*
X139750000Y-49214285D01*
X139797619Y-49166666D01*
X140702380Y-48214285D02*
X140702380Y-48785714D01*
X140702380Y-48500000D02*
X139702380Y-48500000D01*
X139845238Y-48595238D01*
X139940476Y-48690476D01*
X139988095Y-48785714D01*
X146262380Y-60928571D02*
X146262380Y-60357142D01*
X147262380Y-60642857D02*
X146262380Y-60642857D01*
X147262380Y-60023809D02*
X146262380Y-60023809D01*
X146262380Y-59642857D01*
X146310000Y-59547619D01*
X146357619Y-59500000D01*
X146452857Y-59452380D01*
X146595714Y-59452380D01*
X146690952Y-59500000D01*
X146738571Y-59547619D01*
X146786190Y-59642857D01*
X146786190Y-60023809D01*
X147262380Y-59023809D02*
X146262380Y-59023809D01*
X147167142Y-57976190D02*
X147214761Y-58023809D01*
X147262380Y-58166666D01*
X147262380Y-58261904D01*
X147214761Y-58404761D01*
X147119523Y-58500000D01*
X147024285Y-58547619D01*
X146833809Y-58595238D01*
X146690952Y-58595238D01*
X146500476Y-58547619D01*
X146405238Y-58500000D01*
X146310000Y-58404761D01*
X146262380Y-58261904D01*
X146262380Y-58166666D01*
X146310000Y-58023809D01*
X146357619Y-57976190D01*
X146262380Y-57119047D02*
X146262380Y-57309523D01*
X146310000Y-57404761D01*
X146357619Y-57452380D01*
X146500476Y-57547619D01*
X146690952Y-57595238D01*
X147071904Y-57595238D01*
X147167142Y-57547619D01*
X147214761Y-57500000D01*
X147262380Y-57404761D01*
X147262380Y-57214285D01*
X147214761Y-57119047D01*
X147167142Y-57071428D01*
X147071904Y-57023809D01*
X146833809Y-57023809D01*
X146738571Y-57071428D01*
X146690952Y-57119047D01*
X146643333Y-57214285D01*
X146643333Y-57404761D01*
X146690952Y-57500000D01*
X146738571Y-57547619D01*
X146833809Y-57595238D01*
X146262380Y-56119047D02*
X146262380Y-56595238D01*
X146738571Y-56642857D01*
X146690952Y-56595238D01*
X146643333Y-56500000D01*
X146643333Y-56261904D01*
X146690952Y-56166666D01*
X146738571Y-56119047D01*
X146833809Y-56071428D01*
X147071904Y-56071428D01*
X147167142Y-56119047D01*
X147214761Y-56166666D01*
X147262380Y-56261904D01*
X147262380Y-56500000D01*
X147214761Y-56595238D01*
X147167142Y-56642857D01*
X147262380Y-55595238D02*
X147262380Y-55404761D01*
X147214761Y-55309523D01*
X147167142Y-55261904D01*
X147024285Y-55166666D01*
X146833809Y-55119047D01*
X146452857Y-55119047D01*
X146357619Y-55166666D01*
X146310000Y-55214285D01*
X146262380Y-55309523D01*
X146262380Y-55500000D01*
X146310000Y-55595238D01*
X146357619Y-55642857D01*
X146452857Y-55690476D01*
X146690952Y-55690476D01*
X146786190Y-55642857D01*
X146833809Y-55595238D01*
X146881428Y-55500000D01*
X146881428Y-55309523D01*
X146833809Y-55214285D01*
X146786190Y-55166666D01*
X146690952Y-55119047D01*
X146262380Y-54214285D02*
X146262380Y-54690476D01*
X146738571Y-54738095D01*
X146690952Y-54690476D01*
X146643333Y-54595238D01*
X146643333Y-54357142D01*
X146690952Y-54261904D01*
X146738571Y-54214285D01*
X146833809Y-54166666D01*
X147071904Y-54166666D01*
X147167142Y-54214285D01*
X147214761Y-54261904D01*
X147262380Y-54357142D01*
X147262380Y-54595238D01*
X147214761Y-54690476D01*
X147167142Y-54738095D01*
X146048095Y-50452380D02*
X146048095Y-51261904D01*
X146095714Y-51357142D01*
X146143333Y-51404761D01*
X146238571Y-51452380D01*
X146429047Y-51452380D01*
X146524285Y-51404761D01*
X146571904Y-51357142D01*
X146619523Y-51261904D01*
X146619523Y-50452380D01*
X147619523Y-51452380D02*
X147048095Y-51452380D01*
X147333809Y-51452380D02*
X147333809Y-50452380D01*
X147238571Y-50595238D01*
X147143333Y-50690476D01*
X147048095Y-50738095D01*
X131761904Y-71547619D02*
X131809523Y-71500000D01*
X131904761Y-71452380D01*
X132142857Y-71452380D01*
X132238095Y-71500000D01*
X132285714Y-71547619D01*
X132333333Y-71642857D01*
X132333333Y-71738095D01*
X132285714Y-71880952D01*
X131714285Y-72452380D01*
X132333333Y-72452380D01*
X132666666Y-71452380D02*
X133333333Y-71452380D01*
X132904761Y-72452380D01*
X133904761Y-71452380D02*
X134000000Y-71452380D01*
X134095238Y-71500000D01*
X134142857Y-71547619D01*
X134190476Y-71642857D01*
X134238095Y-71833333D01*
X134238095Y-72071428D01*
X134190476Y-72261904D01*
X134142857Y-72357142D01*
X134095238Y-72404761D01*
X134000000Y-72452380D01*
X133904761Y-72452380D01*
X133809523Y-72404761D01*
X133761904Y-72357142D01*
X133714285Y-72261904D01*
X133666666Y-72071428D01*
X133666666Y-71833333D01*
X133714285Y-71642857D01*
X133761904Y-71547619D01*
X133809523Y-71500000D01*
X133904761Y-71452380D01*
X132833333Y-70452380D02*
X132500000Y-69976190D01*
X132261904Y-70452380D02*
X132261904Y-69452380D01*
X132642857Y-69452380D01*
X132738095Y-69500000D01*
X132785714Y-69547619D01*
X132833333Y-69642857D01*
X132833333Y-69785714D01*
X132785714Y-69880952D01*
X132738095Y-69928571D01*
X132642857Y-69976190D01*
X132261904Y-69976190D01*
X133214285Y-69547619D02*
X133261904Y-69500000D01*
X133357142Y-69452380D01*
X133595238Y-69452380D01*
X133690476Y-69500000D01*
X133738095Y-69547619D01*
X133785714Y-69642857D01*
X133785714Y-69738095D01*
X133738095Y-69880952D01*
X133166666Y-70452380D01*
X133785714Y-70452380D01*
X159261904Y-57047619D02*
X159309523Y-57000000D01*
X159404761Y-56952380D01*
X159642857Y-56952380D01*
X159738095Y-57000000D01*
X159785714Y-57047619D01*
X159833333Y-57142857D01*
X159833333Y-57238095D01*
X159785714Y-57380952D01*
X159214285Y-57952380D01*
X159833333Y-57952380D01*
X160166666Y-56952380D02*
X160833333Y-56952380D01*
X160404761Y-57952380D01*
X161404761Y-56952380D02*
X161500000Y-56952380D01*
X161595238Y-57000000D01*
X161642857Y-57047619D01*
X161690476Y-57142857D01*
X161738095Y-57333333D01*
X161738095Y-57571428D01*
X161690476Y-57761904D01*
X161642857Y-57857142D01*
X161595238Y-57904761D01*
X161500000Y-57952380D01*
X161404761Y-57952380D01*
X161309523Y-57904761D01*
X161261904Y-57857142D01*
X161214285Y-57761904D01*
X161166666Y-57571428D01*
X161166666Y-57333333D01*
X161214285Y-57142857D01*
X161261904Y-57047619D01*
X161309523Y-57000000D01*
X161404761Y-56952380D01*
X160333333Y-55952380D02*
X160000000Y-55476190D01*
X159761904Y-55952380D02*
X159761904Y-54952380D01*
X160142857Y-54952380D01*
X160238095Y-55000000D01*
X160285714Y-55047619D01*
X160333333Y-55142857D01*
X160333333Y-55285714D01*
X160285714Y-55380952D01*
X160238095Y-55428571D01*
X160142857Y-55476190D01*
X159761904Y-55476190D01*
X160666666Y-54952380D02*
X161285714Y-54952380D01*
X160952380Y-55333333D01*
X161095238Y-55333333D01*
X161190476Y-55380952D01*
X161238095Y-55428571D01*
X161285714Y-55523809D01*
X161285714Y-55761904D01*
X161238095Y-55857142D01*
X161190476Y-55904761D01*
X161095238Y-55952380D01*
X160809523Y-55952380D01*
X160714285Y-55904761D01*
X160666666Y-55857142D01*
X131761904Y-57047619D02*
X131809523Y-57000000D01*
X131904761Y-56952380D01*
X132142857Y-56952380D01*
X132238095Y-57000000D01*
X132285714Y-57047619D01*
X132333333Y-57142857D01*
X132333333Y-57238095D01*
X132285714Y-57380952D01*
X131714285Y-57952380D01*
X132333333Y-57952380D01*
X132666666Y-56952380D02*
X133333333Y-56952380D01*
X132904761Y-57952380D01*
X133904761Y-56952380D02*
X134000000Y-56952380D01*
X134095238Y-57000000D01*
X134142857Y-57047619D01*
X134190476Y-57142857D01*
X134238095Y-57333333D01*
X134238095Y-57571428D01*
X134190476Y-57761904D01*
X134142857Y-57857142D01*
X134095238Y-57904761D01*
X134000000Y-57952380D01*
X133904761Y-57952380D01*
X133809523Y-57904761D01*
X133761904Y-57857142D01*
X133714285Y-57761904D01*
X133666666Y-57571428D01*
X133666666Y-57333333D01*
X133714285Y-57142857D01*
X133761904Y-57047619D01*
X133809523Y-57000000D01*
X133904761Y-56952380D01*
X132833333Y-55952380D02*
X132500000Y-55476190D01*
X132261904Y-55952380D02*
X132261904Y-54952380D01*
X132642857Y-54952380D01*
X132738095Y-55000000D01*
X132785714Y-55047619D01*
X132833333Y-55142857D01*
X132833333Y-55285714D01*
X132785714Y-55380952D01*
X132738095Y-55428571D01*
X132642857Y-55476190D01*
X132261904Y-55476190D01*
X133785714Y-55952380D02*
X133214285Y-55952380D01*
X133500000Y-55952380D02*
X133500000Y-54952380D01*
X133404761Y-55095238D01*
X133309523Y-55190476D01*
X133214285Y-55238095D01*
X159261904Y-71547619D02*
X159309523Y-71500000D01*
X159404761Y-71452380D01*
X159642857Y-71452380D01*
X159738095Y-71500000D01*
X159785714Y-71547619D01*
X159833333Y-71642857D01*
X159833333Y-71738095D01*
X159785714Y-71880952D01*
X159214285Y-72452380D01*
X159833333Y-72452380D01*
X160166666Y-71452380D02*
X160833333Y-71452380D01*
X160404761Y-72452380D01*
X161404761Y-71452380D02*
X161500000Y-71452380D01*
X161595238Y-71500000D01*
X161642857Y-71547619D01*
X161690476Y-71642857D01*
X161738095Y-71833333D01*
X161738095Y-72071428D01*
X161690476Y-72261904D01*
X161642857Y-72357142D01*
X161595238Y-72404761D01*
X161500000Y-72452380D01*
X161404761Y-72452380D01*
X161309523Y-72404761D01*
X161261904Y-72357142D01*
X161214285Y-72261904D01*
X161166666Y-72071428D01*
X161166666Y-71833333D01*
X161214285Y-71642857D01*
X161261904Y-71547619D01*
X161309523Y-71500000D01*
X161404761Y-71452380D01*
X160333333Y-70452380D02*
X160000000Y-69976190D01*
X159761904Y-70452380D02*
X159761904Y-69452380D01*
X160142857Y-69452380D01*
X160238095Y-69500000D01*
X160285714Y-69547619D01*
X160333333Y-69642857D01*
X160333333Y-69785714D01*
X160285714Y-69880952D01*
X160238095Y-69928571D01*
X160142857Y-69976190D01*
X159761904Y-69976190D01*
X161190476Y-69785714D02*
X161190476Y-70452380D01*
X160952380Y-69404761D02*
X160714285Y-70119047D01*
X161333333Y-70119047D01*
X146416666Y-74952380D02*
X146416666Y-75666666D01*
X146369047Y-75809523D01*
X146273809Y-75904761D01*
X146130952Y-75952380D01*
X146035714Y-75952380D01*
X146797619Y-74952380D02*
X147464285Y-74952380D01*
X147035714Y-75952380D01*
X129952380Y-64083333D02*
X130666666Y-64083333D01*
X130809523Y-64130952D01*
X130904761Y-64226190D01*
X130952380Y-64369047D01*
X130952380Y-64464285D01*
X130285714Y-63178571D02*
X130952380Y-63178571D01*
X129904761Y-63416666D02*
X130619047Y-63654761D01*
X130619047Y-63035714D01*
X162452380Y-49583333D02*
X163166666Y-49583333D01*
X163309523Y-49630952D01*
X163404761Y-49726190D01*
X163452380Y-49869047D01*
X163452380Y-49964285D01*
X162452380Y-48630952D02*
X162452380Y-49107142D01*
X162928571Y-49154761D01*
X162880952Y-49107142D01*
X162833333Y-49011904D01*
X162833333Y-48773809D01*
X162880952Y-48678571D01*
X162928571Y-48630952D01*
X163023809Y-48583333D01*
X163261904Y-48583333D01*
X163357142Y-48630952D01*
X163404761Y-48678571D01*
X163452380Y-48773809D01*
X163452380Y-49011904D01*
X163404761Y-49107142D01*
X163357142Y-49154761D01*
X129952380Y-49583333D02*
X130666666Y-49583333D01*
X130809523Y-49630952D01*
X130904761Y-49726190D01*
X130952380Y-49869047D01*
X130952380Y-49964285D01*
X129952380Y-49202380D02*
X129952380Y-48583333D01*
X130333333Y-48916666D01*
X130333333Y-48773809D01*
X130380952Y-48678571D01*
X130428571Y-48630952D01*
X130523809Y-48583333D01*
X130761904Y-48583333D01*
X130857142Y-48630952D01*
X130904761Y-48678571D01*
X130952380Y-48773809D01*
X130952380Y-49059523D01*
X130904761Y-49154761D01*
X130857142Y-49202380D01*
X162452380Y-64083333D02*
X163166666Y-64083333D01*
X163309523Y-64130952D01*
X163404761Y-64226190D01*
X163452380Y-64369047D01*
X163452380Y-64464285D01*
X162452380Y-63178571D02*
X162452380Y-63369047D01*
X162500000Y-63464285D01*
X162547619Y-63511904D01*
X162690476Y-63607142D01*
X162880952Y-63654761D01*
X163261904Y-63654761D01*
X163357142Y-63607142D01*
X163404761Y-63559523D01*
X163452380Y-63464285D01*
X163452380Y-63273809D01*
X163404761Y-63178571D01*
X163357142Y-63130952D01*
X163261904Y-63083333D01*
X163023809Y-63083333D01*
X162928571Y-63130952D01*
X162880952Y-63178571D01*
X162833333Y-63273809D01*
X162833333Y-63464285D01*
X162880952Y-63559523D01*
X162928571Y-63607142D01*
X163023809Y-63654761D01*
X153416666Y-39452380D02*
X153416666Y-40166666D01*
X153369047Y-40309523D01*
X153273809Y-40404761D01*
X153130952Y-40452380D01*
X153035714Y-40452380D01*
X153845238Y-39547619D02*
X153892857Y-39500000D01*
X153988095Y-39452380D01*
X154226190Y-39452380D01*
X154321428Y-39500000D01*
X154369047Y-39547619D01*
X154416666Y-39642857D01*
X154416666Y-39738095D01*
X154369047Y-39880952D01*
X153797619Y-40452380D01*
X154416666Y-40452380D01*
X139416666Y-39452380D02*
X139416666Y-40166666D01*
X139369047Y-40309523D01*
X139273809Y-40404761D01*
X139130952Y-40452380D01*
X139035714Y-40452380D01*
X140416666Y-40452380D02*
X139845238Y-40452380D01*
X140130952Y-40452380D02*
X140130952Y-39452380D01*
X140035714Y-39595238D01*
X139940476Y-39690476D01*
X139845238Y-39738095D01*
M02*
