G04 #@! TF.GenerationSoftware,KiCad,Pcbnew,5.1.10-88a1d61d58~90~ubuntu20.04.1*
G04 #@! TF.CreationDate,2022-01-16T20:59:39+00:00*
G04 #@! TF.ProjectId,hp_led_switch,68705f6c-6564-45f7-9377-697463682e6b,rev?*
G04 #@! TF.SameCoordinates,Original*
G04 #@! TF.FileFunction,Soldermask,Top*
G04 #@! TF.FilePolarity,Negative*
%FSLAX46Y46*%
G04 Gerber Fmt 4.6, Leading zero omitted, Abs format (unit mm)*
G04 Created by KiCad (PCBNEW 5.1.10-88a1d61d58~90~ubuntu20.04.1) date 2022-01-16 20:59:39*
%MOMM*%
%LPD*%
G01*
G04 APERTURE LIST*
%ADD10O,1.600000X2.400000*%
%ADD11R,1.600000X2.400000*%
%ADD12C,2.000000*%
%ADD13C,1.600000*%
%ADD14O,2.000000X1.905000*%
%ADD15R,2.000000X1.905000*%
%ADD16O,1.700000X2.000000*%
%ADD17C,3.200000*%
%ADD18O,1.700000X1.950000*%
G04 APERTURE END LIST*
D10*
X144399000Y-54483000D03*
X136779000Y-46863000D03*
X141859000Y-54483000D03*
X139319000Y-46863000D03*
X139319000Y-54483000D03*
X141859000Y-46863000D03*
X136779000Y-54483000D03*
D11*
X144399000Y-46863000D03*
D10*
X161036000Y-54610000D03*
X153416000Y-46990000D03*
X158496000Y-54610000D03*
X155956000Y-46990000D03*
X155956000Y-54610000D03*
X158496000Y-46990000D03*
X153416000Y-54610000D03*
D11*
X161036000Y-46990000D03*
D12*
X144000000Y-74500000D03*
X135000000Y-74500000D03*
D13*
X149000000Y-47000000D03*
X149000000Y-52000000D03*
D12*
X158500000Y-67000000D03*
X149500000Y-67000000D03*
D13*
X132500000Y-47000000D03*
X132500000Y-52000000D03*
D14*
X164000000Y-80080000D03*
X164000000Y-77540000D03*
D15*
X164000000Y-75000000D03*
D12*
X135000000Y-67000000D03*
X144000000Y-67000000D03*
X158500000Y-80500000D03*
X149500000Y-80500000D03*
X135000000Y-80500000D03*
X144000000Y-80500000D03*
D14*
X164000000Y-66580000D03*
X164000000Y-64040000D03*
D15*
X164000000Y-61500000D03*
D14*
X129500000Y-61420000D03*
X129500000Y-63960000D03*
D15*
X129500000Y-66500000D03*
D14*
X129500000Y-74920000D03*
X129500000Y-77460000D03*
D15*
X129500000Y-80000000D03*
D16*
X151000000Y-100500000D03*
G36*
G01*
X154350000Y-99750000D02*
X154350000Y-101250000D01*
G75*
G02*
X154100000Y-101500000I-250000J0D01*
G01*
X152900000Y-101500000D01*
G75*
G02*
X152650000Y-101250000I0J250000D01*
G01*
X152650000Y-99750000D01*
G75*
G02*
X152900000Y-99500000I250000J0D01*
G01*
X154100000Y-99500000D01*
G75*
G02*
X154350000Y-99750000I0J-250000D01*
G01*
G37*
G36*
G01*
X165350000Y-91250000D02*
X165350000Y-92750000D01*
G75*
G02*
X165100000Y-93000000I-250000J0D01*
G01*
X163900000Y-93000000D01*
G75*
G02*
X163650000Y-92750000I0J250000D01*
G01*
X163650000Y-91250000D01*
G75*
G02*
X163900000Y-91000000I250000J0D01*
G01*
X165100000Y-91000000D01*
G75*
G02*
X165350000Y-91250000I0J-250000D01*
G01*
G37*
X162000000Y-92000000D03*
D17*
X166000000Y-37000000D03*
X166000000Y-101000000D03*
X127500000Y-101000000D03*
X127500000Y-37000000D03*
D12*
X149500000Y-74500000D03*
X158500000Y-74500000D03*
X144000000Y-61000000D03*
X135000000Y-61000000D03*
X149500000Y-61000000D03*
X158500000Y-61000000D03*
D16*
X140000000Y-100500000D03*
G36*
G01*
X143350000Y-99750000D02*
X143350000Y-101250000D01*
G75*
G02*
X143100000Y-101500000I-250000J0D01*
G01*
X141900000Y-101500000D01*
G75*
G02*
X141650000Y-101250000I0J250000D01*
G01*
X141650000Y-99750000D01*
G75*
G02*
X141900000Y-99500000I250000J0D01*
G01*
X143100000Y-99500000D01*
G75*
G02*
X143350000Y-99750000I0J-250000D01*
G01*
G37*
G36*
G01*
X143350000Y-91250000D02*
X143350000Y-92750000D01*
G75*
G02*
X143100000Y-93000000I-250000J0D01*
G01*
X141900000Y-93000000D01*
G75*
G02*
X141650000Y-92750000I0J250000D01*
G01*
X141650000Y-91250000D01*
G75*
G02*
X141900000Y-91000000I250000J0D01*
G01*
X143100000Y-91000000D01*
G75*
G02*
X143350000Y-91250000I0J-250000D01*
G01*
G37*
X140000000Y-92000000D03*
G36*
G01*
X154350000Y-91250000D02*
X154350000Y-92750000D01*
G75*
G02*
X154100000Y-93000000I-250000J0D01*
G01*
X152900000Y-93000000D01*
G75*
G02*
X152650000Y-92750000I0J250000D01*
G01*
X152650000Y-91250000D01*
G75*
G02*
X152900000Y-91000000I250000J0D01*
G01*
X154100000Y-91000000D01*
G75*
G02*
X154350000Y-91250000I0J-250000D01*
G01*
G37*
X151000000Y-92000000D03*
G36*
G01*
X132350000Y-91250000D02*
X132350000Y-92750000D01*
G75*
G02*
X132100000Y-93000000I-250000J0D01*
G01*
X130900000Y-93000000D01*
G75*
G02*
X130650000Y-92750000I0J250000D01*
G01*
X130650000Y-91250000D01*
G75*
G02*
X130900000Y-91000000I250000J0D01*
G01*
X132100000Y-91000000D01*
G75*
G02*
X132350000Y-91250000I0J-250000D01*
G01*
G37*
X129000000Y-92000000D03*
D18*
X157500000Y-38000000D03*
X155000000Y-38000000D03*
X152500000Y-38000000D03*
G36*
G01*
X149150000Y-38725000D02*
X149150000Y-37275000D01*
G75*
G02*
X149400000Y-37025000I250000J0D01*
G01*
X150600000Y-37025000D01*
G75*
G02*
X150850000Y-37275000I0J-250000D01*
G01*
X150850000Y-38725000D01*
G75*
G02*
X150600000Y-38975000I-250000J0D01*
G01*
X149400000Y-38975000D01*
G75*
G02*
X149150000Y-38725000I0J250000D01*
G01*
G37*
X143500000Y-38000000D03*
X141000000Y-38000000D03*
X138500000Y-38000000D03*
G36*
G01*
X135150000Y-38725000D02*
X135150000Y-37275000D01*
G75*
G02*
X135400000Y-37025000I250000J0D01*
G01*
X136600000Y-37025000D01*
G75*
G02*
X136850000Y-37275000I0J-250000D01*
G01*
X136850000Y-38725000D01*
G75*
G02*
X136600000Y-38975000I-250000J0D01*
G01*
X135400000Y-38975000D01*
G75*
G02*
X135150000Y-38725000I0J250000D01*
G01*
G37*
M02*
