G04 #@! TF.GenerationSoftware,KiCad,Pcbnew,5.1.10-88a1d61d58~90~ubuntu20.04.1*
G04 #@! TF.CreationDate,2022-01-16T20:59:38+00:00*
G04 #@! TF.ProjectId,hp_led_switch,68705f6c-6564-45f7-9377-697463682e6b,rev?*
G04 #@! TF.SameCoordinates,Original*
G04 #@! TF.FileFunction,Copper,L1,Top*
G04 #@! TF.FilePolarity,Positive*
%FSLAX46Y46*%
G04 Gerber Fmt 4.6, Leading zero omitted, Abs format (unit mm)*
G04 Created by KiCad (PCBNEW 5.1.10-88a1d61d58~90~ubuntu20.04.1) date 2022-01-16 20:59:38*
%MOMM*%
%LPD*%
G01*
G04 APERTURE LIST*
G04 #@! TA.AperFunction,ComponentPad*
%ADD10O,1.600000X2.400000*%
G04 #@! TD*
G04 #@! TA.AperFunction,ComponentPad*
%ADD11R,1.600000X2.400000*%
G04 #@! TD*
G04 #@! TA.AperFunction,ComponentPad*
%ADD12C,2.000000*%
G04 #@! TD*
G04 #@! TA.AperFunction,ComponentPad*
%ADD13C,1.600000*%
G04 #@! TD*
G04 #@! TA.AperFunction,ComponentPad*
%ADD14O,2.000000X1.905000*%
G04 #@! TD*
G04 #@! TA.AperFunction,ComponentPad*
%ADD15R,2.000000X1.905000*%
G04 #@! TD*
G04 #@! TA.AperFunction,ComponentPad*
%ADD16O,1.700000X2.000000*%
G04 #@! TD*
G04 #@! TA.AperFunction,ComponentPad*
%ADD17O,1.700000X1.950000*%
G04 #@! TD*
G04 #@! TA.AperFunction,Conductor*
%ADD18C,1.000000*%
G04 #@! TD*
G04 #@! TA.AperFunction,Conductor*
%ADD19C,1.250000*%
G04 #@! TD*
G04 #@! TA.AperFunction,Conductor*
%ADD20C,1.500000*%
G04 #@! TD*
G04 #@! TA.AperFunction,Conductor*
%ADD21C,0.500000*%
G04 #@! TD*
G04 #@! TA.AperFunction,Conductor*
%ADD22C,0.750000*%
G04 #@! TD*
G04 #@! TA.AperFunction,Conductor*
%ADD23C,0.250000*%
G04 #@! TD*
G04 APERTURE END LIST*
D10*
X144399000Y-54483000D03*
X136779000Y-46863000D03*
X141859000Y-54483000D03*
X139319000Y-46863000D03*
X139319000Y-54483000D03*
X141859000Y-46863000D03*
X136779000Y-54483000D03*
D11*
X144399000Y-46863000D03*
D10*
X161036000Y-54610000D03*
X153416000Y-46990000D03*
X158496000Y-54610000D03*
X155956000Y-46990000D03*
X155956000Y-54610000D03*
X158496000Y-46990000D03*
X153416000Y-54610000D03*
D11*
X161036000Y-46990000D03*
D12*
X144000000Y-74500000D03*
X135000000Y-74500000D03*
D13*
X149000000Y-47000000D03*
X149000000Y-52000000D03*
D12*
X158500000Y-67000000D03*
X149500000Y-67000000D03*
D13*
X132500000Y-47000000D03*
X132500000Y-52000000D03*
D14*
X164000000Y-80080000D03*
X164000000Y-77540000D03*
D15*
X164000000Y-75000000D03*
D12*
X135000000Y-67000000D03*
X144000000Y-67000000D03*
X158500000Y-80500000D03*
X149500000Y-80500000D03*
X135000000Y-80500000D03*
X144000000Y-80500000D03*
D14*
X164000000Y-66580000D03*
X164000000Y-64040000D03*
D15*
X164000000Y-61500000D03*
D14*
X129500000Y-61420000D03*
X129500000Y-63960000D03*
D15*
X129500000Y-66500000D03*
D14*
X129500000Y-74920000D03*
X129500000Y-77460000D03*
D15*
X129500000Y-80000000D03*
D16*
X151000000Y-100500000D03*
G04 #@! TA.AperFunction,ComponentPad*
G36*
G01*
X154350000Y-99750000D02*
X154350000Y-101250000D01*
G75*
G02*
X154100000Y-101500000I-250000J0D01*
G01*
X152900000Y-101500000D01*
G75*
G02*
X152650000Y-101250000I0J250000D01*
G01*
X152650000Y-99750000D01*
G75*
G02*
X152900000Y-99500000I250000J0D01*
G01*
X154100000Y-99500000D01*
G75*
G02*
X154350000Y-99750000I0J-250000D01*
G01*
G37*
G04 #@! TD.AperFunction*
G04 #@! TA.AperFunction,ComponentPad*
G36*
G01*
X165350000Y-91250000D02*
X165350000Y-92750000D01*
G75*
G02*
X165100000Y-93000000I-250000J0D01*
G01*
X163900000Y-93000000D01*
G75*
G02*
X163650000Y-92750000I0J250000D01*
G01*
X163650000Y-91250000D01*
G75*
G02*
X163900000Y-91000000I250000J0D01*
G01*
X165100000Y-91000000D01*
G75*
G02*
X165350000Y-91250000I0J-250000D01*
G01*
G37*
G04 #@! TD.AperFunction*
X162000000Y-92000000D03*
D12*
X149500000Y-74500000D03*
X158500000Y-74500000D03*
X144000000Y-61000000D03*
X135000000Y-61000000D03*
X149500000Y-61000000D03*
X158500000Y-61000000D03*
D16*
X140000000Y-100500000D03*
G04 #@! TA.AperFunction,ComponentPad*
G36*
G01*
X143350000Y-99750000D02*
X143350000Y-101250000D01*
G75*
G02*
X143100000Y-101500000I-250000J0D01*
G01*
X141900000Y-101500000D01*
G75*
G02*
X141650000Y-101250000I0J250000D01*
G01*
X141650000Y-99750000D01*
G75*
G02*
X141900000Y-99500000I250000J0D01*
G01*
X143100000Y-99500000D01*
G75*
G02*
X143350000Y-99750000I0J-250000D01*
G01*
G37*
G04 #@! TD.AperFunction*
G04 #@! TA.AperFunction,ComponentPad*
G36*
G01*
X143350000Y-91250000D02*
X143350000Y-92750000D01*
G75*
G02*
X143100000Y-93000000I-250000J0D01*
G01*
X141900000Y-93000000D01*
G75*
G02*
X141650000Y-92750000I0J250000D01*
G01*
X141650000Y-91250000D01*
G75*
G02*
X141900000Y-91000000I250000J0D01*
G01*
X143100000Y-91000000D01*
G75*
G02*
X143350000Y-91250000I0J-250000D01*
G01*
G37*
G04 #@! TD.AperFunction*
X140000000Y-92000000D03*
G04 #@! TA.AperFunction,ComponentPad*
G36*
G01*
X154350000Y-91250000D02*
X154350000Y-92750000D01*
G75*
G02*
X154100000Y-93000000I-250000J0D01*
G01*
X152900000Y-93000000D01*
G75*
G02*
X152650000Y-92750000I0J250000D01*
G01*
X152650000Y-91250000D01*
G75*
G02*
X152900000Y-91000000I250000J0D01*
G01*
X154100000Y-91000000D01*
G75*
G02*
X154350000Y-91250000I0J-250000D01*
G01*
G37*
G04 #@! TD.AperFunction*
X151000000Y-92000000D03*
G04 #@! TA.AperFunction,ComponentPad*
G36*
G01*
X132350000Y-91250000D02*
X132350000Y-92750000D01*
G75*
G02*
X132100000Y-93000000I-250000J0D01*
G01*
X130900000Y-93000000D01*
G75*
G02*
X130650000Y-92750000I0J250000D01*
G01*
X130650000Y-91250000D01*
G75*
G02*
X130900000Y-91000000I250000J0D01*
G01*
X132100000Y-91000000D01*
G75*
G02*
X132350000Y-91250000I0J-250000D01*
G01*
G37*
G04 #@! TD.AperFunction*
X129000000Y-92000000D03*
D17*
X157500000Y-38000000D03*
X155000000Y-38000000D03*
X152500000Y-38000000D03*
G04 #@! TA.AperFunction,ComponentPad*
G36*
G01*
X149150000Y-38725000D02*
X149150000Y-37275000D01*
G75*
G02*
X149400000Y-37025000I250000J0D01*
G01*
X150600000Y-37025000D01*
G75*
G02*
X150850000Y-37275000I0J-250000D01*
G01*
X150850000Y-38725000D01*
G75*
G02*
X150600000Y-38975000I-250000J0D01*
G01*
X149400000Y-38975000D01*
G75*
G02*
X149150000Y-38725000I0J250000D01*
G01*
G37*
G04 #@! TD.AperFunction*
X143500000Y-38000000D03*
X141000000Y-38000000D03*
X138500000Y-38000000D03*
G04 #@! TA.AperFunction,ComponentPad*
G36*
G01*
X135150000Y-38725000D02*
X135150000Y-37275000D01*
G75*
G02*
X135400000Y-37025000I250000J0D01*
G01*
X136600000Y-37025000D01*
G75*
G02*
X136850000Y-37275000I0J-250000D01*
G01*
X136850000Y-38725000D01*
G75*
G02*
X136600000Y-38975000I-250000J0D01*
G01*
X135400000Y-38975000D01*
G75*
G02*
X135150000Y-38725000I0J250000D01*
G01*
G37*
G04 #@! TD.AperFunction*
D18*
X127000000Y-90000000D02*
X129000000Y-92000000D01*
X127000000Y-78500000D02*
X127000000Y-90000000D01*
X128040000Y-77460000D02*
X127000000Y-78500000D01*
X129500000Y-77460000D02*
X128040000Y-77460000D01*
D19*
X148500000Y-96000000D02*
X147000000Y-94500000D01*
X145500000Y-96000000D02*
X147000000Y-94500000D01*
X152000000Y-96000000D02*
X153500000Y-97500000D01*
X155000000Y-96000000D02*
X153500000Y-97500000D01*
X141000000Y-96000000D02*
X142500000Y-97500000D01*
X144000000Y-96000000D02*
X142500000Y-97500000D01*
D20*
X153500000Y-100500000D02*
X153500000Y-96000000D01*
D19*
X155000000Y-96000000D02*
X153500000Y-94500000D01*
X152000000Y-96000000D02*
X153500000Y-94500000D01*
X144000000Y-96000000D02*
X142500000Y-94500000D01*
D20*
X153500000Y-96000000D02*
X153500000Y-92000000D01*
X142500000Y-92000000D02*
X142500000Y-96000000D01*
X164500000Y-94000000D02*
X164500000Y-92000000D01*
X162500000Y-96000000D02*
X164500000Y-94000000D01*
X148000000Y-96000000D02*
X162500000Y-96000000D01*
X131500000Y-93500000D02*
X131500000Y-92000000D01*
X134000000Y-96000000D02*
X131500000Y-93500000D01*
D19*
X141000000Y-96000000D02*
X142500000Y-94500000D01*
D20*
X142500000Y-100500000D02*
X142500000Y-96000000D01*
X148000000Y-96000000D02*
X147000000Y-96000000D01*
X147000000Y-96000000D02*
X134000000Y-96000000D01*
X149000000Y-52000000D02*
X142500000Y-52000000D01*
X147000000Y-91500000D02*
X140575010Y-85075010D01*
X147000000Y-96000000D02*
X147000000Y-91500000D01*
X139420000Y-54620000D02*
X139500000Y-54540000D01*
D19*
X138000000Y-52000000D02*
X139500000Y-53500000D01*
D20*
X139500000Y-54540000D02*
X139500000Y-52300000D01*
D19*
X141000000Y-52000000D02*
X139500000Y-53500000D01*
D20*
X132500000Y-55250000D02*
X132500000Y-52000000D01*
X140000000Y-62750000D02*
X132500000Y-55250000D01*
X140000000Y-84500000D02*
X140000000Y-62750000D01*
X140500000Y-85000000D02*
X140000000Y-84500000D01*
X155920000Y-53420000D02*
X155920000Y-54620000D01*
X154500000Y-52000000D02*
X155920000Y-53420000D01*
X149000000Y-52000000D02*
X154500000Y-52000000D01*
X132500000Y-52000000D02*
X149000000Y-52000000D01*
D18*
X129460000Y-64000000D02*
X129500000Y-63960000D01*
X127000000Y-65000000D02*
X128000000Y-64000000D01*
X128500000Y-69500000D02*
X127000000Y-68000000D01*
X128000000Y-64000000D02*
X129460000Y-64000000D01*
X134000000Y-69500000D02*
X128500000Y-69500000D01*
X137500000Y-73000000D02*
X134000000Y-69500000D01*
X137500000Y-89500000D02*
X137500000Y-73000000D01*
X127000000Y-68000000D02*
X127000000Y-65000000D01*
X140000000Y-92000000D02*
X137500000Y-89500000D01*
X156000000Y-72500000D02*
X156000000Y-86500000D01*
X161500000Y-67000000D02*
X156000000Y-72500000D01*
X156000000Y-86500000D02*
X151000000Y-91500000D01*
X161500000Y-65500000D02*
X161500000Y-67000000D01*
X163000000Y-64000000D02*
X161500000Y-65500000D01*
X151000000Y-91500000D02*
X151000000Y-92000000D01*
X163040000Y-64040000D02*
X163000000Y-64000000D01*
X164000000Y-64040000D02*
X163040000Y-64040000D01*
X161500000Y-91500000D02*
X162000000Y-92000000D01*
X161500000Y-79500000D02*
X161500000Y-91500000D01*
X163460000Y-77540000D02*
X161500000Y-79500000D01*
X164000000Y-77540000D02*
X163460000Y-77540000D01*
D21*
X136000000Y-46120000D02*
X136880000Y-47000000D01*
X158460000Y-45460000D02*
X158460000Y-47000000D01*
X150000000Y-43620000D02*
X153380000Y-47000000D01*
X138500000Y-43540000D02*
X141960000Y-47000000D01*
D22*
X130000000Y-80500000D02*
X129500000Y-80000000D01*
X135000000Y-80500000D02*
X130000000Y-80500000D01*
X135000000Y-74500000D02*
X135000000Y-80500000D01*
X135000000Y-61000000D02*
X135000000Y-67000000D01*
X130000000Y-67000000D02*
X129500000Y-66500000D01*
X135000000Y-67000000D02*
X130000000Y-67000000D01*
X158500000Y-74500000D02*
X158500000Y-80500000D01*
X163500000Y-74500000D02*
X158500000Y-74500000D01*
X164000000Y-75000000D02*
X163500000Y-74500000D01*
X158500000Y-61000000D02*
X158500000Y-67000000D01*
X163500000Y-61000000D02*
X164000000Y-61500000D01*
X158500000Y-61000000D02*
X163500000Y-61000000D01*
X146000000Y-72500000D02*
X144000000Y-74500000D01*
X140000000Y-60000000D02*
X146000000Y-66000000D01*
X140000000Y-57740000D02*
X140000000Y-60000000D01*
X146000000Y-66000000D02*
X146000000Y-72500000D01*
X136880000Y-54620000D02*
X140000000Y-57740000D01*
X141960000Y-58960000D02*
X144000000Y-61000000D01*
X141960000Y-54620000D02*
X141960000Y-58960000D01*
X147500000Y-65580000D02*
X148743999Y-64336001D01*
X147500000Y-72500000D02*
X147500000Y-65580000D01*
X148743999Y-64336001D02*
X158460000Y-54620000D01*
X149500000Y-74500000D02*
X147500000Y-72500000D01*
X149500000Y-58500000D02*
X149500000Y-61000000D01*
X153380000Y-54620000D02*
X149500000Y-58500000D01*
D21*
X138500000Y-43540000D02*
X138500000Y-38000000D01*
X136000000Y-46120000D02*
X136000000Y-38000000D01*
D23*
X152500000Y-39500000D02*
X153020000Y-40020000D01*
D21*
X152500000Y-39500000D02*
X153210500Y-40210500D01*
X152500000Y-38000000D02*
X152500000Y-39500000D01*
X153210500Y-40210500D02*
X158460000Y-45460000D01*
X153020000Y-40020000D02*
X153210500Y-40210500D01*
X150000000Y-43620000D02*
X150000000Y-38000000D01*
M02*
