G04 #@! TF.GenerationSoftware,KiCad,Pcbnew,5.1.10-88a1d61d58~90~ubuntu20.04.1*
G04 #@! TF.CreationDate,2022-01-16T21:05:33+00:00*
G04 #@! TF.ProjectId,hum_temp_sensor,68756d5f-7465-46d7-905f-73656e736f72,rev?*
G04 #@! TF.SameCoordinates,Original*
G04 #@! TF.FileFunction,Other,Fab,Top*
%FSLAX46Y46*%
G04 Gerber Fmt 4.6, Leading zero omitted, Abs format (unit mm)*
G04 Created by KiCad (PCBNEW 5.1.10-88a1d61d58~90~ubuntu20.04.1) date 2022-01-16 21:05:33*
%MOMM*%
%LPD*%
G01*
G04 APERTURE LIST*
%ADD10C,0.100000*%
%ADD11C,0.150000*%
G04 APERTURE END LIST*
D10*
X115750000Y-115190000D02*
X111250000Y-115190000D01*
X111250000Y-115190000D02*
X111250000Y-103190000D01*
X111250000Y-103190000D02*
X116750000Y-103190000D01*
X116750000Y-114190000D02*
X116750000Y-103190000D01*
X116750000Y-114190000D02*
X115750000Y-115190000D01*
X126500000Y-101000000D02*
X126500000Y-97000000D01*
X126500000Y-97000000D02*
X113500000Y-97000000D01*
X113500000Y-97000000D02*
X113500000Y-101000000D01*
X113500000Y-101000000D02*
X126500000Y-101000000D01*
X113500000Y-117500000D02*
X113500000Y-121500000D01*
X113500000Y-121500000D02*
X126500000Y-121500000D01*
X126500000Y-121500000D02*
X126500000Y-117500000D01*
X126500000Y-117500000D02*
X113500000Y-117500000D01*
X127150000Y-115450000D02*
X132900000Y-115450000D01*
X132900000Y-115450000D02*
X132900000Y-103050000D01*
X132900000Y-103050000D02*
X127150000Y-103050000D01*
X127150000Y-103050000D02*
X127150000Y-115450000D01*
X127150000Y-113625000D02*
X128150000Y-113000000D01*
X128150000Y-113000000D02*
X127150000Y-112375000D01*
X121500000Y-105230000D02*
G75*
G03*
X121500000Y-105230000I-1500000J0D01*
G01*
X118833810Y-106730000D02*
X121166190Y-106730000D01*
X121165476Y-106730555D02*
G75*
G03*
X118833810Y-106730000I-1165476J1500555D01*
G01*
X121250000Y-108500000D02*
X118750000Y-108500000D01*
X118750000Y-108500000D02*
X118750000Y-115500000D01*
X118750000Y-115500000D02*
X121250000Y-115500000D01*
X121250000Y-115500000D02*
X121250000Y-108500000D01*
D11*
X88166666Y-115452380D02*
X87833333Y-114976190D01*
X87595238Y-115452380D02*
X87595238Y-114452380D01*
X87976190Y-114452380D01*
X88071428Y-114500000D01*
X88119047Y-114547619D01*
X88166666Y-114642857D01*
X88166666Y-114785714D01*
X88119047Y-114880952D01*
X88071428Y-114928571D01*
X87976190Y-114976190D01*
X87595238Y-114976190D01*
X88595238Y-114928571D02*
X88928571Y-114928571D01*
X89071428Y-115452380D02*
X88595238Y-115452380D01*
X88595238Y-114452380D01*
X89071428Y-114452380D01*
X89833333Y-114928571D02*
X89500000Y-114928571D01*
X89500000Y-115452380D02*
X89500000Y-114452380D01*
X89976190Y-114452380D01*
X90500000Y-114452380D02*
X90500000Y-114690476D01*
X90261904Y-114595238D02*
X90500000Y-114690476D01*
X90738095Y-114595238D01*
X90357142Y-114880952D02*
X90500000Y-114690476D01*
X90642857Y-114880952D01*
X91261904Y-114452380D02*
X91261904Y-114690476D01*
X91023809Y-114595238D02*
X91261904Y-114690476D01*
X91500000Y-114595238D01*
X91119047Y-114880952D02*
X91261904Y-114690476D01*
X91404761Y-114880952D01*
X76809523Y-116152380D02*
X76809523Y-115152380D01*
X77142857Y-115866666D01*
X77476190Y-115152380D01*
X77476190Y-116152380D01*
X78095238Y-116152380D02*
X78000000Y-116104761D01*
X77952380Y-116057142D01*
X77904761Y-115961904D01*
X77904761Y-115676190D01*
X77952380Y-115580952D01*
X78000000Y-115533333D01*
X78095238Y-115485714D01*
X78238095Y-115485714D01*
X78333333Y-115533333D01*
X78380952Y-115580952D01*
X78428571Y-115676190D01*
X78428571Y-115961904D01*
X78380952Y-116057142D01*
X78333333Y-116104761D01*
X78238095Y-116152380D01*
X78095238Y-116152380D01*
X79285714Y-115485714D02*
X79285714Y-116152380D01*
X78857142Y-115485714D02*
X78857142Y-116009523D01*
X78904761Y-116104761D01*
X79000000Y-116152380D01*
X79142857Y-116152380D01*
X79238095Y-116104761D01*
X79285714Y-116057142D01*
X79761904Y-115485714D02*
X79761904Y-116152380D01*
X79761904Y-115580952D02*
X79809523Y-115533333D01*
X79904761Y-115485714D01*
X80047619Y-115485714D01*
X80142857Y-115533333D01*
X80190476Y-115628571D01*
X80190476Y-116152380D01*
X80523809Y-115485714D02*
X80904761Y-115485714D01*
X80666666Y-115152380D02*
X80666666Y-116009523D01*
X80714285Y-116104761D01*
X80809523Y-116152380D01*
X80904761Y-116152380D01*
X81238095Y-116152380D02*
X81238095Y-115485714D01*
X81238095Y-115152380D02*
X81190476Y-115200000D01*
X81238095Y-115247619D01*
X81285714Y-115200000D01*
X81238095Y-115152380D01*
X81238095Y-115247619D01*
X81714285Y-115485714D02*
X81714285Y-116152380D01*
X81714285Y-115580952D02*
X81761904Y-115533333D01*
X81857142Y-115485714D01*
X82000000Y-115485714D01*
X82095238Y-115533333D01*
X82142857Y-115628571D01*
X82142857Y-116152380D01*
X83047619Y-115485714D02*
X83047619Y-116295238D01*
X83000000Y-116390476D01*
X82952380Y-116438095D01*
X82857142Y-116485714D01*
X82714285Y-116485714D01*
X82619047Y-116438095D01*
X83047619Y-116104761D02*
X82952380Y-116152380D01*
X82761904Y-116152380D01*
X82666666Y-116104761D01*
X82619047Y-116057142D01*
X82571428Y-115961904D01*
X82571428Y-115676190D01*
X82619047Y-115580952D01*
X82666666Y-115533333D01*
X82761904Y-115485714D01*
X82952380Y-115485714D01*
X83047619Y-115533333D01*
X83523809Y-116152380D02*
X83523809Y-115152380D01*
X83523809Y-115628571D02*
X84095238Y-115628571D01*
X84095238Y-116152380D02*
X84095238Y-115152380D01*
X84714285Y-116152380D02*
X84619047Y-116104761D01*
X84571428Y-116057142D01*
X84523809Y-115961904D01*
X84523809Y-115676190D01*
X84571428Y-115580952D01*
X84619047Y-115533333D01*
X84714285Y-115485714D01*
X84857142Y-115485714D01*
X84952380Y-115533333D01*
X85000000Y-115580952D01*
X85047619Y-115676190D01*
X85047619Y-115961904D01*
X85000000Y-116057142D01*
X84952380Y-116104761D01*
X84857142Y-116152380D01*
X84714285Y-116152380D01*
X85619047Y-116152380D02*
X85523809Y-116104761D01*
X85476190Y-116009523D01*
X85476190Y-115152380D01*
X86380952Y-116104761D02*
X86285714Y-116152380D01*
X86095238Y-116152380D01*
X86000000Y-116104761D01*
X85952380Y-116009523D01*
X85952380Y-115628571D01*
X86000000Y-115533333D01*
X86095238Y-115485714D01*
X86285714Y-115485714D01*
X86380952Y-115533333D01*
X86428571Y-115628571D01*
X86428571Y-115723809D01*
X85952380Y-115819047D01*
X86619047Y-116247619D02*
X87380952Y-116247619D01*
X87523809Y-115152380D02*
X88142857Y-115152380D01*
X87809523Y-115533333D01*
X87952380Y-115533333D01*
X88047619Y-115580952D01*
X88095238Y-115628571D01*
X88142857Y-115723809D01*
X88142857Y-115961904D01*
X88095238Y-116057142D01*
X88047619Y-116104761D01*
X87952380Y-116152380D01*
X87666666Y-116152380D01*
X87571428Y-116104761D01*
X87523809Y-116057142D01*
X88571428Y-116057142D02*
X88619047Y-116104761D01*
X88571428Y-116152380D01*
X88523809Y-116104761D01*
X88571428Y-116057142D01*
X88571428Y-116152380D01*
X88999999Y-115247619D02*
X89047619Y-115200000D01*
X89142857Y-115152380D01*
X89380952Y-115152380D01*
X89476190Y-115200000D01*
X89523809Y-115247619D01*
X89571428Y-115342857D01*
X89571428Y-115438095D01*
X89523809Y-115580952D01*
X88952380Y-116152380D01*
X89571428Y-116152380D01*
X89999999Y-116152380D02*
X89999999Y-115485714D01*
X89999999Y-115580952D02*
X90047619Y-115533333D01*
X90142857Y-115485714D01*
X90285714Y-115485714D01*
X90380952Y-115533333D01*
X90428571Y-115628571D01*
X90428571Y-116152380D01*
X90428571Y-115628571D02*
X90476190Y-115533333D01*
X90571428Y-115485714D01*
X90714285Y-115485714D01*
X90809523Y-115533333D01*
X90857142Y-115628571D01*
X90857142Y-116152380D01*
X91333333Y-116152380D02*
X91333333Y-115485714D01*
X91333333Y-115580952D02*
X91380952Y-115533333D01*
X91476190Y-115485714D01*
X91619047Y-115485714D01*
X91714285Y-115533333D01*
X91761904Y-115628571D01*
X91761904Y-116152380D01*
X91761904Y-115628571D02*
X91809523Y-115533333D01*
X91904761Y-115485714D01*
X92047619Y-115485714D01*
X92142857Y-115533333D01*
X92190476Y-115628571D01*
X92190476Y-116152380D01*
X92428571Y-116247619D02*
X93190476Y-116247619D01*
X93428571Y-116152380D02*
X93428571Y-115152380D01*
X93761904Y-115866666D01*
X94095238Y-115152380D01*
X94095238Y-116152380D01*
X94476190Y-115152380D02*
X95095238Y-115152380D01*
X94761904Y-115533333D01*
X94904761Y-115533333D01*
X95000000Y-115580952D01*
X95047619Y-115628571D01*
X95095238Y-115723809D01*
X95095238Y-115961904D01*
X95047619Y-116057142D01*
X95000000Y-116104761D01*
X94904761Y-116152380D01*
X94619047Y-116152380D01*
X94523809Y-116104761D01*
X94476190Y-116057142D01*
X95285714Y-116247619D02*
X96047619Y-116247619D01*
X96285714Y-116152380D02*
X96285714Y-115152380D01*
X96523809Y-115152380D01*
X96666666Y-115200000D01*
X96761904Y-115295238D01*
X96809523Y-115390476D01*
X96857142Y-115580952D01*
X96857142Y-115723809D01*
X96809523Y-115914285D01*
X96761904Y-116009523D01*
X96666666Y-116104761D01*
X96523809Y-116152380D01*
X96285714Y-116152380D01*
X97285714Y-116152380D02*
X97285714Y-115152380D01*
X97761904Y-116152380D02*
X97761904Y-115152380D01*
X98333333Y-116152380D01*
X98333333Y-115152380D01*
X98857142Y-116152380D02*
X99047619Y-116152380D01*
X99142857Y-116104761D01*
X99190476Y-116057142D01*
X99285714Y-115914285D01*
X99333333Y-115723809D01*
X99333333Y-115342857D01*
X99285714Y-115247619D01*
X99238095Y-115200000D01*
X99142857Y-115152380D01*
X98952380Y-115152380D01*
X98857142Y-115200000D01*
X98809523Y-115247619D01*
X98761904Y-115342857D01*
X98761904Y-115580952D01*
X98809523Y-115676190D01*
X98857142Y-115723809D01*
X98952380Y-115771428D01*
X99142857Y-115771428D01*
X99238095Y-115723809D01*
X99285714Y-115676190D01*
X99333333Y-115580952D01*
X100190476Y-115152380D02*
X100000000Y-115152380D01*
X99904761Y-115200000D01*
X99857142Y-115247619D01*
X99761904Y-115390476D01*
X99714285Y-115580952D01*
X99714285Y-115961904D01*
X99761904Y-116057142D01*
X99809523Y-116104761D01*
X99904761Y-116152380D01*
X100095238Y-116152380D01*
X100190476Y-116104761D01*
X100238095Y-116057142D01*
X100285714Y-115961904D01*
X100285714Y-115723809D01*
X100238095Y-115628571D01*
X100190476Y-115580952D01*
X100095238Y-115533333D01*
X99904761Y-115533333D01*
X99809523Y-115580952D01*
X99761904Y-115628571D01*
X99714285Y-115723809D01*
X101190476Y-115152380D02*
X100714285Y-115152380D01*
X100666666Y-115628571D01*
X100714285Y-115580952D01*
X100809523Y-115533333D01*
X101047619Y-115533333D01*
X101142857Y-115580952D01*
X101190476Y-115628571D01*
X101238095Y-115723809D01*
X101238095Y-115961904D01*
X101190476Y-116057142D01*
X101142857Y-116104761D01*
X101047619Y-116152380D01*
X100809523Y-116152380D01*
X100714285Y-116104761D01*
X100666666Y-116057142D01*
X87366666Y-119952380D02*
X87033333Y-119476190D01*
X86795238Y-119952380D02*
X86795238Y-118952380D01*
X87176190Y-118952380D01*
X87271428Y-119000000D01*
X87319047Y-119047619D01*
X87366666Y-119142857D01*
X87366666Y-119285714D01*
X87319047Y-119380952D01*
X87271428Y-119428571D01*
X87176190Y-119476190D01*
X86795238Y-119476190D01*
X87795238Y-119428571D02*
X88128571Y-119428571D01*
X88271428Y-119952380D02*
X87795238Y-119952380D01*
X87795238Y-118952380D01*
X88271428Y-118952380D01*
X89033333Y-119428571D02*
X88700000Y-119428571D01*
X88700000Y-119952380D02*
X88700000Y-118952380D01*
X89176190Y-118952380D01*
X89700000Y-118952380D02*
X89700000Y-119190476D01*
X89461904Y-119095238D02*
X89700000Y-119190476D01*
X89938095Y-119095238D01*
X89557142Y-119380952D02*
X89700000Y-119190476D01*
X89842857Y-119380952D01*
X90461904Y-118952380D02*
X90461904Y-119190476D01*
X90223809Y-119095238D02*
X90461904Y-119190476D01*
X90700000Y-119095238D01*
X90319047Y-119380952D02*
X90461904Y-119190476D01*
X90604761Y-119380952D01*
X85652380Y-100333333D02*
X85176190Y-100666666D01*
X85652380Y-100904761D02*
X84652380Y-100904761D01*
X84652380Y-100523809D01*
X84700000Y-100428571D01*
X84747619Y-100380952D01*
X84842857Y-100333333D01*
X84985714Y-100333333D01*
X85080952Y-100380952D01*
X85128571Y-100428571D01*
X85176190Y-100523809D01*
X85176190Y-100904761D01*
X85128571Y-99904761D02*
X85128571Y-99571428D01*
X85652380Y-99428571D02*
X85652380Y-99904761D01*
X84652380Y-99904761D01*
X84652380Y-99428571D01*
X85128571Y-98666666D02*
X85128571Y-99000000D01*
X85652380Y-99000000D02*
X84652380Y-99000000D01*
X84652380Y-98523809D01*
X84652380Y-98000000D02*
X84890476Y-98000000D01*
X84795238Y-98238095D02*
X84890476Y-98000000D01*
X84795238Y-97761904D01*
X85080952Y-98142857D02*
X84890476Y-98000000D01*
X85080952Y-97857142D01*
X84652380Y-97238095D02*
X84890476Y-97238095D01*
X84795238Y-97476190D02*
X84890476Y-97238095D01*
X84795238Y-97000000D01*
X85080952Y-97380952D02*
X84890476Y-97238095D01*
X85080952Y-97095238D01*
X93252380Y-111190476D02*
X92252380Y-111190476D01*
X92966666Y-110857142D01*
X92252380Y-110523809D01*
X93252380Y-110523809D01*
X93252380Y-109904761D02*
X93204761Y-110000000D01*
X93157142Y-110047619D01*
X93061904Y-110095238D01*
X92776190Y-110095238D01*
X92680952Y-110047619D01*
X92633333Y-110000000D01*
X92585714Y-109904761D01*
X92585714Y-109761904D01*
X92633333Y-109666666D01*
X92680952Y-109619047D01*
X92776190Y-109571428D01*
X93061904Y-109571428D01*
X93157142Y-109619047D01*
X93204761Y-109666666D01*
X93252380Y-109761904D01*
X93252380Y-109904761D01*
X92585714Y-108714285D02*
X93252380Y-108714285D01*
X92585714Y-109142857D02*
X93109523Y-109142857D01*
X93204761Y-109095238D01*
X93252380Y-109000000D01*
X93252380Y-108857142D01*
X93204761Y-108761904D01*
X93157142Y-108714285D01*
X92585714Y-108238095D02*
X93252380Y-108238095D01*
X92680952Y-108238095D02*
X92633333Y-108190476D01*
X92585714Y-108095238D01*
X92585714Y-107952380D01*
X92633333Y-107857142D01*
X92728571Y-107809523D01*
X93252380Y-107809523D01*
X92585714Y-107476190D02*
X92585714Y-107095238D01*
X92252380Y-107333333D02*
X93109523Y-107333333D01*
X93204761Y-107285714D01*
X93252380Y-107190476D01*
X93252380Y-107095238D01*
X93252380Y-106761904D02*
X92585714Y-106761904D01*
X92252380Y-106761904D02*
X92300000Y-106809523D01*
X92347619Y-106761904D01*
X92300000Y-106714285D01*
X92252380Y-106761904D01*
X92347619Y-106761904D01*
X92585714Y-106285714D02*
X93252380Y-106285714D01*
X92680952Y-106285714D02*
X92633333Y-106238095D01*
X92585714Y-106142857D01*
X92585714Y-106000000D01*
X92633333Y-105904761D01*
X92728571Y-105857142D01*
X93252380Y-105857142D01*
X92585714Y-104952380D02*
X93395238Y-104952380D01*
X93490476Y-105000000D01*
X93538095Y-105047619D01*
X93585714Y-105142857D01*
X93585714Y-105285714D01*
X93538095Y-105380952D01*
X93204761Y-104952380D02*
X93252380Y-105047619D01*
X93252380Y-105238095D01*
X93204761Y-105333333D01*
X93157142Y-105380952D01*
X93061904Y-105428571D01*
X92776190Y-105428571D01*
X92680952Y-105380952D01*
X92633333Y-105333333D01*
X92585714Y-105238095D01*
X92585714Y-105047619D01*
X92633333Y-104952380D01*
X93252380Y-104476190D02*
X92252380Y-104476190D01*
X92728571Y-104476190D02*
X92728571Y-103904761D01*
X93252380Y-103904761D02*
X92252380Y-103904761D01*
X93252380Y-103285714D02*
X93204761Y-103380952D01*
X93157142Y-103428571D01*
X93061904Y-103476190D01*
X92776190Y-103476190D01*
X92680952Y-103428571D01*
X92633333Y-103380952D01*
X92585714Y-103285714D01*
X92585714Y-103142857D01*
X92633333Y-103047619D01*
X92680952Y-103000000D01*
X92776190Y-102952380D01*
X93061904Y-102952380D01*
X93157142Y-103000000D01*
X93204761Y-103047619D01*
X93252380Y-103142857D01*
X93252380Y-103285714D01*
X93252380Y-102380952D02*
X93204761Y-102476190D01*
X93109523Y-102523809D01*
X92252380Y-102523809D01*
X93204761Y-101619047D02*
X93252380Y-101714285D01*
X93252380Y-101904761D01*
X93204761Y-102000000D01*
X93109523Y-102047619D01*
X92728571Y-102047619D01*
X92633333Y-102000000D01*
X92585714Y-101904761D01*
X92585714Y-101714285D01*
X92633333Y-101619047D01*
X92728571Y-101571428D01*
X92823809Y-101571428D01*
X92919047Y-102047619D01*
X93347619Y-101380952D02*
X93347619Y-100619047D01*
X92252380Y-100476190D02*
X92252380Y-99857142D01*
X92633333Y-100190476D01*
X92633333Y-100047619D01*
X92680952Y-99952380D01*
X92728571Y-99904761D01*
X92823809Y-99857142D01*
X93061904Y-99857142D01*
X93157142Y-99904761D01*
X93204761Y-99952380D01*
X93252380Y-100047619D01*
X93252380Y-100333333D01*
X93204761Y-100428571D01*
X93157142Y-100476190D01*
X93157142Y-99428571D02*
X93204761Y-99380952D01*
X93252380Y-99428571D01*
X93204761Y-99476190D01*
X93157142Y-99428571D01*
X93252380Y-99428571D01*
X92347619Y-99000000D02*
X92300000Y-98952380D01*
X92252380Y-98857142D01*
X92252380Y-98619047D01*
X92300000Y-98523809D01*
X92347619Y-98476190D01*
X92442857Y-98428571D01*
X92538095Y-98428571D01*
X92680952Y-98476190D01*
X93252380Y-99047619D01*
X93252380Y-98428571D01*
X93252380Y-98000000D02*
X92585714Y-98000000D01*
X92680952Y-98000000D02*
X92633333Y-97952380D01*
X92585714Y-97857142D01*
X92585714Y-97714285D01*
X92633333Y-97619047D01*
X92728571Y-97571428D01*
X93252380Y-97571428D01*
X92728571Y-97571428D02*
X92633333Y-97523809D01*
X92585714Y-97428571D01*
X92585714Y-97285714D01*
X92633333Y-97190476D01*
X92728571Y-97142857D01*
X93252380Y-97142857D01*
X93252380Y-96666666D02*
X92585714Y-96666666D01*
X92680952Y-96666666D02*
X92633333Y-96619047D01*
X92585714Y-96523809D01*
X92585714Y-96380952D01*
X92633333Y-96285714D01*
X92728571Y-96238095D01*
X93252380Y-96238095D01*
X92728571Y-96238095D02*
X92633333Y-96190476D01*
X92585714Y-96095238D01*
X92585714Y-95952380D01*
X92633333Y-95857142D01*
X92728571Y-95809523D01*
X93252380Y-95809523D01*
X93347619Y-95571428D02*
X93347619Y-94809523D01*
X93252380Y-94571428D02*
X92252380Y-94571428D01*
X92966666Y-94238095D01*
X92252380Y-93904761D01*
X93252380Y-93904761D01*
X92252380Y-93523809D02*
X92252380Y-92904761D01*
X92633333Y-93238095D01*
X92633333Y-93095238D01*
X92680952Y-93000000D01*
X92728571Y-92952380D01*
X92823809Y-92904761D01*
X93061904Y-92904761D01*
X93157142Y-92952380D01*
X93204761Y-93000000D01*
X93252380Y-93095238D01*
X93252380Y-93380952D01*
X93204761Y-93476190D01*
X93157142Y-93523809D01*
X93347619Y-92714285D02*
X93347619Y-91952380D01*
X93252380Y-91714285D02*
X92252380Y-91714285D01*
X92252380Y-91476190D01*
X92300000Y-91333333D01*
X92395238Y-91238095D01*
X92490476Y-91190476D01*
X92680952Y-91142857D01*
X92823809Y-91142857D01*
X93014285Y-91190476D01*
X93109523Y-91238095D01*
X93204761Y-91333333D01*
X93252380Y-91476190D01*
X93252380Y-91714285D01*
X93252380Y-90714285D02*
X92252380Y-90714285D01*
X93252380Y-90238095D02*
X92252380Y-90238095D01*
X93252380Y-89666666D01*
X92252380Y-89666666D01*
X93252380Y-89142857D02*
X93252380Y-88952380D01*
X93204761Y-88857142D01*
X93157142Y-88809523D01*
X93014285Y-88714285D01*
X92823809Y-88666666D01*
X92442857Y-88666666D01*
X92347619Y-88714285D01*
X92300000Y-88761904D01*
X92252380Y-88857142D01*
X92252380Y-89047619D01*
X92300000Y-89142857D01*
X92347619Y-89190476D01*
X92442857Y-89238095D01*
X92680952Y-89238095D01*
X92776190Y-89190476D01*
X92823809Y-89142857D01*
X92871428Y-89047619D01*
X92871428Y-88857142D01*
X92823809Y-88761904D01*
X92776190Y-88714285D01*
X92680952Y-88666666D01*
X92252380Y-87809523D02*
X92252380Y-88000000D01*
X92300000Y-88095238D01*
X92347619Y-88142857D01*
X92490476Y-88238095D01*
X92680952Y-88285714D01*
X93061904Y-88285714D01*
X93157142Y-88238095D01*
X93204761Y-88190476D01*
X93252380Y-88095238D01*
X93252380Y-87904761D01*
X93204761Y-87809523D01*
X93157142Y-87761904D01*
X93061904Y-87714285D01*
X92823809Y-87714285D01*
X92728571Y-87761904D01*
X92680952Y-87809523D01*
X92633333Y-87904761D01*
X92633333Y-88095238D01*
X92680952Y-88190476D01*
X92728571Y-88238095D01*
X92823809Y-88285714D01*
X92252380Y-86809523D02*
X92252380Y-87285714D01*
X92728571Y-87333333D01*
X92680952Y-87285714D01*
X92633333Y-87190476D01*
X92633333Y-86952380D01*
X92680952Y-86857142D01*
X92728571Y-86809523D01*
X92823809Y-86761904D01*
X93061904Y-86761904D01*
X93157142Y-86809523D01*
X93204761Y-86857142D01*
X93252380Y-86952380D01*
X93252380Y-87190476D01*
X93204761Y-87285714D01*
X93157142Y-87333333D01*
X89452380Y-100033333D02*
X88976190Y-100366666D01*
X89452380Y-100604761D02*
X88452380Y-100604761D01*
X88452380Y-100223809D01*
X88500000Y-100128571D01*
X88547619Y-100080952D01*
X88642857Y-100033333D01*
X88785714Y-100033333D01*
X88880952Y-100080952D01*
X88928571Y-100128571D01*
X88976190Y-100223809D01*
X88976190Y-100604761D01*
X88928571Y-99604761D02*
X88928571Y-99271428D01*
X89452380Y-99128571D02*
X89452380Y-99604761D01*
X88452380Y-99604761D01*
X88452380Y-99128571D01*
X88928571Y-98366666D02*
X88928571Y-98700000D01*
X89452380Y-98700000D02*
X88452380Y-98700000D01*
X88452380Y-98223809D01*
X88452380Y-97700000D02*
X88690476Y-97700000D01*
X88595238Y-97938095D02*
X88690476Y-97700000D01*
X88595238Y-97461904D01*
X88880952Y-97842857D02*
X88690476Y-97700000D01*
X88880952Y-97557142D01*
X88452380Y-96938095D02*
X88690476Y-96938095D01*
X88595238Y-97176190D02*
X88690476Y-96938095D01*
X88595238Y-96700000D01*
X88880952Y-97080952D02*
X88690476Y-96938095D01*
X88880952Y-96795238D01*
X129166666Y-116152380D02*
X128833333Y-115676190D01*
X128595238Y-116152380D02*
X128595238Y-115152380D01*
X128976190Y-115152380D01*
X129071428Y-115200000D01*
X129119047Y-115247619D01*
X129166666Y-115342857D01*
X129166666Y-115485714D01*
X129119047Y-115580952D01*
X129071428Y-115628571D01*
X128976190Y-115676190D01*
X128595238Y-115676190D01*
X129595238Y-115628571D02*
X129928571Y-115628571D01*
X130071428Y-116152380D02*
X129595238Y-116152380D01*
X129595238Y-115152380D01*
X130071428Y-115152380D01*
X130833333Y-115628571D02*
X130500000Y-115628571D01*
X130500000Y-116152380D02*
X130500000Y-115152380D01*
X130976190Y-115152380D01*
X131500000Y-115152380D02*
X131500000Y-115390476D01*
X131261904Y-115295238D02*
X131500000Y-115390476D01*
X131738095Y-115295238D01*
X131357142Y-115580952D02*
X131500000Y-115390476D01*
X131642857Y-115580952D01*
X132261904Y-115152380D02*
X132261904Y-115390476D01*
X132023809Y-115295238D02*
X132261904Y-115390476D01*
X132500000Y-115295238D01*
X132119047Y-115580952D02*
X132261904Y-115390476D01*
X132404761Y-115580952D01*
X118309523Y-123752380D02*
X118309523Y-122752380D01*
X118642857Y-123466666D01*
X118976190Y-122752380D01*
X118976190Y-123752380D01*
X119595238Y-123752380D02*
X119500000Y-123704761D01*
X119452380Y-123657142D01*
X119404761Y-123561904D01*
X119404761Y-123276190D01*
X119452380Y-123180952D01*
X119500000Y-123133333D01*
X119595238Y-123085714D01*
X119738095Y-123085714D01*
X119833333Y-123133333D01*
X119880952Y-123180952D01*
X119928571Y-123276190D01*
X119928571Y-123561904D01*
X119880952Y-123657142D01*
X119833333Y-123704761D01*
X119738095Y-123752380D01*
X119595238Y-123752380D01*
X120785714Y-123085714D02*
X120785714Y-123752380D01*
X120357142Y-123085714D02*
X120357142Y-123609523D01*
X120404761Y-123704761D01*
X120500000Y-123752380D01*
X120642857Y-123752380D01*
X120738095Y-123704761D01*
X120785714Y-123657142D01*
X121261904Y-123085714D02*
X121261904Y-123752380D01*
X121261904Y-123180952D02*
X121309523Y-123133333D01*
X121404761Y-123085714D01*
X121547619Y-123085714D01*
X121642857Y-123133333D01*
X121690476Y-123228571D01*
X121690476Y-123752380D01*
X122023809Y-123085714D02*
X122404761Y-123085714D01*
X122166666Y-122752380D02*
X122166666Y-123609523D01*
X122214285Y-123704761D01*
X122309523Y-123752380D01*
X122404761Y-123752380D01*
X122738095Y-123752380D02*
X122738095Y-123085714D01*
X122738095Y-122752380D02*
X122690476Y-122800000D01*
X122738095Y-122847619D01*
X122785714Y-122800000D01*
X122738095Y-122752380D01*
X122738095Y-122847619D01*
X123214285Y-123085714D02*
X123214285Y-123752380D01*
X123214285Y-123180952D02*
X123261904Y-123133333D01*
X123357142Y-123085714D01*
X123500000Y-123085714D01*
X123595238Y-123133333D01*
X123642857Y-123228571D01*
X123642857Y-123752380D01*
X124547619Y-123085714D02*
X124547619Y-123895238D01*
X124500000Y-123990476D01*
X124452380Y-124038095D01*
X124357142Y-124085714D01*
X124214285Y-124085714D01*
X124119047Y-124038095D01*
X124547619Y-123704761D02*
X124452380Y-123752380D01*
X124261904Y-123752380D01*
X124166666Y-123704761D01*
X124119047Y-123657142D01*
X124071428Y-123561904D01*
X124071428Y-123276190D01*
X124119047Y-123180952D01*
X124166666Y-123133333D01*
X124261904Y-123085714D01*
X124452380Y-123085714D01*
X124547619Y-123133333D01*
X125023809Y-123752380D02*
X125023809Y-122752380D01*
X125023809Y-123228571D02*
X125595238Y-123228571D01*
X125595238Y-123752380D02*
X125595238Y-122752380D01*
X126214285Y-123752380D02*
X126119047Y-123704761D01*
X126071428Y-123657142D01*
X126023809Y-123561904D01*
X126023809Y-123276190D01*
X126071428Y-123180952D01*
X126119047Y-123133333D01*
X126214285Y-123085714D01*
X126357142Y-123085714D01*
X126452380Y-123133333D01*
X126500000Y-123180952D01*
X126547619Y-123276190D01*
X126547619Y-123561904D01*
X126500000Y-123657142D01*
X126452380Y-123704761D01*
X126357142Y-123752380D01*
X126214285Y-123752380D01*
X127119047Y-123752380D02*
X127023809Y-123704761D01*
X126976190Y-123609523D01*
X126976190Y-122752380D01*
X127880952Y-123704761D02*
X127785714Y-123752380D01*
X127595238Y-123752380D01*
X127500000Y-123704761D01*
X127452380Y-123609523D01*
X127452380Y-123228571D01*
X127500000Y-123133333D01*
X127595238Y-123085714D01*
X127785714Y-123085714D01*
X127880952Y-123133333D01*
X127928571Y-123228571D01*
X127928571Y-123323809D01*
X127452380Y-123419047D01*
X128119047Y-123847619D02*
X128880952Y-123847619D01*
X129023809Y-122752380D02*
X129642857Y-122752380D01*
X129309523Y-123133333D01*
X129452380Y-123133333D01*
X129547619Y-123180952D01*
X129595238Y-123228571D01*
X129642857Y-123323809D01*
X129642857Y-123561904D01*
X129595238Y-123657142D01*
X129547619Y-123704761D01*
X129452380Y-123752380D01*
X129166666Y-123752380D01*
X129071428Y-123704761D01*
X129023809Y-123657142D01*
X130071428Y-123657142D02*
X130119047Y-123704761D01*
X130071428Y-123752380D01*
X130023809Y-123704761D01*
X130071428Y-123657142D01*
X130071428Y-123752380D01*
X130499999Y-122847619D02*
X130547619Y-122800000D01*
X130642857Y-122752380D01*
X130880952Y-122752380D01*
X130976190Y-122800000D01*
X131023809Y-122847619D01*
X131071428Y-122942857D01*
X131071428Y-123038095D01*
X131023809Y-123180952D01*
X130452380Y-123752380D01*
X131071428Y-123752380D01*
X131499999Y-123752380D02*
X131499999Y-123085714D01*
X131499999Y-123180952D02*
X131547619Y-123133333D01*
X131642857Y-123085714D01*
X131785714Y-123085714D01*
X131880952Y-123133333D01*
X131928571Y-123228571D01*
X131928571Y-123752380D01*
X131928571Y-123228571D02*
X131976190Y-123133333D01*
X132071428Y-123085714D01*
X132214285Y-123085714D01*
X132309523Y-123133333D01*
X132357142Y-123228571D01*
X132357142Y-123752380D01*
X132833333Y-123752380D02*
X132833333Y-123085714D01*
X132833333Y-123180952D02*
X132880952Y-123133333D01*
X132976190Y-123085714D01*
X133119047Y-123085714D01*
X133214285Y-123133333D01*
X133261904Y-123228571D01*
X133261904Y-123752380D01*
X133261904Y-123228571D02*
X133309523Y-123133333D01*
X133404761Y-123085714D01*
X133547619Y-123085714D01*
X133642857Y-123133333D01*
X133690476Y-123228571D01*
X133690476Y-123752380D01*
X133928571Y-123847619D02*
X134690476Y-123847619D01*
X134928571Y-123752380D02*
X134928571Y-122752380D01*
X135261904Y-123466666D01*
X135595238Y-122752380D01*
X135595238Y-123752380D01*
X135976190Y-122752380D02*
X136595238Y-122752380D01*
X136261904Y-123133333D01*
X136404761Y-123133333D01*
X136500000Y-123180952D01*
X136547619Y-123228571D01*
X136595238Y-123323809D01*
X136595238Y-123561904D01*
X136547619Y-123657142D01*
X136500000Y-123704761D01*
X136404761Y-123752380D01*
X136119047Y-123752380D01*
X136023809Y-123704761D01*
X135976190Y-123657142D01*
X136785714Y-123847619D02*
X137547619Y-123847619D01*
X137785714Y-123752380D02*
X137785714Y-122752380D01*
X138023809Y-122752380D01*
X138166666Y-122800000D01*
X138261904Y-122895238D01*
X138309523Y-122990476D01*
X138357142Y-123180952D01*
X138357142Y-123323809D01*
X138309523Y-123514285D01*
X138261904Y-123609523D01*
X138166666Y-123704761D01*
X138023809Y-123752380D01*
X137785714Y-123752380D01*
X138785714Y-123752380D02*
X138785714Y-122752380D01*
X139261904Y-123752380D02*
X139261904Y-122752380D01*
X139833333Y-123752380D01*
X139833333Y-122752380D01*
X140357142Y-123752380D02*
X140547619Y-123752380D01*
X140642857Y-123704761D01*
X140690476Y-123657142D01*
X140785714Y-123514285D01*
X140833333Y-123323809D01*
X140833333Y-122942857D01*
X140785714Y-122847619D01*
X140738095Y-122800000D01*
X140642857Y-122752380D01*
X140452380Y-122752380D01*
X140357142Y-122800000D01*
X140309523Y-122847619D01*
X140261904Y-122942857D01*
X140261904Y-123180952D01*
X140309523Y-123276190D01*
X140357142Y-123323809D01*
X140452380Y-123371428D01*
X140642857Y-123371428D01*
X140738095Y-123323809D01*
X140785714Y-123276190D01*
X140833333Y-123180952D01*
X141690476Y-122752380D02*
X141500000Y-122752380D01*
X141404761Y-122800000D01*
X141357142Y-122847619D01*
X141261904Y-122990476D01*
X141214285Y-123180952D01*
X141214285Y-123561904D01*
X141261904Y-123657142D01*
X141309523Y-123704761D01*
X141404761Y-123752380D01*
X141595238Y-123752380D01*
X141690476Y-123704761D01*
X141738095Y-123657142D01*
X141785714Y-123561904D01*
X141785714Y-123323809D01*
X141738095Y-123228571D01*
X141690476Y-123180952D01*
X141595238Y-123133333D01*
X141404761Y-123133333D01*
X141309523Y-123180952D01*
X141261904Y-123228571D01*
X141214285Y-123323809D01*
X142690476Y-122752380D02*
X142214285Y-122752380D01*
X142166666Y-123228571D01*
X142214285Y-123180952D01*
X142309523Y-123133333D01*
X142547619Y-123133333D01*
X142642857Y-123180952D01*
X142690476Y-123228571D01*
X142738095Y-123323809D01*
X142738095Y-123561904D01*
X142690476Y-123657142D01*
X142642857Y-123704761D01*
X142547619Y-123752380D01*
X142309523Y-123752380D01*
X142214285Y-123704761D01*
X142166666Y-123657142D01*
X129466666Y-119952380D02*
X129133333Y-119476190D01*
X128895238Y-119952380D02*
X128895238Y-118952380D01*
X129276190Y-118952380D01*
X129371428Y-119000000D01*
X129419047Y-119047619D01*
X129466666Y-119142857D01*
X129466666Y-119285714D01*
X129419047Y-119380952D01*
X129371428Y-119428571D01*
X129276190Y-119476190D01*
X128895238Y-119476190D01*
X129895238Y-119428571D02*
X130228571Y-119428571D01*
X130371428Y-119952380D02*
X129895238Y-119952380D01*
X129895238Y-118952380D01*
X130371428Y-118952380D01*
X131133333Y-119428571D02*
X130800000Y-119428571D01*
X130800000Y-119952380D02*
X130800000Y-118952380D01*
X131276190Y-118952380D01*
X131800000Y-118952380D02*
X131800000Y-119190476D01*
X131561904Y-119095238D02*
X131800000Y-119190476D01*
X132038095Y-119095238D01*
X131657142Y-119380952D02*
X131800000Y-119190476D01*
X131942857Y-119380952D01*
X132561904Y-118952380D02*
X132561904Y-119190476D01*
X132323809Y-119095238D02*
X132561904Y-119190476D01*
X132800000Y-119095238D01*
X132419047Y-119380952D02*
X132561904Y-119190476D01*
X132704761Y-119380952D01*
X129166666Y-95652380D02*
X128833333Y-95176190D01*
X128595238Y-95652380D02*
X128595238Y-94652380D01*
X128976190Y-94652380D01*
X129071428Y-94700000D01*
X129119047Y-94747619D01*
X129166666Y-94842857D01*
X129166666Y-94985714D01*
X129119047Y-95080952D01*
X129071428Y-95128571D01*
X128976190Y-95176190D01*
X128595238Y-95176190D01*
X129595238Y-95128571D02*
X129928571Y-95128571D01*
X130071428Y-95652380D02*
X129595238Y-95652380D01*
X129595238Y-94652380D01*
X130071428Y-94652380D01*
X130833333Y-95128571D02*
X130500000Y-95128571D01*
X130500000Y-95652380D02*
X130500000Y-94652380D01*
X130976190Y-94652380D01*
X131500000Y-94652380D02*
X131500000Y-94890476D01*
X131261904Y-94795238D02*
X131500000Y-94890476D01*
X131738095Y-94795238D01*
X131357142Y-95080952D02*
X131500000Y-94890476D01*
X131642857Y-95080952D01*
X132261904Y-94652380D02*
X132261904Y-94890476D01*
X132023809Y-94795238D02*
X132261904Y-94890476D01*
X132500000Y-94795238D01*
X132119047Y-95080952D02*
X132261904Y-94890476D01*
X132404761Y-95080952D01*
X118309523Y-103252380D02*
X118309523Y-102252380D01*
X118642857Y-102966666D01*
X118976190Y-102252380D01*
X118976190Y-103252380D01*
X119595238Y-103252380D02*
X119500000Y-103204761D01*
X119452380Y-103157142D01*
X119404761Y-103061904D01*
X119404761Y-102776190D01*
X119452380Y-102680952D01*
X119500000Y-102633333D01*
X119595238Y-102585714D01*
X119738095Y-102585714D01*
X119833333Y-102633333D01*
X119880952Y-102680952D01*
X119928571Y-102776190D01*
X119928571Y-103061904D01*
X119880952Y-103157142D01*
X119833333Y-103204761D01*
X119738095Y-103252380D01*
X119595238Y-103252380D01*
X120785714Y-102585714D02*
X120785714Y-103252380D01*
X120357142Y-102585714D02*
X120357142Y-103109523D01*
X120404761Y-103204761D01*
X120500000Y-103252380D01*
X120642857Y-103252380D01*
X120738095Y-103204761D01*
X120785714Y-103157142D01*
X121261904Y-102585714D02*
X121261904Y-103252380D01*
X121261904Y-102680952D02*
X121309523Y-102633333D01*
X121404761Y-102585714D01*
X121547619Y-102585714D01*
X121642857Y-102633333D01*
X121690476Y-102728571D01*
X121690476Y-103252380D01*
X122023809Y-102585714D02*
X122404761Y-102585714D01*
X122166666Y-102252380D02*
X122166666Y-103109523D01*
X122214285Y-103204761D01*
X122309523Y-103252380D01*
X122404761Y-103252380D01*
X122738095Y-103252380D02*
X122738095Y-102585714D01*
X122738095Y-102252380D02*
X122690476Y-102300000D01*
X122738095Y-102347619D01*
X122785714Y-102300000D01*
X122738095Y-102252380D01*
X122738095Y-102347619D01*
X123214285Y-102585714D02*
X123214285Y-103252380D01*
X123214285Y-102680952D02*
X123261904Y-102633333D01*
X123357142Y-102585714D01*
X123500000Y-102585714D01*
X123595238Y-102633333D01*
X123642857Y-102728571D01*
X123642857Y-103252380D01*
X124547619Y-102585714D02*
X124547619Y-103395238D01*
X124500000Y-103490476D01*
X124452380Y-103538095D01*
X124357142Y-103585714D01*
X124214285Y-103585714D01*
X124119047Y-103538095D01*
X124547619Y-103204761D02*
X124452380Y-103252380D01*
X124261904Y-103252380D01*
X124166666Y-103204761D01*
X124119047Y-103157142D01*
X124071428Y-103061904D01*
X124071428Y-102776190D01*
X124119047Y-102680952D01*
X124166666Y-102633333D01*
X124261904Y-102585714D01*
X124452380Y-102585714D01*
X124547619Y-102633333D01*
X125023809Y-103252380D02*
X125023809Y-102252380D01*
X125023809Y-102728571D02*
X125595238Y-102728571D01*
X125595238Y-103252380D02*
X125595238Y-102252380D01*
X126214285Y-103252380D02*
X126119047Y-103204761D01*
X126071428Y-103157142D01*
X126023809Y-103061904D01*
X126023809Y-102776190D01*
X126071428Y-102680952D01*
X126119047Y-102633333D01*
X126214285Y-102585714D01*
X126357142Y-102585714D01*
X126452380Y-102633333D01*
X126500000Y-102680952D01*
X126547619Y-102776190D01*
X126547619Y-103061904D01*
X126500000Y-103157142D01*
X126452380Y-103204761D01*
X126357142Y-103252380D01*
X126214285Y-103252380D01*
X127119047Y-103252380D02*
X127023809Y-103204761D01*
X126976190Y-103109523D01*
X126976190Y-102252380D01*
X127880952Y-103204761D02*
X127785714Y-103252380D01*
X127595238Y-103252380D01*
X127500000Y-103204761D01*
X127452380Y-103109523D01*
X127452380Y-102728571D01*
X127500000Y-102633333D01*
X127595238Y-102585714D01*
X127785714Y-102585714D01*
X127880952Y-102633333D01*
X127928571Y-102728571D01*
X127928571Y-102823809D01*
X127452380Y-102919047D01*
X128119047Y-103347619D02*
X128880952Y-103347619D01*
X129023809Y-102252380D02*
X129642857Y-102252380D01*
X129309523Y-102633333D01*
X129452380Y-102633333D01*
X129547619Y-102680952D01*
X129595238Y-102728571D01*
X129642857Y-102823809D01*
X129642857Y-103061904D01*
X129595238Y-103157142D01*
X129547619Y-103204761D01*
X129452380Y-103252380D01*
X129166666Y-103252380D01*
X129071428Y-103204761D01*
X129023809Y-103157142D01*
X130071428Y-103157142D02*
X130119047Y-103204761D01*
X130071428Y-103252380D01*
X130023809Y-103204761D01*
X130071428Y-103157142D01*
X130071428Y-103252380D01*
X130499999Y-102347619D02*
X130547619Y-102300000D01*
X130642857Y-102252380D01*
X130880952Y-102252380D01*
X130976190Y-102300000D01*
X131023809Y-102347619D01*
X131071428Y-102442857D01*
X131071428Y-102538095D01*
X131023809Y-102680952D01*
X130452380Y-103252380D01*
X131071428Y-103252380D01*
X131499999Y-103252380D02*
X131499999Y-102585714D01*
X131499999Y-102680952D02*
X131547619Y-102633333D01*
X131642857Y-102585714D01*
X131785714Y-102585714D01*
X131880952Y-102633333D01*
X131928571Y-102728571D01*
X131928571Y-103252380D01*
X131928571Y-102728571D02*
X131976190Y-102633333D01*
X132071428Y-102585714D01*
X132214285Y-102585714D01*
X132309523Y-102633333D01*
X132357142Y-102728571D01*
X132357142Y-103252380D01*
X132833333Y-103252380D02*
X132833333Y-102585714D01*
X132833333Y-102680952D02*
X132880952Y-102633333D01*
X132976190Y-102585714D01*
X133119047Y-102585714D01*
X133214285Y-102633333D01*
X133261904Y-102728571D01*
X133261904Y-103252380D01*
X133261904Y-102728571D02*
X133309523Y-102633333D01*
X133404761Y-102585714D01*
X133547619Y-102585714D01*
X133642857Y-102633333D01*
X133690476Y-102728571D01*
X133690476Y-103252380D01*
X133928571Y-103347619D02*
X134690476Y-103347619D01*
X134928571Y-103252380D02*
X134928571Y-102252380D01*
X135261904Y-102966666D01*
X135595238Y-102252380D01*
X135595238Y-103252380D01*
X135976190Y-102252380D02*
X136595238Y-102252380D01*
X136261904Y-102633333D01*
X136404761Y-102633333D01*
X136500000Y-102680952D01*
X136547619Y-102728571D01*
X136595238Y-102823809D01*
X136595238Y-103061904D01*
X136547619Y-103157142D01*
X136500000Y-103204761D01*
X136404761Y-103252380D01*
X136119047Y-103252380D01*
X136023809Y-103204761D01*
X135976190Y-103157142D01*
X136785714Y-103347619D02*
X137547619Y-103347619D01*
X137785714Y-103252380D02*
X137785714Y-102252380D01*
X138023809Y-102252380D01*
X138166666Y-102300000D01*
X138261904Y-102395238D01*
X138309523Y-102490476D01*
X138357142Y-102680952D01*
X138357142Y-102823809D01*
X138309523Y-103014285D01*
X138261904Y-103109523D01*
X138166666Y-103204761D01*
X138023809Y-103252380D01*
X137785714Y-103252380D01*
X138785714Y-103252380D02*
X138785714Y-102252380D01*
X139261904Y-103252380D02*
X139261904Y-102252380D01*
X139833333Y-103252380D01*
X139833333Y-102252380D01*
X140357142Y-103252380D02*
X140547619Y-103252380D01*
X140642857Y-103204761D01*
X140690476Y-103157142D01*
X140785714Y-103014285D01*
X140833333Y-102823809D01*
X140833333Y-102442857D01*
X140785714Y-102347619D01*
X140738095Y-102300000D01*
X140642857Y-102252380D01*
X140452380Y-102252380D01*
X140357142Y-102300000D01*
X140309523Y-102347619D01*
X140261904Y-102442857D01*
X140261904Y-102680952D01*
X140309523Y-102776190D01*
X140357142Y-102823809D01*
X140452380Y-102871428D01*
X140642857Y-102871428D01*
X140738095Y-102823809D01*
X140785714Y-102776190D01*
X140833333Y-102680952D01*
X141690476Y-102252380D02*
X141500000Y-102252380D01*
X141404761Y-102300000D01*
X141357142Y-102347619D01*
X141261904Y-102490476D01*
X141214285Y-102680952D01*
X141214285Y-103061904D01*
X141261904Y-103157142D01*
X141309523Y-103204761D01*
X141404761Y-103252380D01*
X141595238Y-103252380D01*
X141690476Y-103204761D01*
X141738095Y-103157142D01*
X141785714Y-103061904D01*
X141785714Y-102823809D01*
X141738095Y-102728571D01*
X141690476Y-102680952D01*
X141595238Y-102633333D01*
X141404761Y-102633333D01*
X141309523Y-102680952D01*
X141261904Y-102728571D01*
X141214285Y-102823809D01*
X142690476Y-102252380D02*
X142214285Y-102252380D01*
X142166666Y-102728571D01*
X142214285Y-102680952D01*
X142309523Y-102633333D01*
X142547619Y-102633333D01*
X142642857Y-102680952D01*
X142690476Y-102728571D01*
X142738095Y-102823809D01*
X142738095Y-103061904D01*
X142690476Y-103157142D01*
X142642857Y-103204761D01*
X142547619Y-103252380D01*
X142309523Y-103252380D01*
X142214285Y-103204761D01*
X142166666Y-103157142D01*
X129466666Y-99452380D02*
X129133333Y-98976190D01*
X128895238Y-99452380D02*
X128895238Y-98452380D01*
X129276190Y-98452380D01*
X129371428Y-98500000D01*
X129419047Y-98547619D01*
X129466666Y-98642857D01*
X129466666Y-98785714D01*
X129419047Y-98880952D01*
X129371428Y-98928571D01*
X129276190Y-98976190D01*
X128895238Y-98976190D01*
X129895238Y-98928571D02*
X130228571Y-98928571D01*
X130371428Y-99452380D02*
X129895238Y-99452380D01*
X129895238Y-98452380D01*
X130371428Y-98452380D01*
X131133333Y-98928571D02*
X130800000Y-98928571D01*
X130800000Y-99452380D02*
X130800000Y-98452380D01*
X131276190Y-98452380D01*
X131800000Y-98452380D02*
X131800000Y-98690476D01*
X131561904Y-98595238D02*
X131800000Y-98690476D01*
X132038095Y-98595238D01*
X131657142Y-98880952D02*
X131800000Y-98690476D01*
X131942857Y-98880952D01*
X132561904Y-98452380D02*
X132561904Y-98690476D01*
X132323809Y-98595238D02*
X132561904Y-98690476D01*
X132800000Y-98595238D01*
X132419047Y-98880952D02*
X132561904Y-98690476D01*
X132704761Y-98880952D01*
X111880952Y-102152380D02*
X111880952Y-101152380D01*
X112119047Y-101152380D01*
X112261904Y-101200000D01*
X112357142Y-101295238D01*
X112404761Y-101390476D01*
X112452380Y-101580952D01*
X112452380Y-101723809D01*
X112404761Y-101914285D01*
X112357142Y-102009523D01*
X112261904Y-102104761D01*
X112119047Y-102152380D01*
X111880952Y-102152380D01*
X112880952Y-102152380D02*
X112880952Y-101152380D01*
X112880952Y-101628571D02*
X113452380Y-101628571D01*
X113452380Y-102152380D02*
X113452380Y-101152380D01*
X113785714Y-101152380D02*
X114357142Y-101152380D01*
X114071428Y-102152380D02*
X114071428Y-101152380D01*
X115214285Y-102152380D02*
X114642857Y-102152380D01*
X114928571Y-102152380D02*
X114928571Y-101152380D01*
X114833333Y-101295238D01*
X114738095Y-101390476D01*
X114642857Y-101438095D01*
X116166666Y-102152380D02*
X115595238Y-102152380D01*
X115880952Y-102152380D02*
X115880952Y-101152380D01*
X115785714Y-101295238D01*
X115690476Y-101390476D01*
X115595238Y-101438095D01*
X113238095Y-108642380D02*
X113238095Y-109451904D01*
X113285714Y-109547142D01*
X113333333Y-109594761D01*
X113428571Y-109642380D01*
X113619047Y-109642380D01*
X113714285Y-109594761D01*
X113761904Y-109547142D01*
X113809523Y-109451904D01*
X113809523Y-108642380D01*
X114809523Y-109642380D02*
X114238095Y-109642380D01*
X114523809Y-109642380D02*
X114523809Y-108642380D01*
X114428571Y-108785238D01*
X114333333Y-108880476D01*
X114238095Y-108928095D01*
X115761904Y-97047619D02*
X115809523Y-97000000D01*
X115904761Y-96952380D01*
X116142857Y-96952380D01*
X116238095Y-97000000D01*
X116285714Y-97047619D01*
X116333333Y-97142857D01*
X116333333Y-97238095D01*
X116285714Y-97380952D01*
X115714285Y-97952380D01*
X116333333Y-97952380D01*
X116714285Y-97047619D02*
X116761904Y-97000000D01*
X116857142Y-96952380D01*
X117095238Y-96952380D01*
X117190476Y-97000000D01*
X117238095Y-97047619D01*
X117285714Y-97142857D01*
X117285714Y-97238095D01*
X117238095Y-97380952D01*
X116666666Y-97952380D01*
X117285714Y-97952380D01*
X117904761Y-96952380D02*
X118000000Y-96952380D01*
X118095238Y-97000000D01*
X118142857Y-97047619D01*
X118190476Y-97142857D01*
X118238095Y-97333333D01*
X118238095Y-97571428D01*
X118190476Y-97761904D01*
X118142857Y-97857142D01*
X118095238Y-97904761D01*
X118000000Y-97952380D01*
X117904761Y-97952380D01*
X117809523Y-97904761D01*
X117761904Y-97857142D01*
X117714285Y-97761904D01*
X117666666Y-97571428D01*
X117666666Y-97333333D01*
X117714285Y-97142857D01*
X117761904Y-97047619D01*
X117809523Y-97000000D01*
X117904761Y-96952380D01*
X119833333Y-97952380D02*
X119500000Y-97476190D01*
X119261904Y-97952380D02*
X119261904Y-96952380D01*
X119642857Y-96952380D01*
X119738095Y-97000000D01*
X119785714Y-97047619D01*
X119833333Y-97142857D01*
X119833333Y-97285714D01*
X119785714Y-97380952D01*
X119738095Y-97428571D01*
X119642857Y-97476190D01*
X119261904Y-97476190D01*
X120214285Y-97047619D02*
X120261904Y-97000000D01*
X120357142Y-96952380D01*
X120595238Y-96952380D01*
X120690476Y-97000000D01*
X120738095Y-97047619D01*
X120785714Y-97142857D01*
X120785714Y-97238095D01*
X120738095Y-97380952D01*
X120166666Y-97952380D01*
X120785714Y-97952380D01*
X122119047Y-120302380D02*
X121642857Y-120302380D01*
X121595238Y-120778571D01*
X121642857Y-120730952D01*
X121738095Y-120683333D01*
X121976190Y-120683333D01*
X122071428Y-120730952D01*
X122119047Y-120778571D01*
X122166666Y-120873809D01*
X122166666Y-121111904D01*
X122119047Y-121207142D01*
X122071428Y-121254761D01*
X121976190Y-121302380D01*
X121738095Y-121302380D01*
X121642857Y-121254761D01*
X121595238Y-121207142D01*
X122642857Y-121254761D02*
X122642857Y-121302380D01*
X122595238Y-121397619D01*
X122547619Y-121445238D01*
X123595238Y-121302380D02*
X123023809Y-121302380D01*
X123309523Y-121302380D02*
X123309523Y-120302380D01*
X123214285Y-120445238D01*
X123119047Y-120540476D01*
X123023809Y-120588095D01*
X124023809Y-121302380D02*
X124023809Y-120302380D01*
X124119047Y-120921428D02*
X124404761Y-121302380D01*
X124404761Y-120635714D02*
X124023809Y-121016666D01*
X119833333Y-121302380D02*
X119500000Y-120826190D01*
X119261904Y-121302380D02*
X119261904Y-120302380D01*
X119642857Y-120302380D01*
X119738095Y-120350000D01*
X119785714Y-120397619D01*
X119833333Y-120492857D01*
X119833333Y-120635714D01*
X119785714Y-120730952D01*
X119738095Y-120778571D01*
X119642857Y-120826190D01*
X119261904Y-120826190D01*
X120785714Y-121302380D02*
X120214285Y-121302380D01*
X120500000Y-121302380D02*
X120500000Y-120302380D01*
X120404761Y-120445238D01*
X120309523Y-120540476D01*
X120214285Y-120588095D01*
X134457142Y-112988095D02*
X134504761Y-113035714D01*
X134552380Y-113178571D01*
X134552380Y-113273809D01*
X134504761Y-113416666D01*
X134409523Y-113511904D01*
X134314285Y-113559523D01*
X134123809Y-113607142D01*
X133980952Y-113607142D01*
X133790476Y-113559523D01*
X133695238Y-113511904D01*
X133600000Y-113416666D01*
X133552380Y-113273809D01*
X133552380Y-113178571D01*
X133600000Y-113035714D01*
X133647619Y-112988095D01*
X134552380Y-112416666D02*
X134504761Y-112511904D01*
X134457142Y-112559523D01*
X134361904Y-112607142D01*
X134076190Y-112607142D01*
X133980952Y-112559523D01*
X133933333Y-112511904D01*
X133885714Y-112416666D01*
X133885714Y-112273809D01*
X133933333Y-112178571D01*
X133980952Y-112130952D01*
X134076190Y-112083333D01*
X134361904Y-112083333D01*
X134457142Y-112130952D01*
X134504761Y-112178571D01*
X134552380Y-112273809D01*
X134552380Y-112416666D01*
X133885714Y-111654761D02*
X134552380Y-111654761D01*
X133980952Y-111654761D02*
X133933333Y-111607142D01*
X133885714Y-111511904D01*
X133885714Y-111369047D01*
X133933333Y-111273809D01*
X134028571Y-111226190D01*
X134552380Y-111226190D01*
X133885714Y-110750000D02*
X134552380Y-110750000D01*
X133980952Y-110750000D02*
X133933333Y-110702380D01*
X133885714Y-110607142D01*
X133885714Y-110464285D01*
X133933333Y-110369047D01*
X134028571Y-110321428D01*
X134552380Y-110321428D01*
X134647619Y-110083333D02*
X134647619Y-109321428D01*
X133552380Y-108892857D02*
X133552380Y-108797619D01*
X133600000Y-108702380D01*
X133647619Y-108654761D01*
X133742857Y-108607142D01*
X133933333Y-108559523D01*
X134171428Y-108559523D01*
X134361904Y-108607142D01*
X134457142Y-108654761D01*
X134504761Y-108702380D01*
X134552380Y-108797619D01*
X134552380Y-108892857D01*
X134504761Y-108988095D01*
X134457142Y-109035714D01*
X134361904Y-109083333D01*
X134171428Y-109130952D01*
X133933333Y-109130952D01*
X133742857Y-109083333D01*
X133647619Y-109035714D01*
X133600000Y-108988095D01*
X133552380Y-108892857D01*
X134552380Y-107607142D02*
X134552380Y-108178571D01*
X134552380Y-107892857D02*
X133552380Y-107892857D01*
X133695238Y-107988095D01*
X133790476Y-108083333D01*
X133838095Y-108178571D01*
X134552380Y-107273809D02*
X133885714Y-106750000D01*
X133885714Y-107273809D02*
X134552380Y-106750000D01*
X133552380Y-106178571D02*
X133552380Y-106083333D01*
X133600000Y-105988095D01*
X133647619Y-105940476D01*
X133742857Y-105892857D01*
X133933333Y-105845238D01*
X134171428Y-105845238D01*
X134361904Y-105892857D01*
X134457142Y-105940476D01*
X134504761Y-105988095D01*
X134552380Y-106083333D01*
X134552380Y-106178571D01*
X134504761Y-106273809D01*
X134457142Y-106321428D01*
X134361904Y-106369047D01*
X134171428Y-106416666D01*
X133933333Y-106416666D01*
X133742857Y-106369047D01*
X133647619Y-106321428D01*
X133600000Y-106273809D01*
X133552380Y-106178571D01*
X133885714Y-104988095D02*
X134552380Y-104988095D01*
X133504761Y-105226190D02*
X134219047Y-105464285D01*
X134219047Y-104845238D01*
X131652380Y-111833333D02*
X132366666Y-111833333D01*
X132509523Y-111880952D01*
X132604761Y-111976190D01*
X132652380Y-112119047D01*
X132652380Y-112214285D01*
X132652380Y-110833333D02*
X132652380Y-111404761D01*
X132652380Y-111119047D02*
X131652380Y-111119047D01*
X131795238Y-111214285D01*
X131890476Y-111309523D01*
X131938095Y-111404761D01*
X117492380Y-105968095D02*
X116492380Y-105968095D01*
X116492380Y-105730000D01*
X116540000Y-105587142D01*
X116635238Y-105491904D01*
X116730476Y-105444285D01*
X116920952Y-105396666D01*
X117063809Y-105396666D01*
X117254285Y-105444285D01*
X117349523Y-105491904D01*
X117444761Y-105587142D01*
X117492380Y-105730000D01*
X117492380Y-105968095D01*
X117492380Y-104444285D02*
X117492380Y-105015714D01*
X117492380Y-104730000D02*
X116492380Y-104730000D01*
X116635238Y-104825238D01*
X116730476Y-104920476D01*
X116778095Y-105015714D01*
X117952380Y-113547619D02*
X117952380Y-114119047D01*
X117952380Y-113833333D02*
X116952380Y-113833333D01*
X117095238Y-113928571D01*
X117190476Y-114023809D01*
X117238095Y-114119047D01*
X116952380Y-112928571D02*
X116952380Y-112833333D01*
X117000000Y-112738095D01*
X117047619Y-112690476D01*
X117142857Y-112642857D01*
X117333333Y-112595238D01*
X117571428Y-112595238D01*
X117761904Y-112642857D01*
X117857142Y-112690476D01*
X117904761Y-112738095D01*
X117952380Y-112833333D01*
X117952380Y-112928571D01*
X117904761Y-113023809D01*
X117857142Y-113071428D01*
X117761904Y-113119047D01*
X117571428Y-113166666D01*
X117333333Y-113166666D01*
X117142857Y-113119047D01*
X117047619Y-113071428D01*
X117000000Y-113023809D01*
X116952380Y-112928571D01*
X116952380Y-111976190D02*
X116952380Y-111880952D01*
X117000000Y-111785714D01*
X117047619Y-111738095D01*
X117142857Y-111690476D01*
X117333333Y-111642857D01*
X117571428Y-111642857D01*
X117761904Y-111690476D01*
X117857142Y-111738095D01*
X117904761Y-111785714D01*
X117952380Y-111880952D01*
X117952380Y-111976190D01*
X117904761Y-112071428D01*
X117857142Y-112119047D01*
X117761904Y-112166666D01*
X117571428Y-112214285D01*
X117333333Y-112214285D01*
X117142857Y-112166666D01*
X117047619Y-112119047D01*
X117000000Y-112071428D01*
X116952380Y-111976190D01*
X117285714Y-111214285D02*
X117952380Y-111214285D01*
X117380952Y-111214285D02*
X117333333Y-111166666D01*
X117285714Y-111071428D01*
X117285714Y-110928571D01*
X117333333Y-110833333D01*
X117428571Y-110785714D01*
X117952380Y-110785714D01*
X117428571Y-109976190D02*
X117428571Y-110309523D01*
X117952380Y-110309523D02*
X116952380Y-110309523D01*
X116952380Y-109833333D01*
X122357142Y-109166666D02*
X122404761Y-109214285D01*
X122452380Y-109357142D01*
X122452380Y-109452380D01*
X122404761Y-109595238D01*
X122309523Y-109690476D01*
X122214285Y-109738095D01*
X122023809Y-109785714D01*
X121880952Y-109785714D01*
X121690476Y-109738095D01*
X121595238Y-109690476D01*
X121500000Y-109595238D01*
X121452380Y-109452380D01*
X121452380Y-109357142D01*
X121500000Y-109214285D01*
X121547619Y-109166666D01*
X122452380Y-108214285D02*
X122452380Y-108785714D01*
X122452380Y-108500000D02*
X121452380Y-108500000D01*
X121595238Y-108595238D01*
X121690476Y-108690476D01*
X121738095Y-108785714D01*
M02*
