G04 #@! TF.GenerationSoftware,KiCad,Pcbnew,(5.1.4)-1*
G04 #@! TF.CreationDate,2020-08-13T14:43:20+03:00*
G04 #@! TF.ProjectId,hum_temp_sensor,68756d5f-7465-46d7-905f-73656e736f72,rev?*
G04 #@! TF.SameCoordinates,Original*
G04 #@! TF.FileFunction,Legend,Bot*
G04 #@! TF.FilePolarity,Positive*
%FSLAX46Y46*%
G04 Gerber Fmt 4.6, Leading zero omitted, Abs format (unit mm)*
G04 Created by KiCad (PCBNEW (5.1.4)-1) date 2020-08-13 14:43:20*
%MOMM*%
%LPD*%
G04 APERTURE LIST*
%ADD10C,0.010000*%
G04 APERTURE END LIST*
D10*
G36*
X116379834Y-110932060D02*
G01*
X116426858Y-111003454D01*
X116491524Y-111059921D01*
X116535144Y-111081032D01*
X116626309Y-111093865D01*
X116714299Y-111076740D01*
X116784669Y-111033201D01*
X116799749Y-111016099D01*
X116836265Y-110967688D01*
X117069924Y-111078221D01*
X117429169Y-111227108D01*
X117803574Y-111340543D01*
X118196055Y-111419134D01*
X118609530Y-111463486D01*
X118975750Y-111474727D01*
X119245232Y-111468472D01*
X119483849Y-111449635D01*
X119701552Y-111416866D01*
X119908292Y-111368816D01*
X120034083Y-111331162D01*
X120184475Y-111275341D01*
X120356827Y-111199413D01*
X120539552Y-111109091D01*
X120721064Y-111010088D01*
X120881758Y-110913237D01*
X120966836Y-110859088D01*
X121039710Y-110812770D01*
X121092450Y-110779318D01*
X121116812Y-110763962D01*
X121139169Y-110772922D01*
X121176140Y-110809987D01*
X121219365Y-110866541D01*
X121313548Y-110985566D01*
X121430212Y-111106030D01*
X121558071Y-111217919D01*
X121685843Y-111311218D01*
X121783677Y-111367333D01*
X121930066Y-111430675D01*
X122063491Y-111469793D01*
X122202319Y-111488936D01*
X122325954Y-111492733D01*
X122537523Y-111472824D01*
X122742600Y-111416179D01*
X122931462Y-111325976D01*
X123022471Y-111265043D01*
X123089858Y-111214487D01*
X123238638Y-111326412D01*
X123332776Y-111392467D01*
X123442954Y-111462790D01*
X123547048Y-111523329D01*
X123557858Y-111529151D01*
X123728299Y-111619966D01*
X123309941Y-111826967D01*
X122915770Y-112029528D01*
X122560195Y-112228446D01*
X122239887Y-112425968D01*
X121951521Y-112624338D01*
X121691769Y-112825804D01*
X121457304Y-113032610D01*
X121313109Y-113174857D01*
X121109420Y-113403075D01*
X120947096Y-113625367D01*
X120825866Y-113843460D01*
X120745457Y-114059079D01*
X120705599Y-114273949D01*
X120706021Y-114489797D01*
X120746450Y-114708347D01*
X120826617Y-114931327D01*
X120946248Y-115160460D01*
X120989818Y-115230698D01*
X121140702Y-115436418D01*
X121310542Y-115616170D01*
X121495457Y-115768532D01*
X121691564Y-115892083D01*
X121894981Y-115985402D01*
X122101827Y-116047067D01*
X122308219Y-116075656D01*
X122510275Y-116069748D01*
X122704113Y-116027923D01*
X122885851Y-115948757D01*
X122910919Y-115934124D01*
X123018581Y-115857603D01*
X123138779Y-115752706D01*
X123263021Y-115627797D01*
X123382818Y-115491244D01*
X123458215Y-115394917D01*
X123511959Y-115322702D01*
X123555673Y-115264297D01*
X123583632Y-115227332D01*
X123590641Y-115218421D01*
X123607326Y-115229233D01*
X123646410Y-115264195D01*
X123700953Y-115316941D01*
X123731301Y-115347433D01*
X123880810Y-115472834D01*
X124061202Y-115580172D01*
X124263650Y-115666057D01*
X124479327Y-115727097D01*
X124699408Y-115759905D01*
X124817750Y-115764688D01*
X125032891Y-115748239D01*
X125235938Y-115700975D01*
X125421822Y-115625624D01*
X125585474Y-115524914D01*
X125721825Y-115401570D01*
X125825807Y-115258322D01*
X125851528Y-115208485D01*
X125920705Y-115016660D01*
X125964272Y-114792588D01*
X125982400Y-114537604D01*
X125975259Y-114253038D01*
X125943020Y-113940224D01*
X125885852Y-113600495D01*
X125803926Y-113235182D01*
X125697412Y-112845619D01*
X125566481Y-112433137D01*
X125457251Y-112122883D01*
X125383034Y-111920015D01*
X125650725Y-111875755D01*
X126007814Y-111797222D01*
X126342569Y-111683067D01*
X126656704Y-111532506D01*
X126951936Y-111344757D01*
X127146083Y-111192639D01*
X127353344Y-110993841D01*
X127535735Y-110772072D01*
X127689397Y-110533674D01*
X127810473Y-110284987D01*
X127895104Y-110032353D01*
X127919945Y-109920807D01*
X127933874Y-109847502D01*
X127945194Y-109790081D01*
X127950967Y-109763110D01*
X127972443Y-109748762D01*
X128026577Y-109726571D01*
X128105121Y-109699600D01*
X128196995Y-109671723D01*
X128305002Y-109640816D01*
X128410264Y-109610690D01*
X128499136Y-109585251D01*
X128548375Y-109571153D01*
X128617709Y-109546986D01*
X128652170Y-109522473D01*
X128659500Y-109500000D01*
X128647317Y-109471972D01*
X128605941Y-109447927D01*
X128548375Y-109428847D01*
X128481812Y-109409790D01*
X128388194Y-109382993D01*
X128281167Y-109352363D01*
X128196995Y-109328276D01*
X128102632Y-109299596D01*
X128024667Y-109272719D01*
X127971345Y-109250708D01*
X127950967Y-109236890D01*
X127944293Y-109205464D01*
X127932606Y-109145929D01*
X127919945Y-109079193D01*
X127852692Y-108826825D01*
X127747282Y-108575598D01*
X127607569Y-108331846D01*
X127437410Y-108101908D01*
X127240661Y-107892120D01*
X127146083Y-107807340D01*
X126863937Y-107595112D01*
X126560034Y-107418695D01*
X126233807Y-107277847D01*
X126188292Y-107264091D01*
X126188292Y-107362361D01*
X126222941Y-107372183D01*
X126286383Y-107398668D01*
X126370509Y-107437732D01*
X126467211Y-107485289D01*
X126568382Y-107537255D01*
X126665912Y-107589546D01*
X126751694Y-107638077D01*
X126817620Y-107678762D01*
X126821504Y-107681360D01*
X126908136Y-107742606D01*
X126999664Y-107811734D01*
X127066708Y-107865851D01*
X127177833Y-107959976D01*
X127177833Y-111041893D01*
X127066708Y-111136143D01*
X126959026Y-111220456D01*
X126832138Y-111308588D01*
X126694797Y-111395462D01*
X126555756Y-111476001D01*
X126423769Y-111545126D01*
X126307588Y-111597761D01*
X126218466Y-111628208D01*
X126161833Y-111642422D01*
X126161833Y-109502294D01*
X126161929Y-109141320D01*
X126162235Y-108820622D01*
X126162776Y-108538145D01*
X126163578Y-108291834D01*
X126164665Y-108079632D01*
X126166063Y-107899483D01*
X126167799Y-107749332D01*
X126169896Y-107627122D01*
X126172381Y-107530797D01*
X126175279Y-107458303D01*
X126178615Y-107407582D01*
X126182415Y-107376579D01*
X126186704Y-107363239D01*
X126188292Y-107362361D01*
X126188292Y-107264091D01*
X125884690Y-107172327D01*
X125512117Y-107101892D01*
X125480520Y-107097668D01*
X125381291Y-107084800D01*
X125456950Y-106879525D01*
X125585552Y-106511915D01*
X125697673Y-106152776D01*
X125792564Y-105805834D01*
X125869479Y-105474816D01*
X125927671Y-105163447D01*
X125966392Y-104875455D01*
X125984896Y-104614565D01*
X125982437Y-104384504D01*
X125974797Y-104296425D01*
X125938669Y-104069502D01*
X125884561Y-103877883D01*
X125809990Y-103717478D01*
X125712474Y-103584194D01*
X125589530Y-103473942D01*
X125438674Y-103382630D01*
X125412400Y-103369799D01*
X125215391Y-103292892D01*
X125015534Y-103250273D01*
X124921532Y-103245628D01*
X124921532Y-103344814D01*
X125073867Y-103360073D01*
X125215082Y-103394424D01*
X125359586Y-103450397D01*
X125373431Y-103456667D01*
X125496516Y-103530172D01*
X125612573Y-103630521D01*
X125709416Y-103745679D01*
X125767209Y-103845519D01*
X125824533Y-104012118D01*
X125862871Y-104210874D01*
X125881771Y-104435886D01*
X125880783Y-104681251D01*
X125859454Y-104941067D01*
X125854238Y-104982707D01*
X125790041Y-105371041D01*
X125696195Y-105785072D01*
X125573624Y-106221215D01*
X125423252Y-106675887D01*
X125403966Y-106729902D01*
X125281440Y-107070484D01*
X125049749Y-107078312D01*
X125049749Y-107171667D01*
X125167000Y-107171667D01*
X125167000Y-111834801D01*
X124938859Y-111821748D01*
X124815610Y-111811002D01*
X124815610Y-111913129D01*
X125043964Y-111918356D01*
X125272319Y-111923583D01*
X125306486Y-112008250D01*
X125356739Y-112139054D01*
X125414201Y-112298993D01*
X125474921Y-112476367D01*
X125534953Y-112659475D01*
X125590346Y-112836615D01*
X125622382Y-112944348D01*
X125727133Y-113337700D01*
X125805331Y-113703117D01*
X125856863Y-114039667D01*
X125881615Y-114346417D01*
X125879473Y-114622436D01*
X125853985Y-114846531D01*
X125813711Y-115023699D01*
X125758632Y-115168431D01*
X125684709Y-115289235D01*
X125598344Y-115384894D01*
X125446680Y-115502550D01*
X125275164Y-115586335D01*
X125081201Y-115637074D01*
X124862194Y-115655594D01*
X124754652Y-115653632D01*
X124494731Y-115624552D01*
X124260714Y-115562751D01*
X124053137Y-115468428D01*
X123872536Y-115341782D01*
X123838894Y-115311847D01*
X123757140Y-115233325D01*
X123705319Y-115173790D01*
X123680322Y-115125766D01*
X123679039Y-115081777D01*
X123698358Y-115034347D01*
X123713139Y-115009581D01*
X123762545Y-114924731D01*
X123823820Y-114809205D01*
X123892817Y-114671513D01*
X123965387Y-114520165D01*
X124037385Y-114363671D01*
X124104664Y-114210543D01*
X124119270Y-114176135D01*
X124187826Y-114004756D01*
X124262879Y-113801970D01*
X124341911Y-113575805D01*
X124422404Y-113334288D01*
X124501838Y-113085446D01*
X124577695Y-112837307D01*
X124647457Y-112597899D01*
X124708605Y-112375248D01*
X124758620Y-112177382D01*
X124789252Y-112040742D01*
X124815610Y-111913129D01*
X124815610Y-111811002D01*
X124798807Y-111809536D01*
X124640645Y-111788980D01*
X124479933Y-111762603D01*
X124332232Y-111732929D01*
X124225083Y-111706006D01*
X124161583Y-111687704D01*
X124161583Y-107310442D01*
X124352083Y-107262841D01*
X124513873Y-107228298D01*
X124691806Y-107200081D01*
X124868189Y-107180503D01*
X125025326Y-107171878D01*
X125049749Y-107171667D01*
X125049749Y-107078312D01*
X125049595Y-107078318D01*
X124817750Y-107086151D01*
X124767639Y-106869617D01*
X124737418Y-106746706D01*
X124696832Y-106592815D01*
X124648569Y-106417236D01*
X124595317Y-106229260D01*
X124539763Y-106038178D01*
X124484595Y-105853281D01*
X124432502Y-105683861D01*
X124386170Y-105539209D01*
X124362109Y-105467750D01*
X124280487Y-105240833D01*
X124191670Y-105010195D01*
X124098730Y-104782863D01*
X124004739Y-104565867D01*
X123912767Y-104366235D01*
X123825887Y-104190997D01*
X123747169Y-104047181D01*
X123725682Y-104011340D01*
X123691500Y-103950230D01*
X123677656Y-103901861D01*
X123686821Y-103856769D01*
X123721665Y-103805490D01*
X123784858Y-103738561D01*
X123809517Y-103714238D01*
X123983400Y-103573353D01*
X124183047Y-103465844D01*
X124407900Y-103391930D01*
X124657404Y-103351830D01*
X124743667Y-103346117D01*
X124921532Y-103344814D01*
X124921532Y-103245628D01*
X124800638Y-103239654D01*
X124733083Y-103242271D01*
X124481244Y-103273758D01*
X124245429Y-103337822D01*
X124030539Y-103432449D01*
X123841478Y-103555627D01*
X123731301Y-103653527D01*
X123671607Y-103712351D01*
X123624018Y-103756548D01*
X123595512Y-103779767D01*
X123590641Y-103781579D01*
X123576000Y-103762584D01*
X123541923Y-103717136D01*
X123494103Y-103652851D01*
X123457802Y-103603837D01*
X123345537Y-103463327D01*
X123222517Y-103328784D01*
X123097397Y-103208724D01*
X122978837Y-103111665D01*
X122910938Y-103065876D01*
X122729644Y-102980174D01*
X122536336Y-102932462D01*
X122369279Y-102923302D01*
X122369279Y-103025629D01*
X122427388Y-103026809D01*
X122528033Y-103033025D01*
X122603707Y-103044164D01*
X122671769Y-103064568D01*
X122749577Y-103098577D01*
X122786738Y-103116675D01*
X122955206Y-103220784D01*
X123123643Y-103365981D01*
X123291329Y-103551026D01*
X123457548Y-103774681D01*
X123621580Y-104035706D01*
X123782708Y-104332861D01*
X123940213Y-104664907D01*
X124093378Y-105030604D01*
X124241484Y-105428713D01*
X124383813Y-105857995D01*
X124394133Y-105891083D01*
X124432309Y-106017305D01*
X124472840Y-106157065D01*
X124514253Y-106304678D01*
X124555076Y-106454460D01*
X124593838Y-106600727D01*
X124629066Y-106737795D01*
X124659290Y-106859979D01*
X124683036Y-106961596D01*
X124698833Y-107036961D01*
X124705208Y-107080389D01*
X124704217Y-107088559D01*
X124678787Y-107097371D01*
X124621452Y-107111124D01*
X124542029Y-107127578D01*
X124489667Y-107137486D01*
X124377192Y-107161514D01*
X124246570Y-107194645D01*
X124119339Y-107231255D01*
X124069116Y-107247303D01*
X123849650Y-107320337D01*
X123841515Y-107316642D01*
X123841515Y-111677478D01*
X124042280Y-111744051D01*
X124165657Y-111782390D01*
X124295321Y-111818299D01*
X124421369Y-111849438D01*
X124533902Y-111873467D01*
X124623019Y-111888047D01*
X124665718Y-111891375D01*
X124707617Y-111897337D01*
X124716647Y-111918680D01*
X124714283Y-111928875D01*
X124705441Y-111961838D01*
X124688565Y-112027591D01*
X124665765Y-112117824D01*
X124639146Y-112224226D01*
X124627062Y-112272833D01*
X124505860Y-112732351D01*
X124376391Y-113168430D01*
X124239517Y-113579379D01*
X124096098Y-113963508D01*
X123946995Y-114319125D01*
X123793069Y-114644541D01*
X123635180Y-114938063D01*
X123474190Y-115198002D01*
X123310958Y-115422666D01*
X123146347Y-115610365D01*
X122981216Y-115759408D01*
X122816426Y-115868104D01*
X122789777Y-115881822D01*
X122704057Y-115921853D01*
X122633398Y-115946976D01*
X122560524Y-115961537D01*
X122468158Y-115969882D01*
X122431425Y-115971962D01*
X122205558Y-115962838D01*
X121983170Y-115912405D01*
X121766507Y-115821668D01*
X121557812Y-115691633D01*
X121359329Y-115523305D01*
X121302716Y-115466125D01*
X121134368Y-115266493D01*
X120999080Y-115057315D01*
X120898188Y-114842541D01*
X120833028Y-114626117D01*
X120804938Y-114411992D01*
X120815254Y-114204115D01*
X120837969Y-114093167D01*
X120912392Y-113887735D01*
X121027551Y-113677683D01*
X121182228Y-113464044D01*
X121375205Y-113247853D01*
X121605266Y-113030145D01*
X121871191Y-112811953D01*
X122171764Y-112594314D01*
X122505766Y-112378260D01*
X122871980Y-112164828D01*
X123269189Y-111955050D01*
X123472382Y-111855054D01*
X123841515Y-111677478D01*
X123841515Y-107316642D01*
X123635200Y-107222911D01*
X123240492Y-107034226D01*
X122868714Y-106837678D01*
X122521684Y-106634774D01*
X122201220Y-106427018D01*
X121909142Y-106215917D01*
X121647266Y-106002975D01*
X121417413Y-105789700D01*
X121221399Y-105577595D01*
X121061044Y-105368166D01*
X120938165Y-105162921D01*
X120854582Y-104963362D01*
X120837969Y-104906833D01*
X120805818Y-104704113D01*
X120812812Y-104492959D01*
X120857614Y-104277321D01*
X120938890Y-104061145D01*
X121055302Y-103848381D01*
X121205513Y-103642977D01*
X121302716Y-103533875D01*
X121498116Y-103354148D01*
X121704694Y-103212459D01*
X121920229Y-103109809D01*
X122142498Y-103047198D01*
X122369279Y-103025629D01*
X122369279Y-102923302D01*
X122334680Y-102921404D01*
X122128340Y-102945667D01*
X121920982Y-103003916D01*
X121716271Y-103094817D01*
X121517872Y-103217036D01*
X121329450Y-103369239D01*
X121154671Y-103550092D01*
X120997199Y-103758260D01*
X120993496Y-103763833D01*
X120859975Y-103993526D01*
X120766985Y-104219168D01*
X120714705Y-104441868D01*
X120703315Y-104662734D01*
X120732996Y-104882875D01*
X120803925Y-105103399D01*
X120916284Y-105325416D01*
X121070251Y-105550032D01*
X121266007Y-105778358D01*
X121330835Y-105845644D01*
X121556756Y-106059450D01*
X121806876Y-106266751D01*
X122084443Y-106469724D01*
X122392700Y-106670545D01*
X122734894Y-106871392D01*
X123114272Y-107074441D01*
X123310349Y-107173234D01*
X123729114Y-107380437D01*
X123564349Y-107466299D01*
X123464745Y-107522759D01*
X123354441Y-107592257D01*
X123255389Y-107660883D01*
X123244721Y-107668837D01*
X123089858Y-107785512D01*
X123022471Y-107734957D01*
X122846275Y-107628106D01*
X122648664Y-107553113D01*
X122439358Y-107513156D01*
X122325954Y-107507267D01*
X122308268Y-107508008D01*
X122308268Y-107600740D01*
X122507501Y-107618718D01*
X122700746Y-107675016D01*
X122885303Y-107767631D01*
X123058471Y-107894558D01*
X123217549Y-108053793D01*
X123359837Y-108243331D01*
X123482634Y-108461169D01*
X123583241Y-108705302D01*
X123589775Y-108724494D01*
X123634665Y-108870896D01*
X123666554Y-109008662D01*
X123686926Y-109149312D01*
X123697264Y-109304364D01*
X123699050Y-109485340D01*
X123697792Y-109563500D01*
X123693732Y-109706888D01*
X123687708Y-109819091D01*
X123678450Y-109911255D01*
X123664691Y-109994521D01*
X123645161Y-110080035D01*
X123634223Y-110121955D01*
X123549416Y-110380514D01*
X123441404Y-110614648D01*
X123312694Y-110822301D01*
X123165791Y-111001413D01*
X123003203Y-111149927D01*
X122827435Y-111265785D01*
X122640994Y-111346929D01*
X122446387Y-111391302D01*
X122246119Y-111396845D01*
X122105748Y-111376912D01*
X121901930Y-111312355D01*
X121710406Y-111209367D01*
X121533531Y-111070665D01*
X121373664Y-110898968D01*
X121233160Y-110696996D01*
X121114377Y-110467466D01*
X121019670Y-110213097D01*
X120983203Y-110081964D01*
X120960684Y-109987028D01*
X120944814Y-109905162D01*
X120934463Y-109825032D01*
X120928503Y-109735299D01*
X120925804Y-109624627D01*
X120925230Y-109500000D01*
X120925998Y-109360982D01*
X120929054Y-109252907D01*
X120935523Y-109164400D01*
X120946532Y-109084087D01*
X120963206Y-109000593D01*
X120982849Y-108917917D01*
X121064647Y-108652644D01*
X121171809Y-108410857D01*
X121301978Y-108195275D01*
X121452795Y-108008617D01*
X121621902Y-107853603D01*
X121806941Y-107732953D01*
X122005553Y-107649386D01*
X122105748Y-107623088D01*
X122308268Y-107600740D01*
X122308268Y-107508008D01*
X122170199Y-107513795D01*
X122034150Y-107536991D01*
X121899439Y-107581104D01*
X121783677Y-107632667D01*
X121664535Y-107702953D01*
X121535947Y-107800135D01*
X121409196Y-107914200D01*
X121295566Y-108035133D01*
X121219356Y-108133471D01*
X121139174Y-108249893D01*
X121052295Y-108195936D01*
X120827927Y-108078466D01*
X120616167Y-108004352D01*
X120501275Y-107982712D01*
X120358144Y-107969530D01*
X120200013Y-107964798D01*
X120040123Y-107968510D01*
X119891712Y-107980657D01*
X119768019Y-108001232D01*
X119753246Y-108004831D01*
X119599409Y-108044246D01*
X119556492Y-107989685D01*
X119487015Y-107932311D01*
X119401808Y-107907066D01*
X119371150Y-107909161D01*
X119371150Y-107997167D01*
X119420209Y-108014620D01*
X119469742Y-108057220D01*
X119505763Y-108110325D01*
X119515500Y-108148298D01*
X119501416Y-108197211D01*
X119469477Y-108244511D01*
X119408059Y-108284419D01*
X119341183Y-108290002D01*
X119279986Y-108265606D01*
X119235608Y-108215574D01*
X119219167Y-108146869D01*
X119237744Y-108086161D01*
X119284097Y-108032892D01*
X119344157Y-108000918D01*
X119371150Y-107997167D01*
X119371150Y-107909161D01*
X119311824Y-107913217D01*
X119228015Y-107950028D01*
X119161732Y-108016172D01*
X119121576Y-108098910D01*
X119118587Y-108180275D01*
X119146719Y-108262207D01*
X119198512Y-108328182D01*
X119275264Y-108377208D01*
X119360121Y-108398966D01*
X119370532Y-108399254D01*
X119447586Y-108380368D01*
X119521701Y-108330819D01*
X119579295Y-108260919D01*
X119594930Y-108228897D01*
X119620408Y-108176526D01*
X119654355Y-108143863D01*
X119711080Y-108118903D01*
X119735728Y-108110789D01*
X119830923Y-108089603D01*
X119955646Y-108074708D01*
X120097515Y-108066429D01*
X120244147Y-108065090D01*
X120383159Y-108071014D01*
X120502171Y-108084525D01*
X120531500Y-108089977D01*
X120611127Y-108111623D01*
X120706430Y-108145093D01*
X120807293Y-108185914D01*
X120903602Y-108229618D01*
X120985242Y-108271732D01*
X121042098Y-108307787D01*
X121058837Y-108323045D01*
X121062524Y-108356127D01*
X121045785Y-108423074D01*
X121008270Y-108525263D01*
X121006216Y-108530394D01*
X120901336Y-108846706D01*
X120837962Y-109168089D01*
X120816092Y-109491887D01*
X120835725Y-109815447D01*
X120896860Y-110136116D01*
X120999495Y-110451238D01*
X121007154Y-110470358D01*
X121081358Y-110653583D01*
X121028815Y-110696603D01*
X120971004Y-110738437D01*
X120884219Y-110794417D01*
X120777225Y-110859504D01*
X120658784Y-110928660D01*
X120537661Y-110996846D01*
X120422617Y-111059022D01*
X120322417Y-111110150D01*
X120256333Y-111140786D01*
X119961630Y-111245852D01*
X119642841Y-111320755D01*
X119305301Y-111365768D01*
X118954343Y-111381167D01*
X118595303Y-111367228D01*
X118233514Y-111324226D01*
X117874310Y-111252435D01*
X117523027Y-111152132D01*
X117184997Y-111023592D01*
X117081333Y-110976931D01*
X116990827Y-110933739D01*
X116930875Y-110901409D01*
X116893411Y-110873469D01*
X116870367Y-110843442D01*
X116853678Y-110804854D01*
X116848500Y-110790044D01*
X116804153Y-110708628D01*
X116738215Y-110644237D01*
X116662288Y-110606531D01*
X116621027Y-110600667D01*
X116588771Y-110607469D01*
X116588771Y-110709386D01*
X116653584Y-110714621D01*
X116712147Y-110753069D01*
X116719964Y-110762271D01*
X116757573Y-110829602D01*
X116754997Y-110890020D01*
X116711921Y-110950837D01*
X116711879Y-110950879D01*
X116651060Y-110993981D01*
X116590644Y-110996585D01*
X116523320Y-110959002D01*
X116523271Y-110958964D01*
X116476575Y-110900539D01*
X116467500Y-110853130D01*
X116484663Y-110782623D01*
X116528776Y-110733381D01*
X116588771Y-110709386D01*
X116588771Y-110607469D01*
X116528273Y-110620229D01*
X116448138Y-110672774D01*
X116389837Y-110749087D01*
X116362583Y-110839955D01*
X116361667Y-110860027D01*
X116379834Y-110932060D01*
X116379834Y-110932060D01*
G37*
X116379834Y-110932060D02*
X116426858Y-111003454D01*
X116491524Y-111059921D01*
X116535144Y-111081032D01*
X116626309Y-111093865D01*
X116714299Y-111076740D01*
X116784669Y-111033201D01*
X116799749Y-111016099D01*
X116836265Y-110967688D01*
X117069924Y-111078221D01*
X117429169Y-111227108D01*
X117803574Y-111340543D01*
X118196055Y-111419134D01*
X118609530Y-111463486D01*
X118975750Y-111474727D01*
X119245232Y-111468472D01*
X119483849Y-111449635D01*
X119701552Y-111416866D01*
X119908292Y-111368816D01*
X120034083Y-111331162D01*
X120184475Y-111275341D01*
X120356827Y-111199413D01*
X120539552Y-111109091D01*
X120721064Y-111010088D01*
X120881758Y-110913237D01*
X120966836Y-110859088D01*
X121039710Y-110812770D01*
X121092450Y-110779318D01*
X121116812Y-110763962D01*
X121139169Y-110772922D01*
X121176140Y-110809987D01*
X121219365Y-110866541D01*
X121313548Y-110985566D01*
X121430212Y-111106030D01*
X121558071Y-111217919D01*
X121685843Y-111311218D01*
X121783677Y-111367333D01*
X121930066Y-111430675D01*
X122063491Y-111469793D01*
X122202319Y-111488936D01*
X122325954Y-111492733D01*
X122537523Y-111472824D01*
X122742600Y-111416179D01*
X122931462Y-111325976D01*
X123022471Y-111265043D01*
X123089858Y-111214487D01*
X123238638Y-111326412D01*
X123332776Y-111392467D01*
X123442954Y-111462790D01*
X123547048Y-111523329D01*
X123557858Y-111529151D01*
X123728299Y-111619966D01*
X123309941Y-111826967D01*
X122915770Y-112029528D01*
X122560195Y-112228446D01*
X122239887Y-112425968D01*
X121951521Y-112624338D01*
X121691769Y-112825804D01*
X121457304Y-113032610D01*
X121313109Y-113174857D01*
X121109420Y-113403075D01*
X120947096Y-113625367D01*
X120825866Y-113843460D01*
X120745457Y-114059079D01*
X120705599Y-114273949D01*
X120706021Y-114489797D01*
X120746450Y-114708347D01*
X120826617Y-114931327D01*
X120946248Y-115160460D01*
X120989818Y-115230698D01*
X121140702Y-115436418D01*
X121310542Y-115616170D01*
X121495457Y-115768532D01*
X121691564Y-115892083D01*
X121894981Y-115985402D01*
X122101827Y-116047067D01*
X122308219Y-116075656D01*
X122510275Y-116069748D01*
X122704113Y-116027923D01*
X122885851Y-115948757D01*
X122910919Y-115934124D01*
X123018581Y-115857603D01*
X123138779Y-115752706D01*
X123263021Y-115627797D01*
X123382818Y-115491244D01*
X123458215Y-115394917D01*
X123511959Y-115322702D01*
X123555673Y-115264297D01*
X123583632Y-115227332D01*
X123590641Y-115218421D01*
X123607326Y-115229233D01*
X123646410Y-115264195D01*
X123700953Y-115316941D01*
X123731301Y-115347433D01*
X123880810Y-115472834D01*
X124061202Y-115580172D01*
X124263650Y-115666057D01*
X124479327Y-115727097D01*
X124699408Y-115759905D01*
X124817750Y-115764688D01*
X125032891Y-115748239D01*
X125235938Y-115700975D01*
X125421822Y-115625624D01*
X125585474Y-115524914D01*
X125721825Y-115401570D01*
X125825807Y-115258322D01*
X125851528Y-115208485D01*
X125920705Y-115016660D01*
X125964272Y-114792588D01*
X125982400Y-114537604D01*
X125975259Y-114253038D01*
X125943020Y-113940224D01*
X125885852Y-113600495D01*
X125803926Y-113235182D01*
X125697412Y-112845619D01*
X125566481Y-112433137D01*
X125457251Y-112122883D01*
X125383034Y-111920015D01*
X125650725Y-111875755D01*
X126007814Y-111797222D01*
X126342569Y-111683067D01*
X126656704Y-111532506D01*
X126951936Y-111344757D01*
X127146083Y-111192639D01*
X127353344Y-110993841D01*
X127535735Y-110772072D01*
X127689397Y-110533674D01*
X127810473Y-110284987D01*
X127895104Y-110032353D01*
X127919945Y-109920807D01*
X127933874Y-109847502D01*
X127945194Y-109790081D01*
X127950967Y-109763110D01*
X127972443Y-109748762D01*
X128026577Y-109726571D01*
X128105121Y-109699600D01*
X128196995Y-109671723D01*
X128305002Y-109640816D01*
X128410264Y-109610690D01*
X128499136Y-109585251D01*
X128548375Y-109571153D01*
X128617709Y-109546986D01*
X128652170Y-109522473D01*
X128659500Y-109500000D01*
X128647317Y-109471972D01*
X128605941Y-109447927D01*
X128548375Y-109428847D01*
X128481812Y-109409790D01*
X128388194Y-109382993D01*
X128281167Y-109352363D01*
X128196995Y-109328276D01*
X128102632Y-109299596D01*
X128024667Y-109272719D01*
X127971345Y-109250708D01*
X127950967Y-109236890D01*
X127944293Y-109205464D01*
X127932606Y-109145929D01*
X127919945Y-109079193D01*
X127852692Y-108826825D01*
X127747282Y-108575598D01*
X127607569Y-108331846D01*
X127437410Y-108101908D01*
X127240661Y-107892120D01*
X127146083Y-107807340D01*
X126863937Y-107595112D01*
X126560034Y-107418695D01*
X126233807Y-107277847D01*
X126188292Y-107264091D01*
X126188292Y-107362361D01*
X126222941Y-107372183D01*
X126286383Y-107398668D01*
X126370509Y-107437732D01*
X126467211Y-107485289D01*
X126568382Y-107537255D01*
X126665912Y-107589546D01*
X126751694Y-107638077D01*
X126817620Y-107678762D01*
X126821504Y-107681360D01*
X126908136Y-107742606D01*
X126999664Y-107811734D01*
X127066708Y-107865851D01*
X127177833Y-107959976D01*
X127177833Y-111041893D01*
X127066708Y-111136143D01*
X126959026Y-111220456D01*
X126832138Y-111308588D01*
X126694797Y-111395462D01*
X126555756Y-111476001D01*
X126423769Y-111545126D01*
X126307588Y-111597761D01*
X126218466Y-111628208D01*
X126161833Y-111642422D01*
X126161833Y-109502294D01*
X126161929Y-109141320D01*
X126162235Y-108820622D01*
X126162776Y-108538145D01*
X126163578Y-108291834D01*
X126164665Y-108079632D01*
X126166063Y-107899483D01*
X126167799Y-107749332D01*
X126169896Y-107627122D01*
X126172381Y-107530797D01*
X126175279Y-107458303D01*
X126178615Y-107407582D01*
X126182415Y-107376579D01*
X126186704Y-107363239D01*
X126188292Y-107362361D01*
X126188292Y-107264091D01*
X125884690Y-107172327D01*
X125512117Y-107101892D01*
X125480520Y-107097668D01*
X125381291Y-107084800D01*
X125456950Y-106879525D01*
X125585552Y-106511915D01*
X125697673Y-106152776D01*
X125792564Y-105805834D01*
X125869479Y-105474816D01*
X125927671Y-105163447D01*
X125966392Y-104875455D01*
X125984896Y-104614565D01*
X125982437Y-104384504D01*
X125974797Y-104296425D01*
X125938669Y-104069502D01*
X125884561Y-103877883D01*
X125809990Y-103717478D01*
X125712474Y-103584194D01*
X125589530Y-103473942D01*
X125438674Y-103382630D01*
X125412400Y-103369799D01*
X125215391Y-103292892D01*
X125015534Y-103250273D01*
X124921532Y-103245628D01*
X124921532Y-103344814D01*
X125073867Y-103360073D01*
X125215082Y-103394424D01*
X125359586Y-103450397D01*
X125373431Y-103456667D01*
X125496516Y-103530172D01*
X125612573Y-103630521D01*
X125709416Y-103745679D01*
X125767209Y-103845519D01*
X125824533Y-104012118D01*
X125862871Y-104210874D01*
X125881771Y-104435886D01*
X125880783Y-104681251D01*
X125859454Y-104941067D01*
X125854238Y-104982707D01*
X125790041Y-105371041D01*
X125696195Y-105785072D01*
X125573624Y-106221215D01*
X125423252Y-106675887D01*
X125403966Y-106729902D01*
X125281440Y-107070484D01*
X125049749Y-107078312D01*
X125049749Y-107171667D01*
X125167000Y-107171667D01*
X125167000Y-111834801D01*
X124938859Y-111821748D01*
X124815610Y-111811002D01*
X124815610Y-111913129D01*
X125043964Y-111918356D01*
X125272319Y-111923583D01*
X125306486Y-112008250D01*
X125356739Y-112139054D01*
X125414201Y-112298993D01*
X125474921Y-112476367D01*
X125534953Y-112659475D01*
X125590346Y-112836615D01*
X125622382Y-112944348D01*
X125727133Y-113337700D01*
X125805331Y-113703117D01*
X125856863Y-114039667D01*
X125881615Y-114346417D01*
X125879473Y-114622436D01*
X125853985Y-114846531D01*
X125813711Y-115023699D01*
X125758632Y-115168431D01*
X125684709Y-115289235D01*
X125598344Y-115384894D01*
X125446680Y-115502550D01*
X125275164Y-115586335D01*
X125081201Y-115637074D01*
X124862194Y-115655594D01*
X124754652Y-115653632D01*
X124494731Y-115624552D01*
X124260714Y-115562751D01*
X124053137Y-115468428D01*
X123872536Y-115341782D01*
X123838894Y-115311847D01*
X123757140Y-115233325D01*
X123705319Y-115173790D01*
X123680322Y-115125766D01*
X123679039Y-115081777D01*
X123698358Y-115034347D01*
X123713139Y-115009581D01*
X123762545Y-114924731D01*
X123823820Y-114809205D01*
X123892817Y-114671513D01*
X123965387Y-114520165D01*
X124037385Y-114363671D01*
X124104664Y-114210543D01*
X124119270Y-114176135D01*
X124187826Y-114004756D01*
X124262879Y-113801970D01*
X124341911Y-113575805D01*
X124422404Y-113334288D01*
X124501838Y-113085446D01*
X124577695Y-112837307D01*
X124647457Y-112597899D01*
X124708605Y-112375248D01*
X124758620Y-112177382D01*
X124789252Y-112040742D01*
X124815610Y-111913129D01*
X124815610Y-111811002D01*
X124798807Y-111809536D01*
X124640645Y-111788980D01*
X124479933Y-111762603D01*
X124332232Y-111732929D01*
X124225083Y-111706006D01*
X124161583Y-111687704D01*
X124161583Y-107310442D01*
X124352083Y-107262841D01*
X124513873Y-107228298D01*
X124691806Y-107200081D01*
X124868189Y-107180503D01*
X125025326Y-107171878D01*
X125049749Y-107171667D01*
X125049749Y-107078312D01*
X125049595Y-107078318D01*
X124817750Y-107086151D01*
X124767639Y-106869617D01*
X124737418Y-106746706D01*
X124696832Y-106592815D01*
X124648569Y-106417236D01*
X124595317Y-106229260D01*
X124539763Y-106038178D01*
X124484595Y-105853281D01*
X124432502Y-105683861D01*
X124386170Y-105539209D01*
X124362109Y-105467750D01*
X124280487Y-105240833D01*
X124191670Y-105010195D01*
X124098730Y-104782863D01*
X124004739Y-104565867D01*
X123912767Y-104366235D01*
X123825887Y-104190997D01*
X123747169Y-104047181D01*
X123725682Y-104011340D01*
X123691500Y-103950230D01*
X123677656Y-103901861D01*
X123686821Y-103856769D01*
X123721665Y-103805490D01*
X123784858Y-103738561D01*
X123809517Y-103714238D01*
X123983400Y-103573353D01*
X124183047Y-103465844D01*
X124407900Y-103391930D01*
X124657404Y-103351830D01*
X124743667Y-103346117D01*
X124921532Y-103344814D01*
X124921532Y-103245628D01*
X124800638Y-103239654D01*
X124733083Y-103242271D01*
X124481244Y-103273758D01*
X124245429Y-103337822D01*
X124030539Y-103432449D01*
X123841478Y-103555627D01*
X123731301Y-103653527D01*
X123671607Y-103712351D01*
X123624018Y-103756548D01*
X123595512Y-103779767D01*
X123590641Y-103781579D01*
X123576000Y-103762584D01*
X123541923Y-103717136D01*
X123494103Y-103652851D01*
X123457802Y-103603837D01*
X123345537Y-103463327D01*
X123222517Y-103328784D01*
X123097397Y-103208724D01*
X122978837Y-103111665D01*
X122910938Y-103065876D01*
X122729644Y-102980174D01*
X122536336Y-102932462D01*
X122369279Y-102923302D01*
X122369279Y-103025629D01*
X122427388Y-103026809D01*
X122528033Y-103033025D01*
X122603707Y-103044164D01*
X122671769Y-103064568D01*
X122749577Y-103098577D01*
X122786738Y-103116675D01*
X122955206Y-103220784D01*
X123123643Y-103365981D01*
X123291329Y-103551026D01*
X123457548Y-103774681D01*
X123621580Y-104035706D01*
X123782708Y-104332861D01*
X123940213Y-104664907D01*
X124093378Y-105030604D01*
X124241484Y-105428713D01*
X124383813Y-105857995D01*
X124394133Y-105891083D01*
X124432309Y-106017305D01*
X124472840Y-106157065D01*
X124514253Y-106304678D01*
X124555076Y-106454460D01*
X124593838Y-106600727D01*
X124629066Y-106737795D01*
X124659290Y-106859979D01*
X124683036Y-106961596D01*
X124698833Y-107036961D01*
X124705208Y-107080389D01*
X124704217Y-107088559D01*
X124678787Y-107097371D01*
X124621452Y-107111124D01*
X124542029Y-107127578D01*
X124489667Y-107137486D01*
X124377192Y-107161514D01*
X124246570Y-107194645D01*
X124119339Y-107231255D01*
X124069116Y-107247303D01*
X123849650Y-107320337D01*
X123841515Y-107316642D01*
X123841515Y-111677478D01*
X124042280Y-111744051D01*
X124165657Y-111782390D01*
X124295321Y-111818299D01*
X124421369Y-111849438D01*
X124533902Y-111873467D01*
X124623019Y-111888047D01*
X124665718Y-111891375D01*
X124707617Y-111897337D01*
X124716647Y-111918680D01*
X124714283Y-111928875D01*
X124705441Y-111961838D01*
X124688565Y-112027591D01*
X124665765Y-112117824D01*
X124639146Y-112224226D01*
X124627062Y-112272833D01*
X124505860Y-112732351D01*
X124376391Y-113168430D01*
X124239517Y-113579379D01*
X124096098Y-113963508D01*
X123946995Y-114319125D01*
X123793069Y-114644541D01*
X123635180Y-114938063D01*
X123474190Y-115198002D01*
X123310958Y-115422666D01*
X123146347Y-115610365D01*
X122981216Y-115759408D01*
X122816426Y-115868104D01*
X122789777Y-115881822D01*
X122704057Y-115921853D01*
X122633398Y-115946976D01*
X122560524Y-115961537D01*
X122468158Y-115969882D01*
X122431425Y-115971962D01*
X122205558Y-115962838D01*
X121983170Y-115912405D01*
X121766507Y-115821668D01*
X121557812Y-115691633D01*
X121359329Y-115523305D01*
X121302716Y-115466125D01*
X121134368Y-115266493D01*
X120999080Y-115057315D01*
X120898188Y-114842541D01*
X120833028Y-114626117D01*
X120804938Y-114411992D01*
X120815254Y-114204115D01*
X120837969Y-114093167D01*
X120912392Y-113887735D01*
X121027551Y-113677683D01*
X121182228Y-113464044D01*
X121375205Y-113247853D01*
X121605266Y-113030145D01*
X121871191Y-112811953D01*
X122171764Y-112594314D01*
X122505766Y-112378260D01*
X122871980Y-112164828D01*
X123269189Y-111955050D01*
X123472382Y-111855054D01*
X123841515Y-111677478D01*
X123841515Y-107316642D01*
X123635200Y-107222911D01*
X123240492Y-107034226D01*
X122868714Y-106837678D01*
X122521684Y-106634774D01*
X122201220Y-106427018D01*
X121909142Y-106215917D01*
X121647266Y-106002975D01*
X121417413Y-105789700D01*
X121221399Y-105577595D01*
X121061044Y-105368166D01*
X120938165Y-105162921D01*
X120854582Y-104963362D01*
X120837969Y-104906833D01*
X120805818Y-104704113D01*
X120812812Y-104492959D01*
X120857614Y-104277321D01*
X120938890Y-104061145D01*
X121055302Y-103848381D01*
X121205513Y-103642977D01*
X121302716Y-103533875D01*
X121498116Y-103354148D01*
X121704694Y-103212459D01*
X121920229Y-103109809D01*
X122142498Y-103047198D01*
X122369279Y-103025629D01*
X122369279Y-102923302D01*
X122334680Y-102921404D01*
X122128340Y-102945667D01*
X121920982Y-103003916D01*
X121716271Y-103094817D01*
X121517872Y-103217036D01*
X121329450Y-103369239D01*
X121154671Y-103550092D01*
X120997199Y-103758260D01*
X120993496Y-103763833D01*
X120859975Y-103993526D01*
X120766985Y-104219168D01*
X120714705Y-104441868D01*
X120703315Y-104662734D01*
X120732996Y-104882875D01*
X120803925Y-105103399D01*
X120916284Y-105325416D01*
X121070251Y-105550032D01*
X121266007Y-105778358D01*
X121330835Y-105845644D01*
X121556756Y-106059450D01*
X121806876Y-106266751D01*
X122084443Y-106469724D01*
X122392700Y-106670545D01*
X122734894Y-106871392D01*
X123114272Y-107074441D01*
X123310349Y-107173234D01*
X123729114Y-107380437D01*
X123564349Y-107466299D01*
X123464745Y-107522759D01*
X123354441Y-107592257D01*
X123255389Y-107660883D01*
X123244721Y-107668837D01*
X123089858Y-107785512D01*
X123022471Y-107734957D01*
X122846275Y-107628106D01*
X122648664Y-107553113D01*
X122439358Y-107513156D01*
X122325954Y-107507267D01*
X122308268Y-107508008D01*
X122308268Y-107600740D01*
X122507501Y-107618718D01*
X122700746Y-107675016D01*
X122885303Y-107767631D01*
X123058471Y-107894558D01*
X123217549Y-108053793D01*
X123359837Y-108243331D01*
X123482634Y-108461169D01*
X123583241Y-108705302D01*
X123589775Y-108724494D01*
X123634665Y-108870896D01*
X123666554Y-109008662D01*
X123686926Y-109149312D01*
X123697264Y-109304364D01*
X123699050Y-109485340D01*
X123697792Y-109563500D01*
X123693732Y-109706888D01*
X123687708Y-109819091D01*
X123678450Y-109911255D01*
X123664691Y-109994521D01*
X123645161Y-110080035D01*
X123634223Y-110121955D01*
X123549416Y-110380514D01*
X123441404Y-110614648D01*
X123312694Y-110822301D01*
X123165791Y-111001413D01*
X123003203Y-111149927D01*
X122827435Y-111265785D01*
X122640994Y-111346929D01*
X122446387Y-111391302D01*
X122246119Y-111396845D01*
X122105748Y-111376912D01*
X121901930Y-111312355D01*
X121710406Y-111209367D01*
X121533531Y-111070665D01*
X121373664Y-110898968D01*
X121233160Y-110696996D01*
X121114377Y-110467466D01*
X121019670Y-110213097D01*
X120983203Y-110081964D01*
X120960684Y-109987028D01*
X120944814Y-109905162D01*
X120934463Y-109825032D01*
X120928503Y-109735299D01*
X120925804Y-109624627D01*
X120925230Y-109500000D01*
X120925998Y-109360982D01*
X120929054Y-109252907D01*
X120935523Y-109164400D01*
X120946532Y-109084087D01*
X120963206Y-109000593D01*
X120982849Y-108917917D01*
X121064647Y-108652644D01*
X121171809Y-108410857D01*
X121301978Y-108195275D01*
X121452795Y-108008617D01*
X121621902Y-107853603D01*
X121806941Y-107732953D01*
X122005553Y-107649386D01*
X122105748Y-107623088D01*
X122308268Y-107600740D01*
X122308268Y-107508008D01*
X122170199Y-107513795D01*
X122034150Y-107536991D01*
X121899439Y-107581104D01*
X121783677Y-107632667D01*
X121664535Y-107702953D01*
X121535947Y-107800135D01*
X121409196Y-107914200D01*
X121295566Y-108035133D01*
X121219356Y-108133471D01*
X121139174Y-108249893D01*
X121052295Y-108195936D01*
X120827927Y-108078466D01*
X120616167Y-108004352D01*
X120501275Y-107982712D01*
X120358144Y-107969530D01*
X120200013Y-107964798D01*
X120040123Y-107968510D01*
X119891712Y-107980657D01*
X119768019Y-108001232D01*
X119753246Y-108004831D01*
X119599409Y-108044246D01*
X119556492Y-107989685D01*
X119487015Y-107932311D01*
X119401808Y-107907066D01*
X119371150Y-107909161D01*
X119371150Y-107997167D01*
X119420209Y-108014620D01*
X119469742Y-108057220D01*
X119505763Y-108110325D01*
X119515500Y-108148298D01*
X119501416Y-108197211D01*
X119469477Y-108244511D01*
X119408059Y-108284419D01*
X119341183Y-108290002D01*
X119279986Y-108265606D01*
X119235608Y-108215574D01*
X119219167Y-108146869D01*
X119237744Y-108086161D01*
X119284097Y-108032892D01*
X119344157Y-108000918D01*
X119371150Y-107997167D01*
X119371150Y-107909161D01*
X119311824Y-107913217D01*
X119228015Y-107950028D01*
X119161732Y-108016172D01*
X119121576Y-108098910D01*
X119118587Y-108180275D01*
X119146719Y-108262207D01*
X119198512Y-108328182D01*
X119275264Y-108377208D01*
X119360121Y-108398966D01*
X119370532Y-108399254D01*
X119447586Y-108380368D01*
X119521701Y-108330819D01*
X119579295Y-108260919D01*
X119594930Y-108228897D01*
X119620408Y-108176526D01*
X119654355Y-108143863D01*
X119711080Y-108118903D01*
X119735728Y-108110789D01*
X119830923Y-108089603D01*
X119955646Y-108074708D01*
X120097515Y-108066429D01*
X120244147Y-108065090D01*
X120383159Y-108071014D01*
X120502171Y-108084525D01*
X120531500Y-108089977D01*
X120611127Y-108111623D01*
X120706430Y-108145093D01*
X120807293Y-108185914D01*
X120903602Y-108229618D01*
X120985242Y-108271732D01*
X121042098Y-108307787D01*
X121058837Y-108323045D01*
X121062524Y-108356127D01*
X121045785Y-108423074D01*
X121008270Y-108525263D01*
X121006216Y-108530394D01*
X120901336Y-108846706D01*
X120837962Y-109168089D01*
X120816092Y-109491887D01*
X120835725Y-109815447D01*
X120896860Y-110136116D01*
X120999495Y-110451238D01*
X121007154Y-110470358D01*
X121081358Y-110653583D01*
X121028815Y-110696603D01*
X120971004Y-110738437D01*
X120884219Y-110794417D01*
X120777225Y-110859504D01*
X120658784Y-110928660D01*
X120537661Y-110996846D01*
X120422617Y-111059022D01*
X120322417Y-111110150D01*
X120256333Y-111140786D01*
X119961630Y-111245852D01*
X119642841Y-111320755D01*
X119305301Y-111365768D01*
X118954343Y-111381167D01*
X118595303Y-111367228D01*
X118233514Y-111324226D01*
X117874310Y-111252435D01*
X117523027Y-111152132D01*
X117184997Y-111023592D01*
X117081333Y-110976931D01*
X116990827Y-110933739D01*
X116930875Y-110901409D01*
X116893411Y-110873469D01*
X116870367Y-110843442D01*
X116853678Y-110804854D01*
X116848500Y-110790044D01*
X116804153Y-110708628D01*
X116738215Y-110644237D01*
X116662288Y-110606531D01*
X116621027Y-110600667D01*
X116588771Y-110607469D01*
X116588771Y-110709386D01*
X116653584Y-110714621D01*
X116712147Y-110753069D01*
X116719964Y-110762271D01*
X116757573Y-110829602D01*
X116754997Y-110890020D01*
X116711921Y-110950837D01*
X116711879Y-110950879D01*
X116651060Y-110993981D01*
X116590644Y-110996585D01*
X116523320Y-110959002D01*
X116523271Y-110958964D01*
X116476575Y-110900539D01*
X116467500Y-110853130D01*
X116484663Y-110782623D01*
X116528776Y-110733381D01*
X116588771Y-110709386D01*
X116588771Y-110607469D01*
X116528273Y-110620229D01*
X116448138Y-110672774D01*
X116389837Y-110749087D01*
X116362583Y-110839955D01*
X116361667Y-110860027D01*
X116379834Y-110932060D01*
G36*
X116775355Y-110184015D02*
G01*
X116799801Y-110176912D01*
X116840946Y-110149337D01*
X116900943Y-110099530D01*
X116981945Y-110025727D01*
X117086105Y-109926168D01*
X117215576Y-109799090D01*
X117337734Y-109677517D01*
X117864500Y-109151067D01*
X117864500Y-109516034D01*
X117864826Y-109648780D01*
X117866195Y-109744987D01*
X117869191Y-109810445D01*
X117874400Y-109850943D01*
X117882405Y-109872274D01*
X117893792Y-109880228D01*
X117901357Y-109881000D01*
X117925218Y-109866524D01*
X117974676Y-109825596D01*
X118045663Y-109761965D01*
X118134111Y-109679380D01*
X118235954Y-109581593D01*
X118347122Y-109472351D01*
X118377607Y-109441981D01*
X118518273Y-109302596D01*
X118630904Y-109193593D01*
X118716239Y-109114303D01*
X118775017Y-109064058D01*
X118807977Y-109042188D01*
X118816256Y-109045106D01*
X118811534Y-109087606D01*
X118800024Y-109155274D01*
X118787204Y-109219188D01*
X118772809Y-109293720D01*
X118769658Y-109338440D01*
X118777867Y-109364382D01*
X118788844Y-109375983D01*
X118811571Y-109388953D01*
X118830926Y-109383024D01*
X118849014Y-109353463D01*
X118867941Y-109295542D01*
X118889814Y-109204529D01*
X118911912Y-109099494D01*
X118935272Y-108984416D01*
X118951004Y-108904124D01*
X118959888Y-108851918D01*
X118962706Y-108821093D01*
X118960237Y-108804948D01*
X118953264Y-108796780D01*
X118947603Y-108793144D01*
X118917777Y-108791425D01*
X118857464Y-108798930D01*
X118776166Y-108813484D01*
X118683387Y-108832913D01*
X118588631Y-108855044D01*
X118501400Y-108877701D01*
X118431200Y-108898712D01*
X118387532Y-108915902D01*
X118378036Y-108923436D01*
X118375098Y-108958982D01*
X118402524Y-108976666D01*
X118463245Y-108977086D01*
X118560192Y-108960840D01*
X118560646Y-108960745D01*
X118636827Y-108945099D01*
X118696069Y-108933639D01*
X118726889Y-108928573D01*
X118728205Y-108928500D01*
X118717827Y-108942757D01*
X118681207Y-108982894D01*
X118622141Y-109044962D01*
X118544426Y-109125013D01*
X118451857Y-109219096D01*
X118361696Y-109309789D01*
X117980917Y-109691078D01*
X117970333Y-109347086D01*
X117965694Y-109215870D01*
X117960634Y-109121325D01*
X117954464Y-109057788D01*
X117946494Y-109019597D01*
X117936034Y-109001089D01*
X117927665Y-108996949D01*
X117906656Y-109010121D01*
X117860135Y-109049625D01*
X117792132Y-109111475D01*
X117706680Y-109191682D01*
X117607810Y-109286260D01*
X117499554Y-109391223D01*
X117385942Y-109502582D01*
X117271008Y-109616351D01*
X117158781Y-109728543D01*
X117053295Y-109835171D01*
X116958580Y-109932247D01*
X116878667Y-110015785D01*
X116817590Y-110081798D01*
X116779378Y-110126299D01*
X116767953Y-110143854D01*
X116765457Y-110172408D01*
X116775355Y-110184015D01*
X116775355Y-110184015D01*
G37*
X116775355Y-110184015D02*
X116799801Y-110176912D01*
X116840946Y-110149337D01*
X116900943Y-110099530D01*
X116981945Y-110025727D01*
X117086105Y-109926168D01*
X117215576Y-109799090D01*
X117337734Y-109677517D01*
X117864500Y-109151067D01*
X117864500Y-109516034D01*
X117864826Y-109648780D01*
X117866195Y-109744987D01*
X117869191Y-109810445D01*
X117874400Y-109850943D01*
X117882405Y-109872274D01*
X117893792Y-109880228D01*
X117901357Y-109881000D01*
X117925218Y-109866524D01*
X117974676Y-109825596D01*
X118045663Y-109761965D01*
X118134111Y-109679380D01*
X118235954Y-109581593D01*
X118347122Y-109472351D01*
X118377607Y-109441981D01*
X118518273Y-109302596D01*
X118630904Y-109193593D01*
X118716239Y-109114303D01*
X118775017Y-109064058D01*
X118807977Y-109042188D01*
X118816256Y-109045106D01*
X118811534Y-109087606D01*
X118800024Y-109155274D01*
X118787204Y-109219188D01*
X118772809Y-109293720D01*
X118769658Y-109338440D01*
X118777867Y-109364382D01*
X118788844Y-109375983D01*
X118811571Y-109388953D01*
X118830926Y-109383024D01*
X118849014Y-109353463D01*
X118867941Y-109295542D01*
X118889814Y-109204529D01*
X118911912Y-109099494D01*
X118935272Y-108984416D01*
X118951004Y-108904124D01*
X118959888Y-108851918D01*
X118962706Y-108821093D01*
X118960237Y-108804948D01*
X118953264Y-108796780D01*
X118947603Y-108793144D01*
X118917777Y-108791425D01*
X118857464Y-108798930D01*
X118776166Y-108813484D01*
X118683387Y-108832913D01*
X118588631Y-108855044D01*
X118501400Y-108877701D01*
X118431200Y-108898712D01*
X118387532Y-108915902D01*
X118378036Y-108923436D01*
X118375098Y-108958982D01*
X118402524Y-108976666D01*
X118463245Y-108977086D01*
X118560192Y-108960840D01*
X118560646Y-108960745D01*
X118636827Y-108945099D01*
X118696069Y-108933639D01*
X118726889Y-108928573D01*
X118728205Y-108928500D01*
X118717827Y-108942757D01*
X118681207Y-108982894D01*
X118622141Y-109044962D01*
X118544426Y-109125013D01*
X118451857Y-109219096D01*
X118361696Y-109309789D01*
X117980917Y-109691078D01*
X117970333Y-109347086D01*
X117965694Y-109215870D01*
X117960634Y-109121325D01*
X117954464Y-109057788D01*
X117946494Y-109019597D01*
X117936034Y-109001089D01*
X117927665Y-108996949D01*
X117906656Y-109010121D01*
X117860135Y-109049625D01*
X117792132Y-109111475D01*
X117706680Y-109191682D01*
X117607810Y-109286260D01*
X117499554Y-109391223D01*
X117385942Y-109502582D01*
X117271008Y-109616351D01*
X117158781Y-109728543D01*
X117053295Y-109835171D01*
X116958580Y-109932247D01*
X116878667Y-110015785D01*
X116817590Y-110081798D01*
X116779378Y-110126299D01*
X116767953Y-110143854D01*
X116765457Y-110172408D01*
X116775355Y-110184015D01*
G36*
X122817500Y-108738000D02*
G01*
X122817500Y-108547500D01*
X121822667Y-108547500D01*
X121822667Y-108738000D01*
X122817500Y-108738000D01*
X122817500Y-108738000D01*
G37*
X122817500Y-108738000D02*
X122817500Y-108547500D01*
X121822667Y-108547500D01*
X121822667Y-108738000D01*
X122817500Y-108738000D01*
G36*
X122817500Y-110431333D02*
G01*
X122817500Y-110240833D01*
X121822667Y-110240833D01*
X121822667Y-110431333D01*
X122817500Y-110431333D01*
X122817500Y-110431333D01*
G37*
X122817500Y-110431333D02*
X122817500Y-110240833D01*
X121822667Y-110240833D01*
X121822667Y-110431333D01*
X122817500Y-110431333D01*
M02*
