G04 #@! TF.GenerationSoftware,KiCad,Pcbnew,(5.1.7)-1*
G04 #@! TF.CreationDate,2020-12-10T20:10:58+02:00*
G04 #@! TF.ProjectId,hum_temp_sensor,68756d5f-7465-46d7-905f-73656e736f72,rev?*
G04 #@! TF.SameCoordinates,Original*
G04 #@! TF.FileFunction,Copper,L2,Bot*
G04 #@! TF.FilePolarity,Positive*
%FSLAX46Y46*%
G04 Gerber Fmt 4.6, Leading zero omitted, Abs format (unit mm)*
G04 Created by KiCad (PCBNEW (5.1.7)-1) date 2020-12-10 20:10:58*
%MOMM*%
%LPD*%
G01*
G04 APERTURE LIST*
G04 #@! TA.AperFunction,ComponentPad*
%ADD10C,1.500000*%
G04 #@! TD*
G04 #@! TA.AperFunction,ComponentPad*
%ADD11R,1.500000X1.500000*%
G04 #@! TD*
G04 #@! TA.AperFunction,ComponentPad*
%ADD12C,2.000000*%
G04 #@! TD*
G04 #@! TA.AperFunction,ComponentPad*
%ADD13O,1.950000X1.700000*%
G04 #@! TD*
G04 #@! TA.AperFunction,ComponentPad*
%ADD14C,1.800000*%
G04 #@! TD*
G04 #@! TA.AperFunction,ComponentPad*
%ADD15R,1.800000X1.800000*%
G04 #@! TD*
G04 #@! TA.AperFunction,ComponentPad*
%ADD16C,1.600000*%
G04 #@! TD*
G04 #@! TA.AperFunction,Conductor*
%ADD17C,0.254000*%
G04 #@! TD*
G04 #@! TA.AperFunction,Conductor*
%ADD18C,0.100000*%
G04 #@! TD*
G04 APERTURE END LIST*
D10*
X114000000Y-105380000D03*
X114000000Y-107920000D03*
X114000000Y-110460000D03*
D11*
X114000000Y-113000000D03*
D12*
X115500000Y-99000000D03*
X124500000Y-99000000D03*
X124500000Y-119500000D03*
X115500000Y-119500000D03*
D13*
X129500000Y-105500000D03*
X129500000Y-108000000D03*
X129500000Y-110500000D03*
G04 #@! TA.AperFunction,ComponentPad*
G36*
G01*
X130225000Y-113850000D02*
X128775000Y-113850000D01*
G75*
G02*
X128525000Y-113600000I0J250000D01*
G01*
X128525000Y-112400000D01*
G75*
G02*
X128775000Y-112150000I250000J0D01*
G01*
X130225000Y-112150000D01*
G75*
G02*
X130475000Y-112400000I0J-250000D01*
G01*
X130475000Y-113600000D01*
G75*
G02*
X130225000Y-113850000I-250000J0D01*
G01*
G37*
G04 #@! TD.AperFunction*
D14*
X120000000Y-103960000D03*
D15*
X120000000Y-106500000D03*
D16*
X120000000Y-114500000D03*
X120000000Y-109500000D03*
D17*
X133340001Y-122340000D02*
X86160000Y-122340000D01*
X86160000Y-119279872D01*
X86765000Y-119279872D01*
X86765000Y-119720128D01*
X86850890Y-120151925D01*
X87019369Y-120558669D01*
X87263962Y-120924729D01*
X87575271Y-121236038D01*
X87941331Y-121480631D01*
X88348075Y-121649110D01*
X88779872Y-121735000D01*
X89220128Y-121735000D01*
X89651925Y-121649110D01*
X90058669Y-121480631D01*
X90424729Y-121236038D01*
X90736038Y-120924729D01*
X90980631Y-120558669D01*
X91149110Y-120151925D01*
X91235000Y-119720128D01*
X91235000Y-119338967D01*
X113865000Y-119338967D01*
X113865000Y-119661033D01*
X113927832Y-119976912D01*
X114051082Y-120274463D01*
X114230013Y-120542252D01*
X114457748Y-120769987D01*
X114725537Y-120948918D01*
X115023088Y-121072168D01*
X115338967Y-121135000D01*
X115661033Y-121135000D01*
X115976912Y-121072168D01*
X116274463Y-120948918D01*
X116542252Y-120769987D01*
X116769987Y-120542252D01*
X116948918Y-120274463D01*
X117072168Y-119976912D01*
X117135000Y-119661033D01*
X117135000Y-119338967D01*
X122865000Y-119338967D01*
X122865000Y-119661033D01*
X122927832Y-119976912D01*
X123051082Y-120274463D01*
X123230013Y-120542252D01*
X123457748Y-120769987D01*
X123725537Y-120948918D01*
X124023088Y-121072168D01*
X124338967Y-121135000D01*
X124661033Y-121135000D01*
X124976912Y-121072168D01*
X125274463Y-120948918D01*
X125542252Y-120769987D01*
X125769987Y-120542252D01*
X125948918Y-120274463D01*
X126072168Y-119976912D01*
X126135000Y-119661033D01*
X126135000Y-119338967D01*
X126123246Y-119279872D01*
X128265000Y-119279872D01*
X128265000Y-119720128D01*
X128350890Y-120151925D01*
X128519369Y-120558669D01*
X128763962Y-120924729D01*
X129075271Y-121236038D01*
X129441331Y-121480631D01*
X129848075Y-121649110D01*
X130279872Y-121735000D01*
X130720128Y-121735000D01*
X131151925Y-121649110D01*
X131558669Y-121480631D01*
X131924729Y-121236038D01*
X132236038Y-120924729D01*
X132480631Y-120558669D01*
X132649110Y-120151925D01*
X132735000Y-119720128D01*
X132735000Y-119279872D01*
X132649110Y-118848075D01*
X132480631Y-118441331D01*
X132236038Y-118075271D01*
X131924729Y-117763962D01*
X131558669Y-117519369D01*
X131151925Y-117350890D01*
X130720128Y-117265000D01*
X130279872Y-117265000D01*
X129848075Y-117350890D01*
X129441331Y-117519369D01*
X129075271Y-117763962D01*
X128763962Y-118075271D01*
X128519369Y-118441331D01*
X128350890Y-118848075D01*
X128265000Y-119279872D01*
X126123246Y-119279872D01*
X126072168Y-119023088D01*
X125948918Y-118725537D01*
X125769987Y-118457748D01*
X125542252Y-118230013D01*
X125274463Y-118051082D01*
X124976912Y-117927832D01*
X124661033Y-117865000D01*
X124338967Y-117865000D01*
X124023088Y-117927832D01*
X123725537Y-118051082D01*
X123457748Y-118230013D01*
X123230013Y-118457748D01*
X123051082Y-118725537D01*
X122927832Y-119023088D01*
X122865000Y-119338967D01*
X117135000Y-119338967D01*
X117072168Y-119023088D01*
X116948918Y-118725537D01*
X116769987Y-118457748D01*
X116542252Y-118230013D01*
X116274463Y-118051082D01*
X115976912Y-117927832D01*
X115661033Y-117865000D01*
X115338967Y-117865000D01*
X115023088Y-117927832D01*
X114725537Y-118051082D01*
X114457748Y-118230013D01*
X114230013Y-118457748D01*
X114051082Y-118725537D01*
X113927832Y-119023088D01*
X113865000Y-119338967D01*
X91235000Y-119338967D01*
X91235000Y-119279872D01*
X91149110Y-118848075D01*
X90980631Y-118441331D01*
X90736038Y-118075271D01*
X90424729Y-117763962D01*
X90058669Y-117519369D01*
X89651925Y-117350890D01*
X89220128Y-117265000D01*
X88779872Y-117265000D01*
X88348075Y-117350890D01*
X87941331Y-117519369D01*
X87575271Y-117763962D01*
X87263962Y-118075271D01*
X87019369Y-118441331D01*
X86850890Y-118848075D01*
X86765000Y-119279872D01*
X86160000Y-119279872D01*
X86160000Y-115492702D01*
X119186903Y-115492702D01*
X119258486Y-115736671D01*
X119513996Y-115857571D01*
X119788184Y-115926300D01*
X120070512Y-115940217D01*
X120350130Y-115898787D01*
X120616292Y-115803603D01*
X120741514Y-115736671D01*
X120813097Y-115492702D01*
X120000000Y-114679605D01*
X119186903Y-115492702D01*
X86160000Y-115492702D01*
X86160000Y-114570512D01*
X118559783Y-114570512D01*
X118601213Y-114850130D01*
X118696397Y-115116292D01*
X118763329Y-115241514D01*
X119007298Y-115313097D01*
X119820395Y-114500000D01*
X120179605Y-114500000D01*
X120992702Y-115313097D01*
X121236671Y-115241514D01*
X121357571Y-114986004D01*
X121426300Y-114711816D01*
X121440217Y-114429488D01*
X121398787Y-114149870D01*
X121303603Y-113883708D01*
X121236671Y-113758486D01*
X120992702Y-113686903D01*
X120179605Y-114500000D01*
X119820395Y-114500000D01*
X119007298Y-113686903D01*
X118763329Y-113758486D01*
X118642429Y-114013996D01*
X118573700Y-114288184D01*
X118559783Y-114570512D01*
X86160000Y-114570512D01*
X86160000Y-112250000D01*
X112611928Y-112250000D01*
X112611928Y-113750000D01*
X112624188Y-113874482D01*
X112660498Y-113994180D01*
X112719463Y-114104494D01*
X112798815Y-114201185D01*
X112895506Y-114280537D01*
X113005820Y-114339502D01*
X113125518Y-114375812D01*
X113250000Y-114388072D01*
X114750000Y-114388072D01*
X114874482Y-114375812D01*
X114994180Y-114339502D01*
X115104494Y-114280537D01*
X115201185Y-114201185D01*
X115280537Y-114104494D01*
X115339502Y-113994180D01*
X115375812Y-113874482D01*
X115388072Y-113750000D01*
X115388072Y-113507298D01*
X119186903Y-113507298D01*
X120000000Y-114320395D01*
X120813097Y-113507298D01*
X120741514Y-113263329D01*
X120486004Y-113142429D01*
X120211816Y-113073700D01*
X119929488Y-113059783D01*
X119649870Y-113101213D01*
X119383708Y-113196397D01*
X119258486Y-113263329D01*
X119186903Y-113507298D01*
X115388072Y-113507298D01*
X115388072Y-112250000D01*
X115375812Y-112125518D01*
X115339502Y-112005820D01*
X115280537Y-111895506D01*
X115201185Y-111798815D01*
X115104494Y-111719463D01*
X114994180Y-111660498D01*
X114874482Y-111624188D01*
X114766517Y-111613555D01*
X114882886Y-111535799D01*
X115075799Y-111342886D01*
X115227371Y-111116043D01*
X115331775Y-110863989D01*
X115385000Y-110596411D01*
X115385000Y-110323589D01*
X115331775Y-110056011D01*
X115227371Y-109803957D01*
X115075799Y-109577114D01*
X114882886Y-109384201D01*
X114844669Y-109358665D01*
X118565000Y-109358665D01*
X118565000Y-109641335D01*
X118620147Y-109918574D01*
X118728320Y-110179727D01*
X118885363Y-110414759D01*
X119085241Y-110614637D01*
X119320273Y-110771680D01*
X119581426Y-110879853D01*
X119858665Y-110935000D01*
X120141335Y-110935000D01*
X120418574Y-110879853D01*
X120679727Y-110771680D01*
X120914759Y-110614637D01*
X121114637Y-110414759D01*
X121271680Y-110179727D01*
X121379853Y-109918574D01*
X121435000Y-109641335D01*
X121435000Y-109358665D01*
X121379853Y-109081426D01*
X121271680Y-108820273D01*
X121114637Y-108585241D01*
X120914759Y-108385363D01*
X120679727Y-108228320D01*
X120418574Y-108120147D01*
X120141335Y-108065000D01*
X119858665Y-108065000D01*
X119581426Y-108120147D01*
X119320273Y-108228320D01*
X119085241Y-108385363D01*
X118885363Y-108585241D01*
X118728320Y-108820273D01*
X118620147Y-109081426D01*
X118565000Y-109358665D01*
X114844669Y-109358665D01*
X114656043Y-109232629D01*
X114553127Y-109190000D01*
X114656043Y-109147371D01*
X114882886Y-108995799D01*
X115075799Y-108802886D01*
X115227371Y-108576043D01*
X115331775Y-108323989D01*
X115385000Y-108056411D01*
X115385000Y-107783589D01*
X115331775Y-107516011D01*
X115283722Y-107400000D01*
X118461928Y-107400000D01*
X118474188Y-107524482D01*
X118510498Y-107644180D01*
X118569463Y-107754494D01*
X118648815Y-107851185D01*
X118745506Y-107930537D01*
X118855820Y-107989502D01*
X118975518Y-108025812D01*
X119100000Y-108038072D01*
X119714250Y-108035000D01*
X119873000Y-107876250D01*
X119873000Y-106627000D01*
X120127000Y-106627000D01*
X120127000Y-107876250D01*
X120285750Y-108035000D01*
X120900000Y-108038072D01*
X121024482Y-108025812D01*
X121109572Y-108000000D01*
X127882815Y-108000000D01*
X127911487Y-108291111D01*
X127996401Y-108571034D01*
X128134294Y-108829014D01*
X128319866Y-109055134D01*
X128545986Y-109240706D01*
X128563374Y-109250000D01*
X128545986Y-109259294D01*
X128319866Y-109444866D01*
X128134294Y-109670986D01*
X127996401Y-109928966D01*
X127911487Y-110208889D01*
X127882815Y-110500000D01*
X127911487Y-110791111D01*
X127996401Y-111071034D01*
X128134294Y-111329014D01*
X128319866Y-111555134D01*
X128383337Y-111607223D01*
X128281614Y-111661595D01*
X128147038Y-111772038D01*
X128036595Y-111906614D01*
X127954528Y-112060150D01*
X127903992Y-112226746D01*
X127886928Y-112400000D01*
X127886928Y-113600000D01*
X127903992Y-113773254D01*
X127954528Y-113939850D01*
X128036595Y-114093386D01*
X128147038Y-114227962D01*
X128281614Y-114338405D01*
X128435150Y-114420472D01*
X128601746Y-114471008D01*
X128775000Y-114488072D01*
X130225000Y-114488072D01*
X130398254Y-114471008D01*
X130564850Y-114420472D01*
X130718386Y-114338405D01*
X130852962Y-114227962D01*
X130963405Y-114093386D01*
X131045472Y-113939850D01*
X131096008Y-113773254D01*
X131113072Y-113600000D01*
X131113072Y-112400000D01*
X131096008Y-112226746D01*
X131045472Y-112060150D01*
X130963405Y-111906614D01*
X130852962Y-111772038D01*
X130718386Y-111661595D01*
X130616663Y-111607223D01*
X130680134Y-111555134D01*
X130865706Y-111329014D01*
X131003599Y-111071034D01*
X131088513Y-110791111D01*
X131117185Y-110500000D01*
X131088513Y-110208889D01*
X131003599Y-109928966D01*
X130865706Y-109670986D01*
X130680134Y-109444866D01*
X130454014Y-109259294D01*
X130436626Y-109250000D01*
X130454014Y-109240706D01*
X130680134Y-109055134D01*
X130865706Y-108829014D01*
X131003599Y-108571034D01*
X131088513Y-108291111D01*
X131117185Y-108000000D01*
X131088513Y-107708889D01*
X131003599Y-107428966D01*
X130865706Y-107170986D01*
X130680134Y-106944866D01*
X130454014Y-106759294D01*
X130428278Y-106745538D01*
X130634429Y-106589049D01*
X130827496Y-106371193D01*
X130974352Y-106119858D01*
X131066476Y-105856890D01*
X130945155Y-105627000D01*
X129627000Y-105627000D01*
X129627000Y-105647000D01*
X129373000Y-105647000D01*
X129373000Y-105627000D01*
X128054845Y-105627000D01*
X127933524Y-105856890D01*
X128025648Y-106119858D01*
X128172504Y-106371193D01*
X128365571Y-106589049D01*
X128571722Y-106745538D01*
X128545986Y-106759294D01*
X128319866Y-106944866D01*
X128134294Y-107170986D01*
X127996401Y-107428966D01*
X127911487Y-107708889D01*
X127882815Y-108000000D01*
X121109572Y-108000000D01*
X121144180Y-107989502D01*
X121254494Y-107930537D01*
X121351185Y-107851185D01*
X121430537Y-107754494D01*
X121489502Y-107644180D01*
X121525812Y-107524482D01*
X121538072Y-107400000D01*
X121535000Y-106785750D01*
X121376250Y-106627000D01*
X120127000Y-106627000D01*
X119873000Y-106627000D01*
X118623750Y-106627000D01*
X118465000Y-106785750D01*
X118461928Y-107400000D01*
X115283722Y-107400000D01*
X115227371Y-107263957D01*
X115075799Y-107037114D01*
X114882886Y-106844201D01*
X114656043Y-106692629D01*
X114556721Y-106651489D01*
X114598832Y-106636277D01*
X114711863Y-106575860D01*
X114777388Y-106336993D01*
X114000000Y-105559605D01*
X113222612Y-106336993D01*
X113288137Y-106575860D01*
X113446477Y-106650164D01*
X113343957Y-106692629D01*
X113117114Y-106844201D01*
X112924201Y-107037114D01*
X112772629Y-107263957D01*
X112668225Y-107516011D01*
X112615000Y-107783589D01*
X112615000Y-108056411D01*
X112668225Y-108323989D01*
X112772629Y-108576043D01*
X112924201Y-108802886D01*
X113117114Y-108995799D01*
X113343957Y-109147371D01*
X113446873Y-109190000D01*
X113343957Y-109232629D01*
X113117114Y-109384201D01*
X112924201Y-109577114D01*
X112772629Y-109803957D01*
X112668225Y-110056011D01*
X112615000Y-110323589D01*
X112615000Y-110596411D01*
X112668225Y-110863989D01*
X112772629Y-111116043D01*
X112924201Y-111342886D01*
X113117114Y-111535799D01*
X113233483Y-111613555D01*
X113125518Y-111624188D01*
X113005820Y-111660498D01*
X112895506Y-111719463D01*
X112798815Y-111798815D01*
X112719463Y-111895506D01*
X112660498Y-112005820D01*
X112624188Y-112125518D01*
X112611928Y-112250000D01*
X86160000Y-112250000D01*
X86160000Y-105452492D01*
X112610188Y-105452492D01*
X112651035Y-105722238D01*
X112743723Y-105978832D01*
X112804140Y-106091863D01*
X113043007Y-106157388D01*
X113820395Y-105380000D01*
X114179605Y-105380000D01*
X114956993Y-106157388D01*
X115195860Y-106091863D01*
X115311760Y-105844884D01*
X115372314Y-105600000D01*
X118461928Y-105600000D01*
X118465000Y-106214250D01*
X118623750Y-106373000D01*
X119873000Y-106373000D01*
X119873000Y-106353000D01*
X120127000Y-106353000D01*
X120127000Y-106373000D01*
X121376250Y-106373000D01*
X121535000Y-106214250D01*
X121538072Y-105600000D01*
X121525812Y-105475518D01*
X121489502Y-105355820D01*
X121430537Y-105245506D01*
X121351185Y-105148815D01*
X121344234Y-105143110D01*
X127933524Y-105143110D01*
X128054845Y-105373000D01*
X129373000Y-105373000D01*
X129373000Y-104173835D01*
X129627000Y-104173835D01*
X129627000Y-105373000D01*
X130945155Y-105373000D01*
X131066476Y-105143110D01*
X130974352Y-104880142D01*
X130827496Y-104628807D01*
X130634429Y-104410951D01*
X130402570Y-104234947D01*
X130140830Y-104107558D01*
X129859267Y-104033680D01*
X129627000Y-104173835D01*
X129373000Y-104173835D01*
X129140733Y-104033680D01*
X128859170Y-104107558D01*
X128597430Y-104234947D01*
X128365571Y-104410951D01*
X128172504Y-104628807D01*
X128025648Y-104880142D01*
X127933524Y-105143110D01*
X121344234Y-105143110D01*
X121254494Y-105069463D01*
X121144180Y-105010498D01*
X121125873Y-105004944D01*
X121192312Y-104938505D01*
X121360299Y-104687095D01*
X121476011Y-104407743D01*
X121535000Y-104111184D01*
X121535000Y-103808816D01*
X121476011Y-103512257D01*
X121360299Y-103232905D01*
X121192312Y-102981495D01*
X120978505Y-102767688D01*
X120727095Y-102599701D01*
X120447743Y-102483989D01*
X120151184Y-102425000D01*
X119848816Y-102425000D01*
X119552257Y-102483989D01*
X119272905Y-102599701D01*
X119021495Y-102767688D01*
X118807688Y-102981495D01*
X118639701Y-103232905D01*
X118523989Y-103512257D01*
X118465000Y-103808816D01*
X118465000Y-104111184D01*
X118523989Y-104407743D01*
X118639701Y-104687095D01*
X118807688Y-104938505D01*
X118874127Y-105004944D01*
X118855820Y-105010498D01*
X118745506Y-105069463D01*
X118648815Y-105148815D01*
X118569463Y-105245506D01*
X118510498Y-105355820D01*
X118474188Y-105475518D01*
X118461928Y-105600000D01*
X115372314Y-105600000D01*
X115377250Y-105580040D01*
X115389812Y-105307508D01*
X115348965Y-105037762D01*
X115256277Y-104781168D01*
X115195860Y-104668137D01*
X114956993Y-104602612D01*
X114179605Y-105380000D01*
X113820395Y-105380000D01*
X113043007Y-104602612D01*
X112804140Y-104668137D01*
X112688240Y-104915116D01*
X112622750Y-105179960D01*
X112610188Y-105452492D01*
X86160000Y-105452492D01*
X86160000Y-104423007D01*
X113222612Y-104423007D01*
X114000000Y-105200395D01*
X114777388Y-104423007D01*
X114711863Y-104184140D01*
X114464884Y-104068240D01*
X114200040Y-104002750D01*
X113927508Y-103990188D01*
X113657762Y-104031035D01*
X113401168Y-104123723D01*
X113288137Y-104184140D01*
X113222612Y-104423007D01*
X86160000Y-104423007D01*
X86160000Y-98779872D01*
X86765000Y-98779872D01*
X86765000Y-99220128D01*
X86850890Y-99651925D01*
X87019369Y-100058669D01*
X87263962Y-100424729D01*
X87575271Y-100736038D01*
X87941331Y-100980631D01*
X88348075Y-101149110D01*
X88779872Y-101235000D01*
X89220128Y-101235000D01*
X89651925Y-101149110D01*
X90058669Y-100980631D01*
X90424729Y-100736038D01*
X90736038Y-100424729D01*
X90980631Y-100058669D01*
X91149110Y-99651925D01*
X91235000Y-99220128D01*
X91235000Y-98838967D01*
X113865000Y-98838967D01*
X113865000Y-99161033D01*
X113927832Y-99476912D01*
X114051082Y-99774463D01*
X114230013Y-100042252D01*
X114457748Y-100269987D01*
X114725537Y-100448918D01*
X115023088Y-100572168D01*
X115338967Y-100635000D01*
X115661033Y-100635000D01*
X115976912Y-100572168D01*
X116274463Y-100448918D01*
X116542252Y-100269987D01*
X116769987Y-100042252D01*
X116948918Y-99774463D01*
X117072168Y-99476912D01*
X117135000Y-99161033D01*
X117135000Y-98838967D01*
X122865000Y-98838967D01*
X122865000Y-99161033D01*
X122927832Y-99476912D01*
X123051082Y-99774463D01*
X123230013Y-100042252D01*
X123457748Y-100269987D01*
X123725537Y-100448918D01*
X124023088Y-100572168D01*
X124338967Y-100635000D01*
X124661033Y-100635000D01*
X124976912Y-100572168D01*
X125274463Y-100448918D01*
X125542252Y-100269987D01*
X125769987Y-100042252D01*
X125948918Y-99774463D01*
X126072168Y-99476912D01*
X126135000Y-99161033D01*
X126135000Y-98838967D01*
X126123246Y-98779872D01*
X128265000Y-98779872D01*
X128265000Y-99220128D01*
X128350890Y-99651925D01*
X128519369Y-100058669D01*
X128763962Y-100424729D01*
X129075271Y-100736038D01*
X129441331Y-100980631D01*
X129848075Y-101149110D01*
X130279872Y-101235000D01*
X130720128Y-101235000D01*
X131151925Y-101149110D01*
X131558669Y-100980631D01*
X131924729Y-100736038D01*
X132236038Y-100424729D01*
X132480631Y-100058669D01*
X132649110Y-99651925D01*
X132735000Y-99220128D01*
X132735000Y-98779872D01*
X132649110Y-98348075D01*
X132480631Y-97941331D01*
X132236038Y-97575271D01*
X131924729Y-97263962D01*
X131558669Y-97019369D01*
X131151925Y-96850890D01*
X130720128Y-96765000D01*
X130279872Y-96765000D01*
X129848075Y-96850890D01*
X129441331Y-97019369D01*
X129075271Y-97263962D01*
X128763962Y-97575271D01*
X128519369Y-97941331D01*
X128350890Y-98348075D01*
X128265000Y-98779872D01*
X126123246Y-98779872D01*
X126072168Y-98523088D01*
X125948918Y-98225537D01*
X125769987Y-97957748D01*
X125542252Y-97730013D01*
X125274463Y-97551082D01*
X124976912Y-97427832D01*
X124661033Y-97365000D01*
X124338967Y-97365000D01*
X124023088Y-97427832D01*
X123725537Y-97551082D01*
X123457748Y-97730013D01*
X123230013Y-97957748D01*
X123051082Y-98225537D01*
X122927832Y-98523088D01*
X122865000Y-98838967D01*
X117135000Y-98838967D01*
X117072168Y-98523088D01*
X116948918Y-98225537D01*
X116769987Y-97957748D01*
X116542252Y-97730013D01*
X116274463Y-97551082D01*
X115976912Y-97427832D01*
X115661033Y-97365000D01*
X115338967Y-97365000D01*
X115023088Y-97427832D01*
X114725537Y-97551082D01*
X114457748Y-97730013D01*
X114230013Y-97957748D01*
X114051082Y-98225537D01*
X113927832Y-98523088D01*
X113865000Y-98838967D01*
X91235000Y-98838967D01*
X91235000Y-98779872D01*
X91149110Y-98348075D01*
X90980631Y-97941331D01*
X90736038Y-97575271D01*
X90424729Y-97263962D01*
X90058669Y-97019369D01*
X89651925Y-96850890D01*
X89220128Y-96765000D01*
X88779872Y-96765000D01*
X88348075Y-96850890D01*
X87941331Y-97019369D01*
X87575271Y-97263962D01*
X87263962Y-97575271D01*
X87019369Y-97941331D01*
X86850890Y-98348075D01*
X86765000Y-98779872D01*
X86160000Y-98779872D01*
X86160000Y-96160000D01*
X133340000Y-96160000D01*
X133340001Y-122340000D01*
G04 #@! TA.AperFunction,Conductor*
D18*
G36*
X133340001Y-122340000D02*
G01*
X86160000Y-122340000D01*
X86160000Y-119279872D01*
X86765000Y-119279872D01*
X86765000Y-119720128D01*
X86850890Y-120151925D01*
X87019369Y-120558669D01*
X87263962Y-120924729D01*
X87575271Y-121236038D01*
X87941331Y-121480631D01*
X88348075Y-121649110D01*
X88779872Y-121735000D01*
X89220128Y-121735000D01*
X89651925Y-121649110D01*
X90058669Y-121480631D01*
X90424729Y-121236038D01*
X90736038Y-120924729D01*
X90980631Y-120558669D01*
X91149110Y-120151925D01*
X91235000Y-119720128D01*
X91235000Y-119338967D01*
X113865000Y-119338967D01*
X113865000Y-119661033D01*
X113927832Y-119976912D01*
X114051082Y-120274463D01*
X114230013Y-120542252D01*
X114457748Y-120769987D01*
X114725537Y-120948918D01*
X115023088Y-121072168D01*
X115338967Y-121135000D01*
X115661033Y-121135000D01*
X115976912Y-121072168D01*
X116274463Y-120948918D01*
X116542252Y-120769987D01*
X116769987Y-120542252D01*
X116948918Y-120274463D01*
X117072168Y-119976912D01*
X117135000Y-119661033D01*
X117135000Y-119338967D01*
X122865000Y-119338967D01*
X122865000Y-119661033D01*
X122927832Y-119976912D01*
X123051082Y-120274463D01*
X123230013Y-120542252D01*
X123457748Y-120769987D01*
X123725537Y-120948918D01*
X124023088Y-121072168D01*
X124338967Y-121135000D01*
X124661033Y-121135000D01*
X124976912Y-121072168D01*
X125274463Y-120948918D01*
X125542252Y-120769987D01*
X125769987Y-120542252D01*
X125948918Y-120274463D01*
X126072168Y-119976912D01*
X126135000Y-119661033D01*
X126135000Y-119338967D01*
X126123246Y-119279872D01*
X128265000Y-119279872D01*
X128265000Y-119720128D01*
X128350890Y-120151925D01*
X128519369Y-120558669D01*
X128763962Y-120924729D01*
X129075271Y-121236038D01*
X129441331Y-121480631D01*
X129848075Y-121649110D01*
X130279872Y-121735000D01*
X130720128Y-121735000D01*
X131151925Y-121649110D01*
X131558669Y-121480631D01*
X131924729Y-121236038D01*
X132236038Y-120924729D01*
X132480631Y-120558669D01*
X132649110Y-120151925D01*
X132735000Y-119720128D01*
X132735000Y-119279872D01*
X132649110Y-118848075D01*
X132480631Y-118441331D01*
X132236038Y-118075271D01*
X131924729Y-117763962D01*
X131558669Y-117519369D01*
X131151925Y-117350890D01*
X130720128Y-117265000D01*
X130279872Y-117265000D01*
X129848075Y-117350890D01*
X129441331Y-117519369D01*
X129075271Y-117763962D01*
X128763962Y-118075271D01*
X128519369Y-118441331D01*
X128350890Y-118848075D01*
X128265000Y-119279872D01*
X126123246Y-119279872D01*
X126072168Y-119023088D01*
X125948918Y-118725537D01*
X125769987Y-118457748D01*
X125542252Y-118230013D01*
X125274463Y-118051082D01*
X124976912Y-117927832D01*
X124661033Y-117865000D01*
X124338967Y-117865000D01*
X124023088Y-117927832D01*
X123725537Y-118051082D01*
X123457748Y-118230013D01*
X123230013Y-118457748D01*
X123051082Y-118725537D01*
X122927832Y-119023088D01*
X122865000Y-119338967D01*
X117135000Y-119338967D01*
X117072168Y-119023088D01*
X116948918Y-118725537D01*
X116769987Y-118457748D01*
X116542252Y-118230013D01*
X116274463Y-118051082D01*
X115976912Y-117927832D01*
X115661033Y-117865000D01*
X115338967Y-117865000D01*
X115023088Y-117927832D01*
X114725537Y-118051082D01*
X114457748Y-118230013D01*
X114230013Y-118457748D01*
X114051082Y-118725537D01*
X113927832Y-119023088D01*
X113865000Y-119338967D01*
X91235000Y-119338967D01*
X91235000Y-119279872D01*
X91149110Y-118848075D01*
X90980631Y-118441331D01*
X90736038Y-118075271D01*
X90424729Y-117763962D01*
X90058669Y-117519369D01*
X89651925Y-117350890D01*
X89220128Y-117265000D01*
X88779872Y-117265000D01*
X88348075Y-117350890D01*
X87941331Y-117519369D01*
X87575271Y-117763962D01*
X87263962Y-118075271D01*
X87019369Y-118441331D01*
X86850890Y-118848075D01*
X86765000Y-119279872D01*
X86160000Y-119279872D01*
X86160000Y-115492702D01*
X119186903Y-115492702D01*
X119258486Y-115736671D01*
X119513996Y-115857571D01*
X119788184Y-115926300D01*
X120070512Y-115940217D01*
X120350130Y-115898787D01*
X120616292Y-115803603D01*
X120741514Y-115736671D01*
X120813097Y-115492702D01*
X120000000Y-114679605D01*
X119186903Y-115492702D01*
X86160000Y-115492702D01*
X86160000Y-114570512D01*
X118559783Y-114570512D01*
X118601213Y-114850130D01*
X118696397Y-115116292D01*
X118763329Y-115241514D01*
X119007298Y-115313097D01*
X119820395Y-114500000D01*
X120179605Y-114500000D01*
X120992702Y-115313097D01*
X121236671Y-115241514D01*
X121357571Y-114986004D01*
X121426300Y-114711816D01*
X121440217Y-114429488D01*
X121398787Y-114149870D01*
X121303603Y-113883708D01*
X121236671Y-113758486D01*
X120992702Y-113686903D01*
X120179605Y-114500000D01*
X119820395Y-114500000D01*
X119007298Y-113686903D01*
X118763329Y-113758486D01*
X118642429Y-114013996D01*
X118573700Y-114288184D01*
X118559783Y-114570512D01*
X86160000Y-114570512D01*
X86160000Y-112250000D01*
X112611928Y-112250000D01*
X112611928Y-113750000D01*
X112624188Y-113874482D01*
X112660498Y-113994180D01*
X112719463Y-114104494D01*
X112798815Y-114201185D01*
X112895506Y-114280537D01*
X113005820Y-114339502D01*
X113125518Y-114375812D01*
X113250000Y-114388072D01*
X114750000Y-114388072D01*
X114874482Y-114375812D01*
X114994180Y-114339502D01*
X115104494Y-114280537D01*
X115201185Y-114201185D01*
X115280537Y-114104494D01*
X115339502Y-113994180D01*
X115375812Y-113874482D01*
X115388072Y-113750000D01*
X115388072Y-113507298D01*
X119186903Y-113507298D01*
X120000000Y-114320395D01*
X120813097Y-113507298D01*
X120741514Y-113263329D01*
X120486004Y-113142429D01*
X120211816Y-113073700D01*
X119929488Y-113059783D01*
X119649870Y-113101213D01*
X119383708Y-113196397D01*
X119258486Y-113263329D01*
X119186903Y-113507298D01*
X115388072Y-113507298D01*
X115388072Y-112250000D01*
X115375812Y-112125518D01*
X115339502Y-112005820D01*
X115280537Y-111895506D01*
X115201185Y-111798815D01*
X115104494Y-111719463D01*
X114994180Y-111660498D01*
X114874482Y-111624188D01*
X114766517Y-111613555D01*
X114882886Y-111535799D01*
X115075799Y-111342886D01*
X115227371Y-111116043D01*
X115331775Y-110863989D01*
X115385000Y-110596411D01*
X115385000Y-110323589D01*
X115331775Y-110056011D01*
X115227371Y-109803957D01*
X115075799Y-109577114D01*
X114882886Y-109384201D01*
X114844669Y-109358665D01*
X118565000Y-109358665D01*
X118565000Y-109641335D01*
X118620147Y-109918574D01*
X118728320Y-110179727D01*
X118885363Y-110414759D01*
X119085241Y-110614637D01*
X119320273Y-110771680D01*
X119581426Y-110879853D01*
X119858665Y-110935000D01*
X120141335Y-110935000D01*
X120418574Y-110879853D01*
X120679727Y-110771680D01*
X120914759Y-110614637D01*
X121114637Y-110414759D01*
X121271680Y-110179727D01*
X121379853Y-109918574D01*
X121435000Y-109641335D01*
X121435000Y-109358665D01*
X121379853Y-109081426D01*
X121271680Y-108820273D01*
X121114637Y-108585241D01*
X120914759Y-108385363D01*
X120679727Y-108228320D01*
X120418574Y-108120147D01*
X120141335Y-108065000D01*
X119858665Y-108065000D01*
X119581426Y-108120147D01*
X119320273Y-108228320D01*
X119085241Y-108385363D01*
X118885363Y-108585241D01*
X118728320Y-108820273D01*
X118620147Y-109081426D01*
X118565000Y-109358665D01*
X114844669Y-109358665D01*
X114656043Y-109232629D01*
X114553127Y-109190000D01*
X114656043Y-109147371D01*
X114882886Y-108995799D01*
X115075799Y-108802886D01*
X115227371Y-108576043D01*
X115331775Y-108323989D01*
X115385000Y-108056411D01*
X115385000Y-107783589D01*
X115331775Y-107516011D01*
X115283722Y-107400000D01*
X118461928Y-107400000D01*
X118474188Y-107524482D01*
X118510498Y-107644180D01*
X118569463Y-107754494D01*
X118648815Y-107851185D01*
X118745506Y-107930537D01*
X118855820Y-107989502D01*
X118975518Y-108025812D01*
X119100000Y-108038072D01*
X119714250Y-108035000D01*
X119873000Y-107876250D01*
X119873000Y-106627000D01*
X120127000Y-106627000D01*
X120127000Y-107876250D01*
X120285750Y-108035000D01*
X120900000Y-108038072D01*
X121024482Y-108025812D01*
X121109572Y-108000000D01*
X127882815Y-108000000D01*
X127911487Y-108291111D01*
X127996401Y-108571034D01*
X128134294Y-108829014D01*
X128319866Y-109055134D01*
X128545986Y-109240706D01*
X128563374Y-109250000D01*
X128545986Y-109259294D01*
X128319866Y-109444866D01*
X128134294Y-109670986D01*
X127996401Y-109928966D01*
X127911487Y-110208889D01*
X127882815Y-110500000D01*
X127911487Y-110791111D01*
X127996401Y-111071034D01*
X128134294Y-111329014D01*
X128319866Y-111555134D01*
X128383337Y-111607223D01*
X128281614Y-111661595D01*
X128147038Y-111772038D01*
X128036595Y-111906614D01*
X127954528Y-112060150D01*
X127903992Y-112226746D01*
X127886928Y-112400000D01*
X127886928Y-113600000D01*
X127903992Y-113773254D01*
X127954528Y-113939850D01*
X128036595Y-114093386D01*
X128147038Y-114227962D01*
X128281614Y-114338405D01*
X128435150Y-114420472D01*
X128601746Y-114471008D01*
X128775000Y-114488072D01*
X130225000Y-114488072D01*
X130398254Y-114471008D01*
X130564850Y-114420472D01*
X130718386Y-114338405D01*
X130852962Y-114227962D01*
X130963405Y-114093386D01*
X131045472Y-113939850D01*
X131096008Y-113773254D01*
X131113072Y-113600000D01*
X131113072Y-112400000D01*
X131096008Y-112226746D01*
X131045472Y-112060150D01*
X130963405Y-111906614D01*
X130852962Y-111772038D01*
X130718386Y-111661595D01*
X130616663Y-111607223D01*
X130680134Y-111555134D01*
X130865706Y-111329014D01*
X131003599Y-111071034D01*
X131088513Y-110791111D01*
X131117185Y-110500000D01*
X131088513Y-110208889D01*
X131003599Y-109928966D01*
X130865706Y-109670986D01*
X130680134Y-109444866D01*
X130454014Y-109259294D01*
X130436626Y-109250000D01*
X130454014Y-109240706D01*
X130680134Y-109055134D01*
X130865706Y-108829014D01*
X131003599Y-108571034D01*
X131088513Y-108291111D01*
X131117185Y-108000000D01*
X131088513Y-107708889D01*
X131003599Y-107428966D01*
X130865706Y-107170986D01*
X130680134Y-106944866D01*
X130454014Y-106759294D01*
X130428278Y-106745538D01*
X130634429Y-106589049D01*
X130827496Y-106371193D01*
X130974352Y-106119858D01*
X131066476Y-105856890D01*
X130945155Y-105627000D01*
X129627000Y-105627000D01*
X129627000Y-105647000D01*
X129373000Y-105647000D01*
X129373000Y-105627000D01*
X128054845Y-105627000D01*
X127933524Y-105856890D01*
X128025648Y-106119858D01*
X128172504Y-106371193D01*
X128365571Y-106589049D01*
X128571722Y-106745538D01*
X128545986Y-106759294D01*
X128319866Y-106944866D01*
X128134294Y-107170986D01*
X127996401Y-107428966D01*
X127911487Y-107708889D01*
X127882815Y-108000000D01*
X121109572Y-108000000D01*
X121144180Y-107989502D01*
X121254494Y-107930537D01*
X121351185Y-107851185D01*
X121430537Y-107754494D01*
X121489502Y-107644180D01*
X121525812Y-107524482D01*
X121538072Y-107400000D01*
X121535000Y-106785750D01*
X121376250Y-106627000D01*
X120127000Y-106627000D01*
X119873000Y-106627000D01*
X118623750Y-106627000D01*
X118465000Y-106785750D01*
X118461928Y-107400000D01*
X115283722Y-107400000D01*
X115227371Y-107263957D01*
X115075799Y-107037114D01*
X114882886Y-106844201D01*
X114656043Y-106692629D01*
X114556721Y-106651489D01*
X114598832Y-106636277D01*
X114711863Y-106575860D01*
X114777388Y-106336993D01*
X114000000Y-105559605D01*
X113222612Y-106336993D01*
X113288137Y-106575860D01*
X113446477Y-106650164D01*
X113343957Y-106692629D01*
X113117114Y-106844201D01*
X112924201Y-107037114D01*
X112772629Y-107263957D01*
X112668225Y-107516011D01*
X112615000Y-107783589D01*
X112615000Y-108056411D01*
X112668225Y-108323989D01*
X112772629Y-108576043D01*
X112924201Y-108802886D01*
X113117114Y-108995799D01*
X113343957Y-109147371D01*
X113446873Y-109190000D01*
X113343957Y-109232629D01*
X113117114Y-109384201D01*
X112924201Y-109577114D01*
X112772629Y-109803957D01*
X112668225Y-110056011D01*
X112615000Y-110323589D01*
X112615000Y-110596411D01*
X112668225Y-110863989D01*
X112772629Y-111116043D01*
X112924201Y-111342886D01*
X113117114Y-111535799D01*
X113233483Y-111613555D01*
X113125518Y-111624188D01*
X113005820Y-111660498D01*
X112895506Y-111719463D01*
X112798815Y-111798815D01*
X112719463Y-111895506D01*
X112660498Y-112005820D01*
X112624188Y-112125518D01*
X112611928Y-112250000D01*
X86160000Y-112250000D01*
X86160000Y-105452492D01*
X112610188Y-105452492D01*
X112651035Y-105722238D01*
X112743723Y-105978832D01*
X112804140Y-106091863D01*
X113043007Y-106157388D01*
X113820395Y-105380000D01*
X114179605Y-105380000D01*
X114956993Y-106157388D01*
X115195860Y-106091863D01*
X115311760Y-105844884D01*
X115372314Y-105600000D01*
X118461928Y-105600000D01*
X118465000Y-106214250D01*
X118623750Y-106373000D01*
X119873000Y-106373000D01*
X119873000Y-106353000D01*
X120127000Y-106353000D01*
X120127000Y-106373000D01*
X121376250Y-106373000D01*
X121535000Y-106214250D01*
X121538072Y-105600000D01*
X121525812Y-105475518D01*
X121489502Y-105355820D01*
X121430537Y-105245506D01*
X121351185Y-105148815D01*
X121344234Y-105143110D01*
X127933524Y-105143110D01*
X128054845Y-105373000D01*
X129373000Y-105373000D01*
X129373000Y-104173835D01*
X129627000Y-104173835D01*
X129627000Y-105373000D01*
X130945155Y-105373000D01*
X131066476Y-105143110D01*
X130974352Y-104880142D01*
X130827496Y-104628807D01*
X130634429Y-104410951D01*
X130402570Y-104234947D01*
X130140830Y-104107558D01*
X129859267Y-104033680D01*
X129627000Y-104173835D01*
X129373000Y-104173835D01*
X129140733Y-104033680D01*
X128859170Y-104107558D01*
X128597430Y-104234947D01*
X128365571Y-104410951D01*
X128172504Y-104628807D01*
X128025648Y-104880142D01*
X127933524Y-105143110D01*
X121344234Y-105143110D01*
X121254494Y-105069463D01*
X121144180Y-105010498D01*
X121125873Y-105004944D01*
X121192312Y-104938505D01*
X121360299Y-104687095D01*
X121476011Y-104407743D01*
X121535000Y-104111184D01*
X121535000Y-103808816D01*
X121476011Y-103512257D01*
X121360299Y-103232905D01*
X121192312Y-102981495D01*
X120978505Y-102767688D01*
X120727095Y-102599701D01*
X120447743Y-102483989D01*
X120151184Y-102425000D01*
X119848816Y-102425000D01*
X119552257Y-102483989D01*
X119272905Y-102599701D01*
X119021495Y-102767688D01*
X118807688Y-102981495D01*
X118639701Y-103232905D01*
X118523989Y-103512257D01*
X118465000Y-103808816D01*
X118465000Y-104111184D01*
X118523989Y-104407743D01*
X118639701Y-104687095D01*
X118807688Y-104938505D01*
X118874127Y-105004944D01*
X118855820Y-105010498D01*
X118745506Y-105069463D01*
X118648815Y-105148815D01*
X118569463Y-105245506D01*
X118510498Y-105355820D01*
X118474188Y-105475518D01*
X118461928Y-105600000D01*
X115372314Y-105600000D01*
X115377250Y-105580040D01*
X115389812Y-105307508D01*
X115348965Y-105037762D01*
X115256277Y-104781168D01*
X115195860Y-104668137D01*
X114956993Y-104602612D01*
X114179605Y-105380000D01*
X113820395Y-105380000D01*
X113043007Y-104602612D01*
X112804140Y-104668137D01*
X112688240Y-104915116D01*
X112622750Y-105179960D01*
X112610188Y-105452492D01*
X86160000Y-105452492D01*
X86160000Y-104423007D01*
X113222612Y-104423007D01*
X114000000Y-105200395D01*
X114777388Y-104423007D01*
X114711863Y-104184140D01*
X114464884Y-104068240D01*
X114200040Y-104002750D01*
X113927508Y-103990188D01*
X113657762Y-104031035D01*
X113401168Y-104123723D01*
X113288137Y-104184140D01*
X113222612Y-104423007D01*
X86160000Y-104423007D01*
X86160000Y-98779872D01*
X86765000Y-98779872D01*
X86765000Y-99220128D01*
X86850890Y-99651925D01*
X87019369Y-100058669D01*
X87263962Y-100424729D01*
X87575271Y-100736038D01*
X87941331Y-100980631D01*
X88348075Y-101149110D01*
X88779872Y-101235000D01*
X89220128Y-101235000D01*
X89651925Y-101149110D01*
X90058669Y-100980631D01*
X90424729Y-100736038D01*
X90736038Y-100424729D01*
X90980631Y-100058669D01*
X91149110Y-99651925D01*
X91235000Y-99220128D01*
X91235000Y-98838967D01*
X113865000Y-98838967D01*
X113865000Y-99161033D01*
X113927832Y-99476912D01*
X114051082Y-99774463D01*
X114230013Y-100042252D01*
X114457748Y-100269987D01*
X114725537Y-100448918D01*
X115023088Y-100572168D01*
X115338967Y-100635000D01*
X115661033Y-100635000D01*
X115976912Y-100572168D01*
X116274463Y-100448918D01*
X116542252Y-100269987D01*
X116769987Y-100042252D01*
X116948918Y-99774463D01*
X117072168Y-99476912D01*
X117135000Y-99161033D01*
X117135000Y-98838967D01*
X122865000Y-98838967D01*
X122865000Y-99161033D01*
X122927832Y-99476912D01*
X123051082Y-99774463D01*
X123230013Y-100042252D01*
X123457748Y-100269987D01*
X123725537Y-100448918D01*
X124023088Y-100572168D01*
X124338967Y-100635000D01*
X124661033Y-100635000D01*
X124976912Y-100572168D01*
X125274463Y-100448918D01*
X125542252Y-100269987D01*
X125769987Y-100042252D01*
X125948918Y-99774463D01*
X126072168Y-99476912D01*
X126135000Y-99161033D01*
X126135000Y-98838967D01*
X126123246Y-98779872D01*
X128265000Y-98779872D01*
X128265000Y-99220128D01*
X128350890Y-99651925D01*
X128519369Y-100058669D01*
X128763962Y-100424729D01*
X129075271Y-100736038D01*
X129441331Y-100980631D01*
X129848075Y-101149110D01*
X130279872Y-101235000D01*
X130720128Y-101235000D01*
X131151925Y-101149110D01*
X131558669Y-100980631D01*
X131924729Y-100736038D01*
X132236038Y-100424729D01*
X132480631Y-100058669D01*
X132649110Y-99651925D01*
X132735000Y-99220128D01*
X132735000Y-98779872D01*
X132649110Y-98348075D01*
X132480631Y-97941331D01*
X132236038Y-97575271D01*
X131924729Y-97263962D01*
X131558669Y-97019369D01*
X131151925Y-96850890D01*
X130720128Y-96765000D01*
X130279872Y-96765000D01*
X129848075Y-96850890D01*
X129441331Y-97019369D01*
X129075271Y-97263962D01*
X128763962Y-97575271D01*
X128519369Y-97941331D01*
X128350890Y-98348075D01*
X128265000Y-98779872D01*
X126123246Y-98779872D01*
X126072168Y-98523088D01*
X125948918Y-98225537D01*
X125769987Y-97957748D01*
X125542252Y-97730013D01*
X125274463Y-97551082D01*
X124976912Y-97427832D01*
X124661033Y-97365000D01*
X124338967Y-97365000D01*
X124023088Y-97427832D01*
X123725537Y-97551082D01*
X123457748Y-97730013D01*
X123230013Y-97957748D01*
X123051082Y-98225537D01*
X122927832Y-98523088D01*
X122865000Y-98838967D01*
X117135000Y-98838967D01*
X117072168Y-98523088D01*
X116948918Y-98225537D01*
X116769987Y-97957748D01*
X116542252Y-97730013D01*
X116274463Y-97551082D01*
X115976912Y-97427832D01*
X115661033Y-97365000D01*
X115338967Y-97365000D01*
X115023088Y-97427832D01*
X114725537Y-97551082D01*
X114457748Y-97730013D01*
X114230013Y-97957748D01*
X114051082Y-98225537D01*
X113927832Y-98523088D01*
X113865000Y-98838967D01*
X91235000Y-98838967D01*
X91235000Y-98779872D01*
X91149110Y-98348075D01*
X90980631Y-97941331D01*
X90736038Y-97575271D01*
X90424729Y-97263962D01*
X90058669Y-97019369D01*
X89651925Y-96850890D01*
X89220128Y-96765000D01*
X88779872Y-96765000D01*
X88348075Y-96850890D01*
X87941331Y-97019369D01*
X87575271Y-97263962D01*
X87263962Y-97575271D01*
X87019369Y-97941331D01*
X86850890Y-98348075D01*
X86765000Y-98779872D01*
X86160000Y-98779872D01*
X86160000Y-96160000D01*
X133340000Y-96160000D01*
X133340001Y-122340000D01*
G37*
G04 #@! TD.AperFunction*
M02*
