G04 #@! TF.GenerationSoftware,KiCad,Pcbnew,5.1.10-88a1d61d58~90~ubuntu20.04.1*
G04 #@! TF.CreationDate,2022-01-16T21:05:33+00:00*
G04 #@! TF.ProjectId,hum_temp_sensor,68756d5f-7465-46d7-905f-73656e736f72,rev?*
G04 #@! TF.SameCoordinates,Original*
G04 #@! TF.FileFunction,Legend,Top*
G04 #@! TF.FilePolarity,Positive*
%FSLAX46Y46*%
G04 Gerber Fmt 4.6, Leading zero omitted, Abs format (unit mm)*
G04 Created by KiCad (PCBNEW 5.1.10-88a1d61d58~90~ubuntu20.04.1) date 2022-01-16 21:05:33*
%MOMM*%
%LPD*%
G01*
G04 APERTURE LIST*
%ADD10C,0.100000*%
%ADD11C,0.150000*%
%ADD12C,0.120000*%
%ADD13C,0.010000*%
G04 APERTURE END LIST*
D10*
X90127142Y-108991785D02*
X90127142Y-108241785D01*
X90127142Y-108527500D02*
X90198571Y-108491785D01*
X90341428Y-108491785D01*
X90412857Y-108527500D01*
X90448571Y-108563214D01*
X90484285Y-108634642D01*
X90484285Y-108848928D01*
X90448571Y-108920357D01*
X90412857Y-108956071D01*
X90341428Y-108991785D01*
X90198571Y-108991785D01*
X90127142Y-108956071D01*
X90912857Y-108991785D02*
X90841428Y-108956071D01*
X90805714Y-108920357D01*
X90770000Y-108848928D01*
X90770000Y-108634642D01*
X90805714Y-108563214D01*
X90841428Y-108527500D01*
X90912857Y-108491785D01*
X91020000Y-108491785D01*
X91091428Y-108527500D01*
X91127142Y-108563214D01*
X91162857Y-108634642D01*
X91162857Y-108848928D01*
X91127142Y-108920357D01*
X91091428Y-108956071D01*
X91020000Y-108991785D01*
X90912857Y-108991785D01*
X91805714Y-108991785D02*
X91805714Y-108598928D01*
X91770000Y-108527500D01*
X91698571Y-108491785D01*
X91555714Y-108491785D01*
X91484285Y-108527500D01*
X91805714Y-108956071D02*
X91734285Y-108991785D01*
X91555714Y-108991785D01*
X91484285Y-108956071D01*
X91448571Y-108884642D01*
X91448571Y-108813214D01*
X91484285Y-108741785D01*
X91555714Y-108706071D01*
X91734285Y-108706071D01*
X91805714Y-108670357D01*
X92162857Y-108991785D02*
X92162857Y-108491785D01*
X92162857Y-108634642D02*
X92198571Y-108563214D01*
X92234285Y-108527500D01*
X92305714Y-108491785D01*
X92377142Y-108491785D01*
X92948571Y-108991785D02*
X92948571Y-108241785D01*
X92948571Y-108956071D02*
X92877142Y-108991785D01*
X92734285Y-108991785D01*
X92662857Y-108956071D01*
X92627142Y-108920357D01*
X92591428Y-108848928D01*
X92591428Y-108634642D01*
X92627142Y-108563214D01*
X92662857Y-108527500D01*
X92734285Y-108491785D01*
X92877142Y-108491785D01*
X92948571Y-108527500D01*
X93877142Y-108991785D02*
X93877142Y-108241785D01*
X93877142Y-108527500D02*
X93948571Y-108491785D01*
X94091428Y-108491785D01*
X94162857Y-108527500D01*
X94198571Y-108563214D01*
X94234285Y-108634642D01*
X94234285Y-108848928D01*
X94198571Y-108920357D01*
X94162857Y-108956071D01*
X94091428Y-108991785D01*
X93948571Y-108991785D01*
X93877142Y-108956071D01*
X94484285Y-108491785D02*
X94662857Y-108991785D01*
X94841428Y-108491785D02*
X94662857Y-108991785D01*
X94591428Y-109170357D01*
X94555714Y-109206071D01*
X94484285Y-109241785D01*
X95698571Y-108991785D02*
X95698571Y-108241785D01*
X96055714Y-108991785D02*
X96055714Y-108241785D01*
X96377142Y-108991785D02*
X96377142Y-108598928D01*
X96341428Y-108527500D01*
X96270000Y-108491785D01*
X96162857Y-108491785D01*
X96091428Y-108527500D01*
X96055714Y-108563214D01*
X96841428Y-108991785D02*
X96770000Y-108956071D01*
X96734285Y-108920357D01*
X96698571Y-108848928D01*
X96698571Y-108634642D01*
X96734285Y-108563214D01*
X96770000Y-108527500D01*
X96841428Y-108491785D01*
X96948571Y-108491785D01*
X97020000Y-108527500D01*
X97055714Y-108563214D01*
X97091428Y-108634642D01*
X97091428Y-108848928D01*
X97055714Y-108920357D01*
X97020000Y-108956071D01*
X96948571Y-108991785D01*
X96841428Y-108991785D01*
X97412857Y-108991785D02*
X97412857Y-108491785D01*
X97412857Y-108634642D02*
X97448571Y-108563214D01*
X97484285Y-108527500D01*
X97555714Y-108491785D01*
X97627142Y-108491785D01*
X98412857Y-108956071D02*
X98520000Y-108991785D01*
X98698571Y-108991785D01*
X98770000Y-108956071D01*
X98805714Y-108920357D01*
X98841428Y-108848928D01*
X98841428Y-108777500D01*
X98805714Y-108706071D01*
X98770000Y-108670357D01*
X98698571Y-108634642D01*
X98555714Y-108598928D01*
X98484285Y-108563214D01*
X98448571Y-108527500D01*
X98412857Y-108456071D01*
X98412857Y-108384642D01*
X98448571Y-108313214D01*
X98484285Y-108277500D01*
X98555714Y-108241785D01*
X98734285Y-108241785D01*
X98841428Y-108277500D01*
X99270000Y-108991785D02*
X99198571Y-108956071D01*
X99162857Y-108920357D01*
X99127142Y-108848928D01*
X99127142Y-108634642D01*
X99162857Y-108563214D01*
X99198571Y-108527500D01*
X99270000Y-108491785D01*
X99377142Y-108491785D01*
X99448571Y-108527500D01*
X99484285Y-108563214D01*
X99520000Y-108634642D01*
X99520000Y-108848928D01*
X99484285Y-108920357D01*
X99448571Y-108956071D01*
X99377142Y-108991785D01*
X99270000Y-108991785D01*
X99841428Y-108991785D02*
X99841428Y-108241785D01*
X99841428Y-108527500D02*
X99912857Y-108491785D01*
X100055714Y-108491785D01*
X100127142Y-108527500D01*
X100162857Y-108563214D01*
X100198571Y-108634642D01*
X100198571Y-108848928D01*
X100162857Y-108920357D01*
X100127142Y-108956071D01*
X100055714Y-108991785D01*
X99912857Y-108991785D01*
X99841428Y-108956071D01*
X100520000Y-108991785D02*
X100520000Y-108491785D01*
X100520000Y-108241785D02*
X100484285Y-108277500D01*
X100520000Y-108313214D01*
X100555714Y-108277500D01*
X100520000Y-108241785D01*
X100520000Y-108313214D01*
X101198571Y-108991785D02*
X101198571Y-108598928D01*
X101162857Y-108527500D01*
X101091428Y-108491785D01*
X100948571Y-108491785D01*
X100877142Y-108527500D01*
X101198571Y-108956071D02*
X101127142Y-108991785D01*
X100948571Y-108991785D01*
X100877142Y-108956071D01*
X100841428Y-108884642D01*
X100841428Y-108813214D01*
X100877142Y-108741785D01*
X100948571Y-108706071D01*
X101127142Y-108706071D01*
X101198571Y-108670357D01*
X101555714Y-108491785D02*
X101555714Y-108991785D01*
X101555714Y-108563214D02*
X101591428Y-108527500D01*
X101662857Y-108491785D01*
X101770000Y-108491785D01*
X101841428Y-108527500D01*
X101877142Y-108598928D01*
X101877142Y-108991785D01*
X102234285Y-108991785D02*
X102234285Y-108491785D01*
X102234285Y-108241785D02*
X102198571Y-108277500D01*
X102234285Y-108313214D01*
X102270000Y-108277500D01*
X102234285Y-108241785D01*
X102234285Y-108313214D01*
X102591428Y-108491785D02*
X102591428Y-108991785D01*
X102591428Y-108563214D02*
X102627142Y-108527500D01*
X102698571Y-108491785D01*
X102805714Y-108491785D01*
X102877142Y-108527500D01*
X102912857Y-108598928D01*
X102912857Y-108991785D01*
X92627142Y-110216785D02*
X92555714Y-110181071D01*
X92520000Y-110109642D01*
X92520000Y-109466785D01*
X92912857Y-110216785D02*
X92912857Y-109716785D01*
X92912857Y-109466785D02*
X92877142Y-109502500D01*
X92912857Y-109538214D01*
X92948571Y-109502500D01*
X92912857Y-109466785D01*
X92912857Y-109538214D01*
X93591428Y-110181071D02*
X93520000Y-110216785D01*
X93377142Y-110216785D01*
X93305714Y-110181071D01*
X93270000Y-110145357D01*
X93234285Y-110073928D01*
X93234285Y-109859642D01*
X93270000Y-109788214D01*
X93305714Y-109752500D01*
X93377142Y-109716785D01*
X93520000Y-109716785D01*
X93591428Y-109752500D01*
X94198571Y-110181071D02*
X94127142Y-110216785D01*
X93984285Y-110216785D01*
X93912857Y-110181071D01*
X93877142Y-110109642D01*
X93877142Y-109823928D01*
X93912857Y-109752500D01*
X93984285Y-109716785D01*
X94127142Y-109716785D01*
X94198571Y-109752500D01*
X94234285Y-109823928D01*
X94234285Y-109895357D01*
X93877142Y-109966785D01*
X94555714Y-109716785D02*
X94555714Y-110216785D01*
X94555714Y-109788214D02*
X94591428Y-109752500D01*
X94662857Y-109716785D01*
X94770000Y-109716785D01*
X94841428Y-109752500D01*
X94877142Y-109823928D01*
X94877142Y-110216785D01*
X95198571Y-110181071D02*
X95270000Y-110216785D01*
X95412857Y-110216785D01*
X95484285Y-110181071D01*
X95520000Y-110109642D01*
X95520000Y-110073928D01*
X95484285Y-110002500D01*
X95412857Y-109966785D01*
X95305714Y-109966785D01*
X95234285Y-109931071D01*
X95198571Y-109859642D01*
X95198571Y-109823928D01*
X95234285Y-109752500D01*
X95305714Y-109716785D01*
X95412857Y-109716785D01*
X95484285Y-109752500D01*
X96127142Y-110181071D02*
X96055714Y-110216785D01*
X95912857Y-110216785D01*
X95841428Y-110181071D01*
X95805714Y-110109642D01*
X95805714Y-109823928D01*
X95841428Y-109752500D01*
X95912857Y-109716785D01*
X96055714Y-109716785D01*
X96127142Y-109752500D01*
X96162857Y-109823928D01*
X96162857Y-109895357D01*
X95805714Y-109966785D01*
X96805714Y-110216785D02*
X96805714Y-109466785D01*
X96805714Y-110181071D02*
X96734285Y-110216785D01*
X96591428Y-110216785D01*
X96520000Y-110181071D01*
X96484285Y-110145357D01*
X96448571Y-110073928D01*
X96448571Y-109859642D01*
X96484285Y-109788214D01*
X96520000Y-109752500D01*
X96591428Y-109716785D01*
X96734285Y-109716785D01*
X96805714Y-109752500D01*
X98055714Y-109716785D02*
X98055714Y-110216785D01*
X97734285Y-109716785D02*
X97734285Y-110109642D01*
X97770000Y-110181071D01*
X97841428Y-110216785D01*
X97948571Y-110216785D01*
X98020000Y-110181071D01*
X98055714Y-110145357D01*
X98412857Y-109716785D02*
X98412857Y-110216785D01*
X98412857Y-109788214D02*
X98448571Y-109752500D01*
X98520000Y-109716785D01*
X98627142Y-109716785D01*
X98698571Y-109752500D01*
X98734285Y-109823928D01*
X98734285Y-110216785D01*
X99412857Y-110216785D02*
X99412857Y-109466785D01*
X99412857Y-110181071D02*
X99341428Y-110216785D01*
X99198571Y-110216785D01*
X99127142Y-110181071D01*
X99091428Y-110145357D01*
X99055714Y-110073928D01*
X99055714Y-109859642D01*
X99091428Y-109788214D01*
X99127142Y-109752500D01*
X99198571Y-109716785D01*
X99341428Y-109716785D01*
X99412857Y-109752500D01*
X100055714Y-110181071D02*
X99984285Y-110216785D01*
X99841428Y-110216785D01*
X99770000Y-110181071D01*
X99734285Y-110109642D01*
X99734285Y-109823928D01*
X99770000Y-109752500D01*
X99841428Y-109716785D01*
X99984285Y-109716785D01*
X100055714Y-109752500D01*
X100091428Y-109823928D01*
X100091428Y-109895357D01*
X99734285Y-109966785D01*
X100412857Y-110216785D02*
X100412857Y-109716785D01*
X100412857Y-109859642D02*
X100448571Y-109788214D01*
X100484285Y-109752500D01*
X100555714Y-109716785D01*
X100627142Y-109716785D01*
X92020000Y-111370357D02*
X91984285Y-111406071D01*
X91877142Y-111441785D01*
X91805714Y-111441785D01*
X91698571Y-111406071D01*
X91627142Y-111334642D01*
X91591428Y-111263214D01*
X91555714Y-111120357D01*
X91555714Y-111013214D01*
X91591428Y-110870357D01*
X91627142Y-110798928D01*
X91698571Y-110727500D01*
X91805714Y-110691785D01*
X91877142Y-110691785D01*
X91984285Y-110727500D01*
X92020000Y-110763214D01*
X92341428Y-111048928D02*
X92591428Y-111048928D01*
X92698571Y-111441785D02*
X92341428Y-111441785D01*
X92341428Y-110691785D01*
X92698571Y-110691785D01*
X93448571Y-111441785D02*
X93198571Y-111084642D01*
X93020000Y-111441785D02*
X93020000Y-110691785D01*
X93305714Y-110691785D01*
X93377142Y-110727500D01*
X93412857Y-110763214D01*
X93448571Y-110834642D01*
X93448571Y-110941785D01*
X93412857Y-111013214D01*
X93377142Y-111048928D01*
X93305714Y-111084642D01*
X93020000Y-111084642D01*
X93770000Y-111441785D02*
X93770000Y-110691785D01*
X94198571Y-111441785D01*
X94198571Y-110691785D01*
X94555714Y-111156071D02*
X95127142Y-111156071D01*
X95627142Y-110691785D02*
X95770000Y-110691785D01*
X95841428Y-110727500D01*
X95912857Y-110798928D01*
X95948571Y-110941785D01*
X95948571Y-111191785D01*
X95912857Y-111334642D01*
X95841428Y-111406071D01*
X95770000Y-111441785D01*
X95627142Y-111441785D01*
X95555714Y-111406071D01*
X95484285Y-111334642D01*
X95448571Y-111191785D01*
X95448571Y-110941785D01*
X95484285Y-110798928D01*
X95555714Y-110727500D01*
X95627142Y-110691785D01*
X96270000Y-111441785D02*
X96270000Y-110691785D01*
X96270000Y-111048928D02*
X96698571Y-111048928D01*
X96698571Y-111441785D02*
X96698571Y-110691785D01*
X97412857Y-111441785D02*
X97055714Y-111441785D01*
X97055714Y-110691785D01*
X97662857Y-111156071D02*
X98234285Y-111156071D01*
X98520000Y-110691785D02*
X98698571Y-111441785D01*
X98841428Y-110906071D01*
X98984285Y-111441785D01*
X99162857Y-110691785D01*
X99984285Y-110763214D02*
X100020000Y-110727500D01*
X100091428Y-110691785D01*
X100270000Y-110691785D01*
X100341428Y-110727500D01*
X100377142Y-110763214D01*
X100412857Y-110834642D01*
X100412857Y-110906071D01*
X100377142Y-111013214D01*
X99948571Y-111441785D01*
X100412857Y-111441785D01*
X100734285Y-111370357D02*
X100770000Y-111406071D01*
X100734285Y-111441785D01*
X100698571Y-111406071D01*
X100734285Y-111370357D01*
X100734285Y-111441785D01*
X101234285Y-110691785D02*
X101305714Y-110691785D01*
X101377142Y-110727500D01*
X101412857Y-110763214D01*
X101448571Y-110834642D01*
X101484285Y-110977500D01*
X101484285Y-111156071D01*
X101448571Y-111298928D01*
X101412857Y-111370357D01*
X101377142Y-111406071D01*
X101305714Y-111441785D01*
X101234285Y-111441785D01*
X101162857Y-111406071D01*
X101127142Y-111370357D01*
X101091428Y-111298928D01*
X101055714Y-111156071D01*
X101055714Y-110977500D01*
X101091428Y-110834642D01*
X101127142Y-110763214D01*
X101162857Y-110727500D01*
X101234285Y-110691785D01*
X87109285Y-112666785D02*
X87109285Y-111916785D01*
X87430714Y-112666785D02*
X87430714Y-112273928D01*
X87395000Y-112202500D01*
X87323571Y-112166785D01*
X87216428Y-112166785D01*
X87145000Y-112202500D01*
X87109285Y-112238214D01*
X87680714Y-112166785D02*
X87966428Y-112166785D01*
X87787857Y-111916785D02*
X87787857Y-112559642D01*
X87823571Y-112631071D01*
X87895000Y-112666785D01*
X87966428Y-112666785D01*
X88109285Y-112166785D02*
X88395000Y-112166785D01*
X88216428Y-111916785D02*
X88216428Y-112559642D01*
X88252142Y-112631071D01*
X88323571Y-112666785D01*
X88395000Y-112666785D01*
X88645000Y-112166785D02*
X88645000Y-112916785D01*
X88645000Y-112202500D02*
X88716428Y-112166785D01*
X88859285Y-112166785D01*
X88930714Y-112202500D01*
X88966428Y-112238214D01*
X89002142Y-112309642D01*
X89002142Y-112523928D01*
X88966428Y-112595357D01*
X88930714Y-112631071D01*
X88859285Y-112666785D01*
X88716428Y-112666785D01*
X88645000Y-112631071D01*
X89287857Y-112631071D02*
X89359285Y-112666785D01*
X89502142Y-112666785D01*
X89573571Y-112631071D01*
X89609285Y-112559642D01*
X89609285Y-112523928D01*
X89573571Y-112452500D01*
X89502142Y-112416785D01*
X89395000Y-112416785D01*
X89323571Y-112381071D01*
X89287857Y-112309642D01*
X89287857Y-112273928D01*
X89323571Y-112202500D01*
X89395000Y-112166785D01*
X89502142Y-112166785D01*
X89573571Y-112202500D01*
X89930714Y-112595357D02*
X89966428Y-112631071D01*
X89930714Y-112666785D01*
X89895000Y-112631071D01*
X89930714Y-112595357D01*
X89930714Y-112666785D01*
X89930714Y-112202500D02*
X89966428Y-112238214D01*
X89930714Y-112273928D01*
X89895000Y-112238214D01*
X89930714Y-112202500D01*
X89930714Y-112273928D01*
X90823571Y-111881071D02*
X90180714Y-112845357D01*
X91609285Y-111881071D02*
X90966428Y-112845357D01*
X91966428Y-112666785D02*
X91895000Y-112631071D01*
X91859285Y-112595357D01*
X91823571Y-112523928D01*
X91823571Y-112309642D01*
X91859285Y-112238214D01*
X91895000Y-112202500D01*
X91966428Y-112166785D01*
X92073571Y-112166785D01*
X92145000Y-112202500D01*
X92180714Y-112238214D01*
X92216428Y-112309642D01*
X92216428Y-112523928D01*
X92180714Y-112595357D01*
X92145000Y-112631071D01*
X92073571Y-112666785D01*
X91966428Y-112666785D01*
X92537857Y-112666785D02*
X92537857Y-111916785D01*
X92859285Y-112666785D02*
X92859285Y-112273928D01*
X92823571Y-112202500D01*
X92752142Y-112166785D01*
X92645000Y-112166785D01*
X92573571Y-112202500D01*
X92537857Y-112238214D01*
X93145000Y-112166785D02*
X93287857Y-112666785D01*
X93430714Y-112309642D01*
X93573571Y-112666785D01*
X93716428Y-112166785D01*
X94002142Y-112666785D02*
X94002142Y-112166785D01*
X94002142Y-112309642D02*
X94037857Y-112238214D01*
X94073571Y-112202500D01*
X94145000Y-112166785D01*
X94216428Y-112166785D01*
X94466428Y-112595357D02*
X94502142Y-112631071D01*
X94466428Y-112666785D01*
X94430714Y-112631071D01*
X94466428Y-112595357D01*
X94466428Y-112666785D01*
X94930714Y-112666785D02*
X94859285Y-112631071D01*
X94823571Y-112595357D01*
X94787857Y-112523928D01*
X94787857Y-112309642D01*
X94823571Y-112238214D01*
X94859285Y-112202500D01*
X94930714Y-112166785D01*
X95037857Y-112166785D01*
X95109285Y-112202500D01*
X95145000Y-112238214D01*
X95180714Y-112309642D01*
X95180714Y-112523928D01*
X95145000Y-112595357D01*
X95109285Y-112631071D01*
X95037857Y-112666785D01*
X94930714Y-112666785D01*
X95502142Y-112666785D02*
X95502142Y-112166785D01*
X95502142Y-112309642D02*
X95537857Y-112238214D01*
X95573571Y-112202500D01*
X95645000Y-112166785D01*
X95716428Y-112166785D01*
X96287857Y-112166785D02*
X96287857Y-112773928D01*
X96252142Y-112845357D01*
X96216428Y-112881071D01*
X96145000Y-112916785D01*
X96037857Y-112916785D01*
X95966428Y-112881071D01*
X96287857Y-112631071D02*
X96216428Y-112666785D01*
X96073571Y-112666785D01*
X96002142Y-112631071D01*
X95966428Y-112595357D01*
X95930714Y-112523928D01*
X95930714Y-112309642D01*
X95966428Y-112238214D01*
X96002142Y-112202500D01*
X96073571Y-112166785D01*
X96216428Y-112166785D01*
X96287857Y-112202500D01*
X97180714Y-111881071D02*
X96537857Y-112845357D01*
X97430714Y-112166785D02*
X97430714Y-112916785D01*
X97430714Y-112202500D02*
X97502142Y-112166785D01*
X97645000Y-112166785D01*
X97716428Y-112202500D01*
X97752142Y-112238214D01*
X97787857Y-112309642D01*
X97787857Y-112523928D01*
X97752142Y-112595357D01*
X97716428Y-112631071D01*
X97645000Y-112666785D01*
X97502142Y-112666785D01*
X97430714Y-112631071D01*
X98109285Y-112666785D02*
X98109285Y-112166785D01*
X98109285Y-112309642D02*
X98145000Y-112238214D01*
X98180714Y-112202500D01*
X98252142Y-112166785D01*
X98323571Y-112166785D01*
X98680714Y-112666785D02*
X98609285Y-112631071D01*
X98573571Y-112595357D01*
X98537857Y-112523928D01*
X98537857Y-112309642D01*
X98573571Y-112238214D01*
X98609285Y-112202500D01*
X98680714Y-112166785D01*
X98787857Y-112166785D01*
X98859285Y-112202500D01*
X98895000Y-112238214D01*
X98930714Y-112309642D01*
X98930714Y-112523928D01*
X98895000Y-112595357D01*
X98859285Y-112631071D01*
X98787857Y-112666785D01*
X98680714Y-112666785D01*
X99252142Y-112166785D02*
X99252142Y-112809642D01*
X99216428Y-112881071D01*
X99145000Y-112916785D01*
X99109285Y-112916785D01*
X99252142Y-111916785D02*
X99216428Y-111952500D01*
X99252142Y-111988214D01*
X99287857Y-111952500D01*
X99252142Y-111916785D01*
X99252142Y-111988214D01*
X99895000Y-112631071D02*
X99823571Y-112666785D01*
X99680714Y-112666785D01*
X99609285Y-112631071D01*
X99573571Y-112559642D01*
X99573571Y-112273928D01*
X99609285Y-112202500D01*
X99680714Y-112166785D01*
X99823571Y-112166785D01*
X99895000Y-112202500D01*
X99930714Y-112273928D01*
X99930714Y-112345357D01*
X99573571Y-112416785D01*
X100573571Y-112631071D02*
X100502142Y-112666785D01*
X100359285Y-112666785D01*
X100287857Y-112631071D01*
X100252142Y-112595357D01*
X100216428Y-112523928D01*
X100216428Y-112309642D01*
X100252142Y-112238214D01*
X100287857Y-112202500D01*
X100359285Y-112166785D01*
X100502142Y-112166785D01*
X100573571Y-112202500D01*
X100787857Y-112166785D02*
X101073571Y-112166785D01*
X100895000Y-111916785D02*
X100895000Y-112559642D01*
X100930714Y-112631071D01*
X101002142Y-112666785D01*
X101073571Y-112666785D01*
X101859285Y-111881071D02*
X101216428Y-112845357D01*
X102430714Y-112631071D02*
X102359285Y-112666785D01*
X102216428Y-112666785D01*
X102145000Y-112631071D01*
X102109285Y-112595357D01*
X102073571Y-112523928D01*
X102073571Y-112309642D01*
X102109285Y-112238214D01*
X102145000Y-112202500D01*
X102216428Y-112166785D01*
X102359285Y-112166785D01*
X102430714Y-112202500D01*
X103037857Y-112631071D02*
X102966428Y-112666785D01*
X102823571Y-112666785D01*
X102752142Y-112631071D01*
X102716428Y-112559642D01*
X102716428Y-112273928D01*
X102752142Y-112202500D01*
X102823571Y-112166785D01*
X102966428Y-112166785D01*
X103037857Y-112202500D01*
X103073571Y-112273928D01*
X103073571Y-112345357D01*
X102716428Y-112416785D01*
X103395000Y-112666785D02*
X103395000Y-112166785D01*
X103395000Y-112309642D02*
X103430714Y-112238214D01*
X103466428Y-112202500D01*
X103537857Y-112166785D01*
X103609285Y-112166785D01*
X103859285Y-112166785D02*
X103859285Y-112666785D01*
X103859285Y-112238214D02*
X103895000Y-112202500D01*
X103966428Y-112166785D01*
X104073571Y-112166785D01*
X104145000Y-112202500D01*
X104180714Y-112273928D01*
X104180714Y-112666785D01*
X104645000Y-112666785D02*
X104573571Y-112631071D01*
X104537857Y-112595357D01*
X104502142Y-112523928D01*
X104502142Y-112309642D01*
X104537857Y-112238214D01*
X104573571Y-112202500D01*
X104645000Y-112166785D01*
X104752142Y-112166785D01*
X104823571Y-112202500D01*
X104859285Y-112238214D01*
X104895000Y-112309642D01*
X104895000Y-112523928D01*
X104859285Y-112595357D01*
X104823571Y-112631071D01*
X104752142Y-112666785D01*
X104645000Y-112666785D01*
X105216428Y-112666785D02*
X105216428Y-111916785D01*
X105537857Y-112666785D02*
X105537857Y-112273928D01*
X105502142Y-112202500D01*
X105430714Y-112166785D01*
X105323571Y-112166785D01*
X105252142Y-112202500D01*
X105216428Y-112238214D01*
X106002142Y-112666785D02*
X105930714Y-112631071D01*
X105895000Y-112559642D01*
X105895000Y-111916785D01*
D11*
X106802380Y-111119047D02*
X105802380Y-111119047D01*
X105802380Y-110880952D01*
X105850000Y-110738095D01*
X105945238Y-110642857D01*
X106040476Y-110595238D01*
X106230952Y-110547619D01*
X106373809Y-110547619D01*
X106564285Y-110595238D01*
X106659523Y-110642857D01*
X106754761Y-110738095D01*
X106802380Y-110880952D01*
X106802380Y-111119047D01*
X106802380Y-110119047D02*
X105802380Y-110119047D01*
X106278571Y-110119047D02*
X106278571Y-109547619D01*
X106802380Y-109547619D02*
X105802380Y-109547619D01*
X105802380Y-109214285D02*
X105802380Y-108642857D01*
X106802380Y-108928571D02*
X105802380Y-108928571D01*
X106802380Y-107785714D02*
X106802380Y-108357142D01*
X106802380Y-108071428D02*
X105802380Y-108071428D01*
X105945238Y-108166666D01*
X106040476Y-108261904D01*
X106088095Y-108357142D01*
X106802380Y-106833333D02*
X106802380Y-107404761D01*
X106802380Y-107119047D02*
X105802380Y-107119047D01*
X105945238Y-107214285D01*
X106040476Y-107309523D01*
X106088095Y-107404761D01*
X108452380Y-109380952D02*
X108404761Y-109476190D01*
X108357142Y-109523809D01*
X108261904Y-109571428D01*
X107976190Y-109571428D01*
X107880952Y-109523809D01*
X107833333Y-109476190D01*
X107785714Y-109380952D01*
X107785714Y-109238095D01*
X107833333Y-109142857D01*
X107880952Y-109095238D01*
X107976190Y-109047619D01*
X108261904Y-109047619D01*
X108357142Y-109095238D01*
X108404761Y-109142857D01*
X108452380Y-109238095D01*
X108452380Y-109380952D01*
X108452380Y-108619047D02*
X107785714Y-108619047D01*
X107976190Y-108619047D02*
X107880952Y-108571428D01*
X107833333Y-108523809D01*
X107785714Y-108428571D01*
X107785714Y-108333333D01*
X110102380Y-111119047D02*
X109102380Y-111119047D01*
X109102380Y-110880952D01*
X109150000Y-110738095D01*
X109245238Y-110642857D01*
X109340476Y-110595238D01*
X109530952Y-110547619D01*
X109673809Y-110547619D01*
X109864285Y-110595238D01*
X109959523Y-110642857D01*
X110054761Y-110738095D01*
X110102380Y-110880952D01*
X110102380Y-111119047D01*
X110102380Y-110119047D02*
X109102380Y-110119047D01*
X109578571Y-110119047D02*
X109578571Y-109547619D01*
X110102380Y-109547619D02*
X109102380Y-109547619D01*
X109102380Y-109214285D02*
X109102380Y-108642857D01*
X110102380Y-108928571D02*
X109102380Y-108928571D01*
X109197619Y-108357142D02*
X109150000Y-108309523D01*
X109102380Y-108214285D01*
X109102380Y-107976190D01*
X109150000Y-107880952D01*
X109197619Y-107833333D01*
X109292857Y-107785714D01*
X109388095Y-107785714D01*
X109530952Y-107833333D01*
X110102380Y-108404761D01*
X110102380Y-107785714D01*
X109197619Y-107404761D02*
X109150000Y-107357142D01*
X109102380Y-107261904D01*
X109102380Y-107023809D01*
X109150000Y-106928571D01*
X109197619Y-106880952D01*
X109292857Y-106833333D01*
X109388095Y-106833333D01*
X109530952Y-106880952D01*
X110102380Y-107452380D01*
X110102380Y-106833333D01*
X93119047Y-98627380D02*
X93119047Y-97627380D01*
X93119047Y-98103571D02*
X93690476Y-98103571D01*
X93690476Y-98627380D02*
X93690476Y-97627380D01*
X94595238Y-97960714D02*
X94595238Y-98627380D01*
X94166666Y-97960714D02*
X94166666Y-98484523D01*
X94214285Y-98579761D01*
X94309523Y-98627380D01*
X94452380Y-98627380D01*
X94547619Y-98579761D01*
X94595238Y-98532142D01*
X95071428Y-98627380D02*
X95071428Y-97960714D01*
X95071428Y-98055952D02*
X95119047Y-98008333D01*
X95214285Y-97960714D01*
X95357142Y-97960714D01*
X95452380Y-98008333D01*
X95499999Y-98103571D01*
X95499999Y-98627380D01*
X95499999Y-98103571D02*
X95547619Y-98008333D01*
X95642857Y-97960714D01*
X95785714Y-97960714D01*
X95880952Y-98008333D01*
X95928571Y-98103571D01*
X95928571Y-98627380D01*
X96404761Y-98627380D02*
X96404761Y-97960714D01*
X96404761Y-97627380D02*
X96357142Y-97675000D01*
X96404761Y-97722619D01*
X96452380Y-97675000D01*
X96404761Y-97627380D01*
X96404761Y-97722619D01*
X97309523Y-98627380D02*
X97309523Y-97627380D01*
X97309523Y-98579761D02*
X97214285Y-98627380D01*
X97023809Y-98627380D01*
X96928571Y-98579761D01*
X96880952Y-98532142D01*
X96833333Y-98436904D01*
X96833333Y-98151190D01*
X96880952Y-98055952D01*
X96928571Y-98008333D01*
X97023809Y-97960714D01*
X97214285Y-97960714D01*
X97309523Y-98008333D01*
X97785714Y-98627380D02*
X97785714Y-97960714D01*
X97785714Y-97627380D02*
X97738095Y-97675000D01*
X97785714Y-97722619D01*
X97833333Y-97675000D01*
X97785714Y-97627380D01*
X97785714Y-97722619D01*
X98119047Y-97960714D02*
X98499999Y-97960714D01*
X98261904Y-97627380D02*
X98261904Y-98484523D01*
X98309523Y-98579761D01*
X98404761Y-98627380D01*
X98499999Y-98627380D01*
X98738095Y-97960714D02*
X98976190Y-98627380D01*
X99214285Y-97960714D02*
X98976190Y-98627380D01*
X98880952Y-98865476D01*
X98833333Y-98913095D01*
X98738095Y-98960714D01*
X101166666Y-98627380D02*
X101119047Y-98627380D01*
X101023809Y-98579761D01*
X100880952Y-98436904D01*
X100642857Y-98151190D01*
X100547619Y-98008333D01*
X100499999Y-97865476D01*
X100499999Y-97770238D01*
X100547619Y-97675000D01*
X100642857Y-97627380D01*
X100690476Y-97627380D01*
X100785714Y-97675000D01*
X100833333Y-97770238D01*
X100833333Y-97817857D01*
X100785714Y-97913095D01*
X100738095Y-97960714D01*
X100452380Y-98151190D01*
X100404761Y-98198809D01*
X100357142Y-98294047D01*
X100357142Y-98436904D01*
X100404761Y-98532142D01*
X100452380Y-98579761D01*
X100547619Y-98627380D01*
X100690476Y-98627380D01*
X100785714Y-98579761D01*
X100833333Y-98532142D01*
X100976190Y-98341666D01*
X101023809Y-98198809D01*
X101023809Y-98103571D01*
X102214285Y-97960714D02*
X102595238Y-97960714D01*
X102357142Y-97627380D02*
X102357142Y-98484523D01*
X102404761Y-98579761D01*
X102499999Y-98627380D01*
X102595238Y-98627380D01*
X103309523Y-98579761D02*
X103214285Y-98627380D01*
X103023809Y-98627380D01*
X102928571Y-98579761D01*
X102880952Y-98484523D01*
X102880952Y-98103571D01*
X102928571Y-98008333D01*
X103023809Y-97960714D01*
X103214285Y-97960714D01*
X103309523Y-98008333D01*
X103357142Y-98103571D01*
X103357142Y-98198809D01*
X102880952Y-98294047D01*
X103785714Y-98627380D02*
X103785714Y-97960714D01*
X103785714Y-98055952D02*
X103833333Y-98008333D01*
X103928571Y-97960714D01*
X104071428Y-97960714D01*
X104166666Y-98008333D01*
X104214285Y-98103571D01*
X104214285Y-98627380D01*
X104214285Y-98103571D02*
X104261904Y-98008333D01*
X104357142Y-97960714D01*
X104499999Y-97960714D01*
X104595238Y-98008333D01*
X104642857Y-98103571D01*
X104642857Y-98627380D01*
X105119047Y-97960714D02*
X105119047Y-98960714D01*
X105119047Y-98008333D02*
X105214285Y-97960714D01*
X105404761Y-97960714D01*
X105499999Y-98008333D01*
X105547619Y-98055952D01*
X105595238Y-98151190D01*
X105595238Y-98436904D01*
X105547619Y-98532142D01*
X105499999Y-98579761D01*
X105404761Y-98627380D01*
X105214285Y-98627380D01*
X105119047Y-98579761D01*
X106404761Y-98579761D02*
X106309523Y-98627380D01*
X106119047Y-98627380D01*
X106023809Y-98579761D01*
X105976190Y-98484523D01*
X105976190Y-98103571D01*
X106023809Y-98008333D01*
X106119047Y-97960714D01*
X106309523Y-97960714D01*
X106404761Y-98008333D01*
X106452380Y-98103571D01*
X106452380Y-98198809D01*
X105976190Y-98294047D01*
X106880952Y-98627380D02*
X106880952Y-97960714D01*
X106880952Y-98151190D02*
X106928571Y-98055952D01*
X106976190Y-98008333D01*
X107071428Y-97960714D01*
X107166666Y-97960714D01*
X107928571Y-98627380D02*
X107928571Y-98103571D01*
X107880952Y-98008333D01*
X107785714Y-97960714D01*
X107595238Y-97960714D01*
X107499999Y-98008333D01*
X107928571Y-98579761D02*
X107833333Y-98627380D01*
X107595238Y-98627380D01*
X107499999Y-98579761D01*
X107452380Y-98484523D01*
X107452380Y-98389285D01*
X107499999Y-98294047D01*
X107595238Y-98246428D01*
X107833333Y-98246428D01*
X107928571Y-98198809D01*
X108261904Y-97960714D02*
X108642857Y-97960714D01*
X108404761Y-97627380D02*
X108404761Y-98484523D01*
X108452380Y-98579761D01*
X108547619Y-98627380D01*
X108642857Y-98627380D01*
X109404761Y-97960714D02*
X109404761Y-98627380D01*
X108976190Y-97960714D02*
X108976190Y-98484523D01*
X109023809Y-98579761D01*
X109119047Y-98627380D01*
X109261904Y-98627380D01*
X109357142Y-98579761D01*
X109404761Y-98532142D01*
X109880952Y-98627380D02*
X109880952Y-97960714D01*
X109880952Y-98151190D02*
X109928571Y-98055952D01*
X109976190Y-98008333D01*
X110071428Y-97960714D01*
X110166666Y-97960714D01*
X110880952Y-98579761D02*
X110785714Y-98627380D01*
X110595238Y-98627380D01*
X110499999Y-98579761D01*
X110452380Y-98484523D01*
X110452380Y-98103571D01*
X110499999Y-98008333D01*
X110595238Y-97960714D01*
X110785714Y-97960714D01*
X110880952Y-98008333D01*
X110928571Y-98103571D01*
X110928571Y-98198809D01*
X110452380Y-98294047D01*
X97785714Y-100229761D02*
X97880952Y-100277380D01*
X98071428Y-100277380D01*
X98166666Y-100229761D01*
X98214285Y-100134523D01*
X98214285Y-100086904D01*
X98166666Y-99991666D01*
X98071428Y-99944047D01*
X97928571Y-99944047D01*
X97833333Y-99896428D01*
X97785714Y-99801190D01*
X97785714Y-99753571D01*
X97833333Y-99658333D01*
X97928571Y-99610714D01*
X98071428Y-99610714D01*
X98166666Y-99658333D01*
X99023809Y-100229761D02*
X98928571Y-100277380D01*
X98738095Y-100277380D01*
X98642857Y-100229761D01*
X98595238Y-100134523D01*
X98595238Y-99753571D01*
X98642857Y-99658333D01*
X98738095Y-99610714D01*
X98928571Y-99610714D01*
X99023809Y-99658333D01*
X99071428Y-99753571D01*
X99071428Y-99848809D01*
X98595238Y-99944047D01*
X99500000Y-99610714D02*
X99500000Y-100277380D01*
X99500000Y-99705952D02*
X99547619Y-99658333D01*
X99642857Y-99610714D01*
X99785714Y-99610714D01*
X99880952Y-99658333D01*
X99928571Y-99753571D01*
X99928571Y-100277380D01*
X100357142Y-100229761D02*
X100452380Y-100277380D01*
X100642857Y-100277380D01*
X100738095Y-100229761D01*
X100785714Y-100134523D01*
X100785714Y-100086904D01*
X100738095Y-99991666D01*
X100642857Y-99944047D01*
X100500000Y-99944047D01*
X100404761Y-99896428D01*
X100357142Y-99801190D01*
X100357142Y-99753571D01*
X100404761Y-99658333D01*
X100500000Y-99610714D01*
X100642857Y-99610714D01*
X100738095Y-99658333D01*
X101357142Y-100277380D02*
X101261904Y-100229761D01*
X101214285Y-100182142D01*
X101166666Y-100086904D01*
X101166666Y-99801190D01*
X101214285Y-99705952D01*
X101261904Y-99658333D01*
X101357142Y-99610714D01*
X101500000Y-99610714D01*
X101595238Y-99658333D01*
X101642857Y-99705952D01*
X101690476Y-99801190D01*
X101690476Y-100086904D01*
X101642857Y-100182142D01*
X101595238Y-100229761D01*
X101500000Y-100277380D01*
X101357142Y-100277380D01*
X102119047Y-100277380D02*
X102119047Y-99610714D01*
X102119047Y-99801190D02*
X102166666Y-99705952D01*
X102214285Y-99658333D01*
X102309523Y-99610714D01*
X102404761Y-99610714D01*
X103404761Y-99610714D02*
X103642857Y-100277380D01*
X103880952Y-99610714D01*
X104452380Y-99277380D02*
X104547619Y-99277380D01*
X104642857Y-99325000D01*
X104690476Y-99372619D01*
X104738095Y-99467857D01*
X104785714Y-99658333D01*
X104785714Y-99896428D01*
X104738095Y-100086904D01*
X104690476Y-100182142D01*
X104642857Y-100229761D01*
X104547619Y-100277380D01*
X104452380Y-100277380D01*
X104357142Y-100229761D01*
X104309523Y-100182142D01*
X104261904Y-100086904D01*
X104214285Y-99896428D01*
X104214285Y-99658333D01*
X104261904Y-99467857D01*
X104309523Y-99372619D01*
X104357142Y-99325000D01*
X104452380Y-99277380D01*
X105214285Y-100182142D02*
X105261904Y-100229761D01*
X105214285Y-100277380D01*
X105166666Y-100229761D01*
X105214285Y-100182142D01*
X105214285Y-100277380D01*
X105642857Y-99372619D02*
X105690476Y-99325000D01*
X105785714Y-99277380D01*
X106023809Y-99277380D01*
X106119047Y-99325000D01*
X106166666Y-99372619D01*
X106214285Y-99467857D01*
X106214285Y-99563095D01*
X106166666Y-99705952D01*
X105595238Y-100277380D01*
X106214285Y-100277380D01*
D12*
X88500000Y-102500000D02*
X88500000Y-102000000D01*
X117000000Y-102000000D02*
X115500000Y-102000000D01*
X114500000Y-102000000D02*
X112500000Y-102000000D01*
X111500000Y-102000000D02*
X109500000Y-102000000D01*
X108500000Y-102000000D02*
X106500000Y-102000000D01*
X102500000Y-102000000D02*
X100500000Y-102000000D01*
X105500000Y-102000000D02*
X103500000Y-102000000D01*
X96500000Y-102000000D02*
X94500000Y-102000000D01*
X99500000Y-102000000D02*
X97500000Y-102000000D01*
X90500000Y-102000000D02*
X88500000Y-102000000D01*
X93500000Y-102000000D02*
X91500000Y-102000000D01*
X88500000Y-105500000D02*
X88500000Y-103500000D01*
X88500000Y-108500000D02*
X88500000Y-106500000D01*
X88500000Y-111500000D02*
X88500000Y-109500000D01*
X88500000Y-114500000D02*
X88500000Y-112500000D01*
X88500000Y-116500000D02*
X88500000Y-115500000D01*
X90000000Y-116500000D02*
X88500000Y-116500000D01*
X96000000Y-116500000D02*
X94000000Y-116500000D01*
X93000000Y-116500000D02*
X91000000Y-116500000D01*
X102000000Y-116500000D02*
X100000000Y-116500000D01*
X99000000Y-116500000D02*
X97000000Y-116500000D01*
X108000000Y-116500000D02*
X106000000Y-116500000D01*
X105000000Y-116500000D02*
X103000000Y-116500000D01*
X111000000Y-116500000D02*
X109000000Y-116500000D01*
X114000000Y-116500000D02*
X112000000Y-116500000D01*
X117000000Y-116500000D02*
X115000000Y-116500000D01*
D11*
X123666666Y-107452380D02*
X124000000Y-108452380D01*
X124333333Y-107452380D01*
X125238095Y-108357142D02*
X125190476Y-108404761D01*
X125047619Y-108452380D01*
X124952380Y-108452380D01*
X124809523Y-108404761D01*
X124714285Y-108309523D01*
X124666666Y-108214285D01*
X124619047Y-108023809D01*
X124619047Y-107880952D01*
X124666666Y-107690476D01*
X124714285Y-107595238D01*
X124809523Y-107500000D01*
X124952380Y-107452380D01*
X125047619Y-107452380D01*
X125190476Y-107500000D01*
X125238095Y-107547619D01*
X126238095Y-108357142D02*
X126190476Y-108404761D01*
X126047619Y-108452380D01*
X125952380Y-108452380D01*
X125809523Y-108404761D01*
X125714285Y-108309523D01*
X125666666Y-108214285D01*
X125619047Y-108023809D01*
X125619047Y-107880952D01*
X125666666Y-107690476D01*
X125714285Y-107595238D01*
X125809523Y-107500000D01*
X125952380Y-107452380D01*
X126047619Y-107452380D01*
X126190476Y-107500000D01*
X126238095Y-107547619D01*
X124238095Y-105000000D02*
X124142857Y-104952380D01*
X124000000Y-104952380D01*
X123857142Y-105000000D01*
X123761904Y-105095238D01*
X123714285Y-105190476D01*
X123666666Y-105380952D01*
X123666666Y-105523809D01*
X123714285Y-105714285D01*
X123761904Y-105809523D01*
X123857142Y-105904761D01*
X124000000Y-105952380D01*
X124095238Y-105952380D01*
X124238095Y-105904761D01*
X124285714Y-105857142D01*
X124285714Y-105523809D01*
X124095238Y-105523809D01*
X124714285Y-105952380D02*
X124714285Y-104952380D01*
X125285714Y-105952380D01*
X125285714Y-104952380D01*
X125761904Y-105952380D02*
X125761904Y-104952380D01*
X126000000Y-104952380D01*
X126142857Y-105000000D01*
X126238095Y-105095238D01*
X126285714Y-105190476D01*
X126333333Y-105380952D01*
X126333333Y-105523809D01*
X126285714Y-105714285D01*
X126238095Y-105809523D01*
X126142857Y-105904761D01*
X126000000Y-105952380D01*
X125761904Y-105952380D01*
X123732142Y-113452380D02*
X123732142Y-112452380D01*
X123910714Y-112452380D01*
X124017857Y-112500000D01*
X124089285Y-112595238D01*
X124125000Y-112690476D01*
X124160714Y-112880952D01*
X124160714Y-113023809D01*
X124125000Y-113214285D01*
X124089285Y-113309523D01*
X124017857Y-113404761D01*
X123910714Y-113452380D01*
X123732142Y-113452380D01*
X124625000Y-112452380D02*
X124767857Y-112452380D01*
X124839285Y-112500000D01*
X124910714Y-112595238D01*
X124946428Y-112785714D01*
X124946428Y-113119047D01*
X124910714Y-113309523D01*
X124839285Y-113404761D01*
X124767857Y-113452380D01*
X124625000Y-113452380D01*
X124553571Y-113404761D01*
X124482142Y-113309523D01*
X124446428Y-113119047D01*
X124446428Y-112785714D01*
X124482142Y-112595238D01*
X124553571Y-112500000D01*
X124625000Y-112452380D01*
X125267857Y-112452380D02*
X125267857Y-113261904D01*
X125303571Y-113357142D01*
X125339285Y-113404761D01*
X125410714Y-113452380D01*
X125553571Y-113452380D01*
X125625000Y-113404761D01*
X125660714Y-113357142D01*
X125696428Y-113261904D01*
X125696428Y-112452380D01*
X125946428Y-112452380D02*
X126375000Y-112452380D01*
X126160714Y-113452380D02*
X126160714Y-112452380D01*
X124214285Y-110952380D02*
X124214285Y-109952380D01*
X124785714Y-110952380D01*
X124785714Y-109952380D01*
X125833333Y-110857142D02*
X125785714Y-110904761D01*
X125642857Y-110952380D01*
X125547619Y-110952380D01*
X125404761Y-110904761D01*
X125309523Y-110809523D01*
X125261904Y-110714285D01*
X125214285Y-110523809D01*
X125214285Y-110380952D01*
X125261904Y-110190476D01*
X125309523Y-110095238D01*
X125404761Y-110000000D01*
X125547619Y-109952380D01*
X125642857Y-109952380D01*
X125785714Y-110000000D01*
X125833333Y-110047619D01*
X123452380Y-106857142D02*
X122452380Y-106857142D01*
X122452380Y-106476190D01*
X122500000Y-106380952D01*
X122547619Y-106333333D01*
X122642857Y-106285714D01*
X122785714Y-106285714D01*
X122880952Y-106333333D01*
X122928571Y-106380952D01*
X122976190Y-106476190D01*
X122976190Y-106857142D01*
X122452380Y-105666666D02*
X122452380Y-105476190D01*
X122500000Y-105380952D01*
X122595238Y-105285714D01*
X122785714Y-105238095D01*
X123119047Y-105238095D01*
X123309523Y-105285714D01*
X123404761Y-105380952D01*
X123452380Y-105476190D01*
X123452380Y-105666666D01*
X123404761Y-105761904D01*
X123309523Y-105857142D01*
X123119047Y-105904761D01*
X122785714Y-105904761D01*
X122595238Y-105857142D01*
X122500000Y-105761904D01*
X122452380Y-105666666D01*
X122452380Y-104904761D02*
X123452380Y-104666666D01*
X122738095Y-104476190D01*
X123452380Y-104285714D01*
X122452380Y-104047619D01*
D13*
G36*
X98508000Y-119173182D02*
G01*
X98404091Y-119173182D01*
X98404091Y-118630546D01*
X98508000Y-118630546D01*
X98508000Y-119173182D01*
G37*
X98508000Y-119173182D02*
X98404091Y-119173182D01*
X98404091Y-118630546D01*
X98508000Y-118630546D01*
X98508000Y-119173182D01*
G36*
X97584364Y-119173182D02*
G01*
X97480454Y-119173182D01*
X97480454Y-118630546D01*
X97584364Y-118630546D01*
X97584364Y-119173182D01*
G37*
X97584364Y-119173182D02*
X97480454Y-119173182D01*
X97480454Y-118630546D01*
X97584364Y-118630546D01*
X97584364Y-119173182D01*
G36*
X98373099Y-115877467D02*
G01*
X98369224Y-115890801D01*
X98354184Y-115913243D01*
X98327016Y-115945969D01*
X98286760Y-115990152D01*
X98232455Y-116046967D01*
X98163140Y-116117587D01*
X98096827Y-116184219D01*
X97809673Y-116471546D01*
X98008746Y-116471546D01*
X98081153Y-116471724D01*
X98133629Y-116472470D01*
X98169333Y-116474105D01*
X98191424Y-116476946D01*
X98203059Y-116481312D01*
X98207397Y-116487523D01*
X98207818Y-116491650D01*
X98199922Y-116504665D01*
X98177598Y-116531642D01*
X98142890Y-116570362D01*
X98097844Y-116618607D01*
X98044505Y-116674157D01*
X97984919Y-116734794D01*
X97968353Y-116751422D01*
X97892325Y-116828149D01*
X97832869Y-116889584D01*
X97789620Y-116936131D01*
X97762213Y-116968191D01*
X97750284Y-116986170D01*
X97751876Y-116990686D01*
X97775058Y-116988110D01*
X97811968Y-116981832D01*
X97846830Y-116974839D01*
X97887484Y-116966987D01*
X97911876Y-116965268D01*
X97926026Y-116969746D01*
X97932354Y-116975734D01*
X97939429Y-116988130D01*
X97936195Y-116998687D01*
X97920071Y-117008553D01*
X97888477Y-117018878D01*
X97838834Y-117030808D01*
X97781542Y-117042861D01*
X97718772Y-117055603D01*
X97674977Y-117064184D01*
X97646501Y-117069030D01*
X97629687Y-117070567D01*
X97620881Y-117069221D01*
X97616426Y-117065417D01*
X97614442Y-117062329D01*
X97613505Y-117046061D01*
X97617598Y-117013162D01*
X97625537Y-116968818D01*
X97636134Y-116918211D01*
X97648206Y-116866526D01*
X97660564Y-116818946D01*
X97672025Y-116780655D01*
X97681401Y-116756836D01*
X97685510Y-116751657D01*
X97704899Y-116750054D01*
X97714545Y-116765014D01*
X97714774Y-116798134D01*
X97705913Y-116851014D01*
X97705861Y-116851262D01*
X97697327Y-116892815D01*
X97691076Y-116925129D01*
X97688313Y-116941940D01*
X97688273Y-116942658D01*
X97696049Y-116936997D01*
X97717942Y-116917022D01*
X97751798Y-116884804D01*
X97795461Y-116842414D01*
X97846779Y-116791923D01*
X97896249Y-116742744D01*
X98104224Y-116535046D01*
X97916592Y-116529273D01*
X97845020Y-116526743D01*
X97793450Y-116523983D01*
X97758794Y-116520617D01*
X97737962Y-116516270D01*
X97727866Y-116510564D01*
X97725608Y-116506000D01*
X97732793Y-116494540D01*
X97754341Y-116469165D01*
X97788077Y-116432073D01*
X97831826Y-116385462D01*
X97883415Y-116331533D01*
X97940667Y-116272484D01*
X98001408Y-116210514D01*
X98063464Y-116147823D01*
X98124660Y-116086608D01*
X98182820Y-116029070D01*
X98235771Y-115977407D01*
X98281337Y-115933819D01*
X98317345Y-115900504D01*
X98341618Y-115879661D01*
X98351193Y-115873429D01*
X98366768Y-115872068D01*
X98373099Y-115877467D01*
G37*
X98373099Y-115877467D02*
X98369224Y-115890801D01*
X98354184Y-115913243D01*
X98327016Y-115945969D01*
X98286760Y-115990152D01*
X98232455Y-116046967D01*
X98163140Y-116117587D01*
X98096827Y-116184219D01*
X97809673Y-116471546D01*
X98008746Y-116471546D01*
X98081153Y-116471724D01*
X98133629Y-116472470D01*
X98169333Y-116474105D01*
X98191424Y-116476946D01*
X98203059Y-116481312D01*
X98207397Y-116487523D01*
X98207818Y-116491650D01*
X98199922Y-116504665D01*
X98177598Y-116531642D01*
X98142890Y-116570362D01*
X98097844Y-116618607D01*
X98044505Y-116674157D01*
X97984919Y-116734794D01*
X97968353Y-116751422D01*
X97892325Y-116828149D01*
X97832869Y-116889584D01*
X97789620Y-116936131D01*
X97762213Y-116968191D01*
X97750284Y-116986170D01*
X97751876Y-116990686D01*
X97775058Y-116988110D01*
X97811968Y-116981832D01*
X97846830Y-116974839D01*
X97887484Y-116966987D01*
X97911876Y-116965268D01*
X97926026Y-116969746D01*
X97932354Y-116975734D01*
X97939429Y-116988130D01*
X97936195Y-116998687D01*
X97920071Y-117008553D01*
X97888477Y-117018878D01*
X97838834Y-117030808D01*
X97781542Y-117042861D01*
X97718772Y-117055603D01*
X97674977Y-117064184D01*
X97646501Y-117069030D01*
X97629687Y-117070567D01*
X97620881Y-117069221D01*
X97616426Y-117065417D01*
X97614442Y-117062329D01*
X97613505Y-117046061D01*
X97617598Y-117013162D01*
X97625537Y-116968818D01*
X97636134Y-116918211D01*
X97648206Y-116866526D01*
X97660564Y-116818946D01*
X97672025Y-116780655D01*
X97681401Y-116756836D01*
X97685510Y-116751657D01*
X97704899Y-116750054D01*
X97714545Y-116765014D01*
X97714774Y-116798134D01*
X97705913Y-116851014D01*
X97705861Y-116851262D01*
X97697327Y-116892815D01*
X97691076Y-116925129D01*
X97688313Y-116941940D01*
X97688273Y-116942658D01*
X97696049Y-116936997D01*
X97717942Y-116917022D01*
X97751798Y-116884804D01*
X97795461Y-116842414D01*
X97846779Y-116791923D01*
X97896249Y-116742744D01*
X98104224Y-116535046D01*
X97916592Y-116529273D01*
X97845020Y-116526743D01*
X97793450Y-116523983D01*
X97758794Y-116520617D01*
X97737962Y-116516270D01*
X97727866Y-116510564D01*
X97725608Y-116506000D01*
X97732793Y-116494540D01*
X97754341Y-116469165D01*
X97788077Y-116432073D01*
X97831826Y-116385462D01*
X97883415Y-116331533D01*
X97940667Y-116272484D01*
X98001408Y-116210514D01*
X98063464Y-116147823D01*
X98124660Y-116086608D01*
X98182820Y-116029070D01*
X98235771Y-115977407D01*
X98281337Y-115933819D01*
X98317345Y-115900504D01*
X98341618Y-115879661D01*
X98351193Y-115873429D01*
X98366768Y-115872068D01*
X98373099Y-115877467D01*
G36*
X98781124Y-115661728D02*
G01*
X98820066Y-115687377D01*
X98850866Y-115722650D01*
X98862381Y-115746443D01*
X98869381Y-115796169D01*
X98860040Y-115844164D01*
X98836291Y-115882547D01*
X98826963Y-115890772D01*
X98800557Y-115910690D01*
X98860848Y-116038141D01*
X98942059Y-116234093D01*
X99003933Y-116438313D01*
X99046800Y-116652394D01*
X99070993Y-116877926D01*
X99077124Y-117077682D01*
X99073712Y-117224672D01*
X99063437Y-117354827D01*
X99045563Y-117473574D01*
X99019354Y-117586342D01*
X98998815Y-117654955D01*
X98968368Y-117736987D01*
X98926952Y-117830997D01*
X98877686Y-117930665D01*
X98823684Y-118029672D01*
X98770857Y-118117323D01*
X98741321Y-118163729D01*
X98716056Y-118203479D01*
X98697810Y-118232246D01*
X98689434Y-118245534D01*
X98694321Y-118257729D01*
X98714538Y-118277895D01*
X98745386Y-118301472D01*
X98810309Y-118352845D01*
X98876016Y-118416479D01*
X98937047Y-118486221D01*
X98987937Y-118555915D01*
X99018545Y-118609279D01*
X99053095Y-118689128D01*
X99074433Y-118761905D01*
X99084874Y-118837629D01*
X99086945Y-118905066D01*
X99076086Y-119020467D01*
X99045188Y-119132328D01*
X98995987Y-119235343D01*
X98962750Y-119284984D01*
X98935175Y-119321741D01*
X98996225Y-119402894D01*
X99032255Y-119454242D01*
X99070613Y-119514339D01*
X99103634Y-119571117D01*
X99106810Y-119577014D01*
X99156345Y-119669982D01*
X99269255Y-119441786D01*
X99379742Y-119226784D01*
X99488243Y-119032834D01*
X99595982Y-118858121D01*
X99704185Y-118700830D01*
X99814075Y-118559147D01*
X99926878Y-118431257D01*
X100004467Y-118352605D01*
X100128950Y-118241502D01*
X100250200Y-118152962D01*
X100369160Y-118086836D01*
X100486770Y-118042977D01*
X100603972Y-118021236D01*
X100721707Y-118021466D01*
X100840917Y-118043519D01*
X100962542Y-118087246D01*
X101087524Y-118152499D01*
X101125835Y-118176265D01*
X101238046Y-118258565D01*
X101336093Y-118351205D01*
X101419199Y-118452068D01*
X101486591Y-118559035D01*
X101537492Y-118669990D01*
X101571127Y-118782815D01*
X101586721Y-118895393D01*
X101583499Y-119005605D01*
X101560685Y-119111335D01*
X101517504Y-119210464D01*
X101509522Y-119224138D01*
X101467783Y-119282863D01*
X101410567Y-119348425D01*
X101342435Y-119416194D01*
X101267951Y-119481537D01*
X101215409Y-119522663D01*
X101176019Y-119551978D01*
X101144162Y-119575822D01*
X101123999Y-119591072D01*
X101119139Y-119594895D01*
X101125036Y-119603996D01*
X101144107Y-119625315D01*
X101172877Y-119655066D01*
X101189509Y-119671619D01*
X101257910Y-119753170D01*
X101316458Y-119851565D01*
X101363304Y-119961991D01*
X101396598Y-120079634D01*
X101414493Y-120199678D01*
X101417102Y-120264228D01*
X101408130Y-120381577D01*
X101382350Y-120492330D01*
X101341250Y-120593721D01*
X101286317Y-120682986D01*
X101219038Y-120757360D01*
X101140903Y-120814077D01*
X101113719Y-120828107D01*
X101009087Y-120865839D01*
X100886866Y-120889603D01*
X100747784Y-120899491D01*
X100592566Y-120895596D01*
X100421940Y-120878011D01*
X100236633Y-120846829D01*
X100037372Y-120802142D01*
X99824883Y-120744044D01*
X99599893Y-120672626D01*
X99430663Y-120613046D01*
X99320008Y-120572564D01*
X99295866Y-120718578D01*
X99253030Y-120913354D01*
X99190764Y-121095947D01*
X99108640Y-121267293D01*
X99006231Y-121428329D01*
X98923258Y-121534228D01*
X98814822Y-121647279D01*
X98693857Y-121746765D01*
X98563822Y-121830581D01*
X98428175Y-121896622D01*
X98290374Y-121942784D01*
X98229531Y-121956334D01*
X98189546Y-121963931D01*
X98158226Y-121970106D01*
X98143514Y-121973255D01*
X98135688Y-121984969D01*
X98123584Y-122014497D01*
X98108873Y-122057339D01*
X98093667Y-122107452D01*
X98076809Y-122166365D01*
X98060376Y-122223781D01*
X98046500Y-122272257D01*
X98038811Y-122299114D01*
X98025628Y-122336932D01*
X98012258Y-122355729D01*
X98000000Y-122359728D01*
X97984712Y-122353083D01*
X97971596Y-122330514D01*
X97961189Y-122299114D01*
X97950794Y-122262807D01*
X97936178Y-122211743D01*
X97919471Y-122153364D01*
X97906333Y-122107452D01*
X97890689Y-122055982D01*
X97876029Y-122013455D01*
X97864023Y-121984371D01*
X97856485Y-121973255D01*
X97839344Y-121969615D01*
X97806870Y-121963240D01*
X97770469Y-121956334D01*
X97632814Y-121919651D01*
X97495781Y-121862154D01*
X97362825Y-121785947D01*
X97237404Y-121693133D01*
X97122974Y-121585815D01*
X97076731Y-121534228D01*
X96960970Y-121380330D01*
X96864743Y-121214564D01*
X96787917Y-121036622D01*
X96780414Y-121011796D01*
X96834015Y-121011796D01*
X96839372Y-121030696D01*
X96853819Y-121065300D01*
X96875126Y-121111187D01*
X96901067Y-121163934D01*
X96929412Y-121219118D01*
X96957934Y-121272316D01*
X96984405Y-121319106D01*
X97006597Y-121355066D01*
X97008015Y-121357185D01*
X97041421Y-121404438D01*
X97079128Y-121454363D01*
X97108646Y-121490932D01*
X97159987Y-121551546D01*
X98841033Y-121551546D01*
X98892441Y-121490932D01*
X98938430Y-121432196D01*
X98986502Y-121362985D01*
X99033888Y-121288071D01*
X99077819Y-121212231D01*
X99115523Y-121140238D01*
X99144233Y-121076867D01*
X99160841Y-121028255D01*
X99168594Y-120997364D01*
X98001251Y-120997364D01*
X97804356Y-120997416D01*
X97629430Y-120997583D01*
X97475352Y-120997878D01*
X97341000Y-120998316D01*
X97225254Y-120998909D01*
X97126991Y-120999671D01*
X97045090Y-121000618D01*
X96978430Y-121001762D01*
X96925889Y-121003117D01*
X96886347Y-121004698D01*
X96858681Y-121006517D01*
X96841771Y-121008590D01*
X96834494Y-121010930D01*
X96834015Y-121011796D01*
X96780414Y-121011796D01*
X96730360Y-120846195D01*
X96691941Y-120642973D01*
X96689637Y-120625739D01*
X96682618Y-120571614D01*
X96570650Y-120612882D01*
X96370135Y-120683029D01*
X96174241Y-120744185D01*
X95985000Y-120795944D01*
X95804445Y-120837898D01*
X95634607Y-120869639D01*
X95477521Y-120890760D01*
X95335217Y-120900853D01*
X95209729Y-120899511D01*
X95161686Y-120895344D01*
X95037910Y-120875638D01*
X94933391Y-120846125D01*
X94845897Y-120805450D01*
X94773197Y-120752259D01*
X94713059Y-120685198D01*
X94663253Y-120602914D01*
X94656254Y-120588582D01*
X94614305Y-120481123D01*
X94591058Y-120372110D01*
X94588525Y-120320836D01*
X94642626Y-120320836D01*
X94650949Y-120403928D01*
X94669686Y-120480954D01*
X94700217Y-120559775D01*
X94703636Y-120567326D01*
X94743730Y-120634464D01*
X94798466Y-120697768D01*
X94861279Y-120750591D01*
X94915738Y-120782114D01*
X95006610Y-120813382D01*
X95115022Y-120834294D01*
X95237756Y-120844603D01*
X95371592Y-120844064D01*
X95513309Y-120832430D01*
X95536022Y-120829585D01*
X95747840Y-120794568D01*
X95973675Y-120743379D01*
X96211572Y-120676523D01*
X96459575Y-120594501D01*
X96489038Y-120583982D01*
X96674809Y-120517150D01*
X96679079Y-120390773D01*
X96730000Y-120390773D01*
X96730000Y-120454728D01*
X99273528Y-120454728D01*
X99266408Y-120330287D01*
X99260547Y-120263060D01*
X99316252Y-120263060D01*
X99321954Y-120512174D01*
X99368136Y-120530811D01*
X99439484Y-120558222D01*
X99526724Y-120589564D01*
X99623473Y-120622685D01*
X99723350Y-120655429D01*
X99819972Y-120685644D01*
X99878735Y-120703118D01*
X100093291Y-120760255D01*
X100292609Y-120802908D01*
X100476182Y-120831017D01*
X100643500Y-120844517D01*
X100794056Y-120843349D01*
X100916290Y-120829447D01*
X101012927Y-120807479D01*
X101091872Y-120777436D01*
X101157765Y-120737114D01*
X101209942Y-120690006D01*
X101274118Y-120607281D01*
X101319819Y-120513726D01*
X101347495Y-120407928D01*
X101357597Y-120288470D01*
X101356526Y-120229811D01*
X101340665Y-120088035D01*
X101306955Y-119960390D01*
X101255506Y-119847166D01*
X101186427Y-119748656D01*
X101170098Y-119730306D01*
X101127268Y-119685713D01*
X101094795Y-119657447D01*
X101068600Y-119643813D01*
X101044605Y-119643112D01*
X101018734Y-119653650D01*
X101005226Y-119661713D01*
X100958944Y-119688662D01*
X100895930Y-119722084D01*
X100820825Y-119759719D01*
X100738272Y-119799303D01*
X100652912Y-119838574D01*
X100569387Y-119875271D01*
X100550619Y-119883239D01*
X100457139Y-119920633D01*
X100346529Y-119961571D01*
X100223166Y-120004679D01*
X100091430Y-120048584D01*
X99955698Y-120091912D01*
X99820349Y-120133289D01*
X99689763Y-120171341D01*
X99568317Y-120204694D01*
X99460390Y-120231975D01*
X99385859Y-120248683D01*
X99316252Y-120263060D01*
X99260547Y-120263060D01*
X99259747Y-120253895D01*
X99248535Y-120167625D01*
X99234147Y-120079964D01*
X99217961Y-119999400D01*
X99203276Y-119940955D01*
X99193293Y-119906319D01*
X96805696Y-119906319D01*
X96779732Y-120010228D01*
X96760890Y-120098477D01*
X96745499Y-120195531D01*
X96734820Y-120291740D01*
X96730115Y-120377451D01*
X96730000Y-120390773D01*
X96679079Y-120390773D01*
X96683355Y-120264228D01*
X96565246Y-120236895D01*
X96498203Y-120220410D01*
X96414263Y-120198273D01*
X96318492Y-120171947D01*
X96215960Y-120142901D01*
X96111733Y-120112598D01*
X96010881Y-120082507D01*
X95918470Y-120054092D01*
X95839569Y-120028820D01*
X95800591Y-120015696D01*
X95676818Y-119971175D01*
X95551015Y-119922730D01*
X95427016Y-119872035D01*
X95308655Y-119820767D01*
X95199765Y-119770601D01*
X95104180Y-119723212D01*
X95025735Y-119680275D01*
X95006185Y-119668554D01*
X94972853Y-119649909D01*
X94946470Y-119642358D01*
X94921874Y-119647357D01*
X94893904Y-119666363D01*
X94857397Y-119700832D01*
X94844130Y-119714282D01*
X94767283Y-119809128D01*
X94708642Y-119918026D01*
X94668325Y-120040673D01*
X94646453Y-120176766D01*
X94643336Y-120223819D01*
X94642626Y-120320836D01*
X94588525Y-120320836D01*
X94585266Y-120254894D01*
X94586693Y-120218046D01*
X94603868Y-120080679D01*
X94638812Y-119952052D01*
X94690427Y-119834840D01*
X94757615Y-119731716D01*
X94811015Y-119671619D01*
X94843100Y-119639059D01*
X94867208Y-119613101D01*
X94879873Y-119597552D01*
X94880861Y-119594895D01*
X94870500Y-119586909D01*
X94845711Y-119568322D01*
X94810646Y-119542238D01*
X94783911Y-119522438D01*
X94707269Y-119461203D01*
X94633882Y-119394100D01*
X94568395Y-119325854D01*
X94515453Y-119261184D01*
X94490478Y-119224148D01*
X94443731Y-119125261D01*
X94417706Y-119019820D01*
X94412710Y-118928698D01*
X94468525Y-118928698D01*
X94469169Y-118960394D01*
X94472559Y-119015291D01*
X94478635Y-119056568D01*
X94489764Y-119093692D01*
X94508315Y-119136134D01*
X94518186Y-119156403D01*
X94574973Y-119248295D01*
X94654171Y-119340169D01*
X94755105Y-119431635D01*
X94877099Y-119522299D01*
X95019476Y-119611771D01*
X95181560Y-119699659D01*
X95362676Y-119785571D01*
X95562148Y-119869116D01*
X95779298Y-119949901D01*
X96013452Y-120027535D01*
X96031500Y-120033164D01*
X96100348Y-120053987D01*
X96176581Y-120076095D01*
X96257097Y-120098684D01*
X96338796Y-120120951D01*
X96418579Y-120142094D01*
X96493343Y-120161309D01*
X96559989Y-120177795D01*
X96615416Y-120190747D01*
X96656524Y-120199364D01*
X96680212Y-120202841D01*
X96684669Y-120202301D01*
X96689475Y-120188430D01*
X96696977Y-120157156D01*
X96705952Y-120113834D01*
X96711356Y-120085273D01*
X96724462Y-120023924D01*
X96742534Y-119952675D01*
X96762502Y-119883276D01*
X96771256Y-119855882D01*
X96811093Y-119736173D01*
X96809078Y-119731736D01*
X99187715Y-119731736D01*
X99224028Y-119841244D01*
X99244940Y-119908541D01*
X99264527Y-119979266D01*
X99281511Y-120048020D01*
X99294618Y-120109401D01*
X99302571Y-120158011D01*
X99304386Y-120181301D01*
X99307638Y-120204155D01*
X99319280Y-120209081D01*
X99324841Y-120207791D01*
X99342821Y-120202968D01*
X99378686Y-120193763D01*
X99427904Y-120181327D01*
X99485942Y-120166807D01*
X99512454Y-120160216D01*
X99763100Y-120094106D01*
X100000962Y-120023487D01*
X100225116Y-119948828D01*
X100434641Y-119870599D01*
X100628614Y-119789271D01*
X100806113Y-119705311D01*
X100966216Y-119619190D01*
X101108001Y-119531377D01*
X101230545Y-119442341D01*
X101332927Y-119352553D01*
X101414223Y-119262482D01*
X101473511Y-119172596D01*
X101480994Y-119158060D01*
X101502829Y-119111304D01*
X101516532Y-119072763D01*
X101524475Y-119033013D01*
X101529027Y-118982632D01*
X101530161Y-118962596D01*
X101525184Y-118839396D01*
X101497675Y-118718093D01*
X101448182Y-118599913D01*
X101377254Y-118486079D01*
X101285439Y-118377816D01*
X101254250Y-118346936D01*
X101145360Y-118255110D01*
X101031263Y-118181317D01*
X100914113Y-118126285D01*
X100796064Y-118090743D01*
X100679268Y-118075421D01*
X100565881Y-118081048D01*
X100505364Y-118093438D01*
X100393310Y-118134032D01*
X100278736Y-118196846D01*
X100162206Y-118281216D01*
X100044283Y-118386476D01*
X99925533Y-118511964D01*
X99806520Y-118657014D01*
X99687807Y-118820963D01*
X99569960Y-119003146D01*
X99453542Y-119202899D01*
X99339118Y-119419558D01*
X99284575Y-119530391D01*
X99187715Y-119731736D01*
X96809078Y-119731736D01*
X96757951Y-119619200D01*
X96655032Y-119403905D01*
X96547824Y-119201117D01*
X96437149Y-119011828D01*
X96323828Y-118837030D01*
X96208682Y-118677714D01*
X96092532Y-118534873D01*
X95976200Y-118409498D01*
X95860506Y-118302582D01*
X95746273Y-118215115D01*
X95634320Y-118148091D01*
X95525470Y-118102500D01*
X95494636Y-118093438D01*
X95384062Y-118075901D01*
X95268887Y-118079716D01*
X95151266Y-118104154D01*
X95033352Y-118148486D01*
X94917299Y-118211983D01*
X94805260Y-118293916D01*
X94745750Y-118346936D01*
X94647717Y-118453518D01*
X94570432Y-118566197D01*
X94514441Y-118683761D01*
X94480290Y-118804999D01*
X94468525Y-118928698D01*
X94412710Y-118928698D01*
X94411675Y-118909826D01*
X94424909Y-118797277D01*
X94456681Y-118684172D01*
X94506264Y-118572512D01*
X94572929Y-118464294D01*
X94655948Y-118361519D01*
X94754595Y-118266185D01*
X94868142Y-118180291D01*
X94871182Y-118178271D01*
X94996469Y-118105441D01*
X95119546Y-118054719D01*
X95241019Y-118026203D01*
X95361491Y-118019991D01*
X95481568Y-118036180D01*
X95601854Y-118074869D01*
X95722954Y-118136155D01*
X95845472Y-118220138D01*
X95970013Y-118326913D01*
X96006715Y-118362274D01*
X96123336Y-118485504D01*
X96236410Y-118621933D01*
X96347122Y-118773333D01*
X96456661Y-118941473D01*
X96566214Y-119128125D01*
X96676968Y-119335058D01*
X96730855Y-119442009D01*
X96843875Y-119670426D01*
X96890709Y-119580554D01*
X96921505Y-119526225D01*
X96959413Y-119466059D01*
X96996845Y-119412031D01*
X97001184Y-119406212D01*
X97064825Y-119321741D01*
X97037249Y-119284984D01*
X96978967Y-119188878D01*
X96938062Y-119081090D01*
X96916267Y-118966923D01*
X96913055Y-118905066D01*
X96913459Y-118895419D01*
X96964040Y-118895419D01*
X96973846Y-119004092D01*
X97004554Y-119109498D01*
X97055071Y-119210166D01*
X97124304Y-119304621D01*
X97211160Y-119391391D01*
X97314544Y-119469002D01*
X97433365Y-119535983D01*
X97566528Y-119590859D01*
X97576997Y-119594423D01*
X97656852Y-119618909D01*
X97731998Y-119636303D01*
X97808715Y-119647415D01*
X97893290Y-119653053D01*
X97992003Y-119654028D01*
X98034636Y-119653341D01*
X98112848Y-119651127D01*
X98174050Y-119647841D01*
X98224321Y-119642791D01*
X98269739Y-119635286D01*
X98316383Y-119624634D01*
X98339248Y-119618667D01*
X98480280Y-119572409D01*
X98607990Y-119513494D01*
X98721255Y-119443288D01*
X98818952Y-119363159D01*
X98899960Y-119274475D01*
X98963155Y-119178601D01*
X99007416Y-119076906D01*
X99031619Y-118970757D01*
X99034643Y-118861520D01*
X99023770Y-118784954D01*
X98988557Y-118673780D01*
X98932382Y-118569313D01*
X98856726Y-118472836D01*
X98763074Y-118385635D01*
X98652907Y-118308997D01*
X98527709Y-118244206D01*
X98388962Y-118192548D01*
X98317435Y-118172657D01*
X98265651Y-118160373D01*
X98220998Y-118151717D01*
X98177290Y-118146071D01*
X98128345Y-118142820D01*
X98067978Y-118141348D01*
X98000000Y-118141035D01*
X97924172Y-118141454D01*
X97865222Y-118143121D01*
X97816945Y-118146649D01*
X97773138Y-118152654D01*
X97727596Y-118161749D01*
X97682500Y-118172464D01*
X97537806Y-118217080D01*
X97405922Y-118275533D01*
X97288332Y-118346534D01*
X97186518Y-118428798D01*
X97101965Y-118521038D01*
X97036156Y-118621968D01*
X96990574Y-118730302D01*
X96976230Y-118784954D01*
X96964040Y-118895419D01*
X96913459Y-118895419D01*
X96916615Y-118820109D01*
X96929268Y-118745900D01*
X96953329Y-118672422D01*
X96981455Y-118609279D01*
X97019793Y-118544292D01*
X97072801Y-118474153D01*
X97135018Y-118405016D01*
X97200982Y-118343036D01*
X97254621Y-118301468D01*
X97318123Y-118257732D01*
X97288693Y-118210343D01*
X97224618Y-118087960D01*
X97184192Y-117972455D01*
X97172388Y-117909787D01*
X97165198Y-117831715D01*
X97162617Y-117745462D01*
X97164642Y-117658249D01*
X97171267Y-117577298D01*
X97182490Y-117509829D01*
X97184453Y-117501771D01*
X97205952Y-117417860D01*
X97176192Y-117394450D01*
X97144897Y-117356554D01*
X97131127Y-117310078D01*
X97132270Y-117293355D01*
X97180273Y-117293355D01*
X97189793Y-117320115D01*
X97213029Y-117347132D01*
X97241995Y-117366780D01*
X97262708Y-117372091D01*
X97289388Y-117364409D01*
X97315188Y-117346988D01*
X97336956Y-117313487D01*
X97340001Y-117277009D01*
X97326694Y-117243629D01*
X97299404Y-117219423D01*
X97261929Y-117210455D01*
X97228815Y-117220588D01*
X97199759Y-117245871D01*
X97182319Y-117278631D01*
X97180273Y-117293355D01*
X97132270Y-117293355D01*
X97134482Y-117260995D01*
X97154561Y-117215281D01*
X97190639Y-117179127D01*
X97235769Y-117157224D01*
X97280150Y-117155593D01*
X97324840Y-117170938D01*
X97360827Y-117199189D01*
X97387568Y-117241053D01*
X97399436Y-117287339D01*
X97399593Y-117293018D01*
X97389292Y-117335048D01*
X97362265Y-117375474D01*
X97324138Y-117406889D01*
X97306671Y-117415417D01*
X97278105Y-117429314D01*
X97260289Y-117447830D01*
X97246674Y-117478772D01*
X97242249Y-117492216D01*
X97230692Y-117544140D01*
X97222568Y-117612171D01*
X97218052Y-117689554D01*
X97217322Y-117769535D01*
X97220553Y-117845360D01*
X97227923Y-117910275D01*
X97230896Y-117926273D01*
X97242704Y-117969706D01*
X97260960Y-118021690D01*
X97283226Y-118076706D01*
X97307064Y-118129238D01*
X97330036Y-118173769D01*
X97349702Y-118204781D01*
X97358025Y-118213911D01*
X97376069Y-118215922D01*
X97412586Y-118206792D01*
X97468325Y-118186330D01*
X97471124Y-118185209D01*
X97643658Y-118128002D01*
X97818957Y-118093434D01*
X97995575Y-118081505D01*
X98172062Y-118092214D01*
X98346972Y-118125560D01*
X98518857Y-118181543D01*
X98529286Y-118185721D01*
X98629227Y-118226196D01*
X98652693Y-118197536D01*
X98675511Y-118166002D01*
X98706046Y-118118665D01*
X98741548Y-118060305D01*
X98779269Y-117995701D01*
X98816461Y-117929633D01*
X98850376Y-117866882D01*
X98878263Y-117812228D01*
X98894974Y-117776182D01*
X98952283Y-117615435D01*
X98993139Y-117441550D01*
X99017692Y-117257437D01*
X99026091Y-117066006D01*
X99018488Y-116870166D01*
X98995032Y-116672826D01*
X98955874Y-116476897D01*
X98901163Y-116285288D01*
X98831050Y-116100908D01*
X98805599Y-116044364D01*
X98782039Y-115994997D01*
X98764405Y-115962296D01*
X98749165Y-115941861D01*
X98732786Y-115929291D01*
X98711739Y-115920188D01*
X98703660Y-115917364D01*
X98659252Y-115893175D01*
X98624129Y-115857209D01*
X98603562Y-115815794D01*
X98600364Y-115793288D01*
X98604074Y-115775694D01*
X98659665Y-115775694D01*
X98662521Y-115811046D01*
X98683492Y-115842990D01*
X98688511Y-115847253D01*
X98725237Y-115867768D01*
X98758193Y-115866362D01*
X98791365Y-115842866D01*
X98791388Y-115842843D01*
X98814899Y-115809669D01*
X98816319Y-115776715D01*
X98795819Y-115739993D01*
X98795798Y-115739966D01*
X98763930Y-115714496D01*
X98738071Y-115709546D01*
X98699613Y-115718908D01*
X98672753Y-115742969D01*
X98659665Y-115775694D01*
X98604074Y-115775694D01*
X98611034Y-115742695D01*
X98639695Y-115698985D01*
X98681320Y-115667184D01*
X98730884Y-115652318D01*
X98741833Y-115651819D01*
X98781124Y-115661728D01*
G37*
X98781124Y-115661728D02*
X98820066Y-115687377D01*
X98850866Y-115722650D01*
X98862381Y-115746443D01*
X98869381Y-115796169D01*
X98860040Y-115844164D01*
X98836291Y-115882547D01*
X98826963Y-115890772D01*
X98800557Y-115910690D01*
X98860848Y-116038141D01*
X98942059Y-116234093D01*
X99003933Y-116438313D01*
X99046800Y-116652394D01*
X99070993Y-116877926D01*
X99077124Y-117077682D01*
X99073712Y-117224672D01*
X99063437Y-117354827D01*
X99045563Y-117473574D01*
X99019354Y-117586342D01*
X98998815Y-117654955D01*
X98968368Y-117736987D01*
X98926952Y-117830997D01*
X98877686Y-117930665D01*
X98823684Y-118029672D01*
X98770857Y-118117323D01*
X98741321Y-118163729D01*
X98716056Y-118203479D01*
X98697810Y-118232246D01*
X98689434Y-118245534D01*
X98694321Y-118257729D01*
X98714538Y-118277895D01*
X98745386Y-118301472D01*
X98810309Y-118352845D01*
X98876016Y-118416479D01*
X98937047Y-118486221D01*
X98987937Y-118555915D01*
X99018545Y-118609279D01*
X99053095Y-118689128D01*
X99074433Y-118761905D01*
X99084874Y-118837629D01*
X99086945Y-118905066D01*
X99076086Y-119020467D01*
X99045188Y-119132328D01*
X98995987Y-119235343D01*
X98962750Y-119284984D01*
X98935175Y-119321741D01*
X98996225Y-119402894D01*
X99032255Y-119454242D01*
X99070613Y-119514339D01*
X99103634Y-119571117D01*
X99106810Y-119577014D01*
X99156345Y-119669982D01*
X99269255Y-119441786D01*
X99379742Y-119226784D01*
X99488243Y-119032834D01*
X99595982Y-118858121D01*
X99704185Y-118700830D01*
X99814075Y-118559147D01*
X99926878Y-118431257D01*
X100004467Y-118352605D01*
X100128950Y-118241502D01*
X100250200Y-118152962D01*
X100369160Y-118086836D01*
X100486770Y-118042977D01*
X100603972Y-118021236D01*
X100721707Y-118021466D01*
X100840917Y-118043519D01*
X100962542Y-118087246D01*
X101087524Y-118152499D01*
X101125835Y-118176265D01*
X101238046Y-118258565D01*
X101336093Y-118351205D01*
X101419199Y-118452068D01*
X101486591Y-118559035D01*
X101537492Y-118669990D01*
X101571127Y-118782815D01*
X101586721Y-118895393D01*
X101583499Y-119005605D01*
X101560685Y-119111335D01*
X101517504Y-119210464D01*
X101509522Y-119224138D01*
X101467783Y-119282863D01*
X101410567Y-119348425D01*
X101342435Y-119416194D01*
X101267951Y-119481537D01*
X101215409Y-119522663D01*
X101176019Y-119551978D01*
X101144162Y-119575822D01*
X101123999Y-119591072D01*
X101119139Y-119594895D01*
X101125036Y-119603996D01*
X101144107Y-119625315D01*
X101172877Y-119655066D01*
X101189509Y-119671619D01*
X101257910Y-119753170D01*
X101316458Y-119851565D01*
X101363304Y-119961991D01*
X101396598Y-120079634D01*
X101414493Y-120199678D01*
X101417102Y-120264228D01*
X101408130Y-120381577D01*
X101382350Y-120492330D01*
X101341250Y-120593721D01*
X101286317Y-120682986D01*
X101219038Y-120757360D01*
X101140903Y-120814077D01*
X101113719Y-120828107D01*
X101009087Y-120865839D01*
X100886866Y-120889603D01*
X100747784Y-120899491D01*
X100592566Y-120895596D01*
X100421940Y-120878011D01*
X100236633Y-120846829D01*
X100037372Y-120802142D01*
X99824883Y-120744044D01*
X99599893Y-120672626D01*
X99430663Y-120613046D01*
X99320008Y-120572564D01*
X99295866Y-120718578D01*
X99253030Y-120913354D01*
X99190764Y-121095947D01*
X99108640Y-121267293D01*
X99006231Y-121428329D01*
X98923258Y-121534228D01*
X98814822Y-121647279D01*
X98693857Y-121746765D01*
X98563822Y-121830581D01*
X98428175Y-121896622D01*
X98290374Y-121942784D01*
X98229531Y-121956334D01*
X98189546Y-121963931D01*
X98158226Y-121970106D01*
X98143514Y-121973255D01*
X98135688Y-121984969D01*
X98123584Y-122014497D01*
X98108873Y-122057339D01*
X98093667Y-122107452D01*
X98076809Y-122166365D01*
X98060376Y-122223781D01*
X98046500Y-122272257D01*
X98038811Y-122299114D01*
X98025628Y-122336932D01*
X98012258Y-122355729D01*
X98000000Y-122359728D01*
X97984712Y-122353083D01*
X97971596Y-122330514D01*
X97961189Y-122299114D01*
X97950794Y-122262807D01*
X97936178Y-122211743D01*
X97919471Y-122153364D01*
X97906333Y-122107452D01*
X97890689Y-122055982D01*
X97876029Y-122013455D01*
X97864023Y-121984371D01*
X97856485Y-121973255D01*
X97839344Y-121969615D01*
X97806870Y-121963240D01*
X97770469Y-121956334D01*
X97632814Y-121919651D01*
X97495781Y-121862154D01*
X97362825Y-121785947D01*
X97237404Y-121693133D01*
X97122974Y-121585815D01*
X97076731Y-121534228D01*
X96960970Y-121380330D01*
X96864743Y-121214564D01*
X96787917Y-121036622D01*
X96780414Y-121011796D01*
X96834015Y-121011796D01*
X96839372Y-121030696D01*
X96853819Y-121065300D01*
X96875126Y-121111187D01*
X96901067Y-121163934D01*
X96929412Y-121219118D01*
X96957934Y-121272316D01*
X96984405Y-121319106D01*
X97006597Y-121355066D01*
X97008015Y-121357185D01*
X97041421Y-121404438D01*
X97079128Y-121454363D01*
X97108646Y-121490932D01*
X97159987Y-121551546D01*
X98841033Y-121551546D01*
X98892441Y-121490932D01*
X98938430Y-121432196D01*
X98986502Y-121362985D01*
X99033888Y-121288071D01*
X99077819Y-121212231D01*
X99115523Y-121140238D01*
X99144233Y-121076867D01*
X99160841Y-121028255D01*
X99168594Y-120997364D01*
X98001251Y-120997364D01*
X97804356Y-120997416D01*
X97629430Y-120997583D01*
X97475352Y-120997878D01*
X97341000Y-120998316D01*
X97225254Y-120998909D01*
X97126991Y-120999671D01*
X97045090Y-121000618D01*
X96978430Y-121001762D01*
X96925889Y-121003117D01*
X96886347Y-121004698D01*
X96858681Y-121006517D01*
X96841771Y-121008590D01*
X96834494Y-121010930D01*
X96834015Y-121011796D01*
X96780414Y-121011796D01*
X96730360Y-120846195D01*
X96691941Y-120642973D01*
X96689637Y-120625739D01*
X96682618Y-120571614D01*
X96570650Y-120612882D01*
X96370135Y-120683029D01*
X96174241Y-120744185D01*
X95985000Y-120795944D01*
X95804445Y-120837898D01*
X95634607Y-120869639D01*
X95477521Y-120890760D01*
X95335217Y-120900853D01*
X95209729Y-120899511D01*
X95161686Y-120895344D01*
X95037910Y-120875638D01*
X94933391Y-120846125D01*
X94845897Y-120805450D01*
X94773197Y-120752259D01*
X94713059Y-120685198D01*
X94663253Y-120602914D01*
X94656254Y-120588582D01*
X94614305Y-120481123D01*
X94591058Y-120372110D01*
X94588525Y-120320836D01*
X94642626Y-120320836D01*
X94650949Y-120403928D01*
X94669686Y-120480954D01*
X94700217Y-120559775D01*
X94703636Y-120567326D01*
X94743730Y-120634464D01*
X94798466Y-120697768D01*
X94861279Y-120750591D01*
X94915738Y-120782114D01*
X95006610Y-120813382D01*
X95115022Y-120834294D01*
X95237756Y-120844603D01*
X95371592Y-120844064D01*
X95513309Y-120832430D01*
X95536022Y-120829585D01*
X95747840Y-120794568D01*
X95973675Y-120743379D01*
X96211572Y-120676523D01*
X96459575Y-120594501D01*
X96489038Y-120583982D01*
X96674809Y-120517150D01*
X96679079Y-120390773D01*
X96730000Y-120390773D01*
X96730000Y-120454728D01*
X99273528Y-120454728D01*
X99266408Y-120330287D01*
X99260547Y-120263060D01*
X99316252Y-120263060D01*
X99321954Y-120512174D01*
X99368136Y-120530811D01*
X99439484Y-120558222D01*
X99526724Y-120589564D01*
X99623473Y-120622685D01*
X99723350Y-120655429D01*
X99819972Y-120685644D01*
X99878735Y-120703118D01*
X100093291Y-120760255D01*
X100292609Y-120802908D01*
X100476182Y-120831017D01*
X100643500Y-120844517D01*
X100794056Y-120843349D01*
X100916290Y-120829447D01*
X101012927Y-120807479D01*
X101091872Y-120777436D01*
X101157765Y-120737114D01*
X101209942Y-120690006D01*
X101274118Y-120607281D01*
X101319819Y-120513726D01*
X101347495Y-120407928D01*
X101357597Y-120288470D01*
X101356526Y-120229811D01*
X101340665Y-120088035D01*
X101306955Y-119960390D01*
X101255506Y-119847166D01*
X101186427Y-119748656D01*
X101170098Y-119730306D01*
X101127268Y-119685713D01*
X101094795Y-119657447D01*
X101068600Y-119643813D01*
X101044605Y-119643112D01*
X101018734Y-119653650D01*
X101005226Y-119661713D01*
X100958944Y-119688662D01*
X100895930Y-119722084D01*
X100820825Y-119759719D01*
X100738272Y-119799303D01*
X100652912Y-119838574D01*
X100569387Y-119875271D01*
X100550619Y-119883239D01*
X100457139Y-119920633D01*
X100346529Y-119961571D01*
X100223166Y-120004679D01*
X100091430Y-120048584D01*
X99955698Y-120091912D01*
X99820349Y-120133289D01*
X99689763Y-120171341D01*
X99568317Y-120204694D01*
X99460390Y-120231975D01*
X99385859Y-120248683D01*
X99316252Y-120263060D01*
X99260547Y-120263060D01*
X99259747Y-120253895D01*
X99248535Y-120167625D01*
X99234147Y-120079964D01*
X99217961Y-119999400D01*
X99203276Y-119940955D01*
X99193293Y-119906319D01*
X96805696Y-119906319D01*
X96779732Y-120010228D01*
X96760890Y-120098477D01*
X96745499Y-120195531D01*
X96734820Y-120291740D01*
X96730115Y-120377451D01*
X96730000Y-120390773D01*
X96679079Y-120390773D01*
X96683355Y-120264228D01*
X96565246Y-120236895D01*
X96498203Y-120220410D01*
X96414263Y-120198273D01*
X96318492Y-120171947D01*
X96215960Y-120142901D01*
X96111733Y-120112598D01*
X96010881Y-120082507D01*
X95918470Y-120054092D01*
X95839569Y-120028820D01*
X95800591Y-120015696D01*
X95676818Y-119971175D01*
X95551015Y-119922730D01*
X95427016Y-119872035D01*
X95308655Y-119820767D01*
X95199765Y-119770601D01*
X95104180Y-119723212D01*
X95025735Y-119680275D01*
X95006185Y-119668554D01*
X94972853Y-119649909D01*
X94946470Y-119642358D01*
X94921874Y-119647357D01*
X94893904Y-119666363D01*
X94857397Y-119700832D01*
X94844130Y-119714282D01*
X94767283Y-119809128D01*
X94708642Y-119918026D01*
X94668325Y-120040673D01*
X94646453Y-120176766D01*
X94643336Y-120223819D01*
X94642626Y-120320836D01*
X94588525Y-120320836D01*
X94585266Y-120254894D01*
X94586693Y-120218046D01*
X94603868Y-120080679D01*
X94638812Y-119952052D01*
X94690427Y-119834840D01*
X94757615Y-119731716D01*
X94811015Y-119671619D01*
X94843100Y-119639059D01*
X94867208Y-119613101D01*
X94879873Y-119597552D01*
X94880861Y-119594895D01*
X94870500Y-119586909D01*
X94845711Y-119568322D01*
X94810646Y-119542238D01*
X94783911Y-119522438D01*
X94707269Y-119461203D01*
X94633882Y-119394100D01*
X94568395Y-119325854D01*
X94515453Y-119261184D01*
X94490478Y-119224148D01*
X94443731Y-119125261D01*
X94417706Y-119019820D01*
X94412710Y-118928698D01*
X94468525Y-118928698D01*
X94469169Y-118960394D01*
X94472559Y-119015291D01*
X94478635Y-119056568D01*
X94489764Y-119093692D01*
X94508315Y-119136134D01*
X94518186Y-119156403D01*
X94574973Y-119248295D01*
X94654171Y-119340169D01*
X94755105Y-119431635D01*
X94877099Y-119522299D01*
X95019476Y-119611771D01*
X95181560Y-119699659D01*
X95362676Y-119785571D01*
X95562148Y-119869116D01*
X95779298Y-119949901D01*
X96013452Y-120027535D01*
X96031500Y-120033164D01*
X96100348Y-120053987D01*
X96176581Y-120076095D01*
X96257097Y-120098684D01*
X96338796Y-120120951D01*
X96418579Y-120142094D01*
X96493343Y-120161309D01*
X96559989Y-120177795D01*
X96615416Y-120190747D01*
X96656524Y-120199364D01*
X96680212Y-120202841D01*
X96684669Y-120202301D01*
X96689475Y-120188430D01*
X96696977Y-120157156D01*
X96705952Y-120113834D01*
X96711356Y-120085273D01*
X96724462Y-120023924D01*
X96742534Y-119952675D01*
X96762502Y-119883276D01*
X96771256Y-119855882D01*
X96811093Y-119736173D01*
X96809078Y-119731736D01*
X99187715Y-119731736D01*
X99224028Y-119841244D01*
X99244940Y-119908541D01*
X99264527Y-119979266D01*
X99281511Y-120048020D01*
X99294618Y-120109401D01*
X99302571Y-120158011D01*
X99304386Y-120181301D01*
X99307638Y-120204155D01*
X99319280Y-120209081D01*
X99324841Y-120207791D01*
X99342821Y-120202968D01*
X99378686Y-120193763D01*
X99427904Y-120181327D01*
X99485942Y-120166807D01*
X99512454Y-120160216D01*
X99763100Y-120094106D01*
X100000962Y-120023487D01*
X100225116Y-119948828D01*
X100434641Y-119870599D01*
X100628614Y-119789271D01*
X100806113Y-119705311D01*
X100966216Y-119619190D01*
X101108001Y-119531377D01*
X101230545Y-119442341D01*
X101332927Y-119352553D01*
X101414223Y-119262482D01*
X101473511Y-119172596D01*
X101480994Y-119158060D01*
X101502829Y-119111304D01*
X101516532Y-119072763D01*
X101524475Y-119033013D01*
X101529027Y-118982632D01*
X101530161Y-118962596D01*
X101525184Y-118839396D01*
X101497675Y-118718093D01*
X101448182Y-118599913D01*
X101377254Y-118486079D01*
X101285439Y-118377816D01*
X101254250Y-118346936D01*
X101145360Y-118255110D01*
X101031263Y-118181317D01*
X100914113Y-118126285D01*
X100796064Y-118090743D01*
X100679268Y-118075421D01*
X100565881Y-118081048D01*
X100505364Y-118093438D01*
X100393310Y-118134032D01*
X100278736Y-118196846D01*
X100162206Y-118281216D01*
X100044283Y-118386476D01*
X99925533Y-118511964D01*
X99806520Y-118657014D01*
X99687807Y-118820963D01*
X99569960Y-119003146D01*
X99453542Y-119202899D01*
X99339118Y-119419558D01*
X99284575Y-119530391D01*
X99187715Y-119731736D01*
X96809078Y-119731736D01*
X96757951Y-119619200D01*
X96655032Y-119403905D01*
X96547824Y-119201117D01*
X96437149Y-119011828D01*
X96323828Y-118837030D01*
X96208682Y-118677714D01*
X96092532Y-118534873D01*
X95976200Y-118409498D01*
X95860506Y-118302582D01*
X95746273Y-118215115D01*
X95634320Y-118148091D01*
X95525470Y-118102500D01*
X95494636Y-118093438D01*
X95384062Y-118075901D01*
X95268887Y-118079716D01*
X95151266Y-118104154D01*
X95033352Y-118148486D01*
X94917299Y-118211983D01*
X94805260Y-118293916D01*
X94745750Y-118346936D01*
X94647717Y-118453518D01*
X94570432Y-118566197D01*
X94514441Y-118683761D01*
X94480290Y-118804999D01*
X94468525Y-118928698D01*
X94412710Y-118928698D01*
X94411675Y-118909826D01*
X94424909Y-118797277D01*
X94456681Y-118684172D01*
X94506264Y-118572512D01*
X94572929Y-118464294D01*
X94655948Y-118361519D01*
X94754595Y-118266185D01*
X94868142Y-118180291D01*
X94871182Y-118178271D01*
X94996469Y-118105441D01*
X95119546Y-118054719D01*
X95241019Y-118026203D01*
X95361491Y-118019991D01*
X95481568Y-118036180D01*
X95601854Y-118074869D01*
X95722954Y-118136155D01*
X95845472Y-118220138D01*
X95970013Y-118326913D01*
X96006715Y-118362274D01*
X96123336Y-118485504D01*
X96236410Y-118621933D01*
X96347122Y-118773333D01*
X96456661Y-118941473D01*
X96566214Y-119128125D01*
X96676968Y-119335058D01*
X96730855Y-119442009D01*
X96843875Y-119670426D01*
X96890709Y-119580554D01*
X96921505Y-119526225D01*
X96959413Y-119466059D01*
X96996845Y-119412031D01*
X97001184Y-119406212D01*
X97064825Y-119321741D01*
X97037249Y-119284984D01*
X96978967Y-119188878D01*
X96938062Y-119081090D01*
X96916267Y-118966923D01*
X96913055Y-118905066D01*
X96913459Y-118895419D01*
X96964040Y-118895419D01*
X96973846Y-119004092D01*
X97004554Y-119109498D01*
X97055071Y-119210166D01*
X97124304Y-119304621D01*
X97211160Y-119391391D01*
X97314544Y-119469002D01*
X97433365Y-119535983D01*
X97566528Y-119590859D01*
X97576997Y-119594423D01*
X97656852Y-119618909D01*
X97731998Y-119636303D01*
X97808715Y-119647415D01*
X97893290Y-119653053D01*
X97992003Y-119654028D01*
X98034636Y-119653341D01*
X98112848Y-119651127D01*
X98174050Y-119647841D01*
X98224321Y-119642791D01*
X98269739Y-119635286D01*
X98316383Y-119624634D01*
X98339248Y-119618667D01*
X98480280Y-119572409D01*
X98607990Y-119513494D01*
X98721255Y-119443288D01*
X98818952Y-119363159D01*
X98899960Y-119274475D01*
X98963155Y-119178601D01*
X99007416Y-119076906D01*
X99031619Y-118970757D01*
X99034643Y-118861520D01*
X99023770Y-118784954D01*
X98988557Y-118673780D01*
X98932382Y-118569313D01*
X98856726Y-118472836D01*
X98763074Y-118385635D01*
X98652907Y-118308997D01*
X98527709Y-118244206D01*
X98388962Y-118192548D01*
X98317435Y-118172657D01*
X98265651Y-118160373D01*
X98220998Y-118151717D01*
X98177290Y-118146071D01*
X98128345Y-118142820D01*
X98067978Y-118141348D01*
X98000000Y-118141035D01*
X97924172Y-118141454D01*
X97865222Y-118143121D01*
X97816945Y-118146649D01*
X97773138Y-118152654D01*
X97727596Y-118161749D01*
X97682500Y-118172464D01*
X97537806Y-118217080D01*
X97405922Y-118275533D01*
X97288332Y-118346534D01*
X97186518Y-118428798D01*
X97101965Y-118521038D01*
X97036156Y-118621968D01*
X96990574Y-118730302D01*
X96976230Y-118784954D01*
X96964040Y-118895419D01*
X96913459Y-118895419D01*
X96916615Y-118820109D01*
X96929268Y-118745900D01*
X96953329Y-118672422D01*
X96981455Y-118609279D01*
X97019793Y-118544292D01*
X97072801Y-118474153D01*
X97135018Y-118405016D01*
X97200982Y-118343036D01*
X97254621Y-118301468D01*
X97318123Y-118257732D01*
X97288693Y-118210343D01*
X97224618Y-118087960D01*
X97184192Y-117972455D01*
X97172388Y-117909787D01*
X97165198Y-117831715D01*
X97162617Y-117745462D01*
X97164642Y-117658249D01*
X97171267Y-117577298D01*
X97182490Y-117509829D01*
X97184453Y-117501771D01*
X97205952Y-117417860D01*
X97176192Y-117394450D01*
X97144897Y-117356554D01*
X97131127Y-117310078D01*
X97132270Y-117293355D01*
X97180273Y-117293355D01*
X97189793Y-117320115D01*
X97213029Y-117347132D01*
X97241995Y-117366780D01*
X97262708Y-117372091D01*
X97289388Y-117364409D01*
X97315188Y-117346988D01*
X97336956Y-117313487D01*
X97340001Y-117277009D01*
X97326694Y-117243629D01*
X97299404Y-117219423D01*
X97261929Y-117210455D01*
X97228815Y-117220588D01*
X97199759Y-117245871D01*
X97182319Y-117278631D01*
X97180273Y-117293355D01*
X97132270Y-117293355D01*
X97134482Y-117260995D01*
X97154561Y-117215281D01*
X97190639Y-117179127D01*
X97235769Y-117157224D01*
X97280150Y-117155593D01*
X97324840Y-117170938D01*
X97360827Y-117199189D01*
X97387568Y-117241053D01*
X97399436Y-117287339D01*
X97399593Y-117293018D01*
X97389292Y-117335048D01*
X97362265Y-117375474D01*
X97324138Y-117406889D01*
X97306671Y-117415417D01*
X97278105Y-117429314D01*
X97260289Y-117447830D01*
X97246674Y-117478772D01*
X97242249Y-117492216D01*
X97230692Y-117544140D01*
X97222568Y-117612171D01*
X97218052Y-117689554D01*
X97217322Y-117769535D01*
X97220553Y-117845360D01*
X97227923Y-117910275D01*
X97230896Y-117926273D01*
X97242704Y-117969706D01*
X97260960Y-118021690D01*
X97283226Y-118076706D01*
X97307064Y-118129238D01*
X97330036Y-118173769D01*
X97349702Y-118204781D01*
X97358025Y-118213911D01*
X97376069Y-118215922D01*
X97412586Y-118206792D01*
X97468325Y-118186330D01*
X97471124Y-118185209D01*
X97643658Y-118128002D01*
X97818957Y-118093434D01*
X97995575Y-118081505D01*
X98172062Y-118092214D01*
X98346972Y-118125560D01*
X98518857Y-118181543D01*
X98529286Y-118185721D01*
X98629227Y-118226196D01*
X98652693Y-118197536D01*
X98675511Y-118166002D01*
X98706046Y-118118665D01*
X98741548Y-118060305D01*
X98779269Y-117995701D01*
X98816461Y-117929633D01*
X98850376Y-117866882D01*
X98878263Y-117812228D01*
X98894974Y-117776182D01*
X98952283Y-117615435D01*
X98993139Y-117441550D01*
X99017692Y-117257437D01*
X99026091Y-117066006D01*
X99018488Y-116870166D01*
X98995032Y-116672826D01*
X98955874Y-116476897D01*
X98901163Y-116285288D01*
X98831050Y-116100908D01*
X98805599Y-116044364D01*
X98782039Y-115994997D01*
X98764405Y-115962296D01*
X98749165Y-115941861D01*
X98732786Y-115929291D01*
X98711739Y-115920188D01*
X98703660Y-115917364D01*
X98659252Y-115893175D01*
X98624129Y-115857209D01*
X98603562Y-115815794D01*
X98600364Y-115793288D01*
X98604074Y-115775694D01*
X98659665Y-115775694D01*
X98662521Y-115811046D01*
X98683492Y-115842990D01*
X98688511Y-115847253D01*
X98725237Y-115867768D01*
X98758193Y-115866362D01*
X98791365Y-115842866D01*
X98791388Y-115842843D01*
X98814899Y-115809669D01*
X98816319Y-115776715D01*
X98795819Y-115739993D01*
X98795798Y-115739966D01*
X98763930Y-115714496D01*
X98738071Y-115709546D01*
X98699613Y-115718908D01*
X98672753Y-115742969D01*
X98659665Y-115775694D01*
X98604074Y-115775694D01*
X98611034Y-115742695D01*
X98639695Y-115698985D01*
X98681320Y-115667184D01*
X98730884Y-115652318D01*
X98741833Y-115651819D01*
X98781124Y-115661728D01*
G36*
X104099744Y-121419918D02*
G01*
X104155201Y-121447568D01*
X104204148Y-121498480D01*
X104217629Y-121517338D01*
X104232314Y-121542015D01*
X104241842Y-121568816D01*
X104247293Y-121604587D01*
X104249747Y-121656169D01*
X104250286Y-121724267D01*
X104247852Y-121817588D01*
X104239394Y-121887657D01*
X104223174Y-121939931D01*
X104197454Y-121979869D01*
X104160497Y-122012929D01*
X104157782Y-122014886D01*
X104121360Y-122034908D01*
X104077502Y-122044815D01*
X104021724Y-122047257D01*
X103931048Y-122047257D01*
X103931010Y-122135283D01*
X103930166Y-122184308D01*
X103925024Y-122213065D01*
X103911587Y-122230311D01*
X103885858Y-122244808D01*
X103879679Y-122247769D01*
X103850764Y-122261648D01*
X103828376Y-122270414D01*
X103811729Y-122271171D01*
X103800036Y-122261023D01*
X103792510Y-122237073D01*
X103788366Y-122196426D01*
X103786815Y-122136186D01*
X103787071Y-122053455D01*
X103788349Y-121945339D01*
X103788748Y-121913000D01*
X103790185Y-121801524D01*
X103791472Y-121728603D01*
X103930971Y-121728603D01*
X103931755Y-121790499D01*
X103935240Y-121830997D01*
X103943124Y-121857708D01*
X103957105Y-121878244D01*
X103966597Y-121888260D01*
X104005404Y-121917567D01*
X104039763Y-121919952D01*
X104075216Y-121895750D01*
X104076114Y-121894857D01*
X104090539Y-121876153D01*
X104099313Y-121850732D01*
X104103739Y-121811584D01*
X104105118Y-121751697D01*
X104105143Y-121738430D01*
X104101812Y-121655901D01*
X104090969Y-121598691D01*
X104071340Y-121563766D01*
X104041650Y-121548094D01*
X104024491Y-121546514D01*
X103983766Y-121553926D01*
X103955832Y-121578330D01*
X103939017Y-121622980D01*
X103931650Y-121691130D01*
X103930971Y-121728603D01*
X103791472Y-121728603D01*
X103791708Y-121715245D01*
X103793677Y-121650333D01*
X103796450Y-121602958D01*
X103800388Y-121569290D01*
X103805849Y-121545498D01*
X103813192Y-121527753D01*
X103822777Y-121512224D01*
X103826887Y-121506381D01*
X103881405Y-121451185D01*
X103950336Y-121419890D01*
X104030072Y-121411165D01*
X104099744Y-121419918D01*
G37*
X104099744Y-121419918D02*
X104155201Y-121447568D01*
X104204148Y-121498480D01*
X104217629Y-121517338D01*
X104232314Y-121542015D01*
X104241842Y-121568816D01*
X104247293Y-121604587D01*
X104249747Y-121656169D01*
X104250286Y-121724267D01*
X104247852Y-121817588D01*
X104239394Y-121887657D01*
X104223174Y-121939931D01*
X104197454Y-121979869D01*
X104160497Y-122012929D01*
X104157782Y-122014886D01*
X104121360Y-122034908D01*
X104077502Y-122044815D01*
X104021724Y-122047257D01*
X103931048Y-122047257D01*
X103931010Y-122135283D01*
X103930166Y-122184308D01*
X103925024Y-122213065D01*
X103911587Y-122230311D01*
X103885858Y-122244808D01*
X103879679Y-122247769D01*
X103850764Y-122261648D01*
X103828376Y-122270414D01*
X103811729Y-122271171D01*
X103800036Y-122261023D01*
X103792510Y-122237073D01*
X103788366Y-122196426D01*
X103786815Y-122136186D01*
X103787071Y-122053455D01*
X103788349Y-121945339D01*
X103788748Y-121913000D01*
X103790185Y-121801524D01*
X103791472Y-121728603D01*
X103930971Y-121728603D01*
X103931755Y-121790499D01*
X103935240Y-121830997D01*
X103943124Y-121857708D01*
X103957105Y-121878244D01*
X103966597Y-121888260D01*
X104005404Y-121917567D01*
X104039763Y-121919952D01*
X104075216Y-121895750D01*
X104076114Y-121894857D01*
X104090539Y-121876153D01*
X104099313Y-121850732D01*
X104103739Y-121811584D01*
X104105118Y-121751697D01*
X104105143Y-121738430D01*
X104101812Y-121655901D01*
X104090969Y-121598691D01*
X104071340Y-121563766D01*
X104041650Y-121548094D01*
X104024491Y-121546514D01*
X103983766Y-121553926D01*
X103955832Y-121578330D01*
X103939017Y-121622980D01*
X103931650Y-121691130D01*
X103930971Y-121728603D01*
X103791472Y-121728603D01*
X103791708Y-121715245D01*
X103793677Y-121650333D01*
X103796450Y-121602958D01*
X103800388Y-121569290D01*
X103805849Y-121545498D01*
X103813192Y-121527753D01*
X103822777Y-121512224D01*
X103826887Y-121506381D01*
X103881405Y-121451185D01*
X103950336Y-121419890D01*
X104030072Y-121411165D01*
X104099744Y-121419918D01*
G36*
X105216093Y-121427780D02*
G01*
X105262672Y-121454723D01*
X105295057Y-121481466D01*
X105318742Y-121509484D01*
X105335059Y-121543748D01*
X105345339Y-121589227D01*
X105350914Y-121650892D01*
X105353116Y-121733711D01*
X105353371Y-121793246D01*
X105353371Y-122012391D01*
X105291686Y-122040044D01*
X105230000Y-122067697D01*
X105222743Y-121827670D01*
X105219744Y-121738028D01*
X105216598Y-121672962D01*
X105212701Y-121628026D01*
X105207447Y-121598770D01*
X105200231Y-121580748D01*
X105190450Y-121569511D01*
X105187312Y-121567079D01*
X105139761Y-121548083D01*
X105091697Y-121555600D01*
X105063086Y-121575543D01*
X105051447Y-121589675D01*
X105043391Y-121608220D01*
X105038271Y-121636334D01*
X105035441Y-121679173D01*
X105034256Y-121741895D01*
X105034057Y-121807261D01*
X105034018Y-121889268D01*
X105032614Y-121947316D01*
X105027914Y-121986465D01*
X105017987Y-122011780D01*
X105000903Y-122028323D01*
X104974732Y-122041156D01*
X104939775Y-122054491D01*
X104901596Y-122069007D01*
X104906141Y-121811389D01*
X104907971Y-121718519D01*
X104910112Y-121649889D01*
X104913181Y-121600711D01*
X104917794Y-121566198D01*
X104924568Y-121541562D01*
X104934119Y-121522016D01*
X104945634Y-121504770D01*
X105001190Y-121449680D01*
X105068980Y-121417822D01*
X105142713Y-121410191D01*
X105216093Y-121427780D01*
G37*
X105216093Y-121427780D02*
X105262672Y-121454723D01*
X105295057Y-121481466D01*
X105318742Y-121509484D01*
X105335059Y-121543748D01*
X105345339Y-121589227D01*
X105350914Y-121650892D01*
X105353116Y-121733711D01*
X105353371Y-121793246D01*
X105353371Y-122012391D01*
X105291686Y-122040044D01*
X105230000Y-122067697D01*
X105222743Y-121827670D01*
X105219744Y-121738028D01*
X105216598Y-121672962D01*
X105212701Y-121628026D01*
X105207447Y-121598770D01*
X105200231Y-121580748D01*
X105190450Y-121569511D01*
X105187312Y-121567079D01*
X105139761Y-121548083D01*
X105091697Y-121555600D01*
X105063086Y-121575543D01*
X105051447Y-121589675D01*
X105043391Y-121608220D01*
X105038271Y-121636334D01*
X105035441Y-121679173D01*
X105034256Y-121741895D01*
X105034057Y-121807261D01*
X105034018Y-121889268D01*
X105032614Y-121947316D01*
X105027914Y-121986465D01*
X105017987Y-122011780D01*
X105000903Y-122028323D01*
X104974732Y-122041156D01*
X104939775Y-122054491D01*
X104901596Y-122069007D01*
X104906141Y-121811389D01*
X104907971Y-121718519D01*
X104910112Y-121649889D01*
X104913181Y-121600711D01*
X104917794Y-121566198D01*
X104924568Y-121541562D01*
X104934119Y-121522016D01*
X104945634Y-121504770D01*
X105001190Y-121449680D01*
X105068980Y-121417822D01*
X105142713Y-121410191D01*
X105216093Y-121427780D01*
G36*
X103541115Y-121421962D02*
G01*
X103609145Y-121457733D01*
X103659351Y-121515301D01*
X103677185Y-121552312D01*
X103691063Y-121607882D01*
X103698167Y-121678096D01*
X103698840Y-121754727D01*
X103693427Y-121829552D01*
X103682270Y-121894342D01*
X103665714Y-121940873D01*
X103660626Y-121948887D01*
X103600355Y-122008707D01*
X103528769Y-122044535D01*
X103451092Y-122055020D01*
X103372548Y-122038810D01*
X103350689Y-122029092D01*
X103308122Y-121999143D01*
X103270763Y-121959433D01*
X103267232Y-121954397D01*
X103252881Y-121930124D01*
X103243394Y-121904178D01*
X103237790Y-121870022D01*
X103235086Y-121821119D01*
X103234299Y-121750935D01*
X103234286Y-121735200D01*
X103234322Y-121730192D01*
X103379429Y-121730192D01*
X103380273Y-121796430D01*
X103383596Y-121840386D01*
X103390583Y-121868779D01*
X103402416Y-121888325D01*
X103408457Y-121894857D01*
X103443186Y-121919680D01*
X103476903Y-121918548D01*
X103510995Y-121897016D01*
X103531329Y-121874029D01*
X103543371Y-121840478D01*
X103550134Y-121787569D01*
X103550598Y-121781399D01*
X103551752Y-121685513D01*
X103539688Y-121614299D01*
X103514570Y-121568194D01*
X103476560Y-121547635D01*
X103462992Y-121546514D01*
X103427364Y-121552152D01*
X103402994Y-121571686D01*
X103388093Y-121609042D01*
X103380875Y-121668150D01*
X103379429Y-121730192D01*
X103234322Y-121730192D01*
X103234826Y-121660413D01*
X103237096Y-121608159D01*
X103242068Y-121571949D01*
X103250713Y-121545299D01*
X103264005Y-121521722D01*
X103266943Y-121517338D01*
X103316313Y-121458249D01*
X103370109Y-121423947D01*
X103435602Y-121410331D01*
X103457842Y-121409665D01*
X103541115Y-121421962D01*
G37*
X103541115Y-121421962D02*
X103609145Y-121457733D01*
X103659351Y-121515301D01*
X103677185Y-121552312D01*
X103691063Y-121607882D01*
X103698167Y-121678096D01*
X103698840Y-121754727D01*
X103693427Y-121829552D01*
X103682270Y-121894342D01*
X103665714Y-121940873D01*
X103660626Y-121948887D01*
X103600355Y-122008707D01*
X103528769Y-122044535D01*
X103451092Y-122055020D01*
X103372548Y-122038810D01*
X103350689Y-122029092D01*
X103308122Y-121999143D01*
X103270763Y-121959433D01*
X103267232Y-121954397D01*
X103252881Y-121930124D01*
X103243394Y-121904178D01*
X103237790Y-121870022D01*
X103235086Y-121821119D01*
X103234299Y-121750935D01*
X103234286Y-121735200D01*
X103234322Y-121730192D01*
X103379429Y-121730192D01*
X103380273Y-121796430D01*
X103383596Y-121840386D01*
X103390583Y-121868779D01*
X103402416Y-121888325D01*
X103408457Y-121894857D01*
X103443186Y-121919680D01*
X103476903Y-121918548D01*
X103510995Y-121897016D01*
X103531329Y-121874029D01*
X103543371Y-121840478D01*
X103550134Y-121787569D01*
X103550598Y-121781399D01*
X103551752Y-121685513D01*
X103539688Y-121614299D01*
X103514570Y-121568194D01*
X103476560Y-121547635D01*
X103462992Y-121546514D01*
X103427364Y-121552152D01*
X103402994Y-121571686D01*
X103388093Y-121609042D01*
X103380875Y-121668150D01*
X103379429Y-121730192D01*
X103234322Y-121730192D01*
X103234826Y-121660413D01*
X103237096Y-121608159D01*
X103242068Y-121571949D01*
X103250713Y-121545299D01*
X103264005Y-121521722D01*
X103266943Y-121517338D01*
X103316313Y-121458249D01*
X103370109Y-121423947D01*
X103435602Y-121410331D01*
X103457842Y-121409665D01*
X103541115Y-121421962D01*
G36*
X104668303Y-121431239D02*
G01*
X104725527Y-121469735D01*
X104769749Y-121525335D01*
X104796167Y-121596086D01*
X104801510Y-121648162D01*
X104800903Y-121669893D01*
X104795822Y-121686531D01*
X104781855Y-121701437D01*
X104754589Y-121717973D01*
X104709612Y-121739498D01*
X104642511Y-121769374D01*
X104642171Y-121769524D01*
X104580407Y-121797813D01*
X104529759Y-121822933D01*
X104495404Y-121842179D01*
X104482518Y-121852848D01*
X104482514Y-121852934D01*
X104493872Y-121876166D01*
X104520431Y-121901774D01*
X104550923Y-121920221D01*
X104566370Y-121923886D01*
X104608515Y-121911212D01*
X104644808Y-121879471D01*
X104662517Y-121844572D01*
X104679552Y-121818845D01*
X104712922Y-121789546D01*
X104752149Y-121764235D01*
X104786756Y-121750471D01*
X104793993Y-121749714D01*
X104802139Y-121762160D01*
X104802630Y-121793972D01*
X104796643Y-121836866D01*
X104785357Y-121882558D01*
X104769950Y-121922761D01*
X104769171Y-121924322D01*
X104722804Y-121989062D01*
X104662711Y-122033097D01*
X104594465Y-122054711D01*
X104523638Y-122052185D01*
X104455804Y-122023804D01*
X104452788Y-122021808D01*
X104399427Y-121973448D01*
X104364340Y-121910352D01*
X104344922Y-121827387D01*
X104342316Y-121804078D01*
X104337701Y-121694055D01*
X104343233Y-121642748D01*
X104482514Y-121642748D01*
X104484324Y-121674753D01*
X104494222Y-121684093D01*
X104518898Y-121677105D01*
X104557795Y-121660587D01*
X104601275Y-121639881D01*
X104602356Y-121639333D01*
X104639209Y-121619949D01*
X104654000Y-121607013D01*
X104650353Y-121593451D01*
X104634995Y-121575632D01*
X104595923Y-121549845D01*
X104553846Y-121547950D01*
X104516103Y-121566717D01*
X104490034Y-121602915D01*
X104482514Y-121642748D01*
X104343233Y-121642748D01*
X104347194Y-121606027D01*
X104371550Y-121536212D01*
X104405456Y-121487302D01*
X104466653Y-121437878D01*
X104534063Y-121413359D01*
X104602880Y-121411797D01*
X104668303Y-121431239D01*
G37*
X104668303Y-121431239D02*
X104725527Y-121469735D01*
X104769749Y-121525335D01*
X104796167Y-121596086D01*
X104801510Y-121648162D01*
X104800903Y-121669893D01*
X104795822Y-121686531D01*
X104781855Y-121701437D01*
X104754589Y-121717973D01*
X104709612Y-121739498D01*
X104642511Y-121769374D01*
X104642171Y-121769524D01*
X104580407Y-121797813D01*
X104529759Y-121822933D01*
X104495404Y-121842179D01*
X104482518Y-121852848D01*
X104482514Y-121852934D01*
X104493872Y-121876166D01*
X104520431Y-121901774D01*
X104550923Y-121920221D01*
X104566370Y-121923886D01*
X104608515Y-121911212D01*
X104644808Y-121879471D01*
X104662517Y-121844572D01*
X104679552Y-121818845D01*
X104712922Y-121789546D01*
X104752149Y-121764235D01*
X104786756Y-121750471D01*
X104793993Y-121749714D01*
X104802139Y-121762160D01*
X104802630Y-121793972D01*
X104796643Y-121836866D01*
X104785357Y-121882558D01*
X104769950Y-121922761D01*
X104769171Y-121924322D01*
X104722804Y-121989062D01*
X104662711Y-122033097D01*
X104594465Y-122054711D01*
X104523638Y-122052185D01*
X104455804Y-122023804D01*
X104452788Y-122021808D01*
X104399427Y-121973448D01*
X104364340Y-121910352D01*
X104344922Y-121827387D01*
X104342316Y-121804078D01*
X104337701Y-121694055D01*
X104343233Y-121642748D01*
X104482514Y-121642748D01*
X104484324Y-121674753D01*
X104494222Y-121684093D01*
X104518898Y-121677105D01*
X104557795Y-121660587D01*
X104601275Y-121639881D01*
X104602356Y-121639333D01*
X104639209Y-121619949D01*
X104654000Y-121607013D01*
X104650353Y-121593451D01*
X104634995Y-121575632D01*
X104595923Y-121549845D01*
X104553846Y-121547950D01*
X104516103Y-121566717D01*
X104490034Y-121602915D01*
X104482514Y-121642748D01*
X104343233Y-121642748D01*
X104347194Y-121606027D01*
X104371550Y-121536212D01*
X104405456Y-121487302D01*
X104466653Y-121437878D01*
X104534063Y-121413359D01*
X104602880Y-121411797D01*
X104668303Y-121431239D01*
G36*
X105875886Y-121351289D02*
G01*
X105880139Y-121410613D01*
X105885025Y-121445572D01*
X105891795Y-121460820D01*
X105901702Y-121461015D01*
X105904914Y-121459195D01*
X105947644Y-121446015D01*
X106003227Y-121446785D01*
X106059737Y-121460333D01*
X106095082Y-121477861D01*
X106131321Y-121505861D01*
X106157813Y-121537549D01*
X106175999Y-121577813D01*
X106187322Y-121631543D01*
X106193222Y-121703626D01*
X106195143Y-121798951D01*
X106195177Y-121817237D01*
X106195200Y-122022646D01*
X106149491Y-122038580D01*
X106117027Y-122049420D01*
X106099215Y-122054468D01*
X106098691Y-122054514D01*
X106096937Y-122040828D01*
X106095444Y-122003076D01*
X106094326Y-121946224D01*
X106093697Y-121875234D01*
X106093600Y-121832073D01*
X106093398Y-121746973D01*
X106092358Y-121685981D01*
X106089831Y-121644177D01*
X106085164Y-121616642D01*
X106077707Y-121598456D01*
X106066811Y-121584698D01*
X106060007Y-121578073D01*
X106013272Y-121551375D01*
X105962272Y-121549375D01*
X105916001Y-121571955D01*
X105907444Y-121580107D01*
X105894893Y-121595436D01*
X105886188Y-121613618D01*
X105880631Y-121639909D01*
X105877526Y-121679562D01*
X105876176Y-121737832D01*
X105875886Y-121818173D01*
X105875886Y-122022646D01*
X105830177Y-122038580D01*
X105797713Y-122049420D01*
X105779901Y-122054468D01*
X105779377Y-122054514D01*
X105778037Y-122040623D01*
X105776828Y-122001439D01*
X105775801Y-121940700D01*
X105775002Y-121862141D01*
X105774481Y-121769498D01*
X105774286Y-121666509D01*
X105774286Y-121269342D01*
X105821457Y-121249444D01*
X105868629Y-121229547D01*
X105875886Y-121351289D01*
G37*
X105875886Y-121351289D02*
X105880139Y-121410613D01*
X105885025Y-121445572D01*
X105891795Y-121460820D01*
X105901702Y-121461015D01*
X105904914Y-121459195D01*
X105947644Y-121446015D01*
X106003227Y-121446785D01*
X106059737Y-121460333D01*
X106095082Y-121477861D01*
X106131321Y-121505861D01*
X106157813Y-121537549D01*
X106175999Y-121577813D01*
X106187322Y-121631543D01*
X106193222Y-121703626D01*
X106195143Y-121798951D01*
X106195177Y-121817237D01*
X106195200Y-122022646D01*
X106149491Y-122038580D01*
X106117027Y-122049420D01*
X106099215Y-122054468D01*
X106098691Y-122054514D01*
X106096937Y-122040828D01*
X106095444Y-122003076D01*
X106094326Y-121946224D01*
X106093697Y-121875234D01*
X106093600Y-121832073D01*
X106093398Y-121746973D01*
X106092358Y-121685981D01*
X106089831Y-121644177D01*
X106085164Y-121616642D01*
X106077707Y-121598456D01*
X106066811Y-121584698D01*
X106060007Y-121578073D01*
X106013272Y-121551375D01*
X105962272Y-121549375D01*
X105916001Y-121571955D01*
X105907444Y-121580107D01*
X105894893Y-121595436D01*
X105886188Y-121613618D01*
X105880631Y-121639909D01*
X105877526Y-121679562D01*
X105876176Y-121737832D01*
X105875886Y-121818173D01*
X105875886Y-122022646D01*
X105830177Y-122038580D01*
X105797713Y-122049420D01*
X105779901Y-122054468D01*
X105779377Y-122054514D01*
X105778037Y-122040623D01*
X105776828Y-122001439D01*
X105775801Y-121940700D01*
X105775002Y-121862141D01*
X105774481Y-121769498D01*
X105774286Y-121666509D01*
X105774286Y-121269342D01*
X105821457Y-121249444D01*
X105868629Y-121229547D01*
X105875886Y-121351289D01*
G36*
X106539744Y-121450968D02*
G01*
X106596616Y-121472087D01*
X106597267Y-121472493D01*
X106632440Y-121498380D01*
X106658407Y-121528633D01*
X106676670Y-121568058D01*
X106688732Y-121621462D01*
X106696096Y-121693651D01*
X106700264Y-121789432D01*
X106700629Y-121803078D01*
X106705876Y-122008842D01*
X106661716Y-122031678D01*
X106629763Y-122047110D01*
X106610470Y-122054423D01*
X106609578Y-122054514D01*
X106606239Y-122041022D01*
X106603587Y-122004626D01*
X106601956Y-121951452D01*
X106601600Y-121908393D01*
X106601592Y-121838641D01*
X106598403Y-121794837D01*
X106587288Y-121773944D01*
X106563501Y-121772925D01*
X106522296Y-121788741D01*
X106460086Y-121817815D01*
X106414341Y-121841963D01*
X106390813Y-121862913D01*
X106383896Y-121885747D01*
X106383886Y-121886877D01*
X106395299Y-121926212D01*
X106429092Y-121947462D01*
X106480809Y-121950539D01*
X106518061Y-121950006D01*
X106537703Y-121960735D01*
X106549952Y-121986505D01*
X106557002Y-122019337D01*
X106546842Y-122037966D01*
X106543017Y-122040632D01*
X106507001Y-122051340D01*
X106456566Y-122052856D01*
X106404626Y-122045759D01*
X106367822Y-122032788D01*
X106316938Y-121989585D01*
X106288014Y-121929446D01*
X106282286Y-121882462D01*
X106286657Y-121840082D01*
X106302475Y-121805488D01*
X106333797Y-121774763D01*
X106384678Y-121743990D01*
X106459176Y-121709252D01*
X106463714Y-121707288D01*
X106530821Y-121676287D01*
X106572232Y-121650862D01*
X106589981Y-121628014D01*
X106586107Y-121604745D01*
X106562643Y-121578056D01*
X106555627Y-121571914D01*
X106508630Y-121548100D01*
X106459933Y-121549103D01*
X106417522Y-121572451D01*
X106389384Y-121615675D01*
X106386769Y-121624160D01*
X106361308Y-121665308D01*
X106329001Y-121685128D01*
X106282286Y-121704770D01*
X106282286Y-121653950D01*
X106296496Y-121580082D01*
X106338675Y-121512327D01*
X106360624Y-121489661D01*
X106410517Y-121460569D01*
X106473967Y-121447400D01*
X106539744Y-121450968D01*
G37*
X106539744Y-121450968D02*
X106596616Y-121472087D01*
X106597267Y-121472493D01*
X106632440Y-121498380D01*
X106658407Y-121528633D01*
X106676670Y-121568058D01*
X106688732Y-121621462D01*
X106696096Y-121693651D01*
X106700264Y-121789432D01*
X106700629Y-121803078D01*
X106705876Y-122008842D01*
X106661716Y-122031678D01*
X106629763Y-122047110D01*
X106610470Y-122054423D01*
X106609578Y-122054514D01*
X106606239Y-122041022D01*
X106603587Y-122004626D01*
X106601956Y-121951452D01*
X106601600Y-121908393D01*
X106601592Y-121838641D01*
X106598403Y-121794837D01*
X106587288Y-121773944D01*
X106563501Y-121772925D01*
X106522296Y-121788741D01*
X106460086Y-121817815D01*
X106414341Y-121841963D01*
X106390813Y-121862913D01*
X106383896Y-121885747D01*
X106383886Y-121886877D01*
X106395299Y-121926212D01*
X106429092Y-121947462D01*
X106480809Y-121950539D01*
X106518061Y-121950006D01*
X106537703Y-121960735D01*
X106549952Y-121986505D01*
X106557002Y-122019337D01*
X106546842Y-122037966D01*
X106543017Y-122040632D01*
X106507001Y-122051340D01*
X106456566Y-122052856D01*
X106404626Y-122045759D01*
X106367822Y-122032788D01*
X106316938Y-121989585D01*
X106288014Y-121929446D01*
X106282286Y-121882462D01*
X106286657Y-121840082D01*
X106302475Y-121805488D01*
X106333797Y-121774763D01*
X106384678Y-121743990D01*
X106459176Y-121709252D01*
X106463714Y-121707288D01*
X106530821Y-121676287D01*
X106572232Y-121650862D01*
X106589981Y-121628014D01*
X106586107Y-121604745D01*
X106562643Y-121578056D01*
X106555627Y-121571914D01*
X106508630Y-121548100D01*
X106459933Y-121549103D01*
X106417522Y-121572451D01*
X106389384Y-121615675D01*
X106386769Y-121624160D01*
X106361308Y-121665308D01*
X106329001Y-121685128D01*
X106282286Y-121704770D01*
X106282286Y-121653950D01*
X106296496Y-121580082D01*
X106338675Y-121512327D01*
X106360624Y-121489661D01*
X106410517Y-121460569D01*
X106473967Y-121447400D01*
X106539744Y-121450968D01*
G36*
X107029926Y-121449755D02*
G01*
X107095858Y-121474084D01*
X107149273Y-121517117D01*
X107170164Y-121547409D01*
X107192939Y-121602994D01*
X107192466Y-121643186D01*
X107168562Y-121670217D01*
X107159717Y-121674813D01*
X107121530Y-121689144D01*
X107102028Y-121685472D01*
X107095422Y-121661407D01*
X107095086Y-121648114D01*
X107082992Y-121599210D01*
X107051471Y-121564999D01*
X107007659Y-121548476D01*
X106958695Y-121552634D01*
X106918894Y-121574227D01*
X106905450Y-121586544D01*
X106895921Y-121601487D01*
X106889485Y-121624075D01*
X106885317Y-121659328D01*
X106882597Y-121712266D01*
X106880502Y-121787907D01*
X106879960Y-121811857D01*
X106877981Y-121893790D01*
X106875731Y-121951455D01*
X106872357Y-121989608D01*
X106867006Y-122013004D01*
X106858824Y-122026398D01*
X106846959Y-122034545D01*
X106839362Y-122038144D01*
X106807102Y-122050452D01*
X106788111Y-122054514D01*
X106781836Y-122040948D01*
X106778006Y-121999934D01*
X106776600Y-121930999D01*
X106777598Y-121833669D01*
X106777908Y-121818657D01*
X106780101Y-121729859D01*
X106782693Y-121665019D01*
X106786382Y-121619067D01*
X106791864Y-121586935D01*
X106799835Y-121563553D01*
X106810993Y-121543852D01*
X106816830Y-121535410D01*
X106850296Y-121498057D01*
X106887727Y-121469003D01*
X106892309Y-121466467D01*
X106959426Y-121446443D01*
X107029926Y-121449755D01*
G37*
X107029926Y-121449755D02*
X107095858Y-121474084D01*
X107149273Y-121517117D01*
X107170164Y-121547409D01*
X107192939Y-121602994D01*
X107192466Y-121643186D01*
X107168562Y-121670217D01*
X107159717Y-121674813D01*
X107121530Y-121689144D01*
X107102028Y-121685472D01*
X107095422Y-121661407D01*
X107095086Y-121648114D01*
X107082992Y-121599210D01*
X107051471Y-121564999D01*
X107007659Y-121548476D01*
X106958695Y-121552634D01*
X106918894Y-121574227D01*
X106905450Y-121586544D01*
X106895921Y-121601487D01*
X106889485Y-121624075D01*
X106885317Y-121659328D01*
X106882597Y-121712266D01*
X106880502Y-121787907D01*
X106879960Y-121811857D01*
X106877981Y-121893790D01*
X106875731Y-121951455D01*
X106872357Y-121989608D01*
X106867006Y-122013004D01*
X106858824Y-122026398D01*
X106846959Y-122034545D01*
X106839362Y-122038144D01*
X106807102Y-122050452D01*
X106788111Y-122054514D01*
X106781836Y-122040948D01*
X106778006Y-121999934D01*
X106776600Y-121930999D01*
X106777598Y-121833669D01*
X106777908Y-121818657D01*
X106780101Y-121729859D01*
X106782693Y-121665019D01*
X106786382Y-121619067D01*
X106791864Y-121586935D01*
X106799835Y-121563553D01*
X106810993Y-121543852D01*
X106816830Y-121535410D01*
X106850296Y-121498057D01*
X106887727Y-121469003D01*
X106892309Y-121466467D01*
X106959426Y-121446443D01*
X107029926Y-121449755D01*
G36*
X107690117Y-121565358D02*
G01*
X107689933Y-121673837D01*
X107689219Y-121757287D01*
X107687675Y-121819704D01*
X107685001Y-121865085D01*
X107680894Y-121897429D01*
X107675055Y-121920733D01*
X107667182Y-121938995D01*
X107661221Y-121949418D01*
X107611855Y-122005945D01*
X107549264Y-122041377D01*
X107480013Y-122054090D01*
X107410668Y-122042463D01*
X107369375Y-122021568D01*
X107326025Y-121985422D01*
X107296481Y-121941276D01*
X107278655Y-121883462D01*
X107270463Y-121806313D01*
X107269302Y-121749714D01*
X107269458Y-121745647D01*
X107370857Y-121745647D01*
X107371476Y-121810550D01*
X107374314Y-121853514D01*
X107380840Y-121881622D01*
X107392523Y-121901953D01*
X107406483Y-121917288D01*
X107453365Y-121946890D01*
X107503701Y-121949419D01*
X107551276Y-121924705D01*
X107554979Y-121921356D01*
X107570783Y-121903935D01*
X107580693Y-121883209D01*
X107586058Y-121852362D01*
X107588228Y-121804577D01*
X107588571Y-121751748D01*
X107587827Y-121685381D01*
X107584748Y-121641106D01*
X107578061Y-121612009D01*
X107566496Y-121591173D01*
X107557013Y-121580107D01*
X107512960Y-121552198D01*
X107462224Y-121548843D01*
X107413796Y-121570159D01*
X107404450Y-121578073D01*
X107388540Y-121595647D01*
X107378610Y-121616587D01*
X107373278Y-121647782D01*
X107371163Y-121696122D01*
X107370857Y-121745647D01*
X107269458Y-121745647D01*
X107272810Y-121658568D01*
X107284726Y-121590086D01*
X107307135Y-121538600D01*
X107342124Y-121498443D01*
X107369375Y-121477861D01*
X107418907Y-121455625D01*
X107476316Y-121445304D01*
X107529682Y-121448067D01*
X107559543Y-121459212D01*
X107571261Y-121462383D01*
X107579037Y-121450557D01*
X107584465Y-121418866D01*
X107588571Y-121370593D01*
X107593067Y-121316829D01*
X107599313Y-121284482D01*
X107610676Y-121265985D01*
X107630528Y-121253770D01*
X107643000Y-121248362D01*
X107690171Y-121228601D01*
X107690117Y-121565358D01*
G37*
X107690117Y-121565358D02*
X107689933Y-121673837D01*
X107689219Y-121757287D01*
X107687675Y-121819704D01*
X107685001Y-121865085D01*
X107680894Y-121897429D01*
X107675055Y-121920733D01*
X107667182Y-121938995D01*
X107661221Y-121949418D01*
X107611855Y-122005945D01*
X107549264Y-122041377D01*
X107480013Y-122054090D01*
X107410668Y-122042463D01*
X107369375Y-122021568D01*
X107326025Y-121985422D01*
X107296481Y-121941276D01*
X107278655Y-121883462D01*
X107270463Y-121806313D01*
X107269302Y-121749714D01*
X107269458Y-121745647D01*
X107370857Y-121745647D01*
X107371476Y-121810550D01*
X107374314Y-121853514D01*
X107380840Y-121881622D01*
X107392523Y-121901953D01*
X107406483Y-121917288D01*
X107453365Y-121946890D01*
X107503701Y-121949419D01*
X107551276Y-121924705D01*
X107554979Y-121921356D01*
X107570783Y-121903935D01*
X107580693Y-121883209D01*
X107586058Y-121852362D01*
X107588228Y-121804577D01*
X107588571Y-121751748D01*
X107587827Y-121685381D01*
X107584748Y-121641106D01*
X107578061Y-121612009D01*
X107566496Y-121591173D01*
X107557013Y-121580107D01*
X107512960Y-121552198D01*
X107462224Y-121548843D01*
X107413796Y-121570159D01*
X107404450Y-121578073D01*
X107388540Y-121595647D01*
X107378610Y-121616587D01*
X107373278Y-121647782D01*
X107371163Y-121696122D01*
X107370857Y-121745647D01*
X107269458Y-121745647D01*
X107272810Y-121658568D01*
X107284726Y-121590086D01*
X107307135Y-121538600D01*
X107342124Y-121498443D01*
X107369375Y-121477861D01*
X107418907Y-121455625D01*
X107476316Y-121445304D01*
X107529682Y-121448067D01*
X107559543Y-121459212D01*
X107571261Y-121462383D01*
X107579037Y-121450557D01*
X107584465Y-121418866D01*
X107588571Y-121370593D01*
X107593067Y-121316829D01*
X107599313Y-121284482D01*
X107610676Y-121265985D01*
X107630528Y-121253770D01*
X107643000Y-121248362D01*
X107690171Y-121228601D01*
X107690117Y-121565358D01*
G36*
X108279833Y-121458663D02*
G01*
X108282048Y-121496850D01*
X108283784Y-121554886D01*
X108284899Y-121628180D01*
X108285257Y-121705055D01*
X108285257Y-121965196D01*
X108239326Y-122011127D01*
X108207675Y-122039429D01*
X108179890Y-122050893D01*
X108141915Y-122050168D01*
X108126840Y-122048321D01*
X108079726Y-122042948D01*
X108040756Y-122039869D01*
X108031257Y-122039585D01*
X107999233Y-122041445D01*
X107953432Y-122046114D01*
X107935674Y-122048321D01*
X107892057Y-122051735D01*
X107862745Y-122044320D01*
X107833680Y-122021427D01*
X107823188Y-122011127D01*
X107777257Y-121965196D01*
X107777257Y-121478602D01*
X107814226Y-121461758D01*
X107846059Y-121449282D01*
X107864683Y-121444914D01*
X107869458Y-121458718D01*
X107873921Y-121497286D01*
X107877775Y-121556356D01*
X107880722Y-121631663D01*
X107882143Y-121695286D01*
X107886114Y-121945657D01*
X107920759Y-121950556D01*
X107952268Y-121947131D01*
X107967708Y-121936041D01*
X107972023Y-121915308D01*
X107975708Y-121871145D01*
X107978469Y-121809146D01*
X107980012Y-121734909D01*
X107980235Y-121696706D01*
X107980457Y-121476783D01*
X108026166Y-121460849D01*
X108058518Y-121450015D01*
X108076115Y-121444962D01*
X108076623Y-121444914D01*
X108078388Y-121458648D01*
X108080329Y-121496730D01*
X108082282Y-121554482D01*
X108084084Y-121627227D01*
X108085343Y-121695286D01*
X108089314Y-121945657D01*
X108176400Y-121945657D01*
X108180396Y-121717240D01*
X108184392Y-121488822D01*
X108226847Y-121466868D01*
X108258192Y-121451793D01*
X108276744Y-121444951D01*
X108277279Y-121444914D01*
X108279833Y-121458663D01*
G37*
X108279833Y-121458663D02*
X108282048Y-121496850D01*
X108283784Y-121554886D01*
X108284899Y-121628180D01*
X108285257Y-121705055D01*
X108285257Y-121965196D01*
X108239326Y-122011127D01*
X108207675Y-122039429D01*
X108179890Y-122050893D01*
X108141915Y-122050168D01*
X108126840Y-122048321D01*
X108079726Y-122042948D01*
X108040756Y-122039869D01*
X108031257Y-122039585D01*
X107999233Y-122041445D01*
X107953432Y-122046114D01*
X107935674Y-122048321D01*
X107892057Y-122051735D01*
X107862745Y-122044320D01*
X107833680Y-122021427D01*
X107823188Y-122011127D01*
X107777257Y-121965196D01*
X107777257Y-121478602D01*
X107814226Y-121461758D01*
X107846059Y-121449282D01*
X107864683Y-121444914D01*
X107869458Y-121458718D01*
X107873921Y-121497286D01*
X107877775Y-121556356D01*
X107880722Y-121631663D01*
X107882143Y-121695286D01*
X107886114Y-121945657D01*
X107920759Y-121950556D01*
X107952268Y-121947131D01*
X107967708Y-121936041D01*
X107972023Y-121915308D01*
X107975708Y-121871145D01*
X107978469Y-121809146D01*
X107980012Y-121734909D01*
X107980235Y-121696706D01*
X107980457Y-121476783D01*
X108026166Y-121460849D01*
X108058518Y-121450015D01*
X108076115Y-121444962D01*
X108076623Y-121444914D01*
X108078388Y-121458648D01*
X108080329Y-121496730D01*
X108082282Y-121554482D01*
X108084084Y-121627227D01*
X108085343Y-121695286D01*
X108089314Y-121945657D01*
X108176400Y-121945657D01*
X108180396Y-121717240D01*
X108184392Y-121488822D01*
X108226847Y-121466868D01*
X108258192Y-121451793D01*
X108276744Y-121444951D01*
X108277279Y-121444914D01*
X108279833Y-121458663D01*
G36*
X108644876Y-121456335D02*
G01*
X108686667Y-121475344D01*
X108719469Y-121498378D01*
X108743503Y-121524133D01*
X108760097Y-121557358D01*
X108770577Y-121602800D01*
X108776271Y-121665207D01*
X108778507Y-121749327D01*
X108778743Y-121804721D01*
X108778743Y-122020826D01*
X108741774Y-122037670D01*
X108712656Y-122049981D01*
X108698231Y-122054514D01*
X108695472Y-122041025D01*
X108693282Y-122004653D01*
X108691942Y-121951542D01*
X108691657Y-121909372D01*
X108690434Y-121848447D01*
X108687136Y-121800115D01*
X108682321Y-121770518D01*
X108678496Y-121764229D01*
X108652783Y-121770652D01*
X108612418Y-121787125D01*
X108565679Y-121809458D01*
X108520845Y-121833457D01*
X108486193Y-121854930D01*
X108470002Y-121869685D01*
X108469938Y-121869845D01*
X108471330Y-121897152D01*
X108483818Y-121923219D01*
X108505743Y-121944392D01*
X108537743Y-121951474D01*
X108565092Y-121950649D01*
X108603826Y-121950042D01*
X108624158Y-121959116D01*
X108636369Y-121983092D01*
X108637909Y-121987613D01*
X108643203Y-122021806D01*
X108629047Y-122042568D01*
X108592148Y-122052462D01*
X108552289Y-122054292D01*
X108480562Y-122040727D01*
X108443432Y-122021355D01*
X108397576Y-121975845D01*
X108373256Y-121919983D01*
X108371073Y-121860957D01*
X108391629Y-121805953D01*
X108422549Y-121771486D01*
X108453420Y-121752189D01*
X108501942Y-121727759D01*
X108558485Y-121702985D01*
X108567910Y-121699199D01*
X108630019Y-121671791D01*
X108665822Y-121647634D01*
X108677337Y-121623619D01*
X108666580Y-121596635D01*
X108648114Y-121575543D01*
X108604469Y-121549572D01*
X108556446Y-121547624D01*
X108512406Y-121567637D01*
X108480709Y-121607551D01*
X108476549Y-121617848D01*
X108452327Y-121655724D01*
X108416965Y-121683842D01*
X108372343Y-121706917D01*
X108372343Y-121641485D01*
X108374969Y-121601506D01*
X108386230Y-121569997D01*
X108411199Y-121536378D01*
X108435169Y-121510484D01*
X108472441Y-121473817D01*
X108501401Y-121454121D01*
X108532505Y-121446220D01*
X108567713Y-121444914D01*
X108644876Y-121456335D01*
G37*
X108644876Y-121456335D02*
X108686667Y-121475344D01*
X108719469Y-121498378D01*
X108743503Y-121524133D01*
X108760097Y-121557358D01*
X108770577Y-121602800D01*
X108776271Y-121665207D01*
X108778507Y-121749327D01*
X108778743Y-121804721D01*
X108778743Y-122020826D01*
X108741774Y-122037670D01*
X108712656Y-122049981D01*
X108698231Y-122054514D01*
X108695472Y-122041025D01*
X108693282Y-122004653D01*
X108691942Y-121951542D01*
X108691657Y-121909372D01*
X108690434Y-121848447D01*
X108687136Y-121800115D01*
X108682321Y-121770518D01*
X108678496Y-121764229D01*
X108652783Y-121770652D01*
X108612418Y-121787125D01*
X108565679Y-121809458D01*
X108520845Y-121833457D01*
X108486193Y-121854930D01*
X108470002Y-121869685D01*
X108469938Y-121869845D01*
X108471330Y-121897152D01*
X108483818Y-121923219D01*
X108505743Y-121944392D01*
X108537743Y-121951474D01*
X108565092Y-121950649D01*
X108603826Y-121950042D01*
X108624158Y-121959116D01*
X108636369Y-121983092D01*
X108637909Y-121987613D01*
X108643203Y-122021806D01*
X108629047Y-122042568D01*
X108592148Y-122052462D01*
X108552289Y-122054292D01*
X108480562Y-122040727D01*
X108443432Y-122021355D01*
X108397576Y-121975845D01*
X108373256Y-121919983D01*
X108371073Y-121860957D01*
X108391629Y-121805953D01*
X108422549Y-121771486D01*
X108453420Y-121752189D01*
X108501942Y-121727759D01*
X108558485Y-121702985D01*
X108567910Y-121699199D01*
X108630019Y-121671791D01*
X108665822Y-121647634D01*
X108677337Y-121623619D01*
X108666580Y-121596635D01*
X108648114Y-121575543D01*
X108604469Y-121549572D01*
X108556446Y-121547624D01*
X108512406Y-121567637D01*
X108480709Y-121607551D01*
X108476549Y-121617848D01*
X108452327Y-121655724D01*
X108416965Y-121683842D01*
X108372343Y-121706917D01*
X108372343Y-121641485D01*
X108374969Y-121601506D01*
X108386230Y-121569997D01*
X108411199Y-121536378D01*
X108435169Y-121510484D01*
X108472441Y-121473817D01*
X108501401Y-121454121D01*
X108532505Y-121446220D01*
X108567713Y-121444914D01*
X108644876Y-121456335D01*
G36*
X109152600Y-121458752D02*
G01*
X109169948Y-121466334D01*
X109211356Y-121499128D01*
X109246765Y-121546547D01*
X109268664Y-121597151D01*
X109272229Y-121622098D01*
X109260279Y-121656927D01*
X109234067Y-121675357D01*
X109205964Y-121686516D01*
X109193095Y-121688572D01*
X109186829Y-121673649D01*
X109174456Y-121641175D01*
X109169028Y-121626502D01*
X109138590Y-121575744D01*
X109094520Y-121550427D01*
X109038010Y-121551206D01*
X109033825Y-121552203D01*
X109003655Y-121566507D01*
X108981476Y-121594393D01*
X108966327Y-121639287D01*
X108957250Y-121704615D01*
X108953286Y-121793804D01*
X108952914Y-121841261D01*
X108952730Y-121916071D01*
X108951522Y-121967069D01*
X108948309Y-121999471D01*
X108942109Y-122018495D01*
X108931940Y-122029356D01*
X108916819Y-122037272D01*
X108915946Y-122037670D01*
X108886828Y-122049981D01*
X108872403Y-122054514D01*
X108870186Y-122040809D01*
X108868289Y-122002925D01*
X108866847Y-121945715D01*
X108865998Y-121874027D01*
X108865829Y-121821565D01*
X108866692Y-121720047D01*
X108870070Y-121643032D01*
X108877142Y-121586023D01*
X108889088Y-121544526D01*
X108907090Y-121514043D01*
X108932327Y-121490080D01*
X108957247Y-121473355D01*
X109017171Y-121451097D01*
X109086911Y-121446076D01*
X109152600Y-121458752D01*
G37*
X109152600Y-121458752D02*
X109169948Y-121466334D01*
X109211356Y-121499128D01*
X109246765Y-121546547D01*
X109268664Y-121597151D01*
X109272229Y-121622098D01*
X109260279Y-121656927D01*
X109234067Y-121675357D01*
X109205964Y-121686516D01*
X109193095Y-121688572D01*
X109186829Y-121673649D01*
X109174456Y-121641175D01*
X109169028Y-121626502D01*
X109138590Y-121575744D01*
X109094520Y-121550427D01*
X109038010Y-121551206D01*
X109033825Y-121552203D01*
X109003655Y-121566507D01*
X108981476Y-121594393D01*
X108966327Y-121639287D01*
X108957250Y-121704615D01*
X108953286Y-121793804D01*
X108952914Y-121841261D01*
X108952730Y-121916071D01*
X108951522Y-121967069D01*
X108948309Y-121999471D01*
X108942109Y-122018495D01*
X108931940Y-122029356D01*
X108916819Y-122037272D01*
X108915946Y-122037670D01*
X108886828Y-122049981D01*
X108872403Y-122054514D01*
X108870186Y-122040809D01*
X108868289Y-122002925D01*
X108866847Y-121945715D01*
X108865998Y-121874027D01*
X108865829Y-121821565D01*
X108866692Y-121720047D01*
X108870070Y-121643032D01*
X108877142Y-121586023D01*
X108889088Y-121544526D01*
X108907090Y-121514043D01*
X108932327Y-121490080D01*
X108957247Y-121473355D01*
X109017171Y-121451097D01*
X109086911Y-121446076D01*
X109152600Y-121458752D01*
G36*
X109653595Y-121466966D02*
G01*
X109711021Y-121504497D01*
X109738719Y-121538096D01*
X109760662Y-121599064D01*
X109762405Y-121647308D01*
X109758457Y-121711816D01*
X109609686Y-121776934D01*
X109537349Y-121810202D01*
X109490084Y-121836964D01*
X109465507Y-121860144D01*
X109461237Y-121882667D01*
X109474889Y-121907455D01*
X109489943Y-121923886D01*
X109533746Y-121950235D01*
X109581389Y-121952081D01*
X109625145Y-121931546D01*
X109657289Y-121890752D01*
X109663038Y-121876347D01*
X109690576Y-121831356D01*
X109722258Y-121812182D01*
X109765714Y-121795779D01*
X109765714Y-121857966D01*
X109761872Y-121900283D01*
X109746823Y-121935969D01*
X109715280Y-121976943D01*
X109710592Y-121982267D01*
X109675506Y-122018720D01*
X109645347Y-122038283D01*
X109607615Y-122047283D01*
X109576335Y-122050230D01*
X109520385Y-122050965D01*
X109480555Y-122041660D01*
X109455708Y-122027846D01*
X109416656Y-121997467D01*
X109389625Y-121964613D01*
X109372517Y-121923294D01*
X109363238Y-121867521D01*
X109359693Y-121791305D01*
X109359410Y-121752622D01*
X109360372Y-121706247D01*
X109448007Y-121706247D01*
X109449023Y-121731126D01*
X109451556Y-121735200D01*
X109468274Y-121729665D01*
X109504249Y-121715017D01*
X109552331Y-121694190D01*
X109562386Y-121689714D01*
X109623152Y-121658814D01*
X109656632Y-121631657D01*
X109663990Y-121606220D01*
X109646391Y-121580481D01*
X109631856Y-121569109D01*
X109579410Y-121546364D01*
X109530322Y-121550122D01*
X109489227Y-121577884D01*
X109460758Y-121627152D01*
X109451631Y-121666257D01*
X109448007Y-121706247D01*
X109360372Y-121706247D01*
X109361285Y-121662249D01*
X109368196Y-121595384D01*
X109381884Y-121546695D01*
X109404096Y-121510849D01*
X109436574Y-121482513D01*
X109450733Y-121473355D01*
X109515053Y-121449507D01*
X109585473Y-121448006D01*
X109653595Y-121466966D01*
G37*
X109653595Y-121466966D02*
X109711021Y-121504497D01*
X109738719Y-121538096D01*
X109760662Y-121599064D01*
X109762405Y-121647308D01*
X109758457Y-121711816D01*
X109609686Y-121776934D01*
X109537349Y-121810202D01*
X109490084Y-121836964D01*
X109465507Y-121860144D01*
X109461237Y-121882667D01*
X109474889Y-121907455D01*
X109489943Y-121923886D01*
X109533746Y-121950235D01*
X109581389Y-121952081D01*
X109625145Y-121931546D01*
X109657289Y-121890752D01*
X109663038Y-121876347D01*
X109690576Y-121831356D01*
X109722258Y-121812182D01*
X109765714Y-121795779D01*
X109765714Y-121857966D01*
X109761872Y-121900283D01*
X109746823Y-121935969D01*
X109715280Y-121976943D01*
X109710592Y-121982267D01*
X109675506Y-122018720D01*
X109645347Y-122038283D01*
X109607615Y-122047283D01*
X109576335Y-122050230D01*
X109520385Y-122050965D01*
X109480555Y-122041660D01*
X109455708Y-122027846D01*
X109416656Y-121997467D01*
X109389625Y-121964613D01*
X109372517Y-121923294D01*
X109363238Y-121867521D01*
X109359693Y-121791305D01*
X109359410Y-121752622D01*
X109360372Y-121706247D01*
X109448007Y-121706247D01*
X109449023Y-121731126D01*
X109451556Y-121735200D01*
X109468274Y-121729665D01*
X109504249Y-121715017D01*
X109552331Y-121694190D01*
X109562386Y-121689714D01*
X109623152Y-121658814D01*
X109656632Y-121631657D01*
X109663990Y-121606220D01*
X109646391Y-121580481D01*
X109631856Y-121569109D01*
X109579410Y-121546364D01*
X109530322Y-121550122D01*
X109489227Y-121577884D01*
X109460758Y-121627152D01*
X109451631Y-121666257D01*
X109448007Y-121706247D01*
X109360372Y-121706247D01*
X109361285Y-121662249D01*
X109368196Y-121595384D01*
X109381884Y-121546695D01*
X109404096Y-121510849D01*
X109436574Y-121482513D01*
X109450733Y-121473355D01*
X109515053Y-121449507D01*
X109585473Y-121448006D01*
X109653595Y-121466966D01*
G36*
X106603910Y-116742348D02*
G01*
X106682454Y-116742778D01*
X106739298Y-116743942D01*
X106778105Y-116746207D01*
X106802538Y-116749940D01*
X106816262Y-116755506D01*
X106822940Y-116763273D01*
X106826236Y-116773605D01*
X106826556Y-116774943D01*
X106831562Y-116799079D01*
X106840829Y-116846701D01*
X106853392Y-116912741D01*
X106868287Y-116992128D01*
X106884551Y-117079796D01*
X106885119Y-117082875D01*
X106901410Y-117168789D01*
X106916652Y-117244696D01*
X106929861Y-117306045D01*
X106940054Y-117348282D01*
X106946248Y-117366855D01*
X106946543Y-117367184D01*
X106964788Y-117376253D01*
X107002405Y-117391367D01*
X107051271Y-117409262D01*
X107051543Y-117409358D01*
X107113093Y-117432493D01*
X107185657Y-117461965D01*
X107254057Y-117491597D01*
X107257294Y-117493062D01*
X107368702Y-117543626D01*
X107615399Y-117375160D01*
X107691077Y-117323803D01*
X107759631Y-117277889D01*
X107817088Y-117240030D01*
X107859476Y-117212837D01*
X107882825Y-117198921D01*
X107885042Y-117197889D01*
X107902010Y-117202484D01*
X107933701Y-117224655D01*
X107981352Y-117265447D01*
X108046198Y-117325905D01*
X108112397Y-117390227D01*
X108176214Y-117453612D01*
X108233329Y-117511451D01*
X108280305Y-117560175D01*
X108313703Y-117596210D01*
X108330085Y-117615984D01*
X108330694Y-117617002D01*
X108332505Y-117630572D01*
X108325683Y-117652733D01*
X108308540Y-117686478D01*
X108279393Y-117734800D01*
X108236555Y-117800692D01*
X108179448Y-117885517D01*
X108128766Y-117960177D01*
X108083461Y-118027140D01*
X108046150Y-118082516D01*
X108019452Y-118122420D01*
X108005985Y-118142962D01*
X108005137Y-118144356D01*
X108006781Y-118164038D01*
X108019245Y-118202293D01*
X108040048Y-118251889D01*
X108047462Y-118267728D01*
X108079814Y-118338290D01*
X108114328Y-118418353D01*
X108142365Y-118487629D01*
X108162568Y-118539045D01*
X108178615Y-118578119D01*
X108187888Y-118598541D01*
X108189041Y-118600114D01*
X108206096Y-118602721D01*
X108246298Y-118609863D01*
X108304302Y-118620523D01*
X108374763Y-118633685D01*
X108452335Y-118648333D01*
X108531672Y-118663449D01*
X108607431Y-118678018D01*
X108674264Y-118691022D01*
X108726828Y-118701445D01*
X108759776Y-118708270D01*
X108767857Y-118710199D01*
X108776205Y-118714962D01*
X108782506Y-118725718D01*
X108787045Y-118746098D01*
X108790104Y-118779734D01*
X108791967Y-118830255D01*
X108792918Y-118901292D01*
X108793240Y-118996476D01*
X108793257Y-119035492D01*
X108793257Y-119352799D01*
X108717057Y-119367839D01*
X108674663Y-119375995D01*
X108611400Y-119387899D01*
X108534962Y-119402116D01*
X108453043Y-119417210D01*
X108430400Y-119421355D01*
X108354806Y-119436053D01*
X108288953Y-119450505D01*
X108238366Y-119463375D01*
X108208574Y-119473322D01*
X108203612Y-119476287D01*
X108191426Y-119497283D01*
X108173953Y-119537967D01*
X108154577Y-119590322D01*
X108150734Y-119601600D01*
X108125339Y-119671523D01*
X108093817Y-119750418D01*
X108062969Y-119821266D01*
X108062817Y-119821595D01*
X108011447Y-119932733D01*
X108180399Y-120181253D01*
X108349352Y-120429772D01*
X108132429Y-120647058D01*
X108066819Y-120711726D01*
X108006979Y-120768733D01*
X107956267Y-120815033D01*
X107918046Y-120847584D01*
X107895675Y-120863343D01*
X107892466Y-120864343D01*
X107873626Y-120856469D01*
X107835180Y-120834578D01*
X107781330Y-120801267D01*
X107716276Y-120759131D01*
X107645940Y-120711943D01*
X107574555Y-120663810D01*
X107510908Y-120621928D01*
X107459041Y-120588871D01*
X107422995Y-120567218D01*
X107406867Y-120559543D01*
X107387189Y-120566037D01*
X107349875Y-120583150D01*
X107302621Y-120607326D01*
X107297612Y-120610013D01*
X107233977Y-120641927D01*
X107190341Y-120657579D01*
X107163202Y-120657745D01*
X107149057Y-120643204D01*
X107148975Y-120643000D01*
X107141905Y-120625779D01*
X107125042Y-120584899D01*
X107099695Y-120523525D01*
X107067171Y-120444819D01*
X107028778Y-120351947D01*
X106985822Y-120248072D01*
X106944222Y-120147502D01*
X106898504Y-120036516D01*
X106856526Y-119933703D01*
X106819548Y-119842215D01*
X106788827Y-119765201D01*
X106765622Y-119705815D01*
X106751190Y-119667209D01*
X106746743Y-119652800D01*
X106757896Y-119636272D01*
X106787069Y-119609930D01*
X106825971Y-119580887D01*
X106936757Y-119489039D01*
X107023351Y-119383759D01*
X107084716Y-119267266D01*
X107119815Y-119141776D01*
X107127608Y-119009507D01*
X107121943Y-118948457D01*
X107091078Y-118821795D01*
X107037920Y-118709941D01*
X106965767Y-118614001D01*
X106877917Y-118535076D01*
X106777665Y-118474270D01*
X106668310Y-118432687D01*
X106553147Y-118411428D01*
X106435475Y-118411599D01*
X106318590Y-118434301D01*
X106205789Y-118480638D01*
X106100369Y-118551713D01*
X106056368Y-118591911D01*
X105971979Y-118695129D01*
X105913222Y-118807925D01*
X105879704Y-118927010D01*
X105871035Y-119049095D01*
X105886823Y-119170893D01*
X105926678Y-119289116D01*
X105990207Y-119400475D01*
X106077021Y-119501684D01*
X106174029Y-119580887D01*
X106214437Y-119611162D01*
X106242982Y-119637219D01*
X106253257Y-119652825D01*
X106247877Y-119669843D01*
X106232575Y-119710500D01*
X106208612Y-119771642D01*
X106177244Y-119850119D01*
X106139732Y-119942780D01*
X106097333Y-120046472D01*
X106055663Y-120147526D01*
X106009690Y-120258607D01*
X105967107Y-120361541D01*
X105929221Y-120453165D01*
X105897340Y-120530316D01*
X105872771Y-120589831D01*
X105856820Y-120628544D01*
X105850910Y-120643000D01*
X105836948Y-120657685D01*
X105809940Y-120657642D01*
X105766413Y-120642099D01*
X105702890Y-120610284D01*
X105702388Y-120610013D01*
X105654560Y-120585323D01*
X105615897Y-120567338D01*
X105594095Y-120559614D01*
X105593133Y-120559543D01*
X105576721Y-120567378D01*
X105540487Y-120589165D01*
X105488474Y-120622328D01*
X105424725Y-120664291D01*
X105354060Y-120711943D01*
X105282116Y-120760191D01*
X105217274Y-120802151D01*
X105163735Y-120835227D01*
X105125697Y-120856821D01*
X105107533Y-120864343D01*
X105090808Y-120854457D01*
X105057180Y-120826826D01*
X105010010Y-120784495D01*
X104952658Y-120730505D01*
X104888484Y-120667899D01*
X104867497Y-120646983D01*
X104650499Y-120429623D01*
X104815668Y-120187220D01*
X104865864Y-120112781D01*
X104909919Y-120045972D01*
X104945362Y-119990665D01*
X104969719Y-119950729D01*
X104980522Y-119930036D01*
X104980838Y-119928563D01*
X104975143Y-119909058D01*
X104959826Y-119869822D01*
X104937537Y-119817430D01*
X104921893Y-119782355D01*
X104892641Y-119715201D01*
X104865094Y-119647358D01*
X104843737Y-119590034D01*
X104837935Y-119572572D01*
X104821452Y-119525938D01*
X104805340Y-119489905D01*
X104796490Y-119476287D01*
X104776960Y-119467952D01*
X104734334Y-119456137D01*
X104674145Y-119442181D01*
X104601922Y-119427422D01*
X104569600Y-119421355D01*
X104487522Y-119406273D01*
X104408795Y-119391669D01*
X104341109Y-119378980D01*
X104292160Y-119369642D01*
X104282943Y-119367839D01*
X104206743Y-119352799D01*
X104206743Y-119035492D01*
X104206914Y-118931154D01*
X104207616Y-118852213D01*
X104209134Y-118795038D01*
X104211749Y-118755999D01*
X104215746Y-118731465D01*
X104221409Y-118717805D01*
X104229020Y-118711389D01*
X104232143Y-118710199D01*
X104250978Y-118705980D01*
X104292588Y-118697562D01*
X104351630Y-118685961D01*
X104422757Y-118672195D01*
X104500625Y-118657280D01*
X104579887Y-118642232D01*
X104655198Y-118628069D01*
X104721213Y-118615806D01*
X104772587Y-118606461D01*
X104803975Y-118601050D01*
X104810959Y-118600114D01*
X104817285Y-118587596D01*
X104831290Y-118554246D01*
X104850355Y-118506377D01*
X104857634Y-118487629D01*
X104886996Y-118415195D01*
X104921571Y-118335170D01*
X104952537Y-118267728D01*
X104975323Y-118216159D01*
X104990482Y-118173785D01*
X104995542Y-118147834D01*
X104994736Y-118144356D01*
X104984041Y-118127936D01*
X104959620Y-118091417D01*
X104924095Y-118038687D01*
X104880087Y-117973635D01*
X104830217Y-117900151D01*
X104820356Y-117885645D01*
X104762492Y-117799704D01*
X104719956Y-117734261D01*
X104691054Y-117686304D01*
X104674090Y-117652820D01*
X104667367Y-117630795D01*
X104669190Y-117617217D01*
X104669236Y-117617131D01*
X104683586Y-117599297D01*
X104715323Y-117564817D01*
X104761010Y-117517268D01*
X104817204Y-117460222D01*
X104880468Y-117397255D01*
X104887602Y-117390227D01*
X104967330Y-117313020D01*
X105028857Y-117256330D01*
X105073421Y-117219110D01*
X105102257Y-117200315D01*
X105114958Y-117197889D01*
X105133494Y-117208471D01*
X105171961Y-117232916D01*
X105226386Y-117268612D01*
X105292798Y-117312947D01*
X105367225Y-117363311D01*
X105384601Y-117375160D01*
X105631297Y-117543626D01*
X105742706Y-117493062D01*
X105810457Y-117463595D01*
X105883183Y-117433959D01*
X105945703Y-117410330D01*
X105948457Y-117409358D01*
X105997360Y-117391457D01*
X106035057Y-117376320D01*
X106053425Y-117367210D01*
X106053456Y-117367184D01*
X106059285Y-117350717D01*
X106069192Y-117310219D01*
X106082195Y-117250242D01*
X106097309Y-117175340D01*
X106113552Y-117090064D01*
X106114881Y-117082875D01*
X106131175Y-116995014D01*
X106146133Y-116915260D01*
X106158791Y-116848681D01*
X106168186Y-116800347D01*
X106173354Y-116775325D01*
X106173444Y-116774943D01*
X106176589Y-116764299D01*
X106182704Y-116756262D01*
X106195453Y-116750467D01*
X106218500Y-116746547D01*
X106255509Y-116744135D01*
X106310144Y-116742865D01*
X106386067Y-116742371D01*
X106486944Y-116742286D01*
X106500000Y-116742286D01*
X106603910Y-116742348D01*
G37*
X106603910Y-116742348D02*
X106682454Y-116742778D01*
X106739298Y-116743942D01*
X106778105Y-116746207D01*
X106802538Y-116749940D01*
X106816262Y-116755506D01*
X106822940Y-116763273D01*
X106826236Y-116773605D01*
X106826556Y-116774943D01*
X106831562Y-116799079D01*
X106840829Y-116846701D01*
X106853392Y-116912741D01*
X106868287Y-116992128D01*
X106884551Y-117079796D01*
X106885119Y-117082875D01*
X106901410Y-117168789D01*
X106916652Y-117244696D01*
X106929861Y-117306045D01*
X106940054Y-117348282D01*
X106946248Y-117366855D01*
X106946543Y-117367184D01*
X106964788Y-117376253D01*
X107002405Y-117391367D01*
X107051271Y-117409262D01*
X107051543Y-117409358D01*
X107113093Y-117432493D01*
X107185657Y-117461965D01*
X107254057Y-117491597D01*
X107257294Y-117493062D01*
X107368702Y-117543626D01*
X107615399Y-117375160D01*
X107691077Y-117323803D01*
X107759631Y-117277889D01*
X107817088Y-117240030D01*
X107859476Y-117212837D01*
X107882825Y-117198921D01*
X107885042Y-117197889D01*
X107902010Y-117202484D01*
X107933701Y-117224655D01*
X107981352Y-117265447D01*
X108046198Y-117325905D01*
X108112397Y-117390227D01*
X108176214Y-117453612D01*
X108233329Y-117511451D01*
X108280305Y-117560175D01*
X108313703Y-117596210D01*
X108330085Y-117615984D01*
X108330694Y-117617002D01*
X108332505Y-117630572D01*
X108325683Y-117652733D01*
X108308540Y-117686478D01*
X108279393Y-117734800D01*
X108236555Y-117800692D01*
X108179448Y-117885517D01*
X108128766Y-117960177D01*
X108083461Y-118027140D01*
X108046150Y-118082516D01*
X108019452Y-118122420D01*
X108005985Y-118142962D01*
X108005137Y-118144356D01*
X108006781Y-118164038D01*
X108019245Y-118202293D01*
X108040048Y-118251889D01*
X108047462Y-118267728D01*
X108079814Y-118338290D01*
X108114328Y-118418353D01*
X108142365Y-118487629D01*
X108162568Y-118539045D01*
X108178615Y-118578119D01*
X108187888Y-118598541D01*
X108189041Y-118600114D01*
X108206096Y-118602721D01*
X108246298Y-118609863D01*
X108304302Y-118620523D01*
X108374763Y-118633685D01*
X108452335Y-118648333D01*
X108531672Y-118663449D01*
X108607431Y-118678018D01*
X108674264Y-118691022D01*
X108726828Y-118701445D01*
X108759776Y-118708270D01*
X108767857Y-118710199D01*
X108776205Y-118714962D01*
X108782506Y-118725718D01*
X108787045Y-118746098D01*
X108790104Y-118779734D01*
X108791967Y-118830255D01*
X108792918Y-118901292D01*
X108793240Y-118996476D01*
X108793257Y-119035492D01*
X108793257Y-119352799D01*
X108717057Y-119367839D01*
X108674663Y-119375995D01*
X108611400Y-119387899D01*
X108534962Y-119402116D01*
X108453043Y-119417210D01*
X108430400Y-119421355D01*
X108354806Y-119436053D01*
X108288953Y-119450505D01*
X108238366Y-119463375D01*
X108208574Y-119473322D01*
X108203612Y-119476287D01*
X108191426Y-119497283D01*
X108173953Y-119537967D01*
X108154577Y-119590322D01*
X108150734Y-119601600D01*
X108125339Y-119671523D01*
X108093817Y-119750418D01*
X108062969Y-119821266D01*
X108062817Y-119821595D01*
X108011447Y-119932733D01*
X108180399Y-120181253D01*
X108349352Y-120429772D01*
X108132429Y-120647058D01*
X108066819Y-120711726D01*
X108006979Y-120768733D01*
X107956267Y-120815033D01*
X107918046Y-120847584D01*
X107895675Y-120863343D01*
X107892466Y-120864343D01*
X107873626Y-120856469D01*
X107835180Y-120834578D01*
X107781330Y-120801267D01*
X107716276Y-120759131D01*
X107645940Y-120711943D01*
X107574555Y-120663810D01*
X107510908Y-120621928D01*
X107459041Y-120588871D01*
X107422995Y-120567218D01*
X107406867Y-120559543D01*
X107387189Y-120566037D01*
X107349875Y-120583150D01*
X107302621Y-120607326D01*
X107297612Y-120610013D01*
X107233977Y-120641927D01*
X107190341Y-120657579D01*
X107163202Y-120657745D01*
X107149057Y-120643204D01*
X107148975Y-120643000D01*
X107141905Y-120625779D01*
X107125042Y-120584899D01*
X107099695Y-120523525D01*
X107067171Y-120444819D01*
X107028778Y-120351947D01*
X106985822Y-120248072D01*
X106944222Y-120147502D01*
X106898504Y-120036516D01*
X106856526Y-119933703D01*
X106819548Y-119842215D01*
X106788827Y-119765201D01*
X106765622Y-119705815D01*
X106751190Y-119667209D01*
X106746743Y-119652800D01*
X106757896Y-119636272D01*
X106787069Y-119609930D01*
X106825971Y-119580887D01*
X106936757Y-119489039D01*
X107023351Y-119383759D01*
X107084716Y-119267266D01*
X107119815Y-119141776D01*
X107127608Y-119009507D01*
X107121943Y-118948457D01*
X107091078Y-118821795D01*
X107037920Y-118709941D01*
X106965767Y-118614001D01*
X106877917Y-118535076D01*
X106777665Y-118474270D01*
X106668310Y-118432687D01*
X106553147Y-118411428D01*
X106435475Y-118411599D01*
X106318590Y-118434301D01*
X106205789Y-118480638D01*
X106100369Y-118551713D01*
X106056368Y-118591911D01*
X105971979Y-118695129D01*
X105913222Y-118807925D01*
X105879704Y-118927010D01*
X105871035Y-119049095D01*
X105886823Y-119170893D01*
X105926678Y-119289116D01*
X105990207Y-119400475D01*
X106077021Y-119501684D01*
X106174029Y-119580887D01*
X106214437Y-119611162D01*
X106242982Y-119637219D01*
X106253257Y-119652825D01*
X106247877Y-119669843D01*
X106232575Y-119710500D01*
X106208612Y-119771642D01*
X106177244Y-119850119D01*
X106139732Y-119942780D01*
X106097333Y-120046472D01*
X106055663Y-120147526D01*
X106009690Y-120258607D01*
X105967107Y-120361541D01*
X105929221Y-120453165D01*
X105897340Y-120530316D01*
X105872771Y-120589831D01*
X105856820Y-120628544D01*
X105850910Y-120643000D01*
X105836948Y-120657685D01*
X105809940Y-120657642D01*
X105766413Y-120642099D01*
X105702890Y-120610284D01*
X105702388Y-120610013D01*
X105654560Y-120585323D01*
X105615897Y-120567338D01*
X105594095Y-120559614D01*
X105593133Y-120559543D01*
X105576721Y-120567378D01*
X105540487Y-120589165D01*
X105488474Y-120622328D01*
X105424725Y-120664291D01*
X105354060Y-120711943D01*
X105282116Y-120760191D01*
X105217274Y-120802151D01*
X105163735Y-120835227D01*
X105125697Y-120856821D01*
X105107533Y-120864343D01*
X105090808Y-120854457D01*
X105057180Y-120826826D01*
X105010010Y-120784495D01*
X104952658Y-120730505D01*
X104888484Y-120667899D01*
X104867497Y-120646983D01*
X104650499Y-120429623D01*
X104815668Y-120187220D01*
X104865864Y-120112781D01*
X104909919Y-120045972D01*
X104945362Y-119990665D01*
X104969719Y-119950729D01*
X104980522Y-119930036D01*
X104980838Y-119928563D01*
X104975143Y-119909058D01*
X104959826Y-119869822D01*
X104937537Y-119817430D01*
X104921893Y-119782355D01*
X104892641Y-119715201D01*
X104865094Y-119647358D01*
X104843737Y-119590034D01*
X104837935Y-119572572D01*
X104821452Y-119525938D01*
X104805340Y-119489905D01*
X104796490Y-119476287D01*
X104776960Y-119467952D01*
X104734334Y-119456137D01*
X104674145Y-119442181D01*
X104601922Y-119427422D01*
X104569600Y-119421355D01*
X104487522Y-119406273D01*
X104408795Y-119391669D01*
X104341109Y-119378980D01*
X104292160Y-119369642D01*
X104282943Y-119367839D01*
X104206743Y-119352799D01*
X104206743Y-119035492D01*
X104206914Y-118931154D01*
X104207616Y-118852213D01*
X104209134Y-118795038D01*
X104211749Y-118755999D01*
X104215746Y-118731465D01*
X104221409Y-118717805D01*
X104229020Y-118711389D01*
X104232143Y-118710199D01*
X104250978Y-118705980D01*
X104292588Y-118697562D01*
X104351630Y-118685961D01*
X104422757Y-118672195D01*
X104500625Y-118657280D01*
X104579887Y-118642232D01*
X104655198Y-118628069D01*
X104721213Y-118615806D01*
X104772587Y-118606461D01*
X104803975Y-118601050D01*
X104810959Y-118600114D01*
X104817285Y-118587596D01*
X104831290Y-118554246D01*
X104850355Y-118506377D01*
X104857634Y-118487629D01*
X104886996Y-118415195D01*
X104921571Y-118335170D01*
X104952537Y-118267728D01*
X104975323Y-118216159D01*
X104990482Y-118173785D01*
X104995542Y-118147834D01*
X104994736Y-118144356D01*
X104984041Y-118127936D01*
X104959620Y-118091417D01*
X104924095Y-118038687D01*
X104880087Y-117973635D01*
X104830217Y-117900151D01*
X104820356Y-117885645D01*
X104762492Y-117799704D01*
X104719956Y-117734261D01*
X104691054Y-117686304D01*
X104674090Y-117652820D01*
X104667367Y-117630795D01*
X104669190Y-117617217D01*
X104669236Y-117617131D01*
X104683586Y-117599297D01*
X104715323Y-117564817D01*
X104761010Y-117517268D01*
X104817204Y-117460222D01*
X104880468Y-117397255D01*
X104887602Y-117390227D01*
X104967330Y-117313020D01*
X105028857Y-117256330D01*
X105073421Y-117219110D01*
X105102257Y-117200315D01*
X105114958Y-117197889D01*
X105133494Y-117208471D01*
X105171961Y-117232916D01*
X105226386Y-117268612D01*
X105292798Y-117312947D01*
X105367225Y-117363311D01*
X105384601Y-117375160D01*
X105631297Y-117543626D01*
X105742706Y-117493062D01*
X105810457Y-117463595D01*
X105883183Y-117433959D01*
X105945703Y-117410330D01*
X105948457Y-117409358D01*
X105997360Y-117391457D01*
X106035057Y-117376320D01*
X106053425Y-117367210D01*
X106053456Y-117367184D01*
X106059285Y-117350717D01*
X106069192Y-117310219D01*
X106082195Y-117250242D01*
X106097309Y-117175340D01*
X106113552Y-117090064D01*
X106114881Y-117082875D01*
X106131175Y-116995014D01*
X106146133Y-116915260D01*
X106158791Y-116848681D01*
X106168186Y-116800347D01*
X106173354Y-116775325D01*
X106173444Y-116774943D01*
X106176589Y-116764299D01*
X106182704Y-116756262D01*
X106195453Y-116750467D01*
X106218500Y-116746547D01*
X106255509Y-116744135D01*
X106310144Y-116742865D01*
X106386067Y-116742371D01*
X106486944Y-116742286D01*
X106500000Y-116742286D01*
X106603910Y-116742348D01*
D12*
X116870000Y-115320000D02*
X111130000Y-115320000D01*
X111120000Y-115320000D02*
X111120000Y-103060000D01*
X111120000Y-103060000D02*
X116880000Y-103060000D01*
X116880000Y-103060000D02*
X116880000Y-115310000D01*
X117160000Y-115600000D02*
X117160000Y-113600000D01*
X117160000Y-115600000D02*
X115550000Y-115600000D01*
X126620000Y-101120000D02*
X113380000Y-101120000D01*
X126620000Y-96880000D02*
X113380000Y-96880000D01*
X126620000Y-101120000D02*
X126620000Y-96880000D01*
X113380000Y-101120000D02*
X113380000Y-96880000D01*
X113380000Y-117380000D02*
X126620000Y-117380000D01*
X113380000Y-121620000D02*
X126620000Y-121620000D01*
X113380000Y-117380000D02*
X113380000Y-121620000D01*
X126620000Y-117380000D02*
X126620000Y-121620000D01*
X127040000Y-115560000D02*
X133010000Y-115560000D01*
X133010000Y-115560000D02*
X133010000Y-102940000D01*
X133010000Y-102940000D02*
X127040000Y-102940000D01*
X127040000Y-102940000D02*
X127040000Y-115560000D01*
X127050000Y-112250000D02*
X127800000Y-112250000D01*
X127800000Y-112250000D02*
X127800000Y-106250000D01*
X127800000Y-106250000D02*
X127050000Y-106250000D01*
X127050000Y-106250000D02*
X127050000Y-112250000D01*
X127050000Y-115550000D02*
X127800000Y-115550000D01*
X127800000Y-115550000D02*
X127800000Y-113750000D01*
X127800000Y-113750000D02*
X127050000Y-113750000D01*
X127050000Y-113750000D02*
X127050000Y-115550000D01*
X127050000Y-104750000D02*
X127800000Y-104750000D01*
X127800000Y-104750000D02*
X127800000Y-102950000D01*
X127800000Y-102950000D02*
X127050000Y-102950000D01*
X127050000Y-102950000D02*
X127050000Y-104750000D01*
X129300000Y-115550000D02*
X129300000Y-114800000D01*
X129300000Y-114800000D02*
X132250000Y-114800000D01*
X132250000Y-114800000D02*
X132250000Y-109250000D01*
X129300000Y-102950000D02*
X129300000Y-103700000D01*
X129300000Y-103700000D02*
X132250000Y-103700000D01*
X132250000Y-103700000D02*
X132250000Y-109250000D01*
X126750000Y-114600000D02*
X126750000Y-115850000D01*
X126750000Y-115850000D02*
X128000000Y-115850000D01*
X118764000Y-106790000D02*
X118920000Y-106790000D01*
X121080000Y-106790000D02*
X121236000Y-106790000D01*
X121079837Y-104188870D02*
G75*
G02*
X121080000Y-106270961I-1079837J-1041130D01*
G01*
X118920163Y-104188870D02*
G75*
G03*
X118920000Y-106270961I1079837J-1041130D01*
G01*
X121078608Y-103557665D02*
G75*
G02*
X121235516Y-106790000I-1078608J-1672335D01*
G01*
X118921392Y-103557665D02*
G75*
G03*
X118764484Y-106790000I1078608J-1672335D01*
G01*
X121370000Y-108380000D02*
X121370000Y-115620000D01*
X118630000Y-108380000D02*
X118630000Y-115620000D01*
X121370000Y-108380000D02*
X118630000Y-108380000D01*
X121370000Y-115620000D02*
X118630000Y-115620000D01*
D11*
X111738095Y-103452380D02*
X111738095Y-104261904D01*
X111785714Y-104357142D01*
X111833333Y-104404761D01*
X111928571Y-104452380D01*
X112119047Y-104452380D01*
X112214285Y-104404761D01*
X112261904Y-104357142D01*
X112309523Y-104261904D01*
X112309523Y-103452380D01*
X113309523Y-104452380D02*
X112738095Y-104452380D01*
X113023809Y-104452380D02*
X113023809Y-103452380D01*
X112928571Y-103595238D01*
X112833333Y-103690476D01*
X112738095Y-103738095D01*
X119833333Y-99452380D02*
X119500000Y-98976190D01*
X119261904Y-99452380D02*
X119261904Y-98452380D01*
X119642857Y-98452380D01*
X119738095Y-98500000D01*
X119785714Y-98547619D01*
X119833333Y-98642857D01*
X119833333Y-98785714D01*
X119785714Y-98880952D01*
X119738095Y-98928571D01*
X119642857Y-98976190D01*
X119261904Y-98976190D01*
X120214285Y-98547619D02*
X120261904Y-98500000D01*
X120357142Y-98452380D01*
X120595238Y-98452380D01*
X120690476Y-98500000D01*
X120738095Y-98547619D01*
X120785714Y-98642857D01*
X120785714Y-98738095D01*
X120738095Y-98880952D01*
X120166666Y-99452380D01*
X120785714Y-99452380D01*
X119833333Y-119452380D02*
X119500000Y-118976190D01*
X119261904Y-119452380D02*
X119261904Y-118452380D01*
X119642857Y-118452380D01*
X119738095Y-118500000D01*
X119785714Y-118547619D01*
X119833333Y-118642857D01*
X119833333Y-118785714D01*
X119785714Y-118880952D01*
X119738095Y-118928571D01*
X119642857Y-118976190D01*
X119261904Y-118976190D01*
X120785714Y-119452380D02*
X120214285Y-119452380D01*
X120500000Y-119452380D02*
X120500000Y-118452380D01*
X120404761Y-118595238D01*
X120309523Y-118690476D01*
X120214285Y-118738095D01*
X130952380Y-109583333D02*
X131666666Y-109583333D01*
X131809523Y-109630952D01*
X131904761Y-109726190D01*
X131952380Y-109869047D01*
X131952380Y-109964285D01*
X131952380Y-108583333D02*
X131952380Y-109154761D01*
X131952380Y-108869047D02*
X130952380Y-108869047D01*
X131095238Y-108964285D01*
X131190476Y-109059523D01*
X131238095Y-109154761D01*
X120357142Y-112166666D02*
X120404761Y-112214285D01*
X120452380Y-112357142D01*
X120452380Y-112452380D01*
X120404761Y-112595238D01*
X120309523Y-112690476D01*
X120214285Y-112738095D01*
X120023809Y-112785714D01*
X119880952Y-112785714D01*
X119690476Y-112738095D01*
X119595238Y-112690476D01*
X119500000Y-112595238D01*
X119452380Y-112452380D01*
X119452380Y-112357142D01*
X119500000Y-112214285D01*
X119547619Y-112166666D01*
X120452380Y-111214285D02*
X120452380Y-111785714D01*
X120452380Y-111500000D02*
X119452380Y-111500000D01*
X119595238Y-111595238D01*
X119690476Y-111690476D01*
X119738095Y-111785714D01*
M02*
