G04 #@! TF.GenerationSoftware,KiCad,Pcbnew,(5.1.4)-1*
G04 #@! TF.CreationDate,2020-08-13T14:43:20+03:00*
G04 #@! TF.ProjectId,hum_temp_sensor,68756d5f-7465-46d7-905f-73656e736f72,rev?*
G04 #@! TF.SameCoordinates,Original*
G04 #@! TF.FileFunction,Legend,Top*
G04 #@! TF.FilePolarity,Positive*
%FSLAX46Y46*%
G04 Gerber Fmt 4.6, Leading zero omitted, Abs format (unit mm)*
G04 Created by KiCad (PCBNEW (5.1.4)-1) date 2020-08-13 14:43:20*
%MOMM*%
%LPD*%
G04 APERTURE LIST*
%ADD10C,0.150000*%
%ADD11C,0.120000*%
%ADD12C,0.010000*%
G04 APERTURE END LIST*
D10*
X106802380Y-111119047D02*
X105802380Y-111119047D01*
X105802380Y-110880952D01*
X105850000Y-110738095D01*
X105945238Y-110642857D01*
X106040476Y-110595238D01*
X106230952Y-110547619D01*
X106373809Y-110547619D01*
X106564285Y-110595238D01*
X106659523Y-110642857D01*
X106754761Y-110738095D01*
X106802380Y-110880952D01*
X106802380Y-111119047D01*
X106802380Y-110119047D02*
X105802380Y-110119047D01*
X106278571Y-110119047D02*
X106278571Y-109547619D01*
X106802380Y-109547619D02*
X105802380Y-109547619D01*
X105802380Y-109214285D02*
X105802380Y-108642857D01*
X106802380Y-108928571D02*
X105802380Y-108928571D01*
X106802380Y-107785714D02*
X106802380Y-108357142D01*
X106802380Y-108071428D02*
X105802380Y-108071428D01*
X105945238Y-108166666D01*
X106040476Y-108261904D01*
X106088095Y-108357142D01*
X106802380Y-106833333D02*
X106802380Y-107404761D01*
X106802380Y-107119047D02*
X105802380Y-107119047D01*
X105945238Y-107214285D01*
X106040476Y-107309523D01*
X106088095Y-107404761D01*
X108452380Y-109380952D02*
X108404761Y-109476190D01*
X108357142Y-109523809D01*
X108261904Y-109571428D01*
X107976190Y-109571428D01*
X107880952Y-109523809D01*
X107833333Y-109476190D01*
X107785714Y-109380952D01*
X107785714Y-109238095D01*
X107833333Y-109142857D01*
X107880952Y-109095238D01*
X107976190Y-109047619D01*
X108261904Y-109047619D01*
X108357142Y-109095238D01*
X108404761Y-109142857D01*
X108452380Y-109238095D01*
X108452380Y-109380952D01*
X108452380Y-108619047D02*
X107785714Y-108619047D01*
X107976190Y-108619047D02*
X107880952Y-108571428D01*
X107833333Y-108523809D01*
X107785714Y-108428571D01*
X107785714Y-108333333D01*
X110102380Y-111119047D02*
X109102380Y-111119047D01*
X109102380Y-110880952D01*
X109150000Y-110738095D01*
X109245238Y-110642857D01*
X109340476Y-110595238D01*
X109530952Y-110547619D01*
X109673809Y-110547619D01*
X109864285Y-110595238D01*
X109959523Y-110642857D01*
X110054761Y-110738095D01*
X110102380Y-110880952D01*
X110102380Y-111119047D01*
X110102380Y-110119047D02*
X109102380Y-110119047D01*
X109578571Y-110119047D02*
X109578571Y-109547619D01*
X110102380Y-109547619D02*
X109102380Y-109547619D01*
X109102380Y-109214285D02*
X109102380Y-108642857D01*
X110102380Y-108928571D02*
X109102380Y-108928571D01*
X109197619Y-108357142D02*
X109150000Y-108309523D01*
X109102380Y-108214285D01*
X109102380Y-107976190D01*
X109150000Y-107880952D01*
X109197619Y-107833333D01*
X109292857Y-107785714D01*
X109388095Y-107785714D01*
X109530952Y-107833333D01*
X110102380Y-108404761D01*
X110102380Y-107785714D01*
X109197619Y-107404761D02*
X109150000Y-107357142D01*
X109102380Y-107261904D01*
X109102380Y-107023809D01*
X109150000Y-106928571D01*
X109197619Y-106880952D01*
X109292857Y-106833333D01*
X109388095Y-106833333D01*
X109530952Y-106880952D01*
X110102380Y-107452380D01*
X110102380Y-106833333D01*
X93119047Y-98627380D02*
X93119047Y-97627380D01*
X93119047Y-98103571D02*
X93690476Y-98103571D01*
X93690476Y-98627380D02*
X93690476Y-97627380D01*
X94595238Y-97960714D02*
X94595238Y-98627380D01*
X94166666Y-97960714D02*
X94166666Y-98484523D01*
X94214285Y-98579761D01*
X94309523Y-98627380D01*
X94452380Y-98627380D01*
X94547619Y-98579761D01*
X94595238Y-98532142D01*
X95071428Y-98627380D02*
X95071428Y-97960714D01*
X95071428Y-98055952D02*
X95119047Y-98008333D01*
X95214285Y-97960714D01*
X95357142Y-97960714D01*
X95452380Y-98008333D01*
X95499999Y-98103571D01*
X95499999Y-98627380D01*
X95499999Y-98103571D02*
X95547619Y-98008333D01*
X95642857Y-97960714D01*
X95785714Y-97960714D01*
X95880952Y-98008333D01*
X95928571Y-98103571D01*
X95928571Y-98627380D01*
X96404761Y-98627380D02*
X96404761Y-97960714D01*
X96404761Y-97627380D02*
X96357142Y-97675000D01*
X96404761Y-97722619D01*
X96452380Y-97675000D01*
X96404761Y-97627380D01*
X96404761Y-97722619D01*
X97309523Y-98627380D02*
X97309523Y-97627380D01*
X97309523Y-98579761D02*
X97214285Y-98627380D01*
X97023809Y-98627380D01*
X96928571Y-98579761D01*
X96880952Y-98532142D01*
X96833333Y-98436904D01*
X96833333Y-98151190D01*
X96880952Y-98055952D01*
X96928571Y-98008333D01*
X97023809Y-97960714D01*
X97214285Y-97960714D01*
X97309523Y-98008333D01*
X97785714Y-98627380D02*
X97785714Y-97960714D01*
X97785714Y-97627380D02*
X97738095Y-97675000D01*
X97785714Y-97722619D01*
X97833333Y-97675000D01*
X97785714Y-97627380D01*
X97785714Y-97722619D01*
X98119047Y-97960714D02*
X98499999Y-97960714D01*
X98261904Y-97627380D02*
X98261904Y-98484523D01*
X98309523Y-98579761D01*
X98404761Y-98627380D01*
X98499999Y-98627380D01*
X98738095Y-97960714D02*
X98976190Y-98627380D01*
X99214285Y-97960714D02*
X98976190Y-98627380D01*
X98880952Y-98865476D01*
X98833333Y-98913095D01*
X98738095Y-98960714D01*
X101166666Y-98627380D02*
X101119047Y-98627380D01*
X101023809Y-98579761D01*
X100880952Y-98436904D01*
X100642857Y-98151190D01*
X100547619Y-98008333D01*
X100499999Y-97865476D01*
X100499999Y-97770238D01*
X100547619Y-97675000D01*
X100642857Y-97627380D01*
X100690476Y-97627380D01*
X100785714Y-97675000D01*
X100833333Y-97770238D01*
X100833333Y-97817857D01*
X100785714Y-97913095D01*
X100738095Y-97960714D01*
X100452380Y-98151190D01*
X100404761Y-98198809D01*
X100357142Y-98294047D01*
X100357142Y-98436904D01*
X100404761Y-98532142D01*
X100452380Y-98579761D01*
X100547619Y-98627380D01*
X100690476Y-98627380D01*
X100785714Y-98579761D01*
X100833333Y-98532142D01*
X100976190Y-98341666D01*
X101023809Y-98198809D01*
X101023809Y-98103571D01*
X102214285Y-97960714D02*
X102595238Y-97960714D01*
X102357142Y-97627380D02*
X102357142Y-98484523D01*
X102404761Y-98579761D01*
X102499999Y-98627380D01*
X102595238Y-98627380D01*
X103309523Y-98579761D02*
X103214285Y-98627380D01*
X103023809Y-98627380D01*
X102928571Y-98579761D01*
X102880952Y-98484523D01*
X102880952Y-98103571D01*
X102928571Y-98008333D01*
X103023809Y-97960714D01*
X103214285Y-97960714D01*
X103309523Y-98008333D01*
X103357142Y-98103571D01*
X103357142Y-98198809D01*
X102880952Y-98294047D01*
X103785714Y-98627380D02*
X103785714Y-97960714D01*
X103785714Y-98055952D02*
X103833333Y-98008333D01*
X103928571Y-97960714D01*
X104071428Y-97960714D01*
X104166666Y-98008333D01*
X104214285Y-98103571D01*
X104214285Y-98627380D01*
X104214285Y-98103571D02*
X104261904Y-98008333D01*
X104357142Y-97960714D01*
X104499999Y-97960714D01*
X104595238Y-98008333D01*
X104642857Y-98103571D01*
X104642857Y-98627380D01*
X105119047Y-97960714D02*
X105119047Y-98960714D01*
X105119047Y-98008333D02*
X105214285Y-97960714D01*
X105404761Y-97960714D01*
X105499999Y-98008333D01*
X105547619Y-98055952D01*
X105595238Y-98151190D01*
X105595238Y-98436904D01*
X105547619Y-98532142D01*
X105499999Y-98579761D01*
X105404761Y-98627380D01*
X105214285Y-98627380D01*
X105119047Y-98579761D01*
X106404761Y-98579761D02*
X106309523Y-98627380D01*
X106119047Y-98627380D01*
X106023809Y-98579761D01*
X105976190Y-98484523D01*
X105976190Y-98103571D01*
X106023809Y-98008333D01*
X106119047Y-97960714D01*
X106309523Y-97960714D01*
X106404761Y-98008333D01*
X106452380Y-98103571D01*
X106452380Y-98198809D01*
X105976190Y-98294047D01*
X106880952Y-98627380D02*
X106880952Y-97960714D01*
X106880952Y-98151190D02*
X106928571Y-98055952D01*
X106976190Y-98008333D01*
X107071428Y-97960714D01*
X107166666Y-97960714D01*
X107928571Y-98627380D02*
X107928571Y-98103571D01*
X107880952Y-98008333D01*
X107785714Y-97960714D01*
X107595238Y-97960714D01*
X107499999Y-98008333D01*
X107928571Y-98579761D02*
X107833333Y-98627380D01*
X107595238Y-98627380D01*
X107499999Y-98579761D01*
X107452380Y-98484523D01*
X107452380Y-98389285D01*
X107499999Y-98294047D01*
X107595238Y-98246428D01*
X107833333Y-98246428D01*
X107928571Y-98198809D01*
X108261904Y-97960714D02*
X108642857Y-97960714D01*
X108404761Y-97627380D02*
X108404761Y-98484523D01*
X108452380Y-98579761D01*
X108547619Y-98627380D01*
X108642857Y-98627380D01*
X109404761Y-97960714D02*
X109404761Y-98627380D01*
X108976190Y-97960714D02*
X108976190Y-98484523D01*
X109023809Y-98579761D01*
X109119047Y-98627380D01*
X109261904Y-98627380D01*
X109357142Y-98579761D01*
X109404761Y-98532142D01*
X109880952Y-98627380D02*
X109880952Y-97960714D01*
X109880952Y-98151190D02*
X109928571Y-98055952D01*
X109976190Y-98008333D01*
X110071428Y-97960714D01*
X110166666Y-97960714D01*
X110880952Y-98579761D02*
X110785714Y-98627380D01*
X110595238Y-98627380D01*
X110499999Y-98579761D01*
X110452380Y-98484523D01*
X110452380Y-98103571D01*
X110499999Y-98008333D01*
X110595238Y-97960714D01*
X110785714Y-97960714D01*
X110880952Y-98008333D01*
X110928571Y-98103571D01*
X110928571Y-98198809D01*
X110452380Y-98294047D01*
X95000000Y-100229761D02*
X95095238Y-100277380D01*
X95285714Y-100277380D01*
X95380952Y-100229761D01*
X95428571Y-100134523D01*
X95428571Y-100086904D01*
X95380952Y-99991666D01*
X95285714Y-99944047D01*
X95142857Y-99944047D01*
X95047619Y-99896428D01*
X95000000Y-99801190D01*
X95000000Y-99753571D01*
X95047619Y-99658333D01*
X95142857Y-99610714D01*
X95285714Y-99610714D01*
X95380952Y-99658333D01*
X96238095Y-100229761D02*
X96142857Y-100277380D01*
X95952380Y-100277380D01*
X95857142Y-100229761D01*
X95809523Y-100134523D01*
X95809523Y-99753571D01*
X95857142Y-99658333D01*
X95952380Y-99610714D01*
X96142857Y-99610714D01*
X96238095Y-99658333D01*
X96285714Y-99753571D01*
X96285714Y-99848809D01*
X95809523Y-99944047D01*
X96714285Y-99610714D02*
X96714285Y-100277380D01*
X96714285Y-99705952D02*
X96761904Y-99658333D01*
X96857142Y-99610714D01*
X97000000Y-99610714D01*
X97095238Y-99658333D01*
X97142857Y-99753571D01*
X97142857Y-100277380D01*
X97571428Y-100229761D02*
X97666666Y-100277380D01*
X97857142Y-100277380D01*
X97952380Y-100229761D01*
X98000000Y-100134523D01*
X98000000Y-100086904D01*
X97952380Y-99991666D01*
X97857142Y-99944047D01*
X97714285Y-99944047D01*
X97619047Y-99896428D01*
X97571428Y-99801190D01*
X97571428Y-99753571D01*
X97619047Y-99658333D01*
X97714285Y-99610714D01*
X97857142Y-99610714D01*
X97952380Y-99658333D01*
X98571428Y-100277380D02*
X98476190Y-100229761D01*
X98428571Y-100182142D01*
X98380952Y-100086904D01*
X98380952Y-99801190D01*
X98428571Y-99705952D01*
X98476190Y-99658333D01*
X98571428Y-99610714D01*
X98714285Y-99610714D01*
X98809523Y-99658333D01*
X98857142Y-99705952D01*
X98904761Y-99801190D01*
X98904761Y-100086904D01*
X98857142Y-100182142D01*
X98809523Y-100229761D01*
X98714285Y-100277380D01*
X98571428Y-100277380D01*
X99333333Y-100277380D02*
X99333333Y-99610714D01*
X99333333Y-99801190D02*
X99380952Y-99705952D01*
X99428571Y-99658333D01*
X99523809Y-99610714D01*
X99619047Y-99610714D01*
X100571428Y-99610714D02*
X100952380Y-99610714D01*
X100714285Y-100277380D02*
X100714285Y-99420238D01*
X100761904Y-99325000D01*
X100857142Y-99277380D01*
X100952380Y-99277380D01*
X101428571Y-100277380D02*
X101333333Y-100229761D01*
X101285714Y-100182142D01*
X101238095Y-100086904D01*
X101238095Y-99801190D01*
X101285714Y-99705952D01*
X101333333Y-99658333D01*
X101428571Y-99610714D01*
X101571428Y-99610714D01*
X101666666Y-99658333D01*
X101714285Y-99705952D01*
X101761904Y-99801190D01*
X101761904Y-100086904D01*
X101714285Y-100182142D01*
X101666666Y-100229761D01*
X101571428Y-100277380D01*
X101428571Y-100277380D01*
X102190476Y-100277380D02*
X102190476Y-99610714D01*
X102190476Y-99801190D02*
X102238095Y-99705952D01*
X102285714Y-99658333D01*
X102380952Y-99610714D01*
X102476190Y-99610714D01*
X103904761Y-99753571D02*
X104047619Y-99801190D01*
X104095238Y-99848809D01*
X104142857Y-99944047D01*
X104142857Y-100086904D01*
X104095238Y-100182142D01*
X104047619Y-100229761D01*
X103952380Y-100277380D01*
X103571428Y-100277380D01*
X103571428Y-99277380D01*
X103904761Y-99277380D01*
X104000000Y-99325000D01*
X104047619Y-99372619D01*
X104095238Y-99467857D01*
X104095238Y-99563095D01*
X104047619Y-99658333D01*
X104000000Y-99705952D01*
X103904761Y-99753571D01*
X103571428Y-99753571D01*
X104952380Y-100229761D02*
X104857142Y-100277380D01*
X104666666Y-100277380D01*
X104571428Y-100229761D01*
X104523809Y-100134523D01*
X104523809Y-99753571D01*
X104571428Y-99658333D01*
X104666666Y-99610714D01*
X104857142Y-99610714D01*
X104952380Y-99658333D01*
X105000000Y-99753571D01*
X105000000Y-99848809D01*
X104523809Y-99944047D01*
X105809523Y-100229761D02*
X105714285Y-100277380D01*
X105523809Y-100277380D01*
X105428571Y-100229761D01*
X105380952Y-100134523D01*
X105380952Y-99753571D01*
X105428571Y-99658333D01*
X105523809Y-99610714D01*
X105714285Y-99610714D01*
X105809523Y-99658333D01*
X105857142Y-99753571D01*
X105857142Y-99848809D01*
X105380952Y-99944047D01*
X106285714Y-100277380D02*
X106285714Y-99277380D01*
X106285714Y-99753571D02*
X106857142Y-99753571D01*
X106857142Y-100277380D02*
X106857142Y-99277380D01*
X107333333Y-100277380D02*
X107333333Y-99610714D01*
X107333333Y-99277380D02*
X107285714Y-99325000D01*
X107333333Y-99372619D01*
X107380952Y-99325000D01*
X107333333Y-99277380D01*
X107333333Y-99372619D01*
X107714285Y-99610714D02*
X107952380Y-100277380D01*
X108190476Y-99610714D01*
X108952380Y-100229761D02*
X108857142Y-100277380D01*
X108666666Y-100277380D01*
X108571428Y-100229761D01*
X108523809Y-100134523D01*
X108523809Y-99753571D01*
X108571428Y-99658333D01*
X108666666Y-99610714D01*
X108857142Y-99610714D01*
X108952380Y-99658333D01*
X109000000Y-99753571D01*
X109000000Y-99848809D01*
X108523809Y-99944047D01*
D11*
X88500000Y-102500000D02*
X88500000Y-102000000D01*
X117000000Y-102000000D02*
X115500000Y-102000000D01*
X114500000Y-102000000D02*
X112500000Y-102000000D01*
X111500000Y-102000000D02*
X109500000Y-102000000D01*
X108500000Y-102000000D02*
X106500000Y-102000000D01*
X102500000Y-102000000D02*
X100500000Y-102000000D01*
X105500000Y-102000000D02*
X103500000Y-102000000D01*
X96500000Y-102000000D02*
X94500000Y-102000000D01*
X99500000Y-102000000D02*
X97500000Y-102000000D01*
X90500000Y-102000000D02*
X88500000Y-102000000D01*
X93500000Y-102000000D02*
X91500000Y-102000000D01*
X88500000Y-105500000D02*
X88500000Y-103500000D01*
X88500000Y-108500000D02*
X88500000Y-106500000D01*
X88500000Y-111500000D02*
X88500000Y-109500000D01*
X88500000Y-114500000D02*
X88500000Y-112500000D01*
X88500000Y-116500000D02*
X88500000Y-115500000D01*
X90000000Y-116500000D02*
X88500000Y-116500000D01*
X96000000Y-116500000D02*
X94000000Y-116500000D01*
X93000000Y-116500000D02*
X91000000Y-116500000D01*
X102000000Y-116500000D02*
X100000000Y-116500000D01*
X99000000Y-116500000D02*
X97000000Y-116500000D01*
X108000000Y-116500000D02*
X106000000Y-116500000D01*
X105000000Y-116500000D02*
X103000000Y-116500000D01*
X111000000Y-116500000D02*
X109000000Y-116500000D01*
X114000000Y-116500000D02*
X112000000Y-116500000D01*
X117000000Y-116500000D02*
X115000000Y-116500000D01*
D10*
X124166666Y-104952380D02*
X124500000Y-105952380D01*
X124833333Y-104952380D01*
X125738095Y-105857142D02*
X125690476Y-105904761D01*
X125547619Y-105952380D01*
X125452380Y-105952380D01*
X125309523Y-105904761D01*
X125214285Y-105809523D01*
X125166666Y-105714285D01*
X125119047Y-105523809D01*
X125119047Y-105380952D01*
X125166666Y-105190476D01*
X125214285Y-105095238D01*
X125309523Y-105000000D01*
X125452380Y-104952380D01*
X125547619Y-104952380D01*
X125690476Y-105000000D01*
X125738095Y-105047619D01*
X126738095Y-105857142D02*
X126690476Y-105904761D01*
X126547619Y-105952380D01*
X126452380Y-105952380D01*
X126309523Y-105904761D01*
X126214285Y-105809523D01*
X126166666Y-105714285D01*
X126119047Y-105523809D01*
X126119047Y-105380952D01*
X126166666Y-105190476D01*
X126214285Y-105095238D01*
X126309523Y-105000000D01*
X126452380Y-104952380D01*
X126547619Y-104952380D01*
X126690476Y-105000000D01*
X126738095Y-105047619D01*
X124738095Y-107500000D02*
X124642857Y-107452380D01*
X124500000Y-107452380D01*
X124357142Y-107500000D01*
X124261904Y-107595238D01*
X124214285Y-107690476D01*
X124166666Y-107880952D01*
X124166666Y-108023809D01*
X124214285Y-108214285D01*
X124261904Y-108309523D01*
X124357142Y-108404761D01*
X124500000Y-108452380D01*
X124595238Y-108452380D01*
X124738095Y-108404761D01*
X124785714Y-108357142D01*
X124785714Y-108023809D01*
X124595238Y-108023809D01*
X125214285Y-108452380D02*
X125214285Y-107452380D01*
X125785714Y-108452380D01*
X125785714Y-107452380D01*
X126261904Y-108452380D02*
X126261904Y-107452380D01*
X126500000Y-107452380D01*
X126642857Y-107500000D01*
X126738095Y-107595238D01*
X126785714Y-107690476D01*
X126833333Y-107880952D01*
X126833333Y-108023809D01*
X126785714Y-108214285D01*
X126738095Y-108309523D01*
X126642857Y-108404761D01*
X126500000Y-108452380D01*
X126261904Y-108452380D01*
X123309523Y-113452380D02*
X123309523Y-112452380D01*
X123547619Y-112452380D01*
X123690476Y-112500000D01*
X123785714Y-112595238D01*
X123833333Y-112690476D01*
X123880952Y-112880952D01*
X123880952Y-113023809D01*
X123833333Y-113214285D01*
X123785714Y-113309523D01*
X123690476Y-113404761D01*
X123547619Y-113452380D01*
X123309523Y-113452380D01*
X124500000Y-112452380D02*
X124690476Y-112452380D01*
X124785714Y-112500000D01*
X124880952Y-112595238D01*
X124928571Y-112785714D01*
X124928571Y-113119047D01*
X124880952Y-113309523D01*
X124785714Y-113404761D01*
X124690476Y-113452380D01*
X124500000Y-113452380D01*
X124404761Y-113404761D01*
X124309523Y-113309523D01*
X124261904Y-113119047D01*
X124261904Y-112785714D01*
X124309523Y-112595238D01*
X124404761Y-112500000D01*
X124500000Y-112452380D01*
X125357142Y-112452380D02*
X125357142Y-113261904D01*
X125404761Y-113357142D01*
X125452380Y-113404761D01*
X125547619Y-113452380D01*
X125738095Y-113452380D01*
X125833333Y-113404761D01*
X125880952Y-113357142D01*
X125928571Y-113261904D01*
X125928571Y-112452380D01*
X126261904Y-112452380D02*
X126833333Y-112452380D01*
X126547619Y-113452380D02*
X126547619Y-112452380D01*
X125214285Y-110952380D02*
X125214285Y-109952380D01*
X125785714Y-110952380D01*
X125785714Y-109952380D01*
X126833333Y-110857142D02*
X126785714Y-110904761D01*
X126642857Y-110952380D01*
X126547619Y-110952380D01*
X126404761Y-110904761D01*
X126309523Y-110809523D01*
X126261904Y-110714285D01*
X126214285Y-110523809D01*
X126214285Y-110380952D01*
X126261904Y-110190476D01*
X126309523Y-110095238D01*
X126404761Y-110000000D01*
X126547619Y-109952380D01*
X126642857Y-109952380D01*
X126785714Y-110000000D01*
X126833333Y-110047619D01*
X123452380Y-106857142D02*
X122452380Y-106857142D01*
X122452380Y-106476190D01*
X122500000Y-106380952D01*
X122547619Y-106333333D01*
X122642857Y-106285714D01*
X122785714Y-106285714D01*
X122880952Y-106333333D01*
X122928571Y-106380952D01*
X122976190Y-106476190D01*
X122976190Y-106857142D01*
X122452380Y-105666666D02*
X122452380Y-105476190D01*
X122500000Y-105380952D01*
X122595238Y-105285714D01*
X122785714Y-105238095D01*
X123119047Y-105238095D01*
X123309523Y-105285714D01*
X123404761Y-105380952D01*
X123452380Y-105476190D01*
X123452380Y-105666666D01*
X123404761Y-105761904D01*
X123309523Y-105857142D01*
X123119047Y-105904761D01*
X122785714Y-105904761D01*
X122595238Y-105857142D01*
X122500000Y-105761904D01*
X122452380Y-105666666D01*
X122452380Y-104904761D02*
X123452380Y-104666666D01*
X122738095Y-104476190D01*
X123452380Y-104285714D01*
X122452380Y-104047619D01*
D12*
G36*
X102103910Y-116742348D02*
G01*
X102182454Y-116742778D01*
X102239298Y-116743942D01*
X102278105Y-116746207D01*
X102302538Y-116749940D01*
X102316262Y-116755506D01*
X102322940Y-116763273D01*
X102326236Y-116773605D01*
X102326556Y-116774943D01*
X102331562Y-116799079D01*
X102340829Y-116846701D01*
X102353392Y-116912741D01*
X102368287Y-116992128D01*
X102384551Y-117079796D01*
X102385119Y-117082875D01*
X102401410Y-117168789D01*
X102416652Y-117244696D01*
X102429861Y-117306045D01*
X102440054Y-117348282D01*
X102446248Y-117366855D01*
X102446543Y-117367184D01*
X102464788Y-117376253D01*
X102502405Y-117391367D01*
X102551271Y-117409262D01*
X102551543Y-117409358D01*
X102613093Y-117432493D01*
X102685657Y-117461965D01*
X102754057Y-117491597D01*
X102757294Y-117493062D01*
X102868702Y-117543626D01*
X103115399Y-117375160D01*
X103191077Y-117323803D01*
X103259631Y-117277889D01*
X103317088Y-117240030D01*
X103359476Y-117212837D01*
X103382825Y-117198921D01*
X103385042Y-117197889D01*
X103402010Y-117202484D01*
X103433701Y-117224655D01*
X103481352Y-117265447D01*
X103546198Y-117325905D01*
X103612397Y-117390227D01*
X103676214Y-117453612D01*
X103733329Y-117511451D01*
X103780305Y-117560175D01*
X103813703Y-117596210D01*
X103830085Y-117615984D01*
X103830694Y-117617002D01*
X103832505Y-117630572D01*
X103825683Y-117652733D01*
X103808540Y-117686478D01*
X103779393Y-117734800D01*
X103736555Y-117800692D01*
X103679448Y-117885517D01*
X103628766Y-117960177D01*
X103583461Y-118027140D01*
X103546150Y-118082516D01*
X103519452Y-118122420D01*
X103505985Y-118142962D01*
X103505137Y-118144356D01*
X103506781Y-118164038D01*
X103519245Y-118202293D01*
X103540048Y-118251889D01*
X103547462Y-118267728D01*
X103579814Y-118338290D01*
X103614328Y-118418353D01*
X103642365Y-118487629D01*
X103662568Y-118539045D01*
X103678615Y-118578119D01*
X103687888Y-118598541D01*
X103689041Y-118600114D01*
X103706096Y-118602721D01*
X103746298Y-118609863D01*
X103804302Y-118620523D01*
X103874763Y-118633685D01*
X103952335Y-118648333D01*
X104031672Y-118663449D01*
X104107431Y-118678018D01*
X104174264Y-118691022D01*
X104226828Y-118701445D01*
X104259776Y-118708270D01*
X104267857Y-118710199D01*
X104276205Y-118714962D01*
X104282506Y-118725718D01*
X104287045Y-118746098D01*
X104290104Y-118779734D01*
X104291967Y-118830255D01*
X104292918Y-118901292D01*
X104293240Y-118996476D01*
X104293257Y-119035492D01*
X104293257Y-119352799D01*
X104217057Y-119367839D01*
X104174663Y-119375995D01*
X104111400Y-119387899D01*
X104034962Y-119402116D01*
X103953043Y-119417210D01*
X103930400Y-119421355D01*
X103854806Y-119436053D01*
X103788953Y-119450505D01*
X103738366Y-119463375D01*
X103708574Y-119473322D01*
X103703612Y-119476287D01*
X103691426Y-119497283D01*
X103673953Y-119537967D01*
X103654577Y-119590322D01*
X103650734Y-119601600D01*
X103625339Y-119671523D01*
X103593817Y-119750418D01*
X103562969Y-119821266D01*
X103562817Y-119821595D01*
X103511447Y-119932733D01*
X103680399Y-120181253D01*
X103849352Y-120429772D01*
X103632429Y-120647058D01*
X103566819Y-120711726D01*
X103506979Y-120768733D01*
X103456267Y-120815033D01*
X103418046Y-120847584D01*
X103395675Y-120863343D01*
X103392466Y-120864343D01*
X103373626Y-120856469D01*
X103335180Y-120834578D01*
X103281330Y-120801267D01*
X103216276Y-120759131D01*
X103145940Y-120711943D01*
X103074555Y-120663810D01*
X103010908Y-120621928D01*
X102959041Y-120588871D01*
X102922995Y-120567218D01*
X102906867Y-120559543D01*
X102887189Y-120566037D01*
X102849875Y-120583150D01*
X102802621Y-120607326D01*
X102797612Y-120610013D01*
X102733977Y-120641927D01*
X102690341Y-120657579D01*
X102663202Y-120657745D01*
X102649057Y-120643204D01*
X102648975Y-120643000D01*
X102641905Y-120625779D01*
X102625042Y-120584899D01*
X102599695Y-120523525D01*
X102567171Y-120444819D01*
X102528778Y-120351947D01*
X102485822Y-120248072D01*
X102444222Y-120147502D01*
X102398504Y-120036516D01*
X102356526Y-119933703D01*
X102319548Y-119842215D01*
X102288827Y-119765201D01*
X102265622Y-119705815D01*
X102251190Y-119667209D01*
X102246743Y-119652800D01*
X102257896Y-119636272D01*
X102287069Y-119609930D01*
X102325971Y-119580887D01*
X102436757Y-119489039D01*
X102523351Y-119383759D01*
X102584716Y-119267266D01*
X102619815Y-119141776D01*
X102627608Y-119009507D01*
X102621943Y-118948457D01*
X102591078Y-118821795D01*
X102537920Y-118709941D01*
X102465767Y-118614001D01*
X102377917Y-118535076D01*
X102277665Y-118474270D01*
X102168310Y-118432687D01*
X102053147Y-118411428D01*
X101935475Y-118411599D01*
X101818590Y-118434301D01*
X101705789Y-118480638D01*
X101600369Y-118551713D01*
X101556368Y-118591911D01*
X101471979Y-118695129D01*
X101413222Y-118807925D01*
X101379704Y-118927010D01*
X101371035Y-119049095D01*
X101386823Y-119170893D01*
X101426678Y-119289116D01*
X101490207Y-119400475D01*
X101577021Y-119501684D01*
X101674029Y-119580887D01*
X101714437Y-119611162D01*
X101742982Y-119637219D01*
X101753257Y-119652825D01*
X101747877Y-119669843D01*
X101732575Y-119710500D01*
X101708612Y-119771642D01*
X101677244Y-119850119D01*
X101639732Y-119942780D01*
X101597333Y-120046472D01*
X101555663Y-120147526D01*
X101509690Y-120258607D01*
X101467107Y-120361541D01*
X101429221Y-120453165D01*
X101397340Y-120530316D01*
X101372771Y-120589831D01*
X101356820Y-120628544D01*
X101350910Y-120643000D01*
X101336948Y-120657685D01*
X101309940Y-120657642D01*
X101266413Y-120642099D01*
X101202890Y-120610284D01*
X101202388Y-120610013D01*
X101154560Y-120585323D01*
X101115897Y-120567338D01*
X101094095Y-120559614D01*
X101093133Y-120559543D01*
X101076721Y-120567378D01*
X101040487Y-120589165D01*
X100988474Y-120622328D01*
X100924725Y-120664291D01*
X100854060Y-120711943D01*
X100782116Y-120760191D01*
X100717274Y-120802151D01*
X100663735Y-120835227D01*
X100625697Y-120856821D01*
X100607533Y-120864343D01*
X100590808Y-120854457D01*
X100557180Y-120826826D01*
X100510010Y-120784495D01*
X100452658Y-120730505D01*
X100388484Y-120667899D01*
X100367497Y-120646983D01*
X100150499Y-120429623D01*
X100315668Y-120187220D01*
X100365864Y-120112781D01*
X100409919Y-120045972D01*
X100445362Y-119990665D01*
X100469719Y-119950729D01*
X100480522Y-119930036D01*
X100480838Y-119928563D01*
X100475143Y-119909058D01*
X100459826Y-119869822D01*
X100437537Y-119817430D01*
X100421893Y-119782355D01*
X100392641Y-119715201D01*
X100365094Y-119647358D01*
X100343737Y-119590034D01*
X100337935Y-119572572D01*
X100321452Y-119525938D01*
X100305340Y-119489905D01*
X100296490Y-119476287D01*
X100276960Y-119467952D01*
X100234334Y-119456137D01*
X100174145Y-119442181D01*
X100101922Y-119427422D01*
X100069600Y-119421355D01*
X99987522Y-119406273D01*
X99908795Y-119391669D01*
X99841109Y-119378980D01*
X99792160Y-119369642D01*
X99782943Y-119367839D01*
X99706743Y-119352799D01*
X99706743Y-119035492D01*
X99706914Y-118931154D01*
X99707616Y-118852213D01*
X99709134Y-118795038D01*
X99711749Y-118755999D01*
X99715746Y-118731465D01*
X99721409Y-118717805D01*
X99729020Y-118711389D01*
X99732143Y-118710199D01*
X99750978Y-118705980D01*
X99792588Y-118697562D01*
X99851630Y-118685961D01*
X99922757Y-118672195D01*
X100000625Y-118657280D01*
X100079887Y-118642232D01*
X100155198Y-118628069D01*
X100221213Y-118615806D01*
X100272587Y-118606461D01*
X100303975Y-118601050D01*
X100310959Y-118600114D01*
X100317285Y-118587596D01*
X100331290Y-118554246D01*
X100350355Y-118506377D01*
X100357634Y-118487629D01*
X100386996Y-118415195D01*
X100421571Y-118335170D01*
X100452537Y-118267728D01*
X100475323Y-118216159D01*
X100490482Y-118173785D01*
X100495542Y-118147834D01*
X100494736Y-118144356D01*
X100484041Y-118127936D01*
X100459620Y-118091417D01*
X100424095Y-118038687D01*
X100380087Y-117973635D01*
X100330217Y-117900151D01*
X100320356Y-117885645D01*
X100262492Y-117799704D01*
X100219956Y-117734261D01*
X100191054Y-117686304D01*
X100174090Y-117652820D01*
X100167367Y-117630795D01*
X100169190Y-117617217D01*
X100169236Y-117617131D01*
X100183586Y-117599297D01*
X100215323Y-117564817D01*
X100261010Y-117517268D01*
X100317204Y-117460222D01*
X100380468Y-117397255D01*
X100387602Y-117390227D01*
X100467330Y-117313020D01*
X100528857Y-117256330D01*
X100573421Y-117219110D01*
X100602257Y-117200315D01*
X100614958Y-117197889D01*
X100633494Y-117208471D01*
X100671961Y-117232916D01*
X100726386Y-117268612D01*
X100792798Y-117312947D01*
X100867225Y-117363311D01*
X100884601Y-117375160D01*
X101131297Y-117543626D01*
X101242706Y-117493062D01*
X101310457Y-117463595D01*
X101383183Y-117433959D01*
X101445703Y-117410330D01*
X101448457Y-117409358D01*
X101497360Y-117391457D01*
X101535057Y-117376320D01*
X101553425Y-117367210D01*
X101553456Y-117367184D01*
X101559285Y-117350717D01*
X101569192Y-117310219D01*
X101582195Y-117250242D01*
X101597309Y-117175340D01*
X101613552Y-117090064D01*
X101614881Y-117082875D01*
X101631175Y-116995014D01*
X101646133Y-116915260D01*
X101658791Y-116848681D01*
X101668186Y-116800347D01*
X101673354Y-116775325D01*
X101673444Y-116774943D01*
X101676589Y-116764299D01*
X101682704Y-116756262D01*
X101695453Y-116750467D01*
X101718500Y-116746547D01*
X101755509Y-116744135D01*
X101810144Y-116742865D01*
X101886067Y-116742371D01*
X101986944Y-116742286D01*
X102000000Y-116742286D01*
X102103910Y-116742348D01*
X102103910Y-116742348D01*
G37*
X102103910Y-116742348D02*
X102182454Y-116742778D01*
X102239298Y-116743942D01*
X102278105Y-116746207D01*
X102302538Y-116749940D01*
X102316262Y-116755506D01*
X102322940Y-116763273D01*
X102326236Y-116773605D01*
X102326556Y-116774943D01*
X102331562Y-116799079D01*
X102340829Y-116846701D01*
X102353392Y-116912741D01*
X102368287Y-116992128D01*
X102384551Y-117079796D01*
X102385119Y-117082875D01*
X102401410Y-117168789D01*
X102416652Y-117244696D01*
X102429861Y-117306045D01*
X102440054Y-117348282D01*
X102446248Y-117366855D01*
X102446543Y-117367184D01*
X102464788Y-117376253D01*
X102502405Y-117391367D01*
X102551271Y-117409262D01*
X102551543Y-117409358D01*
X102613093Y-117432493D01*
X102685657Y-117461965D01*
X102754057Y-117491597D01*
X102757294Y-117493062D01*
X102868702Y-117543626D01*
X103115399Y-117375160D01*
X103191077Y-117323803D01*
X103259631Y-117277889D01*
X103317088Y-117240030D01*
X103359476Y-117212837D01*
X103382825Y-117198921D01*
X103385042Y-117197889D01*
X103402010Y-117202484D01*
X103433701Y-117224655D01*
X103481352Y-117265447D01*
X103546198Y-117325905D01*
X103612397Y-117390227D01*
X103676214Y-117453612D01*
X103733329Y-117511451D01*
X103780305Y-117560175D01*
X103813703Y-117596210D01*
X103830085Y-117615984D01*
X103830694Y-117617002D01*
X103832505Y-117630572D01*
X103825683Y-117652733D01*
X103808540Y-117686478D01*
X103779393Y-117734800D01*
X103736555Y-117800692D01*
X103679448Y-117885517D01*
X103628766Y-117960177D01*
X103583461Y-118027140D01*
X103546150Y-118082516D01*
X103519452Y-118122420D01*
X103505985Y-118142962D01*
X103505137Y-118144356D01*
X103506781Y-118164038D01*
X103519245Y-118202293D01*
X103540048Y-118251889D01*
X103547462Y-118267728D01*
X103579814Y-118338290D01*
X103614328Y-118418353D01*
X103642365Y-118487629D01*
X103662568Y-118539045D01*
X103678615Y-118578119D01*
X103687888Y-118598541D01*
X103689041Y-118600114D01*
X103706096Y-118602721D01*
X103746298Y-118609863D01*
X103804302Y-118620523D01*
X103874763Y-118633685D01*
X103952335Y-118648333D01*
X104031672Y-118663449D01*
X104107431Y-118678018D01*
X104174264Y-118691022D01*
X104226828Y-118701445D01*
X104259776Y-118708270D01*
X104267857Y-118710199D01*
X104276205Y-118714962D01*
X104282506Y-118725718D01*
X104287045Y-118746098D01*
X104290104Y-118779734D01*
X104291967Y-118830255D01*
X104292918Y-118901292D01*
X104293240Y-118996476D01*
X104293257Y-119035492D01*
X104293257Y-119352799D01*
X104217057Y-119367839D01*
X104174663Y-119375995D01*
X104111400Y-119387899D01*
X104034962Y-119402116D01*
X103953043Y-119417210D01*
X103930400Y-119421355D01*
X103854806Y-119436053D01*
X103788953Y-119450505D01*
X103738366Y-119463375D01*
X103708574Y-119473322D01*
X103703612Y-119476287D01*
X103691426Y-119497283D01*
X103673953Y-119537967D01*
X103654577Y-119590322D01*
X103650734Y-119601600D01*
X103625339Y-119671523D01*
X103593817Y-119750418D01*
X103562969Y-119821266D01*
X103562817Y-119821595D01*
X103511447Y-119932733D01*
X103680399Y-120181253D01*
X103849352Y-120429772D01*
X103632429Y-120647058D01*
X103566819Y-120711726D01*
X103506979Y-120768733D01*
X103456267Y-120815033D01*
X103418046Y-120847584D01*
X103395675Y-120863343D01*
X103392466Y-120864343D01*
X103373626Y-120856469D01*
X103335180Y-120834578D01*
X103281330Y-120801267D01*
X103216276Y-120759131D01*
X103145940Y-120711943D01*
X103074555Y-120663810D01*
X103010908Y-120621928D01*
X102959041Y-120588871D01*
X102922995Y-120567218D01*
X102906867Y-120559543D01*
X102887189Y-120566037D01*
X102849875Y-120583150D01*
X102802621Y-120607326D01*
X102797612Y-120610013D01*
X102733977Y-120641927D01*
X102690341Y-120657579D01*
X102663202Y-120657745D01*
X102649057Y-120643204D01*
X102648975Y-120643000D01*
X102641905Y-120625779D01*
X102625042Y-120584899D01*
X102599695Y-120523525D01*
X102567171Y-120444819D01*
X102528778Y-120351947D01*
X102485822Y-120248072D01*
X102444222Y-120147502D01*
X102398504Y-120036516D01*
X102356526Y-119933703D01*
X102319548Y-119842215D01*
X102288827Y-119765201D01*
X102265622Y-119705815D01*
X102251190Y-119667209D01*
X102246743Y-119652800D01*
X102257896Y-119636272D01*
X102287069Y-119609930D01*
X102325971Y-119580887D01*
X102436757Y-119489039D01*
X102523351Y-119383759D01*
X102584716Y-119267266D01*
X102619815Y-119141776D01*
X102627608Y-119009507D01*
X102621943Y-118948457D01*
X102591078Y-118821795D01*
X102537920Y-118709941D01*
X102465767Y-118614001D01*
X102377917Y-118535076D01*
X102277665Y-118474270D01*
X102168310Y-118432687D01*
X102053147Y-118411428D01*
X101935475Y-118411599D01*
X101818590Y-118434301D01*
X101705789Y-118480638D01*
X101600369Y-118551713D01*
X101556368Y-118591911D01*
X101471979Y-118695129D01*
X101413222Y-118807925D01*
X101379704Y-118927010D01*
X101371035Y-119049095D01*
X101386823Y-119170893D01*
X101426678Y-119289116D01*
X101490207Y-119400475D01*
X101577021Y-119501684D01*
X101674029Y-119580887D01*
X101714437Y-119611162D01*
X101742982Y-119637219D01*
X101753257Y-119652825D01*
X101747877Y-119669843D01*
X101732575Y-119710500D01*
X101708612Y-119771642D01*
X101677244Y-119850119D01*
X101639732Y-119942780D01*
X101597333Y-120046472D01*
X101555663Y-120147526D01*
X101509690Y-120258607D01*
X101467107Y-120361541D01*
X101429221Y-120453165D01*
X101397340Y-120530316D01*
X101372771Y-120589831D01*
X101356820Y-120628544D01*
X101350910Y-120643000D01*
X101336948Y-120657685D01*
X101309940Y-120657642D01*
X101266413Y-120642099D01*
X101202890Y-120610284D01*
X101202388Y-120610013D01*
X101154560Y-120585323D01*
X101115897Y-120567338D01*
X101094095Y-120559614D01*
X101093133Y-120559543D01*
X101076721Y-120567378D01*
X101040487Y-120589165D01*
X100988474Y-120622328D01*
X100924725Y-120664291D01*
X100854060Y-120711943D01*
X100782116Y-120760191D01*
X100717274Y-120802151D01*
X100663735Y-120835227D01*
X100625697Y-120856821D01*
X100607533Y-120864343D01*
X100590808Y-120854457D01*
X100557180Y-120826826D01*
X100510010Y-120784495D01*
X100452658Y-120730505D01*
X100388484Y-120667899D01*
X100367497Y-120646983D01*
X100150499Y-120429623D01*
X100315668Y-120187220D01*
X100365864Y-120112781D01*
X100409919Y-120045972D01*
X100445362Y-119990665D01*
X100469719Y-119950729D01*
X100480522Y-119930036D01*
X100480838Y-119928563D01*
X100475143Y-119909058D01*
X100459826Y-119869822D01*
X100437537Y-119817430D01*
X100421893Y-119782355D01*
X100392641Y-119715201D01*
X100365094Y-119647358D01*
X100343737Y-119590034D01*
X100337935Y-119572572D01*
X100321452Y-119525938D01*
X100305340Y-119489905D01*
X100296490Y-119476287D01*
X100276960Y-119467952D01*
X100234334Y-119456137D01*
X100174145Y-119442181D01*
X100101922Y-119427422D01*
X100069600Y-119421355D01*
X99987522Y-119406273D01*
X99908795Y-119391669D01*
X99841109Y-119378980D01*
X99792160Y-119369642D01*
X99782943Y-119367839D01*
X99706743Y-119352799D01*
X99706743Y-119035492D01*
X99706914Y-118931154D01*
X99707616Y-118852213D01*
X99709134Y-118795038D01*
X99711749Y-118755999D01*
X99715746Y-118731465D01*
X99721409Y-118717805D01*
X99729020Y-118711389D01*
X99732143Y-118710199D01*
X99750978Y-118705980D01*
X99792588Y-118697562D01*
X99851630Y-118685961D01*
X99922757Y-118672195D01*
X100000625Y-118657280D01*
X100079887Y-118642232D01*
X100155198Y-118628069D01*
X100221213Y-118615806D01*
X100272587Y-118606461D01*
X100303975Y-118601050D01*
X100310959Y-118600114D01*
X100317285Y-118587596D01*
X100331290Y-118554246D01*
X100350355Y-118506377D01*
X100357634Y-118487629D01*
X100386996Y-118415195D01*
X100421571Y-118335170D01*
X100452537Y-118267728D01*
X100475323Y-118216159D01*
X100490482Y-118173785D01*
X100495542Y-118147834D01*
X100494736Y-118144356D01*
X100484041Y-118127936D01*
X100459620Y-118091417D01*
X100424095Y-118038687D01*
X100380087Y-117973635D01*
X100330217Y-117900151D01*
X100320356Y-117885645D01*
X100262492Y-117799704D01*
X100219956Y-117734261D01*
X100191054Y-117686304D01*
X100174090Y-117652820D01*
X100167367Y-117630795D01*
X100169190Y-117617217D01*
X100169236Y-117617131D01*
X100183586Y-117599297D01*
X100215323Y-117564817D01*
X100261010Y-117517268D01*
X100317204Y-117460222D01*
X100380468Y-117397255D01*
X100387602Y-117390227D01*
X100467330Y-117313020D01*
X100528857Y-117256330D01*
X100573421Y-117219110D01*
X100602257Y-117200315D01*
X100614958Y-117197889D01*
X100633494Y-117208471D01*
X100671961Y-117232916D01*
X100726386Y-117268612D01*
X100792798Y-117312947D01*
X100867225Y-117363311D01*
X100884601Y-117375160D01*
X101131297Y-117543626D01*
X101242706Y-117493062D01*
X101310457Y-117463595D01*
X101383183Y-117433959D01*
X101445703Y-117410330D01*
X101448457Y-117409358D01*
X101497360Y-117391457D01*
X101535057Y-117376320D01*
X101553425Y-117367210D01*
X101553456Y-117367184D01*
X101559285Y-117350717D01*
X101569192Y-117310219D01*
X101582195Y-117250242D01*
X101597309Y-117175340D01*
X101613552Y-117090064D01*
X101614881Y-117082875D01*
X101631175Y-116995014D01*
X101646133Y-116915260D01*
X101658791Y-116848681D01*
X101668186Y-116800347D01*
X101673354Y-116775325D01*
X101673444Y-116774943D01*
X101676589Y-116764299D01*
X101682704Y-116756262D01*
X101695453Y-116750467D01*
X101718500Y-116746547D01*
X101755509Y-116744135D01*
X101810144Y-116742865D01*
X101886067Y-116742371D01*
X101986944Y-116742286D01*
X102000000Y-116742286D01*
X102103910Y-116742348D01*
G36*
X105153595Y-121466966D02*
G01*
X105211021Y-121504497D01*
X105238719Y-121538096D01*
X105260662Y-121599064D01*
X105262405Y-121647308D01*
X105258457Y-121711816D01*
X105109686Y-121776934D01*
X105037349Y-121810202D01*
X104990084Y-121836964D01*
X104965507Y-121860144D01*
X104961237Y-121882667D01*
X104974889Y-121907455D01*
X104989943Y-121923886D01*
X105033746Y-121950235D01*
X105081389Y-121952081D01*
X105125145Y-121931546D01*
X105157289Y-121890752D01*
X105163038Y-121876347D01*
X105190576Y-121831356D01*
X105222258Y-121812182D01*
X105265714Y-121795779D01*
X105265714Y-121857966D01*
X105261872Y-121900283D01*
X105246823Y-121935969D01*
X105215280Y-121976943D01*
X105210592Y-121982267D01*
X105175506Y-122018720D01*
X105145347Y-122038283D01*
X105107615Y-122047283D01*
X105076335Y-122050230D01*
X105020385Y-122050965D01*
X104980555Y-122041660D01*
X104955708Y-122027846D01*
X104916656Y-121997467D01*
X104889625Y-121964613D01*
X104872517Y-121923294D01*
X104863238Y-121867521D01*
X104859693Y-121791305D01*
X104859410Y-121752622D01*
X104860372Y-121706247D01*
X104948007Y-121706247D01*
X104949023Y-121731126D01*
X104951556Y-121735200D01*
X104968274Y-121729665D01*
X105004249Y-121715017D01*
X105052331Y-121694190D01*
X105062386Y-121689714D01*
X105123152Y-121658814D01*
X105156632Y-121631657D01*
X105163990Y-121606220D01*
X105146391Y-121580481D01*
X105131856Y-121569109D01*
X105079410Y-121546364D01*
X105030322Y-121550122D01*
X104989227Y-121577884D01*
X104960758Y-121627152D01*
X104951631Y-121666257D01*
X104948007Y-121706247D01*
X104860372Y-121706247D01*
X104861285Y-121662249D01*
X104868196Y-121595384D01*
X104881884Y-121546695D01*
X104904096Y-121510849D01*
X104936574Y-121482513D01*
X104950733Y-121473355D01*
X105015053Y-121449507D01*
X105085473Y-121448006D01*
X105153595Y-121466966D01*
X105153595Y-121466966D01*
G37*
X105153595Y-121466966D02*
X105211021Y-121504497D01*
X105238719Y-121538096D01*
X105260662Y-121599064D01*
X105262405Y-121647308D01*
X105258457Y-121711816D01*
X105109686Y-121776934D01*
X105037349Y-121810202D01*
X104990084Y-121836964D01*
X104965507Y-121860144D01*
X104961237Y-121882667D01*
X104974889Y-121907455D01*
X104989943Y-121923886D01*
X105033746Y-121950235D01*
X105081389Y-121952081D01*
X105125145Y-121931546D01*
X105157289Y-121890752D01*
X105163038Y-121876347D01*
X105190576Y-121831356D01*
X105222258Y-121812182D01*
X105265714Y-121795779D01*
X105265714Y-121857966D01*
X105261872Y-121900283D01*
X105246823Y-121935969D01*
X105215280Y-121976943D01*
X105210592Y-121982267D01*
X105175506Y-122018720D01*
X105145347Y-122038283D01*
X105107615Y-122047283D01*
X105076335Y-122050230D01*
X105020385Y-122050965D01*
X104980555Y-122041660D01*
X104955708Y-122027846D01*
X104916656Y-121997467D01*
X104889625Y-121964613D01*
X104872517Y-121923294D01*
X104863238Y-121867521D01*
X104859693Y-121791305D01*
X104859410Y-121752622D01*
X104860372Y-121706247D01*
X104948007Y-121706247D01*
X104949023Y-121731126D01*
X104951556Y-121735200D01*
X104968274Y-121729665D01*
X105004249Y-121715017D01*
X105052331Y-121694190D01*
X105062386Y-121689714D01*
X105123152Y-121658814D01*
X105156632Y-121631657D01*
X105163990Y-121606220D01*
X105146391Y-121580481D01*
X105131856Y-121569109D01*
X105079410Y-121546364D01*
X105030322Y-121550122D01*
X104989227Y-121577884D01*
X104960758Y-121627152D01*
X104951631Y-121666257D01*
X104948007Y-121706247D01*
X104860372Y-121706247D01*
X104861285Y-121662249D01*
X104868196Y-121595384D01*
X104881884Y-121546695D01*
X104904096Y-121510849D01*
X104936574Y-121482513D01*
X104950733Y-121473355D01*
X105015053Y-121449507D01*
X105085473Y-121448006D01*
X105153595Y-121466966D01*
G36*
X104652600Y-121458752D02*
G01*
X104669948Y-121466334D01*
X104711356Y-121499128D01*
X104746765Y-121546547D01*
X104768664Y-121597151D01*
X104772229Y-121622098D01*
X104760279Y-121656927D01*
X104734067Y-121675357D01*
X104705964Y-121686516D01*
X104693095Y-121688572D01*
X104686829Y-121673649D01*
X104674456Y-121641175D01*
X104669028Y-121626502D01*
X104638590Y-121575744D01*
X104594520Y-121550427D01*
X104538010Y-121551206D01*
X104533825Y-121552203D01*
X104503655Y-121566507D01*
X104481476Y-121594393D01*
X104466327Y-121639287D01*
X104457250Y-121704615D01*
X104453286Y-121793804D01*
X104452914Y-121841261D01*
X104452730Y-121916071D01*
X104451522Y-121967069D01*
X104448309Y-121999471D01*
X104442109Y-122018495D01*
X104431940Y-122029356D01*
X104416819Y-122037272D01*
X104415946Y-122037670D01*
X104386828Y-122049981D01*
X104372403Y-122054514D01*
X104370186Y-122040809D01*
X104368289Y-122002925D01*
X104366847Y-121945715D01*
X104365998Y-121874027D01*
X104365829Y-121821565D01*
X104366692Y-121720047D01*
X104370070Y-121643032D01*
X104377142Y-121586023D01*
X104389088Y-121544526D01*
X104407090Y-121514043D01*
X104432327Y-121490080D01*
X104457247Y-121473355D01*
X104517171Y-121451097D01*
X104586911Y-121446076D01*
X104652600Y-121458752D01*
X104652600Y-121458752D01*
G37*
X104652600Y-121458752D02*
X104669948Y-121466334D01*
X104711356Y-121499128D01*
X104746765Y-121546547D01*
X104768664Y-121597151D01*
X104772229Y-121622098D01*
X104760279Y-121656927D01*
X104734067Y-121675357D01*
X104705964Y-121686516D01*
X104693095Y-121688572D01*
X104686829Y-121673649D01*
X104674456Y-121641175D01*
X104669028Y-121626502D01*
X104638590Y-121575744D01*
X104594520Y-121550427D01*
X104538010Y-121551206D01*
X104533825Y-121552203D01*
X104503655Y-121566507D01*
X104481476Y-121594393D01*
X104466327Y-121639287D01*
X104457250Y-121704615D01*
X104453286Y-121793804D01*
X104452914Y-121841261D01*
X104452730Y-121916071D01*
X104451522Y-121967069D01*
X104448309Y-121999471D01*
X104442109Y-122018495D01*
X104431940Y-122029356D01*
X104416819Y-122037272D01*
X104415946Y-122037670D01*
X104386828Y-122049981D01*
X104372403Y-122054514D01*
X104370186Y-122040809D01*
X104368289Y-122002925D01*
X104366847Y-121945715D01*
X104365998Y-121874027D01*
X104365829Y-121821565D01*
X104366692Y-121720047D01*
X104370070Y-121643032D01*
X104377142Y-121586023D01*
X104389088Y-121544526D01*
X104407090Y-121514043D01*
X104432327Y-121490080D01*
X104457247Y-121473355D01*
X104517171Y-121451097D01*
X104586911Y-121446076D01*
X104652600Y-121458752D01*
G36*
X104144876Y-121456335D02*
G01*
X104186667Y-121475344D01*
X104219469Y-121498378D01*
X104243503Y-121524133D01*
X104260097Y-121557358D01*
X104270577Y-121602800D01*
X104276271Y-121665207D01*
X104278507Y-121749327D01*
X104278743Y-121804721D01*
X104278743Y-122020826D01*
X104241774Y-122037670D01*
X104212656Y-122049981D01*
X104198231Y-122054514D01*
X104195472Y-122041025D01*
X104193282Y-122004653D01*
X104191942Y-121951542D01*
X104191657Y-121909372D01*
X104190434Y-121848447D01*
X104187136Y-121800115D01*
X104182321Y-121770518D01*
X104178496Y-121764229D01*
X104152783Y-121770652D01*
X104112418Y-121787125D01*
X104065679Y-121809458D01*
X104020845Y-121833457D01*
X103986193Y-121854930D01*
X103970002Y-121869685D01*
X103969938Y-121869845D01*
X103971330Y-121897152D01*
X103983818Y-121923219D01*
X104005743Y-121944392D01*
X104037743Y-121951474D01*
X104065092Y-121950649D01*
X104103826Y-121950042D01*
X104124158Y-121959116D01*
X104136369Y-121983092D01*
X104137909Y-121987613D01*
X104143203Y-122021806D01*
X104129047Y-122042568D01*
X104092148Y-122052462D01*
X104052289Y-122054292D01*
X103980562Y-122040727D01*
X103943432Y-122021355D01*
X103897576Y-121975845D01*
X103873256Y-121919983D01*
X103871073Y-121860957D01*
X103891629Y-121805953D01*
X103922549Y-121771486D01*
X103953420Y-121752189D01*
X104001942Y-121727759D01*
X104058485Y-121702985D01*
X104067910Y-121699199D01*
X104130019Y-121671791D01*
X104165822Y-121647634D01*
X104177337Y-121623619D01*
X104166580Y-121596635D01*
X104148114Y-121575543D01*
X104104469Y-121549572D01*
X104056446Y-121547624D01*
X104012406Y-121567637D01*
X103980709Y-121607551D01*
X103976549Y-121617848D01*
X103952327Y-121655724D01*
X103916965Y-121683842D01*
X103872343Y-121706917D01*
X103872343Y-121641485D01*
X103874969Y-121601506D01*
X103886230Y-121569997D01*
X103911199Y-121536378D01*
X103935169Y-121510484D01*
X103972441Y-121473817D01*
X104001401Y-121454121D01*
X104032505Y-121446220D01*
X104067713Y-121444914D01*
X104144876Y-121456335D01*
X104144876Y-121456335D01*
G37*
X104144876Y-121456335D02*
X104186667Y-121475344D01*
X104219469Y-121498378D01*
X104243503Y-121524133D01*
X104260097Y-121557358D01*
X104270577Y-121602800D01*
X104276271Y-121665207D01*
X104278507Y-121749327D01*
X104278743Y-121804721D01*
X104278743Y-122020826D01*
X104241774Y-122037670D01*
X104212656Y-122049981D01*
X104198231Y-122054514D01*
X104195472Y-122041025D01*
X104193282Y-122004653D01*
X104191942Y-121951542D01*
X104191657Y-121909372D01*
X104190434Y-121848447D01*
X104187136Y-121800115D01*
X104182321Y-121770518D01*
X104178496Y-121764229D01*
X104152783Y-121770652D01*
X104112418Y-121787125D01*
X104065679Y-121809458D01*
X104020845Y-121833457D01*
X103986193Y-121854930D01*
X103970002Y-121869685D01*
X103969938Y-121869845D01*
X103971330Y-121897152D01*
X103983818Y-121923219D01*
X104005743Y-121944392D01*
X104037743Y-121951474D01*
X104065092Y-121950649D01*
X104103826Y-121950042D01*
X104124158Y-121959116D01*
X104136369Y-121983092D01*
X104137909Y-121987613D01*
X104143203Y-122021806D01*
X104129047Y-122042568D01*
X104092148Y-122052462D01*
X104052289Y-122054292D01*
X103980562Y-122040727D01*
X103943432Y-122021355D01*
X103897576Y-121975845D01*
X103873256Y-121919983D01*
X103871073Y-121860957D01*
X103891629Y-121805953D01*
X103922549Y-121771486D01*
X103953420Y-121752189D01*
X104001942Y-121727759D01*
X104058485Y-121702985D01*
X104067910Y-121699199D01*
X104130019Y-121671791D01*
X104165822Y-121647634D01*
X104177337Y-121623619D01*
X104166580Y-121596635D01*
X104148114Y-121575543D01*
X104104469Y-121549572D01*
X104056446Y-121547624D01*
X104012406Y-121567637D01*
X103980709Y-121607551D01*
X103976549Y-121617848D01*
X103952327Y-121655724D01*
X103916965Y-121683842D01*
X103872343Y-121706917D01*
X103872343Y-121641485D01*
X103874969Y-121601506D01*
X103886230Y-121569997D01*
X103911199Y-121536378D01*
X103935169Y-121510484D01*
X103972441Y-121473817D01*
X104001401Y-121454121D01*
X104032505Y-121446220D01*
X104067713Y-121444914D01*
X104144876Y-121456335D01*
G36*
X103779833Y-121458663D02*
G01*
X103782048Y-121496850D01*
X103783784Y-121554886D01*
X103784899Y-121628180D01*
X103785257Y-121705055D01*
X103785257Y-121965196D01*
X103739326Y-122011127D01*
X103707675Y-122039429D01*
X103679890Y-122050893D01*
X103641915Y-122050168D01*
X103626840Y-122048321D01*
X103579726Y-122042948D01*
X103540756Y-122039869D01*
X103531257Y-122039585D01*
X103499233Y-122041445D01*
X103453432Y-122046114D01*
X103435674Y-122048321D01*
X103392057Y-122051735D01*
X103362745Y-122044320D01*
X103333680Y-122021427D01*
X103323188Y-122011127D01*
X103277257Y-121965196D01*
X103277257Y-121478602D01*
X103314226Y-121461758D01*
X103346059Y-121449282D01*
X103364683Y-121444914D01*
X103369458Y-121458718D01*
X103373921Y-121497286D01*
X103377775Y-121556356D01*
X103380722Y-121631663D01*
X103382143Y-121695286D01*
X103386114Y-121945657D01*
X103420759Y-121950556D01*
X103452268Y-121947131D01*
X103467708Y-121936041D01*
X103472023Y-121915308D01*
X103475708Y-121871145D01*
X103478469Y-121809146D01*
X103480012Y-121734909D01*
X103480235Y-121696706D01*
X103480457Y-121476783D01*
X103526166Y-121460849D01*
X103558518Y-121450015D01*
X103576115Y-121444962D01*
X103576623Y-121444914D01*
X103578388Y-121458648D01*
X103580329Y-121496730D01*
X103582282Y-121554482D01*
X103584084Y-121627227D01*
X103585343Y-121695286D01*
X103589314Y-121945657D01*
X103676400Y-121945657D01*
X103680396Y-121717240D01*
X103684392Y-121488822D01*
X103726847Y-121466868D01*
X103758192Y-121451793D01*
X103776744Y-121444951D01*
X103777279Y-121444914D01*
X103779833Y-121458663D01*
X103779833Y-121458663D01*
G37*
X103779833Y-121458663D02*
X103782048Y-121496850D01*
X103783784Y-121554886D01*
X103784899Y-121628180D01*
X103785257Y-121705055D01*
X103785257Y-121965196D01*
X103739326Y-122011127D01*
X103707675Y-122039429D01*
X103679890Y-122050893D01*
X103641915Y-122050168D01*
X103626840Y-122048321D01*
X103579726Y-122042948D01*
X103540756Y-122039869D01*
X103531257Y-122039585D01*
X103499233Y-122041445D01*
X103453432Y-122046114D01*
X103435674Y-122048321D01*
X103392057Y-122051735D01*
X103362745Y-122044320D01*
X103333680Y-122021427D01*
X103323188Y-122011127D01*
X103277257Y-121965196D01*
X103277257Y-121478602D01*
X103314226Y-121461758D01*
X103346059Y-121449282D01*
X103364683Y-121444914D01*
X103369458Y-121458718D01*
X103373921Y-121497286D01*
X103377775Y-121556356D01*
X103380722Y-121631663D01*
X103382143Y-121695286D01*
X103386114Y-121945657D01*
X103420759Y-121950556D01*
X103452268Y-121947131D01*
X103467708Y-121936041D01*
X103472023Y-121915308D01*
X103475708Y-121871145D01*
X103478469Y-121809146D01*
X103480012Y-121734909D01*
X103480235Y-121696706D01*
X103480457Y-121476783D01*
X103526166Y-121460849D01*
X103558518Y-121450015D01*
X103576115Y-121444962D01*
X103576623Y-121444914D01*
X103578388Y-121458648D01*
X103580329Y-121496730D01*
X103582282Y-121554482D01*
X103584084Y-121627227D01*
X103585343Y-121695286D01*
X103589314Y-121945657D01*
X103676400Y-121945657D01*
X103680396Y-121717240D01*
X103684392Y-121488822D01*
X103726847Y-121466868D01*
X103758192Y-121451793D01*
X103776744Y-121444951D01*
X103777279Y-121444914D01*
X103779833Y-121458663D01*
G36*
X103190117Y-121565358D02*
G01*
X103189933Y-121673837D01*
X103189219Y-121757287D01*
X103187675Y-121819704D01*
X103185001Y-121865085D01*
X103180894Y-121897429D01*
X103175055Y-121920733D01*
X103167182Y-121938995D01*
X103161221Y-121949418D01*
X103111855Y-122005945D01*
X103049264Y-122041377D01*
X102980013Y-122054090D01*
X102910668Y-122042463D01*
X102869375Y-122021568D01*
X102826025Y-121985422D01*
X102796481Y-121941276D01*
X102778655Y-121883462D01*
X102770463Y-121806313D01*
X102769302Y-121749714D01*
X102769458Y-121745647D01*
X102870857Y-121745647D01*
X102871476Y-121810550D01*
X102874314Y-121853514D01*
X102880840Y-121881622D01*
X102892523Y-121901953D01*
X102906483Y-121917288D01*
X102953365Y-121946890D01*
X103003701Y-121949419D01*
X103051276Y-121924705D01*
X103054979Y-121921356D01*
X103070783Y-121903935D01*
X103080693Y-121883209D01*
X103086058Y-121852362D01*
X103088228Y-121804577D01*
X103088571Y-121751748D01*
X103087827Y-121685381D01*
X103084748Y-121641106D01*
X103078061Y-121612009D01*
X103066496Y-121591173D01*
X103057013Y-121580107D01*
X103012960Y-121552198D01*
X102962224Y-121548843D01*
X102913796Y-121570159D01*
X102904450Y-121578073D01*
X102888540Y-121595647D01*
X102878610Y-121616587D01*
X102873278Y-121647782D01*
X102871163Y-121696122D01*
X102870857Y-121745647D01*
X102769458Y-121745647D01*
X102772810Y-121658568D01*
X102784726Y-121590086D01*
X102807135Y-121538600D01*
X102842124Y-121498443D01*
X102869375Y-121477861D01*
X102918907Y-121455625D01*
X102976316Y-121445304D01*
X103029682Y-121448067D01*
X103059543Y-121459212D01*
X103071261Y-121462383D01*
X103079037Y-121450557D01*
X103084465Y-121418866D01*
X103088571Y-121370593D01*
X103093067Y-121316829D01*
X103099313Y-121284482D01*
X103110676Y-121265985D01*
X103130528Y-121253770D01*
X103143000Y-121248362D01*
X103190171Y-121228601D01*
X103190117Y-121565358D01*
X103190117Y-121565358D01*
G37*
X103190117Y-121565358D02*
X103189933Y-121673837D01*
X103189219Y-121757287D01*
X103187675Y-121819704D01*
X103185001Y-121865085D01*
X103180894Y-121897429D01*
X103175055Y-121920733D01*
X103167182Y-121938995D01*
X103161221Y-121949418D01*
X103111855Y-122005945D01*
X103049264Y-122041377D01*
X102980013Y-122054090D01*
X102910668Y-122042463D01*
X102869375Y-122021568D01*
X102826025Y-121985422D01*
X102796481Y-121941276D01*
X102778655Y-121883462D01*
X102770463Y-121806313D01*
X102769302Y-121749714D01*
X102769458Y-121745647D01*
X102870857Y-121745647D01*
X102871476Y-121810550D01*
X102874314Y-121853514D01*
X102880840Y-121881622D01*
X102892523Y-121901953D01*
X102906483Y-121917288D01*
X102953365Y-121946890D01*
X103003701Y-121949419D01*
X103051276Y-121924705D01*
X103054979Y-121921356D01*
X103070783Y-121903935D01*
X103080693Y-121883209D01*
X103086058Y-121852362D01*
X103088228Y-121804577D01*
X103088571Y-121751748D01*
X103087827Y-121685381D01*
X103084748Y-121641106D01*
X103078061Y-121612009D01*
X103066496Y-121591173D01*
X103057013Y-121580107D01*
X103012960Y-121552198D01*
X102962224Y-121548843D01*
X102913796Y-121570159D01*
X102904450Y-121578073D01*
X102888540Y-121595647D01*
X102878610Y-121616587D01*
X102873278Y-121647782D01*
X102871163Y-121696122D01*
X102870857Y-121745647D01*
X102769458Y-121745647D01*
X102772810Y-121658568D01*
X102784726Y-121590086D01*
X102807135Y-121538600D01*
X102842124Y-121498443D01*
X102869375Y-121477861D01*
X102918907Y-121455625D01*
X102976316Y-121445304D01*
X103029682Y-121448067D01*
X103059543Y-121459212D01*
X103071261Y-121462383D01*
X103079037Y-121450557D01*
X103084465Y-121418866D01*
X103088571Y-121370593D01*
X103093067Y-121316829D01*
X103099313Y-121284482D01*
X103110676Y-121265985D01*
X103130528Y-121253770D01*
X103143000Y-121248362D01*
X103190171Y-121228601D01*
X103190117Y-121565358D01*
G36*
X102529926Y-121449755D02*
G01*
X102595858Y-121474084D01*
X102649273Y-121517117D01*
X102670164Y-121547409D01*
X102692939Y-121602994D01*
X102692466Y-121643186D01*
X102668562Y-121670217D01*
X102659717Y-121674813D01*
X102621530Y-121689144D01*
X102602028Y-121685472D01*
X102595422Y-121661407D01*
X102595086Y-121648114D01*
X102582992Y-121599210D01*
X102551471Y-121564999D01*
X102507659Y-121548476D01*
X102458695Y-121552634D01*
X102418894Y-121574227D01*
X102405450Y-121586544D01*
X102395921Y-121601487D01*
X102389485Y-121624075D01*
X102385317Y-121659328D01*
X102382597Y-121712266D01*
X102380502Y-121787907D01*
X102379960Y-121811857D01*
X102377981Y-121893790D01*
X102375731Y-121951455D01*
X102372357Y-121989608D01*
X102367006Y-122013004D01*
X102358824Y-122026398D01*
X102346959Y-122034545D01*
X102339362Y-122038144D01*
X102307102Y-122050452D01*
X102288111Y-122054514D01*
X102281836Y-122040948D01*
X102278006Y-121999934D01*
X102276600Y-121930999D01*
X102277598Y-121833669D01*
X102277908Y-121818657D01*
X102280101Y-121729859D01*
X102282693Y-121665019D01*
X102286382Y-121619067D01*
X102291864Y-121586935D01*
X102299835Y-121563553D01*
X102310993Y-121543852D01*
X102316830Y-121535410D01*
X102350296Y-121498057D01*
X102387727Y-121469003D01*
X102392309Y-121466467D01*
X102459426Y-121446443D01*
X102529926Y-121449755D01*
X102529926Y-121449755D01*
G37*
X102529926Y-121449755D02*
X102595858Y-121474084D01*
X102649273Y-121517117D01*
X102670164Y-121547409D01*
X102692939Y-121602994D01*
X102692466Y-121643186D01*
X102668562Y-121670217D01*
X102659717Y-121674813D01*
X102621530Y-121689144D01*
X102602028Y-121685472D01*
X102595422Y-121661407D01*
X102595086Y-121648114D01*
X102582992Y-121599210D01*
X102551471Y-121564999D01*
X102507659Y-121548476D01*
X102458695Y-121552634D01*
X102418894Y-121574227D01*
X102405450Y-121586544D01*
X102395921Y-121601487D01*
X102389485Y-121624075D01*
X102385317Y-121659328D01*
X102382597Y-121712266D01*
X102380502Y-121787907D01*
X102379960Y-121811857D01*
X102377981Y-121893790D01*
X102375731Y-121951455D01*
X102372357Y-121989608D01*
X102367006Y-122013004D01*
X102358824Y-122026398D01*
X102346959Y-122034545D01*
X102339362Y-122038144D01*
X102307102Y-122050452D01*
X102288111Y-122054514D01*
X102281836Y-122040948D01*
X102278006Y-121999934D01*
X102276600Y-121930999D01*
X102277598Y-121833669D01*
X102277908Y-121818657D01*
X102280101Y-121729859D01*
X102282693Y-121665019D01*
X102286382Y-121619067D01*
X102291864Y-121586935D01*
X102299835Y-121563553D01*
X102310993Y-121543852D01*
X102316830Y-121535410D01*
X102350296Y-121498057D01*
X102387727Y-121469003D01*
X102392309Y-121466467D01*
X102459426Y-121446443D01*
X102529926Y-121449755D01*
G36*
X102039744Y-121450968D02*
G01*
X102096616Y-121472087D01*
X102097267Y-121472493D01*
X102132440Y-121498380D01*
X102158407Y-121528633D01*
X102176670Y-121568058D01*
X102188732Y-121621462D01*
X102196096Y-121693651D01*
X102200264Y-121789432D01*
X102200629Y-121803078D01*
X102205876Y-122008842D01*
X102161716Y-122031678D01*
X102129763Y-122047110D01*
X102110470Y-122054423D01*
X102109578Y-122054514D01*
X102106239Y-122041022D01*
X102103587Y-122004626D01*
X102101956Y-121951452D01*
X102101600Y-121908393D01*
X102101592Y-121838641D01*
X102098403Y-121794837D01*
X102087288Y-121773944D01*
X102063501Y-121772925D01*
X102022296Y-121788741D01*
X101960086Y-121817815D01*
X101914341Y-121841963D01*
X101890813Y-121862913D01*
X101883896Y-121885747D01*
X101883886Y-121886877D01*
X101895299Y-121926212D01*
X101929092Y-121947462D01*
X101980809Y-121950539D01*
X102018061Y-121950006D01*
X102037703Y-121960735D01*
X102049952Y-121986505D01*
X102057002Y-122019337D01*
X102046842Y-122037966D01*
X102043017Y-122040632D01*
X102007001Y-122051340D01*
X101956566Y-122052856D01*
X101904626Y-122045759D01*
X101867822Y-122032788D01*
X101816938Y-121989585D01*
X101788014Y-121929446D01*
X101782286Y-121882462D01*
X101786657Y-121840082D01*
X101802475Y-121805488D01*
X101833797Y-121774763D01*
X101884678Y-121743990D01*
X101959176Y-121709252D01*
X101963714Y-121707288D01*
X102030821Y-121676287D01*
X102072232Y-121650862D01*
X102089981Y-121628014D01*
X102086107Y-121604745D01*
X102062643Y-121578056D01*
X102055627Y-121571914D01*
X102008630Y-121548100D01*
X101959933Y-121549103D01*
X101917522Y-121572451D01*
X101889384Y-121615675D01*
X101886769Y-121624160D01*
X101861308Y-121665308D01*
X101829001Y-121685128D01*
X101782286Y-121704770D01*
X101782286Y-121653950D01*
X101796496Y-121580082D01*
X101838675Y-121512327D01*
X101860624Y-121489661D01*
X101910517Y-121460569D01*
X101973967Y-121447400D01*
X102039744Y-121450968D01*
X102039744Y-121450968D01*
G37*
X102039744Y-121450968D02*
X102096616Y-121472087D01*
X102097267Y-121472493D01*
X102132440Y-121498380D01*
X102158407Y-121528633D01*
X102176670Y-121568058D01*
X102188732Y-121621462D01*
X102196096Y-121693651D01*
X102200264Y-121789432D01*
X102200629Y-121803078D01*
X102205876Y-122008842D01*
X102161716Y-122031678D01*
X102129763Y-122047110D01*
X102110470Y-122054423D01*
X102109578Y-122054514D01*
X102106239Y-122041022D01*
X102103587Y-122004626D01*
X102101956Y-121951452D01*
X102101600Y-121908393D01*
X102101592Y-121838641D01*
X102098403Y-121794837D01*
X102087288Y-121773944D01*
X102063501Y-121772925D01*
X102022296Y-121788741D01*
X101960086Y-121817815D01*
X101914341Y-121841963D01*
X101890813Y-121862913D01*
X101883896Y-121885747D01*
X101883886Y-121886877D01*
X101895299Y-121926212D01*
X101929092Y-121947462D01*
X101980809Y-121950539D01*
X102018061Y-121950006D01*
X102037703Y-121960735D01*
X102049952Y-121986505D01*
X102057002Y-122019337D01*
X102046842Y-122037966D01*
X102043017Y-122040632D01*
X102007001Y-122051340D01*
X101956566Y-122052856D01*
X101904626Y-122045759D01*
X101867822Y-122032788D01*
X101816938Y-121989585D01*
X101788014Y-121929446D01*
X101782286Y-121882462D01*
X101786657Y-121840082D01*
X101802475Y-121805488D01*
X101833797Y-121774763D01*
X101884678Y-121743990D01*
X101959176Y-121709252D01*
X101963714Y-121707288D01*
X102030821Y-121676287D01*
X102072232Y-121650862D01*
X102089981Y-121628014D01*
X102086107Y-121604745D01*
X102062643Y-121578056D01*
X102055627Y-121571914D01*
X102008630Y-121548100D01*
X101959933Y-121549103D01*
X101917522Y-121572451D01*
X101889384Y-121615675D01*
X101886769Y-121624160D01*
X101861308Y-121665308D01*
X101829001Y-121685128D01*
X101782286Y-121704770D01*
X101782286Y-121653950D01*
X101796496Y-121580082D01*
X101838675Y-121512327D01*
X101860624Y-121489661D01*
X101910517Y-121460569D01*
X101973967Y-121447400D01*
X102039744Y-121450968D01*
G36*
X101375886Y-121351289D02*
G01*
X101380139Y-121410613D01*
X101385025Y-121445572D01*
X101391795Y-121460820D01*
X101401702Y-121461015D01*
X101404914Y-121459195D01*
X101447644Y-121446015D01*
X101503227Y-121446785D01*
X101559737Y-121460333D01*
X101595082Y-121477861D01*
X101631321Y-121505861D01*
X101657813Y-121537549D01*
X101675999Y-121577813D01*
X101687322Y-121631543D01*
X101693222Y-121703626D01*
X101695143Y-121798951D01*
X101695177Y-121817237D01*
X101695200Y-122022646D01*
X101649491Y-122038580D01*
X101617027Y-122049420D01*
X101599215Y-122054468D01*
X101598691Y-122054514D01*
X101596937Y-122040828D01*
X101595444Y-122003076D01*
X101594326Y-121946224D01*
X101593697Y-121875234D01*
X101593600Y-121832073D01*
X101593398Y-121746973D01*
X101592358Y-121685981D01*
X101589831Y-121644177D01*
X101585164Y-121616642D01*
X101577707Y-121598456D01*
X101566811Y-121584698D01*
X101560007Y-121578073D01*
X101513272Y-121551375D01*
X101462272Y-121549375D01*
X101416001Y-121571955D01*
X101407444Y-121580107D01*
X101394893Y-121595436D01*
X101386188Y-121613618D01*
X101380631Y-121639909D01*
X101377526Y-121679562D01*
X101376176Y-121737832D01*
X101375886Y-121818173D01*
X101375886Y-122022646D01*
X101330177Y-122038580D01*
X101297713Y-122049420D01*
X101279901Y-122054468D01*
X101279377Y-122054514D01*
X101278037Y-122040623D01*
X101276828Y-122001439D01*
X101275801Y-121940700D01*
X101275002Y-121862141D01*
X101274481Y-121769498D01*
X101274286Y-121666509D01*
X101274286Y-121269342D01*
X101321457Y-121249444D01*
X101368629Y-121229547D01*
X101375886Y-121351289D01*
X101375886Y-121351289D01*
G37*
X101375886Y-121351289D02*
X101380139Y-121410613D01*
X101385025Y-121445572D01*
X101391795Y-121460820D01*
X101401702Y-121461015D01*
X101404914Y-121459195D01*
X101447644Y-121446015D01*
X101503227Y-121446785D01*
X101559737Y-121460333D01*
X101595082Y-121477861D01*
X101631321Y-121505861D01*
X101657813Y-121537549D01*
X101675999Y-121577813D01*
X101687322Y-121631543D01*
X101693222Y-121703626D01*
X101695143Y-121798951D01*
X101695177Y-121817237D01*
X101695200Y-122022646D01*
X101649491Y-122038580D01*
X101617027Y-122049420D01*
X101599215Y-122054468D01*
X101598691Y-122054514D01*
X101596937Y-122040828D01*
X101595444Y-122003076D01*
X101594326Y-121946224D01*
X101593697Y-121875234D01*
X101593600Y-121832073D01*
X101593398Y-121746973D01*
X101592358Y-121685981D01*
X101589831Y-121644177D01*
X101585164Y-121616642D01*
X101577707Y-121598456D01*
X101566811Y-121584698D01*
X101560007Y-121578073D01*
X101513272Y-121551375D01*
X101462272Y-121549375D01*
X101416001Y-121571955D01*
X101407444Y-121580107D01*
X101394893Y-121595436D01*
X101386188Y-121613618D01*
X101380631Y-121639909D01*
X101377526Y-121679562D01*
X101376176Y-121737832D01*
X101375886Y-121818173D01*
X101375886Y-122022646D01*
X101330177Y-122038580D01*
X101297713Y-122049420D01*
X101279901Y-122054468D01*
X101279377Y-122054514D01*
X101278037Y-122040623D01*
X101276828Y-122001439D01*
X101275801Y-121940700D01*
X101275002Y-121862141D01*
X101274481Y-121769498D01*
X101274286Y-121666509D01*
X101274286Y-121269342D01*
X101321457Y-121249444D01*
X101368629Y-121229547D01*
X101375886Y-121351289D01*
G36*
X100168303Y-121431239D02*
G01*
X100225527Y-121469735D01*
X100269749Y-121525335D01*
X100296167Y-121596086D01*
X100301510Y-121648162D01*
X100300903Y-121669893D01*
X100295822Y-121686531D01*
X100281855Y-121701437D01*
X100254589Y-121717973D01*
X100209612Y-121739498D01*
X100142511Y-121769374D01*
X100142171Y-121769524D01*
X100080407Y-121797813D01*
X100029759Y-121822933D01*
X99995404Y-121842179D01*
X99982518Y-121852848D01*
X99982514Y-121852934D01*
X99993872Y-121876166D01*
X100020431Y-121901774D01*
X100050923Y-121920221D01*
X100066370Y-121923886D01*
X100108515Y-121911212D01*
X100144808Y-121879471D01*
X100162517Y-121844572D01*
X100179552Y-121818845D01*
X100212922Y-121789546D01*
X100252149Y-121764235D01*
X100286756Y-121750471D01*
X100293993Y-121749714D01*
X100302139Y-121762160D01*
X100302630Y-121793972D01*
X100296643Y-121836866D01*
X100285357Y-121882558D01*
X100269950Y-121922761D01*
X100269171Y-121924322D01*
X100222804Y-121989062D01*
X100162711Y-122033097D01*
X100094465Y-122054711D01*
X100023638Y-122052185D01*
X99955804Y-122023804D01*
X99952788Y-122021808D01*
X99899427Y-121973448D01*
X99864340Y-121910352D01*
X99844922Y-121827387D01*
X99842316Y-121804078D01*
X99837701Y-121694055D01*
X99843233Y-121642748D01*
X99982514Y-121642748D01*
X99984324Y-121674753D01*
X99994222Y-121684093D01*
X100018898Y-121677105D01*
X100057795Y-121660587D01*
X100101275Y-121639881D01*
X100102356Y-121639333D01*
X100139209Y-121619949D01*
X100154000Y-121607013D01*
X100150353Y-121593451D01*
X100134995Y-121575632D01*
X100095923Y-121549845D01*
X100053846Y-121547950D01*
X100016103Y-121566717D01*
X99990034Y-121602915D01*
X99982514Y-121642748D01*
X99843233Y-121642748D01*
X99847194Y-121606027D01*
X99871550Y-121536212D01*
X99905456Y-121487302D01*
X99966653Y-121437878D01*
X100034063Y-121413359D01*
X100102880Y-121411797D01*
X100168303Y-121431239D01*
X100168303Y-121431239D01*
G37*
X100168303Y-121431239D02*
X100225527Y-121469735D01*
X100269749Y-121525335D01*
X100296167Y-121596086D01*
X100301510Y-121648162D01*
X100300903Y-121669893D01*
X100295822Y-121686531D01*
X100281855Y-121701437D01*
X100254589Y-121717973D01*
X100209612Y-121739498D01*
X100142511Y-121769374D01*
X100142171Y-121769524D01*
X100080407Y-121797813D01*
X100029759Y-121822933D01*
X99995404Y-121842179D01*
X99982518Y-121852848D01*
X99982514Y-121852934D01*
X99993872Y-121876166D01*
X100020431Y-121901774D01*
X100050923Y-121920221D01*
X100066370Y-121923886D01*
X100108515Y-121911212D01*
X100144808Y-121879471D01*
X100162517Y-121844572D01*
X100179552Y-121818845D01*
X100212922Y-121789546D01*
X100252149Y-121764235D01*
X100286756Y-121750471D01*
X100293993Y-121749714D01*
X100302139Y-121762160D01*
X100302630Y-121793972D01*
X100296643Y-121836866D01*
X100285357Y-121882558D01*
X100269950Y-121922761D01*
X100269171Y-121924322D01*
X100222804Y-121989062D01*
X100162711Y-122033097D01*
X100094465Y-122054711D01*
X100023638Y-122052185D01*
X99955804Y-122023804D01*
X99952788Y-122021808D01*
X99899427Y-121973448D01*
X99864340Y-121910352D01*
X99844922Y-121827387D01*
X99842316Y-121804078D01*
X99837701Y-121694055D01*
X99843233Y-121642748D01*
X99982514Y-121642748D01*
X99984324Y-121674753D01*
X99994222Y-121684093D01*
X100018898Y-121677105D01*
X100057795Y-121660587D01*
X100101275Y-121639881D01*
X100102356Y-121639333D01*
X100139209Y-121619949D01*
X100154000Y-121607013D01*
X100150353Y-121593451D01*
X100134995Y-121575632D01*
X100095923Y-121549845D01*
X100053846Y-121547950D01*
X100016103Y-121566717D01*
X99990034Y-121602915D01*
X99982514Y-121642748D01*
X99843233Y-121642748D01*
X99847194Y-121606027D01*
X99871550Y-121536212D01*
X99905456Y-121487302D01*
X99966653Y-121437878D01*
X100034063Y-121413359D01*
X100102880Y-121411797D01*
X100168303Y-121431239D01*
G36*
X99041115Y-121421962D02*
G01*
X99109145Y-121457733D01*
X99159351Y-121515301D01*
X99177185Y-121552312D01*
X99191063Y-121607882D01*
X99198167Y-121678096D01*
X99198840Y-121754727D01*
X99193427Y-121829552D01*
X99182270Y-121894342D01*
X99165714Y-121940873D01*
X99160626Y-121948887D01*
X99100355Y-122008707D01*
X99028769Y-122044535D01*
X98951092Y-122055020D01*
X98872548Y-122038810D01*
X98850689Y-122029092D01*
X98808122Y-121999143D01*
X98770763Y-121959433D01*
X98767232Y-121954397D01*
X98752881Y-121930124D01*
X98743394Y-121904178D01*
X98737790Y-121870022D01*
X98735086Y-121821119D01*
X98734299Y-121750935D01*
X98734286Y-121735200D01*
X98734322Y-121730192D01*
X98879429Y-121730192D01*
X98880273Y-121796430D01*
X98883596Y-121840386D01*
X98890583Y-121868779D01*
X98902416Y-121888325D01*
X98908457Y-121894857D01*
X98943186Y-121919680D01*
X98976903Y-121918548D01*
X99010995Y-121897016D01*
X99031329Y-121874029D01*
X99043371Y-121840478D01*
X99050134Y-121787569D01*
X99050598Y-121781399D01*
X99051752Y-121685513D01*
X99039688Y-121614299D01*
X99014570Y-121568194D01*
X98976560Y-121547635D01*
X98962992Y-121546514D01*
X98927364Y-121552152D01*
X98902994Y-121571686D01*
X98888093Y-121609042D01*
X98880875Y-121668150D01*
X98879429Y-121730192D01*
X98734322Y-121730192D01*
X98734826Y-121660413D01*
X98737096Y-121608159D01*
X98742068Y-121571949D01*
X98750713Y-121545299D01*
X98764005Y-121521722D01*
X98766943Y-121517338D01*
X98816313Y-121458249D01*
X98870109Y-121423947D01*
X98935602Y-121410331D01*
X98957842Y-121409665D01*
X99041115Y-121421962D01*
X99041115Y-121421962D01*
G37*
X99041115Y-121421962D02*
X99109145Y-121457733D01*
X99159351Y-121515301D01*
X99177185Y-121552312D01*
X99191063Y-121607882D01*
X99198167Y-121678096D01*
X99198840Y-121754727D01*
X99193427Y-121829552D01*
X99182270Y-121894342D01*
X99165714Y-121940873D01*
X99160626Y-121948887D01*
X99100355Y-122008707D01*
X99028769Y-122044535D01*
X98951092Y-122055020D01*
X98872548Y-122038810D01*
X98850689Y-122029092D01*
X98808122Y-121999143D01*
X98770763Y-121959433D01*
X98767232Y-121954397D01*
X98752881Y-121930124D01*
X98743394Y-121904178D01*
X98737790Y-121870022D01*
X98735086Y-121821119D01*
X98734299Y-121750935D01*
X98734286Y-121735200D01*
X98734322Y-121730192D01*
X98879429Y-121730192D01*
X98880273Y-121796430D01*
X98883596Y-121840386D01*
X98890583Y-121868779D01*
X98902416Y-121888325D01*
X98908457Y-121894857D01*
X98943186Y-121919680D01*
X98976903Y-121918548D01*
X99010995Y-121897016D01*
X99031329Y-121874029D01*
X99043371Y-121840478D01*
X99050134Y-121787569D01*
X99050598Y-121781399D01*
X99051752Y-121685513D01*
X99039688Y-121614299D01*
X99014570Y-121568194D01*
X98976560Y-121547635D01*
X98962992Y-121546514D01*
X98927364Y-121552152D01*
X98902994Y-121571686D01*
X98888093Y-121609042D01*
X98880875Y-121668150D01*
X98879429Y-121730192D01*
X98734322Y-121730192D01*
X98734826Y-121660413D01*
X98737096Y-121608159D01*
X98742068Y-121571949D01*
X98750713Y-121545299D01*
X98764005Y-121521722D01*
X98766943Y-121517338D01*
X98816313Y-121458249D01*
X98870109Y-121423947D01*
X98935602Y-121410331D01*
X98957842Y-121409665D01*
X99041115Y-121421962D01*
G36*
X100716093Y-121427780D02*
G01*
X100762672Y-121454723D01*
X100795057Y-121481466D01*
X100818742Y-121509484D01*
X100835059Y-121543748D01*
X100845339Y-121589227D01*
X100850914Y-121650892D01*
X100853116Y-121733711D01*
X100853371Y-121793246D01*
X100853371Y-122012391D01*
X100791686Y-122040044D01*
X100730000Y-122067697D01*
X100722743Y-121827670D01*
X100719744Y-121738028D01*
X100716598Y-121672962D01*
X100712701Y-121628026D01*
X100707447Y-121598770D01*
X100700231Y-121580748D01*
X100690450Y-121569511D01*
X100687312Y-121567079D01*
X100639761Y-121548083D01*
X100591697Y-121555600D01*
X100563086Y-121575543D01*
X100551447Y-121589675D01*
X100543391Y-121608220D01*
X100538271Y-121636334D01*
X100535441Y-121679173D01*
X100534256Y-121741895D01*
X100534057Y-121807261D01*
X100534018Y-121889268D01*
X100532614Y-121947316D01*
X100527914Y-121986465D01*
X100517987Y-122011780D01*
X100500903Y-122028323D01*
X100474732Y-122041156D01*
X100439775Y-122054491D01*
X100401596Y-122069007D01*
X100406141Y-121811389D01*
X100407971Y-121718519D01*
X100410112Y-121649889D01*
X100413181Y-121600711D01*
X100417794Y-121566198D01*
X100424568Y-121541562D01*
X100434119Y-121522016D01*
X100445634Y-121504770D01*
X100501190Y-121449680D01*
X100568980Y-121417822D01*
X100642713Y-121410191D01*
X100716093Y-121427780D01*
X100716093Y-121427780D01*
G37*
X100716093Y-121427780D02*
X100762672Y-121454723D01*
X100795057Y-121481466D01*
X100818742Y-121509484D01*
X100835059Y-121543748D01*
X100845339Y-121589227D01*
X100850914Y-121650892D01*
X100853116Y-121733711D01*
X100853371Y-121793246D01*
X100853371Y-122012391D01*
X100791686Y-122040044D01*
X100730000Y-122067697D01*
X100722743Y-121827670D01*
X100719744Y-121738028D01*
X100716598Y-121672962D01*
X100712701Y-121628026D01*
X100707447Y-121598770D01*
X100700231Y-121580748D01*
X100690450Y-121569511D01*
X100687312Y-121567079D01*
X100639761Y-121548083D01*
X100591697Y-121555600D01*
X100563086Y-121575543D01*
X100551447Y-121589675D01*
X100543391Y-121608220D01*
X100538271Y-121636334D01*
X100535441Y-121679173D01*
X100534256Y-121741895D01*
X100534057Y-121807261D01*
X100534018Y-121889268D01*
X100532614Y-121947316D01*
X100527914Y-121986465D01*
X100517987Y-122011780D01*
X100500903Y-122028323D01*
X100474732Y-122041156D01*
X100439775Y-122054491D01*
X100401596Y-122069007D01*
X100406141Y-121811389D01*
X100407971Y-121718519D01*
X100410112Y-121649889D01*
X100413181Y-121600711D01*
X100417794Y-121566198D01*
X100424568Y-121541562D01*
X100434119Y-121522016D01*
X100445634Y-121504770D01*
X100501190Y-121449680D01*
X100568980Y-121417822D01*
X100642713Y-121410191D01*
X100716093Y-121427780D01*
G36*
X99599744Y-121419918D02*
G01*
X99655201Y-121447568D01*
X99704148Y-121498480D01*
X99717629Y-121517338D01*
X99732314Y-121542015D01*
X99741842Y-121568816D01*
X99747293Y-121604587D01*
X99749747Y-121656169D01*
X99750286Y-121724267D01*
X99747852Y-121817588D01*
X99739394Y-121887657D01*
X99723174Y-121939931D01*
X99697454Y-121979869D01*
X99660497Y-122012929D01*
X99657782Y-122014886D01*
X99621360Y-122034908D01*
X99577502Y-122044815D01*
X99521724Y-122047257D01*
X99431048Y-122047257D01*
X99431010Y-122135283D01*
X99430166Y-122184308D01*
X99425024Y-122213065D01*
X99411587Y-122230311D01*
X99385858Y-122244808D01*
X99379679Y-122247769D01*
X99350764Y-122261648D01*
X99328376Y-122270414D01*
X99311729Y-122271171D01*
X99300036Y-122261023D01*
X99292510Y-122237073D01*
X99288366Y-122196426D01*
X99286815Y-122136186D01*
X99287071Y-122053455D01*
X99288349Y-121945339D01*
X99288748Y-121913000D01*
X99290185Y-121801524D01*
X99291472Y-121728603D01*
X99430971Y-121728603D01*
X99431755Y-121790499D01*
X99435240Y-121830997D01*
X99443124Y-121857708D01*
X99457105Y-121878244D01*
X99466597Y-121888260D01*
X99505404Y-121917567D01*
X99539763Y-121919952D01*
X99575216Y-121895750D01*
X99576114Y-121894857D01*
X99590539Y-121876153D01*
X99599313Y-121850732D01*
X99603739Y-121811584D01*
X99605118Y-121751697D01*
X99605143Y-121738430D01*
X99601812Y-121655901D01*
X99590969Y-121598691D01*
X99571340Y-121563766D01*
X99541650Y-121548094D01*
X99524491Y-121546514D01*
X99483766Y-121553926D01*
X99455832Y-121578330D01*
X99439017Y-121622980D01*
X99431650Y-121691130D01*
X99430971Y-121728603D01*
X99291472Y-121728603D01*
X99291708Y-121715245D01*
X99293677Y-121650333D01*
X99296450Y-121602958D01*
X99300388Y-121569290D01*
X99305849Y-121545498D01*
X99313192Y-121527753D01*
X99322777Y-121512224D01*
X99326887Y-121506381D01*
X99381405Y-121451185D01*
X99450336Y-121419890D01*
X99530072Y-121411165D01*
X99599744Y-121419918D01*
X99599744Y-121419918D01*
G37*
X99599744Y-121419918D02*
X99655201Y-121447568D01*
X99704148Y-121498480D01*
X99717629Y-121517338D01*
X99732314Y-121542015D01*
X99741842Y-121568816D01*
X99747293Y-121604587D01*
X99749747Y-121656169D01*
X99750286Y-121724267D01*
X99747852Y-121817588D01*
X99739394Y-121887657D01*
X99723174Y-121939931D01*
X99697454Y-121979869D01*
X99660497Y-122012929D01*
X99657782Y-122014886D01*
X99621360Y-122034908D01*
X99577502Y-122044815D01*
X99521724Y-122047257D01*
X99431048Y-122047257D01*
X99431010Y-122135283D01*
X99430166Y-122184308D01*
X99425024Y-122213065D01*
X99411587Y-122230311D01*
X99385858Y-122244808D01*
X99379679Y-122247769D01*
X99350764Y-122261648D01*
X99328376Y-122270414D01*
X99311729Y-122271171D01*
X99300036Y-122261023D01*
X99292510Y-122237073D01*
X99288366Y-122196426D01*
X99286815Y-122136186D01*
X99287071Y-122053455D01*
X99288349Y-121945339D01*
X99288748Y-121913000D01*
X99290185Y-121801524D01*
X99291472Y-121728603D01*
X99430971Y-121728603D01*
X99431755Y-121790499D01*
X99435240Y-121830997D01*
X99443124Y-121857708D01*
X99457105Y-121878244D01*
X99466597Y-121888260D01*
X99505404Y-121917567D01*
X99539763Y-121919952D01*
X99575216Y-121895750D01*
X99576114Y-121894857D01*
X99590539Y-121876153D01*
X99599313Y-121850732D01*
X99603739Y-121811584D01*
X99605118Y-121751697D01*
X99605143Y-121738430D01*
X99601812Y-121655901D01*
X99590969Y-121598691D01*
X99571340Y-121563766D01*
X99541650Y-121548094D01*
X99524491Y-121546514D01*
X99483766Y-121553926D01*
X99455832Y-121578330D01*
X99439017Y-121622980D01*
X99431650Y-121691130D01*
X99430971Y-121728603D01*
X99291472Y-121728603D01*
X99291708Y-121715245D01*
X99293677Y-121650333D01*
X99296450Y-121602958D01*
X99300388Y-121569290D01*
X99305849Y-121545498D01*
X99313192Y-121527753D01*
X99322777Y-121512224D01*
X99326887Y-121506381D01*
X99381405Y-121451185D01*
X99450336Y-121419890D01*
X99530072Y-121411165D01*
X99599744Y-121419918D01*
D11*
X117160000Y-115600000D02*
X115550000Y-115600000D01*
X117160000Y-115600000D02*
X117160000Y-113600000D01*
X116880000Y-103060000D02*
X116880000Y-115310000D01*
X111120000Y-103060000D02*
X116880000Y-103060000D01*
X111120000Y-115320000D02*
X111120000Y-103060000D01*
X116870000Y-115320000D02*
X111130000Y-115320000D01*
X113380000Y-101120000D02*
X113380000Y-96880000D01*
X126620000Y-101120000D02*
X126620000Y-96880000D01*
X126620000Y-96880000D02*
X113380000Y-96880000D01*
X126620000Y-101120000D02*
X113380000Y-101120000D01*
X126620000Y-117380000D02*
X126620000Y-121620000D01*
X113380000Y-117380000D02*
X113380000Y-121620000D01*
X113380000Y-121620000D02*
X126620000Y-121620000D01*
X113380000Y-117380000D02*
X126620000Y-117380000D01*
X133250000Y-102650000D02*
X132000000Y-102650000D01*
X133250000Y-103900000D02*
X133250000Y-102650000D01*
X127750000Y-114800000D02*
X127750000Y-109250000D01*
X130700000Y-114800000D02*
X127750000Y-114800000D01*
X130700000Y-115550000D02*
X130700000Y-114800000D01*
X127750000Y-103700000D02*
X127750000Y-109250000D01*
X130700000Y-103700000D02*
X127750000Y-103700000D01*
X130700000Y-102950000D02*
X130700000Y-103700000D01*
X132950000Y-115550000D02*
X132950000Y-113750000D01*
X132200000Y-115550000D02*
X132950000Y-115550000D01*
X132200000Y-113750000D02*
X132200000Y-115550000D01*
X132950000Y-113750000D02*
X132200000Y-113750000D01*
X132950000Y-104750000D02*
X132950000Y-102950000D01*
X132200000Y-104750000D02*
X132950000Y-104750000D01*
X132200000Y-102950000D02*
X132200000Y-104750000D01*
X132950000Y-102950000D02*
X132200000Y-102950000D01*
X132950000Y-112250000D02*
X132950000Y-106250000D01*
X132200000Y-112250000D02*
X132950000Y-112250000D01*
X132200000Y-106250000D02*
X132200000Y-112250000D01*
X132950000Y-106250000D02*
X132200000Y-106250000D01*
X132960000Y-115560000D02*
X132960000Y-102940000D01*
X126990000Y-115560000D02*
X132960000Y-115560000D01*
X126990000Y-102940000D02*
X126990000Y-115560000D01*
X132960000Y-102940000D02*
X126990000Y-102940000D01*
X121080000Y-106790000D02*
X121236000Y-106790000D01*
X118764000Y-106790000D02*
X118920000Y-106790000D01*
X121079837Y-104188870D02*
G75*
G02X121080000Y-106270961I-1079837J-1041130D01*
G01*
X118920163Y-104188870D02*
G75*
G03X118920000Y-106270961I1079837J-1041130D01*
G01*
X121078608Y-103557665D02*
G75*
G02X121235516Y-106790000I-1078608J-1672335D01*
G01*
X118921392Y-103557665D02*
G75*
G03X118764484Y-106790000I1078608J-1672335D01*
G01*
X121370000Y-115620000D02*
X118630000Y-115620000D01*
X121370000Y-108380000D02*
X118630000Y-108380000D01*
X118630000Y-108380000D02*
X118630000Y-115620000D01*
X121370000Y-108380000D02*
X121370000Y-115620000D01*
D10*
X111738095Y-103452380D02*
X111738095Y-104261904D01*
X111785714Y-104357142D01*
X111833333Y-104404761D01*
X111928571Y-104452380D01*
X112119047Y-104452380D01*
X112214285Y-104404761D01*
X112261904Y-104357142D01*
X112309523Y-104261904D01*
X112309523Y-103452380D01*
X113309523Y-104452380D02*
X112738095Y-104452380D01*
X113023809Y-104452380D02*
X113023809Y-103452380D01*
X112928571Y-103595238D01*
X112833333Y-103690476D01*
X112738095Y-103738095D01*
X119833333Y-99452380D02*
X119500000Y-98976190D01*
X119261904Y-99452380D02*
X119261904Y-98452380D01*
X119642857Y-98452380D01*
X119738095Y-98500000D01*
X119785714Y-98547619D01*
X119833333Y-98642857D01*
X119833333Y-98785714D01*
X119785714Y-98880952D01*
X119738095Y-98928571D01*
X119642857Y-98976190D01*
X119261904Y-98976190D01*
X120214285Y-98547619D02*
X120261904Y-98500000D01*
X120357142Y-98452380D01*
X120595238Y-98452380D01*
X120690476Y-98500000D01*
X120738095Y-98547619D01*
X120785714Y-98642857D01*
X120785714Y-98738095D01*
X120738095Y-98880952D01*
X120166666Y-99452380D01*
X120785714Y-99452380D01*
X119833333Y-119452380D02*
X119500000Y-118976190D01*
X119261904Y-119452380D02*
X119261904Y-118452380D01*
X119642857Y-118452380D01*
X119738095Y-118500000D01*
X119785714Y-118547619D01*
X119833333Y-118642857D01*
X119833333Y-118785714D01*
X119785714Y-118880952D01*
X119738095Y-118928571D01*
X119642857Y-118976190D01*
X119261904Y-118976190D01*
X120785714Y-119452380D02*
X120214285Y-119452380D01*
X120500000Y-119452380D02*
X120500000Y-118452380D01*
X120404761Y-118595238D01*
X120309523Y-118690476D01*
X120214285Y-118738095D01*
X127952380Y-109583333D02*
X128666666Y-109583333D01*
X128809523Y-109630952D01*
X128904761Y-109726190D01*
X128952380Y-109869047D01*
X128952380Y-109964285D01*
X128952380Y-108583333D02*
X128952380Y-109154761D01*
X128952380Y-108869047D02*
X127952380Y-108869047D01*
X128095238Y-108964285D01*
X128190476Y-109059523D01*
X128238095Y-109154761D01*
X120357142Y-112166666D02*
X120404761Y-112214285D01*
X120452380Y-112357142D01*
X120452380Y-112452380D01*
X120404761Y-112595238D01*
X120309523Y-112690476D01*
X120214285Y-112738095D01*
X120023809Y-112785714D01*
X119880952Y-112785714D01*
X119690476Y-112738095D01*
X119595238Y-112690476D01*
X119500000Y-112595238D01*
X119452380Y-112452380D01*
X119452380Y-112357142D01*
X119500000Y-112214285D01*
X119547619Y-112166666D01*
X120452380Y-111214285D02*
X120452380Y-111785714D01*
X120452380Y-111500000D02*
X119452380Y-111500000D01*
X119595238Y-111595238D01*
X119690476Y-111690476D01*
X119738095Y-111785714D01*
M02*
