G04 #@! TF.GenerationSoftware,KiCad,Pcbnew,(5.1.7)-1*
G04 #@! TF.CreationDate,2020-10-18T18:55:38+03:00*
G04 #@! TF.ProjectId,peltier,70656c74-6965-4722-9e6b-696361645f70,rev?*
G04 #@! TF.SameCoordinates,Original*
G04 #@! TF.FileFunction,Other,Fab,Top*
%FSLAX46Y46*%
G04 Gerber Fmt 4.6, Leading zero omitted, Abs format (unit mm)*
G04 Created by KiCad (PCBNEW (5.1.7)-1) date 2020-10-18 18:55:38*
%MOMM*%
%LPD*%
G01*
G04 APERTURE LIST*
%ADD10C,0.100000*%
%ADD11C,0.150000*%
G04 APERTURE END LIST*
D10*
X150600000Y-111000000D02*
G75*
G03*
X150600000Y-111000000I-1100000J0D01*
G01*
X148060000Y-111000000D02*
G75*
G03*
X148060000Y-111000000I-1100000J0D01*
G01*
X145520000Y-111000000D02*
G75*
G03*
X145520000Y-111000000I-1100000J0D01*
G01*
X151000000Y-114250000D02*
X142920000Y-114250000D01*
X142920000Y-114250000D02*
X142920000Y-107750000D01*
X142920000Y-107750000D02*
X150600000Y-107750000D01*
X150600000Y-107750000D02*
X151000000Y-108150000D01*
X151000000Y-108150000D02*
X151000000Y-114250000D01*
X151000000Y-108150000D02*
X142920000Y-108150000D01*
X151000000Y-113250000D02*
X142920000Y-113250000D01*
X148665000Y-111700000D02*
X150201000Y-110165000D01*
X148799000Y-111835000D02*
X150335000Y-110300000D01*
X146125000Y-111700000D02*
X147660000Y-110165000D01*
X146259000Y-111835000D02*
X147794000Y-110300000D01*
X143585000Y-111700000D02*
X145120000Y-110165000D01*
X143719000Y-111835000D02*
X145254000Y-110300000D01*
X155135000Y-81730000D02*
X160485000Y-81730000D01*
X160485000Y-81730000D02*
X160485000Y-91890000D01*
X160485000Y-91890000D02*
X154135000Y-91890000D01*
X154135000Y-91890000D02*
X154135000Y-82730000D01*
X154135000Y-82730000D02*
X155135000Y-81730000D01*
X144635000Y-95730000D02*
X149985000Y-95730000D01*
X149985000Y-95730000D02*
X149985000Y-105890000D01*
X149985000Y-105890000D02*
X143635000Y-105890000D01*
X143635000Y-105890000D02*
X143635000Y-96730000D01*
X143635000Y-96730000D02*
X144635000Y-95730000D01*
X151500000Y-86000000D02*
X151500000Y-73000000D01*
X147500000Y-86000000D02*
X151500000Y-86000000D01*
X147500000Y-73000000D02*
X147500000Y-86000000D01*
X151500000Y-73000000D02*
X147500000Y-73000000D01*
X146500000Y-73000000D02*
X142500000Y-73000000D01*
X142500000Y-73000000D02*
X142500000Y-86000000D01*
X142500000Y-86000000D02*
X146500000Y-86000000D01*
X146500000Y-86000000D02*
X146500000Y-73000000D01*
X173500000Y-73000000D02*
X169500000Y-73000000D01*
X169500000Y-73000000D02*
X169500000Y-86000000D01*
X169500000Y-86000000D02*
X173500000Y-86000000D01*
X173500000Y-86000000D02*
X173500000Y-73000000D01*
X174500000Y-95500000D02*
X170500000Y-95500000D01*
X170500000Y-95500000D02*
X170500000Y-108500000D01*
X170500000Y-108500000D02*
X174500000Y-108500000D01*
X174500000Y-108500000D02*
X174500000Y-95500000D01*
X167500000Y-73000000D02*
X163500000Y-73000000D01*
X163500000Y-73000000D02*
X163500000Y-86000000D01*
X163500000Y-86000000D02*
X167500000Y-86000000D01*
X167500000Y-86000000D02*
X167500000Y-73000000D01*
X136000000Y-114500000D02*
X140000000Y-114500000D01*
X140000000Y-114500000D02*
X140000000Y-101500000D01*
X140000000Y-101500000D02*
X136000000Y-101500000D01*
X136000000Y-101500000D02*
X136000000Y-114500000D01*
X168500000Y-95500000D02*
X164500000Y-95500000D01*
X164500000Y-95500000D02*
X164500000Y-108500000D01*
X164500000Y-108500000D02*
X168500000Y-108500000D01*
X168500000Y-108500000D02*
X168500000Y-95500000D01*
X179000000Y-73000000D02*
X175000000Y-73000000D01*
X175000000Y-73000000D02*
X175000000Y-86000000D01*
X175000000Y-86000000D02*
X179000000Y-86000000D01*
X179000000Y-86000000D02*
X179000000Y-73000000D01*
X163000000Y-95500000D02*
X159000000Y-95500000D01*
X159000000Y-95500000D02*
X159000000Y-108500000D01*
X159000000Y-108500000D02*
X163000000Y-108500000D01*
X163000000Y-108500000D02*
X163000000Y-95500000D01*
X180500000Y-86000000D02*
X184500000Y-86000000D01*
X184500000Y-86000000D02*
X184500000Y-73000000D01*
X184500000Y-73000000D02*
X180500000Y-73000000D01*
X180500000Y-73000000D02*
X180500000Y-86000000D01*
X157000000Y-95500000D02*
X153000000Y-95500000D01*
X153000000Y-95500000D02*
X153000000Y-108500000D01*
X153000000Y-108500000D02*
X157000000Y-108500000D01*
X157000000Y-108500000D02*
X157000000Y-95500000D01*
X163540000Y-87350000D02*
X163540000Y-91750000D01*
X163540000Y-91750000D02*
X173540000Y-91750000D01*
X173540000Y-91750000D02*
X173540000Y-87350000D01*
X173540000Y-87350000D02*
X163540000Y-87350000D01*
X163540000Y-88620000D02*
X173540000Y-88620000D01*
X166690000Y-87350000D02*
X166690000Y-88620000D01*
X170390000Y-87350000D02*
X170390000Y-88620000D01*
X174460000Y-114650000D02*
X174460000Y-110250000D01*
X174460000Y-110250000D02*
X164460000Y-110250000D01*
X164460000Y-110250000D02*
X164460000Y-114650000D01*
X164460000Y-114650000D02*
X174460000Y-114650000D01*
X174460000Y-113380000D02*
X164460000Y-113380000D01*
X171310000Y-114650000D02*
X171310000Y-113380000D01*
X167610000Y-114650000D02*
X167610000Y-113380000D01*
X175040000Y-87350000D02*
X175040000Y-91750000D01*
X175040000Y-91750000D02*
X185040000Y-91750000D01*
X185040000Y-91750000D02*
X185040000Y-87350000D01*
X185040000Y-87350000D02*
X175040000Y-87350000D01*
X175040000Y-88620000D02*
X185040000Y-88620000D01*
X178190000Y-87350000D02*
X178190000Y-88620000D01*
X181890000Y-87350000D02*
X181890000Y-88620000D01*
X162960000Y-114650000D02*
X162960000Y-110250000D01*
X162960000Y-110250000D02*
X152960000Y-110250000D01*
X152960000Y-110250000D02*
X152960000Y-114650000D01*
X152960000Y-114650000D02*
X162960000Y-114650000D01*
X162960000Y-113380000D02*
X152960000Y-113380000D01*
X159810000Y-114650000D02*
X159810000Y-113380000D01*
X156110000Y-114650000D02*
X156110000Y-113380000D01*
X186000000Y-98500000D02*
G75*
G03*
X186000000Y-98500000I-5000000J0D01*
G01*
X186000000Y-109500000D02*
G75*
G03*
X186000000Y-109500000I-5000000J0D01*
G01*
X192850000Y-88050000D02*
X187100000Y-88050000D01*
X187100000Y-88050000D02*
X187100000Y-95450000D01*
X187100000Y-95450000D02*
X192850000Y-95450000D01*
X192850000Y-95450000D02*
X192850000Y-88050000D01*
X192850000Y-89875000D02*
X191850000Y-90500000D01*
X191850000Y-90500000D02*
X192850000Y-91125000D01*
X126150000Y-107450000D02*
X131900000Y-107450000D01*
X131900000Y-107450000D02*
X131900000Y-95050000D01*
X131900000Y-95050000D02*
X126150000Y-95050000D01*
X126150000Y-95050000D02*
X126150000Y-107450000D01*
X126150000Y-105625000D02*
X127150000Y-105000000D01*
X127150000Y-105000000D02*
X126150000Y-104375000D01*
X126150000Y-91450000D02*
X131900000Y-91450000D01*
X131900000Y-91450000D02*
X131900000Y-79050000D01*
X131900000Y-79050000D02*
X126150000Y-79050000D01*
X126150000Y-79050000D02*
X126150000Y-91450000D01*
X126150000Y-89625000D02*
X127150000Y-89000000D01*
X127150000Y-89000000D02*
X126150000Y-88375000D01*
X133550000Y-73150000D02*
X133550000Y-78900000D01*
X133550000Y-78900000D02*
X140950000Y-78900000D01*
X140950000Y-78900000D02*
X140950000Y-73150000D01*
X140950000Y-73150000D02*
X133550000Y-73150000D01*
X135375000Y-73150000D02*
X136000000Y-74150000D01*
X136000000Y-74150000D02*
X136625000Y-73150000D01*
X139500000Y-89230000D02*
G75*
G03*
X139500000Y-89230000I-1500000J0D01*
G01*
X136833810Y-90730000D02*
X139166190Y-90730000D01*
X139165476Y-90730555D02*
G75*
G03*
X136833810Y-90730000I-1165476J1500555D01*
G01*
X139500000Y-82230000D02*
G75*
G03*
X139500000Y-82230000I-1500000J0D01*
G01*
X136833810Y-83730000D02*
X139166190Y-83730000D01*
X139165476Y-83730555D02*
G75*
G03*
X136833810Y-83730000I-1165476J1500555D01*
G01*
X159750000Y-80000000D02*
X162250000Y-80000000D01*
X162250000Y-80000000D02*
X162250000Y-73000000D01*
X162250000Y-73000000D02*
X159750000Y-73000000D01*
X159750000Y-73000000D02*
X159750000Y-80000000D01*
X149250000Y-94500000D02*
X151750000Y-94500000D01*
X151750000Y-94500000D02*
X151750000Y-87500000D01*
X151750000Y-87500000D02*
X149250000Y-87500000D01*
X149250000Y-87500000D02*
X149250000Y-94500000D01*
X193000000Y-100500000D02*
G75*
G03*
X193000000Y-100500000I-2500000J0D01*
G01*
X191587500Y-98366395D02*
X191587500Y-98866395D01*
X191837500Y-98616395D02*
X191337500Y-98616395D01*
X193000000Y-106500000D02*
G75*
G03*
X193000000Y-106500000I-2500000J0D01*
G01*
X191587500Y-104366395D02*
X191587500Y-104866395D01*
X191837500Y-104616395D02*
X191337500Y-104616395D01*
X152750000Y-80000000D02*
X155250000Y-80000000D01*
X155250000Y-80000000D02*
X155250000Y-73000000D01*
X155250000Y-73000000D02*
X152750000Y-73000000D01*
X152750000Y-73000000D02*
X152750000Y-80000000D01*
X142250000Y-94500000D02*
X144750000Y-94500000D01*
X144750000Y-94500000D02*
X144750000Y-87500000D01*
X144750000Y-87500000D02*
X142250000Y-87500000D01*
X142250000Y-87500000D02*
X142250000Y-94500000D01*
X139337500Y-94616395D02*
X138837500Y-94616395D01*
X139087500Y-94366395D02*
X139087500Y-94866395D01*
X140500000Y-96500000D02*
G75*
G03*
X140500000Y-96500000I-2500000J0D01*
G01*
D11*
X143221904Y-106987142D02*
X143174285Y-107034761D01*
X143031428Y-107082380D01*
X142936190Y-107082380D01*
X142793333Y-107034761D01*
X142698095Y-106939523D01*
X142650476Y-106844285D01*
X142602857Y-106653809D01*
X142602857Y-106510952D01*
X142650476Y-106320476D01*
X142698095Y-106225238D01*
X142793333Y-106130000D01*
X142936190Y-106082380D01*
X143031428Y-106082380D01*
X143174285Y-106130000D01*
X143221904Y-106177619D01*
X143793333Y-107082380D02*
X143698095Y-107034761D01*
X143650476Y-106987142D01*
X143602857Y-106891904D01*
X143602857Y-106606190D01*
X143650476Y-106510952D01*
X143698095Y-106463333D01*
X143793333Y-106415714D01*
X143936190Y-106415714D01*
X144031428Y-106463333D01*
X144079047Y-106510952D01*
X144126666Y-106606190D01*
X144126666Y-106891904D01*
X144079047Y-106987142D01*
X144031428Y-107034761D01*
X143936190Y-107082380D01*
X143793333Y-107082380D01*
X144555238Y-106415714D02*
X144555238Y-107082380D01*
X144555238Y-106510952D02*
X144602857Y-106463333D01*
X144698095Y-106415714D01*
X144840952Y-106415714D01*
X144936190Y-106463333D01*
X144983809Y-106558571D01*
X144983809Y-107082380D01*
X145460000Y-106415714D02*
X145460000Y-107082380D01*
X145460000Y-106510952D02*
X145507619Y-106463333D01*
X145602857Y-106415714D01*
X145745714Y-106415714D01*
X145840952Y-106463333D01*
X145888571Y-106558571D01*
X145888571Y-107082380D01*
X146126666Y-107177619D02*
X146888571Y-107177619D01*
X147317142Y-106082380D02*
X147412380Y-106082380D01*
X147507619Y-106130000D01*
X147555238Y-106177619D01*
X147602857Y-106272857D01*
X147650476Y-106463333D01*
X147650476Y-106701428D01*
X147602857Y-106891904D01*
X147555238Y-106987142D01*
X147507619Y-107034761D01*
X147412380Y-107082380D01*
X147317142Y-107082380D01*
X147221904Y-107034761D01*
X147174285Y-106987142D01*
X147126666Y-106891904D01*
X147079047Y-106701428D01*
X147079047Y-106463333D01*
X147126666Y-106272857D01*
X147174285Y-106177619D01*
X147221904Y-106130000D01*
X147317142Y-106082380D01*
X148602857Y-107082380D02*
X148031428Y-107082380D01*
X148317142Y-107082380D02*
X148317142Y-106082380D01*
X148221904Y-106225238D01*
X148126666Y-106320476D01*
X148031428Y-106368095D01*
X148936190Y-107082380D02*
X149460000Y-106415714D01*
X148936190Y-106415714D02*
X149460000Y-107082380D01*
X150031428Y-106082380D02*
X150126666Y-106082380D01*
X150221904Y-106130000D01*
X150269523Y-106177619D01*
X150317142Y-106272857D01*
X150364761Y-106463333D01*
X150364761Y-106701428D01*
X150317142Y-106891904D01*
X150269523Y-106987142D01*
X150221904Y-107034761D01*
X150126666Y-107082380D01*
X150031428Y-107082380D01*
X149936190Y-107034761D01*
X149888571Y-106987142D01*
X149840952Y-106891904D01*
X149793333Y-106701428D01*
X149793333Y-106463333D01*
X149840952Y-106272857D01*
X149888571Y-106177619D01*
X149936190Y-106130000D01*
X150031428Y-106082380D01*
X150698095Y-106082380D02*
X151317142Y-106082380D01*
X150983809Y-106463333D01*
X151126666Y-106463333D01*
X151221904Y-106510952D01*
X151269523Y-106558571D01*
X151317142Y-106653809D01*
X151317142Y-106891904D01*
X151269523Y-106987142D01*
X151221904Y-107034761D01*
X151126666Y-107082380D01*
X150840952Y-107082380D01*
X150745714Y-107034761D01*
X150698095Y-106987142D01*
X146626666Y-108452380D02*
X146626666Y-109166666D01*
X146579047Y-109309523D01*
X146483809Y-109404761D01*
X146340952Y-109452380D01*
X146245714Y-109452380D01*
X147531428Y-108452380D02*
X147340952Y-108452380D01*
X147245714Y-108500000D01*
X147198095Y-108547619D01*
X147102857Y-108690476D01*
X147055238Y-108880952D01*
X147055238Y-109261904D01*
X147102857Y-109357142D01*
X147150476Y-109404761D01*
X147245714Y-109452380D01*
X147436190Y-109452380D01*
X147531428Y-109404761D01*
X147579047Y-109357142D01*
X147626666Y-109261904D01*
X147626666Y-109023809D01*
X147579047Y-108928571D01*
X147531428Y-108880952D01*
X147436190Y-108833333D01*
X147245714Y-108833333D01*
X147150476Y-108880952D01*
X147102857Y-108928571D01*
X147055238Y-109023809D01*
X126466666Y-113452380D02*
X126133333Y-112976190D01*
X125895238Y-113452380D02*
X125895238Y-112452380D01*
X126276190Y-112452380D01*
X126371428Y-112500000D01*
X126419047Y-112547619D01*
X126466666Y-112642857D01*
X126466666Y-112785714D01*
X126419047Y-112880952D01*
X126371428Y-112928571D01*
X126276190Y-112976190D01*
X125895238Y-112976190D01*
X126895238Y-112928571D02*
X127228571Y-112928571D01*
X127371428Y-113452380D02*
X126895238Y-113452380D01*
X126895238Y-112452380D01*
X127371428Y-112452380D01*
X128133333Y-112928571D02*
X127800000Y-112928571D01*
X127800000Y-113452380D02*
X127800000Y-112452380D01*
X128276190Y-112452380D01*
X128800000Y-112452380D02*
X128800000Y-112690476D01*
X128561904Y-112595238D02*
X128800000Y-112690476D01*
X129038095Y-112595238D01*
X128657142Y-112880952D02*
X128800000Y-112690476D01*
X128942857Y-112880952D01*
X129561904Y-112452380D02*
X129561904Y-112690476D01*
X129323809Y-112595238D02*
X129561904Y-112690476D01*
X129800000Y-112595238D01*
X129419047Y-112880952D02*
X129561904Y-112690476D01*
X129704761Y-112880952D01*
X126166666Y-71152380D02*
X125833333Y-70676190D01*
X125595238Y-71152380D02*
X125595238Y-70152380D01*
X125976190Y-70152380D01*
X126071428Y-70200000D01*
X126119047Y-70247619D01*
X126166666Y-70342857D01*
X126166666Y-70485714D01*
X126119047Y-70580952D01*
X126071428Y-70628571D01*
X125976190Y-70676190D01*
X125595238Y-70676190D01*
X126595238Y-70628571D02*
X126928571Y-70628571D01*
X127071428Y-71152380D02*
X126595238Y-71152380D01*
X126595238Y-70152380D01*
X127071428Y-70152380D01*
X127833333Y-70628571D02*
X127500000Y-70628571D01*
X127500000Y-71152380D02*
X127500000Y-70152380D01*
X127976190Y-70152380D01*
X128500000Y-70152380D02*
X128500000Y-70390476D01*
X128261904Y-70295238D02*
X128500000Y-70390476D01*
X128738095Y-70295238D01*
X128357142Y-70580952D02*
X128500000Y-70390476D01*
X128642857Y-70580952D01*
X129261904Y-70152380D02*
X129261904Y-70390476D01*
X129023809Y-70295238D02*
X129261904Y-70390476D01*
X129500000Y-70295238D01*
X129119047Y-70580952D02*
X129261904Y-70390476D01*
X129404761Y-70580952D01*
X115309523Y-78752380D02*
X115309523Y-77752380D01*
X115642857Y-78466666D01*
X115976190Y-77752380D01*
X115976190Y-78752380D01*
X116595238Y-78752380D02*
X116500000Y-78704761D01*
X116452380Y-78657142D01*
X116404761Y-78561904D01*
X116404761Y-78276190D01*
X116452380Y-78180952D01*
X116500000Y-78133333D01*
X116595238Y-78085714D01*
X116738095Y-78085714D01*
X116833333Y-78133333D01*
X116880952Y-78180952D01*
X116928571Y-78276190D01*
X116928571Y-78561904D01*
X116880952Y-78657142D01*
X116833333Y-78704761D01*
X116738095Y-78752380D01*
X116595238Y-78752380D01*
X117785714Y-78085714D02*
X117785714Y-78752380D01*
X117357142Y-78085714D02*
X117357142Y-78609523D01*
X117404761Y-78704761D01*
X117500000Y-78752380D01*
X117642857Y-78752380D01*
X117738095Y-78704761D01*
X117785714Y-78657142D01*
X118261904Y-78085714D02*
X118261904Y-78752380D01*
X118261904Y-78180952D02*
X118309523Y-78133333D01*
X118404761Y-78085714D01*
X118547619Y-78085714D01*
X118642857Y-78133333D01*
X118690476Y-78228571D01*
X118690476Y-78752380D01*
X119023809Y-78085714D02*
X119404761Y-78085714D01*
X119166666Y-77752380D02*
X119166666Y-78609523D01*
X119214285Y-78704761D01*
X119309523Y-78752380D01*
X119404761Y-78752380D01*
X119738095Y-78752380D02*
X119738095Y-78085714D01*
X119738095Y-77752380D02*
X119690476Y-77800000D01*
X119738095Y-77847619D01*
X119785714Y-77800000D01*
X119738095Y-77752380D01*
X119738095Y-77847619D01*
X120214285Y-78085714D02*
X120214285Y-78752380D01*
X120214285Y-78180952D02*
X120261904Y-78133333D01*
X120357142Y-78085714D01*
X120500000Y-78085714D01*
X120595238Y-78133333D01*
X120642857Y-78228571D01*
X120642857Y-78752380D01*
X121547619Y-78085714D02*
X121547619Y-78895238D01*
X121500000Y-78990476D01*
X121452380Y-79038095D01*
X121357142Y-79085714D01*
X121214285Y-79085714D01*
X121119047Y-79038095D01*
X121547619Y-78704761D02*
X121452380Y-78752380D01*
X121261904Y-78752380D01*
X121166666Y-78704761D01*
X121119047Y-78657142D01*
X121071428Y-78561904D01*
X121071428Y-78276190D01*
X121119047Y-78180952D01*
X121166666Y-78133333D01*
X121261904Y-78085714D01*
X121452380Y-78085714D01*
X121547619Y-78133333D01*
X122023809Y-78752380D02*
X122023809Y-77752380D01*
X122023809Y-78228571D02*
X122595238Y-78228571D01*
X122595238Y-78752380D02*
X122595238Y-77752380D01*
X123214285Y-78752380D02*
X123119047Y-78704761D01*
X123071428Y-78657142D01*
X123023809Y-78561904D01*
X123023809Y-78276190D01*
X123071428Y-78180952D01*
X123119047Y-78133333D01*
X123214285Y-78085714D01*
X123357142Y-78085714D01*
X123452380Y-78133333D01*
X123500000Y-78180952D01*
X123547619Y-78276190D01*
X123547619Y-78561904D01*
X123500000Y-78657142D01*
X123452380Y-78704761D01*
X123357142Y-78752380D01*
X123214285Y-78752380D01*
X124119047Y-78752380D02*
X124023809Y-78704761D01*
X123976190Y-78609523D01*
X123976190Y-77752380D01*
X124880952Y-78704761D02*
X124785714Y-78752380D01*
X124595238Y-78752380D01*
X124500000Y-78704761D01*
X124452380Y-78609523D01*
X124452380Y-78228571D01*
X124500000Y-78133333D01*
X124595238Y-78085714D01*
X124785714Y-78085714D01*
X124880952Y-78133333D01*
X124928571Y-78228571D01*
X124928571Y-78323809D01*
X124452380Y-78419047D01*
X125119047Y-78847619D02*
X125880952Y-78847619D01*
X126023809Y-77752380D02*
X126642857Y-77752380D01*
X126309523Y-78133333D01*
X126452380Y-78133333D01*
X126547619Y-78180952D01*
X126595238Y-78228571D01*
X126642857Y-78323809D01*
X126642857Y-78561904D01*
X126595238Y-78657142D01*
X126547619Y-78704761D01*
X126452380Y-78752380D01*
X126166666Y-78752380D01*
X126071428Y-78704761D01*
X126023809Y-78657142D01*
X127071428Y-78657142D02*
X127119047Y-78704761D01*
X127071428Y-78752380D01*
X127023809Y-78704761D01*
X127071428Y-78657142D01*
X127071428Y-78752380D01*
X127499999Y-77847619D02*
X127547619Y-77800000D01*
X127642857Y-77752380D01*
X127880952Y-77752380D01*
X127976190Y-77800000D01*
X128023809Y-77847619D01*
X128071428Y-77942857D01*
X128071428Y-78038095D01*
X128023809Y-78180952D01*
X127452380Y-78752380D01*
X128071428Y-78752380D01*
X128499999Y-78752380D02*
X128499999Y-78085714D01*
X128499999Y-78180952D02*
X128547619Y-78133333D01*
X128642857Y-78085714D01*
X128785714Y-78085714D01*
X128880952Y-78133333D01*
X128928571Y-78228571D01*
X128928571Y-78752380D01*
X128928571Y-78228571D02*
X128976190Y-78133333D01*
X129071428Y-78085714D01*
X129214285Y-78085714D01*
X129309523Y-78133333D01*
X129357142Y-78228571D01*
X129357142Y-78752380D01*
X129833333Y-78752380D02*
X129833333Y-78085714D01*
X129833333Y-78180952D02*
X129880952Y-78133333D01*
X129976190Y-78085714D01*
X130119047Y-78085714D01*
X130214285Y-78133333D01*
X130261904Y-78228571D01*
X130261904Y-78752380D01*
X130261904Y-78228571D02*
X130309523Y-78133333D01*
X130404761Y-78085714D01*
X130547619Y-78085714D01*
X130642857Y-78133333D01*
X130690476Y-78228571D01*
X130690476Y-78752380D01*
X130928571Y-78847619D02*
X131690476Y-78847619D01*
X131928571Y-78752380D02*
X131928571Y-77752380D01*
X132261904Y-78466666D01*
X132595238Y-77752380D01*
X132595238Y-78752380D01*
X132976190Y-77752380D02*
X133595238Y-77752380D01*
X133261904Y-78133333D01*
X133404761Y-78133333D01*
X133500000Y-78180952D01*
X133547619Y-78228571D01*
X133595238Y-78323809D01*
X133595238Y-78561904D01*
X133547619Y-78657142D01*
X133500000Y-78704761D01*
X133404761Y-78752380D01*
X133119047Y-78752380D01*
X133023809Y-78704761D01*
X132976190Y-78657142D01*
X133785714Y-78847619D02*
X134547619Y-78847619D01*
X134785714Y-78752380D02*
X134785714Y-77752380D01*
X135023809Y-77752380D01*
X135166666Y-77800000D01*
X135261904Y-77895238D01*
X135309523Y-77990476D01*
X135357142Y-78180952D01*
X135357142Y-78323809D01*
X135309523Y-78514285D01*
X135261904Y-78609523D01*
X135166666Y-78704761D01*
X135023809Y-78752380D01*
X134785714Y-78752380D01*
X135785714Y-78752380D02*
X135785714Y-77752380D01*
X136261904Y-78752380D02*
X136261904Y-77752380D01*
X136833333Y-78752380D01*
X136833333Y-77752380D01*
X137357142Y-78752380D02*
X137547619Y-78752380D01*
X137642857Y-78704761D01*
X137690476Y-78657142D01*
X137785714Y-78514285D01*
X137833333Y-78323809D01*
X137833333Y-77942857D01*
X137785714Y-77847619D01*
X137738095Y-77800000D01*
X137642857Y-77752380D01*
X137452380Y-77752380D01*
X137357142Y-77800000D01*
X137309523Y-77847619D01*
X137261904Y-77942857D01*
X137261904Y-78180952D01*
X137309523Y-78276190D01*
X137357142Y-78323809D01*
X137452380Y-78371428D01*
X137642857Y-78371428D01*
X137738095Y-78323809D01*
X137785714Y-78276190D01*
X137833333Y-78180952D01*
X138690476Y-77752380D02*
X138500000Y-77752380D01*
X138404761Y-77800000D01*
X138357142Y-77847619D01*
X138261904Y-77990476D01*
X138214285Y-78180952D01*
X138214285Y-78561904D01*
X138261904Y-78657142D01*
X138309523Y-78704761D01*
X138404761Y-78752380D01*
X138595238Y-78752380D01*
X138690476Y-78704761D01*
X138738095Y-78657142D01*
X138785714Y-78561904D01*
X138785714Y-78323809D01*
X138738095Y-78228571D01*
X138690476Y-78180952D01*
X138595238Y-78133333D01*
X138404761Y-78133333D01*
X138309523Y-78180952D01*
X138261904Y-78228571D01*
X138214285Y-78323809D01*
X139690476Y-77752380D02*
X139214285Y-77752380D01*
X139166666Y-78228571D01*
X139214285Y-78180952D01*
X139309523Y-78133333D01*
X139547619Y-78133333D01*
X139642857Y-78180952D01*
X139690476Y-78228571D01*
X139738095Y-78323809D01*
X139738095Y-78561904D01*
X139690476Y-78657142D01*
X139642857Y-78704761D01*
X139547619Y-78752380D01*
X139309523Y-78752380D01*
X139214285Y-78704761D01*
X139166666Y-78657142D01*
X126466666Y-74952380D02*
X126133333Y-74476190D01*
X125895238Y-74952380D02*
X125895238Y-73952380D01*
X126276190Y-73952380D01*
X126371428Y-74000000D01*
X126419047Y-74047619D01*
X126466666Y-74142857D01*
X126466666Y-74285714D01*
X126419047Y-74380952D01*
X126371428Y-74428571D01*
X126276190Y-74476190D01*
X125895238Y-74476190D01*
X126895238Y-74428571D02*
X127228571Y-74428571D01*
X127371428Y-74952380D02*
X126895238Y-74952380D01*
X126895238Y-73952380D01*
X127371428Y-73952380D01*
X128133333Y-74428571D02*
X127800000Y-74428571D01*
X127800000Y-74952380D02*
X127800000Y-73952380D01*
X128276190Y-73952380D01*
X128800000Y-73952380D02*
X128800000Y-74190476D01*
X128561904Y-74095238D02*
X128800000Y-74190476D01*
X129038095Y-74095238D01*
X128657142Y-74380952D02*
X128800000Y-74190476D01*
X128942857Y-74380952D01*
X129561904Y-73952380D02*
X129561904Y-74190476D01*
X129323809Y-74095238D02*
X129561904Y-74190476D01*
X129800000Y-74095238D01*
X129419047Y-74380952D02*
X129561904Y-74190476D01*
X129704761Y-74380952D01*
X190166666Y-71152380D02*
X189833333Y-70676190D01*
X189595238Y-71152380D02*
X189595238Y-70152380D01*
X189976190Y-70152380D01*
X190071428Y-70200000D01*
X190119047Y-70247619D01*
X190166666Y-70342857D01*
X190166666Y-70485714D01*
X190119047Y-70580952D01*
X190071428Y-70628571D01*
X189976190Y-70676190D01*
X189595238Y-70676190D01*
X190595238Y-70628571D02*
X190928571Y-70628571D01*
X191071428Y-71152380D02*
X190595238Y-71152380D01*
X190595238Y-70152380D01*
X191071428Y-70152380D01*
X191833333Y-70628571D02*
X191500000Y-70628571D01*
X191500000Y-71152380D02*
X191500000Y-70152380D01*
X191976190Y-70152380D01*
X192500000Y-70152380D02*
X192500000Y-70390476D01*
X192261904Y-70295238D02*
X192500000Y-70390476D01*
X192738095Y-70295238D01*
X192357142Y-70580952D02*
X192500000Y-70390476D01*
X192642857Y-70580952D01*
X193261904Y-70152380D02*
X193261904Y-70390476D01*
X193023809Y-70295238D02*
X193261904Y-70390476D01*
X193500000Y-70295238D01*
X193119047Y-70580952D02*
X193261904Y-70390476D01*
X193404761Y-70580952D01*
X179309523Y-78752380D02*
X179309523Y-77752380D01*
X179642857Y-78466666D01*
X179976190Y-77752380D01*
X179976190Y-78752380D01*
X180595238Y-78752380D02*
X180500000Y-78704761D01*
X180452380Y-78657142D01*
X180404761Y-78561904D01*
X180404761Y-78276190D01*
X180452380Y-78180952D01*
X180500000Y-78133333D01*
X180595238Y-78085714D01*
X180738095Y-78085714D01*
X180833333Y-78133333D01*
X180880952Y-78180952D01*
X180928571Y-78276190D01*
X180928571Y-78561904D01*
X180880952Y-78657142D01*
X180833333Y-78704761D01*
X180738095Y-78752380D01*
X180595238Y-78752380D01*
X181785714Y-78085714D02*
X181785714Y-78752380D01*
X181357142Y-78085714D02*
X181357142Y-78609523D01*
X181404761Y-78704761D01*
X181500000Y-78752380D01*
X181642857Y-78752380D01*
X181738095Y-78704761D01*
X181785714Y-78657142D01*
X182261904Y-78085714D02*
X182261904Y-78752380D01*
X182261904Y-78180952D02*
X182309523Y-78133333D01*
X182404761Y-78085714D01*
X182547619Y-78085714D01*
X182642857Y-78133333D01*
X182690476Y-78228571D01*
X182690476Y-78752380D01*
X183023809Y-78085714D02*
X183404761Y-78085714D01*
X183166666Y-77752380D02*
X183166666Y-78609523D01*
X183214285Y-78704761D01*
X183309523Y-78752380D01*
X183404761Y-78752380D01*
X183738095Y-78752380D02*
X183738095Y-78085714D01*
X183738095Y-77752380D02*
X183690476Y-77800000D01*
X183738095Y-77847619D01*
X183785714Y-77800000D01*
X183738095Y-77752380D01*
X183738095Y-77847619D01*
X184214285Y-78085714D02*
X184214285Y-78752380D01*
X184214285Y-78180952D02*
X184261904Y-78133333D01*
X184357142Y-78085714D01*
X184500000Y-78085714D01*
X184595238Y-78133333D01*
X184642857Y-78228571D01*
X184642857Y-78752380D01*
X185547619Y-78085714D02*
X185547619Y-78895238D01*
X185500000Y-78990476D01*
X185452380Y-79038095D01*
X185357142Y-79085714D01*
X185214285Y-79085714D01*
X185119047Y-79038095D01*
X185547619Y-78704761D02*
X185452380Y-78752380D01*
X185261904Y-78752380D01*
X185166666Y-78704761D01*
X185119047Y-78657142D01*
X185071428Y-78561904D01*
X185071428Y-78276190D01*
X185119047Y-78180952D01*
X185166666Y-78133333D01*
X185261904Y-78085714D01*
X185452380Y-78085714D01*
X185547619Y-78133333D01*
X186023809Y-78752380D02*
X186023809Y-77752380D01*
X186023809Y-78228571D02*
X186595238Y-78228571D01*
X186595238Y-78752380D02*
X186595238Y-77752380D01*
X187214285Y-78752380D02*
X187119047Y-78704761D01*
X187071428Y-78657142D01*
X187023809Y-78561904D01*
X187023809Y-78276190D01*
X187071428Y-78180952D01*
X187119047Y-78133333D01*
X187214285Y-78085714D01*
X187357142Y-78085714D01*
X187452380Y-78133333D01*
X187500000Y-78180952D01*
X187547619Y-78276190D01*
X187547619Y-78561904D01*
X187500000Y-78657142D01*
X187452380Y-78704761D01*
X187357142Y-78752380D01*
X187214285Y-78752380D01*
X188119047Y-78752380D02*
X188023809Y-78704761D01*
X187976190Y-78609523D01*
X187976190Y-77752380D01*
X188880952Y-78704761D02*
X188785714Y-78752380D01*
X188595238Y-78752380D01*
X188500000Y-78704761D01*
X188452380Y-78609523D01*
X188452380Y-78228571D01*
X188500000Y-78133333D01*
X188595238Y-78085714D01*
X188785714Y-78085714D01*
X188880952Y-78133333D01*
X188928571Y-78228571D01*
X188928571Y-78323809D01*
X188452380Y-78419047D01*
X189119047Y-78847619D02*
X189880952Y-78847619D01*
X190023809Y-77752380D02*
X190642857Y-77752380D01*
X190309523Y-78133333D01*
X190452380Y-78133333D01*
X190547619Y-78180952D01*
X190595238Y-78228571D01*
X190642857Y-78323809D01*
X190642857Y-78561904D01*
X190595238Y-78657142D01*
X190547619Y-78704761D01*
X190452380Y-78752380D01*
X190166666Y-78752380D01*
X190071428Y-78704761D01*
X190023809Y-78657142D01*
X191071428Y-78657142D02*
X191119047Y-78704761D01*
X191071428Y-78752380D01*
X191023809Y-78704761D01*
X191071428Y-78657142D01*
X191071428Y-78752380D01*
X191500000Y-77847619D02*
X191547619Y-77800000D01*
X191642857Y-77752380D01*
X191880952Y-77752380D01*
X191976190Y-77800000D01*
X192023809Y-77847619D01*
X192071428Y-77942857D01*
X192071428Y-78038095D01*
X192023809Y-78180952D01*
X191452380Y-78752380D01*
X192071428Y-78752380D01*
X192500000Y-78752380D02*
X192500000Y-78085714D01*
X192500000Y-78180952D02*
X192547619Y-78133333D01*
X192642857Y-78085714D01*
X192785714Y-78085714D01*
X192880952Y-78133333D01*
X192928571Y-78228571D01*
X192928571Y-78752380D01*
X192928571Y-78228571D02*
X192976190Y-78133333D01*
X193071428Y-78085714D01*
X193214285Y-78085714D01*
X193309523Y-78133333D01*
X193357142Y-78228571D01*
X193357142Y-78752380D01*
X193833333Y-78752380D02*
X193833333Y-78085714D01*
X193833333Y-78180952D02*
X193880952Y-78133333D01*
X193976190Y-78085714D01*
X194119047Y-78085714D01*
X194214285Y-78133333D01*
X194261904Y-78228571D01*
X194261904Y-78752380D01*
X194261904Y-78228571D02*
X194309523Y-78133333D01*
X194404761Y-78085714D01*
X194547619Y-78085714D01*
X194642857Y-78133333D01*
X194690476Y-78228571D01*
X194690476Y-78752380D01*
X194928571Y-78847619D02*
X195690476Y-78847619D01*
X195928571Y-78752380D02*
X195928571Y-77752380D01*
X196261904Y-78466666D01*
X196595238Y-77752380D01*
X196595238Y-78752380D01*
X196976190Y-77752380D02*
X197595238Y-77752380D01*
X197261904Y-78133333D01*
X197404761Y-78133333D01*
X197500000Y-78180952D01*
X197547619Y-78228571D01*
X197595238Y-78323809D01*
X197595238Y-78561904D01*
X197547619Y-78657142D01*
X197500000Y-78704761D01*
X197404761Y-78752380D01*
X197119047Y-78752380D01*
X197023809Y-78704761D01*
X196976190Y-78657142D01*
X197785714Y-78847619D02*
X198547619Y-78847619D01*
X198785714Y-78752380D02*
X198785714Y-77752380D01*
X199023809Y-77752380D01*
X199166666Y-77800000D01*
X199261904Y-77895238D01*
X199309523Y-77990476D01*
X199357142Y-78180952D01*
X199357142Y-78323809D01*
X199309523Y-78514285D01*
X199261904Y-78609523D01*
X199166666Y-78704761D01*
X199023809Y-78752380D01*
X198785714Y-78752380D01*
X199785714Y-78752380D02*
X199785714Y-77752380D01*
X200261904Y-78752380D02*
X200261904Y-77752380D01*
X200833333Y-78752380D01*
X200833333Y-77752380D01*
X201357142Y-78752380D02*
X201547619Y-78752380D01*
X201642857Y-78704761D01*
X201690476Y-78657142D01*
X201785714Y-78514285D01*
X201833333Y-78323809D01*
X201833333Y-77942857D01*
X201785714Y-77847619D01*
X201738095Y-77800000D01*
X201642857Y-77752380D01*
X201452380Y-77752380D01*
X201357142Y-77800000D01*
X201309523Y-77847619D01*
X201261904Y-77942857D01*
X201261904Y-78180952D01*
X201309523Y-78276190D01*
X201357142Y-78323809D01*
X201452380Y-78371428D01*
X201642857Y-78371428D01*
X201738095Y-78323809D01*
X201785714Y-78276190D01*
X201833333Y-78180952D01*
X202690476Y-77752380D02*
X202500000Y-77752380D01*
X202404761Y-77800000D01*
X202357142Y-77847619D01*
X202261904Y-77990476D01*
X202214285Y-78180952D01*
X202214285Y-78561904D01*
X202261904Y-78657142D01*
X202309523Y-78704761D01*
X202404761Y-78752380D01*
X202595238Y-78752380D01*
X202690476Y-78704761D01*
X202738095Y-78657142D01*
X202785714Y-78561904D01*
X202785714Y-78323809D01*
X202738095Y-78228571D01*
X202690476Y-78180952D01*
X202595238Y-78133333D01*
X202404761Y-78133333D01*
X202309523Y-78180952D01*
X202261904Y-78228571D01*
X202214285Y-78323809D01*
X203690476Y-77752380D02*
X203214285Y-77752380D01*
X203166666Y-78228571D01*
X203214285Y-78180952D01*
X203309523Y-78133333D01*
X203547619Y-78133333D01*
X203642857Y-78180952D01*
X203690476Y-78228571D01*
X203738095Y-78323809D01*
X203738095Y-78561904D01*
X203690476Y-78657142D01*
X203642857Y-78704761D01*
X203547619Y-78752380D01*
X203309523Y-78752380D01*
X203214285Y-78704761D01*
X203166666Y-78657142D01*
X190466666Y-74952380D02*
X190133333Y-74476190D01*
X189895238Y-74952380D02*
X189895238Y-73952380D01*
X190276190Y-73952380D01*
X190371428Y-74000000D01*
X190419047Y-74047619D01*
X190466666Y-74142857D01*
X190466666Y-74285714D01*
X190419047Y-74380952D01*
X190371428Y-74428571D01*
X190276190Y-74476190D01*
X189895238Y-74476190D01*
X190895238Y-74428571D02*
X191228571Y-74428571D01*
X191371428Y-74952380D02*
X190895238Y-74952380D01*
X190895238Y-73952380D01*
X191371428Y-73952380D01*
X192133333Y-74428571D02*
X191800000Y-74428571D01*
X191800000Y-74952380D02*
X191800000Y-73952380D01*
X192276190Y-73952380D01*
X192800000Y-73952380D02*
X192800000Y-74190476D01*
X192561904Y-74095238D02*
X192800000Y-74190476D01*
X193038095Y-74095238D01*
X192657142Y-74380952D02*
X192800000Y-74190476D01*
X192942857Y-74380952D01*
X193561904Y-73952380D02*
X193561904Y-74190476D01*
X193323809Y-74095238D02*
X193561904Y-74190476D01*
X193800000Y-74095238D01*
X193419047Y-74380952D02*
X193561904Y-74190476D01*
X193704761Y-74380952D01*
X190166666Y-109652380D02*
X189833333Y-109176190D01*
X189595238Y-109652380D02*
X189595238Y-108652380D01*
X189976190Y-108652380D01*
X190071428Y-108700000D01*
X190119047Y-108747619D01*
X190166666Y-108842857D01*
X190166666Y-108985714D01*
X190119047Y-109080952D01*
X190071428Y-109128571D01*
X189976190Y-109176190D01*
X189595238Y-109176190D01*
X190595238Y-109128571D02*
X190928571Y-109128571D01*
X191071428Y-109652380D02*
X190595238Y-109652380D01*
X190595238Y-108652380D01*
X191071428Y-108652380D01*
X191833333Y-109128571D02*
X191500000Y-109128571D01*
X191500000Y-109652380D02*
X191500000Y-108652380D01*
X191976190Y-108652380D01*
X192500000Y-108652380D02*
X192500000Y-108890476D01*
X192261904Y-108795238D02*
X192500000Y-108890476D01*
X192738095Y-108795238D01*
X192357142Y-109080952D02*
X192500000Y-108890476D01*
X192642857Y-109080952D01*
X193261904Y-108652380D02*
X193261904Y-108890476D01*
X193023809Y-108795238D02*
X193261904Y-108890476D01*
X193500000Y-108795238D01*
X193119047Y-109080952D02*
X193261904Y-108890476D01*
X193404761Y-109080952D01*
X179309523Y-117252380D02*
X179309523Y-116252380D01*
X179642857Y-116966666D01*
X179976190Y-116252380D01*
X179976190Y-117252380D01*
X180595238Y-117252380D02*
X180500000Y-117204761D01*
X180452380Y-117157142D01*
X180404761Y-117061904D01*
X180404761Y-116776190D01*
X180452380Y-116680952D01*
X180500000Y-116633333D01*
X180595238Y-116585714D01*
X180738095Y-116585714D01*
X180833333Y-116633333D01*
X180880952Y-116680952D01*
X180928571Y-116776190D01*
X180928571Y-117061904D01*
X180880952Y-117157142D01*
X180833333Y-117204761D01*
X180738095Y-117252380D01*
X180595238Y-117252380D01*
X181785714Y-116585714D02*
X181785714Y-117252380D01*
X181357142Y-116585714D02*
X181357142Y-117109523D01*
X181404761Y-117204761D01*
X181500000Y-117252380D01*
X181642857Y-117252380D01*
X181738095Y-117204761D01*
X181785714Y-117157142D01*
X182261904Y-116585714D02*
X182261904Y-117252380D01*
X182261904Y-116680952D02*
X182309523Y-116633333D01*
X182404761Y-116585714D01*
X182547619Y-116585714D01*
X182642857Y-116633333D01*
X182690476Y-116728571D01*
X182690476Y-117252380D01*
X183023809Y-116585714D02*
X183404761Y-116585714D01*
X183166666Y-116252380D02*
X183166666Y-117109523D01*
X183214285Y-117204761D01*
X183309523Y-117252380D01*
X183404761Y-117252380D01*
X183738095Y-117252380D02*
X183738095Y-116585714D01*
X183738095Y-116252380D02*
X183690476Y-116300000D01*
X183738095Y-116347619D01*
X183785714Y-116300000D01*
X183738095Y-116252380D01*
X183738095Y-116347619D01*
X184214285Y-116585714D02*
X184214285Y-117252380D01*
X184214285Y-116680952D02*
X184261904Y-116633333D01*
X184357142Y-116585714D01*
X184500000Y-116585714D01*
X184595238Y-116633333D01*
X184642857Y-116728571D01*
X184642857Y-117252380D01*
X185547619Y-116585714D02*
X185547619Y-117395238D01*
X185500000Y-117490476D01*
X185452380Y-117538095D01*
X185357142Y-117585714D01*
X185214285Y-117585714D01*
X185119047Y-117538095D01*
X185547619Y-117204761D02*
X185452380Y-117252380D01*
X185261904Y-117252380D01*
X185166666Y-117204761D01*
X185119047Y-117157142D01*
X185071428Y-117061904D01*
X185071428Y-116776190D01*
X185119047Y-116680952D01*
X185166666Y-116633333D01*
X185261904Y-116585714D01*
X185452380Y-116585714D01*
X185547619Y-116633333D01*
X186023809Y-117252380D02*
X186023809Y-116252380D01*
X186023809Y-116728571D02*
X186595238Y-116728571D01*
X186595238Y-117252380D02*
X186595238Y-116252380D01*
X187214285Y-117252380D02*
X187119047Y-117204761D01*
X187071428Y-117157142D01*
X187023809Y-117061904D01*
X187023809Y-116776190D01*
X187071428Y-116680952D01*
X187119047Y-116633333D01*
X187214285Y-116585714D01*
X187357142Y-116585714D01*
X187452380Y-116633333D01*
X187500000Y-116680952D01*
X187547619Y-116776190D01*
X187547619Y-117061904D01*
X187500000Y-117157142D01*
X187452380Y-117204761D01*
X187357142Y-117252380D01*
X187214285Y-117252380D01*
X188119047Y-117252380D02*
X188023809Y-117204761D01*
X187976190Y-117109523D01*
X187976190Y-116252380D01*
X188880952Y-117204761D02*
X188785714Y-117252380D01*
X188595238Y-117252380D01*
X188500000Y-117204761D01*
X188452380Y-117109523D01*
X188452380Y-116728571D01*
X188500000Y-116633333D01*
X188595238Y-116585714D01*
X188785714Y-116585714D01*
X188880952Y-116633333D01*
X188928571Y-116728571D01*
X188928571Y-116823809D01*
X188452380Y-116919047D01*
X189119047Y-117347619D02*
X189880952Y-117347619D01*
X190023809Y-116252380D02*
X190642857Y-116252380D01*
X190309523Y-116633333D01*
X190452380Y-116633333D01*
X190547619Y-116680952D01*
X190595238Y-116728571D01*
X190642857Y-116823809D01*
X190642857Y-117061904D01*
X190595238Y-117157142D01*
X190547619Y-117204761D01*
X190452380Y-117252380D01*
X190166666Y-117252380D01*
X190071428Y-117204761D01*
X190023809Y-117157142D01*
X191071428Y-117157142D02*
X191119047Y-117204761D01*
X191071428Y-117252380D01*
X191023809Y-117204761D01*
X191071428Y-117157142D01*
X191071428Y-117252380D01*
X191500000Y-116347619D02*
X191547619Y-116300000D01*
X191642857Y-116252380D01*
X191880952Y-116252380D01*
X191976190Y-116300000D01*
X192023809Y-116347619D01*
X192071428Y-116442857D01*
X192071428Y-116538095D01*
X192023809Y-116680952D01*
X191452380Y-117252380D01*
X192071428Y-117252380D01*
X192500000Y-117252380D02*
X192500000Y-116585714D01*
X192500000Y-116680952D02*
X192547619Y-116633333D01*
X192642857Y-116585714D01*
X192785714Y-116585714D01*
X192880952Y-116633333D01*
X192928571Y-116728571D01*
X192928571Y-117252380D01*
X192928571Y-116728571D02*
X192976190Y-116633333D01*
X193071428Y-116585714D01*
X193214285Y-116585714D01*
X193309523Y-116633333D01*
X193357142Y-116728571D01*
X193357142Y-117252380D01*
X193833333Y-117252380D02*
X193833333Y-116585714D01*
X193833333Y-116680952D02*
X193880952Y-116633333D01*
X193976190Y-116585714D01*
X194119047Y-116585714D01*
X194214285Y-116633333D01*
X194261904Y-116728571D01*
X194261904Y-117252380D01*
X194261904Y-116728571D02*
X194309523Y-116633333D01*
X194404761Y-116585714D01*
X194547619Y-116585714D01*
X194642857Y-116633333D01*
X194690476Y-116728571D01*
X194690476Y-117252380D01*
X194928571Y-117347619D02*
X195690476Y-117347619D01*
X195928571Y-117252380D02*
X195928571Y-116252380D01*
X196261904Y-116966666D01*
X196595238Y-116252380D01*
X196595238Y-117252380D01*
X196976190Y-116252380D02*
X197595238Y-116252380D01*
X197261904Y-116633333D01*
X197404761Y-116633333D01*
X197500000Y-116680952D01*
X197547619Y-116728571D01*
X197595238Y-116823809D01*
X197595238Y-117061904D01*
X197547619Y-117157142D01*
X197500000Y-117204761D01*
X197404761Y-117252380D01*
X197119047Y-117252380D01*
X197023809Y-117204761D01*
X196976190Y-117157142D01*
X197785714Y-117347619D02*
X198547619Y-117347619D01*
X198785714Y-117252380D02*
X198785714Y-116252380D01*
X199023809Y-116252380D01*
X199166666Y-116300000D01*
X199261904Y-116395238D01*
X199309523Y-116490476D01*
X199357142Y-116680952D01*
X199357142Y-116823809D01*
X199309523Y-117014285D01*
X199261904Y-117109523D01*
X199166666Y-117204761D01*
X199023809Y-117252380D01*
X198785714Y-117252380D01*
X199785714Y-117252380D02*
X199785714Y-116252380D01*
X200261904Y-117252380D02*
X200261904Y-116252380D01*
X200833333Y-117252380D01*
X200833333Y-116252380D01*
X201357142Y-117252380D02*
X201547619Y-117252380D01*
X201642857Y-117204761D01*
X201690476Y-117157142D01*
X201785714Y-117014285D01*
X201833333Y-116823809D01*
X201833333Y-116442857D01*
X201785714Y-116347619D01*
X201738095Y-116300000D01*
X201642857Y-116252380D01*
X201452380Y-116252380D01*
X201357142Y-116300000D01*
X201309523Y-116347619D01*
X201261904Y-116442857D01*
X201261904Y-116680952D01*
X201309523Y-116776190D01*
X201357142Y-116823809D01*
X201452380Y-116871428D01*
X201642857Y-116871428D01*
X201738095Y-116823809D01*
X201785714Y-116776190D01*
X201833333Y-116680952D01*
X202690476Y-116252380D02*
X202500000Y-116252380D01*
X202404761Y-116300000D01*
X202357142Y-116347619D01*
X202261904Y-116490476D01*
X202214285Y-116680952D01*
X202214285Y-117061904D01*
X202261904Y-117157142D01*
X202309523Y-117204761D01*
X202404761Y-117252380D01*
X202595238Y-117252380D01*
X202690476Y-117204761D01*
X202738095Y-117157142D01*
X202785714Y-117061904D01*
X202785714Y-116823809D01*
X202738095Y-116728571D01*
X202690476Y-116680952D01*
X202595238Y-116633333D01*
X202404761Y-116633333D01*
X202309523Y-116680952D01*
X202261904Y-116728571D01*
X202214285Y-116823809D01*
X203690476Y-116252380D02*
X203214285Y-116252380D01*
X203166666Y-116728571D01*
X203214285Y-116680952D01*
X203309523Y-116633333D01*
X203547619Y-116633333D01*
X203642857Y-116680952D01*
X203690476Y-116728571D01*
X203738095Y-116823809D01*
X203738095Y-117061904D01*
X203690476Y-117157142D01*
X203642857Y-117204761D01*
X203547619Y-117252380D01*
X203309523Y-117252380D01*
X203214285Y-117204761D01*
X203166666Y-117157142D01*
X190466666Y-113452380D02*
X190133333Y-112976190D01*
X189895238Y-113452380D02*
X189895238Y-112452380D01*
X190276190Y-112452380D01*
X190371428Y-112500000D01*
X190419047Y-112547619D01*
X190466666Y-112642857D01*
X190466666Y-112785714D01*
X190419047Y-112880952D01*
X190371428Y-112928571D01*
X190276190Y-112976190D01*
X189895238Y-112976190D01*
X190895238Y-112928571D02*
X191228571Y-112928571D01*
X191371428Y-113452380D02*
X190895238Y-113452380D01*
X190895238Y-112452380D01*
X191371428Y-112452380D01*
X192133333Y-112928571D02*
X191800000Y-112928571D01*
X191800000Y-113452380D02*
X191800000Y-112452380D01*
X192276190Y-112452380D01*
X192800000Y-112452380D02*
X192800000Y-112690476D01*
X192561904Y-112595238D02*
X192800000Y-112690476D01*
X193038095Y-112595238D01*
X192657142Y-112880952D02*
X192800000Y-112690476D01*
X192942857Y-112880952D01*
X193561904Y-112452380D02*
X193561904Y-112690476D01*
X193323809Y-112595238D02*
X193561904Y-112690476D01*
X193800000Y-112595238D01*
X193419047Y-112880952D02*
X193561904Y-112690476D01*
X193704761Y-112880952D01*
X153190952Y-92402380D02*
X153762380Y-92402380D01*
X153476666Y-93402380D02*
X153476666Y-92402380D01*
X154667142Y-93307142D02*
X154619523Y-93354761D01*
X154476666Y-93402380D01*
X154381428Y-93402380D01*
X154238571Y-93354761D01*
X154143333Y-93259523D01*
X154095714Y-93164285D01*
X154048095Y-92973809D01*
X154048095Y-92830952D01*
X154095714Y-92640476D01*
X154143333Y-92545238D01*
X154238571Y-92450000D01*
X154381428Y-92402380D01*
X154476666Y-92402380D01*
X154619523Y-92450000D01*
X154667142Y-92497619D01*
X155524285Y-92735714D02*
X155524285Y-93402380D01*
X155286190Y-92354761D02*
X155048095Y-93069047D01*
X155667142Y-93069047D01*
X156476666Y-92735714D02*
X156476666Y-93402380D01*
X156238571Y-92354761D02*
X156000476Y-93069047D01*
X156619523Y-93069047D01*
X156952857Y-92497619D02*
X157000476Y-92450000D01*
X157095714Y-92402380D01*
X157333809Y-92402380D01*
X157429047Y-92450000D01*
X157476666Y-92497619D01*
X157524285Y-92592857D01*
X157524285Y-92688095D01*
X157476666Y-92830952D01*
X156905238Y-93402380D01*
X157524285Y-93402380D01*
X158143333Y-92402380D02*
X158238571Y-92402380D01*
X158333809Y-92450000D01*
X158381428Y-92497619D01*
X158429047Y-92592857D01*
X158476666Y-92783333D01*
X158476666Y-93021428D01*
X158429047Y-93211904D01*
X158381428Y-93307142D01*
X158333809Y-93354761D01*
X158238571Y-93402380D01*
X158143333Y-93402380D01*
X158048095Y-93354761D01*
X158000476Y-93307142D01*
X157952857Y-93211904D01*
X157905238Y-93021428D01*
X157905238Y-92783333D01*
X157952857Y-92592857D01*
X158000476Y-92497619D01*
X158048095Y-92450000D01*
X158143333Y-92402380D01*
X159476666Y-93307142D02*
X159429047Y-93354761D01*
X159286190Y-93402380D01*
X159190952Y-93402380D01*
X159048095Y-93354761D01*
X158952857Y-93259523D01*
X158905238Y-93164285D01*
X158857619Y-92973809D01*
X158857619Y-92830952D01*
X158905238Y-92640476D01*
X158952857Y-92545238D01*
X159048095Y-92450000D01*
X159190952Y-92402380D01*
X159286190Y-92402380D01*
X159429047Y-92450000D01*
X159476666Y-92497619D01*
X159905238Y-93402380D02*
X159905238Y-92402380D01*
X160286190Y-92402380D01*
X160381428Y-92450000D01*
X160429047Y-92497619D01*
X160476666Y-92592857D01*
X160476666Y-92735714D01*
X160429047Y-92830952D01*
X160381428Y-92878571D01*
X160286190Y-92926190D01*
X159905238Y-92926190D01*
X160857619Y-93116666D02*
X161333809Y-93116666D01*
X160762380Y-93402380D02*
X161095714Y-92402380D01*
X161429047Y-93402380D01*
X156548095Y-86262380D02*
X156548095Y-87071904D01*
X156595714Y-87167142D01*
X156643333Y-87214761D01*
X156738571Y-87262380D01*
X156929047Y-87262380D01*
X157024285Y-87214761D01*
X157071904Y-87167142D01*
X157119523Y-87071904D01*
X157119523Y-86262380D01*
X157548095Y-86357619D02*
X157595714Y-86310000D01*
X157690952Y-86262380D01*
X157929047Y-86262380D01*
X158024285Y-86310000D01*
X158071904Y-86357619D01*
X158119523Y-86452857D01*
X158119523Y-86548095D01*
X158071904Y-86690952D01*
X157500476Y-87262380D01*
X158119523Y-87262380D01*
X142690952Y-106402380D02*
X143262380Y-106402380D01*
X142976666Y-107402380D02*
X142976666Y-106402380D01*
X144167142Y-107307142D02*
X144119523Y-107354761D01*
X143976666Y-107402380D01*
X143881428Y-107402380D01*
X143738571Y-107354761D01*
X143643333Y-107259523D01*
X143595714Y-107164285D01*
X143548095Y-106973809D01*
X143548095Y-106830952D01*
X143595714Y-106640476D01*
X143643333Y-106545238D01*
X143738571Y-106450000D01*
X143881428Y-106402380D01*
X143976666Y-106402380D01*
X144119523Y-106450000D01*
X144167142Y-106497619D01*
X145024285Y-106735714D02*
X145024285Y-107402380D01*
X144786190Y-106354761D02*
X144548095Y-107069047D01*
X145167142Y-107069047D01*
X145976666Y-106735714D02*
X145976666Y-107402380D01*
X145738571Y-106354761D02*
X145500476Y-107069047D01*
X146119523Y-107069047D01*
X146452857Y-106497619D02*
X146500476Y-106450000D01*
X146595714Y-106402380D01*
X146833809Y-106402380D01*
X146929047Y-106450000D01*
X146976666Y-106497619D01*
X147024285Y-106592857D01*
X147024285Y-106688095D01*
X146976666Y-106830952D01*
X146405238Y-107402380D01*
X147024285Y-107402380D01*
X147643333Y-106402380D02*
X147738571Y-106402380D01*
X147833809Y-106450000D01*
X147881428Y-106497619D01*
X147929047Y-106592857D01*
X147976666Y-106783333D01*
X147976666Y-107021428D01*
X147929047Y-107211904D01*
X147881428Y-107307142D01*
X147833809Y-107354761D01*
X147738571Y-107402380D01*
X147643333Y-107402380D01*
X147548095Y-107354761D01*
X147500476Y-107307142D01*
X147452857Y-107211904D01*
X147405238Y-107021428D01*
X147405238Y-106783333D01*
X147452857Y-106592857D01*
X147500476Y-106497619D01*
X147548095Y-106450000D01*
X147643333Y-106402380D01*
X148976666Y-107307142D02*
X148929047Y-107354761D01*
X148786190Y-107402380D01*
X148690952Y-107402380D01*
X148548095Y-107354761D01*
X148452857Y-107259523D01*
X148405238Y-107164285D01*
X148357619Y-106973809D01*
X148357619Y-106830952D01*
X148405238Y-106640476D01*
X148452857Y-106545238D01*
X148548095Y-106450000D01*
X148690952Y-106402380D01*
X148786190Y-106402380D01*
X148929047Y-106450000D01*
X148976666Y-106497619D01*
X149405238Y-107402380D02*
X149405238Y-106402380D01*
X149786190Y-106402380D01*
X149881428Y-106450000D01*
X149929047Y-106497619D01*
X149976666Y-106592857D01*
X149976666Y-106735714D01*
X149929047Y-106830952D01*
X149881428Y-106878571D01*
X149786190Y-106926190D01*
X149405238Y-106926190D01*
X150357619Y-107116666D02*
X150833809Y-107116666D01*
X150262380Y-107402380D02*
X150595714Y-106402380D01*
X150929047Y-107402380D01*
X146048095Y-100262380D02*
X146048095Y-101071904D01*
X146095714Y-101167142D01*
X146143333Y-101214761D01*
X146238571Y-101262380D01*
X146429047Y-101262380D01*
X146524285Y-101214761D01*
X146571904Y-101167142D01*
X146619523Y-101071904D01*
X146619523Y-100262380D01*
X147619523Y-101262380D02*
X147048095Y-101262380D01*
X147333809Y-101262380D02*
X147333809Y-100262380D01*
X147238571Y-100405238D01*
X147143333Y-100500476D01*
X147048095Y-100548095D01*
X145702380Y-80214285D02*
X145702380Y-80690476D01*
X146178571Y-80738095D01*
X146130952Y-80690476D01*
X146083333Y-80595238D01*
X146083333Y-80357142D01*
X146130952Y-80261904D01*
X146178571Y-80214285D01*
X146273809Y-80166666D01*
X146511904Y-80166666D01*
X146607142Y-80214285D01*
X146654761Y-80261904D01*
X146702380Y-80357142D01*
X146702380Y-80595238D01*
X146654761Y-80690476D01*
X146607142Y-80738095D01*
X145702380Y-79309523D02*
X145702380Y-79500000D01*
X145750000Y-79595238D01*
X145797619Y-79642857D01*
X145940476Y-79738095D01*
X146130952Y-79785714D01*
X146511904Y-79785714D01*
X146607142Y-79738095D01*
X146654761Y-79690476D01*
X146702380Y-79595238D01*
X146702380Y-79404761D01*
X146654761Y-79309523D01*
X146607142Y-79261904D01*
X146511904Y-79214285D01*
X146273809Y-79214285D01*
X146178571Y-79261904D01*
X146130952Y-79309523D01*
X146083333Y-79404761D01*
X146083333Y-79595238D01*
X146130952Y-79690476D01*
X146178571Y-79738095D01*
X146273809Y-79785714D01*
X145702380Y-78595238D02*
X145702380Y-78500000D01*
X145750000Y-78404761D01*
X145797619Y-78357142D01*
X145892857Y-78309523D01*
X146083333Y-78261904D01*
X146321428Y-78261904D01*
X146511904Y-78309523D01*
X146607142Y-78357142D01*
X146654761Y-78404761D01*
X146702380Y-78500000D01*
X146702380Y-78595238D01*
X146654761Y-78690476D01*
X146607142Y-78738095D01*
X146511904Y-78785714D01*
X146321428Y-78833333D01*
X146083333Y-78833333D01*
X145892857Y-78785714D01*
X145797619Y-78738095D01*
X145750000Y-78690476D01*
X145702380Y-78595238D01*
X149952380Y-80142857D02*
X149476190Y-80476190D01*
X149952380Y-80714285D02*
X148952380Y-80714285D01*
X148952380Y-80333333D01*
X149000000Y-80238095D01*
X149047619Y-80190476D01*
X149142857Y-80142857D01*
X149285714Y-80142857D01*
X149380952Y-80190476D01*
X149428571Y-80238095D01*
X149476190Y-80333333D01*
X149476190Y-80714285D01*
X149952380Y-79190476D02*
X149952380Y-79761904D01*
X149952380Y-79476190D02*
X148952380Y-79476190D01*
X149095238Y-79571428D01*
X149190476Y-79666666D01*
X149238095Y-79761904D01*
X149952380Y-78238095D02*
X149952380Y-78809523D01*
X149952380Y-78523809D02*
X148952380Y-78523809D01*
X149095238Y-78619047D01*
X149190476Y-78714285D01*
X149238095Y-78809523D01*
X140797619Y-80738095D02*
X140750000Y-80690476D01*
X140702380Y-80595238D01*
X140702380Y-80357142D01*
X140750000Y-80261904D01*
X140797619Y-80214285D01*
X140892857Y-80166666D01*
X140988095Y-80166666D01*
X141130952Y-80214285D01*
X141702380Y-80785714D01*
X141702380Y-80166666D01*
X140797619Y-79785714D02*
X140750000Y-79738095D01*
X140702380Y-79642857D01*
X140702380Y-79404761D01*
X140750000Y-79309523D01*
X140797619Y-79261904D01*
X140892857Y-79214285D01*
X140988095Y-79214285D01*
X141130952Y-79261904D01*
X141702380Y-79833333D01*
X141702380Y-79214285D01*
X140702380Y-78595238D02*
X140702380Y-78500000D01*
X140750000Y-78404761D01*
X140797619Y-78357142D01*
X140892857Y-78309523D01*
X141083333Y-78261904D01*
X141321428Y-78261904D01*
X141511904Y-78309523D01*
X141607142Y-78357142D01*
X141654761Y-78404761D01*
X141702380Y-78500000D01*
X141702380Y-78595238D01*
X141654761Y-78690476D01*
X141607142Y-78738095D01*
X141511904Y-78785714D01*
X141321428Y-78833333D01*
X141083333Y-78833333D01*
X140892857Y-78785714D01*
X140797619Y-78738095D01*
X140750000Y-78690476D01*
X140702380Y-78595238D01*
X144952380Y-80142857D02*
X144476190Y-80476190D01*
X144952380Y-80714285D02*
X143952380Y-80714285D01*
X143952380Y-80333333D01*
X144000000Y-80238095D01*
X144047619Y-80190476D01*
X144142857Y-80142857D01*
X144285714Y-80142857D01*
X144380952Y-80190476D01*
X144428571Y-80238095D01*
X144476190Y-80333333D01*
X144476190Y-80714285D01*
X144952380Y-79190476D02*
X144952380Y-79761904D01*
X144952380Y-79476190D02*
X143952380Y-79476190D01*
X144095238Y-79571428D01*
X144190476Y-79666666D01*
X144238095Y-79761904D01*
X143952380Y-78571428D02*
X143952380Y-78476190D01*
X144000000Y-78380952D01*
X144047619Y-78333333D01*
X144142857Y-78285714D01*
X144333333Y-78238095D01*
X144571428Y-78238095D01*
X144761904Y-78285714D01*
X144857142Y-78333333D01*
X144904761Y-78380952D01*
X144952380Y-78476190D01*
X144952380Y-78571428D01*
X144904761Y-78666666D01*
X144857142Y-78714285D01*
X144761904Y-78761904D01*
X144571428Y-78809523D01*
X144333333Y-78809523D01*
X144142857Y-78761904D01*
X144047619Y-78714285D01*
X144000000Y-78666666D01*
X143952380Y-78571428D01*
X168702380Y-79619047D02*
X168702380Y-80190476D01*
X168702380Y-79904761D02*
X167702380Y-79904761D01*
X167845238Y-80000000D01*
X167940476Y-80095238D01*
X167988095Y-80190476D01*
X168702380Y-79190476D02*
X167702380Y-79190476D01*
X168321428Y-79095238D02*
X168702380Y-78809523D01*
X168035714Y-78809523D02*
X168416666Y-79190476D01*
X171952380Y-79666666D02*
X171476190Y-80000000D01*
X171952380Y-80238095D02*
X170952380Y-80238095D01*
X170952380Y-79857142D01*
X171000000Y-79761904D01*
X171047619Y-79714285D01*
X171142857Y-79666666D01*
X171285714Y-79666666D01*
X171380952Y-79714285D01*
X171428571Y-79761904D01*
X171476190Y-79857142D01*
X171476190Y-80238095D01*
X171952380Y-79190476D02*
X171952380Y-79000000D01*
X171904761Y-78904761D01*
X171857142Y-78857142D01*
X171714285Y-78761904D01*
X171523809Y-78714285D01*
X171142857Y-78714285D01*
X171047619Y-78761904D01*
X171000000Y-78809523D01*
X170952380Y-78904761D01*
X170952380Y-79095238D01*
X171000000Y-79190476D01*
X171047619Y-79238095D01*
X171142857Y-79285714D01*
X171380952Y-79285714D01*
X171476190Y-79238095D01*
X171523809Y-79190476D01*
X171571428Y-79095238D01*
X171571428Y-78904761D01*
X171523809Y-78809523D01*
X171476190Y-78761904D01*
X171380952Y-78714285D01*
X169702380Y-102119047D02*
X169702380Y-102690476D01*
X169702380Y-102404761D02*
X168702380Y-102404761D01*
X168845238Y-102500000D01*
X168940476Y-102595238D01*
X168988095Y-102690476D01*
X169702380Y-101690476D02*
X168702380Y-101690476D01*
X169321428Y-101595238D02*
X169702380Y-101309523D01*
X169035714Y-101309523D02*
X169416666Y-101690476D01*
X172952380Y-102166666D02*
X172476190Y-102500000D01*
X172952380Y-102738095D02*
X171952380Y-102738095D01*
X171952380Y-102357142D01*
X172000000Y-102261904D01*
X172047619Y-102214285D01*
X172142857Y-102166666D01*
X172285714Y-102166666D01*
X172380952Y-102214285D01*
X172428571Y-102261904D01*
X172476190Y-102357142D01*
X172476190Y-102738095D01*
X172380952Y-101595238D02*
X172333333Y-101690476D01*
X172285714Y-101738095D01*
X172190476Y-101785714D01*
X172142857Y-101785714D01*
X172047619Y-101738095D01*
X172000000Y-101690476D01*
X171952380Y-101595238D01*
X171952380Y-101404761D01*
X172000000Y-101309523D01*
X172047619Y-101261904D01*
X172142857Y-101214285D01*
X172190476Y-101214285D01*
X172285714Y-101261904D01*
X172333333Y-101309523D01*
X172380952Y-101404761D01*
X172380952Y-101595238D01*
X172428571Y-101690476D01*
X172476190Y-101738095D01*
X172571428Y-101785714D01*
X172761904Y-101785714D01*
X172857142Y-101738095D01*
X172904761Y-101690476D01*
X172952380Y-101595238D01*
X172952380Y-101404761D01*
X172904761Y-101309523D01*
X172857142Y-101261904D01*
X172761904Y-101214285D01*
X172571428Y-101214285D01*
X172476190Y-101261904D01*
X172428571Y-101309523D01*
X172380952Y-101404761D01*
X162035714Y-79785714D02*
X162702380Y-79785714D01*
X161654761Y-80023809D02*
X162369047Y-80261904D01*
X162369047Y-79642857D01*
X161702380Y-79357142D02*
X161702380Y-78690476D01*
X162702380Y-79119047D01*
X165952380Y-79666666D02*
X165476190Y-80000000D01*
X165952380Y-80238095D02*
X164952380Y-80238095D01*
X164952380Y-79857142D01*
X165000000Y-79761904D01*
X165047619Y-79714285D01*
X165142857Y-79666666D01*
X165285714Y-79666666D01*
X165380952Y-79714285D01*
X165428571Y-79761904D01*
X165476190Y-79857142D01*
X165476190Y-80238095D01*
X164952380Y-79333333D02*
X164952380Y-78666666D01*
X165952380Y-79095238D01*
X141035714Y-108928571D02*
X141702380Y-108928571D01*
X140654761Y-109166666D02*
X141369047Y-109404761D01*
X141369047Y-108785714D01*
X141654761Y-108357142D02*
X141702380Y-108357142D01*
X141797619Y-108404761D01*
X141845238Y-108452380D01*
X140702380Y-108023809D02*
X140702380Y-107357142D01*
X141702380Y-107785714D01*
X141702380Y-106976190D02*
X140702380Y-106976190D01*
X141321428Y-106880952D02*
X141702380Y-106595238D01*
X141035714Y-106595238D02*
X141416666Y-106976190D01*
X138452380Y-108166666D02*
X137976190Y-108500000D01*
X138452380Y-108738095D02*
X137452380Y-108738095D01*
X137452380Y-108357142D01*
X137500000Y-108261904D01*
X137547619Y-108214285D01*
X137642857Y-108166666D01*
X137785714Y-108166666D01*
X137880952Y-108214285D01*
X137928571Y-108261904D01*
X137976190Y-108357142D01*
X137976190Y-108738095D01*
X137452380Y-107309523D02*
X137452380Y-107500000D01*
X137500000Y-107595238D01*
X137547619Y-107642857D01*
X137690476Y-107738095D01*
X137880952Y-107785714D01*
X138261904Y-107785714D01*
X138357142Y-107738095D01*
X138404761Y-107690476D01*
X138452380Y-107595238D01*
X138452380Y-107404761D01*
X138404761Y-107309523D01*
X138357142Y-107261904D01*
X138261904Y-107214285D01*
X138023809Y-107214285D01*
X137928571Y-107261904D01*
X137880952Y-107309523D01*
X137833333Y-107404761D01*
X137833333Y-107595238D01*
X137880952Y-107690476D01*
X137928571Y-107738095D01*
X138023809Y-107785714D01*
X163035714Y-102285714D02*
X163702380Y-102285714D01*
X162654761Y-102523809D02*
X163369047Y-102761904D01*
X163369047Y-102142857D01*
X162702380Y-101857142D02*
X162702380Y-101190476D01*
X163702380Y-101619047D01*
X166952380Y-102166666D02*
X166476190Y-102500000D01*
X166952380Y-102738095D02*
X165952380Y-102738095D01*
X165952380Y-102357142D01*
X166000000Y-102261904D01*
X166047619Y-102214285D01*
X166142857Y-102166666D01*
X166285714Y-102166666D01*
X166380952Y-102214285D01*
X166428571Y-102261904D01*
X166476190Y-102357142D01*
X166476190Y-102738095D01*
X165952380Y-101261904D02*
X165952380Y-101738095D01*
X166428571Y-101785714D01*
X166380952Y-101738095D01*
X166333333Y-101642857D01*
X166333333Y-101404761D01*
X166380952Y-101309523D01*
X166428571Y-101261904D01*
X166523809Y-101214285D01*
X166761904Y-101214285D01*
X166857142Y-101261904D01*
X166904761Y-101309523D01*
X166952380Y-101404761D01*
X166952380Y-101642857D01*
X166904761Y-101738095D01*
X166857142Y-101785714D01*
X173535714Y-79785714D02*
X174202380Y-79785714D01*
X173154761Y-80023809D02*
X173869047Y-80261904D01*
X173869047Y-79642857D01*
X173202380Y-79357142D02*
X173202380Y-78690476D01*
X174202380Y-79119047D01*
X177452380Y-79666666D02*
X176976190Y-80000000D01*
X177452380Y-80238095D02*
X176452380Y-80238095D01*
X176452380Y-79857142D01*
X176500000Y-79761904D01*
X176547619Y-79714285D01*
X176642857Y-79666666D01*
X176785714Y-79666666D01*
X176880952Y-79714285D01*
X176928571Y-79761904D01*
X176976190Y-79857142D01*
X176976190Y-80238095D01*
X176785714Y-78809523D02*
X177452380Y-78809523D01*
X176404761Y-79047619D02*
X177119047Y-79285714D01*
X177119047Y-78666666D01*
X157535714Y-102285714D02*
X158202380Y-102285714D01*
X157154761Y-102523809D02*
X157869047Y-102761904D01*
X157869047Y-102142857D01*
X157202380Y-101857142D02*
X157202380Y-101190476D01*
X158202380Y-101619047D01*
X161452380Y-102166666D02*
X160976190Y-102500000D01*
X161452380Y-102738095D02*
X160452380Y-102738095D01*
X160452380Y-102357142D01*
X160500000Y-102261904D01*
X160547619Y-102214285D01*
X160642857Y-102166666D01*
X160785714Y-102166666D01*
X160880952Y-102214285D01*
X160928571Y-102261904D01*
X160976190Y-102357142D01*
X160976190Y-102738095D01*
X160452380Y-101833333D02*
X160452380Y-101214285D01*
X160833333Y-101547619D01*
X160833333Y-101404761D01*
X160880952Y-101309523D01*
X160928571Y-101261904D01*
X161023809Y-101214285D01*
X161261904Y-101214285D01*
X161357142Y-101261904D01*
X161404761Y-101309523D01*
X161452380Y-101404761D01*
X161452380Y-101690476D01*
X161404761Y-101785714D01*
X161357142Y-101833333D01*
X186202380Y-79619047D02*
X186202380Y-80190476D01*
X186202380Y-79904761D02*
X185202380Y-79904761D01*
X185345238Y-80000000D01*
X185440476Y-80095238D01*
X185488095Y-80190476D01*
X186202380Y-79190476D02*
X185202380Y-79190476D01*
X185821428Y-79095238D02*
X186202380Y-78809523D01*
X185535714Y-78809523D02*
X185916666Y-79190476D01*
X182952380Y-79666666D02*
X182476190Y-80000000D01*
X182952380Y-80238095D02*
X181952380Y-80238095D01*
X181952380Y-79857142D01*
X182000000Y-79761904D01*
X182047619Y-79714285D01*
X182142857Y-79666666D01*
X182285714Y-79666666D01*
X182380952Y-79714285D01*
X182428571Y-79761904D01*
X182476190Y-79857142D01*
X182476190Y-80238095D01*
X182047619Y-79285714D02*
X182000000Y-79238095D01*
X181952380Y-79142857D01*
X181952380Y-78904761D01*
X182000000Y-78809523D01*
X182047619Y-78761904D01*
X182142857Y-78714285D01*
X182238095Y-78714285D01*
X182380952Y-78761904D01*
X182952380Y-79333333D01*
X182952380Y-78714285D01*
X152202380Y-102119047D02*
X152202380Y-102690476D01*
X152202380Y-102404761D02*
X151202380Y-102404761D01*
X151345238Y-102500000D01*
X151440476Y-102595238D01*
X151488095Y-102690476D01*
X152202380Y-101690476D02*
X151202380Y-101690476D01*
X151821428Y-101595238D02*
X152202380Y-101309523D01*
X151535714Y-101309523D02*
X151916666Y-101690476D01*
X155452380Y-102166666D02*
X154976190Y-102500000D01*
X155452380Y-102738095D02*
X154452380Y-102738095D01*
X154452380Y-102357142D01*
X154500000Y-102261904D01*
X154547619Y-102214285D01*
X154642857Y-102166666D01*
X154785714Y-102166666D01*
X154880952Y-102214285D01*
X154928571Y-102261904D01*
X154976190Y-102357142D01*
X154976190Y-102738095D01*
X155452380Y-101214285D02*
X155452380Y-101785714D01*
X155452380Y-101500000D02*
X154452380Y-101500000D01*
X154595238Y-101595238D01*
X154690476Y-101690476D01*
X154738095Y-101785714D01*
X164230476Y-93452380D02*
X164230476Y-92452380D01*
X165278095Y-93452380D02*
X164944761Y-92976190D01*
X164706666Y-93452380D02*
X164706666Y-92452380D01*
X165087619Y-92452380D01*
X165182857Y-92500000D01*
X165230476Y-92547619D01*
X165278095Y-92642857D01*
X165278095Y-92785714D01*
X165230476Y-92880952D01*
X165182857Y-92928571D01*
X165087619Y-92976190D01*
X164706666Y-92976190D01*
X166040000Y-92928571D02*
X165706666Y-92928571D01*
X165706666Y-93452380D02*
X165706666Y-92452380D01*
X166182857Y-92452380D01*
X166468571Y-92452380D02*
X167135238Y-92452380D01*
X166468571Y-93452380D01*
X167135238Y-93452380D01*
X167468571Y-92547619D02*
X167516190Y-92500000D01*
X167611428Y-92452380D01*
X167849523Y-92452380D01*
X167944761Y-92500000D01*
X167992380Y-92547619D01*
X168040000Y-92642857D01*
X168040000Y-92738095D01*
X167992380Y-92880952D01*
X167420952Y-93452380D01*
X168040000Y-93452380D01*
X168897142Y-92785714D02*
X168897142Y-93452380D01*
X168659047Y-92404761D02*
X168420952Y-93119047D01*
X169040000Y-93119047D01*
X169420952Y-93452380D02*
X169420952Y-92452380D01*
X169992380Y-93452380D01*
X169992380Y-92452380D01*
X170468571Y-93452380D02*
X170468571Y-92452380D01*
X170849523Y-92452380D01*
X170944761Y-92500000D01*
X170992380Y-92547619D01*
X171040000Y-92642857D01*
X171040000Y-92785714D01*
X170992380Y-92880952D01*
X170944761Y-92928571D01*
X170849523Y-92976190D01*
X170468571Y-92976190D01*
X171801904Y-92928571D02*
X171944761Y-92976190D01*
X171992380Y-93023809D01*
X172040000Y-93119047D01*
X172040000Y-93261904D01*
X171992380Y-93357142D01*
X171944761Y-93404761D01*
X171849523Y-93452380D01*
X171468571Y-93452380D01*
X171468571Y-92452380D01*
X171801904Y-92452380D01*
X171897142Y-92500000D01*
X171944761Y-92547619D01*
X171992380Y-92642857D01*
X171992380Y-92738095D01*
X171944761Y-92833333D01*
X171897142Y-92880952D01*
X171801904Y-92928571D01*
X171468571Y-92928571D01*
X172801904Y-92928571D02*
X172468571Y-92928571D01*
X172468571Y-93452380D02*
X172468571Y-92452380D01*
X172944761Y-92452380D01*
X168444761Y-86777619D02*
X168349523Y-86730000D01*
X168254285Y-86634761D01*
X168111428Y-86491904D01*
X168016190Y-86444285D01*
X167920952Y-86444285D01*
X167968571Y-86682380D02*
X167873333Y-86634761D01*
X167778095Y-86539523D01*
X167730476Y-86349047D01*
X167730476Y-86015714D01*
X167778095Y-85825238D01*
X167873333Y-85730000D01*
X167968571Y-85682380D01*
X168159047Y-85682380D01*
X168254285Y-85730000D01*
X168349523Y-85825238D01*
X168397142Y-86015714D01*
X168397142Y-86349047D01*
X168349523Y-86539523D01*
X168254285Y-86634761D01*
X168159047Y-86682380D01*
X167968571Y-86682380D01*
X169254285Y-86015714D02*
X169254285Y-86682380D01*
X169016190Y-85634761D02*
X168778095Y-86349047D01*
X169397142Y-86349047D01*
X165150476Y-109452380D02*
X165150476Y-108452380D01*
X166198095Y-109452380D02*
X165864761Y-108976190D01*
X165626666Y-109452380D02*
X165626666Y-108452380D01*
X166007619Y-108452380D01*
X166102857Y-108500000D01*
X166150476Y-108547619D01*
X166198095Y-108642857D01*
X166198095Y-108785714D01*
X166150476Y-108880952D01*
X166102857Y-108928571D01*
X166007619Y-108976190D01*
X165626666Y-108976190D01*
X166960000Y-108928571D02*
X166626666Y-108928571D01*
X166626666Y-109452380D02*
X166626666Y-108452380D01*
X167102857Y-108452380D01*
X167388571Y-108452380D02*
X168055238Y-108452380D01*
X167388571Y-109452380D01*
X168055238Y-109452380D01*
X168388571Y-108547619D02*
X168436190Y-108500000D01*
X168531428Y-108452380D01*
X168769523Y-108452380D01*
X168864761Y-108500000D01*
X168912380Y-108547619D01*
X168960000Y-108642857D01*
X168960000Y-108738095D01*
X168912380Y-108880952D01*
X168340952Y-109452380D01*
X168960000Y-109452380D01*
X169817142Y-108785714D02*
X169817142Y-109452380D01*
X169579047Y-108404761D02*
X169340952Y-109119047D01*
X169960000Y-109119047D01*
X170340952Y-109452380D02*
X170340952Y-108452380D01*
X170912380Y-109452380D01*
X170912380Y-108452380D01*
X171388571Y-109452380D02*
X171388571Y-108452380D01*
X171769523Y-108452380D01*
X171864761Y-108500000D01*
X171912380Y-108547619D01*
X171960000Y-108642857D01*
X171960000Y-108785714D01*
X171912380Y-108880952D01*
X171864761Y-108928571D01*
X171769523Y-108976190D01*
X171388571Y-108976190D01*
X172721904Y-108928571D02*
X172864761Y-108976190D01*
X172912380Y-109023809D01*
X172960000Y-109119047D01*
X172960000Y-109261904D01*
X172912380Y-109357142D01*
X172864761Y-109404761D01*
X172769523Y-109452380D01*
X172388571Y-109452380D01*
X172388571Y-108452380D01*
X172721904Y-108452380D01*
X172817142Y-108500000D01*
X172864761Y-108547619D01*
X172912380Y-108642857D01*
X172912380Y-108738095D01*
X172864761Y-108833333D01*
X172817142Y-108880952D01*
X172721904Y-108928571D01*
X172388571Y-108928571D01*
X173721904Y-108928571D02*
X173388571Y-108928571D01*
X173388571Y-109452380D02*
X173388571Y-108452380D01*
X173864761Y-108452380D01*
X169364761Y-116317619D02*
X169269523Y-116270000D01*
X169174285Y-116174761D01*
X169031428Y-116031904D01*
X168936190Y-115984285D01*
X168840952Y-115984285D01*
X168888571Y-116222380D02*
X168793333Y-116174761D01*
X168698095Y-116079523D01*
X168650476Y-115889047D01*
X168650476Y-115555714D01*
X168698095Y-115365238D01*
X168793333Y-115270000D01*
X168888571Y-115222380D01*
X169079047Y-115222380D01*
X169174285Y-115270000D01*
X169269523Y-115365238D01*
X169317142Y-115555714D01*
X169317142Y-115889047D01*
X169269523Y-116079523D01*
X169174285Y-116174761D01*
X169079047Y-116222380D01*
X168888571Y-116222380D01*
X169650476Y-115222380D02*
X170269523Y-115222380D01*
X169936190Y-115603333D01*
X170079047Y-115603333D01*
X170174285Y-115650952D01*
X170221904Y-115698571D01*
X170269523Y-115793809D01*
X170269523Y-116031904D01*
X170221904Y-116127142D01*
X170174285Y-116174761D01*
X170079047Y-116222380D01*
X169793333Y-116222380D01*
X169698095Y-116174761D01*
X169650476Y-116127142D01*
X175254285Y-93452380D02*
X175254285Y-92452380D01*
X176301904Y-93452380D02*
X175968571Y-92976190D01*
X175730476Y-93452380D02*
X175730476Y-92452380D01*
X176111428Y-92452380D01*
X176206666Y-92500000D01*
X176254285Y-92547619D01*
X176301904Y-92642857D01*
X176301904Y-92785714D01*
X176254285Y-92880952D01*
X176206666Y-92928571D01*
X176111428Y-92976190D01*
X175730476Y-92976190D01*
X177063809Y-92928571D02*
X176730476Y-92928571D01*
X176730476Y-93452380D02*
X176730476Y-92452380D01*
X177206666Y-92452380D01*
X177635238Y-93452380D02*
X177825714Y-93452380D01*
X177920952Y-93404761D01*
X177968571Y-93357142D01*
X178063809Y-93214285D01*
X178111428Y-93023809D01*
X178111428Y-92642857D01*
X178063809Y-92547619D01*
X178016190Y-92500000D01*
X177920952Y-92452380D01*
X177730476Y-92452380D01*
X177635238Y-92500000D01*
X177587619Y-92547619D01*
X177540000Y-92642857D01*
X177540000Y-92880952D01*
X177587619Y-92976190D01*
X177635238Y-93023809D01*
X177730476Y-93071428D01*
X177920952Y-93071428D01*
X178016190Y-93023809D01*
X178063809Y-92976190D01*
X178111428Y-92880952D01*
X178444761Y-92452380D02*
X179111428Y-92452380D01*
X178444761Y-93452380D01*
X179111428Y-93452380D01*
X179397142Y-92452380D02*
X180016190Y-92452380D01*
X179682857Y-92833333D01*
X179825714Y-92833333D01*
X179920952Y-92880952D01*
X179968571Y-92928571D01*
X180016190Y-93023809D01*
X180016190Y-93261904D01*
X179968571Y-93357142D01*
X179920952Y-93404761D01*
X179825714Y-93452380D01*
X179540000Y-93452380D01*
X179444761Y-93404761D01*
X179397142Y-93357142D01*
X180873333Y-92785714D02*
X180873333Y-93452380D01*
X180635238Y-92404761D02*
X180397142Y-93119047D01*
X181016190Y-93119047D01*
X181397142Y-93452380D02*
X181397142Y-92452380D01*
X181968571Y-93452380D01*
X181968571Y-92452380D01*
X182444761Y-93452380D02*
X182444761Y-92452380D01*
X182825714Y-92452380D01*
X182920952Y-92500000D01*
X182968571Y-92547619D01*
X183016190Y-92642857D01*
X183016190Y-92785714D01*
X182968571Y-92880952D01*
X182920952Y-92928571D01*
X182825714Y-92976190D01*
X182444761Y-92976190D01*
X183778095Y-92928571D02*
X183920952Y-92976190D01*
X183968571Y-93023809D01*
X184016190Y-93119047D01*
X184016190Y-93261904D01*
X183968571Y-93357142D01*
X183920952Y-93404761D01*
X183825714Y-93452380D01*
X183444761Y-93452380D01*
X183444761Y-92452380D01*
X183778095Y-92452380D01*
X183873333Y-92500000D01*
X183920952Y-92547619D01*
X183968571Y-92642857D01*
X183968571Y-92738095D01*
X183920952Y-92833333D01*
X183873333Y-92880952D01*
X183778095Y-92928571D01*
X183444761Y-92928571D01*
X184778095Y-92928571D02*
X184444761Y-92928571D01*
X184444761Y-93452380D02*
X184444761Y-92452380D01*
X184920952Y-92452380D01*
X179944761Y-86777619D02*
X179849523Y-86730000D01*
X179754285Y-86634761D01*
X179611428Y-86491904D01*
X179516190Y-86444285D01*
X179420952Y-86444285D01*
X179468571Y-86682380D02*
X179373333Y-86634761D01*
X179278095Y-86539523D01*
X179230476Y-86349047D01*
X179230476Y-86015714D01*
X179278095Y-85825238D01*
X179373333Y-85730000D01*
X179468571Y-85682380D01*
X179659047Y-85682380D01*
X179754285Y-85730000D01*
X179849523Y-85825238D01*
X179897142Y-86015714D01*
X179897142Y-86349047D01*
X179849523Y-86539523D01*
X179754285Y-86634761D01*
X179659047Y-86682380D01*
X179468571Y-86682380D01*
X180278095Y-85777619D02*
X180325714Y-85730000D01*
X180420952Y-85682380D01*
X180659047Y-85682380D01*
X180754285Y-85730000D01*
X180801904Y-85777619D01*
X180849523Y-85872857D01*
X180849523Y-85968095D01*
X180801904Y-86110952D01*
X180230476Y-86682380D01*
X180849523Y-86682380D01*
X153174285Y-109452380D02*
X153174285Y-108452380D01*
X154221904Y-109452380D02*
X153888571Y-108976190D01*
X153650476Y-109452380D02*
X153650476Y-108452380D01*
X154031428Y-108452380D01*
X154126666Y-108500000D01*
X154174285Y-108547619D01*
X154221904Y-108642857D01*
X154221904Y-108785714D01*
X154174285Y-108880952D01*
X154126666Y-108928571D01*
X154031428Y-108976190D01*
X153650476Y-108976190D01*
X154983809Y-108928571D02*
X154650476Y-108928571D01*
X154650476Y-109452380D02*
X154650476Y-108452380D01*
X155126666Y-108452380D01*
X155555238Y-109452380D02*
X155745714Y-109452380D01*
X155840952Y-109404761D01*
X155888571Y-109357142D01*
X155983809Y-109214285D01*
X156031428Y-109023809D01*
X156031428Y-108642857D01*
X155983809Y-108547619D01*
X155936190Y-108500000D01*
X155840952Y-108452380D01*
X155650476Y-108452380D01*
X155555238Y-108500000D01*
X155507619Y-108547619D01*
X155460000Y-108642857D01*
X155460000Y-108880952D01*
X155507619Y-108976190D01*
X155555238Y-109023809D01*
X155650476Y-109071428D01*
X155840952Y-109071428D01*
X155936190Y-109023809D01*
X155983809Y-108976190D01*
X156031428Y-108880952D01*
X156364761Y-108452380D02*
X157031428Y-108452380D01*
X156364761Y-109452380D01*
X157031428Y-109452380D01*
X157317142Y-108452380D02*
X157936190Y-108452380D01*
X157602857Y-108833333D01*
X157745714Y-108833333D01*
X157840952Y-108880952D01*
X157888571Y-108928571D01*
X157936190Y-109023809D01*
X157936190Y-109261904D01*
X157888571Y-109357142D01*
X157840952Y-109404761D01*
X157745714Y-109452380D01*
X157460000Y-109452380D01*
X157364761Y-109404761D01*
X157317142Y-109357142D01*
X158793333Y-108785714D02*
X158793333Y-109452380D01*
X158555238Y-108404761D02*
X158317142Y-109119047D01*
X158936190Y-109119047D01*
X159317142Y-109452380D02*
X159317142Y-108452380D01*
X159888571Y-109452380D01*
X159888571Y-108452380D01*
X160364761Y-109452380D02*
X160364761Y-108452380D01*
X160745714Y-108452380D01*
X160840952Y-108500000D01*
X160888571Y-108547619D01*
X160936190Y-108642857D01*
X160936190Y-108785714D01*
X160888571Y-108880952D01*
X160840952Y-108928571D01*
X160745714Y-108976190D01*
X160364761Y-108976190D01*
X161698095Y-108928571D02*
X161840952Y-108976190D01*
X161888571Y-109023809D01*
X161936190Y-109119047D01*
X161936190Y-109261904D01*
X161888571Y-109357142D01*
X161840952Y-109404761D01*
X161745714Y-109452380D01*
X161364761Y-109452380D01*
X161364761Y-108452380D01*
X161698095Y-108452380D01*
X161793333Y-108500000D01*
X161840952Y-108547619D01*
X161888571Y-108642857D01*
X161888571Y-108738095D01*
X161840952Y-108833333D01*
X161793333Y-108880952D01*
X161698095Y-108928571D01*
X161364761Y-108928571D01*
X162698095Y-108928571D02*
X162364761Y-108928571D01*
X162364761Y-109452380D02*
X162364761Y-108452380D01*
X162840952Y-108452380D01*
X157864761Y-116317619D02*
X157769523Y-116270000D01*
X157674285Y-116174761D01*
X157531428Y-116031904D01*
X157436190Y-115984285D01*
X157340952Y-115984285D01*
X157388571Y-116222380D02*
X157293333Y-116174761D01*
X157198095Y-116079523D01*
X157150476Y-115889047D01*
X157150476Y-115555714D01*
X157198095Y-115365238D01*
X157293333Y-115270000D01*
X157388571Y-115222380D01*
X157579047Y-115222380D01*
X157674285Y-115270000D01*
X157769523Y-115365238D01*
X157817142Y-115555714D01*
X157817142Y-115889047D01*
X157769523Y-116079523D01*
X157674285Y-116174761D01*
X157579047Y-116222380D01*
X157388571Y-116222380D01*
X158769523Y-116222380D02*
X158198095Y-116222380D01*
X158483809Y-116222380D02*
X158483809Y-115222380D01*
X158388571Y-115365238D01*
X158293333Y-115460476D01*
X158198095Y-115508095D01*
X179738095Y-104202380D02*
X180357142Y-104202380D01*
X180023809Y-104583333D01*
X180166666Y-104583333D01*
X180261904Y-104630952D01*
X180309523Y-104678571D01*
X180357142Y-104773809D01*
X180357142Y-105011904D01*
X180309523Y-105107142D01*
X180261904Y-105154761D01*
X180166666Y-105202380D01*
X179880952Y-105202380D01*
X179785714Y-105154761D01*
X179738095Y-105107142D01*
X180690476Y-104202380D02*
X181309523Y-104202380D01*
X180976190Y-104583333D01*
X181119047Y-104583333D01*
X181214285Y-104630952D01*
X181261904Y-104678571D01*
X181309523Y-104773809D01*
X181309523Y-105011904D01*
X181261904Y-105107142D01*
X181214285Y-105154761D01*
X181119047Y-105202380D01*
X180833333Y-105202380D01*
X180738095Y-105154761D01*
X180690476Y-105107142D01*
X182166666Y-104535714D02*
X182166666Y-105202380D01*
X181738095Y-104535714D02*
X181738095Y-105059523D01*
X181785714Y-105154761D01*
X181880952Y-105202380D01*
X182023809Y-105202380D01*
X182119047Y-105154761D01*
X182166666Y-105107142D01*
X180833333Y-98952380D02*
X180357142Y-98952380D01*
X180357142Y-97952380D01*
X181119047Y-98047619D02*
X181166666Y-98000000D01*
X181261904Y-97952380D01*
X181500000Y-97952380D01*
X181595238Y-98000000D01*
X181642857Y-98047619D01*
X181690476Y-98142857D01*
X181690476Y-98238095D01*
X181642857Y-98380952D01*
X181071428Y-98952380D01*
X181690476Y-98952380D01*
X179738095Y-115202380D02*
X180357142Y-115202380D01*
X180023809Y-115583333D01*
X180166666Y-115583333D01*
X180261904Y-115630952D01*
X180309523Y-115678571D01*
X180357142Y-115773809D01*
X180357142Y-116011904D01*
X180309523Y-116107142D01*
X180261904Y-116154761D01*
X180166666Y-116202380D01*
X179880952Y-116202380D01*
X179785714Y-116154761D01*
X179738095Y-116107142D01*
X180690476Y-115202380D02*
X181309523Y-115202380D01*
X180976190Y-115583333D01*
X181119047Y-115583333D01*
X181214285Y-115630952D01*
X181261904Y-115678571D01*
X181309523Y-115773809D01*
X181309523Y-116011904D01*
X181261904Y-116107142D01*
X181214285Y-116154761D01*
X181119047Y-116202380D01*
X180833333Y-116202380D01*
X180738095Y-116154761D01*
X180690476Y-116107142D01*
X182166666Y-115535714D02*
X182166666Y-116202380D01*
X181738095Y-115535714D02*
X181738095Y-116059523D01*
X181785714Y-116154761D01*
X181880952Y-116202380D01*
X182023809Y-116202380D01*
X182119047Y-116154761D01*
X182166666Y-116107142D01*
X180833333Y-109952380D02*
X180357142Y-109952380D01*
X180357142Y-108952380D01*
X181690476Y-109952380D02*
X181119047Y-109952380D01*
X181404761Y-109952380D02*
X181404761Y-108952380D01*
X181309523Y-109095238D01*
X181214285Y-109190476D01*
X181119047Y-109238095D01*
X186257142Y-95488095D02*
X186304761Y-95535714D01*
X186352380Y-95678571D01*
X186352380Y-95773809D01*
X186304761Y-95916666D01*
X186209523Y-96011904D01*
X186114285Y-96059523D01*
X185923809Y-96107142D01*
X185780952Y-96107142D01*
X185590476Y-96059523D01*
X185495238Y-96011904D01*
X185400000Y-95916666D01*
X185352380Y-95773809D01*
X185352380Y-95678571D01*
X185400000Y-95535714D01*
X185447619Y-95488095D01*
X186352380Y-94916666D02*
X186304761Y-95011904D01*
X186257142Y-95059523D01*
X186161904Y-95107142D01*
X185876190Y-95107142D01*
X185780952Y-95059523D01*
X185733333Y-95011904D01*
X185685714Y-94916666D01*
X185685714Y-94773809D01*
X185733333Y-94678571D01*
X185780952Y-94630952D01*
X185876190Y-94583333D01*
X186161904Y-94583333D01*
X186257142Y-94630952D01*
X186304761Y-94678571D01*
X186352380Y-94773809D01*
X186352380Y-94916666D01*
X185685714Y-94154761D02*
X186352380Y-94154761D01*
X185780952Y-94154761D02*
X185733333Y-94107142D01*
X185685714Y-94011904D01*
X185685714Y-93869047D01*
X185733333Y-93773809D01*
X185828571Y-93726190D01*
X186352380Y-93726190D01*
X185685714Y-93250000D02*
X186352380Y-93250000D01*
X185780952Y-93250000D02*
X185733333Y-93202380D01*
X185685714Y-93107142D01*
X185685714Y-92964285D01*
X185733333Y-92869047D01*
X185828571Y-92821428D01*
X186352380Y-92821428D01*
X186447619Y-92583333D02*
X186447619Y-91821428D01*
X185352380Y-91392857D02*
X185352380Y-91297619D01*
X185400000Y-91202380D01*
X185447619Y-91154761D01*
X185542857Y-91107142D01*
X185733333Y-91059523D01*
X185971428Y-91059523D01*
X186161904Y-91107142D01*
X186257142Y-91154761D01*
X186304761Y-91202380D01*
X186352380Y-91297619D01*
X186352380Y-91392857D01*
X186304761Y-91488095D01*
X186257142Y-91535714D01*
X186161904Y-91583333D01*
X185971428Y-91630952D01*
X185733333Y-91630952D01*
X185542857Y-91583333D01*
X185447619Y-91535714D01*
X185400000Y-91488095D01*
X185352380Y-91392857D01*
X186352380Y-90107142D02*
X186352380Y-90678571D01*
X186352380Y-90392857D02*
X185352380Y-90392857D01*
X185495238Y-90488095D01*
X185590476Y-90583333D01*
X185638095Y-90678571D01*
X186352380Y-89773809D02*
X185685714Y-89250000D01*
X185685714Y-89773809D02*
X186352380Y-89250000D01*
X185352380Y-88678571D02*
X185352380Y-88583333D01*
X185400000Y-88488095D01*
X185447619Y-88440476D01*
X185542857Y-88392857D01*
X185733333Y-88345238D01*
X185971428Y-88345238D01*
X186161904Y-88392857D01*
X186257142Y-88440476D01*
X186304761Y-88488095D01*
X186352380Y-88583333D01*
X186352380Y-88678571D01*
X186304761Y-88773809D01*
X186257142Y-88821428D01*
X186161904Y-88869047D01*
X185971428Y-88916666D01*
X185733333Y-88916666D01*
X185542857Y-88869047D01*
X185447619Y-88821428D01*
X185400000Y-88773809D01*
X185352380Y-88678571D01*
X185447619Y-87964285D02*
X185400000Y-87916666D01*
X185352380Y-87821428D01*
X185352380Y-87583333D01*
X185400000Y-87488095D01*
X185447619Y-87440476D01*
X185542857Y-87392857D01*
X185638095Y-87392857D01*
X185780952Y-87440476D01*
X186352380Y-88011904D01*
X186352380Y-87392857D01*
X187252380Y-92083333D02*
X187966666Y-92083333D01*
X188109523Y-92130952D01*
X188204761Y-92226190D01*
X188252380Y-92369047D01*
X188252380Y-92464285D01*
X187252380Y-91130952D02*
X187252380Y-91607142D01*
X187728571Y-91654761D01*
X187680952Y-91607142D01*
X187633333Y-91511904D01*
X187633333Y-91273809D01*
X187680952Y-91178571D01*
X187728571Y-91130952D01*
X187823809Y-91083333D01*
X188061904Y-91083333D01*
X188157142Y-91130952D01*
X188204761Y-91178571D01*
X188252380Y-91273809D01*
X188252380Y-91511904D01*
X188204761Y-91607142D01*
X188157142Y-91654761D01*
X133457142Y-104988095D02*
X133504761Y-105035714D01*
X133552380Y-105178571D01*
X133552380Y-105273809D01*
X133504761Y-105416666D01*
X133409523Y-105511904D01*
X133314285Y-105559523D01*
X133123809Y-105607142D01*
X132980952Y-105607142D01*
X132790476Y-105559523D01*
X132695238Y-105511904D01*
X132600000Y-105416666D01*
X132552380Y-105273809D01*
X132552380Y-105178571D01*
X132600000Y-105035714D01*
X132647619Y-104988095D01*
X133552380Y-104416666D02*
X133504761Y-104511904D01*
X133457142Y-104559523D01*
X133361904Y-104607142D01*
X133076190Y-104607142D01*
X132980952Y-104559523D01*
X132933333Y-104511904D01*
X132885714Y-104416666D01*
X132885714Y-104273809D01*
X132933333Y-104178571D01*
X132980952Y-104130952D01*
X133076190Y-104083333D01*
X133361904Y-104083333D01*
X133457142Y-104130952D01*
X133504761Y-104178571D01*
X133552380Y-104273809D01*
X133552380Y-104416666D01*
X132885714Y-103654761D02*
X133552380Y-103654761D01*
X132980952Y-103654761D02*
X132933333Y-103607142D01*
X132885714Y-103511904D01*
X132885714Y-103369047D01*
X132933333Y-103273809D01*
X133028571Y-103226190D01*
X133552380Y-103226190D01*
X132885714Y-102750000D02*
X133552380Y-102750000D01*
X132980952Y-102750000D02*
X132933333Y-102702380D01*
X132885714Y-102607142D01*
X132885714Y-102464285D01*
X132933333Y-102369047D01*
X133028571Y-102321428D01*
X133552380Y-102321428D01*
X133647619Y-102083333D02*
X133647619Y-101321428D01*
X132552380Y-100892857D02*
X132552380Y-100797619D01*
X132600000Y-100702380D01*
X132647619Y-100654761D01*
X132742857Y-100607142D01*
X132933333Y-100559523D01*
X133171428Y-100559523D01*
X133361904Y-100607142D01*
X133457142Y-100654761D01*
X133504761Y-100702380D01*
X133552380Y-100797619D01*
X133552380Y-100892857D01*
X133504761Y-100988095D01*
X133457142Y-101035714D01*
X133361904Y-101083333D01*
X133171428Y-101130952D01*
X132933333Y-101130952D01*
X132742857Y-101083333D01*
X132647619Y-101035714D01*
X132600000Y-100988095D01*
X132552380Y-100892857D01*
X133552380Y-99607142D02*
X133552380Y-100178571D01*
X133552380Y-99892857D02*
X132552380Y-99892857D01*
X132695238Y-99988095D01*
X132790476Y-100083333D01*
X132838095Y-100178571D01*
X133552380Y-99273809D02*
X132885714Y-98750000D01*
X132885714Y-99273809D02*
X133552380Y-98750000D01*
X132552380Y-98178571D02*
X132552380Y-98083333D01*
X132600000Y-97988095D01*
X132647619Y-97940476D01*
X132742857Y-97892857D01*
X132933333Y-97845238D01*
X133171428Y-97845238D01*
X133361904Y-97892857D01*
X133457142Y-97940476D01*
X133504761Y-97988095D01*
X133552380Y-98083333D01*
X133552380Y-98178571D01*
X133504761Y-98273809D01*
X133457142Y-98321428D01*
X133361904Y-98369047D01*
X133171428Y-98416666D01*
X132933333Y-98416666D01*
X132742857Y-98369047D01*
X132647619Y-98321428D01*
X132600000Y-98273809D01*
X132552380Y-98178571D01*
X132885714Y-96988095D02*
X133552380Y-96988095D01*
X132504761Y-97226190D02*
X133219047Y-97464285D01*
X133219047Y-96845238D01*
X130652380Y-101583333D02*
X131366666Y-101583333D01*
X131509523Y-101630952D01*
X131604761Y-101726190D01*
X131652380Y-101869047D01*
X131652380Y-101964285D01*
X130652380Y-101202380D02*
X130652380Y-100583333D01*
X131033333Y-100916666D01*
X131033333Y-100773809D01*
X131080952Y-100678571D01*
X131128571Y-100630952D01*
X131223809Y-100583333D01*
X131461904Y-100583333D01*
X131557142Y-100630952D01*
X131604761Y-100678571D01*
X131652380Y-100773809D01*
X131652380Y-101059523D01*
X131604761Y-101154761D01*
X131557142Y-101202380D01*
X133457142Y-88988095D02*
X133504761Y-89035714D01*
X133552380Y-89178571D01*
X133552380Y-89273809D01*
X133504761Y-89416666D01*
X133409523Y-89511904D01*
X133314285Y-89559523D01*
X133123809Y-89607142D01*
X132980952Y-89607142D01*
X132790476Y-89559523D01*
X132695238Y-89511904D01*
X132600000Y-89416666D01*
X132552380Y-89273809D01*
X132552380Y-89178571D01*
X132600000Y-89035714D01*
X132647619Y-88988095D01*
X133552380Y-88416666D02*
X133504761Y-88511904D01*
X133457142Y-88559523D01*
X133361904Y-88607142D01*
X133076190Y-88607142D01*
X132980952Y-88559523D01*
X132933333Y-88511904D01*
X132885714Y-88416666D01*
X132885714Y-88273809D01*
X132933333Y-88178571D01*
X132980952Y-88130952D01*
X133076190Y-88083333D01*
X133361904Y-88083333D01*
X133457142Y-88130952D01*
X133504761Y-88178571D01*
X133552380Y-88273809D01*
X133552380Y-88416666D01*
X132885714Y-87654761D02*
X133552380Y-87654761D01*
X132980952Y-87654761D02*
X132933333Y-87607142D01*
X132885714Y-87511904D01*
X132885714Y-87369047D01*
X132933333Y-87273809D01*
X133028571Y-87226190D01*
X133552380Y-87226190D01*
X132885714Y-86750000D02*
X133552380Y-86750000D01*
X132980952Y-86750000D02*
X132933333Y-86702380D01*
X132885714Y-86607142D01*
X132885714Y-86464285D01*
X132933333Y-86369047D01*
X133028571Y-86321428D01*
X133552380Y-86321428D01*
X133647619Y-86083333D02*
X133647619Y-85321428D01*
X132552380Y-84892857D02*
X132552380Y-84797619D01*
X132600000Y-84702380D01*
X132647619Y-84654761D01*
X132742857Y-84607142D01*
X132933333Y-84559523D01*
X133171428Y-84559523D01*
X133361904Y-84607142D01*
X133457142Y-84654761D01*
X133504761Y-84702380D01*
X133552380Y-84797619D01*
X133552380Y-84892857D01*
X133504761Y-84988095D01*
X133457142Y-85035714D01*
X133361904Y-85083333D01*
X133171428Y-85130952D01*
X132933333Y-85130952D01*
X132742857Y-85083333D01*
X132647619Y-85035714D01*
X132600000Y-84988095D01*
X132552380Y-84892857D01*
X133552380Y-83607142D02*
X133552380Y-84178571D01*
X133552380Y-83892857D02*
X132552380Y-83892857D01*
X132695238Y-83988095D01*
X132790476Y-84083333D01*
X132838095Y-84178571D01*
X133552380Y-83273809D02*
X132885714Y-82750000D01*
X132885714Y-83273809D02*
X133552380Y-82750000D01*
X132552380Y-82178571D02*
X132552380Y-82083333D01*
X132600000Y-81988095D01*
X132647619Y-81940476D01*
X132742857Y-81892857D01*
X132933333Y-81845238D01*
X133171428Y-81845238D01*
X133361904Y-81892857D01*
X133457142Y-81940476D01*
X133504761Y-81988095D01*
X133552380Y-82083333D01*
X133552380Y-82178571D01*
X133504761Y-82273809D01*
X133457142Y-82321428D01*
X133361904Y-82369047D01*
X133171428Y-82416666D01*
X132933333Y-82416666D01*
X132742857Y-82369047D01*
X132647619Y-82321428D01*
X132600000Y-82273809D01*
X132552380Y-82178571D01*
X132885714Y-80988095D02*
X133552380Y-80988095D01*
X132504761Y-81226190D02*
X133219047Y-81464285D01*
X133219047Y-80845238D01*
X130652380Y-85583333D02*
X131366666Y-85583333D01*
X131509523Y-85630952D01*
X131604761Y-85726190D01*
X131652380Y-85869047D01*
X131652380Y-85964285D01*
X130747619Y-85154761D02*
X130700000Y-85107142D01*
X130652380Y-85011904D01*
X130652380Y-84773809D01*
X130700000Y-84678571D01*
X130747619Y-84630952D01*
X130842857Y-84583333D01*
X130938095Y-84583333D01*
X131080952Y-84630952D01*
X131652380Y-85202380D01*
X131652380Y-84583333D01*
X133511904Y-80457142D02*
X133464285Y-80504761D01*
X133321428Y-80552380D01*
X133226190Y-80552380D01*
X133083333Y-80504761D01*
X132988095Y-80409523D01*
X132940476Y-80314285D01*
X132892857Y-80123809D01*
X132892857Y-79980952D01*
X132940476Y-79790476D01*
X132988095Y-79695238D01*
X133083333Y-79600000D01*
X133226190Y-79552380D01*
X133321428Y-79552380D01*
X133464285Y-79600000D01*
X133511904Y-79647619D01*
X134083333Y-80552380D02*
X133988095Y-80504761D01*
X133940476Y-80457142D01*
X133892857Y-80361904D01*
X133892857Y-80076190D01*
X133940476Y-79980952D01*
X133988095Y-79933333D01*
X134083333Y-79885714D01*
X134226190Y-79885714D01*
X134321428Y-79933333D01*
X134369047Y-79980952D01*
X134416666Y-80076190D01*
X134416666Y-80361904D01*
X134369047Y-80457142D01*
X134321428Y-80504761D01*
X134226190Y-80552380D01*
X134083333Y-80552380D01*
X134845238Y-79885714D02*
X134845238Y-80552380D01*
X134845238Y-79980952D02*
X134892857Y-79933333D01*
X134988095Y-79885714D01*
X135130952Y-79885714D01*
X135226190Y-79933333D01*
X135273809Y-80028571D01*
X135273809Y-80552380D01*
X135750000Y-79885714D02*
X135750000Y-80552380D01*
X135750000Y-79980952D02*
X135797619Y-79933333D01*
X135892857Y-79885714D01*
X136035714Y-79885714D01*
X136130952Y-79933333D01*
X136178571Y-80028571D01*
X136178571Y-80552380D01*
X136416666Y-80647619D02*
X137178571Y-80647619D01*
X137607142Y-79552380D02*
X137702380Y-79552380D01*
X137797619Y-79600000D01*
X137845238Y-79647619D01*
X137892857Y-79742857D01*
X137940476Y-79933333D01*
X137940476Y-80171428D01*
X137892857Y-80361904D01*
X137845238Y-80457142D01*
X137797619Y-80504761D01*
X137702380Y-80552380D01*
X137607142Y-80552380D01*
X137511904Y-80504761D01*
X137464285Y-80457142D01*
X137416666Y-80361904D01*
X137369047Y-80171428D01*
X137369047Y-79933333D01*
X137416666Y-79742857D01*
X137464285Y-79647619D01*
X137511904Y-79600000D01*
X137607142Y-79552380D01*
X138892857Y-80552380D02*
X138321428Y-80552380D01*
X138607142Y-80552380D02*
X138607142Y-79552380D01*
X138511904Y-79695238D01*
X138416666Y-79790476D01*
X138321428Y-79838095D01*
X139226190Y-80552380D02*
X139750000Y-79885714D01*
X139226190Y-79885714D02*
X139750000Y-80552380D01*
X140321428Y-79552380D02*
X140416666Y-79552380D01*
X140511904Y-79600000D01*
X140559523Y-79647619D01*
X140607142Y-79742857D01*
X140654761Y-79933333D01*
X140654761Y-80171428D01*
X140607142Y-80361904D01*
X140559523Y-80457142D01*
X140511904Y-80504761D01*
X140416666Y-80552380D01*
X140321428Y-80552380D01*
X140226190Y-80504761D01*
X140178571Y-80457142D01*
X140130952Y-80361904D01*
X140083333Y-80171428D01*
X140083333Y-79933333D01*
X140130952Y-79742857D01*
X140178571Y-79647619D01*
X140226190Y-79600000D01*
X140321428Y-79552380D01*
X141035714Y-79647619D02*
X141083333Y-79600000D01*
X141178571Y-79552380D01*
X141416666Y-79552380D01*
X141511904Y-79600000D01*
X141559523Y-79647619D01*
X141607142Y-79742857D01*
X141607142Y-79838095D01*
X141559523Y-79980952D01*
X140988095Y-80552380D01*
X141607142Y-80552380D01*
X136916666Y-77652380D02*
X136916666Y-78366666D01*
X136869047Y-78509523D01*
X136773809Y-78604761D01*
X136630952Y-78652380D01*
X136535714Y-78652380D01*
X137916666Y-78652380D02*
X137345238Y-78652380D01*
X137630952Y-78652380D02*
X137630952Y-77652380D01*
X137535714Y-77795238D01*
X137440476Y-77890476D01*
X137345238Y-77938095D01*
X141412380Y-89872857D02*
X141412380Y-90349047D01*
X140412380Y-90349047D01*
X140888571Y-89539523D02*
X140888571Y-89206190D01*
X141412380Y-89063333D02*
X141412380Y-89539523D01*
X140412380Y-89539523D01*
X140412380Y-89063333D01*
X141412380Y-88634761D02*
X140412380Y-88634761D01*
X140412380Y-88396666D01*
X140460000Y-88253809D01*
X140555238Y-88158571D01*
X140650476Y-88110952D01*
X140840952Y-88063333D01*
X140983809Y-88063333D01*
X141174285Y-88110952D01*
X141269523Y-88158571D01*
X141364761Y-88253809D01*
X141412380Y-88396666D01*
X141412380Y-88634761D01*
X141412380Y-82872857D02*
X141412380Y-83349047D01*
X140412380Y-83349047D01*
X140888571Y-82539523D02*
X140888571Y-82206190D01*
X141412380Y-82063333D02*
X141412380Y-82539523D01*
X140412380Y-82539523D01*
X140412380Y-82063333D01*
X141412380Y-81634761D02*
X140412380Y-81634761D01*
X140412380Y-81396666D01*
X140460000Y-81253809D01*
X140555238Y-81158571D01*
X140650476Y-81110952D01*
X140840952Y-81063333D01*
X140983809Y-81063333D01*
X141174285Y-81110952D01*
X141269523Y-81158571D01*
X141364761Y-81253809D01*
X141412380Y-81396666D01*
X141412380Y-81634761D01*
X163952380Y-78047619D02*
X163952380Y-78619047D01*
X163952380Y-78333333D02*
X162952380Y-78333333D01*
X163095238Y-78428571D01*
X163190476Y-78523809D01*
X163238095Y-78619047D01*
X162952380Y-77428571D02*
X162952380Y-77333333D01*
X163000000Y-77238095D01*
X163047619Y-77190476D01*
X163142857Y-77142857D01*
X163333333Y-77095238D01*
X163571428Y-77095238D01*
X163761904Y-77142857D01*
X163857142Y-77190476D01*
X163904761Y-77238095D01*
X163952380Y-77333333D01*
X163952380Y-77428571D01*
X163904761Y-77523809D01*
X163857142Y-77571428D01*
X163761904Y-77619047D01*
X163571428Y-77666666D01*
X163333333Y-77666666D01*
X163142857Y-77619047D01*
X163047619Y-77571428D01*
X163000000Y-77523809D01*
X162952380Y-77428571D01*
X162952380Y-76476190D02*
X162952380Y-76380952D01*
X163000000Y-76285714D01*
X163047619Y-76238095D01*
X163142857Y-76190476D01*
X163333333Y-76142857D01*
X163571428Y-76142857D01*
X163761904Y-76190476D01*
X163857142Y-76238095D01*
X163904761Y-76285714D01*
X163952380Y-76380952D01*
X163952380Y-76476190D01*
X163904761Y-76571428D01*
X163857142Y-76619047D01*
X163761904Y-76666666D01*
X163571428Y-76714285D01*
X163333333Y-76714285D01*
X163142857Y-76666666D01*
X163047619Y-76619047D01*
X163000000Y-76571428D01*
X162952380Y-76476190D01*
X163285714Y-75714285D02*
X163952380Y-75714285D01*
X163380952Y-75714285D02*
X163333333Y-75666666D01*
X163285714Y-75571428D01*
X163285714Y-75428571D01*
X163333333Y-75333333D01*
X163428571Y-75285714D01*
X163952380Y-75285714D01*
X163428571Y-74476190D02*
X163428571Y-74809523D01*
X163952380Y-74809523D02*
X162952380Y-74809523D01*
X162952380Y-74333333D01*
X161357142Y-76666666D02*
X161404761Y-76714285D01*
X161452380Y-76857142D01*
X161452380Y-76952380D01*
X161404761Y-77095238D01*
X161309523Y-77190476D01*
X161214285Y-77238095D01*
X161023809Y-77285714D01*
X160880952Y-77285714D01*
X160690476Y-77238095D01*
X160595238Y-77190476D01*
X160500000Y-77095238D01*
X160452380Y-76952380D01*
X160452380Y-76857142D01*
X160500000Y-76714285D01*
X160547619Y-76666666D01*
X160452380Y-76333333D02*
X160452380Y-75666666D01*
X161452380Y-76095238D01*
X153452380Y-92547619D02*
X153452380Y-93119047D01*
X153452380Y-92833333D02*
X152452380Y-92833333D01*
X152595238Y-92928571D01*
X152690476Y-93023809D01*
X152738095Y-93119047D01*
X152452380Y-91928571D02*
X152452380Y-91833333D01*
X152500000Y-91738095D01*
X152547619Y-91690476D01*
X152642857Y-91642857D01*
X152833333Y-91595238D01*
X153071428Y-91595238D01*
X153261904Y-91642857D01*
X153357142Y-91690476D01*
X153404761Y-91738095D01*
X153452380Y-91833333D01*
X153452380Y-91928571D01*
X153404761Y-92023809D01*
X153357142Y-92071428D01*
X153261904Y-92119047D01*
X153071428Y-92166666D01*
X152833333Y-92166666D01*
X152642857Y-92119047D01*
X152547619Y-92071428D01*
X152500000Y-92023809D01*
X152452380Y-91928571D01*
X152452380Y-90976190D02*
X152452380Y-90880952D01*
X152500000Y-90785714D01*
X152547619Y-90738095D01*
X152642857Y-90690476D01*
X152833333Y-90642857D01*
X153071428Y-90642857D01*
X153261904Y-90690476D01*
X153357142Y-90738095D01*
X153404761Y-90785714D01*
X153452380Y-90880952D01*
X153452380Y-90976190D01*
X153404761Y-91071428D01*
X153357142Y-91119047D01*
X153261904Y-91166666D01*
X153071428Y-91214285D01*
X152833333Y-91214285D01*
X152642857Y-91166666D01*
X152547619Y-91119047D01*
X152500000Y-91071428D01*
X152452380Y-90976190D01*
X152785714Y-90214285D02*
X153452380Y-90214285D01*
X152880952Y-90214285D02*
X152833333Y-90166666D01*
X152785714Y-90071428D01*
X152785714Y-89928571D01*
X152833333Y-89833333D01*
X152928571Y-89785714D01*
X153452380Y-89785714D01*
X152928571Y-88976190D02*
X152928571Y-89309523D01*
X153452380Y-89309523D02*
X152452380Y-89309523D01*
X152452380Y-88833333D01*
X150857142Y-91166666D02*
X150904761Y-91214285D01*
X150952380Y-91357142D01*
X150952380Y-91452380D01*
X150904761Y-91595238D01*
X150809523Y-91690476D01*
X150714285Y-91738095D01*
X150523809Y-91785714D01*
X150380952Y-91785714D01*
X150190476Y-91738095D01*
X150095238Y-91690476D01*
X150000000Y-91595238D01*
X149952380Y-91452380D01*
X149952380Y-91357142D01*
X150000000Y-91214285D01*
X150047619Y-91166666D01*
X149952380Y-90309523D02*
X149952380Y-90500000D01*
X150000000Y-90595238D01*
X150047619Y-90642857D01*
X150190476Y-90738095D01*
X150380952Y-90785714D01*
X150761904Y-90785714D01*
X150857142Y-90738095D01*
X150904761Y-90690476D01*
X150952380Y-90595238D01*
X150952380Y-90404761D01*
X150904761Y-90309523D01*
X150857142Y-90261904D01*
X150761904Y-90214285D01*
X150523809Y-90214285D01*
X150428571Y-90261904D01*
X150380952Y-90309523D01*
X150333333Y-90404761D01*
X150333333Y-90595238D01*
X150380952Y-90690476D01*
X150428571Y-90738095D01*
X150523809Y-90785714D01*
X186297619Y-101714285D02*
X186250000Y-101666666D01*
X186202380Y-101571428D01*
X186202380Y-101333333D01*
X186250000Y-101238095D01*
X186297619Y-101190476D01*
X186392857Y-101142857D01*
X186488095Y-101142857D01*
X186630952Y-101190476D01*
X187202380Y-101761904D01*
X187202380Y-101142857D01*
X186297619Y-100761904D02*
X186250000Y-100714285D01*
X186202380Y-100619047D01*
X186202380Y-100380952D01*
X186250000Y-100285714D01*
X186297619Y-100238095D01*
X186392857Y-100190476D01*
X186488095Y-100190476D01*
X186630952Y-100238095D01*
X187202380Y-100809523D01*
X187202380Y-100190476D01*
X186535714Y-99333333D02*
X187202380Y-99333333D01*
X186535714Y-99761904D02*
X187059523Y-99761904D01*
X187154761Y-99714285D01*
X187202380Y-99619047D01*
X187202380Y-99476190D01*
X187154761Y-99380952D01*
X187107142Y-99333333D01*
X190857142Y-100666666D02*
X190904761Y-100714285D01*
X190952380Y-100857142D01*
X190952380Y-100952380D01*
X190904761Y-101095238D01*
X190809523Y-101190476D01*
X190714285Y-101238095D01*
X190523809Y-101285714D01*
X190380952Y-101285714D01*
X190190476Y-101238095D01*
X190095238Y-101190476D01*
X190000000Y-101095238D01*
X189952380Y-100952380D01*
X189952380Y-100857142D01*
X190000000Y-100714285D01*
X190047619Y-100666666D01*
X189952380Y-99761904D02*
X189952380Y-100238095D01*
X190428571Y-100285714D01*
X190380952Y-100238095D01*
X190333333Y-100142857D01*
X190333333Y-99904761D01*
X190380952Y-99809523D01*
X190428571Y-99761904D01*
X190523809Y-99714285D01*
X190761904Y-99714285D01*
X190857142Y-99761904D01*
X190904761Y-99809523D01*
X190952380Y-99904761D01*
X190952380Y-100142857D01*
X190904761Y-100238095D01*
X190857142Y-100285714D01*
X186297619Y-107714285D02*
X186250000Y-107666666D01*
X186202380Y-107571428D01*
X186202380Y-107333333D01*
X186250000Y-107238095D01*
X186297619Y-107190476D01*
X186392857Y-107142857D01*
X186488095Y-107142857D01*
X186630952Y-107190476D01*
X187202380Y-107761904D01*
X187202380Y-107142857D01*
X186297619Y-106761904D02*
X186250000Y-106714285D01*
X186202380Y-106619047D01*
X186202380Y-106380952D01*
X186250000Y-106285714D01*
X186297619Y-106238095D01*
X186392857Y-106190476D01*
X186488095Y-106190476D01*
X186630952Y-106238095D01*
X187202380Y-106809523D01*
X187202380Y-106190476D01*
X186535714Y-105333333D02*
X187202380Y-105333333D01*
X186535714Y-105761904D02*
X187059523Y-105761904D01*
X187154761Y-105714285D01*
X187202380Y-105619047D01*
X187202380Y-105476190D01*
X187154761Y-105380952D01*
X187107142Y-105333333D01*
X190857142Y-106666666D02*
X190904761Y-106714285D01*
X190952380Y-106857142D01*
X190952380Y-106952380D01*
X190904761Y-107095238D01*
X190809523Y-107190476D01*
X190714285Y-107238095D01*
X190523809Y-107285714D01*
X190380952Y-107285714D01*
X190190476Y-107238095D01*
X190095238Y-107190476D01*
X190000000Y-107095238D01*
X189952380Y-106952380D01*
X189952380Y-106857142D01*
X190000000Y-106714285D01*
X190047619Y-106666666D01*
X190285714Y-105809523D02*
X190952380Y-105809523D01*
X189904761Y-106047619D02*
X190619047Y-106285714D01*
X190619047Y-105666666D01*
X156952380Y-78047619D02*
X156952380Y-78619047D01*
X156952380Y-78333333D02*
X155952380Y-78333333D01*
X156095238Y-78428571D01*
X156190476Y-78523809D01*
X156238095Y-78619047D01*
X155952380Y-77428571D02*
X155952380Y-77333333D01*
X156000000Y-77238095D01*
X156047619Y-77190476D01*
X156142857Y-77142857D01*
X156333333Y-77095238D01*
X156571428Y-77095238D01*
X156761904Y-77142857D01*
X156857142Y-77190476D01*
X156904761Y-77238095D01*
X156952380Y-77333333D01*
X156952380Y-77428571D01*
X156904761Y-77523809D01*
X156857142Y-77571428D01*
X156761904Y-77619047D01*
X156571428Y-77666666D01*
X156333333Y-77666666D01*
X156142857Y-77619047D01*
X156047619Y-77571428D01*
X156000000Y-77523809D01*
X155952380Y-77428571D01*
X155952380Y-76476190D02*
X155952380Y-76380952D01*
X156000000Y-76285714D01*
X156047619Y-76238095D01*
X156142857Y-76190476D01*
X156333333Y-76142857D01*
X156571428Y-76142857D01*
X156761904Y-76190476D01*
X156857142Y-76238095D01*
X156904761Y-76285714D01*
X156952380Y-76380952D01*
X156952380Y-76476190D01*
X156904761Y-76571428D01*
X156857142Y-76619047D01*
X156761904Y-76666666D01*
X156571428Y-76714285D01*
X156333333Y-76714285D01*
X156142857Y-76666666D01*
X156047619Y-76619047D01*
X156000000Y-76571428D01*
X155952380Y-76476190D01*
X156285714Y-75714285D02*
X156952380Y-75714285D01*
X156380952Y-75714285D02*
X156333333Y-75666666D01*
X156285714Y-75571428D01*
X156285714Y-75428571D01*
X156333333Y-75333333D01*
X156428571Y-75285714D01*
X156952380Y-75285714D01*
X156428571Y-74476190D02*
X156428571Y-74809523D01*
X156952380Y-74809523D02*
X155952380Y-74809523D01*
X155952380Y-74333333D01*
X154357142Y-76666666D02*
X154404761Y-76714285D01*
X154452380Y-76857142D01*
X154452380Y-76952380D01*
X154404761Y-77095238D01*
X154309523Y-77190476D01*
X154214285Y-77238095D01*
X154023809Y-77285714D01*
X153880952Y-77285714D01*
X153690476Y-77238095D01*
X153595238Y-77190476D01*
X153500000Y-77095238D01*
X153452380Y-76952380D01*
X153452380Y-76857142D01*
X153500000Y-76714285D01*
X153547619Y-76666666D01*
X153452380Y-76333333D02*
X153452380Y-75714285D01*
X153833333Y-76047619D01*
X153833333Y-75904761D01*
X153880952Y-75809523D01*
X153928571Y-75761904D01*
X154023809Y-75714285D01*
X154261904Y-75714285D01*
X154357142Y-75761904D01*
X154404761Y-75809523D01*
X154452380Y-75904761D01*
X154452380Y-76190476D01*
X154404761Y-76285714D01*
X154357142Y-76333333D01*
X146452380Y-92547619D02*
X146452380Y-93119047D01*
X146452380Y-92833333D02*
X145452380Y-92833333D01*
X145595238Y-92928571D01*
X145690476Y-93023809D01*
X145738095Y-93119047D01*
X145452380Y-91928571D02*
X145452380Y-91833333D01*
X145500000Y-91738095D01*
X145547619Y-91690476D01*
X145642857Y-91642857D01*
X145833333Y-91595238D01*
X146071428Y-91595238D01*
X146261904Y-91642857D01*
X146357142Y-91690476D01*
X146404761Y-91738095D01*
X146452380Y-91833333D01*
X146452380Y-91928571D01*
X146404761Y-92023809D01*
X146357142Y-92071428D01*
X146261904Y-92119047D01*
X146071428Y-92166666D01*
X145833333Y-92166666D01*
X145642857Y-92119047D01*
X145547619Y-92071428D01*
X145500000Y-92023809D01*
X145452380Y-91928571D01*
X145452380Y-90976190D02*
X145452380Y-90880952D01*
X145500000Y-90785714D01*
X145547619Y-90738095D01*
X145642857Y-90690476D01*
X145833333Y-90642857D01*
X146071428Y-90642857D01*
X146261904Y-90690476D01*
X146357142Y-90738095D01*
X146404761Y-90785714D01*
X146452380Y-90880952D01*
X146452380Y-90976190D01*
X146404761Y-91071428D01*
X146357142Y-91119047D01*
X146261904Y-91166666D01*
X146071428Y-91214285D01*
X145833333Y-91214285D01*
X145642857Y-91166666D01*
X145547619Y-91119047D01*
X145500000Y-91071428D01*
X145452380Y-90976190D01*
X145785714Y-90214285D02*
X146452380Y-90214285D01*
X145880952Y-90214285D02*
X145833333Y-90166666D01*
X145785714Y-90071428D01*
X145785714Y-89928571D01*
X145833333Y-89833333D01*
X145928571Y-89785714D01*
X146452380Y-89785714D01*
X145928571Y-88976190D02*
X145928571Y-89309523D01*
X146452380Y-89309523D02*
X145452380Y-89309523D01*
X145452380Y-88833333D01*
X143857142Y-91166666D02*
X143904761Y-91214285D01*
X143952380Y-91357142D01*
X143952380Y-91452380D01*
X143904761Y-91595238D01*
X143809523Y-91690476D01*
X143714285Y-91738095D01*
X143523809Y-91785714D01*
X143380952Y-91785714D01*
X143190476Y-91738095D01*
X143095238Y-91690476D01*
X143000000Y-91595238D01*
X142952380Y-91452380D01*
X142952380Y-91357142D01*
X143000000Y-91214285D01*
X143047619Y-91166666D01*
X143047619Y-90785714D02*
X143000000Y-90738095D01*
X142952380Y-90642857D01*
X142952380Y-90404761D01*
X143000000Y-90309523D01*
X143047619Y-90261904D01*
X143142857Y-90214285D01*
X143238095Y-90214285D01*
X143380952Y-90261904D01*
X143952380Y-90833333D01*
X143952380Y-90214285D01*
X133797619Y-97714285D02*
X133750000Y-97666666D01*
X133702380Y-97571428D01*
X133702380Y-97333333D01*
X133750000Y-97238095D01*
X133797619Y-97190476D01*
X133892857Y-97142857D01*
X133988095Y-97142857D01*
X134130952Y-97190476D01*
X134702380Y-97761904D01*
X134702380Y-97142857D01*
X133797619Y-96761904D02*
X133750000Y-96714285D01*
X133702380Y-96619047D01*
X133702380Y-96380952D01*
X133750000Y-96285714D01*
X133797619Y-96238095D01*
X133892857Y-96190476D01*
X133988095Y-96190476D01*
X134130952Y-96238095D01*
X134702380Y-96809523D01*
X134702380Y-96190476D01*
X134035714Y-95333333D02*
X134702380Y-95333333D01*
X134035714Y-95761904D02*
X134559523Y-95761904D01*
X134654761Y-95714285D01*
X134702380Y-95619047D01*
X134702380Y-95476190D01*
X134654761Y-95380952D01*
X134607142Y-95333333D01*
X138357142Y-96666666D02*
X138404761Y-96714285D01*
X138452380Y-96857142D01*
X138452380Y-96952380D01*
X138404761Y-97095238D01*
X138309523Y-97190476D01*
X138214285Y-97238095D01*
X138023809Y-97285714D01*
X137880952Y-97285714D01*
X137690476Y-97238095D01*
X137595238Y-97190476D01*
X137500000Y-97095238D01*
X137452380Y-96952380D01*
X137452380Y-96857142D01*
X137500000Y-96714285D01*
X137547619Y-96666666D01*
X138452380Y-95714285D02*
X138452380Y-96285714D01*
X138452380Y-96000000D02*
X137452380Y-96000000D01*
X137595238Y-96095238D01*
X137690476Y-96190476D01*
X137738095Y-96285714D01*
M02*
