G04 #@! TF.GenerationSoftware,KiCad,Pcbnew,(5.1.4)-1*
G04 #@! TF.CreationDate,2020-09-21T10:08:00+03:00*
G04 #@! TF.ProjectId,peltier,70656c74-6965-4722-9e6b-696361645f70,rev?*
G04 #@! TF.SameCoordinates,Original*
G04 #@! TF.FileFunction,Other,User*
%FSLAX46Y46*%
G04 Gerber Fmt 4.6, Leading zero omitted, Abs format (unit mm)*
G04 Created by KiCad (PCBNEW (5.1.4)-1) date 2020-09-21 10:08:00*
%MOMM*%
%LPD*%
G04 APERTURE LIST*
%ADD10C,0.050000*%
G04 APERTURE END LIST*
D10*
X142420000Y-114750000D02*
X151500000Y-114750000D01*
X142420000Y-107250000D02*
X142420000Y-114750000D01*
X151500000Y-107250000D02*
X142420000Y-107250000D01*
X151500000Y-114750000D02*
X151500000Y-107250000D01*
X130550000Y-113000000D02*
G75*
G03X130550000Y-113000000I-3050000J0D01*
G01*
X130550000Y-74500000D02*
G75*
G03X130550000Y-74500000I-3050000J0D01*
G01*
X194550000Y-74500000D02*
G75*
G03X194550000Y-74500000I-3050000J0D01*
G01*
X194550000Y-113000000D02*
G75*
G03X194550000Y-113000000I-3050000J0D01*
G01*
X162200000Y-81450000D02*
X152400000Y-81450000D01*
X162200000Y-92150000D02*
X162200000Y-81450000D01*
X152400000Y-92150000D02*
X162200000Y-92150000D01*
X152400000Y-81450000D02*
X152400000Y-92150000D01*
X151700000Y-95450000D02*
X141900000Y-95450000D01*
X151700000Y-106150000D02*
X151700000Y-95450000D01*
X141900000Y-106150000D02*
X151700000Y-106150000D01*
X141900000Y-95450000D02*
X141900000Y-106150000D01*
X151750000Y-72750000D02*
X147250000Y-72750000D01*
X147250000Y-72750000D02*
X147250000Y-86250000D01*
X147250000Y-86250000D02*
X151750000Y-86250000D01*
X151750000Y-86250000D02*
X151750000Y-72750000D01*
X146750000Y-86250000D02*
X146750000Y-72750000D01*
X142250000Y-86250000D02*
X146750000Y-86250000D01*
X142250000Y-72750000D02*
X142250000Y-86250000D01*
X146750000Y-72750000D02*
X142250000Y-72750000D01*
X173750000Y-86250000D02*
X173750000Y-72750000D01*
X169250000Y-86250000D02*
X173750000Y-86250000D01*
X169250000Y-72750000D02*
X169250000Y-86250000D01*
X173750000Y-72750000D02*
X169250000Y-72750000D01*
X174750000Y-108750000D02*
X174750000Y-95250000D01*
X170250000Y-108750000D02*
X174750000Y-108750000D01*
X170250000Y-95250000D02*
X170250000Y-108750000D01*
X174750000Y-95250000D02*
X170250000Y-95250000D01*
X167750000Y-86250000D02*
X167750000Y-72750000D01*
X163250000Y-86250000D02*
X167750000Y-86250000D01*
X163250000Y-72750000D02*
X163250000Y-86250000D01*
X167750000Y-72750000D02*
X163250000Y-72750000D01*
X135750000Y-101250000D02*
X135750000Y-114750000D01*
X140250000Y-101250000D02*
X135750000Y-101250000D01*
X140250000Y-114750000D02*
X140250000Y-101250000D01*
X135750000Y-114750000D02*
X140250000Y-114750000D01*
X168750000Y-108750000D02*
X168750000Y-95250000D01*
X164250000Y-108750000D02*
X168750000Y-108750000D01*
X164250000Y-95250000D02*
X164250000Y-108750000D01*
X168750000Y-95250000D02*
X164250000Y-95250000D01*
X179250000Y-86250000D02*
X179250000Y-72750000D01*
X174750000Y-86250000D02*
X179250000Y-86250000D01*
X174750000Y-72750000D02*
X174750000Y-86250000D01*
X179250000Y-72750000D02*
X174750000Y-72750000D01*
X163250000Y-108750000D02*
X163250000Y-95250000D01*
X158750000Y-108750000D02*
X163250000Y-108750000D01*
X158750000Y-95250000D02*
X158750000Y-108750000D01*
X163250000Y-95250000D02*
X158750000Y-95250000D01*
X180250000Y-72750000D02*
X180250000Y-86250000D01*
X184750000Y-72750000D02*
X180250000Y-72750000D01*
X184750000Y-86250000D02*
X184750000Y-72750000D01*
X180250000Y-86250000D02*
X184750000Y-86250000D01*
X157250000Y-108750000D02*
X157250000Y-95250000D01*
X152750000Y-108750000D02*
X157250000Y-108750000D01*
X152750000Y-95250000D02*
X152750000Y-108750000D01*
X157250000Y-95250000D02*
X152750000Y-95250000D01*
X173790000Y-87100000D02*
X163290000Y-87100000D01*
X173790000Y-92010000D02*
X173790000Y-87100000D01*
X163290000Y-92010000D02*
X173790000Y-92010000D01*
X163290000Y-87100000D02*
X163290000Y-92010000D01*
X164210000Y-114900000D02*
X174710000Y-114900000D01*
X164210000Y-109990000D02*
X164210000Y-114900000D01*
X174710000Y-109990000D02*
X164210000Y-109990000D01*
X174710000Y-114900000D02*
X174710000Y-109990000D01*
X185290000Y-87100000D02*
X174790000Y-87100000D01*
X185290000Y-92010000D02*
X185290000Y-87100000D01*
X174790000Y-92010000D02*
X185290000Y-92010000D01*
X174790000Y-87100000D02*
X174790000Y-92010000D01*
X152710000Y-114900000D02*
X163210000Y-114900000D01*
X152710000Y-109990000D02*
X152710000Y-114900000D01*
X163210000Y-109990000D02*
X152710000Y-109990000D01*
X163210000Y-114900000D02*
X163210000Y-109990000D01*
X186250000Y-98500000D02*
G75*
G03X186250000Y-98500000I-5250000J0D01*
G01*
X186250000Y-109500000D02*
G75*
G03X186250000Y-109500000I-5250000J0D01*
G01*
X193350000Y-95950000D02*
X193350000Y-87550000D01*
X186600000Y-95950000D02*
X193350000Y-95950000D01*
X186600000Y-87550000D02*
X186600000Y-95950000D01*
X193350000Y-87550000D02*
X186600000Y-87550000D01*
X125650000Y-94550000D02*
X125650000Y-107950000D01*
X132400000Y-94550000D02*
X125650000Y-94550000D01*
X132400000Y-107950000D02*
X132400000Y-94550000D01*
X125650000Y-107950000D02*
X132400000Y-107950000D01*
X125650000Y-78550000D02*
X125650000Y-91950000D01*
X132400000Y-78550000D02*
X125650000Y-78550000D01*
X132400000Y-91950000D02*
X132400000Y-78550000D01*
X125650000Y-91950000D02*
X132400000Y-91950000D01*
X141450000Y-72650000D02*
X133050000Y-72650000D01*
X141450000Y-79400000D02*
X141450000Y-72650000D01*
X133050000Y-79400000D02*
X141450000Y-79400000D01*
X133050000Y-72650000D02*
X133050000Y-79400000D01*
X135750000Y-86800000D02*
X135750000Y-91650000D01*
X140250000Y-86800000D02*
X135750000Y-86800000D01*
X140250000Y-91650000D02*
X140250000Y-86800000D01*
X135750000Y-91650000D02*
X140250000Y-91650000D01*
X135750000Y-79800000D02*
X135750000Y-84650000D01*
X140250000Y-79800000D02*
X135750000Y-79800000D01*
X140250000Y-84650000D02*
X140250000Y-79800000D01*
X135750000Y-84650000D02*
X140250000Y-84650000D01*
X159500000Y-72750000D02*
X159500000Y-80250000D01*
X162500000Y-72750000D02*
X159500000Y-72750000D01*
X162500000Y-80250000D02*
X162500000Y-72750000D01*
X159500000Y-80250000D02*
X162500000Y-80250000D01*
X149000000Y-87250000D02*
X149000000Y-94750000D01*
X152000000Y-87250000D02*
X149000000Y-87250000D01*
X152000000Y-94750000D02*
X152000000Y-87250000D01*
X149000000Y-94750000D02*
X152000000Y-94750000D01*
X193250000Y-100500000D02*
G75*
G03X193250000Y-100500000I-2750000J0D01*
G01*
X193250000Y-106500000D02*
G75*
G03X193250000Y-106500000I-2750000J0D01*
G01*
X152500000Y-72750000D02*
X152500000Y-80250000D01*
X155500000Y-72750000D02*
X152500000Y-72750000D01*
X155500000Y-80250000D02*
X155500000Y-72750000D01*
X152500000Y-80250000D02*
X155500000Y-80250000D01*
X142000000Y-87250000D02*
X142000000Y-94750000D01*
X145000000Y-87250000D02*
X142000000Y-87250000D01*
X145000000Y-94750000D02*
X145000000Y-87250000D01*
X142000000Y-94750000D02*
X145000000Y-94750000D01*
X140750000Y-96500000D02*
G75*
G03X140750000Y-96500000I-2750000J0D01*
G01*
M02*
