G04 #@! TF.GenerationSoftware,KiCad,Pcbnew,(5.1.7)-1*
G04 #@! TF.CreationDate,2020-10-18T18:55:38+03:00*
G04 #@! TF.ProjectId,peltier,70656c74-6965-4722-9e6b-696361645f70,rev?*
G04 #@! TF.SameCoordinates,Original*
G04 #@! TF.FileFunction,Soldermask,Bot*
G04 #@! TF.FilePolarity,Negative*
%FSLAX46Y46*%
G04 Gerber Fmt 4.6, Leading zero omitted, Abs format (unit mm)*
G04 Created by KiCad (PCBNEW (5.1.7)-1) date 2020-10-18 18:55:38*
%MOMM*%
%LPD*%
G01*
G04 APERTURE LIST*
%ADD10C,2.100000*%
%ADD11R,2.100000X2.100000*%
%ADD12C,3.200000*%
%ADD13O,1.600000X1.600000*%
%ADD14R,1.600000X1.600000*%
%ADD15C,2.000000*%
%ADD16O,1.905000X2.000000*%
%ADD17R,1.905000X2.000000*%
%ADD18C,2.400000*%
%ADD19O,2.000000X1.700000*%
%ADD20O,1.950000X1.700000*%
%ADD21O,1.700000X2.000000*%
%ADD22C,1.800000*%
%ADD23R,1.800000X1.800000*%
%ADD24C,1.600000*%
G04 APERTURE END LIST*
D10*
X144420000Y-111000000D03*
X146960000Y-111000000D03*
D11*
X149500000Y-111000000D03*
D12*
X127500000Y-113000000D03*
X127500000Y-74500000D03*
X191500000Y-74500000D03*
X191500000Y-113000000D03*
D13*
X161120000Y-83000000D03*
X153500000Y-90620000D03*
X161120000Y-85540000D03*
X153500000Y-88080000D03*
X161120000Y-88080000D03*
X153500000Y-85540000D03*
X161120000Y-90620000D03*
D14*
X153500000Y-83000000D03*
D13*
X150620000Y-97000000D03*
X143000000Y-104620000D03*
X150620000Y-99540000D03*
X143000000Y-102080000D03*
X150620000Y-102080000D03*
X143000000Y-99540000D03*
X150620000Y-104620000D03*
D14*
X143000000Y-97000000D03*
D15*
X149500000Y-75000000D03*
X149500000Y-84000000D03*
X144500000Y-84000000D03*
X144500000Y-75000000D03*
X171500000Y-84000000D03*
X171500000Y-75000000D03*
X172500000Y-106500000D03*
X172500000Y-97500000D03*
X165500000Y-84000000D03*
X165500000Y-75000000D03*
X138000000Y-103500000D03*
X138000000Y-112500000D03*
X166500000Y-106500000D03*
X166500000Y-97500000D03*
X177000000Y-84000000D03*
X177000000Y-75000000D03*
X161000000Y-106500000D03*
X161000000Y-97500000D03*
X182500000Y-75000000D03*
X182500000Y-84000000D03*
X155000000Y-106500000D03*
X155000000Y-97500000D03*
D16*
X171080000Y-90500000D03*
X168540000Y-90500000D03*
D17*
X166000000Y-90500000D03*
D16*
X166920000Y-111500000D03*
X169460000Y-111500000D03*
D17*
X172000000Y-111500000D03*
D16*
X182580000Y-90500000D03*
X180040000Y-90500000D03*
D17*
X177500000Y-90500000D03*
D16*
X155420000Y-111500000D03*
X157960000Y-111500000D03*
D17*
X160500000Y-111500000D03*
D18*
X183500000Y-98500000D03*
X178500000Y-98500000D03*
X183500000Y-109500000D03*
X178500000Y-109500000D03*
D19*
X190500000Y-93000000D03*
G36*
G01*
X189750000Y-89650000D02*
X191250000Y-89650000D01*
G75*
G02*
X191500000Y-89900000I0J-250000D01*
G01*
X191500000Y-91100000D01*
G75*
G02*
X191250000Y-91350000I-250000J0D01*
G01*
X189750000Y-91350000D01*
G75*
G02*
X189500000Y-91100000I0J250000D01*
G01*
X189500000Y-89900000D01*
G75*
G02*
X189750000Y-89650000I250000J0D01*
G01*
G37*
D20*
X128500000Y-97500000D03*
X128500000Y-100000000D03*
X128500000Y-102500000D03*
G36*
G01*
X129225000Y-105850000D02*
X127775000Y-105850000D01*
G75*
G02*
X127525000Y-105600000I0J250000D01*
G01*
X127525000Y-104400000D01*
G75*
G02*
X127775000Y-104150000I250000J0D01*
G01*
X129225000Y-104150000D01*
G75*
G02*
X129475000Y-104400000I0J-250000D01*
G01*
X129475000Y-105600000D01*
G75*
G02*
X129225000Y-105850000I-250000J0D01*
G01*
G37*
X128500000Y-81500000D03*
X128500000Y-84000000D03*
X128500000Y-86500000D03*
G36*
G01*
X129225000Y-89850000D02*
X127775000Y-89850000D01*
G75*
G02*
X127525000Y-89600000I0J250000D01*
G01*
X127525000Y-88400000D01*
G75*
G02*
X127775000Y-88150000I250000J0D01*
G01*
X129225000Y-88150000D01*
G75*
G02*
X129475000Y-88400000I0J-250000D01*
G01*
X129475000Y-89600000D01*
G75*
G02*
X129225000Y-89850000I-250000J0D01*
G01*
G37*
D21*
X138500000Y-75500000D03*
G36*
G01*
X135150000Y-76250000D02*
X135150000Y-74750000D01*
G75*
G02*
X135400000Y-74500000I250000J0D01*
G01*
X136600000Y-74500000D01*
G75*
G02*
X136850000Y-74750000I0J-250000D01*
G01*
X136850000Y-76250000D01*
G75*
G02*
X136600000Y-76500000I-250000J0D01*
G01*
X135400000Y-76500000D01*
G75*
G02*
X135150000Y-76250000I0J250000D01*
G01*
G37*
D22*
X138000000Y-87960000D03*
D23*
X138000000Y-90500000D03*
D22*
X138000000Y-80960000D03*
D23*
X138000000Y-83500000D03*
D24*
X161000000Y-74000000D03*
X161000000Y-79000000D03*
X150500000Y-88500000D03*
X150500000Y-93500000D03*
X190500000Y-101500000D03*
D14*
X190500000Y-99500000D03*
D24*
X190500000Y-107500000D03*
D14*
X190500000Y-105500000D03*
D24*
X154000000Y-74000000D03*
X154000000Y-79000000D03*
X143500000Y-88500000D03*
X143500000Y-93500000D03*
D14*
X138000000Y-95500000D03*
D24*
X138000000Y-97500000D03*
M02*
