G04 #@! TF.GenerationSoftware,KiCad,Pcbnew,(5.1.4)-1*
G04 #@! TF.CreationDate,2020-09-21T10:08:00+03:00*
G04 #@! TF.ProjectId,peltier,70656c74-6965-4722-9e6b-696361645f70,rev?*
G04 #@! TF.SameCoordinates,Original*
G04 #@! TF.FileFunction,Copper,L1,Top*
G04 #@! TF.FilePolarity,Positive*
%FSLAX46Y46*%
G04 Gerber Fmt 4.6, Leading zero omitted, Abs format (unit mm)*
G04 Created by KiCad (PCBNEW (5.1.4)-1) date 2020-09-21 10:08:00*
%MOMM*%
%LPD*%
G04 APERTURE LIST*
%ADD10C,2.100000*%
%ADD11R,2.100000X2.100000*%
%ADD12O,1.600000X1.600000*%
%ADD13R,1.600000X1.600000*%
%ADD14C,2.000000*%
%ADD15O,1.905000X2.000000*%
%ADD16R,1.905000X2.000000*%
%ADD17C,2.400000*%
%ADD18O,2.000000X1.700000*%
%ADD19C,0.100000*%
%ADD20C,1.700000*%
%ADD21O,1.950000X1.700000*%
%ADD22O,1.700000X2.000000*%
%ADD23C,1.800000*%
%ADD24R,1.800000X1.800000*%
%ADD25C,1.600000*%
%ADD26C,1.000000*%
%ADD27C,0.500000*%
%ADD28C,0.750000*%
G04 APERTURE END LIST*
D10*
X144420000Y-111000000D03*
X146960000Y-111000000D03*
D11*
X149500000Y-111000000D03*
D12*
X161120000Y-83000000D03*
X153500000Y-90620000D03*
X161120000Y-85540000D03*
X153500000Y-88080000D03*
X161120000Y-88080000D03*
X153500000Y-85540000D03*
X161120000Y-90620000D03*
D13*
X153500000Y-83000000D03*
D12*
X150620000Y-97000000D03*
X143000000Y-104620000D03*
X150620000Y-99540000D03*
X143000000Y-102080000D03*
X150620000Y-102080000D03*
X143000000Y-99540000D03*
X150620000Y-104620000D03*
D13*
X143000000Y-97000000D03*
D14*
X149500000Y-75000000D03*
X149500000Y-84000000D03*
X144500000Y-84000000D03*
X144500000Y-75000000D03*
X171500000Y-84000000D03*
X171500000Y-75000000D03*
X172500000Y-106500000D03*
X172500000Y-97500000D03*
X165500000Y-84000000D03*
X165500000Y-75000000D03*
X138000000Y-103500000D03*
X138000000Y-112500000D03*
X166500000Y-106500000D03*
X166500000Y-97500000D03*
X177000000Y-84000000D03*
X177000000Y-75000000D03*
X161000000Y-106500000D03*
X161000000Y-97500000D03*
X182500000Y-75000000D03*
X182500000Y-84000000D03*
X155000000Y-106500000D03*
X155000000Y-97500000D03*
D15*
X171080000Y-90500000D03*
X168540000Y-90500000D03*
D16*
X166000000Y-90500000D03*
D15*
X166920000Y-111500000D03*
X169460000Y-111500000D03*
D16*
X172000000Y-111500000D03*
D15*
X182580000Y-90500000D03*
X180040000Y-90500000D03*
D16*
X177500000Y-90500000D03*
D15*
X155420000Y-111500000D03*
X157960000Y-111500000D03*
D16*
X160500000Y-111500000D03*
D17*
X183500000Y-98500000D03*
X178500000Y-98500000D03*
X183500000Y-109500000D03*
X178500000Y-109500000D03*
D18*
X190500000Y-93000000D03*
D19*
G36*
X191274504Y-89651204D02*
G01*
X191298773Y-89654804D01*
X191322571Y-89660765D01*
X191345671Y-89669030D01*
X191367849Y-89679520D01*
X191388893Y-89692133D01*
X191408598Y-89706747D01*
X191426777Y-89723223D01*
X191443253Y-89741402D01*
X191457867Y-89761107D01*
X191470480Y-89782151D01*
X191480970Y-89804329D01*
X191489235Y-89827429D01*
X191495196Y-89851227D01*
X191498796Y-89875496D01*
X191500000Y-89900000D01*
X191500000Y-91100000D01*
X191498796Y-91124504D01*
X191495196Y-91148773D01*
X191489235Y-91172571D01*
X191480970Y-91195671D01*
X191470480Y-91217849D01*
X191457867Y-91238893D01*
X191443253Y-91258598D01*
X191426777Y-91276777D01*
X191408598Y-91293253D01*
X191388893Y-91307867D01*
X191367849Y-91320480D01*
X191345671Y-91330970D01*
X191322571Y-91339235D01*
X191298773Y-91345196D01*
X191274504Y-91348796D01*
X191250000Y-91350000D01*
X189750000Y-91350000D01*
X189725496Y-91348796D01*
X189701227Y-91345196D01*
X189677429Y-91339235D01*
X189654329Y-91330970D01*
X189632151Y-91320480D01*
X189611107Y-91307867D01*
X189591402Y-91293253D01*
X189573223Y-91276777D01*
X189556747Y-91258598D01*
X189542133Y-91238893D01*
X189529520Y-91217849D01*
X189519030Y-91195671D01*
X189510765Y-91172571D01*
X189504804Y-91148773D01*
X189501204Y-91124504D01*
X189500000Y-91100000D01*
X189500000Y-89900000D01*
X189501204Y-89875496D01*
X189504804Y-89851227D01*
X189510765Y-89827429D01*
X189519030Y-89804329D01*
X189529520Y-89782151D01*
X189542133Y-89761107D01*
X189556747Y-89741402D01*
X189573223Y-89723223D01*
X189591402Y-89706747D01*
X189611107Y-89692133D01*
X189632151Y-89679520D01*
X189654329Y-89669030D01*
X189677429Y-89660765D01*
X189701227Y-89654804D01*
X189725496Y-89651204D01*
X189750000Y-89650000D01*
X191250000Y-89650000D01*
X191274504Y-89651204D01*
X191274504Y-89651204D01*
G37*
D20*
X190500000Y-90500000D03*
D21*
X128500000Y-97500000D03*
X128500000Y-100000000D03*
X128500000Y-102500000D03*
D19*
G36*
X129249504Y-104151204D02*
G01*
X129273773Y-104154804D01*
X129297571Y-104160765D01*
X129320671Y-104169030D01*
X129342849Y-104179520D01*
X129363893Y-104192133D01*
X129383598Y-104206747D01*
X129401777Y-104223223D01*
X129418253Y-104241402D01*
X129432867Y-104261107D01*
X129445480Y-104282151D01*
X129455970Y-104304329D01*
X129464235Y-104327429D01*
X129470196Y-104351227D01*
X129473796Y-104375496D01*
X129475000Y-104400000D01*
X129475000Y-105600000D01*
X129473796Y-105624504D01*
X129470196Y-105648773D01*
X129464235Y-105672571D01*
X129455970Y-105695671D01*
X129445480Y-105717849D01*
X129432867Y-105738893D01*
X129418253Y-105758598D01*
X129401777Y-105776777D01*
X129383598Y-105793253D01*
X129363893Y-105807867D01*
X129342849Y-105820480D01*
X129320671Y-105830970D01*
X129297571Y-105839235D01*
X129273773Y-105845196D01*
X129249504Y-105848796D01*
X129225000Y-105850000D01*
X127775000Y-105850000D01*
X127750496Y-105848796D01*
X127726227Y-105845196D01*
X127702429Y-105839235D01*
X127679329Y-105830970D01*
X127657151Y-105820480D01*
X127636107Y-105807867D01*
X127616402Y-105793253D01*
X127598223Y-105776777D01*
X127581747Y-105758598D01*
X127567133Y-105738893D01*
X127554520Y-105717849D01*
X127544030Y-105695671D01*
X127535765Y-105672571D01*
X127529804Y-105648773D01*
X127526204Y-105624504D01*
X127525000Y-105600000D01*
X127525000Y-104400000D01*
X127526204Y-104375496D01*
X127529804Y-104351227D01*
X127535765Y-104327429D01*
X127544030Y-104304329D01*
X127554520Y-104282151D01*
X127567133Y-104261107D01*
X127581747Y-104241402D01*
X127598223Y-104223223D01*
X127616402Y-104206747D01*
X127636107Y-104192133D01*
X127657151Y-104179520D01*
X127679329Y-104169030D01*
X127702429Y-104160765D01*
X127726227Y-104154804D01*
X127750496Y-104151204D01*
X127775000Y-104150000D01*
X129225000Y-104150000D01*
X129249504Y-104151204D01*
X129249504Y-104151204D01*
G37*
D20*
X128500000Y-105000000D03*
D21*
X128500000Y-81500000D03*
X128500000Y-84000000D03*
X128500000Y-86500000D03*
D19*
G36*
X129249504Y-88151204D02*
G01*
X129273773Y-88154804D01*
X129297571Y-88160765D01*
X129320671Y-88169030D01*
X129342849Y-88179520D01*
X129363893Y-88192133D01*
X129383598Y-88206747D01*
X129401777Y-88223223D01*
X129418253Y-88241402D01*
X129432867Y-88261107D01*
X129445480Y-88282151D01*
X129455970Y-88304329D01*
X129464235Y-88327429D01*
X129470196Y-88351227D01*
X129473796Y-88375496D01*
X129475000Y-88400000D01*
X129475000Y-89600000D01*
X129473796Y-89624504D01*
X129470196Y-89648773D01*
X129464235Y-89672571D01*
X129455970Y-89695671D01*
X129445480Y-89717849D01*
X129432867Y-89738893D01*
X129418253Y-89758598D01*
X129401777Y-89776777D01*
X129383598Y-89793253D01*
X129363893Y-89807867D01*
X129342849Y-89820480D01*
X129320671Y-89830970D01*
X129297571Y-89839235D01*
X129273773Y-89845196D01*
X129249504Y-89848796D01*
X129225000Y-89850000D01*
X127775000Y-89850000D01*
X127750496Y-89848796D01*
X127726227Y-89845196D01*
X127702429Y-89839235D01*
X127679329Y-89830970D01*
X127657151Y-89820480D01*
X127636107Y-89807867D01*
X127616402Y-89793253D01*
X127598223Y-89776777D01*
X127581747Y-89758598D01*
X127567133Y-89738893D01*
X127554520Y-89717849D01*
X127544030Y-89695671D01*
X127535765Y-89672571D01*
X127529804Y-89648773D01*
X127526204Y-89624504D01*
X127525000Y-89600000D01*
X127525000Y-88400000D01*
X127526204Y-88375496D01*
X127529804Y-88351227D01*
X127535765Y-88327429D01*
X127544030Y-88304329D01*
X127554520Y-88282151D01*
X127567133Y-88261107D01*
X127581747Y-88241402D01*
X127598223Y-88223223D01*
X127616402Y-88206747D01*
X127636107Y-88192133D01*
X127657151Y-88179520D01*
X127679329Y-88169030D01*
X127702429Y-88160765D01*
X127726227Y-88154804D01*
X127750496Y-88151204D01*
X127775000Y-88150000D01*
X129225000Y-88150000D01*
X129249504Y-88151204D01*
X129249504Y-88151204D01*
G37*
D20*
X128500000Y-89000000D03*
D22*
X138500000Y-75500000D03*
D19*
G36*
X136624504Y-74501204D02*
G01*
X136648773Y-74504804D01*
X136672571Y-74510765D01*
X136695671Y-74519030D01*
X136717849Y-74529520D01*
X136738893Y-74542133D01*
X136758598Y-74556747D01*
X136776777Y-74573223D01*
X136793253Y-74591402D01*
X136807867Y-74611107D01*
X136820480Y-74632151D01*
X136830970Y-74654329D01*
X136839235Y-74677429D01*
X136845196Y-74701227D01*
X136848796Y-74725496D01*
X136850000Y-74750000D01*
X136850000Y-76250000D01*
X136848796Y-76274504D01*
X136845196Y-76298773D01*
X136839235Y-76322571D01*
X136830970Y-76345671D01*
X136820480Y-76367849D01*
X136807867Y-76388893D01*
X136793253Y-76408598D01*
X136776777Y-76426777D01*
X136758598Y-76443253D01*
X136738893Y-76457867D01*
X136717849Y-76470480D01*
X136695671Y-76480970D01*
X136672571Y-76489235D01*
X136648773Y-76495196D01*
X136624504Y-76498796D01*
X136600000Y-76500000D01*
X135400000Y-76500000D01*
X135375496Y-76498796D01*
X135351227Y-76495196D01*
X135327429Y-76489235D01*
X135304329Y-76480970D01*
X135282151Y-76470480D01*
X135261107Y-76457867D01*
X135241402Y-76443253D01*
X135223223Y-76426777D01*
X135206747Y-76408598D01*
X135192133Y-76388893D01*
X135179520Y-76367849D01*
X135169030Y-76345671D01*
X135160765Y-76322571D01*
X135154804Y-76298773D01*
X135151204Y-76274504D01*
X135150000Y-76250000D01*
X135150000Y-74750000D01*
X135151204Y-74725496D01*
X135154804Y-74701227D01*
X135160765Y-74677429D01*
X135169030Y-74654329D01*
X135179520Y-74632151D01*
X135192133Y-74611107D01*
X135206747Y-74591402D01*
X135223223Y-74573223D01*
X135241402Y-74556747D01*
X135261107Y-74542133D01*
X135282151Y-74529520D01*
X135304329Y-74519030D01*
X135327429Y-74510765D01*
X135351227Y-74504804D01*
X135375496Y-74501204D01*
X135400000Y-74500000D01*
X136600000Y-74500000D01*
X136624504Y-74501204D01*
X136624504Y-74501204D01*
G37*
D20*
X136000000Y-75500000D03*
D23*
X138000000Y-87960000D03*
D24*
X138000000Y-90500000D03*
D23*
X138000000Y-80960000D03*
D24*
X138000000Y-83500000D03*
D25*
X161000000Y-74000000D03*
X161000000Y-79000000D03*
X150500000Y-88500000D03*
X150500000Y-93500000D03*
X190500000Y-101500000D03*
D13*
X190500000Y-99500000D03*
D25*
X190500000Y-107500000D03*
D13*
X190500000Y-105500000D03*
D25*
X154000000Y-74000000D03*
X154000000Y-79000000D03*
X143500000Y-88500000D03*
X143500000Y-93500000D03*
D13*
X138000000Y-95500000D03*
D25*
X138000000Y-97500000D03*
D26*
X154000000Y-79000000D02*
X161000000Y-79000000D01*
X161000000Y-82880000D02*
X161120000Y-83000000D01*
X161000000Y-79000000D02*
X161000000Y-82880000D01*
X161799999Y-78200001D02*
X161799999Y-76200001D01*
X161000000Y-79000000D02*
X161799999Y-78200001D01*
X161799999Y-76200001D02*
X163000000Y-75000000D01*
X163000000Y-75000000D02*
X163000000Y-74000000D01*
X163000000Y-74000000D02*
X164000000Y-73000000D01*
X180500000Y-73000000D02*
X182500000Y-75000000D01*
X164000000Y-73000000D02*
X180500000Y-73000000D01*
X182500000Y-75000000D02*
X182500000Y-80000000D01*
X182500000Y-80000000D02*
X185000000Y-82500000D01*
X182580000Y-89250000D02*
X182580000Y-90500000D01*
X185000000Y-86830000D02*
X182580000Y-89250000D01*
X185000000Y-82500000D02*
X185000000Y-86830000D01*
X143500000Y-96500000D02*
X143000000Y-97000000D01*
X143500000Y-93500000D02*
X143500000Y-96500000D01*
X143500000Y-93500000D02*
X150500000Y-93500000D01*
X150500000Y-96880000D02*
X150620000Y-97000000D01*
X150500000Y-93500000D02*
X150500000Y-96880000D01*
X155000000Y-111080000D02*
X155420000Y-111500000D01*
X155000000Y-106500000D02*
X155000000Y-111080000D01*
X147000000Y-77500000D02*
X149500000Y-75000000D01*
X142500000Y-77500000D02*
X147000000Y-77500000D01*
X138500000Y-75500000D02*
X140500000Y-75500000D01*
X140500000Y-75500000D02*
X142500000Y-77500000D01*
X142475000Y-93500000D02*
X143500000Y-93500000D01*
X138500000Y-76500000D02*
X135500000Y-79500000D01*
X138500000Y-75500000D02*
X138500000Y-76500000D01*
X135500000Y-79500000D02*
X135500000Y-94500000D01*
X135500000Y-94500000D02*
X136500000Y-95500000D01*
X136500000Y-95500000D02*
X140475000Y-95500000D01*
X140475000Y-95500000D02*
X142475000Y-93500000D01*
X149500000Y-106500000D02*
X155000000Y-106500000D01*
X148500000Y-105500000D02*
X149500000Y-106500000D01*
X148500000Y-99000000D02*
X148500000Y-105500000D01*
X150620000Y-97000000D02*
X150500000Y-97000000D01*
X150500000Y-97000000D02*
X148500000Y-99000000D01*
X154000000Y-83000000D02*
X153500000Y-83000000D01*
X156500000Y-85500000D02*
X154000000Y-83000000D01*
X156500000Y-92000000D02*
X156500000Y-85500000D01*
X150500000Y-93500000D02*
X155000000Y-93500000D01*
X155000000Y-93500000D02*
X156500000Y-92000000D01*
X153500000Y-79500000D02*
X153500000Y-83000000D01*
X154000000Y-79000000D02*
X153500000Y-79500000D01*
X187500000Y-105500000D02*
X190500000Y-105500000D01*
X183500000Y-109500000D02*
X187500000Y-105500000D01*
X191500000Y-90500000D02*
X190500000Y-90500000D01*
X193000000Y-92000000D02*
X191500000Y-90500000D01*
X193000000Y-104050000D02*
X193000000Y-92000000D01*
X190500000Y-105500000D02*
X191550000Y-105500000D01*
X191550000Y-105500000D02*
X193000000Y-104050000D01*
X190500000Y-99500000D02*
X190500000Y-93000000D01*
X184500000Y-99500000D02*
X190500000Y-99500000D01*
X183500000Y-98500000D02*
X184500000Y-99500000D01*
D27*
X141460000Y-80960000D02*
X144500000Y-84000000D01*
X138000000Y-80960000D02*
X141460000Y-80960000D01*
D26*
X139460000Y-86500000D02*
X138000000Y-87960000D01*
X147000000Y-86500000D02*
X139460000Y-86500000D01*
X149500000Y-84000000D02*
X147000000Y-86500000D01*
D27*
X142960000Y-99500000D02*
X143000000Y-99540000D01*
X135000000Y-99500000D02*
X142960000Y-99500000D01*
X130500000Y-95000000D02*
X135000000Y-99500000D01*
X130500000Y-83000000D02*
X130500000Y-95000000D01*
X128500000Y-81500000D02*
X129000000Y-81500000D01*
X129000000Y-81500000D02*
X130500000Y-83000000D01*
X144420000Y-110920000D02*
X144420000Y-111000000D01*
X138000000Y-103500000D02*
X138000000Y-104500000D01*
X138000000Y-104500000D02*
X144420000Y-110920000D01*
D26*
X178500000Y-109750000D02*
X178500000Y-109500000D01*
X174750000Y-113500000D02*
X178500000Y-109750000D01*
X170500000Y-113500000D02*
X174750000Y-113500000D01*
X169460000Y-111500000D02*
X169460000Y-112460000D01*
X169460000Y-112460000D02*
X170500000Y-113500000D01*
X168402251Y-109500000D02*
X169460000Y-110557749D01*
X169460000Y-110557749D02*
X169460000Y-111500000D01*
X157960000Y-111500000D02*
X157960000Y-112710000D01*
X158750000Y-113500000D02*
X162000000Y-113500000D01*
X157960000Y-112710000D02*
X158750000Y-113500000D01*
X162000000Y-113500000D02*
X166000000Y-109500000D01*
X166000000Y-109500000D02*
X168402251Y-109500000D01*
X180040000Y-96960000D02*
X180040000Y-90500000D01*
X178500000Y-98500000D02*
X180040000Y-96960000D01*
X177000000Y-98500000D02*
X178500000Y-98500000D01*
X173500000Y-95000000D02*
X177000000Y-98500000D01*
X172750000Y-95000000D02*
X173500000Y-95000000D01*
X168540000Y-90500000D02*
X168540000Y-90790000D01*
X168540000Y-90790000D02*
X172750000Y-95000000D01*
D28*
X155000000Y-100500000D02*
X161000000Y-106500000D01*
X155000000Y-97500000D02*
X155000000Y-100500000D01*
X161000000Y-111000000D02*
X160500000Y-111500000D01*
X161000000Y-106500000D02*
X161000000Y-111000000D01*
X181085787Y-84000000D02*
X177000000Y-84000000D01*
X182500000Y-84000000D02*
X181085787Y-84000000D01*
X177000000Y-90000000D02*
X177500000Y-90500000D01*
X177000000Y-84000000D02*
X177000000Y-90000000D01*
X166500000Y-106500000D02*
X172500000Y-106500000D01*
X172500000Y-111000000D02*
X172000000Y-111500000D01*
X172500000Y-106500000D02*
X172500000Y-111000000D01*
X171500000Y-84000000D02*
X165500000Y-84000000D01*
X165500000Y-90000000D02*
X166000000Y-90500000D01*
X165500000Y-84000000D02*
X165500000Y-90000000D01*
X150620000Y-102080000D02*
X150620000Y-99540000D01*
X159000000Y-95500000D02*
X161000000Y-97500000D01*
X154500000Y-95500000D02*
X159000000Y-95500000D01*
X150620000Y-99540000D02*
X150620000Y-99380000D01*
X150620000Y-99380000D02*
X154500000Y-95500000D01*
X161000000Y-97500000D02*
X166500000Y-97500000D01*
X161120000Y-88080000D02*
X161120000Y-85540000D01*
X176000001Y-75999999D02*
X177000000Y-75000000D01*
X175000000Y-77000000D02*
X176000001Y-75999999D01*
X167500000Y-77000000D02*
X175000000Y-77000000D01*
X165500000Y-75000000D02*
X167500000Y-77000000D01*
X164500000Y-76000000D02*
X165500000Y-75000000D01*
X164500000Y-82160000D02*
X164500000Y-76000000D01*
X161120000Y-85540000D02*
X164500000Y-82160000D01*
D27*
X138000000Y-112500000D02*
X139500000Y-114000000D01*
X143960000Y-114000000D02*
X146960000Y-111000000D01*
X139500000Y-114000000D02*
X143960000Y-114000000D01*
X131500000Y-106000000D02*
X138000000Y-112500000D01*
X131500000Y-99500000D02*
X131500000Y-106000000D01*
X128500000Y-97500000D02*
X129500000Y-97500000D01*
X129500000Y-97500000D02*
X131500000Y-99500000D01*
M02*
