M48
; DRILL file {KiCad (5.1.10)-1} date 08/14/21 09:06:46
; FORMAT={-:-/ absolute / metric / decimal}
; #@! TF.CreationDate,2021-08-14T09:06:46+01:00
; #@! TF.GenerationSoftware,Kicad,Pcbnew,(5.1.10)-1
; #@! TF.FileFunction,NonPlated,1,2,NPTH
FMAT,2
METRIC
T1C0.500
%
G90
G05
T1
X179.25Y-102.25
X179.25Y-103.75
X179.25Y-116.75
X179.25Y-118.25
X180.0Y-102.25
X180.0Y-103.75
X180.0Y-116.75
X180.0Y-118.25
X180.75Y-102.25
X180.75Y-103.75
X180.75Y-116.75
X180.75Y-118.25
X187.25Y-95.25
X187.25Y-96.0
X187.25Y-96.75
X187.25Y-109.75
X187.25Y-110.5
X187.25Y-111.25
X187.25Y-124.25
X187.25Y-125.0
X187.25Y-125.75
X188.75Y-95.25
X188.75Y-96.0
X188.75Y-96.75
X188.75Y-109.75
X188.75Y-110.5
X188.75Y-111.25
X188.75Y-124.25
X188.75Y-125.0
X188.75Y-125.75
X195.75Y-102.25
X195.75Y-103.75
X195.75Y-116.75
X195.75Y-118.25
X196.5Y-102.25
X196.5Y-103.75
X196.5Y-116.75
X196.5Y-118.25
X197.25Y-102.25
X197.25Y-103.75
X197.25Y-116.75
X197.25Y-118.25
X203.75Y-95.25
X203.75Y-96.0
X203.75Y-96.75
X203.75Y-109.75
X203.75Y-110.5
X203.75Y-111.25
X203.75Y-124.25
X203.75Y-125.0
X203.75Y-125.75
X205.25Y-95.25
X205.25Y-96.0
X205.25Y-96.75
X205.25Y-109.75
X205.25Y-110.5
X205.25Y-111.25
X205.25Y-124.25
X205.25Y-125.0
X205.25Y-125.75
X212.25Y-102.25
X212.25Y-103.75
X212.25Y-116.75
X212.25Y-118.25
X213.0Y-102.25
X213.0Y-103.75
X213.0Y-116.75
X213.0Y-118.25
X213.75Y-102.25
X213.75Y-103.75
X213.75Y-116.75
X213.75Y-118.25
X220.25Y-95.25
X220.25Y-96.0
X220.25Y-96.75
X220.25Y-109.75
X220.25Y-110.5
X220.25Y-111.25
X220.25Y-124.25
X220.25Y-125.0
X220.25Y-125.75
X221.75Y-95.25
X221.75Y-96.0
X221.75Y-96.75
X221.75Y-109.75
X221.75Y-110.5
X221.75Y-111.25
X221.75Y-124.25
X221.75Y-125.0
X221.75Y-125.75
X228.75Y-102.25
X228.75Y-103.75
X228.75Y-116.75
X228.75Y-118.25
X229.5Y-102.25
X229.5Y-103.75
X229.5Y-116.75
X229.5Y-118.25
X230.25Y-102.25
X230.25Y-103.75
X230.25Y-116.75
X230.25Y-118.25
T0
M30
