%TF.GenerationSoftware,KiCad,Pcbnew,5.1.10-88a1d61d58~90~ubuntu20.04.1*%
%TF.CreationDate,2022-01-16T22:17:14+00:00*%
%TF.ProjectId,grove_adaptor_panel,67726f76-655f-4616-9461-70746f725f70,rev?*%
%TF.SameCoordinates,Original*%
%TF.FileFunction,Other,ECO1*%
%FSLAX46Y46*%
G04 Gerber Fmt 4.6, Leading zero omitted, Abs format (unit mm)*
G04 Created by KiCad (PCBNEW 5.1.10-88a1d61d58~90~ubuntu20.04.1) date 2022-01-16 22:17:14*
%MOMM*%
%LPD*%
G01*
G04 APERTURE LIST*
%ADD10C,0.150000*%
%ADD11C,2.000000*%
G04 APERTURE END LIST*
D10*
X245347619Y-92178571D02*
X245347619Y-91607142D01*
X245347619Y-91892857D02*
X246347619Y-91892857D01*
X246204761Y-91797619D01*
X246109523Y-91702380D01*
X246061904Y-91607142D01*
X246252380Y-92559523D02*
X246300000Y-92607142D01*
X246347619Y-92702380D01*
X246347619Y-92940476D01*
X246300000Y-93035714D01*
X246252380Y-93083333D01*
X246157142Y-93130952D01*
X246061904Y-93130952D01*
X245919047Y-93083333D01*
X245347619Y-92511904D01*
X245347619Y-93130952D01*
X245442857Y-93559523D02*
X245395238Y-93607142D01*
X245347619Y-93559523D01*
X245395238Y-93511904D01*
X245442857Y-93559523D01*
X245347619Y-93559523D01*
X246347619Y-94511904D02*
X246347619Y-94035714D01*
X245871428Y-93988095D01*
X245919047Y-94035714D01*
X245966666Y-94130952D01*
X245966666Y-94369047D01*
X245919047Y-94464285D01*
X245871428Y-94511904D01*
X245776190Y-94559523D01*
X245538095Y-94559523D01*
X245442857Y-94511904D01*
X245395238Y-94464285D01*
X245347619Y-94369047D01*
X245347619Y-94130952D01*
X245395238Y-94035714D01*
X245442857Y-93988095D01*
X246347619Y-95178571D02*
X246347619Y-95273809D01*
X246300000Y-95369047D01*
X246252380Y-95416666D01*
X246157142Y-95464285D01*
X245966666Y-95511904D01*
X245728571Y-95511904D01*
X245538095Y-95464285D01*
X245442857Y-95416666D01*
X245395238Y-95369047D01*
X245347619Y-95273809D01*
X245347619Y-95178571D01*
X245395238Y-95083333D01*
X245442857Y-95035714D01*
X245538095Y-94988095D01*
X245728571Y-94940476D01*
X245966666Y-94940476D01*
X246157142Y-94988095D01*
X246252380Y-95035714D01*
X246300000Y-95083333D01*
X246347619Y-95178571D01*
X246347619Y-96130952D02*
X246347619Y-96226190D01*
X246300000Y-96321428D01*
X246252380Y-96369047D01*
X246157142Y-96416666D01*
X245966666Y-96464285D01*
X245728571Y-96464285D01*
X245538095Y-96416666D01*
X245442857Y-96369047D01*
X245395238Y-96321428D01*
X245347619Y-96226190D01*
X245347619Y-96130952D01*
X245395238Y-96035714D01*
X245442857Y-95988095D01*
X245538095Y-95940476D01*
X245728571Y-95892857D01*
X245966666Y-95892857D01*
X246157142Y-95940476D01*
X246252380Y-95988095D01*
X246300000Y-96035714D01*
X246347619Y-96130952D01*
X245347619Y-97654761D02*
X246014285Y-97654761D01*
X245919047Y-97654761D02*
X245966666Y-97702380D01*
X246014285Y-97797619D01*
X246014285Y-97940476D01*
X245966666Y-98035714D01*
X245871428Y-98083333D01*
X245347619Y-98083333D01*
X245871428Y-98083333D02*
X245966666Y-98130952D01*
X246014285Y-98226190D01*
X246014285Y-98369047D01*
X245966666Y-98464285D01*
X245871428Y-98511904D01*
X245347619Y-98511904D01*
X245347619Y-98988095D02*
X246014285Y-98988095D01*
X245919047Y-98988095D02*
X245966666Y-99035714D01*
X246014285Y-99130952D01*
X246014285Y-99273809D01*
X245966666Y-99369047D01*
X245871428Y-99416666D01*
X245347619Y-99416666D01*
X245871428Y-99416666D02*
X245966666Y-99464285D01*
X246014285Y-99559523D01*
X246014285Y-99702380D01*
X245966666Y-99797619D01*
X245871428Y-99845238D01*
X245347619Y-99845238D01*
X244500000Y-89500000D02*
X244500000Y-102000000D01*
X236500000Y-89500000D02*
X245086421Y-89500000D01*
X236500000Y-102000000D02*
X245086421Y-102000000D01*
X244500000Y-102000000D02*
X243913579Y-100873496D01*
X244500000Y-102000000D02*
X245086421Y-100873496D01*
X244500000Y-89500000D02*
X243913579Y-90626504D01*
X244500000Y-89500000D02*
X245086421Y-90626504D01*
X249514285Y-106583333D02*
X248847619Y-106583333D01*
X249895238Y-106345238D02*
X249180952Y-106107142D01*
X249180952Y-106726190D01*
X248847619Y-107630952D02*
X248847619Y-107059523D01*
X248847619Y-107345238D02*
X249847619Y-107345238D01*
X249704761Y-107250000D01*
X249609523Y-107154761D01*
X249561904Y-107059523D01*
X248942857Y-108059523D02*
X248895238Y-108107142D01*
X248847619Y-108059523D01*
X248895238Y-108011904D01*
X248942857Y-108059523D01*
X248847619Y-108059523D01*
X249847619Y-109011904D02*
X249847619Y-108535714D01*
X249371428Y-108488095D01*
X249419047Y-108535714D01*
X249466666Y-108630952D01*
X249466666Y-108869047D01*
X249419047Y-108964285D01*
X249371428Y-109011904D01*
X249276190Y-109059523D01*
X249038095Y-109059523D01*
X248942857Y-109011904D01*
X248895238Y-108964285D01*
X248847619Y-108869047D01*
X248847619Y-108630952D01*
X248895238Y-108535714D01*
X248942857Y-108488095D01*
X249847619Y-109678571D02*
X249847619Y-109773809D01*
X249800000Y-109869047D01*
X249752380Y-109916666D01*
X249657142Y-109964285D01*
X249466666Y-110011904D01*
X249228571Y-110011904D01*
X249038095Y-109964285D01*
X248942857Y-109916666D01*
X248895238Y-109869047D01*
X248847619Y-109773809D01*
X248847619Y-109678571D01*
X248895238Y-109583333D01*
X248942857Y-109535714D01*
X249038095Y-109488095D01*
X249228571Y-109440476D01*
X249466666Y-109440476D01*
X249657142Y-109488095D01*
X249752380Y-109535714D01*
X249800000Y-109583333D01*
X249847619Y-109678571D01*
X249847619Y-110630952D02*
X249847619Y-110726190D01*
X249800000Y-110821428D01*
X249752380Y-110869047D01*
X249657142Y-110916666D01*
X249466666Y-110964285D01*
X249228571Y-110964285D01*
X249038095Y-110916666D01*
X248942857Y-110869047D01*
X248895238Y-110821428D01*
X248847619Y-110726190D01*
X248847619Y-110630952D01*
X248895238Y-110535714D01*
X248942857Y-110488095D01*
X249038095Y-110440476D01*
X249228571Y-110392857D01*
X249466666Y-110392857D01*
X249657142Y-110440476D01*
X249752380Y-110488095D01*
X249800000Y-110535714D01*
X249847619Y-110630952D01*
X248847619Y-112154761D02*
X249514285Y-112154761D01*
X249419047Y-112154761D02*
X249466666Y-112202380D01*
X249514285Y-112297619D01*
X249514285Y-112440476D01*
X249466666Y-112535714D01*
X249371428Y-112583333D01*
X248847619Y-112583333D01*
X249371428Y-112583333D02*
X249466666Y-112630952D01*
X249514285Y-112726190D01*
X249514285Y-112869047D01*
X249466666Y-112964285D01*
X249371428Y-113011904D01*
X248847619Y-113011904D01*
X248847619Y-113488095D02*
X249514285Y-113488095D01*
X249419047Y-113488095D02*
X249466666Y-113535714D01*
X249514285Y-113630952D01*
X249514285Y-113773809D01*
X249466666Y-113869047D01*
X249371428Y-113916666D01*
X248847619Y-113916666D01*
X249371428Y-113916666D02*
X249466666Y-113964285D01*
X249514285Y-114059523D01*
X249514285Y-114202380D01*
X249466666Y-114297619D01*
X249371428Y-114345238D01*
X248847619Y-114345238D01*
X248000000Y-89500000D02*
X248000000Y-131000000D01*
X236500000Y-89500000D02*
X248586421Y-89500000D01*
X236500000Y-131000000D02*
X248586421Y-131000000D01*
X248000000Y-131000000D02*
X247413579Y-129873496D01*
X248000000Y-131000000D02*
X248586421Y-129873496D01*
X248000000Y-89500000D02*
X247413579Y-90626504D01*
X248000000Y-89500000D02*
X248586421Y-90626504D01*
X200833333Y-77152380D02*
X200642857Y-77152380D01*
X200547619Y-77200000D01*
X200500000Y-77247619D01*
X200404761Y-77390476D01*
X200357142Y-77580952D01*
X200357142Y-77961904D01*
X200404761Y-78057142D01*
X200452380Y-78104761D01*
X200547619Y-78152380D01*
X200738095Y-78152380D01*
X200833333Y-78104761D01*
X200880952Y-78057142D01*
X200928571Y-77961904D01*
X200928571Y-77723809D01*
X200880952Y-77628571D01*
X200833333Y-77580952D01*
X200738095Y-77533333D01*
X200547619Y-77533333D01*
X200452380Y-77580952D01*
X200404761Y-77628571D01*
X200357142Y-77723809D01*
X201785714Y-77485714D02*
X201785714Y-78152380D01*
X201547619Y-77104761D02*
X201309523Y-77819047D01*
X201928571Y-77819047D01*
X202309523Y-78057142D02*
X202357142Y-78104761D01*
X202309523Y-78152380D01*
X202261904Y-78104761D01*
X202309523Y-78057142D01*
X202309523Y-78152380D01*
X202976190Y-77152380D02*
X203071428Y-77152380D01*
X203166666Y-77200000D01*
X203214285Y-77247619D01*
X203261904Y-77342857D01*
X203309523Y-77533333D01*
X203309523Y-77771428D01*
X203261904Y-77961904D01*
X203214285Y-78057142D01*
X203166666Y-78104761D01*
X203071428Y-78152380D01*
X202976190Y-78152380D01*
X202880952Y-78104761D01*
X202833333Y-78057142D01*
X202785714Y-77961904D01*
X202738095Y-77771428D01*
X202738095Y-77533333D01*
X202785714Y-77342857D01*
X202833333Y-77247619D01*
X202880952Y-77200000D01*
X202976190Y-77152380D01*
X203928571Y-77152380D02*
X204023809Y-77152380D01*
X204119047Y-77200000D01*
X204166666Y-77247619D01*
X204214285Y-77342857D01*
X204261904Y-77533333D01*
X204261904Y-77771428D01*
X204214285Y-77961904D01*
X204166666Y-78057142D01*
X204119047Y-78104761D01*
X204023809Y-78152380D01*
X203928571Y-78152380D01*
X203833333Y-78104761D01*
X203785714Y-78057142D01*
X203738095Y-77961904D01*
X203690476Y-77771428D01*
X203690476Y-77533333D01*
X203738095Y-77342857D01*
X203785714Y-77247619D01*
X203833333Y-77200000D01*
X203928571Y-77152380D01*
X204880952Y-77152380D02*
X204976190Y-77152380D01*
X205071428Y-77200000D01*
X205119047Y-77247619D01*
X205166666Y-77342857D01*
X205214285Y-77533333D01*
X205214285Y-77771428D01*
X205166666Y-77961904D01*
X205119047Y-78057142D01*
X205071428Y-78104761D01*
X204976190Y-78152380D01*
X204880952Y-78152380D01*
X204785714Y-78104761D01*
X204738095Y-78057142D01*
X204690476Y-77961904D01*
X204642857Y-77771428D01*
X204642857Y-77533333D01*
X204690476Y-77342857D01*
X204738095Y-77247619D01*
X204785714Y-77200000D01*
X204880952Y-77152380D01*
X206404761Y-78152380D02*
X206404761Y-77485714D01*
X206404761Y-77580952D02*
X206452380Y-77533333D01*
X206547619Y-77485714D01*
X206690476Y-77485714D01*
X206785714Y-77533333D01*
X206833333Y-77628571D01*
X206833333Y-78152380D01*
X206833333Y-77628571D02*
X206880952Y-77533333D01*
X206976190Y-77485714D01*
X207119047Y-77485714D01*
X207214285Y-77533333D01*
X207261904Y-77628571D01*
X207261904Y-78152380D01*
X207738095Y-78152380D02*
X207738095Y-77485714D01*
X207738095Y-77580952D02*
X207785714Y-77533333D01*
X207880952Y-77485714D01*
X208023809Y-77485714D01*
X208119047Y-77533333D01*
X208166666Y-77628571D01*
X208166666Y-78152380D01*
X208166666Y-77628571D02*
X208214285Y-77533333D01*
X208309523Y-77485714D01*
X208452380Y-77485714D01*
X208547619Y-77533333D01*
X208595238Y-77628571D01*
X208595238Y-78152380D01*
X172500000Y-79000000D02*
X236500000Y-79000000D01*
X172500000Y-89500000D02*
X172500000Y-78413579D01*
X236500000Y-89500000D02*
X236500000Y-78413579D01*
X236500000Y-79000000D02*
X235373496Y-79586421D01*
X236500000Y-79000000D02*
X235373496Y-78413579D01*
X172500000Y-79000000D02*
X173626504Y-79586421D01*
X172500000Y-79000000D02*
X173626504Y-78413579D01*
X176178571Y-84152380D02*
X175607142Y-84152380D01*
X175892857Y-84152380D02*
X175892857Y-83152380D01*
X175797619Y-83295238D01*
X175702380Y-83390476D01*
X175607142Y-83438095D01*
X177035714Y-83485714D02*
X177035714Y-84152380D01*
X176797619Y-83104761D02*
X176559523Y-83819047D01*
X177178571Y-83819047D01*
X177559523Y-84057142D02*
X177607142Y-84104761D01*
X177559523Y-84152380D01*
X177511904Y-84104761D01*
X177559523Y-84057142D01*
X177559523Y-84152380D01*
X178511904Y-83152380D02*
X178035714Y-83152380D01*
X177988095Y-83628571D01*
X178035714Y-83580952D01*
X178130952Y-83533333D01*
X178369047Y-83533333D01*
X178464285Y-83580952D01*
X178511904Y-83628571D01*
X178559523Y-83723809D01*
X178559523Y-83961904D01*
X178511904Y-84057142D01*
X178464285Y-84104761D01*
X178369047Y-84152380D01*
X178130952Y-84152380D01*
X178035714Y-84104761D01*
X177988095Y-84057142D01*
X179178571Y-83152380D02*
X179273809Y-83152380D01*
X179369047Y-83200000D01*
X179416666Y-83247619D01*
X179464285Y-83342857D01*
X179511904Y-83533333D01*
X179511904Y-83771428D01*
X179464285Y-83961904D01*
X179416666Y-84057142D01*
X179369047Y-84104761D01*
X179273809Y-84152380D01*
X179178571Y-84152380D01*
X179083333Y-84104761D01*
X179035714Y-84057142D01*
X178988095Y-83961904D01*
X178940476Y-83771428D01*
X178940476Y-83533333D01*
X178988095Y-83342857D01*
X179035714Y-83247619D01*
X179083333Y-83200000D01*
X179178571Y-83152380D01*
X180130952Y-83152380D02*
X180226190Y-83152380D01*
X180321428Y-83200000D01*
X180369047Y-83247619D01*
X180416666Y-83342857D01*
X180464285Y-83533333D01*
X180464285Y-83771428D01*
X180416666Y-83961904D01*
X180369047Y-84057142D01*
X180321428Y-84104761D01*
X180226190Y-84152380D01*
X180130952Y-84152380D01*
X180035714Y-84104761D01*
X179988095Y-84057142D01*
X179940476Y-83961904D01*
X179892857Y-83771428D01*
X179892857Y-83533333D01*
X179940476Y-83342857D01*
X179988095Y-83247619D01*
X180035714Y-83200000D01*
X180130952Y-83152380D01*
X181654761Y-84152380D02*
X181654761Y-83485714D01*
X181654761Y-83580952D02*
X181702380Y-83533333D01*
X181797619Y-83485714D01*
X181940476Y-83485714D01*
X182035714Y-83533333D01*
X182083333Y-83628571D01*
X182083333Y-84152380D01*
X182083333Y-83628571D02*
X182130952Y-83533333D01*
X182226190Y-83485714D01*
X182369047Y-83485714D01*
X182464285Y-83533333D01*
X182511904Y-83628571D01*
X182511904Y-84152380D01*
X182988095Y-84152380D02*
X182988095Y-83485714D01*
X182988095Y-83580952D02*
X183035714Y-83533333D01*
X183130952Y-83485714D01*
X183273809Y-83485714D01*
X183369047Y-83533333D01*
X183416666Y-83628571D01*
X183416666Y-84152380D01*
X183416666Y-83628571D02*
X183464285Y-83533333D01*
X183559523Y-83485714D01*
X183702380Y-83485714D01*
X183797619Y-83533333D01*
X183845238Y-83628571D01*
X183845238Y-84152380D01*
X172500000Y-85000000D02*
X187000000Y-85000000D01*
X172500000Y-89500000D02*
X172500000Y-84413579D01*
X187000000Y-89500000D02*
X187000000Y-84413579D01*
X187000000Y-85000000D02*
X185873496Y-85586421D01*
X187000000Y-85000000D02*
X185873496Y-84413579D01*
X172500000Y-85000000D02*
X173626504Y-85586421D01*
X172500000Y-85000000D02*
X173626504Y-84413579D01*
D11*
%TO.C,mouse-bite-2mm-slot*%
X188000000Y-108500000D02*
X188000000Y-108500000D01*
X188000000Y-112500000D02*
X188000000Y-112500000D01*
X231500000Y-117500000D02*
X231500000Y-117500000D01*
X227500000Y-117500000D02*
X227500000Y-117500000D01*
X215000000Y-117500000D02*
X215000000Y-117500000D01*
X211000000Y-117500000D02*
X211000000Y-117500000D01*
X198500000Y-117500000D02*
X198500000Y-117500000D01*
X194500000Y-117500000D02*
X194500000Y-117500000D01*
X182000000Y-117500000D02*
X182000000Y-117500000D01*
X178000000Y-117500000D02*
X178000000Y-117500000D01*
X231500000Y-103000000D02*
X231500000Y-103000000D01*
X227500000Y-103000000D02*
X227500000Y-103000000D01*
X215000000Y-103000000D02*
X215000000Y-103000000D01*
X211000000Y-103000000D02*
X211000000Y-103000000D01*
X198500000Y-103000000D02*
X198500000Y-103000000D01*
X194500000Y-103000000D02*
X194500000Y-103000000D01*
X221000000Y-123000000D02*
X221000000Y-123000000D01*
X221000000Y-127000000D02*
X221000000Y-127000000D01*
X204500000Y-123000000D02*
X204500000Y-123000000D01*
X204500000Y-127000000D02*
X204500000Y-127000000D01*
X188000000Y-123000000D02*
X188000000Y-123000000D01*
X188000000Y-127000000D02*
X188000000Y-127000000D01*
X221000000Y-108500000D02*
X221000000Y-108500000D01*
X221000000Y-112500000D02*
X221000000Y-112500000D01*
X204500000Y-108500000D02*
X204500000Y-108500000D01*
X204500000Y-112500000D02*
X204500000Y-112500000D01*
X221000000Y-94000000D02*
X221000000Y-94000000D01*
X221000000Y-98000000D02*
X221000000Y-98000000D01*
X204500000Y-94000000D02*
X204500000Y-94000000D01*
X204500000Y-98000000D02*
X204500000Y-98000000D01*
X188000000Y-94000000D02*
X188000000Y-94000000D01*
X188000000Y-98000000D02*
X188000000Y-98000000D01*
X182000000Y-103000000D02*
X182000000Y-103000000D01*
X178000000Y-103000000D02*
X178000000Y-103000000D01*
%TD*%
M02*
