%TF.GenerationSoftware,KiCad,Pcbnew,5.1.10-88a1d61d58~90~ubuntu20.04.1*%
%TF.CreationDate,2022-01-16T22:17:14+00:00*%
%TF.ProjectId,grove_adaptor_panel,67726f76-655f-4616-9461-70746f725f70,rev?*%
%TF.SameCoordinates,Original*%
%TF.FileFunction,OtherDrawing,Comment*%
%FSLAX46Y46*%
G04 Gerber Fmt 4.6, Leading zero omitted, Abs format (unit mm)*
G04 Created by KiCad (PCBNEW 5.1.10-88a1d61d58~90~ubuntu20.04.1) date 2022-01-16 22:17:14*
%MOMM*%
%LPD*%
G01*
G04 APERTURE LIST*
%ADD10C,0.050000*%
%ADD11C,0.254000*%
G04 APERTURE END LIST*
D10*
%TO.C,mouse-bite-2mm-slot*%
X188060000Y-112500000D02*
G75*
G03*
X188060000Y-112500000I-60000J0D01*
G01*
X188060000Y-108500000D02*
G75*
G03*
X188060000Y-108500000I-60000J0D01*
G01*
X227560000Y-117500000D02*
G75*
G03*
X227560000Y-117500000I-60000J0D01*
G01*
X231560000Y-117500000D02*
G75*
G03*
X231560000Y-117500000I-60000J0D01*
G01*
X211060000Y-117500000D02*
G75*
G03*
X211060000Y-117500000I-60000J0D01*
G01*
X215060000Y-117500000D02*
G75*
G03*
X215060000Y-117500000I-60000J0D01*
G01*
X194560000Y-117500000D02*
G75*
G03*
X194560000Y-117500000I-60000J0D01*
G01*
X198560000Y-117500000D02*
G75*
G03*
X198560000Y-117500000I-60000J0D01*
G01*
X178060000Y-117500000D02*
G75*
G03*
X178060000Y-117500000I-60000J0D01*
G01*
X182060000Y-117500000D02*
G75*
G03*
X182060000Y-117500000I-60000J0D01*
G01*
X227560000Y-103000000D02*
G75*
G03*
X227560000Y-103000000I-60000J0D01*
G01*
X231560000Y-103000000D02*
G75*
G03*
X231560000Y-103000000I-60000J0D01*
G01*
X211060000Y-103000000D02*
G75*
G03*
X211060000Y-103000000I-60000J0D01*
G01*
X215060000Y-103000000D02*
G75*
G03*
X215060000Y-103000000I-60000J0D01*
G01*
X194560000Y-103000000D02*
G75*
G03*
X194560000Y-103000000I-60000J0D01*
G01*
X198560000Y-103000000D02*
G75*
G03*
X198560000Y-103000000I-60000J0D01*
G01*
X221060000Y-127000000D02*
G75*
G03*
X221060000Y-127000000I-60000J0D01*
G01*
X221060000Y-123000000D02*
G75*
G03*
X221060000Y-123000000I-60000J0D01*
G01*
X204560000Y-127000000D02*
G75*
G03*
X204560000Y-127000000I-60000J0D01*
G01*
X204560000Y-123000000D02*
G75*
G03*
X204560000Y-123000000I-60000J0D01*
G01*
X188060000Y-127000000D02*
G75*
G03*
X188060000Y-127000000I-60000J0D01*
G01*
X188060000Y-123000000D02*
G75*
G03*
X188060000Y-123000000I-60000J0D01*
G01*
X221060000Y-112500000D02*
G75*
G03*
X221060000Y-112500000I-60000J0D01*
G01*
X221060000Y-108500000D02*
G75*
G03*
X221060000Y-108500000I-60000J0D01*
G01*
X204560000Y-112500000D02*
G75*
G03*
X204560000Y-112500000I-60000J0D01*
G01*
X204560000Y-108500000D02*
G75*
G03*
X204560000Y-108500000I-60000J0D01*
G01*
X221060000Y-98000000D02*
G75*
G03*
X221060000Y-98000000I-60000J0D01*
G01*
X221060000Y-94000000D02*
G75*
G03*
X221060000Y-94000000I-60000J0D01*
G01*
X204560000Y-98000000D02*
G75*
G03*
X204560000Y-98000000I-60000J0D01*
G01*
X204560000Y-94000000D02*
G75*
G03*
X204560000Y-94000000I-60000J0D01*
G01*
X188060000Y-98000000D02*
G75*
G03*
X188060000Y-98000000I-60000J0D01*
G01*
X188060000Y-94000000D02*
G75*
G03*
X188060000Y-94000000I-60000J0D01*
G01*
D11*
%TO.C,J2*%
X232175000Y-119706000D02*
X233953000Y-119706000D01*
X232175000Y-120341000D02*
X232175000Y-119706000D01*
X230778000Y-120341000D02*
X232175000Y-120341000D01*
X230778000Y-118309000D02*
X230778000Y-120341000D01*
X227222000Y-118309000D02*
X230778000Y-118309000D01*
X227222000Y-120341000D02*
X227222000Y-118309000D01*
X225825000Y-120341000D02*
X227222000Y-120341000D01*
X225825000Y-119706000D02*
X225825000Y-120341000D01*
X224047000Y-119706000D02*
X225825000Y-119706000D01*
X224000000Y-119700000D02*
X224000000Y-124700000D01*
X234000000Y-124700000D02*
X234000000Y-119700000D01*
X224000000Y-124700000D02*
X234000000Y-124700000D01*
X215675000Y-119706000D02*
X217453000Y-119706000D01*
X215675000Y-120341000D02*
X215675000Y-119706000D01*
X214278000Y-120341000D02*
X215675000Y-120341000D01*
X214278000Y-118309000D02*
X214278000Y-120341000D01*
X210722000Y-118309000D02*
X214278000Y-118309000D01*
X210722000Y-120341000D02*
X210722000Y-118309000D01*
X209325000Y-120341000D02*
X210722000Y-120341000D01*
X209325000Y-119706000D02*
X209325000Y-120341000D01*
X207547000Y-119706000D02*
X209325000Y-119706000D01*
X207500000Y-119700000D02*
X207500000Y-124700000D01*
X217500000Y-124700000D02*
X217500000Y-119700000D01*
X207500000Y-124700000D02*
X217500000Y-124700000D01*
X199175000Y-119706000D02*
X200953000Y-119706000D01*
X199175000Y-120341000D02*
X199175000Y-119706000D01*
X197778000Y-120341000D02*
X199175000Y-120341000D01*
X197778000Y-118309000D02*
X197778000Y-120341000D01*
X194222000Y-118309000D02*
X197778000Y-118309000D01*
X194222000Y-120341000D02*
X194222000Y-118309000D01*
X192825000Y-120341000D02*
X194222000Y-120341000D01*
X192825000Y-119706000D02*
X192825000Y-120341000D01*
X191047000Y-119706000D02*
X192825000Y-119706000D01*
X191000000Y-119700000D02*
X191000000Y-124700000D01*
X201000000Y-124700000D02*
X201000000Y-119700000D01*
X191000000Y-124700000D02*
X201000000Y-124700000D01*
X182675000Y-119706000D02*
X184453000Y-119706000D01*
X182675000Y-120341000D02*
X182675000Y-119706000D01*
X181278000Y-120341000D02*
X182675000Y-120341000D01*
X181278000Y-118309000D02*
X181278000Y-120341000D01*
X177722000Y-118309000D02*
X181278000Y-118309000D01*
X177722000Y-120341000D02*
X177722000Y-118309000D01*
X176325000Y-120341000D02*
X177722000Y-120341000D01*
X176325000Y-119706000D02*
X176325000Y-120341000D01*
X174547000Y-119706000D02*
X176325000Y-119706000D01*
X174500000Y-119700000D02*
X174500000Y-124700000D01*
X184500000Y-124700000D02*
X184500000Y-119700000D01*
X174500000Y-124700000D02*
X184500000Y-124700000D01*
X232175000Y-105206000D02*
X233953000Y-105206000D01*
X232175000Y-105841000D02*
X232175000Y-105206000D01*
X230778000Y-105841000D02*
X232175000Y-105841000D01*
X230778000Y-103809000D02*
X230778000Y-105841000D01*
X227222000Y-103809000D02*
X230778000Y-103809000D01*
X227222000Y-105841000D02*
X227222000Y-103809000D01*
X225825000Y-105841000D02*
X227222000Y-105841000D01*
X225825000Y-105206000D02*
X225825000Y-105841000D01*
X224047000Y-105206000D02*
X225825000Y-105206000D01*
X224000000Y-105200000D02*
X224000000Y-110200000D01*
X234000000Y-110200000D02*
X234000000Y-105200000D01*
X224000000Y-110200000D02*
X234000000Y-110200000D01*
X215675000Y-105206000D02*
X217453000Y-105206000D01*
X215675000Y-105841000D02*
X215675000Y-105206000D01*
X214278000Y-105841000D02*
X215675000Y-105841000D01*
X214278000Y-103809000D02*
X214278000Y-105841000D01*
X210722000Y-103809000D02*
X214278000Y-103809000D01*
X210722000Y-105841000D02*
X210722000Y-103809000D01*
X209325000Y-105841000D02*
X210722000Y-105841000D01*
X209325000Y-105206000D02*
X209325000Y-105841000D01*
X207547000Y-105206000D02*
X209325000Y-105206000D01*
X207500000Y-105200000D02*
X207500000Y-110200000D01*
X217500000Y-110200000D02*
X217500000Y-105200000D01*
X207500000Y-110200000D02*
X217500000Y-110200000D01*
X199175000Y-105206000D02*
X200953000Y-105206000D01*
X199175000Y-105841000D02*
X199175000Y-105206000D01*
X197778000Y-105841000D02*
X199175000Y-105841000D01*
X197778000Y-103809000D02*
X197778000Y-105841000D01*
X194222000Y-103809000D02*
X197778000Y-103809000D01*
X194222000Y-105841000D02*
X194222000Y-103809000D01*
X192825000Y-105841000D02*
X194222000Y-105841000D01*
X192825000Y-105206000D02*
X192825000Y-105841000D01*
X191047000Y-105206000D02*
X192825000Y-105206000D01*
X191000000Y-105200000D02*
X191000000Y-110200000D01*
X201000000Y-110200000D02*
X201000000Y-105200000D01*
X191000000Y-110200000D02*
X201000000Y-110200000D01*
X182675000Y-105206000D02*
X184453000Y-105206000D01*
X182675000Y-105841000D02*
X182675000Y-105206000D01*
X181278000Y-105841000D02*
X182675000Y-105841000D01*
X181278000Y-103809000D02*
X181278000Y-105841000D01*
X177722000Y-103809000D02*
X181278000Y-103809000D01*
X177722000Y-105841000D02*
X177722000Y-103809000D01*
X176325000Y-105841000D02*
X177722000Y-105841000D01*
X176325000Y-105206000D02*
X176325000Y-105841000D01*
X174547000Y-105206000D02*
X176325000Y-105206000D01*
X174500000Y-105200000D02*
X174500000Y-110200000D01*
X184500000Y-110200000D02*
X184500000Y-105200000D01*
X174500000Y-110200000D02*
X184500000Y-110200000D01*
X232175000Y-90706000D02*
X233953000Y-90706000D01*
X232175000Y-91341000D02*
X232175000Y-90706000D01*
X230778000Y-91341000D02*
X232175000Y-91341000D01*
X230778000Y-89309000D02*
X230778000Y-91341000D01*
X227222000Y-89309000D02*
X230778000Y-89309000D01*
X227222000Y-91341000D02*
X227222000Y-89309000D01*
X225825000Y-91341000D02*
X227222000Y-91341000D01*
X225825000Y-90706000D02*
X225825000Y-91341000D01*
X224047000Y-90706000D02*
X225825000Y-90706000D01*
X224000000Y-90700000D02*
X224000000Y-95700000D01*
X234000000Y-95700000D02*
X234000000Y-90700000D01*
X224000000Y-95700000D02*
X234000000Y-95700000D01*
X215675000Y-90706000D02*
X217453000Y-90706000D01*
X215675000Y-91341000D02*
X215675000Y-90706000D01*
X214278000Y-91341000D02*
X215675000Y-91341000D01*
X214278000Y-89309000D02*
X214278000Y-91341000D01*
X210722000Y-89309000D02*
X214278000Y-89309000D01*
X210722000Y-91341000D02*
X210722000Y-89309000D01*
X209325000Y-91341000D02*
X210722000Y-91341000D01*
X209325000Y-90706000D02*
X209325000Y-91341000D01*
X207547000Y-90706000D02*
X209325000Y-90706000D01*
X207500000Y-90700000D02*
X207500000Y-95700000D01*
X217500000Y-95700000D02*
X217500000Y-90700000D01*
X207500000Y-95700000D02*
X217500000Y-95700000D01*
X199175000Y-90706000D02*
X200953000Y-90706000D01*
X199175000Y-91341000D02*
X199175000Y-90706000D01*
X197778000Y-91341000D02*
X199175000Y-91341000D01*
X197778000Y-89309000D02*
X197778000Y-91341000D01*
X194222000Y-89309000D02*
X197778000Y-89309000D01*
X194222000Y-91341000D02*
X194222000Y-89309000D01*
X192825000Y-91341000D02*
X194222000Y-91341000D01*
X192825000Y-90706000D02*
X192825000Y-91341000D01*
X191047000Y-90706000D02*
X192825000Y-90706000D01*
X191000000Y-90700000D02*
X191000000Y-95700000D01*
X201000000Y-95700000D02*
X201000000Y-90700000D01*
X191000000Y-95700000D02*
X201000000Y-95700000D01*
D10*
%TO.C,mouse-bite-2mm-slot*%
X178060000Y-103000000D02*
G75*
G03*
X178060000Y-103000000I-60000J0D01*
G01*
X182060000Y-103000000D02*
G75*
G03*
X182060000Y-103000000I-60000J0D01*
G01*
D11*
%TO.C,J2*%
X182675000Y-90706000D02*
X184453000Y-90706000D01*
X182675000Y-91341000D02*
X182675000Y-90706000D01*
X181278000Y-91341000D02*
X182675000Y-91341000D01*
X181278000Y-89309000D02*
X181278000Y-91341000D01*
X177722000Y-89309000D02*
X181278000Y-89309000D01*
X177722000Y-91341000D02*
X177722000Y-89309000D01*
X176325000Y-91341000D02*
X177722000Y-91341000D01*
X176325000Y-90706000D02*
X176325000Y-91341000D01*
X174547000Y-90706000D02*
X176325000Y-90706000D01*
X174500000Y-90700000D02*
X174500000Y-95700000D01*
X184500000Y-95700000D02*
X184500000Y-90700000D01*
X174500000Y-95700000D02*
X184500000Y-95700000D01*
%TD*%
M02*
