M48
; DRILL file {KiCad 5.1.10-88a1d61d58~90~ubuntu20.04.1} date Sun Jan 16 12:27:30 2022
; FORMAT={-:-/ absolute / metric / decimal}
; #@! TF.CreationDate,2022-01-16T12:27:30+00:00
; #@! TF.GenerationSoftware,Kicad,Pcbnew,5.1.10-88a1d61d58~90~ubuntu20.04.1
; #@! TF.FileFunction,Plated,1,2,PTH
FMAT,2
METRIC
T1C0.714
T2C0.800
T3C0.900
T4C0.950
T5C1.000
%
G90
G05
T1
X153.46Y-92.0
X156.0Y-94.54
X158.54Y-92.0
T2
X147.5Y-97.38
X147.5Y-105.0
X150.04Y-97.38
X150.04Y-105.0
X152.58Y-97.38
X152.58Y-105.0
X153.5Y-116.0
X155.12Y-97.38
X155.12Y-105.0
X158.5Y-116.0
T3
X146.96Y-90.5
X146.96Y-116.0
X149.5Y-90.5
X149.5Y-116.0
T4
X166.0Y-99.5
X166.0Y-102.0
X166.0Y-104.5
X166.0Y-107.0
T5
X131.5Y-99.78
X131.5Y-106.5
X134.0Y-90.5
X134.0Y-116.0
X134.86Y-98.39
X134.86Y-107.89
X138.22Y-99.78
X138.22Y-106.5
X143.0Y-90.5
X143.0Y-116.0
X148.0Y-109.5
X157.0Y-109.5
T0
M30
