M48
; DRILL file {KiCad (5.1.4)-1} date 25/01/2020 11:56:18
; FORMAT={-:-/ absolute / metric / decimal}
; #@! TF.CreationDate,2020-01-25T11:56:18+02:00
; #@! TF.GenerationSoftware,Kicad,Pcbnew,(5.1.4)-1
; #@! TF.FileFunction,Plated,1,2,PTH
FMAT,2
METRIC
T1C0.800
T2C0.800
T3C0.920
T4C0.950
T5C1.000
T6C1.040
T7C1.350
T8C1.501
%
G90
G05
T1
X192.0Y-92.0
X186.0Y-130.5
X191.0Y-130.5
X204.0Y-92.0
X207.8Y-92.0
X197.0Y-92.0
X198.0Y-63.2
X198.0Y-67.0
T2
X192.0Y-100.5
X192.0Y-105.5
X192.0Y-72.5
X192.0Y-77.5
T3
X192.0Y-118.5
X194.0Y-118.5
X196.0Y-118.5
X198.0Y-118.5
T4
X201.0Y-71.5
X201.0Y-74.9
X201.0Y-78.3
X205.2Y-73.2
X205.2Y-76.6
X201.0Y-99.5
X201.0Y-102.9
X201.0Y-106.3
X205.2Y-101.2
X205.2Y-104.6
T5
X176.5Y-141.0
X179.0Y-141.0
X181.5Y-141.0
X184.0Y-141.0
X140.5Y-92.0
X140.5Y-94.5
X140.5Y-97.0
X140.5Y-99.5
X140.5Y-107.5
X140.5Y-110.0
X140.5Y-112.5
X140.5Y-115.0
X178.5Y-123.0
X178.5Y-125.5
X178.5Y-128.0
X178.5Y-130.5
X150.5Y-123.0
X150.5Y-125.5
X150.5Y-128.0
X150.5Y-130.5
X150.5Y-92.0
X150.5Y-94.5
X150.5Y-97.0
X150.5Y-99.5
X140.5Y-76.5
X140.5Y-79.0
X140.5Y-81.5
X140.5Y-84.0
X147.5Y-141.0
X150.0Y-141.0
X152.5Y-141.0
X155.0Y-141.0
X160.5Y-123.0
X160.5Y-125.5
X160.5Y-128.0
X160.5Y-130.5
X162.0Y-141.0
X164.5Y-141.0
X167.0Y-141.0
X169.5Y-141.0
X150.5Y-107.5
X150.5Y-110.0
X150.5Y-112.5
X150.5Y-115.0
X150.5Y-76.5
X150.5Y-79.0
X150.5Y-81.5
X150.5Y-84.0
X191.0Y-141.0
X193.5Y-141.0
X196.0Y-141.0
X198.5Y-141.0
X169.5Y-123.0
X169.5Y-125.5
X169.5Y-128.0
X169.5Y-130.5
X140.5Y-123.0
X140.5Y-125.5
X140.5Y-128.0
X140.5Y-130.5
T6
X158.0Y-69.5
X158.0Y-72.04
X158.0Y-74.58
X158.0Y-77.12
X158.0Y-79.66
X158.0Y-82.2
X158.0Y-84.74
X158.0Y-87.28
X158.0Y-89.82
X158.0Y-92.36
X158.0Y-94.9
X158.0Y-97.44
X158.0Y-99.98
X158.0Y-102.52
X158.0Y-105.06
X158.0Y-107.6
X158.0Y-110.14
X158.0Y-112.68
X158.0Y-115.22
X183.4Y-69.5
X183.4Y-72.04
X183.4Y-74.58
X183.4Y-77.12
X183.4Y-79.66
X183.4Y-82.2
X183.4Y-84.74
X183.4Y-87.28
X183.4Y-89.82
X183.4Y-92.36
X183.4Y-94.9
X183.4Y-97.44
X183.4Y-99.98
X183.4Y-102.52
X183.4Y-105.06
X183.4Y-107.6
X183.4Y-110.14
X183.4Y-112.68
X183.4Y-115.22
T7
X191.73Y-115.78
X191.73Y-121.22
X198.73Y-115.78
X198.73Y-121.22
T8
X191.759Y-111.003
X206.999Y-111.003
X191.76Y-83.0
X207.0Y-83.0
T5
G00X197.0Y-132.5
M15
G01X197.0Y-130.5
M16
G05
G00X201.0Y-126.8
M15
G01X199.0Y-126.8
M16
G05
G00X203.0Y-132.5
M15
G01X203.0Y-130.5
M16
G05
T0
M30
