G04 #@! TF.GenerationSoftware,KiCad,Pcbnew,(5.1.4)-1*
G04 #@! TF.CreationDate,2020-01-17T21:09:57+02:00*
G04 #@! TF.ProjectId,flypi_v2,666c7970-695f-4763-922e-6b696361645f,rev?*
G04 #@! TF.SameCoordinates,Original*
G04 #@! TF.FileFunction,Other,Fab,Top*
%FSLAX46Y46*%
G04 Gerber Fmt 4.6, Leading zero omitted, Abs format (unit mm)*
G04 Created by KiCad (PCBNEW (5.1.4)-1) date 2020-01-17 21:09:57*
%MOMM*%
%LPD*%
G04 APERTURE LIST*
%ADD10C,0.100000*%
%ADD11C,0.280000*%
%ADD12C,0.127000*%
%ADD13C,0.150000*%
G04 APERTURE END LIST*
D10*
X143250000Y-89150000D02*
X140750000Y-89150000D01*
X143250000Y-91650000D02*
X143250000Y-89150000D01*
X142850000Y-101950000D02*
X142850000Y-89550000D01*
X137100000Y-101950000D02*
X142850000Y-101950000D01*
X137100000Y-89550000D02*
X137100000Y-101950000D01*
X142850000Y-89550000D02*
X137100000Y-89550000D01*
X153250000Y-73650000D02*
X150750000Y-73650000D01*
X153250000Y-76150000D02*
X153250000Y-73650000D01*
X152850000Y-86450000D02*
X152850000Y-74050000D01*
X147100000Y-86450000D02*
X152850000Y-86450000D01*
X147100000Y-74050000D02*
X147100000Y-86450000D01*
X152850000Y-74050000D02*
X147100000Y-74050000D01*
X143250000Y-73650000D02*
X140750000Y-73650000D01*
X143250000Y-76150000D02*
X143250000Y-73650000D01*
X142850000Y-86450000D02*
X142850000Y-74050000D01*
X137100000Y-86450000D02*
X142850000Y-86450000D01*
X137100000Y-74050000D02*
X137100000Y-86450000D01*
X142850000Y-74050000D02*
X137100000Y-74050000D01*
X143250000Y-104650000D02*
X140750000Y-104650000D01*
X143250000Y-107150000D02*
X143250000Y-104650000D01*
X142850000Y-117450000D02*
X142850000Y-105050000D01*
X137100000Y-117450000D02*
X142850000Y-117450000D01*
X137100000Y-105050000D02*
X137100000Y-117450000D01*
X142850000Y-105050000D02*
X137100000Y-105050000D01*
D11*
X156240000Y-69360000D02*
G75*
G03X156240000Y-69360000I-140000J0D01*
G01*
X156240000Y-69360000D02*
G75*
G03X156240000Y-69360000I-140000J0D01*
G01*
D12*
X156750000Y-116510000D02*
X156750000Y-62110000D01*
X184650000Y-116510000D02*
X156750000Y-116510000D01*
X184650000Y-62110000D02*
X184650000Y-116510000D01*
X156750000Y-62110000D02*
X184650000Y-62110000D01*
D10*
X172350000Y-143750000D02*
X172350000Y-141250000D01*
X169850000Y-143750000D02*
X172350000Y-143750000D01*
X159550000Y-143350000D02*
X171950000Y-143350000D01*
X159550000Y-137600000D02*
X159550000Y-143350000D01*
X171950000Y-137600000D02*
X159550000Y-137600000D01*
X171950000Y-143350000D02*
X171950000Y-137600000D01*
X186850000Y-143750000D02*
X186850000Y-141250000D01*
X184350000Y-143750000D02*
X186850000Y-143750000D01*
X174050000Y-143350000D02*
X186450000Y-143350000D01*
X174050000Y-137600000D02*
X174050000Y-143350000D01*
X186450000Y-137600000D02*
X174050000Y-137600000D01*
X186450000Y-143350000D02*
X186450000Y-137600000D01*
X200950000Y-143350000D02*
X200950000Y-137600000D01*
X200950000Y-137600000D02*
X188550000Y-137600000D01*
X188550000Y-137600000D02*
X188550000Y-143350000D01*
X188550000Y-143350000D02*
X200950000Y-143350000D01*
X198850000Y-143750000D02*
X201350000Y-143750000D01*
X201350000Y-143750000D02*
X201350000Y-141250000D01*
X157850000Y-143750000D02*
X157850000Y-141250000D01*
X155350000Y-143750000D02*
X157850000Y-143750000D01*
X145050000Y-143350000D02*
X157450000Y-143350000D01*
X145050000Y-137600000D02*
X145050000Y-143350000D01*
X157450000Y-137600000D02*
X145050000Y-137600000D01*
X157450000Y-143350000D02*
X157450000Y-137600000D01*
X181250000Y-120150000D02*
X178750000Y-120150000D01*
X181250000Y-122650000D02*
X181250000Y-120150000D01*
X180850000Y-132950000D02*
X180850000Y-120550000D01*
X175100000Y-132950000D02*
X180850000Y-132950000D01*
X175100000Y-120550000D02*
X175100000Y-132950000D01*
X180850000Y-120550000D02*
X175100000Y-120550000D01*
X172250000Y-120150000D02*
X169750000Y-120150000D01*
X172250000Y-122650000D02*
X172250000Y-120150000D01*
X171850000Y-132950000D02*
X171850000Y-120550000D01*
X166100000Y-132950000D02*
X171850000Y-132950000D01*
X166100000Y-120550000D02*
X166100000Y-132950000D01*
X171850000Y-120550000D02*
X166100000Y-120550000D01*
X163250000Y-120150000D02*
X160750000Y-120150000D01*
X163250000Y-122650000D02*
X163250000Y-120150000D01*
X162850000Y-132950000D02*
X162850000Y-120550000D01*
X157100000Y-132950000D02*
X162850000Y-132950000D01*
X157100000Y-120550000D02*
X157100000Y-132950000D01*
X162850000Y-120550000D02*
X157100000Y-120550000D01*
X153250000Y-120150000D02*
X150750000Y-120150000D01*
X153250000Y-122650000D02*
X153250000Y-120150000D01*
X152850000Y-132950000D02*
X152850000Y-120550000D01*
X147100000Y-132950000D02*
X152850000Y-132950000D01*
X147100000Y-120550000D02*
X147100000Y-132950000D01*
X152850000Y-120550000D02*
X147100000Y-120550000D01*
X143250000Y-120150000D02*
X140750000Y-120150000D01*
X143250000Y-122650000D02*
X143250000Y-120150000D01*
X142850000Y-132950000D02*
X142850000Y-120550000D01*
X137100000Y-132950000D02*
X142850000Y-132950000D01*
X137100000Y-120550000D02*
X137100000Y-132950000D01*
X142850000Y-120550000D02*
X137100000Y-120550000D01*
X153250000Y-104650000D02*
X150750000Y-104650000D01*
X153250000Y-107150000D02*
X153250000Y-104650000D01*
X152850000Y-117450000D02*
X152850000Y-105050000D01*
X147100000Y-117450000D02*
X152850000Y-117450000D01*
X147100000Y-105050000D02*
X147100000Y-117450000D01*
X152850000Y-105050000D02*
X147100000Y-105050000D01*
X153250000Y-89150000D02*
X150750000Y-89150000D01*
X153250000Y-91650000D02*
X153250000Y-89150000D01*
X152850000Y-101950000D02*
X152850000Y-89550000D01*
X147100000Y-101950000D02*
X152850000Y-101950000D01*
X147100000Y-89550000D02*
X147100000Y-101950000D01*
X152850000Y-89550000D02*
X147100000Y-89550000D01*
X197000000Y-136000000D02*
X210700000Y-136000000D01*
X196200000Y-127000000D02*
X196200000Y-135250000D01*
X210700000Y-127000000D02*
X196200000Y-127000000D01*
X210700000Y-136000000D02*
X210700000Y-127000000D01*
X207200000Y-136000000D02*
X207200000Y-127000000D01*
X197003213Y-136005425D02*
X196200000Y-135250000D01*
D13*
M02*
