G04 #@! TF.GenerationSoftware,KiCad,Pcbnew,(6.0.1)*
G04 #@! TF.CreationDate,2022-01-19T14:13:58+00:00*
G04 #@! TF.ProjectId,power_supply,706f7765-725f-4737-9570-706c792e6b69,rev?*
G04 #@! TF.SameCoordinates,Original*
G04 #@! TF.FileFunction,Copper,L1,Top*
G04 #@! TF.FilePolarity,Positive*
%FSLAX46Y46*%
G04 Gerber Fmt 4.6, Leading zero omitted, Abs format (unit mm)*
G04 Created by KiCad (PCBNEW (6.0.1)) date 2022-01-19 14:13:58*
%MOMM*%
%LPD*%
G01*
G04 APERTURE LIST*
G04 Aperture macros list*
%AMRoundRect*
0 Rectangle with rounded corners*
0 $1 Rounding radius*
0 $2 $3 $4 $5 $6 $7 $8 $9 X,Y pos of 4 corners*
0 Add a 4 corners polygon primitive as box body*
4,1,4,$2,$3,$4,$5,$6,$7,$8,$9,$2,$3,0*
0 Add four circle primitives for the rounded corners*
1,1,$1+$1,$2,$3*
1,1,$1+$1,$4,$5*
1,1,$1+$1,$6,$7*
1,1,$1+$1,$8,$9*
0 Add four rect primitives between the rounded corners*
20,1,$1+$1,$2,$3,$4,$5,0*
20,1,$1+$1,$4,$5,$6,$7,0*
20,1,$1+$1,$6,$7,$8,$9,0*
20,1,$1+$1,$8,$9,$2,$3,0*%
G04 Aperture macros list end*
G04 #@! TA.AperFunction,ComponentPad*
%ADD10R,1.600000X1.600000*%
G04 #@! TD*
G04 #@! TA.AperFunction,ComponentPad*
%ADD11C,1.600000*%
G04 #@! TD*
G04 #@! TA.AperFunction,ComponentPad*
%ADD12C,2.150000*%
G04 #@! TD*
G04 #@! TA.AperFunction,ComponentPad*
%ADD13O,1.700000X2.000000*%
G04 #@! TD*
G04 #@! TA.AperFunction,ComponentPad*
%ADD14RoundRect,0.250000X0.600000X0.750000X-0.600000X0.750000X-0.600000X-0.750000X0.600000X-0.750000X0*%
G04 #@! TD*
G04 #@! TA.AperFunction,ComponentPad*
%ADD15O,2.000000X1.700000*%
G04 #@! TD*
G04 #@! TA.AperFunction,ComponentPad*
%ADD16RoundRect,0.250000X-0.750000X0.600000X-0.750000X-0.600000X0.750000X-0.600000X0.750000X0.600000X0*%
G04 #@! TD*
G04 #@! TA.AperFunction,ComponentPad*
%ADD17C,2.000000*%
G04 #@! TD*
G04 #@! TA.AperFunction,ComponentPad*
%ADD18C,1.800000*%
G04 #@! TD*
G04 #@! TA.AperFunction,ComponentPad*
%ADD19R,1.800000X1.800000*%
G04 #@! TD*
G04 #@! TA.AperFunction,ComponentPad*
%ADD20RoundRect,0.250000X0.750000X-0.600000X0.750000X0.600000X-0.750000X0.600000X-0.750000X-0.600000X0*%
G04 #@! TD*
G04 #@! TA.AperFunction,ComponentPad*
%ADD21R,2.000000X2.000000*%
G04 #@! TD*
G04 #@! TA.AperFunction,ComponentPad*
%ADD22R,2.600000X2.600000*%
G04 #@! TD*
G04 #@! TA.AperFunction,ComponentPad*
%ADD23O,2.600000X2.600000*%
G04 #@! TD*
G04 #@! TA.AperFunction,ComponentPad*
%ADD24C,2.400000*%
G04 #@! TD*
G04 #@! TA.AperFunction,ComponentPad*
%ADD25O,1.800000X1.800000*%
G04 #@! TD*
G04 #@! TA.AperFunction,Conductor*
%ADD26C,1.000000*%
G04 #@! TD*
G04 #@! TA.AperFunction,Conductor*
%ADD27C,1.500000*%
G04 #@! TD*
G04 #@! TA.AperFunction,Conductor*
%ADD28C,1.250000*%
G04 #@! TD*
G04 #@! TA.AperFunction,Conductor*
%ADD29C,1.200000*%
G04 #@! TD*
G04 APERTURE END LIST*
D10*
X178500000Y-146000000D03*
D11*
X178500000Y-144000000D03*
X178500000Y-142000000D03*
X178500000Y-140000000D03*
D12*
X181220000Y-139730000D03*
X175780000Y-139730000D03*
X181220000Y-146730000D03*
X175780000Y-146730000D03*
D13*
X189000000Y-156000000D03*
D14*
X191500000Y-156000000D03*
D15*
X199500000Y-147500000D03*
D16*
X199500000Y-145000000D03*
D17*
X162500000Y-140000000D03*
X171500000Y-140000000D03*
D18*
X162500000Y-144960000D03*
D19*
X162500000Y-147500000D03*
D20*
X163000000Y-125000000D03*
D15*
X163000000Y-122500000D03*
D20*
X163000000Y-134000000D03*
D15*
X163000000Y-131500000D03*
D17*
X179500000Y-131000000D03*
D21*
X174500000Y-131000000D03*
D10*
X192000000Y-119000000D03*
D11*
X192000000Y-115200000D03*
D22*
X186000000Y-134500000D03*
D23*
X186000000Y-149740000D03*
D16*
X199500000Y-125000000D03*
D15*
X199500000Y-127500000D03*
D16*
X199500000Y-135000000D03*
D15*
X199500000Y-137500000D03*
D24*
X186000000Y-127000000D03*
X191000000Y-127000000D03*
D19*
X174500000Y-121500000D03*
D25*
X176200000Y-117800000D03*
X177900000Y-121500000D03*
X179600000Y-117800000D03*
X181300000Y-121500000D03*
D26*
X178500000Y-149500000D02*
X178500000Y-146000000D01*
X182000000Y-153000000D02*
X178500000Y-149500000D01*
X194000000Y-153000000D02*
X182000000Y-153000000D01*
X195500000Y-126000000D02*
X195500000Y-151500000D01*
X195500000Y-151500000D02*
X194000000Y-153000000D01*
X191500000Y-156000000D02*
X191500000Y-153000000D01*
X192500000Y-153000000D02*
X191500000Y-154000000D01*
X191500000Y-154000000D02*
X190500000Y-153000000D01*
D27*
X167500000Y-128500000D02*
X167500000Y-129500000D01*
X167500000Y-126000000D02*
X167500000Y-128500000D01*
X166500000Y-125000000D02*
X167500000Y-126000000D01*
X163000000Y-125000000D02*
X166500000Y-125000000D01*
X166500000Y-134000000D02*
X167500000Y-133000000D01*
X163000000Y-134000000D02*
X166500000Y-134000000D01*
D28*
X167500000Y-132500000D02*
X169000000Y-131000000D01*
D27*
X167500000Y-128804402D02*
X167500000Y-128500000D01*
X167500000Y-133000000D02*
X167500000Y-129804402D01*
X169000000Y-131000000D02*
X174500000Y-131000000D01*
X167500000Y-129500000D02*
X169000000Y-131000000D01*
D29*
X174500000Y-137000000D02*
X171500000Y-140000000D01*
X174500000Y-131000000D02*
X174500000Y-137000000D01*
D27*
X174500000Y-131000000D02*
X174500000Y-121500000D01*
D26*
X196500000Y-145000000D02*
X195500000Y-146000000D01*
X195500000Y-144000000D02*
X196500000Y-145000000D01*
X196500000Y-135000000D02*
X195500000Y-136000000D01*
X195500000Y-134000000D02*
X196500000Y-135000000D01*
X195500000Y-128000000D02*
X194500000Y-127000000D01*
X195500000Y-145000000D02*
X199500000Y-145000000D01*
X190000000Y-117000000D02*
X192000000Y-119000000D01*
X180400000Y-117000000D02*
X190000000Y-117000000D01*
X179600000Y-117800000D02*
X180400000Y-117000000D01*
X191000000Y-125302944D02*
X191000000Y-127000000D01*
X192000000Y-124302944D02*
X191000000Y-125302944D01*
X192000000Y-119000000D02*
X192000000Y-124302944D01*
X195500000Y-135000000D02*
X199500000Y-135000000D01*
X191000000Y-127000000D02*
X194500000Y-127000000D01*
X194500000Y-127000000D02*
X195500000Y-126000000D01*
X194500000Y-127000000D02*
X195000000Y-127000000D01*
X196500000Y-125000000D02*
X195500000Y-126000000D01*
X199500000Y-125000000D02*
X196500000Y-125000000D01*
D29*
X162500000Y-140000000D02*
X162500000Y-144960000D01*
D27*
X186000000Y-123000000D02*
X186000000Y-127000000D01*
D28*
X178000000Y-119600000D02*
X176200000Y-117800000D01*
X182500000Y-119600000D02*
X178000000Y-119600000D01*
D27*
X186000000Y-123100000D02*
X182500000Y-119600000D01*
X186000000Y-134000000D02*
X186000000Y-127000000D01*
M02*
