G04 #@! TF.GenerationSoftware,KiCad,Pcbnew,5.1.10-88a1d61d58~90~ubuntu20.04.1*
G04 #@! TF.CreationDate,2022-01-16T22:24:50+00:00*
G04 #@! TF.ProjectId,driver,64726976-6572-42e6-9b69-6361645f7063,rev?*
G04 #@! TF.SameCoordinates,Original*
G04 #@! TF.FileFunction,Copper,L1,Top*
G04 #@! TF.FilePolarity,Positive*
%FSLAX46Y46*%
G04 Gerber Fmt 4.6, Leading zero omitted, Abs format (unit mm)*
G04 Created by KiCad (PCBNEW 5.1.10-88a1d61d58~90~ubuntu20.04.1) date 2022-01-16 22:24:50*
%MOMM*%
%LPD*%
G01*
G04 APERTURE LIST*
G04 #@! TA.AperFunction,ComponentPad*
%ADD10O,2.000000X1.700000*%
G04 #@! TD*
G04 #@! TA.AperFunction,ComponentPad*
%ADD11O,1.600000X1.600000*%
G04 #@! TD*
G04 #@! TA.AperFunction,ComponentPad*
%ADD12R,1.600000X1.600000*%
G04 #@! TD*
G04 #@! TA.AperFunction,ComponentPad*
%ADD13C,2.000000*%
G04 #@! TD*
G04 #@! TA.AperFunction,ComponentPad*
%ADD14O,1.905000X2.000000*%
G04 #@! TD*
G04 #@! TA.AperFunction,ComponentPad*
%ADD15R,1.905000X2.000000*%
G04 #@! TD*
G04 #@! TA.AperFunction,ComponentPad*
%ADD16C,2.400000*%
G04 #@! TD*
G04 #@! TA.AperFunction,ComponentPad*
%ADD17O,1.950000X1.700000*%
G04 #@! TD*
G04 #@! TA.AperFunction,ComponentPad*
%ADD18C,1.800000*%
G04 #@! TD*
G04 #@! TA.AperFunction,ComponentPad*
%ADD19R,1.800000X1.800000*%
G04 #@! TD*
G04 #@! TA.AperFunction,ComponentPad*
%ADD20C,1.600000*%
G04 #@! TD*
G04 #@! TA.AperFunction,Conductor*
%ADD21C,0.750000*%
G04 #@! TD*
G04 #@! TA.AperFunction,Conductor*
%ADD22C,1.000000*%
G04 #@! TD*
G04 #@! TA.AperFunction,Conductor*
%ADD23C,0.500000*%
G04 #@! TD*
G04 APERTURE END LIST*
D10*
X128500000Y-95000000D03*
G04 #@! TA.AperFunction,ComponentPad*
G36*
G01*
X129250000Y-98350000D02*
X127750000Y-98350000D01*
G75*
G02*
X127500000Y-98100000I0J250000D01*
G01*
X127500000Y-96900000D01*
G75*
G02*
X127750000Y-96650000I250000J0D01*
G01*
X129250000Y-96650000D01*
G75*
G02*
X129500000Y-96900000I0J-250000D01*
G01*
X129500000Y-98100000D01*
G75*
G02*
X129250000Y-98350000I-250000J0D01*
G01*
G37*
G04 #@! TD.AperFunction*
D11*
X162120000Y-85500000D03*
X154500000Y-93120000D03*
X162120000Y-88040000D03*
X154500000Y-90580000D03*
X162120000Y-90580000D03*
X154500000Y-88040000D03*
X162120000Y-93120000D03*
D12*
X154500000Y-85500000D03*
D11*
X150620000Y-97000000D03*
X143000000Y-104620000D03*
X150620000Y-99540000D03*
X143000000Y-102080000D03*
X150620000Y-102080000D03*
X143000000Y-99540000D03*
X150620000Y-104620000D03*
D12*
X143000000Y-97000000D03*
D13*
X138000000Y-84500000D03*
X138000000Y-75500000D03*
X143000000Y-75500000D03*
X143000000Y-84500000D03*
X183000000Y-80500000D03*
X183000000Y-89500000D03*
X172500000Y-106500000D03*
X172500000Y-97500000D03*
X178000000Y-80500000D03*
X178000000Y-89500000D03*
X166500000Y-106500000D03*
X166500000Y-97500000D03*
X168000000Y-80500000D03*
X168000000Y-89500000D03*
X161000000Y-106500000D03*
X161000000Y-97500000D03*
X173000000Y-89500000D03*
X173000000Y-80500000D03*
X155000000Y-106500000D03*
X155000000Y-97500000D03*
D14*
X185080000Y-76000000D03*
X182540000Y-76000000D03*
D15*
X180000000Y-76000000D03*
D14*
X166920000Y-111500000D03*
X169460000Y-111500000D03*
D15*
X172000000Y-111500000D03*
D14*
X173580000Y-76000000D03*
X171040000Y-76000000D03*
D15*
X168500000Y-76000000D03*
D14*
X155420000Y-111500000D03*
X157960000Y-111500000D03*
D15*
X160500000Y-111500000D03*
D16*
X183500000Y-98000000D03*
X178500000Y-98000000D03*
X183500000Y-109500000D03*
X178500000Y-109500000D03*
D10*
X190500000Y-93000000D03*
G04 #@! TA.AperFunction,ComponentPad*
G36*
G01*
X189750000Y-89650000D02*
X191250000Y-89650000D01*
G75*
G02*
X191500000Y-89900000I0J-250000D01*
G01*
X191500000Y-91100000D01*
G75*
G02*
X191250000Y-91350000I-250000J0D01*
G01*
X189750000Y-91350000D01*
G75*
G02*
X189500000Y-91100000I0J250000D01*
G01*
X189500000Y-89900000D01*
G75*
G02*
X189750000Y-89650000I250000J0D01*
G01*
G37*
G04 #@! TD.AperFunction*
D17*
X128500000Y-81000000D03*
X128500000Y-83500000D03*
X128500000Y-86000000D03*
G04 #@! TA.AperFunction,ComponentPad*
G36*
G01*
X129225000Y-89350000D02*
X127775000Y-89350000D01*
G75*
G02*
X127525000Y-89100000I0J250000D01*
G01*
X127525000Y-87900000D01*
G75*
G02*
X127775000Y-87650000I250000J0D01*
G01*
X129225000Y-87650000D01*
G75*
G02*
X129475000Y-87900000I0J-250000D01*
G01*
X129475000Y-89100000D01*
G75*
G02*
X129225000Y-89350000I-250000J0D01*
G01*
G37*
G04 #@! TD.AperFunction*
D10*
X128500000Y-104000000D03*
G04 #@! TA.AperFunction,ComponentPad*
G36*
G01*
X129250000Y-107350000D02*
X127750000Y-107350000D01*
G75*
G02*
X127500000Y-107100000I0J250000D01*
G01*
X127500000Y-105900000D01*
G75*
G02*
X127750000Y-105650000I250000J0D01*
G01*
X129250000Y-105650000D01*
G75*
G02*
X129500000Y-105900000I0J-250000D01*
G01*
X129500000Y-107100000D01*
G75*
G02*
X129250000Y-107350000I-250000J0D01*
G01*
G37*
G04 #@! TD.AperFunction*
D18*
X149000000Y-81960000D03*
D19*
X149000000Y-84500000D03*
D18*
X149000000Y-75460000D03*
D19*
X149000000Y-78000000D03*
D20*
X154500000Y-77000000D03*
X154500000Y-82000000D03*
X150500000Y-88500000D03*
X150500000Y-93500000D03*
X190500000Y-101500000D03*
D12*
X190500000Y-99500000D03*
D20*
X190500000Y-107500000D03*
D12*
X190500000Y-105500000D03*
D20*
X162000000Y-77000000D03*
X162000000Y-82000000D03*
X143500000Y-88500000D03*
X143500000Y-93500000D03*
D12*
X138000000Y-93500000D03*
D20*
X138000000Y-95500000D03*
D21*
X130500000Y-97500000D02*
X131540000Y-98540000D01*
D22*
X143500000Y-96500000D02*
X143000000Y-97000000D01*
X143500000Y-93500000D02*
X143500000Y-96500000D01*
X143500000Y-93500000D02*
X150500000Y-93500000D01*
X150500000Y-96880000D02*
X150620000Y-97000000D01*
X150500000Y-93500000D02*
X150500000Y-96880000D01*
X155000000Y-111080000D02*
X155420000Y-111500000D01*
X155000000Y-106500000D02*
X155000000Y-111080000D01*
X149500000Y-106500000D02*
X155000000Y-106500000D01*
X148500000Y-105500000D02*
X149500000Y-106500000D01*
X148500000Y-99000000D02*
X148500000Y-105500000D01*
X150620000Y-97000000D02*
X150500000Y-97000000D01*
X150500000Y-97000000D02*
X148500000Y-99000000D01*
X154500000Y-82000000D02*
X154500000Y-85500000D01*
X170000000Y-86500000D02*
X173000000Y-89500000D01*
X163120000Y-86500000D02*
X170000000Y-86500000D01*
X162120000Y-85500000D02*
X163120000Y-86500000D01*
X175500000Y-77920000D02*
X173580000Y-76000000D01*
X175500000Y-87000000D02*
X175500000Y-77920000D01*
X173000000Y-89500000D02*
X175500000Y-87000000D01*
X131500000Y-97500000D02*
X128500000Y-97500000D01*
X131500000Y-98500000D02*
X131500000Y-97500000D01*
X131500000Y-105000000D02*
X131500000Y-98500000D01*
X130000000Y-106500000D02*
X131500000Y-105000000D01*
X128500000Y-106500000D02*
X130000000Y-106500000D01*
X162000000Y-82000000D02*
X154500000Y-82000000D01*
X162120000Y-82120000D02*
X162000000Y-82000000D01*
X162120000Y-85500000D02*
X162120000Y-82120000D01*
X153500000Y-82000000D02*
X154500000Y-82000000D01*
X152500000Y-83000000D02*
X153500000Y-82000000D01*
X152500000Y-92500000D02*
X152500000Y-83000000D01*
X151500000Y-93500000D02*
X152500000Y-92500000D01*
X150500000Y-93500000D02*
X151500000Y-93500000D01*
X138000000Y-93500000D02*
X138000000Y-84500000D01*
X131500000Y-97500000D02*
X135500000Y-93500000D01*
X135500000Y-93500000D02*
X143500000Y-93500000D01*
X187500000Y-105500000D02*
X190500000Y-105500000D01*
X183500000Y-109500000D02*
X187500000Y-105500000D01*
X191500000Y-90500000D02*
X190500000Y-90500000D01*
X193000000Y-92000000D02*
X191500000Y-90500000D01*
X193000000Y-104050000D02*
X193000000Y-92000000D01*
X190500000Y-105500000D02*
X191550000Y-105500000D01*
X191550000Y-105500000D02*
X193000000Y-104050000D01*
X190500000Y-99500000D02*
X190500000Y-93000000D01*
X185000000Y-99500000D02*
X190500000Y-99500000D01*
X183500000Y-98000000D02*
X185000000Y-99500000D01*
D23*
X143040000Y-75460000D02*
X143000000Y-75500000D01*
X149000000Y-75460000D02*
X143040000Y-75460000D01*
D21*
X144460000Y-81960000D02*
X149000000Y-81960000D01*
X138000000Y-75500000D02*
X144460000Y-81960000D01*
D23*
X129000000Y-83000000D02*
X128500000Y-83500000D01*
X141500000Y-83000000D02*
X129000000Y-83000000D01*
X143000000Y-84500000D02*
X141500000Y-83000000D01*
D21*
X169500000Y-113000000D02*
X170540000Y-114040000D01*
X169500000Y-113000000D02*
X168460000Y-114040000D01*
D22*
X178500000Y-109750000D02*
X178500000Y-109500000D01*
X170500000Y-114000000D02*
X174750000Y-114000000D01*
X157960000Y-113210000D02*
X158750000Y-114000000D01*
X157960000Y-111500000D02*
X157960000Y-113210000D01*
X178500000Y-110250000D02*
X178125000Y-110625000D01*
X178500000Y-109500000D02*
X178500000Y-110250000D01*
X174750000Y-114000000D02*
X178125000Y-110625000D01*
X169460000Y-113960000D02*
X169500000Y-114000000D01*
X169460000Y-111500000D02*
X169460000Y-113960000D01*
X169500000Y-114000000D02*
X170500000Y-114000000D01*
X158750000Y-114000000D02*
X169500000Y-114000000D01*
D21*
X182460000Y-74540000D02*
X183500000Y-73500000D01*
X182540000Y-74540000D02*
X181500000Y-73500000D01*
D22*
X182540000Y-76000000D02*
X182540000Y-74040000D01*
X171040000Y-75460000D02*
X171040000Y-76000000D01*
X173000000Y-73500000D02*
X171040000Y-75460000D01*
X186000000Y-73500000D02*
X173000000Y-73500000D01*
X187500000Y-75000000D02*
X186000000Y-73500000D01*
X187500000Y-89000000D02*
X187500000Y-75000000D01*
X178500000Y-98000000D02*
X187500000Y-89000000D01*
D21*
X155000000Y-100500000D02*
X161000000Y-106500000D01*
X155000000Y-97500000D02*
X155000000Y-100500000D01*
X161000000Y-111000000D02*
X160500000Y-111500000D01*
X161000000Y-106500000D02*
X161000000Y-111000000D01*
X173000000Y-80500000D02*
X168000000Y-80500000D01*
X168000000Y-76500000D02*
X168500000Y-76000000D01*
X168000000Y-80500000D02*
X168000000Y-76500000D01*
X166500000Y-106500000D02*
X172500000Y-106500000D01*
X172500000Y-111000000D02*
X172000000Y-111500000D01*
X172500000Y-106500000D02*
X172500000Y-111000000D01*
X183000000Y-80500000D02*
X178000000Y-80500000D01*
X178000000Y-78000000D02*
X178000000Y-80500000D01*
X180000000Y-76000000D02*
X178000000Y-78000000D01*
X150620000Y-102080000D02*
X150620000Y-99540000D01*
X159000000Y-95500000D02*
X161000000Y-97500000D01*
X154500000Y-95500000D02*
X159000000Y-95500000D01*
X150620000Y-99540000D02*
X150620000Y-99380000D01*
X150620000Y-99380000D02*
X154500000Y-95500000D01*
X161000000Y-97500000D02*
X166500000Y-97500000D01*
X162120000Y-90580000D02*
X162120000Y-88040000D01*
X176000000Y-91500000D02*
X178000000Y-89500000D01*
X170000000Y-91500000D02*
X176000000Y-91500000D01*
X168000000Y-89500000D02*
X170000000Y-91500000D01*
X165500000Y-89500000D02*
X168000000Y-89500000D01*
X164420000Y-90580000D02*
X165500000Y-89500000D01*
X162120000Y-90580000D02*
X164420000Y-90580000D01*
M02*
