M48
; DRILL file {KiCad 9.0.2} date 2025-05-20T13:36:22+0100
; FORMAT={-:-/ absolute / metric / decimal}
; #@! TF.CreationDate,2025-05-20T13:36:22+01:00
; #@! TF.GenerationSoftware,Kicad,Pcbnew,9.0.2
; #@! TF.FileFunction,Plated,1,2,PTH
FMAT,2
METRIC
; #@! TA.AperFunction,Plated,PTH,ComponentDrill
T1C0.800
; #@! TA.AperFunction,Plated,PTH,ComponentDrill
T2C0.950
%
G90
G05
T1
X98.649Y-124.066
X98.776Y-89.817
X98.776Y-106.92
X100.649Y-124.066
X100.776Y-89.817
X100.776Y-106.92
X102.649Y-124.066
X102.776Y-89.817
X102.776Y-106.92
X104.649Y-124.066
X104.776Y-89.817
X104.776Y-106.92
X117.752Y-124.087
X117.879Y-89.817
X117.879Y-106.959
X119.752Y-124.087
X119.879Y-89.817
X119.879Y-106.959
X121.752Y-124.087
X121.879Y-89.817
X121.879Y-106.959
X123.752Y-124.087
X123.879Y-89.817
X123.879Y-106.959
X136.856Y-124.151
X136.993Y-89.877
X136.993Y-107.022
X138.856Y-124.151
X138.993Y-89.877
X138.993Y-107.022
X140.856Y-124.151
X140.993Y-89.877
X140.993Y-107.022
X142.856Y-124.151
X142.993Y-89.877
X142.993Y-107.022
X155.959Y-124.087
X156.087Y-107.025
X156.17Y-89.877
X157.959Y-124.087
X158.087Y-107.025
X158.17Y-89.877
X159.959Y-124.087
X160.087Y-107.025
X160.17Y-89.877
X161.959Y-124.087
X162.087Y-107.025
X162.17Y-89.877
T2
X98.149Y-128.065
X98.276Y-93.817
X98.276Y-110.92
X100.649Y-128.065
X100.776Y-93.817
X100.776Y-110.92
X103.149Y-128.065
X103.276Y-93.817
X103.276Y-110.92
X105.649Y-128.065
X105.776Y-93.817
X105.776Y-110.92
X117.252Y-128.088
X117.379Y-93.817
X117.379Y-110.959
X119.752Y-128.088
X119.879Y-93.817
X119.879Y-110.959
X122.252Y-128.088
X122.379Y-93.817
X122.379Y-110.959
X124.752Y-128.088
X124.879Y-93.817
X124.879Y-110.959
X136.356Y-128.151
X136.493Y-93.877
X136.493Y-111.022
X138.856Y-128.151
X138.993Y-93.877
X138.993Y-111.022
X141.356Y-128.151
X141.493Y-93.877
X141.493Y-111.022
X143.856Y-128.151
X143.993Y-93.877
X143.993Y-111.022
X155.459Y-128.088
X155.587Y-111.025
X155.67Y-93.877
X157.959Y-128.088
X158.087Y-111.025
X158.17Y-93.877
X160.459Y-128.088
X160.587Y-111.025
X160.67Y-93.877
X162.959Y-128.088
X163.087Y-111.025
X163.17Y-93.877
M30
