%TF.GenerationSoftware,KiCad,Pcbnew,9.0.2*%
%TF.CreationDate,2025-05-20T13:36:18+01:00*%
%TF.ProjectId,grove_adaptor_panel,67726f76-655f-4616-9461-70746f725f70,rev?*%
%TF.SameCoordinates,Original*%
%TF.FileFunction,Other,ECO2*%
%FSLAX46Y46*%
G04 Gerber Fmt 4.6, Leading zero omitted, Abs format (unit mm)*
G04 Created by KiCad (PCBNEW 9.0.2) date 2025-05-20 13:36:18*
%MOMM*%
%LPD*%
G01*
G04 APERTURE LIST*
%ADD10C,0.100000*%
G04 APERTURE END LIST*
D10*
X147351000Y-130992000D02*
X147351000Y-132642000D01*
X151951000Y-130992000D02*
X147351000Y-130992000D01*
X151951000Y-132592000D02*
X151951000Y-130992000D01*
X166451000Y-132592000D02*
X151951000Y-132592000D01*
X166451000Y-120092000D02*
X166451000Y-132592000D01*
X164051000Y-120092000D02*
X166451000Y-120092000D01*
X164101000Y-115492000D02*
X164051000Y-120092000D01*
X166601000Y-115492000D02*
X164101000Y-115492000D01*
X166576000Y-102992000D02*
X166601000Y-115492000D01*
X164026000Y-102992000D02*
X166576000Y-102992000D01*
X163976000Y-98392000D02*
X164026000Y-102992000D01*
X166676000Y-98392000D02*
X163976000Y-98392000D01*
X166676000Y-85892000D02*
X166676000Y-98392000D01*
X152076000Y-85867000D02*
X166676000Y-85892000D01*
X152076000Y-87767000D02*
X152076000Y-85867000D01*
X147476000Y-87767000D02*
X152076000Y-87767000D01*
X147476000Y-85867000D02*
X147476000Y-87767000D01*
X132976000Y-85867000D02*
X147476000Y-85867000D01*
X132976000Y-87667000D02*
X132976000Y-85867000D01*
X128376000Y-87667000D02*
X132976000Y-87667000D01*
X128376000Y-85817000D02*
X128376000Y-87667000D01*
X113876000Y-85817000D02*
X128376000Y-85817000D01*
X113876000Y-87567000D02*
X113876000Y-85817000D01*
X113876000Y-87567000D02*
G75*
G02*
X109276000Y-87567000I-2300000J0D01*
G01*
X109276000Y-85817000D02*
X109276000Y-87567000D01*
X94776000Y-85817000D02*
X109276000Y-85817000D01*
X147351000Y-132642000D02*
X132851000Y-132642000D01*
X132851000Y-132642000D02*
X132851000Y-130842000D01*
X132851000Y-130842000D02*
X128251000Y-130842000D01*
X128251000Y-130842000D02*
X128251000Y-132592000D01*
X128251000Y-132592000D02*
X113751000Y-132592000D01*
X113751000Y-132592000D02*
X113751000Y-130792000D01*
X113751000Y-130792000D02*
X109151000Y-130792000D01*
X109151000Y-130792000D02*
X109151000Y-132542000D01*
X109151000Y-132542000D02*
X94651000Y-132542000D01*
X94651000Y-132542000D02*
X94651000Y-120017000D01*
X94651000Y-120017000D02*
X97851000Y-120017000D01*
X97851000Y-120017000D02*
X97851000Y-115417000D01*
X97851000Y-115417000D02*
X94776000Y-115417000D01*
X94776000Y-115417000D02*
X94776000Y-102867000D01*
X94776000Y-102867000D02*
X97926000Y-102867000D01*
X97926000Y-102867000D02*
X97926000Y-98292000D01*
X97926000Y-98292000D02*
X94776000Y-98292000D01*
X94776000Y-98292000D02*
X94776000Y-85817000D01*
M02*
