%TF.GenerationSoftware,KiCad,Pcbnew,9.0.2*%
%TF.CreationDate,2025-05-20T13:36:18+01:00*%
%TF.ProjectId,grove_adaptor_panel,67726f76-655f-4616-9461-70746f725f70,rev?*%
%TF.SameCoordinates,Original*%
%TF.FileFunction,Other,ECO1*%
%FSLAX46Y46*%
G04 Gerber Fmt 4.6, Leading zero omitted, Abs format (unit mm)*
G04 Created by KiCad (PCBNEW 9.0.2) date 2025-05-20 13:36:18*
%MOMM*%
%LPD*%
G01*
G04 APERTURE LIST*
%ADD10C,0.150000*%
%ADD11C,4.508000*%
G04 APERTURE END LIST*
D10*
X107400095Y-96763319D02*
X107495333Y-96763319D01*
X107495333Y-96763319D02*
X107590571Y-96810938D01*
X107590571Y-96810938D02*
X107638190Y-96858557D01*
X107638190Y-96858557D02*
X107685809Y-96953795D01*
X107685809Y-96953795D02*
X107733428Y-97144271D01*
X107733428Y-97144271D02*
X107733428Y-97382366D01*
X107733428Y-97382366D02*
X107685809Y-97572842D01*
X107685809Y-97572842D02*
X107638190Y-97668080D01*
X107638190Y-97668080D02*
X107590571Y-97715700D01*
X107590571Y-97715700D02*
X107495333Y-97763319D01*
X107495333Y-97763319D02*
X107400095Y-97763319D01*
X107400095Y-97763319D02*
X107304857Y-97715700D01*
X107304857Y-97715700D02*
X107257238Y-97668080D01*
X107257238Y-97668080D02*
X107209619Y-97572842D01*
X107209619Y-97572842D02*
X107162000Y-97382366D01*
X107162000Y-97382366D02*
X107162000Y-97144271D01*
X107162000Y-97144271D02*
X107209619Y-96953795D01*
X107209619Y-96953795D02*
X107257238Y-96858557D01*
X107257238Y-96858557D02*
X107304857Y-96810938D01*
X107304857Y-96810938D02*
X107400095Y-96763319D01*
X108162000Y-97668080D02*
X108209619Y-97715700D01*
X108209619Y-97715700D02*
X108162000Y-97763319D01*
X108162000Y-97763319D02*
X108114381Y-97715700D01*
X108114381Y-97715700D02*
X108162000Y-97668080D01*
X108162000Y-97668080D02*
X108162000Y-97763319D01*
X109114380Y-96763319D02*
X108638190Y-96763319D01*
X108638190Y-96763319D02*
X108590571Y-97239509D01*
X108590571Y-97239509D02*
X108638190Y-97191890D01*
X108638190Y-97191890D02*
X108733428Y-97144271D01*
X108733428Y-97144271D02*
X108971523Y-97144271D01*
X108971523Y-97144271D02*
X109066761Y-97191890D01*
X109066761Y-97191890D02*
X109114380Y-97239509D01*
X109114380Y-97239509D02*
X109161999Y-97334747D01*
X109161999Y-97334747D02*
X109161999Y-97572842D01*
X109161999Y-97572842D02*
X109114380Y-97668080D01*
X109114380Y-97668080D02*
X109066761Y-97715700D01*
X109066761Y-97715700D02*
X108971523Y-97763319D01*
X108971523Y-97763319D02*
X108733428Y-97763319D01*
X108733428Y-97763319D02*
X108638190Y-97715700D01*
X108638190Y-97715700D02*
X108590571Y-97668080D01*
X109495333Y-96763319D02*
X110161999Y-96763319D01*
X110161999Y-96763319D02*
X109733428Y-97763319D01*
X110733428Y-96763319D02*
X110828666Y-96763319D01*
X110828666Y-96763319D02*
X110923904Y-96810938D01*
X110923904Y-96810938D02*
X110971523Y-96858557D01*
X110971523Y-96858557D02*
X111019142Y-96953795D01*
X111019142Y-96953795D02*
X111066761Y-97144271D01*
X111066761Y-97144271D02*
X111066761Y-97382366D01*
X111066761Y-97382366D02*
X111019142Y-97572842D01*
X111019142Y-97572842D02*
X110971523Y-97668080D01*
X110971523Y-97668080D02*
X110923904Y-97715700D01*
X110923904Y-97715700D02*
X110828666Y-97763319D01*
X110828666Y-97763319D02*
X110733428Y-97763319D01*
X110733428Y-97763319D02*
X110638190Y-97715700D01*
X110638190Y-97715700D02*
X110590571Y-97668080D01*
X110590571Y-97668080D02*
X110542952Y-97572842D01*
X110542952Y-97572842D02*
X110495333Y-97382366D01*
X110495333Y-97382366D02*
X110495333Y-97144271D01*
X110495333Y-97144271D02*
X110542952Y-96953795D01*
X110542952Y-96953795D02*
X110590571Y-96858557D01*
X110590571Y-96858557D02*
X110638190Y-96810938D01*
X110638190Y-96810938D02*
X110733428Y-96763319D01*
X111542952Y-97763319D02*
X111733428Y-97763319D01*
X111733428Y-97763319D02*
X111828666Y-97715700D01*
X111828666Y-97715700D02*
X111876285Y-97668080D01*
X111876285Y-97668080D02*
X111971523Y-97525223D01*
X111971523Y-97525223D02*
X112019142Y-97334747D01*
X112019142Y-97334747D02*
X112019142Y-96953795D01*
X112019142Y-96953795D02*
X111971523Y-96858557D01*
X111971523Y-96858557D02*
X111923904Y-96810938D01*
X111923904Y-96810938D02*
X111828666Y-96763319D01*
X111828666Y-96763319D02*
X111638190Y-96763319D01*
X111638190Y-96763319D02*
X111542952Y-96810938D01*
X111542952Y-96810938D02*
X111495333Y-96858557D01*
X111495333Y-96858557D02*
X111447714Y-96953795D01*
X111447714Y-96953795D02*
X111447714Y-97191890D01*
X111447714Y-97191890D02*
X111495333Y-97287128D01*
X111495333Y-97287128D02*
X111542952Y-97334747D01*
X111542952Y-97334747D02*
X111638190Y-97382366D01*
X111638190Y-97382366D02*
X111828666Y-97382366D01*
X111828666Y-97382366D02*
X111923904Y-97334747D01*
X111923904Y-97334747D02*
X111971523Y-97287128D01*
X111971523Y-97287128D02*
X112019142Y-97191890D01*
X113209619Y-97763319D02*
X113209619Y-97096652D01*
X113209619Y-96763319D02*
X113162000Y-96810938D01*
X113162000Y-96810938D02*
X113209619Y-96858557D01*
X113209619Y-96858557D02*
X113257238Y-96810938D01*
X113257238Y-96810938D02*
X113209619Y-96763319D01*
X113209619Y-96763319D02*
X113209619Y-96858557D01*
X113685809Y-97096652D02*
X113685809Y-97763319D01*
X113685809Y-97191890D02*
X113733428Y-97144271D01*
X113733428Y-97144271D02*
X113828666Y-97096652D01*
X113828666Y-97096652D02*
X113971523Y-97096652D01*
X113971523Y-97096652D02*
X114066761Y-97144271D01*
X114066761Y-97144271D02*
X114114380Y-97239509D01*
X114114380Y-97239509D02*
X114114380Y-97763319D01*
X117912000Y-102958500D02*
X117912000Y-97872080D01*
X103412000Y-102958500D02*
X103412000Y-97872080D01*
X117912000Y-98458500D02*
X103412000Y-98458500D01*
X117912000Y-98458500D02*
X116785496Y-99044921D01*
X117912000Y-98458500D02*
X116785496Y-97872079D01*
X103412000Y-98458500D02*
X104538504Y-97872079D01*
X103412000Y-98458500D02*
X104538504Y-99044921D01*
D11*
%TO.C,mouse-bite-5mm-slot*%
X97917000Y-100584000D02*
X97917000Y-100584000D01*
X106553000Y-100644000D02*
X106553000Y-100644000D01*
X130683000Y-87693500D02*
X130683000Y-87693500D01*
X130683000Y-96329500D02*
X130683000Y-96329500D01*
X117034000Y-100647500D02*
X117034000Y-100647500D01*
X125670000Y-100647500D02*
X125670000Y-100647500D01*
X130556000Y-122241000D02*
X130556000Y-122241000D01*
X130556000Y-130877000D02*
X130556000Y-130877000D01*
X155388000Y-117792500D02*
X155388000Y-117792500D01*
X164024000Y-117792500D02*
X164024000Y-117792500D01*
X111506000Y-113407500D02*
X111506000Y-113407500D01*
X111566000Y-104771500D02*
X111566000Y-104771500D01*
X155321000Y-100711000D02*
X155321000Y-100711000D01*
X163957000Y-100711000D02*
X163957000Y-100711000D01*
X149796500Y-104898500D02*
X149796500Y-104898500D01*
X149796500Y-113534500D02*
X149796500Y-113534500D01*
X111442500Y-122110500D02*
X111442500Y-122110500D01*
X111442500Y-130746500D02*
X111442500Y-130746500D01*
X149669500Y-122368000D02*
X149669500Y-122368000D01*
X149669500Y-131004000D02*
X149669500Y-131004000D01*
X130683000Y-104835000D02*
X130683000Y-104835000D01*
X130683000Y-113471000D02*
X130683000Y-113471000D01*
X136147500Y-117852500D02*
X136147500Y-117852500D01*
X144783500Y-117852500D02*
X144783500Y-117852500D01*
X111506000Y-96266000D02*
X111506000Y-96266000D01*
X111566000Y-87630000D02*
X111566000Y-87630000D01*
X97857000Y-117729000D02*
X97857000Y-117729000D01*
X106493000Y-117729000D02*
X106493000Y-117729000D01*
X117034000Y-117789000D02*
X117034000Y-117789000D01*
X125670000Y-117789000D02*
X125670000Y-117789000D01*
X149796500Y-87753500D02*
X149796500Y-87753500D01*
X149796500Y-96389500D02*
X149796500Y-96389500D01*
X136147500Y-100707500D02*
X136147500Y-100707500D01*
X144783500Y-100707500D02*
X144783500Y-100707500D01*
%TD*%
M02*
