M48
; DRILL file {KiCad (5.1.7)-1} date 05/25/21 19:38:47
; FORMAT={-:-/ absolute / metric / decimal}
; #@! TF.CreationDate,2021-05-25T19:38:47+01:00
; #@! TF.GenerationSoftware,Kicad,Pcbnew,(5.1.7)-1
; #@! TF.FileFunction,Plated,1,2,PTH
FMAT,2
METRIC
T1C0.800
T2C0.900
T3C1.000
T4C1.100
T5C1.200
T6C1.300
T7C1.600
%
G90
G05
T1
X143.5Y-117.0
X145.5Y-117.0
X139.5Y-92.0
X139.5Y-97.0
X119.0Y-90.0
X124.0Y-90.0
X127.5Y-89.5
X127.5Y-92.04
X127.5Y-94.58
X127.5Y-97.12
X135.12Y-89.5
X135.12Y-92.04
X135.12Y-94.58
X135.12Y-97.12
T2
X109.0Y-90.0
X111.54Y-90.0
T3
X110.0Y-96.0
X110.0Y-98.5
X145.5Y-105.5
X145.5Y-108.0
X110.0Y-105.5
X110.0Y-108.0
T4
X126.42Y-123.5
X128.96Y-123.5
X131.5Y-123.5
T5
X122.5Y-106.5
X135.2Y-106.5
X122.5Y-101.5
X135.2Y-101.5
X117.5Y-94.3
X117.5Y-107.0
X120.0Y-84.5
X132.7Y-84.5
X122.5Y-111.5
X135.2Y-111.5
T6
X113.0Y-118.0
X116.5Y-118.0
T7
X122.76Y-118.0
X138.0Y-118.0
T0
M30
