%TF.GenerationSoftware,KiCad,Pcbnew,(5.1.10)-1*%
%TF.CreationDate,2022-03-14T15:34:22+00:00*%
%TF.ProjectId,testing_board,74657374-696e-4675-9f62-6f6172642e6b,rev?*%
%TF.SameCoordinates,Original*%
%TF.FileFunction,Other,Fab,Top*%
%FSLAX46Y46*%
G04 Gerber Fmt 4.6, Leading zero omitted, Abs format (unit mm)*
G04 Created by KiCad (PCBNEW (5.1.10)-1) date 2022-03-14 15:34:22*
%MOMM*%
%LPD*%
G01*
G04 APERTURE LIST*
%ADD10C,0.100000*%
%ADD11C,0.150000*%
G04 APERTURE END LIST*
D10*
%TO.C,J8*%
X50546000Y-90123000D02*
X49921000Y-91123000D01*
X51171000Y-91123000D02*
X50546000Y-90123000D01*
X40596000Y-91123000D02*
X52996000Y-91123000D01*
X40596000Y-85373000D02*
X40596000Y-91123000D01*
X52996000Y-85373000D02*
X40596000Y-85373000D01*
X52996000Y-91123000D02*
X52996000Y-85373000D01*
%TO.C,D1*%
X56999810Y-162790000D02*
X59332190Y-162790000D01*
X59666000Y-161290000D02*
G75*
G03*
X59666000Y-161290000I-1500000J0D01*
G01*
X59331476Y-162790555D02*
G75*
G03*
X56999810Y-162790000I-1165476J1500555D01*
G01*
%TO.C,D2*%
X50141000Y-161417000D02*
G75*
G03*
X50141000Y-161417000I-1500000J0D01*
G01*
X47474810Y-162917000D02*
X49807190Y-162917000D01*
X49806476Y-162917555D02*
G75*
G03*
X47474810Y-162917000I-1165476J1500555D01*
G01*
%TO.C,D3*%
X32996000Y-160782000D02*
G75*
G03*
X32996000Y-160782000I-1500000J0D01*
G01*
X30329810Y-162282000D02*
X32662190Y-162282000D01*
X32661476Y-162282555D02*
G75*
G03*
X30329810Y-162282000I-1165476J1500555D01*
G01*
%TO.C,D4*%
X106021000Y-163195000D02*
G75*
G03*
X106021000Y-163195000I-1500000J0D01*
G01*
X106021000Y-164361190D02*
X106021000Y-162028810D01*
X106021555Y-162029524D02*
G75*
G03*
X106021000Y-164361190I-1500555J-1165476D01*
G01*
%TO.C,D5*%
X112879000Y-164361190D02*
X112879000Y-162028810D01*
X112879000Y-163195000D02*
G75*
G03*
X112879000Y-163195000I-1500000J0D01*
G01*
X112879555Y-162029524D02*
G75*
G03*
X112879000Y-164361190I-1500555J-1165476D01*
G01*
%TO.C,D6*%
X33504810Y-131548000D02*
X35837190Y-131548000D01*
X36171000Y-130048000D02*
G75*
G03*
X36171000Y-130048000I-1500000J0D01*
G01*
X35836476Y-131548555D02*
G75*
G03*
X33504810Y-131548000I-1165476J1500555D01*
G01*
%TO.C,D7*%
X36171000Y-136906000D02*
G75*
G03*
X36171000Y-136906000I-1500000J0D01*
G01*
X33504810Y-138406000D02*
X35837190Y-138406000D01*
X35836476Y-138406555D02*
G75*
G03*
X33504810Y-138406000I-1165476J1500555D01*
G01*
%TO.C,D8*%
X23852000Y-160782000D02*
G75*
G03*
X23852000Y-160782000I-1500000J0D01*
G01*
X21185810Y-162282000D02*
X23518190Y-162282000D01*
X23517476Y-162282555D02*
G75*
G03*
X21185810Y-162282000I-1165476J1500555D01*
G01*
%TO.C,D9*%
X39600000Y-114450190D02*
X39600000Y-112117810D01*
X39600000Y-113284000D02*
G75*
G03*
X39600000Y-113284000I-1500000J0D01*
G01*
X39600555Y-112118524D02*
G75*
G03*
X39600000Y-114450190I-1500555J-1165476D01*
G01*
%TO.C,D10*%
X33758000Y-114450190D02*
X33758000Y-112117810D01*
X33758000Y-113284000D02*
G75*
G03*
X33758000Y-113284000I-1500000J0D01*
G01*
X33758555Y-112118524D02*
G75*
G03*
X33758000Y-114450190I-1500555J-1165476D01*
G01*
%TO.C,D11*%
X28043000Y-114450190D02*
X28043000Y-112117810D01*
X28043000Y-113284000D02*
G75*
G03*
X28043000Y-113284000I-1500000J0D01*
G01*
X28043555Y-112118524D02*
G75*
G03*
X28043000Y-114450190I-1500555J-1165476D01*
G01*
%TO.C,D12*%
X22328000Y-113411000D02*
G75*
G03*
X22328000Y-113411000I-1500000J0D01*
G01*
X22328000Y-114577190D02*
X22328000Y-112244810D01*
X22328555Y-112245524D02*
G75*
G03*
X22328000Y-114577190I-1500555J-1165476D01*
G01*
%TO.C,D13*%
X45108190Y-135406000D02*
X42775810Y-135406000D01*
X45442000Y-136906000D02*
G75*
G03*
X45442000Y-136906000I-1500000J0D01*
G01*
X42776524Y-135405445D02*
G75*
G03*
X45108190Y-135406000I1165476J-1500555D01*
G01*
%TO.C,D14*%
X45442000Y-130048000D02*
G75*
G03*
X45442000Y-130048000I-1500000J0D01*
G01*
X42775810Y-131548000D02*
X45108190Y-131548000D01*
X45107476Y-131548555D02*
G75*
G03*
X42775810Y-131548000I-1165476J1500555D01*
G01*
%TO.C,D15*%
X61952000Y-114450190D02*
X61952000Y-112117810D01*
X61952000Y-113284000D02*
G75*
G03*
X61952000Y-113284000I-1500000J0D01*
G01*
X61952555Y-112118524D02*
G75*
G03*
X61952000Y-114450190I-1500555J-1165476D01*
G01*
%TO.C,D16*%
X56364000Y-113284000D02*
G75*
G03*
X56364000Y-113284000I-1500000J0D01*
G01*
X56364000Y-114450190D02*
X56364000Y-112117810D01*
X56364555Y-112118524D02*
G75*
G03*
X56364000Y-114450190I-1500555J-1165476D01*
G01*
%TO.C,D17*%
X50776000Y-114450190D02*
X50776000Y-112117810D01*
X50776000Y-113284000D02*
G75*
G03*
X50776000Y-113284000I-1500000J0D01*
G01*
X50776555Y-112118524D02*
G75*
G03*
X50776000Y-114450190I-1500555J-1165476D01*
G01*
%TO.C,D18*%
X45315000Y-113284000D02*
G75*
G03*
X45315000Y-113284000I-1500000J0D01*
G01*
X45315000Y-114450190D02*
X45315000Y-112117810D01*
X45315555Y-112118524D02*
G75*
G03*
X45315000Y-114450190I-1500555J-1165476D01*
G01*
%TO.C,J1*%
X47334000Y-173672000D02*
X47334000Y-179422000D01*
X47334000Y-179422000D02*
X59734000Y-179422000D01*
X59734000Y-179422000D02*
X59734000Y-173672000D01*
X59734000Y-173672000D02*
X47334000Y-173672000D01*
X49159000Y-173672000D02*
X49784000Y-174672000D01*
X49784000Y-174672000D02*
X50409000Y-173672000D01*
%TO.C,J2*%
X23495000Y-174545000D02*
X24120000Y-173545000D01*
X22870000Y-173545000D02*
X23495000Y-174545000D01*
X33445000Y-173545000D02*
X21045000Y-173545000D01*
X33445000Y-179295000D02*
X33445000Y-173545000D01*
X21045000Y-179295000D02*
X33445000Y-179295000D01*
X21045000Y-173545000D02*
X21045000Y-179295000D01*
%TO.C,J3*%
X104267000Y-173275000D02*
X104892000Y-172275000D01*
X103642000Y-172275000D02*
X104267000Y-173275000D01*
X114217000Y-172275000D02*
X101817000Y-172275000D01*
X114217000Y-178025000D02*
X114217000Y-172275000D01*
X101817000Y-178025000D02*
X114217000Y-178025000D01*
X101817000Y-172275000D02*
X101817000Y-178025000D01*
%TO.C,J4*%
X25591000Y-127344000D02*
X19841000Y-127344000D01*
X19841000Y-127344000D02*
X19841000Y-139744000D01*
X19841000Y-139744000D02*
X25591000Y-139744000D01*
X25591000Y-139744000D02*
X25591000Y-127344000D01*
X25591000Y-129169000D02*
X24591000Y-129794000D01*
X24591000Y-129794000D02*
X25591000Y-130419000D01*
%TO.C,J5*%
X78449000Y-171513000D02*
X78449000Y-177263000D01*
X78449000Y-177263000D02*
X90849000Y-177263000D01*
X90849000Y-177263000D02*
X90849000Y-171513000D01*
X90849000Y-171513000D02*
X78449000Y-171513000D01*
X80274000Y-171513000D02*
X80899000Y-172513000D01*
X80899000Y-172513000D02*
X81524000Y-171513000D01*
%TO.C,R1*%
X60617000Y-169545000D02*
G75*
G03*
X60617000Y-169545000I-800000J0D01*
G01*
X59817000Y-169545000D02*
X59817000Y-167005000D01*
%TO.C,R2*%
X51092000Y-167132000D02*
G75*
G03*
X51092000Y-167132000I-800000J0D01*
G01*
X50292000Y-167132000D02*
X50292000Y-169672000D01*
%TO.C,R3*%
X33020000Y-166878000D02*
X33020000Y-169418000D01*
X33820000Y-166878000D02*
G75*
G03*
X33820000Y-166878000I-800000J0D01*
G01*
%TO.C,R4*%
X106591000Y-169291000D02*
G75*
G03*
X106591000Y-169291000I-800000J0D01*
G01*
X105791000Y-169291000D02*
X103251000Y-169291000D01*
%TO.C,R5*%
X112395000Y-169291000D02*
X109855000Y-169291000D01*
X113195000Y-169291000D02*
G75*
G03*
X113195000Y-169291000I-800000J0D01*
G01*
%TO.C,R6*%
X29375000Y-131318000D02*
G75*
G03*
X29375000Y-131318000I-800000J0D01*
G01*
X28575000Y-131318000D02*
X28575000Y-128778000D01*
%TO.C,R7*%
X29375000Y-137922000D02*
G75*
G03*
X29375000Y-137922000I-800000J0D01*
G01*
X28575000Y-137922000D02*
X28575000Y-135382000D01*
%TO.C,R8*%
X56261000Y-169418000D02*
X56261000Y-166878000D01*
X57061000Y-169418000D02*
G75*
G03*
X57061000Y-169418000I-800000J0D01*
G01*
%TO.C,R9*%
X30391000Y-169291000D02*
G75*
G03*
X30391000Y-169291000I-800000J0D01*
G01*
X29591000Y-169291000D02*
X29591000Y-166751000D01*
%TO.C,R10*%
X20574000Y-169291000D02*
X20574000Y-166751000D01*
X21374000Y-169291000D02*
G75*
G03*
X21374000Y-169291000I-800000J0D01*
G01*
%TO.C,R11*%
X23876000Y-169291000D02*
X23876000Y-166751000D01*
X24676000Y-169291000D02*
G75*
G03*
X24676000Y-169291000I-800000J0D01*
G01*
%TO.C,R12*%
X46736000Y-169418000D02*
X46736000Y-166878000D01*
X47536000Y-169418000D02*
G75*
G03*
X47536000Y-169418000I-800000J0D01*
G01*
%TO.C,R13*%
X39027000Y-118110000D02*
G75*
G03*
X39027000Y-118110000I-800000J0D01*
G01*
X38227000Y-118110000D02*
X38227000Y-120650000D01*
%TO.C,R14*%
X32258000Y-118110000D02*
X32258000Y-120650000D01*
X33058000Y-118110000D02*
G75*
G03*
X33058000Y-118110000I-800000J0D01*
G01*
%TO.C,R15*%
X27470000Y-118237000D02*
G75*
G03*
X27470000Y-118237000I-800000J0D01*
G01*
X26670000Y-118237000D02*
X26670000Y-120777000D01*
%TO.C,R16*%
X20828000Y-118237000D02*
X20828000Y-120777000D01*
X21628000Y-118237000D02*
G75*
G03*
X21628000Y-118237000I-800000J0D01*
G01*
%TO.C,R17*%
X86017000Y-167005000D02*
G75*
G03*
X86017000Y-167005000I-800000J0D01*
G01*
X85217000Y-167005000D02*
X85217000Y-164465000D01*
%TO.C,R18*%
X103289000Y-146685000D02*
G75*
G03*
X103289000Y-146685000I-800000J0D01*
G01*
X102489000Y-146685000D02*
X105029000Y-146685000D01*
%TO.C,R19*%
X81407000Y-167005000D02*
X81407000Y-164465000D01*
X82207000Y-167005000D02*
G75*
G03*
X82207000Y-167005000I-800000J0D01*
G01*
%TO.C,R20*%
X79921000Y-132207000D02*
G75*
G03*
X79921000Y-132207000I-800000J0D01*
G01*
X79121000Y-132207000D02*
X79121000Y-129667000D01*
%TO.C,R21*%
X51816000Y-131572000D02*
X49276000Y-131572000D01*
X52616000Y-131572000D02*
G75*
G03*
X52616000Y-131572000I-800000J0D01*
G01*
%TO.C,R22*%
X60325000Y-118110000D02*
X60325000Y-120650000D01*
X61125000Y-118110000D02*
G75*
G03*
X61125000Y-118110000I-800000J0D01*
G01*
%TO.C,R23*%
X55537000Y-118110000D02*
G75*
G03*
X55537000Y-118110000I-800000J0D01*
G01*
X54737000Y-118110000D02*
X54737000Y-120650000D01*
%TO.C,R24*%
X49276000Y-118110000D02*
X49276000Y-120650000D01*
X50076000Y-118110000D02*
G75*
G03*
X50076000Y-118110000I-800000J0D01*
G01*
%TO.C,R25*%
X44488000Y-118110000D02*
G75*
G03*
X44488000Y-118110000I-800000J0D01*
G01*
X43688000Y-118110000D02*
X43688000Y-120650000D01*
%TO.C,RV1*%
X87977000Y-147655000D02*
X87977000Y-159655000D01*
X97777000Y-147655000D02*
X87977000Y-147655000D01*
X97777000Y-159655000D02*
X97777000Y-147655000D01*
X87977000Y-159655000D02*
X97777000Y-159655000D01*
X95877000Y-153155000D02*
G75*
G03*
X95877000Y-153155000I-3000000J0D01*
G01*
%TO.C,RV2*%
X80637000Y-153155000D02*
G75*
G03*
X80637000Y-153155000I-3000000J0D01*
G01*
X72737000Y-159655000D02*
X82537000Y-159655000D01*
X82537000Y-159655000D02*
X82537000Y-147655000D01*
X82537000Y-147655000D02*
X72737000Y-147655000D01*
X72737000Y-147655000D02*
X72737000Y-159655000D01*
%TO.C,SW1*%
X60145564Y-152198000D02*
G75*
G03*
X60145564Y-152198000I-2015564J0D01*
G01*
X55130000Y-155198000D02*
X55130000Y-152198000D01*
X61130000Y-155198000D02*
X55130000Y-155198000D01*
X61130000Y-149198000D02*
X61130000Y-155198000D01*
X55130000Y-149198000D02*
X61130000Y-149198000D01*
X55130000Y-152198000D02*
X55130000Y-149198000D01*
%TO.C,SW2*%
X45478000Y-152198000D02*
X45478000Y-149198000D01*
X45478000Y-149198000D02*
X51478000Y-149198000D01*
X51478000Y-149198000D02*
X51478000Y-155198000D01*
X51478000Y-155198000D02*
X45478000Y-155198000D01*
X45478000Y-155198000D02*
X45478000Y-152198000D01*
X50493564Y-152198000D02*
G75*
G03*
X50493564Y-152198000I-2015564J0D01*
G01*
%TO.C,SW3*%
X28460000Y-151690000D02*
X28460000Y-148690000D01*
X28460000Y-148690000D02*
X34460000Y-148690000D01*
X34460000Y-148690000D02*
X34460000Y-154690000D01*
X34460000Y-154690000D02*
X28460000Y-154690000D01*
X28460000Y-154690000D02*
X28460000Y-151690000D01*
X33475564Y-151690000D02*
G75*
G03*
X33475564Y-151690000I-2015564J0D01*
G01*
%TO.C,SW4*%
X24331564Y-151690000D02*
G75*
G03*
X24331564Y-151690000I-2015564J0D01*
G01*
X19316000Y-154690000D02*
X19316000Y-151690000D01*
X25316000Y-154690000D02*
X19316000Y-154690000D01*
X25316000Y-148690000D02*
X25316000Y-154690000D01*
X19316000Y-148690000D02*
X25316000Y-148690000D01*
X19316000Y-151690000D02*
X19316000Y-148690000D01*
D11*
%TO.C,U1*%
X103989000Y-138035000D02*
X103989000Y-142635000D01*
X103984758Y-138032792D02*
G75*
G03*
X103989000Y-142635000I-1195758J-2302208D01*
G01*
X100189000Y-140335000D02*
G75*
G03*
X102789000Y-142935000I2600000J0D01*
G01*
%TO.C,U2*%
X95099000Y-138035000D02*
X95099000Y-142635000D01*
X91299000Y-140335000D02*
G75*
G03*
X93899000Y-142935000I2600000J0D01*
G01*
X95094758Y-138032792D02*
G75*
G03*
X95099000Y-142635000I-1195758J-2302208D01*
G01*
D10*
%TO.C,J16*%
X107759000Y-147865000D02*
X113509000Y-147865000D01*
X113509000Y-147865000D02*
X113509000Y-135465000D01*
X113509000Y-135465000D02*
X107759000Y-135465000D01*
X107759000Y-135465000D02*
X107759000Y-147865000D01*
X107759000Y-146040000D02*
X108759000Y-145415000D01*
X108759000Y-145415000D02*
X107759000Y-144790000D01*
%TO.C,R26*%
X89027000Y-167005000D02*
X89027000Y-164465000D01*
X89827000Y-167005000D02*
G75*
G03*
X89827000Y-167005000I-800000J0D01*
G01*
%TO.C,D21*%
X96115000Y-130683000D02*
G75*
G03*
X96115000Y-130683000I-1500000J0D01*
G01*
X93448810Y-132183000D02*
X95781190Y-132183000D01*
X95780476Y-132183555D02*
G75*
G03*
X93448810Y-132183000I-1165476J1500555D01*
G01*
%TO.C,D22*%
X71223810Y-132310000D02*
X73556190Y-132310000D01*
X73890000Y-130810000D02*
G75*
G03*
X73890000Y-130810000I-1500000J0D01*
G01*
X73555476Y-132310555D02*
G75*
G03*
X71223810Y-132310000I-1165476J1500555D01*
G01*
%TO.C,J7*%
X36867000Y-91123000D02*
X36867000Y-85373000D01*
X36867000Y-85373000D02*
X24467000Y-85373000D01*
X24467000Y-85373000D02*
X24467000Y-91123000D01*
X24467000Y-91123000D02*
X36867000Y-91123000D01*
X35042000Y-91123000D02*
X34417000Y-90123000D01*
X34417000Y-90123000D02*
X33792000Y-91123000D01*
%TO.C,J9*%
X92239000Y-91250000D02*
X92239000Y-85500000D01*
X92239000Y-85500000D02*
X79839000Y-85500000D01*
X79839000Y-85500000D02*
X79839000Y-91250000D01*
X79839000Y-91250000D02*
X92239000Y-91250000D01*
X90414000Y-91250000D02*
X89789000Y-90250000D01*
X89789000Y-90250000D02*
X89164000Y-91250000D01*
%TO.C,R27*%
X52616000Y-135890000D02*
G75*
G03*
X52616000Y-135890000I-800000J0D01*
G01*
X51816000Y-135890000D02*
X49276000Y-135890000D01*
%TO.C,R28*%
X100965000Y-131953000D02*
X100965000Y-129413000D01*
X101765000Y-131953000D02*
G75*
G03*
X101765000Y-131953000I-800000J0D01*
G01*
%TO.C,RLY1*%
X104905000Y-103368000D02*
X88905000Y-103368000D01*
X105405000Y-103893000D02*
X105405000Y-125868000D01*
X105405000Y-103893000D02*
X104905000Y-103368000D01*
X88905000Y-103368000D02*
X88905000Y-125868000D01*
X105405000Y-125868000D02*
X88905000Y-125868000D01*
%TO.C,RLY2*%
X84323000Y-125868000D02*
X67823000Y-125868000D01*
X67823000Y-103368000D02*
X67823000Y-125868000D01*
X84323000Y-103893000D02*
X83823000Y-103368000D01*
X84323000Y-103893000D02*
X84323000Y-125868000D01*
X83823000Y-103368000D02*
X67823000Y-103368000D01*
%TO.C,U3*%
X26670000Y-103013000D02*
X26670000Y-97663000D01*
X26670000Y-97663000D02*
X52070000Y-97663000D01*
X52070000Y-97663000D02*
X52070000Y-104013000D01*
X52070000Y-104013000D02*
X27670000Y-104013000D01*
X27670000Y-104013000D02*
X26670000Y-103013000D01*
%TO.C,J6*%
X54927000Y-140245000D02*
X60677000Y-140245000D01*
X60677000Y-140245000D02*
X60677000Y-127845000D01*
X60677000Y-127845000D02*
X54927000Y-127845000D01*
X54927000Y-127845000D02*
X54927000Y-140245000D01*
X54927000Y-138420000D02*
X55927000Y-137795000D01*
X55927000Y-137795000D02*
X54927000Y-137170000D01*
%TO.C,D19*%
X101274000Y-100440000D02*
X101274000Y-95140000D01*
X101274000Y-95140000D02*
X92274000Y-95140000D01*
X92274000Y-95140000D02*
X92274000Y-100440000D01*
X92274000Y-100440000D02*
X101274000Y-100440000D01*
X104394000Y-97790000D02*
X101274000Y-97790000D01*
X89154000Y-97790000D02*
X92274000Y-97790000D01*
X99924000Y-100440000D02*
X99924000Y-95140000D01*
X99824000Y-100440000D02*
X99824000Y-95140000D01*
X100024000Y-100440000D02*
X100024000Y-95140000D01*
%TO.C,D20*%
X79450000Y-100440000D02*
X79450000Y-95140000D01*
X79250000Y-100440000D02*
X79250000Y-95140000D01*
X79350000Y-100440000D02*
X79350000Y-95140000D01*
X68580000Y-97790000D02*
X71700000Y-97790000D01*
X83820000Y-97790000D02*
X80700000Y-97790000D01*
X71700000Y-100440000D02*
X80700000Y-100440000D01*
X71700000Y-95140000D02*
X71700000Y-100440000D01*
X80700000Y-95140000D02*
X71700000Y-95140000D01*
X80700000Y-100440000D02*
X80700000Y-95140000D01*
%TD*%
%TO.C,J8*%
D11*
X43057904Y-84530142D02*
X43010285Y-84577761D01*
X42867428Y-84625380D01*
X42772190Y-84625380D01*
X42629333Y-84577761D01*
X42534095Y-84482523D01*
X42486476Y-84387285D01*
X42438857Y-84196809D01*
X42438857Y-84053952D01*
X42486476Y-83863476D01*
X42534095Y-83768238D01*
X42629333Y-83673000D01*
X42772190Y-83625380D01*
X42867428Y-83625380D01*
X43010285Y-83673000D01*
X43057904Y-83720619D01*
X43629333Y-84625380D02*
X43534095Y-84577761D01*
X43486476Y-84530142D01*
X43438857Y-84434904D01*
X43438857Y-84149190D01*
X43486476Y-84053952D01*
X43534095Y-84006333D01*
X43629333Y-83958714D01*
X43772190Y-83958714D01*
X43867428Y-84006333D01*
X43915047Y-84053952D01*
X43962666Y-84149190D01*
X43962666Y-84434904D01*
X43915047Y-84530142D01*
X43867428Y-84577761D01*
X43772190Y-84625380D01*
X43629333Y-84625380D01*
X44391238Y-83958714D02*
X44391238Y-84625380D01*
X44391238Y-84053952D02*
X44438857Y-84006333D01*
X44534095Y-83958714D01*
X44676952Y-83958714D01*
X44772190Y-84006333D01*
X44819809Y-84101571D01*
X44819809Y-84625380D01*
X45296000Y-83958714D02*
X45296000Y-84625380D01*
X45296000Y-84053952D02*
X45343619Y-84006333D01*
X45438857Y-83958714D01*
X45581714Y-83958714D01*
X45676952Y-84006333D01*
X45724571Y-84101571D01*
X45724571Y-84625380D01*
X45962666Y-84720619D02*
X46724571Y-84720619D01*
X47153142Y-83625380D02*
X47248380Y-83625380D01*
X47343619Y-83673000D01*
X47391238Y-83720619D01*
X47438857Y-83815857D01*
X47486476Y-84006333D01*
X47486476Y-84244428D01*
X47438857Y-84434904D01*
X47391238Y-84530142D01*
X47343619Y-84577761D01*
X47248380Y-84625380D01*
X47153142Y-84625380D01*
X47057904Y-84577761D01*
X47010285Y-84530142D01*
X46962666Y-84434904D01*
X46915047Y-84244428D01*
X46915047Y-84006333D01*
X46962666Y-83815857D01*
X47010285Y-83720619D01*
X47057904Y-83673000D01*
X47153142Y-83625380D01*
X48438857Y-84625380D02*
X47867428Y-84625380D01*
X48153142Y-84625380D02*
X48153142Y-83625380D01*
X48057904Y-83768238D01*
X47962666Y-83863476D01*
X47867428Y-83911095D01*
X48772190Y-84625380D02*
X49296000Y-83958714D01*
X48772190Y-83958714D02*
X49296000Y-84625380D01*
X49867428Y-83625380D02*
X49962666Y-83625380D01*
X50057904Y-83673000D01*
X50105523Y-83720619D01*
X50153142Y-83815857D01*
X50200761Y-84006333D01*
X50200761Y-84244428D01*
X50153142Y-84434904D01*
X50105523Y-84530142D01*
X50057904Y-84577761D01*
X49962666Y-84625380D01*
X49867428Y-84625380D01*
X49772190Y-84577761D01*
X49724571Y-84530142D01*
X49676952Y-84434904D01*
X49629333Y-84244428D01*
X49629333Y-84006333D01*
X49676952Y-83815857D01*
X49724571Y-83720619D01*
X49772190Y-83673000D01*
X49867428Y-83625380D01*
X51057904Y-83958714D02*
X51057904Y-84625380D01*
X50819809Y-83577761D02*
X50581714Y-84292047D01*
X51200761Y-84292047D01*
X46462666Y-85525380D02*
X46462666Y-86239666D01*
X46415047Y-86382523D01*
X46319809Y-86477761D01*
X46176952Y-86525380D01*
X46081714Y-86525380D01*
X47081714Y-85953952D02*
X46986476Y-85906333D01*
X46938857Y-85858714D01*
X46891238Y-85763476D01*
X46891238Y-85715857D01*
X46938857Y-85620619D01*
X46986476Y-85573000D01*
X47081714Y-85525380D01*
X47272190Y-85525380D01*
X47367428Y-85573000D01*
X47415047Y-85620619D01*
X47462666Y-85715857D01*
X47462666Y-85763476D01*
X47415047Y-85858714D01*
X47367428Y-85906333D01*
X47272190Y-85953952D01*
X47081714Y-85953952D01*
X46986476Y-86001571D01*
X46938857Y-86049190D01*
X46891238Y-86144428D01*
X46891238Y-86334904D01*
X46938857Y-86430142D01*
X46986476Y-86477761D01*
X47081714Y-86525380D01*
X47272190Y-86525380D01*
X47367428Y-86477761D01*
X47415047Y-86430142D01*
X47462666Y-86334904D01*
X47462666Y-86144428D01*
X47415047Y-86049190D01*
X47367428Y-86001571D01*
X47272190Y-85953952D01*
%TO.C,D1*%
X61578380Y-161932857D02*
X61578380Y-162409047D01*
X60578380Y-162409047D01*
X61054571Y-161599523D02*
X61054571Y-161266190D01*
X61578380Y-161123333D02*
X61578380Y-161599523D01*
X60578380Y-161599523D01*
X60578380Y-161123333D01*
X61578380Y-160694761D02*
X60578380Y-160694761D01*
X60578380Y-160456666D01*
X60626000Y-160313809D01*
X60721238Y-160218571D01*
X60816476Y-160170952D01*
X61006952Y-160123333D01*
X61149809Y-160123333D01*
X61340285Y-160170952D01*
X61435523Y-160218571D01*
X61530761Y-160313809D01*
X61578380Y-160456666D01*
X61578380Y-160694761D01*
%TO.C,D2*%
X52053380Y-162059857D02*
X52053380Y-162536047D01*
X51053380Y-162536047D01*
X51529571Y-161726523D02*
X51529571Y-161393190D01*
X52053380Y-161250333D02*
X52053380Y-161726523D01*
X51053380Y-161726523D01*
X51053380Y-161250333D01*
X52053380Y-160821761D02*
X51053380Y-160821761D01*
X51053380Y-160583666D01*
X51101000Y-160440809D01*
X51196238Y-160345571D01*
X51291476Y-160297952D01*
X51481952Y-160250333D01*
X51624809Y-160250333D01*
X51815285Y-160297952D01*
X51910523Y-160345571D01*
X52005761Y-160440809D01*
X52053380Y-160583666D01*
X52053380Y-160821761D01*
%TO.C,D3*%
X34908380Y-161424857D02*
X34908380Y-161901047D01*
X33908380Y-161901047D01*
X34384571Y-161091523D02*
X34384571Y-160758190D01*
X34908380Y-160615333D02*
X34908380Y-161091523D01*
X33908380Y-161091523D01*
X33908380Y-160615333D01*
X34908380Y-160186761D02*
X33908380Y-160186761D01*
X33908380Y-159948666D01*
X33956000Y-159805809D01*
X34051238Y-159710571D01*
X34146476Y-159662952D01*
X34336952Y-159615333D01*
X34479809Y-159615333D01*
X34670285Y-159662952D01*
X34765523Y-159710571D01*
X34860761Y-159805809D01*
X34908380Y-159948666D01*
X34908380Y-160186761D01*
%TO.C,D4*%
X103878142Y-160687380D02*
X103401952Y-160687380D01*
X103401952Y-159687380D01*
X104211476Y-160163571D02*
X104544809Y-160163571D01*
X104687666Y-160687380D02*
X104211476Y-160687380D01*
X104211476Y-159687380D01*
X104687666Y-159687380D01*
X105116238Y-160687380D02*
X105116238Y-159687380D01*
X105354333Y-159687380D01*
X105497190Y-159735000D01*
X105592428Y-159830238D01*
X105640047Y-159925476D01*
X105687666Y-160115952D01*
X105687666Y-160258809D01*
X105640047Y-160449285D01*
X105592428Y-160544523D01*
X105497190Y-160639761D01*
X105354333Y-160687380D01*
X105116238Y-160687380D01*
%TO.C,D5*%
X110736142Y-160687380D02*
X110259952Y-160687380D01*
X110259952Y-159687380D01*
X111069476Y-160163571D02*
X111402809Y-160163571D01*
X111545666Y-160687380D02*
X111069476Y-160687380D01*
X111069476Y-159687380D01*
X111545666Y-159687380D01*
X111974238Y-160687380D02*
X111974238Y-159687380D01*
X112212333Y-159687380D01*
X112355190Y-159735000D01*
X112450428Y-159830238D01*
X112498047Y-159925476D01*
X112545666Y-160115952D01*
X112545666Y-160258809D01*
X112498047Y-160449285D01*
X112450428Y-160544523D01*
X112355190Y-160639761D01*
X112212333Y-160687380D01*
X111974238Y-160687380D01*
%TO.C,D6*%
X38083380Y-130690857D02*
X38083380Y-131167047D01*
X37083380Y-131167047D01*
X37559571Y-130357523D02*
X37559571Y-130024190D01*
X38083380Y-129881333D02*
X38083380Y-130357523D01*
X37083380Y-130357523D01*
X37083380Y-129881333D01*
X38083380Y-129452761D02*
X37083380Y-129452761D01*
X37083380Y-129214666D01*
X37131000Y-129071809D01*
X37226238Y-128976571D01*
X37321476Y-128928952D01*
X37511952Y-128881333D01*
X37654809Y-128881333D01*
X37845285Y-128928952D01*
X37940523Y-128976571D01*
X38035761Y-129071809D01*
X38083380Y-129214666D01*
X38083380Y-129452761D01*
%TO.C,D7*%
X38083380Y-137548857D02*
X38083380Y-138025047D01*
X37083380Y-138025047D01*
X37559571Y-137215523D02*
X37559571Y-136882190D01*
X38083380Y-136739333D02*
X38083380Y-137215523D01*
X37083380Y-137215523D01*
X37083380Y-136739333D01*
X38083380Y-136310761D02*
X37083380Y-136310761D01*
X37083380Y-136072666D01*
X37131000Y-135929809D01*
X37226238Y-135834571D01*
X37321476Y-135786952D01*
X37511952Y-135739333D01*
X37654809Y-135739333D01*
X37845285Y-135786952D01*
X37940523Y-135834571D01*
X38035761Y-135929809D01*
X38083380Y-136072666D01*
X38083380Y-136310761D01*
%TO.C,D8*%
X25764380Y-161424857D02*
X25764380Y-161901047D01*
X24764380Y-161901047D01*
X25240571Y-161091523D02*
X25240571Y-160758190D01*
X25764380Y-160615333D02*
X25764380Y-161091523D01*
X24764380Y-161091523D01*
X24764380Y-160615333D01*
X25764380Y-160186761D02*
X24764380Y-160186761D01*
X24764380Y-159948666D01*
X24812000Y-159805809D01*
X24907238Y-159710571D01*
X25002476Y-159662952D01*
X25192952Y-159615333D01*
X25335809Y-159615333D01*
X25526285Y-159662952D01*
X25621523Y-159710571D01*
X25716761Y-159805809D01*
X25764380Y-159948666D01*
X25764380Y-160186761D01*
%TO.C,D9*%
X37457142Y-110776380D02*
X36980952Y-110776380D01*
X36980952Y-109776380D01*
X37790476Y-110252571D02*
X38123809Y-110252571D01*
X38266666Y-110776380D02*
X37790476Y-110776380D01*
X37790476Y-109776380D01*
X38266666Y-109776380D01*
X38695238Y-110776380D02*
X38695238Y-109776380D01*
X38933333Y-109776380D01*
X39076190Y-109824000D01*
X39171428Y-109919238D01*
X39219047Y-110014476D01*
X39266666Y-110204952D01*
X39266666Y-110347809D01*
X39219047Y-110538285D01*
X39171428Y-110633523D01*
X39076190Y-110728761D01*
X38933333Y-110776380D01*
X38695238Y-110776380D01*
%TO.C,D10*%
X31615142Y-110776380D02*
X31138952Y-110776380D01*
X31138952Y-109776380D01*
X31948476Y-110252571D02*
X32281809Y-110252571D01*
X32424666Y-110776380D02*
X31948476Y-110776380D01*
X31948476Y-109776380D01*
X32424666Y-109776380D01*
X32853238Y-110776380D02*
X32853238Y-109776380D01*
X33091333Y-109776380D01*
X33234190Y-109824000D01*
X33329428Y-109919238D01*
X33377047Y-110014476D01*
X33424666Y-110204952D01*
X33424666Y-110347809D01*
X33377047Y-110538285D01*
X33329428Y-110633523D01*
X33234190Y-110728761D01*
X33091333Y-110776380D01*
X32853238Y-110776380D01*
%TO.C,D11*%
X25900142Y-110776380D02*
X25423952Y-110776380D01*
X25423952Y-109776380D01*
X26233476Y-110252571D02*
X26566809Y-110252571D01*
X26709666Y-110776380D02*
X26233476Y-110776380D01*
X26233476Y-109776380D01*
X26709666Y-109776380D01*
X27138238Y-110776380D02*
X27138238Y-109776380D01*
X27376333Y-109776380D01*
X27519190Y-109824000D01*
X27614428Y-109919238D01*
X27662047Y-110014476D01*
X27709666Y-110204952D01*
X27709666Y-110347809D01*
X27662047Y-110538285D01*
X27614428Y-110633523D01*
X27519190Y-110728761D01*
X27376333Y-110776380D01*
X27138238Y-110776380D01*
%TO.C,D12*%
X20185142Y-110903380D02*
X19708952Y-110903380D01*
X19708952Y-109903380D01*
X20518476Y-110379571D02*
X20851809Y-110379571D01*
X20994666Y-110903380D02*
X20518476Y-110903380D01*
X20518476Y-109903380D01*
X20994666Y-109903380D01*
X21423238Y-110903380D02*
X21423238Y-109903380D01*
X21661333Y-109903380D01*
X21804190Y-109951000D01*
X21899428Y-110046238D01*
X21947047Y-110141476D01*
X21994666Y-110331952D01*
X21994666Y-110474809D01*
X21947047Y-110665285D01*
X21899428Y-110760523D01*
X21804190Y-110855761D01*
X21661333Y-110903380D01*
X21423238Y-110903380D01*
%TO.C,D13*%
X41434380Y-137548857D02*
X41434380Y-138025047D01*
X40434380Y-138025047D01*
X40910571Y-137215523D02*
X40910571Y-136882190D01*
X41434380Y-136739333D02*
X41434380Y-137215523D01*
X40434380Y-137215523D01*
X40434380Y-136739333D01*
X41434380Y-136310761D02*
X40434380Y-136310761D01*
X40434380Y-136072666D01*
X40482000Y-135929809D01*
X40577238Y-135834571D01*
X40672476Y-135786952D01*
X40862952Y-135739333D01*
X41005809Y-135739333D01*
X41196285Y-135786952D01*
X41291523Y-135834571D01*
X41386761Y-135929809D01*
X41434380Y-136072666D01*
X41434380Y-136310761D01*
%TO.C,D14*%
X47354380Y-130690857D02*
X47354380Y-131167047D01*
X46354380Y-131167047D01*
X46830571Y-130357523D02*
X46830571Y-130024190D01*
X47354380Y-129881333D02*
X47354380Y-130357523D01*
X46354380Y-130357523D01*
X46354380Y-129881333D01*
X47354380Y-129452761D02*
X46354380Y-129452761D01*
X46354380Y-129214666D01*
X46402000Y-129071809D01*
X46497238Y-128976571D01*
X46592476Y-128928952D01*
X46782952Y-128881333D01*
X46925809Y-128881333D01*
X47116285Y-128928952D01*
X47211523Y-128976571D01*
X47306761Y-129071809D01*
X47354380Y-129214666D01*
X47354380Y-129452761D01*
%TO.C,D15*%
X59809142Y-110776380D02*
X59332952Y-110776380D01*
X59332952Y-109776380D01*
X60142476Y-110252571D02*
X60475809Y-110252571D01*
X60618666Y-110776380D02*
X60142476Y-110776380D01*
X60142476Y-109776380D01*
X60618666Y-109776380D01*
X61047238Y-110776380D02*
X61047238Y-109776380D01*
X61285333Y-109776380D01*
X61428190Y-109824000D01*
X61523428Y-109919238D01*
X61571047Y-110014476D01*
X61618666Y-110204952D01*
X61618666Y-110347809D01*
X61571047Y-110538285D01*
X61523428Y-110633523D01*
X61428190Y-110728761D01*
X61285333Y-110776380D01*
X61047238Y-110776380D01*
%TO.C,D16*%
X54221142Y-110776380D02*
X53744952Y-110776380D01*
X53744952Y-109776380D01*
X54554476Y-110252571D02*
X54887809Y-110252571D01*
X55030666Y-110776380D02*
X54554476Y-110776380D01*
X54554476Y-109776380D01*
X55030666Y-109776380D01*
X55459238Y-110776380D02*
X55459238Y-109776380D01*
X55697333Y-109776380D01*
X55840190Y-109824000D01*
X55935428Y-109919238D01*
X55983047Y-110014476D01*
X56030666Y-110204952D01*
X56030666Y-110347809D01*
X55983047Y-110538285D01*
X55935428Y-110633523D01*
X55840190Y-110728761D01*
X55697333Y-110776380D01*
X55459238Y-110776380D01*
%TO.C,D17*%
X48633142Y-110776380D02*
X48156952Y-110776380D01*
X48156952Y-109776380D01*
X48966476Y-110252571D02*
X49299809Y-110252571D01*
X49442666Y-110776380D02*
X48966476Y-110776380D01*
X48966476Y-109776380D01*
X49442666Y-109776380D01*
X49871238Y-110776380D02*
X49871238Y-109776380D01*
X50109333Y-109776380D01*
X50252190Y-109824000D01*
X50347428Y-109919238D01*
X50395047Y-110014476D01*
X50442666Y-110204952D01*
X50442666Y-110347809D01*
X50395047Y-110538285D01*
X50347428Y-110633523D01*
X50252190Y-110728761D01*
X50109333Y-110776380D01*
X49871238Y-110776380D01*
%TO.C,D18*%
X43172142Y-110776380D02*
X42695952Y-110776380D01*
X42695952Y-109776380D01*
X43505476Y-110252571D02*
X43838809Y-110252571D01*
X43981666Y-110776380D02*
X43505476Y-110776380D01*
X43505476Y-109776380D01*
X43981666Y-109776380D01*
X44410238Y-110776380D02*
X44410238Y-109776380D01*
X44648333Y-109776380D01*
X44791190Y-109824000D01*
X44886428Y-109919238D01*
X44934047Y-110014476D01*
X44981666Y-110204952D01*
X44981666Y-110347809D01*
X44934047Y-110538285D01*
X44886428Y-110633523D01*
X44791190Y-110728761D01*
X44648333Y-110776380D01*
X44410238Y-110776380D01*
%TO.C,J1*%
X49795904Y-180979142D02*
X49748285Y-181026761D01*
X49605428Y-181074380D01*
X49510190Y-181074380D01*
X49367333Y-181026761D01*
X49272095Y-180931523D01*
X49224476Y-180836285D01*
X49176857Y-180645809D01*
X49176857Y-180502952D01*
X49224476Y-180312476D01*
X49272095Y-180217238D01*
X49367333Y-180122000D01*
X49510190Y-180074380D01*
X49605428Y-180074380D01*
X49748285Y-180122000D01*
X49795904Y-180169619D01*
X50367333Y-181074380D02*
X50272095Y-181026761D01*
X50224476Y-180979142D01*
X50176857Y-180883904D01*
X50176857Y-180598190D01*
X50224476Y-180502952D01*
X50272095Y-180455333D01*
X50367333Y-180407714D01*
X50510190Y-180407714D01*
X50605428Y-180455333D01*
X50653047Y-180502952D01*
X50700666Y-180598190D01*
X50700666Y-180883904D01*
X50653047Y-180979142D01*
X50605428Y-181026761D01*
X50510190Y-181074380D01*
X50367333Y-181074380D01*
X51129238Y-180407714D02*
X51129238Y-181074380D01*
X51129238Y-180502952D02*
X51176857Y-180455333D01*
X51272095Y-180407714D01*
X51414952Y-180407714D01*
X51510190Y-180455333D01*
X51557809Y-180550571D01*
X51557809Y-181074380D01*
X52034000Y-180407714D02*
X52034000Y-181074380D01*
X52034000Y-180502952D02*
X52081619Y-180455333D01*
X52176857Y-180407714D01*
X52319714Y-180407714D01*
X52414952Y-180455333D01*
X52462571Y-180550571D01*
X52462571Y-181074380D01*
X52700666Y-181169619D02*
X53462571Y-181169619D01*
X53891142Y-180074380D02*
X53986380Y-180074380D01*
X54081619Y-180122000D01*
X54129238Y-180169619D01*
X54176857Y-180264857D01*
X54224476Y-180455333D01*
X54224476Y-180693428D01*
X54176857Y-180883904D01*
X54129238Y-180979142D01*
X54081619Y-181026761D01*
X53986380Y-181074380D01*
X53891142Y-181074380D01*
X53795904Y-181026761D01*
X53748285Y-180979142D01*
X53700666Y-180883904D01*
X53653047Y-180693428D01*
X53653047Y-180455333D01*
X53700666Y-180264857D01*
X53748285Y-180169619D01*
X53795904Y-180122000D01*
X53891142Y-180074380D01*
X55176857Y-181074380D02*
X54605428Y-181074380D01*
X54891142Y-181074380D02*
X54891142Y-180074380D01*
X54795904Y-180217238D01*
X54700666Y-180312476D01*
X54605428Y-180360095D01*
X55510190Y-181074380D02*
X56034000Y-180407714D01*
X55510190Y-180407714D02*
X56034000Y-181074380D01*
X56605428Y-180074380D02*
X56700666Y-180074380D01*
X56795904Y-180122000D01*
X56843523Y-180169619D01*
X56891142Y-180264857D01*
X56938761Y-180455333D01*
X56938761Y-180693428D01*
X56891142Y-180883904D01*
X56843523Y-180979142D01*
X56795904Y-181026761D01*
X56700666Y-181074380D01*
X56605428Y-181074380D01*
X56510190Y-181026761D01*
X56462571Y-180979142D01*
X56414952Y-180883904D01*
X56367333Y-180693428D01*
X56367333Y-180455333D01*
X56414952Y-180264857D01*
X56462571Y-180169619D01*
X56510190Y-180122000D01*
X56605428Y-180074380D01*
X57795904Y-180407714D02*
X57795904Y-181074380D01*
X57557809Y-180026761D02*
X57319714Y-180741047D01*
X57938761Y-180741047D01*
X53200666Y-178174380D02*
X53200666Y-178888666D01*
X53153047Y-179031523D01*
X53057809Y-179126761D01*
X52914952Y-179174380D01*
X52819714Y-179174380D01*
X54200666Y-179174380D02*
X53629238Y-179174380D01*
X53914952Y-179174380D02*
X53914952Y-178174380D01*
X53819714Y-178317238D01*
X53724476Y-178412476D01*
X53629238Y-178460095D01*
%TO.C,J2*%
X23506904Y-180852142D02*
X23459285Y-180899761D01*
X23316428Y-180947380D01*
X23221190Y-180947380D01*
X23078333Y-180899761D01*
X22983095Y-180804523D01*
X22935476Y-180709285D01*
X22887857Y-180518809D01*
X22887857Y-180375952D01*
X22935476Y-180185476D01*
X22983095Y-180090238D01*
X23078333Y-179995000D01*
X23221190Y-179947380D01*
X23316428Y-179947380D01*
X23459285Y-179995000D01*
X23506904Y-180042619D01*
X24078333Y-180947380D02*
X23983095Y-180899761D01*
X23935476Y-180852142D01*
X23887857Y-180756904D01*
X23887857Y-180471190D01*
X23935476Y-180375952D01*
X23983095Y-180328333D01*
X24078333Y-180280714D01*
X24221190Y-180280714D01*
X24316428Y-180328333D01*
X24364047Y-180375952D01*
X24411666Y-180471190D01*
X24411666Y-180756904D01*
X24364047Y-180852142D01*
X24316428Y-180899761D01*
X24221190Y-180947380D01*
X24078333Y-180947380D01*
X24840238Y-180280714D02*
X24840238Y-180947380D01*
X24840238Y-180375952D02*
X24887857Y-180328333D01*
X24983095Y-180280714D01*
X25125952Y-180280714D01*
X25221190Y-180328333D01*
X25268809Y-180423571D01*
X25268809Y-180947380D01*
X25745000Y-180280714D02*
X25745000Y-180947380D01*
X25745000Y-180375952D02*
X25792619Y-180328333D01*
X25887857Y-180280714D01*
X26030714Y-180280714D01*
X26125952Y-180328333D01*
X26173571Y-180423571D01*
X26173571Y-180947380D01*
X26411666Y-181042619D02*
X27173571Y-181042619D01*
X27602142Y-179947380D02*
X27697380Y-179947380D01*
X27792619Y-179995000D01*
X27840238Y-180042619D01*
X27887857Y-180137857D01*
X27935476Y-180328333D01*
X27935476Y-180566428D01*
X27887857Y-180756904D01*
X27840238Y-180852142D01*
X27792619Y-180899761D01*
X27697380Y-180947380D01*
X27602142Y-180947380D01*
X27506904Y-180899761D01*
X27459285Y-180852142D01*
X27411666Y-180756904D01*
X27364047Y-180566428D01*
X27364047Y-180328333D01*
X27411666Y-180137857D01*
X27459285Y-180042619D01*
X27506904Y-179995000D01*
X27602142Y-179947380D01*
X28887857Y-180947380D02*
X28316428Y-180947380D01*
X28602142Y-180947380D02*
X28602142Y-179947380D01*
X28506904Y-180090238D01*
X28411666Y-180185476D01*
X28316428Y-180233095D01*
X29221190Y-180947380D02*
X29745000Y-180280714D01*
X29221190Y-180280714D02*
X29745000Y-180947380D01*
X30316428Y-179947380D02*
X30411666Y-179947380D01*
X30506904Y-179995000D01*
X30554523Y-180042619D01*
X30602142Y-180137857D01*
X30649761Y-180328333D01*
X30649761Y-180566428D01*
X30602142Y-180756904D01*
X30554523Y-180852142D01*
X30506904Y-180899761D01*
X30411666Y-180947380D01*
X30316428Y-180947380D01*
X30221190Y-180899761D01*
X30173571Y-180852142D01*
X30125952Y-180756904D01*
X30078333Y-180566428D01*
X30078333Y-180328333D01*
X30125952Y-180137857D01*
X30173571Y-180042619D01*
X30221190Y-179995000D01*
X30316428Y-179947380D01*
X31506904Y-180280714D02*
X31506904Y-180947380D01*
X31268809Y-179899761D02*
X31030714Y-180614047D01*
X31649761Y-180614047D01*
X26911666Y-178047380D02*
X26911666Y-178761666D01*
X26864047Y-178904523D01*
X26768809Y-178999761D01*
X26625952Y-179047380D01*
X26530714Y-179047380D01*
X27340238Y-178142619D02*
X27387857Y-178095000D01*
X27483095Y-178047380D01*
X27721190Y-178047380D01*
X27816428Y-178095000D01*
X27864047Y-178142619D01*
X27911666Y-178237857D01*
X27911666Y-178333095D01*
X27864047Y-178475952D01*
X27292619Y-179047380D01*
X27911666Y-179047380D01*
%TO.C,J3*%
X104278904Y-179582142D02*
X104231285Y-179629761D01*
X104088428Y-179677380D01*
X103993190Y-179677380D01*
X103850333Y-179629761D01*
X103755095Y-179534523D01*
X103707476Y-179439285D01*
X103659857Y-179248809D01*
X103659857Y-179105952D01*
X103707476Y-178915476D01*
X103755095Y-178820238D01*
X103850333Y-178725000D01*
X103993190Y-178677380D01*
X104088428Y-178677380D01*
X104231285Y-178725000D01*
X104278904Y-178772619D01*
X104850333Y-179677380D02*
X104755095Y-179629761D01*
X104707476Y-179582142D01*
X104659857Y-179486904D01*
X104659857Y-179201190D01*
X104707476Y-179105952D01*
X104755095Y-179058333D01*
X104850333Y-179010714D01*
X104993190Y-179010714D01*
X105088428Y-179058333D01*
X105136047Y-179105952D01*
X105183666Y-179201190D01*
X105183666Y-179486904D01*
X105136047Y-179582142D01*
X105088428Y-179629761D01*
X104993190Y-179677380D01*
X104850333Y-179677380D01*
X105612238Y-179010714D02*
X105612238Y-179677380D01*
X105612238Y-179105952D02*
X105659857Y-179058333D01*
X105755095Y-179010714D01*
X105897952Y-179010714D01*
X105993190Y-179058333D01*
X106040809Y-179153571D01*
X106040809Y-179677380D01*
X106517000Y-179010714D02*
X106517000Y-179677380D01*
X106517000Y-179105952D02*
X106564619Y-179058333D01*
X106659857Y-179010714D01*
X106802714Y-179010714D01*
X106897952Y-179058333D01*
X106945571Y-179153571D01*
X106945571Y-179677380D01*
X107183666Y-179772619D02*
X107945571Y-179772619D01*
X108374142Y-178677380D02*
X108469380Y-178677380D01*
X108564619Y-178725000D01*
X108612238Y-178772619D01*
X108659857Y-178867857D01*
X108707476Y-179058333D01*
X108707476Y-179296428D01*
X108659857Y-179486904D01*
X108612238Y-179582142D01*
X108564619Y-179629761D01*
X108469380Y-179677380D01*
X108374142Y-179677380D01*
X108278904Y-179629761D01*
X108231285Y-179582142D01*
X108183666Y-179486904D01*
X108136047Y-179296428D01*
X108136047Y-179058333D01*
X108183666Y-178867857D01*
X108231285Y-178772619D01*
X108278904Y-178725000D01*
X108374142Y-178677380D01*
X109659857Y-179677380D02*
X109088428Y-179677380D01*
X109374142Y-179677380D02*
X109374142Y-178677380D01*
X109278904Y-178820238D01*
X109183666Y-178915476D01*
X109088428Y-178963095D01*
X109993190Y-179677380D02*
X110517000Y-179010714D01*
X109993190Y-179010714D02*
X110517000Y-179677380D01*
X111088428Y-178677380D02*
X111183666Y-178677380D01*
X111278904Y-178725000D01*
X111326523Y-178772619D01*
X111374142Y-178867857D01*
X111421761Y-179058333D01*
X111421761Y-179296428D01*
X111374142Y-179486904D01*
X111326523Y-179582142D01*
X111278904Y-179629761D01*
X111183666Y-179677380D01*
X111088428Y-179677380D01*
X110993190Y-179629761D01*
X110945571Y-179582142D01*
X110897952Y-179486904D01*
X110850333Y-179296428D01*
X110850333Y-179058333D01*
X110897952Y-178867857D01*
X110945571Y-178772619D01*
X110993190Y-178725000D01*
X111088428Y-178677380D01*
X112278904Y-179010714D02*
X112278904Y-179677380D01*
X112040809Y-178629761D02*
X111802714Y-179344047D01*
X112421761Y-179344047D01*
X107683666Y-176777380D02*
X107683666Y-177491666D01*
X107636047Y-177634523D01*
X107540809Y-177729761D01*
X107397952Y-177777380D01*
X107302714Y-177777380D01*
X108064619Y-176777380D02*
X108683666Y-176777380D01*
X108350333Y-177158333D01*
X108493190Y-177158333D01*
X108588428Y-177205952D01*
X108636047Y-177253571D01*
X108683666Y-177348809D01*
X108683666Y-177586904D01*
X108636047Y-177682142D01*
X108588428Y-177729761D01*
X108493190Y-177777380D01*
X108207476Y-177777380D01*
X108112238Y-177729761D01*
X108064619Y-177682142D01*
%TO.C,J4*%
X18998142Y-137282095D02*
X19045761Y-137329714D01*
X19093380Y-137472571D01*
X19093380Y-137567809D01*
X19045761Y-137710666D01*
X18950523Y-137805904D01*
X18855285Y-137853523D01*
X18664809Y-137901142D01*
X18521952Y-137901142D01*
X18331476Y-137853523D01*
X18236238Y-137805904D01*
X18141000Y-137710666D01*
X18093380Y-137567809D01*
X18093380Y-137472571D01*
X18141000Y-137329714D01*
X18188619Y-137282095D01*
X19093380Y-136710666D02*
X19045761Y-136805904D01*
X18998142Y-136853523D01*
X18902904Y-136901142D01*
X18617190Y-136901142D01*
X18521952Y-136853523D01*
X18474333Y-136805904D01*
X18426714Y-136710666D01*
X18426714Y-136567809D01*
X18474333Y-136472571D01*
X18521952Y-136424952D01*
X18617190Y-136377333D01*
X18902904Y-136377333D01*
X18998142Y-136424952D01*
X19045761Y-136472571D01*
X19093380Y-136567809D01*
X19093380Y-136710666D01*
X18426714Y-135948761D02*
X19093380Y-135948761D01*
X18521952Y-135948761D02*
X18474333Y-135901142D01*
X18426714Y-135805904D01*
X18426714Y-135663047D01*
X18474333Y-135567809D01*
X18569571Y-135520190D01*
X19093380Y-135520190D01*
X18426714Y-135044000D02*
X19093380Y-135044000D01*
X18521952Y-135044000D02*
X18474333Y-134996380D01*
X18426714Y-134901142D01*
X18426714Y-134758285D01*
X18474333Y-134663047D01*
X18569571Y-134615428D01*
X19093380Y-134615428D01*
X19188619Y-134377333D02*
X19188619Y-133615428D01*
X18093380Y-133186857D02*
X18093380Y-133091619D01*
X18141000Y-132996380D01*
X18188619Y-132948761D01*
X18283857Y-132901142D01*
X18474333Y-132853523D01*
X18712428Y-132853523D01*
X18902904Y-132901142D01*
X18998142Y-132948761D01*
X19045761Y-132996380D01*
X19093380Y-133091619D01*
X19093380Y-133186857D01*
X19045761Y-133282095D01*
X18998142Y-133329714D01*
X18902904Y-133377333D01*
X18712428Y-133424952D01*
X18474333Y-133424952D01*
X18283857Y-133377333D01*
X18188619Y-133329714D01*
X18141000Y-133282095D01*
X18093380Y-133186857D01*
X19093380Y-131901142D02*
X19093380Y-132472571D01*
X19093380Y-132186857D02*
X18093380Y-132186857D01*
X18236238Y-132282095D01*
X18331476Y-132377333D01*
X18379095Y-132472571D01*
X19093380Y-131567809D02*
X18426714Y-131044000D01*
X18426714Y-131567809D02*
X19093380Y-131044000D01*
X18093380Y-130472571D02*
X18093380Y-130377333D01*
X18141000Y-130282095D01*
X18188619Y-130234476D01*
X18283857Y-130186857D01*
X18474333Y-130139238D01*
X18712428Y-130139238D01*
X18902904Y-130186857D01*
X18998142Y-130234476D01*
X19045761Y-130282095D01*
X19093380Y-130377333D01*
X19093380Y-130472571D01*
X19045761Y-130567809D01*
X18998142Y-130615428D01*
X18902904Y-130663047D01*
X18712428Y-130710666D01*
X18474333Y-130710666D01*
X18283857Y-130663047D01*
X18188619Y-130615428D01*
X18141000Y-130567809D01*
X18093380Y-130472571D01*
X18426714Y-129282095D02*
X19093380Y-129282095D01*
X18045761Y-129520190D02*
X18760047Y-129758285D01*
X18760047Y-129139238D01*
X19993380Y-133877333D02*
X20707666Y-133877333D01*
X20850523Y-133924952D01*
X20945761Y-134020190D01*
X20993380Y-134163047D01*
X20993380Y-134258285D01*
X20326714Y-132972571D02*
X20993380Y-132972571D01*
X19945761Y-133210666D02*
X20660047Y-133448761D01*
X20660047Y-132829714D01*
%TO.C,J5*%
X80910904Y-178820142D02*
X80863285Y-178867761D01*
X80720428Y-178915380D01*
X80625190Y-178915380D01*
X80482333Y-178867761D01*
X80387095Y-178772523D01*
X80339476Y-178677285D01*
X80291857Y-178486809D01*
X80291857Y-178343952D01*
X80339476Y-178153476D01*
X80387095Y-178058238D01*
X80482333Y-177963000D01*
X80625190Y-177915380D01*
X80720428Y-177915380D01*
X80863285Y-177963000D01*
X80910904Y-178010619D01*
X81482333Y-178915380D02*
X81387095Y-178867761D01*
X81339476Y-178820142D01*
X81291857Y-178724904D01*
X81291857Y-178439190D01*
X81339476Y-178343952D01*
X81387095Y-178296333D01*
X81482333Y-178248714D01*
X81625190Y-178248714D01*
X81720428Y-178296333D01*
X81768047Y-178343952D01*
X81815666Y-178439190D01*
X81815666Y-178724904D01*
X81768047Y-178820142D01*
X81720428Y-178867761D01*
X81625190Y-178915380D01*
X81482333Y-178915380D01*
X82244238Y-178248714D02*
X82244238Y-178915380D01*
X82244238Y-178343952D02*
X82291857Y-178296333D01*
X82387095Y-178248714D01*
X82529952Y-178248714D01*
X82625190Y-178296333D01*
X82672809Y-178391571D01*
X82672809Y-178915380D01*
X83149000Y-178248714D02*
X83149000Y-178915380D01*
X83149000Y-178343952D02*
X83196619Y-178296333D01*
X83291857Y-178248714D01*
X83434714Y-178248714D01*
X83529952Y-178296333D01*
X83577571Y-178391571D01*
X83577571Y-178915380D01*
X83815666Y-179010619D02*
X84577571Y-179010619D01*
X85006142Y-177915380D02*
X85101380Y-177915380D01*
X85196619Y-177963000D01*
X85244238Y-178010619D01*
X85291857Y-178105857D01*
X85339476Y-178296333D01*
X85339476Y-178534428D01*
X85291857Y-178724904D01*
X85244238Y-178820142D01*
X85196619Y-178867761D01*
X85101380Y-178915380D01*
X85006142Y-178915380D01*
X84910904Y-178867761D01*
X84863285Y-178820142D01*
X84815666Y-178724904D01*
X84768047Y-178534428D01*
X84768047Y-178296333D01*
X84815666Y-178105857D01*
X84863285Y-178010619D01*
X84910904Y-177963000D01*
X85006142Y-177915380D01*
X86291857Y-178915380D02*
X85720428Y-178915380D01*
X86006142Y-178915380D02*
X86006142Y-177915380D01*
X85910904Y-178058238D01*
X85815666Y-178153476D01*
X85720428Y-178201095D01*
X86625190Y-178915380D02*
X87149000Y-178248714D01*
X86625190Y-178248714D02*
X87149000Y-178915380D01*
X87720428Y-177915380D02*
X87815666Y-177915380D01*
X87910904Y-177963000D01*
X87958523Y-178010619D01*
X88006142Y-178105857D01*
X88053761Y-178296333D01*
X88053761Y-178534428D01*
X88006142Y-178724904D01*
X87958523Y-178820142D01*
X87910904Y-178867761D01*
X87815666Y-178915380D01*
X87720428Y-178915380D01*
X87625190Y-178867761D01*
X87577571Y-178820142D01*
X87529952Y-178724904D01*
X87482333Y-178534428D01*
X87482333Y-178296333D01*
X87529952Y-178105857D01*
X87577571Y-178010619D01*
X87625190Y-177963000D01*
X87720428Y-177915380D01*
X88910904Y-178248714D02*
X88910904Y-178915380D01*
X88672809Y-177867761D02*
X88434714Y-178582047D01*
X89053761Y-178582047D01*
X84315666Y-176015380D02*
X84315666Y-176729666D01*
X84268047Y-176872523D01*
X84172809Y-176967761D01*
X84029952Y-177015380D01*
X83934714Y-177015380D01*
X85268047Y-176015380D02*
X84791857Y-176015380D01*
X84744238Y-176491571D01*
X84791857Y-176443952D01*
X84887095Y-176396333D01*
X85125190Y-176396333D01*
X85220428Y-176443952D01*
X85268047Y-176491571D01*
X85315666Y-176586809D01*
X85315666Y-176824904D01*
X85268047Y-176920142D01*
X85220428Y-176967761D01*
X85125190Y-177015380D01*
X84887095Y-177015380D01*
X84791857Y-176967761D01*
X84744238Y-176920142D01*
%TO.C,R1*%
X61284619Y-169513095D02*
X61237000Y-169465476D01*
X61189380Y-169370238D01*
X61189380Y-169132142D01*
X61237000Y-169036904D01*
X61284619Y-168989285D01*
X61379857Y-168941666D01*
X61475095Y-168941666D01*
X61617952Y-168989285D01*
X62189380Y-169560714D01*
X62189380Y-168941666D01*
X61284619Y-168560714D02*
X61237000Y-168513095D01*
X61189380Y-168417857D01*
X61189380Y-168179761D01*
X61237000Y-168084523D01*
X61284619Y-168036904D01*
X61379857Y-167989285D01*
X61475095Y-167989285D01*
X61617952Y-168036904D01*
X62189380Y-168608333D01*
X62189380Y-167989285D01*
X61189380Y-167370238D02*
X61189380Y-167275000D01*
X61237000Y-167179761D01*
X61284619Y-167132142D01*
X61379857Y-167084523D01*
X61570333Y-167036904D01*
X61808428Y-167036904D01*
X61998904Y-167084523D01*
X62094142Y-167132142D01*
X62141761Y-167179761D01*
X62189380Y-167275000D01*
X62189380Y-167370238D01*
X62141761Y-167465476D01*
X62094142Y-167513095D01*
X61998904Y-167560714D01*
X61808428Y-167608333D01*
X61570333Y-167608333D01*
X61379857Y-167560714D01*
X61284619Y-167513095D01*
X61237000Y-167465476D01*
X61189380Y-167370238D01*
X58349380Y-168441666D02*
X57873190Y-168775000D01*
X58349380Y-169013095D02*
X57349380Y-169013095D01*
X57349380Y-168632142D01*
X57397000Y-168536904D01*
X57444619Y-168489285D01*
X57539857Y-168441666D01*
X57682714Y-168441666D01*
X57777952Y-168489285D01*
X57825571Y-168536904D01*
X57873190Y-168632142D01*
X57873190Y-169013095D01*
X58349380Y-167489285D02*
X58349380Y-168060714D01*
X58349380Y-167775000D02*
X57349380Y-167775000D01*
X57492238Y-167870238D01*
X57587476Y-167965476D01*
X57635095Y-168060714D01*
%TO.C,R2*%
X51871619Y-167100095D02*
X51824000Y-167052476D01*
X51776380Y-166957238D01*
X51776380Y-166719142D01*
X51824000Y-166623904D01*
X51871619Y-166576285D01*
X51966857Y-166528666D01*
X52062095Y-166528666D01*
X52204952Y-166576285D01*
X52776380Y-167147714D01*
X52776380Y-166528666D01*
X51871619Y-166147714D02*
X51824000Y-166100095D01*
X51776380Y-166004857D01*
X51776380Y-165766761D01*
X51824000Y-165671523D01*
X51871619Y-165623904D01*
X51966857Y-165576285D01*
X52062095Y-165576285D01*
X52204952Y-165623904D01*
X52776380Y-166195333D01*
X52776380Y-165576285D01*
X51776380Y-164957238D02*
X51776380Y-164862000D01*
X51824000Y-164766761D01*
X51871619Y-164719142D01*
X51966857Y-164671523D01*
X52157333Y-164623904D01*
X52395428Y-164623904D01*
X52585904Y-164671523D01*
X52681142Y-164719142D01*
X52728761Y-164766761D01*
X52776380Y-164862000D01*
X52776380Y-164957238D01*
X52728761Y-165052476D01*
X52681142Y-165100095D01*
X52585904Y-165147714D01*
X52395428Y-165195333D01*
X52157333Y-165195333D01*
X51966857Y-165147714D01*
X51871619Y-165100095D01*
X51824000Y-165052476D01*
X51776380Y-164957238D01*
X52664380Y-168568666D02*
X52188190Y-168902000D01*
X52664380Y-169140095D02*
X51664380Y-169140095D01*
X51664380Y-168759142D01*
X51712000Y-168663904D01*
X51759619Y-168616285D01*
X51854857Y-168568666D01*
X51997714Y-168568666D01*
X52092952Y-168616285D01*
X52140571Y-168663904D01*
X52188190Y-168759142D01*
X52188190Y-169140095D01*
X51759619Y-168187714D02*
X51712000Y-168140095D01*
X51664380Y-168044857D01*
X51664380Y-167806761D01*
X51712000Y-167711523D01*
X51759619Y-167663904D01*
X51854857Y-167616285D01*
X51950095Y-167616285D01*
X52092952Y-167663904D01*
X52664380Y-168235333D01*
X52664380Y-167616285D01*
%TO.C,R3*%
X34599619Y-171672095D02*
X34552000Y-171624476D01*
X34504380Y-171529238D01*
X34504380Y-171291142D01*
X34552000Y-171195904D01*
X34599619Y-171148285D01*
X34694857Y-171100666D01*
X34790095Y-171100666D01*
X34932952Y-171148285D01*
X35504380Y-171719714D01*
X35504380Y-171100666D01*
X34599619Y-170719714D02*
X34552000Y-170672095D01*
X34504380Y-170576857D01*
X34504380Y-170338761D01*
X34552000Y-170243523D01*
X34599619Y-170195904D01*
X34694857Y-170148285D01*
X34790095Y-170148285D01*
X34932952Y-170195904D01*
X35504380Y-170767333D01*
X35504380Y-170148285D01*
X34504380Y-169529238D02*
X34504380Y-169434000D01*
X34552000Y-169338761D01*
X34599619Y-169291142D01*
X34694857Y-169243523D01*
X34885333Y-169195904D01*
X35123428Y-169195904D01*
X35313904Y-169243523D01*
X35409142Y-169291142D01*
X35456761Y-169338761D01*
X35504380Y-169434000D01*
X35504380Y-169529238D01*
X35456761Y-169624476D01*
X35409142Y-169672095D01*
X35313904Y-169719714D01*
X35123428Y-169767333D01*
X34885333Y-169767333D01*
X34694857Y-169719714D01*
X34599619Y-169672095D01*
X34552000Y-169624476D01*
X34504380Y-169529238D01*
X35392380Y-168314666D02*
X34916190Y-168648000D01*
X35392380Y-168886095D02*
X34392380Y-168886095D01*
X34392380Y-168505142D01*
X34440000Y-168409904D01*
X34487619Y-168362285D01*
X34582857Y-168314666D01*
X34725714Y-168314666D01*
X34820952Y-168362285D01*
X34868571Y-168409904D01*
X34916190Y-168505142D01*
X34916190Y-168886095D01*
X34392380Y-167981333D02*
X34392380Y-167362285D01*
X34773333Y-167695619D01*
X34773333Y-167552761D01*
X34820952Y-167457523D01*
X34868571Y-167409904D01*
X34963809Y-167362285D01*
X35201904Y-167362285D01*
X35297142Y-167409904D01*
X35344761Y-167457523D01*
X35392380Y-167552761D01*
X35392380Y-167838476D01*
X35344761Y-167933714D01*
X35297142Y-167981333D01*
%TO.C,R4*%
X103282904Y-166918619D02*
X103330523Y-166871000D01*
X103425761Y-166823380D01*
X103663857Y-166823380D01*
X103759095Y-166871000D01*
X103806714Y-166918619D01*
X103854333Y-167013857D01*
X103854333Y-167109095D01*
X103806714Y-167251952D01*
X103235285Y-167823380D01*
X103854333Y-167823380D01*
X104235285Y-166918619D02*
X104282904Y-166871000D01*
X104378142Y-166823380D01*
X104616238Y-166823380D01*
X104711476Y-166871000D01*
X104759095Y-166918619D01*
X104806714Y-167013857D01*
X104806714Y-167109095D01*
X104759095Y-167251952D01*
X104187666Y-167823380D01*
X104806714Y-167823380D01*
X105425761Y-166823380D02*
X105521000Y-166823380D01*
X105616238Y-166871000D01*
X105663857Y-166918619D01*
X105711476Y-167013857D01*
X105759095Y-167204333D01*
X105759095Y-167442428D01*
X105711476Y-167632904D01*
X105663857Y-167728142D01*
X105616238Y-167775761D01*
X105521000Y-167823380D01*
X105425761Y-167823380D01*
X105330523Y-167775761D01*
X105282904Y-167728142D01*
X105235285Y-167632904D01*
X105187666Y-167442428D01*
X105187666Y-167204333D01*
X105235285Y-167013857D01*
X105282904Y-166918619D01*
X105330523Y-166871000D01*
X105425761Y-166823380D01*
X104354333Y-171663380D02*
X104021000Y-171187190D01*
X103782904Y-171663380D02*
X103782904Y-170663380D01*
X104163857Y-170663380D01*
X104259095Y-170711000D01*
X104306714Y-170758619D01*
X104354333Y-170853857D01*
X104354333Y-170996714D01*
X104306714Y-171091952D01*
X104259095Y-171139571D01*
X104163857Y-171187190D01*
X103782904Y-171187190D01*
X105211476Y-170996714D02*
X105211476Y-171663380D01*
X104973380Y-170615761D02*
X104735285Y-171330047D01*
X105354333Y-171330047D01*
%TO.C,R5*%
X109886904Y-166918619D02*
X109934523Y-166871000D01*
X110029761Y-166823380D01*
X110267857Y-166823380D01*
X110363095Y-166871000D01*
X110410714Y-166918619D01*
X110458333Y-167013857D01*
X110458333Y-167109095D01*
X110410714Y-167251952D01*
X109839285Y-167823380D01*
X110458333Y-167823380D01*
X110839285Y-166918619D02*
X110886904Y-166871000D01*
X110982142Y-166823380D01*
X111220238Y-166823380D01*
X111315476Y-166871000D01*
X111363095Y-166918619D01*
X111410714Y-167013857D01*
X111410714Y-167109095D01*
X111363095Y-167251952D01*
X110791666Y-167823380D01*
X111410714Y-167823380D01*
X112029761Y-166823380D02*
X112125000Y-166823380D01*
X112220238Y-166871000D01*
X112267857Y-166918619D01*
X112315476Y-167013857D01*
X112363095Y-167204333D01*
X112363095Y-167442428D01*
X112315476Y-167632904D01*
X112267857Y-167728142D01*
X112220238Y-167775761D01*
X112125000Y-167823380D01*
X112029761Y-167823380D01*
X111934523Y-167775761D01*
X111886904Y-167728142D01*
X111839285Y-167632904D01*
X111791666Y-167442428D01*
X111791666Y-167204333D01*
X111839285Y-167013857D01*
X111886904Y-166918619D01*
X111934523Y-166871000D01*
X112029761Y-166823380D01*
X110958333Y-171663380D02*
X110625000Y-171187190D01*
X110386904Y-171663380D02*
X110386904Y-170663380D01*
X110767857Y-170663380D01*
X110863095Y-170711000D01*
X110910714Y-170758619D01*
X110958333Y-170853857D01*
X110958333Y-170996714D01*
X110910714Y-171091952D01*
X110863095Y-171139571D01*
X110767857Y-171187190D01*
X110386904Y-171187190D01*
X111863095Y-170663380D02*
X111386904Y-170663380D01*
X111339285Y-171139571D01*
X111386904Y-171091952D01*
X111482142Y-171044333D01*
X111720238Y-171044333D01*
X111815476Y-171091952D01*
X111863095Y-171139571D01*
X111910714Y-171234809D01*
X111910714Y-171472904D01*
X111863095Y-171568142D01*
X111815476Y-171615761D01*
X111720238Y-171663380D01*
X111482142Y-171663380D01*
X111386904Y-171615761D01*
X111339285Y-171568142D01*
%TO.C,R6*%
X30042619Y-131286095D02*
X29995000Y-131238476D01*
X29947380Y-131143238D01*
X29947380Y-130905142D01*
X29995000Y-130809904D01*
X30042619Y-130762285D01*
X30137857Y-130714666D01*
X30233095Y-130714666D01*
X30375952Y-130762285D01*
X30947380Y-131333714D01*
X30947380Y-130714666D01*
X30042619Y-130333714D02*
X29995000Y-130286095D01*
X29947380Y-130190857D01*
X29947380Y-129952761D01*
X29995000Y-129857523D01*
X30042619Y-129809904D01*
X30137857Y-129762285D01*
X30233095Y-129762285D01*
X30375952Y-129809904D01*
X30947380Y-130381333D01*
X30947380Y-129762285D01*
X29947380Y-129143238D02*
X29947380Y-129048000D01*
X29995000Y-128952761D01*
X30042619Y-128905142D01*
X30137857Y-128857523D01*
X30328333Y-128809904D01*
X30566428Y-128809904D01*
X30756904Y-128857523D01*
X30852142Y-128905142D01*
X30899761Y-128952761D01*
X30947380Y-129048000D01*
X30947380Y-129143238D01*
X30899761Y-129238476D01*
X30852142Y-129286095D01*
X30756904Y-129333714D01*
X30566428Y-129381333D01*
X30328333Y-129381333D01*
X30137857Y-129333714D01*
X30042619Y-129286095D01*
X29995000Y-129238476D01*
X29947380Y-129143238D01*
X27107380Y-130214666D02*
X26631190Y-130548000D01*
X27107380Y-130786095D02*
X26107380Y-130786095D01*
X26107380Y-130405142D01*
X26155000Y-130309904D01*
X26202619Y-130262285D01*
X26297857Y-130214666D01*
X26440714Y-130214666D01*
X26535952Y-130262285D01*
X26583571Y-130309904D01*
X26631190Y-130405142D01*
X26631190Y-130786095D01*
X26107380Y-129357523D02*
X26107380Y-129548000D01*
X26155000Y-129643238D01*
X26202619Y-129690857D01*
X26345476Y-129786095D01*
X26535952Y-129833714D01*
X26916904Y-129833714D01*
X27012142Y-129786095D01*
X27059761Y-129738476D01*
X27107380Y-129643238D01*
X27107380Y-129452761D01*
X27059761Y-129357523D01*
X27012142Y-129309904D01*
X26916904Y-129262285D01*
X26678809Y-129262285D01*
X26583571Y-129309904D01*
X26535952Y-129357523D01*
X26488333Y-129452761D01*
X26488333Y-129643238D01*
X26535952Y-129738476D01*
X26583571Y-129786095D01*
X26678809Y-129833714D01*
%TO.C,R7*%
X30042619Y-137890095D02*
X29995000Y-137842476D01*
X29947380Y-137747238D01*
X29947380Y-137509142D01*
X29995000Y-137413904D01*
X30042619Y-137366285D01*
X30137857Y-137318666D01*
X30233095Y-137318666D01*
X30375952Y-137366285D01*
X30947380Y-137937714D01*
X30947380Y-137318666D01*
X30042619Y-136937714D02*
X29995000Y-136890095D01*
X29947380Y-136794857D01*
X29947380Y-136556761D01*
X29995000Y-136461523D01*
X30042619Y-136413904D01*
X30137857Y-136366285D01*
X30233095Y-136366285D01*
X30375952Y-136413904D01*
X30947380Y-136985333D01*
X30947380Y-136366285D01*
X29947380Y-135747238D02*
X29947380Y-135652000D01*
X29995000Y-135556761D01*
X30042619Y-135509142D01*
X30137857Y-135461523D01*
X30328333Y-135413904D01*
X30566428Y-135413904D01*
X30756904Y-135461523D01*
X30852142Y-135509142D01*
X30899761Y-135556761D01*
X30947380Y-135652000D01*
X30947380Y-135747238D01*
X30899761Y-135842476D01*
X30852142Y-135890095D01*
X30756904Y-135937714D01*
X30566428Y-135985333D01*
X30328333Y-135985333D01*
X30137857Y-135937714D01*
X30042619Y-135890095D01*
X29995000Y-135842476D01*
X29947380Y-135747238D01*
X27107380Y-136818666D02*
X26631190Y-137152000D01*
X27107380Y-137390095D02*
X26107380Y-137390095D01*
X26107380Y-137009142D01*
X26155000Y-136913904D01*
X26202619Y-136866285D01*
X26297857Y-136818666D01*
X26440714Y-136818666D01*
X26535952Y-136866285D01*
X26583571Y-136913904D01*
X26631190Y-137009142D01*
X26631190Y-137390095D01*
X26107380Y-136485333D02*
X26107380Y-135818666D01*
X27107380Y-136247238D01*
%TO.C,R8*%
X58633380Y-168267047D02*
X58633380Y-168838476D01*
X58633380Y-168552761D02*
X57633380Y-168552761D01*
X57776238Y-168648000D01*
X57871476Y-168743238D01*
X57919095Y-168838476D01*
X58633380Y-167838476D02*
X57633380Y-167838476D01*
X58252428Y-167743238D02*
X58633380Y-167457523D01*
X57966714Y-167457523D02*
X58347666Y-167838476D01*
X54793380Y-168314666D02*
X54317190Y-168648000D01*
X54793380Y-168886095D02*
X53793380Y-168886095D01*
X53793380Y-168505142D01*
X53841000Y-168409904D01*
X53888619Y-168362285D01*
X53983857Y-168314666D01*
X54126714Y-168314666D01*
X54221952Y-168362285D01*
X54269571Y-168409904D01*
X54317190Y-168505142D01*
X54317190Y-168886095D01*
X54221952Y-167743238D02*
X54174333Y-167838476D01*
X54126714Y-167886095D01*
X54031476Y-167933714D01*
X53983857Y-167933714D01*
X53888619Y-167886095D01*
X53841000Y-167838476D01*
X53793380Y-167743238D01*
X53793380Y-167552761D01*
X53841000Y-167457523D01*
X53888619Y-167409904D01*
X53983857Y-167362285D01*
X54031476Y-167362285D01*
X54126714Y-167409904D01*
X54174333Y-167457523D01*
X54221952Y-167552761D01*
X54221952Y-167743238D01*
X54269571Y-167838476D01*
X54317190Y-167886095D01*
X54412428Y-167933714D01*
X54602904Y-167933714D01*
X54698142Y-167886095D01*
X54745761Y-167838476D01*
X54793380Y-167743238D01*
X54793380Y-167552761D01*
X54745761Y-167457523D01*
X54698142Y-167409904D01*
X54602904Y-167362285D01*
X54412428Y-167362285D01*
X54317190Y-167409904D01*
X54269571Y-167457523D01*
X54221952Y-167552761D01*
%TO.C,R9*%
X28138380Y-166235047D02*
X28138380Y-166806476D01*
X28138380Y-166520761D02*
X27138380Y-166520761D01*
X27281238Y-166616000D01*
X27376476Y-166711238D01*
X27424095Y-166806476D01*
X28138380Y-165806476D02*
X27138380Y-165806476D01*
X27757428Y-165711238D02*
X28138380Y-165425523D01*
X27471714Y-165425523D02*
X27852666Y-165806476D01*
X28123380Y-168187666D02*
X27647190Y-168521000D01*
X28123380Y-168759095D02*
X27123380Y-168759095D01*
X27123380Y-168378142D01*
X27171000Y-168282904D01*
X27218619Y-168235285D01*
X27313857Y-168187666D01*
X27456714Y-168187666D01*
X27551952Y-168235285D01*
X27599571Y-168282904D01*
X27647190Y-168378142D01*
X27647190Y-168759095D01*
X28123380Y-167711476D02*
X28123380Y-167521000D01*
X28075761Y-167425761D01*
X28028142Y-167378142D01*
X27885285Y-167282904D01*
X27694809Y-167235285D01*
X27313857Y-167235285D01*
X27218619Y-167282904D01*
X27171000Y-167330523D01*
X27123380Y-167425761D01*
X27123380Y-167616238D01*
X27171000Y-167711476D01*
X27218619Y-167759095D01*
X27313857Y-167806714D01*
X27551952Y-167806714D01*
X27647190Y-167759095D01*
X27694809Y-167711476D01*
X27742428Y-167616238D01*
X27742428Y-167425761D01*
X27694809Y-167330523D01*
X27647190Y-167282904D01*
X27551952Y-167235285D01*
%TO.C,R10*%
X21026380Y-171315047D02*
X21026380Y-171886476D01*
X21026380Y-171600761D02*
X20026380Y-171600761D01*
X20169238Y-171696000D01*
X20264476Y-171791238D01*
X20312095Y-171886476D01*
X21026380Y-170886476D02*
X20026380Y-170886476D01*
X20645428Y-170791238D02*
X21026380Y-170505523D01*
X20359714Y-170505523D02*
X20740666Y-170886476D01*
X19106380Y-168663857D02*
X18630190Y-168997190D01*
X19106380Y-169235285D02*
X18106380Y-169235285D01*
X18106380Y-168854333D01*
X18154000Y-168759095D01*
X18201619Y-168711476D01*
X18296857Y-168663857D01*
X18439714Y-168663857D01*
X18534952Y-168711476D01*
X18582571Y-168759095D01*
X18630190Y-168854333D01*
X18630190Y-169235285D01*
X19106380Y-167711476D02*
X19106380Y-168282904D01*
X19106380Y-167997190D02*
X18106380Y-167997190D01*
X18249238Y-168092428D01*
X18344476Y-168187666D01*
X18392095Y-168282904D01*
X18106380Y-167092428D02*
X18106380Y-166997190D01*
X18154000Y-166901952D01*
X18201619Y-166854333D01*
X18296857Y-166806714D01*
X18487333Y-166759095D01*
X18725428Y-166759095D01*
X18915904Y-166806714D01*
X19011142Y-166854333D01*
X19058761Y-166901952D01*
X19106380Y-166997190D01*
X19106380Y-167092428D01*
X19058761Y-167187666D01*
X19011142Y-167235285D01*
X18915904Y-167282904D01*
X18725428Y-167330523D01*
X18487333Y-167330523D01*
X18296857Y-167282904D01*
X18201619Y-167235285D01*
X18154000Y-167187666D01*
X18106380Y-167092428D01*
%TO.C,R11*%
X23423619Y-172942095D02*
X23376000Y-172894476D01*
X23328380Y-172799238D01*
X23328380Y-172561142D01*
X23376000Y-172465904D01*
X23423619Y-172418285D01*
X23518857Y-172370666D01*
X23614095Y-172370666D01*
X23756952Y-172418285D01*
X24328380Y-172989714D01*
X24328380Y-172370666D01*
X23423619Y-171989714D02*
X23376000Y-171942095D01*
X23328380Y-171846857D01*
X23328380Y-171608761D01*
X23376000Y-171513523D01*
X23423619Y-171465904D01*
X23518857Y-171418285D01*
X23614095Y-171418285D01*
X23756952Y-171465904D01*
X24328380Y-172037333D01*
X24328380Y-171418285D01*
X23328380Y-170799238D02*
X23328380Y-170704000D01*
X23376000Y-170608761D01*
X23423619Y-170561142D01*
X23518857Y-170513523D01*
X23709333Y-170465904D01*
X23947428Y-170465904D01*
X24137904Y-170513523D01*
X24233142Y-170561142D01*
X24280761Y-170608761D01*
X24328380Y-170704000D01*
X24328380Y-170799238D01*
X24280761Y-170894476D01*
X24233142Y-170942095D01*
X24137904Y-170989714D01*
X23947428Y-171037333D01*
X23709333Y-171037333D01*
X23518857Y-170989714D01*
X23423619Y-170942095D01*
X23376000Y-170894476D01*
X23328380Y-170799238D01*
X22408380Y-168663857D02*
X21932190Y-168997190D01*
X22408380Y-169235285D02*
X21408380Y-169235285D01*
X21408380Y-168854333D01*
X21456000Y-168759095D01*
X21503619Y-168711476D01*
X21598857Y-168663857D01*
X21741714Y-168663857D01*
X21836952Y-168711476D01*
X21884571Y-168759095D01*
X21932190Y-168854333D01*
X21932190Y-169235285D01*
X22408380Y-167711476D02*
X22408380Y-168282904D01*
X22408380Y-167997190D02*
X21408380Y-167997190D01*
X21551238Y-168092428D01*
X21646476Y-168187666D01*
X21694095Y-168282904D01*
X22408380Y-166759095D02*
X22408380Y-167330523D01*
X22408380Y-167044809D02*
X21408380Y-167044809D01*
X21551238Y-167140047D01*
X21646476Y-167235285D01*
X21694095Y-167330523D01*
%TO.C,R12*%
X45156380Y-170807047D02*
X45156380Y-171378476D01*
X45156380Y-171092761D02*
X44156380Y-171092761D01*
X44299238Y-171188000D01*
X44394476Y-171283238D01*
X44442095Y-171378476D01*
X45156380Y-170378476D02*
X44156380Y-170378476D01*
X44775428Y-170283238D02*
X45156380Y-169997523D01*
X44489714Y-169997523D02*
X44870666Y-170378476D01*
X45268380Y-168790857D02*
X44792190Y-169124190D01*
X45268380Y-169362285D02*
X44268380Y-169362285D01*
X44268380Y-168981333D01*
X44316000Y-168886095D01*
X44363619Y-168838476D01*
X44458857Y-168790857D01*
X44601714Y-168790857D01*
X44696952Y-168838476D01*
X44744571Y-168886095D01*
X44792190Y-168981333D01*
X44792190Y-169362285D01*
X45268380Y-167838476D02*
X45268380Y-168409904D01*
X45268380Y-168124190D02*
X44268380Y-168124190D01*
X44411238Y-168219428D01*
X44506476Y-168314666D01*
X44554095Y-168409904D01*
X44363619Y-167457523D02*
X44316000Y-167409904D01*
X44268380Y-167314666D01*
X44268380Y-167076571D01*
X44316000Y-166981333D01*
X44363619Y-166933714D01*
X44458857Y-166886095D01*
X44554095Y-166886095D01*
X44696952Y-166933714D01*
X45268380Y-167505142D01*
X45268380Y-166886095D01*
%TO.C,R13*%
X35759380Y-120094285D02*
X35759380Y-120570476D01*
X36235571Y-120618095D01*
X36187952Y-120570476D01*
X36140333Y-120475238D01*
X36140333Y-120237142D01*
X36187952Y-120141904D01*
X36235571Y-120094285D01*
X36330809Y-120046666D01*
X36568904Y-120046666D01*
X36664142Y-120094285D01*
X36711761Y-120141904D01*
X36759380Y-120237142D01*
X36759380Y-120475238D01*
X36711761Y-120570476D01*
X36664142Y-120618095D01*
X35759380Y-119189523D02*
X35759380Y-119380000D01*
X35807000Y-119475238D01*
X35854619Y-119522857D01*
X35997476Y-119618095D01*
X36187952Y-119665714D01*
X36568904Y-119665714D01*
X36664142Y-119618095D01*
X36711761Y-119570476D01*
X36759380Y-119475238D01*
X36759380Y-119284761D01*
X36711761Y-119189523D01*
X36664142Y-119141904D01*
X36568904Y-119094285D01*
X36330809Y-119094285D01*
X36235571Y-119141904D01*
X36187952Y-119189523D01*
X36140333Y-119284761D01*
X36140333Y-119475238D01*
X36187952Y-119570476D01*
X36235571Y-119618095D01*
X36330809Y-119665714D01*
X35759380Y-118475238D02*
X35759380Y-118380000D01*
X35807000Y-118284761D01*
X35854619Y-118237142D01*
X35949857Y-118189523D01*
X36140333Y-118141904D01*
X36378428Y-118141904D01*
X36568904Y-118189523D01*
X36664142Y-118237142D01*
X36711761Y-118284761D01*
X36759380Y-118380000D01*
X36759380Y-118475238D01*
X36711761Y-118570476D01*
X36664142Y-118618095D01*
X36568904Y-118665714D01*
X36378428Y-118713333D01*
X36140333Y-118713333D01*
X35949857Y-118665714D01*
X35854619Y-118618095D01*
X35807000Y-118570476D01*
X35759380Y-118475238D01*
X40599380Y-120022857D02*
X40123190Y-120356190D01*
X40599380Y-120594285D02*
X39599380Y-120594285D01*
X39599380Y-120213333D01*
X39647000Y-120118095D01*
X39694619Y-120070476D01*
X39789857Y-120022857D01*
X39932714Y-120022857D01*
X40027952Y-120070476D01*
X40075571Y-120118095D01*
X40123190Y-120213333D01*
X40123190Y-120594285D01*
X40599380Y-119070476D02*
X40599380Y-119641904D01*
X40599380Y-119356190D02*
X39599380Y-119356190D01*
X39742238Y-119451428D01*
X39837476Y-119546666D01*
X39885095Y-119641904D01*
X39599380Y-118737142D02*
X39599380Y-118118095D01*
X39980333Y-118451428D01*
X39980333Y-118308571D01*
X40027952Y-118213333D01*
X40075571Y-118165714D01*
X40170809Y-118118095D01*
X40408904Y-118118095D01*
X40504142Y-118165714D01*
X40551761Y-118213333D01*
X40599380Y-118308571D01*
X40599380Y-118594285D01*
X40551761Y-118689523D01*
X40504142Y-118737142D01*
%TO.C,R14*%
X29790380Y-120094285D02*
X29790380Y-120570476D01*
X30266571Y-120618095D01*
X30218952Y-120570476D01*
X30171333Y-120475238D01*
X30171333Y-120237142D01*
X30218952Y-120141904D01*
X30266571Y-120094285D01*
X30361809Y-120046666D01*
X30599904Y-120046666D01*
X30695142Y-120094285D01*
X30742761Y-120141904D01*
X30790380Y-120237142D01*
X30790380Y-120475238D01*
X30742761Y-120570476D01*
X30695142Y-120618095D01*
X29790380Y-119189523D02*
X29790380Y-119380000D01*
X29838000Y-119475238D01*
X29885619Y-119522857D01*
X30028476Y-119618095D01*
X30218952Y-119665714D01*
X30599904Y-119665714D01*
X30695142Y-119618095D01*
X30742761Y-119570476D01*
X30790380Y-119475238D01*
X30790380Y-119284761D01*
X30742761Y-119189523D01*
X30695142Y-119141904D01*
X30599904Y-119094285D01*
X30361809Y-119094285D01*
X30266571Y-119141904D01*
X30218952Y-119189523D01*
X30171333Y-119284761D01*
X30171333Y-119475238D01*
X30218952Y-119570476D01*
X30266571Y-119618095D01*
X30361809Y-119665714D01*
X29790380Y-118475238D02*
X29790380Y-118380000D01*
X29838000Y-118284761D01*
X29885619Y-118237142D01*
X29980857Y-118189523D01*
X30171333Y-118141904D01*
X30409428Y-118141904D01*
X30599904Y-118189523D01*
X30695142Y-118237142D01*
X30742761Y-118284761D01*
X30790380Y-118380000D01*
X30790380Y-118475238D01*
X30742761Y-118570476D01*
X30695142Y-118618095D01*
X30599904Y-118665714D01*
X30409428Y-118713333D01*
X30171333Y-118713333D01*
X29980857Y-118665714D01*
X29885619Y-118618095D01*
X29838000Y-118570476D01*
X29790380Y-118475238D01*
X34630380Y-120022857D02*
X34154190Y-120356190D01*
X34630380Y-120594285D02*
X33630380Y-120594285D01*
X33630380Y-120213333D01*
X33678000Y-120118095D01*
X33725619Y-120070476D01*
X33820857Y-120022857D01*
X33963714Y-120022857D01*
X34058952Y-120070476D01*
X34106571Y-120118095D01*
X34154190Y-120213333D01*
X34154190Y-120594285D01*
X34630380Y-119070476D02*
X34630380Y-119641904D01*
X34630380Y-119356190D02*
X33630380Y-119356190D01*
X33773238Y-119451428D01*
X33868476Y-119546666D01*
X33916095Y-119641904D01*
X33963714Y-118213333D02*
X34630380Y-118213333D01*
X33582761Y-118451428D02*
X34297047Y-118689523D01*
X34297047Y-118070476D01*
%TO.C,R15*%
X24202380Y-120221285D02*
X24202380Y-120697476D01*
X24678571Y-120745095D01*
X24630952Y-120697476D01*
X24583333Y-120602238D01*
X24583333Y-120364142D01*
X24630952Y-120268904D01*
X24678571Y-120221285D01*
X24773809Y-120173666D01*
X25011904Y-120173666D01*
X25107142Y-120221285D01*
X25154761Y-120268904D01*
X25202380Y-120364142D01*
X25202380Y-120602238D01*
X25154761Y-120697476D01*
X25107142Y-120745095D01*
X24202380Y-119316523D02*
X24202380Y-119507000D01*
X24250000Y-119602238D01*
X24297619Y-119649857D01*
X24440476Y-119745095D01*
X24630952Y-119792714D01*
X25011904Y-119792714D01*
X25107142Y-119745095D01*
X25154761Y-119697476D01*
X25202380Y-119602238D01*
X25202380Y-119411761D01*
X25154761Y-119316523D01*
X25107142Y-119268904D01*
X25011904Y-119221285D01*
X24773809Y-119221285D01*
X24678571Y-119268904D01*
X24630952Y-119316523D01*
X24583333Y-119411761D01*
X24583333Y-119602238D01*
X24630952Y-119697476D01*
X24678571Y-119745095D01*
X24773809Y-119792714D01*
X24202380Y-118602238D02*
X24202380Y-118507000D01*
X24250000Y-118411761D01*
X24297619Y-118364142D01*
X24392857Y-118316523D01*
X24583333Y-118268904D01*
X24821428Y-118268904D01*
X25011904Y-118316523D01*
X25107142Y-118364142D01*
X25154761Y-118411761D01*
X25202380Y-118507000D01*
X25202380Y-118602238D01*
X25154761Y-118697476D01*
X25107142Y-118745095D01*
X25011904Y-118792714D01*
X24821428Y-118840333D01*
X24583333Y-118840333D01*
X24392857Y-118792714D01*
X24297619Y-118745095D01*
X24250000Y-118697476D01*
X24202380Y-118602238D01*
X29042380Y-120149857D02*
X28566190Y-120483190D01*
X29042380Y-120721285D02*
X28042380Y-120721285D01*
X28042380Y-120340333D01*
X28090000Y-120245095D01*
X28137619Y-120197476D01*
X28232857Y-120149857D01*
X28375714Y-120149857D01*
X28470952Y-120197476D01*
X28518571Y-120245095D01*
X28566190Y-120340333D01*
X28566190Y-120721285D01*
X29042380Y-119197476D02*
X29042380Y-119768904D01*
X29042380Y-119483190D02*
X28042380Y-119483190D01*
X28185238Y-119578428D01*
X28280476Y-119673666D01*
X28328095Y-119768904D01*
X28042380Y-118292714D02*
X28042380Y-118768904D01*
X28518571Y-118816523D01*
X28470952Y-118768904D01*
X28423333Y-118673666D01*
X28423333Y-118435571D01*
X28470952Y-118340333D01*
X28518571Y-118292714D01*
X28613809Y-118245095D01*
X28851904Y-118245095D01*
X28947142Y-118292714D01*
X28994761Y-118340333D01*
X29042380Y-118435571D01*
X29042380Y-118673666D01*
X28994761Y-118768904D01*
X28947142Y-118816523D01*
%TO.C,R16*%
X18360380Y-120221285D02*
X18360380Y-120697476D01*
X18836571Y-120745095D01*
X18788952Y-120697476D01*
X18741333Y-120602238D01*
X18741333Y-120364142D01*
X18788952Y-120268904D01*
X18836571Y-120221285D01*
X18931809Y-120173666D01*
X19169904Y-120173666D01*
X19265142Y-120221285D01*
X19312761Y-120268904D01*
X19360380Y-120364142D01*
X19360380Y-120602238D01*
X19312761Y-120697476D01*
X19265142Y-120745095D01*
X18360380Y-119316523D02*
X18360380Y-119507000D01*
X18408000Y-119602238D01*
X18455619Y-119649857D01*
X18598476Y-119745095D01*
X18788952Y-119792714D01*
X19169904Y-119792714D01*
X19265142Y-119745095D01*
X19312761Y-119697476D01*
X19360380Y-119602238D01*
X19360380Y-119411761D01*
X19312761Y-119316523D01*
X19265142Y-119268904D01*
X19169904Y-119221285D01*
X18931809Y-119221285D01*
X18836571Y-119268904D01*
X18788952Y-119316523D01*
X18741333Y-119411761D01*
X18741333Y-119602238D01*
X18788952Y-119697476D01*
X18836571Y-119745095D01*
X18931809Y-119792714D01*
X18360380Y-118602238D02*
X18360380Y-118507000D01*
X18408000Y-118411761D01*
X18455619Y-118364142D01*
X18550857Y-118316523D01*
X18741333Y-118268904D01*
X18979428Y-118268904D01*
X19169904Y-118316523D01*
X19265142Y-118364142D01*
X19312761Y-118411761D01*
X19360380Y-118507000D01*
X19360380Y-118602238D01*
X19312761Y-118697476D01*
X19265142Y-118745095D01*
X19169904Y-118792714D01*
X18979428Y-118840333D01*
X18741333Y-118840333D01*
X18550857Y-118792714D01*
X18455619Y-118745095D01*
X18408000Y-118697476D01*
X18360380Y-118602238D01*
X23200380Y-120149857D02*
X22724190Y-120483190D01*
X23200380Y-120721285D02*
X22200380Y-120721285D01*
X22200380Y-120340333D01*
X22248000Y-120245095D01*
X22295619Y-120197476D01*
X22390857Y-120149857D01*
X22533714Y-120149857D01*
X22628952Y-120197476D01*
X22676571Y-120245095D01*
X22724190Y-120340333D01*
X22724190Y-120721285D01*
X23200380Y-119197476D02*
X23200380Y-119768904D01*
X23200380Y-119483190D02*
X22200380Y-119483190D01*
X22343238Y-119578428D01*
X22438476Y-119673666D01*
X22486095Y-119768904D01*
X22200380Y-118340333D02*
X22200380Y-118530809D01*
X22248000Y-118626047D01*
X22295619Y-118673666D01*
X22438476Y-118768904D01*
X22628952Y-118816523D01*
X23009904Y-118816523D01*
X23105142Y-118768904D01*
X23152761Y-118721285D01*
X23200380Y-118626047D01*
X23200380Y-118435571D01*
X23152761Y-118340333D01*
X23105142Y-118292714D01*
X23009904Y-118245095D01*
X22771809Y-118245095D01*
X22676571Y-118292714D01*
X22628952Y-118340333D01*
X22581333Y-118435571D01*
X22581333Y-118626047D01*
X22628952Y-118721285D01*
X22676571Y-118768904D01*
X22771809Y-118816523D01*
%TO.C,R17*%
X84637619Y-170656095D02*
X84590000Y-170608476D01*
X84542380Y-170513238D01*
X84542380Y-170275142D01*
X84590000Y-170179904D01*
X84637619Y-170132285D01*
X84732857Y-170084666D01*
X84828095Y-170084666D01*
X84970952Y-170132285D01*
X85542380Y-170703714D01*
X85542380Y-170084666D01*
X84637619Y-169703714D02*
X84590000Y-169656095D01*
X84542380Y-169560857D01*
X84542380Y-169322761D01*
X84590000Y-169227523D01*
X84637619Y-169179904D01*
X84732857Y-169132285D01*
X84828095Y-169132285D01*
X84970952Y-169179904D01*
X85542380Y-169751333D01*
X85542380Y-169132285D01*
X84542380Y-168513238D02*
X84542380Y-168418000D01*
X84590000Y-168322761D01*
X84637619Y-168275142D01*
X84732857Y-168227523D01*
X84923333Y-168179904D01*
X85161428Y-168179904D01*
X85351904Y-168227523D01*
X85447142Y-168275142D01*
X85494761Y-168322761D01*
X85542380Y-168418000D01*
X85542380Y-168513238D01*
X85494761Y-168608476D01*
X85447142Y-168656095D01*
X85351904Y-168703714D01*
X85161428Y-168751333D01*
X84923333Y-168751333D01*
X84732857Y-168703714D01*
X84637619Y-168656095D01*
X84590000Y-168608476D01*
X84542380Y-168513238D01*
X83749380Y-166377857D02*
X83273190Y-166711190D01*
X83749380Y-166949285D02*
X82749380Y-166949285D01*
X82749380Y-166568333D01*
X82797000Y-166473095D01*
X82844619Y-166425476D01*
X82939857Y-166377857D01*
X83082714Y-166377857D01*
X83177952Y-166425476D01*
X83225571Y-166473095D01*
X83273190Y-166568333D01*
X83273190Y-166949285D01*
X83749380Y-165425476D02*
X83749380Y-165996904D01*
X83749380Y-165711190D02*
X82749380Y-165711190D01*
X82892238Y-165806428D01*
X82987476Y-165901666D01*
X83035095Y-165996904D01*
X82749380Y-165092142D02*
X82749380Y-164425476D01*
X83749380Y-164854047D01*
%TO.C,R18*%
X102830428Y-148390714D02*
X102830428Y-149057380D01*
X102592333Y-148009761D02*
X102354238Y-148724047D01*
X102973285Y-148724047D01*
X103354238Y-148962142D02*
X103401857Y-149009761D01*
X103354238Y-149057380D01*
X103306619Y-149009761D01*
X103354238Y-148962142D01*
X103354238Y-149057380D01*
X103735190Y-148057380D02*
X104401857Y-148057380D01*
X103973285Y-149057380D01*
X104782809Y-149057380D02*
X104782809Y-148057380D01*
X104878047Y-148676428D02*
X105163761Y-149057380D01*
X105163761Y-148390714D02*
X104782809Y-148771666D01*
X103116142Y-145217380D02*
X102782809Y-144741190D01*
X102544714Y-145217380D02*
X102544714Y-144217380D01*
X102925666Y-144217380D01*
X103020904Y-144265000D01*
X103068523Y-144312619D01*
X103116142Y-144407857D01*
X103116142Y-144550714D01*
X103068523Y-144645952D01*
X103020904Y-144693571D01*
X102925666Y-144741190D01*
X102544714Y-144741190D01*
X104068523Y-145217380D02*
X103497095Y-145217380D01*
X103782809Y-145217380D02*
X103782809Y-144217380D01*
X103687571Y-144360238D01*
X103592333Y-144455476D01*
X103497095Y-144503095D01*
X104639952Y-144645952D02*
X104544714Y-144598333D01*
X104497095Y-144550714D01*
X104449476Y-144455476D01*
X104449476Y-144407857D01*
X104497095Y-144312619D01*
X104544714Y-144265000D01*
X104639952Y-144217380D01*
X104830428Y-144217380D01*
X104925666Y-144265000D01*
X104973285Y-144312619D01*
X105020904Y-144407857D01*
X105020904Y-144455476D01*
X104973285Y-144550714D01*
X104925666Y-144598333D01*
X104830428Y-144645952D01*
X104639952Y-144645952D01*
X104544714Y-144693571D01*
X104497095Y-144741190D01*
X104449476Y-144836428D01*
X104449476Y-145026904D01*
X104497095Y-145122142D01*
X104544714Y-145169761D01*
X104639952Y-145217380D01*
X104830428Y-145217380D01*
X104925666Y-145169761D01*
X104973285Y-145122142D01*
X105020904Y-145026904D01*
X105020904Y-144836428D01*
X104973285Y-144741190D01*
X104925666Y-144693571D01*
X104830428Y-144645952D01*
%TO.C,R19*%
X80732380Y-170957714D02*
X80732380Y-170338666D01*
X81113333Y-170672000D01*
X81113333Y-170529142D01*
X81160952Y-170433904D01*
X81208571Y-170386285D01*
X81303809Y-170338666D01*
X81541904Y-170338666D01*
X81637142Y-170386285D01*
X81684761Y-170433904D01*
X81732380Y-170529142D01*
X81732380Y-170814857D01*
X81684761Y-170910095D01*
X81637142Y-170957714D01*
X80732380Y-170005333D02*
X80732380Y-169386285D01*
X81113333Y-169719619D01*
X81113333Y-169576761D01*
X81160952Y-169481523D01*
X81208571Y-169433904D01*
X81303809Y-169386285D01*
X81541904Y-169386285D01*
X81637142Y-169433904D01*
X81684761Y-169481523D01*
X81732380Y-169576761D01*
X81732380Y-169862476D01*
X81684761Y-169957714D01*
X81637142Y-170005333D01*
X80732380Y-168767238D02*
X80732380Y-168672000D01*
X80780000Y-168576761D01*
X80827619Y-168529142D01*
X80922857Y-168481523D01*
X81113333Y-168433904D01*
X81351428Y-168433904D01*
X81541904Y-168481523D01*
X81637142Y-168529142D01*
X81684761Y-168576761D01*
X81732380Y-168672000D01*
X81732380Y-168767238D01*
X81684761Y-168862476D01*
X81637142Y-168910095D01*
X81541904Y-168957714D01*
X81351428Y-169005333D01*
X81113333Y-169005333D01*
X80922857Y-168957714D01*
X80827619Y-168910095D01*
X80780000Y-168862476D01*
X80732380Y-168767238D01*
X79939380Y-166377857D02*
X79463190Y-166711190D01*
X79939380Y-166949285D02*
X78939380Y-166949285D01*
X78939380Y-166568333D01*
X78987000Y-166473095D01*
X79034619Y-166425476D01*
X79129857Y-166377857D01*
X79272714Y-166377857D01*
X79367952Y-166425476D01*
X79415571Y-166473095D01*
X79463190Y-166568333D01*
X79463190Y-166949285D01*
X79939380Y-165425476D02*
X79939380Y-165996904D01*
X79939380Y-165711190D02*
X78939380Y-165711190D01*
X79082238Y-165806428D01*
X79177476Y-165901666D01*
X79225095Y-165996904D01*
X79939380Y-164949285D02*
X79939380Y-164758809D01*
X79891761Y-164663571D01*
X79844142Y-164615952D01*
X79701285Y-164520714D01*
X79510809Y-164473095D01*
X79129857Y-164473095D01*
X79034619Y-164520714D01*
X78987000Y-164568333D01*
X78939380Y-164663571D01*
X78939380Y-164854047D01*
X78987000Y-164949285D01*
X79034619Y-164996904D01*
X79129857Y-165044523D01*
X79367952Y-165044523D01*
X79463190Y-164996904D01*
X79510809Y-164949285D01*
X79558428Y-164854047D01*
X79558428Y-164663571D01*
X79510809Y-164568333D01*
X79463190Y-164520714D01*
X79367952Y-164473095D01*
%TO.C,R20*%
X80493380Y-131651285D02*
X80493380Y-132127476D01*
X80969571Y-132175095D01*
X80921952Y-132127476D01*
X80874333Y-132032238D01*
X80874333Y-131794142D01*
X80921952Y-131698904D01*
X80969571Y-131651285D01*
X81064809Y-131603666D01*
X81302904Y-131603666D01*
X81398142Y-131651285D01*
X81445761Y-131698904D01*
X81493380Y-131794142D01*
X81493380Y-132032238D01*
X81445761Y-132127476D01*
X81398142Y-132175095D01*
X80493380Y-130746523D02*
X80493380Y-130937000D01*
X80541000Y-131032238D01*
X80588619Y-131079857D01*
X80731476Y-131175095D01*
X80921952Y-131222714D01*
X81302904Y-131222714D01*
X81398142Y-131175095D01*
X81445761Y-131127476D01*
X81493380Y-131032238D01*
X81493380Y-130841761D01*
X81445761Y-130746523D01*
X81398142Y-130698904D01*
X81302904Y-130651285D01*
X81064809Y-130651285D01*
X80969571Y-130698904D01*
X80921952Y-130746523D01*
X80874333Y-130841761D01*
X80874333Y-131032238D01*
X80921952Y-131127476D01*
X80969571Y-131175095D01*
X81064809Y-131222714D01*
X80493380Y-130032238D02*
X80493380Y-129937000D01*
X80541000Y-129841761D01*
X80588619Y-129794142D01*
X80683857Y-129746523D01*
X80874333Y-129698904D01*
X81112428Y-129698904D01*
X81302904Y-129746523D01*
X81398142Y-129794142D01*
X81445761Y-129841761D01*
X81493380Y-129937000D01*
X81493380Y-130032238D01*
X81445761Y-130127476D01*
X81398142Y-130175095D01*
X81302904Y-130222714D01*
X81112428Y-130270333D01*
X80874333Y-130270333D01*
X80683857Y-130222714D01*
X80588619Y-130175095D01*
X80541000Y-130127476D01*
X80493380Y-130032238D01*
X77653380Y-131579857D02*
X77177190Y-131913190D01*
X77653380Y-132151285D02*
X76653380Y-132151285D01*
X76653380Y-131770333D01*
X76701000Y-131675095D01*
X76748619Y-131627476D01*
X76843857Y-131579857D01*
X76986714Y-131579857D01*
X77081952Y-131627476D01*
X77129571Y-131675095D01*
X77177190Y-131770333D01*
X77177190Y-132151285D01*
X76748619Y-131198904D02*
X76701000Y-131151285D01*
X76653380Y-131056047D01*
X76653380Y-130817952D01*
X76701000Y-130722714D01*
X76748619Y-130675095D01*
X76843857Y-130627476D01*
X76939095Y-130627476D01*
X77081952Y-130675095D01*
X77653380Y-131246523D01*
X77653380Y-130627476D01*
X76653380Y-130008428D02*
X76653380Y-129913190D01*
X76701000Y-129817952D01*
X76748619Y-129770333D01*
X76843857Y-129722714D01*
X77034333Y-129675095D01*
X77272428Y-129675095D01*
X77462904Y-129722714D01*
X77558142Y-129770333D01*
X77605761Y-129817952D01*
X77653380Y-129913190D01*
X77653380Y-130008428D01*
X77605761Y-130103666D01*
X77558142Y-130151285D01*
X77462904Y-130198904D01*
X77272428Y-130246523D01*
X77034333Y-130246523D01*
X76843857Y-130198904D01*
X76748619Y-130151285D01*
X76701000Y-130103666D01*
X76653380Y-130008428D01*
%TO.C,R21*%
X49831714Y-129104380D02*
X49355523Y-129104380D01*
X49307904Y-129580571D01*
X49355523Y-129532952D01*
X49450761Y-129485333D01*
X49688857Y-129485333D01*
X49784095Y-129532952D01*
X49831714Y-129580571D01*
X49879333Y-129675809D01*
X49879333Y-129913904D01*
X49831714Y-130009142D01*
X49784095Y-130056761D01*
X49688857Y-130104380D01*
X49450761Y-130104380D01*
X49355523Y-130056761D01*
X49307904Y-130009142D01*
X50736476Y-129104380D02*
X50546000Y-129104380D01*
X50450761Y-129152000D01*
X50403142Y-129199619D01*
X50307904Y-129342476D01*
X50260285Y-129532952D01*
X50260285Y-129913904D01*
X50307904Y-130009142D01*
X50355523Y-130056761D01*
X50450761Y-130104380D01*
X50641238Y-130104380D01*
X50736476Y-130056761D01*
X50784095Y-130009142D01*
X50831714Y-129913904D01*
X50831714Y-129675809D01*
X50784095Y-129580571D01*
X50736476Y-129532952D01*
X50641238Y-129485333D01*
X50450761Y-129485333D01*
X50355523Y-129532952D01*
X50307904Y-129580571D01*
X50260285Y-129675809D01*
X51450761Y-129104380D02*
X51546000Y-129104380D01*
X51641238Y-129152000D01*
X51688857Y-129199619D01*
X51736476Y-129294857D01*
X51784095Y-129485333D01*
X51784095Y-129723428D01*
X51736476Y-129913904D01*
X51688857Y-130009142D01*
X51641238Y-130056761D01*
X51546000Y-130104380D01*
X51450761Y-130104380D01*
X51355523Y-130056761D01*
X51307904Y-130009142D01*
X51260285Y-129913904D01*
X51212666Y-129723428D01*
X51212666Y-129485333D01*
X51260285Y-129294857D01*
X51307904Y-129199619D01*
X51355523Y-129152000D01*
X51450761Y-129104380D01*
X49903142Y-133944380D02*
X49569809Y-133468190D01*
X49331714Y-133944380D02*
X49331714Y-132944380D01*
X49712666Y-132944380D01*
X49807904Y-132992000D01*
X49855523Y-133039619D01*
X49903142Y-133134857D01*
X49903142Y-133277714D01*
X49855523Y-133372952D01*
X49807904Y-133420571D01*
X49712666Y-133468190D01*
X49331714Y-133468190D01*
X50284095Y-133039619D02*
X50331714Y-132992000D01*
X50426952Y-132944380D01*
X50665047Y-132944380D01*
X50760285Y-132992000D01*
X50807904Y-133039619D01*
X50855523Y-133134857D01*
X50855523Y-133230095D01*
X50807904Y-133372952D01*
X50236476Y-133944380D01*
X50855523Y-133944380D01*
X51807904Y-133944380D02*
X51236476Y-133944380D01*
X51522190Y-133944380D02*
X51522190Y-132944380D01*
X51426952Y-133087238D01*
X51331714Y-133182476D01*
X51236476Y-133230095D01*
%TO.C,R22*%
X57857380Y-120094285D02*
X57857380Y-120570476D01*
X58333571Y-120618095D01*
X58285952Y-120570476D01*
X58238333Y-120475238D01*
X58238333Y-120237142D01*
X58285952Y-120141904D01*
X58333571Y-120094285D01*
X58428809Y-120046666D01*
X58666904Y-120046666D01*
X58762142Y-120094285D01*
X58809761Y-120141904D01*
X58857380Y-120237142D01*
X58857380Y-120475238D01*
X58809761Y-120570476D01*
X58762142Y-120618095D01*
X57857380Y-119189523D02*
X57857380Y-119380000D01*
X57905000Y-119475238D01*
X57952619Y-119522857D01*
X58095476Y-119618095D01*
X58285952Y-119665714D01*
X58666904Y-119665714D01*
X58762142Y-119618095D01*
X58809761Y-119570476D01*
X58857380Y-119475238D01*
X58857380Y-119284761D01*
X58809761Y-119189523D01*
X58762142Y-119141904D01*
X58666904Y-119094285D01*
X58428809Y-119094285D01*
X58333571Y-119141904D01*
X58285952Y-119189523D01*
X58238333Y-119284761D01*
X58238333Y-119475238D01*
X58285952Y-119570476D01*
X58333571Y-119618095D01*
X58428809Y-119665714D01*
X57857380Y-118475238D02*
X57857380Y-118380000D01*
X57905000Y-118284761D01*
X57952619Y-118237142D01*
X58047857Y-118189523D01*
X58238333Y-118141904D01*
X58476428Y-118141904D01*
X58666904Y-118189523D01*
X58762142Y-118237142D01*
X58809761Y-118284761D01*
X58857380Y-118380000D01*
X58857380Y-118475238D01*
X58809761Y-118570476D01*
X58762142Y-118618095D01*
X58666904Y-118665714D01*
X58476428Y-118713333D01*
X58238333Y-118713333D01*
X58047857Y-118665714D01*
X57952619Y-118618095D01*
X57905000Y-118570476D01*
X57857380Y-118475238D01*
X62697380Y-120022857D02*
X62221190Y-120356190D01*
X62697380Y-120594285D02*
X61697380Y-120594285D01*
X61697380Y-120213333D01*
X61745000Y-120118095D01*
X61792619Y-120070476D01*
X61887857Y-120022857D01*
X62030714Y-120022857D01*
X62125952Y-120070476D01*
X62173571Y-120118095D01*
X62221190Y-120213333D01*
X62221190Y-120594285D01*
X61792619Y-119641904D02*
X61745000Y-119594285D01*
X61697380Y-119499047D01*
X61697380Y-119260952D01*
X61745000Y-119165714D01*
X61792619Y-119118095D01*
X61887857Y-119070476D01*
X61983095Y-119070476D01*
X62125952Y-119118095D01*
X62697380Y-119689523D01*
X62697380Y-119070476D01*
X61792619Y-118689523D02*
X61745000Y-118641904D01*
X61697380Y-118546666D01*
X61697380Y-118308571D01*
X61745000Y-118213333D01*
X61792619Y-118165714D01*
X61887857Y-118118095D01*
X61983095Y-118118095D01*
X62125952Y-118165714D01*
X62697380Y-118737142D01*
X62697380Y-118118095D01*
%TO.C,R23*%
X52269380Y-120094285D02*
X52269380Y-120570476D01*
X52745571Y-120618095D01*
X52697952Y-120570476D01*
X52650333Y-120475238D01*
X52650333Y-120237142D01*
X52697952Y-120141904D01*
X52745571Y-120094285D01*
X52840809Y-120046666D01*
X53078904Y-120046666D01*
X53174142Y-120094285D01*
X53221761Y-120141904D01*
X53269380Y-120237142D01*
X53269380Y-120475238D01*
X53221761Y-120570476D01*
X53174142Y-120618095D01*
X52269380Y-119189523D02*
X52269380Y-119380000D01*
X52317000Y-119475238D01*
X52364619Y-119522857D01*
X52507476Y-119618095D01*
X52697952Y-119665714D01*
X53078904Y-119665714D01*
X53174142Y-119618095D01*
X53221761Y-119570476D01*
X53269380Y-119475238D01*
X53269380Y-119284761D01*
X53221761Y-119189523D01*
X53174142Y-119141904D01*
X53078904Y-119094285D01*
X52840809Y-119094285D01*
X52745571Y-119141904D01*
X52697952Y-119189523D01*
X52650333Y-119284761D01*
X52650333Y-119475238D01*
X52697952Y-119570476D01*
X52745571Y-119618095D01*
X52840809Y-119665714D01*
X52269380Y-118475238D02*
X52269380Y-118380000D01*
X52317000Y-118284761D01*
X52364619Y-118237142D01*
X52459857Y-118189523D01*
X52650333Y-118141904D01*
X52888428Y-118141904D01*
X53078904Y-118189523D01*
X53174142Y-118237142D01*
X53221761Y-118284761D01*
X53269380Y-118380000D01*
X53269380Y-118475238D01*
X53221761Y-118570476D01*
X53174142Y-118618095D01*
X53078904Y-118665714D01*
X52888428Y-118713333D01*
X52650333Y-118713333D01*
X52459857Y-118665714D01*
X52364619Y-118618095D01*
X52317000Y-118570476D01*
X52269380Y-118475238D01*
X57109380Y-120022857D02*
X56633190Y-120356190D01*
X57109380Y-120594285D02*
X56109380Y-120594285D01*
X56109380Y-120213333D01*
X56157000Y-120118095D01*
X56204619Y-120070476D01*
X56299857Y-120022857D01*
X56442714Y-120022857D01*
X56537952Y-120070476D01*
X56585571Y-120118095D01*
X56633190Y-120213333D01*
X56633190Y-120594285D01*
X56204619Y-119641904D02*
X56157000Y-119594285D01*
X56109380Y-119499047D01*
X56109380Y-119260952D01*
X56157000Y-119165714D01*
X56204619Y-119118095D01*
X56299857Y-119070476D01*
X56395095Y-119070476D01*
X56537952Y-119118095D01*
X57109380Y-119689523D01*
X57109380Y-119070476D01*
X56109380Y-118737142D02*
X56109380Y-118118095D01*
X56490333Y-118451428D01*
X56490333Y-118308571D01*
X56537952Y-118213333D01*
X56585571Y-118165714D01*
X56680809Y-118118095D01*
X56918904Y-118118095D01*
X57014142Y-118165714D01*
X57061761Y-118213333D01*
X57109380Y-118308571D01*
X57109380Y-118594285D01*
X57061761Y-118689523D01*
X57014142Y-118737142D01*
%TO.C,R24*%
X46808380Y-120094285D02*
X46808380Y-120570476D01*
X47284571Y-120618095D01*
X47236952Y-120570476D01*
X47189333Y-120475238D01*
X47189333Y-120237142D01*
X47236952Y-120141904D01*
X47284571Y-120094285D01*
X47379809Y-120046666D01*
X47617904Y-120046666D01*
X47713142Y-120094285D01*
X47760761Y-120141904D01*
X47808380Y-120237142D01*
X47808380Y-120475238D01*
X47760761Y-120570476D01*
X47713142Y-120618095D01*
X46808380Y-119189523D02*
X46808380Y-119380000D01*
X46856000Y-119475238D01*
X46903619Y-119522857D01*
X47046476Y-119618095D01*
X47236952Y-119665714D01*
X47617904Y-119665714D01*
X47713142Y-119618095D01*
X47760761Y-119570476D01*
X47808380Y-119475238D01*
X47808380Y-119284761D01*
X47760761Y-119189523D01*
X47713142Y-119141904D01*
X47617904Y-119094285D01*
X47379809Y-119094285D01*
X47284571Y-119141904D01*
X47236952Y-119189523D01*
X47189333Y-119284761D01*
X47189333Y-119475238D01*
X47236952Y-119570476D01*
X47284571Y-119618095D01*
X47379809Y-119665714D01*
X46808380Y-118475238D02*
X46808380Y-118380000D01*
X46856000Y-118284761D01*
X46903619Y-118237142D01*
X46998857Y-118189523D01*
X47189333Y-118141904D01*
X47427428Y-118141904D01*
X47617904Y-118189523D01*
X47713142Y-118237142D01*
X47760761Y-118284761D01*
X47808380Y-118380000D01*
X47808380Y-118475238D01*
X47760761Y-118570476D01*
X47713142Y-118618095D01*
X47617904Y-118665714D01*
X47427428Y-118713333D01*
X47189333Y-118713333D01*
X46998857Y-118665714D01*
X46903619Y-118618095D01*
X46856000Y-118570476D01*
X46808380Y-118475238D01*
X51648380Y-120022857D02*
X51172190Y-120356190D01*
X51648380Y-120594285D02*
X50648380Y-120594285D01*
X50648380Y-120213333D01*
X50696000Y-120118095D01*
X50743619Y-120070476D01*
X50838857Y-120022857D01*
X50981714Y-120022857D01*
X51076952Y-120070476D01*
X51124571Y-120118095D01*
X51172190Y-120213333D01*
X51172190Y-120594285D01*
X50743619Y-119641904D02*
X50696000Y-119594285D01*
X50648380Y-119499047D01*
X50648380Y-119260952D01*
X50696000Y-119165714D01*
X50743619Y-119118095D01*
X50838857Y-119070476D01*
X50934095Y-119070476D01*
X51076952Y-119118095D01*
X51648380Y-119689523D01*
X51648380Y-119070476D01*
X50981714Y-118213333D02*
X51648380Y-118213333D01*
X50600761Y-118451428D02*
X51315047Y-118689523D01*
X51315047Y-118070476D01*
%TO.C,R25*%
X41220380Y-120094285D02*
X41220380Y-120570476D01*
X41696571Y-120618095D01*
X41648952Y-120570476D01*
X41601333Y-120475238D01*
X41601333Y-120237142D01*
X41648952Y-120141904D01*
X41696571Y-120094285D01*
X41791809Y-120046666D01*
X42029904Y-120046666D01*
X42125142Y-120094285D01*
X42172761Y-120141904D01*
X42220380Y-120237142D01*
X42220380Y-120475238D01*
X42172761Y-120570476D01*
X42125142Y-120618095D01*
X41220380Y-119189523D02*
X41220380Y-119380000D01*
X41268000Y-119475238D01*
X41315619Y-119522857D01*
X41458476Y-119618095D01*
X41648952Y-119665714D01*
X42029904Y-119665714D01*
X42125142Y-119618095D01*
X42172761Y-119570476D01*
X42220380Y-119475238D01*
X42220380Y-119284761D01*
X42172761Y-119189523D01*
X42125142Y-119141904D01*
X42029904Y-119094285D01*
X41791809Y-119094285D01*
X41696571Y-119141904D01*
X41648952Y-119189523D01*
X41601333Y-119284761D01*
X41601333Y-119475238D01*
X41648952Y-119570476D01*
X41696571Y-119618095D01*
X41791809Y-119665714D01*
X41220380Y-118475238D02*
X41220380Y-118380000D01*
X41268000Y-118284761D01*
X41315619Y-118237142D01*
X41410857Y-118189523D01*
X41601333Y-118141904D01*
X41839428Y-118141904D01*
X42029904Y-118189523D01*
X42125142Y-118237142D01*
X42172761Y-118284761D01*
X42220380Y-118380000D01*
X42220380Y-118475238D01*
X42172761Y-118570476D01*
X42125142Y-118618095D01*
X42029904Y-118665714D01*
X41839428Y-118713333D01*
X41601333Y-118713333D01*
X41410857Y-118665714D01*
X41315619Y-118618095D01*
X41268000Y-118570476D01*
X41220380Y-118475238D01*
X46060380Y-120022857D02*
X45584190Y-120356190D01*
X46060380Y-120594285D02*
X45060380Y-120594285D01*
X45060380Y-120213333D01*
X45108000Y-120118095D01*
X45155619Y-120070476D01*
X45250857Y-120022857D01*
X45393714Y-120022857D01*
X45488952Y-120070476D01*
X45536571Y-120118095D01*
X45584190Y-120213333D01*
X45584190Y-120594285D01*
X45155619Y-119641904D02*
X45108000Y-119594285D01*
X45060380Y-119499047D01*
X45060380Y-119260952D01*
X45108000Y-119165714D01*
X45155619Y-119118095D01*
X45250857Y-119070476D01*
X45346095Y-119070476D01*
X45488952Y-119118095D01*
X46060380Y-119689523D01*
X46060380Y-119070476D01*
X45060380Y-118165714D02*
X45060380Y-118641904D01*
X45536571Y-118689523D01*
X45488952Y-118641904D01*
X45441333Y-118546666D01*
X45441333Y-118308571D01*
X45488952Y-118213333D01*
X45536571Y-118165714D01*
X45631809Y-118118095D01*
X45869904Y-118118095D01*
X45965142Y-118165714D01*
X46012761Y-118213333D01*
X46060380Y-118308571D01*
X46060380Y-118546666D01*
X46012761Y-118641904D01*
X45965142Y-118689523D01*
%TO.C,RV1*%
X100979380Y-154724047D02*
X100979380Y-155295476D01*
X100979380Y-155009761D02*
X99979380Y-155009761D01*
X100122238Y-155105000D01*
X100217476Y-155200238D01*
X100265095Y-155295476D01*
X100979380Y-154295476D02*
X99979380Y-154295476D01*
X100598428Y-154200238D02*
X100979380Y-153914523D01*
X100312714Y-153914523D02*
X100693666Y-154295476D01*
X92281761Y-159107380D02*
X91948428Y-158631190D01*
X91710333Y-159107380D02*
X91710333Y-158107380D01*
X92091285Y-158107380D01*
X92186523Y-158155000D01*
X92234142Y-158202619D01*
X92281761Y-158297857D01*
X92281761Y-158440714D01*
X92234142Y-158535952D01*
X92186523Y-158583571D01*
X92091285Y-158631190D01*
X91710333Y-158631190D01*
X92567476Y-158107380D02*
X92900809Y-159107380D01*
X93234142Y-158107380D01*
X94091285Y-159107380D02*
X93519857Y-159107380D01*
X93805571Y-159107380D02*
X93805571Y-158107380D01*
X93710333Y-158250238D01*
X93615095Y-158345476D01*
X93519857Y-158393095D01*
%TO.C,RV2*%
X85739380Y-154724047D02*
X85739380Y-155295476D01*
X85739380Y-155009761D02*
X84739380Y-155009761D01*
X84882238Y-155105000D01*
X84977476Y-155200238D01*
X85025095Y-155295476D01*
X85739380Y-154295476D02*
X84739380Y-154295476D01*
X85358428Y-154200238D02*
X85739380Y-153914523D01*
X85072714Y-153914523D02*
X85453666Y-154295476D01*
X77041761Y-159107380D02*
X76708428Y-158631190D01*
X76470333Y-159107380D02*
X76470333Y-158107380D01*
X76851285Y-158107380D01*
X76946523Y-158155000D01*
X76994142Y-158202619D01*
X77041761Y-158297857D01*
X77041761Y-158440714D01*
X76994142Y-158535952D01*
X76946523Y-158583571D01*
X76851285Y-158631190D01*
X76470333Y-158631190D01*
X77327476Y-158107380D02*
X77660809Y-159107380D01*
X77994142Y-158107380D01*
X78279857Y-158202619D02*
X78327476Y-158155000D01*
X78422714Y-158107380D01*
X78660809Y-158107380D01*
X78756047Y-158155000D01*
X78803666Y-158202619D01*
X78851285Y-158297857D01*
X78851285Y-158393095D01*
X78803666Y-158535952D01*
X78232238Y-159107380D01*
X78851285Y-159107380D01*
%TO.C,SW1*%
X62984761Y-154745619D02*
X63032380Y-154602761D01*
X63032380Y-154364666D01*
X62984761Y-154269428D01*
X62937142Y-154221809D01*
X62841904Y-154174190D01*
X62746666Y-154174190D01*
X62651428Y-154221809D01*
X62603809Y-154269428D01*
X62556190Y-154364666D01*
X62508571Y-154555142D01*
X62460952Y-154650380D01*
X62413333Y-154698000D01*
X62318095Y-154745619D01*
X62222857Y-154745619D01*
X62127619Y-154698000D01*
X62080000Y-154650380D01*
X62032380Y-154555142D01*
X62032380Y-154317047D01*
X62080000Y-154174190D01*
X62032380Y-153840857D02*
X63032380Y-153602761D01*
X62318095Y-153412285D01*
X63032380Y-153221809D01*
X62032380Y-152983714D01*
X63127619Y-152840857D02*
X63127619Y-152078952D01*
X63032380Y-151840857D02*
X62032380Y-151840857D01*
X62032380Y-151459904D01*
X62080000Y-151364666D01*
X62127619Y-151317047D01*
X62222857Y-151269428D01*
X62365714Y-151269428D01*
X62460952Y-151317047D01*
X62508571Y-151364666D01*
X62556190Y-151459904D01*
X62556190Y-151840857D01*
X62365714Y-150412285D02*
X63032380Y-150412285D01*
X62365714Y-150840857D02*
X62889523Y-150840857D01*
X62984761Y-150793238D01*
X63032380Y-150698000D01*
X63032380Y-150555142D01*
X62984761Y-150459904D01*
X62937142Y-150412285D01*
X62984761Y-149983714D02*
X63032380Y-149888476D01*
X63032380Y-149698000D01*
X62984761Y-149602761D01*
X62889523Y-149555142D01*
X62841904Y-149555142D01*
X62746666Y-149602761D01*
X62699047Y-149698000D01*
X62699047Y-149840857D01*
X62651428Y-149936095D01*
X62556190Y-149983714D01*
X62508571Y-149983714D01*
X62413333Y-149936095D01*
X62365714Y-149840857D01*
X62365714Y-149698000D01*
X62413333Y-149602761D01*
X63032380Y-149126571D02*
X62032380Y-149126571D01*
X63032380Y-148698000D02*
X62508571Y-148698000D01*
X62413333Y-148745619D01*
X62365714Y-148840857D01*
X62365714Y-148983714D01*
X62413333Y-149078952D01*
X62460952Y-149126571D01*
X58534761Y-153531333D02*
X58582380Y-153388476D01*
X58582380Y-153150380D01*
X58534761Y-153055142D01*
X58487142Y-153007523D01*
X58391904Y-152959904D01*
X58296666Y-152959904D01*
X58201428Y-153007523D01*
X58153809Y-153055142D01*
X58106190Y-153150380D01*
X58058571Y-153340857D01*
X58010952Y-153436095D01*
X57963333Y-153483714D01*
X57868095Y-153531333D01*
X57772857Y-153531333D01*
X57677619Y-153483714D01*
X57630000Y-153436095D01*
X57582380Y-153340857D01*
X57582380Y-153102761D01*
X57630000Y-152959904D01*
X57582380Y-152626571D02*
X58582380Y-152388476D01*
X57868095Y-152198000D01*
X58582380Y-152007523D01*
X57582380Y-151769428D01*
X58582380Y-150864666D02*
X58582380Y-151436095D01*
X58582380Y-151150380D02*
X57582380Y-151150380D01*
X57725238Y-151245619D01*
X57820476Y-151340857D01*
X57868095Y-151436095D01*
%TO.C,SW2*%
X53332761Y-154745619D02*
X53380380Y-154602761D01*
X53380380Y-154364666D01*
X53332761Y-154269428D01*
X53285142Y-154221809D01*
X53189904Y-154174190D01*
X53094666Y-154174190D01*
X52999428Y-154221809D01*
X52951809Y-154269428D01*
X52904190Y-154364666D01*
X52856571Y-154555142D01*
X52808952Y-154650380D01*
X52761333Y-154698000D01*
X52666095Y-154745619D01*
X52570857Y-154745619D01*
X52475619Y-154698000D01*
X52428000Y-154650380D01*
X52380380Y-154555142D01*
X52380380Y-154317047D01*
X52428000Y-154174190D01*
X52380380Y-153840857D02*
X53380380Y-153602761D01*
X52666095Y-153412285D01*
X53380380Y-153221809D01*
X52380380Y-152983714D01*
X53475619Y-152840857D02*
X53475619Y-152078952D01*
X53380380Y-151840857D02*
X52380380Y-151840857D01*
X52380380Y-151459904D01*
X52428000Y-151364666D01*
X52475619Y-151317047D01*
X52570857Y-151269428D01*
X52713714Y-151269428D01*
X52808952Y-151317047D01*
X52856571Y-151364666D01*
X52904190Y-151459904D01*
X52904190Y-151840857D01*
X52713714Y-150412285D02*
X53380380Y-150412285D01*
X52713714Y-150840857D02*
X53237523Y-150840857D01*
X53332761Y-150793238D01*
X53380380Y-150698000D01*
X53380380Y-150555142D01*
X53332761Y-150459904D01*
X53285142Y-150412285D01*
X53332761Y-149983714D02*
X53380380Y-149888476D01*
X53380380Y-149698000D01*
X53332761Y-149602761D01*
X53237523Y-149555142D01*
X53189904Y-149555142D01*
X53094666Y-149602761D01*
X53047047Y-149698000D01*
X53047047Y-149840857D01*
X52999428Y-149936095D01*
X52904190Y-149983714D01*
X52856571Y-149983714D01*
X52761333Y-149936095D01*
X52713714Y-149840857D01*
X52713714Y-149698000D01*
X52761333Y-149602761D01*
X53380380Y-149126571D02*
X52380380Y-149126571D01*
X53380380Y-148698000D02*
X52856571Y-148698000D01*
X52761333Y-148745619D01*
X52713714Y-148840857D01*
X52713714Y-148983714D01*
X52761333Y-149078952D01*
X52808952Y-149126571D01*
X48882761Y-153531333D02*
X48930380Y-153388476D01*
X48930380Y-153150380D01*
X48882761Y-153055142D01*
X48835142Y-153007523D01*
X48739904Y-152959904D01*
X48644666Y-152959904D01*
X48549428Y-153007523D01*
X48501809Y-153055142D01*
X48454190Y-153150380D01*
X48406571Y-153340857D01*
X48358952Y-153436095D01*
X48311333Y-153483714D01*
X48216095Y-153531333D01*
X48120857Y-153531333D01*
X48025619Y-153483714D01*
X47978000Y-153436095D01*
X47930380Y-153340857D01*
X47930380Y-153102761D01*
X47978000Y-152959904D01*
X47930380Y-152626571D02*
X48930380Y-152388476D01*
X48216095Y-152198000D01*
X48930380Y-152007523D01*
X47930380Y-151769428D01*
X48025619Y-151436095D02*
X47978000Y-151388476D01*
X47930380Y-151293238D01*
X47930380Y-151055142D01*
X47978000Y-150959904D01*
X48025619Y-150912285D01*
X48120857Y-150864666D01*
X48216095Y-150864666D01*
X48358952Y-150912285D01*
X48930380Y-151483714D01*
X48930380Y-150864666D01*
%TO.C,SW3*%
X36314761Y-154237619D02*
X36362380Y-154094761D01*
X36362380Y-153856666D01*
X36314761Y-153761428D01*
X36267142Y-153713809D01*
X36171904Y-153666190D01*
X36076666Y-153666190D01*
X35981428Y-153713809D01*
X35933809Y-153761428D01*
X35886190Y-153856666D01*
X35838571Y-154047142D01*
X35790952Y-154142380D01*
X35743333Y-154190000D01*
X35648095Y-154237619D01*
X35552857Y-154237619D01*
X35457619Y-154190000D01*
X35410000Y-154142380D01*
X35362380Y-154047142D01*
X35362380Y-153809047D01*
X35410000Y-153666190D01*
X35362380Y-153332857D02*
X36362380Y-153094761D01*
X35648095Y-152904285D01*
X36362380Y-152713809D01*
X35362380Y-152475714D01*
X36457619Y-152332857D02*
X36457619Y-151570952D01*
X36362380Y-151332857D02*
X35362380Y-151332857D01*
X35362380Y-150951904D01*
X35410000Y-150856666D01*
X35457619Y-150809047D01*
X35552857Y-150761428D01*
X35695714Y-150761428D01*
X35790952Y-150809047D01*
X35838571Y-150856666D01*
X35886190Y-150951904D01*
X35886190Y-151332857D01*
X35695714Y-149904285D02*
X36362380Y-149904285D01*
X35695714Y-150332857D02*
X36219523Y-150332857D01*
X36314761Y-150285238D01*
X36362380Y-150190000D01*
X36362380Y-150047142D01*
X36314761Y-149951904D01*
X36267142Y-149904285D01*
X36314761Y-149475714D02*
X36362380Y-149380476D01*
X36362380Y-149190000D01*
X36314761Y-149094761D01*
X36219523Y-149047142D01*
X36171904Y-149047142D01*
X36076666Y-149094761D01*
X36029047Y-149190000D01*
X36029047Y-149332857D01*
X35981428Y-149428095D01*
X35886190Y-149475714D01*
X35838571Y-149475714D01*
X35743333Y-149428095D01*
X35695714Y-149332857D01*
X35695714Y-149190000D01*
X35743333Y-149094761D01*
X36362380Y-148618571D02*
X35362380Y-148618571D01*
X36362380Y-148190000D02*
X35838571Y-148190000D01*
X35743333Y-148237619D01*
X35695714Y-148332857D01*
X35695714Y-148475714D01*
X35743333Y-148570952D01*
X35790952Y-148618571D01*
X31864761Y-153023333D02*
X31912380Y-152880476D01*
X31912380Y-152642380D01*
X31864761Y-152547142D01*
X31817142Y-152499523D01*
X31721904Y-152451904D01*
X31626666Y-152451904D01*
X31531428Y-152499523D01*
X31483809Y-152547142D01*
X31436190Y-152642380D01*
X31388571Y-152832857D01*
X31340952Y-152928095D01*
X31293333Y-152975714D01*
X31198095Y-153023333D01*
X31102857Y-153023333D01*
X31007619Y-152975714D01*
X30960000Y-152928095D01*
X30912380Y-152832857D01*
X30912380Y-152594761D01*
X30960000Y-152451904D01*
X30912380Y-152118571D02*
X31912380Y-151880476D01*
X31198095Y-151690000D01*
X31912380Y-151499523D01*
X30912380Y-151261428D01*
X30912380Y-150975714D02*
X30912380Y-150356666D01*
X31293333Y-150690000D01*
X31293333Y-150547142D01*
X31340952Y-150451904D01*
X31388571Y-150404285D01*
X31483809Y-150356666D01*
X31721904Y-150356666D01*
X31817142Y-150404285D01*
X31864761Y-150451904D01*
X31912380Y-150547142D01*
X31912380Y-150832857D01*
X31864761Y-150928095D01*
X31817142Y-150975714D01*
%TO.C,SW4*%
X27170761Y-154237619D02*
X27218380Y-154094761D01*
X27218380Y-153856666D01*
X27170761Y-153761428D01*
X27123142Y-153713809D01*
X27027904Y-153666190D01*
X26932666Y-153666190D01*
X26837428Y-153713809D01*
X26789809Y-153761428D01*
X26742190Y-153856666D01*
X26694571Y-154047142D01*
X26646952Y-154142380D01*
X26599333Y-154190000D01*
X26504095Y-154237619D01*
X26408857Y-154237619D01*
X26313619Y-154190000D01*
X26266000Y-154142380D01*
X26218380Y-154047142D01*
X26218380Y-153809047D01*
X26266000Y-153666190D01*
X26218380Y-153332857D02*
X27218380Y-153094761D01*
X26504095Y-152904285D01*
X27218380Y-152713809D01*
X26218380Y-152475714D01*
X27313619Y-152332857D02*
X27313619Y-151570952D01*
X27218380Y-151332857D02*
X26218380Y-151332857D01*
X26218380Y-150951904D01*
X26266000Y-150856666D01*
X26313619Y-150809047D01*
X26408857Y-150761428D01*
X26551714Y-150761428D01*
X26646952Y-150809047D01*
X26694571Y-150856666D01*
X26742190Y-150951904D01*
X26742190Y-151332857D01*
X26551714Y-149904285D02*
X27218380Y-149904285D01*
X26551714Y-150332857D02*
X27075523Y-150332857D01*
X27170761Y-150285238D01*
X27218380Y-150190000D01*
X27218380Y-150047142D01*
X27170761Y-149951904D01*
X27123142Y-149904285D01*
X27170761Y-149475714D02*
X27218380Y-149380476D01*
X27218380Y-149190000D01*
X27170761Y-149094761D01*
X27075523Y-149047142D01*
X27027904Y-149047142D01*
X26932666Y-149094761D01*
X26885047Y-149190000D01*
X26885047Y-149332857D01*
X26837428Y-149428095D01*
X26742190Y-149475714D01*
X26694571Y-149475714D01*
X26599333Y-149428095D01*
X26551714Y-149332857D01*
X26551714Y-149190000D01*
X26599333Y-149094761D01*
X27218380Y-148618571D02*
X26218380Y-148618571D01*
X27218380Y-148190000D02*
X26694571Y-148190000D01*
X26599333Y-148237619D01*
X26551714Y-148332857D01*
X26551714Y-148475714D01*
X26599333Y-148570952D01*
X26646952Y-148618571D01*
X22720761Y-153108334D02*
X22768380Y-152965477D01*
X22768380Y-152727381D01*
X22720761Y-152632143D01*
X22673142Y-152584524D01*
X22577904Y-152536905D01*
X22482666Y-152536905D01*
X22387428Y-152584524D01*
X22339809Y-152632143D01*
X22292190Y-152727381D01*
X22244571Y-152917858D01*
X22196952Y-153013096D01*
X22149333Y-153060715D01*
X22054095Y-153108334D01*
X21958857Y-153108334D01*
X21863619Y-153060715D01*
X21816000Y-153013096D01*
X21768380Y-152917858D01*
X21768380Y-152679762D01*
X21816000Y-152536905D01*
X21768380Y-152203572D02*
X22768380Y-151965477D01*
X22054095Y-151775001D01*
X22768380Y-151584524D01*
X21768380Y-151346429D01*
X22101714Y-150536905D02*
X22768380Y-150536905D01*
X21720761Y-150775001D02*
X22435047Y-151013096D01*
X22435047Y-150394048D01*
%TO.C,U1*%
X105441380Y-143835000D02*
X104441380Y-143835000D01*
X104441380Y-143596904D01*
X104489000Y-143454047D01*
X104584238Y-143358809D01*
X104679476Y-143311190D01*
X104869952Y-143263571D01*
X105012809Y-143263571D01*
X105203285Y-143311190D01*
X105298523Y-143358809D01*
X105393761Y-143454047D01*
X105441380Y-143596904D01*
X105441380Y-143835000D01*
X105393761Y-142882619D02*
X105441380Y-142739761D01*
X105441380Y-142501666D01*
X105393761Y-142406428D01*
X105346142Y-142358809D01*
X105250904Y-142311190D01*
X105155666Y-142311190D01*
X105060428Y-142358809D01*
X105012809Y-142406428D01*
X104965190Y-142501666D01*
X104917571Y-142692142D01*
X104869952Y-142787380D01*
X104822333Y-142835000D01*
X104727095Y-142882619D01*
X104631857Y-142882619D01*
X104536619Y-142835000D01*
X104489000Y-142787380D01*
X104441380Y-142692142D01*
X104441380Y-142454047D01*
X104489000Y-142311190D01*
X105441380Y-141358809D02*
X105441380Y-141930238D01*
X105441380Y-141644523D02*
X104441380Y-141644523D01*
X104584238Y-141739761D01*
X104679476Y-141835000D01*
X104727095Y-141930238D01*
X104869952Y-140787380D02*
X104822333Y-140882619D01*
X104774714Y-140930238D01*
X104679476Y-140977857D01*
X104631857Y-140977857D01*
X104536619Y-140930238D01*
X104489000Y-140882619D01*
X104441380Y-140787380D01*
X104441380Y-140596904D01*
X104489000Y-140501666D01*
X104536619Y-140454047D01*
X104631857Y-140406428D01*
X104679476Y-140406428D01*
X104774714Y-140454047D01*
X104822333Y-140501666D01*
X104869952Y-140596904D01*
X104869952Y-140787380D01*
X104917571Y-140882619D01*
X104965190Y-140930238D01*
X105060428Y-140977857D01*
X105250904Y-140977857D01*
X105346142Y-140930238D01*
X105393761Y-140882619D01*
X105441380Y-140787380D01*
X105441380Y-140596904D01*
X105393761Y-140501666D01*
X105346142Y-140454047D01*
X105250904Y-140406428D01*
X105060428Y-140406428D01*
X104965190Y-140454047D01*
X104917571Y-140501666D01*
X104869952Y-140596904D01*
X105393761Y-140025476D02*
X105441380Y-139882619D01*
X105441380Y-139644523D01*
X105393761Y-139549285D01*
X105346142Y-139501666D01*
X105250904Y-139454047D01*
X105155666Y-139454047D01*
X105060428Y-139501666D01*
X105012809Y-139549285D01*
X104965190Y-139644523D01*
X104917571Y-139835000D01*
X104869952Y-139930238D01*
X104822333Y-139977857D01*
X104727095Y-140025476D01*
X104631857Y-140025476D01*
X104536619Y-139977857D01*
X104489000Y-139930238D01*
X104441380Y-139835000D01*
X104441380Y-139596904D01*
X104489000Y-139454047D01*
X104536619Y-139073095D02*
X104489000Y-139025476D01*
X104441380Y-138930238D01*
X104441380Y-138692142D01*
X104489000Y-138596904D01*
X104536619Y-138549285D01*
X104631857Y-138501666D01*
X104727095Y-138501666D01*
X104869952Y-138549285D01*
X105441380Y-139120714D01*
X105441380Y-138501666D01*
X104441380Y-137882619D02*
X104441380Y-137787380D01*
X104489000Y-137692142D01*
X104536619Y-137644523D01*
X104631857Y-137596904D01*
X104822333Y-137549285D01*
X105060428Y-137549285D01*
X105250904Y-137596904D01*
X105346142Y-137644523D01*
X105393761Y-137692142D01*
X105441380Y-137787380D01*
X105441380Y-137882619D01*
X105393761Y-137977857D01*
X105346142Y-138025476D01*
X105250904Y-138073095D01*
X105060428Y-138120714D01*
X104822333Y-138120714D01*
X104631857Y-138073095D01*
X104536619Y-138025476D01*
X104489000Y-137977857D01*
X104441380Y-137882619D01*
X105536619Y-137358809D02*
X105536619Y-136596904D01*
X100828285Y-140906428D02*
X101435428Y-140906428D01*
X101506857Y-140870714D01*
X101542571Y-140835000D01*
X101578285Y-140763571D01*
X101578285Y-140620714D01*
X101542571Y-140549285D01*
X101506857Y-140513571D01*
X101435428Y-140477857D01*
X100828285Y-140477857D01*
X101578285Y-139727857D02*
X101578285Y-140156428D01*
X101578285Y-139942142D02*
X100828285Y-139942142D01*
X100935428Y-140013571D01*
X101006857Y-140085000D01*
X101042571Y-140156428D01*
%TO.C,U2*%
X96551380Y-143835000D02*
X95551380Y-143835000D01*
X95551380Y-143596904D01*
X95599000Y-143454047D01*
X95694238Y-143358809D01*
X95789476Y-143311190D01*
X95979952Y-143263571D01*
X96122809Y-143263571D01*
X96313285Y-143311190D01*
X96408523Y-143358809D01*
X96503761Y-143454047D01*
X96551380Y-143596904D01*
X96551380Y-143835000D01*
X96503761Y-142882619D02*
X96551380Y-142739761D01*
X96551380Y-142501666D01*
X96503761Y-142406428D01*
X96456142Y-142358809D01*
X96360904Y-142311190D01*
X96265666Y-142311190D01*
X96170428Y-142358809D01*
X96122809Y-142406428D01*
X96075190Y-142501666D01*
X96027571Y-142692142D01*
X95979952Y-142787380D01*
X95932333Y-142835000D01*
X95837095Y-142882619D01*
X95741857Y-142882619D01*
X95646619Y-142835000D01*
X95599000Y-142787380D01*
X95551380Y-142692142D01*
X95551380Y-142454047D01*
X95599000Y-142311190D01*
X96551380Y-141358809D02*
X96551380Y-141930238D01*
X96551380Y-141644523D02*
X95551380Y-141644523D01*
X95694238Y-141739761D01*
X95789476Y-141835000D01*
X95837095Y-141930238D01*
X95979952Y-140787380D02*
X95932333Y-140882619D01*
X95884714Y-140930238D01*
X95789476Y-140977857D01*
X95741857Y-140977857D01*
X95646619Y-140930238D01*
X95599000Y-140882619D01*
X95551380Y-140787380D01*
X95551380Y-140596904D01*
X95599000Y-140501666D01*
X95646619Y-140454047D01*
X95741857Y-140406428D01*
X95789476Y-140406428D01*
X95884714Y-140454047D01*
X95932333Y-140501666D01*
X95979952Y-140596904D01*
X95979952Y-140787380D01*
X96027571Y-140882619D01*
X96075190Y-140930238D01*
X96170428Y-140977857D01*
X96360904Y-140977857D01*
X96456142Y-140930238D01*
X96503761Y-140882619D01*
X96551380Y-140787380D01*
X96551380Y-140596904D01*
X96503761Y-140501666D01*
X96456142Y-140454047D01*
X96360904Y-140406428D01*
X96170428Y-140406428D01*
X96075190Y-140454047D01*
X96027571Y-140501666D01*
X95979952Y-140596904D01*
X96503761Y-140025476D02*
X96551380Y-139882619D01*
X96551380Y-139644523D01*
X96503761Y-139549285D01*
X96456142Y-139501666D01*
X96360904Y-139454047D01*
X96265666Y-139454047D01*
X96170428Y-139501666D01*
X96122809Y-139549285D01*
X96075190Y-139644523D01*
X96027571Y-139835000D01*
X95979952Y-139930238D01*
X95932333Y-139977857D01*
X95837095Y-140025476D01*
X95741857Y-140025476D01*
X95646619Y-139977857D01*
X95599000Y-139930238D01*
X95551380Y-139835000D01*
X95551380Y-139596904D01*
X95599000Y-139454047D01*
X95646619Y-139073095D02*
X95599000Y-139025476D01*
X95551380Y-138930238D01*
X95551380Y-138692142D01*
X95599000Y-138596904D01*
X95646619Y-138549285D01*
X95741857Y-138501666D01*
X95837095Y-138501666D01*
X95979952Y-138549285D01*
X96551380Y-139120714D01*
X96551380Y-138501666D01*
X95551380Y-137882619D02*
X95551380Y-137787380D01*
X95599000Y-137692142D01*
X95646619Y-137644523D01*
X95741857Y-137596904D01*
X95932333Y-137549285D01*
X96170428Y-137549285D01*
X96360904Y-137596904D01*
X96456142Y-137644523D01*
X96503761Y-137692142D01*
X96551380Y-137787380D01*
X96551380Y-137882619D01*
X96503761Y-137977857D01*
X96456142Y-138025476D01*
X96360904Y-138073095D01*
X96170428Y-138120714D01*
X95932333Y-138120714D01*
X95741857Y-138073095D01*
X95646619Y-138025476D01*
X95599000Y-137977857D01*
X95551380Y-137882619D01*
X96646619Y-137358809D02*
X96646619Y-136596904D01*
X91938285Y-140906428D02*
X92545428Y-140906428D01*
X92616857Y-140870714D01*
X92652571Y-140835000D01*
X92688285Y-140763571D01*
X92688285Y-140620714D01*
X92652571Y-140549285D01*
X92616857Y-140513571D01*
X92545428Y-140477857D01*
X91938285Y-140477857D01*
X92009714Y-140156428D02*
X91974000Y-140120714D01*
X91938285Y-140049285D01*
X91938285Y-139870714D01*
X91974000Y-139799285D01*
X92009714Y-139763571D01*
X92081142Y-139727857D01*
X92152571Y-139727857D01*
X92259714Y-139763571D01*
X92688285Y-140192142D01*
X92688285Y-139727857D01*
%TO.C,J16*%
X115066142Y-145403095D02*
X115113761Y-145450714D01*
X115161380Y-145593571D01*
X115161380Y-145688809D01*
X115113761Y-145831666D01*
X115018523Y-145926904D01*
X114923285Y-145974523D01*
X114732809Y-146022142D01*
X114589952Y-146022142D01*
X114399476Y-145974523D01*
X114304238Y-145926904D01*
X114209000Y-145831666D01*
X114161380Y-145688809D01*
X114161380Y-145593571D01*
X114209000Y-145450714D01*
X114256619Y-145403095D01*
X115161380Y-144831666D02*
X115113761Y-144926904D01*
X115066142Y-144974523D01*
X114970904Y-145022142D01*
X114685190Y-145022142D01*
X114589952Y-144974523D01*
X114542333Y-144926904D01*
X114494714Y-144831666D01*
X114494714Y-144688809D01*
X114542333Y-144593571D01*
X114589952Y-144545952D01*
X114685190Y-144498333D01*
X114970904Y-144498333D01*
X115066142Y-144545952D01*
X115113761Y-144593571D01*
X115161380Y-144688809D01*
X115161380Y-144831666D01*
X114494714Y-144069761D02*
X115161380Y-144069761D01*
X114589952Y-144069761D02*
X114542333Y-144022142D01*
X114494714Y-143926904D01*
X114494714Y-143784047D01*
X114542333Y-143688809D01*
X114637571Y-143641190D01*
X115161380Y-143641190D01*
X114494714Y-143165000D02*
X115161380Y-143165000D01*
X114589952Y-143165000D02*
X114542333Y-143117380D01*
X114494714Y-143022142D01*
X114494714Y-142879285D01*
X114542333Y-142784047D01*
X114637571Y-142736428D01*
X115161380Y-142736428D01*
X115256619Y-142498333D02*
X115256619Y-141736428D01*
X114161380Y-141307857D02*
X114161380Y-141212619D01*
X114209000Y-141117380D01*
X114256619Y-141069761D01*
X114351857Y-141022142D01*
X114542333Y-140974523D01*
X114780428Y-140974523D01*
X114970904Y-141022142D01*
X115066142Y-141069761D01*
X115113761Y-141117380D01*
X115161380Y-141212619D01*
X115161380Y-141307857D01*
X115113761Y-141403095D01*
X115066142Y-141450714D01*
X114970904Y-141498333D01*
X114780428Y-141545952D01*
X114542333Y-141545952D01*
X114351857Y-141498333D01*
X114256619Y-141450714D01*
X114209000Y-141403095D01*
X114161380Y-141307857D01*
X115161380Y-140022142D02*
X115161380Y-140593571D01*
X115161380Y-140307857D02*
X114161380Y-140307857D01*
X114304238Y-140403095D01*
X114399476Y-140498333D01*
X114447095Y-140593571D01*
X115161380Y-139688809D02*
X114494714Y-139165000D01*
X114494714Y-139688809D02*
X115161380Y-139165000D01*
X114161380Y-138593571D02*
X114161380Y-138498333D01*
X114209000Y-138403095D01*
X114256619Y-138355476D01*
X114351857Y-138307857D01*
X114542333Y-138260238D01*
X114780428Y-138260238D01*
X114970904Y-138307857D01*
X115066142Y-138355476D01*
X115113761Y-138403095D01*
X115161380Y-138498333D01*
X115161380Y-138593571D01*
X115113761Y-138688809D01*
X115066142Y-138736428D01*
X114970904Y-138784047D01*
X114780428Y-138831666D01*
X114542333Y-138831666D01*
X114351857Y-138784047D01*
X114256619Y-138736428D01*
X114209000Y-138688809D01*
X114161380Y-138593571D01*
X114494714Y-137403095D02*
X115161380Y-137403095D01*
X114113761Y-137641190D02*
X114828047Y-137879285D01*
X114828047Y-137260238D01*
X112261380Y-142474523D02*
X112975666Y-142474523D01*
X113118523Y-142522142D01*
X113213761Y-142617380D01*
X113261380Y-142760238D01*
X113261380Y-142855476D01*
X113261380Y-141474523D02*
X113261380Y-142045952D01*
X113261380Y-141760238D02*
X112261380Y-141760238D01*
X112404238Y-141855476D01*
X112499476Y-141950714D01*
X112547095Y-142045952D01*
X112261380Y-140617380D02*
X112261380Y-140807857D01*
X112309000Y-140903095D01*
X112356619Y-140950714D01*
X112499476Y-141045952D01*
X112689952Y-141093571D01*
X113070904Y-141093571D01*
X113166142Y-141045952D01*
X113213761Y-140998333D01*
X113261380Y-140903095D01*
X113261380Y-140712619D01*
X113213761Y-140617380D01*
X113166142Y-140569761D01*
X113070904Y-140522142D01*
X112832809Y-140522142D01*
X112737571Y-140569761D01*
X112689952Y-140617380D01*
X112642333Y-140712619D01*
X112642333Y-140903095D01*
X112689952Y-140998333D01*
X112737571Y-141045952D01*
X112832809Y-141093571D01*
%TO.C,R26*%
X90399380Y-167020714D02*
X90399380Y-166401666D01*
X90780333Y-166735000D01*
X90780333Y-166592142D01*
X90827952Y-166496904D01*
X90875571Y-166449285D01*
X90970809Y-166401666D01*
X91208904Y-166401666D01*
X91304142Y-166449285D01*
X91351761Y-166496904D01*
X91399380Y-166592142D01*
X91399380Y-166877857D01*
X91351761Y-166973095D01*
X91304142Y-167020714D01*
X90399380Y-166068333D02*
X90399380Y-165449285D01*
X90780333Y-165782619D01*
X90780333Y-165639761D01*
X90827952Y-165544523D01*
X90875571Y-165496904D01*
X90970809Y-165449285D01*
X91208904Y-165449285D01*
X91304142Y-165496904D01*
X91351761Y-165544523D01*
X91399380Y-165639761D01*
X91399380Y-165925476D01*
X91351761Y-166020714D01*
X91304142Y-166068333D01*
X90399380Y-164830238D02*
X90399380Y-164735000D01*
X90447000Y-164639761D01*
X90494619Y-164592142D01*
X90589857Y-164544523D01*
X90780333Y-164496904D01*
X91018428Y-164496904D01*
X91208904Y-164544523D01*
X91304142Y-164592142D01*
X91351761Y-164639761D01*
X91399380Y-164735000D01*
X91399380Y-164830238D01*
X91351761Y-164925476D01*
X91304142Y-164973095D01*
X91208904Y-165020714D01*
X91018428Y-165068333D01*
X90780333Y-165068333D01*
X90589857Y-165020714D01*
X90494619Y-164973095D01*
X90447000Y-164925476D01*
X90399380Y-164830238D01*
X87559380Y-166377857D02*
X87083190Y-166711190D01*
X87559380Y-166949285D02*
X86559380Y-166949285D01*
X86559380Y-166568333D01*
X86607000Y-166473095D01*
X86654619Y-166425476D01*
X86749857Y-166377857D01*
X86892714Y-166377857D01*
X86987952Y-166425476D01*
X87035571Y-166473095D01*
X87083190Y-166568333D01*
X87083190Y-166949285D01*
X86654619Y-165996904D02*
X86607000Y-165949285D01*
X86559380Y-165854047D01*
X86559380Y-165615952D01*
X86607000Y-165520714D01*
X86654619Y-165473095D01*
X86749857Y-165425476D01*
X86845095Y-165425476D01*
X86987952Y-165473095D01*
X87559380Y-166044523D01*
X87559380Y-165425476D01*
X86559380Y-164568333D02*
X86559380Y-164758809D01*
X86607000Y-164854047D01*
X86654619Y-164901666D01*
X86797476Y-164996904D01*
X86987952Y-165044523D01*
X87368904Y-165044523D01*
X87464142Y-164996904D01*
X87511761Y-164949285D01*
X87559380Y-164854047D01*
X87559380Y-164663571D01*
X87511761Y-164568333D01*
X87464142Y-164520714D01*
X87368904Y-164473095D01*
X87130809Y-164473095D01*
X87035571Y-164520714D01*
X86987952Y-164568333D01*
X86940333Y-164663571D01*
X86940333Y-164854047D01*
X86987952Y-164949285D01*
X87035571Y-164996904D01*
X87130809Y-165044523D01*
%TO.C,D21*%
X98027380Y-131325857D02*
X98027380Y-131802047D01*
X97027380Y-131802047D01*
X97503571Y-130992523D02*
X97503571Y-130659190D01*
X98027380Y-130516333D02*
X98027380Y-130992523D01*
X97027380Y-130992523D01*
X97027380Y-130516333D01*
X98027380Y-130087761D02*
X97027380Y-130087761D01*
X97027380Y-129849666D01*
X97075000Y-129706809D01*
X97170238Y-129611571D01*
X97265476Y-129563952D01*
X97455952Y-129516333D01*
X97598809Y-129516333D01*
X97789285Y-129563952D01*
X97884523Y-129611571D01*
X97979761Y-129706809D01*
X98027380Y-129849666D01*
X98027380Y-130087761D01*
%TO.C,D22*%
X75802380Y-131452857D02*
X75802380Y-131929047D01*
X74802380Y-131929047D01*
X75278571Y-131119523D02*
X75278571Y-130786190D01*
X75802380Y-130643333D02*
X75802380Y-131119523D01*
X74802380Y-131119523D01*
X74802380Y-130643333D01*
X75802380Y-130214761D02*
X74802380Y-130214761D01*
X74802380Y-129976666D01*
X74850000Y-129833809D01*
X74945238Y-129738571D01*
X75040476Y-129690952D01*
X75230952Y-129643333D01*
X75373809Y-129643333D01*
X75564285Y-129690952D01*
X75659523Y-129738571D01*
X75754761Y-129833809D01*
X75802380Y-129976666D01*
X75802380Y-130214761D01*
%TO.C,J7*%
X26928904Y-84530142D02*
X26881285Y-84577761D01*
X26738428Y-84625380D01*
X26643190Y-84625380D01*
X26500333Y-84577761D01*
X26405095Y-84482523D01*
X26357476Y-84387285D01*
X26309857Y-84196809D01*
X26309857Y-84053952D01*
X26357476Y-83863476D01*
X26405095Y-83768238D01*
X26500333Y-83673000D01*
X26643190Y-83625380D01*
X26738428Y-83625380D01*
X26881285Y-83673000D01*
X26928904Y-83720619D01*
X27500333Y-84625380D02*
X27405095Y-84577761D01*
X27357476Y-84530142D01*
X27309857Y-84434904D01*
X27309857Y-84149190D01*
X27357476Y-84053952D01*
X27405095Y-84006333D01*
X27500333Y-83958714D01*
X27643190Y-83958714D01*
X27738428Y-84006333D01*
X27786047Y-84053952D01*
X27833666Y-84149190D01*
X27833666Y-84434904D01*
X27786047Y-84530142D01*
X27738428Y-84577761D01*
X27643190Y-84625380D01*
X27500333Y-84625380D01*
X28262238Y-83958714D02*
X28262238Y-84625380D01*
X28262238Y-84053952D02*
X28309857Y-84006333D01*
X28405095Y-83958714D01*
X28547952Y-83958714D01*
X28643190Y-84006333D01*
X28690809Y-84101571D01*
X28690809Y-84625380D01*
X29167000Y-83958714D02*
X29167000Y-84625380D01*
X29167000Y-84053952D02*
X29214619Y-84006333D01*
X29309857Y-83958714D01*
X29452714Y-83958714D01*
X29547952Y-84006333D01*
X29595571Y-84101571D01*
X29595571Y-84625380D01*
X29833666Y-84720619D02*
X30595571Y-84720619D01*
X31024142Y-83625380D02*
X31119380Y-83625380D01*
X31214619Y-83673000D01*
X31262238Y-83720619D01*
X31309857Y-83815857D01*
X31357476Y-84006333D01*
X31357476Y-84244428D01*
X31309857Y-84434904D01*
X31262238Y-84530142D01*
X31214619Y-84577761D01*
X31119380Y-84625380D01*
X31024142Y-84625380D01*
X30928904Y-84577761D01*
X30881285Y-84530142D01*
X30833666Y-84434904D01*
X30786047Y-84244428D01*
X30786047Y-84006333D01*
X30833666Y-83815857D01*
X30881285Y-83720619D01*
X30928904Y-83673000D01*
X31024142Y-83625380D01*
X32309857Y-84625380D02*
X31738428Y-84625380D01*
X32024142Y-84625380D02*
X32024142Y-83625380D01*
X31928904Y-83768238D01*
X31833666Y-83863476D01*
X31738428Y-83911095D01*
X32643190Y-84625380D02*
X33167000Y-83958714D01*
X32643190Y-83958714D02*
X33167000Y-84625380D01*
X33738428Y-83625380D02*
X33833666Y-83625380D01*
X33928904Y-83673000D01*
X33976523Y-83720619D01*
X34024142Y-83815857D01*
X34071761Y-84006333D01*
X34071761Y-84244428D01*
X34024142Y-84434904D01*
X33976523Y-84530142D01*
X33928904Y-84577761D01*
X33833666Y-84625380D01*
X33738428Y-84625380D01*
X33643190Y-84577761D01*
X33595571Y-84530142D01*
X33547952Y-84434904D01*
X33500333Y-84244428D01*
X33500333Y-84006333D01*
X33547952Y-83815857D01*
X33595571Y-83720619D01*
X33643190Y-83673000D01*
X33738428Y-83625380D01*
X34928904Y-83958714D02*
X34928904Y-84625380D01*
X34690809Y-83577761D02*
X34452714Y-84292047D01*
X35071761Y-84292047D01*
X30333666Y-85525380D02*
X30333666Y-86239666D01*
X30286047Y-86382523D01*
X30190809Y-86477761D01*
X30047952Y-86525380D01*
X29952714Y-86525380D01*
X30714619Y-85525380D02*
X31381285Y-85525380D01*
X30952714Y-86525380D01*
%TO.C,J9*%
X82300904Y-84657142D02*
X82253285Y-84704761D01*
X82110428Y-84752380D01*
X82015190Y-84752380D01*
X81872333Y-84704761D01*
X81777095Y-84609523D01*
X81729476Y-84514285D01*
X81681857Y-84323809D01*
X81681857Y-84180952D01*
X81729476Y-83990476D01*
X81777095Y-83895238D01*
X81872333Y-83800000D01*
X82015190Y-83752380D01*
X82110428Y-83752380D01*
X82253285Y-83800000D01*
X82300904Y-83847619D01*
X82872333Y-84752380D02*
X82777095Y-84704761D01*
X82729476Y-84657142D01*
X82681857Y-84561904D01*
X82681857Y-84276190D01*
X82729476Y-84180952D01*
X82777095Y-84133333D01*
X82872333Y-84085714D01*
X83015190Y-84085714D01*
X83110428Y-84133333D01*
X83158047Y-84180952D01*
X83205666Y-84276190D01*
X83205666Y-84561904D01*
X83158047Y-84657142D01*
X83110428Y-84704761D01*
X83015190Y-84752380D01*
X82872333Y-84752380D01*
X83634238Y-84085714D02*
X83634238Y-84752380D01*
X83634238Y-84180952D02*
X83681857Y-84133333D01*
X83777095Y-84085714D01*
X83919952Y-84085714D01*
X84015190Y-84133333D01*
X84062809Y-84228571D01*
X84062809Y-84752380D01*
X84539000Y-84085714D02*
X84539000Y-84752380D01*
X84539000Y-84180952D02*
X84586619Y-84133333D01*
X84681857Y-84085714D01*
X84824714Y-84085714D01*
X84919952Y-84133333D01*
X84967571Y-84228571D01*
X84967571Y-84752380D01*
X85205666Y-84847619D02*
X85967571Y-84847619D01*
X86396142Y-83752380D02*
X86491380Y-83752380D01*
X86586619Y-83800000D01*
X86634238Y-83847619D01*
X86681857Y-83942857D01*
X86729476Y-84133333D01*
X86729476Y-84371428D01*
X86681857Y-84561904D01*
X86634238Y-84657142D01*
X86586619Y-84704761D01*
X86491380Y-84752380D01*
X86396142Y-84752380D01*
X86300904Y-84704761D01*
X86253285Y-84657142D01*
X86205666Y-84561904D01*
X86158047Y-84371428D01*
X86158047Y-84133333D01*
X86205666Y-83942857D01*
X86253285Y-83847619D01*
X86300904Y-83800000D01*
X86396142Y-83752380D01*
X87681857Y-84752380D02*
X87110428Y-84752380D01*
X87396142Y-84752380D02*
X87396142Y-83752380D01*
X87300904Y-83895238D01*
X87205666Y-83990476D01*
X87110428Y-84038095D01*
X88015190Y-84752380D02*
X88539000Y-84085714D01*
X88015190Y-84085714D02*
X88539000Y-84752380D01*
X89110428Y-83752380D02*
X89205666Y-83752380D01*
X89300904Y-83800000D01*
X89348523Y-83847619D01*
X89396142Y-83942857D01*
X89443761Y-84133333D01*
X89443761Y-84371428D01*
X89396142Y-84561904D01*
X89348523Y-84657142D01*
X89300904Y-84704761D01*
X89205666Y-84752380D01*
X89110428Y-84752380D01*
X89015190Y-84704761D01*
X88967571Y-84657142D01*
X88919952Y-84561904D01*
X88872333Y-84371428D01*
X88872333Y-84133333D01*
X88919952Y-83942857D01*
X88967571Y-83847619D01*
X89015190Y-83800000D01*
X89110428Y-83752380D01*
X90300904Y-84085714D02*
X90300904Y-84752380D01*
X90062809Y-83704761D02*
X89824714Y-84419047D01*
X90443761Y-84419047D01*
X85705666Y-85652380D02*
X85705666Y-86366666D01*
X85658047Y-86509523D01*
X85562809Y-86604761D01*
X85419952Y-86652380D01*
X85324714Y-86652380D01*
X86229476Y-86652380D02*
X86419952Y-86652380D01*
X86515190Y-86604761D01*
X86562809Y-86557142D01*
X86658047Y-86414285D01*
X86705666Y-86223809D01*
X86705666Y-85842857D01*
X86658047Y-85747619D01*
X86610428Y-85700000D01*
X86515190Y-85652380D01*
X86324714Y-85652380D01*
X86229476Y-85700000D01*
X86181857Y-85747619D01*
X86134238Y-85842857D01*
X86134238Y-86080952D01*
X86181857Y-86176190D01*
X86229476Y-86223809D01*
X86324714Y-86271428D01*
X86515190Y-86271428D01*
X86610428Y-86223809D01*
X86658047Y-86176190D01*
X86705666Y-86080952D01*
%TO.C,R27*%
X49831714Y-133422380D02*
X49355523Y-133422380D01*
X49307904Y-133898571D01*
X49355523Y-133850952D01*
X49450761Y-133803333D01*
X49688857Y-133803333D01*
X49784095Y-133850952D01*
X49831714Y-133898571D01*
X49879333Y-133993809D01*
X49879333Y-134231904D01*
X49831714Y-134327142D01*
X49784095Y-134374761D01*
X49688857Y-134422380D01*
X49450761Y-134422380D01*
X49355523Y-134374761D01*
X49307904Y-134327142D01*
X50736476Y-133422380D02*
X50546000Y-133422380D01*
X50450761Y-133470000D01*
X50403142Y-133517619D01*
X50307904Y-133660476D01*
X50260285Y-133850952D01*
X50260285Y-134231904D01*
X50307904Y-134327142D01*
X50355523Y-134374761D01*
X50450761Y-134422380D01*
X50641238Y-134422380D01*
X50736476Y-134374761D01*
X50784095Y-134327142D01*
X50831714Y-134231904D01*
X50831714Y-133993809D01*
X50784095Y-133898571D01*
X50736476Y-133850952D01*
X50641238Y-133803333D01*
X50450761Y-133803333D01*
X50355523Y-133850952D01*
X50307904Y-133898571D01*
X50260285Y-133993809D01*
X51450761Y-133422380D02*
X51546000Y-133422380D01*
X51641238Y-133470000D01*
X51688857Y-133517619D01*
X51736476Y-133612857D01*
X51784095Y-133803333D01*
X51784095Y-134041428D01*
X51736476Y-134231904D01*
X51688857Y-134327142D01*
X51641238Y-134374761D01*
X51546000Y-134422380D01*
X51450761Y-134422380D01*
X51355523Y-134374761D01*
X51307904Y-134327142D01*
X51260285Y-134231904D01*
X51212666Y-134041428D01*
X51212666Y-133803333D01*
X51260285Y-133612857D01*
X51307904Y-133517619D01*
X51355523Y-133470000D01*
X51450761Y-133422380D01*
X49903142Y-138262380D02*
X49569809Y-137786190D01*
X49331714Y-138262380D02*
X49331714Y-137262380D01*
X49712666Y-137262380D01*
X49807904Y-137310000D01*
X49855523Y-137357619D01*
X49903142Y-137452857D01*
X49903142Y-137595714D01*
X49855523Y-137690952D01*
X49807904Y-137738571D01*
X49712666Y-137786190D01*
X49331714Y-137786190D01*
X50284095Y-137357619D02*
X50331714Y-137310000D01*
X50426952Y-137262380D01*
X50665047Y-137262380D01*
X50760285Y-137310000D01*
X50807904Y-137357619D01*
X50855523Y-137452857D01*
X50855523Y-137548095D01*
X50807904Y-137690952D01*
X50236476Y-138262380D01*
X50855523Y-138262380D01*
X51188857Y-137262380D02*
X51855523Y-137262380D01*
X51426952Y-138262380D01*
%TO.C,R28*%
X102337380Y-131397285D02*
X102337380Y-131873476D01*
X102813571Y-131921095D01*
X102765952Y-131873476D01*
X102718333Y-131778238D01*
X102718333Y-131540142D01*
X102765952Y-131444904D01*
X102813571Y-131397285D01*
X102908809Y-131349666D01*
X103146904Y-131349666D01*
X103242142Y-131397285D01*
X103289761Y-131444904D01*
X103337380Y-131540142D01*
X103337380Y-131778238D01*
X103289761Y-131873476D01*
X103242142Y-131921095D01*
X102337380Y-130492523D02*
X102337380Y-130683000D01*
X102385000Y-130778238D01*
X102432619Y-130825857D01*
X102575476Y-130921095D01*
X102765952Y-130968714D01*
X103146904Y-130968714D01*
X103242142Y-130921095D01*
X103289761Y-130873476D01*
X103337380Y-130778238D01*
X103337380Y-130587761D01*
X103289761Y-130492523D01*
X103242142Y-130444904D01*
X103146904Y-130397285D01*
X102908809Y-130397285D01*
X102813571Y-130444904D01*
X102765952Y-130492523D01*
X102718333Y-130587761D01*
X102718333Y-130778238D01*
X102765952Y-130873476D01*
X102813571Y-130921095D01*
X102908809Y-130968714D01*
X102337380Y-129778238D02*
X102337380Y-129683000D01*
X102385000Y-129587761D01*
X102432619Y-129540142D01*
X102527857Y-129492523D01*
X102718333Y-129444904D01*
X102956428Y-129444904D01*
X103146904Y-129492523D01*
X103242142Y-129540142D01*
X103289761Y-129587761D01*
X103337380Y-129683000D01*
X103337380Y-129778238D01*
X103289761Y-129873476D01*
X103242142Y-129921095D01*
X103146904Y-129968714D01*
X102956428Y-130016333D01*
X102718333Y-130016333D01*
X102527857Y-129968714D01*
X102432619Y-129921095D01*
X102385000Y-129873476D01*
X102337380Y-129778238D01*
X99497380Y-131325857D02*
X99021190Y-131659190D01*
X99497380Y-131897285D02*
X98497380Y-131897285D01*
X98497380Y-131516333D01*
X98545000Y-131421095D01*
X98592619Y-131373476D01*
X98687857Y-131325857D01*
X98830714Y-131325857D01*
X98925952Y-131373476D01*
X98973571Y-131421095D01*
X99021190Y-131516333D01*
X99021190Y-131897285D01*
X98592619Y-130944904D02*
X98545000Y-130897285D01*
X98497380Y-130802047D01*
X98497380Y-130563952D01*
X98545000Y-130468714D01*
X98592619Y-130421095D01*
X98687857Y-130373476D01*
X98783095Y-130373476D01*
X98925952Y-130421095D01*
X99497380Y-130992523D01*
X99497380Y-130373476D01*
X98925952Y-129802047D02*
X98878333Y-129897285D01*
X98830714Y-129944904D01*
X98735476Y-129992523D01*
X98687857Y-129992523D01*
X98592619Y-129944904D01*
X98545000Y-129897285D01*
X98497380Y-129802047D01*
X98497380Y-129611571D01*
X98545000Y-129516333D01*
X98592619Y-129468714D01*
X98687857Y-129421095D01*
X98735476Y-129421095D01*
X98830714Y-129468714D01*
X98878333Y-129516333D01*
X98925952Y-129611571D01*
X98925952Y-129802047D01*
X98973571Y-129897285D01*
X99021190Y-129944904D01*
X99116428Y-129992523D01*
X99306904Y-129992523D01*
X99402142Y-129944904D01*
X99449761Y-129897285D01*
X99497380Y-129802047D01*
X99497380Y-129611571D01*
X99449761Y-129516333D01*
X99402142Y-129468714D01*
X99306904Y-129421095D01*
X99116428Y-129421095D01*
X99021190Y-129468714D01*
X98973571Y-129516333D01*
X98925952Y-129611571D01*
%TO.C,RLY1*%
X87205000Y-119443000D02*
X87157380Y-119538238D01*
X87157380Y-119681095D01*
X87205000Y-119823952D01*
X87300238Y-119919190D01*
X87395476Y-119966809D01*
X87585952Y-120014428D01*
X87728809Y-120014428D01*
X87919285Y-119966809D01*
X88014523Y-119919190D01*
X88109761Y-119823952D01*
X88157380Y-119681095D01*
X88157380Y-119585857D01*
X88109761Y-119443000D01*
X88062142Y-119395380D01*
X87728809Y-119395380D01*
X87728809Y-119585857D01*
X87157380Y-118490619D02*
X87157380Y-118966809D01*
X87633571Y-119014428D01*
X87585952Y-118966809D01*
X87538333Y-118871571D01*
X87538333Y-118633476D01*
X87585952Y-118538238D01*
X87633571Y-118490619D01*
X87728809Y-118443000D01*
X87966904Y-118443000D01*
X88062142Y-118490619D01*
X88109761Y-118538238D01*
X88157380Y-118633476D01*
X88157380Y-118871571D01*
X88109761Y-118966809D01*
X88062142Y-119014428D01*
X88157380Y-117538238D02*
X88157380Y-118014428D01*
X87157380Y-118014428D01*
X87633571Y-117204904D02*
X87633571Y-116871571D01*
X88157380Y-116728714D02*
X88157380Y-117204904D01*
X87157380Y-117204904D01*
X87157380Y-116728714D01*
X87776428Y-116300142D02*
X87776428Y-115538238D01*
X88157380Y-114538238D02*
X88157380Y-115109666D01*
X88157380Y-114823952D02*
X87157380Y-114823952D01*
X87300238Y-114919190D01*
X87395476Y-115014428D01*
X87443095Y-115109666D01*
X87490714Y-113681095D02*
X88157380Y-113681095D01*
X87109761Y-113919190D02*
X87824047Y-114157285D01*
X87824047Y-113538238D01*
X88252619Y-113395380D02*
X88252619Y-112633476D01*
X88157380Y-112395380D02*
X87157380Y-112395380D01*
X87157380Y-112157285D01*
X87205000Y-112014428D01*
X87300238Y-111919190D01*
X87395476Y-111871571D01*
X87585952Y-111823952D01*
X87728809Y-111823952D01*
X87919285Y-111871571D01*
X88014523Y-111919190D01*
X88109761Y-112014428D01*
X88157380Y-112157285D01*
X88157380Y-112395380D01*
X88062142Y-110823952D02*
X88109761Y-110871571D01*
X88157380Y-111014428D01*
X88157380Y-111109666D01*
X88109761Y-111252523D01*
X88014523Y-111347761D01*
X87919285Y-111395380D01*
X87728809Y-111443000D01*
X87585952Y-111443000D01*
X87395476Y-111395380D01*
X87300238Y-111347761D01*
X87205000Y-111252523D01*
X87157380Y-111109666D01*
X87157380Y-111014428D01*
X87205000Y-110871571D01*
X87252619Y-110823952D01*
X87157380Y-109919190D02*
X87157380Y-110395380D01*
X87633571Y-110443000D01*
X87585952Y-110395380D01*
X87538333Y-110300142D01*
X87538333Y-110062047D01*
X87585952Y-109966809D01*
X87633571Y-109919190D01*
X87728809Y-109871571D01*
X87966904Y-109871571D01*
X88062142Y-109919190D01*
X88109761Y-109966809D01*
X88157380Y-110062047D01*
X88157380Y-110300142D01*
X88109761Y-110395380D01*
X88062142Y-110443000D01*
X97732380Y-115643000D02*
X97256190Y-115976333D01*
X97732380Y-116214428D02*
X96732380Y-116214428D01*
X96732380Y-115833476D01*
X96780000Y-115738238D01*
X96827619Y-115690619D01*
X96922857Y-115643000D01*
X97065714Y-115643000D01*
X97160952Y-115690619D01*
X97208571Y-115738238D01*
X97256190Y-115833476D01*
X97256190Y-116214428D01*
X97732380Y-114738238D02*
X97732380Y-115214428D01*
X96732380Y-115214428D01*
X97256190Y-114214428D02*
X97732380Y-114214428D01*
X96732380Y-114547761D02*
X97256190Y-114214428D01*
X96732380Y-113881095D01*
X97732380Y-113023952D02*
X97732380Y-113595380D01*
X97732380Y-113309666D02*
X96732380Y-113309666D01*
X96875238Y-113404904D01*
X96970476Y-113500142D01*
X97018095Y-113595380D01*
%TO.C,RLY2*%
X66123000Y-119443000D02*
X66075380Y-119538238D01*
X66075380Y-119681095D01*
X66123000Y-119823952D01*
X66218238Y-119919190D01*
X66313476Y-119966809D01*
X66503952Y-120014428D01*
X66646809Y-120014428D01*
X66837285Y-119966809D01*
X66932523Y-119919190D01*
X67027761Y-119823952D01*
X67075380Y-119681095D01*
X67075380Y-119585857D01*
X67027761Y-119443000D01*
X66980142Y-119395380D01*
X66646809Y-119395380D01*
X66646809Y-119585857D01*
X66075380Y-118490619D02*
X66075380Y-118966809D01*
X66551571Y-119014428D01*
X66503952Y-118966809D01*
X66456333Y-118871571D01*
X66456333Y-118633476D01*
X66503952Y-118538238D01*
X66551571Y-118490619D01*
X66646809Y-118443000D01*
X66884904Y-118443000D01*
X66980142Y-118490619D01*
X67027761Y-118538238D01*
X67075380Y-118633476D01*
X67075380Y-118871571D01*
X67027761Y-118966809D01*
X66980142Y-119014428D01*
X67075380Y-117538238D02*
X67075380Y-118014428D01*
X66075380Y-118014428D01*
X66551571Y-117204904D02*
X66551571Y-116871571D01*
X67075380Y-116728714D02*
X67075380Y-117204904D01*
X66075380Y-117204904D01*
X66075380Y-116728714D01*
X66694428Y-116300142D02*
X66694428Y-115538238D01*
X67075380Y-114538238D02*
X67075380Y-115109666D01*
X67075380Y-114823952D02*
X66075380Y-114823952D01*
X66218238Y-114919190D01*
X66313476Y-115014428D01*
X66361095Y-115109666D01*
X66408714Y-113681095D02*
X67075380Y-113681095D01*
X66027761Y-113919190D02*
X66742047Y-114157285D01*
X66742047Y-113538238D01*
X67170619Y-113395380D02*
X67170619Y-112633476D01*
X67075380Y-112395380D02*
X66075380Y-112395380D01*
X66075380Y-112157285D01*
X66123000Y-112014428D01*
X66218238Y-111919190D01*
X66313476Y-111871571D01*
X66503952Y-111823952D01*
X66646809Y-111823952D01*
X66837285Y-111871571D01*
X66932523Y-111919190D01*
X67027761Y-112014428D01*
X67075380Y-112157285D01*
X67075380Y-112395380D01*
X66980142Y-110823952D02*
X67027761Y-110871571D01*
X67075380Y-111014428D01*
X67075380Y-111109666D01*
X67027761Y-111252523D01*
X66932523Y-111347761D01*
X66837285Y-111395380D01*
X66646809Y-111443000D01*
X66503952Y-111443000D01*
X66313476Y-111395380D01*
X66218238Y-111347761D01*
X66123000Y-111252523D01*
X66075380Y-111109666D01*
X66075380Y-111014428D01*
X66123000Y-110871571D01*
X66170619Y-110823952D01*
X66075380Y-109919190D02*
X66075380Y-110395380D01*
X66551571Y-110443000D01*
X66503952Y-110395380D01*
X66456333Y-110300142D01*
X66456333Y-110062047D01*
X66503952Y-109966809D01*
X66551571Y-109919190D01*
X66646809Y-109871571D01*
X66884904Y-109871571D01*
X66980142Y-109919190D01*
X67027761Y-109966809D01*
X67075380Y-110062047D01*
X67075380Y-110300142D01*
X67027761Y-110395380D01*
X66980142Y-110443000D01*
X76650380Y-115643000D02*
X76174190Y-115976333D01*
X76650380Y-116214428D02*
X75650380Y-116214428D01*
X75650380Y-115833476D01*
X75698000Y-115738238D01*
X75745619Y-115690619D01*
X75840857Y-115643000D01*
X75983714Y-115643000D01*
X76078952Y-115690619D01*
X76126571Y-115738238D01*
X76174190Y-115833476D01*
X76174190Y-116214428D01*
X76650380Y-114738238D02*
X76650380Y-115214428D01*
X75650380Y-115214428D01*
X76174190Y-114214428D02*
X76650380Y-114214428D01*
X75650380Y-114547761D02*
X76174190Y-114214428D01*
X75650380Y-113881095D01*
X75745619Y-113595380D02*
X75698000Y-113547761D01*
X75650380Y-113452523D01*
X75650380Y-113214428D01*
X75698000Y-113119190D01*
X75745619Y-113071571D01*
X75840857Y-113023952D01*
X75936095Y-113023952D01*
X76078952Y-113071571D01*
X76650380Y-113643000D01*
X76650380Y-113023952D01*
%TO.C,U3*%
X52582380Y-104266571D02*
X52582380Y-103695142D01*
X53582380Y-103980857D02*
X52582380Y-103980857D01*
X53582380Y-103361809D02*
X52582380Y-103361809D01*
X52582380Y-102980857D01*
X52630000Y-102885619D01*
X52677619Y-102838000D01*
X52772857Y-102790380D01*
X52915714Y-102790380D01*
X53010952Y-102838000D01*
X53058571Y-102885619D01*
X53106190Y-102980857D01*
X53106190Y-103361809D01*
X53582380Y-102361809D02*
X52582380Y-102361809D01*
X53487142Y-101314190D02*
X53534761Y-101361809D01*
X53582380Y-101504666D01*
X53582380Y-101599904D01*
X53534761Y-101742761D01*
X53439523Y-101838000D01*
X53344285Y-101885619D01*
X53153809Y-101933238D01*
X53010952Y-101933238D01*
X52820476Y-101885619D01*
X52725238Y-101838000D01*
X52630000Y-101742761D01*
X52582380Y-101599904D01*
X52582380Y-101504666D01*
X52630000Y-101361809D01*
X52677619Y-101314190D01*
X52582380Y-100457047D02*
X52582380Y-100647523D01*
X52630000Y-100742761D01*
X52677619Y-100790380D01*
X52820476Y-100885619D01*
X53010952Y-100933238D01*
X53391904Y-100933238D01*
X53487142Y-100885619D01*
X53534761Y-100838000D01*
X53582380Y-100742761D01*
X53582380Y-100552285D01*
X53534761Y-100457047D01*
X53487142Y-100409428D01*
X53391904Y-100361809D01*
X53153809Y-100361809D01*
X53058571Y-100409428D01*
X53010952Y-100457047D01*
X52963333Y-100552285D01*
X52963333Y-100742761D01*
X53010952Y-100838000D01*
X53058571Y-100885619D01*
X53153809Y-100933238D01*
X52582380Y-99457047D02*
X52582380Y-99933238D01*
X53058571Y-99980857D01*
X53010952Y-99933238D01*
X52963333Y-99838000D01*
X52963333Y-99599904D01*
X53010952Y-99504666D01*
X53058571Y-99457047D01*
X53153809Y-99409428D01*
X53391904Y-99409428D01*
X53487142Y-99457047D01*
X53534761Y-99504666D01*
X53582380Y-99599904D01*
X53582380Y-99838000D01*
X53534761Y-99933238D01*
X53487142Y-99980857D01*
X53582380Y-98933238D02*
X53582380Y-98742761D01*
X53534761Y-98647523D01*
X53487142Y-98599904D01*
X53344285Y-98504666D01*
X53153809Y-98457047D01*
X52772857Y-98457047D01*
X52677619Y-98504666D01*
X52630000Y-98552285D01*
X52582380Y-98647523D01*
X52582380Y-98838000D01*
X52630000Y-98933238D01*
X52677619Y-98980857D01*
X52772857Y-99028476D01*
X53010952Y-99028476D01*
X53106190Y-98980857D01*
X53153809Y-98933238D01*
X53201428Y-98838000D01*
X53201428Y-98647523D01*
X53153809Y-98552285D01*
X53106190Y-98504666D01*
X53010952Y-98457047D01*
X52582380Y-97552285D02*
X52582380Y-98028476D01*
X53058571Y-98076095D01*
X53010952Y-98028476D01*
X52963333Y-97933238D01*
X52963333Y-97695142D01*
X53010952Y-97599904D01*
X53058571Y-97552285D01*
X53153809Y-97504666D01*
X53391904Y-97504666D01*
X53487142Y-97552285D01*
X53534761Y-97599904D01*
X53582380Y-97695142D01*
X53582380Y-97933238D01*
X53534761Y-98028476D01*
X53487142Y-98076095D01*
X38822380Y-101599904D02*
X39631904Y-101599904D01*
X39727142Y-101552285D01*
X39774761Y-101504666D01*
X39822380Y-101409428D01*
X39822380Y-101218952D01*
X39774761Y-101123714D01*
X39727142Y-101076095D01*
X39631904Y-101028476D01*
X38822380Y-101028476D01*
X38822380Y-100647523D02*
X38822380Y-100028476D01*
X39203333Y-100361809D01*
X39203333Y-100218952D01*
X39250952Y-100123714D01*
X39298571Y-100076095D01*
X39393809Y-100028476D01*
X39631904Y-100028476D01*
X39727142Y-100076095D01*
X39774761Y-100123714D01*
X39822380Y-100218952D01*
X39822380Y-100504666D01*
X39774761Y-100599904D01*
X39727142Y-100647523D01*
%TO.C,J6*%
X62234142Y-137783095D02*
X62281761Y-137830714D01*
X62329380Y-137973571D01*
X62329380Y-138068809D01*
X62281761Y-138211666D01*
X62186523Y-138306904D01*
X62091285Y-138354523D01*
X61900809Y-138402142D01*
X61757952Y-138402142D01*
X61567476Y-138354523D01*
X61472238Y-138306904D01*
X61377000Y-138211666D01*
X61329380Y-138068809D01*
X61329380Y-137973571D01*
X61377000Y-137830714D01*
X61424619Y-137783095D01*
X62329380Y-137211666D02*
X62281761Y-137306904D01*
X62234142Y-137354523D01*
X62138904Y-137402142D01*
X61853190Y-137402142D01*
X61757952Y-137354523D01*
X61710333Y-137306904D01*
X61662714Y-137211666D01*
X61662714Y-137068809D01*
X61710333Y-136973571D01*
X61757952Y-136925952D01*
X61853190Y-136878333D01*
X62138904Y-136878333D01*
X62234142Y-136925952D01*
X62281761Y-136973571D01*
X62329380Y-137068809D01*
X62329380Y-137211666D01*
X61662714Y-136449761D02*
X62329380Y-136449761D01*
X61757952Y-136449761D02*
X61710333Y-136402142D01*
X61662714Y-136306904D01*
X61662714Y-136164047D01*
X61710333Y-136068809D01*
X61805571Y-136021190D01*
X62329380Y-136021190D01*
X61662714Y-135545000D02*
X62329380Y-135545000D01*
X61757952Y-135545000D02*
X61710333Y-135497380D01*
X61662714Y-135402142D01*
X61662714Y-135259285D01*
X61710333Y-135164047D01*
X61805571Y-135116428D01*
X62329380Y-135116428D01*
X62424619Y-134878333D02*
X62424619Y-134116428D01*
X61329380Y-133687857D02*
X61329380Y-133592619D01*
X61377000Y-133497380D01*
X61424619Y-133449761D01*
X61519857Y-133402142D01*
X61710333Y-133354523D01*
X61948428Y-133354523D01*
X62138904Y-133402142D01*
X62234142Y-133449761D01*
X62281761Y-133497380D01*
X62329380Y-133592619D01*
X62329380Y-133687857D01*
X62281761Y-133783095D01*
X62234142Y-133830714D01*
X62138904Y-133878333D01*
X61948428Y-133925952D01*
X61710333Y-133925952D01*
X61519857Y-133878333D01*
X61424619Y-133830714D01*
X61377000Y-133783095D01*
X61329380Y-133687857D01*
X62329380Y-132402142D02*
X62329380Y-132973571D01*
X62329380Y-132687857D02*
X61329380Y-132687857D01*
X61472238Y-132783095D01*
X61567476Y-132878333D01*
X61615095Y-132973571D01*
X62329380Y-132068809D02*
X61662714Y-131545000D01*
X61662714Y-132068809D02*
X62329380Y-131545000D01*
X61329380Y-130973571D02*
X61329380Y-130878333D01*
X61377000Y-130783095D01*
X61424619Y-130735476D01*
X61519857Y-130687857D01*
X61710333Y-130640238D01*
X61948428Y-130640238D01*
X62138904Y-130687857D01*
X62234142Y-130735476D01*
X62281761Y-130783095D01*
X62329380Y-130878333D01*
X62329380Y-130973571D01*
X62281761Y-131068809D01*
X62234142Y-131116428D01*
X62138904Y-131164047D01*
X61948428Y-131211666D01*
X61710333Y-131211666D01*
X61519857Y-131164047D01*
X61424619Y-131116428D01*
X61377000Y-131068809D01*
X61329380Y-130973571D01*
X61662714Y-129783095D02*
X62329380Y-129783095D01*
X61281761Y-130021190D02*
X61996047Y-130259285D01*
X61996047Y-129640238D01*
X59429380Y-134378333D02*
X60143666Y-134378333D01*
X60286523Y-134425952D01*
X60381761Y-134521190D01*
X60429380Y-134664047D01*
X60429380Y-134759285D01*
X59429380Y-133473571D02*
X59429380Y-133664047D01*
X59477000Y-133759285D01*
X59524619Y-133806904D01*
X59667476Y-133902142D01*
X59857952Y-133949761D01*
X60238904Y-133949761D01*
X60334142Y-133902142D01*
X60381761Y-133854523D01*
X60429380Y-133759285D01*
X60429380Y-133568809D01*
X60381761Y-133473571D01*
X60334142Y-133425952D01*
X60238904Y-133378333D01*
X60000809Y-133378333D01*
X59905571Y-133425952D01*
X59857952Y-133473571D01*
X59810333Y-133568809D01*
X59810333Y-133759285D01*
X59857952Y-133854523D01*
X59905571Y-133902142D01*
X60000809Y-133949761D01*
%TO.C,D19*%
X92964476Y-94472380D02*
X92964476Y-93472380D01*
X93202571Y-93472380D01*
X93345428Y-93520000D01*
X93440666Y-93615238D01*
X93488285Y-93710476D01*
X93535904Y-93900952D01*
X93535904Y-94043809D01*
X93488285Y-94234285D01*
X93440666Y-94329523D01*
X93345428Y-94424761D01*
X93202571Y-94472380D01*
X92964476Y-94472380D01*
X93726380Y-94567619D02*
X94488285Y-94567619D01*
X94678761Y-94424761D02*
X94821619Y-94472380D01*
X95059714Y-94472380D01*
X95154952Y-94424761D01*
X95202571Y-94377142D01*
X95250190Y-94281904D01*
X95250190Y-94186666D01*
X95202571Y-94091428D01*
X95154952Y-94043809D01*
X95059714Y-93996190D01*
X94869238Y-93948571D01*
X94774000Y-93900952D01*
X94726380Y-93853333D01*
X94678761Y-93758095D01*
X94678761Y-93662857D01*
X94726380Y-93567619D01*
X94774000Y-93520000D01*
X94869238Y-93472380D01*
X95107333Y-93472380D01*
X95250190Y-93520000D01*
X96107333Y-94424761D02*
X96012095Y-94472380D01*
X95821619Y-94472380D01*
X95726380Y-94424761D01*
X95678761Y-94377142D01*
X95631142Y-94281904D01*
X95631142Y-93996190D01*
X95678761Y-93900952D01*
X95726380Y-93853333D01*
X95821619Y-93805714D01*
X96012095Y-93805714D01*
X96107333Y-93853333D01*
X96535904Y-94472380D02*
X96535904Y-93472380D01*
X96964476Y-94472380D02*
X96964476Y-93948571D01*
X96916857Y-93853333D01*
X96821619Y-93805714D01*
X96678761Y-93805714D01*
X96583523Y-93853333D01*
X96535904Y-93900952D01*
X97583523Y-94472380D02*
X97488285Y-94424761D01*
X97440666Y-94377142D01*
X97393047Y-94281904D01*
X97393047Y-93996190D01*
X97440666Y-93900952D01*
X97488285Y-93853333D01*
X97583523Y-93805714D01*
X97726380Y-93805714D01*
X97821619Y-93853333D01*
X97869238Y-93900952D01*
X97916857Y-93996190D01*
X97916857Y-94281904D01*
X97869238Y-94377142D01*
X97821619Y-94424761D01*
X97726380Y-94472380D01*
X97583523Y-94472380D01*
X98202571Y-93805714D02*
X98583523Y-93805714D01*
X98345428Y-93472380D02*
X98345428Y-94329523D01*
X98393047Y-94424761D01*
X98488285Y-94472380D01*
X98583523Y-94472380D01*
X98774000Y-93805714D02*
X99154952Y-93805714D01*
X98916857Y-93472380D02*
X98916857Y-94329523D01*
X98964476Y-94424761D01*
X99059714Y-94472380D01*
X99154952Y-94472380D01*
X99488285Y-94472380D02*
X99488285Y-93472380D01*
X99583523Y-94091428D02*
X99869238Y-94472380D01*
X99869238Y-93805714D02*
X99488285Y-94186666D01*
X100202571Y-93805714D02*
X100440666Y-94472380D01*
X100678761Y-93805714D02*
X100440666Y-94472380D01*
X100345428Y-94710476D01*
X100297809Y-94758095D01*
X100202571Y-94805714D01*
X104132095Y-100542380D02*
X104132095Y-99542380D01*
X104703523Y-100542380D02*
X104274952Y-99970952D01*
X104703523Y-99542380D02*
X104132095Y-100113809D01*
X94884714Y-98242380D02*
X94884714Y-97242380D01*
X95122809Y-97242380D01*
X95265666Y-97290000D01*
X95360904Y-97385238D01*
X95408523Y-97480476D01*
X95456142Y-97670952D01*
X95456142Y-97813809D01*
X95408523Y-98004285D01*
X95360904Y-98099523D01*
X95265666Y-98194761D01*
X95122809Y-98242380D01*
X94884714Y-98242380D01*
X96408523Y-98242380D02*
X95837095Y-98242380D01*
X96122809Y-98242380D02*
X96122809Y-97242380D01*
X96027571Y-97385238D01*
X95932333Y-97480476D01*
X95837095Y-97528095D01*
X96884714Y-98242380D02*
X97075190Y-98242380D01*
X97170428Y-98194761D01*
X97218047Y-98147142D01*
X97313285Y-98004285D01*
X97360904Y-97813809D01*
X97360904Y-97432857D01*
X97313285Y-97337619D01*
X97265666Y-97290000D01*
X97170428Y-97242380D01*
X96979952Y-97242380D01*
X96884714Y-97290000D01*
X96837095Y-97337619D01*
X96789476Y-97432857D01*
X96789476Y-97670952D01*
X96837095Y-97766190D01*
X96884714Y-97813809D01*
X96979952Y-97861428D01*
X97170428Y-97861428D01*
X97265666Y-97813809D01*
X97313285Y-97766190D01*
X97360904Y-97670952D01*
%TO.C,D20*%
X72390476Y-94472380D02*
X72390476Y-93472380D01*
X72628571Y-93472380D01*
X72771428Y-93520000D01*
X72866666Y-93615238D01*
X72914285Y-93710476D01*
X72961904Y-93900952D01*
X72961904Y-94043809D01*
X72914285Y-94234285D01*
X72866666Y-94329523D01*
X72771428Y-94424761D01*
X72628571Y-94472380D01*
X72390476Y-94472380D01*
X73152380Y-94567619D02*
X73914285Y-94567619D01*
X74104761Y-94424761D02*
X74247619Y-94472380D01*
X74485714Y-94472380D01*
X74580952Y-94424761D01*
X74628571Y-94377142D01*
X74676190Y-94281904D01*
X74676190Y-94186666D01*
X74628571Y-94091428D01*
X74580952Y-94043809D01*
X74485714Y-93996190D01*
X74295238Y-93948571D01*
X74200000Y-93900952D01*
X74152380Y-93853333D01*
X74104761Y-93758095D01*
X74104761Y-93662857D01*
X74152380Y-93567619D01*
X74200000Y-93520000D01*
X74295238Y-93472380D01*
X74533333Y-93472380D01*
X74676190Y-93520000D01*
X75533333Y-94424761D02*
X75438095Y-94472380D01*
X75247619Y-94472380D01*
X75152380Y-94424761D01*
X75104761Y-94377142D01*
X75057142Y-94281904D01*
X75057142Y-93996190D01*
X75104761Y-93900952D01*
X75152380Y-93853333D01*
X75247619Y-93805714D01*
X75438095Y-93805714D01*
X75533333Y-93853333D01*
X75961904Y-94472380D02*
X75961904Y-93472380D01*
X76390476Y-94472380D02*
X76390476Y-93948571D01*
X76342857Y-93853333D01*
X76247619Y-93805714D01*
X76104761Y-93805714D01*
X76009523Y-93853333D01*
X75961904Y-93900952D01*
X77009523Y-94472380D02*
X76914285Y-94424761D01*
X76866666Y-94377142D01*
X76819047Y-94281904D01*
X76819047Y-93996190D01*
X76866666Y-93900952D01*
X76914285Y-93853333D01*
X77009523Y-93805714D01*
X77152380Y-93805714D01*
X77247619Y-93853333D01*
X77295238Y-93900952D01*
X77342857Y-93996190D01*
X77342857Y-94281904D01*
X77295238Y-94377142D01*
X77247619Y-94424761D01*
X77152380Y-94472380D01*
X77009523Y-94472380D01*
X77628571Y-93805714D02*
X78009523Y-93805714D01*
X77771428Y-93472380D02*
X77771428Y-94329523D01*
X77819047Y-94424761D01*
X77914285Y-94472380D01*
X78009523Y-94472380D01*
X78200000Y-93805714D02*
X78580952Y-93805714D01*
X78342857Y-93472380D02*
X78342857Y-94329523D01*
X78390476Y-94424761D01*
X78485714Y-94472380D01*
X78580952Y-94472380D01*
X78914285Y-94472380D02*
X78914285Y-93472380D01*
X79009523Y-94091428D02*
X79295238Y-94472380D01*
X79295238Y-93805714D02*
X78914285Y-94186666D01*
X79628571Y-93805714D02*
X79866666Y-94472380D01*
X80104761Y-93805714D02*
X79866666Y-94472380D01*
X79771428Y-94710476D01*
X79723809Y-94758095D01*
X79628571Y-94805714D01*
X74310714Y-98242380D02*
X74310714Y-97242380D01*
X74548809Y-97242380D01*
X74691666Y-97290000D01*
X74786904Y-97385238D01*
X74834523Y-97480476D01*
X74882142Y-97670952D01*
X74882142Y-97813809D01*
X74834523Y-98004285D01*
X74786904Y-98099523D01*
X74691666Y-98194761D01*
X74548809Y-98242380D01*
X74310714Y-98242380D01*
X75263095Y-97337619D02*
X75310714Y-97290000D01*
X75405952Y-97242380D01*
X75644047Y-97242380D01*
X75739285Y-97290000D01*
X75786904Y-97337619D01*
X75834523Y-97432857D01*
X75834523Y-97528095D01*
X75786904Y-97670952D01*
X75215476Y-98242380D01*
X75834523Y-98242380D01*
X76453571Y-97242380D02*
X76548809Y-97242380D01*
X76644047Y-97290000D01*
X76691666Y-97337619D01*
X76739285Y-97432857D01*
X76786904Y-97623333D01*
X76786904Y-97861428D01*
X76739285Y-98051904D01*
X76691666Y-98147142D01*
X76644047Y-98194761D01*
X76548809Y-98242380D01*
X76453571Y-98242380D01*
X76358333Y-98194761D01*
X76310714Y-98147142D01*
X76263095Y-98051904D01*
X76215476Y-97861428D01*
X76215476Y-97623333D01*
X76263095Y-97432857D01*
X76310714Y-97337619D01*
X76358333Y-97290000D01*
X76453571Y-97242380D01*
X83558095Y-100542380D02*
X83558095Y-99542380D01*
X84129523Y-100542380D02*
X83700952Y-99970952D01*
X84129523Y-99542380D02*
X83558095Y-100113809D01*
%TD*%
M02*
