%TF.GenerationSoftware,KiCad,Pcbnew,6.0.7-f9a2dced07~116~ubuntu20.04.1*%
%TF.CreationDate,2022-07-30T14:53:06+01:00*%
%TF.ProjectId,testing_board,74657374-696e-4675-9f62-6f6172642e6b,rev?*%
%TF.SameCoordinates,Original*%
%TF.FileFunction,Copper,L1,Top*%
%TF.FilePolarity,Positive*%
%FSLAX46Y46*%
G04 Gerber Fmt 4.6, Leading zero omitted, Abs format (unit mm)*
G04 Created by KiCad (PCBNEW 6.0.7-f9a2dced07~116~ubuntu20.04.1) date 2022-07-30 14:53:06*
%MOMM*%
%LPD*%
G01*
G04 APERTURE LIST*
G04 Aperture macros list*
%AMRoundRect*
0 Rectangle with rounded corners*
0 $1 Rounding radius*
0 $2 $3 $4 $5 $6 $7 $8 $9 X,Y pos of 4 corners*
0 Add a 4 corners polygon primitive as box body*
4,1,4,$2,$3,$4,$5,$6,$7,$8,$9,$2,$3,0*
0 Add four circle primitives for the rounded corners*
1,1,$1+$1,$2,$3*
1,1,$1+$1,$4,$5*
1,1,$1+$1,$6,$7*
1,1,$1+$1,$8,$9*
0 Add four rect primitives between the rounded corners*
20,1,$1+$1,$2,$3,$4,$5,0*
20,1,$1+$1,$4,$5,$6,$7,0*
20,1,$1+$1,$6,$7,$8,$9,0*
20,1,$1+$1,$8,$9,$2,$3,0*%
G04 Aperture macros list end*
%TA.AperFunction,ComponentPad*%
%ADD10C,1.800000*%
%TD*%
%TA.AperFunction,ComponentPad*%
%ADD11R,1.800000X1.800000*%
%TD*%
%TA.AperFunction,ComponentPad*%
%ADD12O,1.700000X1.950000*%
%TD*%
%TA.AperFunction,ComponentPad*%
%ADD13RoundRect,0.250000X-0.600000X-0.725000X0.600000X-0.725000X0.600000X0.725000X-0.600000X0.725000X0*%
%TD*%
%TA.AperFunction,ComponentPad*%
%ADD14O,1.950000X1.700000*%
%TD*%
%TA.AperFunction,ComponentPad*%
%ADD15RoundRect,0.250000X-0.725000X0.600000X-0.725000X-0.600000X0.725000X-0.600000X0.725000X0.600000X0*%
%TD*%
%TA.AperFunction,ComponentPad*%
%ADD16O,1.400000X1.400000*%
%TD*%
%TA.AperFunction,ComponentPad*%
%ADD17C,1.400000*%
%TD*%
%TA.AperFunction,WasherPad*%
%ADD18C,4.000000*%
%TD*%
%TA.AperFunction,ComponentPad*%
%ADD19C,2.000000*%
%TD*%
%TA.AperFunction,ComponentPad*%
%ADD20O,1.000000X1.500000*%
%TD*%
%TA.AperFunction,ComponentPad*%
%ADD21R,1.000000X1.500000*%
%TD*%
%TA.AperFunction,ComponentPad*%
%ADD22RoundRect,0.250000X0.600000X0.725000X-0.600000X0.725000X-0.600000X-0.725000X0.600000X-0.725000X0*%
%TD*%
%TA.AperFunction,ComponentPad*%
%ADD23C,2.300000*%
%TD*%
%TA.AperFunction,ComponentPad*%
%ADD24R,2.300000X2.300000*%
%TD*%
%TA.AperFunction,ComponentPad*%
%ADD25O,2.400000X1.600000*%
%TD*%
%TA.AperFunction,ComponentPad*%
%ADD26R,2.400000X1.600000*%
%TD*%
%TA.AperFunction,ComponentPad*%
%ADD27O,2.600000X2.600000*%
%TD*%
%TA.AperFunction,ComponentPad*%
%ADD28R,2.600000X2.600000*%
%TD*%
%TA.AperFunction,Conductor*%
%ADD29C,0.500000*%
%TD*%
%TA.AperFunction,Conductor*%
%ADD30C,0.250000*%
%TD*%
G04 APERTURE END LIST*
D10*
%TO.P,D1,2,A*%
%TO.N,Net-(D1-Pad2)*%
X97099000Y-97536000D03*
D11*
%TO.P,D1,1,K*%
%TO.N,Net-(D1-Pad1)*%
X97099000Y-100076000D03*
%TD*%
D10*
%TO.P,D3,2,A*%
%TO.N,Net-(D3-Pad2)*%
X76478000Y-97428000D03*
D11*
%TO.P,D3,1,K*%
%TO.N,Net-(D3-Pad1)*%
X76478000Y-99968000D03*
%TD*%
D10*
%TO.P,D4,2,A*%
%TO.N,Net-(D4-Pad2)*%
X54346000Y-82563000D03*
D11*
%TO.P,D4,1,K*%
%TO.N,GND*%
X54346000Y-85103000D03*
%TD*%
D10*
%TO.P,D5,2,A*%
%TO.N,Net-(D5-Pad2)*%
X54346000Y-88714000D03*
D11*
%TO.P,D5,1,K*%
%TO.N,GND*%
X54346000Y-91254000D03*
%TD*%
D10*
%TO.P,D6,2,A*%
%TO.N,Net-(D6-Pad2)*%
X54737000Y-66294000D03*
D11*
%TO.P,D6,1,K*%
%TO.N,GND*%
X54737000Y-68834000D03*
%TD*%
D10*
%TO.P,D7,2,A*%
%TO.N,Net-(D7-Pad2)*%
X54737000Y-73152000D03*
D11*
%TO.P,D7,1,K*%
%TO.N,GND*%
X54737000Y-75692000D03*
%TD*%
D10*
%TO.P,D8,2,A*%
%TO.N,Net-(D8-Pad2)*%
X67334000Y-97428000D03*
D11*
%TO.P,D8,1,K*%
%TO.N,Net-(D8-Pad1)*%
X67334000Y-99968000D03*
%TD*%
D10*
%TO.P,D9,2,A*%
%TO.N,+5V*%
X74840000Y-43200000D03*
D11*
%TO.P,D9,1,K*%
%TO.N,Net-(D9-Pad1)*%
X72300000Y-43200000D03*
%TD*%
D10*
%TO.P,D10,2,A*%
%TO.N,+5V*%
X69565000Y-43200000D03*
D11*
%TO.P,D10,1,K*%
%TO.N,Net-(R14-Pad1)*%
X67025000Y-43200000D03*
%TD*%
D10*
%TO.P,D11,2,A*%
%TO.N,+5V*%
X64065000Y-43200000D03*
D11*
%TO.P,D11,1,K*%
%TO.N,Net-(D11-Pad1)*%
X61525000Y-43200000D03*
%TD*%
D10*
%TO.P,D12,2,A*%
%TO.N,+5V*%
X58590000Y-43200000D03*
D11*
%TO.P,D12,1,K*%
%TO.N,Net-(R16-Pad1)*%
X56050000Y-43200000D03*
%TD*%
D10*
%TO.P,D13,2,A*%
%TO.N,Net-(D13-Pad2)*%
X54400000Y-97660000D03*
D11*
%TO.P,D13,1,K*%
%TO.N,GND*%
X54400000Y-100200000D03*
%TD*%
D10*
%TO.P,D14,2,A*%
%TO.N,Net-(D14-Pad2)*%
X54400000Y-106865000D03*
D11*
%TO.P,D14,1,K*%
%TO.N,GND*%
X54400000Y-104325000D03*
%TD*%
%TO.P,D15,1,K*%
%TO.N,Net-(D15-Pad1)*%
X72275000Y-49200000D03*
D10*
%TO.P,D15,2,A*%
%TO.N,+5V*%
X74815000Y-49200000D03*
%TD*%
D11*
%TO.P,D16,1,K*%
%TO.N,Net-(D16-Pad1)*%
X67025000Y-49200000D03*
D10*
%TO.P,D16,2,A*%
%TO.N,+5V*%
X69565000Y-49200000D03*
%TD*%
D11*
%TO.P,D17,1,K*%
%TO.N,Net-(D17-Pad1)*%
X61525000Y-49200000D03*
D10*
%TO.P,D17,2,A*%
%TO.N,+5V*%
X64065000Y-49200000D03*
%TD*%
%TO.P,D18,2,A*%
%TO.N,+5V*%
X58565000Y-49200000D03*
D11*
%TO.P,D18,1,K*%
%TO.N,Net-(R25-Pad1)*%
X56025000Y-49200000D03*
%TD*%
D12*
%TO.P,J1,4,Pin_4*%
%TO.N,GND*%
X96217000Y-113538000D03*
%TO.P,J1,3,Pin_3*%
%TO.N,+5V*%
X93717000Y-113538000D03*
%TO.P,J1,2,Pin_2*%
%TO.N,Net-(D1-Pad1)*%
X91217000Y-113538000D03*
D13*
%TO.P,J1,1,Pin_1*%
%TO.N,Net-(D2-Pad1)*%
X88717000Y-113538000D03*
%TD*%
D12*
%TO.P,J2,4,Pin_4*%
%TO.N,GND*%
X75977000Y-113411000D03*
%TO.P,J2,3,Pin_3*%
%TO.N,+5V*%
X73477000Y-113411000D03*
%TO.P,J2,2,Pin_2*%
%TO.N,Net-(D3-Pad1)*%
X70977000Y-113411000D03*
D13*
%TO.P,J2,1,Pin_1*%
%TO.N,Net-(D8-Pad1)*%
X68477000Y-113411000D03*
%TD*%
D14*
%TO.P,J3,4,Pin_4*%
%TO.N,GND*%
X43170000Y-90372000D03*
%TO.P,J3,3,Pin_3*%
%TO.N,+5V*%
X43170000Y-87872000D03*
%TO.P,J3,2,Pin_2*%
%TO.N,Net-(J3-Pad2)*%
X43170000Y-85372000D03*
D15*
%TO.P,J3,1,Pin_1*%
%TO.N,Net-(J3-Pad1)*%
X43170000Y-82872000D03*
%TD*%
D14*
%TO.P,J4,4,Pin_4*%
%TO.N,GND*%
X43307000Y-74810000D03*
%TO.P,J4,3,Pin_3*%
%TO.N,+5V*%
X43307000Y-72310000D03*
%TO.P,J4,2,Pin_2*%
%TO.N,Net-(J4-Pad2)*%
X43307000Y-69810000D03*
D15*
%TO.P,J4,1,Pin_1*%
%TO.N,Net-(J4-Pad1)*%
X43307000Y-67310000D03*
%TD*%
D12*
%TO.P,J5,4,Pin_4*%
%TO.N,GND*%
X121369999Y-113657999D03*
%TO.P,J5,3,Pin_3*%
%TO.N,+5V*%
X118869999Y-113657999D03*
%TO.P,J5,2,Pin_2*%
%TO.N,Net-(J5-Pad2)*%
X116369999Y-113657999D03*
D13*
%TO.P,J5,1,Pin_1*%
%TO.N,Net-(J5-Pad1)*%
X113869999Y-113657999D03*
%TD*%
D16*
%TO.P,R1,2*%
%TO.N,Net-(D1-Pad2)*%
X98750000Y-104521000D03*
D17*
%TO.P,R1,1*%
%TO.N,Net-(R1-Pad1)*%
X98750000Y-107061000D03*
%TD*%
D16*
%TO.P,R2,2*%
%TO.N,Net-(R2-Pad2)*%
X89225000Y-107188000D03*
D17*
%TO.P,R2,1*%
%TO.N,Net-(D2-Pad2)*%
X89225000Y-104648000D03*
%TD*%
D16*
%TO.P,R3,2*%
%TO.N,Net-(D3-Pad2)*%
X78002000Y-107334000D03*
D17*
%TO.P,R3,1*%
%TO.N,Net-(R3-Pad1)*%
X78002000Y-104794000D03*
%TD*%
D16*
%TO.P,R4,2*%
%TO.N,Net-(J3-Pad1)*%
X48250000Y-81856000D03*
D17*
%TO.P,R4,1*%
%TO.N,Net-(D4-Pad2)*%
X48250000Y-84396000D03*
%TD*%
D16*
%TO.P,R5,2*%
%TO.N,Net-(J3-Pad2)*%
X48250000Y-88460000D03*
D17*
%TO.P,R5,1*%
%TO.N,Net-(D5-Pad2)*%
X48250000Y-91000000D03*
%TD*%
D16*
%TO.P,R6,2*%
%TO.N,Net-(J4-Pad1)*%
X48641000Y-66294000D03*
D17*
%TO.P,R6,1*%
%TO.N,Net-(D6-Pad2)*%
X48641000Y-68834000D03*
%TD*%
D16*
%TO.P,R7,2*%
%TO.N,Net-(J4-Pad2)*%
X48641000Y-72898000D03*
D17*
%TO.P,R7,1*%
%TO.N,Net-(D7-Pad2)*%
X48641000Y-75438000D03*
%TD*%
D16*
%TO.P,R8,2*%
%TO.N,Net-(D1-Pad1)*%
X95194000Y-104394000D03*
D17*
%TO.P,R8,1*%
%TO.N,GND*%
X95194000Y-106934000D03*
%TD*%
D16*
%TO.P,R9,2*%
%TO.N,Net-(D3-Pad1)*%
X74573000Y-104667000D03*
D17*
%TO.P,R9,1*%
%TO.N,GND*%
X74573000Y-107207000D03*
%TD*%
D16*
%TO.P,R10,2*%
%TO.N,Net-(D8-Pad1)*%
X65556000Y-104667000D03*
D17*
%TO.P,R10,1*%
%TO.N,GND*%
X65556000Y-107207000D03*
%TD*%
D16*
%TO.P,R11,2*%
%TO.N,Net-(R11-Pad2)*%
X68858000Y-104667000D03*
D17*
%TO.P,R11,1*%
%TO.N,Net-(D8-Pad2)*%
X68858000Y-107207000D03*
%TD*%
D16*
%TO.P,R12,2*%
%TO.N,Net-(D2-Pad1)*%
X85669000Y-104394000D03*
D17*
%TO.P,R12,1*%
%TO.N,GND*%
X85669000Y-106934000D03*
%TD*%
D16*
%TO.P,R13,2*%
%TO.N,Net-(U3-Pad14)*%
X75070000Y-38200000D03*
D17*
%TO.P,R13,1*%
%TO.N,Net-(D9-Pad1)*%
X72530000Y-38200000D03*
%TD*%
D16*
%TO.P,R14,2*%
%TO.N,Net-(U3-Pad15)*%
X69670000Y-38200000D03*
D17*
%TO.P,R14,1*%
%TO.N,Net-(R14-Pad1)*%
X67130000Y-38200000D03*
%TD*%
D16*
%TO.P,R15,2*%
%TO.N,Net-(U3-Pad16)*%
X64070000Y-38200000D03*
D17*
%TO.P,R15,1*%
%TO.N,Net-(D11-Pad1)*%
X61530000Y-38200000D03*
%TD*%
D16*
%TO.P,R16,2*%
%TO.N,Net-(U3-Pad17)*%
X58670000Y-38200000D03*
D17*
%TO.P,R16,1*%
%TO.N,Net-(R16-Pad1)*%
X56130000Y-38200000D03*
%TD*%
D16*
%TO.P,R17,2*%
%TO.N,Net-(R17-Pad2)*%
X118187999Y-104259999D03*
D17*
%TO.P,R17,1*%
%TO.N,+5V*%
X118187999Y-106799999D03*
%TD*%
D16*
%TO.P,R18,2*%
%TO.N,Net-(J16-Pad2)*%
X86050000Y-34725000D03*
D17*
%TO.P,R18,1*%
%TO.N,+5V*%
X83510000Y-34725000D03*
%TD*%
D16*
%TO.P,R19,2*%
%TO.N,GND*%
X114377999Y-104259999D03*
D17*
%TO.P,R19,1*%
%TO.N,Net-(R17-Pad2)*%
X114377999Y-106799999D03*
%TD*%
D16*
%TO.P,R20,2*%
%TO.N,GND*%
X105356000Y-67114000D03*
D17*
%TO.P,R20,1*%
%TO.N,Net-(D22-Pad1)*%
X105356000Y-69654000D03*
%TD*%
D16*
%TO.P,R21,2*%
%TO.N,Net-(D14-Pad2)*%
X48400000Y-104260000D03*
D17*
%TO.P,R21,1*%
%TO.N,Net-(J6-Pad2)*%
X48400000Y-106800000D03*
%TD*%
%TO.P,R22,1*%
%TO.N,Net-(D15-Pad1)*%
X72580000Y-54200000D03*
D16*
%TO.P,R22,2*%
%TO.N,Net-(U3-Pad7)*%
X75120000Y-54200000D03*
%TD*%
D17*
%TO.P,R23,1*%
%TO.N,Net-(D16-Pad1)*%
X67080000Y-54200000D03*
D16*
%TO.P,R23,2*%
%TO.N,Net-(U3-Pad6)*%
X69620000Y-54200000D03*
%TD*%
D17*
%TO.P,R24,1*%
%TO.N,Net-(D17-Pad1)*%
X61730000Y-54200000D03*
D16*
%TO.P,R24,2*%
%TO.N,Net-(R24-Pad2)*%
X64270000Y-54200000D03*
%TD*%
%TO.P,R25,2*%
%TO.N,Net-(U3-Pad4)*%
X58670000Y-54200000D03*
D17*
%TO.P,R25,1*%
%TO.N,Net-(R25-Pad1)*%
X56130000Y-54200000D03*
%TD*%
D10*
%TO.P,RV1,3,3*%
%TO.N,Net-(R26-Pad2)*%
X123347999Y-100449999D03*
%TO.P,RV1,2,2*%
%TO.N,Net-(J5-Pad1)*%
X125847999Y-100449999D03*
%TO.P,RV1,1,1*%
%TO.N,Net-(R17-Pad2)*%
X128347999Y-100449999D03*
D18*
%TO.P,RV1,*%
%TO.N,*%
X130247999Y-93449999D03*
X121447999Y-93449999D03*
%TD*%
D10*
%TO.P,RV2,3,3*%
%TO.N,Net-(R26-Pad2)*%
X108107999Y-100449999D03*
%TO.P,RV2,2,2*%
%TO.N,Net-(J5-Pad2)*%
X110607999Y-100449999D03*
%TO.P,RV2,1,1*%
%TO.N,Net-(R17-Pad2)*%
X113107999Y-100449999D03*
D18*
%TO.P,RV2,*%
%TO.N,*%
X115007999Y-93449999D03*
X106207999Y-93449999D03*
%TD*%
D19*
%TO.P,SW1,2,2*%
%TO.N,Net-(R1-Pad1)*%
X99313000Y-92964000D03*
X99313000Y-86464000D03*
%TO.P,SW1,1,1*%
%TO.N,+5V*%
X94813000Y-86464000D03*
X94813000Y-92964000D03*
%TD*%
%TO.P,SW2,2,2*%
%TO.N,Net-(R2-Pad2)*%
X89661000Y-86464000D03*
X89661000Y-92964000D03*
%TO.P,SW2,1,1*%
%TO.N,+5V*%
X85161000Y-92964000D03*
X85161000Y-86464000D03*
%TD*%
%TO.P,SW3,2,2*%
%TO.N,Net-(R3-Pad1)*%
X78692000Y-86356000D03*
X78692000Y-92856000D03*
%TO.P,SW3,1,1*%
%TO.N,+5V*%
X74192000Y-92856000D03*
X74192000Y-86356000D03*
%TD*%
%TO.P,SW4,2,2*%
%TO.N,Net-(R11-Pad2)*%
X69548000Y-86356000D03*
X69548000Y-92856000D03*
%TO.P,SW4,1,1*%
%TO.N,+5V*%
X65048000Y-86356000D03*
X65048000Y-92856000D03*
%TD*%
D20*
%TO.P,U1,3,VDD*%
%TO.N,+5V*%
X83460000Y-42850000D03*
%TO.P,U1,2,DQ*%
%TO.N,Net-(J16-Pad2)*%
X84730000Y-42850000D03*
D21*
%TO.P,U1,1,GND*%
%TO.N,GND*%
X86000000Y-42850000D03*
%TD*%
D20*
%TO.P,U2,3,VDD*%
%TO.N,+5V*%
X83460000Y-49600000D03*
%TO.P,U2,2,DQ*%
%TO.N,Net-(J16-Pad2)*%
X84730000Y-49600000D03*
D21*
%TO.P,U2,1,GND*%
%TO.N,GND*%
X86000000Y-49600000D03*
%TD*%
D12*
%TO.P,J16,4,Pin_4*%
%TO.N,GND*%
X80900000Y-26600000D03*
%TO.P,J16,3,Pin_3*%
%TO.N,+5V*%
X83400000Y-26600000D03*
%TO.P,J16,2,Pin_2*%
%TO.N,Net-(J16-Pad2)*%
X85900000Y-26600000D03*
D22*
%TO.P,J16,1,Pin_1*%
%TO.N,unconnected-(J16-Pad1)*%
X88400000Y-26600000D03*
%TD*%
D16*
%TO.P,R26,2*%
%TO.N,Net-(R26-Pad2)*%
X121997999Y-104259999D03*
D17*
%TO.P,R26,1*%
%TO.N,GND*%
X121997999Y-106799999D03*
%TD*%
D10*
%TO.P,D2,2,A*%
%TO.N,Net-(D2-Pad2)*%
X87574000Y-97663000D03*
D11*
%TO.P,D2,1,K*%
%TO.N,Net-(D2-Pad1)*%
X87574000Y-100203000D03*
%TD*%
D10*
%TO.P,D21,2,A*%
%TO.N,Net-(D21-Pad2)*%
X120850000Y-66860000D03*
D11*
%TO.P,D21,1,K*%
%TO.N,Net-(D21-Pad1)*%
X120850000Y-69400000D03*
%TD*%
D10*
%TO.P,D22,2,A*%
%TO.N,Net-(D22-Pad2)*%
X98625000Y-66987000D03*
D11*
%TO.P,D22,1,K*%
%TO.N,Net-(D22-Pad1)*%
X98625000Y-69527000D03*
%TD*%
D12*
%TO.P,J7,4,Pin_4*%
%TO.N,GND*%
X49396000Y-26289000D03*
%TO.P,J7,3,Pin_3*%
%TO.N,+5V*%
X51896000Y-26289000D03*
%TO.P,J7,2,Pin_2*%
%TO.N,Net-(J7-Pad2)*%
X54396000Y-26289000D03*
D22*
%TO.P,J7,1,Pin_1*%
%TO.N,Net-(J7-Pad1)*%
X56896000Y-26289000D03*
%TD*%
D12*
%TO.P,J8,4,Pin_4*%
%TO.N,GND*%
X63112000Y-26289000D03*
%TO.P,J8,3,Pin_3*%
%TO.N,+5V*%
X65612000Y-26289000D03*
%TO.P,J8,2,Pin_2*%
%TO.N,Net-(J8-Pad2)*%
X68112000Y-26289000D03*
D22*
%TO.P,J8,1,Pin_1*%
%TO.N,Net-(J8-Pad1)*%
X70612000Y-26289000D03*
%TD*%
D12*
%TO.P,J9,4,Pin_4*%
%TO.N,GND*%
X108524000Y-26347000D03*
%TO.P,J9,3,Pin_3*%
%TO.N,+5V*%
X111024000Y-26347000D03*
%TO.P,J9,2,Pin_2*%
%TO.N,Net-(D20-Pad1)*%
X113524000Y-26347000D03*
D22*
%TO.P,J9,1,Pin_1*%
%TO.N,Net-(D19-Pad1)*%
X116024000Y-26347000D03*
%TD*%
D16*
%TO.P,R27,2*%
%TO.N,Net-(D13-Pad2)*%
X48376000Y-97848000D03*
D17*
%TO.P,R27,1*%
%TO.N,Net-(J6-Pad1)*%
X48376000Y-100388000D03*
%TD*%
D16*
%TO.P,R28,2*%
%TO.N,GND*%
X127200000Y-66860000D03*
D17*
%TO.P,R28,1*%
%TO.N,Net-(D21-Pad1)*%
X127200000Y-69400000D03*
%TD*%
D23*
%TO.P,RLY1,5,COIL*%
%TO.N,Net-(D19-Pad1)*%
X129390000Y-45365000D03*
%TO.P,RLY1,4,NC*%
%TO.N,unconnected-(RLY1-Pad4)*%
X129390000Y-57565000D03*
%TO.P,RLY1,3,NO*%
%TO.N,Net-(D21-Pad2)*%
X117390000Y-57565000D03*
%TO.P,RLY1,2,COIL*%
%TO.N,GND*%
X117390000Y-45365000D03*
D24*
%TO.P,RLY1,1,COM*%
%TO.N,+5V*%
X123390000Y-43365000D03*
%TD*%
D23*
%TO.P,RLY2,5,COIL*%
%TO.N,Net-(D20-Pad1)*%
X108308000Y-45365000D03*
%TO.P,RLY2,4,NC*%
%TO.N,unconnected-(RLY2-Pad4)*%
X108308000Y-57565000D03*
%TO.P,RLY2,3,NO*%
%TO.N,Net-(D22-Pad2)*%
X96308000Y-57565000D03*
%TO.P,RLY2,2,COIL*%
%TO.N,GND*%
X96308000Y-45365000D03*
D24*
%TO.P,RLY2,1,COM*%
%TO.N,+5V*%
X102308000Y-43365000D03*
%TD*%
D25*
%TO.P,U3,20,PGND*%
%TO.N,GND*%
X49420000Y-35400000D03*
%TO.P,U3,19,LGND*%
X49420000Y-37940000D03*
%TO.P,U3,18,SER_OUT*%
%TO.N,unconnected-(U3-Pad18)*%
X49420000Y-40480000D03*
%TO.P,U3,17,DRAIN7*%
%TO.N,Net-(U3-Pad17)*%
X49420000Y-43020000D03*
%TO.P,U3,16,DRAIN6*%
%TO.N,Net-(U3-Pad16)*%
X49420000Y-45560000D03*
%TO.P,U3,15,DRAIN5*%
%TO.N,Net-(U3-Pad15)*%
X49420000Y-48100000D03*
%TO.P,U3,14,DRAIN4*%
%TO.N,Net-(U3-Pad14)*%
X49420000Y-50640000D03*
%TO.P,U3,13,SRCK*%
%TO.N,Net-(J8-Pad1)*%
X49420000Y-53180000D03*
%TO.P,U3,12,RCLK*%
%TO.N,Net-(J8-Pad2)*%
X49420000Y-55720000D03*
%TO.P,U3,11,PGND*%
%TO.N,GND*%
X49420000Y-58260000D03*
%TO.P,U3,10,PGND*%
X41800000Y-58260000D03*
%TO.P,U3,9,~{G}*%
X41800000Y-55720000D03*
%TO.P,U3,8,~{SRCLR}*%
%TO.N,Net-(J7-Pad1)*%
X41800000Y-53180000D03*
%TO.P,U3,7,DRAIN3*%
%TO.N,Net-(U3-Pad7)*%
X41800000Y-50640000D03*
%TO.P,U3,6,DRAIN2*%
%TO.N,Net-(U3-Pad6)*%
X41800000Y-48100000D03*
%TO.P,U3,5,DRAIN1*%
%TO.N,Net-(R24-Pad2)*%
X41800000Y-45560000D03*
%TO.P,U3,4,DRAIN0*%
%TO.N,Net-(U3-Pad4)*%
X41800000Y-43020000D03*
%TO.P,U3,3,SER_IN*%
%TO.N,Net-(J7-Pad2)*%
X41800000Y-40480000D03*
%TO.P,U3,2,VCC*%
%TO.N,+5V*%
X41800000Y-37940000D03*
D26*
%TO.P,U3,1,PGND*%
%TO.N,GND*%
X41800000Y-35400000D03*
%TD*%
D14*
%TO.P,J6,4,Pin_4*%
%TO.N,GND*%
X42915000Y-105983000D03*
%TO.P,J6,3,Pin_3*%
%TO.N,+5V*%
X42915000Y-103483000D03*
%TO.P,J6,2,Pin_2*%
%TO.N,Net-(J6-Pad2)*%
X42915000Y-100983000D03*
D15*
%TO.P,J6,1,Pin_1*%
%TO.N,Net-(J6-Pad1)*%
X42915000Y-98483000D03*
%TD*%
D27*
%TO.P,D19,2,A*%
%TO.N,GND*%
X115389000Y-35237000D03*
D28*
%TO.P,D19,1,K*%
%TO.N,Net-(D19-Pad1)*%
X130629000Y-35237000D03*
%TD*%
D27*
%TO.P,D20,2,A*%
%TO.N,GND*%
X94815000Y-35237000D03*
D28*
%TO.P,D20,1,K*%
%TO.N,Net-(D20-Pad1)*%
X110055000Y-35237000D03*
%TD*%
D29*
%TO.N,Net-(J6-Pad2)*%
X42915000Y-100983000D02*
X43783000Y-100983000D01*
X43783000Y-100983000D02*
X45800000Y-103000000D01*
X45800000Y-103000000D02*
X45800000Y-105200000D01*
X45800000Y-105200000D02*
X47400000Y-106800000D01*
X47400000Y-106800000D02*
X48400000Y-106800000D01*
%TO.N,Net-(D14-Pad2)*%
X48400000Y-104260000D02*
X51795000Y-104260000D01*
X51795000Y-104260000D02*
X54400000Y-106865000D01*
%TO.N,Net-(D13-Pad2)*%
X48376000Y-97848000D02*
X54212000Y-97848000D01*
X54212000Y-97848000D02*
X54400000Y-97660000D01*
%TO.N,Net-(J6-Pad1)*%
X42915000Y-98483000D02*
X46471000Y-98483000D01*
X46471000Y-98483000D02*
X48376000Y-100388000D01*
%TO.N,+5V*%
X83400000Y-28600000D02*
X83510000Y-28710000D01*
X83510000Y-28710000D02*
X83510000Y-34725000D01*
%TO.N,Net-(J16-Pad2)*%
X86050000Y-34725000D02*
X86050000Y-26750000D01*
X86050000Y-26750000D02*
X85900000Y-26600000D01*
%TO.N,+5V*%
X83400000Y-26600000D02*
X83400000Y-28600000D01*
%TO.N,Net-(U3-Pad7)*%
X45000000Y-59769849D02*
X47630152Y-62400000D01*
X44240000Y-50640000D02*
X45000000Y-51400000D01*
X41800000Y-50640000D02*
X44240000Y-50640000D01*
X45000000Y-51400000D02*
X45000000Y-59769849D01*
X47630152Y-62400000D02*
X66920000Y-62400000D01*
X66920000Y-62400000D02*
X75120000Y-54200000D01*
%TO.N,Net-(U3-Pad6)*%
X41800000Y-48100000D02*
X43900000Y-48100000D01*
X43900000Y-48100000D02*
X45700000Y-49900000D01*
X45700000Y-49900000D02*
X45700000Y-59479899D01*
X45700000Y-59479899D02*
X47920101Y-61700000D01*
X47920101Y-61700000D02*
X62120000Y-61700000D01*
X62120000Y-61700000D02*
X69620000Y-54200000D01*
%TO.N,Net-(R24-Pad2)*%
X46400000Y-59189950D02*
X48210050Y-61000000D01*
X43960000Y-45560000D02*
X46400000Y-48000000D01*
X48210050Y-61000000D02*
X57470000Y-61000000D01*
X41800000Y-45560000D02*
X43960000Y-45560000D01*
X46400000Y-48000000D02*
X46400000Y-59189950D01*
X57470000Y-61000000D02*
X64270000Y-54200000D01*
%TO.N,Net-(U3-Pad4)*%
X41800000Y-43020000D02*
X44420000Y-43020000D01*
X44420000Y-43020000D02*
X47200000Y-45800000D01*
X48200000Y-60000000D02*
X54600000Y-60000000D01*
X47200000Y-45800000D02*
X47200000Y-59000000D01*
X47200000Y-59000000D02*
X48200000Y-60000000D01*
X54600000Y-60000000D02*
X58670000Y-55930000D01*
X58670000Y-55930000D02*
X58670000Y-54200000D01*
%TO.N,Net-(J7-Pad2)*%
X41800000Y-40480000D02*
X46880000Y-35400000D01*
X46880000Y-35400000D02*
X46880000Y-35120000D01*
X46880000Y-35120000D02*
X53800000Y-28200000D01*
%TO.N,+5V*%
X41800000Y-37940000D02*
X43060000Y-37940000D01*
X43060000Y-37940000D02*
X51896000Y-29104000D01*
X51896000Y-29104000D02*
X51896000Y-26289000D01*
X74600000Y-32200000D02*
X68200000Y-32200000D01*
X78600000Y-43600000D02*
X78600000Y-36200000D01*
X73800000Y-46000000D02*
X76200000Y-46000000D01*
X76200000Y-46000000D02*
X78600000Y-43600000D01*
X78600000Y-36200000D02*
X74600000Y-32200000D01*
X68200000Y-32200000D02*
X65612000Y-29612000D01*
X65612000Y-29612000D02*
X65612000Y-26289000D01*
X73800000Y-46000000D02*
X72200000Y-46000000D01*
X72200000Y-46000000D02*
X70800000Y-46000000D01*
X72200000Y-46000000D02*
X73000000Y-46000000D01*
X73000000Y-46000000D02*
X74815000Y-47815000D01*
X74815000Y-47815000D02*
X74815000Y-49200000D01*
X70800000Y-46000000D02*
X68400000Y-46000000D01*
X69565000Y-49200000D02*
X69565000Y-47235000D01*
X69565000Y-47235000D02*
X70800000Y-46000000D01*
X66000000Y-46000000D02*
X65600000Y-46000000D01*
X68400000Y-46000000D02*
X66000000Y-46000000D01*
X66000000Y-46000000D02*
X62800000Y-46000000D01*
X64065000Y-47535000D02*
X64065000Y-49200000D01*
X65600000Y-46000000D02*
X64065000Y-47535000D01*
X74840000Y-43200000D02*
X74840000Y-44960000D01*
X74840000Y-44960000D02*
X73800000Y-46000000D01*
X69565000Y-43200000D02*
X69565000Y-44835000D01*
X69565000Y-44835000D02*
X68400000Y-46000000D01*
X60800000Y-46000000D02*
X62800000Y-46000000D01*
X59800000Y-46000000D02*
X60800000Y-46000000D01*
X60800000Y-46000000D02*
X58565000Y-48235000D01*
X58565000Y-48235000D02*
X58565000Y-49200000D01*
X58590000Y-43200000D02*
X58590000Y-44790000D01*
X58590000Y-44790000D02*
X59800000Y-46000000D01*
X62800000Y-46000000D02*
X64065000Y-44735000D01*
X64065000Y-44735000D02*
X64065000Y-43200000D01*
%TO.N,Net-(U3-Pad17)*%
X49420000Y-43020000D02*
X50210151Y-43020000D01*
X50210151Y-43020000D02*
X53800000Y-39430151D01*
X53800000Y-39430151D02*
X53800000Y-37000000D01*
X53800000Y-37000000D02*
X54400000Y-36400000D01*
X54400000Y-36400000D02*
X56870000Y-36400000D01*
X56870000Y-36400000D02*
X58670000Y-38200000D01*
%TO.N,Net-(U3-Pad16)*%
X49420000Y-45560000D02*
X51440000Y-45560000D01*
X51440000Y-45560000D02*
X52400000Y-44600000D01*
X52400000Y-44600000D02*
X52400000Y-41820101D01*
X52400000Y-41820101D02*
X54220101Y-40000000D01*
X54220101Y-40000000D02*
X62270000Y-40000000D01*
X62270000Y-40000000D02*
X64070000Y-38200000D01*
%TO.N,Net-(U3-Pad15)*%
X49420000Y-48100000D02*
X51500000Y-48100000D01*
X51500000Y-48100000D02*
X53100000Y-46500000D01*
X53100000Y-46500000D02*
X53100000Y-42110050D01*
X53100000Y-42110050D02*
X54510050Y-40700000D01*
X54510050Y-40700000D02*
X67170000Y-40700000D01*
X67170000Y-40700000D02*
X69670000Y-38200000D01*
%TO.N,Net-(U3-Pad14)*%
X49420000Y-50640000D02*
X50160000Y-50640000D01*
X50160000Y-50640000D02*
X53800000Y-47000000D01*
X53800000Y-47000000D02*
X53800000Y-42400000D01*
X53800000Y-42400000D02*
X54800000Y-41400000D01*
X54800000Y-41400000D02*
X71870000Y-41400000D01*
X71870000Y-41400000D02*
X75070000Y-38200000D01*
%TO.N,Net-(J16-Pad2)*%
X84730000Y-49600000D02*
X84730000Y-42850000D01*
X84730000Y-42850000D02*
X84730000Y-36045000D01*
X84730000Y-36045000D02*
X86050000Y-34725000D01*
%TO.N,+5V*%
X83460000Y-42850000D02*
X83460000Y-35547162D01*
X83460000Y-35547162D02*
X83849268Y-35157894D01*
X83460000Y-49600000D02*
X83460000Y-43276516D01*
X83460000Y-43276516D02*
X83458407Y-43274923D01*
%TO.N,Net-(D1-Pad1)*%
X95194000Y-104394000D02*
X91217000Y-108371000D01*
X95194000Y-101981000D02*
X97099000Y-100076000D01*
X95194000Y-104394000D02*
X95194000Y-101981000D01*
X91217000Y-108371000D02*
X91217000Y-113538000D01*
%TO.N,Net-(D2-Pad1)*%
X87955000Y-113538000D02*
X84518999Y-110101999D01*
X88717000Y-113538000D02*
X87955000Y-113538000D01*
X84518999Y-110101999D02*
X84518999Y-105544001D01*
X84518999Y-105544001D02*
X85669000Y-104394000D01*
X85669000Y-102108000D02*
X87574000Y-100203000D01*
X85669000Y-104394000D02*
X85669000Y-102108000D01*
%TO.N,Net-(D2-Pad2)*%
X89225000Y-99314000D02*
X87574000Y-97663000D01*
X89225000Y-104648000D02*
X89225000Y-99314000D01*
%TO.N,Net-(D3-Pad1)*%
X74573000Y-104667000D02*
X74573000Y-101873000D01*
X74573000Y-104667000D02*
X70977000Y-108263000D01*
X74573000Y-101873000D02*
X76478000Y-99968000D01*
X70977000Y-108263000D02*
X70977000Y-113811000D01*
%TO.N,Net-(D4-Pad2)*%
X54346000Y-82563000D02*
X54341000Y-82558000D01*
X54341000Y-82558000D02*
X50088000Y-82558000D01*
X50088000Y-82558000D02*
X48250000Y-84396000D01*
%TO.N,Net-(D5-Pad2)*%
X54346000Y-88714000D02*
X50536000Y-88714000D01*
X50536000Y-88714000D02*
X48250000Y-91000000D01*
D30*
%TO.N,Net-(D6-Pad2)*%
X48641000Y-68834000D02*
X50673000Y-68834000D01*
X53213000Y-66294000D02*
X54737000Y-66294000D01*
X50673000Y-68834000D02*
X53213000Y-66294000D01*
%TO.N,Net-(D7-Pad2)*%
X48641000Y-75438000D02*
X49911000Y-75438000D01*
X49911000Y-75438000D02*
X52197000Y-73152000D01*
X52197000Y-73152000D02*
X54737000Y-73152000D01*
D29*
%TO.N,Net-(D8-Pad1)*%
X64405999Y-109339999D02*
X68477000Y-113411000D01*
X67334000Y-99968000D02*
X67334000Y-102889000D01*
X65556000Y-104667000D02*
X64405999Y-105817001D01*
X67334000Y-102889000D02*
X65556000Y-104667000D01*
X64405999Y-105817001D02*
X64405999Y-109739999D01*
%TO.N,+5V*%
X118187999Y-112975999D02*
X118869999Y-113657999D01*
X85161000Y-86464000D02*
X85161000Y-92964000D01*
X118187999Y-106799999D02*
X118187999Y-112975999D01*
X94813000Y-86464000D02*
X94813000Y-92964000D01*
%TO.N,Net-(J3-Pad2)*%
X42916000Y-85372000D02*
X45162000Y-85372000D01*
X45162000Y-85372000D02*
X48250000Y-88460000D01*
%TO.N,Net-(J3-Pad1)*%
X42916000Y-82872000D02*
X47234000Y-82872000D01*
X47234000Y-82872000D02*
X48250000Y-81856000D01*
D30*
%TO.N,Net-(J4-Pad1)*%
X44323000Y-66294000D02*
X43307000Y-67310000D01*
X48641000Y-66294000D02*
X44323000Y-66294000D01*
%TO.N,Net-(J4-Pad2)*%
X46395000Y-72898000D02*
X43307000Y-69810000D01*
X48641000Y-72898000D02*
X46395000Y-72898000D01*
D29*
%TO.N,Net-(J5-Pad2)*%
X110607999Y-107895999D02*
X110607999Y-100449999D01*
X116369999Y-113657999D02*
X110607999Y-107895999D01*
%TO.N,Net-(J8-Pad1)*%
X70612000Y-26289000D02*
X70612000Y-26797000D01*
%TO.N,Net-(R1-Pad1)*%
X98750000Y-107061000D02*
X99900001Y-105910999D01*
X99313000Y-92964000D02*
X99313000Y-86464000D01*
X99900001Y-105910999D02*
X99900001Y-93551001D01*
X99900001Y-93551001D02*
X99313000Y-92964000D01*
%TO.N,Net-(R2-Pad2)*%
X90375001Y-106037999D02*
X90375001Y-93678001D01*
X89661000Y-86464000D02*
X89661000Y-92964000D01*
X90375001Y-93678001D02*
X89661000Y-92964000D01*
X89225000Y-107188000D02*
X90375001Y-106037999D01*
%TO.N,Net-(R17-Pad2)*%
X118187999Y-104259999D02*
X118187999Y-103270050D01*
X118187999Y-104259999D02*
X116917999Y-104259999D01*
X116917999Y-104259999D02*
X114377999Y-106799999D01*
X122358051Y-99099998D02*
X126997998Y-99099998D01*
X116917999Y-104259999D02*
X113107999Y-100449999D01*
X118187999Y-103270050D02*
X122358051Y-99099998D01*
X126997998Y-99099998D02*
X128347999Y-100449999D01*
%TO.N,Net-(R26-Pad2)*%
X121997999Y-101799999D02*
X123347999Y-100449999D01*
X121997999Y-104259999D02*
X121997999Y-101799999D01*
%TO.N,Net-(D1-Pad2)*%
X98750000Y-99187000D02*
X98750000Y-104521000D01*
X97099000Y-97536000D02*
X98750000Y-99187000D01*
%TO.N,Net-(D21-Pad1)*%
X120850000Y-69400000D02*
X127200000Y-69400000D01*
%TO.N,Net-(D21-Pad2)*%
X117390000Y-57565000D02*
X117390000Y-63400000D01*
X117390000Y-63400000D02*
X120850000Y-66860000D01*
%TO.N,Net-(D22-Pad2)*%
X96308000Y-57565000D02*
X96308000Y-64670000D01*
X96308000Y-64670000D02*
X98625000Y-66987000D01*
%TO.N,Net-(D22-Pad1)*%
X105229000Y-69527000D02*
X105356000Y-69654000D01*
X98625000Y-69527000D02*
X105229000Y-69527000D01*
%TO.N,Net-(R3-Pad1)*%
X78692000Y-92856000D02*
X78692000Y-86356000D01*
X78002000Y-93546000D02*
X78692000Y-92856000D01*
X78002000Y-104794000D02*
X78002000Y-93546000D01*
%TO.N,Net-(R11-Pad2)*%
X68858000Y-93546000D02*
X69548000Y-92856000D01*
X68858000Y-104667000D02*
X68858000Y-93546000D01*
X69548000Y-86356000D02*
X69548000Y-92856000D01*
%TO.N,Net-(D19-Pad1)*%
X130629000Y-44126000D02*
X129390000Y-45365000D01*
X130629000Y-35237000D02*
X130629000Y-44126000D01*
X116024000Y-26347000D02*
X121739000Y-26347000D01*
X121739000Y-26347000D02*
X130629000Y-35237000D01*
%TO.N,Net-(D20-Pad1)*%
X110055000Y-43618000D02*
X108308000Y-45365000D01*
X110055000Y-35237000D02*
X110055000Y-43618000D01*
X113524000Y-31768000D02*
X110055000Y-35237000D01*
X113524000Y-26347000D02*
X113524000Y-31768000D01*
%TD*%
M02*
