%TF.GenerationSoftware,KiCad,Pcbnew,5.1.10-88a1d61d58~90~ubuntu20.04.1*%
%TF.CreationDate,2022-01-17T01:09:50+00:00*%
%TF.ProjectId,testing_board,74657374-696e-4675-9f62-6f6172642e6b,rev?*%
%TF.SameCoordinates,Original*%
%TF.FileFunction,Soldermask,Top*%
%TF.FilePolarity,Negative*%
%FSLAX46Y46*%
G04 Gerber Fmt 4.6, Leading zero omitted, Abs format (unit mm)*
G04 Created by KiCad (PCBNEW 5.1.10-88a1d61d58~90~ubuntu20.04.1) date 2022-01-17 01:09:50*
%MOMM*%
%LPD*%
G01*
G04 APERTURE LIST*
%ADD10O,1.700000X1.950000*%
%ADD11C,1.800000*%
%ADD12R,1.800000X1.800000*%
%ADD13O,1.950000X1.700000*%
%ADD14C,1.400000*%
%ADD15O,1.400000X1.400000*%
%ADD16C,4.000000*%
%ADD17C,2.000000*%
%ADD18O,1.500000X1.000000*%
%ADD19R,1.500000X1.000000*%
%ADD20R,2.400000X2.400000*%
%ADD21O,2.400000X2.400000*%
%ADD22R,2.300000X2.300000*%
%ADD23C,2.300000*%
%ADD24R,1.600000X2.400000*%
%ADD25O,1.600000X2.400000*%
G04 APERTURE END LIST*
D10*
%TO.C,J8*%
X43046000Y-88773000D03*
X45546000Y-88773000D03*
X48046000Y-88773000D03*
G36*
G01*
X51396000Y-88048000D02*
X51396000Y-89498000D01*
G75*
G02*
X51146000Y-89748000I-250000J0D01*
G01*
X49946000Y-89748000D01*
G75*
G02*
X49696000Y-89498000I0J250000D01*
G01*
X49696000Y-88048000D01*
G75*
G02*
X49946000Y-87798000I250000J0D01*
G01*
X51146000Y-87798000D01*
G75*
G02*
X51396000Y-88048000I0J-250000D01*
G01*
G37*
%TD*%
D11*
%TO.C,D1*%
X58166000Y-160020000D03*
D12*
X58166000Y-162560000D03*
%TD*%
%TO.C,D2*%
X48641000Y-162687000D03*
D11*
X48641000Y-160147000D03*
%TD*%
D12*
%TO.C,D3*%
X31496000Y-162052000D03*
D11*
X31496000Y-159512000D03*
%TD*%
D12*
%TO.C,D4*%
X105791000Y-163195000D03*
D11*
X103251000Y-163195000D03*
%TD*%
%TO.C,D5*%
X110109000Y-163195000D03*
D12*
X112649000Y-163195000D03*
%TD*%
D11*
%TO.C,D6*%
X34671000Y-128778000D03*
D12*
X34671000Y-131318000D03*
%TD*%
%TO.C,D7*%
X34671000Y-138176000D03*
D11*
X34671000Y-135636000D03*
%TD*%
D12*
%TO.C,D8*%
X22352000Y-162052000D03*
D11*
X22352000Y-159512000D03*
%TD*%
%TO.C,D9*%
X36830000Y-113284000D03*
D12*
X39370000Y-113284000D03*
%TD*%
D11*
%TO.C,D10*%
X30988000Y-113284000D03*
D12*
X33528000Y-113284000D03*
%TD*%
D11*
%TO.C,D11*%
X25273000Y-113284000D03*
D12*
X27813000Y-113284000D03*
%TD*%
%TO.C,D12*%
X22098000Y-113411000D03*
D11*
X19558000Y-113411000D03*
%TD*%
%TO.C,D13*%
X43942000Y-137922000D03*
D12*
X43942000Y-135382000D03*
%TD*%
%TO.C,D14*%
X43942000Y-129032000D03*
D11*
X43942000Y-131572000D03*
%TD*%
%TO.C,D15*%
X59182000Y-113284000D03*
D12*
X61722000Y-113284000D03*
%TD*%
%TO.C,D16*%
X56134000Y-113284000D03*
D11*
X53594000Y-113284000D03*
%TD*%
%TO.C,D17*%
X48006000Y-113284000D03*
D12*
X50546000Y-113284000D03*
%TD*%
%TO.C,D18*%
X45085000Y-113284000D03*
D11*
X42545000Y-113284000D03*
%TD*%
%TO.C,J1*%
G36*
G01*
X48934000Y-176747000D02*
X48934000Y-175297000D01*
G75*
G02*
X49184000Y-175047000I250000J0D01*
G01*
X50384000Y-175047000D01*
G75*
G02*
X50634000Y-175297000I0J-250000D01*
G01*
X50634000Y-176747000D01*
G75*
G02*
X50384000Y-176997000I-250000J0D01*
G01*
X49184000Y-176997000D01*
G75*
G02*
X48934000Y-176747000I0J250000D01*
G01*
G37*
D10*
X52284000Y-176022000D03*
X54784000Y-176022000D03*
X57284000Y-176022000D03*
%TD*%
%TO.C,J2*%
X30995000Y-175895000D03*
X28495000Y-175895000D03*
X25995000Y-175895000D03*
G36*
G01*
X22645000Y-176620000D02*
X22645000Y-175170000D01*
G75*
G02*
X22895000Y-174920000I250000J0D01*
G01*
X24095000Y-174920000D01*
G75*
G02*
X24345000Y-175170000I0J-250000D01*
G01*
X24345000Y-176620000D01*
G75*
G02*
X24095000Y-176870000I-250000J0D01*
G01*
X22895000Y-176870000D01*
G75*
G02*
X22645000Y-176620000I0J250000D01*
G01*
G37*
%TD*%
%TO.C,J3*%
X111767000Y-174625000D03*
X109267000Y-174625000D03*
X106767000Y-174625000D03*
G36*
G01*
X103417000Y-175350000D02*
X103417000Y-173900000D01*
G75*
G02*
X103667000Y-173650000I250000J0D01*
G01*
X104867000Y-173650000D01*
G75*
G02*
X105117000Y-173900000I0J-250000D01*
G01*
X105117000Y-175350000D01*
G75*
G02*
X104867000Y-175600000I-250000J0D01*
G01*
X103667000Y-175600000D01*
G75*
G02*
X103417000Y-175350000I0J250000D01*
G01*
G37*
%TD*%
%TO.C,J4*%
G36*
G01*
X22516000Y-128944000D02*
X23966000Y-128944000D01*
G75*
G02*
X24216000Y-129194000I0J-250000D01*
G01*
X24216000Y-130394000D01*
G75*
G02*
X23966000Y-130644000I-250000J0D01*
G01*
X22516000Y-130644000D01*
G75*
G02*
X22266000Y-130394000I0J250000D01*
G01*
X22266000Y-129194000D01*
G75*
G02*
X22516000Y-128944000I250000J0D01*
G01*
G37*
D13*
X23241000Y-132294000D03*
X23241000Y-134794000D03*
X23241000Y-137294000D03*
%TD*%
%TO.C,J5*%
G36*
G01*
X80049000Y-174588000D02*
X80049000Y-173138000D01*
G75*
G02*
X80299000Y-172888000I250000J0D01*
G01*
X81499000Y-172888000D01*
G75*
G02*
X81749000Y-173138000I0J-250000D01*
G01*
X81749000Y-174588000D01*
G75*
G02*
X81499000Y-174838000I-250000J0D01*
G01*
X80299000Y-174838000D01*
G75*
G02*
X80049000Y-174588000I0J250000D01*
G01*
G37*
D10*
X83399000Y-173863000D03*
X85899000Y-173863000D03*
X88399000Y-173863000D03*
%TD*%
D14*
%TO.C,R1*%
X59817000Y-169545000D03*
D15*
X59817000Y-167005000D03*
%TD*%
D14*
%TO.C,R2*%
X50292000Y-167132000D03*
D15*
X50292000Y-169672000D03*
%TD*%
%TO.C,R3*%
X33020000Y-169418000D03*
D14*
X33020000Y-166878000D03*
%TD*%
%TO.C,R4*%
X105791000Y-169291000D03*
D15*
X103251000Y-169291000D03*
%TD*%
%TO.C,R5*%
X109855000Y-169291000D03*
D14*
X112395000Y-169291000D03*
%TD*%
%TO.C,R6*%
X28575000Y-131318000D03*
D15*
X28575000Y-128778000D03*
%TD*%
D14*
%TO.C,R7*%
X28575000Y-137922000D03*
D15*
X28575000Y-135382000D03*
%TD*%
%TO.C,R8*%
X56261000Y-166878000D03*
D14*
X56261000Y-169418000D03*
%TD*%
%TO.C,R9*%
X29591000Y-169291000D03*
D15*
X29591000Y-166751000D03*
%TD*%
%TO.C,R10*%
X20574000Y-166751000D03*
D14*
X20574000Y-169291000D03*
%TD*%
D15*
%TO.C,R11*%
X23876000Y-166751000D03*
D14*
X23876000Y-169291000D03*
%TD*%
D15*
%TO.C,R12*%
X46736000Y-166878000D03*
D14*
X46736000Y-169418000D03*
%TD*%
%TO.C,R13*%
X38227000Y-118110000D03*
D15*
X38227000Y-120650000D03*
%TD*%
%TO.C,R14*%
X32258000Y-120650000D03*
D14*
X32258000Y-118110000D03*
%TD*%
%TO.C,R15*%
X26670000Y-118237000D03*
D15*
X26670000Y-120777000D03*
%TD*%
%TO.C,R16*%
X20828000Y-120777000D03*
D14*
X20828000Y-118237000D03*
%TD*%
%TO.C,R17*%
X85217000Y-167005000D03*
D15*
X85217000Y-164465000D03*
%TD*%
D14*
%TO.C,R18*%
X102489000Y-146685000D03*
D15*
X105029000Y-146685000D03*
%TD*%
%TO.C,R19*%
X81407000Y-164465000D03*
D14*
X81407000Y-167005000D03*
%TD*%
%TO.C,R20*%
X79121000Y-132207000D03*
D15*
X79121000Y-129667000D03*
%TD*%
%TO.C,R21*%
X51562000Y-136017000D03*
D14*
X49022000Y-136017000D03*
%TD*%
D15*
%TO.C,R22*%
X60325000Y-120650000D03*
D14*
X60325000Y-118110000D03*
%TD*%
%TO.C,R23*%
X54737000Y-118110000D03*
D15*
X54737000Y-120650000D03*
%TD*%
%TO.C,R24*%
X49276000Y-120650000D03*
D14*
X49276000Y-118110000D03*
%TD*%
%TO.C,R25*%
X43688000Y-118110000D03*
D15*
X43688000Y-120650000D03*
%TD*%
D16*
%TO.C,RV1*%
X97277000Y-153655000D03*
X88477000Y-153655000D03*
D11*
X95377000Y-160655000D03*
X92877000Y-160655000D03*
X90377000Y-160655000D03*
%TD*%
%TO.C,RV2*%
X75137000Y-160655000D03*
X77637000Y-160655000D03*
X80137000Y-160655000D03*
D16*
X73237000Y-153655000D03*
X82037000Y-153655000D03*
%TD*%
D17*
%TO.C,SW1*%
X55880000Y-148948000D03*
X60380000Y-148948000D03*
X55880000Y-155448000D03*
X60380000Y-155448000D03*
%TD*%
%TO.C,SW2*%
X50728000Y-155448000D03*
X46228000Y-155448000D03*
X50728000Y-148948000D03*
X46228000Y-148948000D03*
%TD*%
%TO.C,SW3*%
X33710000Y-154940000D03*
X29210000Y-154940000D03*
X33710000Y-148440000D03*
X29210000Y-148440000D03*
%TD*%
%TO.C,SW4*%
X20066000Y-148440000D03*
X24566000Y-148440000D03*
X20066000Y-154940000D03*
X24566000Y-154940000D03*
%TD*%
D18*
%TO.C,U1*%
X102489000Y-140335000D03*
X102489000Y-139065000D03*
D19*
X102489000Y-141605000D03*
%TD*%
%TO.C,U2*%
X93599000Y-141605000D03*
D18*
X93599000Y-139065000D03*
X93599000Y-140335000D03*
%TD*%
%TO.C,J16*%
G36*
G01*
X110834000Y-146265000D02*
X109384000Y-146265000D01*
G75*
G02*
X109134000Y-146015000I0J250000D01*
G01*
X109134000Y-144815000D01*
G75*
G02*
X109384000Y-144565000I250000J0D01*
G01*
X110834000Y-144565000D01*
G75*
G02*
X111084000Y-144815000I0J-250000D01*
G01*
X111084000Y-146015000D01*
G75*
G02*
X110834000Y-146265000I-250000J0D01*
G01*
G37*
D13*
X110109000Y-142915000D03*
X110109000Y-140415000D03*
X110109000Y-137915000D03*
%TD*%
D14*
%TO.C,R26*%
X89027000Y-167005000D03*
D15*
X89027000Y-164465000D03*
%TD*%
D20*
%TO.C,D19*%
X89408000Y-97409000D03*
D21*
X104648000Y-97409000D03*
%TD*%
%TO.C,D20*%
X83693000Y-97409000D03*
D20*
X68453000Y-97409000D03*
%TD*%
D12*
%TO.C,D21*%
X94615000Y-131953000D03*
D11*
X94615000Y-129413000D03*
%TD*%
%TO.C,D22*%
X72390000Y-129540000D03*
D12*
X72390000Y-132080000D03*
%TD*%
%TO.C,J7*%
G36*
G01*
X35267000Y-88048000D02*
X35267000Y-89498000D01*
G75*
G02*
X35017000Y-89748000I-250000J0D01*
G01*
X33817000Y-89748000D01*
G75*
G02*
X33567000Y-89498000I0J250000D01*
G01*
X33567000Y-88048000D01*
G75*
G02*
X33817000Y-87798000I250000J0D01*
G01*
X35017000Y-87798000D01*
G75*
G02*
X35267000Y-88048000I0J-250000D01*
G01*
G37*
D10*
X31917000Y-88773000D03*
X29417000Y-88773000D03*
X26917000Y-88773000D03*
%TD*%
%TO.C,J9*%
G36*
G01*
X90639000Y-88175000D02*
X90639000Y-89625000D01*
G75*
G02*
X90389000Y-89875000I-250000J0D01*
G01*
X89189000Y-89875000D01*
G75*
G02*
X88939000Y-89625000I0J250000D01*
G01*
X88939000Y-88175000D01*
G75*
G02*
X89189000Y-87925000I250000J0D01*
G01*
X90389000Y-87925000D01*
G75*
G02*
X90639000Y-88175000I0J-250000D01*
G01*
G37*
X87289000Y-88900000D03*
X84789000Y-88900000D03*
X82289000Y-88900000D03*
%TD*%
D14*
%TO.C,R27*%
X49149000Y-131699000D03*
D15*
X51689000Y-131699000D03*
%TD*%
%TO.C,R28*%
X100965000Y-129413000D03*
D14*
X100965000Y-131953000D03*
%TD*%
D22*
%TO.C,RLY1*%
X97155000Y-105918000D03*
D23*
X91155000Y-107918000D03*
X103155000Y-107918000D03*
X91155000Y-120118000D03*
X103155000Y-120118000D03*
%TD*%
%TO.C,RLY2*%
X82073000Y-120118000D03*
X70073000Y-120118000D03*
X82073000Y-107918000D03*
X70073000Y-107918000D03*
D22*
X76073000Y-105918000D03*
%TD*%
D24*
%TO.C,U3*%
X27940000Y-104648000D03*
D25*
X50800000Y-97028000D03*
X30480000Y-104648000D03*
X48260000Y-97028000D03*
X33020000Y-104648000D03*
X45720000Y-97028000D03*
X35560000Y-104648000D03*
X43180000Y-97028000D03*
X38100000Y-104648000D03*
X40640000Y-97028000D03*
X40640000Y-104648000D03*
X38100000Y-97028000D03*
X43180000Y-104648000D03*
X35560000Y-97028000D03*
X45720000Y-104648000D03*
X33020000Y-97028000D03*
X48260000Y-104648000D03*
X30480000Y-97028000D03*
X50800000Y-104648000D03*
X27940000Y-97028000D03*
%TD*%
%TO.C,J6*%
G36*
G01*
X58002000Y-138645000D02*
X56552000Y-138645000D01*
G75*
G02*
X56302000Y-138395000I0J250000D01*
G01*
X56302000Y-137195000D01*
G75*
G02*
X56552000Y-136945000I250000J0D01*
G01*
X58002000Y-136945000D01*
G75*
G02*
X58252000Y-137195000I0J-250000D01*
G01*
X58252000Y-138395000D01*
G75*
G02*
X58002000Y-138645000I-250000J0D01*
G01*
G37*
D13*
X57277000Y-135295000D03*
X57277000Y-132795000D03*
X57277000Y-130295000D03*
%TD*%
M02*
