%TF.GenerationSoftware,KiCad,Pcbnew,5.1.10-88a1d61d58~90~ubuntu20.04.1*%
%TF.CreationDate,2022-01-17T01:09:50+00:00*%
%TF.ProjectId,testing_board,74657374-696e-4675-9f62-6f6172642e6b,rev?*%
%TF.SameCoordinates,Original*%
%TF.FileFunction,Legend,Top*%
%TF.FilePolarity,Positive*%
%FSLAX46Y46*%
G04 Gerber Fmt 4.6, Leading zero omitted, Abs format (unit mm)*
G04 Created by KiCad (PCBNEW 5.1.10-88a1d61d58~90~ubuntu20.04.1) date 2022-01-17 01:09:50*
%MOMM*%
%LPD*%
G01*
G04 APERTURE LIST*
%ADD10C,0.120000*%
%ADD11C,0.100000*%
%ADD12C,0.150000*%
G04 APERTURE END LIST*
D10*
%TO.C,J8*%
X53106000Y-91233000D02*
X53106000Y-85263000D01*
X53106000Y-85263000D02*
X40486000Y-85263000D01*
X40486000Y-85263000D02*
X40486000Y-91233000D01*
X40486000Y-91233000D02*
X53106000Y-91233000D01*
X49796000Y-91223000D02*
X49796000Y-90473000D01*
X49796000Y-90473000D02*
X43796000Y-90473000D01*
X43796000Y-90473000D02*
X43796000Y-91223000D01*
X43796000Y-91223000D02*
X49796000Y-91223000D01*
X53096000Y-91223000D02*
X53096000Y-90473000D01*
X53096000Y-90473000D02*
X51296000Y-90473000D01*
X51296000Y-90473000D02*
X51296000Y-91223000D01*
X51296000Y-91223000D02*
X53096000Y-91223000D01*
X42296000Y-91223000D02*
X42296000Y-90473000D01*
X42296000Y-90473000D02*
X40496000Y-90473000D01*
X40496000Y-90473000D02*
X40496000Y-91223000D01*
X40496000Y-91223000D02*
X42296000Y-91223000D01*
X53096000Y-88973000D02*
X52346000Y-88973000D01*
X52346000Y-88973000D02*
X52346000Y-86023000D01*
X52346000Y-86023000D02*
X46796000Y-86023000D01*
X40496000Y-88973000D02*
X41246000Y-88973000D01*
X41246000Y-88973000D02*
X41246000Y-86023000D01*
X41246000Y-86023000D02*
X46796000Y-86023000D01*
X52146000Y-91523000D02*
X53396000Y-91523000D01*
X53396000Y-91523000D02*
X53396000Y-90273000D01*
%TO.C,D1*%
X56930000Y-162850000D02*
X57086000Y-162850000D01*
X59246000Y-162850000D02*
X59402000Y-162850000D01*
X59245837Y-160248870D02*
G75*
G02*
X59246000Y-162330961I-1079837J-1041130D01*
G01*
X57086163Y-160248870D02*
G75*
G03*
X57086000Y-162330961I1079837J-1041130D01*
G01*
X59244608Y-159617665D02*
G75*
G02*
X59401516Y-162850000I-1078608J-1672335D01*
G01*
X57087392Y-159617665D02*
G75*
G03*
X56930484Y-162850000I1078608J-1672335D01*
G01*
%TO.C,D2*%
X49721000Y-162977000D02*
X49877000Y-162977000D01*
X47405000Y-162977000D02*
X47561000Y-162977000D01*
X47562392Y-159744665D02*
G75*
G03*
X47405484Y-162977000I1078608J-1672335D01*
G01*
X49719608Y-159744665D02*
G75*
G02*
X49876516Y-162977000I-1078608J-1672335D01*
G01*
X47561163Y-160375870D02*
G75*
G03*
X47561000Y-162457961I1079837J-1041130D01*
G01*
X49720837Y-160375870D02*
G75*
G02*
X49721000Y-162457961I-1079837J-1041130D01*
G01*
%TO.C,D3*%
X32576000Y-162342000D02*
X32732000Y-162342000D01*
X30260000Y-162342000D02*
X30416000Y-162342000D01*
X30417392Y-159109665D02*
G75*
G03*
X30260484Y-162342000I1078608J-1672335D01*
G01*
X32574608Y-159109665D02*
G75*
G02*
X32731516Y-162342000I-1078608J-1672335D01*
G01*
X30416163Y-159740870D02*
G75*
G03*
X30416000Y-161822961I1079837J-1041130D01*
G01*
X32575837Y-159740870D02*
G75*
G02*
X32576000Y-161822961I-1079837J-1041130D01*
G01*
%TO.C,D4*%
X106081000Y-162115000D02*
X106081000Y-161959000D01*
X106081000Y-164431000D02*
X106081000Y-164275000D01*
X102848665Y-164273608D02*
G75*
G03*
X106081000Y-164430516I1672335J1078608D01*
G01*
X102848665Y-162116392D02*
G75*
G02*
X106081000Y-161959484I1672335J-1078608D01*
G01*
X103479870Y-164274837D02*
G75*
G03*
X105561961Y-164275000I1041130J1079837D01*
G01*
X103479870Y-162115163D02*
G75*
G02*
X105561961Y-162115000I1041130J-1079837D01*
G01*
%TO.C,D5*%
X112939000Y-164431000D02*
X112939000Y-164275000D01*
X112939000Y-162115000D02*
X112939000Y-161959000D01*
X110337870Y-162115163D02*
G75*
G02*
X112419961Y-162115000I1041130J-1079837D01*
G01*
X110337870Y-164274837D02*
G75*
G03*
X112419961Y-164275000I1041130J1079837D01*
G01*
X109706665Y-162116392D02*
G75*
G02*
X112939000Y-161959484I1672335J-1078608D01*
G01*
X109706665Y-164273608D02*
G75*
G03*
X112939000Y-164430516I1672335J1078608D01*
G01*
%TO.C,D6*%
X33435000Y-131608000D02*
X33591000Y-131608000D01*
X35751000Y-131608000D02*
X35907000Y-131608000D01*
X35750837Y-129006870D02*
G75*
G02*
X35751000Y-131088961I-1079837J-1041130D01*
G01*
X33591163Y-129006870D02*
G75*
G03*
X33591000Y-131088961I1079837J-1041130D01*
G01*
X35749608Y-128375665D02*
G75*
G02*
X35906516Y-131608000I-1078608J-1672335D01*
G01*
X33592392Y-128375665D02*
G75*
G03*
X33435484Y-131608000I1078608J-1672335D01*
G01*
%TO.C,D7*%
X35751000Y-138466000D02*
X35907000Y-138466000D01*
X33435000Y-138466000D02*
X33591000Y-138466000D01*
X33592392Y-135233665D02*
G75*
G03*
X33435484Y-138466000I1078608J-1672335D01*
G01*
X35749608Y-135233665D02*
G75*
G02*
X35906516Y-138466000I-1078608J-1672335D01*
G01*
X33591163Y-135864870D02*
G75*
G03*
X33591000Y-137946961I1079837J-1041130D01*
G01*
X35750837Y-135864870D02*
G75*
G02*
X35751000Y-137946961I-1079837J-1041130D01*
G01*
%TO.C,D8*%
X23432000Y-162342000D02*
X23588000Y-162342000D01*
X21116000Y-162342000D02*
X21272000Y-162342000D01*
X21273392Y-159109665D02*
G75*
G03*
X21116484Y-162342000I1078608J-1672335D01*
G01*
X23430608Y-159109665D02*
G75*
G02*
X23587516Y-162342000I-1078608J-1672335D01*
G01*
X21272163Y-159740870D02*
G75*
G03*
X21272000Y-161822961I1079837J-1041130D01*
G01*
X23431837Y-159740870D02*
G75*
G02*
X23432000Y-161822961I-1079837J-1041130D01*
G01*
%TO.C,D9*%
X39660000Y-114520000D02*
X39660000Y-114364000D01*
X39660000Y-112204000D02*
X39660000Y-112048000D01*
X37058870Y-112204163D02*
G75*
G02*
X39140961Y-112204000I1041130J-1079837D01*
G01*
X37058870Y-114363837D02*
G75*
G03*
X39140961Y-114364000I1041130J1079837D01*
G01*
X36427665Y-112205392D02*
G75*
G02*
X39660000Y-112048484I1672335J-1078608D01*
G01*
X36427665Y-114362608D02*
G75*
G03*
X39660000Y-114519516I1672335J1078608D01*
G01*
%TO.C,D10*%
X33818000Y-114520000D02*
X33818000Y-114364000D01*
X33818000Y-112204000D02*
X33818000Y-112048000D01*
X31216870Y-112204163D02*
G75*
G02*
X33298961Y-112204000I1041130J-1079837D01*
G01*
X31216870Y-114363837D02*
G75*
G03*
X33298961Y-114364000I1041130J1079837D01*
G01*
X30585665Y-112205392D02*
G75*
G02*
X33818000Y-112048484I1672335J-1078608D01*
G01*
X30585665Y-114362608D02*
G75*
G03*
X33818000Y-114519516I1672335J1078608D01*
G01*
%TO.C,D11*%
X28103000Y-114520000D02*
X28103000Y-114364000D01*
X28103000Y-112204000D02*
X28103000Y-112048000D01*
X25501870Y-112204163D02*
G75*
G02*
X27583961Y-112204000I1041130J-1079837D01*
G01*
X25501870Y-114363837D02*
G75*
G03*
X27583961Y-114364000I1041130J1079837D01*
G01*
X24870665Y-112205392D02*
G75*
G02*
X28103000Y-112048484I1672335J-1078608D01*
G01*
X24870665Y-114362608D02*
G75*
G03*
X28103000Y-114519516I1672335J1078608D01*
G01*
%TO.C,D12*%
X22388000Y-112331000D02*
X22388000Y-112175000D01*
X22388000Y-114647000D02*
X22388000Y-114491000D01*
X19155665Y-114489608D02*
G75*
G03*
X22388000Y-114646516I1672335J1078608D01*
G01*
X19155665Y-112332392D02*
G75*
G02*
X22388000Y-112175484I1672335J-1078608D01*
G01*
X19786870Y-114490837D02*
G75*
G03*
X21868961Y-114491000I1041130J1079837D01*
G01*
X19786870Y-112331163D02*
G75*
G02*
X21868961Y-112331000I1041130J-1079837D01*
G01*
%TO.C,D13*%
X45178000Y-135092000D02*
X45022000Y-135092000D01*
X42862000Y-135092000D02*
X42706000Y-135092000D01*
X42862163Y-137693130D02*
G75*
G02*
X42862000Y-135611039I1079837J1041130D01*
G01*
X45021837Y-137693130D02*
G75*
G03*
X45022000Y-135611039I-1079837J1041130D01*
G01*
X42863392Y-138324335D02*
G75*
G02*
X42706484Y-135092000I1078608J1672335D01*
G01*
X45020608Y-138324335D02*
G75*
G03*
X45177516Y-135092000I-1078608J1672335D01*
G01*
%TO.C,D14*%
X42862000Y-128742000D02*
X42706000Y-128742000D01*
X45178000Y-128742000D02*
X45022000Y-128742000D01*
X45020608Y-131974335D02*
G75*
G03*
X45177516Y-128742000I-1078608J1672335D01*
G01*
X42863392Y-131974335D02*
G75*
G02*
X42706484Y-128742000I1078608J1672335D01*
G01*
X45021837Y-131343130D02*
G75*
G03*
X45022000Y-129261039I-1079837J1041130D01*
G01*
X42862163Y-131343130D02*
G75*
G02*
X42862000Y-129261039I1079837J1041130D01*
G01*
%TO.C,D15*%
X62012000Y-114520000D02*
X62012000Y-114364000D01*
X62012000Y-112204000D02*
X62012000Y-112048000D01*
X59410870Y-112204163D02*
G75*
G02*
X61492961Y-112204000I1041130J-1079837D01*
G01*
X59410870Y-114363837D02*
G75*
G03*
X61492961Y-114364000I1041130J1079837D01*
G01*
X58779665Y-112205392D02*
G75*
G02*
X62012000Y-112048484I1672335J-1078608D01*
G01*
X58779665Y-114362608D02*
G75*
G03*
X62012000Y-114519516I1672335J1078608D01*
G01*
%TO.C,D16*%
X56424000Y-112204000D02*
X56424000Y-112048000D01*
X56424000Y-114520000D02*
X56424000Y-114364000D01*
X53191665Y-114362608D02*
G75*
G03*
X56424000Y-114519516I1672335J1078608D01*
G01*
X53191665Y-112205392D02*
G75*
G02*
X56424000Y-112048484I1672335J-1078608D01*
G01*
X53822870Y-114363837D02*
G75*
G03*
X55904961Y-114364000I1041130J1079837D01*
G01*
X53822870Y-112204163D02*
G75*
G02*
X55904961Y-112204000I1041130J-1079837D01*
G01*
%TO.C,D17*%
X50836000Y-114520000D02*
X50836000Y-114364000D01*
X50836000Y-112204000D02*
X50836000Y-112048000D01*
X48234870Y-112204163D02*
G75*
G02*
X50316961Y-112204000I1041130J-1079837D01*
G01*
X48234870Y-114363837D02*
G75*
G03*
X50316961Y-114364000I1041130J1079837D01*
G01*
X47603665Y-112205392D02*
G75*
G02*
X50836000Y-112048484I1672335J-1078608D01*
G01*
X47603665Y-114362608D02*
G75*
G03*
X50836000Y-114519516I1672335J1078608D01*
G01*
%TO.C,D18*%
X45375000Y-112204000D02*
X45375000Y-112048000D01*
X45375000Y-114520000D02*
X45375000Y-114364000D01*
X42142665Y-114362608D02*
G75*
G03*
X45375000Y-114519516I1672335J1078608D01*
G01*
X42142665Y-112205392D02*
G75*
G02*
X45375000Y-112048484I1672335J-1078608D01*
G01*
X42773870Y-114363837D02*
G75*
G03*
X44855961Y-114364000I1041130J1079837D01*
G01*
X42773870Y-112204163D02*
G75*
G02*
X44855961Y-112204000I1041130J-1079837D01*
G01*
%TO.C,J1*%
X46934000Y-173272000D02*
X46934000Y-174522000D01*
X48184000Y-173272000D02*
X46934000Y-173272000D01*
X59084000Y-178772000D02*
X53534000Y-178772000D01*
X59084000Y-175822000D02*
X59084000Y-178772000D01*
X59834000Y-175822000D02*
X59084000Y-175822000D01*
X47984000Y-178772000D02*
X53534000Y-178772000D01*
X47984000Y-175822000D02*
X47984000Y-178772000D01*
X47234000Y-175822000D02*
X47984000Y-175822000D01*
X59834000Y-173572000D02*
X58034000Y-173572000D01*
X59834000Y-174322000D02*
X59834000Y-173572000D01*
X58034000Y-174322000D02*
X59834000Y-174322000D01*
X58034000Y-173572000D02*
X58034000Y-174322000D01*
X49034000Y-173572000D02*
X47234000Y-173572000D01*
X49034000Y-174322000D02*
X49034000Y-173572000D01*
X47234000Y-174322000D02*
X49034000Y-174322000D01*
X47234000Y-173572000D02*
X47234000Y-174322000D01*
X56534000Y-173572000D02*
X50534000Y-173572000D01*
X56534000Y-174322000D02*
X56534000Y-173572000D01*
X50534000Y-174322000D02*
X56534000Y-174322000D01*
X50534000Y-173572000D02*
X50534000Y-174322000D01*
X59844000Y-173562000D02*
X47224000Y-173562000D01*
X59844000Y-179532000D02*
X59844000Y-173562000D01*
X47224000Y-179532000D02*
X59844000Y-179532000D01*
X47224000Y-173562000D02*
X47224000Y-179532000D01*
%TO.C,J2*%
X20935000Y-173435000D02*
X20935000Y-179405000D01*
X20935000Y-179405000D02*
X33555000Y-179405000D01*
X33555000Y-179405000D02*
X33555000Y-173435000D01*
X33555000Y-173435000D02*
X20935000Y-173435000D01*
X24245000Y-173445000D02*
X24245000Y-174195000D01*
X24245000Y-174195000D02*
X30245000Y-174195000D01*
X30245000Y-174195000D02*
X30245000Y-173445000D01*
X30245000Y-173445000D02*
X24245000Y-173445000D01*
X20945000Y-173445000D02*
X20945000Y-174195000D01*
X20945000Y-174195000D02*
X22745000Y-174195000D01*
X22745000Y-174195000D02*
X22745000Y-173445000D01*
X22745000Y-173445000D02*
X20945000Y-173445000D01*
X31745000Y-173445000D02*
X31745000Y-174195000D01*
X31745000Y-174195000D02*
X33545000Y-174195000D01*
X33545000Y-174195000D02*
X33545000Y-173445000D01*
X33545000Y-173445000D02*
X31745000Y-173445000D01*
X20945000Y-175695000D02*
X21695000Y-175695000D01*
X21695000Y-175695000D02*
X21695000Y-178645000D01*
X21695000Y-178645000D02*
X27245000Y-178645000D01*
X33545000Y-175695000D02*
X32795000Y-175695000D01*
X32795000Y-175695000D02*
X32795000Y-178645000D01*
X32795000Y-178645000D02*
X27245000Y-178645000D01*
X21895000Y-173145000D02*
X20645000Y-173145000D01*
X20645000Y-173145000D02*
X20645000Y-174395000D01*
%TO.C,J3*%
X101707000Y-172165000D02*
X101707000Y-178135000D01*
X101707000Y-178135000D02*
X114327000Y-178135000D01*
X114327000Y-178135000D02*
X114327000Y-172165000D01*
X114327000Y-172165000D02*
X101707000Y-172165000D01*
X105017000Y-172175000D02*
X105017000Y-172925000D01*
X105017000Y-172925000D02*
X111017000Y-172925000D01*
X111017000Y-172925000D02*
X111017000Y-172175000D01*
X111017000Y-172175000D02*
X105017000Y-172175000D01*
X101717000Y-172175000D02*
X101717000Y-172925000D01*
X101717000Y-172925000D02*
X103517000Y-172925000D01*
X103517000Y-172925000D02*
X103517000Y-172175000D01*
X103517000Y-172175000D02*
X101717000Y-172175000D01*
X112517000Y-172175000D02*
X112517000Y-172925000D01*
X112517000Y-172925000D02*
X114317000Y-172925000D01*
X114317000Y-172925000D02*
X114317000Y-172175000D01*
X114317000Y-172175000D02*
X112517000Y-172175000D01*
X101717000Y-174425000D02*
X102467000Y-174425000D01*
X102467000Y-174425000D02*
X102467000Y-177375000D01*
X102467000Y-177375000D02*
X108017000Y-177375000D01*
X114317000Y-174425000D02*
X113567000Y-174425000D01*
X113567000Y-174425000D02*
X113567000Y-177375000D01*
X113567000Y-177375000D02*
X108017000Y-177375000D01*
X102667000Y-171875000D02*
X101417000Y-171875000D01*
X101417000Y-171875000D02*
X101417000Y-173125000D01*
%TO.C,J4*%
X25991000Y-126944000D02*
X24741000Y-126944000D01*
X25991000Y-128194000D02*
X25991000Y-126944000D01*
X20491000Y-139094000D02*
X20491000Y-133544000D01*
X23441000Y-139094000D02*
X20491000Y-139094000D01*
X23441000Y-139844000D02*
X23441000Y-139094000D01*
X20491000Y-127994000D02*
X20491000Y-133544000D01*
X23441000Y-127994000D02*
X20491000Y-127994000D01*
X23441000Y-127244000D02*
X23441000Y-127994000D01*
X25691000Y-139844000D02*
X25691000Y-138044000D01*
X24941000Y-139844000D02*
X25691000Y-139844000D01*
X24941000Y-138044000D02*
X24941000Y-139844000D01*
X25691000Y-138044000D02*
X24941000Y-138044000D01*
X25691000Y-129044000D02*
X25691000Y-127244000D01*
X24941000Y-129044000D02*
X25691000Y-129044000D01*
X24941000Y-127244000D02*
X24941000Y-129044000D01*
X25691000Y-127244000D02*
X24941000Y-127244000D01*
X25691000Y-136544000D02*
X25691000Y-130544000D01*
X24941000Y-136544000D02*
X25691000Y-136544000D01*
X24941000Y-130544000D02*
X24941000Y-136544000D01*
X25691000Y-130544000D02*
X24941000Y-130544000D01*
X25701000Y-139854000D02*
X25701000Y-127234000D01*
X19731000Y-139854000D02*
X25701000Y-139854000D01*
X19731000Y-127234000D02*
X19731000Y-139854000D01*
X25701000Y-127234000D02*
X19731000Y-127234000D01*
%TO.C,J5*%
X78049000Y-171113000D02*
X78049000Y-172363000D01*
X79299000Y-171113000D02*
X78049000Y-171113000D01*
X90199000Y-176613000D02*
X84649000Y-176613000D01*
X90199000Y-173663000D02*
X90199000Y-176613000D01*
X90949000Y-173663000D02*
X90199000Y-173663000D01*
X79099000Y-176613000D02*
X84649000Y-176613000D01*
X79099000Y-173663000D02*
X79099000Y-176613000D01*
X78349000Y-173663000D02*
X79099000Y-173663000D01*
X90949000Y-171413000D02*
X89149000Y-171413000D01*
X90949000Y-172163000D02*
X90949000Y-171413000D01*
X89149000Y-172163000D02*
X90949000Y-172163000D01*
X89149000Y-171413000D02*
X89149000Y-172163000D01*
X80149000Y-171413000D02*
X78349000Y-171413000D01*
X80149000Y-172163000D02*
X80149000Y-171413000D01*
X78349000Y-172163000D02*
X80149000Y-172163000D01*
X78349000Y-171413000D02*
X78349000Y-172163000D01*
X87649000Y-171413000D02*
X81649000Y-171413000D01*
X87649000Y-172163000D02*
X87649000Y-171413000D01*
X81649000Y-172163000D02*
X87649000Y-172163000D01*
X81649000Y-171413000D02*
X81649000Y-172163000D01*
X90959000Y-171403000D02*
X78339000Y-171403000D01*
X90959000Y-177373000D02*
X90959000Y-171403000D01*
X78339000Y-177373000D02*
X90959000Y-177373000D01*
X78339000Y-171403000D02*
X78339000Y-177373000D01*
%TO.C,R1*%
X59817000Y-168625000D02*
X59817000Y-168005000D01*
X60737000Y-169545000D02*
G75*
G03*
X60737000Y-169545000I-920000J0D01*
G01*
%TO.C,R2*%
X50292000Y-168052000D02*
X50292000Y-168672000D01*
X51212000Y-167132000D02*
G75*
G03*
X51212000Y-167132000I-920000J0D01*
G01*
%TO.C,R3*%
X33940000Y-166878000D02*
G75*
G03*
X33940000Y-166878000I-920000J0D01*
G01*
X33020000Y-167798000D02*
X33020000Y-168418000D01*
%TO.C,R4*%
X104871000Y-169291000D02*
X104251000Y-169291000D01*
X106711000Y-169291000D02*
G75*
G03*
X106711000Y-169291000I-920000J0D01*
G01*
%TO.C,R5*%
X113315000Y-169291000D02*
G75*
G03*
X113315000Y-169291000I-920000J0D01*
G01*
X111475000Y-169291000D02*
X110855000Y-169291000D01*
%TO.C,R6*%
X28575000Y-130398000D02*
X28575000Y-129778000D01*
X29495000Y-131318000D02*
G75*
G03*
X29495000Y-131318000I-920000J0D01*
G01*
%TO.C,R7*%
X28575000Y-137002000D02*
X28575000Y-136382000D01*
X29495000Y-137922000D02*
G75*
G03*
X29495000Y-137922000I-920000J0D01*
G01*
%TO.C,R8*%
X57181000Y-169418000D02*
G75*
G03*
X57181000Y-169418000I-920000J0D01*
G01*
X56261000Y-168498000D02*
X56261000Y-167878000D01*
%TO.C,R9*%
X29591000Y-168371000D02*
X29591000Y-167751000D01*
X30511000Y-169291000D02*
G75*
G03*
X30511000Y-169291000I-920000J0D01*
G01*
%TO.C,R10*%
X21494000Y-169291000D02*
G75*
G03*
X21494000Y-169291000I-920000J0D01*
G01*
X20574000Y-168371000D02*
X20574000Y-167751000D01*
%TO.C,R11*%
X24796000Y-169291000D02*
G75*
G03*
X24796000Y-169291000I-920000J0D01*
G01*
X23876000Y-168371000D02*
X23876000Y-167751000D01*
%TO.C,R12*%
X47656000Y-169418000D02*
G75*
G03*
X47656000Y-169418000I-920000J0D01*
G01*
X46736000Y-168498000D02*
X46736000Y-167878000D01*
%TO.C,R13*%
X38227000Y-119030000D02*
X38227000Y-119650000D01*
X39147000Y-118110000D02*
G75*
G03*
X39147000Y-118110000I-920000J0D01*
G01*
%TO.C,R14*%
X33178000Y-118110000D02*
G75*
G03*
X33178000Y-118110000I-920000J0D01*
G01*
X32258000Y-119030000D02*
X32258000Y-119650000D01*
%TO.C,R15*%
X26670000Y-119157000D02*
X26670000Y-119777000D01*
X27590000Y-118237000D02*
G75*
G03*
X27590000Y-118237000I-920000J0D01*
G01*
%TO.C,R16*%
X21748000Y-118237000D02*
G75*
G03*
X21748000Y-118237000I-920000J0D01*
G01*
X20828000Y-119157000D02*
X20828000Y-119777000D01*
%TO.C,R17*%
X85217000Y-166085000D02*
X85217000Y-165465000D01*
X86137000Y-167005000D02*
G75*
G03*
X86137000Y-167005000I-920000J0D01*
G01*
%TO.C,R18*%
X103409000Y-146685000D02*
X104029000Y-146685000D01*
X103409000Y-146685000D02*
G75*
G03*
X103409000Y-146685000I-920000J0D01*
G01*
%TO.C,R19*%
X82327000Y-167005000D02*
G75*
G03*
X82327000Y-167005000I-920000J0D01*
G01*
X81407000Y-166085000D02*
X81407000Y-165465000D01*
%TO.C,R20*%
X79121000Y-131287000D02*
X79121000Y-130667000D01*
X80041000Y-132207000D02*
G75*
G03*
X80041000Y-132207000I-920000J0D01*
G01*
%TO.C,R21*%
X49942000Y-136017000D02*
G75*
G03*
X49942000Y-136017000I-920000J0D01*
G01*
X49942000Y-136017000D02*
X50562000Y-136017000D01*
%TO.C,R22*%
X61245000Y-118110000D02*
G75*
G03*
X61245000Y-118110000I-920000J0D01*
G01*
X60325000Y-119030000D02*
X60325000Y-119650000D01*
%TO.C,R23*%
X54737000Y-119030000D02*
X54737000Y-119650000D01*
X55657000Y-118110000D02*
G75*
G03*
X55657000Y-118110000I-920000J0D01*
G01*
%TO.C,R24*%
X50196000Y-118110000D02*
G75*
G03*
X50196000Y-118110000I-920000J0D01*
G01*
X49276000Y-119030000D02*
X49276000Y-119650000D01*
%TO.C,R25*%
X43688000Y-119030000D02*
X43688000Y-119650000D01*
X44608000Y-118110000D02*
G75*
G03*
X44608000Y-118110000I-920000J0D01*
G01*
%TO.C,RV1*%
X87856000Y-159775000D02*
X87856000Y-155838000D01*
X87856000Y-151471000D02*
X87856000Y-147535000D01*
X97897000Y-159775000D02*
X97897000Y-155838000D01*
X97897000Y-151471000D02*
X97897000Y-147535000D01*
X87856000Y-159775000D02*
X89506000Y-159775000D01*
X91248000Y-159775000D02*
X92007000Y-159775000D01*
X93748000Y-159775000D02*
X94507000Y-159775000D01*
X96247000Y-159775000D02*
X97897000Y-159775000D01*
X87856000Y-147535000D02*
X97897000Y-147535000D01*
%TO.C,RV2*%
X72616000Y-147535000D02*
X82657000Y-147535000D01*
X81007000Y-159775000D02*
X82657000Y-159775000D01*
X78508000Y-159775000D02*
X79267000Y-159775000D01*
X76008000Y-159775000D02*
X76767000Y-159775000D01*
X72616000Y-159775000D02*
X74266000Y-159775000D01*
X82657000Y-151471000D02*
X82657000Y-147535000D01*
X82657000Y-159775000D02*
X82657000Y-155838000D01*
X72616000Y-151471000D02*
X72616000Y-147535000D01*
X72616000Y-159775000D02*
X72616000Y-155838000D01*
%TO.C,SW1*%
X61380000Y-154448000D02*
X61380000Y-149948000D01*
X57380000Y-155698000D02*
X58880000Y-155698000D01*
X54880000Y-149948000D02*
X54880000Y-154448000D01*
X58880000Y-148698000D02*
X57380000Y-148698000D01*
%TO.C,SW2*%
X49228000Y-148698000D02*
X47728000Y-148698000D01*
X45228000Y-149948000D02*
X45228000Y-154448000D01*
X47728000Y-155698000D02*
X49228000Y-155698000D01*
X51728000Y-154448000D02*
X51728000Y-149948000D01*
%TO.C,SW3*%
X32210000Y-148190000D02*
X30710000Y-148190000D01*
X28210000Y-149440000D02*
X28210000Y-153940000D01*
X30710000Y-155190000D02*
X32210000Y-155190000D01*
X34710000Y-153940000D02*
X34710000Y-149440000D01*
%TO.C,SW4*%
X25566000Y-153940000D02*
X25566000Y-149440000D01*
X21566000Y-155190000D02*
X23066000Y-155190000D01*
X19066000Y-149440000D02*
X19066000Y-153940000D01*
X23066000Y-148190000D02*
X21566000Y-148190000D01*
D11*
%TO.C,U1*%
X104089000Y-142685000D02*
X103789000Y-142835000D01*
X104089000Y-142385000D02*
X104089000Y-142685000D01*
X104089000Y-137985000D02*
X104089000Y-138285000D01*
X104089000Y-137985000D02*
X103789000Y-137835000D01*
D12*
X100939000Y-138385000D02*
G75*
G03*
X100889000Y-142235000I1900000J-1950000D01*
G01*
D11*
%TO.C,U2*%
X95199000Y-137985000D02*
X94899000Y-137835000D01*
X95199000Y-137985000D02*
X95199000Y-138285000D01*
X95199000Y-142385000D02*
X95199000Y-142685000D01*
X95199000Y-142685000D02*
X94899000Y-142835000D01*
D12*
X92049000Y-138385000D02*
G75*
G03*
X91999000Y-142235000I1900000J-1950000D01*
G01*
D10*
%TO.C,J16*%
X107359000Y-148265000D02*
X108609000Y-148265000D01*
X107359000Y-147015000D02*
X107359000Y-148265000D01*
X112859000Y-136115000D02*
X112859000Y-141665000D01*
X109909000Y-136115000D02*
X112859000Y-136115000D01*
X109909000Y-135365000D02*
X109909000Y-136115000D01*
X112859000Y-147215000D02*
X112859000Y-141665000D01*
X109909000Y-147215000D02*
X112859000Y-147215000D01*
X109909000Y-147965000D02*
X109909000Y-147215000D01*
X107659000Y-135365000D02*
X107659000Y-137165000D01*
X108409000Y-135365000D02*
X107659000Y-135365000D01*
X108409000Y-137165000D02*
X108409000Y-135365000D01*
X107659000Y-137165000D02*
X108409000Y-137165000D01*
X107659000Y-146165000D02*
X107659000Y-147965000D01*
X108409000Y-146165000D02*
X107659000Y-146165000D01*
X108409000Y-147965000D02*
X108409000Y-146165000D01*
X107659000Y-147965000D02*
X108409000Y-147965000D01*
X107659000Y-138665000D02*
X107659000Y-144665000D01*
X108409000Y-138665000D02*
X107659000Y-138665000D01*
X108409000Y-144665000D02*
X108409000Y-138665000D01*
X107659000Y-144665000D02*
X108409000Y-144665000D01*
X107649000Y-135355000D02*
X107649000Y-147975000D01*
X113619000Y-135355000D02*
X107649000Y-135355000D01*
X113619000Y-147975000D02*
X113619000Y-135355000D01*
X107649000Y-147975000D02*
X113619000Y-147975000D01*
%TO.C,R26*%
X89947000Y-167005000D02*
G75*
G03*
X89947000Y-167005000I-920000J0D01*
G01*
X89027000Y-166085000D02*
X89027000Y-165465000D01*
%TO.C,D19*%
X93576000Y-94624000D02*
X93576000Y-100194000D01*
X93816000Y-94624000D02*
X93816000Y-100194000D01*
X93696000Y-94624000D02*
X93696000Y-100194000D01*
X103208000Y-97409000D02*
X101908000Y-97409000D01*
X90848000Y-97409000D02*
X92148000Y-97409000D01*
X101908000Y-94624000D02*
X92148000Y-94624000D01*
X101908000Y-100194000D02*
X101908000Y-94624000D01*
X92148000Y-100194000D02*
X101908000Y-100194000D01*
X92148000Y-94624000D02*
X92148000Y-100194000D01*
%TO.C,D20*%
X71193000Y-94624000D02*
X71193000Y-100194000D01*
X71193000Y-100194000D02*
X80953000Y-100194000D01*
X80953000Y-100194000D02*
X80953000Y-94624000D01*
X80953000Y-94624000D02*
X71193000Y-94624000D01*
X69893000Y-97409000D02*
X71193000Y-97409000D01*
X82253000Y-97409000D02*
X80953000Y-97409000D01*
X72741000Y-94624000D02*
X72741000Y-100194000D01*
X72861000Y-94624000D02*
X72861000Y-100194000D01*
X72621000Y-94624000D02*
X72621000Y-100194000D01*
%TO.C,D21*%
X95695000Y-132243000D02*
X95851000Y-132243000D01*
X93379000Y-132243000D02*
X93535000Y-132243000D01*
X93536392Y-129010665D02*
G75*
G03*
X93379484Y-132243000I1078608J-1672335D01*
G01*
X95693608Y-129010665D02*
G75*
G02*
X95850516Y-132243000I-1078608J-1672335D01*
G01*
X93535163Y-129641870D02*
G75*
G03*
X93535000Y-131723961I1079837J-1041130D01*
G01*
X95694837Y-129641870D02*
G75*
G02*
X95695000Y-131723961I-1079837J-1041130D01*
G01*
%TO.C,D22*%
X73469837Y-129768870D02*
G75*
G02*
X73470000Y-131850961I-1079837J-1041130D01*
G01*
X71310163Y-129768870D02*
G75*
G03*
X71310000Y-131850961I1079837J-1041130D01*
G01*
X73468608Y-129137665D02*
G75*
G02*
X73625516Y-132370000I-1078608J-1672335D01*
G01*
X71311392Y-129137665D02*
G75*
G03*
X71154484Y-132370000I1078608J-1672335D01*
G01*
X71154000Y-132370000D02*
X71310000Y-132370000D01*
X73470000Y-132370000D02*
X73626000Y-132370000D01*
%TO.C,J7*%
X37267000Y-91523000D02*
X37267000Y-90273000D01*
X36017000Y-91523000D02*
X37267000Y-91523000D01*
X25117000Y-86023000D02*
X30667000Y-86023000D01*
X25117000Y-88973000D02*
X25117000Y-86023000D01*
X24367000Y-88973000D02*
X25117000Y-88973000D01*
X36217000Y-86023000D02*
X30667000Y-86023000D01*
X36217000Y-88973000D02*
X36217000Y-86023000D01*
X36967000Y-88973000D02*
X36217000Y-88973000D01*
X24367000Y-91223000D02*
X26167000Y-91223000D01*
X24367000Y-90473000D02*
X24367000Y-91223000D01*
X26167000Y-90473000D02*
X24367000Y-90473000D01*
X26167000Y-91223000D02*
X26167000Y-90473000D01*
X35167000Y-91223000D02*
X36967000Y-91223000D01*
X35167000Y-90473000D02*
X35167000Y-91223000D01*
X36967000Y-90473000D02*
X35167000Y-90473000D01*
X36967000Y-91223000D02*
X36967000Y-90473000D01*
X27667000Y-91223000D02*
X33667000Y-91223000D01*
X27667000Y-90473000D02*
X27667000Y-91223000D01*
X33667000Y-90473000D02*
X27667000Y-90473000D01*
X33667000Y-91223000D02*
X33667000Y-90473000D01*
X24357000Y-91233000D02*
X36977000Y-91233000D01*
X24357000Y-85263000D02*
X24357000Y-91233000D01*
X36977000Y-85263000D02*
X24357000Y-85263000D01*
X36977000Y-91233000D02*
X36977000Y-85263000D01*
%TO.C,J9*%
X92639000Y-91650000D02*
X92639000Y-90400000D01*
X91389000Y-91650000D02*
X92639000Y-91650000D01*
X80489000Y-86150000D02*
X86039000Y-86150000D01*
X80489000Y-89100000D02*
X80489000Y-86150000D01*
X79739000Y-89100000D02*
X80489000Y-89100000D01*
X91589000Y-86150000D02*
X86039000Y-86150000D01*
X91589000Y-89100000D02*
X91589000Y-86150000D01*
X92339000Y-89100000D02*
X91589000Y-89100000D01*
X79739000Y-91350000D02*
X81539000Y-91350000D01*
X79739000Y-90600000D02*
X79739000Y-91350000D01*
X81539000Y-90600000D02*
X79739000Y-90600000D01*
X81539000Y-91350000D02*
X81539000Y-90600000D01*
X90539000Y-91350000D02*
X92339000Y-91350000D01*
X90539000Y-90600000D02*
X90539000Y-91350000D01*
X92339000Y-90600000D02*
X90539000Y-90600000D01*
X92339000Y-91350000D02*
X92339000Y-90600000D01*
X83039000Y-91350000D02*
X89039000Y-91350000D01*
X83039000Y-90600000D02*
X83039000Y-91350000D01*
X89039000Y-90600000D02*
X83039000Y-90600000D01*
X89039000Y-91350000D02*
X89039000Y-90600000D01*
X79729000Y-91360000D02*
X92349000Y-91360000D01*
X79729000Y-85390000D02*
X79729000Y-91360000D01*
X92349000Y-85390000D02*
X79729000Y-85390000D01*
X92349000Y-91360000D02*
X92349000Y-85390000D01*
%TO.C,R27*%
X50069000Y-131699000D02*
X50689000Y-131699000D01*
X50069000Y-131699000D02*
G75*
G03*
X50069000Y-131699000I-920000J0D01*
G01*
%TO.C,R28*%
X101885000Y-131953000D02*
G75*
G03*
X101885000Y-131953000I-920000J0D01*
G01*
X100965000Y-131033000D02*
X100965000Y-130413000D01*
D11*
%TO.C,RLY1*%
X105530000Y-125993000D02*
X104905000Y-125993000D01*
X105530000Y-125168000D02*
X105530000Y-125993000D01*
X88780000Y-125993000D02*
X88780000Y-125143000D01*
X89480000Y-125993000D02*
X88780000Y-125993000D01*
X88780000Y-103243000D02*
X89555000Y-103243000D01*
X88780000Y-104368000D02*
X88780000Y-103243000D01*
X104955000Y-103243000D02*
X103580000Y-103243000D01*
X105530000Y-103843000D02*
X104955000Y-103243000D01*
X105530000Y-104068000D02*
X105530000Y-103843000D01*
%TO.C,RLY2*%
X84448000Y-104068000D02*
X84448000Y-103843000D01*
X84448000Y-103843000D02*
X83873000Y-103243000D01*
X83873000Y-103243000D02*
X82498000Y-103243000D01*
X67698000Y-104368000D02*
X67698000Y-103243000D01*
X67698000Y-103243000D02*
X68473000Y-103243000D01*
X68398000Y-125993000D02*
X67698000Y-125993000D01*
X67698000Y-125993000D02*
X67698000Y-125143000D01*
X84448000Y-125168000D02*
X84448000Y-125993000D01*
X84448000Y-125993000D02*
X83823000Y-125993000D01*
D10*
%TO.C,U3*%
X26610000Y-98588000D02*
X26610000Y-99838000D01*
X52130000Y-98588000D02*
X26610000Y-98588000D01*
X52130000Y-103088000D02*
X52130000Y-98588000D01*
X26610000Y-103088000D02*
X52130000Y-103088000D01*
X26610000Y-101838000D02*
X26610000Y-103088000D01*
X26610000Y-99838000D02*
G75*
G02*
X26610000Y-101838000I0J-1000000D01*
G01*
%TO.C,J6*%
X54527000Y-140645000D02*
X55777000Y-140645000D01*
X54527000Y-139395000D02*
X54527000Y-140645000D01*
X60027000Y-128495000D02*
X60027000Y-134045000D01*
X57077000Y-128495000D02*
X60027000Y-128495000D01*
X57077000Y-127745000D02*
X57077000Y-128495000D01*
X60027000Y-139595000D02*
X60027000Y-134045000D01*
X57077000Y-139595000D02*
X60027000Y-139595000D01*
X57077000Y-140345000D02*
X57077000Y-139595000D01*
X54827000Y-127745000D02*
X54827000Y-129545000D01*
X55577000Y-127745000D02*
X54827000Y-127745000D01*
X55577000Y-129545000D02*
X55577000Y-127745000D01*
X54827000Y-129545000D02*
X55577000Y-129545000D01*
X54827000Y-138545000D02*
X54827000Y-140345000D01*
X55577000Y-138545000D02*
X54827000Y-138545000D01*
X55577000Y-140345000D02*
X55577000Y-138545000D01*
X54827000Y-140345000D02*
X55577000Y-140345000D01*
X54827000Y-131045000D02*
X54827000Y-137045000D01*
X55577000Y-131045000D02*
X54827000Y-131045000D01*
X55577000Y-137045000D02*
X55577000Y-131045000D01*
X54827000Y-137045000D02*
X55577000Y-137045000D01*
X54817000Y-127735000D02*
X54817000Y-140355000D01*
X60787000Y-127735000D02*
X54817000Y-127735000D01*
X60787000Y-140355000D02*
X60787000Y-127735000D01*
X54817000Y-140355000D02*
X60787000Y-140355000D01*
%TO.C,J8*%
D12*
X46462666Y-91775380D02*
X46462666Y-92489666D01*
X46415047Y-92632523D01*
X46319809Y-92727761D01*
X46176952Y-92775380D01*
X46081714Y-92775380D01*
X47081714Y-92203952D02*
X46986476Y-92156333D01*
X46938857Y-92108714D01*
X46891238Y-92013476D01*
X46891238Y-91965857D01*
X46938857Y-91870619D01*
X46986476Y-91823000D01*
X47081714Y-91775380D01*
X47272190Y-91775380D01*
X47367428Y-91823000D01*
X47415047Y-91870619D01*
X47462666Y-91965857D01*
X47462666Y-92013476D01*
X47415047Y-92108714D01*
X47367428Y-92156333D01*
X47272190Y-92203952D01*
X47081714Y-92203952D01*
X46986476Y-92251571D01*
X46938857Y-92299190D01*
X46891238Y-92394428D01*
X46891238Y-92584904D01*
X46938857Y-92680142D01*
X46986476Y-92727761D01*
X47081714Y-92775380D01*
X47272190Y-92775380D01*
X47367428Y-92727761D01*
X47415047Y-92680142D01*
X47462666Y-92584904D01*
X47462666Y-92394428D01*
X47415047Y-92299190D01*
X47367428Y-92251571D01*
X47272190Y-92203952D01*
%TO.C,D1*%
X55658380Y-162028095D02*
X54658380Y-162028095D01*
X54658380Y-161790000D01*
X54706000Y-161647142D01*
X54801238Y-161551904D01*
X54896476Y-161504285D01*
X55086952Y-161456666D01*
X55229809Y-161456666D01*
X55420285Y-161504285D01*
X55515523Y-161551904D01*
X55610761Y-161647142D01*
X55658380Y-161790000D01*
X55658380Y-162028095D01*
X55658380Y-160504285D02*
X55658380Y-161075714D01*
X55658380Y-160790000D02*
X54658380Y-160790000D01*
X54801238Y-160885238D01*
X54896476Y-160980476D01*
X54944095Y-161075714D01*
%TO.C,D2*%
X46133380Y-162155095D02*
X45133380Y-162155095D01*
X45133380Y-161917000D01*
X45181000Y-161774142D01*
X45276238Y-161678904D01*
X45371476Y-161631285D01*
X45561952Y-161583666D01*
X45704809Y-161583666D01*
X45895285Y-161631285D01*
X45990523Y-161678904D01*
X46085761Y-161774142D01*
X46133380Y-161917000D01*
X46133380Y-162155095D01*
X45228619Y-161202714D02*
X45181000Y-161155095D01*
X45133380Y-161059857D01*
X45133380Y-160821761D01*
X45181000Y-160726523D01*
X45228619Y-160678904D01*
X45323857Y-160631285D01*
X45419095Y-160631285D01*
X45561952Y-160678904D01*
X46133380Y-161250333D01*
X46133380Y-160631285D01*
%TO.C,D3*%
X28988380Y-161520095D02*
X27988380Y-161520095D01*
X27988380Y-161282000D01*
X28036000Y-161139142D01*
X28131238Y-161043904D01*
X28226476Y-160996285D01*
X28416952Y-160948666D01*
X28559809Y-160948666D01*
X28750285Y-160996285D01*
X28845523Y-161043904D01*
X28940761Y-161139142D01*
X28988380Y-161282000D01*
X28988380Y-161520095D01*
X27988380Y-160615333D02*
X27988380Y-159996285D01*
X28369333Y-160329619D01*
X28369333Y-160186761D01*
X28416952Y-160091523D01*
X28464571Y-160043904D01*
X28559809Y-159996285D01*
X28797904Y-159996285D01*
X28893142Y-160043904D01*
X28940761Y-160091523D01*
X28988380Y-160186761D01*
X28988380Y-160472476D01*
X28940761Y-160567714D01*
X28893142Y-160615333D01*
%TO.C,D4*%
X103782904Y-166607380D02*
X103782904Y-165607380D01*
X104021000Y-165607380D01*
X104163857Y-165655000D01*
X104259095Y-165750238D01*
X104306714Y-165845476D01*
X104354333Y-166035952D01*
X104354333Y-166178809D01*
X104306714Y-166369285D01*
X104259095Y-166464523D01*
X104163857Y-166559761D01*
X104021000Y-166607380D01*
X103782904Y-166607380D01*
X105211476Y-165940714D02*
X105211476Y-166607380D01*
X104973380Y-165559761D02*
X104735285Y-166274047D01*
X105354333Y-166274047D01*
%TO.C,D5*%
X110640904Y-166607380D02*
X110640904Y-165607380D01*
X110879000Y-165607380D01*
X111021857Y-165655000D01*
X111117095Y-165750238D01*
X111164714Y-165845476D01*
X111212333Y-166035952D01*
X111212333Y-166178809D01*
X111164714Y-166369285D01*
X111117095Y-166464523D01*
X111021857Y-166559761D01*
X110879000Y-166607380D01*
X110640904Y-166607380D01*
X112117095Y-165607380D02*
X111640904Y-165607380D01*
X111593285Y-166083571D01*
X111640904Y-166035952D01*
X111736142Y-165988333D01*
X111974238Y-165988333D01*
X112069476Y-166035952D01*
X112117095Y-166083571D01*
X112164714Y-166178809D01*
X112164714Y-166416904D01*
X112117095Y-166512142D01*
X112069476Y-166559761D01*
X111974238Y-166607380D01*
X111736142Y-166607380D01*
X111640904Y-166559761D01*
X111593285Y-166512142D01*
%TO.C,D6*%
X32163380Y-130786095D02*
X31163380Y-130786095D01*
X31163380Y-130548000D01*
X31211000Y-130405142D01*
X31306238Y-130309904D01*
X31401476Y-130262285D01*
X31591952Y-130214666D01*
X31734809Y-130214666D01*
X31925285Y-130262285D01*
X32020523Y-130309904D01*
X32115761Y-130405142D01*
X32163380Y-130548000D01*
X32163380Y-130786095D01*
X31163380Y-129357523D02*
X31163380Y-129548000D01*
X31211000Y-129643238D01*
X31258619Y-129690857D01*
X31401476Y-129786095D01*
X31591952Y-129833714D01*
X31972904Y-129833714D01*
X32068142Y-129786095D01*
X32115761Y-129738476D01*
X32163380Y-129643238D01*
X32163380Y-129452761D01*
X32115761Y-129357523D01*
X32068142Y-129309904D01*
X31972904Y-129262285D01*
X31734809Y-129262285D01*
X31639571Y-129309904D01*
X31591952Y-129357523D01*
X31544333Y-129452761D01*
X31544333Y-129643238D01*
X31591952Y-129738476D01*
X31639571Y-129786095D01*
X31734809Y-129833714D01*
%TO.C,D7*%
X32163380Y-137644095D02*
X31163380Y-137644095D01*
X31163380Y-137406000D01*
X31211000Y-137263142D01*
X31306238Y-137167904D01*
X31401476Y-137120285D01*
X31591952Y-137072666D01*
X31734809Y-137072666D01*
X31925285Y-137120285D01*
X32020523Y-137167904D01*
X32115761Y-137263142D01*
X32163380Y-137406000D01*
X32163380Y-137644095D01*
X31163380Y-136739333D02*
X31163380Y-136072666D01*
X32163380Y-136501238D01*
%TO.C,D8*%
X19844380Y-161520095D02*
X18844380Y-161520095D01*
X18844380Y-161282000D01*
X18892000Y-161139142D01*
X18987238Y-161043904D01*
X19082476Y-160996285D01*
X19272952Y-160948666D01*
X19415809Y-160948666D01*
X19606285Y-160996285D01*
X19701523Y-161043904D01*
X19796761Y-161139142D01*
X19844380Y-161282000D01*
X19844380Y-161520095D01*
X19272952Y-160377238D02*
X19225333Y-160472476D01*
X19177714Y-160520095D01*
X19082476Y-160567714D01*
X19034857Y-160567714D01*
X18939619Y-160520095D01*
X18892000Y-160472476D01*
X18844380Y-160377238D01*
X18844380Y-160186761D01*
X18892000Y-160091523D01*
X18939619Y-160043904D01*
X19034857Y-159996285D01*
X19082476Y-159996285D01*
X19177714Y-160043904D01*
X19225333Y-160091523D01*
X19272952Y-160186761D01*
X19272952Y-160377238D01*
X19320571Y-160472476D01*
X19368190Y-160520095D01*
X19463428Y-160567714D01*
X19653904Y-160567714D01*
X19749142Y-160520095D01*
X19796761Y-160472476D01*
X19844380Y-160377238D01*
X19844380Y-160186761D01*
X19796761Y-160091523D01*
X19749142Y-160043904D01*
X19653904Y-159996285D01*
X19463428Y-159996285D01*
X19368190Y-160043904D01*
X19320571Y-160091523D01*
X19272952Y-160186761D01*
%TO.C,D9*%
X37361904Y-116696380D02*
X37361904Y-115696380D01*
X37600000Y-115696380D01*
X37742857Y-115744000D01*
X37838095Y-115839238D01*
X37885714Y-115934476D01*
X37933333Y-116124952D01*
X37933333Y-116267809D01*
X37885714Y-116458285D01*
X37838095Y-116553523D01*
X37742857Y-116648761D01*
X37600000Y-116696380D01*
X37361904Y-116696380D01*
X38409523Y-116696380D02*
X38600000Y-116696380D01*
X38695238Y-116648761D01*
X38742857Y-116601142D01*
X38838095Y-116458285D01*
X38885714Y-116267809D01*
X38885714Y-115886857D01*
X38838095Y-115791619D01*
X38790476Y-115744000D01*
X38695238Y-115696380D01*
X38504761Y-115696380D01*
X38409523Y-115744000D01*
X38361904Y-115791619D01*
X38314285Y-115886857D01*
X38314285Y-116124952D01*
X38361904Y-116220190D01*
X38409523Y-116267809D01*
X38504761Y-116315428D01*
X38695238Y-116315428D01*
X38790476Y-116267809D01*
X38838095Y-116220190D01*
X38885714Y-116124952D01*
%TO.C,D10*%
X31043714Y-116696380D02*
X31043714Y-115696380D01*
X31281809Y-115696380D01*
X31424666Y-115744000D01*
X31519904Y-115839238D01*
X31567523Y-115934476D01*
X31615142Y-116124952D01*
X31615142Y-116267809D01*
X31567523Y-116458285D01*
X31519904Y-116553523D01*
X31424666Y-116648761D01*
X31281809Y-116696380D01*
X31043714Y-116696380D01*
X32567523Y-116696380D02*
X31996095Y-116696380D01*
X32281809Y-116696380D02*
X32281809Y-115696380D01*
X32186571Y-115839238D01*
X32091333Y-115934476D01*
X31996095Y-115982095D01*
X33186571Y-115696380D02*
X33281809Y-115696380D01*
X33377047Y-115744000D01*
X33424666Y-115791619D01*
X33472285Y-115886857D01*
X33519904Y-116077333D01*
X33519904Y-116315428D01*
X33472285Y-116505904D01*
X33424666Y-116601142D01*
X33377047Y-116648761D01*
X33281809Y-116696380D01*
X33186571Y-116696380D01*
X33091333Y-116648761D01*
X33043714Y-116601142D01*
X32996095Y-116505904D01*
X32948476Y-116315428D01*
X32948476Y-116077333D01*
X32996095Y-115886857D01*
X33043714Y-115791619D01*
X33091333Y-115744000D01*
X33186571Y-115696380D01*
%TO.C,D11*%
X25328714Y-116696380D02*
X25328714Y-115696380D01*
X25566809Y-115696380D01*
X25709666Y-115744000D01*
X25804904Y-115839238D01*
X25852523Y-115934476D01*
X25900142Y-116124952D01*
X25900142Y-116267809D01*
X25852523Y-116458285D01*
X25804904Y-116553523D01*
X25709666Y-116648761D01*
X25566809Y-116696380D01*
X25328714Y-116696380D01*
X26852523Y-116696380D02*
X26281095Y-116696380D01*
X26566809Y-116696380D02*
X26566809Y-115696380D01*
X26471571Y-115839238D01*
X26376333Y-115934476D01*
X26281095Y-115982095D01*
X27804904Y-116696380D02*
X27233476Y-116696380D01*
X27519190Y-116696380D02*
X27519190Y-115696380D01*
X27423952Y-115839238D01*
X27328714Y-115934476D01*
X27233476Y-115982095D01*
%TO.C,D12*%
X19613714Y-116823380D02*
X19613714Y-115823380D01*
X19851809Y-115823380D01*
X19994666Y-115871000D01*
X20089904Y-115966238D01*
X20137523Y-116061476D01*
X20185142Y-116251952D01*
X20185142Y-116394809D01*
X20137523Y-116585285D01*
X20089904Y-116680523D01*
X19994666Y-116775761D01*
X19851809Y-116823380D01*
X19613714Y-116823380D01*
X21137523Y-116823380D02*
X20566095Y-116823380D01*
X20851809Y-116823380D02*
X20851809Y-115823380D01*
X20756571Y-115966238D01*
X20661333Y-116061476D01*
X20566095Y-116109095D01*
X21518476Y-115918619D02*
X21566095Y-115871000D01*
X21661333Y-115823380D01*
X21899428Y-115823380D01*
X21994666Y-115871000D01*
X22042285Y-115918619D01*
X22089904Y-116013857D01*
X22089904Y-116109095D01*
X22042285Y-116251952D01*
X21470857Y-116823380D01*
X22089904Y-116823380D01*
%TO.C,D13*%
X47354380Y-137866285D02*
X46354380Y-137866285D01*
X46354380Y-137628190D01*
X46402000Y-137485333D01*
X46497238Y-137390095D01*
X46592476Y-137342476D01*
X46782952Y-137294857D01*
X46925809Y-137294857D01*
X47116285Y-137342476D01*
X47211523Y-137390095D01*
X47306761Y-137485333D01*
X47354380Y-137628190D01*
X47354380Y-137866285D01*
X47354380Y-136342476D02*
X47354380Y-136913904D01*
X47354380Y-136628190D02*
X46354380Y-136628190D01*
X46497238Y-136723428D01*
X46592476Y-136818666D01*
X46640095Y-136913904D01*
X46354380Y-136009142D02*
X46354380Y-135390095D01*
X46735333Y-135723428D01*
X46735333Y-135580571D01*
X46782952Y-135485333D01*
X46830571Y-135437714D01*
X46925809Y-135390095D01*
X47163904Y-135390095D01*
X47259142Y-135437714D01*
X47306761Y-135485333D01*
X47354380Y-135580571D01*
X47354380Y-135866285D01*
X47306761Y-135961523D01*
X47259142Y-136009142D01*
%TO.C,D14*%
X47354380Y-131516285D02*
X46354380Y-131516285D01*
X46354380Y-131278190D01*
X46402000Y-131135333D01*
X46497238Y-131040095D01*
X46592476Y-130992476D01*
X46782952Y-130944857D01*
X46925809Y-130944857D01*
X47116285Y-130992476D01*
X47211523Y-131040095D01*
X47306761Y-131135333D01*
X47354380Y-131278190D01*
X47354380Y-131516285D01*
X47354380Y-129992476D02*
X47354380Y-130563904D01*
X47354380Y-130278190D02*
X46354380Y-130278190D01*
X46497238Y-130373428D01*
X46592476Y-130468666D01*
X46640095Y-130563904D01*
X46687714Y-129135333D02*
X47354380Y-129135333D01*
X46306761Y-129373428D02*
X47021047Y-129611523D01*
X47021047Y-128992476D01*
%TO.C,D15*%
X59237714Y-116696380D02*
X59237714Y-115696380D01*
X59475809Y-115696380D01*
X59618666Y-115744000D01*
X59713904Y-115839238D01*
X59761523Y-115934476D01*
X59809142Y-116124952D01*
X59809142Y-116267809D01*
X59761523Y-116458285D01*
X59713904Y-116553523D01*
X59618666Y-116648761D01*
X59475809Y-116696380D01*
X59237714Y-116696380D01*
X60761523Y-116696380D02*
X60190095Y-116696380D01*
X60475809Y-116696380D02*
X60475809Y-115696380D01*
X60380571Y-115839238D01*
X60285333Y-115934476D01*
X60190095Y-115982095D01*
X61666285Y-115696380D02*
X61190095Y-115696380D01*
X61142476Y-116172571D01*
X61190095Y-116124952D01*
X61285333Y-116077333D01*
X61523428Y-116077333D01*
X61618666Y-116124952D01*
X61666285Y-116172571D01*
X61713904Y-116267809D01*
X61713904Y-116505904D01*
X61666285Y-116601142D01*
X61618666Y-116648761D01*
X61523428Y-116696380D01*
X61285333Y-116696380D01*
X61190095Y-116648761D01*
X61142476Y-116601142D01*
%TO.C,D16*%
X53649714Y-116696380D02*
X53649714Y-115696380D01*
X53887809Y-115696380D01*
X54030666Y-115744000D01*
X54125904Y-115839238D01*
X54173523Y-115934476D01*
X54221142Y-116124952D01*
X54221142Y-116267809D01*
X54173523Y-116458285D01*
X54125904Y-116553523D01*
X54030666Y-116648761D01*
X53887809Y-116696380D01*
X53649714Y-116696380D01*
X55173523Y-116696380D02*
X54602095Y-116696380D01*
X54887809Y-116696380D02*
X54887809Y-115696380D01*
X54792571Y-115839238D01*
X54697333Y-115934476D01*
X54602095Y-115982095D01*
X56030666Y-115696380D02*
X55840190Y-115696380D01*
X55744952Y-115744000D01*
X55697333Y-115791619D01*
X55602095Y-115934476D01*
X55554476Y-116124952D01*
X55554476Y-116505904D01*
X55602095Y-116601142D01*
X55649714Y-116648761D01*
X55744952Y-116696380D01*
X55935428Y-116696380D01*
X56030666Y-116648761D01*
X56078285Y-116601142D01*
X56125904Y-116505904D01*
X56125904Y-116267809D01*
X56078285Y-116172571D01*
X56030666Y-116124952D01*
X55935428Y-116077333D01*
X55744952Y-116077333D01*
X55649714Y-116124952D01*
X55602095Y-116172571D01*
X55554476Y-116267809D01*
%TO.C,D17*%
X48061714Y-116696380D02*
X48061714Y-115696380D01*
X48299809Y-115696380D01*
X48442666Y-115744000D01*
X48537904Y-115839238D01*
X48585523Y-115934476D01*
X48633142Y-116124952D01*
X48633142Y-116267809D01*
X48585523Y-116458285D01*
X48537904Y-116553523D01*
X48442666Y-116648761D01*
X48299809Y-116696380D01*
X48061714Y-116696380D01*
X49585523Y-116696380D02*
X49014095Y-116696380D01*
X49299809Y-116696380D02*
X49299809Y-115696380D01*
X49204571Y-115839238D01*
X49109333Y-115934476D01*
X49014095Y-115982095D01*
X49918857Y-115696380D02*
X50585523Y-115696380D01*
X50156952Y-116696380D01*
%TO.C,D18*%
X42600714Y-116696380D02*
X42600714Y-115696380D01*
X42838809Y-115696380D01*
X42981666Y-115744000D01*
X43076904Y-115839238D01*
X43124523Y-115934476D01*
X43172142Y-116124952D01*
X43172142Y-116267809D01*
X43124523Y-116458285D01*
X43076904Y-116553523D01*
X42981666Y-116648761D01*
X42838809Y-116696380D01*
X42600714Y-116696380D01*
X44124523Y-116696380D02*
X43553095Y-116696380D01*
X43838809Y-116696380D02*
X43838809Y-115696380D01*
X43743571Y-115839238D01*
X43648333Y-115934476D01*
X43553095Y-115982095D01*
X44695952Y-116124952D02*
X44600714Y-116077333D01*
X44553095Y-116029714D01*
X44505476Y-115934476D01*
X44505476Y-115886857D01*
X44553095Y-115791619D01*
X44600714Y-115744000D01*
X44695952Y-115696380D01*
X44886428Y-115696380D01*
X44981666Y-115744000D01*
X45029285Y-115791619D01*
X45076904Y-115886857D01*
X45076904Y-115934476D01*
X45029285Y-116029714D01*
X44981666Y-116077333D01*
X44886428Y-116124952D01*
X44695952Y-116124952D01*
X44600714Y-116172571D01*
X44553095Y-116220190D01*
X44505476Y-116315428D01*
X44505476Y-116505904D01*
X44553095Y-116601142D01*
X44600714Y-116648761D01*
X44695952Y-116696380D01*
X44886428Y-116696380D01*
X44981666Y-116648761D01*
X45029285Y-116601142D01*
X45076904Y-116505904D01*
X45076904Y-116315428D01*
X45029285Y-116220190D01*
X44981666Y-116172571D01*
X44886428Y-116124952D01*
%TO.C,J1*%
X53200666Y-171924380D02*
X53200666Y-172638666D01*
X53153047Y-172781523D01*
X53057809Y-172876761D01*
X52914952Y-172924380D01*
X52819714Y-172924380D01*
X54200666Y-172924380D02*
X53629238Y-172924380D01*
X53914952Y-172924380D02*
X53914952Y-171924380D01*
X53819714Y-172067238D01*
X53724476Y-172162476D01*
X53629238Y-172210095D01*
%TO.C,J2*%
X26911666Y-171797380D02*
X26911666Y-172511666D01*
X26864047Y-172654523D01*
X26768809Y-172749761D01*
X26625952Y-172797380D01*
X26530714Y-172797380D01*
X27340238Y-171892619D02*
X27387857Y-171845000D01*
X27483095Y-171797380D01*
X27721190Y-171797380D01*
X27816428Y-171845000D01*
X27864047Y-171892619D01*
X27911666Y-171987857D01*
X27911666Y-172083095D01*
X27864047Y-172225952D01*
X27292619Y-172797380D01*
X27911666Y-172797380D01*
%TO.C,J3*%
X107683666Y-170527380D02*
X107683666Y-171241666D01*
X107636047Y-171384523D01*
X107540809Y-171479761D01*
X107397952Y-171527380D01*
X107302714Y-171527380D01*
X108064619Y-170527380D02*
X108683666Y-170527380D01*
X108350333Y-170908333D01*
X108493190Y-170908333D01*
X108588428Y-170955952D01*
X108636047Y-171003571D01*
X108683666Y-171098809D01*
X108683666Y-171336904D01*
X108636047Y-171432142D01*
X108588428Y-171479761D01*
X108493190Y-171527380D01*
X108207476Y-171527380D01*
X108112238Y-171479761D01*
X108064619Y-171432142D01*
%TO.C,J4*%
X26243380Y-133877333D02*
X26957666Y-133877333D01*
X27100523Y-133924952D01*
X27195761Y-134020190D01*
X27243380Y-134163047D01*
X27243380Y-134258285D01*
X26576714Y-132972571D02*
X27243380Y-132972571D01*
X26195761Y-133210666D02*
X26910047Y-133448761D01*
X26910047Y-132829714D01*
%TO.C,J5*%
X84315666Y-169765380D02*
X84315666Y-170479666D01*
X84268047Y-170622523D01*
X84172809Y-170717761D01*
X84029952Y-170765380D01*
X83934714Y-170765380D01*
X85268047Y-169765380D02*
X84791857Y-169765380D01*
X84744238Y-170241571D01*
X84791857Y-170193952D01*
X84887095Y-170146333D01*
X85125190Y-170146333D01*
X85220428Y-170193952D01*
X85268047Y-170241571D01*
X85315666Y-170336809D01*
X85315666Y-170574904D01*
X85268047Y-170670142D01*
X85220428Y-170717761D01*
X85125190Y-170765380D01*
X84887095Y-170765380D01*
X84791857Y-170717761D01*
X84744238Y-170670142D01*
%TO.C,R1*%
X58349380Y-168441666D02*
X57873190Y-168775000D01*
X58349380Y-169013095D02*
X57349380Y-169013095D01*
X57349380Y-168632142D01*
X57397000Y-168536904D01*
X57444619Y-168489285D01*
X57539857Y-168441666D01*
X57682714Y-168441666D01*
X57777952Y-168489285D01*
X57825571Y-168536904D01*
X57873190Y-168632142D01*
X57873190Y-169013095D01*
X58349380Y-167489285D02*
X58349380Y-168060714D01*
X58349380Y-167775000D02*
X57349380Y-167775000D01*
X57492238Y-167870238D01*
X57587476Y-167965476D01*
X57635095Y-168060714D01*
%TO.C,R2*%
X52664380Y-168568666D02*
X52188190Y-168902000D01*
X52664380Y-169140095D02*
X51664380Y-169140095D01*
X51664380Y-168759142D01*
X51712000Y-168663904D01*
X51759619Y-168616285D01*
X51854857Y-168568666D01*
X51997714Y-168568666D01*
X52092952Y-168616285D01*
X52140571Y-168663904D01*
X52188190Y-168759142D01*
X52188190Y-169140095D01*
X51759619Y-168187714D02*
X51712000Y-168140095D01*
X51664380Y-168044857D01*
X51664380Y-167806761D01*
X51712000Y-167711523D01*
X51759619Y-167663904D01*
X51854857Y-167616285D01*
X51950095Y-167616285D01*
X52092952Y-167663904D01*
X52664380Y-168235333D01*
X52664380Y-167616285D01*
%TO.C,R3*%
X35392380Y-168314666D02*
X34916190Y-168648000D01*
X35392380Y-168886095D02*
X34392380Y-168886095D01*
X34392380Y-168505142D01*
X34440000Y-168409904D01*
X34487619Y-168362285D01*
X34582857Y-168314666D01*
X34725714Y-168314666D01*
X34820952Y-168362285D01*
X34868571Y-168409904D01*
X34916190Y-168505142D01*
X34916190Y-168886095D01*
X34392380Y-167981333D02*
X34392380Y-167362285D01*
X34773333Y-167695619D01*
X34773333Y-167552761D01*
X34820952Y-167457523D01*
X34868571Y-167409904D01*
X34963809Y-167362285D01*
X35201904Y-167362285D01*
X35297142Y-167409904D01*
X35344761Y-167457523D01*
X35392380Y-167552761D01*
X35392380Y-167838476D01*
X35344761Y-167933714D01*
X35297142Y-167981333D01*
%TO.C,R4*%
X104354333Y-171663380D02*
X104021000Y-171187190D01*
X103782904Y-171663380D02*
X103782904Y-170663380D01*
X104163857Y-170663380D01*
X104259095Y-170711000D01*
X104306714Y-170758619D01*
X104354333Y-170853857D01*
X104354333Y-170996714D01*
X104306714Y-171091952D01*
X104259095Y-171139571D01*
X104163857Y-171187190D01*
X103782904Y-171187190D01*
X105211476Y-170996714D02*
X105211476Y-171663380D01*
X104973380Y-170615761D02*
X104735285Y-171330047D01*
X105354333Y-171330047D01*
%TO.C,R5*%
X110958333Y-171663380D02*
X110625000Y-171187190D01*
X110386904Y-171663380D02*
X110386904Y-170663380D01*
X110767857Y-170663380D01*
X110863095Y-170711000D01*
X110910714Y-170758619D01*
X110958333Y-170853857D01*
X110958333Y-170996714D01*
X110910714Y-171091952D01*
X110863095Y-171139571D01*
X110767857Y-171187190D01*
X110386904Y-171187190D01*
X111863095Y-170663380D02*
X111386904Y-170663380D01*
X111339285Y-171139571D01*
X111386904Y-171091952D01*
X111482142Y-171044333D01*
X111720238Y-171044333D01*
X111815476Y-171091952D01*
X111863095Y-171139571D01*
X111910714Y-171234809D01*
X111910714Y-171472904D01*
X111863095Y-171568142D01*
X111815476Y-171615761D01*
X111720238Y-171663380D01*
X111482142Y-171663380D01*
X111386904Y-171615761D01*
X111339285Y-171568142D01*
%TO.C,R6*%
X27107380Y-130214666D02*
X26631190Y-130548000D01*
X27107380Y-130786095D02*
X26107380Y-130786095D01*
X26107380Y-130405142D01*
X26155000Y-130309904D01*
X26202619Y-130262285D01*
X26297857Y-130214666D01*
X26440714Y-130214666D01*
X26535952Y-130262285D01*
X26583571Y-130309904D01*
X26631190Y-130405142D01*
X26631190Y-130786095D01*
X26107380Y-129357523D02*
X26107380Y-129548000D01*
X26155000Y-129643238D01*
X26202619Y-129690857D01*
X26345476Y-129786095D01*
X26535952Y-129833714D01*
X26916904Y-129833714D01*
X27012142Y-129786095D01*
X27059761Y-129738476D01*
X27107380Y-129643238D01*
X27107380Y-129452761D01*
X27059761Y-129357523D01*
X27012142Y-129309904D01*
X26916904Y-129262285D01*
X26678809Y-129262285D01*
X26583571Y-129309904D01*
X26535952Y-129357523D01*
X26488333Y-129452761D01*
X26488333Y-129643238D01*
X26535952Y-129738476D01*
X26583571Y-129786095D01*
X26678809Y-129833714D01*
%TO.C,R7*%
X27107380Y-136818666D02*
X26631190Y-137152000D01*
X27107380Y-137390095D02*
X26107380Y-137390095D01*
X26107380Y-137009142D01*
X26155000Y-136913904D01*
X26202619Y-136866285D01*
X26297857Y-136818666D01*
X26440714Y-136818666D01*
X26535952Y-136866285D01*
X26583571Y-136913904D01*
X26631190Y-137009142D01*
X26631190Y-137390095D01*
X26107380Y-136485333D02*
X26107380Y-135818666D01*
X27107380Y-136247238D01*
%TO.C,R8*%
X54793380Y-168314666D02*
X54317190Y-168648000D01*
X54793380Y-168886095D02*
X53793380Y-168886095D01*
X53793380Y-168505142D01*
X53841000Y-168409904D01*
X53888619Y-168362285D01*
X53983857Y-168314666D01*
X54126714Y-168314666D01*
X54221952Y-168362285D01*
X54269571Y-168409904D01*
X54317190Y-168505142D01*
X54317190Y-168886095D01*
X54221952Y-167743238D02*
X54174333Y-167838476D01*
X54126714Y-167886095D01*
X54031476Y-167933714D01*
X53983857Y-167933714D01*
X53888619Y-167886095D01*
X53841000Y-167838476D01*
X53793380Y-167743238D01*
X53793380Y-167552761D01*
X53841000Y-167457523D01*
X53888619Y-167409904D01*
X53983857Y-167362285D01*
X54031476Y-167362285D01*
X54126714Y-167409904D01*
X54174333Y-167457523D01*
X54221952Y-167552761D01*
X54221952Y-167743238D01*
X54269571Y-167838476D01*
X54317190Y-167886095D01*
X54412428Y-167933714D01*
X54602904Y-167933714D01*
X54698142Y-167886095D01*
X54745761Y-167838476D01*
X54793380Y-167743238D01*
X54793380Y-167552761D01*
X54745761Y-167457523D01*
X54698142Y-167409904D01*
X54602904Y-167362285D01*
X54412428Y-167362285D01*
X54317190Y-167409904D01*
X54269571Y-167457523D01*
X54221952Y-167552761D01*
%TO.C,R9*%
X28123380Y-168187666D02*
X27647190Y-168521000D01*
X28123380Y-168759095D02*
X27123380Y-168759095D01*
X27123380Y-168378142D01*
X27171000Y-168282904D01*
X27218619Y-168235285D01*
X27313857Y-168187666D01*
X27456714Y-168187666D01*
X27551952Y-168235285D01*
X27599571Y-168282904D01*
X27647190Y-168378142D01*
X27647190Y-168759095D01*
X28123380Y-167711476D02*
X28123380Y-167521000D01*
X28075761Y-167425761D01*
X28028142Y-167378142D01*
X27885285Y-167282904D01*
X27694809Y-167235285D01*
X27313857Y-167235285D01*
X27218619Y-167282904D01*
X27171000Y-167330523D01*
X27123380Y-167425761D01*
X27123380Y-167616238D01*
X27171000Y-167711476D01*
X27218619Y-167759095D01*
X27313857Y-167806714D01*
X27551952Y-167806714D01*
X27647190Y-167759095D01*
X27694809Y-167711476D01*
X27742428Y-167616238D01*
X27742428Y-167425761D01*
X27694809Y-167330523D01*
X27647190Y-167282904D01*
X27551952Y-167235285D01*
%TO.C,R10*%
X19106380Y-168663857D02*
X18630190Y-168997190D01*
X19106380Y-169235285D02*
X18106380Y-169235285D01*
X18106380Y-168854333D01*
X18154000Y-168759095D01*
X18201619Y-168711476D01*
X18296857Y-168663857D01*
X18439714Y-168663857D01*
X18534952Y-168711476D01*
X18582571Y-168759095D01*
X18630190Y-168854333D01*
X18630190Y-169235285D01*
X19106380Y-167711476D02*
X19106380Y-168282904D01*
X19106380Y-167997190D02*
X18106380Y-167997190D01*
X18249238Y-168092428D01*
X18344476Y-168187666D01*
X18392095Y-168282904D01*
X18106380Y-167092428D02*
X18106380Y-166997190D01*
X18154000Y-166901952D01*
X18201619Y-166854333D01*
X18296857Y-166806714D01*
X18487333Y-166759095D01*
X18725428Y-166759095D01*
X18915904Y-166806714D01*
X19011142Y-166854333D01*
X19058761Y-166901952D01*
X19106380Y-166997190D01*
X19106380Y-167092428D01*
X19058761Y-167187666D01*
X19011142Y-167235285D01*
X18915904Y-167282904D01*
X18725428Y-167330523D01*
X18487333Y-167330523D01*
X18296857Y-167282904D01*
X18201619Y-167235285D01*
X18154000Y-167187666D01*
X18106380Y-167092428D01*
%TO.C,R11*%
X22408380Y-168663857D02*
X21932190Y-168997190D01*
X22408380Y-169235285D02*
X21408380Y-169235285D01*
X21408380Y-168854333D01*
X21456000Y-168759095D01*
X21503619Y-168711476D01*
X21598857Y-168663857D01*
X21741714Y-168663857D01*
X21836952Y-168711476D01*
X21884571Y-168759095D01*
X21932190Y-168854333D01*
X21932190Y-169235285D01*
X22408380Y-167711476D02*
X22408380Y-168282904D01*
X22408380Y-167997190D02*
X21408380Y-167997190D01*
X21551238Y-168092428D01*
X21646476Y-168187666D01*
X21694095Y-168282904D01*
X22408380Y-166759095D02*
X22408380Y-167330523D01*
X22408380Y-167044809D02*
X21408380Y-167044809D01*
X21551238Y-167140047D01*
X21646476Y-167235285D01*
X21694095Y-167330523D01*
%TO.C,R12*%
X45268380Y-168790857D02*
X44792190Y-169124190D01*
X45268380Y-169362285D02*
X44268380Y-169362285D01*
X44268380Y-168981333D01*
X44316000Y-168886095D01*
X44363619Y-168838476D01*
X44458857Y-168790857D01*
X44601714Y-168790857D01*
X44696952Y-168838476D01*
X44744571Y-168886095D01*
X44792190Y-168981333D01*
X44792190Y-169362285D01*
X45268380Y-167838476D02*
X45268380Y-168409904D01*
X45268380Y-168124190D02*
X44268380Y-168124190D01*
X44411238Y-168219428D01*
X44506476Y-168314666D01*
X44554095Y-168409904D01*
X44363619Y-167457523D02*
X44316000Y-167409904D01*
X44268380Y-167314666D01*
X44268380Y-167076571D01*
X44316000Y-166981333D01*
X44363619Y-166933714D01*
X44458857Y-166886095D01*
X44554095Y-166886095D01*
X44696952Y-166933714D01*
X45268380Y-167505142D01*
X45268380Y-166886095D01*
%TO.C,R13*%
X40599380Y-120022857D02*
X40123190Y-120356190D01*
X40599380Y-120594285D02*
X39599380Y-120594285D01*
X39599380Y-120213333D01*
X39647000Y-120118095D01*
X39694619Y-120070476D01*
X39789857Y-120022857D01*
X39932714Y-120022857D01*
X40027952Y-120070476D01*
X40075571Y-120118095D01*
X40123190Y-120213333D01*
X40123190Y-120594285D01*
X40599380Y-119070476D02*
X40599380Y-119641904D01*
X40599380Y-119356190D02*
X39599380Y-119356190D01*
X39742238Y-119451428D01*
X39837476Y-119546666D01*
X39885095Y-119641904D01*
X39599380Y-118737142D02*
X39599380Y-118118095D01*
X39980333Y-118451428D01*
X39980333Y-118308571D01*
X40027952Y-118213333D01*
X40075571Y-118165714D01*
X40170809Y-118118095D01*
X40408904Y-118118095D01*
X40504142Y-118165714D01*
X40551761Y-118213333D01*
X40599380Y-118308571D01*
X40599380Y-118594285D01*
X40551761Y-118689523D01*
X40504142Y-118737142D01*
%TO.C,R14*%
X34630380Y-120022857D02*
X34154190Y-120356190D01*
X34630380Y-120594285D02*
X33630380Y-120594285D01*
X33630380Y-120213333D01*
X33678000Y-120118095D01*
X33725619Y-120070476D01*
X33820857Y-120022857D01*
X33963714Y-120022857D01*
X34058952Y-120070476D01*
X34106571Y-120118095D01*
X34154190Y-120213333D01*
X34154190Y-120594285D01*
X34630380Y-119070476D02*
X34630380Y-119641904D01*
X34630380Y-119356190D02*
X33630380Y-119356190D01*
X33773238Y-119451428D01*
X33868476Y-119546666D01*
X33916095Y-119641904D01*
X33963714Y-118213333D02*
X34630380Y-118213333D01*
X33582761Y-118451428D02*
X34297047Y-118689523D01*
X34297047Y-118070476D01*
%TO.C,R15*%
X29042380Y-120149857D02*
X28566190Y-120483190D01*
X29042380Y-120721285D02*
X28042380Y-120721285D01*
X28042380Y-120340333D01*
X28090000Y-120245095D01*
X28137619Y-120197476D01*
X28232857Y-120149857D01*
X28375714Y-120149857D01*
X28470952Y-120197476D01*
X28518571Y-120245095D01*
X28566190Y-120340333D01*
X28566190Y-120721285D01*
X29042380Y-119197476D02*
X29042380Y-119768904D01*
X29042380Y-119483190D02*
X28042380Y-119483190D01*
X28185238Y-119578428D01*
X28280476Y-119673666D01*
X28328095Y-119768904D01*
X28042380Y-118292714D02*
X28042380Y-118768904D01*
X28518571Y-118816523D01*
X28470952Y-118768904D01*
X28423333Y-118673666D01*
X28423333Y-118435571D01*
X28470952Y-118340333D01*
X28518571Y-118292714D01*
X28613809Y-118245095D01*
X28851904Y-118245095D01*
X28947142Y-118292714D01*
X28994761Y-118340333D01*
X29042380Y-118435571D01*
X29042380Y-118673666D01*
X28994761Y-118768904D01*
X28947142Y-118816523D01*
%TO.C,R16*%
X23200380Y-120149857D02*
X22724190Y-120483190D01*
X23200380Y-120721285D02*
X22200380Y-120721285D01*
X22200380Y-120340333D01*
X22248000Y-120245095D01*
X22295619Y-120197476D01*
X22390857Y-120149857D01*
X22533714Y-120149857D01*
X22628952Y-120197476D01*
X22676571Y-120245095D01*
X22724190Y-120340333D01*
X22724190Y-120721285D01*
X23200380Y-119197476D02*
X23200380Y-119768904D01*
X23200380Y-119483190D02*
X22200380Y-119483190D01*
X22343238Y-119578428D01*
X22438476Y-119673666D01*
X22486095Y-119768904D01*
X22200380Y-118340333D02*
X22200380Y-118530809D01*
X22248000Y-118626047D01*
X22295619Y-118673666D01*
X22438476Y-118768904D01*
X22628952Y-118816523D01*
X23009904Y-118816523D01*
X23105142Y-118768904D01*
X23152761Y-118721285D01*
X23200380Y-118626047D01*
X23200380Y-118435571D01*
X23152761Y-118340333D01*
X23105142Y-118292714D01*
X23009904Y-118245095D01*
X22771809Y-118245095D01*
X22676571Y-118292714D01*
X22628952Y-118340333D01*
X22581333Y-118435571D01*
X22581333Y-118626047D01*
X22628952Y-118721285D01*
X22676571Y-118768904D01*
X22771809Y-118816523D01*
%TO.C,R17*%
X83749380Y-166377857D02*
X83273190Y-166711190D01*
X83749380Y-166949285D02*
X82749380Y-166949285D01*
X82749380Y-166568333D01*
X82797000Y-166473095D01*
X82844619Y-166425476D01*
X82939857Y-166377857D01*
X83082714Y-166377857D01*
X83177952Y-166425476D01*
X83225571Y-166473095D01*
X83273190Y-166568333D01*
X83273190Y-166949285D01*
X83749380Y-165425476D02*
X83749380Y-165996904D01*
X83749380Y-165711190D02*
X82749380Y-165711190D01*
X82892238Y-165806428D01*
X82987476Y-165901666D01*
X83035095Y-165996904D01*
X82749380Y-165092142D02*
X82749380Y-164425476D01*
X83749380Y-164854047D01*
%TO.C,R18*%
X103116142Y-145217380D02*
X102782809Y-144741190D01*
X102544714Y-145217380D02*
X102544714Y-144217380D01*
X102925666Y-144217380D01*
X103020904Y-144265000D01*
X103068523Y-144312619D01*
X103116142Y-144407857D01*
X103116142Y-144550714D01*
X103068523Y-144645952D01*
X103020904Y-144693571D01*
X102925666Y-144741190D01*
X102544714Y-144741190D01*
X104068523Y-145217380D02*
X103497095Y-145217380D01*
X103782809Y-145217380D02*
X103782809Y-144217380D01*
X103687571Y-144360238D01*
X103592333Y-144455476D01*
X103497095Y-144503095D01*
X104639952Y-144645952D02*
X104544714Y-144598333D01*
X104497095Y-144550714D01*
X104449476Y-144455476D01*
X104449476Y-144407857D01*
X104497095Y-144312619D01*
X104544714Y-144265000D01*
X104639952Y-144217380D01*
X104830428Y-144217380D01*
X104925666Y-144265000D01*
X104973285Y-144312619D01*
X105020904Y-144407857D01*
X105020904Y-144455476D01*
X104973285Y-144550714D01*
X104925666Y-144598333D01*
X104830428Y-144645952D01*
X104639952Y-144645952D01*
X104544714Y-144693571D01*
X104497095Y-144741190D01*
X104449476Y-144836428D01*
X104449476Y-145026904D01*
X104497095Y-145122142D01*
X104544714Y-145169761D01*
X104639952Y-145217380D01*
X104830428Y-145217380D01*
X104925666Y-145169761D01*
X104973285Y-145122142D01*
X105020904Y-145026904D01*
X105020904Y-144836428D01*
X104973285Y-144741190D01*
X104925666Y-144693571D01*
X104830428Y-144645952D01*
%TO.C,R19*%
X79939380Y-166377857D02*
X79463190Y-166711190D01*
X79939380Y-166949285D02*
X78939380Y-166949285D01*
X78939380Y-166568333D01*
X78987000Y-166473095D01*
X79034619Y-166425476D01*
X79129857Y-166377857D01*
X79272714Y-166377857D01*
X79367952Y-166425476D01*
X79415571Y-166473095D01*
X79463190Y-166568333D01*
X79463190Y-166949285D01*
X79939380Y-165425476D02*
X79939380Y-165996904D01*
X79939380Y-165711190D02*
X78939380Y-165711190D01*
X79082238Y-165806428D01*
X79177476Y-165901666D01*
X79225095Y-165996904D01*
X79939380Y-164949285D02*
X79939380Y-164758809D01*
X79891761Y-164663571D01*
X79844142Y-164615952D01*
X79701285Y-164520714D01*
X79510809Y-164473095D01*
X79129857Y-164473095D01*
X79034619Y-164520714D01*
X78987000Y-164568333D01*
X78939380Y-164663571D01*
X78939380Y-164854047D01*
X78987000Y-164949285D01*
X79034619Y-164996904D01*
X79129857Y-165044523D01*
X79367952Y-165044523D01*
X79463190Y-164996904D01*
X79510809Y-164949285D01*
X79558428Y-164854047D01*
X79558428Y-164663571D01*
X79510809Y-164568333D01*
X79463190Y-164520714D01*
X79367952Y-164473095D01*
%TO.C,R20*%
X77653380Y-131579857D02*
X77177190Y-131913190D01*
X77653380Y-132151285D02*
X76653380Y-132151285D01*
X76653380Y-131770333D01*
X76701000Y-131675095D01*
X76748619Y-131627476D01*
X76843857Y-131579857D01*
X76986714Y-131579857D01*
X77081952Y-131627476D01*
X77129571Y-131675095D01*
X77177190Y-131770333D01*
X77177190Y-132151285D01*
X76748619Y-131198904D02*
X76701000Y-131151285D01*
X76653380Y-131056047D01*
X76653380Y-130817952D01*
X76701000Y-130722714D01*
X76748619Y-130675095D01*
X76843857Y-130627476D01*
X76939095Y-130627476D01*
X77081952Y-130675095D01*
X77653380Y-131246523D01*
X77653380Y-130627476D01*
X76653380Y-130008428D02*
X76653380Y-129913190D01*
X76701000Y-129817952D01*
X76748619Y-129770333D01*
X76843857Y-129722714D01*
X77034333Y-129675095D01*
X77272428Y-129675095D01*
X77462904Y-129722714D01*
X77558142Y-129770333D01*
X77605761Y-129817952D01*
X77653380Y-129913190D01*
X77653380Y-130008428D01*
X77605761Y-130103666D01*
X77558142Y-130151285D01*
X77462904Y-130198904D01*
X77272428Y-130246523D01*
X77034333Y-130246523D01*
X76843857Y-130198904D01*
X76748619Y-130151285D01*
X76701000Y-130103666D01*
X76653380Y-130008428D01*
%TO.C,R21*%
X49649142Y-134549380D02*
X49315809Y-134073190D01*
X49077714Y-134549380D02*
X49077714Y-133549380D01*
X49458666Y-133549380D01*
X49553904Y-133597000D01*
X49601523Y-133644619D01*
X49649142Y-133739857D01*
X49649142Y-133882714D01*
X49601523Y-133977952D01*
X49553904Y-134025571D01*
X49458666Y-134073190D01*
X49077714Y-134073190D01*
X50030095Y-133644619D02*
X50077714Y-133597000D01*
X50172952Y-133549380D01*
X50411047Y-133549380D01*
X50506285Y-133597000D01*
X50553904Y-133644619D01*
X50601523Y-133739857D01*
X50601523Y-133835095D01*
X50553904Y-133977952D01*
X49982476Y-134549380D01*
X50601523Y-134549380D01*
X51553904Y-134549380D02*
X50982476Y-134549380D01*
X51268190Y-134549380D02*
X51268190Y-133549380D01*
X51172952Y-133692238D01*
X51077714Y-133787476D01*
X50982476Y-133835095D01*
%TO.C,R22*%
X62697380Y-120022857D02*
X62221190Y-120356190D01*
X62697380Y-120594285D02*
X61697380Y-120594285D01*
X61697380Y-120213333D01*
X61745000Y-120118095D01*
X61792619Y-120070476D01*
X61887857Y-120022857D01*
X62030714Y-120022857D01*
X62125952Y-120070476D01*
X62173571Y-120118095D01*
X62221190Y-120213333D01*
X62221190Y-120594285D01*
X61792619Y-119641904D02*
X61745000Y-119594285D01*
X61697380Y-119499047D01*
X61697380Y-119260952D01*
X61745000Y-119165714D01*
X61792619Y-119118095D01*
X61887857Y-119070476D01*
X61983095Y-119070476D01*
X62125952Y-119118095D01*
X62697380Y-119689523D01*
X62697380Y-119070476D01*
X61792619Y-118689523D02*
X61745000Y-118641904D01*
X61697380Y-118546666D01*
X61697380Y-118308571D01*
X61745000Y-118213333D01*
X61792619Y-118165714D01*
X61887857Y-118118095D01*
X61983095Y-118118095D01*
X62125952Y-118165714D01*
X62697380Y-118737142D01*
X62697380Y-118118095D01*
%TO.C,R23*%
X57109380Y-120022857D02*
X56633190Y-120356190D01*
X57109380Y-120594285D02*
X56109380Y-120594285D01*
X56109380Y-120213333D01*
X56157000Y-120118095D01*
X56204619Y-120070476D01*
X56299857Y-120022857D01*
X56442714Y-120022857D01*
X56537952Y-120070476D01*
X56585571Y-120118095D01*
X56633190Y-120213333D01*
X56633190Y-120594285D01*
X56204619Y-119641904D02*
X56157000Y-119594285D01*
X56109380Y-119499047D01*
X56109380Y-119260952D01*
X56157000Y-119165714D01*
X56204619Y-119118095D01*
X56299857Y-119070476D01*
X56395095Y-119070476D01*
X56537952Y-119118095D01*
X57109380Y-119689523D01*
X57109380Y-119070476D01*
X56109380Y-118737142D02*
X56109380Y-118118095D01*
X56490333Y-118451428D01*
X56490333Y-118308571D01*
X56537952Y-118213333D01*
X56585571Y-118165714D01*
X56680809Y-118118095D01*
X56918904Y-118118095D01*
X57014142Y-118165714D01*
X57061761Y-118213333D01*
X57109380Y-118308571D01*
X57109380Y-118594285D01*
X57061761Y-118689523D01*
X57014142Y-118737142D01*
%TO.C,R24*%
X51648380Y-120022857D02*
X51172190Y-120356190D01*
X51648380Y-120594285D02*
X50648380Y-120594285D01*
X50648380Y-120213333D01*
X50696000Y-120118095D01*
X50743619Y-120070476D01*
X50838857Y-120022857D01*
X50981714Y-120022857D01*
X51076952Y-120070476D01*
X51124571Y-120118095D01*
X51172190Y-120213333D01*
X51172190Y-120594285D01*
X50743619Y-119641904D02*
X50696000Y-119594285D01*
X50648380Y-119499047D01*
X50648380Y-119260952D01*
X50696000Y-119165714D01*
X50743619Y-119118095D01*
X50838857Y-119070476D01*
X50934095Y-119070476D01*
X51076952Y-119118095D01*
X51648380Y-119689523D01*
X51648380Y-119070476D01*
X50981714Y-118213333D02*
X51648380Y-118213333D01*
X50600761Y-118451428D02*
X51315047Y-118689523D01*
X51315047Y-118070476D01*
%TO.C,R25*%
X46060380Y-120022857D02*
X45584190Y-120356190D01*
X46060380Y-120594285D02*
X45060380Y-120594285D01*
X45060380Y-120213333D01*
X45108000Y-120118095D01*
X45155619Y-120070476D01*
X45250857Y-120022857D01*
X45393714Y-120022857D01*
X45488952Y-120070476D01*
X45536571Y-120118095D01*
X45584190Y-120213333D01*
X45584190Y-120594285D01*
X45155619Y-119641904D02*
X45108000Y-119594285D01*
X45060380Y-119499047D01*
X45060380Y-119260952D01*
X45108000Y-119165714D01*
X45155619Y-119118095D01*
X45250857Y-119070476D01*
X45346095Y-119070476D01*
X45488952Y-119118095D01*
X46060380Y-119689523D01*
X46060380Y-119070476D01*
X45060380Y-118165714D02*
X45060380Y-118641904D01*
X45536571Y-118689523D01*
X45488952Y-118641904D01*
X45441333Y-118546666D01*
X45441333Y-118308571D01*
X45488952Y-118213333D01*
X45536571Y-118165714D01*
X45631809Y-118118095D01*
X45869904Y-118118095D01*
X45965142Y-118165714D01*
X46012761Y-118213333D01*
X46060380Y-118308571D01*
X46060380Y-118546666D01*
X46012761Y-118641904D01*
X45965142Y-118689523D01*
%TO.C,RV1*%
X85679380Y-155200238D02*
X85203190Y-155533571D01*
X85679380Y-155771666D02*
X84679380Y-155771666D01*
X84679380Y-155390714D01*
X84727000Y-155295476D01*
X84774619Y-155247857D01*
X84869857Y-155200238D01*
X85012714Y-155200238D01*
X85107952Y-155247857D01*
X85155571Y-155295476D01*
X85203190Y-155390714D01*
X85203190Y-155771666D01*
X84679380Y-154914523D02*
X85679380Y-154581190D01*
X84679380Y-154247857D01*
X85679380Y-153390714D02*
X85679380Y-153962142D01*
X85679380Y-153676428D02*
X84679380Y-153676428D01*
X84822238Y-153771666D01*
X84917476Y-153866904D01*
X84965095Y-153962142D01*
%TO.C,RV2*%
X70439380Y-155200238D02*
X69963190Y-155533571D01*
X70439380Y-155771666D02*
X69439380Y-155771666D01*
X69439380Y-155390714D01*
X69487000Y-155295476D01*
X69534619Y-155247857D01*
X69629857Y-155200238D01*
X69772714Y-155200238D01*
X69867952Y-155247857D01*
X69915571Y-155295476D01*
X69963190Y-155390714D01*
X69963190Y-155771666D01*
X69439380Y-154914523D02*
X70439380Y-154581190D01*
X69439380Y-154247857D01*
X69534619Y-153962142D02*
X69487000Y-153914523D01*
X69439380Y-153819285D01*
X69439380Y-153581190D01*
X69487000Y-153485952D01*
X69534619Y-153438333D01*
X69629857Y-153390714D01*
X69725095Y-153390714D01*
X69867952Y-153438333D01*
X70439380Y-154009761D01*
X70439380Y-153390714D01*
%TO.C,SW1*%
X54284761Y-153531333D02*
X54332380Y-153388476D01*
X54332380Y-153150380D01*
X54284761Y-153055142D01*
X54237142Y-153007523D01*
X54141904Y-152959904D01*
X54046666Y-152959904D01*
X53951428Y-153007523D01*
X53903809Y-153055142D01*
X53856190Y-153150380D01*
X53808571Y-153340857D01*
X53760952Y-153436095D01*
X53713333Y-153483714D01*
X53618095Y-153531333D01*
X53522857Y-153531333D01*
X53427619Y-153483714D01*
X53380000Y-153436095D01*
X53332380Y-153340857D01*
X53332380Y-153102761D01*
X53380000Y-152959904D01*
X53332380Y-152626571D02*
X54332380Y-152388476D01*
X53618095Y-152198000D01*
X54332380Y-152007523D01*
X53332380Y-151769428D01*
X54332380Y-150864666D02*
X54332380Y-151436095D01*
X54332380Y-151150380D02*
X53332380Y-151150380D01*
X53475238Y-151245619D01*
X53570476Y-151340857D01*
X53618095Y-151436095D01*
%TO.C,SW2*%
X44632761Y-153531333D02*
X44680380Y-153388476D01*
X44680380Y-153150380D01*
X44632761Y-153055142D01*
X44585142Y-153007523D01*
X44489904Y-152959904D01*
X44394666Y-152959904D01*
X44299428Y-153007523D01*
X44251809Y-153055142D01*
X44204190Y-153150380D01*
X44156571Y-153340857D01*
X44108952Y-153436095D01*
X44061333Y-153483714D01*
X43966095Y-153531333D01*
X43870857Y-153531333D01*
X43775619Y-153483714D01*
X43728000Y-153436095D01*
X43680380Y-153340857D01*
X43680380Y-153102761D01*
X43728000Y-152959904D01*
X43680380Y-152626571D02*
X44680380Y-152388476D01*
X43966095Y-152198000D01*
X44680380Y-152007523D01*
X43680380Y-151769428D01*
X43775619Y-151436095D02*
X43728000Y-151388476D01*
X43680380Y-151293238D01*
X43680380Y-151055142D01*
X43728000Y-150959904D01*
X43775619Y-150912285D01*
X43870857Y-150864666D01*
X43966095Y-150864666D01*
X44108952Y-150912285D01*
X44680380Y-151483714D01*
X44680380Y-150864666D01*
%TO.C,SW3*%
X27614761Y-153023333D02*
X27662380Y-152880476D01*
X27662380Y-152642380D01*
X27614761Y-152547142D01*
X27567142Y-152499523D01*
X27471904Y-152451904D01*
X27376666Y-152451904D01*
X27281428Y-152499523D01*
X27233809Y-152547142D01*
X27186190Y-152642380D01*
X27138571Y-152832857D01*
X27090952Y-152928095D01*
X27043333Y-152975714D01*
X26948095Y-153023333D01*
X26852857Y-153023333D01*
X26757619Y-152975714D01*
X26710000Y-152928095D01*
X26662380Y-152832857D01*
X26662380Y-152594761D01*
X26710000Y-152451904D01*
X26662380Y-152118571D02*
X27662380Y-151880476D01*
X26948095Y-151690000D01*
X27662380Y-151499523D01*
X26662380Y-151261428D01*
X26662380Y-150975714D02*
X26662380Y-150356666D01*
X27043333Y-150690000D01*
X27043333Y-150547142D01*
X27090952Y-150451904D01*
X27138571Y-150404285D01*
X27233809Y-150356666D01*
X27471904Y-150356666D01*
X27567142Y-150404285D01*
X27614761Y-150451904D01*
X27662380Y-150547142D01*
X27662380Y-150832857D01*
X27614761Y-150928095D01*
X27567142Y-150975714D01*
%TO.C,SW4*%
X18470761Y-153023333D02*
X18518380Y-152880476D01*
X18518380Y-152642380D01*
X18470761Y-152547142D01*
X18423142Y-152499523D01*
X18327904Y-152451904D01*
X18232666Y-152451904D01*
X18137428Y-152499523D01*
X18089809Y-152547142D01*
X18042190Y-152642380D01*
X17994571Y-152832857D01*
X17946952Y-152928095D01*
X17899333Y-152975714D01*
X17804095Y-153023333D01*
X17708857Y-153023333D01*
X17613619Y-152975714D01*
X17566000Y-152928095D01*
X17518380Y-152832857D01*
X17518380Y-152594761D01*
X17566000Y-152451904D01*
X17518380Y-152118571D02*
X18518380Y-151880476D01*
X17804095Y-151690000D01*
X18518380Y-151499523D01*
X17518380Y-151261428D01*
X17851714Y-150451904D02*
X18518380Y-150451904D01*
X17470761Y-150690000D02*
X18185047Y-150928095D01*
X18185047Y-150309047D01*
%TO.C,U1*%
X98591380Y-141096904D02*
X99400904Y-141096904D01*
X99496142Y-141049285D01*
X99543761Y-141001666D01*
X99591380Y-140906428D01*
X99591380Y-140715952D01*
X99543761Y-140620714D01*
X99496142Y-140573095D01*
X99400904Y-140525476D01*
X98591380Y-140525476D01*
X99591380Y-139525476D02*
X99591380Y-140096904D01*
X99591380Y-139811190D02*
X98591380Y-139811190D01*
X98734238Y-139906428D01*
X98829476Y-140001666D01*
X98877095Y-140096904D01*
%TO.C,U2*%
X89701380Y-141096904D02*
X90510904Y-141096904D01*
X90606142Y-141049285D01*
X90653761Y-141001666D01*
X90701380Y-140906428D01*
X90701380Y-140715952D01*
X90653761Y-140620714D01*
X90606142Y-140573095D01*
X90510904Y-140525476D01*
X89701380Y-140525476D01*
X89796619Y-140096904D02*
X89749000Y-140049285D01*
X89701380Y-139954047D01*
X89701380Y-139715952D01*
X89749000Y-139620714D01*
X89796619Y-139573095D01*
X89891857Y-139525476D01*
X89987095Y-139525476D01*
X90129952Y-139573095D01*
X90701380Y-140144523D01*
X90701380Y-139525476D01*
%TO.C,J16*%
X106011380Y-142474523D02*
X106725666Y-142474523D01*
X106868523Y-142522142D01*
X106963761Y-142617380D01*
X107011380Y-142760238D01*
X107011380Y-142855476D01*
X107011380Y-141474523D02*
X107011380Y-142045952D01*
X107011380Y-141760238D02*
X106011380Y-141760238D01*
X106154238Y-141855476D01*
X106249476Y-141950714D01*
X106297095Y-142045952D01*
X106011380Y-140617380D02*
X106011380Y-140807857D01*
X106059000Y-140903095D01*
X106106619Y-140950714D01*
X106249476Y-141045952D01*
X106439952Y-141093571D01*
X106820904Y-141093571D01*
X106916142Y-141045952D01*
X106963761Y-140998333D01*
X107011380Y-140903095D01*
X107011380Y-140712619D01*
X106963761Y-140617380D01*
X106916142Y-140569761D01*
X106820904Y-140522142D01*
X106582809Y-140522142D01*
X106487571Y-140569761D01*
X106439952Y-140617380D01*
X106392333Y-140712619D01*
X106392333Y-140903095D01*
X106439952Y-140998333D01*
X106487571Y-141045952D01*
X106582809Y-141093571D01*
%TO.C,R26*%
X87559380Y-166377857D02*
X87083190Y-166711190D01*
X87559380Y-166949285D02*
X86559380Y-166949285D01*
X86559380Y-166568333D01*
X86607000Y-166473095D01*
X86654619Y-166425476D01*
X86749857Y-166377857D01*
X86892714Y-166377857D01*
X86987952Y-166425476D01*
X87035571Y-166473095D01*
X87083190Y-166568333D01*
X87083190Y-166949285D01*
X86654619Y-165996904D02*
X86607000Y-165949285D01*
X86559380Y-165854047D01*
X86559380Y-165615952D01*
X86607000Y-165520714D01*
X86654619Y-165473095D01*
X86749857Y-165425476D01*
X86845095Y-165425476D01*
X86987952Y-165473095D01*
X87559380Y-166044523D01*
X87559380Y-165425476D01*
X86559380Y-164568333D02*
X86559380Y-164758809D01*
X86607000Y-164854047D01*
X86654619Y-164901666D01*
X86797476Y-164996904D01*
X86987952Y-165044523D01*
X87368904Y-165044523D01*
X87464142Y-164996904D01*
X87511761Y-164949285D01*
X87559380Y-164854047D01*
X87559380Y-164663571D01*
X87511761Y-164568333D01*
X87464142Y-164520714D01*
X87368904Y-164473095D01*
X87130809Y-164473095D01*
X87035571Y-164520714D01*
X86987952Y-164568333D01*
X86940333Y-164663571D01*
X86940333Y-164854047D01*
X86987952Y-164949285D01*
X87035571Y-164996904D01*
X87130809Y-165044523D01*
%TO.C,D19*%
X95813714Y-94076380D02*
X95813714Y-93076380D01*
X96051809Y-93076380D01*
X96194666Y-93124000D01*
X96289904Y-93219238D01*
X96337523Y-93314476D01*
X96385142Y-93504952D01*
X96385142Y-93647809D01*
X96337523Y-93838285D01*
X96289904Y-93933523D01*
X96194666Y-94028761D01*
X96051809Y-94076380D01*
X95813714Y-94076380D01*
X97337523Y-94076380D02*
X96766095Y-94076380D01*
X97051809Y-94076380D02*
X97051809Y-93076380D01*
X96956571Y-93219238D01*
X96861333Y-93314476D01*
X96766095Y-93362095D01*
X97813714Y-94076380D02*
X98004190Y-94076380D01*
X98099428Y-94028761D01*
X98147047Y-93981142D01*
X98242285Y-93838285D01*
X98289904Y-93647809D01*
X98289904Y-93266857D01*
X98242285Y-93171619D01*
X98194666Y-93124000D01*
X98099428Y-93076380D01*
X97908952Y-93076380D01*
X97813714Y-93124000D01*
X97766095Y-93171619D01*
X97718476Y-93266857D01*
X97718476Y-93504952D01*
X97766095Y-93600190D01*
X97813714Y-93647809D01*
X97908952Y-93695428D01*
X98099428Y-93695428D01*
X98194666Y-93647809D01*
X98242285Y-93600190D01*
X98289904Y-93504952D01*
X89146095Y-95661380D02*
X89146095Y-94661380D01*
X89717523Y-95661380D02*
X89288952Y-95089952D01*
X89717523Y-94661380D02*
X89146095Y-95232809D01*
%TO.C,D20*%
X74858714Y-94076380D02*
X74858714Y-93076380D01*
X75096809Y-93076380D01*
X75239666Y-93124000D01*
X75334904Y-93219238D01*
X75382523Y-93314476D01*
X75430142Y-93504952D01*
X75430142Y-93647809D01*
X75382523Y-93838285D01*
X75334904Y-93933523D01*
X75239666Y-94028761D01*
X75096809Y-94076380D01*
X74858714Y-94076380D01*
X75811095Y-93171619D02*
X75858714Y-93124000D01*
X75953952Y-93076380D01*
X76192047Y-93076380D01*
X76287285Y-93124000D01*
X76334904Y-93171619D01*
X76382523Y-93266857D01*
X76382523Y-93362095D01*
X76334904Y-93504952D01*
X75763476Y-94076380D01*
X76382523Y-94076380D01*
X77001571Y-93076380D02*
X77096809Y-93076380D01*
X77192047Y-93124000D01*
X77239666Y-93171619D01*
X77287285Y-93266857D01*
X77334904Y-93457333D01*
X77334904Y-93695428D01*
X77287285Y-93885904D01*
X77239666Y-93981142D01*
X77192047Y-94028761D01*
X77096809Y-94076380D01*
X77001571Y-94076380D01*
X76906333Y-94028761D01*
X76858714Y-93981142D01*
X76811095Y-93885904D01*
X76763476Y-93695428D01*
X76763476Y-93457333D01*
X76811095Y-93266857D01*
X76858714Y-93171619D01*
X76906333Y-93124000D01*
X77001571Y-93076380D01*
X68191095Y-95661380D02*
X68191095Y-94661380D01*
X68762523Y-95661380D02*
X68333952Y-95089952D01*
X68762523Y-94661380D02*
X68191095Y-95232809D01*
%TO.C,D21*%
X92107380Y-131897285D02*
X91107380Y-131897285D01*
X91107380Y-131659190D01*
X91155000Y-131516333D01*
X91250238Y-131421095D01*
X91345476Y-131373476D01*
X91535952Y-131325857D01*
X91678809Y-131325857D01*
X91869285Y-131373476D01*
X91964523Y-131421095D01*
X92059761Y-131516333D01*
X92107380Y-131659190D01*
X92107380Y-131897285D01*
X91202619Y-130944904D02*
X91155000Y-130897285D01*
X91107380Y-130802047D01*
X91107380Y-130563952D01*
X91155000Y-130468714D01*
X91202619Y-130421095D01*
X91297857Y-130373476D01*
X91393095Y-130373476D01*
X91535952Y-130421095D01*
X92107380Y-130992523D01*
X92107380Y-130373476D01*
X92107380Y-129421095D02*
X92107380Y-129992523D01*
X92107380Y-129706809D02*
X91107380Y-129706809D01*
X91250238Y-129802047D01*
X91345476Y-129897285D01*
X91393095Y-129992523D01*
%TO.C,D22*%
X69882380Y-132024285D02*
X68882380Y-132024285D01*
X68882380Y-131786190D01*
X68930000Y-131643333D01*
X69025238Y-131548095D01*
X69120476Y-131500476D01*
X69310952Y-131452857D01*
X69453809Y-131452857D01*
X69644285Y-131500476D01*
X69739523Y-131548095D01*
X69834761Y-131643333D01*
X69882380Y-131786190D01*
X69882380Y-132024285D01*
X68977619Y-131071904D02*
X68930000Y-131024285D01*
X68882380Y-130929047D01*
X68882380Y-130690952D01*
X68930000Y-130595714D01*
X68977619Y-130548095D01*
X69072857Y-130500476D01*
X69168095Y-130500476D01*
X69310952Y-130548095D01*
X69882380Y-131119523D01*
X69882380Y-130500476D01*
X68977619Y-130119523D02*
X68930000Y-130071904D01*
X68882380Y-129976666D01*
X68882380Y-129738571D01*
X68930000Y-129643333D01*
X68977619Y-129595714D01*
X69072857Y-129548095D01*
X69168095Y-129548095D01*
X69310952Y-129595714D01*
X69882380Y-130167142D01*
X69882380Y-129548095D01*
%TO.C,J7*%
X30333666Y-91775380D02*
X30333666Y-92489666D01*
X30286047Y-92632523D01*
X30190809Y-92727761D01*
X30047952Y-92775380D01*
X29952714Y-92775380D01*
X30714619Y-91775380D02*
X31381285Y-91775380D01*
X30952714Y-92775380D01*
%TO.C,J9*%
X85705666Y-91902380D02*
X85705666Y-92616666D01*
X85658047Y-92759523D01*
X85562809Y-92854761D01*
X85419952Y-92902380D01*
X85324714Y-92902380D01*
X86229476Y-92902380D02*
X86419952Y-92902380D01*
X86515190Y-92854761D01*
X86562809Y-92807142D01*
X86658047Y-92664285D01*
X86705666Y-92473809D01*
X86705666Y-92092857D01*
X86658047Y-91997619D01*
X86610428Y-91950000D01*
X86515190Y-91902380D01*
X86324714Y-91902380D01*
X86229476Y-91950000D01*
X86181857Y-91997619D01*
X86134238Y-92092857D01*
X86134238Y-92330952D01*
X86181857Y-92426190D01*
X86229476Y-92473809D01*
X86324714Y-92521428D01*
X86515190Y-92521428D01*
X86610428Y-92473809D01*
X86658047Y-92426190D01*
X86705666Y-92330952D01*
%TO.C,R27*%
X49776142Y-130231380D02*
X49442809Y-129755190D01*
X49204714Y-130231380D02*
X49204714Y-129231380D01*
X49585666Y-129231380D01*
X49680904Y-129279000D01*
X49728523Y-129326619D01*
X49776142Y-129421857D01*
X49776142Y-129564714D01*
X49728523Y-129659952D01*
X49680904Y-129707571D01*
X49585666Y-129755190D01*
X49204714Y-129755190D01*
X50157095Y-129326619D02*
X50204714Y-129279000D01*
X50299952Y-129231380D01*
X50538047Y-129231380D01*
X50633285Y-129279000D01*
X50680904Y-129326619D01*
X50728523Y-129421857D01*
X50728523Y-129517095D01*
X50680904Y-129659952D01*
X50109476Y-130231380D01*
X50728523Y-130231380D01*
X51061857Y-129231380D02*
X51728523Y-129231380D01*
X51299952Y-130231380D01*
%TO.C,R28*%
X99497380Y-131325857D02*
X99021190Y-131659190D01*
X99497380Y-131897285D02*
X98497380Y-131897285D01*
X98497380Y-131516333D01*
X98545000Y-131421095D01*
X98592619Y-131373476D01*
X98687857Y-131325857D01*
X98830714Y-131325857D01*
X98925952Y-131373476D01*
X98973571Y-131421095D01*
X99021190Y-131516333D01*
X99021190Y-131897285D01*
X98592619Y-130944904D02*
X98545000Y-130897285D01*
X98497380Y-130802047D01*
X98497380Y-130563952D01*
X98545000Y-130468714D01*
X98592619Y-130421095D01*
X98687857Y-130373476D01*
X98783095Y-130373476D01*
X98925952Y-130421095D01*
X99497380Y-130992523D01*
X99497380Y-130373476D01*
X98925952Y-129802047D02*
X98878333Y-129897285D01*
X98830714Y-129944904D01*
X98735476Y-129992523D01*
X98687857Y-129992523D01*
X98592619Y-129944904D01*
X98545000Y-129897285D01*
X98497380Y-129802047D01*
X98497380Y-129611571D01*
X98545000Y-129516333D01*
X98592619Y-129468714D01*
X98687857Y-129421095D01*
X98735476Y-129421095D01*
X98830714Y-129468714D01*
X98878333Y-129516333D01*
X98925952Y-129611571D01*
X98925952Y-129802047D01*
X98973571Y-129897285D01*
X99021190Y-129944904D01*
X99116428Y-129992523D01*
X99306904Y-129992523D01*
X99402142Y-129944904D01*
X99449761Y-129897285D01*
X99497380Y-129802047D01*
X99497380Y-129611571D01*
X99449761Y-129516333D01*
X99402142Y-129468714D01*
X99306904Y-129421095D01*
X99116428Y-129421095D01*
X99021190Y-129468714D01*
X98973571Y-129516333D01*
X98925952Y-129611571D01*
%TO.C,RLY1*%
X106832380Y-115118000D02*
X106356190Y-115451333D01*
X106832380Y-115689428D02*
X105832380Y-115689428D01*
X105832380Y-115308476D01*
X105880000Y-115213238D01*
X105927619Y-115165619D01*
X106022857Y-115118000D01*
X106165714Y-115118000D01*
X106260952Y-115165619D01*
X106308571Y-115213238D01*
X106356190Y-115308476D01*
X106356190Y-115689428D01*
X106832380Y-114213238D02*
X106832380Y-114689428D01*
X105832380Y-114689428D01*
X106356190Y-113689428D02*
X106832380Y-113689428D01*
X105832380Y-114022761D02*
X106356190Y-113689428D01*
X105832380Y-113356095D01*
X106832380Y-112498952D02*
X106832380Y-113070380D01*
X106832380Y-112784666D02*
X105832380Y-112784666D01*
X105975238Y-112879904D01*
X106070476Y-112975142D01*
X106118095Y-113070380D01*
%TO.C,RLY2*%
X85750380Y-115118000D02*
X85274190Y-115451333D01*
X85750380Y-115689428D02*
X84750380Y-115689428D01*
X84750380Y-115308476D01*
X84798000Y-115213238D01*
X84845619Y-115165619D01*
X84940857Y-115118000D01*
X85083714Y-115118000D01*
X85178952Y-115165619D01*
X85226571Y-115213238D01*
X85274190Y-115308476D01*
X85274190Y-115689428D01*
X85750380Y-114213238D02*
X85750380Y-114689428D01*
X84750380Y-114689428D01*
X85274190Y-113689428D02*
X85750380Y-113689428D01*
X84750380Y-114022761D02*
X85274190Y-113689428D01*
X84750380Y-113356095D01*
X84845619Y-113070380D02*
X84798000Y-113022761D01*
X84750380Y-112927523D01*
X84750380Y-112689428D01*
X84798000Y-112594190D01*
X84845619Y-112546571D01*
X84940857Y-112498952D01*
X85036095Y-112498952D01*
X85178952Y-112546571D01*
X85750380Y-113118000D01*
X85750380Y-112498952D01*
%TO.C,U3*%
X25062380Y-101599904D02*
X25871904Y-101599904D01*
X25967142Y-101552285D01*
X26014761Y-101504666D01*
X26062380Y-101409428D01*
X26062380Y-101218952D01*
X26014761Y-101123714D01*
X25967142Y-101076095D01*
X25871904Y-101028476D01*
X25062380Y-101028476D01*
X25062380Y-100647523D02*
X25062380Y-100028476D01*
X25443333Y-100361809D01*
X25443333Y-100218952D01*
X25490952Y-100123714D01*
X25538571Y-100076095D01*
X25633809Y-100028476D01*
X25871904Y-100028476D01*
X25967142Y-100076095D01*
X26014761Y-100123714D01*
X26062380Y-100218952D01*
X26062380Y-100504666D01*
X26014761Y-100599904D01*
X25967142Y-100647523D01*
%TO.C,J6*%
X53179380Y-134378333D02*
X53893666Y-134378333D01*
X54036523Y-134425952D01*
X54131761Y-134521190D01*
X54179380Y-134664047D01*
X54179380Y-134759285D01*
X53179380Y-133473571D02*
X53179380Y-133664047D01*
X53227000Y-133759285D01*
X53274619Y-133806904D01*
X53417476Y-133902142D01*
X53607952Y-133949761D01*
X53988904Y-133949761D01*
X54084142Y-133902142D01*
X54131761Y-133854523D01*
X54179380Y-133759285D01*
X54179380Y-133568809D01*
X54131761Y-133473571D01*
X54084142Y-133425952D01*
X53988904Y-133378333D01*
X53750809Y-133378333D01*
X53655571Y-133425952D01*
X53607952Y-133473571D01*
X53560333Y-133568809D01*
X53560333Y-133759285D01*
X53607952Y-133854523D01*
X53655571Y-133902142D01*
X53750809Y-133949761D01*
%TD*%
M02*
