%TF.GenerationSoftware,KiCad,Pcbnew,(6.0.1)*%
%TF.CreationDate,2022-07-29T10:17:08+01:00*%
%TF.ProjectId,testing_board,74657374-696e-4675-9f62-6f6172642e6b,rev?*%
%TF.SameCoordinates,Original*%
%TF.FileFunction,AssemblyDrawing,Top*%
%FSLAX46Y46*%
G04 Gerber Fmt 4.6, Leading zero omitted, Abs format (unit mm)*
G04 Created by KiCad (PCBNEW (6.0.1)) date 2022-07-29 10:17:08*
%MOMM*%
%LPD*%
G01*
G04 APERTURE LIST*
%ADD10C,0.150000*%
%ADD11C,0.100000*%
G04 APERTURE END LIST*
D10*
%TO.C,REF\u002A\u002A*%
X121690952Y-118952380D02*
X121690952Y-117952380D01*
X122024285Y-118666666D01*
X122357619Y-117952380D01*
X122357619Y-118952380D01*
X122976666Y-118952380D02*
X122881428Y-118904761D01*
X122833809Y-118857142D01*
X122786190Y-118761904D01*
X122786190Y-118476190D01*
X122833809Y-118380952D01*
X122881428Y-118333333D01*
X122976666Y-118285714D01*
X123119523Y-118285714D01*
X123214761Y-118333333D01*
X123262380Y-118380952D01*
X123309999Y-118476190D01*
X123309999Y-118761904D01*
X123262380Y-118857142D01*
X123214761Y-118904761D01*
X123119523Y-118952380D01*
X122976666Y-118952380D01*
X124167142Y-118285714D02*
X124167142Y-118952380D01*
X123738571Y-118285714D02*
X123738571Y-118809523D01*
X123786190Y-118904761D01*
X123881428Y-118952380D01*
X124024285Y-118952380D01*
X124119523Y-118904761D01*
X124167142Y-118857142D01*
X124643333Y-118285714D02*
X124643333Y-118952380D01*
X124643333Y-118380952D02*
X124690952Y-118333333D01*
X124786190Y-118285714D01*
X124929047Y-118285714D01*
X125024285Y-118333333D01*
X125071904Y-118428571D01*
X125071904Y-118952380D01*
X125405238Y-118285714D02*
X125786190Y-118285714D01*
X125548095Y-117952380D02*
X125548095Y-118809523D01*
X125595714Y-118904761D01*
X125690952Y-118952380D01*
X125786190Y-118952380D01*
X126119523Y-118952380D02*
X126119523Y-118285714D01*
X126119523Y-117952380D02*
X126071904Y-118000000D01*
X126119523Y-118047619D01*
X126167142Y-118000000D01*
X126119523Y-117952380D01*
X126119523Y-118047619D01*
X126595714Y-118285714D02*
X126595714Y-118952380D01*
X126595714Y-118380952D02*
X126643333Y-118333333D01*
X126738571Y-118285714D01*
X126881428Y-118285714D01*
X126976666Y-118333333D01*
X127024285Y-118428571D01*
X127024285Y-118952380D01*
X127929047Y-118285714D02*
X127929047Y-119095238D01*
X127881428Y-119190476D01*
X127833809Y-119238095D01*
X127738571Y-119285714D01*
X127595714Y-119285714D01*
X127500476Y-119238095D01*
X127929047Y-118904761D02*
X127833809Y-118952380D01*
X127643333Y-118952380D01*
X127548095Y-118904761D01*
X127500476Y-118857142D01*
X127452857Y-118761904D01*
X127452857Y-118476190D01*
X127500476Y-118380952D01*
X127548095Y-118333333D01*
X127643333Y-118285714D01*
X127833809Y-118285714D01*
X127929047Y-118333333D01*
X128405238Y-118952380D02*
X128405238Y-117952380D01*
X128405238Y-118428571D02*
X128976666Y-118428571D01*
X128976666Y-118952380D02*
X128976666Y-117952380D01*
X129595714Y-118952380D02*
X129500476Y-118904761D01*
X129452857Y-118857142D01*
X129405238Y-118761904D01*
X129405238Y-118476190D01*
X129452857Y-118380952D01*
X129500476Y-118333333D01*
X129595714Y-118285714D01*
X129738571Y-118285714D01*
X129833809Y-118333333D01*
X129881428Y-118380952D01*
X129929047Y-118476190D01*
X129929047Y-118761904D01*
X129881428Y-118857142D01*
X129833809Y-118904761D01*
X129738571Y-118952380D01*
X129595714Y-118952380D01*
X130500476Y-118952380D02*
X130405238Y-118904761D01*
X130357619Y-118809523D01*
X130357619Y-117952380D01*
X131262380Y-118904761D02*
X131167142Y-118952380D01*
X130976666Y-118952380D01*
X130881428Y-118904761D01*
X130833809Y-118809523D01*
X130833809Y-118428571D01*
X130881428Y-118333333D01*
X130976666Y-118285714D01*
X131167142Y-118285714D01*
X131262380Y-118333333D01*
X131309999Y-118428571D01*
X131309999Y-118523809D01*
X130833809Y-118619047D01*
X131500476Y-119047619D02*
X132262380Y-119047619D01*
X132405238Y-117952380D02*
X133024285Y-117952380D01*
X132690952Y-118333333D01*
X132833809Y-118333333D01*
X132929047Y-118380952D01*
X132976666Y-118428571D01*
X133024285Y-118523809D01*
X133024285Y-118761904D01*
X132976666Y-118857142D01*
X132929047Y-118904761D01*
X132833809Y-118952380D01*
X132548095Y-118952380D01*
X132452857Y-118904761D01*
X132405238Y-118857142D01*
X133452857Y-118857142D02*
X133500476Y-118904761D01*
X133452857Y-118952380D01*
X133405238Y-118904761D01*
X133452857Y-118857142D01*
X133452857Y-118952380D01*
X133881428Y-118047619D02*
X133929047Y-118000000D01*
X134024285Y-117952380D01*
X134262380Y-117952380D01*
X134357619Y-118000000D01*
X134405238Y-118047619D01*
X134452857Y-118142857D01*
X134452857Y-118238095D01*
X134405238Y-118380952D01*
X133833809Y-118952380D01*
X134452857Y-118952380D01*
X134881428Y-118952380D02*
X134881428Y-118285714D01*
X134881428Y-118380952D02*
X134929047Y-118333333D01*
X135024285Y-118285714D01*
X135167142Y-118285714D01*
X135262380Y-118333333D01*
X135310000Y-118428571D01*
X135310000Y-118952380D01*
X135310000Y-118428571D02*
X135357619Y-118333333D01*
X135452857Y-118285714D01*
X135595714Y-118285714D01*
X135690952Y-118333333D01*
X135738571Y-118428571D01*
X135738571Y-118952380D01*
X136214761Y-118952380D02*
X136214761Y-118285714D01*
X136214761Y-118380952D02*
X136262380Y-118333333D01*
X136357619Y-118285714D01*
X136500476Y-118285714D01*
X136595714Y-118333333D01*
X136643333Y-118428571D01*
X136643333Y-118952380D01*
X136643333Y-118428571D02*
X136690952Y-118333333D01*
X136786190Y-118285714D01*
X136929047Y-118285714D01*
X137024285Y-118333333D01*
X137071904Y-118428571D01*
X137071904Y-118952380D01*
X137310000Y-119047619D02*
X138071904Y-119047619D01*
X138310000Y-118952380D02*
X138310000Y-117952380D01*
X138643333Y-118666666D01*
X138976666Y-117952380D01*
X138976666Y-118952380D01*
X139357619Y-117952380D02*
X139976666Y-117952380D01*
X139643333Y-118333333D01*
X139786190Y-118333333D01*
X139881428Y-118380952D01*
X139929047Y-118428571D01*
X139976666Y-118523809D01*
X139976666Y-118761904D01*
X139929047Y-118857142D01*
X139881428Y-118904761D01*
X139786190Y-118952380D01*
X139500476Y-118952380D01*
X139405238Y-118904761D01*
X139357619Y-118857142D01*
X129776666Y-114752380D02*
X129443333Y-114276190D01*
X129205238Y-114752380D02*
X129205238Y-113752380D01*
X129586190Y-113752380D01*
X129681428Y-113800000D01*
X129729047Y-113847619D01*
X129776666Y-113942857D01*
X129776666Y-114085714D01*
X129729047Y-114180952D01*
X129681428Y-114228571D01*
X129586190Y-114276190D01*
X129205238Y-114276190D01*
X130205238Y-114228571D02*
X130538571Y-114228571D01*
X130681428Y-114752380D02*
X130205238Y-114752380D01*
X130205238Y-113752380D01*
X130681428Y-113752380D01*
X131443333Y-114228571D02*
X131110000Y-114228571D01*
X131110000Y-114752380D02*
X131110000Y-113752380D01*
X131586190Y-113752380D01*
X132110000Y-113752380D02*
X132110000Y-113990476D01*
X131871904Y-113895238D02*
X132110000Y-113990476D01*
X132348095Y-113895238D01*
X131967142Y-114180952D02*
X132110000Y-113990476D01*
X132252857Y-114180952D01*
X132871904Y-113752380D02*
X132871904Y-113990476D01*
X132633809Y-113895238D02*
X132871904Y-113990476D01*
X133110000Y-113895238D01*
X132729047Y-114180952D02*
X132871904Y-113990476D01*
X133014761Y-114180952D01*
X32790952Y-118952380D02*
X32790952Y-117952380D01*
X33124285Y-118666666D01*
X33457619Y-117952380D01*
X33457619Y-118952380D01*
X34076666Y-118952380D02*
X33981428Y-118904761D01*
X33933809Y-118857142D01*
X33886190Y-118761904D01*
X33886190Y-118476190D01*
X33933809Y-118380952D01*
X33981428Y-118333333D01*
X34076666Y-118285714D01*
X34219523Y-118285714D01*
X34314761Y-118333333D01*
X34362380Y-118380952D01*
X34410000Y-118476190D01*
X34410000Y-118761904D01*
X34362380Y-118857142D01*
X34314761Y-118904761D01*
X34219523Y-118952380D01*
X34076666Y-118952380D01*
X35267142Y-118285714D02*
X35267142Y-118952380D01*
X34838571Y-118285714D02*
X34838571Y-118809523D01*
X34886190Y-118904761D01*
X34981428Y-118952380D01*
X35124285Y-118952380D01*
X35219523Y-118904761D01*
X35267142Y-118857142D01*
X35743333Y-118285714D02*
X35743333Y-118952380D01*
X35743333Y-118380952D02*
X35790952Y-118333333D01*
X35886190Y-118285714D01*
X36029047Y-118285714D01*
X36124285Y-118333333D01*
X36171904Y-118428571D01*
X36171904Y-118952380D01*
X36505238Y-118285714D02*
X36886190Y-118285714D01*
X36648095Y-117952380D02*
X36648095Y-118809523D01*
X36695714Y-118904761D01*
X36790952Y-118952380D01*
X36886190Y-118952380D01*
X37219523Y-118952380D02*
X37219523Y-118285714D01*
X37219523Y-117952380D02*
X37171904Y-118000000D01*
X37219523Y-118047619D01*
X37267142Y-118000000D01*
X37219523Y-117952380D01*
X37219523Y-118047619D01*
X37695714Y-118285714D02*
X37695714Y-118952380D01*
X37695714Y-118380952D02*
X37743333Y-118333333D01*
X37838571Y-118285714D01*
X37981428Y-118285714D01*
X38076666Y-118333333D01*
X38124285Y-118428571D01*
X38124285Y-118952380D01*
X39029047Y-118285714D02*
X39029047Y-119095238D01*
X38981428Y-119190476D01*
X38933809Y-119238095D01*
X38838571Y-119285714D01*
X38695714Y-119285714D01*
X38600476Y-119238095D01*
X39029047Y-118904761D02*
X38933809Y-118952380D01*
X38743333Y-118952380D01*
X38648095Y-118904761D01*
X38600476Y-118857142D01*
X38552857Y-118761904D01*
X38552857Y-118476190D01*
X38600476Y-118380952D01*
X38648095Y-118333333D01*
X38743333Y-118285714D01*
X38933809Y-118285714D01*
X39029047Y-118333333D01*
X39505238Y-118952380D02*
X39505238Y-117952380D01*
X39505238Y-118428571D02*
X40076666Y-118428571D01*
X40076666Y-118952380D02*
X40076666Y-117952380D01*
X40695714Y-118952380D02*
X40600476Y-118904761D01*
X40552857Y-118857142D01*
X40505238Y-118761904D01*
X40505238Y-118476190D01*
X40552857Y-118380952D01*
X40600476Y-118333333D01*
X40695714Y-118285714D01*
X40838571Y-118285714D01*
X40933809Y-118333333D01*
X40981428Y-118380952D01*
X41029047Y-118476190D01*
X41029047Y-118761904D01*
X40981428Y-118857142D01*
X40933809Y-118904761D01*
X40838571Y-118952380D01*
X40695714Y-118952380D01*
X41600476Y-118952380D02*
X41505238Y-118904761D01*
X41457619Y-118809523D01*
X41457619Y-117952380D01*
X42362380Y-118904761D02*
X42267142Y-118952380D01*
X42076666Y-118952380D01*
X41981428Y-118904761D01*
X41933809Y-118809523D01*
X41933809Y-118428571D01*
X41981428Y-118333333D01*
X42076666Y-118285714D01*
X42267142Y-118285714D01*
X42362380Y-118333333D01*
X42410000Y-118428571D01*
X42410000Y-118523809D01*
X41933809Y-118619047D01*
X42600476Y-119047619D02*
X43362380Y-119047619D01*
X43505238Y-117952380D02*
X44124285Y-117952380D01*
X43790952Y-118333333D01*
X43933809Y-118333333D01*
X44029047Y-118380952D01*
X44076666Y-118428571D01*
X44124285Y-118523809D01*
X44124285Y-118761904D01*
X44076666Y-118857142D01*
X44029047Y-118904761D01*
X43933809Y-118952380D01*
X43648095Y-118952380D01*
X43552857Y-118904761D01*
X43505238Y-118857142D01*
X44552857Y-118857142D02*
X44600476Y-118904761D01*
X44552857Y-118952380D01*
X44505238Y-118904761D01*
X44552857Y-118857142D01*
X44552857Y-118952380D01*
X44981428Y-118047619D02*
X45029047Y-118000000D01*
X45124285Y-117952380D01*
X45362380Y-117952380D01*
X45457619Y-118000000D01*
X45505238Y-118047619D01*
X45552857Y-118142857D01*
X45552857Y-118238095D01*
X45505238Y-118380952D01*
X44933809Y-118952380D01*
X45552857Y-118952380D01*
X45981428Y-118952380D02*
X45981428Y-118285714D01*
X45981428Y-118380952D02*
X46029047Y-118333333D01*
X46124285Y-118285714D01*
X46267142Y-118285714D01*
X46362380Y-118333333D01*
X46409999Y-118428571D01*
X46409999Y-118952380D01*
X46409999Y-118428571D02*
X46457619Y-118333333D01*
X46552857Y-118285714D01*
X46695714Y-118285714D01*
X46790952Y-118333333D01*
X46838571Y-118428571D01*
X46838571Y-118952380D01*
X47314761Y-118952380D02*
X47314761Y-118285714D01*
X47314761Y-118380952D02*
X47362380Y-118333333D01*
X47457619Y-118285714D01*
X47600476Y-118285714D01*
X47695714Y-118333333D01*
X47743333Y-118428571D01*
X47743333Y-118952380D01*
X47743333Y-118428571D02*
X47790952Y-118333333D01*
X47886190Y-118285714D01*
X48029047Y-118285714D01*
X48124285Y-118333333D01*
X48171904Y-118428571D01*
X48171904Y-118952380D01*
X48409999Y-119047619D02*
X49171904Y-119047619D01*
X49409999Y-118952380D02*
X49409999Y-117952380D01*
X49743333Y-118666666D01*
X50076666Y-117952380D01*
X50076666Y-118952380D01*
X50457619Y-117952380D02*
X51076666Y-117952380D01*
X50743333Y-118333333D01*
X50886190Y-118333333D01*
X50981428Y-118380952D01*
X51029047Y-118428571D01*
X51076666Y-118523809D01*
X51076666Y-118761904D01*
X51029047Y-118857142D01*
X50981428Y-118904761D01*
X50886190Y-118952380D01*
X50600476Y-118952380D01*
X50505238Y-118904761D01*
X50457619Y-118857142D01*
X40876666Y-114752380D02*
X40543333Y-114276190D01*
X40305238Y-114752380D02*
X40305238Y-113752380D01*
X40686190Y-113752380D01*
X40781428Y-113800000D01*
X40829047Y-113847619D01*
X40876666Y-113942857D01*
X40876666Y-114085714D01*
X40829047Y-114180952D01*
X40781428Y-114228571D01*
X40686190Y-114276190D01*
X40305238Y-114276190D01*
X41305238Y-114228571D02*
X41638571Y-114228571D01*
X41781428Y-114752380D02*
X41305238Y-114752380D01*
X41305238Y-113752380D01*
X41781428Y-113752380D01*
X42543333Y-114228571D02*
X42210000Y-114228571D01*
X42210000Y-114752380D02*
X42210000Y-113752380D01*
X42686190Y-113752380D01*
X43210000Y-113752380D02*
X43210000Y-113990476D01*
X42971904Y-113895238D02*
X43210000Y-113990476D01*
X43448095Y-113895238D01*
X43067142Y-114180952D02*
X43210000Y-113990476D01*
X43352857Y-114180952D01*
X43971904Y-113752380D02*
X43971904Y-113990476D01*
X43733809Y-113895238D02*
X43971904Y-113990476D01*
X44210000Y-113895238D01*
X43829047Y-114180952D02*
X43971904Y-113990476D01*
X44114761Y-114180952D01*
X121690952Y-30052380D02*
X121690952Y-29052380D01*
X122024285Y-29766666D01*
X122357619Y-29052380D01*
X122357619Y-30052380D01*
X122976666Y-30052380D02*
X122881428Y-30004761D01*
X122833809Y-29957142D01*
X122786190Y-29861904D01*
X122786190Y-29576190D01*
X122833809Y-29480952D01*
X122881428Y-29433333D01*
X122976666Y-29385714D01*
X123119523Y-29385714D01*
X123214761Y-29433333D01*
X123262380Y-29480952D01*
X123309999Y-29576190D01*
X123309999Y-29861904D01*
X123262380Y-29957142D01*
X123214761Y-30004761D01*
X123119523Y-30052380D01*
X122976666Y-30052380D01*
X124167142Y-29385714D02*
X124167142Y-30052380D01*
X123738571Y-29385714D02*
X123738571Y-29909523D01*
X123786190Y-30004761D01*
X123881428Y-30052380D01*
X124024285Y-30052380D01*
X124119523Y-30004761D01*
X124167142Y-29957142D01*
X124643333Y-29385714D02*
X124643333Y-30052380D01*
X124643333Y-29480952D02*
X124690952Y-29433333D01*
X124786190Y-29385714D01*
X124929047Y-29385714D01*
X125024285Y-29433333D01*
X125071904Y-29528571D01*
X125071904Y-30052380D01*
X125405238Y-29385714D02*
X125786190Y-29385714D01*
X125548095Y-29052380D02*
X125548095Y-29909523D01*
X125595714Y-30004761D01*
X125690952Y-30052380D01*
X125786190Y-30052380D01*
X126119523Y-30052380D02*
X126119523Y-29385714D01*
X126119523Y-29052380D02*
X126071904Y-29100000D01*
X126119523Y-29147619D01*
X126167142Y-29100000D01*
X126119523Y-29052380D01*
X126119523Y-29147619D01*
X126595714Y-29385714D02*
X126595714Y-30052380D01*
X126595714Y-29480952D02*
X126643333Y-29433333D01*
X126738571Y-29385714D01*
X126881428Y-29385714D01*
X126976666Y-29433333D01*
X127024285Y-29528571D01*
X127024285Y-30052380D01*
X127929047Y-29385714D02*
X127929047Y-30195238D01*
X127881428Y-30290476D01*
X127833809Y-30338095D01*
X127738571Y-30385714D01*
X127595714Y-30385714D01*
X127500476Y-30338095D01*
X127929047Y-30004761D02*
X127833809Y-30052380D01*
X127643333Y-30052380D01*
X127548095Y-30004761D01*
X127500476Y-29957142D01*
X127452857Y-29861904D01*
X127452857Y-29576190D01*
X127500476Y-29480952D01*
X127548095Y-29433333D01*
X127643333Y-29385714D01*
X127833809Y-29385714D01*
X127929047Y-29433333D01*
X128405238Y-30052380D02*
X128405238Y-29052380D01*
X128405238Y-29528571D02*
X128976666Y-29528571D01*
X128976666Y-30052380D02*
X128976666Y-29052380D01*
X129595714Y-30052380D02*
X129500476Y-30004761D01*
X129452857Y-29957142D01*
X129405238Y-29861904D01*
X129405238Y-29576190D01*
X129452857Y-29480952D01*
X129500476Y-29433333D01*
X129595714Y-29385714D01*
X129738571Y-29385714D01*
X129833809Y-29433333D01*
X129881428Y-29480952D01*
X129929047Y-29576190D01*
X129929047Y-29861904D01*
X129881428Y-29957142D01*
X129833809Y-30004761D01*
X129738571Y-30052380D01*
X129595714Y-30052380D01*
X130500476Y-30052380D02*
X130405238Y-30004761D01*
X130357619Y-29909523D01*
X130357619Y-29052380D01*
X131262380Y-30004761D02*
X131167142Y-30052380D01*
X130976666Y-30052380D01*
X130881428Y-30004761D01*
X130833809Y-29909523D01*
X130833809Y-29528571D01*
X130881428Y-29433333D01*
X130976666Y-29385714D01*
X131167142Y-29385714D01*
X131262380Y-29433333D01*
X131309999Y-29528571D01*
X131309999Y-29623809D01*
X130833809Y-29719047D01*
X131500476Y-30147619D02*
X132262380Y-30147619D01*
X132405238Y-29052380D02*
X133024285Y-29052380D01*
X132690952Y-29433333D01*
X132833809Y-29433333D01*
X132929047Y-29480952D01*
X132976666Y-29528571D01*
X133024285Y-29623809D01*
X133024285Y-29861904D01*
X132976666Y-29957142D01*
X132929047Y-30004761D01*
X132833809Y-30052380D01*
X132548095Y-30052380D01*
X132452857Y-30004761D01*
X132405238Y-29957142D01*
X133452857Y-29957142D02*
X133500476Y-30004761D01*
X133452857Y-30052380D01*
X133405238Y-30004761D01*
X133452857Y-29957142D01*
X133452857Y-30052380D01*
X133881428Y-29147619D02*
X133929047Y-29100000D01*
X134024285Y-29052380D01*
X134262380Y-29052380D01*
X134357619Y-29100000D01*
X134405238Y-29147619D01*
X134452857Y-29242857D01*
X134452857Y-29338095D01*
X134405238Y-29480952D01*
X133833809Y-30052380D01*
X134452857Y-30052380D01*
X134881428Y-30052380D02*
X134881428Y-29385714D01*
X134881428Y-29480952D02*
X134929047Y-29433333D01*
X135024285Y-29385714D01*
X135167142Y-29385714D01*
X135262380Y-29433333D01*
X135310000Y-29528571D01*
X135310000Y-30052380D01*
X135310000Y-29528571D02*
X135357619Y-29433333D01*
X135452857Y-29385714D01*
X135595714Y-29385714D01*
X135690952Y-29433333D01*
X135738571Y-29528571D01*
X135738571Y-30052380D01*
X136214761Y-30052380D02*
X136214761Y-29385714D01*
X136214761Y-29480952D02*
X136262380Y-29433333D01*
X136357619Y-29385714D01*
X136500476Y-29385714D01*
X136595714Y-29433333D01*
X136643333Y-29528571D01*
X136643333Y-30052380D01*
X136643333Y-29528571D02*
X136690952Y-29433333D01*
X136786190Y-29385714D01*
X136929047Y-29385714D01*
X137024285Y-29433333D01*
X137071904Y-29528571D01*
X137071904Y-30052380D01*
X137310000Y-30147619D02*
X138071904Y-30147619D01*
X138310000Y-30052380D02*
X138310000Y-29052380D01*
X138643333Y-29766666D01*
X138976666Y-29052380D01*
X138976666Y-30052380D01*
X139357619Y-29052380D02*
X139976666Y-29052380D01*
X139643333Y-29433333D01*
X139786190Y-29433333D01*
X139881428Y-29480952D01*
X139929047Y-29528571D01*
X139976666Y-29623809D01*
X139976666Y-29861904D01*
X139929047Y-29957142D01*
X139881428Y-30004761D01*
X139786190Y-30052380D01*
X139500476Y-30052380D01*
X139405238Y-30004761D01*
X139357619Y-29957142D01*
X129776666Y-25852380D02*
X129443333Y-25376190D01*
X129205238Y-25852380D02*
X129205238Y-24852380D01*
X129586190Y-24852380D01*
X129681428Y-24900000D01*
X129729047Y-24947619D01*
X129776666Y-25042857D01*
X129776666Y-25185714D01*
X129729047Y-25280952D01*
X129681428Y-25328571D01*
X129586190Y-25376190D01*
X129205238Y-25376190D01*
X130205238Y-25328571D02*
X130538571Y-25328571D01*
X130681428Y-25852380D02*
X130205238Y-25852380D01*
X130205238Y-24852380D01*
X130681428Y-24852380D01*
X131443333Y-25328571D02*
X131110000Y-25328571D01*
X131110000Y-25852380D02*
X131110000Y-24852380D01*
X131586190Y-24852380D01*
X132110000Y-24852380D02*
X132110000Y-25090476D01*
X131871904Y-24995238D02*
X132110000Y-25090476D01*
X132348095Y-24995238D01*
X131967142Y-25280952D02*
X132110000Y-25090476D01*
X132252857Y-25280952D01*
X132871904Y-24852380D02*
X132871904Y-25090476D01*
X132633809Y-24995238D02*
X132871904Y-25090476D01*
X133110000Y-24995238D01*
X132729047Y-25280952D02*
X132871904Y-25090476D01*
X133014761Y-25280952D01*
X32536952Y-29798380D02*
X32536952Y-28798380D01*
X32870285Y-29512666D01*
X33203619Y-28798380D01*
X33203619Y-29798380D01*
X33822666Y-29798380D02*
X33727428Y-29750761D01*
X33679809Y-29703142D01*
X33632190Y-29607904D01*
X33632190Y-29322190D01*
X33679809Y-29226952D01*
X33727428Y-29179333D01*
X33822666Y-29131714D01*
X33965523Y-29131714D01*
X34060761Y-29179333D01*
X34108380Y-29226952D01*
X34156000Y-29322190D01*
X34156000Y-29607904D01*
X34108380Y-29703142D01*
X34060761Y-29750761D01*
X33965523Y-29798380D01*
X33822666Y-29798380D01*
X35013142Y-29131714D02*
X35013142Y-29798380D01*
X34584571Y-29131714D02*
X34584571Y-29655523D01*
X34632190Y-29750761D01*
X34727428Y-29798380D01*
X34870285Y-29798380D01*
X34965523Y-29750761D01*
X35013142Y-29703142D01*
X35489333Y-29131714D02*
X35489333Y-29798380D01*
X35489333Y-29226952D02*
X35536952Y-29179333D01*
X35632190Y-29131714D01*
X35775047Y-29131714D01*
X35870285Y-29179333D01*
X35917904Y-29274571D01*
X35917904Y-29798380D01*
X36251238Y-29131714D02*
X36632190Y-29131714D01*
X36394095Y-28798380D02*
X36394095Y-29655523D01*
X36441714Y-29750761D01*
X36536952Y-29798380D01*
X36632190Y-29798380D01*
X36965523Y-29798380D02*
X36965523Y-29131714D01*
X36965523Y-28798380D02*
X36917904Y-28846000D01*
X36965523Y-28893619D01*
X37013142Y-28846000D01*
X36965523Y-28798380D01*
X36965523Y-28893619D01*
X37441714Y-29131714D02*
X37441714Y-29798380D01*
X37441714Y-29226952D02*
X37489333Y-29179333D01*
X37584571Y-29131714D01*
X37727428Y-29131714D01*
X37822666Y-29179333D01*
X37870285Y-29274571D01*
X37870285Y-29798380D01*
X38775047Y-29131714D02*
X38775047Y-29941238D01*
X38727428Y-30036476D01*
X38679809Y-30084095D01*
X38584571Y-30131714D01*
X38441714Y-30131714D01*
X38346476Y-30084095D01*
X38775047Y-29750761D02*
X38679809Y-29798380D01*
X38489333Y-29798380D01*
X38394095Y-29750761D01*
X38346476Y-29703142D01*
X38298857Y-29607904D01*
X38298857Y-29322190D01*
X38346476Y-29226952D01*
X38394095Y-29179333D01*
X38489333Y-29131714D01*
X38679809Y-29131714D01*
X38775047Y-29179333D01*
X39251238Y-29798380D02*
X39251238Y-28798380D01*
X39251238Y-29274571D02*
X39822666Y-29274571D01*
X39822666Y-29798380D02*
X39822666Y-28798380D01*
X40441714Y-29798380D02*
X40346476Y-29750761D01*
X40298857Y-29703142D01*
X40251238Y-29607904D01*
X40251238Y-29322190D01*
X40298857Y-29226952D01*
X40346476Y-29179333D01*
X40441714Y-29131714D01*
X40584571Y-29131714D01*
X40679809Y-29179333D01*
X40727428Y-29226952D01*
X40775047Y-29322190D01*
X40775047Y-29607904D01*
X40727428Y-29703142D01*
X40679809Y-29750761D01*
X40584571Y-29798380D01*
X40441714Y-29798380D01*
X41346476Y-29798380D02*
X41251238Y-29750761D01*
X41203619Y-29655523D01*
X41203619Y-28798380D01*
X42108380Y-29750761D02*
X42013142Y-29798380D01*
X41822666Y-29798380D01*
X41727428Y-29750761D01*
X41679809Y-29655523D01*
X41679809Y-29274571D01*
X41727428Y-29179333D01*
X41822666Y-29131714D01*
X42013142Y-29131714D01*
X42108380Y-29179333D01*
X42156000Y-29274571D01*
X42156000Y-29369809D01*
X41679809Y-29465047D01*
X42346476Y-29893619D02*
X43108380Y-29893619D01*
X43251238Y-28798380D02*
X43870285Y-28798380D01*
X43536952Y-29179333D01*
X43679809Y-29179333D01*
X43775047Y-29226952D01*
X43822666Y-29274571D01*
X43870285Y-29369809D01*
X43870285Y-29607904D01*
X43822666Y-29703142D01*
X43775047Y-29750761D01*
X43679809Y-29798380D01*
X43394095Y-29798380D01*
X43298857Y-29750761D01*
X43251238Y-29703142D01*
X44298857Y-29703142D02*
X44346476Y-29750761D01*
X44298857Y-29798380D01*
X44251238Y-29750761D01*
X44298857Y-29703142D01*
X44298857Y-29798380D01*
X44727428Y-28893619D02*
X44775047Y-28846000D01*
X44870285Y-28798380D01*
X45108380Y-28798380D01*
X45203619Y-28846000D01*
X45251238Y-28893619D01*
X45298857Y-28988857D01*
X45298857Y-29084095D01*
X45251238Y-29226952D01*
X44679809Y-29798380D01*
X45298857Y-29798380D01*
X45727428Y-29798380D02*
X45727428Y-29131714D01*
X45727428Y-29226952D02*
X45775047Y-29179333D01*
X45870285Y-29131714D01*
X46013142Y-29131714D01*
X46108380Y-29179333D01*
X46155999Y-29274571D01*
X46155999Y-29798380D01*
X46155999Y-29274571D02*
X46203619Y-29179333D01*
X46298857Y-29131714D01*
X46441714Y-29131714D01*
X46536952Y-29179333D01*
X46584571Y-29274571D01*
X46584571Y-29798380D01*
X47060761Y-29798380D02*
X47060761Y-29131714D01*
X47060761Y-29226952D02*
X47108380Y-29179333D01*
X47203619Y-29131714D01*
X47346476Y-29131714D01*
X47441714Y-29179333D01*
X47489333Y-29274571D01*
X47489333Y-29798380D01*
X47489333Y-29274571D02*
X47536952Y-29179333D01*
X47632190Y-29131714D01*
X47775047Y-29131714D01*
X47870285Y-29179333D01*
X47917904Y-29274571D01*
X47917904Y-29798380D01*
X48155999Y-29893619D02*
X48917904Y-29893619D01*
X49155999Y-29798380D02*
X49155999Y-28798380D01*
X49489333Y-29512666D01*
X49822666Y-28798380D01*
X49822666Y-29798380D01*
X50203619Y-28798380D02*
X50822666Y-28798380D01*
X50489333Y-29179333D01*
X50632190Y-29179333D01*
X50727428Y-29226952D01*
X50775047Y-29274571D01*
X50822666Y-29369809D01*
X50822666Y-29607904D01*
X50775047Y-29703142D01*
X50727428Y-29750761D01*
X50632190Y-29798380D01*
X50346476Y-29798380D01*
X50251238Y-29750761D01*
X50203619Y-29703142D01*
X40622666Y-25598380D02*
X40289333Y-25122190D01*
X40051238Y-25598380D02*
X40051238Y-24598380D01*
X40432190Y-24598380D01*
X40527428Y-24646000D01*
X40575047Y-24693619D01*
X40622666Y-24788857D01*
X40622666Y-24931714D01*
X40575047Y-25026952D01*
X40527428Y-25074571D01*
X40432190Y-25122190D01*
X40051238Y-25122190D01*
X41051238Y-25074571D02*
X41384571Y-25074571D01*
X41527428Y-25598380D02*
X41051238Y-25598380D01*
X41051238Y-24598380D01*
X41527428Y-24598380D01*
X42289333Y-25074571D02*
X41956000Y-25074571D01*
X41956000Y-25598380D02*
X41956000Y-24598380D01*
X42432190Y-24598380D01*
X42956000Y-24598380D02*
X42956000Y-24836476D01*
X42717904Y-24741238D02*
X42956000Y-24836476D01*
X43194095Y-24741238D01*
X42813142Y-25026952D02*
X42956000Y-24836476D01*
X43098857Y-25026952D01*
X43717904Y-24598380D02*
X43717904Y-24836476D01*
X43479809Y-24741238D02*
X43717904Y-24836476D01*
X43956000Y-24741238D01*
X43575047Y-25026952D02*
X43717904Y-24836476D01*
X43860761Y-25026952D01*
%TO.C,J8*%
X63123904Y-22046142D02*
X63076285Y-22093761D01*
X62933428Y-22141380D01*
X62838190Y-22141380D01*
X62695333Y-22093761D01*
X62600095Y-21998523D01*
X62552476Y-21903285D01*
X62504857Y-21712809D01*
X62504857Y-21569952D01*
X62552476Y-21379476D01*
X62600095Y-21284238D01*
X62695333Y-21189000D01*
X62838190Y-21141380D01*
X62933428Y-21141380D01*
X63076285Y-21189000D01*
X63123904Y-21236619D01*
X63695333Y-22141380D02*
X63600095Y-22093761D01*
X63552476Y-22046142D01*
X63504857Y-21950904D01*
X63504857Y-21665190D01*
X63552476Y-21569952D01*
X63600095Y-21522333D01*
X63695333Y-21474714D01*
X63838190Y-21474714D01*
X63933428Y-21522333D01*
X63981047Y-21569952D01*
X64028666Y-21665190D01*
X64028666Y-21950904D01*
X63981047Y-22046142D01*
X63933428Y-22093761D01*
X63838190Y-22141380D01*
X63695333Y-22141380D01*
X64457238Y-21474714D02*
X64457238Y-22141380D01*
X64457238Y-21569952D02*
X64504857Y-21522333D01*
X64600095Y-21474714D01*
X64742952Y-21474714D01*
X64838190Y-21522333D01*
X64885809Y-21617571D01*
X64885809Y-22141380D01*
X65362000Y-21474714D02*
X65362000Y-22141380D01*
X65362000Y-21569952D02*
X65409619Y-21522333D01*
X65504857Y-21474714D01*
X65647714Y-21474714D01*
X65742952Y-21522333D01*
X65790571Y-21617571D01*
X65790571Y-22141380D01*
X66028666Y-22236619D02*
X66790571Y-22236619D01*
X67219142Y-21141380D02*
X67314380Y-21141380D01*
X67409619Y-21189000D01*
X67457238Y-21236619D01*
X67504857Y-21331857D01*
X67552476Y-21522333D01*
X67552476Y-21760428D01*
X67504857Y-21950904D01*
X67457238Y-22046142D01*
X67409619Y-22093761D01*
X67314380Y-22141380D01*
X67219142Y-22141380D01*
X67123904Y-22093761D01*
X67076285Y-22046142D01*
X67028666Y-21950904D01*
X66981047Y-21760428D01*
X66981047Y-21522333D01*
X67028666Y-21331857D01*
X67076285Y-21236619D01*
X67123904Y-21189000D01*
X67219142Y-21141380D01*
X68504857Y-22141380D02*
X67933428Y-22141380D01*
X68219142Y-22141380D02*
X68219142Y-21141380D01*
X68123904Y-21284238D01*
X68028666Y-21379476D01*
X67933428Y-21427095D01*
X68838190Y-22141380D02*
X69362000Y-21474714D01*
X68838190Y-21474714D02*
X69362000Y-22141380D01*
X69933428Y-21141380D02*
X70028666Y-21141380D01*
X70123904Y-21189000D01*
X70171523Y-21236619D01*
X70219142Y-21331857D01*
X70266761Y-21522333D01*
X70266761Y-21760428D01*
X70219142Y-21950904D01*
X70171523Y-22046142D01*
X70123904Y-22093761D01*
X70028666Y-22141380D01*
X69933428Y-22141380D01*
X69838190Y-22093761D01*
X69790571Y-22046142D01*
X69742952Y-21950904D01*
X69695333Y-21760428D01*
X69695333Y-21522333D01*
X69742952Y-21331857D01*
X69790571Y-21236619D01*
X69838190Y-21189000D01*
X69933428Y-21141380D01*
X71123904Y-21474714D02*
X71123904Y-22141380D01*
X70885809Y-21093761D02*
X70647714Y-21808047D01*
X71266761Y-21808047D01*
X66528666Y-23041380D02*
X66528666Y-23755666D01*
X66481047Y-23898523D01*
X66385809Y-23993761D01*
X66242952Y-24041380D01*
X66147714Y-24041380D01*
X67147714Y-23469952D02*
X67052476Y-23422333D01*
X67004857Y-23374714D01*
X66957238Y-23279476D01*
X66957238Y-23231857D01*
X67004857Y-23136619D01*
X67052476Y-23089000D01*
X67147714Y-23041380D01*
X67338190Y-23041380D01*
X67433428Y-23089000D01*
X67481047Y-23136619D01*
X67528666Y-23231857D01*
X67528666Y-23279476D01*
X67481047Y-23374714D01*
X67433428Y-23422333D01*
X67338190Y-23469952D01*
X67147714Y-23469952D01*
X67052476Y-23517571D01*
X67004857Y-23565190D01*
X66957238Y-23660428D01*
X66957238Y-23850904D01*
X67004857Y-23946142D01*
X67052476Y-23993761D01*
X67147714Y-24041380D01*
X67338190Y-24041380D01*
X67433428Y-23993761D01*
X67481047Y-23946142D01*
X67528666Y-23850904D01*
X67528666Y-23660428D01*
X67481047Y-23565190D01*
X67433428Y-23517571D01*
X67338190Y-23469952D01*
%TO.C,D1*%
X81644380Y-99448857D02*
X81644380Y-99925047D01*
X80644380Y-99925047D01*
X81120571Y-99115523D02*
X81120571Y-98782190D01*
X81644380Y-98639333D02*
X81644380Y-99115523D01*
X80644380Y-99115523D01*
X80644380Y-98639333D01*
X81644380Y-98210761D02*
X80644380Y-98210761D01*
X80644380Y-97972666D01*
X80692000Y-97829809D01*
X80787238Y-97734571D01*
X80882476Y-97686952D01*
X81072952Y-97639333D01*
X81215809Y-97639333D01*
X81406285Y-97686952D01*
X81501523Y-97734571D01*
X81596761Y-97829809D01*
X81644380Y-97972666D01*
X81644380Y-98210761D01*
%TO.C,D2*%
X72119380Y-99575857D02*
X72119380Y-100052047D01*
X71119380Y-100052047D01*
X71595571Y-99242523D02*
X71595571Y-98909190D01*
X72119380Y-98766333D02*
X72119380Y-99242523D01*
X71119380Y-99242523D01*
X71119380Y-98766333D01*
X72119380Y-98337761D02*
X71119380Y-98337761D01*
X71119380Y-98099666D01*
X71167000Y-97956809D01*
X71262238Y-97861571D01*
X71357476Y-97813952D01*
X71547952Y-97766333D01*
X71690809Y-97766333D01*
X71881285Y-97813952D01*
X71976523Y-97861571D01*
X72071761Y-97956809D01*
X72119380Y-98099666D01*
X72119380Y-98337761D01*
%TO.C,D3*%
X61023380Y-98940857D02*
X61023380Y-99417047D01*
X60023380Y-99417047D01*
X60499571Y-98607523D02*
X60499571Y-98274190D01*
X61023380Y-98131333D02*
X61023380Y-98607523D01*
X60023380Y-98607523D01*
X60023380Y-98131333D01*
X61023380Y-97702761D02*
X60023380Y-97702761D01*
X60023380Y-97464666D01*
X60071000Y-97321809D01*
X60166238Y-97226571D01*
X60261476Y-97178952D01*
X60451952Y-97131333D01*
X60594809Y-97131333D01*
X60785285Y-97178952D01*
X60880523Y-97226571D01*
X60975761Y-97321809D01*
X61023380Y-97464666D01*
X61023380Y-97702761D01*
%TO.C,D4*%
X115948142Y-98059380D02*
X115471952Y-98059380D01*
X115471952Y-97059380D01*
X116281476Y-97535571D02*
X116614809Y-97535571D01*
X116757666Y-98059380D02*
X116281476Y-98059380D01*
X116281476Y-97059380D01*
X116757666Y-97059380D01*
X117186238Y-98059380D02*
X117186238Y-97059380D01*
X117424333Y-97059380D01*
X117567190Y-97107000D01*
X117662428Y-97202238D01*
X117710047Y-97297476D01*
X117757666Y-97487952D01*
X117757666Y-97630809D01*
X117710047Y-97821285D01*
X117662428Y-97916523D01*
X117567190Y-98011761D01*
X117424333Y-98059380D01*
X117186238Y-98059380D01*
%TO.C,D5*%
X122099142Y-98059380D02*
X121622952Y-98059380D01*
X121622952Y-97059380D01*
X122432476Y-97535571D02*
X122765809Y-97535571D01*
X122908666Y-98059380D02*
X122432476Y-98059380D01*
X122432476Y-97059380D01*
X122908666Y-97059380D01*
X123337238Y-98059380D02*
X123337238Y-97059380D01*
X123575333Y-97059380D01*
X123718190Y-97107000D01*
X123813428Y-97202238D01*
X123861047Y-97297476D01*
X123908666Y-97487952D01*
X123908666Y-97630809D01*
X123861047Y-97821285D01*
X123813428Y-97916523D01*
X123718190Y-98011761D01*
X123575333Y-98059380D01*
X123337238Y-98059380D01*
%TO.C,D6*%
X58149380Y-68206857D02*
X58149380Y-68683047D01*
X57149380Y-68683047D01*
X57625571Y-67873523D02*
X57625571Y-67540190D01*
X58149380Y-67397333D02*
X58149380Y-67873523D01*
X57149380Y-67873523D01*
X57149380Y-67397333D01*
X58149380Y-66968761D02*
X57149380Y-66968761D01*
X57149380Y-66730666D01*
X57197000Y-66587809D01*
X57292238Y-66492571D01*
X57387476Y-66444952D01*
X57577952Y-66397333D01*
X57720809Y-66397333D01*
X57911285Y-66444952D01*
X58006523Y-66492571D01*
X58101761Y-66587809D01*
X58149380Y-66730666D01*
X58149380Y-66968761D01*
%TO.C,D7*%
X58149380Y-75064857D02*
X58149380Y-75541047D01*
X57149380Y-75541047D01*
X57625571Y-74731523D02*
X57625571Y-74398190D01*
X58149380Y-74255333D02*
X58149380Y-74731523D01*
X57149380Y-74731523D01*
X57149380Y-74255333D01*
X58149380Y-73826761D02*
X57149380Y-73826761D01*
X57149380Y-73588666D01*
X57197000Y-73445809D01*
X57292238Y-73350571D01*
X57387476Y-73302952D01*
X57577952Y-73255333D01*
X57720809Y-73255333D01*
X57911285Y-73302952D01*
X58006523Y-73350571D01*
X58101761Y-73445809D01*
X58149380Y-73588666D01*
X58149380Y-73826761D01*
%TO.C,D8*%
X51879380Y-98940857D02*
X51879380Y-99417047D01*
X50879380Y-99417047D01*
X51355571Y-98607523D02*
X51355571Y-98274190D01*
X51879380Y-98131333D02*
X51879380Y-98607523D01*
X50879380Y-98607523D01*
X50879380Y-98131333D01*
X51879380Y-97702761D02*
X50879380Y-97702761D01*
X50879380Y-97464666D01*
X50927000Y-97321809D01*
X51022238Y-97226571D01*
X51117476Y-97178952D01*
X51307952Y-97131333D01*
X51450809Y-97131333D01*
X51641285Y-97178952D01*
X51736523Y-97226571D01*
X51831761Y-97321809D01*
X51879380Y-97464666D01*
X51879380Y-97702761D01*
%TO.C,D9*%
X57523142Y-48292380D02*
X57046952Y-48292380D01*
X57046952Y-47292380D01*
X57856476Y-47768571D02*
X58189809Y-47768571D01*
X58332666Y-48292380D02*
X57856476Y-48292380D01*
X57856476Y-47292380D01*
X58332666Y-47292380D01*
X58761238Y-48292380D02*
X58761238Y-47292380D01*
X58999333Y-47292380D01*
X59142190Y-47340000D01*
X59237428Y-47435238D01*
X59285047Y-47530476D01*
X59332666Y-47720952D01*
X59332666Y-47863809D01*
X59285047Y-48054285D01*
X59237428Y-48149523D01*
X59142190Y-48244761D01*
X58999333Y-48292380D01*
X58761238Y-48292380D01*
%TO.C,D10*%
X51681142Y-48292380D02*
X51204952Y-48292380D01*
X51204952Y-47292380D01*
X52014476Y-47768571D02*
X52347809Y-47768571D01*
X52490666Y-48292380D02*
X52014476Y-48292380D01*
X52014476Y-47292380D01*
X52490666Y-47292380D01*
X52919238Y-48292380D02*
X52919238Y-47292380D01*
X53157333Y-47292380D01*
X53300190Y-47340000D01*
X53395428Y-47435238D01*
X53443047Y-47530476D01*
X53490666Y-47720952D01*
X53490666Y-47863809D01*
X53443047Y-48054285D01*
X53395428Y-48149523D01*
X53300190Y-48244761D01*
X53157333Y-48292380D01*
X52919238Y-48292380D01*
%TO.C,D11*%
X45966142Y-48292380D02*
X45489952Y-48292380D01*
X45489952Y-47292380D01*
X46299476Y-47768571D02*
X46632809Y-47768571D01*
X46775666Y-48292380D02*
X46299476Y-48292380D01*
X46299476Y-47292380D01*
X46775666Y-47292380D01*
X47204238Y-48292380D02*
X47204238Y-47292380D01*
X47442333Y-47292380D01*
X47585190Y-47340000D01*
X47680428Y-47435238D01*
X47728047Y-47530476D01*
X47775666Y-47720952D01*
X47775666Y-47863809D01*
X47728047Y-48054285D01*
X47680428Y-48149523D01*
X47585190Y-48244761D01*
X47442333Y-48292380D01*
X47204238Y-48292380D01*
%TO.C,D12*%
X40251142Y-48419380D02*
X39774952Y-48419380D01*
X39774952Y-47419380D01*
X40584476Y-47895571D02*
X40917809Y-47895571D01*
X41060666Y-48419380D02*
X40584476Y-48419380D01*
X40584476Y-47419380D01*
X41060666Y-47419380D01*
X41489238Y-48419380D02*
X41489238Y-47419380D01*
X41727333Y-47419380D01*
X41870190Y-47467000D01*
X41965428Y-47562238D01*
X42013047Y-47657476D01*
X42060666Y-47847952D01*
X42060666Y-47990809D01*
X42013047Y-48181285D01*
X41965428Y-48276523D01*
X41870190Y-48371761D01*
X41727333Y-48419380D01*
X41489238Y-48419380D01*
%TO.C,D13*%
X61500380Y-75064857D02*
X61500380Y-75541047D01*
X60500380Y-75541047D01*
X60976571Y-74731523D02*
X60976571Y-74398190D01*
X61500380Y-74255333D02*
X61500380Y-74731523D01*
X60500380Y-74731523D01*
X60500380Y-74255333D01*
X61500380Y-73826761D02*
X60500380Y-73826761D01*
X60500380Y-73588666D01*
X60548000Y-73445809D01*
X60643238Y-73350571D01*
X60738476Y-73302952D01*
X60928952Y-73255333D01*
X61071809Y-73255333D01*
X61262285Y-73302952D01*
X61357523Y-73350571D01*
X61452761Y-73445809D01*
X61500380Y-73588666D01*
X61500380Y-73826761D01*
%TO.C,D14*%
X67420380Y-68206857D02*
X67420380Y-68683047D01*
X66420380Y-68683047D01*
X66896571Y-67873523D02*
X66896571Y-67540190D01*
X67420380Y-67397333D02*
X67420380Y-67873523D01*
X66420380Y-67873523D01*
X66420380Y-67397333D01*
X67420380Y-66968761D02*
X66420380Y-66968761D01*
X66420380Y-66730666D01*
X66468000Y-66587809D01*
X66563238Y-66492571D01*
X66658476Y-66444952D01*
X66848952Y-66397333D01*
X66991809Y-66397333D01*
X67182285Y-66444952D01*
X67277523Y-66492571D01*
X67372761Y-66587809D01*
X67420380Y-66730666D01*
X67420380Y-66968761D01*
%TO.C,D15*%
X79875142Y-48292380D02*
X79398952Y-48292380D01*
X79398952Y-47292380D01*
X80208476Y-47768571D02*
X80541809Y-47768571D01*
X80684666Y-48292380D02*
X80208476Y-48292380D01*
X80208476Y-47292380D01*
X80684666Y-47292380D01*
X81113238Y-48292380D02*
X81113238Y-47292380D01*
X81351333Y-47292380D01*
X81494190Y-47340000D01*
X81589428Y-47435238D01*
X81637047Y-47530476D01*
X81684666Y-47720952D01*
X81684666Y-47863809D01*
X81637047Y-48054285D01*
X81589428Y-48149523D01*
X81494190Y-48244761D01*
X81351333Y-48292380D01*
X81113238Y-48292380D01*
%TO.C,D16*%
X74287142Y-48292380D02*
X73810952Y-48292380D01*
X73810952Y-47292380D01*
X74620476Y-47768571D02*
X74953809Y-47768571D01*
X75096666Y-48292380D02*
X74620476Y-48292380D01*
X74620476Y-47292380D01*
X75096666Y-47292380D01*
X75525238Y-48292380D02*
X75525238Y-47292380D01*
X75763333Y-47292380D01*
X75906190Y-47340000D01*
X76001428Y-47435238D01*
X76049047Y-47530476D01*
X76096666Y-47720952D01*
X76096666Y-47863809D01*
X76049047Y-48054285D01*
X76001428Y-48149523D01*
X75906190Y-48244761D01*
X75763333Y-48292380D01*
X75525238Y-48292380D01*
%TO.C,D17*%
X68699142Y-48292380D02*
X68222952Y-48292380D01*
X68222952Y-47292380D01*
X69032476Y-47768571D02*
X69365809Y-47768571D01*
X69508666Y-48292380D02*
X69032476Y-48292380D01*
X69032476Y-47292380D01*
X69508666Y-47292380D01*
X69937238Y-48292380D02*
X69937238Y-47292380D01*
X70175333Y-47292380D01*
X70318190Y-47340000D01*
X70413428Y-47435238D01*
X70461047Y-47530476D01*
X70508666Y-47720952D01*
X70508666Y-47863809D01*
X70461047Y-48054285D01*
X70413428Y-48149523D01*
X70318190Y-48244761D01*
X70175333Y-48292380D01*
X69937238Y-48292380D01*
%TO.C,D18*%
X63238142Y-48292380D02*
X62761952Y-48292380D01*
X62761952Y-47292380D01*
X63571476Y-47768571D02*
X63904809Y-47768571D01*
X64047666Y-48292380D02*
X63571476Y-48292380D01*
X63571476Y-47292380D01*
X64047666Y-47292380D01*
X64476238Y-48292380D02*
X64476238Y-47292380D01*
X64714333Y-47292380D01*
X64857190Y-47340000D01*
X64952428Y-47435238D01*
X65000047Y-47530476D01*
X65047666Y-47720952D01*
X65047666Y-47863809D01*
X65000047Y-48054285D01*
X64952428Y-48149523D01*
X64857190Y-48244761D01*
X64714333Y-48292380D01*
X64476238Y-48292380D01*
%TO.C,J1*%
X69861904Y-118495142D02*
X69814285Y-118542761D01*
X69671428Y-118590380D01*
X69576190Y-118590380D01*
X69433333Y-118542761D01*
X69338095Y-118447523D01*
X69290476Y-118352285D01*
X69242857Y-118161809D01*
X69242857Y-118018952D01*
X69290476Y-117828476D01*
X69338095Y-117733238D01*
X69433333Y-117638000D01*
X69576190Y-117590380D01*
X69671428Y-117590380D01*
X69814285Y-117638000D01*
X69861904Y-117685619D01*
X70433333Y-118590380D02*
X70338095Y-118542761D01*
X70290476Y-118495142D01*
X70242857Y-118399904D01*
X70242857Y-118114190D01*
X70290476Y-118018952D01*
X70338095Y-117971333D01*
X70433333Y-117923714D01*
X70576190Y-117923714D01*
X70671428Y-117971333D01*
X70719047Y-118018952D01*
X70766666Y-118114190D01*
X70766666Y-118399904D01*
X70719047Y-118495142D01*
X70671428Y-118542761D01*
X70576190Y-118590380D01*
X70433333Y-118590380D01*
X71195238Y-117923714D02*
X71195238Y-118590380D01*
X71195238Y-118018952D02*
X71242857Y-117971333D01*
X71338095Y-117923714D01*
X71480952Y-117923714D01*
X71576190Y-117971333D01*
X71623809Y-118066571D01*
X71623809Y-118590380D01*
X72100000Y-117923714D02*
X72100000Y-118590380D01*
X72100000Y-118018952D02*
X72147619Y-117971333D01*
X72242857Y-117923714D01*
X72385714Y-117923714D01*
X72480952Y-117971333D01*
X72528571Y-118066571D01*
X72528571Y-118590380D01*
X72766666Y-118685619D02*
X73528571Y-118685619D01*
X73957142Y-117590380D02*
X74052380Y-117590380D01*
X74147619Y-117638000D01*
X74195238Y-117685619D01*
X74242857Y-117780857D01*
X74290476Y-117971333D01*
X74290476Y-118209428D01*
X74242857Y-118399904D01*
X74195238Y-118495142D01*
X74147619Y-118542761D01*
X74052380Y-118590380D01*
X73957142Y-118590380D01*
X73861904Y-118542761D01*
X73814285Y-118495142D01*
X73766666Y-118399904D01*
X73719047Y-118209428D01*
X73719047Y-117971333D01*
X73766666Y-117780857D01*
X73814285Y-117685619D01*
X73861904Y-117638000D01*
X73957142Y-117590380D01*
X75242857Y-118590380D02*
X74671428Y-118590380D01*
X74957142Y-118590380D02*
X74957142Y-117590380D01*
X74861904Y-117733238D01*
X74766666Y-117828476D01*
X74671428Y-117876095D01*
X75576190Y-118590380D02*
X76100000Y-117923714D01*
X75576190Y-117923714D02*
X76100000Y-118590380D01*
X76671428Y-117590380D02*
X76766666Y-117590380D01*
X76861904Y-117638000D01*
X76909523Y-117685619D01*
X76957142Y-117780857D01*
X77004761Y-117971333D01*
X77004761Y-118209428D01*
X76957142Y-118399904D01*
X76909523Y-118495142D01*
X76861904Y-118542761D01*
X76766666Y-118590380D01*
X76671428Y-118590380D01*
X76576190Y-118542761D01*
X76528571Y-118495142D01*
X76480952Y-118399904D01*
X76433333Y-118209428D01*
X76433333Y-117971333D01*
X76480952Y-117780857D01*
X76528571Y-117685619D01*
X76576190Y-117638000D01*
X76671428Y-117590380D01*
X77861904Y-117923714D02*
X77861904Y-118590380D01*
X77623809Y-117542761D02*
X77385714Y-118257047D01*
X78004761Y-118257047D01*
X73266666Y-115690380D02*
X73266666Y-116404666D01*
X73219047Y-116547523D01*
X73123809Y-116642761D01*
X72980952Y-116690380D01*
X72885714Y-116690380D01*
X74266666Y-116690380D02*
X73695238Y-116690380D01*
X73980952Y-116690380D02*
X73980952Y-115690380D01*
X73885714Y-115833238D01*
X73790476Y-115928476D01*
X73695238Y-115976095D01*
%TO.C,J2*%
X49621904Y-118368142D02*
X49574285Y-118415761D01*
X49431428Y-118463380D01*
X49336190Y-118463380D01*
X49193333Y-118415761D01*
X49098095Y-118320523D01*
X49050476Y-118225285D01*
X49002857Y-118034809D01*
X49002857Y-117891952D01*
X49050476Y-117701476D01*
X49098095Y-117606238D01*
X49193333Y-117511000D01*
X49336190Y-117463380D01*
X49431428Y-117463380D01*
X49574285Y-117511000D01*
X49621904Y-117558619D01*
X50193333Y-118463380D02*
X50098095Y-118415761D01*
X50050476Y-118368142D01*
X50002857Y-118272904D01*
X50002857Y-117987190D01*
X50050476Y-117891952D01*
X50098095Y-117844333D01*
X50193333Y-117796714D01*
X50336190Y-117796714D01*
X50431428Y-117844333D01*
X50479047Y-117891952D01*
X50526666Y-117987190D01*
X50526666Y-118272904D01*
X50479047Y-118368142D01*
X50431428Y-118415761D01*
X50336190Y-118463380D01*
X50193333Y-118463380D01*
X50955238Y-117796714D02*
X50955238Y-118463380D01*
X50955238Y-117891952D02*
X51002857Y-117844333D01*
X51098095Y-117796714D01*
X51240952Y-117796714D01*
X51336190Y-117844333D01*
X51383809Y-117939571D01*
X51383809Y-118463380D01*
X51860000Y-117796714D02*
X51860000Y-118463380D01*
X51860000Y-117891952D02*
X51907619Y-117844333D01*
X52002857Y-117796714D01*
X52145714Y-117796714D01*
X52240952Y-117844333D01*
X52288571Y-117939571D01*
X52288571Y-118463380D01*
X52526666Y-118558619D02*
X53288571Y-118558619D01*
X53717142Y-117463380D02*
X53812380Y-117463380D01*
X53907619Y-117511000D01*
X53955238Y-117558619D01*
X54002857Y-117653857D01*
X54050476Y-117844333D01*
X54050476Y-118082428D01*
X54002857Y-118272904D01*
X53955238Y-118368142D01*
X53907619Y-118415761D01*
X53812380Y-118463380D01*
X53717142Y-118463380D01*
X53621904Y-118415761D01*
X53574285Y-118368142D01*
X53526666Y-118272904D01*
X53479047Y-118082428D01*
X53479047Y-117844333D01*
X53526666Y-117653857D01*
X53574285Y-117558619D01*
X53621904Y-117511000D01*
X53717142Y-117463380D01*
X55002857Y-118463380D02*
X54431428Y-118463380D01*
X54717142Y-118463380D02*
X54717142Y-117463380D01*
X54621904Y-117606238D01*
X54526666Y-117701476D01*
X54431428Y-117749095D01*
X55336190Y-118463380D02*
X55860000Y-117796714D01*
X55336190Y-117796714D02*
X55860000Y-118463380D01*
X56431428Y-117463380D02*
X56526666Y-117463380D01*
X56621904Y-117511000D01*
X56669523Y-117558619D01*
X56717142Y-117653857D01*
X56764761Y-117844333D01*
X56764761Y-118082428D01*
X56717142Y-118272904D01*
X56669523Y-118368142D01*
X56621904Y-118415761D01*
X56526666Y-118463380D01*
X56431428Y-118463380D01*
X56336190Y-118415761D01*
X56288571Y-118368142D01*
X56240952Y-118272904D01*
X56193333Y-118082428D01*
X56193333Y-117844333D01*
X56240952Y-117653857D01*
X56288571Y-117558619D01*
X56336190Y-117511000D01*
X56431428Y-117463380D01*
X57621904Y-117796714D02*
X57621904Y-118463380D01*
X57383809Y-117415761D02*
X57145714Y-118130047D01*
X57764761Y-118130047D01*
X53026666Y-115563380D02*
X53026666Y-116277666D01*
X52979047Y-116420523D01*
X52883809Y-116515761D01*
X52740952Y-116563380D01*
X52645714Y-116563380D01*
X53455238Y-115658619D02*
X53502857Y-115611000D01*
X53598095Y-115563380D01*
X53836190Y-115563380D01*
X53931428Y-115611000D01*
X53979047Y-115658619D01*
X54026666Y-115753857D01*
X54026666Y-115849095D01*
X53979047Y-115991952D01*
X53407619Y-116563380D01*
X54026666Y-116563380D01*
%TO.C,J3*%
X115641904Y-116700142D02*
X115594285Y-116747761D01*
X115451428Y-116795380D01*
X115356190Y-116795380D01*
X115213333Y-116747761D01*
X115118095Y-116652523D01*
X115070476Y-116557285D01*
X115022857Y-116366809D01*
X115022857Y-116223952D01*
X115070476Y-116033476D01*
X115118095Y-115938238D01*
X115213333Y-115843000D01*
X115356190Y-115795380D01*
X115451428Y-115795380D01*
X115594285Y-115843000D01*
X115641904Y-115890619D01*
X116213333Y-116795380D02*
X116118095Y-116747761D01*
X116070476Y-116700142D01*
X116022857Y-116604904D01*
X116022857Y-116319190D01*
X116070476Y-116223952D01*
X116118095Y-116176333D01*
X116213333Y-116128714D01*
X116356190Y-116128714D01*
X116451428Y-116176333D01*
X116499047Y-116223952D01*
X116546666Y-116319190D01*
X116546666Y-116604904D01*
X116499047Y-116700142D01*
X116451428Y-116747761D01*
X116356190Y-116795380D01*
X116213333Y-116795380D01*
X116975238Y-116128714D02*
X116975238Y-116795380D01*
X116975238Y-116223952D02*
X117022857Y-116176333D01*
X117118095Y-116128714D01*
X117260952Y-116128714D01*
X117356190Y-116176333D01*
X117403809Y-116271571D01*
X117403809Y-116795380D01*
X117880000Y-116128714D02*
X117880000Y-116795380D01*
X117880000Y-116223952D02*
X117927619Y-116176333D01*
X118022857Y-116128714D01*
X118165714Y-116128714D01*
X118260952Y-116176333D01*
X118308571Y-116271571D01*
X118308571Y-116795380D01*
X118546666Y-116890619D02*
X119308571Y-116890619D01*
X119737142Y-115795380D02*
X119832380Y-115795380D01*
X119927619Y-115843000D01*
X119975238Y-115890619D01*
X120022857Y-115985857D01*
X120070476Y-116176333D01*
X120070476Y-116414428D01*
X120022857Y-116604904D01*
X119975238Y-116700142D01*
X119927619Y-116747761D01*
X119832380Y-116795380D01*
X119737142Y-116795380D01*
X119641904Y-116747761D01*
X119594285Y-116700142D01*
X119546666Y-116604904D01*
X119499047Y-116414428D01*
X119499047Y-116176333D01*
X119546666Y-115985857D01*
X119594285Y-115890619D01*
X119641904Y-115843000D01*
X119737142Y-115795380D01*
X121022857Y-116795380D02*
X120451428Y-116795380D01*
X120737142Y-116795380D02*
X120737142Y-115795380D01*
X120641904Y-115938238D01*
X120546666Y-116033476D01*
X120451428Y-116081095D01*
X121356190Y-116795380D02*
X121880000Y-116128714D01*
X121356190Y-116128714D02*
X121880000Y-116795380D01*
X122451428Y-115795380D02*
X122546666Y-115795380D01*
X122641904Y-115843000D01*
X122689523Y-115890619D01*
X122737142Y-115985857D01*
X122784761Y-116176333D01*
X122784761Y-116414428D01*
X122737142Y-116604904D01*
X122689523Y-116700142D01*
X122641904Y-116747761D01*
X122546666Y-116795380D01*
X122451428Y-116795380D01*
X122356190Y-116747761D01*
X122308571Y-116700142D01*
X122260952Y-116604904D01*
X122213333Y-116414428D01*
X122213333Y-116176333D01*
X122260952Y-115985857D01*
X122308571Y-115890619D01*
X122356190Y-115843000D01*
X122451428Y-115795380D01*
X123641904Y-116128714D02*
X123641904Y-116795380D01*
X123403809Y-115747761D02*
X123165714Y-116462047D01*
X123784761Y-116462047D01*
X119046666Y-113895380D02*
X119046666Y-114609666D01*
X118999047Y-114752523D01*
X118903809Y-114847761D01*
X118760952Y-114895380D01*
X118665714Y-114895380D01*
X119427619Y-113895380D02*
X120046666Y-113895380D01*
X119713333Y-114276333D01*
X119856190Y-114276333D01*
X119951428Y-114323952D01*
X119999047Y-114371571D01*
X120046666Y-114466809D01*
X120046666Y-114704904D01*
X119999047Y-114800142D01*
X119951428Y-114847761D01*
X119856190Y-114895380D01*
X119570476Y-114895380D01*
X119475238Y-114847761D01*
X119427619Y-114800142D01*
%TO.C,J4*%
X39064142Y-74798095D02*
X39111761Y-74845714D01*
X39159380Y-74988571D01*
X39159380Y-75083809D01*
X39111761Y-75226666D01*
X39016523Y-75321904D01*
X38921285Y-75369523D01*
X38730809Y-75417142D01*
X38587952Y-75417142D01*
X38397476Y-75369523D01*
X38302238Y-75321904D01*
X38207000Y-75226666D01*
X38159380Y-75083809D01*
X38159380Y-74988571D01*
X38207000Y-74845714D01*
X38254619Y-74798095D01*
X39159380Y-74226666D02*
X39111761Y-74321904D01*
X39064142Y-74369523D01*
X38968904Y-74417142D01*
X38683190Y-74417142D01*
X38587952Y-74369523D01*
X38540333Y-74321904D01*
X38492714Y-74226666D01*
X38492714Y-74083809D01*
X38540333Y-73988571D01*
X38587952Y-73940952D01*
X38683190Y-73893333D01*
X38968904Y-73893333D01*
X39064142Y-73940952D01*
X39111761Y-73988571D01*
X39159380Y-74083809D01*
X39159380Y-74226666D01*
X38492714Y-73464761D02*
X39159380Y-73464761D01*
X38587952Y-73464761D02*
X38540333Y-73417142D01*
X38492714Y-73321904D01*
X38492714Y-73179047D01*
X38540333Y-73083809D01*
X38635571Y-73036190D01*
X39159380Y-73036190D01*
X38492714Y-72560000D02*
X39159380Y-72560000D01*
X38587952Y-72560000D02*
X38540333Y-72512380D01*
X38492714Y-72417142D01*
X38492714Y-72274285D01*
X38540333Y-72179047D01*
X38635571Y-72131428D01*
X39159380Y-72131428D01*
X39254619Y-71893333D02*
X39254619Y-71131428D01*
X38159380Y-70702857D02*
X38159380Y-70607619D01*
X38207000Y-70512380D01*
X38254619Y-70464761D01*
X38349857Y-70417142D01*
X38540333Y-70369523D01*
X38778428Y-70369523D01*
X38968904Y-70417142D01*
X39064142Y-70464761D01*
X39111761Y-70512380D01*
X39159380Y-70607619D01*
X39159380Y-70702857D01*
X39111761Y-70798095D01*
X39064142Y-70845714D01*
X38968904Y-70893333D01*
X38778428Y-70940952D01*
X38540333Y-70940952D01*
X38349857Y-70893333D01*
X38254619Y-70845714D01*
X38207000Y-70798095D01*
X38159380Y-70702857D01*
X39159380Y-69417142D02*
X39159380Y-69988571D01*
X39159380Y-69702857D02*
X38159380Y-69702857D01*
X38302238Y-69798095D01*
X38397476Y-69893333D01*
X38445095Y-69988571D01*
X39159380Y-69083809D02*
X38492714Y-68560000D01*
X38492714Y-69083809D02*
X39159380Y-68560000D01*
X38159380Y-67988571D02*
X38159380Y-67893333D01*
X38207000Y-67798095D01*
X38254619Y-67750476D01*
X38349857Y-67702857D01*
X38540333Y-67655238D01*
X38778428Y-67655238D01*
X38968904Y-67702857D01*
X39064142Y-67750476D01*
X39111761Y-67798095D01*
X39159380Y-67893333D01*
X39159380Y-67988571D01*
X39111761Y-68083809D01*
X39064142Y-68131428D01*
X38968904Y-68179047D01*
X38778428Y-68226666D01*
X38540333Y-68226666D01*
X38349857Y-68179047D01*
X38254619Y-68131428D01*
X38207000Y-68083809D01*
X38159380Y-67988571D01*
X38492714Y-66798095D02*
X39159380Y-66798095D01*
X38111761Y-67036190D02*
X38826047Y-67274285D01*
X38826047Y-66655238D01*
X40059380Y-71393333D02*
X40773666Y-71393333D01*
X40916523Y-71440952D01*
X41011761Y-71536190D01*
X41059380Y-71679047D01*
X41059380Y-71774285D01*
X40392714Y-70488571D02*
X41059380Y-70488571D01*
X40011761Y-70726666D02*
X40726047Y-70964761D01*
X40726047Y-70345714D01*
%TO.C,J5*%
X95341904Y-116336142D02*
X95294285Y-116383761D01*
X95151428Y-116431380D01*
X95056190Y-116431380D01*
X94913333Y-116383761D01*
X94818095Y-116288523D01*
X94770476Y-116193285D01*
X94722857Y-116002809D01*
X94722857Y-115859952D01*
X94770476Y-115669476D01*
X94818095Y-115574238D01*
X94913333Y-115479000D01*
X95056190Y-115431380D01*
X95151428Y-115431380D01*
X95294285Y-115479000D01*
X95341904Y-115526619D01*
X95913333Y-116431380D02*
X95818095Y-116383761D01*
X95770476Y-116336142D01*
X95722857Y-116240904D01*
X95722857Y-115955190D01*
X95770476Y-115859952D01*
X95818095Y-115812333D01*
X95913333Y-115764714D01*
X96056190Y-115764714D01*
X96151428Y-115812333D01*
X96199047Y-115859952D01*
X96246666Y-115955190D01*
X96246666Y-116240904D01*
X96199047Y-116336142D01*
X96151428Y-116383761D01*
X96056190Y-116431380D01*
X95913333Y-116431380D01*
X96675238Y-115764714D02*
X96675238Y-116431380D01*
X96675238Y-115859952D02*
X96722857Y-115812333D01*
X96818095Y-115764714D01*
X96960952Y-115764714D01*
X97056190Y-115812333D01*
X97103809Y-115907571D01*
X97103809Y-116431380D01*
X97580000Y-115764714D02*
X97580000Y-116431380D01*
X97580000Y-115859952D02*
X97627619Y-115812333D01*
X97722857Y-115764714D01*
X97865714Y-115764714D01*
X97960952Y-115812333D01*
X98008571Y-115907571D01*
X98008571Y-116431380D01*
X98246666Y-116526619D02*
X99008571Y-116526619D01*
X99437142Y-115431380D02*
X99532380Y-115431380D01*
X99627619Y-115479000D01*
X99675238Y-115526619D01*
X99722857Y-115621857D01*
X99770476Y-115812333D01*
X99770476Y-116050428D01*
X99722857Y-116240904D01*
X99675238Y-116336142D01*
X99627619Y-116383761D01*
X99532380Y-116431380D01*
X99437142Y-116431380D01*
X99341904Y-116383761D01*
X99294285Y-116336142D01*
X99246666Y-116240904D01*
X99199047Y-116050428D01*
X99199047Y-115812333D01*
X99246666Y-115621857D01*
X99294285Y-115526619D01*
X99341904Y-115479000D01*
X99437142Y-115431380D01*
X100722857Y-116431380D02*
X100151428Y-116431380D01*
X100437142Y-116431380D02*
X100437142Y-115431380D01*
X100341904Y-115574238D01*
X100246666Y-115669476D01*
X100151428Y-115717095D01*
X101056190Y-116431380D02*
X101580000Y-115764714D01*
X101056190Y-115764714D02*
X101580000Y-116431380D01*
X102151428Y-115431380D02*
X102246666Y-115431380D01*
X102341904Y-115479000D01*
X102389523Y-115526619D01*
X102437142Y-115621857D01*
X102484761Y-115812333D01*
X102484761Y-116050428D01*
X102437142Y-116240904D01*
X102389523Y-116336142D01*
X102341904Y-116383761D01*
X102246666Y-116431380D01*
X102151428Y-116431380D01*
X102056190Y-116383761D01*
X102008571Y-116336142D01*
X101960952Y-116240904D01*
X101913333Y-116050428D01*
X101913333Y-115812333D01*
X101960952Y-115621857D01*
X102008571Y-115526619D01*
X102056190Y-115479000D01*
X102151428Y-115431380D01*
X103341904Y-115764714D02*
X103341904Y-116431380D01*
X103103809Y-115383761D02*
X102865714Y-116098047D01*
X103484761Y-116098047D01*
X98746666Y-113531380D02*
X98746666Y-114245666D01*
X98699047Y-114388523D01*
X98603809Y-114483761D01*
X98460952Y-114531380D01*
X98365714Y-114531380D01*
X99699047Y-113531380D02*
X99222857Y-113531380D01*
X99175238Y-114007571D01*
X99222857Y-113959952D01*
X99318095Y-113912333D01*
X99556190Y-113912333D01*
X99651428Y-113959952D01*
X99699047Y-114007571D01*
X99746666Y-114102809D01*
X99746666Y-114340904D01*
X99699047Y-114436142D01*
X99651428Y-114483761D01*
X99556190Y-114531380D01*
X99318095Y-114531380D01*
X99222857Y-114483761D01*
X99175238Y-114436142D01*
%TO.C,R1*%
X81350619Y-107029095D02*
X81303000Y-106981476D01*
X81255380Y-106886238D01*
X81255380Y-106648142D01*
X81303000Y-106552904D01*
X81350619Y-106505285D01*
X81445857Y-106457666D01*
X81541095Y-106457666D01*
X81683952Y-106505285D01*
X82255380Y-107076714D01*
X82255380Y-106457666D01*
X81350619Y-106076714D02*
X81303000Y-106029095D01*
X81255380Y-105933857D01*
X81255380Y-105695761D01*
X81303000Y-105600523D01*
X81350619Y-105552904D01*
X81445857Y-105505285D01*
X81541095Y-105505285D01*
X81683952Y-105552904D01*
X82255380Y-106124333D01*
X82255380Y-105505285D01*
X81255380Y-104886238D02*
X81255380Y-104791000D01*
X81303000Y-104695761D01*
X81350619Y-104648142D01*
X81445857Y-104600523D01*
X81636333Y-104552904D01*
X81874428Y-104552904D01*
X82064904Y-104600523D01*
X82160142Y-104648142D01*
X82207761Y-104695761D01*
X82255380Y-104791000D01*
X82255380Y-104886238D01*
X82207761Y-104981476D01*
X82160142Y-105029095D01*
X82064904Y-105076714D01*
X81874428Y-105124333D01*
X81636333Y-105124333D01*
X81445857Y-105076714D01*
X81350619Y-105029095D01*
X81303000Y-104981476D01*
X81255380Y-104886238D01*
X78415380Y-105957666D02*
X77939190Y-106291000D01*
X78415380Y-106529095D02*
X77415380Y-106529095D01*
X77415380Y-106148142D01*
X77463000Y-106052904D01*
X77510619Y-106005285D01*
X77605857Y-105957666D01*
X77748714Y-105957666D01*
X77843952Y-106005285D01*
X77891571Y-106052904D01*
X77939190Y-106148142D01*
X77939190Y-106529095D01*
X78415380Y-105005285D02*
X78415380Y-105576714D01*
X78415380Y-105291000D02*
X77415380Y-105291000D01*
X77558238Y-105386238D01*
X77653476Y-105481476D01*
X77701095Y-105576714D01*
%TO.C,R2*%
X71937619Y-104616095D02*
X71890000Y-104568476D01*
X71842380Y-104473238D01*
X71842380Y-104235142D01*
X71890000Y-104139904D01*
X71937619Y-104092285D01*
X72032857Y-104044666D01*
X72128095Y-104044666D01*
X72270952Y-104092285D01*
X72842380Y-104663714D01*
X72842380Y-104044666D01*
X71937619Y-103663714D02*
X71890000Y-103616095D01*
X71842380Y-103520857D01*
X71842380Y-103282761D01*
X71890000Y-103187523D01*
X71937619Y-103139904D01*
X72032857Y-103092285D01*
X72128095Y-103092285D01*
X72270952Y-103139904D01*
X72842380Y-103711333D01*
X72842380Y-103092285D01*
X71842380Y-102473238D02*
X71842380Y-102378000D01*
X71890000Y-102282761D01*
X71937619Y-102235142D01*
X72032857Y-102187523D01*
X72223333Y-102139904D01*
X72461428Y-102139904D01*
X72651904Y-102187523D01*
X72747142Y-102235142D01*
X72794761Y-102282761D01*
X72842380Y-102378000D01*
X72842380Y-102473238D01*
X72794761Y-102568476D01*
X72747142Y-102616095D01*
X72651904Y-102663714D01*
X72461428Y-102711333D01*
X72223333Y-102711333D01*
X72032857Y-102663714D01*
X71937619Y-102616095D01*
X71890000Y-102568476D01*
X71842380Y-102473238D01*
X72730380Y-106084666D02*
X72254190Y-106418000D01*
X72730380Y-106656095D02*
X71730380Y-106656095D01*
X71730380Y-106275142D01*
X71778000Y-106179904D01*
X71825619Y-106132285D01*
X71920857Y-106084666D01*
X72063714Y-106084666D01*
X72158952Y-106132285D01*
X72206571Y-106179904D01*
X72254190Y-106275142D01*
X72254190Y-106656095D01*
X71825619Y-105703714D02*
X71778000Y-105656095D01*
X71730380Y-105560857D01*
X71730380Y-105322761D01*
X71778000Y-105227523D01*
X71825619Y-105179904D01*
X71920857Y-105132285D01*
X72016095Y-105132285D01*
X72158952Y-105179904D01*
X72730380Y-105751333D01*
X72730380Y-105132285D01*
%TO.C,R3*%
X60714619Y-109188095D02*
X60667000Y-109140476D01*
X60619380Y-109045238D01*
X60619380Y-108807142D01*
X60667000Y-108711904D01*
X60714619Y-108664285D01*
X60809857Y-108616666D01*
X60905095Y-108616666D01*
X61047952Y-108664285D01*
X61619380Y-109235714D01*
X61619380Y-108616666D01*
X60714619Y-108235714D02*
X60667000Y-108188095D01*
X60619380Y-108092857D01*
X60619380Y-107854761D01*
X60667000Y-107759523D01*
X60714619Y-107711904D01*
X60809857Y-107664285D01*
X60905095Y-107664285D01*
X61047952Y-107711904D01*
X61619380Y-108283333D01*
X61619380Y-107664285D01*
X60619380Y-107045238D02*
X60619380Y-106950000D01*
X60667000Y-106854761D01*
X60714619Y-106807142D01*
X60809857Y-106759523D01*
X61000333Y-106711904D01*
X61238428Y-106711904D01*
X61428904Y-106759523D01*
X61524142Y-106807142D01*
X61571761Y-106854761D01*
X61619380Y-106950000D01*
X61619380Y-107045238D01*
X61571761Y-107140476D01*
X61524142Y-107188095D01*
X61428904Y-107235714D01*
X61238428Y-107283333D01*
X61000333Y-107283333D01*
X60809857Y-107235714D01*
X60714619Y-107188095D01*
X60667000Y-107140476D01*
X60619380Y-107045238D01*
X61507380Y-105830666D02*
X61031190Y-106164000D01*
X61507380Y-106402095D02*
X60507380Y-106402095D01*
X60507380Y-106021142D01*
X60555000Y-105925904D01*
X60602619Y-105878285D01*
X60697857Y-105830666D01*
X60840714Y-105830666D01*
X60935952Y-105878285D01*
X60983571Y-105925904D01*
X61031190Y-106021142D01*
X61031190Y-106402095D01*
X60507380Y-105497333D02*
X60507380Y-104878285D01*
X60888333Y-105211619D01*
X60888333Y-105068761D01*
X60935952Y-104973523D01*
X60983571Y-104925904D01*
X61078809Y-104878285D01*
X61316904Y-104878285D01*
X61412142Y-104925904D01*
X61459761Y-104973523D01*
X61507380Y-105068761D01*
X61507380Y-105354476D01*
X61459761Y-105449714D01*
X61412142Y-105497333D01*
%TO.C,R4*%
X114645904Y-104290619D02*
X114693523Y-104243000D01*
X114788761Y-104195380D01*
X115026857Y-104195380D01*
X115122095Y-104243000D01*
X115169714Y-104290619D01*
X115217333Y-104385857D01*
X115217333Y-104481095D01*
X115169714Y-104623952D01*
X114598285Y-105195380D01*
X115217333Y-105195380D01*
X115598285Y-104290619D02*
X115645904Y-104243000D01*
X115741142Y-104195380D01*
X115979238Y-104195380D01*
X116074476Y-104243000D01*
X116122095Y-104290619D01*
X116169714Y-104385857D01*
X116169714Y-104481095D01*
X116122095Y-104623952D01*
X115550666Y-105195380D01*
X116169714Y-105195380D01*
X116788761Y-104195380D02*
X116884000Y-104195380D01*
X116979238Y-104243000D01*
X117026857Y-104290619D01*
X117074476Y-104385857D01*
X117122095Y-104576333D01*
X117122095Y-104814428D01*
X117074476Y-105004904D01*
X117026857Y-105100142D01*
X116979238Y-105147761D01*
X116884000Y-105195380D01*
X116788761Y-105195380D01*
X116693523Y-105147761D01*
X116645904Y-105100142D01*
X116598285Y-105004904D01*
X116550666Y-104814428D01*
X116550666Y-104576333D01*
X116598285Y-104385857D01*
X116645904Y-104290619D01*
X116693523Y-104243000D01*
X116788761Y-104195380D01*
X115717333Y-109035380D02*
X115384000Y-108559190D01*
X115145904Y-109035380D02*
X115145904Y-108035380D01*
X115526857Y-108035380D01*
X115622095Y-108083000D01*
X115669714Y-108130619D01*
X115717333Y-108225857D01*
X115717333Y-108368714D01*
X115669714Y-108463952D01*
X115622095Y-108511571D01*
X115526857Y-108559190D01*
X115145904Y-108559190D01*
X116574476Y-108368714D02*
X116574476Y-109035380D01*
X116336380Y-107987761D02*
X116098285Y-108702047D01*
X116717333Y-108702047D01*
%TO.C,R5*%
X121249904Y-104290619D02*
X121297523Y-104243000D01*
X121392761Y-104195380D01*
X121630857Y-104195380D01*
X121726095Y-104243000D01*
X121773714Y-104290619D01*
X121821333Y-104385857D01*
X121821333Y-104481095D01*
X121773714Y-104623952D01*
X121202285Y-105195380D01*
X121821333Y-105195380D01*
X122202285Y-104290619D02*
X122249904Y-104243000D01*
X122345142Y-104195380D01*
X122583238Y-104195380D01*
X122678476Y-104243000D01*
X122726095Y-104290619D01*
X122773714Y-104385857D01*
X122773714Y-104481095D01*
X122726095Y-104623952D01*
X122154666Y-105195380D01*
X122773714Y-105195380D01*
X123392761Y-104195380D02*
X123488000Y-104195380D01*
X123583238Y-104243000D01*
X123630857Y-104290619D01*
X123678476Y-104385857D01*
X123726095Y-104576333D01*
X123726095Y-104814428D01*
X123678476Y-105004904D01*
X123630857Y-105100142D01*
X123583238Y-105147761D01*
X123488000Y-105195380D01*
X123392761Y-105195380D01*
X123297523Y-105147761D01*
X123249904Y-105100142D01*
X123202285Y-105004904D01*
X123154666Y-104814428D01*
X123154666Y-104576333D01*
X123202285Y-104385857D01*
X123249904Y-104290619D01*
X123297523Y-104243000D01*
X123392761Y-104195380D01*
X122321333Y-109035380D02*
X121988000Y-108559190D01*
X121749904Y-109035380D02*
X121749904Y-108035380D01*
X122130857Y-108035380D01*
X122226095Y-108083000D01*
X122273714Y-108130619D01*
X122321333Y-108225857D01*
X122321333Y-108368714D01*
X122273714Y-108463952D01*
X122226095Y-108511571D01*
X122130857Y-108559190D01*
X121749904Y-108559190D01*
X123226095Y-108035380D02*
X122749904Y-108035380D01*
X122702285Y-108511571D01*
X122749904Y-108463952D01*
X122845142Y-108416333D01*
X123083238Y-108416333D01*
X123178476Y-108463952D01*
X123226095Y-108511571D01*
X123273714Y-108606809D01*
X123273714Y-108844904D01*
X123226095Y-108940142D01*
X123178476Y-108987761D01*
X123083238Y-109035380D01*
X122845142Y-109035380D01*
X122749904Y-108987761D01*
X122702285Y-108940142D01*
%TO.C,R6*%
X50108619Y-68802095D02*
X50061000Y-68754476D01*
X50013380Y-68659238D01*
X50013380Y-68421142D01*
X50061000Y-68325904D01*
X50108619Y-68278285D01*
X50203857Y-68230666D01*
X50299095Y-68230666D01*
X50441952Y-68278285D01*
X51013380Y-68849714D01*
X51013380Y-68230666D01*
X50108619Y-67849714D02*
X50061000Y-67802095D01*
X50013380Y-67706857D01*
X50013380Y-67468761D01*
X50061000Y-67373523D01*
X50108619Y-67325904D01*
X50203857Y-67278285D01*
X50299095Y-67278285D01*
X50441952Y-67325904D01*
X51013380Y-67897333D01*
X51013380Y-67278285D01*
X50013380Y-66659238D02*
X50013380Y-66564000D01*
X50061000Y-66468761D01*
X50108619Y-66421142D01*
X50203857Y-66373523D01*
X50394333Y-66325904D01*
X50632428Y-66325904D01*
X50822904Y-66373523D01*
X50918142Y-66421142D01*
X50965761Y-66468761D01*
X51013380Y-66564000D01*
X51013380Y-66659238D01*
X50965761Y-66754476D01*
X50918142Y-66802095D01*
X50822904Y-66849714D01*
X50632428Y-66897333D01*
X50394333Y-66897333D01*
X50203857Y-66849714D01*
X50108619Y-66802095D01*
X50061000Y-66754476D01*
X50013380Y-66659238D01*
X47173380Y-67730666D02*
X46697190Y-68064000D01*
X47173380Y-68302095D02*
X46173380Y-68302095D01*
X46173380Y-67921142D01*
X46221000Y-67825904D01*
X46268619Y-67778285D01*
X46363857Y-67730666D01*
X46506714Y-67730666D01*
X46601952Y-67778285D01*
X46649571Y-67825904D01*
X46697190Y-67921142D01*
X46697190Y-68302095D01*
X46173380Y-66873523D02*
X46173380Y-67064000D01*
X46221000Y-67159238D01*
X46268619Y-67206857D01*
X46411476Y-67302095D01*
X46601952Y-67349714D01*
X46982904Y-67349714D01*
X47078142Y-67302095D01*
X47125761Y-67254476D01*
X47173380Y-67159238D01*
X47173380Y-66968761D01*
X47125761Y-66873523D01*
X47078142Y-66825904D01*
X46982904Y-66778285D01*
X46744809Y-66778285D01*
X46649571Y-66825904D01*
X46601952Y-66873523D01*
X46554333Y-66968761D01*
X46554333Y-67159238D01*
X46601952Y-67254476D01*
X46649571Y-67302095D01*
X46744809Y-67349714D01*
%TO.C,R7*%
X50108619Y-75406095D02*
X50061000Y-75358476D01*
X50013380Y-75263238D01*
X50013380Y-75025142D01*
X50061000Y-74929904D01*
X50108619Y-74882285D01*
X50203857Y-74834666D01*
X50299095Y-74834666D01*
X50441952Y-74882285D01*
X51013380Y-75453714D01*
X51013380Y-74834666D01*
X50108619Y-74453714D02*
X50061000Y-74406095D01*
X50013380Y-74310857D01*
X50013380Y-74072761D01*
X50061000Y-73977523D01*
X50108619Y-73929904D01*
X50203857Y-73882285D01*
X50299095Y-73882285D01*
X50441952Y-73929904D01*
X51013380Y-74501333D01*
X51013380Y-73882285D01*
X50013380Y-73263238D02*
X50013380Y-73168000D01*
X50061000Y-73072761D01*
X50108619Y-73025142D01*
X50203857Y-72977523D01*
X50394333Y-72929904D01*
X50632428Y-72929904D01*
X50822904Y-72977523D01*
X50918142Y-73025142D01*
X50965761Y-73072761D01*
X51013380Y-73168000D01*
X51013380Y-73263238D01*
X50965761Y-73358476D01*
X50918142Y-73406095D01*
X50822904Y-73453714D01*
X50632428Y-73501333D01*
X50394333Y-73501333D01*
X50203857Y-73453714D01*
X50108619Y-73406095D01*
X50061000Y-73358476D01*
X50013380Y-73263238D01*
X47173380Y-74334666D02*
X46697190Y-74668000D01*
X47173380Y-74906095D02*
X46173380Y-74906095D01*
X46173380Y-74525142D01*
X46221000Y-74429904D01*
X46268619Y-74382285D01*
X46363857Y-74334666D01*
X46506714Y-74334666D01*
X46601952Y-74382285D01*
X46649571Y-74429904D01*
X46697190Y-74525142D01*
X46697190Y-74906095D01*
X46173380Y-74001333D02*
X46173380Y-73334666D01*
X47173380Y-73763238D01*
%TO.C,R8*%
X78699380Y-105783047D02*
X78699380Y-106354476D01*
X78699380Y-106068761D02*
X77699380Y-106068761D01*
X77842238Y-106164000D01*
X77937476Y-106259238D01*
X77985095Y-106354476D01*
X78699380Y-105354476D02*
X77699380Y-105354476D01*
X78318428Y-105259238D02*
X78699380Y-104973523D01*
X78032714Y-104973523D02*
X78413666Y-105354476D01*
X74859380Y-105830666D02*
X74383190Y-106164000D01*
X74859380Y-106402095D02*
X73859380Y-106402095D01*
X73859380Y-106021142D01*
X73907000Y-105925904D01*
X73954619Y-105878285D01*
X74049857Y-105830666D01*
X74192714Y-105830666D01*
X74287952Y-105878285D01*
X74335571Y-105925904D01*
X74383190Y-106021142D01*
X74383190Y-106402095D01*
X74287952Y-105259238D02*
X74240333Y-105354476D01*
X74192714Y-105402095D01*
X74097476Y-105449714D01*
X74049857Y-105449714D01*
X73954619Y-105402095D01*
X73907000Y-105354476D01*
X73859380Y-105259238D01*
X73859380Y-105068761D01*
X73907000Y-104973523D01*
X73954619Y-104925904D01*
X74049857Y-104878285D01*
X74097476Y-104878285D01*
X74192714Y-104925904D01*
X74240333Y-104973523D01*
X74287952Y-105068761D01*
X74287952Y-105259238D01*
X74335571Y-105354476D01*
X74383190Y-105402095D01*
X74478428Y-105449714D01*
X74668904Y-105449714D01*
X74764142Y-105402095D01*
X74811761Y-105354476D01*
X74859380Y-105259238D01*
X74859380Y-105068761D01*
X74811761Y-104973523D01*
X74764142Y-104925904D01*
X74668904Y-104878285D01*
X74478428Y-104878285D01*
X74383190Y-104925904D01*
X74335571Y-104973523D01*
X74287952Y-105068761D01*
%TO.C,R9*%
X54253380Y-103751047D02*
X54253380Y-104322476D01*
X54253380Y-104036761D02*
X53253380Y-104036761D01*
X53396238Y-104132000D01*
X53491476Y-104227238D01*
X53539095Y-104322476D01*
X54253380Y-103322476D02*
X53253380Y-103322476D01*
X53872428Y-103227238D02*
X54253380Y-102941523D01*
X53586714Y-102941523D02*
X53967666Y-103322476D01*
X54238380Y-105703666D02*
X53762190Y-106037000D01*
X54238380Y-106275095D02*
X53238380Y-106275095D01*
X53238380Y-105894142D01*
X53286000Y-105798904D01*
X53333619Y-105751285D01*
X53428857Y-105703666D01*
X53571714Y-105703666D01*
X53666952Y-105751285D01*
X53714571Y-105798904D01*
X53762190Y-105894142D01*
X53762190Y-106275095D01*
X54238380Y-105227476D02*
X54238380Y-105037000D01*
X54190761Y-104941761D01*
X54143142Y-104894142D01*
X54000285Y-104798904D01*
X53809809Y-104751285D01*
X53428857Y-104751285D01*
X53333619Y-104798904D01*
X53286000Y-104846523D01*
X53238380Y-104941761D01*
X53238380Y-105132238D01*
X53286000Y-105227476D01*
X53333619Y-105275095D01*
X53428857Y-105322714D01*
X53666952Y-105322714D01*
X53762190Y-105275095D01*
X53809809Y-105227476D01*
X53857428Y-105132238D01*
X53857428Y-104941761D01*
X53809809Y-104846523D01*
X53762190Y-104798904D01*
X53666952Y-104751285D01*
%TO.C,R10*%
X47141380Y-108831047D02*
X47141380Y-109402476D01*
X47141380Y-109116761D02*
X46141380Y-109116761D01*
X46284238Y-109212000D01*
X46379476Y-109307238D01*
X46427095Y-109402476D01*
X47141380Y-108402476D02*
X46141380Y-108402476D01*
X46760428Y-108307238D02*
X47141380Y-108021523D01*
X46474714Y-108021523D02*
X46855666Y-108402476D01*
X45221380Y-106179857D02*
X44745190Y-106513190D01*
X45221380Y-106751285D02*
X44221380Y-106751285D01*
X44221380Y-106370333D01*
X44269000Y-106275095D01*
X44316619Y-106227476D01*
X44411857Y-106179857D01*
X44554714Y-106179857D01*
X44649952Y-106227476D01*
X44697571Y-106275095D01*
X44745190Y-106370333D01*
X44745190Y-106751285D01*
X45221380Y-105227476D02*
X45221380Y-105798904D01*
X45221380Y-105513190D02*
X44221380Y-105513190D01*
X44364238Y-105608428D01*
X44459476Y-105703666D01*
X44507095Y-105798904D01*
X44221380Y-104608428D02*
X44221380Y-104513190D01*
X44269000Y-104417952D01*
X44316619Y-104370333D01*
X44411857Y-104322714D01*
X44602333Y-104275095D01*
X44840428Y-104275095D01*
X45030904Y-104322714D01*
X45126142Y-104370333D01*
X45173761Y-104417952D01*
X45221380Y-104513190D01*
X45221380Y-104608428D01*
X45173761Y-104703666D01*
X45126142Y-104751285D01*
X45030904Y-104798904D01*
X44840428Y-104846523D01*
X44602333Y-104846523D01*
X44411857Y-104798904D01*
X44316619Y-104751285D01*
X44269000Y-104703666D01*
X44221380Y-104608428D01*
%TO.C,R11*%
X49538619Y-110458095D02*
X49491000Y-110410476D01*
X49443380Y-110315238D01*
X49443380Y-110077142D01*
X49491000Y-109981904D01*
X49538619Y-109934285D01*
X49633857Y-109886666D01*
X49729095Y-109886666D01*
X49871952Y-109934285D01*
X50443380Y-110505714D01*
X50443380Y-109886666D01*
X49538619Y-109505714D02*
X49491000Y-109458095D01*
X49443380Y-109362857D01*
X49443380Y-109124761D01*
X49491000Y-109029523D01*
X49538619Y-108981904D01*
X49633857Y-108934285D01*
X49729095Y-108934285D01*
X49871952Y-108981904D01*
X50443380Y-109553333D01*
X50443380Y-108934285D01*
X49443380Y-108315238D02*
X49443380Y-108220000D01*
X49491000Y-108124761D01*
X49538619Y-108077142D01*
X49633857Y-108029523D01*
X49824333Y-107981904D01*
X50062428Y-107981904D01*
X50252904Y-108029523D01*
X50348142Y-108077142D01*
X50395761Y-108124761D01*
X50443380Y-108220000D01*
X50443380Y-108315238D01*
X50395761Y-108410476D01*
X50348142Y-108458095D01*
X50252904Y-108505714D01*
X50062428Y-108553333D01*
X49824333Y-108553333D01*
X49633857Y-108505714D01*
X49538619Y-108458095D01*
X49491000Y-108410476D01*
X49443380Y-108315238D01*
X48523380Y-106179857D02*
X48047190Y-106513190D01*
X48523380Y-106751285D02*
X47523380Y-106751285D01*
X47523380Y-106370333D01*
X47571000Y-106275095D01*
X47618619Y-106227476D01*
X47713857Y-106179857D01*
X47856714Y-106179857D01*
X47951952Y-106227476D01*
X47999571Y-106275095D01*
X48047190Y-106370333D01*
X48047190Y-106751285D01*
X48523380Y-105227476D02*
X48523380Y-105798904D01*
X48523380Y-105513190D02*
X47523380Y-105513190D01*
X47666238Y-105608428D01*
X47761476Y-105703666D01*
X47809095Y-105798904D01*
X48523380Y-104275095D02*
X48523380Y-104846523D01*
X48523380Y-104560809D02*
X47523380Y-104560809D01*
X47666238Y-104656047D01*
X47761476Y-104751285D01*
X47809095Y-104846523D01*
%TO.C,R12*%
X65222380Y-108323047D02*
X65222380Y-108894476D01*
X65222380Y-108608761D02*
X64222380Y-108608761D01*
X64365238Y-108704000D01*
X64460476Y-108799238D01*
X64508095Y-108894476D01*
X65222380Y-107894476D02*
X64222380Y-107894476D01*
X64841428Y-107799238D02*
X65222380Y-107513523D01*
X64555714Y-107513523D02*
X64936666Y-107894476D01*
X65334380Y-106306857D02*
X64858190Y-106640190D01*
X65334380Y-106878285D02*
X64334380Y-106878285D01*
X64334380Y-106497333D01*
X64382000Y-106402095D01*
X64429619Y-106354476D01*
X64524857Y-106306857D01*
X64667714Y-106306857D01*
X64762952Y-106354476D01*
X64810571Y-106402095D01*
X64858190Y-106497333D01*
X64858190Y-106878285D01*
X65334380Y-105354476D02*
X65334380Y-105925904D01*
X65334380Y-105640190D02*
X64334380Y-105640190D01*
X64477238Y-105735428D01*
X64572476Y-105830666D01*
X64620095Y-105925904D01*
X64429619Y-104973523D02*
X64382000Y-104925904D01*
X64334380Y-104830666D01*
X64334380Y-104592571D01*
X64382000Y-104497333D01*
X64429619Y-104449714D01*
X64524857Y-104402095D01*
X64620095Y-104402095D01*
X64762952Y-104449714D01*
X65334380Y-105021142D01*
X65334380Y-104402095D01*
%TO.C,R13*%
X55825380Y-57610285D02*
X55825380Y-58086476D01*
X56301571Y-58134095D01*
X56253952Y-58086476D01*
X56206333Y-57991238D01*
X56206333Y-57753142D01*
X56253952Y-57657904D01*
X56301571Y-57610285D01*
X56396809Y-57562666D01*
X56634904Y-57562666D01*
X56730142Y-57610285D01*
X56777761Y-57657904D01*
X56825380Y-57753142D01*
X56825380Y-57991238D01*
X56777761Y-58086476D01*
X56730142Y-58134095D01*
X55825380Y-56705523D02*
X55825380Y-56896000D01*
X55873000Y-56991238D01*
X55920619Y-57038857D01*
X56063476Y-57134095D01*
X56253952Y-57181714D01*
X56634904Y-57181714D01*
X56730142Y-57134095D01*
X56777761Y-57086476D01*
X56825380Y-56991238D01*
X56825380Y-56800761D01*
X56777761Y-56705523D01*
X56730142Y-56657904D01*
X56634904Y-56610285D01*
X56396809Y-56610285D01*
X56301571Y-56657904D01*
X56253952Y-56705523D01*
X56206333Y-56800761D01*
X56206333Y-56991238D01*
X56253952Y-57086476D01*
X56301571Y-57134095D01*
X56396809Y-57181714D01*
X55825380Y-55991238D02*
X55825380Y-55896000D01*
X55873000Y-55800761D01*
X55920619Y-55753142D01*
X56015857Y-55705523D01*
X56206333Y-55657904D01*
X56444428Y-55657904D01*
X56634904Y-55705523D01*
X56730142Y-55753142D01*
X56777761Y-55800761D01*
X56825380Y-55896000D01*
X56825380Y-55991238D01*
X56777761Y-56086476D01*
X56730142Y-56134095D01*
X56634904Y-56181714D01*
X56444428Y-56229333D01*
X56206333Y-56229333D01*
X56015857Y-56181714D01*
X55920619Y-56134095D01*
X55873000Y-56086476D01*
X55825380Y-55991238D01*
X60665380Y-57538857D02*
X60189190Y-57872190D01*
X60665380Y-58110285D02*
X59665380Y-58110285D01*
X59665380Y-57729333D01*
X59713000Y-57634095D01*
X59760619Y-57586476D01*
X59855857Y-57538857D01*
X59998714Y-57538857D01*
X60093952Y-57586476D01*
X60141571Y-57634095D01*
X60189190Y-57729333D01*
X60189190Y-58110285D01*
X60665380Y-56586476D02*
X60665380Y-57157904D01*
X60665380Y-56872190D02*
X59665380Y-56872190D01*
X59808238Y-56967428D01*
X59903476Y-57062666D01*
X59951095Y-57157904D01*
X59665380Y-56253142D02*
X59665380Y-55634095D01*
X60046333Y-55967428D01*
X60046333Y-55824571D01*
X60093952Y-55729333D01*
X60141571Y-55681714D01*
X60236809Y-55634095D01*
X60474904Y-55634095D01*
X60570142Y-55681714D01*
X60617761Y-55729333D01*
X60665380Y-55824571D01*
X60665380Y-56110285D01*
X60617761Y-56205523D01*
X60570142Y-56253142D01*
%TO.C,R14*%
X49856380Y-57610285D02*
X49856380Y-58086476D01*
X50332571Y-58134095D01*
X50284952Y-58086476D01*
X50237333Y-57991238D01*
X50237333Y-57753142D01*
X50284952Y-57657904D01*
X50332571Y-57610285D01*
X50427809Y-57562666D01*
X50665904Y-57562666D01*
X50761142Y-57610285D01*
X50808761Y-57657904D01*
X50856380Y-57753142D01*
X50856380Y-57991238D01*
X50808761Y-58086476D01*
X50761142Y-58134095D01*
X49856380Y-56705523D02*
X49856380Y-56896000D01*
X49904000Y-56991238D01*
X49951619Y-57038857D01*
X50094476Y-57134095D01*
X50284952Y-57181714D01*
X50665904Y-57181714D01*
X50761142Y-57134095D01*
X50808761Y-57086476D01*
X50856380Y-56991238D01*
X50856380Y-56800761D01*
X50808761Y-56705523D01*
X50761142Y-56657904D01*
X50665904Y-56610285D01*
X50427809Y-56610285D01*
X50332571Y-56657904D01*
X50284952Y-56705523D01*
X50237333Y-56800761D01*
X50237333Y-56991238D01*
X50284952Y-57086476D01*
X50332571Y-57134095D01*
X50427809Y-57181714D01*
X49856380Y-55991238D02*
X49856380Y-55896000D01*
X49904000Y-55800761D01*
X49951619Y-55753142D01*
X50046857Y-55705523D01*
X50237333Y-55657904D01*
X50475428Y-55657904D01*
X50665904Y-55705523D01*
X50761142Y-55753142D01*
X50808761Y-55800761D01*
X50856380Y-55896000D01*
X50856380Y-55991238D01*
X50808761Y-56086476D01*
X50761142Y-56134095D01*
X50665904Y-56181714D01*
X50475428Y-56229333D01*
X50237333Y-56229333D01*
X50046857Y-56181714D01*
X49951619Y-56134095D01*
X49904000Y-56086476D01*
X49856380Y-55991238D01*
X54696380Y-57538857D02*
X54220190Y-57872190D01*
X54696380Y-58110285D02*
X53696380Y-58110285D01*
X53696380Y-57729333D01*
X53744000Y-57634095D01*
X53791619Y-57586476D01*
X53886857Y-57538857D01*
X54029714Y-57538857D01*
X54124952Y-57586476D01*
X54172571Y-57634095D01*
X54220190Y-57729333D01*
X54220190Y-58110285D01*
X54696380Y-56586476D02*
X54696380Y-57157904D01*
X54696380Y-56872190D02*
X53696380Y-56872190D01*
X53839238Y-56967428D01*
X53934476Y-57062666D01*
X53982095Y-57157904D01*
X54029714Y-55729333D02*
X54696380Y-55729333D01*
X53648761Y-55967428D02*
X54363047Y-56205523D01*
X54363047Y-55586476D01*
%TO.C,R15*%
X44268380Y-57737285D02*
X44268380Y-58213476D01*
X44744571Y-58261095D01*
X44696952Y-58213476D01*
X44649333Y-58118238D01*
X44649333Y-57880142D01*
X44696952Y-57784904D01*
X44744571Y-57737285D01*
X44839809Y-57689666D01*
X45077904Y-57689666D01*
X45173142Y-57737285D01*
X45220761Y-57784904D01*
X45268380Y-57880142D01*
X45268380Y-58118238D01*
X45220761Y-58213476D01*
X45173142Y-58261095D01*
X44268380Y-56832523D02*
X44268380Y-57023000D01*
X44316000Y-57118238D01*
X44363619Y-57165857D01*
X44506476Y-57261095D01*
X44696952Y-57308714D01*
X45077904Y-57308714D01*
X45173142Y-57261095D01*
X45220761Y-57213476D01*
X45268380Y-57118238D01*
X45268380Y-56927761D01*
X45220761Y-56832523D01*
X45173142Y-56784904D01*
X45077904Y-56737285D01*
X44839809Y-56737285D01*
X44744571Y-56784904D01*
X44696952Y-56832523D01*
X44649333Y-56927761D01*
X44649333Y-57118238D01*
X44696952Y-57213476D01*
X44744571Y-57261095D01*
X44839809Y-57308714D01*
X44268380Y-56118238D02*
X44268380Y-56023000D01*
X44316000Y-55927761D01*
X44363619Y-55880142D01*
X44458857Y-55832523D01*
X44649333Y-55784904D01*
X44887428Y-55784904D01*
X45077904Y-55832523D01*
X45173142Y-55880142D01*
X45220761Y-55927761D01*
X45268380Y-56023000D01*
X45268380Y-56118238D01*
X45220761Y-56213476D01*
X45173142Y-56261095D01*
X45077904Y-56308714D01*
X44887428Y-56356333D01*
X44649333Y-56356333D01*
X44458857Y-56308714D01*
X44363619Y-56261095D01*
X44316000Y-56213476D01*
X44268380Y-56118238D01*
X49108380Y-57665857D02*
X48632190Y-57999190D01*
X49108380Y-58237285D02*
X48108380Y-58237285D01*
X48108380Y-57856333D01*
X48156000Y-57761095D01*
X48203619Y-57713476D01*
X48298857Y-57665857D01*
X48441714Y-57665857D01*
X48536952Y-57713476D01*
X48584571Y-57761095D01*
X48632190Y-57856333D01*
X48632190Y-58237285D01*
X49108380Y-56713476D02*
X49108380Y-57284904D01*
X49108380Y-56999190D02*
X48108380Y-56999190D01*
X48251238Y-57094428D01*
X48346476Y-57189666D01*
X48394095Y-57284904D01*
X48108380Y-55808714D02*
X48108380Y-56284904D01*
X48584571Y-56332523D01*
X48536952Y-56284904D01*
X48489333Y-56189666D01*
X48489333Y-55951571D01*
X48536952Y-55856333D01*
X48584571Y-55808714D01*
X48679809Y-55761095D01*
X48917904Y-55761095D01*
X49013142Y-55808714D01*
X49060761Y-55856333D01*
X49108380Y-55951571D01*
X49108380Y-56189666D01*
X49060761Y-56284904D01*
X49013142Y-56332523D01*
%TO.C,R16*%
X38426380Y-57737285D02*
X38426380Y-58213476D01*
X38902571Y-58261095D01*
X38854952Y-58213476D01*
X38807333Y-58118238D01*
X38807333Y-57880142D01*
X38854952Y-57784904D01*
X38902571Y-57737285D01*
X38997809Y-57689666D01*
X39235904Y-57689666D01*
X39331142Y-57737285D01*
X39378761Y-57784904D01*
X39426380Y-57880142D01*
X39426380Y-58118238D01*
X39378761Y-58213476D01*
X39331142Y-58261095D01*
X38426380Y-56832523D02*
X38426380Y-57023000D01*
X38474000Y-57118238D01*
X38521619Y-57165857D01*
X38664476Y-57261095D01*
X38854952Y-57308714D01*
X39235904Y-57308714D01*
X39331142Y-57261095D01*
X39378761Y-57213476D01*
X39426380Y-57118238D01*
X39426380Y-56927761D01*
X39378761Y-56832523D01*
X39331142Y-56784904D01*
X39235904Y-56737285D01*
X38997809Y-56737285D01*
X38902571Y-56784904D01*
X38854952Y-56832523D01*
X38807333Y-56927761D01*
X38807333Y-57118238D01*
X38854952Y-57213476D01*
X38902571Y-57261095D01*
X38997809Y-57308714D01*
X38426380Y-56118238D02*
X38426380Y-56023000D01*
X38474000Y-55927761D01*
X38521619Y-55880142D01*
X38616857Y-55832523D01*
X38807333Y-55784904D01*
X39045428Y-55784904D01*
X39235904Y-55832523D01*
X39331142Y-55880142D01*
X39378761Y-55927761D01*
X39426380Y-56023000D01*
X39426380Y-56118238D01*
X39378761Y-56213476D01*
X39331142Y-56261095D01*
X39235904Y-56308714D01*
X39045428Y-56356333D01*
X38807333Y-56356333D01*
X38616857Y-56308714D01*
X38521619Y-56261095D01*
X38474000Y-56213476D01*
X38426380Y-56118238D01*
X43266380Y-57665857D02*
X42790190Y-57999190D01*
X43266380Y-58237285D02*
X42266380Y-58237285D01*
X42266380Y-57856333D01*
X42314000Y-57761095D01*
X42361619Y-57713476D01*
X42456857Y-57665857D01*
X42599714Y-57665857D01*
X42694952Y-57713476D01*
X42742571Y-57761095D01*
X42790190Y-57856333D01*
X42790190Y-58237285D01*
X43266380Y-56713476D02*
X43266380Y-57284904D01*
X43266380Y-56999190D02*
X42266380Y-56999190D01*
X42409238Y-57094428D01*
X42504476Y-57189666D01*
X42552095Y-57284904D01*
X42266380Y-55856333D02*
X42266380Y-56046809D01*
X42314000Y-56142047D01*
X42361619Y-56189666D01*
X42504476Y-56284904D01*
X42694952Y-56332523D01*
X43075904Y-56332523D01*
X43171142Y-56284904D01*
X43218761Y-56237285D01*
X43266380Y-56142047D01*
X43266380Y-55951571D01*
X43218761Y-55856333D01*
X43171142Y-55808714D01*
X43075904Y-55761095D01*
X42837809Y-55761095D01*
X42742571Y-55808714D01*
X42694952Y-55856333D01*
X42647333Y-55951571D01*
X42647333Y-56142047D01*
X42694952Y-56237285D01*
X42742571Y-56284904D01*
X42837809Y-56332523D01*
%TO.C,R17*%
X99068619Y-108172095D02*
X99021000Y-108124476D01*
X98973380Y-108029238D01*
X98973380Y-107791142D01*
X99021000Y-107695904D01*
X99068619Y-107648285D01*
X99163857Y-107600666D01*
X99259095Y-107600666D01*
X99401952Y-107648285D01*
X99973380Y-108219714D01*
X99973380Y-107600666D01*
X99068619Y-107219714D02*
X99021000Y-107172095D01*
X98973380Y-107076857D01*
X98973380Y-106838761D01*
X99021000Y-106743523D01*
X99068619Y-106695904D01*
X99163857Y-106648285D01*
X99259095Y-106648285D01*
X99401952Y-106695904D01*
X99973380Y-107267333D01*
X99973380Y-106648285D01*
X98973380Y-106029238D02*
X98973380Y-105934000D01*
X99021000Y-105838761D01*
X99068619Y-105791142D01*
X99163857Y-105743523D01*
X99354333Y-105695904D01*
X99592428Y-105695904D01*
X99782904Y-105743523D01*
X99878142Y-105791142D01*
X99925761Y-105838761D01*
X99973380Y-105934000D01*
X99973380Y-106029238D01*
X99925761Y-106124476D01*
X99878142Y-106172095D01*
X99782904Y-106219714D01*
X99592428Y-106267333D01*
X99354333Y-106267333D01*
X99163857Y-106219714D01*
X99068619Y-106172095D01*
X99021000Y-106124476D01*
X98973380Y-106029238D01*
X98180380Y-103893857D02*
X97704190Y-104227190D01*
X98180380Y-104465285D02*
X97180380Y-104465285D01*
X97180380Y-104084333D01*
X97228000Y-103989095D01*
X97275619Y-103941476D01*
X97370857Y-103893857D01*
X97513714Y-103893857D01*
X97608952Y-103941476D01*
X97656571Y-103989095D01*
X97704190Y-104084333D01*
X97704190Y-104465285D01*
X98180380Y-102941476D02*
X98180380Y-103512904D01*
X98180380Y-103227190D02*
X97180380Y-103227190D01*
X97323238Y-103322428D01*
X97418476Y-103417666D01*
X97466095Y-103512904D01*
X97180380Y-102608142D02*
X97180380Y-101941476D01*
X98180380Y-102370047D01*
%TO.C,R18*%
X122896428Y-85906714D02*
X122896428Y-86573380D01*
X122658333Y-85525761D02*
X122420238Y-86240047D01*
X123039285Y-86240047D01*
X123420238Y-86478142D02*
X123467857Y-86525761D01*
X123420238Y-86573380D01*
X123372619Y-86525761D01*
X123420238Y-86478142D01*
X123420238Y-86573380D01*
X123801190Y-85573380D02*
X124467857Y-85573380D01*
X124039285Y-86573380D01*
X124848809Y-86573380D02*
X124848809Y-85573380D01*
X124944047Y-86192428D02*
X125229761Y-86573380D01*
X125229761Y-85906714D02*
X124848809Y-86287666D01*
X123182142Y-82733380D02*
X122848809Y-82257190D01*
X122610714Y-82733380D02*
X122610714Y-81733380D01*
X122991666Y-81733380D01*
X123086904Y-81781000D01*
X123134523Y-81828619D01*
X123182142Y-81923857D01*
X123182142Y-82066714D01*
X123134523Y-82161952D01*
X123086904Y-82209571D01*
X122991666Y-82257190D01*
X122610714Y-82257190D01*
X124134523Y-82733380D02*
X123563095Y-82733380D01*
X123848809Y-82733380D02*
X123848809Y-81733380D01*
X123753571Y-81876238D01*
X123658333Y-81971476D01*
X123563095Y-82019095D01*
X124705952Y-82161952D02*
X124610714Y-82114333D01*
X124563095Y-82066714D01*
X124515476Y-81971476D01*
X124515476Y-81923857D01*
X124563095Y-81828619D01*
X124610714Y-81781000D01*
X124705952Y-81733380D01*
X124896428Y-81733380D01*
X124991666Y-81781000D01*
X125039285Y-81828619D01*
X125086904Y-81923857D01*
X125086904Y-81971476D01*
X125039285Y-82066714D01*
X124991666Y-82114333D01*
X124896428Y-82161952D01*
X124705952Y-82161952D01*
X124610714Y-82209571D01*
X124563095Y-82257190D01*
X124515476Y-82352428D01*
X124515476Y-82542904D01*
X124563095Y-82638142D01*
X124610714Y-82685761D01*
X124705952Y-82733380D01*
X124896428Y-82733380D01*
X124991666Y-82685761D01*
X125039285Y-82638142D01*
X125086904Y-82542904D01*
X125086904Y-82352428D01*
X125039285Y-82257190D01*
X124991666Y-82209571D01*
X124896428Y-82161952D01*
%TO.C,R19*%
X95163380Y-108473714D02*
X95163380Y-107854666D01*
X95544333Y-108188000D01*
X95544333Y-108045142D01*
X95591952Y-107949904D01*
X95639571Y-107902285D01*
X95734809Y-107854666D01*
X95972904Y-107854666D01*
X96068142Y-107902285D01*
X96115761Y-107949904D01*
X96163380Y-108045142D01*
X96163380Y-108330857D01*
X96115761Y-108426095D01*
X96068142Y-108473714D01*
X95163380Y-107521333D02*
X95163380Y-106902285D01*
X95544333Y-107235619D01*
X95544333Y-107092761D01*
X95591952Y-106997523D01*
X95639571Y-106949904D01*
X95734809Y-106902285D01*
X95972904Y-106902285D01*
X96068142Y-106949904D01*
X96115761Y-106997523D01*
X96163380Y-107092761D01*
X96163380Y-107378476D01*
X96115761Y-107473714D01*
X96068142Y-107521333D01*
X95163380Y-106283238D02*
X95163380Y-106188000D01*
X95211000Y-106092761D01*
X95258619Y-106045142D01*
X95353857Y-105997523D01*
X95544333Y-105949904D01*
X95782428Y-105949904D01*
X95972904Y-105997523D01*
X96068142Y-106045142D01*
X96115761Y-106092761D01*
X96163380Y-106188000D01*
X96163380Y-106283238D01*
X96115761Y-106378476D01*
X96068142Y-106426095D01*
X95972904Y-106473714D01*
X95782428Y-106521333D01*
X95544333Y-106521333D01*
X95353857Y-106473714D01*
X95258619Y-106426095D01*
X95211000Y-106378476D01*
X95163380Y-106283238D01*
X94370380Y-103893857D02*
X93894190Y-104227190D01*
X94370380Y-104465285D02*
X93370380Y-104465285D01*
X93370380Y-104084333D01*
X93418000Y-103989095D01*
X93465619Y-103941476D01*
X93560857Y-103893857D01*
X93703714Y-103893857D01*
X93798952Y-103941476D01*
X93846571Y-103989095D01*
X93894190Y-104084333D01*
X93894190Y-104465285D01*
X94370380Y-102941476D02*
X94370380Y-103512904D01*
X94370380Y-103227190D02*
X93370380Y-103227190D01*
X93513238Y-103322428D01*
X93608476Y-103417666D01*
X93656095Y-103512904D01*
X94370380Y-102465285D02*
X94370380Y-102274809D01*
X94322761Y-102179571D01*
X94275142Y-102131952D01*
X94132285Y-102036714D01*
X93941809Y-101989095D01*
X93560857Y-101989095D01*
X93465619Y-102036714D01*
X93418000Y-102084333D01*
X93370380Y-102179571D01*
X93370380Y-102370047D01*
X93418000Y-102465285D01*
X93465619Y-102512904D01*
X93560857Y-102560523D01*
X93798952Y-102560523D01*
X93894190Y-102512904D01*
X93941809Y-102465285D01*
X93989428Y-102370047D01*
X93989428Y-102179571D01*
X93941809Y-102084333D01*
X93894190Y-102036714D01*
X93798952Y-101989095D01*
%TO.C,R20*%
X100559380Y-69167285D02*
X100559380Y-69643476D01*
X101035571Y-69691095D01*
X100987952Y-69643476D01*
X100940333Y-69548238D01*
X100940333Y-69310142D01*
X100987952Y-69214904D01*
X101035571Y-69167285D01*
X101130809Y-69119666D01*
X101368904Y-69119666D01*
X101464142Y-69167285D01*
X101511761Y-69214904D01*
X101559380Y-69310142D01*
X101559380Y-69548238D01*
X101511761Y-69643476D01*
X101464142Y-69691095D01*
X100559380Y-68262523D02*
X100559380Y-68453000D01*
X100607000Y-68548238D01*
X100654619Y-68595857D01*
X100797476Y-68691095D01*
X100987952Y-68738714D01*
X101368904Y-68738714D01*
X101464142Y-68691095D01*
X101511761Y-68643476D01*
X101559380Y-68548238D01*
X101559380Y-68357761D01*
X101511761Y-68262523D01*
X101464142Y-68214904D01*
X101368904Y-68167285D01*
X101130809Y-68167285D01*
X101035571Y-68214904D01*
X100987952Y-68262523D01*
X100940333Y-68357761D01*
X100940333Y-68548238D01*
X100987952Y-68643476D01*
X101035571Y-68691095D01*
X101130809Y-68738714D01*
X100559380Y-67548238D02*
X100559380Y-67453000D01*
X100607000Y-67357761D01*
X100654619Y-67310142D01*
X100749857Y-67262523D01*
X100940333Y-67214904D01*
X101178428Y-67214904D01*
X101368904Y-67262523D01*
X101464142Y-67310142D01*
X101511761Y-67357761D01*
X101559380Y-67453000D01*
X101559380Y-67548238D01*
X101511761Y-67643476D01*
X101464142Y-67691095D01*
X101368904Y-67738714D01*
X101178428Y-67786333D01*
X100940333Y-67786333D01*
X100749857Y-67738714D01*
X100654619Y-67691095D01*
X100607000Y-67643476D01*
X100559380Y-67548238D01*
X97719380Y-69095857D02*
X97243190Y-69429190D01*
X97719380Y-69667285D02*
X96719380Y-69667285D01*
X96719380Y-69286333D01*
X96767000Y-69191095D01*
X96814619Y-69143476D01*
X96909857Y-69095857D01*
X97052714Y-69095857D01*
X97147952Y-69143476D01*
X97195571Y-69191095D01*
X97243190Y-69286333D01*
X97243190Y-69667285D01*
X96814619Y-68714904D02*
X96767000Y-68667285D01*
X96719380Y-68572047D01*
X96719380Y-68333952D01*
X96767000Y-68238714D01*
X96814619Y-68191095D01*
X96909857Y-68143476D01*
X97005095Y-68143476D01*
X97147952Y-68191095D01*
X97719380Y-68762523D01*
X97719380Y-68143476D01*
X96719380Y-67524428D02*
X96719380Y-67429190D01*
X96767000Y-67333952D01*
X96814619Y-67286333D01*
X96909857Y-67238714D01*
X97100333Y-67191095D01*
X97338428Y-67191095D01*
X97528904Y-67238714D01*
X97624142Y-67286333D01*
X97671761Y-67333952D01*
X97719380Y-67429190D01*
X97719380Y-67524428D01*
X97671761Y-67619666D01*
X97624142Y-67667285D01*
X97528904Y-67714904D01*
X97338428Y-67762523D01*
X97100333Y-67762523D01*
X96909857Y-67714904D01*
X96814619Y-67667285D01*
X96767000Y-67619666D01*
X96719380Y-67524428D01*
%TO.C,R21*%
X69897714Y-66620380D02*
X69421523Y-66620380D01*
X69373904Y-67096571D01*
X69421523Y-67048952D01*
X69516761Y-67001333D01*
X69754857Y-67001333D01*
X69850095Y-67048952D01*
X69897714Y-67096571D01*
X69945333Y-67191809D01*
X69945333Y-67429904D01*
X69897714Y-67525142D01*
X69850095Y-67572761D01*
X69754857Y-67620380D01*
X69516761Y-67620380D01*
X69421523Y-67572761D01*
X69373904Y-67525142D01*
X70802476Y-66620380D02*
X70612000Y-66620380D01*
X70516761Y-66668000D01*
X70469142Y-66715619D01*
X70373904Y-66858476D01*
X70326285Y-67048952D01*
X70326285Y-67429904D01*
X70373904Y-67525142D01*
X70421523Y-67572761D01*
X70516761Y-67620380D01*
X70707238Y-67620380D01*
X70802476Y-67572761D01*
X70850095Y-67525142D01*
X70897714Y-67429904D01*
X70897714Y-67191809D01*
X70850095Y-67096571D01*
X70802476Y-67048952D01*
X70707238Y-67001333D01*
X70516761Y-67001333D01*
X70421523Y-67048952D01*
X70373904Y-67096571D01*
X70326285Y-67191809D01*
X71516761Y-66620380D02*
X71612000Y-66620380D01*
X71707238Y-66668000D01*
X71754857Y-66715619D01*
X71802476Y-66810857D01*
X71850095Y-67001333D01*
X71850095Y-67239428D01*
X71802476Y-67429904D01*
X71754857Y-67525142D01*
X71707238Y-67572761D01*
X71612000Y-67620380D01*
X71516761Y-67620380D01*
X71421523Y-67572761D01*
X71373904Y-67525142D01*
X71326285Y-67429904D01*
X71278666Y-67239428D01*
X71278666Y-67001333D01*
X71326285Y-66810857D01*
X71373904Y-66715619D01*
X71421523Y-66668000D01*
X71516761Y-66620380D01*
X69969142Y-71460380D02*
X69635809Y-70984190D01*
X69397714Y-71460380D02*
X69397714Y-70460380D01*
X69778666Y-70460380D01*
X69873904Y-70508000D01*
X69921523Y-70555619D01*
X69969142Y-70650857D01*
X69969142Y-70793714D01*
X69921523Y-70888952D01*
X69873904Y-70936571D01*
X69778666Y-70984190D01*
X69397714Y-70984190D01*
X70350095Y-70555619D02*
X70397714Y-70508000D01*
X70492952Y-70460380D01*
X70731047Y-70460380D01*
X70826285Y-70508000D01*
X70873904Y-70555619D01*
X70921523Y-70650857D01*
X70921523Y-70746095D01*
X70873904Y-70888952D01*
X70302476Y-71460380D01*
X70921523Y-71460380D01*
X71873904Y-71460380D02*
X71302476Y-71460380D01*
X71588190Y-71460380D02*
X71588190Y-70460380D01*
X71492952Y-70603238D01*
X71397714Y-70698476D01*
X71302476Y-70746095D01*
%TO.C,R22*%
X77923380Y-57610285D02*
X77923380Y-58086476D01*
X78399571Y-58134095D01*
X78351952Y-58086476D01*
X78304333Y-57991238D01*
X78304333Y-57753142D01*
X78351952Y-57657904D01*
X78399571Y-57610285D01*
X78494809Y-57562666D01*
X78732904Y-57562666D01*
X78828142Y-57610285D01*
X78875761Y-57657904D01*
X78923380Y-57753142D01*
X78923380Y-57991238D01*
X78875761Y-58086476D01*
X78828142Y-58134095D01*
X77923380Y-56705523D02*
X77923380Y-56896000D01*
X77971000Y-56991238D01*
X78018619Y-57038857D01*
X78161476Y-57134095D01*
X78351952Y-57181714D01*
X78732904Y-57181714D01*
X78828142Y-57134095D01*
X78875761Y-57086476D01*
X78923380Y-56991238D01*
X78923380Y-56800761D01*
X78875761Y-56705523D01*
X78828142Y-56657904D01*
X78732904Y-56610285D01*
X78494809Y-56610285D01*
X78399571Y-56657904D01*
X78351952Y-56705523D01*
X78304333Y-56800761D01*
X78304333Y-56991238D01*
X78351952Y-57086476D01*
X78399571Y-57134095D01*
X78494809Y-57181714D01*
X77923380Y-55991238D02*
X77923380Y-55896000D01*
X77971000Y-55800761D01*
X78018619Y-55753142D01*
X78113857Y-55705523D01*
X78304333Y-55657904D01*
X78542428Y-55657904D01*
X78732904Y-55705523D01*
X78828142Y-55753142D01*
X78875761Y-55800761D01*
X78923380Y-55896000D01*
X78923380Y-55991238D01*
X78875761Y-56086476D01*
X78828142Y-56134095D01*
X78732904Y-56181714D01*
X78542428Y-56229333D01*
X78304333Y-56229333D01*
X78113857Y-56181714D01*
X78018619Y-56134095D01*
X77971000Y-56086476D01*
X77923380Y-55991238D01*
X82763380Y-57538857D02*
X82287190Y-57872190D01*
X82763380Y-58110285D02*
X81763380Y-58110285D01*
X81763380Y-57729333D01*
X81811000Y-57634095D01*
X81858619Y-57586476D01*
X81953857Y-57538857D01*
X82096714Y-57538857D01*
X82191952Y-57586476D01*
X82239571Y-57634095D01*
X82287190Y-57729333D01*
X82287190Y-58110285D01*
X81858619Y-57157904D02*
X81811000Y-57110285D01*
X81763380Y-57015047D01*
X81763380Y-56776952D01*
X81811000Y-56681714D01*
X81858619Y-56634095D01*
X81953857Y-56586476D01*
X82049095Y-56586476D01*
X82191952Y-56634095D01*
X82763380Y-57205523D01*
X82763380Y-56586476D01*
X81858619Y-56205523D02*
X81811000Y-56157904D01*
X81763380Y-56062666D01*
X81763380Y-55824571D01*
X81811000Y-55729333D01*
X81858619Y-55681714D01*
X81953857Y-55634095D01*
X82049095Y-55634095D01*
X82191952Y-55681714D01*
X82763380Y-56253142D01*
X82763380Y-55634095D01*
%TO.C,R23*%
X72335380Y-57610285D02*
X72335380Y-58086476D01*
X72811571Y-58134095D01*
X72763952Y-58086476D01*
X72716333Y-57991238D01*
X72716333Y-57753142D01*
X72763952Y-57657904D01*
X72811571Y-57610285D01*
X72906809Y-57562666D01*
X73144904Y-57562666D01*
X73240142Y-57610285D01*
X73287761Y-57657904D01*
X73335380Y-57753142D01*
X73335380Y-57991238D01*
X73287761Y-58086476D01*
X73240142Y-58134095D01*
X72335380Y-56705523D02*
X72335380Y-56896000D01*
X72383000Y-56991238D01*
X72430619Y-57038857D01*
X72573476Y-57134095D01*
X72763952Y-57181714D01*
X73144904Y-57181714D01*
X73240142Y-57134095D01*
X73287761Y-57086476D01*
X73335380Y-56991238D01*
X73335380Y-56800761D01*
X73287761Y-56705523D01*
X73240142Y-56657904D01*
X73144904Y-56610285D01*
X72906809Y-56610285D01*
X72811571Y-56657904D01*
X72763952Y-56705523D01*
X72716333Y-56800761D01*
X72716333Y-56991238D01*
X72763952Y-57086476D01*
X72811571Y-57134095D01*
X72906809Y-57181714D01*
X72335380Y-55991238D02*
X72335380Y-55896000D01*
X72383000Y-55800761D01*
X72430619Y-55753142D01*
X72525857Y-55705523D01*
X72716333Y-55657904D01*
X72954428Y-55657904D01*
X73144904Y-55705523D01*
X73240142Y-55753142D01*
X73287761Y-55800761D01*
X73335380Y-55896000D01*
X73335380Y-55991238D01*
X73287761Y-56086476D01*
X73240142Y-56134095D01*
X73144904Y-56181714D01*
X72954428Y-56229333D01*
X72716333Y-56229333D01*
X72525857Y-56181714D01*
X72430619Y-56134095D01*
X72383000Y-56086476D01*
X72335380Y-55991238D01*
X77175380Y-57538857D02*
X76699190Y-57872190D01*
X77175380Y-58110285D02*
X76175380Y-58110285D01*
X76175380Y-57729333D01*
X76223000Y-57634095D01*
X76270619Y-57586476D01*
X76365857Y-57538857D01*
X76508714Y-57538857D01*
X76603952Y-57586476D01*
X76651571Y-57634095D01*
X76699190Y-57729333D01*
X76699190Y-58110285D01*
X76270619Y-57157904D02*
X76223000Y-57110285D01*
X76175380Y-57015047D01*
X76175380Y-56776952D01*
X76223000Y-56681714D01*
X76270619Y-56634095D01*
X76365857Y-56586476D01*
X76461095Y-56586476D01*
X76603952Y-56634095D01*
X77175380Y-57205523D01*
X77175380Y-56586476D01*
X76175380Y-56253142D02*
X76175380Y-55634095D01*
X76556333Y-55967428D01*
X76556333Y-55824571D01*
X76603952Y-55729333D01*
X76651571Y-55681714D01*
X76746809Y-55634095D01*
X76984904Y-55634095D01*
X77080142Y-55681714D01*
X77127761Y-55729333D01*
X77175380Y-55824571D01*
X77175380Y-56110285D01*
X77127761Y-56205523D01*
X77080142Y-56253142D01*
%TO.C,R24*%
X66874380Y-57610285D02*
X66874380Y-58086476D01*
X67350571Y-58134095D01*
X67302952Y-58086476D01*
X67255333Y-57991238D01*
X67255333Y-57753142D01*
X67302952Y-57657904D01*
X67350571Y-57610285D01*
X67445809Y-57562666D01*
X67683904Y-57562666D01*
X67779142Y-57610285D01*
X67826761Y-57657904D01*
X67874380Y-57753142D01*
X67874380Y-57991238D01*
X67826761Y-58086476D01*
X67779142Y-58134095D01*
X66874380Y-56705523D02*
X66874380Y-56896000D01*
X66922000Y-56991238D01*
X66969619Y-57038857D01*
X67112476Y-57134095D01*
X67302952Y-57181714D01*
X67683904Y-57181714D01*
X67779142Y-57134095D01*
X67826761Y-57086476D01*
X67874380Y-56991238D01*
X67874380Y-56800761D01*
X67826761Y-56705523D01*
X67779142Y-56657904D01*
X67683904Y-56610285D01*
X67445809Y-56610285D01*
X67350571Y-56657904D01*
X67302952Y-56705523D01*
X67255333Y-56800761D01*
X67255333Y-56991238D01*
X67302952Y-57086476D01*
X67350571Y-57134095D01*
X67445809Y-57181714D01*
X66874380Y-55991238D02*
X66874380Y-55896000D01*
X66922000Y-55800761D01*
X66969619Y-55753142D01*
X67064857Y-55705523D01*
X67255333Y-55657904D01*
X67493428Y-55657904D01*
X67683904Y-55705523D01*
X67779142Y-55753142D01*
X67826761Y-55800761D01*
X67874380Y-55896000D01*
X67874380Y-55991238D01*
X67826761Y-56086476D01*
X67779142Y-56134095D01*
X67683904Y-56181714D01*
X67493428Y-56229333D01*
X67255333Y-56229333D01*
X67064857Y-56181714D01*
X66969619Y-56134095D01*
X66922000Y-56086476D01*
X66874380Y-55991238D01*
X71714380Y-57538857D02*
X71238190Y-57872190D01*
X71714380Y-58110285D02*
X70714380Y-58110285D01*
X70714380Y-57729333D01*
X70762000Y-57634095D01*
X70809619Y-57586476D01*
X70904857Y-57538857D01*
X71047714Y-57538857D01*
X71142952Y-57586476D01*
X71190571Y-57634095D01*
X71238190Y-57729333D01*
X71238190Y-58110285D01*
X70809619Y-57157904D02*
X70762000Y-57110285D01*
X70714380Y-57015047D01*
X70714380Y-56776952D01*
X70762000Y-56681714D01*
X70809619Y-56634095D01*
X70904857Y-56586476D01*
X71000095Y-56586476D01*
X71142952Y-56634095D01*
X71714380Y-57205523D01*
X71714380Y-56586476D01*
X71047714Y-55729333D02*
X71714380Y-55729333D01*
X70666761Y-55967428D02*
X71381047Y-56205523D01*
X71381047Y-55586476D01*
%TO.C,R25*%
X61286380Y-57610285D02*
X61286380Y-58086476D01*
X61762571Y-58134095D01*
X61714952Y-58086476D01*
X61667333Y-57991238D01*
X61667333Y-57753142D01*
X61714952Y-57657904D01*
X61762571Y-57610285D01*
X61857809Y-57562666D01*
X62095904Y-57562666D01*
X62191142Y-57610285D01*
X62238761Y-57657904D01*
X62286380Y-57753142D01*
X62286380Y-57991238D01*
X62238761Y-58086476D01*
X62191142Y-58134095D01*
X61286380Y-56705523D02*
X61286380Y-56896000D01*
X61334000Y-56991238D01*
X61381619Y-57038857D01*
X61524476Y-57134095D01*
X61714952Y-57181714D01*
X62095904Y-57181714D01*
X62191142Y-57134095D01*
X62238761Y-57086476D01*
X62286380Y-56991238D01*
X62286380Y-56800761D01*
X62238761Y-56705523D01*
X62191142Y-56657904D01*
X62095904Y-56610285D01*
X61857809Y-56610285D01*
X61762571Y-56657904D01*
X61714952Y-56705523D01*
X61667333Y-56800761D01*
X61667333Y-56991238D01*
X61714952Y-57086476D01*
X61762571Y-57134095D01*
X61857809Y-57181714D01*
X61286380Y-55991238D02*
X61286380Y-55896000D01*
X61334000Y-55800761D01*
X61381619Y-55753142D01*
X61476857Y-55705523D01*
X61667333Y-55657904D01*
X61905428Y-55657904D01*
X62095904Y-55705523D01*
X62191142Y-55753142D01*
X62238761Y-55800761D01*
X62286380Y-55896000D01*
X62286380Y-55991238D01*
X62238761Y-56086476D01*
X62191142Y-56134095D01*
X62095904Y-56181714D01*
X61905428Y-56229333D01*
X61667333Y-56229333D01*
X61476857Y-56181714D01*
X61381619Y-56134095D01*
X61334000Y-56086476D01*
X61286380Y-55991238D01*
X66126380Y-57538857D02*
X65650190Y-57872190D01*
X66126380Y-58110285D02*
X65126380Y-58110285D01*
X65126380Y-57729333D01*
X65174000Y-57634095D01*
X65221619Y-57586476D01*
X65316857Y-57538857D01*
X65459714Y-57538857D01*
X65554952Y-57586476D01*
X65602571Y-57634095D01*
X65650190Y-57729333D01*
X65650190Y-58110285D01*
X65221619Y-57157904D02*
X65174000Y-57110285D01*
X65126380Y-57015047D01*
X65126380Y-56776952D01*
X65174000Y-56681714D01*
X65221619Y-56634095D01*
X65316857Y-56586476D01*
X65412095Y-56586476D01*
X65554952Y-56634095D01*
X66126380Y-57205523D01*
X66126380Y-56586476D01*
X65126380Y-55681714D02*
X65126380Y-56157904D01*
X65602571Y-56205523D01*
X65554952Y-56157904D01*
X65507333Y-56062666D01*
X65507333Y-55824571D01*
X65554952Y-55729333D01*
X65602571Y-55681714D01*
X65697809Y-55634095D01*
X65935904Y-55634095D01*
X66031142Y-55681714D01*
X66078761Y-55729333D01*
X66126380Y-55824571D01*
X66126380Y-56062666D01*
X66078761Y-56157904D01*
X66031142Y-56205523D01*
%TO.C,RV1*%
X115410380Y-92240047D02*
X115410380Y-92811476D01*
X115410380Y-92525761D02*
X114410380Y-92525761D01*
X114553238Y-92621000D01*
X114648476Y-92716238D01*
X114696095Y-92811476D01*
X115410380Y-91811476D02*
X114410380Y-91811476D01*
X115029428Y-91716238D02*
X115410380Y-91430523D01*
X114743714Y-91430523D02*
X115124666Y-91811476D01*
X106712761Y-96623380D02*
X106379428Y-96147190D01*
X106141333Y-96623380D02*
X106141333Y-95623380D01*
X106522285Y-95623380D01*
X106617523Y-95671000D01*
X106665142Y-95718619D01*
X106712761Y-95813857D01*
X106712761Y-95956714D01*
X106665142Y-96051952D01*
X106617523Y-96099571D01*
X106522285Y-96147190D01*
X106141333Y-96147190D01*
X106998476Y-95623380D02*
X107331809Y-96623380D01*
X107665142Y-95623380D01*
X108522285Y-96623380D02*
X107950857Y-96623380D01*
X108236571Y-96623380D02*
X108236571Y-95623380D01*
X108141333Y-95766238D01*
X108046095Y-95861476D01*
X107950857Y-95909095D01*
%TO.C,RV2*%
X100170380Y-92240047D02*
X100170380Y-92811476D01*
X100170380Y-92525761D02*
X99170380Y-92525761D01*
X99313238Y-92621000D01*
X99408476Y-92716238D01*
X99456095Y-92811476D01*
X100170380Y-91811476D02*
X99170380Y-91811476D01*
X99789428Y-91716238D02*
X100170380Y-91430523D01*
X99503714Y-91430523D02*
X99884666Y-91811476D01*
X91472761Y-96623380D02*
X91139428Y-96147190D01*
X90901333Y-96623380D02*
X90901333Y-95623380D01*
X91282285Y-95623380D01*
X91377523Y-95671000D01*
X91425142Y-95718619D01*
X91472761Y-95813857D01*
X91472761Y-95956714D01*
X91425142Y-96051952D01*
X91377523Y-96099571D01*
X91282285Y-96147190D01*
X90901333Y-96147190D01*
X91758476Y-95623380D02*
X92091809Y-96623380D01*
X92425142Y-95623380D01*
X92710857Y-95718619D02*
X92758476Y-95671000D01*
X92853714Y-95623380D01*
X93091809Y-95623380D01*
X93187047Y-95671000D01*
X93234666Y-95718619D01*
X93282285Y-95813857D01*
X93282285Y-95909095D01*
X93234666Y-96051952D01*
X92663238Y-96623380D01*
X93282285Y-96623380D01*
%TO.C,SW1*%
X83050761Y-92261619D02*
X83098380Y-92118761D01*
X83098380Y-91880666D01*
X83050761Y-91785428D01*
X83003142Y-91737809D01*
X82907904Y-91690190D01*
X82812666Y-91690190D01*
X82717428Y-91737809D01*
X82669809Y-91785428D01*
X82622190Y-91880666D01*
X82574571Y-92071142D01*
X82526952Y-92166380D01*
X82479333Y-92214000D01*
X82384095Y-92261619D01*
X82288857Y-92261619D01*
X82193619Y-92214000D01*
X82146000Y-92166380D01*
X82098380Y-92071142D01*
X82098380Y-91833047D01*
X82146000Y-91690190D01*
X82098380Y-91356857D02*
X83098380Y-91118761D01*
X82384095Y-90928285D01*
X83098380Y-90737809D01*
X82098380Y-90499714D01*
X83193619Y-90356857D02*
X83193619Y-89594952D01*
X83098380Y-89356857D02*
X82098380Y-89356857D01*
X82098380Y-88975904D01*
X82146000Y-88880666D01*
X82193619Y-88833047D01*
X82288857Y-88785428D01*
X82431714Y-88785428D01*
X82526952Y-88833047D01*
X82574571Y-88880666D01*
X82622190Y-88975904D01*
X82622190Y-89356857D01*
X82431714Y-87928285D02*
X83098380Y-87928285D01*
X82431714Y-88356857D02*
X82955523Y-88356857D01*
X83050761Y-88309238D01*
X83098380Y-88214000D01*
X83098380Y-88071142D01*
X83050761Y-87975904D01*
X83003142Y-87928285D01*
X83050761Y-87499714D02*
X83098380Y-87404476D01*
X83098380Y-87214000D01*
X83050761Y-87118761D01*
X82955523Y-87071142D01*
X82907904Y-87071142D01*
X82812666Y-87118761D01*
X82765047Y-87214000D01*
X82765047Y-87356857D01*
X82717428Y-87452095D01*
X82622190Y-87499714D01*
X82574571Y-87499714D01*
X82479333Y-87452095D01*
X82431714Y-87356857D01*
X82431714Y-87214000D01*
X82479333Y-87118761D01*
X83098380Y-86642571D02*
X82098380Y-86642571D01*
X83098380Y-86214000D02*
X82574571Y-86214000D01*
X82479333Y-86261619D01*
X82431714Y-86356857D01*
X82431714Y-86499714D01*
X82479333Y-86594952D01*
X82526952Y-86642571D01*
X78600761Y-91047333D02*
X78648380Y-90904476D01*
X78648380Y-90666380D01*
X78600761Y-90571142D01*
X78553142Y-90523523D01*
X78457904Y-90475904D01*
X78362666Y-90475904D01*
X78267428Y-90523523D01*
X78219809Y-90571142D01*
X78172190Y-90666380D01*
X78124571Y-90856857D01*
X78076952Y-90952095D01*
X78029333Y-90999714D01*
X77934095Y-91047333D01*
X77838857Y-91047333D01*
X77743619Y-90999714D01*
X77696000Y-90952095D01*
X77648380Y-90856857D01*
X77648380Y-90618761D01*
X77696000Y-90475904D01*
X77648380Y-90142571D02*
X78648380Y-89904476D01*
X77934095Y-89714000D01*
X78648380Y-89523523D01*
X77648380Y-89285428D01*
X78648380Y-88380666D02*
X78648380Y-88952095D01*
X78648380Y-88666380D02*
X77648380Y-88666380D01*
X77791238Y-88761619D01*
X77886476Y-88856857D01*
X77934095Y-88952095D01*
%TO.C,SW2*%
X73398761Y-92261619D02*
X73446380Y-92118761D01*
X73446380Y-91880666D01*
X73398761Y-91785428D01*
X73351142Y-91737809D01*
X73255904Y-91690190D01*
X73160666Y-91690190D01*
X73065428Y-91737809D01*
X73017809Y-91785428D01*
X72970190Y-91880666D01*
X72922571Y-92071142D01*
X72874952Y-92166380D01*
X72827333Y-92214000D01*
X72732095Y-92261619D01*
X72636857Y-92261619D01*
X72541619Y-92214000D01*
X72494000Y-92166380D01*
X72446380Y-92071142D01*
X72446380Y-91833047D01*
X72494000Y-91690190D01*
X72446380Y-91356857D02*
X73446380Y-91118761D01*
X72732095Y-90928285D01*
X73446380Y-90737809D01*
X72446380Y-90499714D01*
X73541619Y-90356857D02*
X73541619Y-89594952D01*
X73446380Y-89356857D02*
X72446380Y-89356857D01*
X72446380Y-88975904D01*
X72494000Y-88880666D01*
X72541619Y-88833047D01*
X72636857Y-88785428D01*
X72779714Y-88785428D01*
X72874952Y-88833047D01*
X72922571Y-88880666D01*
X72970190Y-88975904D01*
X72970190Y-89356857D01*
X72779714Y-87928285D02*
X73446380Y-87928285D01*
X72779714Y-88356857D02*
X73303523Y-88356857D01*
X73398761Y-88309238D01*
X73446380Y-88214000D01*
X73446380Y-88071142D01*
X73398761Y-87975904D01*
X73351142Y-87928285D01*
X73398761Y-87499714D02*
X73446380Y-87404476D01*
X73446380Y-87214000D01*
X73398761Y-87118761D01*
X73303523Y-87071142D01*
X73255904Y-87071142D01*
X73160666Y-87118761D01*
X73113047Y-87214000D01*
X73113047Y-87356857D01*
X73065428Y-87452095D01*
X72970190Y-87499714D01*
X72922571Y-87499714D01*
X72827333Y-87452095D01*
X72779714Y-87356857D01*
X72779714Y-87214000D01*
X72827333Y-87118761D01*
X73446380Y-86642571D02*
X72446380Y-86642571D01*
X73446380Y-86214000D02*
X72922571Y-86214000D01*
X72827333Y-86261619D01*
X72779714Y-86356857D01*
X72779714Y-86499714D01*
X72827333Y-86594952D01*
X72874952Y-86642571D01*
X68948761Y-91047333D02*
X68996380Y-90904476D01*
X68996380Y-90666380D01*
X68948761Y-90571142D01*
X68901142Y-90523523D01*
X68805904Y-90475904D01*
X68710666Y-90475904D01*
X68615428Y-90523523D01*
X68567809Y-90571142D01*
X68520190Y-90666380D01*
X68472571Y-90856857D01*
X68424952Y-90952095D01*
X68377333Y-90999714D01*
X68282095Y-91047333D01*
X68186857Y-91047333D01*
X68091619Y-90999714D01*
X68044000Y-90952095D01*
X67996380Y-90856857D01*
X67996380Y-90618761D01*
X68044000Y-90475904D01*
X67996380Y-90142571D02*
X68996380Y-89904476D01*
X68282095Y-89714000D01*
X68996380Y-89523523D01*
X67996380Y-89285428D01*
X68091619Y-88952095D02*
X68044000Y-88904476D01*
X67996380Y-88809238D01*
X67996380Y-88571142D01*
X68044000Y-88475904D01*
X68091619Y-88428285D01*
X68186857Y-88380666D01*
X68282095Y-88380666D01*
X68424952Y-88428285D01*
X68996380Y-88999714D01*
X68996380Y-88380666D01*
%TO.C,SW3*%
X62429761Y-91753619D02*
X62477380Y-91610761D01*
X62477380Y-91372666D01*
X62429761Y-91277428D01*
X62382142Y-91229809D01*
X62286904Y-91182190D01*
X62191666Y-91182190D01*
X62096428Y-91229809D01*
X62048809Y-91277428D01*
X62001190Y-91372666D01*
X61953571Y-91563142D01*
X61905952Y-91658380D01*
X61858333Y-91706000D01*
X61763095Y-91753619D01*
X61667857Y-91753619D01*
X61572619Y-91706000D01*
X61525000Y-91658380D01*
X61477380Y-91563142D01*
X61477380Y-91325047D01*
X61525000Y-91182190D01*
X61477380Y-90848857D02*
X62477380Y-90610761D01*
X61763095Y-90420285D01*
X62477380Y-90229809D01*
X61477380Y-89991714D01*
X62572619Y-89848857D02*
X62572619Y-89086952D01*
X62477380Y-88848857D02*
X61477380Y-88848857D01*
X61477380Y-88467904D01*
X61525000Y-88372666D01*
X61572619Y-88325047D01*
X61667857Y-88277428D01*
X61810714Y-88277428D01*
X61905952Y-88325047D01*
X61953571Y-88372666D01*
X62001190Y-88467904D01*
X62001190Y-88848857D01*
X61810714Y-87420285D02*
X62477380Y-87420285D01*
X61810714Y-87848857D02*
X62334523Y-87848857D01*
X62429761Y-87801238D01*
X62477380Y-87706000D01*
X62477380Y-87563142D01*
X62429761Y-87467904D01*
X62382142Y-87420285D01*
X62429761Y-86991714D02*
X62477380Y-86896476D01*
X62477380Y-86706000D01*
X62429761Y-86610761D01*
X62334523Y-86563142D01*
X62286904Y-86563142D01*
X62191666Y-86610761D01*
X62144047Y-86706000D01*
X62144047Y-86848857D01*
X62096428Y-86944095D01*
X62001190Y-86991714D01*
X61953571Y-86991714D01*
X61858333Y-86944095D01*
X61810714Y-86848857D01*
X61810714Y-86706000D01*
X61858333Y-86610761D01*
X62477380Y-86134571D02*
X61477380Y-86134571D01*
X62477380Y-85706000D02*
X61953571Y-85706000D01*
X61858333Y-85753619D01*
X61810714Y-85848857D01*
X61810714Y-85991714D01*
X61858333Y-86086952D01*
X61905952Y-86134571D01*
X57979761Y-90539333D02*
X58027380Y-90396476D01*
X58027380Y-90158380D01*
X57979761Y-90063142D01*
X57932142Y-90015523D01*
X57836904Y-89967904D01*
X57741666Y-89967904D01*
X57646428Y-90015523D01*
X57598809Y-90063142D01*
X57551190Y-90158380D01*
X57503571Y-90348857D01*
X57455952Y-90444095D01*
X57408333Y-90491714D01*
X57313095Y-90539333D01*
X57217857Y-90539333D01*
X57122619Y-90491714D01*
X57075000Y-90444095D01*
X57027380Y-90348857D01*
X57027380Y-90110761D01*
X57075000Y-89967904D01*
X57027380Y-89634571D02*
X58027380Y-89396476D01*
X57313095Y-89206000D01*
X58027380Y-89015523D01*
X57027380Y-88777428D01*
X57027380Y-88491714D02*
X57027380Y-87872666D01*
X57408333Y-88206000D01*
X57408333Y-88063142D01*
X57455952Y-87967904D01*
X57503571Y-87920285D01*
X57598809Y-87872666D01*
X57836904Y-87872666D01*
X57932142Y-87920285D01*
X57979761Y-87967904D01*
X58027380Y-88063142D01*
X58027380Y-88348857D01*
X57979761Y-88444095D01*
X57932142Y-88491714D01*
%TO.C,SW4*%
X53285761Y-91753619D02*
X53333380Y-91610761D01*
X53333380Y-91372666D01*
X53285761Y-91277428D01*
X53238142Y-91229809D01*
X53142904Y-91182190D01*
X53047666Y-91182190D01*
X52952428Y-91229809D01*
X52904809Y-91277428D01*
X52857190Y-91372666D01*
X52809571Y-91563142D01*
X52761952Y-91658380D01*
X52714333Y-91706000D01*
X52619095Y-91753619D01*
X52523857Y-91753619D01*
X52428619Y-91706000D01*
X52381000Y-91658380D01*
X52333380Y-91563142D01*
X52333380Y-91325047D01*
X52381000Y-91182190D01*
X52333380Y-90848857D02*
X53333380Y-90610761D01*
X52619095Y-90420285D01*
X53333380Y-90229809D01*
X52333380Y-89991714D01*
X53428619Y-89848857D02*
X53428619Y-89086952D01*
X53333380Y-88848857D02*
X52333380Y-88848857D01*
X52333380Y-88467904D01*
X52381000Y-88372666D01*
X52428619Y-88325047D01*
X52523857Y-88277428D01*
X52666714Y-88277428D01*
X52761952Y-88325047D01*
X52809571Y-88372666D01*
X52857190Y-88467904D01*
X52857190Y-88848857D01*
X52666714Y-87420285D02*
X53333380Y-87420285D01*
X52666714Y-87848857D02*
X53190523Y-87848857D01*
X53285761Y-87801238D01*
X53333380Y-87706000D01*
X53333380Y-87563142D01*
X53285761Y-87467904D01*
X53238142Y-87420285D01*
X53285761Y-86991714D02*
X53333380Y-86896476D01*
X53333380Y-86706000D01*
X53285761Y-86610761D01*
X53190523Y-86563142D01*
X53142904Y-86563142D01*
X53047666Y-86610761D01*
X53000047Y-86706000D01*
X53000047Y-86848857D01*
X52952428Y-86944095D01*
X52857190Y-86991714D01*
X52809571Y-86991714D01*
X52714333Y-86944095D01*
X52666714Y-86848857D01*
X52666714Y-86706000D01*
X52714333Y-86610761D01*
X53333380Y-86134571D02*
X52333380Y-86134571D01*
X53333380Y-85706000D02*
X52809571Y-85706000D01*
X52714333Y-85753619D01*
X52666714Y-85848857D01*
X52666714Y-85991714D01*
X52714333Y-86086952D01*
X52761952Y-86134571D01*
X48835761Y-90624334D02*
X48883380Y-90481477D01*
X48883380Y-90243381D01*
X48835761Y-90148143D01*
X48788142Y-90100524D01*
X48692904Y-90052905D01*
X48597666Y-90052905D01*
X48502428Y-90100524D01*
X48454809Y-90148143D01*
X48407190Y-90243381D01*
X48359571Y-90433858D01*
X48311952Y-90529096D01*
X48264333Y-90576715D01*
X48169095Y-90624334D01*
X48073857Y-90624334D01*
X47978619Y-90576715D01*
X47931000Y-90529096D01*
X47883380Y-90433858D01*
X47883380Y-90195762D01*
X47931000Y-90052905D01*
X47883380Y-89719572D02*
X48883380Y-89481477D01*
X48169095Y-89291001D01*
X48883380Y-89100524D01*
X47883380Y-88862429D01*
X48216714Y-88052905D02*
X48883380Y-88052905D01*
X47835761Y-88291001D02*
X48550047Y-88529096D01*
X48550047Y-87910048D01*
%TO.C,U1*%
X125507380Y-81351000D02*
X124507380Y-81351000D01*
X124507380Y-81112904D01*
X124555000Y-80970047D01*
X124650238Y-80874809D01*
X124745476Y-80827190D01*
X124935952Y-80779571D01*
X125078809Y-80779571D01*
X125269285Y-80827190D01*
X125364523Y-80874809D01*
X125459761Y-80970047D01*
X125507380Y-81112904D01*
X125507380Y-81351000D01*
X125459761Y-80398619D02*
X125507380Y-80255761D01*
X125507380Y-80017666D01*
X125459761Y-79922428D01*
X125412142Y-79874809D01*
X125316904Y-79827190D01*
X125221666Y-79827190D01*
X125126428Y-79874809D01*
X125078809Y-79922428D01*
X125031190Y-80017666D01*
X124983571Y-80208142D01*
X124935952Y-80303380D01*
X124888333Y-80351000D01*
X124793095Y-80398619D01*
X124697857Y-80398619D01*
X124602619Y-80351000D01*
X124555000Y-80303380D01*
X124507380Y-80208142D01*
X124507380Y-79970047D01*
X124555000Y-79827190D01*
X125507380Y-78874809D02*
X125507380Y-79446238D01*
X125507380Y-79160523D02*
X124507380Y-79160523D01*
X124650238Y-79255761D01*
X124745476Y-79351000D01*
X124793095Y-79446238D01*
X124935952Y-78303380D02*
X124888333Y-78398619D01*
X124840714Y-78446238D01*
X124745476Y-78493857D01*
X124697857Y-78493857D01*
X124602619Y-78446238D01*
X124555000Y-78398619D01*
X124507380Y-78303380D01*
X124507380Y-78112904D01*
X124555000Y-78017666D01*
X124602619Y-77970047D01*
X124697857Y-77922428D01*
X124745476Y-77922428D01*
X124840714Y-77970047D01*
X124888333Y-78017666D01*
X124935952Y-78112904D01*
X124935952Y-78303380D01*
X124983571Y-78398619D01*
X125031190Y-78446238D01*
X125126428Y-78493857D01*
X125316904Y-78493857D01*
X125412142Y-78446238D01*
X125459761Y-78398619D01*
X125507380Y-78303380D01*
X125507380Y-78112904D01*
X125459761Y-78017666D01*
X125412142Y-77970047D01*
X125316904Y-77922428D01*
X125126428Y-77922428D01*
X125031190Y-77970047D01*
X124983571Y-78017666D01*
X124935952Y-78112904D01*
X125459761Y-77541476D02*
X125507380Y-77398619D01*
X125507380Y-77160523D01*
X125459761Y-77065285D01*
X125412142Y-77017666D01*
X125316904Y-76970047D01*
X125221666Y-76970047D01*
X125126428Y-77017666D01*
X125078809Y-77065285D01*
X125031190Y-77160523D01*
X124983571Y-77351000D01*
X124935952Y-77446238D01*
X124888333Y-77493857D01*
X124793095Y-77541476D01*
X124697857Y-77541476D01*
X124602619Y-77493857D01*
X124555000Y-77446238D01*
X124507380Y-77351000D01*
X124507380Y-77112904D01*
X124555000Y-76970047D01*
X124602619Y-76589095D02*
X124555000Y-76541476D01*
X124507380Y-76446238D01*
X124507380Y-76208142D01*
X124555000Y-76112904D01*
X124602619Y-76065285D01*
X124697857Y-76017666D01*
X124793095Y-76017666D01*
X124935952Y-76065285D01*
X125507380Y-76636714D01*
X125507380Y-76017666D01*
X124507380Y-75398619D02*
X124507380Y-75303380D01*
X124555000Y-75208142D01*
X124602619Y-75160523D01*
X124697857Y-75112904D01*
X124888333Y-75065285D01*
X125126428Y-75065285D01*
X125316904Y-75112904D01*
X125412142Y-75160523D01*
X125459761Y-75208142D01*
X125507380Y-75303380D01*
X125507380Y-75398619D01*
X125459761Y-75493857D01*
X125412142Y-75541476D01*
X125316904Y-75589095D01*
X125126428Y-75636714D01*
X124888333Y-75636714D01*
X124697857Y-75589095D01*
X124602619Y-75541476D01*
X124555000Y-75493857D01*
X124507380Y-75398619D01*
X125602619Y-74874809D02*
X125602619Y-74112904D01*
X120894285Y-78422428D02*
X121501428Y-78422428D01*
X121572857Y-78386714D01*
X121608571Y-78351000D01*
X121644285Y-78279571D01*
X121644285Y-78136714D01*
X121608571Y-78065285D01*
X121572857Y-78029571D01*
X121501428Y-77993857D01*
X120894285Y-77993857D01*
X121644285Y-77243857D02*
X121644285Y-77672428D01*
X121644285Y-77458142D02*
X120894285Y-77458142D01*
X121001428Y-77529571D01*
X121072857Y-77601000D01*
X121108571Y-77672428D01*
%TO.C,U2*%
X116617380Y-81351000D02*
X115617380Y-81351000D01*
X115617380Y-81112904D01*
X115665000Y-80970047D01*
X115760238Y-80874809D01*
X115855476Y-80827190D01*
X116045952Y-80779571D01*
X116188809Y-80779571D01*
X116379285Y-80827190D01*
X116474523Y-80874809D01*
X116569761Y-80970047D01*
X116617380Y-81112904D01*
X116617380Y-81351000D01*
X116569761Y-80398619D02*
X116617380Y-80255761D01*
X116617380Y-80017666D01*
X116569761Y-79922428D01*
X116522142Y-79874809D01*
X116426904Y-79827190D01*
X116331666Y-79827190D01*
X116236428Y-79874809D01*
X116188809Y-79922428D01*
X116141190Y-80017666D01*
X116093571Y-80208142D01*
X116045952Y-80303380D01*
X115998333Y-80351000D01*
X115903095Y-80398619D01*
X115807857Y-80398619D01*
X115712619Y-80351000D01*
X115665000Y-80303380D01*
X115617380Y-80208142D01*
X115617380Y-79970047D01*
X115665000Y-79827190D01*
X116617380Y-78874809D02*
X116617380Y-79446238D01*
X116617380Y-79160523D02*
X115617380Y-79160523D01*
X115760238Y-79255761D01*
X115855476Y-79351000D01*
X115903095Y-79446238D01*
X116045952Y-78303380D02*
X115998333Y-78398619D01*
X115950714Y-78446238D01*
X115855476Y-78493857D01*
X115807857Y-78493857D01*
X115712619Y-78446238D01*
X115665000Y-78398619D01*
X115617380Y-78303380D01*
X115617380Y-78112904D01*
X115665000Y-78017666D01*
X115712619Y-77970047D01*
X115807857Y-77922428D01*
X115855476Y-77922428D01*
X115950714Y-77970047D01*
X115998333Y-78017666D01*
X116045952Y-78112904D01*
X116045952Y-78303380D01*
X116093571Y-78398619D01*
X116141190Y-78446238D01*
X116236428Y-78493857D01*
X116426904Y-78493857D01*
X116522142Y-78446238D01*
X116569761Y-78398619D01*
X116617380Y-78303380D01*
X116617380Y-78112904D01*
X116569761Y-78017666D01*
X116522142Y-77970047D01*
X116426904Y-77922428D01*
X116236428Y-77922428D01*
X116141190Y-77970047D01*
X116093571Y-78017666D01*
X116045952Y-78112904D01*
X116569761Y-77541476D02*
X116617380Y-77398619D01*
X116617380Y-77160523D01*
X116569761Y-77065285D01*
X116522142Y-77017666D01*
X116426904Y-76970047D01*
X116331666Y-76970047D01*
X116236428Y-77017666D01*
X116188809Y-77065285D01*
X116141190Y-77160523D01*
X116093571Y-77351000D01*
X116045952Y-77446238D01*
X115998333Y-77493857D01*
X115903095Y-77541476D01*
X115807857Y-77541476D01*
X115712619Y-77493857D01*
X115665000Y-77446238D01*
X115617380Y-77351000D01*
X115617380Y-77112904D01*
X115665000Y-76970047D01*
X115712619Y-76589095D02*
X115665000Y-76541476D01*
X115617380Y-76446238D01*
X115617380Y-76208142D01*
X115665000Y-76112904D01*
X115712619Y-76065285D01*
X115807857Y-76017666D01*
X115903095Y-76017666D01*
X116045952Y-76065285D01*
X116617380Y-76636714D01*
X116617380Y-76017666D01*
X115617380Y-75398619D02*
X115617380Y-75303380D01*
X115665000Y-75208142D01*
X115712619Y-75160523D01*
X115807857Y-75112904D01*
X115998333Y-75065285D01*
X116236428Y-75065285D01*
X116426904Y-75112904D01*
X116522142Y-75160523D01*
X116569761Y-75208142D01*
X116617380Y-75303380D01*
X116617380Y-75398619D01*
X116569761Y-75493857D01*
X116522142Y-75541476D01*
X116426904Y-75589095D01*
X116236428Y-75636714D01*
X115998333Y-75636714D01*
X115807857Y-75589095D01*
X115712619Y-75541476D01*
X115665000Y-75493857D01*
X115617380Y-75398619D01*
X116712619Y-74874809D02*
X116712619Y-74112904D01*
X112004285Y-78422428D02*
X112611428Y-78422428D01*
X112682857Y-78386714D01*
X112718571Y-78351000D01*
X112754285Y-78279571D01*
X112754285Y-78136714D01*
X112718571Y-78065285D01*
X112682857Y-78029571D01*
X112611428Y-77993857D01*
X112004285Y-77993857D01*
X112075714Y-77672428D02*
X112040000Y-77636714D01*
X112004285Y-77565285D01*
X112004285Y-77386714D01*
X112040000Y-77315285D01*
X112075714Y-77279571D01*
X112147142Y-77243857D01*
X112218571Y-77243857D01*
X112325714Y-77279571D01*
X112754285Y-77708142D01*
X112754285Y-77243857D01*
%TO.C,J16*%
X135132142Y-82919095D02*
X135179761Y-82966714D01*
X135227380Y-83109571D01*
X135227380Y-83204809D01*
X135179761Y-83347666D01*
X135084523Y-83442904D01*
X134989285Y-83490523D01*
X134798809Y-83538142D01*
X134655952Y-83538142D01*
X134465476Y-83490523D01*
X134370238Y-83442904D01*
X134275000Y-83347666D01*
X134227380Y-83204809D01*
X134227380Y-83109571D01*
X134275000Y-82966714D01*
X134322619Y-82919095D01*
X135227380Y-82347666D02*
X135179761Y-82442904D01*
X135132142Y-82490523D01*
X135036904Y-82538142D01*
X134751190Y-82538142D01*
X134655952Y-82490523D01*
X134608333Y-82442904D01*
X134560714Y-82347666D01*
X134560714Y-82204809D01*
X134608333Y-82109571D01*
X134655952Y-82061952D01*
X134751190Y-82014333D01*
X135036904Y-82014333D01*
X135132142Y-82061952D01*
X135179761Y-82109571D01*
X135227380Y-82204809D01*
X135227380Y-82347666D01*
X134560714Y-81585761D02*
X135227380Y-81585761D01*
X134655952Y-81585761D02*
X134608333Y-81538142D01*
X134560714Y-81442904D01*
X134560714Y-81300047D01*
X134608333Y-81204809D01*
X134703571Y-81157190D01*
X135227380Y-81157190D01*
X134560714Y-80681000D02*
X135227380Y-80681000D01*
X134655952Y-80681000D02*
X134608333Y-80633380D01*
X134560714Y-80538142D01*
X134560714Y-80395285D01*
X134608333Y-80300047D01*
X134703571Y-80252428D01*
X135227380Y-80252428D01*
X135322619Y-80014333D02*
X135322619Y-79252428D01*
X134227380Y-78823857D02*
X134227380Y-78728619D01*
X134275000Y-78633380D01*
X134322619Y-78585761D01*
X134417857Y-78538142D01*
X134608333Y-78490523D01*
X134846428Y-78490523D01*
X135036904Y-78538142D01*
X135132142Y-78585761D01*
X135179761Y-78633380D01*
X135227380Y-78728619D01*
X135227380Y-78823857D01*
X135179761Y-78919095D01*
X135132142Y-78966714D01*
X135036904Y-79014333D01*
X134846428Y-79061952D01*
X134608333Y-79061952D01*
X134417857Y-79014333D01*
X134322619Y-78966714D01*
X134275000Y-78919095D01*
X134227380Y-78823857D01*
X135227380Y-77538142D02*
X135227380Y-78109571D01*
X135227380Y-77823857D02*
X134227380Y-77823857D01*
X134370238Y-77919095D01*
X134465476Y-78014333D01*
X134513095Y-78109571D01*
X135227380Y-77204809D02*
X134560714Y-76681000D01*
X134560714Y-77204809D02*
X135227380Y-76681000D01*
X134227380Y-76109571D02*
X134227380Y-76014333D01*
X134275000Y-75919095D01*
X134322619Y-75871476D01*
X134417857Y-75823857D01*
X134608333Y-75776238D01*
X134846428Y-75776238D01*
X135036904Y-75823857D01*
X135132142Y-75871476D01*
X135179761Y-75919095D01*
X135227380Y-76014333D01*
X135227380Y-76109571D01*
X135179761Y-76204809D01*
X135132142Y-76252428D01*
X135036904Y-76300047D01*
X134846428Y-76347666D01*
X134608333Y-76347666D01*
X134417857Y-76300047D01*
X134322619Y-76252428D01*
X134275000Y-76204809D01*
X134227380Y-76109571D01*
X134560714Y-74919095D02*
X135227380Y-74919095D01*
X134179761Y-75157190D02*
X134894047Y-75395285D01*
X134894047Y-74776238D01*
X132327380Y-79990523D02*
X133041666Y-79990523D01*
X133184523Y-80038142D01*
X133279761Y-80133380D01*
X133327380Y-80276238D01*
X133327380Y-80371476D01*
X133327380Y-78990523D02*
X133327380Y-79561952D01*
X133327380Y-79276238D02*
X132327380Y-79276238D01*
X132470238Y-79371476D01*
X132565476Y-79466714D01*
X132613095Y-79561952D01*
X132327380Y-78133380D02*
X132327380Y-78323857D01*
X132375000Y-78419095D01*
X132422619Y-78466714D01*
X132565476Y-78561952D01*
X132755952Y-78609571D01*
X133136904Y-78609571D01*
X133232142Y-78561952D01*
X133279761Y-78514333D01*
X133327380Y-78419095D01*
X133327380Y-78228619D01*
X133279761Y-78133380D01*
X133232142Y-78085761D01*
X133136904Y-78038142D01*
X132898809Y-78038142D01*
X132803571Y-78085761D01*
X132755952Y-78133380D01*
X132708333Y-78228619D01*
X132708333Y-78419095D01*
X132755952Y-78514333D01*
X132803571Y-78561952D01*
X132898809Y-78609571D01*
%TO.C,R26*%
X104830380Y-104536714D02*
X104830380Y-103917666D01*
X105211333Y-104251000D01*
X105211333Y-104108142D01*
X105258952Y-104012904D01*
X105306571Y-103965285D01*
X105401809Y-103917666D01*
X105639904Y-103917666D01*
X105735142Y-103965285D01*
X105782761Y-104012904D01*
X105830380Y-104108142D01*
X105830380Y-104393857D01*
X105782761Y-104489095D01*
X105735142Y-104536714D01*
X104830380Y-103584333D02*
X104830380Y-102965285D01*
X105211333Y-103298619D01*
X105211333Y-103155761D01*
X105258952Y-103060523D01*
X105306571Y-103012904D01*
X105401809Y-102965285D01*
X105639904Y-102965285D01*
X105735142Y-103012904D01*
X105782761Y-103060523D01*
X105830380Y-103155761D01*
X105830380Y-103441476D01*
X105782761Y-103536714D01*
X105735142Y-103584333D01*
X104830380Y-102346238D02*
X104830380Y-102251000D01*
X104878000Y-102155761D01*
X104925619Y-102108142D01*
X105020857Y-102060523D01*
X105211333Y-102012904D01*
X105449428Y-102012904D01*
X105639904Y-102060523D01*
X105735142Y-102108142D01*
X105782761Y-102155761D01*
X105830380Y-102251000D01*
X105830380Y-102346238D01*
X105782761Y-102441476D01*
X105735142Y-102489095D01*
X105639904Y-102536714D01*
X105449428Y-102584333D01*
X105211333Y-102584333D01*
X105020857Y-102536714D01*
X104925619Y-102489095D01*
X104878000Y-102441476D01*
X104830380Y-102346238D01*
X101990380Y-103893857D02*
X101514190Y-104227190D01*
X101990380Y-104465285D02*
X100990380Y-104465285D01*
X100990380Y-104084333D01*
X101038000Y-103989095D01*
X101085619Y-103941476D01*
X101180857Y-103893857D01*
X101323714Y-103893857D01*
X101418952Y-103941476D01*
X101466571Y-103989095D01*
X101514190Y-104084333D01*
X101514190Y-104465285D01*
X101085619Y-103512904D02*
X101038000Y-103465285D01*
X100990380Y-103370047D01*
X100990380Y-103131952D01*
X101038000Y-103036714D01*
X101085619Y-102989095D01*
X101180857Y-102941476D01*
X101276095Y-102941476D01*
X101418952Y-102989095D01*
X101990380Y-103560523D01*
X101990380Y-102941476D01*
X100990380Y-102084333D02*
X100990380Y-102274809D01*
X101038000Y-102370047D01*
X101085619Y-102417666D01*
X101228476Y-102512904D01*
X101418952Y-102560523D01*
X101799904Y-102560523D01*
X101895142Y-102512904D01*
X101942761Y-102465285D01*
X101990380Y-102370047D01*
X101990380Y-102179571D01*
X101942761Y-102084333D01*
X101895142Y-102036714D01*
X101799904Y-101989095D01*
X101561809Y-101989095D01*
X101466571Y-102036714D01*
X101418952Y-102084333D01*
X101371333Y-102179571D01*
X101371333Y-102370047D01*
X101418952Y-102465285D01*
X101466571Y-102512904D01*
X101561809Y-102560523D01*
%TO.C,D21*%
X118093380Y-68841857D02*
X118093380Y-69318047D01*
X117093380Y-69318047D01*
X117569571Y-68508523D02*
X117569571Y-68175190D01*
X118093380Y-68032333D02*
X118093380Y-68508523D01*
X117093380Y-68508523D01*
X117093380Y-68032333D01*
X118093380Y-67603761D02*
X117093380Y-67603761D01*
X117093380Y-67365666D01*
X117141000Y-67222809D01*
X117236238Y-67127571D01*
X117331476Y-67079952D01*
X117521952Y-67032333D01*
X117664809Y-67032333D01*
X117855285Y-67079952D01*
X117950523Y-67127571D01*
X118045761Y-67222809D01*
X118093380Y-67365666D01*
X118093380Y-67603761D01*
%TO.C,D22*%
X95868380Y-68968857D02*
X95868380Y-69445047D01*
X94868380Y-69445047D01*
X95344571Y-68635523D02*
X95344571Y-68302190D01*
X95868380Y-68159333D02*
X95868380Y-68635523D01*
X94868380Y-68635523D01*
X94868380Y-68159333D01*
X95868380Y-67730761D02*
X94868380Y-67730761D01*
X94868380Y-67492666D01*
X94916000Y-67349809D01*
X95011238Y-67254571D01*
X95106476Y-67206952D01*
X95296952Y-67159333D01*
X95439809Y-67159333D01*
X95630285Y-67206952D01*
X95725523Y-67254571D01*
X95820761Y-67349809D01*
X95868380Y-67492666D01*
X95868380Y-67730761D01*
%TO.C,J7*%
X49407904Y-22046142D02*
X49360285Y-22093761D01*
X49217428Y-22141380D01*
X49122190Y-22141380D01*
X48979333Y-22093761D01*
X48884095Y-21998523D01*
X48836476Y-21903285D01*
X48788857Y-21712809D01*
X48788857Y-21569952D01*
X48836476Y-21379476D01*
X48884095Y-21284238D01*
X48979333Y-21189000D01*
X49122190Y-21141380D01*
X49217428Y-21141380D01*
X49360285Y-21189000D01*
X49407904Y-21236619D01*
X49979333Y-22141380D02*
X49884095Y-22093761D01*
X49836476Y-22046142D01*
X49788857Y-21950904D01*
X49788857Y-21665190D01*
X49836476Y-21569952D01*
X49884095Y-21522333D01*
X49979333Y-21474714D01*
X50122190Y-21474714D01*
X50217428Y-21522333D01*
X50265047Y-21569952D01*
X50312666Y-21665190D01*
X50312666Y-21950904D01*
X50265047Y-22046142D01*
X50217428Y-22093761D01*
X50122190Y-22141380D01*
X49979333Y-22141380D01*
X50741238Y-21474714D02*
X50741238Y-22141380D01*
X50741238Y-21569952D02*
X50788857Y-21522333D01*
X50884095Y-21474714D01*
X51026952Y-21474714D01*
X51122190Y-21522333D01*
X51169809Y-21617571D01*
X51169809Y-22141380D01*
X51646000Y-21474714D02*
X51646000Y-22141380D01*
X51646000Y-21569952D02*
X51693619Y-21522333D01*
X51788857Y-21474714D01*
X51931714Y-21474714D01*
X52026952Y-21522333D01*
X52074571Y-21617571D01*
X52074571Y-22141380D01*
X52312666Y-22236619D02*
X53074571Y-22236619D01*
X53503142Y-21141380D02*
X53598380Y-21141380D01*
X53693619Y-21189000D01*
X53741238Y-21236619D01*
X53788857Y-21331857D01*
X53836476Y-21522333D01*
X53836476Y-21760428D01*
X53788857Y-21950904D01*
X53741238Y-22046142D01*
X53693619Y-22093761D01*
X53598380Y-22141380D01*
X53503142Y-22141380D01*
X53407904Y-22093761D01*
X53360285Y-22046142D01*
X53312666Y-21950904D01*
X53265047Y-21760428D01*
X53265047Y-21522333D01*
X53312666Y-21331857D01*
X53360285Y-21236619D01*
X53407904Y-21189000D01*
X53503142Y-21141380D01*
X54788857Y-22141380D02*
X54217428Y-22141380D01*
X54503142Y-22141380D02*
X54503142Y-21141380D01*
X54407904Y-21284238D01*
X54312666Y-21379476D01*
X54217428Y-21427095D01*
X55122190Y-22141380D02*
X55646000Y-21474714D01*
X55122190Y-21474714D02*
X55646000Y-22141380D01*
X56217428Y-21141380D02*
X56312666Y-21141380D01*
X56407904Y-21189000D01*
X56455523Y-21236619D01*
X56503142Y-21331857D01*
X56550761Y-21522333D01*
X56550761Y-21760428D01*
X56503142Y-21950904D01*
X56455523Y-22046142D01*
X56407904Y-22093761D01*
X56312666Y-22141380D01*
X56217428Y-22141380D01*
X56122190Y-22093761D01*
X56074571Y-22046142D01*
X56026952Y-21950904D01*
X55979333Y-21760428D01*
X55979333Y-21522333D01*
X56026952Y-21331857D01*
X56074571Y-21236619D01*
X56122190Y-21189000D01*
X56217428Y-21141380D01*
X57407904Y-21474714D02*
X57407904Y-22141380D01*
X57169809Y-21093761D02*
X56931714Y-21808047D01*
X57550761Y-21808047D01*
X52812666Y-23041380D02*
X52812666Y-23755666D01*
X52765047Y-23898523D01*
X52669809Y-23993761D01*
X52526952Y-24041380D01*
X52431714Y-24041380D01*
X53193619Y-23041380D02*
X53860285Y-23041380D01*
X53431714Y-24041380D01*
%TO.C,J9*%
X102366904Y-22173142D02*
X102319285Y-22220761D01*
X102176428Y-22268380D01*
X102081190Y-22268380D01*
X101938333Y-22220761D01*
X101843095Y-22125523D01*
X101795476Y-22030285D01*
X101747857Y-21839809D01*
X101747857Y-21696952D01*
X101795476Y-21506476D01*
X101843095Y-21411238D01*
X101938333Y-21316000D01*
X102081190Y-21268380D01*
X102176428Y-21268380D01*
X102319285Y-21316000D01*
X102366904Y-21363619D01*
X102938333Y-22268380D02*
X102843095Y-22220761D01*
X102795476Y-22173142D01*
X102747857Y-22077904D01*
X102747857Y-21792190D01*
X102795476Y-21696952D01*
X102843095Y-21649333D01*
X102938333Y-21601714D01*
X103081190Y-21601714D01*
X103176428Y-21649333D01*
X103224047Y-21696952D01*
X103271666Y-21792190D01*
X103271666Y-22077904D01*
X103224047Y-22173142D01*
X103176428Y-22220761D01*
X103081190Y-22268380D01*
X102938333Y-22268380D01*
X103700238Y-21601714D02*
X103700238Y-22268380D01*
X103700238Y-21696952D02*
X103747857Y-21649333D01*
X103843095Y-21601714D01*
X103985952Y-21601714D01*
X104081190Y-21649333D01*
X104128809Y-21744571D01*
X104128809Y-22268380D01*
X104605000Y-21601714D02*
X104605000Y-22268380D01*
X104605000Y-21696952D02*
X104652619Y-21649333D01*
X104747857Y-21601714D01*
X104890714Y-21601714D01*
X104985952Y-21649333D01*
X105033571Y-21744571D01*
X105033571Y-22268380D01*
X105271666Y-22363619D02*
X106033571Y-22363619D01*
X106462142Y-21268380D02*
X106557380Y-21268380D01*
X106652619Y-21316000D01*
X106700238Y-21363619D01*
X106747857Y-21458857D01*
X106795476Y-21649333D01*
X106795476Y-21887428D01*
X106747857Y-22077904D01*
X106700238Y-22173142D01*
X106652619Y-22220761D01*
X106557380Y-22268380D01*
X106462142Y-22268380D01*
X106366904Y-22220761D01*
X106319285Y-22173142D01*
X106271666Y-22077904D01*
X106224047Y-21887428D01*
X106224047Y-21649333D01*
X106271666Y-21458857D01*
X106319285Y-21363619D01*
X106366904Y-21316000D01*
X106462142Y-21268380D01*
X107747857Y-22268380D02*
X107176428Y-22268380D01*
X107462142Y-22268380D02*
X107462142Y-21268380D01*
X107366904Y-21411238D01*
X107271666Y-21506476D01*
X107176428Y-21554095D01*
X108081190Y-22268380D02*
X108605000Y-21601714D01*
X108081190Y-21601714D02*
X108605000Y-22268380D01*
X109176428Y-21268380D02*
X109271666Y-21268380D01*
X109366904Y-21316000D01*
X109414523Y-21363619D01*
X109462142Y-21458857D01*
X109509761Y-21649333D01*
X109509761Y-21887428D01*
X109462142Y-22077904D01*
X109414523Y-22173142D01*
X109366904Y-22220761D01*
X109271666Y-22268380D01*
X109176428Y-22268380D01*
X109081190Y-22220761D01*
X109033571Y-22173142D01*
X108985952Y-22077904D01*
X108938333Y-21887428D01*
X108938333Y-21649333D01*
X108985952Y-21458857D01*
X109033571Y-21363619D01*
X109081190Y-21316000D01*
X109176428Y-21268380D01*
X110366904Y-21601714D02*
X110366904Y-22268380D01*
X110128809Y-21220761D02*
X109890714Y-21935047D01*
X110509761Y-21935047D01*
X105771666Y-23168380D02*
X105771666Y-23882666D01*
X105724047Y-24025523D01*
X105628809Y-24120761D01*
X105485952Y-24168380D01*
X105390714Y-24168380D01*
X106295476Y-24168380D02*
X106485952Y-24168380D01*
X106581190Y-24120761D01*
X106628809Y-24073142D01*
X106724047Y-23930285D01*
X106771666Y-23739809D01*
X106771666Y-23358857D01*
X106724047Y-23263619D01*
X106676428Y-23216000D01*
X106581190Y-23168380D01*
X106390714Y-23168380D01*
X106295476Y-23216000D01*
X106247857Y-23263619D01*
X106200238Y-23358857D01*
X106200238Y-23596952D01*
X106247857Y-23692190D01*
X106295476Y-23739809D01*
X106390714Y-23787428D01*
X106581190Y-23787428D01*
X106676428Y-23739809D01*
X106724047Y-23692190D01*
X106771666Y-23596952D01*
%TO.C,R27*%
X69897714Y-70938380D02*
X69421523Y-70938380D01*
X69373904Y-71414571D01*
X69421523Y-71366952D01*
X69516761Y-71319333D01*
X69754857Y-71319333D01*
X69850095Y-71366952D01*
X69897714Y-71414571D01*
X69945333Y-71509809D01*
X69945333Y-71747904D01*
X69897714Y-71843142D01*
X69850095Y-71890761D01*
X69754857Y-71938380D01*
X69516761Y-71938380D01*
X69421523Y-71890761D01*
X69373904Y-71843142D01*
X70802476Y-70938380D02*
X70612000Y-70938380D01*
X70516761Y-70986000D01*
X70469142Y-71033619D01*
X70373904Y-71176476D01*
X70326285Y-71366952D01*
X70326285Y-71747904D01*
X70373904Y-71843142D01*
X70421523Y-71890761D01*
X70516761Y-71938380D01*
X70707238Y-71938380D01*
X70802476Y-71890761D01*
X70850095Y-71843142D01*
X70897714Y-71747904D01*
X70897714Y-71509809D01*
X70850095Y-71414571D01*
X70802476Y-71366952D01*
X70707238Y-71319333D01*
X70516761Y-71319333D01*
X70421523Y-71366952D01*
X70373904Y-71414571D01*
X70326285Y-71509809D01*
X71516761Y-70938380D02*
X71612000Y-70938380D01*
X71707238Y-70986000D01*
X71754857Y-71033619D01*
X71802476Y-71128857D01*
X71850095Y-71319333D01*
X71850095Y-71557428D01*
X71802476Y-71747904D01*
X71754857Y-71843142D01*
X71707238Y-71890761D01*
X71612000Y-71938380D01*
X71516761Y-71938380D01*
X71421523Y-71890761D01*
X71373904Y-71843142D01*
X71326285Y-71747904D01*
X71278666Y-71557428D01*
X71278666Y-71319333D01*
X71326285Y-71128857D01*
X71373904Y-71033619D01*
X71421523Y-70986000D01*
X71516761Y-70938380D01*
X69969142Y-75778380D02*
X69635809Y-75302190D01*
X69397714Y-75778380D02*
X69397714Y-74778380D01*
X69778666Y-74778380D01*
X69873904Y-74826000D01*
X69921523Y-74873619D01*
X69969142Y-74968857D01*
X69969142Y-75111714D01*
X69921523Y-75206952D01*
X69873904Y-75254571D01*
X69778666Y-75302190D01*
X69397714Y-75302190D01*
X70350095Y-74873619D02*
X70397714Y-74826000D01*
X70492952Y-74778380D01*
X70731047Y-74778380D01*
X70826285Y-74826000D01*
X70873904Y-74873619D01*
X70921523Y-74968857D01*
X70921523Y-75064095D01*
X70873904Y-75206952D01*
X70302476Y-75778380D01*
X70921523Y-75778380D01*
X71254857Y-74778380D02*
X71921523Y-74778380D01*
X71492952Y-75778380D01*
%TO.C,R28*%
X122403380Y-68913285D02*
X122403380Y-69389476D01*
X122879571Y-69437095D01*
X122831952Y-69389476D01*
X122784333Y-69294238D01*
X122784333Y-69056142D01*
X122831952Y-68960904D01*
X122879571Y-68913285D01*
X122974809Y-68865666D01*
X123212904Y-68865666D01*
X123308142Y-68913285D01*
X123355761Y-68960904D01*
X123403380Y-69056142D01*
X123403380Y-69294238D01*
X123355761Y-69389476D01*
X123308142Y-69437095D01*
X122403380Y-68008523D02*
X122403380Y-68199000D01*
X122451000Y-68294238D01*
X122498619Y-68341857D01*
X122641476Y-68437095D01*
X122831952Y-68484714D01*
X123212904Y-68484714D01*
X123308142Y-68437095D01*
X123355761Y-68389476D01*
X123403380Y-68294238D01*
X123403380Y-68103761D01*
X123355761Y-68008523D01*
X123308142Y-67960904D01*
X123212904Y-67913285D01*
X122974809Y-67913285D01*
X122879571Y-67960904D01*
X122831952Y-68008523D01*
X122784333Y-68103761D01*
X122784333Y-68294238D01*
X122831952Y-68389476D01*
X122879571Y-68437095D01*
X122974809Y-68484714D01*
X122403380Y-67294238D02*
X122403380Y-67199000D01*
X122451000Y-67103761D01*
X122498619Y-67056142D01*
X122593857Y-67008523D01*
X122784333Y-66960904D01*
X123022428Y-66960904D01*
X123212904Y-67008523D01*
X123308142Y-67056142D01*
X123355761Y-67103761D01*
X123403380Y-67199000D01*
X123403380Y-67294238D01*
X123355761Y-67389476D01*
X123308142Y-67437095D01*
X123212904Y-67484714D01*
X123022428Y-67532333D01*
X122784333Y-67532333D01*
X122593857Y-67484714D01*
X122498619Y-67437095D01*
X122451000Y-67389476D01*
X122403380Y-67294238D01*
X119563380Y-68841857D02*
X119087190Y-69175190D01*
X119563380Y-69413285D02*
X118563380Y-69413285D01*
X118563380Y-69032333D01*
X118611000Y-68937095D01*
X118658619Y-68889476D01*
X118753857Y-68841857D01*
X118896714Y-68841857D01*
X118991952Y-68889476D01*
X119039571Y-68937095D01*
X119087190Y-69032333D01*
X119087190Y-69413285D01*
X118658619Y-68460904D02*
X118611000Y-68413285D01*
X118563380Y-68318047D01*
X118563380Y-68079952D01*
X118611000Y-67984714D01*
X118658619Y-67937095D01*
X118753857Y-67889476D01*
X118849095Y-67889476D01*
X118991952Y-67937095D01*
X119563380Y-68508523D01*
X119563380Y-67889476D01*
X118991952Y-67318047D02*
X118944333Y-67413285D01*
X118896714Y-67460904D01*
X118801476Y-67508523D01*
X118753857Y-67508523D01*
X118658619Y-67460904D01*
X118611000Y-67413285D01*
X118563380Y-67318047D01*
X118563380Y-67127571D01*
X118611000Y-67032333D01*
X118658619Y-66984714D01*
X118753857Y-66937095D01*
X118801476Y-66937095D01*
X118896714Y-66984714D01*
X118944333Y-67032333D01*
X118991952Y-67127571D01*
X118991952Y-67318047D01*
X119039571Y-67413285D01*
X119087190Y-67460904D01*
X119182428Y-67508523D01*
X119372904Y-67508523D01*
X119468142Y-67460904D01*
X119515761Y-67413285D01*
X119563380Y-67318047D01*
X119563380Y-67127571D01*
X119515761Y-67032333D01*
X119468142Y-66984714D01*
X119372904Y-66937095D01*
X119182428Y-66937095D01*
X119087190Y-66984714D01*
X119039571Y-67032333D01*
X118991952Y-67127571D01*
%TO.C,RLY1*%
X107271000Y-56959000D02*
X107223380Y-57054238D01*
X107223380Y-57197095D01*
X107271000Y-57339952D01*
X107366238Y-57435190D01*
X107461476Y-57482809D01*
X107651952Y-57530428D01*
X107794809Y-57530428D01*
X107985285Y-57482809D01*
X108080523Y-57435190D01*
X108175761Y-57339952D01*
X108223380Y-57197095D01*
X108223380Y-57101857D01*
X108175761Y-56959000D01*
X108128142Y-56911380D01*
X107794809Y-56911380D01*
X107794809Y-57101857D01*
X107223380Y-56006619D02*
X107223380Y-56482809D01*
X107699571Y-56530428D01*
X107651952Y-56482809D01*
X107604333Y-56387571D01*
X107604333Y-56149476D01*
X107651952Y-56054238D01*
X107699571Y-56006619D01*
X107794809Y-55959000D01*
X108032904Y-55959000D01*
X108128142Y-56006619D01*
X108175761Y-56054238D01*
X108223380Y-56149476D01*
X108223380Y-56387571D01*
X108175761Y-56482809D01*
X108128142Y-56530428D01*
X108223380Y-55054238D02*
X108223380Y-55530428D01*
X107223380Y-55530428D01*
X107699571Y-54720904D02*
X107699571Y-54387571D01*
X108223380Y-54244714D02*
X108223380Y-54720904D01*
X107223380Y-54720904D01*
X107223380Y-54244714D01*
X107842428Y-53816142D02*
X107842428Y-53054238D01*
X108223380Y-52054238D02*
X108223380Y-52625666D01*
X108223380Y-52339952D02*
X107223380Y-52339952D01*
X107366238Y-52435190D01*
X107461476Y-52530428D01*
X107509095Y-52625666D01*
X107556714Y-51197095D02*
X108223380Y-51197095D01*
X107175761Y-51435190D02*
X107890047Y-51673285D01*
X107890047Y-51054238D01*
X108318619Y-50911380D02*
X108318619Y-50149476D01*
X108223380Y-49911380D02*
X107223380Y-49911380D01*
X107223380Y-49673285D01*
X107271000Y-49530428D01*
X107366238Y-49435190D01*
X107461476Y-49387571D01*
X107651952Y-49339952D01*
X107794809Y-49339952D01*
X107985285Y-49387571D01*
X108080523Y-49435190D01*
X108175761Y-49530428D01*
X108223380Y-49673285D01*
X108223380Y-49911380D01*
X108128142Y-48339952D02*
X108175761Y-48387571D01*
X108223380Y-48530428D01*
X108223380Y-48625666D01*
X108175761Y-48768523D01*
X108080523Y-48863761D01*
X107985285Y-48911380D01*
X107794809Y-48959000D01*
X107651952Y-48959000D01*
X107461476Y-48911380D01*
X107366238Y-48863761D01*
X107271000Y-48768523D01*
X107223380Y-48625666D01*
X107223380Y-48530428D01*
X107271000Y-48387571D01*
X107318619Y-48339952D01*
X107223380Y-47435190D02*
X107223380Y-47911380D01*
X107699571Y-47959000D01*
X107651952Y-47911380D01*
X107604333Y-47816142D01*
X107604333Y-47578047D01*
X107651952Y-47482809D01*
X107699571Y-47435190D01*
X107794809Y-47387571D01*
X108032904Y-47387571D01*
X108128142Y-47435190D01*
X108175761Y-47482809D01*
X108223380Y-47578047D01*
X108223380Y-47816142D01*
X108175761Y-47911380D01*
X108128142Y-47959000D01*
X117798380Y-53159000D02*
X117322190Y-53492333D01*
X117798380Y-53730428D02*
X116798380Y-53730428D01*
X116798380Y-53349476D01*
X116846000Y-53254238D01*
X116893619Y-53206619D01*
X116988857Y-53159000D01*
X117131714Y-53159000D01*
X117226952Y-53206619D01*
X117274571Y-53254238D01*
X117322190Y-53349476D01*
X117322190Y-53730428D01*
X117798380Y-52254238D02*
X117798380Y-52730428D01*
X116798380Y-52730428D01*
X117322190Y-51730428D02*
X117798380Y-51730428D01*
X116798380Y-52063761D02*
X117322190Y-51730428D01*
X116798380Y-51397095D01*
X117798380Y-50539952D02*
X117798380Y-51111380D01*
X117798380Y-50825666D02*
X116798380Y-50825666D01*
X116941238Y-50920904D01*
X117036476Y-51016142D01*
X117084095Y-51111380D01*
%TO.C,RLY2*%
X86189000Y-56959000D02*
X86141380Y-57054238D01*
X86141380Y-57197095D01*
X86189000Y-57339952D01*
X86284238Y-57435190D01*
X86379476Y-57482809D01*
X86569952Y-57530428D01*
X86712809Y-57530428D01*
X86903285Y-57482809D01*
X86998523Y-57435190D01*
X87093761Y-57339952D01*
X87141380Y-57197095D01*
X87141380Y-57101857D01*
X87093761Y-56959000D01*
X87046142Y-56911380D01*
X86712809Y-56911380D01*
X86712809Y-57101857D01*
X86141380Y-56006619D02*
X86141380Y-56482809D01*
X86617571Y-56530428D01*
X86569952Y-56482809D01*
X86522333Y-56387571D01*
X86522333Y-56149476D01*
X86569952Y-56054238D01*
X86617571Y-56006619D01*
X86712809Y-55959000D01*
X86950904Y-55959000D01*
X87046142Y-56006619D01*
X87093761Y-56054238D01*
X87141380Y-56149476D01*
X87141380Y-56387571D01*
X87093761Y-56482809D01*
X87046142Y-56530428D01*
X87141380Y-55054238D02*
X87141380Y-55530428D01*
X86141380Y-55530428D01*
X86617571Y-54720904D02*
X86617571Y-54387571D01*
X87141380Y-54244714D02*
X87141380Y-54720904D01*
X86141380Y-54720904D01*
X86141380Y-54244714D01*
X86760428Y-53816142D02*
X86760428Y-53054238D01*
X87141380Y-52054238D02*
X87141380Y-52625666D01*
X87141380Y-52339952D02*
X86141380Y-52339952D01*
X86284238Y-52435190D01*
X86379476Y-52530428D01*
X86427095Y-52625666D01*
X86474714Y-51197095D02*
X87141380Y-51197095D01*
X86093761Y-51435190D02*
X86808047Y-51673285D01*
X86808047Y-51054238D01*
X87236619Y-50911380D02*
X87236619Y-50149476D01*
X87141380Y-49911380D02*
X86141380Y-49911380D01*
X86141380Y-49673285D01*
X86189000Y-49530428D01*
X86284238Y-49435190D01*
X86379476Y-49387571D01*
X86569952Y-49339952D01*
X86712809Y-49339952D01*
X86903285Y-49387571D01*
X86998523Y-49435190D01*
X87093761Y-49530428D01*
X87141380Y-49673285D01*
X87141380Y-49911380D01*
X87046142Y-48339952D02*
X87093761Y-48387571D01*
X87141380Y-48530428D01*
X87141380Y-48625666D01*
X87093761Y-48768523D01*
X86998523Y-48863761D01*
X86903285Y-48911380D01*
X86712809Y-48959000D01*
X86569952Y-48959000D01*
X86379476Y-48911380D01*
X86284238Y-48863761D01*
X86189000Y-48768523D01*
X86141380Y-48625666D01*
X86141380Y-48530428D01*
X86189000Y-48387571D01*
X86236619Y-48339952D01*
X86141380Y-47435190D02*
X86141380Y-47911380D01*
X86617571Y-47959000D01*
X86569952Y-47911380D01*
X86522333Y-47816142D01*
X86522333Y-47578047D01*
X86569952Y-47482809D01*
X86617571Y-47435190D01*
X86712809Y-47387571D01*
X86950904Y-47387571D01*
X87046142Y-47435190D01*
X87093761Y-47482809D01*
X87141380Y-47578047D01*
X87141380Y-47816142D01*
X87093761Y-47911380D01*
X87046142Y-47959000D01*
X96716380Y-53159000D02*
X96240190Y-53492333D01*
X96716380Y-53730428D02*
X95716380Y-53730428D01*
X95716380Y-53349476D01*
X95764000Y-53254238D01*
X95811619Y-53206619D01*
X95906857Y-53159000D01*
X96049714Y-53159000D01*
X96144952Y-53206619D01*
X96192571Y-53254238D01*
X96240190Y-53349476D01*
X96240190Y-53730428D01*
X96716380Y-52254238D02*
X96716380Y-52730428D01*
X95716380Y-52730428D01*
X96240190Y-51730428D02*
X96716380Y-51730428D01*
X95716380Y-52063761D02*
X96240190Y-51730428D01*
X95716380Y-51397095D01*
X95811619Y-51111380D02*
X95764000Y-51063761D01*
X95716380Y-50968523D01*
X95716380Y-50730428D01*
X95764000Y-50635190D01*
X95811619Y-50587571D01*
X95906857Y-50539952D01*
X96002095Y-50539952D01*
X96144952Y-50587571D01*
X96716380Y-51159000D01*
X96716380Y-50539952D01*
%TO.C,U3*%
X72648380Y-41782571D02*
X72648380Y-41211142D01*
X73648380Y-41496857D02*
X72648380Y-41496857D01*
X73648380Y-40877809D02*
X72648380Y-40877809D01*
X72648380Y-40496857D01*
X72696000Y-40401619D01*
X72743619Y-40354000D01*
X72838857Y-40306380D01*
X72981714Y-40306380D01*
X73076952Y-40354000D01*
X73124571Y-40401619D01*
X73172190Y-40496857D01*
X73172190Y-40877809D01*
X73648380Y-39877809D02*
X72648380Y-39877809D01*
X73553142Y-38830190D02*
X73600761Y-38877809D01*
X73648380Y-39020666D01*
X73648380Y-39115904D01*
X73600761Y-39258761D01*
X73505523Y-39354000D01*
X73410285Y-39401619D01*
X73219809Y-39449238D01*
X73076952Y-39449238D01*
X72886476Y-39401619D01*
X72791238Y-39354000D01*
X72696000Y-39258761D01*
X72648380Y-39115904D01*
X72648380Y-39020666D01*
X72696000Y-38877809D01*
X72743619Y-38830190D01*
X72648380Y-37973047D02*
X72648380Y-38163523D01*
X72696000Y-38258761D01*
X72743619Y-38306380D01*
X72886476Y-38401619D01*
X73076952Y-38449238D01*
X73457904Y-38449238D01*
X73553142Y-38401619D01*
X73600761Y-38354000D01*
X73648380Y-38258761D01*
X73648380Y-38068285D01*
X73600761Y-37973047D01*
X73553142Y-37925428D01*
X73457904Y-37877809D01*
X73219809Y-37877809D01*
X73124571Y-37925428D01*
X73076952Y-37973047D01*
X73029333Y-38068285D01*
X73029333Y-38258761D01*
X73076952Y-38354000D01*
X73124571Y-38401619D01*
X73219809Y-38449238D01*
X72648380Y-36973047D02*
X72648380Y-37449238D01*
X73124571Y-37496857D01*
X73076952Y-37449238D01*
X73029333Y-37354000D01*
X73029333Y-37115904D01*
X73076952Y-37020666D01*
X73124571Y-36973047D01*
X73219809Y-36925428D01*
X73457904Y-36925428D01*
X73553142Y-36973047D01*
X73600761Y-37020666D01*
X73648380Y-37115904D01*
X73648380Y-37354000D01*
X73600761Y-37449238D01*
X73553142Y-37496857D01*
X73648380Y-36449238D02*
X73648380Y-36258761D01*
X73600761Y-36163523D01*
X73553142Y-36115904D01*
X73410285Y-36020666D01*
X73219809Y-35973047D01*
X72838857Y-35973047D01*
X72743619Y-36020666D01*
X72696000Y-36068285D01*
X72648380Y-36163523D01*
X72648380Y-36354000D01*
X72696000Y-36449238D01*
X72743619Y-36496857D01*
X72838857Y-36544476D01*
X73076952Y-36544476D01*
X73172190Y-36496857D01*
X73219809Y-36449238D01*
X73267428Y-36354000D01*
X73267428Y-36163523D01*
X73219809Y-36068285D01*
X73172190Y-36020666D01*
X73076952Y-35973047D01*
X72648380Y-35068285D02*
X72648380Y-35544476D01*
X73124571Y-35592095D01*
X73076952Y-35544476D01*
X73029333Y-35449238D01*
X73029333Y-35211142D01*
X73076952Y-35115904D01*
X73124571Y-35068285D01*
X73219809Y-35020666D01*
X73457904Y-35020666D01*
X73553142Y-35068285D01*
X73600761Y-35115904D01*
X73648380Y-35211142D01*
X73648380Y-35449238D01*
X73600761Y-35544476D01*
X73553142Y-35592095D01*
X58888380Y-39115904D02*
X59697904Y-39115904D01*
X59793142Y-39068285D01*
X59840761Y-39020666D01*
X59888380Y-38925428D01*
X59888380Y-38734952D01*
X59840761Y-38639714D01*
X59793142Y-38592095D01*
X59697904Y-38544476D01*
X58888380Y-38544476D01*
X58888380Y-38163523D02*
X58888380Y-37544476D01*
X59269333Y-37877809D01*
X59269333Y-37734952D01*
X59316952Y-37639714D01*
X59364571Y-37592095D01*
X59459809Y-37544476D01*
X59697904Y-37544476D01*
X59793142Y-37592095D01*
X59840761Y-37639714D01*
X59888380Y-37734952D01*
X59888380Y-38020666D01*
X59840761Y-38115904D01*
X59793142Y-38163523D01*
%TO.C,J6*%
X82300142Y-75299095D02*
X82347761Y-75346714D01*
X82395380Y-75489571D01*
X82395380Y-75584809D01*
X82347761Y-75727666D01*
X82252523Y-75822904D01*
X82157285Y-75870523D01*
X81966809Y-75918142D01*
X81823952Y-75918142D01*
X81633476Y-75870523D01*
X81538238Y-75822904D01*
X81443000Y-75727666D01*
X81395380Y-75584809D01*
X81395380Y-75489571D01*
X81443000Y-75346714D01*
X81490619Y-75299095D01*
X82395380Y-74727666D02*
X82347761Y-74822904D01*
X82300142Y-74870523D01*
X82204904Y-74918142D01*
X81919190Y-74918142D01*
X81823952Y-74870523D01*
X81776333Y-74822904D01*
X81728714Y-74727666D01*
X81728714Y-74584809D01*
X81776333Y-74489571D01*
X81823952Y-74441952D01*
X81919190Y-74394333D01*
X82204904Y-74394333D01*
X82300142Y-74441952D01*
X82347761Y-74489571D01*
X82395380Y-74584809D01*
X82395380Y-74727666D01*
X81728714Y-73965761D02*
X82395380Y-73965761D01*
X81823952Y-73965761D02*
X81776333Y-73918142D01*
X81728714Y-73822904D01*
X81728714Y-73680047D01*
X81776333Y-73584809D01*
X81871571Y-73537190D01*
X82395380Y-73537190D01*
X81728714Y-73061000D02*
X82395380Y-73061000D01*
X81823952Y-73061000D02*
X81776333Y-73013380D01*
X81728714Y-72918142D01*
X81728714Y-72775285D01*
X81776333Y-72680047D01*
X81871571Y-72632428D01*
X82395380Y-72632428D01*
X82490619Y-72394333D02*
X82490619Y-71632428D01*
X81395380Y-71203857D02*
X81395380Y-71108619D01*
X81443000Y-71013380D01*
X81490619Y-70965761D01*
X81585857Y-70918142D01*
X81776333Y-70870523D01*
X82014428Y-70870523D01*
X82204904Y-70918142D01*
X82300142Y-70965761D01*
X82347761Y-71013380D01*
X82395380Y-71108619D01*
X82395380Y-71203857D01*
X82347761Y-71299095D01*
X82300142Y-71346714D01*
X82204904Y-71394333D01*
X82014428Y-71441952D01*
X81776333Y-71441952D01*
X81585857Y-71394333D01*
X81490619Y-71346714D01*
X81443000Y-71299095D01*
X81395380Y-71203857D01*
X82395380Y-69918142D02*
X82395380Y-70489571D01*
X82395380Y-70203857D02*
X81395380Y-70203857D01*
X81538238Y-70299095D01*
X81633476Y-70394333D01*
X81681095Y-70489571D01*
X82395380Y-69584809D02*
X81728714Y-69061000D01*
X81728714Y-69584809D02*
X82395380Y-69061000D01*
X81395380Y-68489571D02*
X81395380Y-68394333D01*
X81443000Y-68299095D01*
X81490619Y-68251476D01*
X81585857Y-68203857D01*
X81776333Y-68156238D01*
X82014428Y-68156238D01*
X82204904Y-68203857D01*
X82300142Y-68251476D01*
X82347761Y-68299095D01*
X82395380Y-68394333D01*
X82395380Y-68489571D01*
X82347761Y-68584809D01*
X82300142Y-68632428D01*
X82204904Y-68680047D01*
X82014428Y-68727666D01*
X81776333Y-68727666D01*
X81585857Y-68680047D01*
X81490619Y-68632428D01*
X81443000Y-68584809D01*
X81395380Y-68489571D01*
X81728714Y-67299095D02*
X82395380Y-67299095D01*
X81347761Y-67537190D02*
X82062047Y-67775285D01*
X82062047Y-67156238D01*
X79495380Y-71894333D02*
X80209666Y-71894333D01*
X80352523Y-71941952D01*
X80447761Y-72037190D01*
X80495380Y-72180047D01*
X80495380Y-72275285D01*
X79495380Y-70989571D02*
X79495380Y-71180047D01*
X79543000Y-71275285D01*
X79590619Y-71322904D01*
X79733476Y-71418142D01*
X79923952Y-71465761D01*
X80304904Y-71465761D01*
X80400142Y-71418142D01*
X80447761Y-71370523D01*
X80495380Y-71275285D01*
X80495380Y-71084809D01*
X80447761Y-70989571D01*
X80400142Y-70941952D01*
X80304904Y-70894333D01*
X80066809Y-70894333D01*
X79971571Y-70941952D01*
X79923952Y-70989571D01*
X79876333Y-71084809D01*
X79876333Y-71275285D01*
X79923952Y-71370523D01*
X79971571Y-71418142D01*
X80066809Y-71465761D01*
%TO.C,D19*%
X113030476Y-31988380D02*
X113030476Y-30988380D01*
X113268571Y-30988380D01*
X113411428Y-31036000D01*
X113506666Y-31131238D01*
X113554285Y-31226476D01*
X113601904Y-31416952D01*
X113601904Y-31559809D01*
X113554285Y-31750285D01*
X113506666Y-31845523D01*
X113411428Y-31940761D01*
X113268571Y-31988380D01*
X113030476Y-31988380D01*
X113792380Y-32083619D02*
X114554285Y-32083619D01*
X114744761Y-31940761D02*
X114887619Y-31988380D01*
X115125714Y-31988380D01*
X115220952Y-31940761D01*
X115268571Y-31893142D01*
X115316190Y-31797904D01*
X115316190Y-31702666D01*
X115268571Y-31607428D01*
X115220952Y-31559809D01*
X115125714Y-31512190D01*
X114935238Y-31464571D01*
X114840000Y-31416952D01*
X114792380Y-31369333D01*
X114744761Y-31274095D01*
X114744761Y-31178857D01*
X114792380Y-31083619D01*
X114840000Y-31036000D01*
X114935238Y-30988380D01*
X115173333Y-30988380D01*
X115316190Y-31036000D01*
X116173333Y-31940761D02*
X116078095Y-31988380D01*
X115887619Y-31988380D01*
X115792380Y-31940761D01*
X115744761Y-31893142D01*
X115697142Y-31797904D01*
X115697142Y-31512190D01*
X115744761Y-31416952D01*
X115792380Y-31369333D01*
X115887619Y-31321714D01*
X116078095Y-31321714D01*
X116173333Y-31369333D01*
X116601904Y-31988380D02*
X116601904Y-30988380D01*
X117030476Y-31988380D02*
X117030476Y-31464571D01*
X116982857Y-31369333D01*
X116887619Y-31321714D01*
X116744761Y-31321714D01*
X116649523Y-31369333D01*
X116601904Y-31416952D01*
X117649523Y-31988380D02*
X117554285Y-31940761D01*
X117506666Y-31893142D01*
X117459047Y-31797904D01*
X117459047Y-31512190D01*
X117506666Y-31416952D01*
X117554285Y-31369333D01*
X117649523Y-31321714D01*
X117792380Y-31321714D01*
X117887619Y-31369333D01*
X117935238Y-31416952D01*
X117982857Y-31512190D01*
X117982857Y-31797904D01*
X117935238Y-31893142D01*
X117887619Y-31940761D01*
X117792380Y-31988380D01*
X117649523Y-31988380D01*
X118268571Y-31321714D02*
X118649523Y-31321714D01*
X118411428Y-30988380D02*
X118411428Y-31845523D01*
X118459047Y-31940761D01*
X118554285Y-31988380D01*
X118649523Y-31988380D01*
X118840000Y-31321714D02*
X119220952Y-31321714D01*
X118982857Y-30988380D02*
X118982857Y-31845523D01*
X119030476Y-31940761D01*
X119125714Y-31988380D01*
X119220952Y-31988380D01*
X119554285Y-31988380D02*
X119554285Y-30988380D01*
X119649523Y-31607428D02*
X119935238Y-31988380D01*
X119935238Y-31321714D02*
X119554285Y-31702666D01*
X120268571Y-31321714D02*
X120506666Y-31988380D01*
X120744761Y-31321714D02*
X120506666Y-31988380D01*
X120411428Y-32226476D01*
X120363809Y-32274095D01*
X120268571Y-32321714D01*
X114950714Y-35758380D02*
X114950714Y-34758380D01*
X115188809Y-34758380D01*
X115331666Y-34806000D01*
X115426904Y-34901238D01*
X115474523Y-34996476D01*
X115522142Y-35186952D01*
X115522142Y-35329809D01*
X115474523Y-35520285D01*
X115426904Y-35615523D01*
X115331666Y-35710761D01*
X115188809Y-35758380D01*
X114950714Y-35758380D01*
X116474523Y-35758380D02*
X115903095Y-35758380D01*
X116188809Y-35758380D02*
X116188809Y-34758380D01*
X116093571Y-34901238D01*
X115998333Y-34996476D01*
X115903095Y-35044095D01*
X116950714Y-35758380D02*
X117141190Y-35758380D01*
X117236428Y-35710761D01*
X117284047Y-35663142D01*
X117379285Y-35520285D01*
X117426904Y-35329809D01*
X117426904Y-34948857D01*
X117379285Y-34853619D01*
X117331666Y-34806000D01*
X117236428Y-34758380D01*
X117045952Y-34758380D01*
X116950714Y-34806000D01*
X116903095Y-34853619D01*
X116855476Y-34948857D01*
X116855476Y-35186952D01*
X116903095Y-35282190D01*
X116950714Y-35329809D01*
X117045952Y-35377428D01*
X117236428Y-35377428D01*
X117331666Y-35329809D01*
X117379285Y-35282190D01*
X117426904Y-35186952D01*
X124198095Y-38058380D02*
X124198095Y-37058380D01*
X124769523Y-38058380D02*
X124340952Y-37486952D01*
X124769523Y-37058380D02*
X124198095Y-37629809D01*
%TO.C,D20*%
X92456476Y-31988380D02*
X92456476Y-30988380D01*
X92694571Y-30988380D01*
X92837428Y-31036000D01*
X92932666Y-31131238D01*
X92980285Y-31226476D01*
X93027904Y-31416952D01*
X93027904Y-31559809D01*
X92980285Y-31750285D01*
X92932666Y-31845523D01*
X92837428Y-31940761D01*
X92694571Y-31988380D01*
X92456476Y-31988380D01*
X93218380Y-32083619D02*
X93980285Y-32083619D01*
X94170761Y-31940761D02*
X94313619Y-31988380D01*
X94551714Y-31988380D01*
X94646952Y-31940761D01*
X94694571Y-31893142D01*
X94742190Y-31797904D01*
X94742190Y-31702666D01*
X94694571Y-31607428D01*
X94646952Y-31559809D01*
X94551714Y-31512190D01*
X94361238Y-31464571D01*
X94266000Y-31416952D01*
X94218380Y-31369333D01*
X94170761Y-31274095D01*
X94170761Y-31178857D01*
X94218380Y-31083619D01*
X94266000Y-31036000D01*
X94361238Y-30988380D01*
X94599333Y-30988380D01*
X94742190Y-31036000D01*
X95599333Y-31940761D02*
X95504095Y-31988380D01*
X95313619Y-31988380D01*
X95218380Y-31940761D01*
X95170761Y-31893142D01*
X95123142Y-31797904D01*
X95123142Y-31512190D01*
X95170761Y-31416952D01*
X95218380Y-31369333D01*
X95313619Y-31321714D01*
X95504095Y-31321714D01*
X95599333Y-31369333D01*
X96027904Y-31988380D02*
X96027904Y-30988380D01*
X96456476Y-31988380D02*
X96456476Y-31464571D01*
X96408857Y-31369333D01*
X96313619Y-31321714D01*
X96170761Y-31321714D01*
X96075523Y-31369333D01*
X96027904Y-31416952D01*
X97075523Y-31988380D02*
X96980285Y-31940761D01*
X96932666Y-31893142D01*
X96885047Y-31797904D01*
X96885047Y-31512190D01*
X96932666Y-31416952D01*
X96980285Y-31369333D01*
X97075523Y-31321714D01*
X97218380Y-31321714D01*
X97313619Y-31369333D01*
X97361238Y-31416952D01*
X97408857Y-31512190D01*
X97408857Y-31797904D01*
X97361238Y-31893142D01*
X97313619Y-31940761D01*
X97218380Y-31988380D01*
X97075523Y-31988380D01*
X97694571Y-31321714D02*
X98075523Y-31321714D01*
X97837428Y-30988380D02*
X97837428Y-31845523D01*
X97885047Y-31940761D01*
X97980285Y-31988380D01*
X98075523Y-31988380D01*
X98266000Y-31321714D02*
X98646952Y-31321714D01*
X98408857Y-30988380D02*
X98408857Y-31845523D01*
X98456476Y-31940761D01*
X98551714Y-31988380D01*
X98646952Y-31988380D01*
X98980285Y-31988380D02*
X98980285Y-30988380D01*
X99075523Y-31607428D02*
X99361238Y-31988380D01*
X99361238Y-31321714D02*
X98980285Y-31702666D01*
X99694571Y-31321714D02*
X99932666Y-31988380D01*
X100170761Y-31321714D02*
X99932666Y-31988380D01*
X99837428Y-32226476D01*
X99789809Y-32274095D01*
X99694571Y-32321714D01*
X103624095Y-38058380D02*
X103624095Y-37058380D01*
X104195523Y-38058380D02*
X103766952Y-37486952D01*
X104195523Y-37058380D02*
X103624095Y-37629809D01*
X94376714Y-35758380D02*
X94376714Y-34758380D01*
X94614809Y-34758380D01*
X94757666Y-34806000D01*
X94852904Y-34901238D01*
X94900523Y-34996476D01*
X94948142Y-35186952D01*
X94948142Y-35329809D01*
X94900523Y-35520285D01*
X94852904Y-35615523D01*
X94757666Y-35710761D01*
X94614809Y-35758380D01*
X94376714Y-35758380D01*
X95329095Y-34853619D02*
X95376714Y-34806000D01*
X95471952Y-34758380D01*
X95710047Y-34758380D01*
X95805285Y-34806000D01*
X95852904Y-34853619D01*
X95900523Y-34948857D01*
X95900523Y-35044095D01*
X95852904Y-35186952D01*
X95281476Y-35758380D01*
X95900523Y-35758380D01*
X96519571Y-34758380D02*
X96614809Y-34758380D01*
X96710047Y-34806000D01*
X96757666Y-34853619D01*
X96805285Y-34948857D01*
X96852904Y-35139333D01*
X96852904Y-35377428D01*
X96805285Y-35567904D01*
X96757666Y-35663142D01*
X96710047Y-35710761D01*
X96614809Y-35758380D01*
X96519571Y-35758380D01*
X96424333Y-35710761D01*
X96376714Y-35663142D01*
X96329095Y-35567904D01*
X96281476Y-35377428D01*
X96281476Y-35139333D01*
X96329095Y-34948857D01*
X96376714Y-34853619D01*
X96424333Y-34806000D01*
X96519571Y-34758380D01*
D11*
%TO.C,J8*%
X73062000Y-28639000D02*
X73062000Y-22889000D01*
X73062000Y-22889000D02*
X60662000Y-22889000D01*
X60662000Y-22889000D02*
X60662000Y-28639000D01*
X60662000Y-28639000D02*
X73062000Y-28639000D01*
X71237000Y-28639000D02*
X70612000Y-27639000D01*
X70612000Y-27639000D02*
X69987000Y-28639000D01*
%TO.C,D1*%
X79397476Y-100306555D02*
G75*
G03*
X77065810Y-100306000I-1165476J1500555D01*
G01*
X79732000Y-98806000D02*
G75*
G03*
X79732000Y-98806000I-1500000J0D01*
G01*
X77065810Y-100306000D02*
X79398190Y-100306000D01*
%TO.C,D2*%
X69872476Y-100433555D02*
G75*
G03*
X67540810Y-100433000I-1165476J1500555D01*
G01*
X67540810Y-100433000D02*
X69873190Y-100433000D01*
X70207000Y-98933000D02*
G75*
G03*
X70207000Y-98933000I-1500000J0D01*
G01*
%TO.C,D3*%
X58776476Y-99798555D02*
G75*
G03*
X56444810Y-99798000I-1165476J1500555D01*
G01*
X56444810Y-99798000D02*
X58777190Y-99798000D01*
X59111000Y-98298000D02*
G75*
G03*
X59111000Y-98298000I-1500000J0D01*
G01*
%TO.C,D4*%
X118091555Y-99401524D02*
G75*
G03*
X118091000Y-101733190I-1500555J-1165476D01*
G01*
X118091000Y-101733190D02*
X118091000Y-99400810D01*
X118091000Y-100567000D02*
G75*
G03*
X118091000Y-100567000I-1500000J0D01*
G01*
%TO.C,D5*%
X124242555Y-99401524D02*
G75*
G03*
X124242000Y-101733190I-1500555J-1165476D01*
G01*
X124242000Y-100567000D02*
G75*
G03*
X124242000Y-100567000I-1500000J0D01*
G01*
X124242000Y-101733190D02*
X124242000Y-99400810D01*
%TO.C,D6*%
X55902476Y-69064555D02*
G75*
G03*
X53570810Y-69064000I-1165476J1500555D01*
G01*
X56237000Y-67564000D02*
G75*
G03*
X56237000Y-67564000I-1500000J0D01*
G01*
X53570810Y-69064000D02*
X55903190Y-69064000D01*
%TO.C,D7*%
X55902476Y-75922555D02*
G75*
G03*
X53570810Y-75922000I-1165476J1500555D01*
G01*
X53570810Y-75922000D02*
X55903190Y-75922000D01*
X56237000Y-74422000D02*
G75*
G03*
X56237000Y-74422000I-1500000J0D01*
G01*
%TO.C,D8*%
X49632476Y-99798555D02*
G75*
G03*
X47300810Y-99798000I-1165476J1500555D01*
G01*
X47300810Y-99798000D02*
X49633190Y-99798000D01*
X49967000Y-98298000D02*
G75*
G03*
X49967000Y-98298000I-1500000J0D01*
G01*
%TO.C,D9*%
X59666555Y-49634524D02*
G75*
G03*
X59666000Y-51966190I-1500555J-1165476D01*
G01*
X59666000Y-50800000D02*
G75*
G03*
X59666000Y-50800000I-1500000J0D01*
G01*
X59666000Y-51966190D02*
X59666000Y-49633810D01*
%TO.C,D10*%
X53824555Y-49634524D02*
G75*
G03*
X53824000Y-51966190I-1500555J-1165476D01*
G01*
X53824000Y-50800000D02*
G75*
G03*
X53824000Y-50800000I-1500000J0D01*
G01*
X53824000Y-51966190D02*
X53824000Y-49633810D01*
%TO.C,D11*%
X48109555Y-49634524D02*
G75*
G03*
X48109000Y-51966190I-1500555J-1165476D01*
G01*
X48109000Y-50800000D02*
G75*
G03*
X48109000Y-50800000I-1500000J0D01*
G01*
X48109000Y-51966190D02*
X48109000Y-49633810D01*
%TO.C,D12*%
X42394555Y-49761524D02*
G75*
G03*
X42394000Y-52093190I-1500555J-1165476D01*
G01*
X42394000Y-52093190D02*
X42394000Y-49760810D01*
X42394000Y-50927000D02*
G75*
G03*
X42394000Y-50927000I-1500000J0D01*
G01*
%TO.C,D13*%
X62842524Y-72921445D02*
G75*
G03*
X65174190Y-72922000I1165476J-1500555D01*
G01*
X65508000Y-74422000D02*
G75*
G03*
X65508000Y-74422000I-1500000J0D01*
G01*
X65174190Y-72922000D02*
X62841810Y-72922000D01*
%TO.C,D14*%
X65173476Y-69064555D02*
G75*
G03*
X62841810Y-69064000I-1165476J1500555D01*
G01*
X62841810Y-69064000D02*
X65174190Y-69064000D01*
X65508000Y-67564000D02*
G75*
G03*
X65508000Y-67564000I-1500000J0D01*
G01*
%TO.C,D15*%
X82018555Y-49634524D02*
G75*
G03*
X82018000Y-51966190I-1500555J-1165476D01*
G01*
X82018000Y-50800000D02*
G75*
G03*
X82018000Y-50800000I-1500000J0D01*
G01*
X82018000Y-51966190D02*
X82018000Y-49633810D01*
%TO.C,D16*%
X76430555Y-49634524D02*
G75*
G03*
X76430000Y-51966190I-1500555J-1165476D01*
G01*
X76430000Y-51966190D02*
X76430000Y-49633810D01*
X76430000Y-50800000D02*
G75*
G03*
X76430000Y-50800000I-1500000J0D01*
G01*
%TO.C,D17*%
X70842555Y-49634524D02*
G75*
G03*
X70842000Y-51966190I-1500555J-1165476D01*
G01*
X70842000Y-50800000D02*
G75*
G03*
X70842000Y-50800000I-1500000J0D01*
G01*
X70842000Y-51966190D02*
X70842000Y-49633810D01*
%TO.C,D18*%
X65381555Y-49634524D02*
G75*
G03*
X65381000Y-51966190I-1500555J-1165476D01*
G01*
X65381000Y-51966190D02*
X65381000Y-49633810D01*
X65381000Y-50800000D02*
G75*
G03*
X65381000Y-50800000I-1500000J0D01*
G01*
%TO.C,J1*%
X69850000Y-112188000D02*
X70475000Y-111188000D01*
X69225000Y-111188000D02*
X69850000Y-112188000D01*
X79800000Y-111188000D02*
X67400000Y-111188000D01*
X79800000Y-116938000D02*
X79800000Y-111188000D01*
X67400000Y-116938000D02*
X79800000Y-116938000D01*
X67400000Y-111188000D02*
X67400000Y-116938000D01*
%TO.C,J2*%
X47160000Y-111061000D02*
X47160000Y-116811000D01*
X47160000Y-116811000D02*
X59560000Y-116811000D01*
X59560000Y-116811000D02*
X59560000Y-111061000D01*
X59560000Y-111061000D02*
X47160000Y-111061000D01*
X48985000Y-111061000D02*
X49610000Y-112061000D01*
X49610000Y-112061000D02*
X50235000Y-111061000D01*
%TO.C,J3*%
X113180000Y-109393000D02*
X113180000Y-115143000D01*
X113180000Y-115143000D02*
X125580000Y-115143000D01*
X125580000Y-115143000D02*
X125580000Y-109393000D01*
X125580000Y-109393000D02*
X113180000Y-109393000D01*
X115005000Y-109393000D02*
X115630000Y-110393000D01*
X115630000Y-110393000D02*
X116255000Y-109393000D01*
%TO.C,J4*%
X44657000Y-67310000D02*
X45657000Y-67935000D01*
X45657000Y-66685000D02*
X44657000Y-67310000D01*
X45657000Y-77260000D02*
X45657000Y-64860000D01*
X39907000Y-77260000D02*
X45657000Y-77260000D01*
X39907000Y-64860000D02*
X39907000Y-77260000D01*
X45657000Y-64860000D02*
X39907000Y-64860000D01*
%TO.C,J5*%
X95330000Y-110029000D02*
X95955000Y-109029000D01*
X94705000Y-109029000D02*
X95330000Y-110029000D01*
X105280000Y-109029000D02*
X92880000Y-109029000D01*
X105280000Y-114779000D02*
X105280000Y-109029000D01*
X92880000Y-114779000D02*
X105280000Y-114779000D01*
X92880000Y-109029000D02*
X92880000Y-114779000D01*
%TO.C,R1*%
X79883000Y-107061000D02*
X79883000Y-104521000D01*
X80683000Y-107061000D02*
G75*
G03*
X80683000Y-107061000I-800000J0D01*
G01*
%TO.C,R2*%
X70358000Y-104648000D02*
X70358000Y-107188000D01*
X71158000Y-104648000D02*
G75*
G03*
X71158000Y-104648000I-800000J0D01*
G01*
%TO.C,R3*%
X59935000Y-104394000D02*
G75*
G03*
X59935000Y-104394000I-800000J0D01*
G01*
X59135000Y-104394000D02*
X59135000Y-106934000D01*
%TO.C,R4*%
X117154000Y-106663000D02*
X114614000Y-106663000D01*
X117954000Y-106663000D02*
G75*
G03*
X117954000Y-106663000I-800000J0D01*
G01*
%TO.C,R5*%
X124558000Y-106663000D02*
G75*
G03*
X124558000Y-106663000I-800000J0D01*
G01*
X123758000Y-106663000D02*
X121218000Y-106663000D01*
%TO.C,R6*%
X48641000Y-68834000D02*
X48641000Y-66294000D01*
X49441000Y-68834000D02*
G75*
G03*
X49441000Y-68834000I-800000J0D01*
G01*
%TO.C,R7*%
X48641000Y-75438000D02*
X48641000Y-72898000D01*
X49441000Y-75438000D02*
G75*
G03*
X49441000Y-75438000I-800000J0D01*
G01*
%TO.C,R8*%
X77127000Y-106934000D02*
G75*
G03*
X77127000Y-106934000I-800000J0D01*
G01*
X76327000Y-106934000D02*
X76327000Y-104394000D01*
%TO.C,R9*%
X55706000Y-106807000D02*
X55706000Y-104267000D01*
X56506000Y-106807000D02*
G75*
G03*
X56506000Y-106807000I-800000J0D01*
G01*
%TO.C,R10*%
X47489000Y-106807000D02*
G75*
G03*
X47489000Y-106807000I-800000J0D01*
G01*
X46689000Y-106807000D02*
X46689000Y-104267000D01*
%TO.C,R11*%
X50791000Y-106807000D02*
G75*
G03*
X50791000Y-106807000I-800000J0D01*
G01*
X49991000Y-106807000D02*
X49991000Y-104267000D01*
%TO.C,R12*%
X67602000Y-106934000D02*
G75*
G03*
X67602000Y-106934000I-800000J0D01*
G01*
X66802000Y-106934000D02*
X66802000Y-104394000D01*
%TO.C,R13*%
X58293000Y-55626000D02*
X58293000Y-58166000D01*
X59093000Y-55626000D02*
G75*
G03*
X59093000Y-55626000I-800000J0D01*
G01*
%TO.C,R14*%
X53124000Y-55626000D02*
G75*
G03*
X53124000Y-55626000I-800000J0D01*
G01*
X52324000Y-55626000D02*
X52324000Y-58166000D01*
%TO.C,R15*%
X46736000Y-55753000D02*
X46736000Y-58293000D01*
X47536000Y-55753000D02*
G75*
G03*
X47536000Y-55753000I-800000J0D01*
G01*
%TO.C,R16*%
X41694000Y-55753000D02*
G75*
G03*
X41694000Y-55753000I-800000J0D01*
G01*
X40894000Y-55753000D02*
X40894000Y-58293000D01*
%TO.C,R17*%
X99648000Y-104521000D02*
X99648000Y-101981000D01*
X100448000Y-104521000D02*
G75*
G03*
X100448000Y-104521000I-800000J0D01*
G01*
%TO.C,R18*%
X122555000Y-84201000D02*
X125095000Y-84201000D01*
X123355000Y-84201000D02*
G75*
G03*
X123355000Y-84201000I-800000J0D01*
G01*
%TO.C,R19*%
X96638000Y-104521000D02*
G75*
G03*
X96638000Y-104521000I-800000J0D01*
G01*
X95838000Y-104521000D02*
X95838000Y-101981000D01*
%TO.C,R20*%
X99187000Y-69723000D02*
X99187000Y-67183000D01*
X99987000Y-69723000D02*
G75*
G03*
X99987000Y-69723000I-800000J0D01*
G01*
%TO.C,R21*%
X72682000Y-69088000D02*
G75*
G03*
X72682000Y-69088000I-800000J0D01*
G01*
X71882000Y-69088000D02*
X69342000Y-69088000D01*
%TO.C,R22*%
X81191000Y-55626000D02*
G75*
G03*
X81191000Y-55626000I-800000J0D01*
G01*
X80391000Y-55626000D02*
X80391000Y-58166000D01*
%TO.C,R23*%
X74803000Y-55626000D02*
X74803000Y-58166000D01*
X75603000Y-55626000D02*
G75*
G03*
X75603000Y-55626000I-800000J0D01*
G01*
%TO.C,R24*%
X70142000Y-55626000D02*
G75*
G03*
X70142000Y-55626000I-800000J0D01*
G01*
X69342000Y-55626000D02*
X69342000Y-58166000D01*
%TO.C,R25*%
X63754000Y-55626000D02*
X63754000Y-58166000D01*
X64554000Y-55626000D02*
G75*
G03*
X64554000Y-55626000I-800000J0D01*
G01*
%TO.C,RV1*%
X110308000Y-90671000D02*
G75*
G03*
X110308000Y-90671000I-3000000J0D01*
G01*
X102408000Y-97171000D02*
X112208000Y-97171000D01*
X112208000Y-97171000D02*
X112208000Y-85171000D01*
X112208000Y-85171000D02*
X102408000Y-85171000D01*
X102408000Y-85171000D02*
X102408000Y-97171000D01*
%TO.C,RV2*%
X87168000Y-85171000D02*
X87168000Y-97171000D01*
X96968000Y-85171000D02*
X87168000Y-85171000D01*
X96968000Y-97171000D02*
X96968000Y-85171000D01*
X87168000Y-97171000D02*
X96968000Y-97171000D01*
X95068000Y-90671000D02*
G75*
G03*
X95068000Y-90671000I-3000000J0D01*
G01*
%TO.C,SW1*%
X75196000Y-89714000D02*
X75196000Y-86714000D01*
X75196000Y-86714000D02*
X81196000Y-86714000D01*
X81196000Y-86714000D02*
X81196000Y-92714000D01*
X81196000Y-92714000D02*
X75196000Y-92714000D01*
X75196000Y-92714000D02*
X75196000Y-89714000D01*
X80211564Y-89714000D02*
G75*
G03*
X80211564Y-89714000I-2015564J0D01*
G01*
%TO.C,SW2*%
X70559564Y-89714000D02*
G75*
G03*
X70559564Y-89714000I-2015564J0D01*
G01*
X65544000Y-92714000D02*
X65544000Y-89714000D01*
X71544000Y-92714000D02*
X65544000Y-92714000D01*
X71544000Y-86714000D02*
X71544000Y-92714000D01*
X65544000Y-86714000D02*
X71544000Y-86714000D01*
X65544000Y-89714000D02*
X65544000Y-86714000D01*
%TO.C,SW3*%
X59590564Y-89206000D02*
G75*
G03*
X59590564Y-89206000I-2015564J0D01*
G01*
X54575000Y-92206000D02*
X54575000Y-89206000D01*
X60575000Y-92206000D02*
X54575000Y-92206000D01*
X60575000Y-86206000D02*
X60575000Y-92206000D01*
X54575000Y-86206000D02*
X60575000Y-86206000D01*
X54575000Y-89206000D02*
X54575000Y-86206000D01*
%TO.C,SW4*%
X45431000Y-89206000D02*
X45431000Y-86206000D01*
X45431000Y-86206000D02*
X51431000Y-86206000D01*
X51431000Y-86206000D02*
X51431000Y-92206000D01*
X51431000Y-92206000D02*
X45431000Y-92206000D01*
X45431000Y-92206000D02*
X45431000Y-89206000D01*
X50446564Y-89206000D02*
G75*
G03*
X50446564Y-89206000I-2015564J0D01*
G01*
D10*
%TO.C,U1*%
X120255000Y-77851000D02*
G75*
G03*
X122855000Y-80451000I2600000J0D01*
G01*
X124050758Y-75548792D02*
G75*
G03*
X124055000Y-80151000I-1195758J-2302208D01*
G01*
X124055000Y-75551000D02*
X124055000Y-80151000D01*
%TO.C,U2*%
X115160758Y-75548792D02*
G75*
G03*
X115165000Y-80151000I-1195758J-2302208D01*
G01*
X111365000Y-77851000D02*
G75*
G03*
X113965000Y-80451000I2600000J0D01*
G01*
X115165000Y-75551000D02*
X115165000Y-80151000D01*
D11*
%TO.C,J16*%
X128825000Y-82931000D02*
X127825000Y-82306000D01*
X127825000Y-83556000D02*
X128825000Y-82931000D01*
X127825000Y-72981000D02*
X127825000Y-85381000D01*
X133575000Y-72981000D02*
X127825000Y-72981000D01*
X133575000Y-85381000D02*
X133575000Y-72981000D01*
X127825000Y-85381000D02*
X133575000Y-85381000D01*
%TO.C,R26*%
X104258000Y-104521000D02*
G75*
G03*
X104258000Y-104521000I-800000J0D01*
G01*
X103458000Y-104521000D02*
X103458000Y-101981000D01*
%TO.C,D21*%
X115846476Y-69699555D02*
G75*
G03*
X113514810Y-69699000I-1165476J1500555D01*
G01*
X113514810Y-69699000D02*
X115847190Y-69699000D01*
X116181000Y-68199000D02*
G75*
G03*
X116181000Y-68199000I-1500000J0D01*
G01*
%TO.C,D22*%
X93621476Y-69826555D02*
G75*
G03*
X91289810Y-69826000I-1165476J1500555D01*
G01*
X93956000Y-68326000D02*
G75*
G03*
X93956000Y-68326000I-1500000J0D01*
G01*
X91289810Y-69826000D02*
X93622190Y-69826000D01*
%TO.C,J7*%
X59346000Y-28639000D02*
X59346000Y-22889000D01*
X59346000Y-22889000D02*
X46946000Y-22889000D01*
X46946000Y-22889000D02*
X46946000Y-28639000D01*
X46946000Y-28639000D02*
X59346000Y-28639000D01*
X57521000Y-28639000D02*
X56896000Y-27639000D01*
X56896000Y-27639000D02*
X56271000Y-28639000D01*
%TO.C,J9*%
X109855000Y-27766000D02*
X109230000Y-28766000D01*
X110480000Y-28766000D02*
X109855000Y-27766000D01*
X99905000Y-28766000D02*
X112305000Y-28766000D01*
X99905000Y-23016000D02*
X99905000Y-28766000D01*
X112305000Y-23016000D02*
X99905000Y-23016000D01*
X112305000Y-28766000D02*
X112305000Y-23016000D01*
%TO.C,R27*%
X71882000Y-73406000D02*
X69342000Y-73406000D01*
X72682000Y-73406000D02*
G75*
G03*
X72682000Y-73406000I-800000J0D01*
G01*
%TO.C,R28*%
X121831000Y-69469000D02*
G75*
G03*
X121831000Y-69469000I-800000J0D01*
G01*
X121031000Y-69469000D02*
X121031000Y-66929000D01*
%TO.C,RLY1*%
X125471000Y-63384000D02*
X108971000Y-63384000D01*
X108971000Y-40884000D02*
X108971000Y-63384000D01*
X125471000Y-41409000D02*
X124971000Y-40884000D01*
X125471000Y-41409000D02*
X125471000Y-63384000D01*
X124971000Y-40884000D02*
X108971000Y-40884000D01*
%TO.C,RLY2*%
X103889000Y-40884000D02*
X87889000Y-40884000D01*
X104389000Y-41409000D02*
X104389000Y-63384000D01*
X104389000Y-41409000D02*
X103889000Y-40884000D01*
X87889000Y-40884000D02*
X87889000Y-63384000D01*
X104389000Y-63384000D02*
X87889000Y-63384000D01*
%TO.C,U3*%
X47736000Y-41529000D02*
X46736000Y-40529000D01*
X72136000Y-41529000D02*
X47736000Y-41529000D01*
X72136000Y-35179000D02*
X72136000Y-41529000D01*
X46736000Y-35179000D02*
X72136000Y-35179000D01*
X46736000Y-40529000D02*
X46736000Y-35179000D01*
%TO.C,J6*%
X75993000Y-75311000D02*
X74993000Y-74686000D01*
X74993000Y-75936000D02*
X75993000Y-75311000D01*
X74993000Y-65361000D02*
X74993000Y-77761000D01*
X80743000Y-65361000D02*
X74993000Y-65361000D01*
X80743000Y-77761000D02*
X80743000Y-65361000D01*
X74993000Y-77761000D02*
X80743000Y-77761000D01*
%TO.C,D19*%
X120090000Y-37956000D02*
X120090000Y-32656000D01*
X119890000Y-37956000D02*
X119890000Y-32656000D01*
X119990000Y-37956000D02*
X119990000Y-32656000D01*
X109220000Y-35306000D02*
X112340000Y-35306000D01*
X124460000Y-35306000D02*
X121340000Y-35306000D01*
X112340000Y-37956000D02*
X121340000Y-37956000D01*
X112340000Y-32656000D02*
X112340000Y-37956000D01*
X121340000Y-32656000D02*
X112340000Y-32656000D01*
X121340000Y-37956000D02*
X121340000Y-32656000D01*
%TO.C,D20*%
X100766000Y-37956000D02*
X100766000Y-32656000D01*
X100766000Y-32656000D02*
X91766000Y-32656000D01*
X91766000Y-32656000D02*
X91766000Y-37956000D01*
X91766000Y-37956000D02*
X100766000Y-37956000D01*
X103886000Y-35306000D02*
X100766000Y-35306000D01*
X88646000Y-35306000D02*
X91766000Y-35306000D01*
X99416000Y-37956000D02*
X99416000Y-32656000D01*
X99316000Y-37956000D02*
X99316000Y-32656000D01*
X99516000Y-37956000D02*
X99516000Y-32656000D01*
%TD*%
M02*
