%TF.GenerationSoftware,KiCad,Pcbnew,5.1.10-88a1d61d58~90~ubuntu20.04.1*%
%TF.CreationDate,2022-01-17T01:09:50+00:00*%
%TF.ProjectId,testing_board,74657374-696e-4675-9f62-6f6172642e6b,rev?*%
%TF.SameCoordinates,Original*%
%TF.FileFunction,Other,ECO1*%
%FSLAX46Y46*%
G04 Gerber Fmt 4.6, Leading zero omitted, Abs format (unit mm)*
G04 Created by KiCad (PCBNEW 5.1.10-88a1d61d58~90~ubuntu20.04.1) date 2022-01-17 01:09:50*
%MOMM*%
%LPD*%
G01*
G04 APERTURE LIST*
%ADD10C,0.150000*%
G04 APERTURE END LIST*
D10*
X6693696Y-137423235D02*
X6694693Y-137232761D01*
X6647574Y-137137275D01*
X6600205Y-137089407D01*
X6457848Y-136993423D01*
X6267624Y-136944807D01*
X5886677Y-136942812D01*
X5791191Y-136989932D01*
X5743323Y-137037301D01*
X5695206Y-137132288D01*
X5694208Y-137322762D01*
X5741328Y-137418248D01*
X5788697Y-137466116D01*
X5883685Y-137514233D01*
X6121777Y-137515480D01*
X6217263Y-137468360D01*
X6265131Y-137420991D01*
X6313248Y-137326003D01*
X6314245Y-137135530D01*
X6267125Y-137040044D01*
X6219756Y-136992176D01*
X6124769Y-136944059D01*
X6127761Y-136372638D02*
X6079644Y-136467626D01*
X6031776Y-136514995D01*
X5936290Y-136562114D01*
X5888671Y-136561865D01*
X5793684Y-136513748D01*
X5746315Y-136465880D01*
X5699195Y-136370394D01*
X5700192Y-136179920D01*
X5748309Y-136084933D01*
X5796177Y-136037564D01*
X5891663Y-135990444D01*
X5939282Y-135990694D01*
X6034269Y-136038811D01*
X6081638Y-136086678D01*
X6128758Y-136182164D01*
X6127761Y-136372638D01*
X6174880Y-136468124D01*
X6222249Y-136515992D01*
X6317237Y-136564109D01*
X6507710Y-136565106D01*
X6603197Y-136517987D01*
X6651064Y-136470617D01*
X6699181Y-136375630D01*
X6700179Y-136185156D01*
X6653059Y-136089670D01*
X6605690Y-136041803D01*
X6510702Y-135993686D01*
X6320229Y-135992688D01*
X6224743Y-136039808D01*
X6176875Y-136087177D01*
X6128758Y-136182164D01*
X6608183Y-135565619D02*
X6656051Y-135518250D01*
X6703420Y-135566117D01*
X6655552Y-135613486D01*
X6608183Y-135565619D01*
X6703420Y-135566117D01*
X6706163Y-135042315D02*
X6707160Y-134851841D01*
X6660040Y-134756355D01*
X6612671Y-134708488D01*
X6470315Y-134612503D01*
X6280090Y-134563887D01*
X5899143Y-134561892D01*
X5803657Y-134609012D01*
X5755789Y-134656381D01*
X5707672Y-134751369D01*
X5706675Y-134941842D01*
X5753795Y-135037328D01*
X5801164Y-135085196D01*
X5896151Y-135133313D01*
X6134243Y-135134560D01*
X6229729Y-135087440D01*
X6277597Y-135040071D01*
X6325714Y-134945084D01*
X6326711Y-134754610D01*
X6279592Y-134659124D01*
X6232223Y-134611256D01*
X6137235Y-134563139D01*
X5710415Y-134227566D02*
X5713656Y-133608527D01*
X6092858Y-133943851D01*
X6093606Y-133800995D01*
X6141723Y-133706008D01*
X6189591Y-133658639D01*
X6285077Y-133611519D01*
X6523169Y-133612766D01*
X6618156Y-133660883D01*
X6665526Y-133708751D01*
X6712645Y-133804237D01*
X6711149Y-134089947D01*
X6663032Y-134184935D01*
X6615164Y-134232304D01*
X6051473Y-132753141D02*
X6718131Y-132756632D01*
X5669279Y-132989239D02*
X6382308Y-133231071D01*
X6385550Y-132612032D01*
X6724863Y-131470935D02*
X6058205Y-131467445D01*
X6153442Y-131467943D02*
X6106073Y-131420076D01*
X6058953Y-131324590D01*
X6059701Y-131181734D01*
X6107818Y-131086747D01*
X6203304Y-131039627D01*
X6727107Y-131042370D01*
X6203304Y-131039627D02*
X6108317Y-130991510D01*
X6061197Y-130896024D01*
X6061945Y-130753169D01*
X6110062Y-130658181D01*
X6205548Y-130611062D01*
X6729350Y-130613804D01*
X6731844Y-130137620D02*
X6065186Y-130134130D01*
X6160423Y-130134628D02*
X6113054Y-130086761D01*
X6065934Y-129991274D01*
X6066682Y-129848419D01*
X6114799Y-129753432D01*
X6210285Y-129706312D01*
X6734088Y-129709055D01*
X6210285Y-129706312D02*
X6115298Y-129658195D01*
X6068178Y-129562709D01*
X6068926Y-129419854D01*
X6117043Y-129324866D01*
X6212529Y-129277747D01*
X6736332Y-129280489D01*
X7372005Y-182844809D02*
X7753005Y-83911809D01*
X16510000Y-182880000D02*
X6785588Y-182842550D01*
X16891000Y-83947000D02*
X7166588Y-83909550D01*
X7753005Y-83911809D02*
X8335083Y-85040563D01*
X7753005Y-83911809D02*
X7162250Y-85036046D01*
X7372005Y-182844809D02*
X7962760Y-181720572D01*
X7372005Y-182844809D02*
X6789927Y-181716055D01*
X63565556Y-194722429D02*
X63756032Y-194722671D01*
X63851330Y-194675173D01*
X63899010Y-194627615D01*
X63994430Y-194484879D01*
X64042291Y-194294463D01*
X64042775Y-193913511D01*
X63995277Y-193818212D01*
X63947718Y-193770533D01*
X63852541Y-193722793D01*
X63662065Y-193722551D01*
X63566766Y-193770049D01*
X63519087Y-193817607D01*
X63471347Y-193912785D01*
X63471044Y-194150880D01*
X63518542Y-194246178D01*
X63566100Y-194293858D01*
X63661278Y-194341598D01*
X63851754Y-194341840D01*
X63947053Y-194294342D01*
X63994732Y-194246783D01*
X64042472Y-194151606D01*
X64517936Y-194723639D02*
X64708412Y-194723881D01*
X64803711Y-194676383D01*
X64851390Y-194628825D01*
X64946810Y-194486089D01*
X64994671Y-194295673D01*
X64995155Y-193914721D01*
X64947657Y-193819423D01*
X64900098Y-193771743D01*
X64804921Y-193724003D01*
X64614445Y-193723761D01*
X64519146Y-193771259D01*
X64471467Y-193818817D01*
X64423727Y-193913995D01*
X64423424Y-194152090D01*
X64470922Y-194247389D01*
X64518481Y-194295068D01*
X64613658Y-194342808D01*
X64804134Y-194343050D01*
X64899433Y-194295552D01*
X64947112Y-194247994D01*
X64994852Y-194152816D01*
X65422818Y-194629551D02*
X65470377Y-194677230D01*
X65422697Y-194724789D01*
X65375139Y-194677109D01*
X65422818Y-194629551D01*
X65422697Y-194724789D01*
X65946506Y-194725454D02*
X66136982Y-194725696D01*
X66232281Y-194678198D01*
X66279960Y-194630640D01*
X66375380Y-194487904D01*
X66423241Y-194297488D01*
X66423725Y-193916536D01*
X66376227Y-193821238D01*
X66328669Y-193773558D01*
X66233491Y-193725818D01*
X66043015Y-193725576D01*
X65947717Y-193773074D01*
X65900037Y-193820633D01*
X65852297Y-193915810D01*
X65851994Y-194153905D01*
X65899492Y-194249204D01*
X65947051Y-194296883D01*
X66042228Y-194344623D01*
X66232704Y-194344865D01*
X66328003Y-194297367D01*
X66375683Y-194249809D01*
X66423423Y-194154631D01*
X67280686Y-194060482D02*
X67279839Y-194727149D01*
X67043075Y-193679228D02*
X66804072Y-194393210D01*
X67423119Y-194393997D01*
X67851267Y-194727875D02*
X68041743Y-194728117D01*
X68137041Y-194680619D01*
X68184721Y-194633060D01*
X68280140Y-194490324D01*
X68328001Y-194299909D01*
X68328485Y-193918957D01*
X68280987Y-193823658D01*
X68233429Y-193775978D01*
X68138251Y-193728238D01*
X67947775Y-193727996D01*
X67852477Y-193775494D01*
X67804797Y-193823053D01*
X67757057Y-193918230D01*
X67756755Y-194156325D01*
X67804253Y-194251624D01*
X67851811Y-194299304D01*
X67946989Y-194347044D01*
X68137465Y-194347286D01*
X68232763Y-194299788D01*
X68280443Y-194252229D01*
X68328183Y-194157052D01*
X69517932Y-194729992D02*
X69518779Y-194063326D01*
X69518658Y-194158564D02*
X69566338Y-194111006D01*
X69661636Y-194063508D01*
X69804493Y-194063689D01*
X69899671Y-194111429D01*
X69947169Y-194206728D01*
X69946503Y-194730537D01*
X69947169Y-194206728D02*
X69994909Y-194111550D01*
X70090207Y-194064052D01*
X70233064Y-194064234D01*
X70328242Y-194111974D01*
X70375740Y-194207272D01*
X70375074Y-194731081D01*
X70851264Y-194731687D02*
X70852111Y-194065020D01*
X70851990Y-194160258D02*
X70899670Y-194112700D01*
X70994968Y-194065202D01*
X71137825Y-194065383D01*
X71233003Y-194113123D01*
X71280501Y-194208422D01*
X71279835Y-194732231D01*
X71280501Y-194208422D02*
X71328241Y-194113245D01*
X71423540Y-194065747D01*
X71566397Y-194065928D01*
X71661574Y-194113668D01*
X71709072Y-194208967D01*
X71708406Y-194732776D01*
X17640899Y-192911693D02*
X117589899Y-193038693D01*
X17653000Y-183388000D02*
X17640154Y-193498114D01*
X117602000Y-183515000D02*
X117589154Y-193625114D01*
X117589899Y-193038693D02*
X116462651Y-193623682D01*
X117589899Y-193038693D02*
X116464141Y-192450841D01*
X17640899Y-192911693D02*
X18766657Y-193499545D01*
X17640899Y-192911693D02*
X18768147Y-192326704D01*
M02*
