M48
; DRILL file {KiCad (6.0.1)} date Fri Jul 29 10:17:10 2022
; FORMAT={-:-/ absolute / metric / decimal}
; #@! TF.CreationDate,2022-07-29T10:17:10+01:00
; #@! TF.GenerationSoftware,Kicad,Pcbnew,(6.0.1)
; #@! TF.FileFunction,Plated,1,2,PTH
FMAT,2
METRIC
; #@! TA.AperFunction,Plated,PTH,ViaDrill
T1C0.400
; #@! TA.AperFunction,Plated,PTH,ComponentDrill
T2C0.550
; #@! TA.AperFunction,Plated,PTH,ComponentDrill
T3C0.700
; #@! TA.AperFunction,Plated,PTH,ComponentDrill
T4C0.800
; #@! TA.AperFunction,Plated,PTH,ComponentDrill
T5C0.900
; #@! TA.AperFunction,Plated,PTH,ComponentDrill
T6C0.950
; #@! TA.AperFunction,Plated,PTH,ComponentDrill
T7C1.000
; #@! TA.AperFunction,Plated,PTH,ComponentDrill
T8C1.100
; #@! TA.AperFunction,Plated,PTH,ComponentDrill
T9C1.300
%
G90
G05
T1
X46.736Y-38.735
X51.181Y-38.735
X72.263Y-44.958
T2
X113.665Y-76.581
X113.665Y-77.851
X113.665Y-79.121
X122.555Y-76.581
X122.555Y-77.851
X122.555Y-79.121
T3
X40.894Y-55.753
X40.894Y-58.293
X46.689Y-104.267
X46.689Y-106.807
X46.736Y-55.753
X46.736Y-58.293
X48.641Y-66.294
X48.641Y-68.834
X48.641Y-72.898
X48.641Y-75.438
X49.991Y-104.267
X49.991Y-106.807
X52.324Y-55.626
X52.324Y-58.166
X55.706Y-104.267
X55.706Y-106.807
X58.293Y-55.626
X58.293Y-58.166
X59.135Y-104.394
X59.135Y-106.934
X63.754Y-55.626
X63.754Y-58.166
X66.802Y-104.394
X66.802Y-106.934
X69.342Y-55.626
X69.342Y-58.166
X69.342Y-69.088
X69.342Y-73.406
X70.358Y-104.648
X70.358Y-107.188
X71.882Y-69.088
X71.882Y-73.406
X74.803Y-55.626
X74.803Y-58.166
X76.327Y-104.394
X76.327Y-106.934
X79.883Y-104.521
X79.883Y-107.061
X80.391Y-55.626
X80.391Y-58.166
X95.838Y-101.981
X95.838Y-104.521
X99.187Y-67.183
X99.187Y-69.723
X99.648Y-101.981
X99.648Y-104.521
X103.458Y-101.981
X103.458Y-104.521
X114.614Y-106.663
X117.154Y-106.663
X121.031Y-66.929
X121.031Y-69.469
X121.218Y-106.663
X122.555Y-84.201
X123.758Y-106.663
X125.095Y-84.201
T4
X48.006Y-34.544
X48.006Y-42.164
X50.546Y-34.544
X50.546Y-42.164
X53.086Y-34.544
X53.086Y-42.164
X55.626Y-34.544
X55.626Y-42.164
X58.166Y-34.544
X58.166Y-42.164
X60.706Y-34.544
X60.706Y-42.164
X63.246Y-34.544
X63.246Y-42.164
X65.786Y-34.544
X65.786Y-42.164
X68.326Y-34.544
X68.326Y-42.164
X70.866Y-34.544
X70.866Y-42.164
T5
X39.624Y-50.927
X42.164Y-50.927
X45.339Y-50.8
X47.879Y-50.8
X48.467Y-97.028
X48.467Y-99.568
X51.054Y-50.8
X53.594Y-50.8
X54.737Y-66.294
X54.737Y-68.834
X54.737Y-73.152
X54.737Y-75.692
X56.896Y-50.8
X57.611Y-97.028
X57.611Y-99.568
X59.436Y-50.8
X62.611Y-50.8
X64.008Y-66.294
X64.008Y-68.834
X64.008Y-73.152
X64.008Y-75.692
X65.151Y-50.8
X68.072Y-50.8
X68.707Y-97.663
X68.707Y-100.203
X70.612Y-50.8
X73.66Y-50.8
X76.2Y-50.8
X78.232Y-97.536
X78.232Y-100.076
X79.248Y-50.8
X81.788Y-50.8
X92.456Y-67.056
X92.456Y-69.596
X114.681Y-66.929
X114.681Y-69.469
X115.321Y-100.567
X117.861Y-100.567
X121.472Y-100.567
X124.012Y-100.567
T6
X43.307Y-67.31
X43.307Y-69.81
X43.307Y-72.31
X43.307Y-74.81
X49.396Y-26.289
X49.61Y-113.411
X51.896Y-26.289
X52.11Y-113.411
X54.396Y-26.289
X54.61Y-113.411
X56.896Y-26.289
X57.11Y-113.411
X63.112Y-26.289
X65.612Y-26.289
X68.112Y-26.289
X69.85Y-113.538
X70.612Y-26.289
X72.35Y-113.538
X74.85Y-113.538
X77.343Y-67.811
X77.343Y-70.311
X77.343Y-72.811
X77.343Y-75.311
X77.35Y-113.538
X95.33Y-111.379
X97.83Y-111.379
X100.33Y-111.379
X102.355Y-26.416
X102.83Y-111.379
X104.855Y-26.416
X107.355Y-26.416
X109.855Y-26.416
X115.63Y-111.743
X118.13Y-111.743
X120.63Y-111.743
X123.13Y-111.743
X130.175Y-75.431
X130.175Y-77.931
X130.175Y-80.431
X130.175Y-82.931
T7
X89.568Y-98.171
X92.068Y-98.171
X94.568Y-98.171
X104.808Y-98.171
X107.308Y-98.171
X109.808Y-98.171
T8
X46.181Y-85.956
X46.181Y-92.456
X50.681Y-85.956
X50.681Y-92.456
X55.325Y-85.956
X55.325Y-92.456
X59.825Y-85.956
X59.825Y-92.456
X66.294Y-86.464
X66.294Y-92.964
X70.794Y-86.464
X70.794Y-92.964
X75.946Y-86.464
X75.946Y-92.964
X80.446Y-86.464
X80.446Y-92.964
T9
X88.646Y-35.306
X90.139Y-45.434
X90.139Y-57.634
X96.139Y-43.434
X102.139Y-45.434
X102.139Y-57.634
X103.886Y-35.306
X109.22Y-35.306
X111.221Y-45.434
X111.221Y-57.634
X117.221Y-43.434
X123.221Y-45.434
X123.221Y-57.634
X124.46Y-35.306
T0
M30
