%TF.GenerationSoftware,KiCad,Pcbnew,(6.0.1)*%
%TF.CreationDate,2022-07-29T10:17:08+01:00*%
%TF.ProjectId,testing_board,74657374-696e-4675-9f62-6f6172642e6b,rev?*%
%TF.SameCoordinates,Original*%
%TF.FileFunction,Other,ECO1*%
%FSLAX46Y46*%
G04 Gerber Fmt 4.6, Leading zero omitted, Abs format (unit mm)*
G04 Created by KiCad (PCBNEW (6.0.1)) date 2022-07-29 10:17:08*
%MOMM*%
%LPD*%
G01*
G04 APERTURE LIST*
%ADD10C,0.150000*%
G04 APERTURE END LIST*
D10*
X25994318Y-73397619D02*
X25994318Y-72778571D01*
X26375271Y-73111904D01*
X26375271Y-72969047D01*
X26422890Y-72873809D01*
X26470509Y-72826190D01*
X26565747Y-72778571D01*
X26803842Y-72778571D01*
X26899080Y-72826190D01*
X26946699Y-72873809D01*
X26994318Y-72969047D01*
X26994318Y-73254761D01*
X26946699Y-73350000D01*
X26899080Y-73397619D01*
X26899080Y-72350000D02*
X26946699Y-72302380D01*
X26994318Y-72350000D01*
X26946699Y-72397619D01*
X26899080Y-72350000D01*
X26994318Y-72350000D01*
X26994318Y-71826190D02*
X26994318Y-71635714D01*
X26946699Y-71540476D01*
X26899080Y-71492857D01*
X26756223Y-71397619D01*
X26565747Y-71350000D01*
X26184795Y-71350000D01*
X26089557Y-71397619D01*
X26041938Y-71445238D01*
X25994318Y-71540476D01*
X25994318Y-71730952D01*
X26041938Y-71826190D01*
X26089557Y-71873809D01*
X26184795Y-71921428D01*
X26422890Y-71921428D01*
X26518128Y-71873809D01*
X26565747Y-71826190D01*
X26613366Y-71730952D01*
X26613366Y-71540476D01*
X26565747Y-71445238D01*
X26518128Y-71397619D01*
X26422890Y-71350000D01*
X25994318Y-70730952D02*
X25994318Y-70635714D01*
X26041938Y-70540476D01*
X26089557Y-70492857D01*
X26184795Y-70445238D01*
X26375271Y-70397619D01*
X26613366Y-70397619D01*
X26803842Y-70445238D01*
X26899080Y-70492857D01*
X26946699Y-70540476D01*
X26994318Y-70635714D01*
X26994318Y-70730952D01*
X26946699Y-70826190D01*
X26899080Y-70873809D01*
X26803842Y-70921428D01*
X26613366Y-70969047D01*
X26375271Y-70969047D01*
X26184795Y-70921428D01*
X26089557Y-70873809D01*
X26041938Y-70826190D01*
X25994318Y-70730952D01*
X25994318Y-69778571D02*
X25994318Y-69683333D01*
X26041938Y-69588095D01*
X26089557Y-69540476D01*
X26184795Y-69492857D01*
X26375271Y-69445238D01*
X26613366Y-69445238D01*
X26803842Y-69492857D01*
X26899080Y-69540476D01*
X26946699Y-69588095D01*
X26994318Y-69683333D01*
X26994318Y-69778571D01*
X26946699Y-69873809D01*
X26899080Y-69921428D01*
X26803842Y-69969047D01*
X26613366Y-70016666D01*
X26375271Y-70016666D01*
X26184795Y-69969047D01*
X26089557Y-69921428D01*
X26041938Y-69873809D01*
X25994318Y-69778571D01*
X25994318Y-68826190D02*
X25994318Y-68730952D01*
X26041938Y-68635714D01*
X26089557Y-68588095D01*
X26184795Y-68540476D01*
X26375271Y-68492857D01*
X26613366Y-68492857D01*
X26803842Y-68540476D01*
X26899080Y-68588095D01*
X26946699Y-68635714D01*
X26994318Y-68730952D01*
X26994318Y-68826190D01*
X26946699Y-68921428D01*
X26899080Y-68969047D01*
X26803842Y-69016666D01*
X26613366Y-69064285D01*
X26375271Y-69064285D01*
X26184795Y-69016666D01*
X26089557Y-68969047D01*
X26041938Y-68921428D01*
X25994318Y-68826190D01*
X26994318Y-67302380D02*
X26327652Y-67302380D01*
X25994318Y-67302380D02*
X26041938Y-67350000D01*
X26089557Y-67302380D01*
X26041938Y-67254761D01*
X25994318Y-67302380D01*
X26089557Y-67302380D01*
X26327652Y-66826190D02*
X26994318Y-66826190D01*
X26422890Y-66826190D02*
X26375271Y-66778571D01*
X26327652Y-66683333D01*
X26327652Y-66540476D01*
X26375271Y-66445238D01*
X26470509Y-66397619D01*
X26994318Y-66397619D01*
X36830000Y-20320000D02*
X27105518Y-20320000D01*
X36830000Y-119380000D02*
X27105518Y-119380000D01*
X27691938Y-20320000D02*
X27691938Y-119380000D01*
X27691938Y-20320000D02*
X27691938Y-119380000D01*
X27691938Y-20320000D02*
X27105517Y-21446504D01*
X27691938Y-20320000D02*
X28278359Y-21446504D01*
X27691938Y-119380000D02*
X28278359Y-118253496D01*
X27691938Y-119380000D02*
X27105517Y-118253496D01*
X82812380Y-127206080D02*
X83431428Y-127206080D01*
X83098095Y-127587033D01*
X83240952Y-127587033D01*
X83336190Y-127634652D01*
X83383809Y-127682271D01*
X83431428Y-127777509D01*
X83431428Y-128015604D01*
X83383809Y-128110842D01*
X83336190Y-128158461D01*
X83240952Y-128206080D01*
X82955238Y-128206080D01*
X82860000Y-128158461D01*
X82812380Y-128110842D01*
X83860000Y-128110842D02*
X83907619Y-128158461D01*
X83860000Y-128206080D01*
X83812380Y-128158461D01*
X83860000Y-128110842D01*
X83860000Y-128206080D01*
X84383809Y-128206080D02*
X84574285Y-128206080D01*
X84669523Y-128158461D01*
X84717142Y-128110842D01*
X84812380Y-127967985D01*
X84860000Y-127777509D01*
X84860000Y-127396557D01*
X84812380Y-127301319D01*
X84764761Y-127253700D01*
X84669523Y-127206080D01*
X84479047Y-127206080D01*
X84383809Y-127253700D01*
X84336190Y-127301319D01*
X84288571Y-127396557D01*
X84288571Y-127634652D01*
X84336190Y-127729890D01*
X84383809Y-127777509D01*
X84479047Y-127825128D01*
X84669523Y-127825128D01*
X84764761Y-127777509D01*
X84812380Y-127729890D01*
X84860000Y-127634652D01*
X85479047Y-127206080D02*
X85574285Y-127206080D01*
X85669523Y-127253700D01*
X85717142Y-127301319D01*
X85764761Y-127396557D01*
X85812380Y-127587033D01*
X85812380Y-127825128D01*
X85764761Y-128015604D01*
X85717142Y-128110842D01*
X85669523Y-128158461D01*
X85574285Y-128206080D01*
X85479047Y-128206080D01*
X85383809Y-128158461D01*
X85336190Y-128110842D01*
X85288571Y-128015604D01*
X85240952Y-127825128D01*
X85240952Y-127587033D01*
X85288571Y-127396557D01*
X85336190Y-127301319D01*
X85383809Y-127253700D01*
X85479047Y-127206080D01*
X86431428Y-127206080D02*
X86526666Y-127206080D01*
X86621904Y-127253700D01*
X86669523Y-127301319D01*
X86717142Y-127396557D01*
X86764761Y-127587033D01*
X86764761Y-127825128D01*
X86717142Y-128015604D01*
X86669523Y-128110842D01*
X86621904Y-128158461D01*
X86526666Y-128206080D01*
X86431428Y-128206080D01*
X86336190Y-128158461D01*
X86288571Y-128110842D01*
X86240952Y-128015604D01*
X86193333Y-127825128D01*
X86193333Y-127587033D01*
X86240952Y-127396557D01*
X86288571Y-127301319D01*
X86336190Y-127253700D01*
X86431428Y-127206080D01*
X87383809Y-127206080D02*
X87479047Y-127206080D01*
X87574285Y-127253700D01*
X87621904Y-127301319D01*
X87669523Y-127396557D01*
X87717142Y-127587033D01*
X87717142Y-127825128D01*
X87669523Y-128015604D01*
X87621904Y-128110842D01*
X87574285Y-128158461D01*
X87479047Y-128206080D01*
X87383809Y-128206080D01*
X87288571Y-128158461D01*
X87240952Y-128110842D01*
X87193333Y-128015604D01*
X87145714Y-127825128D01*
X87145714Y-127587033D01*
X87193333Y-127396557D01*
X87240952Y-127301319D01*
X87288571Y-127253700D01*
X87383809Y-127206080D01*
X88907619Y-128206080D02*
X88907619Y-127539414D01*
X88907619Y-127206080D02*
X88860000Y-127253700D01*
X88907619Y-127301319D01*
X88955238Y-127253700D01*
X88907619Y-127206080D01*
X88907619Y-127301319D01*
X89383809Y-127539414D02*
X89383809Y-128206080D01*
X89383809Y-127634652D02*
X89431428Y-127587033D01*
X89526666Y-127539414D01*
X89669523Y-127539414D01*
X89764761Y-127587033D01*
X89812380Y-127682271D01*
X89812380Y-128206080D01*
X135890000Y-119380000D02*
X135890000Y-129490120D01*
X36830000Y-119380000D02*
X36830000Y-129490120D01*
X135890000Y-128903700D02*
X36830000Y-128903700D01*
X135890000Y-128903700D02*
X36830000Y-128903700D01*
X135890000Y-128903700D02*
X134763496Y-128317279D01*
X135890000Y-128903700D02*
X134763496Y-129490121D01*
X36830000Y-128903700D02*
X37956504Y-129490121D01*
X36830000Y-128903700D02*
X37956504Y-128317279D01*
M02*
