G04 #@! TF.GenerationSoftware,KiCad,Pcbnew,(5.1.4)-1*
G04 #@! TF.CreationDate,2020-08-11T16:56:36+03:00*
G04 #@! TF.ProjectId,gas_sensor,6761735f-7365-46e7-936f-722e6b696361,rev?*
G04 #@! TF.SameCoordinates,Original*
G04 #@! TF.FileFunction,Copper,L1,Top*
G04 #@! TF.FilePolarity,Positive*
%FSLAX46Y46*%
G04 Gerber Fmt 4.6, Leading zero omitted, Abs format (unit mm)*
G04 Created by KiCad (PCBNEW (5.1.4)-1) date 2020-08-11 16:56:36*
%MOMM*%
%LPD*%
G04 APERTURE LIST*
%ADD10C,2.000000*%
%ADD11R,2.000000X2.000000*%
%ADD12O,1.600000X1.600000*%
%ADD13R,1.600000X1.600000*%
%ADD14C,1.222000*%
%ADD15R,1.222000X1.222000*%
%ADD16O,1.950000X1.700000*%
%ADD17C,0.100000*%
%ADD18C,1.700000*%
%ADD19R,1.800000X1.800000*%
%ADD20C,1.800000*%
%ADD21C,1.600000*%
%ADD22C,0.500000*%
%ADD23C,1.000000*%
G04 APERTURE END LIST*
D10*
X131500000Y-99780000D03*
X138220000Y-99780000D03*
X138220000Y-106500000D03*
D11*
X131500000Y-106500000D03*
D10*
X134860000Y-98390000D03*
X134860000Y-107890000D03*
D12*
X147500000Y-97380000D03*
X155120000Y-105000000D03*
X150040000Y-97380000D03*
X152580000Y-105000000D03*
X152580000Y-97380000D03*
X150040000Y-105000000D03*
X155120000Y-97380000D03*
D13*
X147500000Y-105000000D03*
D14*
X153460000Y-92000000D03*
X156000000Y-94540000D03*
D15*
X158540000Y-92000000D03*
D10*
X134000000Y-90500000D03*
X143000000Y-90500000D03*
X143000000Y-116000000D03*
X134000000Y-116000000D03*
X148000000Y-109500000D03*
X157000000Y-109500000D03*
D16*
X166000000Y-107000000D03*
X166000000Y-104500000D03*
X166000000Y-102000000D03*
D17*
G36*
X166749504Y-98651204D02*
G01*
X166773773Y-98654804D01*
X166797571Y-98660765D01*
X166820671Y-98669030D01*
X166842849Y-98679520D01*
X166863893Y-98692133D01*
X166883598Y-98706747D01*
X166901777Y-98723223D01*
X166918253Y-98741402D01*
X166932867Y-98761107D01*
X166945480Y-98782151D01*
X166955970Y-98804329D01*
X166964235Y-98827429D01*
X166970196Y-98851227D01*
X166973796Y-98875496D01*
X166975000Y-98900000D01*
X166975000Y-100100000D01*
X166973796Y-100124504D01*
X166970196Y-100148773D01*
X166964235Y-100172571D01*
X166955970Y-100195671D01*
X166945480Y-100217849D01*
X166932867Y-100238893D01*
X166918253Y-100258598D01*
X166901777Y-100276777D01*
X166883598Y-100293253D01*
X166863893Y-100307867D01*
X166842849Y-100320480D01*
X166820671Y-100330970D01*
X166797571Y-100339235D01*
X166773773Y-100345196D01*
X166749504Y-100348796D01*
X166725000Y-100350000D01*
X165275000Y-100350000D01*
X165250496Y-100348796D01*
X165226227Y-100345196D01*
X165202429Y-100339235D01*
X165179329Y-100330970D01*
X165157151Y-100320480D01*
X165136107Y-100307867D01*
X165116402Y-100293253D01*
X165098223Y-100276777D01*
X165081747Y-100258598D01*
X165067133Y-100238893D01*
X165054520Y-100217849D01*
X165044030Y-100195671D01*
X165035765Y-100172571D01*
X165029804Y-100148773D01*
X165026204Y-100124504D01*
X165025000Y-100100000D01*
X165025000Y-98900000D01*
X165026204Y-98875496D01*
X165029804Y-98851227D01*
X165035765Y-98827429D01*
X165044030Y-98804329D01*
X165054520Y-98782151D01*
X165067133Y-98761107D01*
X165081747Y-98741402D01*
X165098223Y-98723223D01*
X165116402Y-98706747D01*
X165136107Y-98692133D01*
X165157151Y-98679520D01*
X165179329Y-98669030D01*
X165202429Y-98660765D01*
X165226227Y-98654804D01*
X165250496Y-98651204D01*
X165275000Y-98650000D01*
X166725000Y-98650000D01*
X166749504Y-98651204D01*
X166749504Y-98651204D01*
G37*
D18*
X166000000Y-99500000D03*
D19*
X149500000Y-90500000D03*
D20*
X146960000Y-90500000D03*
X146960000Y-116000000D03*
D19*
X149500000Y-116000000D03*
D21*
X158500000Y-116000000D03*
X153500000Y-116000000D03*
D22*
X149500000Y-116000000D02*
X153500000Y-116000000D01*
X156000000Y-116000000D02*
X153500000Y-116000000D01*
X166500000Y-107000000D02*
X165000000Y-107000000D01*
X165000000Y-107000000D02*
X156000000Y-116000000D01*
X150000000Y-115500000D02*
X149500000Y-116000000D01*
X150000000Y-108500000D02*
X150000000Y-115500000D01*
X147500000Y-105000000D02*
X147500000Y-106000000D01*
X147500000Y-106000000D02*
X150000000Y-108500000D01*
X143000000Y-116000000D02*
X146960000Y-116000000D01*
X143000000Y-90500000D02*
X146960000Y-90500000D01*
X137720000Y-106000000D02*
X138220000Y-106500000D01*
X131500000Y-106500000D02*
X132000000Y-106000000D01*
X132000000Y-106000000D02*
X137720000Y-106000000D01*
X145000000Y-106500000D02*
X148000000Y-109500000D01*
X138220000Y-106500000D02*
X145000000Y-106500000D01*
X166500000Y-104500000D02*
X166000000Y-104500000D01*
X139219999Y-105500001D02*
X138220000Y-106500000D01*
X141220000Y-103500000D02*
X139219999Y-105500001D01*
X150040000Y-105000000D02*
X148540000Y-103500000D01*
X148540000Y-103500000D02*
X141220000Y-103500000D01*
X150040000Y-105290000D02*
X150040000Y-105000000D01*
X151750000Y-107000000D02*
X150040000Y-105290000D01*
X166000000Y-104500000D02*
X163500000Y-107000000D01*
X163500000Y-107000000D02*
X151750000Y-107000000D01*
D23*
X135000000Y-98250000D02*
X134860000Y-98390000D01*
X134000000Y-90500000D02*
X135000000Y-91500000D01*
X135000000Y-91500000D02*
X135000000Y-98250000D01*
X136250000Y-99780000D02*
X138220000Y-99780000D01*
X134860000Y-98390000D02*
X136250000Y-99780000D01*
X166040000Y-99500000D02*
X158540000Y-92000000D01*
X166500000Y-99500000D02*
X166040000Y-99500000D01*
X140620000Y-97380000D02*
X147500000Y-97380000D01*
X138220000Y-99780000D02*
X140620000Y-97380000D01*
X156000000Y-92000000D02*
X158540000Y-92000000D01*
X154396001Y-93603999D02*
X156000000Y-92000000D01*
X147500000Y-97380000D02*
X151276001Y-93603999D01*
X151276001Y-93603999D02*
X154396001Y-93603999D01*
X130500000Y-112500000D02*
X134000000Y-116000000D01*
X129000000Y-111000000D02*
X130500000Y-112500000D01*
X129000000Y-102280000D02*
X129000000Y-111000000D01*
X134860000Y-98390000D02*
X132890000Y-98390000D01*
X132890000Y-98390000D02*
X129000000Y-102280000D01*
D22*
X156610999Y-95150999D02*
X156000000Y-94540000D01*
X152580000Y-105000000D02*
X156610999Y-100969001D01*
X156610999Y-100969001D02*
X156610999Y-95150999D01*
M02*
