M48
; DRILL file {KiCad (6.0.7)} date Fri Aug  5 13:27:33 2022
; FORMAT={-:-/ absolute / inch / decimal}
; #@! TF.CreationDate,2022-08-05T13:27:33+01:00
; #@! TF.GenerationSoftware,Kicad,Pcbnew,(6.0.7)
; #@! TF.FileFunction,Plated,1,2,PTH
FMAT,2
INCH
; #@! TA.AperFunction,Plated,PTH,ComponentDrill
T1C0.0374
; #@! TA.AperFunction,Plated,PTH,ComponentDrill
T2C0.0394
; #@! TA.AperFunction,Plated,PTH,ComponentDrill
T3C0.0433
%
G90
G05
T1
X3.4055Y-1.4173
X3.4055Y-1.5157
X3.4055Y-1.6142
X3.4055Y-1.7126
X3.4055Y-1.9685
X3.4055Y-2.0669
X3.4055Y-2.1654
X3.4055Y-2.2638
X3.7008Y-1.1811
X3.7992Y-1.1811
X3.8976Y-1.1811
X3.9961Y-1.1811
T2
X3.4055Y-2.5
X3.4055Y-3.1496
X3.4055Y-3.3661
X3.622Y-2.7165
X3.622Y-2.9331
X3.6614Y-3.6417
X3.7008Y-1.437
X3.7008Y-1.6535
X3.7008Y-1.8701
X3.7008Y-2.0866
X3.7008Y-2.3031
X3.7598Y-2.5
X3.7598Y-3.1496
X3.7598Y-3.3661
X3.7598Y-3.6417
X3.9764Y-2.7165
X3.9764Y-2.9331
X4.0551Y-1.437
X4.0551Y-1.6535
X4.0551Y-1.8701
X4.0551Y-2.0866
X4.0551Y-2.3031
X4.0551Y-3.3071
X4.0551Y-3.6417
X4.1535Y-3.3071
X4.1535Y-3.6417
X4.2126Y-2.9331
X4.2717Y-1.1614
X4.2717Y-1.378
X4.4291Y-1.6339
X4.4291Y-1.7323
X4.4291Y-2.0472
X4.4291Y-2.1457
X4.4685Y-3.3071
X4.4685Y-3.6417
X4.5669Y-2.9331
X4.5669Y-3.3071
X4.5669Y-3.6417
X4.626Y-1.1614
X4.626Y-1.378
X4.7835Y-1.6339
X4.7835Y-1.7323
X4.7835Y-2.0472
X4.7835Y-2.1457
X4.7835Y-2.4803
X4.7835Y-2.5787
T3
X3.4449Y-2.7331
X3.4449Y-2.8331
X3.4449Y-2.9331
T0
M30
