%TF.GenerationSoftware,KiCad,Pcbnew,5.1.10-88a1d61d58~90~ubuntu20.04.1*%
%TF.CreationDate,2022-01-16T21:22:27+00:00*%
%TF.ProjectId,ir_sensor,69725f73-656e-4736-9f72-2e6b69636164,rev?*%
%TF.SameCoordinates,Original*%
%TF.FileFunction,Other,User*%
%FSLAX46Y46*%
G04 Gerber Fmt 4.6, Leading zero omitted, Abs format (unit mm)*
G04 Created by KiCad (PCBNEW 5.1.10-88a1d61d58~90~ubuntu20.04.1) date 2022-01-16 21:22:27*
%MOMM*%
%LPD*%
G01*
G04 APERTURE LIST*
%ADD10C,0.050000*%
G04 APERTURE END LIST*
D10*
%TO.C,REF\u002A\u002A*%
X127050000Y-29000000D02*
G75*
G03*
X127050000Y-29000000I-3050000J0D01*
G01*
X88550000Y-93000000D02*
G75*
G03*
X88550000Y-93000000I-3050000J0D01*
G01*
X127050000Y-93000000D02*
G75*
G03*
X127050000Y-93000000I-3050000J0D01*
G01*
X88550000Y-29000000D02*
G75*
G03*
X88550000Y-29000000I-3050000J0D01*
G01*
%TO.C,R13*%
X91750000Y-55250000D02*
X105250000Y-55250000D01*
X91750000Y-50750000D02*
X91750000Y-55250000D01*
X105250000Y-50750000D02*
X91750000Y-50750000D01*
X105250000Y-55250000D02*
X105250000Y-50750000D01*
%TO.C,R12*%
X91750000Y-60750000D02*
X105250000Y-60750000D01*
X91750000Y-56250000D02*
X91750000Y-60750000D01*
X105250000Y-56250000D02*
X91750000Y-56250000D01*
X105250000Y-60750000D02*
X105250000Y-56250000D01*
%TO.C,R11*%
X91750000Y-44250000D02*
X105250000Y-44250000D01*
X91750000Y-39750000D02*
X91750000Y-44250000D01*
X105250000Y-39750000D02*
X91750000Y-39750000D01*
X105250000Y-44250000D02*
X105250000Y-39750000D01*
%TO.C,R10*%
X91750000Y-49750000D02*
X105250000Y-49750000D01*
X91750000Y-45250000D02*
X91750000Y-49750000D01*
X105250000Y-45250000D02*
X91750000Y-45250000D01*
X105250000Y-49750000D02*
X105250000Y-45250000D01*
%TO.C,R9*%
X119750000Y-32750000D02*
X106250000Y-32750000D01*
X119750000Y-37250000D02*
X119750000Y-32750000D01*
X106250000Y-37250000D02*
X119750000Y-37250000D01*
X106250000Y-32750000D02*
X106250000Y-37250000D01*
%TO.C,R8*%
X119750000Y-27250000D02*
X106250000Y-27250000D01*
X119750000Y-31750000D02*
X119750000Y-27250000D01*
X106250000Y-31750000D02*
X119750000Y-31750000D01*
X106250000Y-27250000D02*
X106250000Y-31750000D01*
%TO.C,R7*%
X104750000Y-72250000D02*
X104750000Y-76750000D01*
X104750000Y-76750000D02*
X118250000Y-76750000D01*
X118250000Y-76750000D02*
X118250000Y-72250000D01*
X118250000Y-72250000D02*
X104750000Y-72250000D01*
%TO.C,R6*%
X84250000Y-83250000D02*
X84250000Y-87750000D01*
X84250000Y-87750000D02*
X97750000Y-87750000D01*
X97750000Y-87750000D02*
X97750000Y-83250000D01*
X97750000Y-83250000D02*
X84250000Y-83250000D01*
%TO.C,R5*%
X89750000Y-72250000D02*
X89750000Y-76750000D01*
X89750000Y-76750000D02*
X103250000Y-76750000D01*
X103250000Y-76750000D02*
X103250000Y-72250000D01*
X103250000Y-72250000D02*
X89750000Y-72250000D01*
%TO.C,R4*%
X84250000Y-65750000D02*
X97750000Y-65750000D01*
X84250000Y-61250000D02*
X84250000Y-65750000D01*
X97750000Y-61250000D02*
X84250000Y-61250000D01*
X97750000Y-65750000D02*
X97750000Y-61250000D01*
%TO.C,R3*%
X84250000Y-77750000D02*
X84250000Y-82250000D01*
X84250000Y-82250000D02*
X97750000Y-82250000D01*
X97750000Y-82250000D02*
X97750000Y-77750000D01*
X97750000Y-77750000D02*
X84250000Y-77750000D01*
%TO.C,Q1*%
X84100000Y-66710000D02*
X84100000Y-77210000D01*
X89010000Y-66710000D02*
X84100000Y-66710000D01*
X89010000Y-77210000D02*
X89010000Y-66710000D01*
X84100000Y-77210000D02*
X89010000Y-77210000D01*
%TO.C,J13*%
X115350000Y-57450000D02*
X115350000Y-49050000D01*
X108600000Y-57450000D02*
X115350000Y-57450000D01*
X108600000Y-49050000D02*
X108600000Y-57450000D01*
X115350000Y-49050000D02*
X108600000Y-49050000D01*
%TO.C,J12*%
X124350000Y-68450000D02*
X124350000Y-60050000D01*
X117600000Y-68450000D02*
X124350000Y-68450000D01*
X117600000Y-60050000D02*
X117600000Y-68450000D01*
X124350000Y-60050000D02*
X117600000Y-60050000D01*
%TO.C,J11*%
X124350000Y-46950000D02*
X124350000Y-38550000D01*
X117600000Y-46950000D02*
X124350000Y-46950000D01*
X117600000Y-38550000D02*
X117600000Y-46950000D01*
X124350000Y-38550000D02*
X117600000Y-38550000D01*
%TO.C,J10*%
X124350000Y-57450000D02*
X124350000Y-49050000D01*
X117600000Y-57450000D02*
X124350000Y-57450000D01*
X117600000Y-49050000D02*
X117600000Y-57450000D01*
X124350000Y-49050000D02*
X117600000Y-49050000D01*
%TO.C,J9*%
X115350000Y-46950000D02*
X115350000Y-38550000D01*
X108600000Y-46950000D02*
X115350000Y-46950000D01*
X108600000Y-38550000D02*
X108600000Y-46950000D01*
X115350000Y-38550000D02*
X108600000Y-38550000D01*
%TO.C,J8*%
X110550000Y-86850000D02*
X118950000Y-86850000D01*
X110550000Y-80100000D02*
X110550000Y-86850000D01*
X118950000Y-80100000D02*
X110550000Y-80100000D01*
X118950000Y-86850000D02*
X118950000Y-80100000D01*
%TO.C,J7*%
X100050000Y-95350000D02*
X108450000Y-95350000D01*
X100050000Y-88600000D02*
X100050000Y-95350000D01*
X108450000Y-88600000D02*
X100050000Y-88600000D01*
X108450000Y-95350000D02*
X108450000Y-88600000D01*
%TO.C,J6*%
X110550000Y-95350000D02*
X118950000Y-95350000D01*
X110550000Y-88600000D02*
X110550000Y-95350000D01*
X118950000Y-88600000D02*
X110550000Y-88600000D01*
X118950000Y-95350000D02*
X118950000Y-88600000D01*
%TO.C,J5*%
X90050000Y-95350000D02*
X98450000Y-95350000D01*
X90050000Y-88600000D02*
X90050000Y-95350000D01*
X98450000Y-88600000D02*
X90050000Y-88600000D01*
X98450000Y-95350000D02*
X98450000Y-88600000D01*
%TO.C,J4*%
X100050000Y-86850000D02*
X108450000Y-86850000D01*
X100050000Y-80100000D02*
X100050000Y-86850000D01*
X108450000Y-80100000D02*
X100050000Y-80100000D01*
X108450000Y-86850000D02*
X108450000Y-80100000D01*
%TO.C,J3*%
X83650000Y-47050000D02*
X83650000Y-60450000D01*
X90400000Y-47050000D02*
X83650000Y-47050000D01*
X90400000Y-60450000D02*
X90400000Y-47050000D01*
X83650000Y-60450000D02*
X90400000Y-60450000D01*
%TO.C,J2*%
X83650000Y-33050000D02*
X83650000Y-46450000D01*
X90400000Y-33050000D02*
X83650000Y-33050000D01*
X90400000Y-46450000D02*
X90400000Y-33050000D01*
X83650000Y-46450000D02*
X90400000Y-46450000D01*
%TO.C,R2*%
X105250000Y-38750000D02*
X105250000Y-34250000D01*
X105250000Y-34250000D02*
X91750000Y-34250000D01*
X91750000Y-34250000D02*
X91750000Y-38750000D01*
X91750000Y-38750000D02*
X105250000Y-38750000D01*
%TO.C,R1*%
X103250000Y-66750000D02*
X89750000Y-66750000D01*
X103250000Y-71250000D02*
X103250000Y-66750000D01*
X89750000Y-71250000D02*
X103250000Y-71250000D01*
X89750000Y-66750000D02*
X89750000Y-71250000D01*
%TO.C,J1*%
X91050000Y-27150000D02*
X91050000Y-33900000D01*
X91050000Y-33900000D02*
X104450000Y-33900000D01*
X104450000Y-33900000D02*
X104450000Y-27150000D01*
X104450000Y-27150000D02*
X91050000Y-27150000D01*
%TD*%
M02*
