%TF.GenerationSoftware,KiCad,Pcbnew,5.1.10-88a1d61d58~90~ubuntu20.04.1*%
%TF.CreationDate,2021-07-30T18:16:54+01:00*%
%TF.ProjectId,temp_breakout,74656d70-5f62-4726-9561-6b6f75742e6b,rev?*%
%TF.SameCoordinates,Original*%
%TF.FileFunction,Legend,Top*%
%TF.FilePolarity,Positive*%
%FSLAX46Y46*%
G04 Gerber Fmt 4.6, Leading zero omitted, Abs format (unit mm)*
G04 Created by KiCad (PCBNEW 5.1.10-88a1d61d58~90~ubuntu20.04.1) date 2021-07-30 18:16:54*
%MOMM*%
%LPD*%
G01*
G04 APERTURE LIST*
%ADD10C,0.300000*%
%ADD11C,0.150000*%
%ADD12C,0.010000*%
%ADD13C,0.120000*%
G04 APERTURE END LIST*
D10*
X122964285Y-83628571D02*
X122964285Y-82128571D01*
X123321428Y-82128571D01*
X123535714Y-82200000D01*
X123678571Y-82342857D01*
X123750000Y-82485714D01*
X123821428Y-82771428D01*
X123821428Y-82985714D01*
X123750000Y-83271428D01*
X123678571Y-83414285D01*
X123535714Y-83557142D01*
X123321428Y-83628571D01*
X122964285Y-83628571D01*
X124392857Y-83557142D02*
X124607142Y-83628571D01*
X124964285Y-83628571D01*
X125107142Y-83557142D01*
X125178571Y-83485714D01*
X125250000Y-83342857D01*
X125250000Y-83200000D01*
X125178571Y-83057142D01*
X125107142Y-82985714D01*
X124964285Y-82914285D01*
X124678571Y-82842857D01*
X124535714Y-82771428D01*
X124464285Y-82700000D01*
X124392857Y-82557142D01*
X124392857Y-82414285D01*
X124464285Y-82271428D01*
X124535714Y-82200000D01*
X124678571Y-82128571D01*
X125035714Y-82128571D01*
X125250000Y-82200000D01*
X126678571Y-83628571D02*
X125821428Y-83628571D01*
X126250000Y-83628571D02*
X126250000Y-82128571D01*
X126107142Y-82342857D01*
X125964285Y-82485714D01*
X125821428Y-82557142D01*
X127535714Y-82771428D02*
X127392857Y-82700000D01*
X127321428Y-82628571D01*
X127250000Y-82485714D01*
X127250000Y-82414285D01*
X127321428Y-82271428D01*
X127392857Y-82200000D01*
X127535714Y-82128571D01*
X127821428Y-82128571D01*
X127964285Y-82200000D01*
X128035714Y-82271428D01*
X128107142Y-82414285D01*
X128107142Y-82485714D01*
X128035714Y-82628571D01*
X127964285Y-82700000D01*
X127821428Y-82771428D01*
X127535714Y-82771428D01*
X127392857Y-82842857D01*
X127321428Y-82914285D01*
X127250000Y-83057142D01*
X127250000Y-83342857D01*
X127321428Y-83485714D01*
X127392857Y-83557142D01*
X127535714Y-83628571D01*
X127821428Y-83628571D01*
X127964285Y-83557142D01*
X128035714Y-83485714D01*
X128107142Y-83342857D01*
X128107142Y-83057142D01*
X128035714Y-82914285D01*
X127964285Y-82842857D01*
X127821428Y-82771428D01*
X129250000Y-82842857D02*
X129464285Y-82914285D01*
X129535714Y-82985714D01*
X129607142Y-83128571D01*
X129607142Y-83342857D01*
X129535714Y-83485714D01*
X129464285Y-83557142D01*
X129321428Y-83628571D01*
X128750000Y-83628571D01*
X128750000Y-82128571D01*
X129250000Y-82128571D01*
X129392857Y-82200000D01*
X129464285Y-82271428D01*
X129535714Y-82414285D01*
X129535714Y-82557142D01*
X129464285Y-82700000D01*
X129392857Y-82771428D01*
X129250000Y-82842857D01*
X128750000Y-82842857D01*
X130178571Y-82271428D02*
X130250000Y-82200000D01*
X130392857Y-82128571D01*
X130750000Y-82128571D01*
X130892857Y-82200000D01*
X130964285Y-82271428D01*
X131035714Y-82414285D01*
X131035714Y-82557142D01*
X130964285Y-82771428D01*
X130107142Y-83628571D01*
X131035714Y-83628571D01*
X131964285Y-82128571D02*
X132107142Y-82128571D01*
X132250000Y-82200000D01*
X132321428Y-82271428D01*
X132392857Y-82414285D01*
X132464285Y-82700000D01*
X132464285Y-83057142D01*
X132392857Y-83342857D01*
X132321428Y-83485714D01*
X132250000Y-83557142D01*
X132107142Y-83628571D01*
X131964285Y-83628571D01*
X131821428Y-83557142D01*
X131750000Y-83485714D01*
X131678571Y-83342857D01*
X131607142Y-83057142D01*
X131607142Y-82700000D01*
X131678571Y-82414285D01*
X131750000Y-82271428D01*
X131821428Y-82200000D01*
X131964285Y-82128571D01*
X134035714Y-82628571D02*
X134607142Y-82628571D01*
X134250000Y-82128571D02*
X134250000Y-83414285D01*
X134321428Y-83557142D01*
X134464285Y-83628571D01*
X134607142Y-83628571D01*
X135678571Y-83557142D02*
X135535714Y-83628571D01*
X135250000Y-83628571D01*
X135107142Y-83557142D01*
X135035714Y-83414285D01*
X135035714Y-82842857D01*
X135107142Y-82700000D01*
X135250000Y-82628571D01*
X135535714Y-82628571D01*
X135678571Y-82700000D01*
X135750000Y-82842857D01*
X135750000Y-82985714D01*
X135035714Y-83128571D01*
X136392857Y-83628571D02*
X136392857Y-82628571D01*
X136392857Y-82771428D02*
X136464285Y-82700000D01*
X136607142Y-82628571D01*
X136821428Y-82628571D01*
X136964285Y-82700000D01*
X137035714Y-82842857D01*
X137035714Y-83628571D01*
X137035714Y-82842857D02*
X137107142Y-82700000D01*
X137250000Y-82628571D01*
X137464285Y-82628571D01*
X137607142Y-82700000D01*
X137678571Y-82842857D01*
X137678571Y-83628571D01*
X138392857Y-82628571D02*
X138392857Y-84128571D01*
X138392857Y-82700000D02*
X138535714Y-82628571D01*
X138821428Y-82628571D01*
X138964285Y-82700000D01*
X139035714Y-82771428D01*
X139107142Y-82914285D01*
X139107142Y-83342857D01*
X139035714Y-83485714D01*
X138964285Y-83557142D01*
X138821428Y-83628571D01*
X138535714Y-83628571D01*
X138392857Y-83557142D01*
X140321428Y-83557142D02*
X140178571Y-83628571D01*
X139892857Y-83628571D01*
X139750000Y-83557142D01*
X139678571Y-83414285D01*
X139678571Y-82842857D01*
X139750000Y-82700000D01*
X139892857Y-82628571D01*
X140178571Y-82628571D01*
X140321428Y-82700000D01*
X140392857Y-82842857D01*
X140392857Y-82985714D01*
X139678571Y-83128571D01*
X141035714Y-83628571D02*
X141035714Y-82628571D01*
X141035714Y-82914285D02*
X141107142Y-82771428D01*
X141178571Y-82700000D01*
X141321428Y-82628571D01*
X141464285Y-82628571D01*
X142607142Y-83628571D02*
X142607142Y-82842857D01*
X142535714Y-82700000D01*
X142392857Y-82628571D01*
X142107142Y-82628571D01*
X141964285Y-82700000D01*
X142607142Y-83557142D02*
X142464285Y-83628571D01*
X142107142Y-83628571D01*
X141964285Y-83557142D01*
X141892857Y-83414285D01*
X141892857Y-83271428D01*
X141964285Y-83128571D01*
X142107142Y-83057142D01*
X142464285Y-83057142D01*
X142607142Y-82985714D01*
X143107142Y-82628571D02*
X143678571Y-82628571D01*
X143321428Y-82128571D02*
X143321428Y-83414285D01*
X143392857Y-83557142D01*
X143535714Y-83628571D01*
X143678571Y-83628571D01*
X144821428Y-82628571D02*
X144821428Y-83628571D01*
X144178571Y-82628571D02*
X144178571Y-83414285D01*
X144250000Y-83557142D01*
X144392857Y-83628571D01*
X144607142Y-83628571D01*
X144750000Y-83557142D01*
X144821428Y-83485714D01*
X145535714Y-83628571D02*
X145535714Y-82628571D01*
X145535714Y-82914285D02*
X145607142Y-82771428D01*
X145678571Y-82700000D01*
X145821428Y-82628571D01*
X145964285Y-82628571D01*
X147035714Y-83557142D02*
X146892857Y-83628571D01*
X146607142Y-83628571D01*
X146464285Y-83557142D01*
X146392857Y-83414285D01*
X146392857Y-82842857D01*
X146464285Y-82700000D01*
X146607142Y-82628571D01*
X146892857Y-82628571D01*
X147035714Y-82700000D01*
X147107142Y-82842857D01*
X147107142Y-82985714D01*
X146392857Y-83128571D01*
X126178571Y-86107142D02*
X126321428Y-86178571D01*
X126607142Y-86178571D01*
X126750000Y-86107142D01*
X126821428Y-85964285D01*
X126821428Y-85892857D01*
X126750000Y-85750000D01*
X126607142Y-85678571D01*
X126392857Y-85678571D01*
X126250000Y-85607142D01*
X126178571Y-85464285D01*
X126178571Y-85392857D01*
X126250000Y-85250000D01*
X126392857Y-85178571D01*
X126607142Y-85178571D01*
X126750000Y-85250000D01*
X128035714Y-86107142D02*
X127892857Y-86178571D01*
X127607142Y-86178571D01*
X127464285Y-86107142D01*
X127392857Y-85964285D01*
X127392857Y-85392857D01*
X127464285Y-85250000D01*
X127607142Y-85178571D01*
X127892857Y-85178571D01*
X128035714Y-85250000D01*
X128107142Y-85392857D01*
X128107142Y-85535714D01*
X127392857Y-85678571D01*
X128750000Y-85178571D02*
X128750000Y-86178571D01*
X128750000Y-85321428D02*
X128821428Y-85250000D01*
X128964285Y-85178571D01*
X129178571Y-85178571D01*
X129321428Y-85250000D01*
X129392857Y-85392857D01*
X129392857Y-86178571D01*
X130035714Y-86107142D02*
X130178571Y-86178571D01*
X130464285Y-86178571D01*
X130607142Y-86107142D01*
X130678571Y-85964285D01*
X130678571Y-85892857D01*
X130607142Y-85750000D01*
X130464285Y-85678571D01*
X130250000Y-85678571D01*
X130107142Y-85607142D01*
X130035714Y-85464285D01*
X130035714Y-85392857D01*
X130107142Y-85250000D01*
X130250000Y-85178571D01*
X130464285Y-85178571D01*
X130607142Y-85250000D01*
X131535714Y-86178571D02*
X131392857Y-86107142D01*
X131321428Y-86035714D01*
X131250000Y-85892857D01*
X131250000Y-85464285D01*
X131321428Y-85321428D01*
X131392857Y-85250000D01*
X131535714Y-85178571D01*
X131750000Y-85178571D01*
X131892857Y-85250000D01*
X131964285Y-85321428D01*
X132035714Y-85464285D01*
X132035714Y-85892857D01*
X131964285Y-86035714D01*
X131892857Y-86107142D01*
X131750000Y-86178571D01*
X131535714Y-86178571D01*
X132678571Y-86178571D02*
X132678571Y-85178571D01*
X132678571Y-85464285D02*
X132750000Y-85321428D01*
X132821428Y-85250000D01*
X132964285Y-85178571D01*
X133107142Y-85178571D01*
X134750000Y-86178571D02*
X134750000Y-84678571D01*
X134750000Y-85250000D02*
X134892857Y-85178571D01*
X135178571Y-85178571D01*
X135321428Y-85250000D01*
X135392857Y-85321428D01*
X135464285Y-85464285D01*
X135464285Y-85892857D01*
X135392857Y-86035714D01*
X135321428Y-86107142D01*
X135178571Y-86178571D01*
X134892857Y-86178571D01*
X134750000Y-86107142D01*
X136107142Y-86178571D02*
X136107142Y-85178571D01*
X136107142Y-85464285D02*
X136178571Y-85321428D01*
X136250000Y-85250000D01*
X136392857Y-85178571D01*
X136535714Y-85178571D01*
X137607142Y-86107142D02*
X137464285Y-86178571D01*
X137178571Y-86178571D01*
X137035714Y-86107142D01*
X136964285Y-85964285D01*
X136964285Y-85392857D01*
X137035714Y-85250000D01*
X137178571Y-85178571D01*
X137464285Y-85178571D01*
X137607142Y-85250000D01*
X137678571Y-85392857D01*
X137678571Y-85535714D01*
X136964285Y-85678571D01*
X138964285Y-86178571D02*
X138964285Y-85392857D01*
X138892857Y-85250000D01*
X138750000Y-85178571D01*
X138464285Y-85178571D01*
X138321428Y-85250000D01*
X138964285Y-86107142D02*
X138821428Y-86178571D01*
X138464285Y-86178571D01*
X138321428Y-86107142D01*
X138250000Y-85964285D01*
X138250000Y-85821428D01*
X138321428Y-85678571D01*
X138464285Y-85607142D01*
X138821428Y-85607142D01*
X138964285Y-85535714D01*
X139678571Y-86178571D02*
X139678571Y-84678571D01*
X139821428Y-85607142D02*
X140250000Y-86178571D01*
X140250000Y-85178571D02*
X139678571Y-85750000D01*
X141107142Y-86178571D02*
X140964285Y-86107142D01*
X140892857Y-86035714D01*
X140821428Y-85892857D01*
X140821428Y-85464285D01*
X140892857Y-85321428D01*
X140964285Y-85250000D01*
X141107142Y-85178571D01*
X141321428Y-85178571D01*
X141464285Y-85250000D01*
X141535714Y-85321428D01*
X141607142Y-85464285D01*
X141607142Y-85892857D01*
X141535714Y-86035714D01*
X141464285Y-86107142D01*
X141321428Y-86178571D01*
X141107142Y-86178571D01*
X142892857Y-85178571D02*
X142892857Y-86178571D01*
X142250000Y-85178571D02*
X142250000Y-85964285D01*
X142321428Y-86107142D01*
X142464285Y-86178571D01*
X142678571Y-86178571D01*
X142821428Y-86107142D01*
X142892857Y-86035714D01*
X143392857Y-85178571D02*
X143964285Y-85178571D01*
X143607142Y-84678571D02*
X143607142Y-85964285D01*
X143678571Y-86107142D01*
X143821428Y-86178571D01*
X143964285Y-86178571D01*
X132857142Y-87728571D02*
X133214285Y-88728571D01*
X133571428Y-87728571D01*
X134428571Y-87228571D02*
X134571428Y-87228571D01*
X134714285Y-87300000D01*
X134785714Y-87371428D01*
X134857142Y-87514285D01*
X134928571Y-87800000D01*
X134928571Y-88157142D01*
X134857142Y-88442857D01*
X134785714Y-88585714D01*
X134714285Y-88657142D01*
X134571428Y-88728571D01*
X134428571Y-88728571D01*
X134285714Y-88657142D01*
X134214285Y-88585714D01*
X134142857Y-88442857D01*
X134071428Y-88157142D01*
X134071428Y-87800000D01*
X134142857Y-87514285D01*
X134214285Y-87371428D01*
X134285714Y-87300000D01*
X134428571Y-87228571D01*
X135571428Y-88585714D02*
X135642857Y-88657142D01*
X135571428Y-88728571D01*
X135500000Y-88657142D01*
X135571428Y-88585714D01*
X135571428Y-88728571D01*
X136214285Y-87371428D02*
X136285714Y-87300000D01*
X136428571Y-87228571D01*
X136785714Y-87228571D01*
X136928571Y-87300000D01*
X137000000Y-87371428D01*
X137071428Y-87514285D01*
X137071428Y-87657142D01*
X137000000Y-87871428D01*
X136142857Y-88728571D01*
X137071428Y-88728571D01*
D11*
X141785714Y-115571428D02*
X141785714Y-115190476D01*
X141452380Y-115428571D02*
X142309523Y-115428571D01*
X142404761Y-115380952D01*
X142452380Y-115285714D01*
X142452380Y-115190476D01*
X141452380Y-114714285D02*
X141500000Y-114809523D01*
X141595238Y-114857142D01*
X141690476Y-114809523D01*
X141738095Y-114714285D01*
X141690476Y-114619047D01*
X141595238Y-114571428D01*
X141500000Y-114619047D01*
X141452380Y-114714285D01*
X142071428Y-114285714D02*
X142071428Y-113523809D01*
X142452380Y-113904761D02*
X141690476Y-113904761D01*
X141452380Y-112571428D02*
X141452380Y-113047619D01*
X141928571Y-113095238D01*
X141880952Y-113047619D01*
X141833333Y-112952380D01*
X141833333Y-112714285D01*
X141880952Y-112619047D01*
X141928571Y-112571428D01*
X142023809Y-112523809D01*
X142261904Y-112523809D01*
X142357142Y-112571428D01*
X142404761Y-112619047D01*
X142452380Y-112714285D01*
X142452380Y-112952380D01*
X142404761Y-113047619D01*
X142357142Y-113095238D01*
X141452380Y-112238095D02*
X142452380Y-111904761D01*
X141452380Y-111571428D01*
X141500000Y-118261904D02*
X141452380Y-118357142D01*
X141452380Y-118500000D01*
X141500000Y-118642857D01*
X141595238Y-118738095D01*
X141690476Y-118785714D01*
X141880952Y-118833333D01*
X142023809Y-118833333D01*
X142214285Y-118785714D01*
X142309523Y-118738095D01*
X142404761Y-118642857D01*
X142452380Y-118500000D01*
X142452380Y-118404761D01*
X142404761Y-118261904D01*
X142357142Y-118214285D01*
X142023809Y-118214285D01*
X142023809Y-118404761D01*
X142452380Y-117785714D02*
X141452380Y-117785714D01*
X142452380Y-117214285D01*
X141452380Y-117214285D01*
X142452380Y-116738095D02*
X141452380Y-116738095D01*
X141452380Y-116500000D01*
X141500000Y-116357142D01*
X141595238Y-116261904D01*
X141690476Y-116214285D01*
X141880952Y-116166666D01*
X142023809Y-116166666D01*
X142214285Y-116214285D01*
X142309523Y-116261904D01*
X142404761Y-116357142D01*
X142452380Y-116500000D01*
X142452380Y-116738095D01*
X154000000Y-118261904D02*
X153952380Y-118357142D01*
X153952380Y-118500000D01*
X154000000Y-118642857D01*
X154095238Y-118738095D01*
X154190476Y-118785714D01*
X154380952Y-118833333D01*
X154523809Y-118833333D01*
X154714285Y-118785714D01*
X154809523Y-118738095D01*
X154904761Y-118642857D01*
X154952380Y-118500000D01*
X154952380Y-118404761D01*
X154904761Y-118261904D01*
X154857142Y-118214285D01*
X154523809Y-118214285D01*
X154523809Y-118404761D01*
X154952380Y-117785714D02*
X153952380Y-117785714D01*
X154952380Y-117214285D01*
X153952380Y-117214285D01*
X154952380Y-116738095D02*
X153952380Y-116738095D01*
X153952380Y-116500000D01*
X154000000Y-116357142D01*
X154095238Y-116261904D01*
X154190476Y-116214285D01*
X154380952Y-116166666D01*
X154523809Y-116166666D01*
X154714285Y-116214285D01*
X154809523Y-116261904D01*
X154904761Y-116357142D01*
X154952380Y-116500000D01*
X154952380Y-116738095D01*
X154571428Y-114285714D02*
X154571428Y-113523809D01*
X154952380Y-113904761D02*
X154190476Y-113904761D01*
X153952380Y-112571428D02*
X153952380Y-113047619D01*
X154428571Y-113095238D01*
X154380952Y-113047619D01*
X154333333Y-112952380D01*
X154333333Y-112714285D01*
X154380952Y-112619047D01*
X154428571Y-112571428D01*
X154523809Y-112523809D01*
X154761904Y-112523809D01*
X154857142Y-112571428D01*
X154904761Y-112619047D01*
X154952380Y-112714285D01*
X154952380Y-112952380D01*
X154904761Y-113047619D01*
X154857142Y-113095238D01*
X153952380Y-112238095D02*
X154952380Y-111904761D01*
X153952380Y-111571428D01*
X154285714Y-115571428D02*
X154285714Y-115190476D01*
X153952380Y-115428571D02*
X154809523Y-115428571D01*
X154904761Y-115380952D01*
X154952380Y-115285714D01*
X154952380Y-115190476D01*
X153952380Y-114714285D02*
X154000000Y-114809523D01*
X154095238Y-114857142D01*
X154190476Y-114809523D01*
X154238095Y-114714285D01*
X154190476Y-114619047D01*
X154095238Y-114571428D01*
X154000000Y-114619047D01*
X153952380Y-114714285D01*
X141785714Y-105571428D02*
X141785714Y-105190476D01*
X141452380Y-105428571D02*
X142309523Y-105428571D01*
X142404761Y-105380952D01*
X142452380Y-105285714D01*
X142452380Y-105190476D01*
X141452380Y-104714285D02*
X141500000Y-104809523D01*
X141595238Y-104857142D01*
X141690476Y-104809523D01*
X141738095Y-104714285D01*
X141690476Y-104619047D01*
X141595238Y-104571428D01*
X141500000Y-104619047D01*
X141452380Y-104714285D01*
X142071428Y-104285714D02*
X142071428Y-103523809D01*
X142452380Y-103904761D02*
X141690476Y-103904761D01*
X141452380Y-102571428D02*
X141452380Y-103047619D01*
X141928571Y-103095238D01*
X141880952Y-103047619D01*
X141833333Y-102952380D01*
X141833333Y-102714285D01*
X141880952Y-102619047D01*
X141928571Y-102571428D01*
X142023809Y-102523809D01*
X142261904Y-102523809D01*
X142357142Y-102571428D01*
X142404761Y-102619047D01*
X142452380Y-102714285D01*
X142452380Y-102952380D01*
X142404761Y-103047619D01*
X142357142Y-103095238D01*
X141452380Y-102238095D02*
X142452380Y-101904761D01*
X141452380Y-101571428D01*
X141500000Y-108261904D02*
X141452380Y-108357142D01*
X141452380Y-108500000D01*
X141500000Y-108642857D01*
X141595238Y-108738095D01*
X141690476Y-108785714D01*
X141880952Y-108833333D01*
X142023809Y-108833333D01*
X142214285Y-108785714D01*
X142309523Y-108738095D01*
X142404761Y-108642857D01*
X142452380Y-108500000D01*
X142452380Y-108404761D01*
X142404761Y-108261904D01*
X142357142Y-108214285D01*
X142023809Y-108214285D01*
X142023809Y-108404761D01*
X142452380Y-107785714D02*
X141452380Y-107785714D01*
X142452380Y-107214285D01*
X141452380Y-107214285D01*
X142452380Y-106738095D02*
X141452380Y-106738095D01*
X141452380Y-106500000D01*
X141500000Y-106357142D01*
X141595238Y-106261904D01*
X141690476Y-106214285D01*
X141880952Y-106166666D01*
X142023809Y-106166666D01*
X142214285Y-106214285D01*
X142309523Y-106261904D01*
X142404761Y-106357142D01*
X142452380Y-106500000D01*
X142452380Y-106738095D01*
X154000000Y-108261904D02*
X153952380Y-108357142D01*
X153952380Y-108500000D01*
X154000000Y-108642857D01*
X154095238Y-108738095D01*
X154190476Y-108785714D01*
X154380952Y-108833333D01*
X154523809Y-108833333D01*
X154714285Y-108785714D01*
X154809523Y-108738095D01*
X154904761Y-108642857D01*
X154952380Y-108500000D01*
X154952380Y-108404761D01*
X154904761Y-108261904D01*
X154857142Y-108214285D01*
X154523809Y-108214285D01*
X154523809Y-108404761D01*
X154952380Y-107785714D02*
X153952380Y-107785714D01*
X154952380Y-107214285D01*
X153952380Y-107214285D01*
X154952380Y-106738095D02*
X153952380Y-106738095D01*
X153952380Y-106500000D01*
X154000000Y-106357142D01*
X154095238Y-106261904D01*
X154190476Y-106214285D01*
X154380952Y-106166666D01*
X154523809Y-106166666D01*
X154714285Y-106214285D01*
X154809523Y-106261904D01*
X154904761Y-106357142D01*
X154952380Y-106500000D01*
X154952380Y-106738095D01*
X154571428Y-104285714D02*
X154571428Y-103523809D01*
X154952380Y-103904761D02*
X154190476Y-103904761D01*
X153952380Y-102571428D02*
X153952380Y-103047619D01*
X154428571Y-103095238D01*
X154380952Y-103047619D01*
X154333333Y-102952380D01*
X154333333Y-102714285D01*
X154380952Y-102619047D01*
X154428571Y-102571428D01*
X154523809Y-102523809D01*
X154761904Y-102523809D01*
X154857142Y-102571428D01*
X154904761Y-102619047D01*
X154952380Y-102714285D01*
X154952380Y-102952380D01*
X154904761Y-103047619D01*
X154857142Y-103095238D01*
X153952380Y-102238095D02*
X154952380Y-101904761D01*
X153952380Y-101571428D01*
X154285714Y-105571428D02*
X154285714Y-105190476D01*
X153952380Y-105428571D02*
X154809523Y-105428571D01*
X154904761Y-105380952D01*
X154952380Y-105285714D01*
X154952380Y-105190476D01*
X153952380Y-104714285D02*
X154000000Y-104809523D01*
X154095238Y-104857142D01*
X154190476Y-104809523D01*
X154238095Y-104714285D01*
X154190476Y-104619047D01*
X154095238Y-104571428D01*
X154000000Y-104619047D01*
X153952380Y-104714285D01*
X154000000Y-98261904D02*
X153952380Y-98357142D01*
X153952380Y-98500000D01*
X154000000Y-98642857D01*
X154095238Y-98738095D01*
X154190476Y-98785714D01*
X154380952Y-98833333D01*
X154523809Y-98833333D01*
X154714285Y-98785714D01*
X154809523Y-98738095D01*
X154904761Y-98642857D01*
X154952380Y-98500000D01*
X154952380Y-98404761D01*
X154904761Y-98261904D01*
X154857142Y-98214285D01*
X154523809Y-98214285D01*
X154523809Y-98404761D01*
X154952380Y-97785714D02*
X153952380Y-97785714D01*
X154952380Y-97214285D01*
X153952380Y-97214285D01*
X154952380Y-96738095D02*
X153952380Y-96738095D01*
X153952380Y-96500000D01*
X154000000Y-96357142D01*
X154095238Y-96261904D01*
X154190476Y-96214285D01*
X154380952Y-96166666D01*
X154523809Y-96166666D01*
X154714285Y-96214285D01*
X154809523Y-96261904D01*
X154904761Y-96357142D01*
X154952380Y-96500000D01*
X154952380Y-96738095D01*
X154571428Y-94285714D02*
X154571428Y-93523809D01*
X154952380Y-93904761D02*
X154190476Y-93904761D01*
X153952380Y-92571428D02*
X153952380Y-93047619D01*
X154428571Y-93095238D01*
X154380952Y-93047619D01*
X154333333Y-92952380D01*
X154333333Y-92714285D01*
X154380952Y-92619047D01*
X154428571Y-92571428D01*
X154523809Y-92523809D01*
X154761904Y-92523809D01*
X154857142Y-92571428D01*
X154904761Y-92619047D01*
X154952380Y-92714285D01*
X154952380Y-92952380D01*
X154904761Y-93047619D01*
X154857142Y-93095238D01*
X153952380Y-92238095D02*
X154952380Y-91904761D01*
X153952380Y-91571428D01*
X154285714Y-95571428D02*
X154285714Y-95190476D01*
X153952380Y-95428571D02*
X154809523Y-95428571D01*
X154904761Y-95380952D01*
X154952380Y-95285714D01*
X154952380Y-95190476D01*
X153952380Y-94714285D02*
X154000000Y-94809523D01*
X154095238Y-94857142D01*
X154190476Y-94809523D01*
X154238095Y-94714285D01*
X154190476Y-94619047D01*
X154095238Y-94571428D01*
X154000000Y-94619047D01*
X153952380Y-94714285D01*
X141500000Y-98261904D02*
X141452380Y-98357142D01*
X141452380Y-98500000D01*
X141500000Y-98642857D01*
X141595238Y-98738095D01*
X141690476Y-98785714D01*
X141880952Y-98833333D01*
X142023809Y-98833333D01*
X142214285Y-98785714D01*
X142309523Y-98738095D01*
X142404761Y-98642857D01*
X142452380Y-98500000D01*
X142452380Y-98404761D01*
X142404761Y-98261904D01*
X142357142Y-98214285D01*
X142023809Y-98214285D01*
X142023809Y-98404761D01*
X142452380Y-97785714D02*
X141452380Y-97785714D01*
X142452380Y-97214285D01*
X141452380Y-97214285D01*
X142452380Y-96738095D02*
X141452380Y-96738095D01*
X141452380Y-96500000D01*
X141500000Y-96357142D01*
X141595238Y-96261904D01*
X141690476Y-96214285D01*
X141880952Y-96166666D01*
X142023809Y-96166666D01*
X142214285Y-96214285D01*
X142309523Y-96261904D01*
X142404761Y-96357142D01*
X142452380Y-96500000D01*
X142452380Y-96738095D01*
X142071428Y-94285714D02*
X142071428Y-93523809D01*
X142452380Y-93904761D02*
X141690476Y-93904761D01*
X141452380Y-92571428D02*
X141452380Y-93047619D01*
X141928571Y-93095238D01*
X141880952Y-93047619D01*
X141833333Y-92952380D01*
X141833333Y-92714285D01*
X141880952Y-92619047D01*
X141928571Y-92571428D01*
X142023809Y-92523809D01*
X142261904Y-92523809D01*
X142357142Y-92571428D01*
X142404761Y-92619047D01*
X142452380Y-92714285D01*
X142452380Y-92952380D01*
X142404761Y-93047619D01*
X142357142Y-93095238D01*
X141452380Y-92238095D02*
X142452380Y-91904761D01*
X141452380Y-91571428D01*
X141785714Y-95571428D02*
X141785714Y-95190476D01*
X141452380Y-95428571D02*
X142309523Y-95428571D01*
X142404761Y-95380952D01*
X142452380Y-95285714D01*
X142452380Y-95190476D01*
X141452380Y-94714285D02*
X141500000Y-94809523D01*
X141595238Y-94857142D01*
X141690476Y-94809523D01*
X141738095Y-94714285D01*
X141690476Y-94619047D01*
X141595238Y-94571428D01*
X141500000Y-94619047D01*
X141452380Y-94714285D01*
D12*
%TO.C,REF\u002A\u002A*%
G36*
X135099744Y-126419918D02*
G01*
X135155201Y-126447568D01*
X135204148Y-126498480D01*
X135217629Y-126517338D01*
X135232314Y-126542015D01*
X135241842Y-126568816D01*
X135247293Y-126604587D01*
X135249747Y-126656169D01*
X135250286Y-126724267D01*
X135247852Y-126817588D01*
X135239394Y-126887657D01*
X135223174Y-126939931D01*
X135197454Y-126979869D01*
X135160497Y-127012929D01*
X135157782Y-127014886D01*
X135121360Y-127034908D01*
X135077502Y-127044815D01*
X135021724Y-127047257D01*
X134931048Y-127047257D01*
X134931010Y-127135283D01*
X134930166Y-127184308D01*
X134925024Y-127213065D01*
X134911587Y-127230311D01*
X134885858Y-127244808D01*
X134879679Y-127247769D01*
X134850764Y-127261648D01*
X134828376Y-127270414D01*
X134811729Y-127271171D01*
X134800036Y-127261023D01*
X134792510Y-127237073D01*
X134788366Y-127196426D01*
X134786815Y-127136186D01*
X134787071Y-127053455D01*
X134788349Y-126945339D01*
X134788748Y-126913000D01*
X134790185Y-126801524D01*
X134791472Y-126728603D01*
X134930971Y-126728603D01*
X134931755Y-126790499D01*
X134935240Y-126830997D01*
X134943124Y-126857708D01*
X134957105Y-126878244D01*
X134966597Y-126888260D01*
X135005404Y-126917567D01*
X135039763Y-126919952D01*
X135075216Y-126895750D01*
X135076114Y-126894857D01*
X135090539Y-126876153D01*
X135099313Y-126850732D01*
X135103739Y-126811584D01*
X135105118Y-126751697D01*
X135105143Y-126738430D01*
X135101812Y-126655901D01*
X135090969Y-126598691D01*
X135071340Y-126563766D01*
X135041650Y-126548094D01*
X135024491Y-126546514D01*
X134983766Y-126553926D01*
X134955832Y-126578330D01*
X134939017Y-126622980D01*
X134931650Y-126691130D01*
X134930971Y-126728603D01*
X134791472Y-126728603D01*
X134791708Y-126715245D01*
X134793677Y-126650333D01*
X134796450Y-126602958D01*
X134800388Y-126569290D01*
X134805849Y-126545498D01*
X134813192Y-126527753D01*
X134822777Y-126512224D01*
X134826887Y-126506381D01*
X134881405Y-126451185D01*
X134950336Y-126419890D01*
X135030072Y-126411165D01*
X135099744Y-126419918D01*
G37*
X135099744Y-126419918D02*
X135155201Y-126447568D01*
X135204148Y-126498480D01*
X135217629Y-126517338D01*
X135232314Y-126542015D01*
X135241842Y-126568816D01*
X135247293Y-126604587D01*
X135249747Y-126656169D01*
X135250286Y-126724267D01*
X135247852Y-126817588D01*
X135239394Y-126887657D01*
X135223174Y-126939931D01*
X135197454Y-126979869D01*
X135160497Y-127012929D01*
X135157782Y-127014886D01*
X135121360Y-127034908D01*
X135077502Y-127044815D01*
X135021724Y-127047257D01*
X134931048Y-127047257D01*
X134931010Y-127135283D01*
X134930166Y-127184308D01*
X134925024Y-127213065D01*
X134911587Y-127230311D01*
X134885858Y-127244808D01*
X134879679Y-127247769D01*
X134850764Y-127261648D01*
X134828376Y-127270414D01*
X134811729Y-127271171D01*
X134800036Y-127261023D01*
X134792510Y-127237073D01*
X134788366Y-127196426D01*
X134786815Y-127136186D01*
X134787071Y-127053455D01*
X134788349Y-126945339D01*
X134788748Y-126913000D01*
X134790185Y-126801524D01*
X134791472Y-126728603D01*
X134930971Y-126728603D01*
X134931755Y-126790499D01*
X134935240Y-126830997D01*
X134943124Y-126857708D01*
X134957105Y-126878244D01*
X134966597Y-126888260D01*
X135005404Y-126917567D01*
X135039763Y-126919952D01*
X135075216Y-126895750D01*
X135076114Y-126894857D01*
X135090539Y-126876153D01*
X135099313Y-126850732D01*
X135103739Y-126811584D01*
X135105118Y-126751697D01*
X135105143Y-126738430D01*
X135101812Y-126655901D01*
X135090969Y-126598691D01*
X135071340Y-126563766D01*
X135041650Y-126548094D01*
X135024491Y-126546514D01*
X134983766Y-126553926D01*
X134955832Y-126578330D01*
X134939017Y-126622980D01*
X134931650Y-126691130D01*
X134930971Y-126728603D01*
X134791472Y-126728603D01*
X134791708Y-126715245D01*
X134793677Y-126650333D01*
X134796450Y-126602958D01*
X134800388Y-126569290D01*
X134805849Y-126545498D01*
X134813192Y-126527753D01*
X134822777Y-126512224D01*
X134826887Y-126506381D01*
X134881405Y-126451185D01*
X134950336Y-126419890D01*
X135030072Y-126411165D01*
X135099744Y-126419918D01*
G36*
X136216093Y-126427780D02*
G01*
X136262672Y-126454723D01*
X136295057Y-126481466D01*
X136318742Y-126509484D01*
X136335059Y-126543748D01*
X136345339Y-126589227D01*
X136350914Y-126650892D01*
X136353116Y-126733711D01*
X136353371Y-126793246D01*
X136353371Y-127012391D01*
X136291686Y-127040044D01*
X136230000Y-127067697D01*
X136222743Y-126827670D01*
X136219744Y-126738028D01*
X136216598Y-126672962D01*
X136212701Y-126628026D01*
X136207447Y-126598770D01*
X136200231Y-126580748D01*
X136190450Y-126569511D01*
X136187312Y-126567079D01*
X136139761Y-126548083D01*
X136091697Y-126555600D01*
X136063086Y-126575543D01*
X136051447Y-126589675D01*
X136043391Y-126608220D01*
X136038271Y-126636334D01*
X136035441Y-126679173D01*
X136034256Y-126741895D01*
X136034057Y-126807261D01*
X136034018Y-126889268D01*
X136032614Y-126947316D01*
X136027914Y-126986465D01*
X136017987Y-127011780D01*
X136000903Y-127028323D01*
X135974732Y-127041156D01*
X135939775Y-127054491D01*
X135901596Y-127069007D01*
X135906141Y-126811389D01*
X135907971Y-126718519D01*
X135910112Y-126649889D01*
X135913181Y-126600711D01*
X135917794Y-126566198D01*
X135924568Y-126541562D01*
X135934119Y-126522016D01*
X135945634Y-126504770D01*
X136001190Y-126449680D01*
X136068980Y-126417822D01*
X136142713Y-126410191D01*
X136216093Y-126427780D01*
G37*
X136216093Y-126427780D02*
X136262672Y-126454723D01*
X136295057Y-126481466D01*
X136318742Y-126509484D01*
X136335059Y-126543748D01*
X136345339Y-126589227D01*
X136350914Y-126650892D01*
X136353116Y-126733711D01*
X136353371Y-126793246D01*
X136353371Y-127012391D01*
X136291686Y-127040044D01*
X136230000Y-127067697D01*
X136222743Y-126827670D01*
X136219744Y-126738028D01*
X136216598Y-126672962D01*
X136212701Y-126628026D01*
X136207447Y-126598770D01*
X136200231Y-126580748D01*
X136190450Y-126569511D01*
X136187312Y-126567079D01*
X136139761Y-126548083D01*
X136091697Y-126555600D01*
X136063086Y-126575543D01*
X136051447Y-126589675D01*
X136043391Y-126608220D01*
X136038271Y-126636334D01*
X136035441Y-126679173D01*
X136034256Y-126741895D01*
X136034057Y-126807261D01*
X136034018Y-126889268D01*
X136032614Y-126947316D01*
X136027914Y-126986465D01*
X136017987Y-127011780D01*
X136000903Y-127028323D01*
X135974732Y-127041156D01*
X135939775Y-127054491D01*
X135901596Y-127069007D01*
X135906141Y-126811389D01*
X135907971Y-126718519D01*
X135910112Y-126649889D01*
X135913181Y-126600711D01*
X135917794Y-126566198D01*
X135924568Y-126541562D01*
X135934119Y-126522016D01*
X135945634Y-126504770D01*
X136001190Y-126449680D01*
X136068980Y-126417822D01*
X136142713Y-126410191D01*
X136216093Y-126427780D01*
G36*
X134541115Y-126421962D02*
G01*
X134609145Y-126457733D01*
X134659351Y-126515301D01*
X134677185Y-126552312D01*
X134691063Y-126607882D01*
X134698167Y-126678096D01*
X134698840Y-126754727D01*
X134693427Y-126829552D01*
X134682270Y-126894342D01*
X134665714Y-126940873D01*
X134660626Y-126948887D01*
X134600355Y-127008707D01*
X134528769Y-127044535D01*
X134451092Y-127055020D01*
X134372548Y-127038810D01*
X134350689Y-127029092D01*
X134308122Y-126999143D01*
X134270763Y-126959433D01*
X134267232Y-126954397D01*
X134252881Y-126930124D01*
X134243394Y-126904178D01*
X134237790Y-126870022D01*
X134235086Y-126821119D01*
X134234299Y-126750935D01*
X134234286Y-126735200D01*
X134234322Y-126730192D01*
X134379429Y-126730192D01*
X134380273Y-126796430D01*
X134383596Y-126840386D01*
X134390583Y-126868779D01*
X134402416Y-126888325D01*
X134408457Y-126894857D01*
X134443186Y-126919680D01*
X134476903Y-126918548D01*
X134510995Y-126897016D01*
X134531329Y-126874029D01*
X134543371Y-126840478D01*
X134550134Y-126787569D01*
X134550598Y-126781399D01*
X134551752Y-126685513D01*
X134539688Y-126614299D01*
X134514570Y-126568194D01*
X134476560Y-126547635D01*
X134462992Y-126546514D01*
X134427364Y-126552152D01*
X134402994Y-126571686D01*
X134388093Y-126609042D01*
X134380875Y-126668150D01*
X134379429Y-126730192D01*
X134234322Y-126730192D01*
X134234826Y-126660413D01*
X134237096Y-126608159D01*
X134242068Y-126571949D01*
X134250713Y-126545299D01*
X134264005Y-126521722D01*
X134266943Y-126517338D01*
X134316313Y-126458249D01*
X134370109Y-126423947D01*
X134435602Y-126410331D01*
X134457842Y-126409665D01*
X134541115Y-126421962D01*
G37*
X134541115Y-126421962D02*
X134609145Y-126457733D01*
X134659351Y-126515301D01*
X134677185Y-126552312D01*
X134691063Y-126607882D01*
X134698167Y-126678096D01*
X134698840Y-126754727D01*
X134693427Y-126829552D01*
X134682270Y-126894342D01*
X134665714Y-126940873D01*
X134660626Y-126948887D01*
X134600355Y-127008707D01*
X134528769Y-127044535D01*
X134451092Y-127055020D01*
X134372548Y-127038810D01*
X134350689Y-127029092D01*
X134308122Y-126999143D01*
X134270763Y-126959433D01*
X134267232Y-126954397D01*
X134252881Y-126930124D01*
X134243394Y-126904178D01*
X134237790Y-126870022D01*
X134235086Y-126821119D01*
X134234299Y-126750935D01*
X134234286Y-126735200D01*
X134234322Y-126730192D01*
X134379429Y-126730192D01*
X134380273Y-126796430D01*
X134383596Y-126840386D01*
X134390583Y-126868779D01*
X134402416Y-126888325D01*
X134408457Y-126894857D01*
X134443186Y-126919680D01*
X134476903Y-126918548D01*
X134510995Y-126897016D01*
X134531329Y-126874029D01*
X134543371Y-126840478D01*
X134550134Y-126787569D01*
X134550598Y-126781399D01*
X134551752Y-126685513D01*
X134539688Y-126614299D01*
X134514570Y-126568194D01*
X134476560Y-126547635D01*
X134462992Y-126546514D01*
X134427364Y-126552152D01*
X134402994Y-126571686D01*
X134388093Y-126609042D01*
X134380875Y-126668150D01*
X134379429Y-126730192D01*
X134234322Y-126730192D01*
X134234826Y-126660413D01*
X134237096Y-126608159D01*
X134242068Y-126571949D01*
X134250713Y-126545299D01*
X134264005Y-126521722D01*
X134266943Y-126517338D01*
X134316313Y-126458249D01*
X134370109Y-126423947D01*
X134435602Y-126410331D01*
X134457842Y-126409665D01*
X134541115Y-126421962D01*
G36*
X135668303Y-126431239D02*
G01*
X135725527Y-126469735D01*
X135769749Y-126525335D01*
X135796167Y-126596086D01*
X135801510Y-126648162D01*
X135800903Y-126669893D01*
X135795822Y-126686531D01*
X135781855Y-126701437D01*
X135754589Y-126717973D01*
X135709612Y-126739498D01*
X135642511Y-126769374D01*
X135642171Y-126769524D01*
X135580407Y-126797813D01*
X135529759Y-126822933D01*
X135495404Y-126842179D01*
X135482518Y-126852848D01*
X135482514Y-126852934D01*
X135493872Y-126876166D01*
X135520431Y-126901774D01*
X135550923Y-126920221D01*
X135566370Y-126923886D01*
X135608515Y-126911212D01*
X135644808Y-126879471D01*
X135662517Y-126844572D01*
X135679552Y-126818845D01*
X135712922Y-126789546D01*
X135752149Y-126764235D01*
X135786756Y-126750471D01*
X135793993Y-126749714D01*
X135802139Y-126762160D01*
X135802630Y-126793972D01*
X135796643Y-126836866D01*
X135785357Y-126882558D01*
X135769950Y-126922761D01*
X135769171Y-126924322D01*
X135722804Y-126989062D01*
X135662711Y-127033097D01*
X135594465Y-127054711D01*
X135523638Y-127052185D01*
X135455804Y-127023804D01*
X135452788Y-127021808D01*
X135399427Y-126973448D01*
X135364340Y-126910352D01*
X135344922Y-126827387D01*
X135342316Y-126804078D01*
X135337701Y-126694055D01*
X135343233Y-126642748D01*
X135482514Y-126642748D01*
X135484324Y-126674753D01*
X135494222Y-126684093D01*
X135518898Y-126677105D01*
X135557795Y-126660587D01*
X135601275Y-126639881D01*
X135602356Y-126639333D01*
X135639209Y-126619949D01*
X135654000Y-126607013D01*
X135650353Y-126593451D01*
X135634995Y-126575632D01*
X135595923Y-126549845D01*
X135553846Y-126547950D01*
X135516103Y-126566717D01*
X135490034Y-126602915D01*
X135482514Y-126642748D01*
X135343233Y-126642748D01*
X135347194Y-126606027D01*
X135371550Y-126536212D01*
X135405456Y-126487302D01*
X135466653Y-126437878D01*
X135534063Y-126413359D01*
X135602880Y-126411797D01*
X135668303Y-126431239D01*
G37*
X135668303Y-126431239D02*
X135725527Y-126469735D01*
X135769749Y-126525335D01*
X135796167Y-126596086D01*
X135801510Y-126648162D01*
X135800903Y-126669893D01*
X135795822Y-126686531D01*
X135781855Y-126701437D01*
X135754589Y-126717973D01*
X135709612Y-126739498D01*
X135642511Y-126769374D01*
X135642171Y-126769524D01*
X135580407Y-126797813D01*
X135529759Y-126822933D01*
X135495404Y-126842179D01*
X135482518Y-126852848D01*
X135482514Y-126852934D01*
X135493872Y-126876166D01*
X135520431Y-126901774D01*
X135550923Y-126920221D01*
X135566370Y-126923886D01*
X135608515Y-126911212D01*
X135644808Y-126879471D01*
X135662517Y-126844572D01*
X135679552Y-126818845D01*
X135712922Y-126789546D01*
X135752149Y-126764235D01*
X135786756Y-126750471D01*
X135793993Y-126749714D01*
X135802139Y-126762160D01*
X135802630Y-126793972D01*
X135796643Y-126836866D01*
X135785357Y-126882558D01*
X135769950Y-126922761D01*
X135769171Y-126924322D01*
X135722804Y-126989062D01*
X135662711Y-127033097D01*
X135594465Y-127054711D01*
X135523638Y-127052185D01*
X135455804Y-127023804D01*
X135452788Y-127021808D01*
X135399427Y-126973448D01*
X135364340Y-126910352D01*
X135344922Y-126827387D01*
X135342316Y-126804078D01*
X135337701Y-126694055D01*
X135343233Y-126642748D01*
X135482514Y-126642748D01*
X135484324Y-126674753D01*
X135494222Y-126684093D01*
X135518898Y-126677105D01*
X135557795Y-126660587D01*
X135601275Y-126639881D01*
X135602356Y-126639333D01*
X135639209Y-126619949D01*
X135654000Y-126607013D01*
X135650353Y-126593451D01*
X135634995Y-126575632D01*
X135595923Y-126549845D01*
X135553846Y-126547950D01*
X135516103Y-126566717D01*
X135490034Y-126602915D01*
X135482514Y-126642748D01*
X135343233Y-126642748D01*
X135347194Y-126606027D01*
X135371550Y-126536212D01*
X135405456Y-126487302D01*
X135466653Y-126437878D01*
X135534063Y-126413359D01*
X135602880Y-126411797D01*
X135668303Y-126431239D01*
G36*
X136875886Y-126351289D02*
G01*
X136880139Y-126410613D01*
X136885025Y-126445572D01*
X136891795Y-126460820D01*
X136901702Y-126461015D01*
X136904914Y-126459195D01*
X136947644Y-126446015D01*
X137003227Y-126446785D01*
X137059737Y-126460333D01*
X137095082Y-126477861D01*
X137131321Y-126505861D01*
X137157813Y-126537549D01*
X137175999Y-126577813D01*
X137187322Y-126631543D01*
X137193222Y-126703626D01*
X137195143Y-126798951D01*
X137195177Y-126817237D01*
X137195200Y-127022646D01*
X137149491Y-127038580D01*
X137117027Y-127049420D01*
X137099215Y-127054468D01*
X137098691Y-127054514D01*
X137096937Y-127040828D01*
X137095444Y-127003076D01*
X137094326Y-126946224D01*
X137093697Y-126875234D01*
X137093600Y-126832073D01*
X137093398Y-126746973D01*
X137092358Y-126685981D01*
X137089831Y-126644177D01*
X137085164Y-126616642D01*
X137077707Y-126598456D01*
X137066811Y-126584698D01*
X137060007Y-126578073D01*
X137013272Y-126551375D01*
X136962272Y-126549375D01*
X136916001Y-126571955D01*
X136907444Y-126580107D01*
X136894893Y-126595436D01*
X136886188Y-126613618D01*
X136880631Y-126639909D01*
X136877526Y-126679562D01*
X136876176Y-126737832D01*
X136875886Y-126818173D01*
X136875886Y-127022646D01*
X136830177Y-127038580D01*
X136797713Y-127049420D01*
X136779901Y-127054468D01*
X136779377Y-127054514D01*
X136778037Y-127040623D01*
X136776828Y-127001439D01*
X136775801Y-126940700D01*
X136775002Y-126862141D01*
X136774481Y-126769498D01*
X136774286Y-126666509D01*
X136774286Y-126269342D01*
X136821457Y-126249444D01*
X136868629Y-126229547D01*
X136875886Y-126351289D01*
G37*
X136875886Y-126351289D02*
X136880139Y-126410613D01*
X136885025Y-126445572D01*
X136891795Y-126460820D01*
X136901702Y-126461015D01*
X136904914Y-126459195D01*
X136947644Y-126446015D01*
X137003227Y-126446785D01*
X137059737Y-126460333D01*
X137095082Y-126477861D01*
X137131321Y-126505861D01*
X137157813Y-126537549D01*
X137175999Y-126577813D01*
X137187322Y-126631543D01*
X137193222Y-126703626D01*
X137195143Y-126798951D01*
X137195177Y-126817237D01*
X137195200Y-127022646D01*
X137149491Y-127038580D01*
X137117027Y-127049420D01*
X137099215Y-127054468D01*
X137098691Y-127054514D01*
X137096937Y-127040828D01*
X137095444Y-127003076D01*
X137094326Y-126946224D01*
X137093697Y-126875234D01*
X137093600Y-126832073D01*
X137093398Y-126746973D01*
X137092358Y-126685981D01*
X137089831Y-126644177D01*
X137085164Y-126616642D01*
X137077707Y-126598456D01*
X137066811Y-126584698D01*
X137060007Y-126578073D01*
X137013272Y-126551375D01*
X136962272Y-126549375D01*
X136916001Y-126571955D01*
X136907444Y-126580107D01*
X136894893Y-126595436D01*
X136886188Y-126613618D01*
X136880631Y-126639909D01*
X136877526Y-126679562D01*
X136876176Y-126737832D01*
X136875886Y-126818173D01*
X136875886Y-127022646D01*
X136830177Y-127038580D01*
X136797713Y-127049420D01*
X136779901Y-127054468D01*
X136779377Y-127054514D01*
X136778037Y-127040623D01*
X136776828Y-127001439D01*
X136775801Y-126940700D01*
X136775002Y-126862141D01*
X136774481Y-126769498D01*
X136774286Y-126666509D01*
X136774286Y-126269342D01*
X136821457Y-126249444D01*
X136868629Y-126229547D01*
X136875886Y-126351289D01*
G36*
X137539744Y-126450968D02*
G01*
X137596616Y-126472087D01*
X137597267Y-126472493D01*
X137632440Y-126498380D01*
X137658407Y-126528633D01*
X137676670Y-126568058D01*
X137688732Y-126621462D01*
X137696096Y-126693651D01*
X137700264Y-126789432D01*
X137700629Y-126803078D01*
X137705876Y-127008842D01*
X137661716Y-127031678D01*
X137629763Y-127047110D01*
X137610470Y-127054423D01*
X137609578Y-127054514D01*
X137606239Y-127041022D01*
X137603587Y-127004626D01*
X137601956Y-126951452D01*
X137601600Y-126908393D01*
X137601592Y-126838641D01*
X137598403Y-126794837D01*
X137587288Y-126773944D01*
X137563501Y-126772925D01*
X137522296Y-126788741D01*
X137460086Y-126817815D01*
X137414341Y-126841963D01*
X137390813Y-126862913D01*
X137383896Y-126885747D01*
X137383886Y-126886877D01*
X137395299Y-126926212D01*
X137429092Y-126947462D01*
X137480809Y-126950539D01*
X137518061Y-126950006D01*
X137537703Y-126960735D01*
X137549952Y-126986505D01*
X137557002Y-127019337D01*
X137546842Y-127037966D01*
X137543017Y-127040632D01*
X137507001Y-127051340D01*
X137456566Y-127052856D01*
X137404626Y-127045759D01*
X137367822Y-127032788D01*
X137316938Y-126989585D01*
X137288014Y-126929446D01*
X137282286Y-126882462D01*
X137286657Y-126840082D01*
X137302475Y-126805488D01*
X137333797Y-126774763D01*
X137384678Y-126743990D01*
X137459176Y-126709252D01*
X137463714Y-126707288D01*
X137530821Y-126676287D01*
X137572232Y-126650862D01*
X137589981Y-126628014D01*
X137586107Y-126604745D01*
X137562643Y-126578056D01*
X137555627Y-126571914D01*
X137508630Y-126548100D01*
X137459933Y-126549103D01*
X137417522Y-126572451D01*
X137389384Y-126615675D01*
X137386769Y-126624160D01*
X137361308Y-126665308D01*
X137329001Y-126685128D01*
X137282286Y-126704770D01*
X137282286Y-126653950D01*
X137296496Y-126580082D01*
X137338675Y-126512327D01*
X137360624Y-126489661D01*
X137410517Y-126460569D01*
X137473967Y-126447400D01*
X137539744Y-126450968D01*
G37*
X137539744Y-126450968D02*
X137596616Y-126472087D01*
X137597267Y-126472493D01*
X137632440Y-126498380D01*
X137658407Y-126528633D01*
X137676670Y-126568058D01*
X137688732Y-126621462D01*
X137696096Y-126693651D01*
X137700264Y-126789432D01*
X137700629Y-126803078D01*
X137705876Y-127008842D01*
X137661716Y-127031678D01*
X137629763Y-127047110D01*
X137610470Y-127054423D01*
X137609578Y-127054514D01*
X137606239Y-127041022D01*
X137603587Y-127004626D01*
X137601956Y-126951452D01*
X137601600Y-126908393D01*
X137601592Y-126838641D01*
X137598403Y-126794837D01*
X137587288Y-126773944D01*
X137563501Y-126772925D01*
X137522296Y-126788741D01*
X137460086Y-126817815D01*
X137414341Y-126841963D01*
X137390813Y-126862913D01*
X137383896Y-126885747D01*
X137383886Y-126886877D01*
X137395299Y-126926212D01*
X137429092Y-126947462D01*
X137480809Y-126950539D01*
X137518061Y-126950006D01*
X137537703Y-126960735D01*
X137549952Y-126986505D01*
X137557002Y-127019337D01*
X137546842Y-127037966D01*
X137543017Y-127040632D01*
X137507001Y-127051340D01*
X137456566Y-127052856D01*
X137404626Y-127045759D01*
X137367822Y-127032788D01*
X137316938Y-126989585D01*
X137288014Y-126929446D01*
X137282286Y-126882462D01*
X137286657Y-126840082D01*
X137302475Y-126805488D01*
X137333797Y-126774763D01*
X137384678Y-126743990D01*
X137459176Y-126709252D01*
X137463714Y-126707288D01*
X137530821Y-126676287D01*
X137572232Y-126650862D01*
X137589981Y-126628014D01*
X137586107Y-126604745D01*
X137562643Y-126578056D01*
X137555627Y-126571914D01*
X137508630Y-126548100D01*
X137459933Y-126549103D01*
X137417522Y-126572451D01*
X137389384Y-126615675D01*
X137386769Y-126624160D01*
X137361308Y-126665308D01*
X137329001Y-126685128D01*
X137282286Y-126704770D01*
X137282286Y-126653950D01*
X137296496Y-126580082D01*
X137338675Y-126512327D01*
X137360624Y-126489661D01*
X137410517Y-126460569D01*
X137473967Y-126447400D01*
X137539744Y-126450968D01*
G36*
X138029926Y-126449755D02*
G01*
X138095858Y-126474084D01*
X138149273Y-126517117D01*
X138170164Y-126547409D01*
X138192939Y-126602994D01*
X138192466Y-126643186D01*
X138168562Y-126670217D01*
X138159717Y-126674813D01*
X138121530Y-126689144D01*
X138102028Y-126685472D01*
X138095422Y-126661407D01*
X138095086Y-126648114D01*
X138082992Y-126599210D01*
X138051471Y-126564999D01*
X138007659Y-126548476D01*
X137958695Y-126552634D01*
X137918894Y-126574227D01*
X137905450Y-126586544D01*
X137895921Y-126601487D01*
X137889485Y-126624075D01*
X137885317Y-126659328D01*
X137882597Y-126712266D01*
X137880502Y-126787907D01*
X137879960Y-126811857D01*
X137877981Y-126893790D01*
X137875731Y-126951455D01*
X137872357Y-126989608D01*
X137867006Y-127013004D01*
X137858824Y-127026398D01*
X137846959Y-127034545D01*
X137839362Y-127038144D01*
X137807102Y-127050452D01*
X137788111Y-127054514D01*
X137781836Y-127040948D01*
X137778006Y-126999934D01*
X137776600Y-126930999D01*
X137777598Y-126833669D01*
X137777908Y-126818657D01*
X137780101Y-126729859D01*
X137782693Y-126665019D01*
X137786382Y-126619067D01*
X137791864Y-126586935D01*
X137799835Y-126563553D01*
X137810993Y-126543852D01*
X137816830Y-126535410D01*
X137850296Y-126498057D01*
X137887727Y-126469003D01*
X137892309Y-126466467D01*
X137959426Y-126446443D01*
X138029926Y-126449755D01*
G37*
X138029926Y-126449755D02*
X138095858Y-126474084D01*
X138149273Y-126517117D01*
X138170164Y-126547409D01*
X138192939Y-126602994D01*
X138192466Y-126643186D01*
X138168562Y-126670217D01*
X138159717Y-126674813D01*
X138121530Y-126689144D01*
X138102028Y-126685472D01*
X138095422Y-126661407D01*
X138095086Y-126648114D01*
X138082992Y-126599210D01*
X138051471Y-126564999D01*
X138007659Y-126548476D01*
X137958695Y-126552634D01*
X137918894Y-126574227D01*
X137905450Y-126586544D01*
X137895921Y-126601487D01*
X137889485Y-126624075D01*
X137885317Y-126659328D01*
X137882597Y-126712266D01*
X137880502Y-126787907D01*
X137879960Y-126811857D01*
X137877981Y-126893790D01*
X137875731Y-126951455D01*
X137872357Y-126989608D01*
X137867006Y-127013004D01*
X137858824Y-127026398D01*
X137846959Y-127034545D01*
X137839362Y-127038144D01*
X137807102Y-127050452D01*
X137788111Y-127054514D01*
X137781836Y-127040948D01*
X137778006Y-126999934D01*
X137776600Y-126930999D01*
X137777598Y-126833669D01*
X137777908Y-126818657D01*
X137780101Y-126729859D01*
X137782693Y-126665019D01*
X137786382Y-126619067D01*
X137791864Y-126586935D01*
X137799835Y-126563553D01*
X137810993Y-126543852D01*
X137816830Y-126535410D01*
X137850296Y-126498057D01*
X137887727Y-126469003D01*
X137892309Y-126466467D01*
X137959426Y-126446443D01*
X138029926Y-126449755D01*
G36*
X138690117Y-126565358D02*
G01*
X138689933Y-126673837D01*
X138689219Y-126757287D01*
X138687675Y-126819704D01*
X138685001Y-126865085D01*
X138680894Y-126897429D01*
X138675055Y-126920733D01*
X138667182Y-126938995D01*
X138661221Y-126949418D01*
X138611855Y-127005945D01*
X138549264Y-127041377D01*
X138480013Y-127054090D01*
X138410668Y-127042463D01*
X138369375Y-127021568D01*
X138326025Y-126985422D01*
X138296481Y-126941276D01*
X138278655Y-126883462D01*
X138270463Y-126806313D01*
X138269302Y-126749714D01*
X138269458Y-126745647D01*
X138370857Y-126745647D01*
X138371476Y-126810550D01*
X138374314Y-126853514D01*
X138380840Y-126881622D01*
X138392523Y-126901953D01*
X138406483Y-126917288D01*
X138453365Y-126946890D01*
X138503701Y-126949419D01*
X138551276Y-126924705D01*
X138554979Y-126921356D01*
X138570783Y-126903935D01*
X138580693Y-126883209D01*
X138586058Y-126852362D01*
X138588228Y-126804577D01*
X138588571Y-126751748D01*
X138587827Y-126685381D01*
X138584748Y-126641106D01*
X138578061Y-126612009D01*
X138566496Y-126591173D01*
X138557013Y-126580107D01*
X138512960Y-126552198D01*
X138462224Y-126548843D01*
X138413796Y-126570159D01*
X138404450Y-126578073D01*
X138388540Y-126595647D01*
X138378610Y-126616587D01*
X138373278Y-126647782D01*
X138371163Y-126696122D01*
X138370857Y-126745647D01*
X138269458Y-126745647D01*
X138272810Y-126658568D01*
X138284726Y-126590086D01*
X138307135Y-126538600D01*
X138342124Y-126498443D01*
X138369375Y-126477861D01*
X138418907Y-126455625D01*
X138476316Y-126445304D01*
X138529682Y-126448067D01*
X138559543Y-126459212D01*
X138571261Y-126462383D01*
X138579037Y-126450557D01*
X138584465Y-126418866D01*
X138588571Y-126370593D01*
X138593067Y-126316829D01*
X138599313Y-126284482D01*
X138610676Y-126265985D01*
X138630528Y-126253770D01*
X138643000Y-126248362D01*
X138690171Y-126228601D01*
X138690117Y-126565358D01*
G37*
X138690117Y-126565358D02*
X138689933Y-126673837D01*
X138689219Y-126757287D01*
X138687675Y-126819704D01*
X138685001Y-126865085D01*
X138680894Y-126897429D01*
X138675055Y-126920733D01*
X138667182Y-126938995D01*
X138661221Y-126949418D01*
X138611855Y-127005945D01*
X138549264Y-127041377D01*
X138480013Y-127054090D01*
X138410668Y-127042463D01*
X138369375Y-127021568D01*
X138326025Y-126985422D01*
X138296481Y-126941276D01*
X138278655Y-126883462D01*
X138270463Y-126806313D01*
X138269302Y-126749714D01*
X138269458Y-126745647D01*
X138370857Y-126745647D01*
X138371476Y-126810550D01*
X138374314Y-126853514D01*
X138380840Y-126881622D01*
X138392523Y-126901953D01*
X138406483Y-126917288D01*
X138453365Y-126946890D01*
X138503701Y-126949419D01*
X138551276Y-126924705D01*
X138554979Y-126921356D01*
X138570783Y-126903935D01*
X138580693Y-126883209D01*
X138586058Y-126852362D01*
X138588228Y-126804577D01*
X138588571Y-126751748D01*
X138587827Y-126685381D01*
X138584748Y-126641106D01*
X138578061Y-126612009D01*
X138566496Y-126591173D01*
X138557013Y-126580107D01*
X138512960Y-126552198D01*
X138462224Y-126548843D01*
X138413796Y-126570159D01*
X138404450Y-126578073D01*
X138388540Y-126595647D01*
X138378610Y-126616587D01*
X138373278Y-126647782D01*
X138371163Y-126696122D01*
X138370857Y-126745647D01*
X138269458Y-126745647D01*
X138272810Y-126658568D01*
X138284726Y-126590086D01*
X138307135Y-126538600D01*
X138342124Y-126498443D01*
X138369375Y-126477861D01*
X138418907Y-126455625D01*
X138476316Y-126445304D01*
X138529682Y-126448067D01*
X138559543Y-126459212D01*
X138571261Y-126462383D01*
X138579037Y-126450557D01*
X138584465Y-126418866D01*
X138588571Y-126370593D01*
X138593067Y-126316829D01*
X138599313Y-126284482D01*
X138610676Y-126265985D01*
X138630528Y-126253770D01*
X138643000Y-126248362D01*
X138690171Y-126228601D01*
X138690117Y-126565358D01*
G36*
X139279833Y-126458663D02*
G01*
X139282048Y-126496850D01*
X139283784Y-126554886D01*
X139284899Y-126628180D01*
X139285257Y-126705055D01*
X139285257Y-126965196D01*
X139239326Y-127011127D01*
X139207675Y-127039429D01*
X139179890Y-127050893D01*
X139141915Y-127050168D01*
X139126840Y-127048321D01*
X139079726Y-127042948D01*
X139040756Y-127039869D01*
X139031257Y-127039585D01*
X138999233Y-127041445D01*
X138953432Y-127046114D01*
X138935674Y-127048321D01*
X138892057Y-127051735D01*
X138862745Y-127044320D01*
X138833680Y-127021427D01*
X138823188Y-127011127D01*
X138777257Y-126965196D01*
X138777257Y-126478602D01*
X138814226Y-126461758D01*
X138846059Y-126449282D01*
X138864683Y-126444914D01*
X138869458Y-126458718D01*
X138873921Y-126497286D01*
X138877775Y-126556356D01*
X138880722Y-126631663D01*
X138882143Y-126695286D01*
X138886114Y-126945657D01*
X138920759Y-126950556D01*
X138952268Y-126947131D01*
X138967708Y-126936041D01*
X138972023Y-126915308D01*
X138975708Y-126871145D01*
X138978469Y-126809146D01*
X138980012Y-126734909D01*
X138980235Y-126696706D01*
X138980457Y-126476783D01*
X139026166Y-126460849D01*
X139058518Y-126450015D01*
X139076115Y-126444962D01*
X139076623Y-126444914D01*
X139078388Y-126458648D01*
X139080329Y-126496730D01*
X139082282Y-126554482D01*
X139084084Y-126627227D01*
X139085343Y-126695286D01*
X139089314Y-126945657D01*
X139176400Y-126945657D01*
X139180396Y-126717240D01*
X139184392Y-126488822D01*
X139226847Y-126466868D01*
X139258192Y-126451793D01*
X139276744Y-126444951D01*
X139277279Y-126444914D01*
X139279833Y-126458663D01*
G37*
X139279833Y-126458663D02*
X139282048Y-126496850D01*
X139283784Y-126554886D01*
X139284899Y-126628180D01*
X139285257Y-126705055D01*
X139285257Y-126965196D01*
X139239326Y-127011127D01*
X139207675Y-127039429D01*
X139179890Y-127050893D01*
X139141915Y-127050168D01*
X139126840Y-127048321D01*
X139079726Y-127042948D01*
X139040756Y-127039869D01*
X139031257Y-127039585D01*
X138999233Y-127041445D01*
X138953432Y-127046114D01*
X138935674Y-127048321D01*
X138892057Y-127051735D01*
X138862745Y-127044320D01*
X138833680Y-127021427D01*
X138823188Y-127011127D01*
X138777257Y-126965196D01*
X138777257Y-126478602D01*
X138814226Y-126461758D01*
X138846059Y-126449282D01*
X138864683Y-126444914D01*
X138869458Y-126458718D01*
X138873921Y-126497286D01*
X138877775Y-126556356D01*
X138880722Y-126631663D01*
X138882143Y-126695286D01*
X138886114Y-126945657D01*
X138920759Y-126950556D01*
X138952268Y-126947131D01*
X138967708Y-126936041D01*
X138972023Y-126915308D01*
X138975708Y-126871145D01*
X138978469Y-126809146D01*
X138980012Y-126734909D01*
X138980235Y-126696706D01*
X138980457Y-126476783D01*
X139026166Y-126460849D01*
X139058518Y-126450015D01*
X139076115Y-126444962D01*
X139076623Y-126444914D01*
X139078388Y-126458648D01*
X139080329Y-126496730D01*
X139082282Y-126554482D01*
X139084084Y-126627227D01*
X139085343Y-126695286D01*
X139089314Y-126945657D01*
X139176400Y-126945657D01*
X139180396Y-126717240D01*
X139184392Y-126488822D01*
X139226847Y-126466868D01*
X139258192Y-126451793D01*
X139276744Y-126444951D01*
X139277279Y-126444914D01*
X139279833Y-126458663D01*
G36*
X139644876Y-126456335D02*
G01*
X139686667Y-126475344D01*
X139719469Y-126498378D01*
X139743503Y-126524133D01*
X139760097Y-126557358D01*
X139770577Y-126602800D01*
X139776271Y-126665207D01*
X139778507Y-126749327D01*
X139778743Y-126804721D01*
X139778743Y-127020826D01*
X139741774Y-127037670D01*
X139712656Y-127049981D01*
X139698231Y-127054514D01*
X139695472Y-127041025D01*
X139693282Y-127004653D01*
X139691942Y-126951542D01*
X139691657Y-126909372D01*
X139690434Y-126848447D01*
X139687136Y-126800115D01*
X139682321Y-126770518D01*
X139678496Y-126764229D01*
X139652783Y-126770652D01*
X139612418Y-126787125D01*
X139565679Y-126809458D01*
X139520845Y-126833457D01*
X139486193Y-126854930D01*
X139470002Y-126869685D01*
X139469938Y-126869845D01*
X139471330Y-126897152D01*
X139483818Y-126923219D01*
X139505743Y-126944392D01*
X139537743Y-126951474D01*
X139565092Y-126950649D01*
X139603826Y-126950042D01*
X139624158Y-126959116D01*
X139636369Y-126983092D01*
X139637909Y-126987613D01*
X139643203Y-127021806D01*
X139629047Y-127042568D01*
X139592148Y-127052462D01*
X139552289Y-127054292D01*
X139480562Y-127040727D01*
X139443432Y-127021355D01*
X139397576Y-126975845D01*
X139373256Y-126919983D01*
X139371073Y-126860957D01*
X139391629Y-126805953D01*
X139422549Y-126771486D01*
X139453420Y-126752189D01*
X139501942Y-126727759D01*
X139558485Y-126702985D01*
X139567910Y-126699199D01*
X139630019Y-126671791D01*
X139665822Y-126647634D01*
X139677337Y-126623619D01*
X139666580Y-126596635D01*
X139648114Y-126575543D01*
X139604469Y-126549572D01*
X139556446Y-126547624D01*
X139512406Y-126567637D01*
X139480709Y-126607551D01*
X139476549Y-126617848D01*
X139452327Y-126655724D01*
X139416965Y-126683842D01*
X139372343Y-126706917D01*
X139372343Y-126641485D01*
X139374969Y-126601506D01*
X139386230Y-126569997D01*
X139411199Y-126536378D01*
X139435169Y-126510484D01*
X139472441Y-126473817D01*
X139501401Y-126454121D01*
X139532505Y-126446220D01*
X139567713Y-126444914D01*
X139644876Y-126456335D01*
G37*
X139644876Y-126456335D02*
X139686667Y-126475344D01*
X139719469Y-126498378D01*
X139743503Y-126524133D01*
X139760097Y-126557358D01*
X139770577Y-126602800D01*
X139776271Y-126665207D01*
X139778507Y-126749327D01*
X139778743Y-126804721D01*
X139778743Y-127020826D01*
X139741774Y-127037670D01*
X139712656Y-127049981D01*
X139698231Y-127054514D01*
X139695472Y-127041025D01*
X139693282Y-127004653D01*
X139691942Y-126951542D01*
X139691657Y-126909372D01*
X139690434Y-126848447D01*
X139687136Y-126800115D01*
X139682321Y-126770518D01*
X139678496Y-126764229D01*
X139652783Y-126770652D01*
X139612418Y-126787125D01*
X139565679Y-126809458D01*
X139520845Y-126833457D01*
X139486193Y-126854930D01*
X139470002Y-126869685D01*
X139469938Y-126869845D01*
X139471330Y-126897152D01*
X139483818Y-126923219D01*
X139505743Y-126944392D01*
X139537743Y-126951474D01*
X139565092Y-126950649D01*
X139603826Y-126950042D01*
X139624158Y-126959116D01*
X139636369Y-126983092D01*
X139637909Y-126987613D01*
X139643203Y-127021806D01*
X139629047Y-127042568D01*
X139592148Y-127052462D01*
X139552289Y-127054292D01*
X139480562Y-127040727D01*
X139443432Y-127021355D01*
X139397576Y-126975845D01*
X139373256Y-126919983D01*
X139371073Y-126860957D01*
X139391629Y-126805953D01*
X139422549Y-126771486D01*
X139453420Y-126752189D01*
X139501942Y-126727759D01*
X139558485Y-126702985D01*
X139567910Y-126699199D01*
X139630019Y-126671791D01*
X139665822Y-126647634D01*
X139677337Y-126623619D01*
X139666580Y-126596635D01*
X139648114Y-126575543D01*
X139604469Y-126549572D01*
X139556446Y-126547624D01*
X139512406Y-126567637D01*
X139480709Y-126607551D01*
X139476549Y-126617848D01*
X139452327Y-126655724D01*
X139416965Y-126683842D01*
X139372343Y-126706917D01*
X139372343Y-126641485D01*
X139374969Y-126601506D01*
X139386230Y-126569997D01*
X139411199Y-126536378D01*
X139435169Y-126510484D01*
X139472441Y-126473817D01*
X139501401Y-126454121D01*
X139532505Y-126446220D01*
X139567713Y-126444914D01*
X139644876Y-126456335D01*
G36*
X140152600Y-126458752D02*
G01*
X140169948Y-126466334D01*
X140211356Y-126499128D01*
X140246765Y-126546547D01*
X140268664Y-126597151D01*
X140272229Y-126622098D01*
X140260279Y-126656927D01*
X140234067Y-126675357D01*
X140205964Y-126686516D01*
X140193095Y-126688572D01*
X140186829Y-126673649D01*
X140174456Y-126641175D01*
X140169028Y-126626502D01*
X140138590Y-126575744D01*
X140094520Y-126550427D01*
X140038010Y-126551206D01*
X140033825Y-126552203D01*
X140003655Y-126566507D01*
X139981476Y-126594393D01*
X139966327Y-126639287D01*
X139957250Y-126704615D01*
X139953286Y-126793804D01*
X139952914Y-126841261D01*
X139952730Y-126916071D01*
X139951522Y-126967069D01*
X139948309Y-126999471D01*
X139942109Y-127018495D01*
X139931940Y-127029356D01*
X139916819Y-127037272D01*
X139915946Y-127037670D01*
X139886828Y-127049981D01*
X139872403Y-127054514D01*
X139870186Y-127040809D01*
X139868289Y-127002925D01*
X139866847Y-126945715D01*
X139865998Y-126874027D01*
X139865829Y-126821565D01*
X139866692Y-126720047D01*
X139870070Y-126643032D01*
X139877142Y-126586023D01*
X139889088Y-126544526D01*
X139907090Y-126514043D01*
X139932327Y-126490080D01*
X139957247Y-126473355D01*
X140017171Y-126451097D01*
X140086911Y-126446076D01*
X140152600Y-126458752D01*
G37*
X140152600Y-126458752D02*
X140169948Y-126466334D01*
X140211356Y-126499128D01*
X140246765Y-126546547D01*
X140268664Y-126597151D01*
X140272229Y-126622098D01*
X140260279Y-126656927D01*
X140234067Y-126675357D01*
X140205964Y-126686516D01*
X140193095Y-126688572D01*
X140186829Y-126673649D01*
X140174456Y-126641175D01*
X140169028Y-126626502D01*
X140138590Y-126575744D01*
X140094520Y-126550427D01*
X140038010Y-126551206D01*
X140033825Y-126552203D01*
X140003655Y-126566507D01*
X139981476Y-126594393D01*
X139966327Y-126639287D01*
X139957250Y-126704615D01*
X139953286Y-126793804D01*
X139952914Y-126841261D01*
X139952730Y-126916071D01*
X139951522Y-126967069D01*
X139948309Y-126999471D01*
X139942109Y-127018495D01*
X139931940Y-127029356D01*
X139916819Y-127037272D01*
X139915946Y-127037670D01*
X139886828Y-127049981D01*
X139872403Y-127054514D01*
X139870186Y-127040809D01*
X139868289Y-127002925D01*
X139866847Y-126945715D01*
X139865998Y-126874027D01*
X139865829Y-126821565D01*
X139866692Y-126720047D01*
X139870070Y-126643032D01*
X139877142Y-126586023D01*
X139889088Y-126544526D01*
X139907090Y-126514043D01*
X139932327Y-126490080D01*
X139957247Y-126473355D01*
X140017171Y-126451097D01*
X140086911Y-126446076D01*
X140152600Y-126458752D01*
G36*
X140653595Y-126466966D02*
G01*
X140711021Y-126504497D01*
X140738719Y-126538096D01*
X140760662Y-126599064D01*
X140762405Y-126647308D01*
X140758457Y-126711816D01*
X140609686Y-126776934D01*
X140537349Y-126810202D01*
X140490084Y-126836964D01*
X140465507Y-126860144D01*
X140461237Y-126882667D01*
X140474889Y-126907455D01*
X140489943Y-126923886D01*
X140533746Y-126950235D01*
X140581389Y-126952081D01*
X140625145Y-126931546D01*
X140657289Y-126890752D01*
X140663038Y-126876347D01*
X140690576Y-126831356D01*
X140722258Y-126812182D01*
X140765714Y-126795779D01*
X140765714Y-126857966D01*
X140761872Y-126900283D01*
X140746823Y-126935969D01*
X140715280Y-126976943D01*
X140710592Y-126982267D01*
X140675506Y-127018720D01*
X140645347Y-127038283D01*
X140607615Y-127047283D01*
X140576335Y-127050230D01*
X140520385Y-127050965D01*
X140480555Y-127041660D01*
X140455708Y-127027846D01*
X140416656Y-126997467D01*
X140389625Y-126964613D01*
X140372517Y-126923294D01*
X140363238Y-126867521D01*
X140359693Y-126791305D01*
X140359410Y-126752622D01*
X140360372Y-126706247D01*
X140448007Y-126706247D01*
X140449023Y-126731126D01*
X140451556Y-126735200D01*
X140468274Y-126729665D01*
X140504249Y-126715017D01*
X140552331Y-126694190D01*
X140562386Y-126689714D01*
X140623152Y-126658814D01*
X140656632Y-126631657D01*
X140663990Y-126606220D01*
X140646391Y-126580481D01*
X140631856Y-126569109D01*
X140579410Y-126546364D01*
X140530322Y-126550122D01*
X140489227Y-126577884D01*
X140460758Y-126627152D01*
X140451631Y-126666257D01*
X140448007Y-126706247D01*
X140360372Y-126706247D01*
X140361285Y-126662249D01*
X140368196Y-126595384D01*
X140381884Y-126546695D01*
X140404096Y-126510849D01*
X140436574Y-126482513D01*
X140450733Y-126473355D01*
X140515053Y-126449507D01*
X140585473Y-126448006D01*
X140653595Y-126466966D01*
G37*
X140653595Y-126466966D02*
X140711021Y-126504497D01*
X140738719Y-126538096D01*
X140760662Y-126599064D01*
X140762405Y-126647308D01*
X140758457Y-126711816D01*
X140609686Y-126776934D01*
X140537349Y-126810202D01*
X140490084Y-126836964D01*
X140465507Y-126860144D01*
X140461237Y-126882667D01*
X140474889Y-126907455D01*
X140489943Y-126923886D01*
X140533746Y-126950235D01*
X140581389Y-126952081D01*
X140625145Y-126931546D01*
X140657289Y-126890752D01*
X140663038Y-126876347D01*
X140690576Y-126831356D01*
X140722258Y-126812182D01*
X140765714Y-126795779D01*
X140765714Y-126857966D01*
X140761872Y-126900283D01*
X140746823Y-126935969D01*
X140715280Y-126976943D01*
X140710592Y-126982267D01*
X140675506Y-127018720D01*
X140645347Y-127038283D01*
X140607615Y-127047283D01*
X140576335Y-127050230D01*
X140520385Y-127050965D01*
X140480555Y-127041660D01*
X140455708Y-127027846D01*
X140416656Y-126997467D01*
X140389625Y-126964613D01*
X140372517Y-126923294D01*
X140363238Y-126867521D01*
X140359693Y-126791305D01*
X140359410Y-126752622D01*
X140360372Y-126706247D01*
X140448007Y-126706247D01*
X140449023Y-126731126D01*
X140451556Y-126735200D01*
X140468274Y-126729665D01*
X140504249Y-126715017D01*
X140552331Y-126694190D01*
X140562386Y-126689714D01*
X140623152Y-126658814D01*
X140656632Y-126631657D01*
X140663990Y-126606220D01*
X140646391Y-126580481D01*
X140631856Y-126569109D01*
X140579410Y-126546364D01*
X140530322Y-126550122D01*
X140489227Y-126577884D01*
X140460758Y-126627152D01*
X140451631Y-126666257D01*
X140448007Y-126706247D01*
X140360372Y-126706247D01*
X140361285Y-126662249D01*
X140368196Y-126595384D01*
X140381884Y-126546695D01*
X140404096Y-126510849D01*
X140436574Y-126482513D01*
X140450733Y-126473355D01*
X140515053Y-126449507D01*
X140585473Y-126448006D01*
X140653595Y-126466966D01*
G36*
X137603910Y-121742348D02*
G01*
X137682454Y-121742778D01*
X137739298Y-121743942D01*
X137778105Y-121746207D01*
X137802538Y-121749940D01*
X137816262Y-121755506D01*
X137822940Y-121763273D01*
X137826236Y-121773605D01*
X137826556Y-121774943D01*
X137831562Y-121799079D01*
X137840829Y-121846701D01*
X137853392Y-121912741D01*
X137868287Y-121992128D01*
X137884551Y-122079796D01*
X137885119Y-122082875D01*
X137901410Y-122168789D01*
X137916652Y-122244696D01*
X137929861Y-122306045D01*
X137940054Y-122348282D01*
X137946248Y-122366855D01*
X137946543Y-122367184D01*
X137964788Y-122376253D01*
X138002405Y-122391367D01*
X138051271Y-122409262D01*
X138051543Y-122409358D01*
X138113093Y-122432493D01*
X138185657Y-122461965D01*
X138254057Y-122491597D01*
X138257294Y-122493062D01*
X138368702Y-122543626D01*
X138615399Y-122375160D01*
X138691077Y-122323803D01*
X138759631Y-122277889D01*
X138817088Y-122240030D01*
X138859476Y-122212837D01*
X138882825Y-122198921D01*
X138885042Y-122197889D01*
X138902010Y-122202484D01*
X138933701Y-122224655D01*
X138981352Y-122265447D01*
X139046198Y-122325905D01*
X139112397Y-122390227D01*
X139176214Y-122453612D01*
X139233329Y-122511451D01*
X139280305Y-122560175D01*
X139313703Y-122596210D01*
X139330085Y-122615984D01*
X139330694Y-122617002D01*
X139332505Y-122630572D01*
X139325683Y-122652733D01*
X139308540Y-122686478D01*
X139279393Y-122734800D01*
X139236555Y-122800692D01*
X139179448Y-122885517D01*
X139128766Y-122960177D01*
X139083461Y-123027140D01*
X139046150Y-123082516D01*
X139019452Y-123122420D01*
X139005985Y-123142962D01*
X139005137Y-123144356D01*
X139006781Y-123164038D01*
X139019245Y-123202293D01*
X139040048Y-123251889D01*
X139047462Y-123267728D01*
X139079814Y-123338290D01*
X139114328Y-123418353D01*
X139142365Y-123487629D01*
X139162568Y-123539045D01*
X139178615Y-123578119D01*
X139187888Y-123598541D01*
X139189041Y-123600114D01*
X139206096Y-123602721D01*
X139246298Y-123609863D01*
X139304302Y-123620523D01*
X139374763Y-123633685D01*
X139452335Y-123648333D01*
X139531672Y-123663449D01*
X139607431Y-123678018D01*
X139674264Y-123691022D01*
X139726828Y-123701445D01*
X139759776Y-123708270D01*
X139767857Y-123710199D01*
X139776205Y-123714962D01*
X139782506Y-123725718D01*
X139787045Y-123746098D01*
X139790104Y-123779734D01*
X139791967Y-123830255D01*
X139792918Y-123901292D01*
X139793240Y-123996476D01*
X139793257Y-124035492D01*
X139793257Y-124352799D01*
X139717057Y-124367839D01*
X139674663Y-124375995D01*
X139611400Y-124387899D01*
X139534962Y-124402116D01*
X139453043Y-124417210D01*
X139430400Y-124421355D01*
X139354806Y-124436053D01*
X139288953Y-124450505D01*
X139238366Y-124463375D01*
X139208574Y-124473322D01*
X139203612Y-124476287D01*
X139191426Y-124497283D01*
X139173953Y-124537967D01*
X139154577Y-124590322D01*
X139150734Y-124601600D01*
X139125339Y-124671523D01*
X139093817Y-124750418D01*
X139062969Y-124821266D01*
X139062817Y-124821595D01*
X139011447Y-124932733D01*
X139180399Y-125181253D01*
X139349352Y-125429772D01*
X139132429Y-125647058D01*
X139066819Y-125711726D01*
X139006979Y-125768733D01*
X138956267Y-125815033D01*
X138918046Y-125847584D01*
X138895675Y-125863343D01*
X138892466Y-125864343D01*
X138873626Y-125856469D01*
X138835180Y-125834578D01*
X138781330Y-125801267D01*
X138716276Y-125759131D01*
X138645940Y-125711943D01*
X138574555Y-125663810D01*
X138510908Y-125621928D01*
X138459041Y-125588871D01*
X138422995Y-125567218D01*
X138406867Y-125559543D01*
X138387189Y-125566037D01*
X138349875Y-125583150D01*
X138302621Y-125607326D01*
X138297612Y-125610013D01*
X138233977Y-125641927D01*
X138190341Y-125657579D01*
X138163202Y-125657745D01*
X138149057Y-125643204D01*
X138148975Y-125643000D01*
X138141905Y-125625779D01*
X138125042Y-125584899D01*
X138099695Y-125523525D01*
X138067171Y-125444819D01*
X138028778Y-125351947D01*
X137985822Y-125248072D01*
X137944222Y-125147502D01*
X137898504Y-125036516D01*
X137856526Y-124933703D01*
X137819548Y-124842215D01*
X137788827Y-124765201D01*
X137765622Y-124705815D01*
X137751190Y-124667209D01*
X137746743Y-124652800D01*
X137757896Y-124636272D01*
X137787069Y-124609930D01*
X137825971Y-124580887D01*
X137936757Y-124489039D01*
X138023351Y-124383759D01*
X138084716Y-124267266D01*
X138119815Y-124141776D01*
X138127608Y-124009507D01*
X138121943Y-123948457D01*
X138091078Y-123821795D01*
X138037920Y-123709941D01*
X137965767Y-123614001D01*
X137877917Y-123535076D01*
X137777665Y-123474270D01*
X137668310Y-123432687D01*
X137553147Y-123411428D01*
X137435475Y-123411599D01*
X137318590Y-123434301D01*
X137205789Y-123480638D01*
X137100369Y-123551713D01*
X137056368Y-123591911D01*
X136971979Y-123695129D01*
X136913222Y-123807925D01*
X136879704Y-123927010D01*
X136871035Y-124049095D01*
X136886823Y-124170893D01*
X136926678Y-124289116D01*
X136990207Y-124400475D01*
X137077021Y-124501684D01*
X137174029Y-124580887D01*
X137214437Y-124611162D01*
X137242982Y-124637219D01*
X137253257Y-124652825D01*
X137247877Y-124669843D01*
X137232575Y-124710500D01*
X137208612Y-124771642D01*
X137177244Y-124850119D01*
X137139732Y-124942780D01*
X137097333Y-125046472D01*
X137055663Y-125147526D01*
X137009690Y-125258607D01*
X136967107Y-125361541D01*
X136929221Y-125453165D01*
X136897340Y-125530316D01*
X136872771Y-125589831D01*
X136856820Y-125628544D01*
X136850910Y-125643000D01*
X136836948Y-125657685D01*
X136809940Y-125657642D01*
X136766413Y-125642099D01*
X136702890Y-125610284D01*
X136702388Y-125610013D01*
X136654560Y-125585323D01*
X136615897Y-125567338D01*
X136594095Y-125559614D01*
X136593133Y-125559543D01*
X136576721Y-125567378D01*
X136540487Y-125589165D01*
X136488474Y-125622328D01*
X136424725Y-125664291D01*
X136354060Y-125711943D01*
X136282116Y-125760191D01*
X136217274Y-125802151D01*
X136163735Y-125835227D01*
X136125697Y-125856821D01*
X136107533Y-125864343D01*
X136090808Y-125854457D01*
X136057180Y-125826826D01*
X136010010Y-125784495D01*
X135952658Y-125730505D01*
X135888484Y-125667899D01*
X135867497Y-125646983D01*
X135650499Y-125429623D01*
X135815668Y-125187220D01*
X135865864Y-125112781D01*
X135909919Y-125045972D01*
X135945362Y-124990665D01*
X135969719Y-124950729D01*
X135980522Y-124930036D01*
X135980838Y-124928563D01*
X135975143Y-124909058D01*
X135959826Y-124869822D01*
X135937537Y-124817430D01*
X135921893Y-124782355D01*
X135892641Y-124715201D01*
X135865094Y-124647358D01*
X135843737Y-124590034D01*
X135837935Y-124572572D01*
X135821452Y-124525938D01*
X135805340Y-124489905D01*
X135796490Y-124476287D01*
X135776960Y-124467952D01*
X135734334Y-124456137D01*
X135674145Y-124442181D01*
X135601922Y-124427422D01*
X135569600Y-124421355D01*
X135487522Y-124406273D01*
X135408795Y-124391669D01*
X135341109Y-124378980D01*
X135292160Y-124369642D01*
X135282943Y-124367839D01*
X135206743Y-124352799D01*
X135206743Y-124035492D01*
X135206914Y-123931154D01*
X135207616Y-123852213D01*
X135209134Y-123795038D01*
X135211749Y-123755999D01*
X135215746Y-123731465D01*
X135221409Y-123717805D01*
X135229020Y-123711389D01*
X135232143Y-123710199D01*
X135250978Y-123705980D01*
X135292588Y-123697562D01*
X135351630Y-123685961D01*
X135422757Y-123672195D01*
X135500625Y-123657280D01*
X135579887Y-123642232D01*
X135655198Y-123628069D01*
X135721213Y-123615806D01*
X135772587Y-123606461D01*
X135803975Y-123601050D01*
X135810959Y-123600114D01*
X135817285Y-123587596D01*
X135831290Y-123554246D01*
X135850355Y-123506377D01*
X135857634Y-123487629D01*
X135886996Y-123415195D01*
X135921571Y-123335170D01*
X135952537Y-123267728D01*
X135975323Y-123216159D01*
X135990482Y-123173785D01*
X135995542Y-123147834D01*
X135994736Y-123144356D01*
X135984041Y-123127936D01*
X135959620Y-123091417D01*
X135924095Y-123038687D01*
X135880087Y-122973635D01*
X135830217Y-122900151D01*
X135820356Y-122885645D01*
X135762492Y-122799704D01*
X135719956Y-122734261D01*
X135691054Y-122686304D01*
X135674090Y-122652820D01*
X135667367Y-122630795D01*
X135669190Y-122617217D01*
X135669236Y-122617131D01*
X135683586Y-122599297D01*
X135715323Y-122564817D01*
X135761010Y-122517268D01*
X135817204Y-122460222D01*
X135880468Y-122397255D01*
X135887602Y-122390227D01*
X135967330Y-122313020D01*
X136028857Y-122256330D01*
X136073421Y-122219110D01*
X136102257Y-122200315D01*
X136114958Y-122197889D01*
X136133494Y-122208471D01*
X136171961Y-122232916D01*
X136226386Y-122268612D01*
X136292798Y-122312947D01*
X136367225Y-122363311D01*
X136384601Y-122375160D01*
X136631297Y-122543626D01*
X136742706Y-122493062D01*
X136810457Y-122463595D01*
X136883183Y-122433959D01*
X136945703Y-122410330D01*
X136948457Y-122409358D01*
X136997360Y-122391457D01*
X137035057Y-122376320D01*
X137053425Y-122367210D01*
X137053456Y-122367184D01*
X137059285Y-122350717D01*
X137069192Y-122310219D01*
X137082195Y-122250242D01*
X137097309Y-122175340D01*
X137113552Y-122090064D01*
X137114881Y-122082875D01*
X137131175Y-121995014D01*
X137146133Y-121915260D01*
X137158791Y-121848681D01*
X137168186Y-121800347D01*
X137173354Y-121775325D01*
X137173444Y-121774943D01*
X137176589Y-121764299D01*
X137182704Y-121756262D01*
X137195453Y-121750467D01*
X137218500Y-121746547D01*
X137255509Y-121744135D01*
X137310144Y-121742865D01*
X137386067Y-121742371D01*
X137486944Y-121742286D01*
X137500000Y-121742286D01*
X137603910Y-121742348D01*
G37*
X137603910Y-121742348D02*
X137682454Y-121742778D01*
X137739298Y-121743942D01*
X137778105Y-121746207D01*
X137802538Y-121749940D01*
X137816262Y-121755506D01*
X137822940Y-121763273D01*
X137826236Y-121773605D01*
X137826556Y-121774943D01*
X137831562Y-121799079D01*
X137840829Y-121846701D01*
X137853392Y-121912741D01*
X137868287Y-121992128D01*
X137884551Y-122079796D01*
X137885119Y-122082875D01*
X137901410Y-122168789D01*
X137916652Y-122244696D01*
X137929861Y-122306045D01*
X137940054Y-122348282D01*
X137946248Y-122366855D01*
X137946543Y-122367184D01*
X137964788Y-122376253D01*
X138002405Y-122391367D01*
X138051271Y-122409262D01*
X138051543Y-122409358D01*
X138113093Y-122432493D01*
X138185657Y-122461965D01*
X138254057Y-122491597D01*
X138257294Y-122493062D01*
X138368702Y-122543626D01*
X138615399Y-122375160D01*
X138691077Y-122323803D01*
X138759631Y-122277889D01*
X138817088Y-122240030D01*
X138859476Y-122212837D01*
X138882825Y-122198921D01*
X138885042Y-122197889D01*
X138902010Y-122202484D01*
X138933701Y-122224655D01*
X138981352Y-122265447D01*
X139046198Y-122325905D01*
X139112397Y-122390227D01*
X139176214Y-122453612D01*
X139233329Y-122511451D01*
X139280305Y-122560175D01*
X139313703Y-122596210D01*
X139330085Y-122615984D01*
X139330694Y-122617002D01*
X139332505Y-122630572D01*
X139325683Y-122652733D01*
X139308540Y-122686478D01*
X139279393Y-122734800D01*
X139236555Y-122800692D01*
X139179448Y-122885517D01*
X139128766Y-122960177D01*
X139083461Y-123027140D01*
X139046150Y-123082516D01*
X139019452Y-123122420D01*
X139005985Y-123142962D01*
X139005137Y-123144356D01*
X139006781Y-123164038D01*
X139019245Y-123202293D01*
X139040048Y-123251889D01*
X139047462Y-123267728D01*
X139079814Y-123338290D01*
X139114328Y-123418353D01*
X139142365Y-123487629D01*
X139162568Y-123539045D01*
X139178615Y-123578119D01*
X139187888Y-123598541D01*
X139189041Y-123600114D01*
X139206096Y-123602721D01*
X139246298Y-123609863D01*
X139304302Y-123620523D01*
X139374763Y-123633685D01*
X139452335Y-123648333D01*
X139531672Y-123663449D01*
X139607431Y-123678018D01*
X139674264Y-123691022D01*
X139726828Y-123701445D01*
X139759776Y-123708270D01*
X139767857Y-123710199D01*
X139776205Y-123714962D01*
X139782506Y-123725718D01*
X139787045Y-123746098D01*
X139790104Y-123779734D01*
X139791967Y-123830255D01*
X139792918Y-123901292D01*
X139793240Y-123996476D01*
X139793257Y-124035492D01*
X139793257Y-124352799D01*
X139717057Y-124367839D01*
X139674663Y-124375995D01*
X139611400Y-124387899D01*
X139534962Y-124402116D01*
X139453043Y-124417210D01*
X139430400Y-124421355D01*
X139354806Y-124436053D01*
X139288953Y-124450505D01*
X139238366Y-124463375D01*
X139208574Y-124473322D01*
X139203612Y-124476287D01*
X139191426Y-124497283D01*
X139173953Y-124537967D01*
X139154577Y-124590322D01*
X139150734Y-124601600D01*
X139125339Y-124671523D01*
X139093817Y-124750418D01*
X139062969Y-124821266D01*
X139062817Y-124821595D01*
X139011447Y-124932733D01*
X139180399Y-125181253D01*
X139349352Y-125429772D01*
X139132429Y-125647058D01*
X139066819Y-125711726D01*
X139006979Y-125768733D01*
X138956267Y-125815033D01*
X138918046Y-125847584D01*
X138895675Y-125863343D01*
X138892466Y-125864343D01*
X138873626Y-125856469D01*
X138835180Y-125834578D01*
X138781330Y-125801267D01*
X138716276Y-125759131D01*
X138645940Y-125711943D01*
X138574555Y-125663810D01*
X138510908Y-125621928D01*
X138459041Y-125588871D01*
X138422995Y-125567218D01*
X138406867Y-125559543D01*
X138387189Y-125566037D01*
X138349875Y-125583150D01*
X138302621Y-125607326D01*
X138297612Y-125610013D01*
X138233977Y-125641927D01*
X138190341Y-125657579D01*
X138163202Y-125657745D01*
X138149057Y-125643204D01*
X138148975Y-125643000D01*
X138141905Y-125625779D01*
X138125042Y-125584899D01*
X138099695Y-125523525D01*
X138067171Y-125444819D01*
X138028778Y-125351947D01*
X137985822Y-125248072D01*
X137944222Y-125147502D01*
X137898504Y-125036516D01*
X137856526Y-124933703D01*
X137819548Y-124842215D01*
X137788827Y-124765201D01*
X137765622Y-124705815D01*
X137751190Y-124667209D01*
X137746743Y-124652800D01*
X137757896Y-124636272D01*
X137787069Y-124609930D01*
X137825971Y-124580887D01*
X137936757Y-124489039D01*
X138023351Y-124383759D01*
X138084716Y-124267266D01*
X138119815Y-124141776D01*
X138127608Y-124009507D01*
X138121943Y-123948457D01*
X138091078Y-123821795D01*
X138037920Y-123709941D01*
X137965767Y-123614001D01*
X137877917Y-123535076D01*
X137777665Y-123474270D01*
X137668310Y-123432687D01*
X137553147Y-123411428D01*
X137435475Y-123411599D01*
X137318590Y-123434301D01*
X137205789Y-123480638D01*
X137100369Y-123551713D01*
X137056368Y-123591911D01*
X136971979Y-123695129D01*
X136913222Y-123807925D01*
X136879704Y-123927010D01*
X136871035Y-124049095D01*
X136886823Y-124170893D01*
X136926678Y-124289116D01*
X136990207Y-124400475D01*
X137077021Y-124501684D01*
X137174029Y-124580887D01*
X137214437Y-124611162D01*
X137242982Y-124637219D01*
X137253257Y-124652825D01*
X137247877Y-124669843D01*
X137232575Y-124710500D01*
X137208612Y-124771642D01*
X137177244Y-124850119D01*
X137139732Y-124942780D01*
X137097333Y-125046472D01*
X137055663Y-125147526D01*
X137009690Y-125258607D01*
X136967107Y-125361541D01*
X136929221Y-125453165D01*
X136897340Y-125530316D01*
X136872771Y-125589831D01*
X136856820Y-125628544D01*
X136850910Y-125643000D01*
X136836948Y-125657685D01*
X136809940Y-125657642D01*
X136766413Y-125642099D01*
X136702890Y-125610284D01*
X136702388Y-125610013D01*
X136654560Y-125585323D01*
X136615897Y-125567338D01*
X136594095Y-125559614D01*
X136593133Y-125559543D01*
X136576721Y-125567378D01*
X136540487Y-125589165D01*
X136488474Y-125622328D01*
X136424725Y-125664291D01*
X136354060Y-125711943D01*
X136282116Y-125760191D01*
X136217274Y-125802151D01*
X136163735Y-125835227D01*
X136125697Y-125856821D01*
X136107533Y-125864343D01*
X136090808Y-125854457D01*
X136057180Y-125826826D01*
X136010010Y-125784495D01*
X135952658Y-125730505D01*
X135888484Y-125667899D01*
X135867497Y-125646983D01*
X135650499Y-125429623D01*
X135815668Y-125187220D01*
X135865864Y-125112781D01*
X135909919Y-125045972D01*
X135945362Y-124990665D01*
X135969719Y-124950729D01*
X135980522Y-124930036D01*
X135980838Y-124928563D01*
X135975143Y-124909058D01*
X135959826Y-124869822D01*
X135937537Y-124817430D01*
X135921893Y-124782355D01*
X135892641Y-124715201D01*
X135865094Y-124647358D01*
X135843737Y-124590034D01*
X135837935Y-124572572D01*
X135821452Y-124525938D01*
X135805340Y-124489905D01*
X135796490Y-124476287D01*
X135776960Y-124467952D01*
X135734334Y-124456137D01*
X135674145Y-124442181D01*
X135601922Y-124427422D01*
X135569600Y-124421355D01*
X135487522Y-124406273D01*
X135408795Y-124391669D01*
X135341109Y-124378980D01*
X135292160Y-124369642D01*
X135282943Y-124367839D01*
X135206743Y-124352799D01*
X135206743Y-124035492D01*
X135206914Y-123931154D01*
X135207616Y-123852213D01*
X135209134Y-123795038D01*
X135211749Y-123755999D01*
X135215746Y-123731465D01*
X135221409Y-123717805D01*
X135229020Y-123711389D01*
X135232143Y-123710199D01*
X135250978Y-123705980D01*
X135292588Y-123697562D01*
X135351630Y-123685961D01*
X135422757Y-123672195D01*
X135500625Y-123657280D01*
X135579887Y-123642232D01*
X135655198Y-123628069D01*
X135721213Y-123615806D01*
X135772587Y-123606461D01*
X135803975Y-123601050D01*
X135810959Y-123600114D01*
X135817285Y-123587596D01*
X135831290Y-123554246D01*
X135850355Y-123506377D01*
X135857634Y-123487629D01*
X135886996Y-123415195D01*
X135921571Y-123335170D01*
X135952537Y-123267728D01*
X135975323Y-123216159D01*
X135990482Y-123173785D01*
X135995542Y-123147834D01*
X135994736Y-123144356D01*
X135984041Y-123127936D01*
X135959620Y-123091417D01*
X135924095Y-123038687D01*
X135880087Y-122973635D01*
X135830217Y-122900151D01*
X135820356Y-122885645D01*
X135762492Y-122799704D01*
X135719956Y-122734261D01*
X135691054Y-122686304D01*
X135674090Y-122652820D01*
X135667367Y-122630795D01*
X135669190Y-122617217D01*
X135669236Y-122617131D01*
X135683586Y-122599297D01*
X135715323Y-122564817D01*
X135761010Y-122517268D01*
X135817204Y-122460222D01*
X135880468Y-122397255D01*
X135887602Y-122390227D01*
X135967330Y-122313020D01*
X136028857Y-122256330D01*
X136073421Y-122219110D01*
X136102257Y-122200315D01*
X136114958Y-122197889D01*
X136133494Y-122208471D01*
X136171961Y-122232916D01*
X136226386Y-122268612D01*
X136292798Y-122312947D01*
X136367225Y-122363311D01*
X136384601Y-122375160D01*
X136631297Y-122543626D01*
X136742706Y-122493062D01*
X136810457Y-122463595D01*
X136883183Y-122433959D01*
X136945703Y-122410330D01*
X136948457Y-122409358D01*
X136997360Y-122391457D01*
X137035057Y-122376320D01*
X137053425Y-122367210D01*
X137053456Y-122367184D01*
X137059285Y-122350717D01*
X137069192Y-122310219D01*
X137082195Y-122250242D01*
X137097309Y-122175340D01*
X137113552Y-122090064D01*
X137114881Y-122082875D01*
X137131175Y-121995014D01*
X137146133Y-121915260D01*
X137158791Y-121848681D01*
X137168186Y-121800347D01*
X137173354Y-121775325D01*
X137173444Y-121774943D01*
X137176589Y-121764299D01*
X137182704Y-121756262D01*
X137195453Y-121750467D01*
X137218500Y-121746547D01*
X137255509Y-121744135D01*
X137310144Y-121742865D01*
X137386067Y-121742371D01*
X137486944Y-121742286D01*
X137500000Y-121742286D01*
X137603910Y-121742348D01*
%TO.C,G\u002A\u002A\u002A*%
G36*
X124432060Y-106379834D02*
G01*
X124503454Y-106426858D01*
X124559921Y-106491524D01*
X124581032Y-106535144D01*
X124593865Y-106626309D01*
X124576740Y-106714299D01*
X124533201Y-106784669D01*
X124516099Y-106799749D01*
X124467688Y-106836265D01*
X124578221Y-107069924D01*
X124727108Y-107429169D01*
X124840543Y-107803574D01*
X124919134Y-108196055D01*
X124963486Y-108609530D01*
X124974727Y-108975750D01*
X124968472Y-109245232D01*
X124949635Y-109483849D01*
X124916866Y-109701552D01*
X124868816Y-109908292D01*
X124831162Y-110034083D01*
X124775341Y-110184475D01*
X124699413Y-110356827D01*
X124609091Y-110539552D01*
X124510088Y-110721064D01*
X124413237Y-110881758D01*
X124359088Y-110966836D01*
X124312770Y-111039710D01*
X124279318Y-111092450D01*
X124263962Y-111116812D01*
X124272922Y-111139169D01*
X124309987Y-111176140D01*
X124366541Y-111219365D01*
X124485566Y-111313548D01*
X124606030Y-111430212D01*
X124717919Y-111558071D01*
X124811218Y-111685843D01*
X124867333Y-111783677D01*
X124930675Y-111930066D01*
X124969793Y-112063491D01*
X124988936Y-112202319D01*
X124992733Y-112325954D01*
X124972824Y-112537523D01*
X124916179Y-112742600D01*
X124825976Y-112931462D01*
X124765043Y-113022471D01*
X124714487Y-113089858D01*
X124826412Y-113238638D01*
X124892467Y-113332776D01*
X124962790Y-113442954D01*
X125023329Y-113547048D01*
X125029151Y-113557858D01*
X125119966Y-113728299D01*
X125326967Y-113309941D01*
X125529528Y-112915770D01*
X125728446Y-112560195D01*
X125925968Y-112239887D01*
X126124338Y-111951521D01*
X126325804Y-111691769D01*
X126532610Y-111457304D01*
X126674857Y-111313109D01*
X126903075Y-111109420D01*
X127125367Y-110947096D01*
X127343460Y-110825866D01*
X127559079Y-110745457D01*
X127773949Y-110705599D01*
X127989797Y-110706021D01*
X128208347Y-110746450D01*
X128431327Y-110826617D01*
X128660460Y-110946248D01*
X128730698Y-110989818D01*
X128936418Y-111140702D01*
X129116170Y-111310542D01*
X129268532Y-111495457D01*
X129392083Y-111691564D01*
X129485402Y-111894981D01*
X129547067Y-112101827D01*
X129575656Y-112308219D01*
X129569748Y-112510275D01*
X129527923Y-112704113D01*
X129448757Y-112885851D01*
X129434124Y-112910919D01*
X129357603Y-113018581D01*
X129252706Y-113138779D01*
X129127797Y-113263021D01*
X128991244Y-113382818D01*
X128894917Y-113458215D01*
X128822702Y-113511959D01*
X128764297Y-113555673D01*
X128727332Y-113583632D01*
X128718421Y-113590641D01*
X128729233Y-113607326D01*
X128764195Y-113646410D01*
X128816941Y-113700953D01*
X128847433Y-113731301D01*
X128972834Y-113880810D01*
X129080172Y-114061202D01*
X129166057Y-114263650D01*
X129227097Y-114479327D01*
X129259905Y-114699408D01*
X129264688Y-114817750D01*
X129248239Y-115032891D01*
X129200975Y-115235938D01*
X129125624Y-115421822D01*
X129024914Y-115585474D01*
X128901570Y-115721825D01*
X128758322Y-115825807D01*
X128708485Y-115851528D01*
X128516660Y-115920705D01*
X128292588Y-115964272D01*
X128037604Y-115982400D01*
X127753038Y-115975259D01*
X127440224Y-115943020D01*
X127100495Y-115885852D01*
X126735182Y-115803926D01*
X126345619Y-115697412D01*
X125933137Y-115566481D01*
X125622883Y-115457251D01*
X125420015Y-115383034D01*
X125375755Y-115650725D01*
X125297222Y-116007814D01*
X125183067Y-116342569D01*
X125032506Y-116656704D01*
X124844757Y-116951936D01*
X124692639Y-117146083D01*
X124493841Y-117353344D01*
X124272072Y-117535735D01*
X124033674Y-117689397D01*
X123784987Y-117810473D01*
X123532353Y-117895104D01*
X123420807Y-117919945D01*
X123347502Y-117933874D01*
X123290081Y-117945194D01*
X123263110Y-117950967D01*
X123248762Y-117972443D01*
X123226571Y-118026577D01*
X123199600Y-118105121D01*
X123171723Y-118196995D01*
X123140816Y-118305002D01*
X123110690Y-118410264D01*
X123085251Y-118499136D01*
X123071153Y-118548375D01*
X123046986Y-118617709D01*
X123022473Y-118652170D01*
X123000000Y-118659500D01*
X122971972Y-118647317D01*
X122947927Y-118605941D01*
X122928847Y-118548375D01*
X122909790Y-118481812D01*
X122882993Y-118388194D01*
X122852363Y-118281167D01*
X122828276Y-118196995D01*
X122799596Y-118102632D01*
X122772719Y-118024667D01*
X122750708Y-117971345D01*
X122736890Y-117950967D01*
X122705464Y-117944293D01*
X122645929Y-117932606D01*
X122579193Y-117919945D01*
X122326825Y-117852692D01*
X122075598Y-117747282D01*
X121831846Y-117607569D01*
X121601908Y-117437410D01*
X121392120Y-117240661D01*
X121307340Y-117146083D01*
X121095112Y-116863937D01*
X120918695Y-116560034D01*
X120777847Y-116233807D01*
X120764091Y-116188292D01*
X120862361Y-116188292D01*
X120872183Y-116222941D01*
X120898668Y-116286383D01*
X120937732Y-116370509D01*
X120985289Y-116467211D01*
X121037255Y-116568382D01*
X121089546Y-116665912D01*
X121138077Y-116751694D01*
X121178762Y-116817620D01*
X121181360Y-116821504D01*
X121242606Y-116908136D01*
X121311734Y-116999664D01*
X121365851Y-117066708D01*
X121459976Y-117177833D01*
X124541893Y-117177833D01*
X124636143Y-117066708D01*
X124720456Y-116959026D01*
X124808588Y-116832138D01*
X124895462Y-116694797D01*
X124976001Y-116555756D01*
X125045126Y-116423769D01*
X125097761Y-116307588D01*
X125128208Y-116218466D01*
X125142422Y-116161833D01*
X123002294Y-116161833D01*
X122641320Y-116161929D01*
X122320622Y-116162235D01*
X122038145Y-116162776D01*
X121791834Y-116163578D01*
X121579632Y-116164665D01*
X121399483Y-116166063D01*
X121249332Y-116167799D01*
X121127122Y-116169896D01*
X121030797Y-116172381D01*
X120958303Y-116175279D01*
X120907582Y-116178615D01*
X120876579Y-116182415D01*
X120863239Y-116186704D01*
X120862361Y-116188292D01*
X120764091Y-116188292D01*
X120672327Y-115884690D01*
X120601892Y-115512117D01*
X120597668Y-115480520D01*
X120584800Y-115381291D01*
X120379525Y-115456950D01*
X120011915Y-115585552D01*
X119652776Y-115697673D01*
X119305834Y-115792564D01*
X118974816Y-115869479D01*
X118663447Y-115927671D01*
X118375455Y-115966392D01*
X118114565Y-115984896D01*
X117884504Y-115982437D01*
X117796425Y-115974797D01*
X117569502Y-115938669D01*
X117377883Y-115884561D01*
X117217478Y-115809990D01*
X117084194Y-115712474D01*
X116973942Y-115589530D01*
X116882630Y-115438674D01*
X116869799Y-115412400D01*
X116792892Y-115215391D01*
X116750273Y-115015534D01*
X116745628Y-114921532D01*
X116844814Y-114921532D01*
X116860073Y-115073867D01*
X116894424Y-115215082D01*
X116950397Y-115359586D01*
X116956667Y-115373431D01*
X117030172Y-115496516D01*
X117130521Y-115612573D01*
X117245679Y-115709416D01*
X117345519Y-115767209D01*
X117512118Y-115824533D01*
X117710874Y-115862871D01*
X117935886Y-115881771D01*
X118181251Y-115880783D01*
X118441067Y-115859454D01*
X118482707Y-115854238D01*
X118871041Y-115790041D01*
X119285072Y-115696195D01*
X119721215Y-115573624D01*
X120175887Y-115423252D01*
X120229902Y-115403966D01*
X120570484Y-115281440D01*
X120578312Y-115049749D01*
X120671667Y-115049749D01*
X120671667Y-115167000D01*
X125334801Y-115167000D01*
X125321748Y-114938859D01*
X125311002Y-114815610D01*
X125413129Y-114815610D01*
X125418356Y-115043964D01*
X125423583Y-115272319D01*
X125508250Y-115306486D01*
X125639054Y-115356739D01*
X125798993Y-115414201D01*
X125976367Y-115474921D01*
X126159475Y-115534953D01*
X126336615Y-115590346D01*
X126444348Y-115622382D01*
X126837700Y-115727133D01*
X127203117Y-115805331D01*
X127539667Y-115856863D01*
X127846417Y-115881615D01*
X128122436Y-115879473D01*
X128346531Y-115853985D01*
X128523699Y-115813711D01*
X128668431Y-115758632D01*
X128789235Y-115684709D01*
X128884894Y-115598344D01*
X129002550Y-115446680D01*
X129086335Y-115275164D01*
X129137074Y-115081201D01*
X129155594Y-114862194D01*
X129153632Y-114754652D01*
X129124552Y-114494731D01*
X129062751Y-114260714D01*
X128968428Y-114053137D01*
X128841782Y-113872536D01*
X128811847Y-113838894D01*
X128733325Y-113757140D01*
X128673790Y-113705319D01*
X128625766Y-113680322D01*
X128581777Y-113679039D01*
X128534347Y-113698358D01*
X128509581Y-113713139D01*
X128424731Y-113762545D01*
X128309205Y-113823820D01*
X128171513Y-113892817D01*
X128020165Y-113965387D01*
X127863671Y-114037385D01*
X127710543Y-114104664D01*
X127676135Y-114119270D01*
X127504756Y-114187826D01*
X127301970Y-114262879D01*
X127075805Y-114341911D01*
X126834288Y-114422404D01*
X126585446Y-114501838D01*
X126337307Y-114577695D01*
X126097899Y-114647457D01*
X125875248Y-114708605D01*
X125677382Y-114758620D01*
X125540742Y-114789252D01*
X125413129Y-114815610D01*
X125311002Y-114815610D01*
X125309536Y-114798807D01*
X125288980Y-114640645D01*
X125262603Y-114479933D01*
X125232929Y-114332232D01*
X125206006Y-114225083D01*
X125187704Y-114161583D01*
X120810442Y-114161583D01*
X120762841Y-114352083D01*
X120728298Y-114513873D01*
X120700081Y-114691806D01*
X120680503Y-114868189D01*
X120671878Y-115025326D01*
X120671667Y-115049749D01*
X120578312Y-115049749D01*
X120578318Y-115049595D01*
X120586151Y-114817750D01*
X120369617Y-114767639D01*
X120246706Y-114737418D01*
X120092815Y-114696832D01*
X119917236Y-114648569D01*
X119729260Y-114595317D01*
X119538178Y-114539763D01*
X119353281Y-114484595D01*
X119183861Y-114432502D01*
X119039209Y-114386170D01*
X118967750Y-114362109D01*
X118740833Y-114280487D01*
X118510195Y-114191670D01*
X118282863Y-114098730D01*
X118065867Y-114004739D01*
X117866235Y-113912767D01*
X117690997Y-113825887D01*
X117547181Y-113747169D01*
X117511340Y-113725682D01*
X117450230Y-113691500D01*
X117401861Y-113677656D01*
X117356769Y-113686821D01*
X117305490Y-113721665D01*
X117238561Y-113784858D01*
X117214238Y-113809517D01*
X117073353Y-113983400D01*
X116965844Y-114183047D01*
X116891930Y-114407900D01*
X116851830Y-114657404D01*
X116846117Y-114743667D01*
X116844814Y-114921532D01*
X116745628Y-114921532D01*
X116739654Y-114800638D01*
X116742271Y-114733083D01*
X116773758Y-114481244D01*
X116837822Y-114245429D01*
X116932449Y-114030539D01*
X117055627Y-113841478D01*
X117153527Y-113731301D01*
X117212351Y-113671607D01*
X117256548Y-113624018D01*
X117279767Y-113595512D01*
X117281579Y-113590641D01*
X117262584Y-113576000D01*
X117217136Y-113541923D01*
X117152851Y-113494103D01*
X117103837Y-113457802D01*
X116963327Y-113345537D01*
X116828784Y-113222517D01*
X116708724Y-113097397D01*
X116611665Y-112978837D01*
X116565876Y-112910938D01*
X116480174Y-112729644D01*
X116432462Y-112536336D01*
X116423302Y-112369279D01*
X116525629Y-112369279D01*
X116526809Y-112427388D01*
X116533025Y-112528033D01*
X116544164Y-112603707D01*
X116564568Y-112671769D01*
X116598577Y-112749577D01*
X116616675Y-112786738D01*
X116720784Y-112955206D01*
X116865981Y-113123643D01*
X117051026Y-113291329D01*
X117274681Y-113457548D01*
X117535706Y-113621580D01*
X117832861Y-113782708D01*
X118164907Y-113940213D01*
X118530604Y-114093378D01*
X118928713Y-114241484D01*
X119357995Y-114383813D01*
X119391083Y-114394133D01*
X119517305Y-114432309D01*
X119657065Y-114472840D01*
X119804678Y-114514253D01*
X119954460Y-114555076D01*
X120100727Y-114593838D01*
X120237795Y-114629066D01*
X120359979Y-114659290D01*
X120461596Y-114683036D01*
X120536961Y-114698833D01*
X120580389Y-114705208D01*
X120588559Y-114704217D01*
X120597371Y-114678787D01*
X120611124Y-114621452D01*
X120627578Y-114542029D01*
X120637486Y-114489667D01*
X120661514Y-114377192D01*
X120694645Y-114246570D01*
X120731255Y-114119339D01*
X120747303Y-114069116D01*
X120820337Y-113849650D01*
X120816642Y-113841515D01*
X125177478Y-113841515D01*
X125244051Y-114042280D01*
X125282390Y-114165657D01*
X125318299Y-114295321D01*
X125349438Y-114421369D01*
X125373467Y-114533902D01*
X125388047Y-114623019D01*
X125391375Y-114665718D01*
X125397337Y-114707617D01*
X125418680Y-114716647D01*
X125428875Y-114714283D01*
X125461838Y-114705441D01*
X125527591Y-114688565D01*
X125617824Y-114665765D01*
X125724226Y-114639146D01*
X125772833Y-114627062D01*
X126232351Y-114505860D01*
X126668430Y-114376391D01*
X127079379Y-114239517D01*
X127463508Y-114096098D01*
X127819125Y-113946995D01*
X128144541Y-113793069D01*
X128438063Y-113635180D01*
X128698002Y-113474190D01*
X128922666Y-113310958D01*
X129110365Y-113146347D01*
X129259408Y-112981216D01*
X129368104Y-112816426D01*
X129381822Y-112789777D01*
X129421853Y-112704057D01*
X129446976Y-112633398D01*
X129461537Y-112560524D01*
X129469882Y-112468158D01*
X129471962Y-112431425D01*
X129462838Y-112205558D01*
X129412405Y-111983170D01*
X129321668Y-111766507D01*
X129191633Y-111557812D01*
X129023305Y-111359329D01*
X128966125Y-111302716D01*
X128766493Y-111134368D01*
X128557315Y-110999080D01*
X128342541Y-110898188D01*
X128126117Y-110833028D01*
X127911992Y-110804938D01*
X127704115Y-110815254D01*
X127593167Y-110837969D01*
X127387735Y-110912392D01*
X127177683Y-111027551D01*
X126964044Y-111182228D01*
X126747853Y-111375205D01*
X126530145Y-111605266D01*
X126311953Y-111871191D01*
X126094314Y-112171764D01*
X125878260Y-112505766D01*
X125664828Y-112871980D01*
X125455050Y-113269189D01*
X125355054Y-113472382D01*
X125177478Y-113841515D01*
X120816642Y-113841515D01*
X120722911Y-113635200D01*
X120534226Y-113240492D01*
X120337678Y-112868714D01*
X120134774Y-112521684D01*
X119927018Y-112201220D01*
X119715917Y-111909142D01*
X119502975Y-111647266D01*
X119289700Y-111417413D01*
X119077595Y-111221399D01*
X118868166Y-111061044D01*
X118662921Y-110938165D01*
X118463362Y-110854582D01*
X118406833Y-110837969D01*
X118204113Y-110805818D01*
X117992959Y-110812812D01*
X117777321Y-110857614D01*
X117561145Y-110938890D01*
X117348381Y-111055302D01*
X117142977Y-111205513D01*
X117033875Y-111302716D01*
X116854148Y-111498116D01*
X116712459Y-111704694D01*
X116609809Y-111920229D01*
X116547198Y-112142498D01*
X116525629Y-112369279D01*
X116423302Y-112369279D01*
X116421404Y-112334680D01*
X116445667Y-112128340D01*
X116503916Y-111920982D01*
X116594817Y-111716271D01*
X116717036Y-111517872D01*
X116869239Y-111329450D01*
X117050092Y-111154671D01*
X117258260Y-110997199D01*
X117263833Y-110993496D01*
X117493526Y-110859975D01*
X117719168Y-110766985D01*
X117941868Y-110714705D01*
X118162734Y-110703315D01*
X118382875Y-110732996D01*
X118603399Y-110803925D01*
X118825416Y-110916284D01*
X119050032Y-111070251D01*
X119278358Y-111266007D01*
X119345644Y-111330835D01*
X119559450Y-111556756D01*
X119766751Y-111806876D01*
X119969724Y-112084443D01*
X120170545Y-112392700D01*
X120371392Y-112734894D01*
X120574441Y-113114272D01*
X120673234Y-113310349D01*
X120880437Y-113729114D01*
X120966299Y-113564349D01*
X121022759Y-113464745D01*
X121092257Y-113354441D01*
X121160883Y-113255389D01*
X121168837Y-113244721D01*
X121285512Y-113089858D01*
X121234957Y-113022471D01*
X121128106Y-112846275D01*
X121053113Y-112648664D01*
X121013156Y-112439358D01*
X121007267Y-112325954D01*
X121008008Y-112308268D01*
X121100740Y-112308268D01*
X121118718Y-112507501D01*
X121175016Y-112700746D01*
X121267631Y-112885303D01*
X121394558Y-113058471D01*
X121553793Y-113217549D01*
X121743331Y-113359837D01*
X121961169Y-113482634D01*
X122205302Y-113583241D01*
X122224494Y-113589775D01*
X122370896Y-113634665D01*
X122508662Y-113666554D01*
X122649312Y-113686926D01*
X122804364Y-113697264D01*
X122985340Y-113699050D01*
X123063500Y-113697792D01*
X123206888Y-113693732D01*
X123319091Y-113687708D01*
X123411255Y-113678450D01*
X123494521Y-113664691D01*
X123580035Y-113645161D01*
X123621955Y-113634223D01*
X123880514Y-113549416D01*
X124114648Y-113441404D01*
X124322301Y-113312694D01*
X124501413Y-113165791D01*
X124649927Y-113003203D01*
X124765785Y-112827435D01*
X124846929Y-112640994D01*
X124891302Y-112446387D01*
X124896845Y-112246119D01*
X124876912Y-112105748D01*
X124812355Y-111901930D01*
X124709367Y-111710406D01*
X124570665Y-111533531D01*
X124398968Y-111373664D01*
X124196996Y-111233160D01*
X123967466Y-111114377D01*
X123713097Y-111019670D01*
X123581964Y-110983203D01*
X123487028Y-110960684D01*
X123405162Y-110944814D01*
X123325032Y-110934463D01*
X123235299Y-110928503D01*
X123124627Y-110925804D01*
X123000000Y-110925230D01*
X122860982Y-110925998D01*
X122752907Y-110929054D01*
X122664400Y-110935523D01*
X122584087Y-110946532D01*
X122500593Y-110963206D01*
X122417917Y-110982849D01*
X122152644Y-111064647D01*
X121910857Y-111171809D01*
X121695275Y-111301978D01*
X121508617Y-111452795D01*
X121353603Y-111621902D01*
X121232953Y-111806941D01*
X121149386Y-112005553D01*
X121123088Y-112105748D01*
X121100740Y-112308268D01*
X121008008Y-112308268D01*
X121013795Y-112170199D01*
X121036991Y-112034150D01*
X121081104Y-111899439D01*
X121132667Y-111783677D01*
X121202953Y-111664535D01*
X121300135Y-111535947D01*
X121414200Y-111409196D01*
X121535133Y-111295566D01*
X121633471Y-111219356D01*
X121749893Y-111139174D01*
X121695936Y-111052295D01*
X121578466Y-110827927D01*
X121504352Y-110616167D01*
X121482712Y-110501275D01*
X121469530Y-110358144D01*
X121464798Y-110200013D01*
X121468510Y-110040123D01*
X121480657Y-109891712D01*
X121501232Y-109768019D01*
X121504831Y-109753246D01*
X121544246Y-109599409D01*
X121489685Y-109556492D01*
X121432311Y-109487015D01*
X121407066Y-109401808D01*
X121409161Y-109371150D01*
X121497167Y-109371150D01*
X121514620Y-109420209D01*
X121557220Y-109469742D01*
X121610325Y-109505763D01*
X121648298Y-109515500D01*
X121697211Y-109501416D01*
X121744511Y-109469477D01*
X121784419Y-109408059D01*
X121790002Y-109341183D01*
X121765606Y-109279986D01*
X121715574Y-109235608D01*
X121646869Y-109219167D01*
X121586161Y-109237744D01*
X121532892Y-109284097D01*
X121500918Y-109344157D01*
X121497167Y-109371150D01*
X121409161Y-109371150D01*
X121413217Y-109311824D01*
X121450028Y-109228015D01*
X121516172Y-109161732D01*
X121598910Y-109121576D01*
X121680275Y-109118587D01*
X121762207Y-109146719D01*
X121828182Y-109198512D01*
X121877208Y-109275264D01*
X121898966Y-109360121D01*
X121899254Y-109370532D01*
X121880368Y-109447586D01*
X121830819Y-109521701D01*
X121760919Y-109579295D01*
X121728897Y-109594930D01*
X121676526Y-109620408D01*
X121643863Y-109654355D01*
X121618903Y-109711080D01*
X121610789Y-109735728D01*
X121589603Y-109830923D01*
X121574708Y-109955646D01*
X121566429Y-110097515D01*
X121565090Y-110244147D01*
X121571014Y-110383159D01*
X121584525Y-110502171D01*
X121589977Y-110531500D01*
X121611623Y-110611127D01*
X121645093Y-110706430D01*
X121685914Y-110807293D01*
X121729618Y-110903602D01*
X121771732Y-110985242D01*
X121807787Y-111042098D01*
X121823045Y-111058837D01*
X121856127Y-111062524D01*
X121923074Y-111045785D01*
X122025263Y-111008270D01*
X122030394Y-111006216D01*
X122346706Y-110901336D01*
X122668089Y-110837962D01*
X122991887Y-110816092D01*
X123315447Y-110835725D01*
X123636116Y-110896860D01*
X123951238Y-110999495D01*
X123970358Y-111007154D01*
X124153583Y-111081358D01*
X124196603Y-111028815D01*
X124238437Y-110971004D01*
X124294417Y-110884219D01*
X124359504Y-110777225D01*
X124428660Y-110658784D01*
X124496846Y-110537661D01*
X124559022Y-110422617D01*
X124610150Y-110322417D01*
X124640786Y-110256333D01*
X124745852Y-109961630D01*
X124820755Y-109642841D01*
X124865768Y-109305301D01*
X124881167Y-108954343D01*
X124867228Y-108595303D01*
X124824226Y-108233514D01*
X124752435Y-107874310D01*
X124652132Y-107523027D01*
X124523592Y-107184997D01*
X124476931Y-107081333D01*
X124433739Y-106990827D01*
X124401409Y-106930875D01*
X124373469Y-106893411D01*
X124343442Y-106870367D01*
X124304854Y-106853678D01*
X124290044Y-106848500D01*
X124208628Y-106804153D01*
X124144237Y-106738215D01*
X124106531Y-106662288D01*
X124100667Y-106621027D01*
X124107469Y-106588771D01*
X124209386Y-106588771D01*
X124214621Y-106653584D01*
X124253069Y-106712147D01*
X124262271Y-106719964D01*
X124329602Y-106757573D01*
X124390020Y-106754997D01*
X124450837Y-106711921D01*
X124450879Y-106711879D01*
X124493981Y-106651060D01*
X124496585Y-106590644D01*
X124459002Y-106523320D01*
X124458964Y-106523271D01*
X124400539Y-106476575D01*
X124353130Y-106467500D01*
X124282623Y-106484663D01*
X124233381Y-106528776D01*
X124209386Y-106588771D01*
X124107469Y-106588771D01*
X124120229Y-106528273D01*
X124172774Y-106448138D01*
X124249087Y-106389837D01*
X124339955Y-106362583D01*
X124360027Y-106361667D01*
X124432060Y-106379834D01*
G37*
X124432060Y-106379834D02*
X124503454Y-106426858D01*
X124559921Y-106491524D01*
X124581032Y-106535144D01*
X124593865Y-106626309D01*
X124576740Y-106714299D01*
X124533201Y-106784669D01*
X124516099Y-106799749D01*
X124467688Y-106836265D01*
X124578221Y-107069924D01*
X124727108Y-107429169D01*
X124840543Y-107803574D01*
X124919134Y-108196055D01*
X124963486Y-108609530D01*
X124974727Y-108975750D01*
X124968472Y-109245232D01*
X124949635Y-109483849D01*
X124916866Y-109701552D01*
X124868816Y-109908292D01*
X124831162Y-110034083D01*
X124775341Y-110184475D01*
X124699413Y-110356827D01*
X124609091Y-110539552D01*
X124510088Y-110721064D01*
X124413237Y-110881758D01*
X124359088Y-110966836D01*
X124312770Y-111039710D01*
X124279318Y-111092450D01*
X124263962Y-111116812D01*
X124272922Y-111139169D01*
X124309987Y-111176140D01*
X124366541Y-111219365D01*
X124485566Y-111313548D01*
X124606030Y-111430212D01*
X124717919Y-111558071D01*
X124811218Y-111685843D01*
X124867333Y-111783677D01*
X124930675Y-111930066D01*
X124969793Y-112063491D01*
X124988936Y-112202319D01*
X124992733Y-112325954D01*
X124972824Y-112537523D01*
X124916179Y-112742600D01*
X124825976Y-112931462D01*
X124765043Y-113022471D01*
X124714487Y-113089858D01*
X124826412Y-113238638D01*
X124892467Y-113332776D01*
X124962790Y-113442954D01*
X125023329Y-113547048D01*
X125029151Y-113557858D01*
X125119966Y-113728299D01*
X125326967Y-113309941D01*
X125529528Y-112915770D01*
X125728446Y-112560195D01*
X125925968Y-112239887D01*
X126124338Y-111951521D01*
X126325804Y-111691769D01*
X126532610Y-111457304D01*
X126674857Y-111313109D01*
X126903075Y-111109420D01*
X127125367Y-110947096D01*
X127343460Y-110825866D01*
X127559079Y-110745457D01*
X127773949Y-110705599D01*
X127989797Y-110706021D01*
X128208347Y-110746450D01*
X128431327Y-110826617D01*
X128660460Y-110946248D01*
X128730698Y-110989818D01*
X128936418Y-111140702D01*
X129116170Y-111310542D01*
X129268532Y-111495457D01*
X129392083Y-111691564D01*
X129485402Y-111894981D01*
X129547067Y-112101827D01*
X129575656Y-112308219D01*
X129569748Y-112510275D01*
X129527923Y-112704113D01*
X129448757Y-112885851D01*
X129434124Y-112910919D01*
X129357603Y-113018581D01*
X129252706Y-113138779D01*
X129127797Y-113263021D01*
X128991244Y-113382818D01*
X128894917Y-113458215D01*
X128822702Y-113511959D01*
X128764297Y-113555673D01*
X128727332Y-113583632D01*
X128718421Y-113590641D01*
X128729233Y-113607326D01*
X128764195Y-113646410D01*
X128816941Y-113700953D01*
X128847433Y-113731301D01*
X128972834Y-113880810D01*
X129080172Y-114061202D01*
X129166057Y-114263650D01*
X129227097Y-114479327D01*
X129259905Y-114699408D01*
X129264688Y-114817750D01*
X129248239Y-115032891D01*
X129200975Y-115235938D01*
X129125624Y-115421822D01*
X129024914Y-115585474D01*
X128901570Y-115721825D01*
X128758322Y-115825807D01*
X128708485Y-115851528D01*
X128516660Y-115920705D01*
X128292588Y-115964272D01*
X128037604Y-115982400D01*
X127753038Y-115975259D01*
X127440224Y-115943020D01*
X127100495Y-115885852D01*
X126735182Y-115803926D01*
X126345619Y-115697412D01*
X125933137Y-115566481D01*
X125622883Y-115457251D01*
X125420015Y-115383034D01*
X125375755Y-115650725D01*
X125297222Y-116007814D01*
X125183067Y-116342569D01*
X125032506Y-116656704D01*
X124844757Y-116951936D01*
X124692639Y-117146083D01*
X124493841Y-117353344D01*
X124272072Y-117535735D01*
X124033674Y-117689397D01*
X123784987Y-117810473D01*
X123532353Y-117895104D01*
X123420807Y-117919945D01*
X123347502Y-117933874D01*
X123290081Y-117945194D01*
X123263110Y-117950967D01*
X123248762Y-117972443D01*
X123226571Y-118026577D01*
X123199600Y-118105121D01*
X123171723Y-118196995D01*
X123140816Y-118305002D01*
X123110690Y-118410264D01*
X123085251Y-118499136D01*
X123071153Y-118548375D01*
X123046986Y-118617709D01*
X123022473Y-118652170D01*
X123000000Y-118659500D01*
X122971972Y-118647317D01*
X122947927Y-118605941D01*
X122928847Y-118548375D01*
X122909790Y-118481812D01*
X122882993Y-118388194D01*
X122852363Y-118281167D01*
X122828276Y-118196995D01*
X122799596Y-118102632D01*
X122772719Y-118024667D01*
X122750708Y-117971345D01*
X122736890Y-117950967D01*
X122705464Y-117944293D01*
X122645929Y-117932606D01*
X122579193Y-117919945D01*
X122326825Y-117852692D01*
X122075598Y-117747282D01*
X121831846Y-117607569D01*
X121601908Y-117437410D01*
X121392120Y-117240661D01*
X121307340Y-117146083D01*
X121095112Y-116863937D01*
X120918695Y-116560034D01*
X120777847Y-116233807D01*
X120764091Y-116188292D01*
X120862361Y-116188292D01*
X120872183Y-116222941D01*
X120898668Y-116286383D01*
X120937732Y-116370509D01*
X120985289Y-116467211D01*
X121037255Y-116568382D01*
X121089546Y-116665912D01*
X121138077Y-116751694D01*
X121178762Y-116817620D01*
X121181360Y-116821504D01*
X121242606Y-116908136D01*
X121311734Y-116999664D01*
X121365851Y-117066708D01*
X121459976Y-117177833D01*
X124541893Y-117177833D01*
X124636143Y-117066708D01*
X124720456Y-116959026D01*
X124808588Y-116832138D01*
X124895462Y-116694797D01*
X124976001Y-116555756D01*
X125045126Y-116423769D01*
X125097761Y-116307588D01*
X125128208Y-116218466D01*
X125142422Y-116161833D01*
X123002294Y-116161833D01*
X122641320Y-116161929D01*
X122320622Y-116162235D01*
X122038145Y-116162776D01*
X121791834Y-116163578D01*
X121579632Y-116164665D01*
X121399483Y-116166063D01*
X121249332Y-116167799D01*
X121127122Y-116169896D01*
X121030797Y-116172381D01*
X120958303Y-116175279D01*
X120907582Y-116178615D01*
X120876579Y-116182415D01*
X120863239Y-116186704D01*
X120862361Y-116188292D01*
X120764091Y-116188292D01*
X120672327Y-115884690D01*
X120601892Y-115512117D01*
X120597668Y-115480520D01*
X120584800Y-115381291D01*
X120379525Y-115456950D01*
X120011915Y-115585552D01*
X119652776Y-115697673D01*
X119305834Y-115792564D01*
X118974816Y-115869479D01*
X118663447Y-115927671D01*
X118375455Y-115966392D01*
X118114565Y-115984896D01*
X117884504Y-115982437D01*
X117796425Y-115974797D01*
X117569502Y-115938669D01*
X117377883Y-115884561D01*
X117217478Y-115809990D01*
X117084194Y-115712474D01*
X116973942Y-115589530D01*
X116882630Y-115438674D01*
X116869799Y-115412400D01*
X116792892Y-115215391D01*
X116750273Y-115015534D01*
X116745628Y-114921532D01*
X116844814Y-114921532D01*
X116860073Y-115073867D01*
X116894424Y-115215082D01*
X116950397Y-115359586D01*
X116956667Y-115373431D01*
X117030172Y-115496516D01*
X117130521Y-115612573D01*
X117245679Y-115709416D01*
X117345519Y-115767209D01*
X117512118Y-115824533D01*
X117710874Y-115862871D01*
X117935886Y-115881771D01*
X118181251Y-115880783D01*
X118441067Y-115859454D01*
X118482707Y-115854238D01*
X118871041Y-115790041D01*
X119285072Y-115696195D01*
X119721215Y-115573624D01*
X120175887Y-115423252D01*
X120229902Y-115403966D01*
X120570484Y-115281440D01*
X120578312Y-115049749D01*
X120671667Y-115049749D01*
X120671667Y-115167000D01*
X125334801Y-115167000D01*
X125321748Y-114938859D01*
X125311002Y-114815610D01*
X125413129Y-114815610D01*
X125418356Y-115043964D01*
X125423583Y-115272319D01*
X125508250Y-115306486D01*
X125639054Y-115356739D01*
X125798993Y-115414201D01*
X125976367Y-115474921D01*
X126159475Y-115534953D01*
X126336615Y-115590346D01*
X126444348Y-115622382D01*
X126837700Y-115727133D01*
X127203117Y-115805331D01*
X127539667Y-115856863D01*
X127846417Y-115881615D01*
X128122436Y-115879473D01*
X128346531Y-115853985D01*
X128523699Y-115813711D01*
X128668431Y-115758632D01*
X128789235Y-115684709D01*
X128884894Y-115598344D01*
X129002550Y-115446680D01*
X129086335Y-115275164D01*
X129137074Y-115081201D01*
X129155594Y-114862194D01*
X129153632Y-114754652D01*
X129124552Y-114494731D01*
X129062751Y-114260714D01*
X128968428Y-114053137D01*
X128841782Y-113872536D01*
X128811847Y-113838894D01*
X128733325Y-113757140D01*
X128673790Y-113705319D01*
X128625766Y-113680322D01*
X128581777Y-113679039D01*
X128534347Y-113698358D01*
X128509581Y-113713139D01*
X128424731Y-113762545D01*
X128309205Y-113823820D01*
X128171513Y-113892817D01*
X128020165Y-113965387D01*
X127863671Y-114037385D01*
X127710543Y-114104664D01*
X127676135Y-114119270D01*
X127504756Y-114187826D01*
X127301970Y-114262879D01*
X127075805Y-114341911D01*
X126834288Y-114422404D01*
X126585446Y-114501838D01*
X126337307Y-114577695D01*
X126097899Y-114647457D01*
X125875248Y-114708605D01*
X125677382Y-114758620D01*
X125540742Y-114789252D01*
X125413129Y-114815610D01*
X125311002Y-114815610D01*
X125309536Y-114798807D01*
X125288980Y-114640645D01*
X125262603Y-114479933D01*
X125232929Y-114332232D01*
X125206006Y-114225083D01*
X125187704Y-114161583D01*
X120810442Y-114161583D01*
X120762841Y-114352083D01*
X120728298Y-114513873D01*
X120700081Y-114691806D01*
X120680503Y-114868189D01*
X120671878Y-115025326D01*
X120671667Y-115049749D01*
X120578312Y-115049749D01*
X120578318Y-115049595D01*
X120586151Y-114817750D01*
X120369617Y-114767639D01*
X120246706Y-114737418D01*
X120092815Y-114696832D01*
X119917236Y-114648569D01*
X119729260Y-114595317D01*
X119538178Y-114539763D01*
X119353281Y-114484595D01*
X119183861Y-114432502D01*
X119039209Y-114386170D01*
X118967750Y-114362109D01*
X118740833Y-114280487D01*
X118510195Y-114191670D01*
X118282863Y-114098730D01*
X118065867Y-114004739D01*
X117866235Y-113912767D01*
X117690997Y-113825887D01*
X117547181Y-113747169D01*
X117511340Y-113725682D01*
X117450230Y-113691500D01*
X117401861Y-113677656D01*
X117356769Y-113686821D01*
X117305490Y-113721665D01*
X117238561Y-113784858D01*
X117214238Y-113809517D01*
X117073353Y-113983400D01*
X116965844Y-114183047D01*
X116891930Y-114407900D01*
X116851830Y-114657404D01*
X116846117Y-114743667D01*
X116844814Y-114921532D01*
X116745628Y-114921532D01*
X116739654Y-114800638D01*
X116742271Y-114733083D01*
X116773758Y-114481244D01*
X116837822Y-114245429D01*
X116932449Y-114030539D01*
X117055627Y-113841478D01*
X117153527Y-113731301D01*
X117212351Y-113671607D01*
X117256548Y-113624018D01*
X117279767Y-113595512D01*
X117281579Y-113590641D01*
X117262584Y-113576000D01*
X117217136Y-113541923D01*
X117152851Y-113494103D01*
X117103837Y-113457802D01*
X116963327Y-113345537D01*
X116828784Y-113222517D01*
X116708724Y-113097397D01*
X116611665Y-112978837D01*
X116565876Y-112910938D01*
X116480174Y-112729644D01*
X116432462Y-112536336D01*
X116423302Y-112369279D01*
X116525629Y-112369279D01*
X116526809Y-112427388D01*
X116533025Y-112528033D01*
X116544164Y-112603707D01*
X116564568Y-112671769D01*
X116598577Y-112749577D01*
X116616675Y-112786738D01*
X116720784Y-112955206D01*
X116865981Y-113123643D01*
X117051026Y-113291329D01*
X117274681Y-113457548D01*
X117535706Y-113621580D01*
X117832861Y-113782708D01*
X118164907Y-113940213D01*
X118530604Y-114093378D01*
X118928713Y-114241484D01*
X119357995Y-114383813D01*
X119391083Y-114394133D01*
X119517305Y-114432309D01*
X119657065Y-114472840D01*
X119804678Y-114514253D01*
X119954460Y-114555076D01*
X120100727Y-114593838D01*
X120237795Y-114629066D01*
X120359979Y-114659290D01*
X120461596Y-114683036D01*
X120536961Y-114698833D01*
X120580389Y-114705208D01*
X120588559Y-114704217D01*
X120597371Y-114678787D01*
X120611124Y-114621452D01*
X120627578Y-114542029D01*
X120637486Y-114489667D01*
X120661514Y-114377192D01*
X120694645Y-114246570D01*
X120731255Y-114119339D01*
X120747303Y-114069116D01*
X120820337Y-113849650D01*
X120816642Y-113841515D01*
X125177478Y-113841515D01*
X125244051Y-114042280D01*
X125282390Y-114165657D01*
X125318299Y-114295321D01*
X125349438Y-114421369D01*
X125373467Y-114533902D01*
X125388047Y-114623019D01*
X125391375Y-114665718D01*
X125397337Y-114707617D01*
X125418680Y-114716647D01*
X125428875Y-114714283D01*
X125461838Y-114705441D01*
X125527591Y-114688565D01*
X125617824Y-114665765D01*
X125724226Y-114639146D01*
X125772833Y-114627062D01*
X126232351Y-114505860D01*
X126668430Y-114376391D01*
X127079379Y-114239517D01*
X127463508Y-114096098D01*
X127819125Y-113946995D01*
X128144541Y-113793069D01*
X128438063Y-113635180D01*
X128698002Y-113474190D01*
X128922666Y-113310958D01*
X129110365Y-113146347D01*
X129259408Y-112981216D01*
X129368104Y-112816426D01*
X129381822Y-112789777D01*
X129421853Y-112704057D01*
X129446976Y-112633398D01*
X129461537Y-112560524D01*
X129469882Y-112468158D01*
X129471962Y-112431425D01*
X129462838Y-112205558D01*
X129412405Y-111983170D01*
X129321668Y-111766507D01*
X129191633Y-111557812D01*
X129023305Y-111359329D01*
X128966125Y-111302716D01*
X128766493Y-111134368D01*
X128557315Y-110999080D01*
X128342541Y-110898188D01*
X128126117Y-110833028D01*
X127911992Y-110804938D01*
X127704115Y-110815254D01*
X127593167Y-110837969D01*
X127387735Y-110912392D01*
X127177683Y-111027551D01*
X126964044Y-111182228D01*
X126747853Y-111375205D01*
X126530145Y-111605266D01*
X126311953Y-111871191D01*
X126094314Y-112171764D01*
X125878260Y-112505766D01*
X125664828Y-112871980D01*
X125455050Y-113269189D01*
X125355054Y-113472382D01*
X125177478Y-113841515D01*
X120816642Y-113841515D01*
X120722911Y-113635200D01*
X120534226Y-113240492D01*
X120337678Y-112868714D01*
X120134774Y-112521684D01*
X119927018Y-112201220D01*
X119715917Y-111909142D01*
X119502975Y-111647266D01*
X119289700Y-111417413D01*
X119077595Y-111221399D01*
X118868166Y-111061044D01*
X118662921Y-110938165D01*
X118463362Y-110854582D01*
X118406833Y-110837969D01*
X118204113Y-110805818D01*
X117992959Y-110812812D01*
X117777321Y-110857614D01*
X117561145Y-110938890D01*
X117348381Y-111055302D01*
X117142977Y-111205513D01*
X117033875Y-111302716D01*
X116854148Y-111498116D01*
X116712459Y-111704694D01*
X116609809Y-111920229D01*
X116547198Y-112142498D01*
X116525629Y-112369279D01*
X116423302Y-112369279D01*
X116421404Y-112334680D01*
X116445667Y-112128340D01*
X116503916Y-111920982D01*
X116594817Y-111716271D01*
X116717036Y-111517872D01*
X116869239Y-111329450D01*
X117050092Y-111154671D01*
X117258260Y-110997199D01*
X117263833Y-110993496D01*
X117493526Y-110859975D01*
X117719168Y-110766985D01*
X117941868Y-110714705D01*
X118162734Y-110703315D01*
X118382875Y-110732996D01*
X118603399Y-110803925D01*
X118825416Y-110916284D01*
X119050032Y-111070251D01*
X119278358Y-111266007D01*
X119345644Y-111330835D01*
X119559450Y-111556756D01*
X119766751Y-111806876D01*
X119969724Y-112084443D01*
X120170545Y-112392700D01*
X120371392Y-112734894D01*
X120574441Y-113114272D01*
X120673234Y-113310349D01*
X120880437Y-113729114D01*
X120966299Y-113564349D01*
X121022759Y-113464745D01*
X121092257Y-113354441D01*
X121160883Y-113255389D01*
X121168837Y-113244721D01*
X121285512Y-113089858D01*
X121234957Y-113022471D01*
X121128106Y-112846275D01*
X121053113Y-112648664D01*
X121013156Y-112439358D01*
X121007267Y-112325954D01*
X121008008Y-112308268D01*
X121100740Y-112308268D01*
X121118718Y-112507501D01*
X121175016Y-112700746D01*
X121267631Y-112885303D01*
X121394558Y-113058471D01*
X121553793Y-113217549D01*
X121743331Y-113359837D01*
X121961169Y-113482634D01*
X122205302Y-113583241D01*
X122224494Y-113589775D01*
X122370896Y-113634665D01*
X122508662Y-113666554D01*
X122649312Y-113686926D01*
X122804364Y-113697264D01*
X122985340Y-113699050D01*
X123063500Y-113697792D01*
X123206888Y-113693732D01*
X123319091Y-113687708D01*
X123411255Y-113678450D01*
X123494521Y-113664691D01*
X123580035Y-113645161D01*
X123621955Y-113634223D01*
X123880514Y-113549416D01*
X124114648Y-113441404D01*
X124322301Y-113312694D01*
X124501413Y-113165791D01*
X124649927Y-113003203D01*
X124765785Y-112827435D01*
X124846929Y-112640994D01*
X124891302Y-112446387D01*
X124896845Y-112246119D01*
X124876912Y-112105748D01*
X124812355Y-111901930D01*
X124709367Y-111710406D01*
X124570665Y-111533531D01*
X124398968Y-111373664D01*
X124196996Y-111233160D01*
X123967466Y-111114377D01*
X123713097Y-111019670D01*
X123581964Y-110983203D01*
X123487028Y-110960684D01*
X123405162Y-110944814D01*
X123325032Y-110934463D01*
X123235299Y-110928503D01*
X123124627Y-110925804D01*
X123000000Y-110925230D01*
X122860982Y-110925998D01*
X122752907Y-110929054D01*
X122664400Y-110935523D01*
X122584087Y-110946532D01*
X122500593Y-110963206D01*
X122417917Y-110982849D01*
X122152644Y-111064647D01*
X121910857Y-111171809D01*
X121695275Y-111301978D01*
X121508617Y-111452795D01*
X121353603Y-111621902D01*
X121232953Y-111806941D01*
X121149386Y-112005553D01*
X121123088Y-112105748D01*
X121100740Y-112308268D01*
X121008008Y-112308268D01*
X121013795Y-112170199D01*
X121036991Y-112034150D01*
X121081104Y-111899439D01*
X121132667Y-111783677D01*
X121202953Y-111664535D01*
X121300135Y-111535947D01*
X121414200Y-111409196D01*
X121535133Y-111295566D01*
X121633471Y-111219356D01*
X121749893Y-111139174D01*
X121695936Y-111052295D01*
X121578466Y-110827927D01*
X121504352Y-110616167D01*
X121482712Y-110501275D01*
X121469530Y-110358144D01*
X121464798Y-110200013D01*
X121468510Y-110040123D01*
X121480657Y-109891712D01*
X121501232Y-109768019D01*
X121504831Y-109753246D01*
X121544246Y-109599409D01*
X121489685Y-109556492D01*
X121432311Y-109487015D01*
X121407066Y-109401808D01*
X121409161Y-109371150D01*
X121497167Y-109371150D01*
X121514620Y-109420209D01*
X121557220Y-109469742D01*
X121610325Y-109505763D01*
X121648298Y-109515500D01*
X121697211Y-109501416D01*
X121744511Y-109469477D01*
X121784419Y-109408059D01*
X121790002Y-109341183D01*
X121765606Y-109279986D01*
X121715574Y-109235608D01*
X121646869Y-109219167D01*
X121586161Y-109237744D01*
X121532892Y-109284097D01*
X121500918Y-109344157D01*
X121497167Y-109371150D01*
X121409161Y-109371150D01*
X121413217Y-109311824D01*
X121450028Y-109228015D01*
X121516172Y-109161732D01*
X121598910Y-109121576D01*
X121680275Y-109118587D01*
X121762207Y-109146719D01*
X121828182Y-109198512D01*
X121877208Y-109275264D01*
X121898966Y-109360121D01*
X121899254Y-109370532D01*
X121880368Y-109447586D01*
X121830819Y-109521701D01*
X121760919Y-109579295D01*
X121728897Y-109594930D01*
X121676526Y-109620408D01*
X121643863Y-109654355D01*
X121618903Y-109711080D01*
X121610789Y-109735728D01*
X121589603Y-109830923D01*
X121574708Y-109955646D01*
X121566429Y-110097515D01*
X121565090Y-110244147D01*
X121571014Y-110383159D01*
X121584525Y-110502171D01*
X121589977Y-110531500D01*
X121611623Y-110611127D01*
X121645093Y-110706430D01*
X121685914Y-110807293D01*
X121729618Y-110903602D01*
X121771732Y-110985242D01*
X121807787Y-111042098D01*
X121823045Y-111058837D01*
X121856127Y-111062524D01*
X121923074Y-111045785D01*
X122025263Y-111008270D01*
X122030394Y-111006216D01*
X122346706Y-110901336D01*
X122668089Y-110837962D01*
X122991887Y-110816092D01*
X123315447Y-110835725D01*
X123636116Y-110896860D01*
X123951238Y-110999495D01*
X123970358Y-111007154D01*
X124153583Y-111081358D01*
X124196603Y-111028815D01*
X124238437Y-110971004D01*
X124294417Y-110884219D01*
X124359504Y-110777225D01*
X124428660Y-110658784D01*
X124496846Y-110537661D01*
X124559022Y-110422617D01*
X124610150Y-110322417D01*
X124640786Y-110256333D01*
X124745852Y-109961630D01*
X124820755Y-109642841D01*
X124865768Y-109305301D01*
X124881167Y-108954343D01*
X124867228Y-108595303D01*
X124824226Y-108233514D01*
X124752435Y-107874310D01*
X124652132Y-107523027D01*
X124523592Y-107184997D01*
X124476931Y-107081333D01*
X124433739Y-106990827D01*
X124401409Y-106930875D01*
X124373469Y-106893411D01*
X124343442Y-106870367D01*
X124304854Y-106853678D01*
X124290044Y-106848500D01*
X124208628Y-106804153D01*
X124144237Y-106738215D01*
X124106531Y-106662288D01*
X124100667Y-106621027D01*
X124107469Y-106588771D01*
X124209386Y-106588771D01*
X124214621Y-106653584D01*
X124253069Y-106712147D01*
X124262271Y-106719964D01*
X124329602Y-106757573D01*
X124390020Y-106754997D01*
X124450837Y-106711921D01*
X124450879Y-106711879D01*
X124493981Y-106651060D01*
X124496585Y-106590644D01*
X124459002Y-106523320D01*
X124458964Y-106523271D01*
X124400539Y-106476575D01*
X124353130Y-106467500D01*
X124282623Y-106484663D01*
X124233381Y-106528776D01*
X124209386Y-106588771D01*
X124107469Y-106588771D01*
X124120229Y-106528273D01*
X124172774Y-106448138D01*
X124249087Y-106389837D01*
X124339955Y-106362583D01*
X124360027Y-106361667D01*
X124432060Y-106379834D01*
G36*
X123684015Y-106775355D02*
G01*
X123676912Y-106799801D01*
X123649337Y-106840946D01*
X123599530Y-106900943D01*
X123525727Y-106981945D01*
X123426168Y-107086105D01*
X123299090Y-107215576D01*
X123177517Y-107337734D01*
X122651067Y-107864500D01*
X123016034Y-107864500D01*
X123148780Y-107864826D01*
X123244987Y-107866195D01*
X123310445Y-107869191D01*
X123350943Y-107874400D01*
X123372274Y-107882405D01*
X123380228Y-107893792D01*
X123381000Y-107901357D01*
X123366524Y-107925218D01*
X123325596Y-107974676D01*
X123261965Y-108045663D01*
X123179380Y-108134111D01*
X123081593Y-108235954D01*
X122972351Y-108347122D01*
X122941981Y-108377607D01*
X122802596Y-108518273D01*
X122693593Y-108630904D01*
X122614303Y-108716239D01*
X122564058Y-108775017D01*
X122542188Y-108807977D01*
X122545106Y-108816256D01*
X122587606Y-108811534D01*
X122655274Y-108800024D01*
X122719188Y-108787204D01*
X122793720Y-108772809D01*
X122838440Y-108769658D01*
X122864382Y-108777867D01*
X122875983Y-108788844D01*
X122888953Y-108811571D01*
X122883024Y-108830926D01*
X122853463Y-108849014D01*
X122795542Y-108867941D01*
X122704529Y-108889814D01*
X122599494Y-108911912D01*
X122484416Y-108935272D01*
X122404124Y-108951004D01*
X122351918Y-108959888D01*
X122321093Y-108962706D01*
X122304948Y-108960237D01*
X122296780Y-108953264D01*
X122293144Y-108947603D01*
X122291425Y-108917777D01*
X122298930Y-108857464D01*
X122313484Y-108776166D01*
X122332913Y-108683387D01*
X122355044Y-108588631D01*
X122377701Y-108501400D01*
X122398712Y-108431200D01*
X122415902Y-108387532D01*
X122423436Y-108378036D01*
X122458982Y-108375098D01*
X122476666Y-108402524D01*
X122477086Y-108463245D01*
X122460840Y-108560192D01*
X122460745Y-108560646D01*
X122445099Y-108636827D01*
X122433639Y-108696069D01*
X122428573Y-108726889D01*
X122428500Y-108728205D01*
X122442757Y-108717827D01*
X122482894Y-108681207D01*
X122544962Y-108622141D01*
X122625013Y-108544426D01*
X122719096Y-108451857D01*
X122809789Y-108361696D01*
X123191078Y-107980917D01*
X122847086Y-107970333D01*
X122715870Y-107965694D01*
X122621325Y-107960634D01*
X122557788Y-107954464D01*
X122519597Y-107946494D01*
X122501089Y-107936034D01*
X122496949Y-107927665D01*
X122510121Y-107906656D01*
X122549625Y-107860135D01*
X122611475Y-107792132D01*
X122691682Y-107706680D01*
X122786260Y-107607810D01*
X122891223Y-107499554D01*
X123002582Y-107385942D01*
X123116351Y-107271008D01*
X123228543Y-107158781D01*
X123335171Y-107053295D01*
X123432247Y-106958580D01*
X123515785Y-106878667D01*
X123581798Y-106817590D01*
X123626299Y-106779378D01*
X123643854Y-106767953D01*
X123672408Y-106765457D01*
X123684015Y-106775355D01*
G37*
X123684015Y-106775355D02*
X123676912Y-106799801D01*
X123649337Y-106840946D01*
X123599530Y-106900943D01*
X123525727Y-106981945D01*
X123426168Y-107086105D01*
X123299090Y-107215576D01*
X123177517Y-107337734D01*
X122651067Y-107864500D01*
X123016034Y-107864500D01*
X123148780Y-107864826D01*
X123244987Y-107866195D01*
X123310445Y-107869191D01*
X123350943Y-107874400D01*
X123372274Y-107882405D01*
X123380228Y-107893792D01*
X123381000Y-107901357D01*
X123366524Y-107925218D01*
X123325596Y-107974676D01*
X123261965Y-108045663D01*
X123179380Y-108134111D01*
X123081593Y-108235954D01*
X122972351Y-108347122D01*
X122941981Y-108377607D01*
X122802596Y-108518273D01*
X122693593Y-108630904D01*
X122614303Y-108716239D01*
X122564058Y-108775017D01*
X122542188Y-108807977D01*
X122545106Y-108816256D01*
X122587606Y-108811534D01*
X122655274Y-108800024D01*
X122719188Y-108787204D01*
X122793720Y-108772809D01*
X122838440Y-108769658D01*
X122864382Y-108777867D01*
X122875983Y-108788844D01*
X122888953Y-108811571D01*
X122883024Y-108830926D01*
X122853463Y-108849014D01*
X122795542Y-108867941D01*
X122704529Y-108889814D01*
X122599494Y-108911912D01*
X122484416Y-108935272D01*
X122404124Y-108951004D01*
X122351918Y-108959888D01*
X122321093Y-108962706D01*
X122304948Y-108960237D01*
X122296780Y-108953264D01*
X122293144Y-108947603D01*
X122291425Y-108917777D01*
X122298930Y-108857464D01*
X122313484Y-108776166D01*
X122332913Y-108683387D01*
X122355044Y-108588631D01*
X122377701Y-108501400D01*
X122398712Y-108431200D01*
X122415902Y-108387532D01*
X122423436Y-108378036D01*
X122458982Y-108375098D01*
X122476666Y-108402524D01*
X122477086Y-108463245D01*
X122460840Y-108560192D01*
X122460745Y-108560646D01*
X122445099Y-108636827D01*
X122433639Y-108696069D01*
X122428573Y-108726889D01*
X122428500Y-108728205D01*
X122442757Y-108717827D01*
X122482894Y-108681207D01*
X122544962Y-108622141D01*
X122625013Y-108544426D01*
X122719096Y-108451857D01*
X122809789Y-108361696D01*
X123191078Y-107980917D01*
X122847086Y-107970333D01*
X122715870Y-107965694D01*
X122621325Y-107960634D01*
X122557788Y-107954464D01*
X122519597Y-107946494D01*
X122501089Y-107936034D01*
X122496949Y-107927665D01*
X122510121Y-107906656D01*
X122549625Y-107860135D01*
X122611475Y-107792132D01*
X122691682Y-107706680D01*
X122786260Y-107607810D01*
X122891223Y-107499554D01*
X123002582Y-107385942D01*
X123116351Y-107271008D01*
X123228543Y-107158781D01*
X123335171Y-107053295D01*
X123432247Y-106958580D01*
X123515785Y-106878667D01*
X123581798Y-106817590D01*
X123626299Y-106779378D01*
X123643854Y-106767953D01*
X123672408Y-106765457D01*
X123684015Y-106775355D01*
G36*
X122238000Y-112817500D02*
G01*
X122047500Y-112817500D01*
X122047500Y-111822667D01*
X122238000Y-111822667D01*
X122238000Y-112817500D01*
G37*
X122238000Y-112817500D02*
X122047500Y-112817500D01*
X122047500Y-111822667D01*
X122238000Y-111822667D01*
X122238000Y-112817500D01*
G36*
X123931333Y-112817500D02*
G01*
X123740833Y-112817500D01*
X123740833Y-111822667D01*
X123931333Y-111822667D01*
X123931333Y-112817500D01*
G37*
X123931333Y-112817500D02*
X123740833Y-112817500D01*
X123740833Y-111822667D01*
X123931333Y-111822667D01*
X123931333Y-112817500D01*
D13*
%TO.C,J5*%
X146390000Y-90640000D02*
X146390000Y-91040000D01*
X147030000Y-90640000D02*
X146390000Y-90640000D01*
X153370000Y-99200000D02*
X146630000Y-99200000D01*
X153370000Y-90880000D02*
X146630000Y-90880000D01*
X146630000Y-90880000D02*
X146630000Y-99200000D01*
X153370000Y-90880000D02*
X153370000Y-99200000D01*
X152250000Y-90880000D02*
X152250000Y-99200000D01*
X147150000Y-90880000D02*
X147150000Y-99200000D01*
%TO.C,J7*%
X146390000Y-100640000D02*
X146390000Y-101040000D01*
X147030000Y-100640000D02*
X146390000Y-100640000D01*
X153370000Y-109200000D02*
X146630000Y-109200000D01*
X153370000Y-100880000D02*
X146630000Y-100880000D01*
X146630000Y-100880000D02*
X146630000Y-109200000D01*
X153370000Y-100880000D02*
X153370000Y-109200000D01*
X152250000Y-100880000D02*
X152250000Y-109200000D01*
X147150000Y-100880000D02*
X147150000Y-109200000D01*
%TO.C,J6*%
X146390000Y-110640000D02*
X146390000Y-111040000D01*
X147030000Y-110640000D02*
X146390000Y-110640000D01*
X153370000Y-119200000D02*
X146630000Y-119200000D01*
X153370000Y-110880000D02*
X146630000Y-110880000D01*
X146630000Y-110880000D02*
X146630000Y-119200000D01*
X153370000Y-110880000D02*
X153370000Y-119200000D01*
X152250000Y-110880000D02*
X152250000Y-119200000D01*
X147150000Y-110880000D02*
X147150000Y-119200000D01*
%TO.C,J3*%
X133890000Y-110640000D02*
X133890000Y-111040000D01*
X134530000Y-110640000D02*
X133890000Y-110640000D01*
X140870000Y-119200000D02*
X134130000Y-119200000D01*
X140870000Y-110880000D02*
X134130000Y-110880000D01*
X134130000Y-110880000D02*
X134130000Y-119200000D01*
X140870000Y-110880000D02*
X140870000Y-119200000D01*
X139750000Y-110880000D02*
X139750000Y-119200000D01*
X134650000Y-110880000D02*
X134650000Y-119200000D01*
%TO.C,J4*%
X133890000Y-100640000D02*
X133890000Y-101040000D01*
X134530000Y-100640000D02*
X133890000Y-100640000D01*
X140870000Y-109200000D02*
X134130000Y-109200000D01*
X140870000Y-100880000D02*
X134130000Y-100880000D01*
X134130000Y-100880000D02*
X134130000Y-109200000D01*
X140870000Y-100880000D02*
X140870000Y-109200000D01*
X139750000Y-100880000D02*
X139750000Y-109200000D01*
X134650000Y-100880000D02*
X134650000Y-109200000D01*
%TO.C,R1*%
X125380000Y-103620000D02*
X125380000Y-90380000D01*
X129620000Y-103620000D02*
X129620000Y-90380000D01*
X125380000Y-103620000D02*
X129620000Y-103620000D01*
X125380000Y-90380000D02*
X129620000Y-90380000D01*
%TO.C,J2*%
X134650000Y-90880000D02*
X134650000Y-99200000D01*
X139750000Y-90880000D02*
X139750000Y-99200000D01*
X140870000Y-90880000D02*
X140870000Y-99200000D01*
X134130000Y-90880000D02*
X134130000Y-99200000D01*
X140870000Y-90880000D02*
X134130000Y-90880000D01*
X140870000Y-99200000D02*
X134130000Y-99200000D01*
X134530000Y-90640000D02*
X133890000Y-90640000D01*
X133890000Y-90640000D02*
X133890000Y-91040000D01*
%TO.C,J1*%
X114040000Y-103060000D02*
X120010000Y-103060000D01*
X120010000Y-103060000D02*
X120010000Y-90440000D01*
X120010000Y-90440000D02*
X114040000Y-90440000D01*
X114040000Y-90440000D02*
X114040000Y-103060000D01*
X114050000Y-99750000D02*
X114800000Y-99750000D01*
X114800000Y-99750000D02*
X114800000Y-93750000D01*
X114800000Y-93750000D02*
X114050000Y-93750000D01*
X114050000Y-93750000D02*
X114050000Y-99750000D01*
X114050000Y-103050000D02*
X114800000Y-103050000D01*
X114800000Y-103050000D02*
X114800000Y-101250000D01*
X114800000Y-101250000D02*
X114050000Y-101250000D01*
X114050000Y-101250000D02*
X114050000Y-103050000D01*
X114050000Y-92250000D02*
X114800000Y-92250000D01*
X114800000Y-92250000D02*
X114800000Y-90450000D01*
X114800000Y-90450000D02*
X114050000Y-90450000D01*
X114050000Y-90450000D02*
X114050000Y-92250000D01*
X116300000Y-103050000D02*
X116300000Y-102300000D01*
X116300000Y-102300000D02*
X119250000Y-102300000D01*
X119250000Y-102300000D02*
X119250000Y-96750000D01*
X116300000Y-90450000D02*
X116300000Y-91200000D01*
X116300000Y-91200000D02*
X119250000Y-91200000D01*
X119250000Y-91200000D02*
X119250000Y-96750000D01*
X113750000Y-102100000D02*
X113750000Y-103350000D01*
X113750000Y-103350000D02*
X115000000Y-103350000D01*
%TO.C,J5*%
D11*
X144952380Y-95333333D02*
X145666666Y-95333333D01*
X145809523Y-95380952D01*
X145904761Y-95476190D01*
X145952380Y-95619047D01*
X145952380Y-95714285D01*
X144952380Y-94380952D02*
X144952380Y-94857142D01*
X145428571Y-94904761D01*
X145380952Y-94857142D01*
X145333333Y-94761904D01*
X145333333Y-94523809D01*
X145380952Y-94428571D01*
X145428571Y-94380952D01*
X145523809Y-94333333D01*
X145761904Y-94333333D01*
X145857142Y-94380952D01*
X145904761Y-94428571D01*
X145952380Y-94523809D01*
X145952380Y-94761904D01*
X145904761Y-94857142D01*
X145857142Y-94904761D01*
%TO.C,J7*%
X144952380Y-105333333D02*
X145666666Y-105333333D01*
X145809523Y-105380952D01*
X145904761Y-105476190D01*
X145952380Y-105619047D01*
X145952380Y-105714285D01*
X144952380Y-104952380D02*
X144952380Y-104285714D01*
X145952380Y-104714285D01*
%TO.C,J6*%
X144952380Y-115333333D02*
X145666666Y-115333333D01*
X145809523Y-115380952D01*
X145904761Y-115476190D01*
X145952380Y-115619047D01*
X145952380Y-115714285D01*
X144952380Y-114428571D02*
X144952380Y-114619047D01*
X145000000Y-114714285D01*
X145047619Y-114761904D01*
X145190476Y-114857142D01*
X145380952Y-114904761D01*
X145761904Y-114904761D01*
X145857142Y-114857142D01*
X145904761Y-114809523D01*
X145952380Y-114714285D01*
X145952380Y-114523809D01*
X145904761Y-114428571D01*
X145857142Y-114380952D01*
X145761904Y-114333333D01*
X145523809Y-114333333D01*
X145428571Y-114380952D01*
X145380952Y-114428571D01*
X145333333Y-114523809D01*
X145333333Y-114714285D01*
X145380952Y-114809523D01*
X145428571Y-114857142D01*
X145523809Y-114904761D01*
%TO.C,J3*%
X132452380Y-115333333D02*
X133166666Y-115333333D01*
X133309523Y-115380952D01*
X133404761Y-115476190D01*
X133452380Y-115619047D01*
X133452380Y-115714285D01*
X132452380Y-114952380D02*
X132452380Y-114333333D01*
X132833333Y-114666666D01*
X132833333Y-114523809D01*
X132880952Y-114428571D01*
X132928571Y-114380952D01*
X133023809Y-114333333D01*
X133261904Y-114333333D01*
X133357142Y-114380952D01*
X133404761Y-114428571D01*
X133452380Y-114523809D01*
X133452380Y-114809523D01*
X133404761Y-114904761D01*
X133357142Y-114952380D01*
%TO.C,J4*%
X132452380Y-105333333D02*
X133166666Y-105333333D01*
X133309523Y-105380952D01*
X133404761Y-105476190D01*
X133452380Y-105619047D01*
X133452380Y-105714285D01*
X132785714Y-104428571D02*
X133452380Y-104428571D01*
X132404761Y-104666666D02*
X133119047Y-104904761D01*
X133119047Y-104285714D01*
%TO.C,R1*%
X124702380Y-97166666D02*
X124226190Y-97500000D01*
X124702380Y-97738095D02*
X123702380Y-97738095D01*
X123702380Y-97357142D01*
X123750000Y-97261904D01*
X123797619Y-97214285D01*
X123892857Y-97166666D01*
X124035714Y-97166666D01*
X124130952Y-97214285D01*
X124178571Y-97261904D01*
X124226190Y-97357142D01*
X124226190Y-97738095D01*
X124702380Y-96214285D02*
X124702380Y-96785714D01*
X124702380Y-96500000D02*
X123702380Y-96500000D01*
X123845238Y-96595238D01*
X123940476Y-96690476D01*
X123988095Y-96785714D01*
X130535714Y-97928571D02*
X131202380Y-97928571D01*
X130154761Y-98166666D02*
X130869047Y-98404761D01*
X130869047Y-97785714D01*
X131154761Y-97357142D02*
X131202380Y-97357142D01*
X131297619Y-97404761D01*
X131345238Y-97452380D01*
X130202380Y-97023809D02*
X130202380Y-96357142D01*
X131202380Y-96785714D01*
X131202380Y-95976190D02*
X130202380Y-95976190D01*
X130821428Y-95880952D02*
X131202380Y-95595238D01*
X130535714Y-95595238D02*
X130916666Y-95976190D01*
%TO.C,J2*%
X132452380Y-95333333D02*
X133166666Y-95333333D01*
X133309523Y-95380952D01*
X133404761Y-95476190D01*
X133452380Y-95619047D01*
X133452380Y-95714285D01*
X132547619Y-94904761D02*
X132500000Y-94857142D01*
X132452380Y-94761904D01*
X132452380Y-94523809D01*
X132500000Y-94428571D01*
X132547619Y-94380952D01*
X132642857Y-94333333D01*
X132738095Y-94333333D01*
X132880952Y-94380952D01*
X133452380Y-94952380D01*
X133452380Y-94333333D01*
%TO.C,J1*%
X112402380Y-97083333D02*
X113116666Y-97083333D01*
X113259523Y-97130952D01*
X113354761Y-97226190D01*
X113402380Y-97369047D01*
X113402380Y-97464285D01*
X113402380Y-96083333D02*
X113402380Y-96654761D01*
X113402380Y-96369047D02*
X112402380Y-96369047D01*
X112545238Y-96464285D01*
X112640476Y-96559523D01*
X112688095Y-96654761D01*
%TD*%
M02*
