M48
; DRILL file {KiCad (5.1.7)-1} date 06/19/21 18:40:19
; FORMAT={-:-/ absolute / metric / decimal}
; #@! TF.CreationDate,2021-06-19T18:40:19+01:00
; #@! TF.GenerationSoftware,Kicad,Pcbnew,(5.1.7)-1
; #@! TF.FileFunction,Plated,1,2,PTH
FMAT,2
METRIC
T1C0.950
T2C1.000
T3C1.100
%
G90
G05
T1
X116.5Y-93.0
X116.5Y-95.5
X116.5Y-98.0
X116.5Y-100.5
T2
X127.5Y-92.5
X127.5Y-101.5
T3
X150.0Y-112.5
X150.0Y-115.04
X150.0Y-117.58
X137.5Y-92.5
X137.5Y-95.04
X137.5Y-97.58
X150.0Y-102.5
X150.0Y-105.04
X150.0Y-107.58
X137.5Y-102.5
X137.5Y-105.04
X137.5Y-107.58
X137.5Y-112.5
X137.5Y-115.04
X137.5Y-117.58
X150.0Y-92.5
X150.0Y-95.04
X150.0Y-97.58
T0
M30
