%TF.GenerationSoftware,KiCad,Pcbnew,5.1.10-88a1d61d58~90~ubuntu20.04.1*%
%TF.CreationDate,2022-03-11T15:03:33+00:00*%
%TF.ProjectId,solenoid_driver,736f6c65-6e6f-4696-945f-647269766572,rev?*%
%TF.SameCoordinates,Original*%
%TF.FileFunction,Other,ECO1*%
%FSLAX46Y46*%
G04 Gerber Fmt 4.6, Leading zero omitted, Abs format (unit mm)*
G04 Created by KiCad (PCBNEW 5.1.10-88a1d61d58~90~ubuntu20.04.1) date 2022-03-11 15:03:33*
%MOMM*%
%LPD*%
G01*
G04 APERTURE LIST*
%ADD10C,0.150000*%
G04 APERTURE END LIST*
D10*
X170014285Y-101083333D02*
X169347619Y-101083333D01*
X170395238Y-100845238D02*
X169680952Y-100607142D01*
X169680952Y-101226190D01*
X169919047Y-101750000D02*
X169966666Y-101654761D01*
X170014285Y-101607142D01*
X170109523Y-101559523D01*
X170157142Y-101559523D01*
X170252380Y-101607142D01*
X170300000Y-101654761D01*
X170347619Y-101750000D01*
X170347619Y-101940476D01*
X170300000Y-102035714D01*
X170252380Y-102083333D01*
X170157142Y-102130952D01*
X170109523Y-102130952D01*
X170014285Y-102083333D01*
X169966666Y-102035714D01*
X169919047Y-101940476D01*
X169919047Y-101750000D01*
X169871428Y-101654761D01*
X169823809Y-101607142D01*
X169728571Y-101559523D01*
X169538095Y-101559523D01*
X169442857Y-101607142D01*
X169395238Y-101654761D01*
X169347619Y-101750000D01*
X169347619Y-101940476D01*
X169395238Y-102035714D01*
X169442857Y-102083333D01*
X169538095Y-102130952D01*
X169728571Y-102130952D01*
X169823809Y-102083333D01*
X169871428Y-102035714D01*
X169919047Y-101940476D01*
X169442857Y-102559523D02*
X169395238Y-102607142D01*
X169347619Y-102559523D01*
X169395238Y-102511904D01*
X169442857Y-102559523D01*
X169347619Y-102559523D01*
X170347619Y-103511904D02*
X170347619Y-103035714D01*
X169871428Y-102988095D01*
X169919047Y-103035714D01*
X169966666Y-103130952D01*
X169966666Y-103369047D01*
X169919047Y-103464285D01*
X169871428Y-103511904D01*
X169776190Y-103559523D01*
X169538095Y-103559523D01*
X169442857Y-103511904D01*
X169395238Y-103464285D01*
X169347619Y-103369047D01*
X169347619Y-103130952D01*
X169395238Y-103035714D01*
X169442857Y-102988095D01*
X170347619Y-104178571D02*
X170347619Y-104273809D01*
X170300000Y-104369047D01*
X170252380Y-104416666D01*
X170157142Y-104464285D01*
X169966666Y-104511904D01*
X169728571Y-104511904D01*
X169538095Y-104464285D01*
X169442857Y-104416666D01*
X169395238Y-104369047D01*
X169347619Y-104273809D01*
X169347619Y-104178571D01*
X169395238Y-104083333D01*
X169442857Y-104035714D01*
X169538095Y-103988095D01*
X169728571Y-103940476D01*
X169966666Y-103940476D01*
X170157142Y-103988095D01*
X170252380Y-104035714D01*
X170300000Y-104083333D01*
X170347619Y-104178571D01*
X170347619Y-105130952D02*
X170347619Y-105226190D01*
X170300000Y-105321428D01*
X170252380Y-105369047D01*
X170157142Y-105416666D01*
X169966666Y-105464285D01*
X169728571Y-105464285D01*
X169538095Y-105416666D01*
X169442857Y-105369047D01*
X169395238Y-105321428D01*
X169347619Y-105226190D01*
X169347619Y-105130952D01*
X169395238Y-105035714D01*
X169442857Y-104988095D01*
X169538095Y-104940476D01*
X169728571Y-104892857D01*
X169966666Y-104892857D01*
X170157142Y-104940476D01*
X170252380Y-104988095D01*
X170300000Y-105035714D01*
X170347619Y-105130952D01*
X169347619Y-106654761D02*
X170014285Y-106654761D01*
X169919047Y-106654761D02*
X169966666Y-106702380D01*
X170014285Y-106797619D01*
X170014285Y-106940476D01*
X169966666Y-107035714D01*
X169871428Y-107083333D01*
X169347619Y-107083333D01*
X169871428Y-107083333D02*
X169966666Y-107130952D01*
X170014285Y-107226190D01*
X170014285Y-107369047D01*
X169966666Y-107464285D01*
X169871428Y-107511904D01*
X169347619Y-107511904D01*
X169347619Y-107988095D02*
X170014285Y-107988095D01*
X169919047Y-107988095D02*
X169966666Y-108035714D01*
X170014285Y-108130952D01*
X170014285Y-108273809D01*
X169966666Y-108369047D01*
X169871428Y-108416666D01*
X169347619Y-108416666D01*
X169871428Y-108416666D02*
X169966666Y-108464285D01*
X170014285Y-108559523D01*
X170014285Y-108702380D01*
X169966666Y-108797619D01*
X169871428Y-108845238D01*
X169347619Y-108845238D01*
X168500000Y-80500000D02*
X168500000Y-129000000D01*
X157500000Y-80500000D02*
X169086421Y-80500000D01*
X157500000Y-129000000D02*
X169086421Y-129000000D01*
X168500000Y-129000000D02*
X167913579Y-127873496D01*
X168500000Y-129000000D02*
X169086421Y-127873496D01*
X168500000Y-80500000D02*
X167913579Y-81626504D01*
X168500000Y-80500000D02*
X169086421Y-81626504D01*
X131083333Y-68485714D02*
X131083333Y-69152380D01*
X130845238Y-68104761D02*
X130607142Y-68819047D01*
X131226190Y-68819047D01*
X132083333Y-68152380D02*
X131607142Y-68152380D01*
X131559523Y-68628571D01*
X131607142Y-68580952D01*
X131702380Y-68533333D01*
X131940476Y-68533333D01*
X132035714Y-68580952D01*
X132083333Y-68628571D01*
X132130952Y-68723809D01*
X132130952Y-68961904D01*
X132083333Y-69057142D01*
X132035714Y-69104761D01*
X131940476Y-69152380D01*
X131702380Y-69152380D01*
X131607142Y-69104761D01*
X131559523Y-69057142D01*
X132559523Y-69057142D02*
X132607142Y-69104761D01*
X132559523Y-69152380D01*
X132511904Y-69104761D01*
X132559523Y-69057142D01*
X132559523Y-69152380D01*
X133511904Y-68152380D02*
X133035714Y-68152380D01*
X132988095Y-68628571D01*
X133035714Y-68580952D01*
X133130952Y-68533333D01*
X133369047Y-68533333D01*
X133464285Y-68580952D01*
X133511904Y-68628571D01*
X133559523Y-68723809D01*
X133559523Y-68961904D01*
X133511904Y-69057142D01*
X133464285Y-69104761D01*
X133369047Y-69152380D01*
X133130952Y-69152380D01*
X133035714Y-69104761D01*
X132988095Y-69057142D01*
X134178571Y-68152380D02*
X134273809Y-68152380D01*
X134369047Y-68200000D01*
X134416666Y-68247619D01*
X134464285Y-68342857D01*
X134511904Y-68533333D01*
X134511904Y-68771428D01*
X134464285Y-68961904D01*
X134416666Y-69057142D01*
X134369047Y-69104761D01*
X134273809Y-69152380D01*
X134178571Y-69152380D01*
X134083333Y-69104761D01*
X134035714Y-69057142D01*
X133988095Y-68961904D01*
X133940476Y-68771428D01*
X133940476Y-68533333D01*
X133988095Y-68342857D01*
X134035714Y-68247619D01*
X134083333Y-68200000D01*
X134178571Y-68152380D01*
X135130952Y-68152380D02*
X135226190Y-68152380D01*
X135321428Y-68200000D01*
X135369047Y-68247619D01*
X135416666Y-68342857D01*
X135464285Y-68533333D01*
X135464285Y-68771428D01*
X135416666Y-68961904D01*
X135369047Y-69057142D01*
X135321428Y-69104761D01*
X135226190Y-69152380D01*
X135130952Y-69152380D01*
X135035714Y-69104761D01*
X134988095Y-69057142D01*
X134940476Y-68961904D01*
X134892857Y-68771428D01*
X134892857Y-68533333D01*
X134940476Y-68342857D01*
X134988095Y-68247619D01*
X135035714Y-68200000D01*
X135130952Y-68152380D01*
X136654761Y-69152380D02*
X136654761Y-68485714D01*
X136654761Y-68580952D02*
X136702380Y-68533333D01*
X136797619Y-68485714D01*
X136940476Y-68485714D01*
X137035714Y-68533333D01*
X137083333Y-68628571D01*
X137083333Y-69152380D01*
X137083333Y-68628571D02*
X137130952Y-68533333D01*
X137226190Y-68485714D01*
X137369047Y-68485714D01*
X137464285Y-68533333D01*
X137511904Y-68628571D01*
X137511904Y-69152380D01*
X137988095Y-69152380D02*
X137988095Y-68485714D01*
X137988095Y-68580952D02*
X138035714Y-68533333D01*
X138130952Y-68485714D01*
X138273809Y-68485714D01*
X138369047Y-68533333D01*
X138416666Y-68628571D01*
X138416666Y-69152380D01*
X138416666Y-68628571D02*
X138464285Y-68533333D01*
X138559523Y-68485714D01*
X138702380Y-68485714D01*
X138797619Y-68533333D01*
X138845238Y-68628571D01*
X138845238Y-69152380D01*
X112000000Y-70000000D02*
X157500000Y-70000000D01*
X112000000Y-80500000D02*
X112000000Y-69413579D01*
X157500000Y-80500000D02*
X157500000Y-69413579D01*
X157500000Y-70000000D02*
X156373496Y-70586421D01*
X157500000Y-70000000D02*
X156373496Y-69413579D01*
X112000000Y-70000000D02*
X113126504Y-70586421D01*
X112000000Y-70000000D02*
X113126504Y-69413579D01*
X130559523Y-72152380D02*
X131178571Y-72152380D01*
X130845238Y-72533333D01*
X130988095Y-72533333D01*
X131083333Y-72580952D01*
X131130952Y-72628571D01*
X131178571Y-72723809D01*
X131178571Y-72961904D01*
X131130952Y-73057142D01*
X131083333Y-73104761D01*
X130988095Y-73152380D01*
X130702380Y-73152380D01*
X130607142Y-73104761D01*
X130559523Y-73057142D01*
X131750000Y-72580952D02*
X131654761Y-72533333D01*
X131607142Y-72485714D01*
X131559523Y-72390476D01*
X131559523Y-72342857D01*
X131607142Y-72247619D01*
X131654761Y-72200000D01*
X131750000Y-72152380D01*
X131940476Y-72152380D01*
X132035714Y-72200000D01*
X132083333Y-72247619D01*
X132130952Y-72342857D01*
X132130952Y-72390476D01*
X132083333Y-72485714D01*
X132035714Y-72533333D01*
X131940476Y-72580952D01*
X131750000Y-72580952D01*
X131654761Y-72628571D01*
X131607142Y-72676190D01*
X131559523Y-72771428D01*
X131559523Y-72961904D01*
X131607142Y-73057142D01*
X131654761Y-73104761D01*
X131750000Y-73152380D01*
X131940476Y-73152380D01*
X132035714Y-73104761D01*
X132083333Y-73057142D01*
X132130952Y-72961904D01*
X132130952Y-72771428D01*
X132083333Y-72676190D01*
X132035714Y-72628571D01*
X131940476Y-72580952D01*
X132559523Y-73057142D02*
X132607142Y-73104761D01*
X132559523Y-73152380D01*
X132511904Y-73104761D01*
X132559523Y-73057142D01*
X132559523Y-73152380D01*
X133511904Y-72152380D02*
X133035714Y-72152380D01*
X132988095Y-72628571D01*
X133035714Y-72580952D01*
X133130952Y-72533333D01*
X133369047Y-72533333D01*
X133464285Y-72580952D01*
X133511904Y-72628571D01*
X133559523Y-72723809D01*
X133559523Y-72961904D01*
X133511904Y-73057142D01*
X133464285Y-73104761D01*
X133369047Y-73152380D01*
X133130952Y-73152380D01*
X133035714Y-73104761D01*
X132988095Y-73057142D01*
X134178571Y-72152380D02*
X134273809Y-72152380D01*
X134369047Y-72200000D01*
X134416666Y-72247619D01*
X134464285Y-72342857D01*
X134511904Y-72533333D01*
X134511904Y-72771428D01*
X134464285Y-72961904D01*
X134416666Y-73057142D01*
X134369047Y-73104761D01*
X134273809Y-73152380D01*
X134178571Y-73152380D01*
X134083333Y-73104761D01*
X134035714Y-73057142D01*
X133988095Y-72961904D01*
X133940476Y-72771428D01*
X133940476Y-72533333D01*
X133988095Y-72342857D01*
X134035714Y-72247619D01*
X134083333Y-72200000D01*
X134178571Y-72152380D01*
X135130952Y-72152380D02*
X135226190Y-72152380D01*
X135321428Y-72200000D01*
X135369047Y-72247619D01*
X135416666Y-72342857D01*
X135464285Y-72533333D01*
X135464285Y-72771428D01*
X135416666Y-72961904D01*
X135369047Y-73057142D01*
X135321428Y-73104761D01*
X135226190Y-73152380D01*
X135130952Y-73152380D01*
X135035714Y-73104761D01*
X134988095Y-73057142D01*
X134940476Y-72961904D01*
X134892857Y-72771428D01*
X134892857Y-72533333D01*
X134940476Y-72342857D01*
X134988095Y-72247619D01*
X135035714Y-72200000D01*
X135130952Y-72152380D01*
X136654761Y-73152380D02*
X136654761Y-72485714D01*
X136654761Y-72580952D02*
X136702380Y-72533333D01*
X136797619Y-72485714D01*
X136940476Y-72485714D01*
X137035714Y-72533333D01*
X137083333Y-72628571D01*
X137083333Y-73152380D01*
X137083333Y-72628571D02*
X137130952Y-72533333D01*
X137226190Y-72485714D01*
X137369047Y-72485714D01*
X137464285Y-72533333D01*
X137511904Y-72628571D01*
X137511904Y-73152380D01*
X137988095Y-73152380D02*
X137988095Y-72485714D01*
X137988095Y-72580952D02*
X138035714Y-72533333D01*
X138130952Y-72485714D01*
X138273809Y-72485714D01*
X138369047Y-72533333D01*
X138416666Y-72628571D01*
X138416666Y-73152380D01*
X138416666Y-72628571D02*
X138464285Y-72533333D01*
X138559523Y-72485714D01*
X138702380Y-72485714D01*
X138797619Y-72533333D01*
X138845238Y-72628571D01*
X138845238Y-73152380D01*
X115500000Y-74000000D02*
X154000000Y-74000000D01*
X115500000Y-84000000D02*
X115500000Y-73413579D01*
X154000000Y-84000000D02*
X154000000Y-73413579D01*
X154000000Y-74000000D02*
X152873496Y-74586421D01*
X154000000Y-74000000D02*
X152873496Y-73413579D01*
X115500000Y-74000000D02*
X116626504Y-74586421D01*
X115500000Y-74000000D02*
X116626504Y-73413579D01*
M02*
