%TF.GenerationSoftware,KiCad,Pcbnew,(5.1.10)-1*%
%TF.CreationDate,2022-05-05T15:35:37+01:00*%
%TF.ProjectId,solenoid_driver,736f6c65-6e6f-4696-945f-647269766572,rev?*%
%TF.SameCoordinates,Original*%
%TF.FileFunction,Copper,L2,Bot*%
%TF.FilePolarity,Positive*%
%FSLAX46Y46*%
G04 Gerber Fmt 4.6, Leading zero omitted, Abs format (unit mm)*
G04 Created by KiCad (PCBNEW (5.1.10)-1) date 2022-05-05 15:35:37*
%MOMM*%
%LPD*%
G01*
G04 APERTURE LIST*
%TA.AperFunction,ComponentPad*%
%ADD10C,2.000000*%
%TD*%
%TA.AperFunction,ComponentPad*%
%ADD11O,1.950000X1.700000*%
%TD*%
%TA.AperFunction,ComponentPad*%
%ADD12R,3.200000X3.200000*%
%TD*%
%TA.AperFunction,ComponentPad*%
%ADD13O,3.200000X3.200000*%
%TD*%
%TA.AperFunction,ComponentPad*%
%ADD14O,2.000000X1.700000*%
%TD*%
%TA.AperFunction,ComponentPad*%
%ADD15O,1.905000X2.000000*%
%TD*%
%TA.AperFunction,ComponentPad*%
%ADD16R,1.905000X2.000000*%
%TD*%
%TA.AperFunction,Conductor*%
%ADD17C,0.500000*%
%TD*%
%TA.AperFunction,Conductor*%
%ADD18C,0.100000*%
%TD*%
G04 APERTURE END LIST*
D10*
%TO.P,R1,2*%
%TO.N,Net-(Q2-Pad1)*%
X126174500Y-92219000D03*
%TO.P,R1,1*%
%TO.N,solenoid1*%
X126174500Y-101219000D03*
%TD*%
D11*
%TO.P,J1,4*%
%TO.N,GND*%
X116500000Y-93000000D03*
%TO.P,J1,3*%
%TO.N,+5V*%
X116500000Y-95500000D03*
%TO.P,J1,2*%
%TO.N,solenoid2*%
X116500000Y-98000000D03*
%TO.P,J1,1*%
%TO.N,solenoid1*%
%TA.AperFunction,ComponentPad*%
G36*
G01*
X117225000Y-101350000D02*
X115775000Y-101350000D01*
G75*
G02*
X115525000Y-101100000I0J250000D01*
G01*
X115525000Y-99900000D01*
G75*
G02*
X115775000Y-99650000I250000J0D01*
G01*
X117225000Y-99650000D01*
G75*
G02*
X117475000Y-99900000I0J-250000D01*
G01*
X117475000Y-101100000D01*
G75*
G02*
X117225000Y-101350000I-250000J0D01*
G01*
G37*
%TD.AperFunction*%
%TD*%
D12*
%TO.P,D1,1*%
%TO.N,+12V*%
X142430500Y-111633000D03*
D13*
%TO.P,D1,2*%
%TO.N,Net-(D1-Pad2)*%
X142430500Y-96393000D03*
%TD*%
%TO.P,D2,2*%
%TO.N,Net-(D2-Pad2)*%
X134937500Y-96393000D03*
D12*
%TO.P,D2,1*%
%TO.N,+12V*%
X134937500Y-111633000D03*
%TD*%
%TO.P,J4,1*%
%TO.N,+12V*%
%TA.AperFunction,ComponentPad*%
G36*
G01*
X151499000Y-97243000D02*
X149999000Y-97243000D01*
G75*
G02*
X149749000Y-96993000I0J250000D01*
G01*
X149749000Y-95793000D01*
G75*
G02*
X149999000Y-95543000I250000J0D01*
G01*
X151499000Y-95543000D01*
G75*
G02*
X151749000Y-95793000I0J-250000D01*
G01*
X151749000Y-96993000D01*
G75*
G02*
X151499000Y-97243000I-250000J0D01*
G01*
G37*
%TD.AperFunction*%
D14*
%TO.P,J4,2*%
%TO.N,Net-(D2-Pad2)*%
X150749000Y-93893000D03*
%TD*%
D15*
%TO.P,Q1,3*%
%TO.N,GND*%
X143573500Y-83883500D03*
%TO.P,Q1,2*%
%TO.N,Net-(D1-Pad2)*%
X141033500Y-83883500D03*
D16*
%TO.P,Q1,1*%
%TO.N,Net-(Q1-Pad1)*%
X138493500Y-83883500D03*
%TD*%
%TO.P,Q2,1*%
%TO.N,Net-(Q2-Pad1)*%
X124587000Y-83947000D03*
D15*
%TO.P,Q2,2*%
%TO.N,Net-(D2-Pad2)*%
X127127000Y-83947000D03*
%TO.P,Q2,3*%
%TO.N,GND*%
X129667000Y-83947000D03*
%TD*%
D10*
%TO.P,R2,1*%
%TO.N,solenoid2*%
X126111000Y-116967000D03*
%TO.P,R2,2*%
%TO.N,Net-(Q1-Pad1)*%
X126111000Y-107967000D03*
%TD*%
%TO.P,J2,1*%
%TO.N,+12V*%
%TA.AperFunction,ComponentPad*%
G36*
G01*
X117272500Y-113245000D02*
X115772500Y-113245000D01*
G75*
G02*
X115522500Y-112995000I0J250000D01*
G01*
X115522500Y-111795000D01*
G75*
G02*
X115772500Y-111545000I250000J0D01*
G01*
X117272500Y-111545000D01*
G75*
G02*
X117522500Y-111795000I0J-250000D01*
G01*
X117522500Y-112995000D01*
G75*
G02*
X117272500Y-113245000I-250000J0D01*
G01*
G37*
%TD.AperFunction*%
D14*
%TO.P,J2,2*%
%TO.N,GND*%
X116522500Y-109895000D03*
%TD*%
%TO.P,J3,2*%
%TO.N,Net-(D1-Pad2)*%
X150939500Y-112943000D03*
%TO.P,J3,1*%
%TO.N,+12V*%
%TA.AperFunction,ComponentPad*%
G36*
G01*
X151689500Y-116293000D02*
X150189500Y-116293000D01*
G75*
G02*
X149939500Y-116043000I0J250000D01*
G01*
X149939500Y-114843000D01*
G75*
G02*
X150189500Y-114593000I250000J0D01*
G01*
X151689500Y-114593000D01*
G75*
G02*
X151939500Y-114843000I0J-250000D01*
G01*
X151939500Y-116043000D01*
G75*
G02*
X151689500Y-116293000I-250000J0D01*
G01*
G37*
%TD.AperFunction*%
%TD*%
D17*
%TO.N,+12V*%
X116522500Y-112395000D02*
X116522500Y-117030500D01*
X116522500Y-117030500D02*
X120396000Y-120904000D01*
X145478500Y-120904000D02*
X150939500Y-115443000D01*
X134937500Y-116776500D02*
X130810000Y-120904000D01*
X134937500Y-111633000D02*
X134937500Y-116776500D01*
X120396000Y-120904000D02*
X130810000Y-120904000D01*
X142430500Y-111633000D02*
X142430500Y-117411500D01*
X142430500Y-117411500D02*
X138938000Y-120904000D01*
X130810000Y-120904000D02*
X138938000Y-120904000D01*
X150749000Y-96393000D02*
X150749000Y-108331000D01*
X150749000Y-108331000D02*
X146558000Y-112522000D01*
X146558000Y-117602000D02*
X143256000Y-120904000D01*
X146558000Y-112522000D02*
X146558000Y-117602000D01*
X143256000Y-120904000D02*
X145478500Y-120904000D01*
X138938000Y-120904000D02*
X143256000Y-120904000D01*
%TO.N,Net-(D1-Pad2)*%
X141033500Y-94996000D02*
X142430500Y-96393000D01*
X141033500Y-83883500D02*
X141033500Y-88201500D01*
X141033500Y-88201500D02*
X141033500Y-94996000D01*
X153416000Y-110466500D02*
X152769250Y-111113250D01*
X152908000Y-89916000D02*
X153416000Y-90424000D01*
X142240000Y-89916000D02*
X152908000Y-89916000D01*
X153416000Y-90424000D02*
X153416000Y-110466500D01*
X141033500Y-88709500D02*
X142240000Y-89916000D01*
X141033500Y-88201500D02*
X141033500Y-88709500D01*
X152769250Y-111113250D02*
X150939500Y-112943000D01*
%TO.N,Net-(D2-Pad2)*%
X134937500Y-96393000D02*
X138366500Y-99822000D01*
X138366500Y-99822000D02*
X144272000Y-99822000D01*
X148376000Y-96266000D02*
X150749000Y-93893000D01*
X147828000Y-96266000D02*
X148376000Y-96266000D01*
X144272000Y-99822000D02*
X147828000Y-96266000D01*
X134937500Y-96393000D02*
X127254000Y-88709500D01*
X127254000Y-84074000D02*
X127127000Y-83947000D01*
X127254000Y-88709500D02*
X127254000Y-84074000D01*
%TO.N,solenoid2*%
X126111000Y-116967000D02*
X126111000Y-114935000D01*
X126111000Y-114935000D02*
X122682000Y-111506000D01*
X122682000Y-111506000D02*
X122682000Y-108204000D01*
X122682000Y-108204000D02*
X129032000Y-101854000D01*
X129032000Y-101854000D02*
X129032000Y-100330000D01*
X129032000Y-100330000D02*
X127254000Y-98552000D01*
X117052000Y-98552000D02*
X116500000Y-98000000D01*
X127254000Y-98552000D02*
X117052000Y-98552000D01*
%TO.N,solenoid1*%
X125455500Y-100500000D02*
X126174500Y-101219000D01*
X116500000Y-100500000D02*
X125455500Y-100500000D01*
%TO.N,Net-(Q1-Pad1)*%
X133045010Y-80975010D02*
X121716990Y-80975010D01*
X130810000Y-103268000D02*
X130810000Y-99568000D01*
X130810000Y-99568000D02*
X128270000Y-97028000D01*
X126111000Y-107967000D02*
X130810000Y-103268000D01*
X121158000Y-93980000D02*
X121158000Y-81534000D01*
X121158000Y-81534000D02*
X121716990Y-80975010D01*
X128270000Y-97028000D02*
X124206000Y-97028000D01*
X124206000Y-97028000D02*
X121158000Y-93980000D01*
X133045010Y-80975010D02*
X137617010Y-80975010D01*
X138493500Y-81851500D02*
X138493500Y-83883500D01*
X137617010Y-80975010D02*
X138493500Y-81851500D01*
%TO.N,Net-(Q2-Pad1)*%
X126174500Y-92219000D02*
X124460000Y-90504500D01*
X124460000Y-84074000D02*
X124587000Y-83947000D01*
X124460000Y-90504500D02*
X124460000Y-84074000D01*
%TD*%
%TO.N,GND*%
X120172470Y-81337966D02*
X120153162Y-81534000D01*
X120158001Y-81583130D01*
X120158000Y-93930880D01*
X120153162Y-93980000D01*
X120172470Y-94176034D01*
X120213247Y-94310457D01*
X120229651Y-94364534D01*
X120322508Y-94538258D01*
X120447472Y-94690528D01*
X120485637Y-94721849D01*
X123315787Y-97552000D01*
X118161096Y-97552000D01*
X118110359Y-97384744D01*
X117961788Y-97106787D01*
X117761845Y-96863155D01*
X117623965Y-96750000D01*
X117761845Y-96636845D01*
X117961788Y-96393213D01*
X118110359Y-96115256D01*
X118201849Y-95813655D01*
X118232741Y-95500000D01*
X118201849Y-95186345D01*
X118110359Y-94884744D01*
X117961788Y-94606787D01*
X117761845Y-94363155D01*
X117615728Y-94243240D01*
X117796226Y-94082876D01*
X117984980Y-93833574D01*
X118121471Y-93552238D01*
X118146783Y-93494143D01*
X118015200Y-93250000D01*
X116750000Y-93250000D01*
X116750000Y-93270000D01*
X116250000Y-93270000D01*
X116250000Y-93250000D01*
X114984800Y-93250000D01*
X114853217Y-93494143D01*
X114878529Y-93552238D01*
X115015020Y-93833574D01*
X115203774Y-94082876D01*
X115384272Y-94243240D01*
X115238155Y-94363155D01*
X115038212Y-94606787D01*
X114889641Y-94884744D01*
X114798151Y-95186345D01*
X114767259Y-95500000D01*
X114798151Y-95813655D01*
X114889641Y-96115256D01*
X115038212Y-96393213D01*
X115238155Y-96636845D01*
X115376035Y-96750000D01*
X115238155Y-96863155D01*
X115038212Y-97106787D01*
X114889641Y-97384744D01*
X114798151Y-97686345D01*
X114767259Y-98000000D01*
X114798151Y-98313655D01*
X114889641Y-98615256D01*
X115038212Y-98893213D01*
X115194828Y-99084050D01*
X115065328Y-99190328D01*
X114940514Y-99342414D01*
X114847769Y-99515928D01*
X114790656Y-99704202D01*
X114771372Y-99900000D01*
X114771372Y-101100000D01*
X114790656Y-101295798D01*
X114847769Y-101484072D01*
X114940514Y-101657586D01*
X115065328Y-101809672D01*
X115217414Y-101934486D01*
X115390928Y-102027231D01*
X115579202Y-102084344D01*
X115775000Y-102103628D01*
X117225000Y-102103628D01*
X117420798Y-102084344D01*
X117609072Y-102027231D01*
X117782586Y-101934486D01*
X117934672Y-101809672D01*
X118059486Y-101657586D01*
X118143717Y-101500000D01*
X124446110Y-101500000D01*
X124491751Y-101729456D01*
X124623670Y-102047936D01*
X124815186Y-102334560D01*
X125058940Y-102578314D01*
X125345564Y-102769830D01*
X125664044Y-102901749D01*
X126002140Y-102969000D01*
X126346860Y-102969000D01*
X126541504Y-102930283D01*
X122009632Y-107462156D01*
X121971473Y-107493472D01*
X121846509Y-107645742D01*
X121796875Y-107738600D01*
X121753651Y-107819466D01*
X121696470Y-108007966D01*
X121677162Y-108204000D01*
X121682001Y-108253130D01*
X121682000Y-111456880D01*
X121677162Y-111506000D01*
X121696470Y-111702034D01*
X121737333Y-111836742D01*
X121753651Y-111890534D01*
X121846508Y-112064258D01*
X121971472Y-112216528D01*
X122009637Y-112247849D01*
X125111001Y-115349214D01*
X125111001Y-115530471D01*
X124995440Y-115607686D01*
X124751686Y-115851440D01*
X124560170Y-116138064D01*
X124428251Y-116456544D01*
X124361000Y-116794640D01*
X124361000Y-117139360D01*
X124428251Y-117477456D01*
X124560170Y-117795936D01*
X124751686Y-118082560D01*
X124995440Y-118326314D01*
X125282064Y-118517830D01*
X125600544Y-118649749D01*
X125938640Y-118717000D01*
X126283360Y-118717000D01*
X126621456Y-118649749D01*
X126939936Y-118517830D01*
X127226560Y-118326314D01*
X127470314Y-118082560D01*
X127661830Y-117795936D01*
X127793749Y-117477456D01*
X127861000Y-117139360D01*
X127861000Y-116794640D01*
X127793749Y-116456544D01*
X127661830Y-116138064D01*
X127470314Y-115851440D01*
X127226560Y-115607686D01*
X127111000Y-115530471D01*
X127111000Y-114984117D01*
X127115838Y-114934999D01*
X127110888Y-114884743D01*
X127096530Y-114738966D01*
X127039349Y-114550465D01*
X126946492Y-114376742D01*
X126821528Y-114224472D01*
X126783368Y-114193155D01*
X123682000Y-111091788D01*
X123682000Y-108618212D01*
X124361000Y-107939212D01*
X124361000Y-108139360D01*
X124428251Y-108477456D01*
X124560170Y-108795936D01*
X124751686Y-109082560D01*
X124995440Y-109326314D01*
X125282064Y-109517830D01*
X125600544Y-109649749D01*
X125938640Y-109717000D01*
X126283360Y-109717000D01*
X126621456Y-109649749D01*
X126939936Y-109517830D01*
X127226560Y-109326314D01*
X127470314Y-109082560D01*
X127661830Y-108795936D01*
X127793749Y-108477456D01*
X127861000Y-108139360D01*
X127861000Y-107794640D01*
X127833886Y-107658327D01*
X131482374Y-104009840D01*
X131520528Y-103978528D01*
X131645492Y-103826258D01*
X131738349Y-103652535D01*
X131795530Y-103464034D01*
X131810000Y-103317120D01*
X131810000Y-103317119D01*
X131814838Y-103268000D01*
X131810000Y-103218880D01*
X131810000Y-99617117D01*
X131814838Y-99567999D01*
X131809709Y-99515928D01*
X131795530Y-99371966D01*
X131738349Y-99183465D01*
X131645492Y-99009742D01*
X131520528Y-98857472D01*
X131482374Y-98826160D01*
X129011849Y-96355637D01*
X128980528Y-96317472D01*
X128828258Y-96192508D01*
X128654535Y-96099651D01*
X128466034Y-96042470D01*
X128319120Y-96028000D01*
X128270000Y-96023162D01*
X128220880Y-96028000D01*
X124620213Y-96028000D01*
X122158000Y-93565788D01*
X122158000Y-81975010D01*
X137202798Y-81975010D01*
X137377222Y-82149435D01*
X137252599Y-82187239D01*
X137122307Y-82256881D01*
X137008105Y-82350605D01*
X136914381Y-82464807D01*
X136844739Y-82595099D01*
X136801853Y-82736474D01*
X136787372Y-82883500D01*
X136787372Y-84883500D01*
X136801853Y-85030526D01*
X136844739Y-85171901D01*
X136914381Y-85302193D01*
X137008105Y-85416395D01*
X137122307Y-85510119D01*
X137252599Y-85579761D01*
X137393974Y-85622647D01*
X137541000Y-85637128D01*
X139446000Y-85637128D01*
X139593026Y-85622647D01*
X139734401Y-85579761D01*
X139864693Y-85510119D01*
X139978895Y-85416395D01*
X140033500Y-85349859D01*
X140033501Y-88152371D01*
X140033500Y-88152381D01*
X140033500Y-88660379D01*
X140028662Y-88709500D01*
X140033500Y-88758619D01*
X140033501Y-94946870D01*
X140028662Y-94996000D01*
X140047970Y-95192034D01*
X140105151Y-95380534D01*
X140119549Y-95407470D01*
X140198009Y-95554258D01*
X140222125Y-95583643D01*
X140170809Y-95707530D01*
X140080500Y-96161545D01*
X140080500Y-96624455D01*
X140170809Y-97078470D01*
X140347957Y-97506143D01*
X140605136Y-97891038D01*
X140932462Y-98218364D01*
X141317357Y-98475543D01*
X141745030Y-98652691D01*
X142199045Y-98743000D01*
X142661955Y-98743000D01*
X143115970Y-98652691D01*
X143543643Y-98475543D01*
X143928538Y-98218364D01*
X144255864Y-97891038D01*
X144513043Y-97506143D01*
X144690191Y-97078470D01*
X144780500Y-96624455D01*
X144780500Y-96161545D01*
X144690191Y-95707530D01*
X144513043Y-95279857D01*
X144255864Y-94894962D01*
X143928538Y-94567636D01*
X143543643Y-94310457D01*
X143115970Y-94133309D01*
X142661955Y-94043000D01*
X142199045Y-94043000D01*
X142033500Y-94075929D01*
X142033500Y-90898355D01*
X142043966Y-90901530D01*
X142240000Y-90920838D01*
X142289120Y-90916000D01*
X152416000Y-90916000D01*
X152416000Y-93382051D01*
X152384359Y-93277744D01*
X152235788Y-92999787D01*
X152035845Y-92756155D01*
X151792213Y-92556212D01*
X151514256Y-92407641D01*
X151212655Y-92316151D01*
X150977597Y-92293000D01*
X150520403Y-92293000D01*
X150285345Y-92316151D01*
X149983744Y-92407641D01*
X149705787Y-92556212D01*
X149462155Y-92756155D01*
X149262212Y-92999787D01*
X149113641Y-93277744D01*
X149022151Y-93579345D01*
X148991259Y-93893000D01*
X149022060Y-94205727D01*
X147961788Y-95266000D01*
X147877117Y-95266000D01*
X147827999Y-95261162D01*
X147778881Y-95266000D01*
X147778880Y-95266000D01*
X147631966Y-95280470D01*
X147443465Y-95337651D01*
X147269742Y-95430508D01*
X147117472Y-95555472D01*
X147086155Y-95593632D01*
X143857788Y-98822000D01*
X138780713Y-98822000D01*
X137150326Y-97191613D01*
X137197191Y-97078470D01*
X137287500Y-96624455D01*
X137287500Y-96161545D01*
X137197191Y-95707530D01*
X137020043Y-95279857D01*
X136762864Y-94894962D01*
X136435538Y-94567636D01*
X136050643Y-94310457D01*
X135622970Y-94133309D01*
X135168955Y-94043000D01*
X134706045Y-94043000D01*
X134252030Y-94133309D01*
X134138887Y-94180174D01*
X128254000Y-88295288D01*
X128254000Y-85272023D01*
X128336674Y-85204174D01*
X128404250Y-85121832D01*
X128565234Y-85288726D01*
X128838895Y-85478802D01*
X129144380Y-85611837D01*
X129156635Y-85618703D01*
X129417000Y-85488731D01*
X129417000Y-84197000D01*
X129917000Y-84197000D01*
X129917000Y-85488731D01*
X130177365Y-85618703D01*
X130189620Y-85611837D01*
X130495105Y-85478802D01*
X130768766Y-85288726D01*
X131000087Y-85048914D01*
X131180178Y-84768581D01*
X131302118Y-84458501D01*
X131167073Y-84197000D01*
X129917000Y-84197000D01*
X129417000Y-84197000D01*
X129397000Y-84197000D01*
X129397000Y-83697000D01*
X129417000Y-83697000D01*
X129417000Y-82405269D01*
X129917000Y-82405269D01*
X129917000Y-83697000D01*
X131167073Y-83697000D01*
X131302118Y-83435499D01*
X131180178Y-83125419D01*
X131000087Y-82845086D01*
X130768766Y-82605274D01*
X130495105Y-82415198D01*
X130189620Y-82282163D01*
X130177365Y-82275297D01*
X129917000Y-82405269D01*
X129417000Y-82405269D01*
X129156635Y-82275297D01*
X129144380Y-82282163D01*
X128838895Y-82415198D01*
X128565234Y-82605274D01*
X128404250Y-82772167D01*
X128336674Y-82689826D01*
X128077434Y-82477074D01*
X127781670Y-82318985D01*
X127460747Y-82221634D01*
X127127000Y-82188763D01*
X126793252Y-82221634D01*
X126472329Y-82318985D01*
X126176565Y-82477074D01*
X126145199Y-82502816D01*
X126072395Y-82414105D01*
X125958193Y-82320381D01*
X125827901Y-82250739D01*
X125686526Y-82207853D01*
X125539500Y-82193372D01*
X123634500Y-82193372D01*
X123487474Y-82207853D01*
X123346099Y-82250739D01*
X123215807Y-82320381D01*
X123101605Y-82414105D01*
X123007881Y-82528307D01*
X122938239Y-82658599D01*
X122895353Y-82799974D01*
X122880872Y-82947000D01*
X122880872Y-84947000D01*
X122895353Y-85094026D01*
X122938239Y-85235401D01*
X123007881Y-85365693D01*
X123101605Y-85479895D01*
X123215807Y-85573619D01*
X123346099Y-85643261D01*
X123460001Y-85677813D01*
X123460000Y-90455380D01*
X123455162Y-90504500D01*
X123460000Y-90553619D01*
X123474470Y-90700533D01*
X123531651Y-90889034D01*
X123624508Y-91062758D01*
X123749472Y-91215028D01*
X123787637Y-91246349D01*
X124451614Y-91910327D01*
X124424500Y-92046640D01*
X124424500Y-92391360D01*
X124491751Y-92729456D01*
X124623670Y-93047936D01*
X124815186Y-93334560D01*
X125058940Y-93578314D01*
X125345564Y-93769830D01*
X125664044Y-93901749D01*
X126002140Y-93969000D01*
X126346860Y-93969000D01*
X126684956Y-93901749D01*
X127003436Y-93769830D01*
X127290060Y-93578314D01*
X127533814Y-93334560D01*
X127725330Y-93047936D01*
X127857249Y-92729456D01*
X127924500Y-92391360D01*
X127924500Y-92046640D01*
X127857249Y-91708544D01*
X127725330Y-91390064D01*
X127533814Y-91103440D01*
X127290060Y-90859686D01*
X127003436Y-90668170D01*
X126684956Y-90536251D01*
X126346860Y-90469000D01*
X126002140Y-90469000D01*
X125865827Y-90496114D01*
X125460000Y-90090288D01*
X125460000Y-85700628D01*
X125539500Y-85700628D01*
X125686526Y-85686147D01*
X125827901Y-85643261D01*
X125958193Y-85573619D01*
X126072395Y-85479895D01*
X126145199Y-85391184D01*
X126176566Y-85416926D01*
X126254001Y-85458316D01*
X126254000Y-88660380D01*
X126249162Y-88709500D01*
X126268470Y-88905534D01*
X126321548Y-89080508D01*
X126325651Y-89094034D01*
X126418508Y-89267758D01*
X126543472Y-89420028D01*
X126581637Y-89451349D01*
X132724674Y-95594387D01*
X132677809Y-95707530D01*
X132587500Y-96161545D01*
X132587500Y-96624455D01*
X132677809Y-97078470D01*
X132854957Y-97506143D01*
X133112136Y-97891038D01*
X133439462Y-98218364D01*
X133824357Y-98475543D01*
X134252030Y-98652691D01*
X134706045Y-98743000D01*
X135168955Y-98743000D01*
X135622970Y-98652691D01*
X135736113Y-98605826D01*
X137624655Y-100494368D01*
X137655972Y-100532528D01*
X137808242Y-100657492D01*
X137981965Y-100750349D01*
X138170466Y-100807530D01*
X138317380Y-100822000D01*
X138317381Y-100822000D01*
X138366499Y-100826838D01*
X138415617Y-100822000D01*
X144222880Y-100822000D01*
X144272000Y-100826838D01*
X144321120Y-100822000D01*
X144468034Y-100807530D01*
X144656535Y-100750349D01*
X144830258Y-100657492D01*
X144982528Y-100532528D01*
X145013849Y-100494363D01*
X148242213Y-97266000D01*
X148326880Y-97266000D01*
X148376000Y-97270838D01*
X148425120Y-97266000D01*
X148572034Y-97251530D01*
X148760535Y-97194349D01*
X148934258Y-97101492D01*
X149000688Y-97046975D01*
X149014656Y-97188798D01*
X149071769Y-97377072D01*
X149164514Y-97550586D01*
X149289328Y-97702672D01*
X149441414Y-97827486D01*
X149614928Y-97920231D01*
X149749000Y-97960902D01*
X149749001Y-107916786D01*
X145885637Y-111780151D01*
X145847472Y-111811472D01*
X145722508Y-111963742D01*
X145650329Y-112098780D01*
X145629651Y-112137466D01*
X145572470Y-112325966D01*
X145553162Y-112522000D01*
X145558000Y-112571120D01*
X145558001Y-117187786D01*
X142841788Y-119904000D01*
X141352212Y-119904000D01*
X143102868Y-118153345D01*
X143141028Y-118122028D01*
X143265992Y-117969758D01*
X143358849Y-117796035D01*
X143416030Y-117607534D01*
X143430500Y-117460620D01*
X143435338Y-117411500D01*
X143430500Y-117362380D01*
X143430500Y-113986628D01*
X144030500Y-113986628D01*
X144177526Y-113972147D01*
X144318901Y-113929261D01*
X144449193Y-113859619D01*
X144563395Y-113765895D01*
X144657119Y-113651693D01*
X144726761Y-113521401D01*
X144769647Y-113380026D01*
X144784128Y-113233000D01*
X144784128Y-110033000D01*
X144769647Y-109885974D01*
X144726761Y-109744599D01*
X144657119Y-109614307D01*
X144563395Y-109500105D01*
X144449193Y-109406381D01*
X144318901Y-109336739D01*
X144177526Y-109293853D01*
X144030500Y-109279372D01*
X140830500Y-109279372D01*
X140683474Y-109293853D01*
X140542099Y-109336739D01*
X140411807Y-109406381D01*
X140297605Y-109500105D01*
X140203881Y-109614307D01*
X140134239Y-109744599D01*
X140091353Y-109885974D01*
X140076872Y-110033000D01*
X140076872Y-113233000D01*
X140091353Y-113380026D01*
X140134239Y-113521401D01*
X140203881Y-113651693D01*
X140297605Y-113765895D01*
X140411807Y-113859619D01*
X140542099Y-113929261D01*
X140683474Y-113972147D01*
X140830500Y-113986628D01*
X141430500Y-113986628D01*
X141430501Y-116997286D01*
X138523788Y-119904000D01*
X133224213Y-119904000D01*
X135609874Y-117518340D01*
X135648028Y-117487028D01*
X135772992Y-117334758D01*
X135865849Y-117161035D01*
X135923030Y-116972534D01*
X135937500Y-116825620D01*
X135937500Y-116825611D01*
X135942337Y-116776501D01*
X135937500Y-116727391D01*
X135937500Y-113986628D01*
X136537500Y-113986628D01*
X136684526Y-113972147D01*
X136825901Y-113929261D01*
X136956193Y-113859619D01*
X137070395Y-113765895D01*
X137164119Y-113651693D01*
X137233761Y-113521401D01*
X137276647Y-113380026D01*
X137291128Y-113233000D01*
X137291128Y-110033000D01*
X137276647Y-109885974D01*
X137233761Y-109744599D01*
X137164119Y-109614307D01*
X137070395Y-109500105D01*
X136956193Y-109406381D01*
X136825901Y-109336739D01*
X136684526Y-109293853D01*
X136537500Y-109279372D01*
X133337500Y-109279372D01*
X133190474Y-109293853D01*
X133049099Y-109336739D01*
X132918807Y-109406381D01*
X132804605Y-109500105D01*
X132710881Y-109614307D01*
X132641239Y-109744599D01*
X132598353Y-109885974D01*
X132583872Y-110033000D01*
X132583872Y-113233000D01*
X132598353Y-113380026D01*
X132641239Y-113521401D01*
X132710881Y-113651693D01*
X132804605Y-113765895D01*
X132918807Y-113859619D01*
X133049099Y-113929261D01*
X133190474Y-113972147D01*
X133337500Y-113986628D01*
X133937500Y-113986628D01*
X133937501Y-116362285D01*
X130395788Y-119904000D01*
X120810213Y-119904000D01*
X117522500Y-116616288D01*
X117522500Y-113962902D01*
X117656572Y-113922231D01*
X117830086Y-113829486D01*
X117982172Y-113704672D01*
X118106986Y-113552586D01*
X118199731Y-113379072D01*
X118256844Y-113190798D01*
X118276128Y-112995000D01*
X118276128Y-111795000D01*
X118256844Y-111599202D01*
X118199731Y-111410928D01*
X118106986Y-111237414D01*
X117982172Y-111085328D01*
X117845066Y-110972807D01*
X118019373Y-110749954D01*
X118160286Y-110470764D01*
X118194283Y-110389143D01*
X118062700Y-110145000D01*
X116772500Y-110145000D01*
X116772500Y-110165000D01*
X116272500Y-110165000D01*
X116272500Y-110145000D01*
X114982300Y-110145000D01*
X114850717Y-110389143D01*
X114884714Y-110470764D01*
X115025627Y-110749954D01*
X115199934Y-110972807D01*
X115062828Y-111085328D01*
X114938014Y-111237414D01*
X114845269Y-111410928D01*
X114788156Y-111599202D01*
X114768872Y-111795000D01*
X114768872Y-112995000D01*
X114788156Y-113190798D01*
X114845269Y-113379072D01*
X114938014Y-113552586D01*
X115062828Y-113704672D01*
X115214914Y-113829486D01*
X115388428Y-113922231D01*
X115522500Y-113962902D01*
X115522501Y-116981370D01*
X115517662Y-117030500D01*
X115536970Y-117226534D01*
X115594151Y-117415034D01*
X115594152Y-117415035D01*
X115687009Y-117588758D01*
X115811973Y-117741028D01*
X115850132Y-117772344D01*
X119654155Y-121576368D01*
X119685472Y-121614528D01*
X119837742Y-121739492D01*
X120011465Y-121832349D01*
X120199966Y-121889530D01*
X120346880Y-121904000D01*
X120346881Y-121904000D01*
X120395999Y-121908838D01*
X120445117Y-121904000D01*
X130760880Y-121904000D01*
X130810000Y-121908838D01*
X130859120Y-121904000D01*
X138888880Y-121904000D01*
X138938000Y-121908838D01*
X138987120Y-121904000D01*
X143206880Y-121904000D01*
X143256000Y-121908838D01*
X143305120Y-121904000D01*
X145429380Y-121904000D01*
X145478500Y-121908838D01*
X145527620Y-121904000D01*
X145674534Y-121889530D01*
X145863035Y-121832349D01*
X146036758Y-121739492D01*
X146189028Y-121614528D01*
X146220349Y-121576363D01*
X150750085Y-117046628D01*
X151689500Y-117046628D01*
X151885298Y-117027344D01*
X152073572Y-116970231D01*
X152247086Y-116877486D01*
X152399172Y-116752672D01*
X152523986Y-116600586D01*
X152616731Y-116427072D01*
X152673844Y-116238798D01*
X152693128Y-116043000D01*
X152693128Y-114843000D01*
X152673844Y-114647202D01*
X152616731Y-114458928D01*
X152523986Y-114285414D01*
X152399172Y-114133328D01*
X152269672Y-114027050D01*
X152426288Y-113836213D01*
X152574859Y-113558256D01*
X152666349Y-113256655D01*
X152697241Y-112943000D01*
X152666440Y-112630272D01*
X153511089Y-111785624D01*
X153511093Y-111785619D01*
X154088368Y-111208345D01*
X154126528Y-111177028D01*
X154251492Y-111024758D01*
X154344349Y-110851035D01*
X154401530Y-110662534D01*
X154416000Y-110515620D01*
X154420838Y-110466500D01*
X154416000Y-110417380D01*
X154416000Y-90473109D01*
X154420837Y-90423999D01*
X154416000Y-90374889D01*
X154416000Y-90374880D01*
X154401530Y-90227966D01*
X154344349Y-90039465D01*
X154251492Y-89865742D01*
X154126528Y-89713472D01*
X154088368Y-89682155D01*
X153649849Y-89243636D01*
X153618528Y-89205472D01*
X153466258Y-89080508D01*
X153292535Y-88987651D01*
X153104034Y-88930470D01*
X152957120Y-88916000D01*
X152908000Y-88911162D01*
X152858880Y-88916000D01*
X142654213Y-88916000D01*
X142033500Y-88295287D01*
X142033500Y-85312749D01*
X142243174Y-85140674D01*
X142310750Y-85058332D01*
X142471734Y-85225226D01*
X142745395Y-85415302D01*
X143050880Y-85548337D01*
X143063135Y-85555203D01*
X143323500Y-85425231D01*
X143323500Y-84133500D01*
X143823500Y-84133500D01*
X143823500Y-85425231D01*
X144083865Y-85555203D01*
X144096120Y-85548337D01*
X144401605Y-85415302D01*
X144675266Y-85225226D01*
X144906587Y-84985414D01*
X145086678Y-84705081D01*
X145208618Y-84395001D01*
X145073573Y-84133500D01*
X143823500Y-84133500D01*
X143323500Y-84133500D01*
X143303500Y-84133500D01*
X143303500Y-83633500D01*
X143323500Y-83633500D01*
X143323500Y-82341769D01*
X143823500Y-82341769D01*
X143823500Y-83633500D01*
X145073573Y-83633500D01*
X145208618Y-83371999D01*
X145086678Y-83061919D01*
X144906587Y-82781586D01*
X144675266Y-82541774D01*
X144401605Y-82351698D01*
X144096120Y-82218663D01*
X144083865Y-82211797D01*
X143823500Y-82341769D01*
X143323500Y-82341769D01*
X143063135Y-82211797D01*
X143050880Y-82218663D01*
X142745395Y-82351698D01*
X142471734Y-82541774D01*
X142310750Y-82708667D01*
X142243174Y-82626326D01*
X141983934Y-82413574D01*
X141688170Y-82255485D01*
X141367247Y-82158134D01*
X141033500Y-82125263D01*
X140699752Y-82158134D01*
X140378829Y-82255485D01*
X140083065Y-82413574D01*
X140051699Y-82439316D01*
X139978895Y-82350605D01*
X139864693Y-82256881D01*
X139734401Y-82187239D01*
X139593026Y-82144353D01*
X139493500Y-82134550D01*
X139493500Y-81900619D01*
X139498338Y-81851499D01*
X139479030Y-81655465D01*
X139421849Y-81466965D01*
X139328992Y-81293242D01*
X139314021Y-81275000D01*
X150250000Y-81275000D01*
X150250000Y-87500000D01*
X150254804Y-87548773D01*
X150269030Y-87595671D01*
X150292133Y-87638893D01*
X150323223Y-87676777D01*
X150361107Y-87707867D01*
X150404329Y-87730970D01*
X150451227Y-87745196D01*
X150500000Y-87750000D01*
X156725000Y-87750000D01*
X156725001Y-121750000D01*
X150500000Y-121750000D01*
X150451227Y-121754804D01*
X150404329Y-121769030D01*
X150361107Y-121792133D01*
X150323223Y-121823223D01*
X150292133Y-121861107D01*
X150269030Y-121904329D01*
X150254804Y-121951227D01*
X150250000Y-122000000D01*
X150250000Y-128225000D01*
X119250000Y-128225000D01*
X119250000Y-122000000D01*
X119245196Y-121951227D01*
X119230970Y-121904329D01*
X119207867Y-121861107D01*
X119176777Y-121823223D01*
X119138893Y-121792133D01*
X119095671Y-121769030D01*
X119048773Y-121754804D01*
X119000000Y-121750000D01*
X112775000Y-121750000D01*
X112775000Y-109400857D01*
X114850717Y-109400857D01*
X114982300Y-109645000D01*
X116272500Y-109645000D01*
X116272500Y-108490328D01*
X116772500Y-108490328D01*
X116772500Y-109645000D01*
X118062700Y-109645000D01*
X118194283Y-109400857D01*
X118160286Y-109319236D01*
X118019373Y-109040046D01*
X117826700Y-108793712D01*
X117589672Y-108589700D01*
X117317397Y-108435850D01*
X117020339Y-108338074D01*
X116772500Y-108490328D01*
X116272500Y-108490328D01*
X116024661Y-108338074D01*
X115727603Y-108435850D01*
X115455328Y-108589700D01*
X115218300Y-108793712D01*
X115025627Y-109040046D01*
X114884714Y-109319236D01*
X114850717Y-109400857D01*
X112775000Y-109400857D01*
X112775000Y-92505857D01*
X114853217Y-92505857D01*
X114984800Y-92750000D01*
X116250000Y-92750000D01*
X116250000Y-91597291D01*
X116750000Y-91597291D01*
X116750000Y-92750000D01*
X118015200Y-92750000D01*
X118146783Y-92505857D01*
X118121471Y-92447762D01*
X117984980Y-92166426D01*
X117796226Y-91917124D01*
X117562463Y-91709436D01*
X117292673Y-91551344D01*
X116997225Y-91448923D01*
X116750000Y-91597291D01*
X116250000Y-91597291D01*
X116002775Y-91448923D01*
X115707327Y-91551344D01*
X115437537Y-91709436D01*
X115203774Y-91917124D01*
X115015020Y-92166426D01*
X114878529Y-92447762D01*
X114853217Y-92505857D01*
X112775000Y-92505857D01*
X112775000Y-87750000D01*
X119000000Y-87750000D01*
X119048773Y-87745196D01*
X119095671Y-87730970D01*
X119138893Y-87707867D01*
X119176777Y-87676777D01*
X119207867Y-87638893D01*
X119230970Y-87595671D01*
X119245196Y-87548773D01*
X119250000Y-87500000D01*
X119250000Y-81275000D01*
X120191571Y-81275000D01*
X120172470Y-81337966D01*
%TA.AperFunction,Conductor*%
D18*
G36*
X120172470Y-81337966D02*
G01*
X120153162Y-81534000D01*
X120158001Y-81583130D01*
X120158000Y-93930880D01*
X120153162Y-93980000D01*
X120172470Y-94176034D01*
X120213247Y-94310457D01*
X120229651Y-94364534D01*
X120322508Y-94538258D01*
X120447472Y-94690528D01*
X120485637Y-94721849D01*
X123315787Y-97552000D01*
X118161096Y-97552000D01*
X118110359Y-97384744D01*
X117961788Y-97106787D01*
X117761845Y-96863155D01*
X117623965Y-96750000D01*
X117761845Y-96636845D01*
X117961788Y-96393213D01*
X118110359Y-96115256D01*
X118201849Y-95813655D01*
X118232741Y-95500000D01*
X118201849Y-95186345D01*
X118110359Y-94884744D01*
X117961788Y-94606787D01*
X117761845Y-94363155D01*
X117615728Y-94243240D01*
X117796226Y-94082876D01*
X117984980Y-93833574D01*
X118121471Y-93552238D01*
X118146783Y-93494143D01*
X118015200Y-93250000D01*
X116750000Y-93250000D01*
X116750000Y-93270000D01*
X116250000Y-93270000D01*
X116250000Y-93250000D01*
X114984800Y-93250000D01*
X114853217Y-93494143D01*
X114878529Y-93552238D01*
X115015020Y-93833574D01*
X115203774Y-94082876D01*
X115384272Y-94243240D01*
X115238155Y-94363155D01*
X115038212Y-94606787D01*
X114889641Y-94884744D01*
X114798151Y-95186345D01*
X114767259Y-95500000D01*
X114798151Y-95813655D01*
X114889641Y-96115256D01*
X115038212Y-96393213D01*
X115238155Y-96636845D01*
X115376035Y-96750000D01*
X115238155Y-96863155D01*
X115038212Y-97106787D01*
X114889641Y-97384744D01*
X114798151Y-97686345D01*
X114767259Y-98000000D01*
X114798151Y-98313655D01*
X114889641Y-98615256D01*
X115038212Y-98893213D01*
X115194828Y-99084050D01*
X115065328Y-99190328D01*
X114940514Y-99342414D01*
X114847769Y-99515928D01*
X114790656Y-99704202D01*
X114771372Y-99900000D01*
X114771372Y-101100000D01*
X114790656Y-101295798D01*
X114847769Y-101484072D01*
X114940514Y-101657586D01*
X115065328Y-101809672D01*
X115217414Y-101934486D01*
X115390928Y-102027231D01*
X115579202Y-102084344D01*
X115775000Y-102103628D01*
X117225000Y-102103628D01*
X117420798Y-102084344D01*
X117609072Y-102027231D01*
X117782586Y-101934486D01*
X117934672Y-101809672D01*
X118059486Y-101657586D01*
X118143717Y-101500000D01*
X124446110Y-101500000D01*
X124491751Y-101729456D01*
X124623670Y-102047936D01*
X124815186Y-102334560D01*
X125058940Y-102578314D01*
X125345564Y-102769830D01*
X125664044Y-102901749D01*
X126002140Y-102969000D01*
X126346860Y-102969000D01*
X126541504Y-102930283D01*
X122009632Y-107462156D01*
X121971473Y-107493472D01*
X121846509Y-107645742D01*
X121796875Y-107738600D01*
X121753651Y-107819466D01*
X121696470Y-108007966D01*
X121677162Y-108204000D01*
X121682001Y-108253130D01*
X121682000Y-111456880D01*
X121677162Y-111506000D01*
X121696470Y-111702034D01*
X121737333Y-111836742D01*
X121753651Y-111890534D01*
X121846508Y-112064258D01*
X121971472Y-112216528D01*
X122009637Y-112247849D01*
X125111001Y-115349214D01*
X125111001Y-115530471D01*
X124995440Y-115607686D01*
X124751686Y-115851440D01*
X124560170Y-116138064D01*
X124428251Y-116456544D01*
X124361000Y-116794640D01*
X124361000Y-117139360D01*
X124428251Y-117477456D01*
X124560170Y-117795936D01*
X124751686Y-118082560D01*
X124995440Y-118326314D01*
X125282064Y-118517830D01*
X125600544Y-118649749D01*
X125938640Y-118717000D01*
X126283360Y-118717000D01*
X126621456Y-118649749D01*
X126939936Y-118517830D01*
X127226560Y-118326314D01*
X127470314Y-118082560D01*
X127661830Y-117795936D01*
X127793749Y-117477456D01*
X127861000Y-117139360D01*
X127861000Y-116794640D01*
X127793749Y-116456544D01*
X127661830Y-116138064D01*
X127470314Y-115851440D01*
X127226560Y-115607686D01*
X127111000Y-115530471D01*
X127111000Y-114984117D01*
X127115838Y-114934999D01*
X127110888Y-114884743D01*
X127096530Y-114738966D01*
X127039349Y-114550465D01*
X126946492Y-114376742D01*
X126821528Y-114224472D01*
X126783368Y-114193155D01*
X123682000Y-111091788D01*
X123682000Y-108618212D01*
X124361000Y-107939212D01*
X124361000Y-108139360D01*
X124428251Y-108477456D01*
X124560170Y-108795936D01*
X124751686Y-109082560D01*
X124995440Y-109326314D01*
X125282064Y-109517830D01*
X125600544Y-109649749D01*
X125938640Y-109717000D01*
X126283360Y-109717000D01*
X126621456Y-109649749D01*
X126939936Y-109517830D01*
X127226560Y-109326314D01*
X127470314Y-109082560D01*
X127661830Y-108795936D01*
X127793749Y-108477456D01*
X127861000Y-108139360D01*
X127861000Y-107794640D01*
X127833886Y-107658327D01*
X131482374Y-104009840D01*
X131520528Y-103978528D01*
X131645492Y-103826258D01*
X131738349Y-103652535D01*
X131795530Y-103464034D01*
X131810000Y-103317120D01*
X131810000Y-103317119D01*
X131814838Y-103268000D01*
X131810000Y-103218880D01*
X131810000Y-99617117D01*
X131814838Y-99567999D01*
X131809709Y-99515928D01*
X131795530Y-99371966D01*
X131738349Y-99183465D01*
X131645492Y-99009742D01*
X131520528Y-98857472D01*
X131482374Y-98826160D01*
X129011849Y-96355637D01*
X128980528Y-96317472D01*
X128828258Y-96192508D01*
X128654535Y-96099651D01*
X128466034Y-96042470D01*
X128319120Y-96028000D01*
X128270000Y-96023162D01*
X128220880Y-96028000D01*
X124620213Y-96028000D01*
X122158000Y-93565788D01*
X122158000Y-81975010D01*
X137202798Y-81975010D01*
X137377222Y-82149435D01*
X137252599Y-82187239D01*
X137122307Y-82256881D01*
X137008105Y-82350605D01*
X136914381Y-82464807D01*
X136844739Y-82595099D01*
X136801853Y-82736474D01*
X136787372Y-82883500D01*
X136787372Y-84883500D01*
X136801853Y-85030526D01*
X136844739Y-85171901D01*
X136914381Y-85302193D01*
X137008105Y-85416395D01*
X137122307Y-85510119D01*
X137252599Y-85579761D01*
X137393974Y-85622647D01*
X137541000Y-85637128D01*
X139446000Y-85637128D01*
X139593026Y-85622647D01*
X139734401Y-85579761D01*
X139864693Y-85510119D01*
X139978895Y-85416395D01*
X140033500Y-85349859D01*
X140033501Y-88152371D01*
X140033500Y-88152381D01*
X140033500Y-88660379D01*
X140028662Y-88709500D01*
X140033500Y-88758619D01*
X140033501Y-94946870D01*
X140028662Y-94996000D01*
X140047970Y-95192034D01*
X140105151Y-95380534D01*
X140119549Y-95407470D01*
X140198009Y-95554258D01*
X140222125Y-95583643D01*
X140170809Y-95707530D01*
X140080500Y-96161545D01*
X140080500Y-96624455D01*
X140170809Y-97078470D01*
X140347957Y-97506143D01*
X140605136Y-97891038D01*
X140932462Y-98218364D01*
X141317357Y-98475543D01*
X141745030Y-98652691D01*
X142199045Y-98743000D01*
X142661955Y-98743000D01*
X143115970Y-98652691D01*
X143543643Y-98475543D01*
X143928538Y-98218364D01*
X144255864Y-97891038D01*
X144513043Y-97506143D01*
X144690191Y-97078470D01*
X144780500Y-96624455D01*
X144780500Y-96161545D01*
X144690191Y-95707530D01*
X144513043Y-95279857D01*
X144255864Y-94894962D01*
X143928538Y-94567636D01*
X143543643Y-94310457D01*
X143115970Y-94133309D01*
X142661955Y-94043000D01*
X142199045Y-94043000D01*
X142033500Y-94075929D01*
X142033500Y-90898355D01*
X142043966Y-90901530D01*
X142240000Y-90920838D01*
X142289120Y-90916000D01*
X152416000Y-90916000D01*
X152416000Y-93382051D01*
X152384359Y-93277744D01*
X152235788Y-92999787D01*
X152035845Y-92756155D01*
X151792213Y-92556212D01*
X151514256Y-92407641D01*
X151212655Y-92316151D01*
X150977597Y-92293000D01*
X150520403Y-92293000D01*
X150285345Y-92316151D01*
X149983744Y-92407641D01*
X149705787Y-92556212D01*
X149462155Y-92756155D01*
X149262212Y-92999787D01*
X149113641Y-93277744D01*
X149022151Y-93579345D01*
X148991259Y-93893000D01*
X149022060Y-94205727D01*
X147961788Y-95266000D01*
X147877117Y-95266000D01*
X147827999Y-95261162D01*
X147778881Y-95266000D01*
X147778880Y-95266000D01*
X147631966Y-95280470D01*
X147443465Y-95337651D01*
X147269742Y-95430508D01*
X147117472Y-95555472D01*
X147086155Y-95593632D01*
X143857788Y-98822000D01*
X138780713Y-98822000D01*
X137150326Y-97191613D01*
X137197191Y-97078470D01*
X137287500Y-96624455D01*
X137287500Y-96161545D01*
X137197191Y-95707530D01*
X137020043Y-95279857D01*
X136762864Y-94894962D01*
X136435538Y-94567636D01*
X136050643Y-94310457D01*
X135622970Y-94133309D01*
X135168955Y-94043000D01*
X134706045Y-94043000D01*
X134252030Y-94133309D01*
X134138887Y-94180174D01*
X128254000Y-88295288D01*
X128254000Y-85272023D01*
X128336674Y-85204174D01*
X128404250Y-85121832D01*
X128565234Y-85288726D01*
X128838895Y-85478802D01*
X129144380Y-85611837D01*
X129156635Y-85618703D01*
X129417000Y-85488731D01*
X129417000Y-84197000D01*
X129917000Y-84197000D01*
X129917000Y-85488731D01*
X130177365Y-85618703D01*
X130189620Y-85611837D01*
X130495105Y-85478802D01*
X130768766Y-85288726D01*
X131000087Y-85048914D01*
X131180178Y-84768581D01*
X131302118Y-84458501D01*
X131167073Y-84197000D01*
X129917000Y-84197000D01*
X129417000Y-84197000D01*
X129397000Y-84197000D01*
X129397000Y-83697000D01*
X129417000Y-83697000D01*
X129417000Y-82405269D01*
X129917000Y-82405269D01*
X129917000Y-83697000D01*
X131167073Y-83697000D01*
X131302118Y-83435499D01*
X131180178Y-83125419D01*
X131000087Y-82845086D01*
X130768766Y-82605274D01*
X130495105Y-82415198D01*
X130189620Y-82282163D01*
X130177365Y-82275297D01*
X129917000Y-82405269D01*
X129417000Y-82405269D01*
X129156635Y-82275297D01*
X129144380Y-82282163D01*
X128838895Y-82415198D01*
X128565234Y-82605274D01*
X128404250Y-82772167D01*
X128336674Y-82689826D01*
X128077434Y-82477074D01*
X127781670Y-82318985D01*
X127460747Y-82221634D01*
X127127000Y-82188763D01*
X126793252Y-82221634D01*
X126472329Y-82318985D01*
X126176565Y-82477074D01*
X126145199Y-82502816D01*
X126072395Y-82414105D01*
X125958193Y-82320381D01*
X125827901Y-82250739D01*
X125686526Y-82207853D01*
X125539500Y-82193372D01*
X123634500Y-82193372D01*
X123487474Y-82207853D01*
X123346099Y-82250739D01*
X123215807Y-82320381D01*
X123101605Y-82414105D01*
X123007881Y-82528307D01*
X122938239Y-82658599D01*
X122895353Y-82799974D01*
X122880872Y-82947000D01*
X122880872Y-84947000D01*
X122895353Y-85094026D01*
X122938239Y-85235401D01*
X123007881Y-85365693D01*
X123101605Y-85479895D01*
X123215807Y-85573619D01*
X123346099Y-85643261D01*
X123460001Y-85677813D01*
X123460000Y-90455380D01*
X123455162Y-90504500D01*
X123460000Y-90553619D01*
X123474470Y-90700533D01*
X123531651Y-90889034D01*
X123624508Y-91062758D01*
X123749472Y-91215028D01*
X123787637Y-91246349D01*
X124451614Y-91910327D01*
X124424500Y-92046640D01*
X124424500Y-92391360D01*
X124491751Y-92729456D01*
X124623670Y-93047936D01*
X124815186Y-93334560D01*
X125058940Y-93578314D01*
X125345564Y-93769830D01*
X125664044Y-93901749D01*
X126002140Y-93969000D01*
X126346860Y-93969000D01*
X126684956Y-93901749D01*
X127003436Y-93769830D01*
X127290060Y-93578314D01*
X127533814Y-93334560D01*
X127725330Y-93047936D01*
X127857249Y-92729456D01*
X127924500Y-92391360D01*
X127924500Y-92046640D01*
X127857249Y-91708544D01*
X127725330Y-91390064D01*
X127533814Y-91103440D01*
X127290060Y-90859686D01*
X127003436Y-90668170D01*
X126684956Y-90536251D01*
X126346860Y-90469000D01*
X126002140Y-90469000D01*
X125865827Y-90496114D01*
X125460000Y-90090288D01*
X125460000Y-85700628D01*
X125539500Y-85700628D01*
X125686526Y-85686147D01*
X125827901Y-85643261D01*
X125958193Y-85573619D01*
X126072395Y-85479895D01*
X126145199Y-85391184D01*
X126176566Y-85416926D01*
X126254001Y-85458316D01*
X126254000Y-88660380D01*
X126249162Y-88709500D01*
X126268470Y-88905534D01*
X126321548Y-89080508D01*
X126325651Y-89094034D01*
X126418508Y-89267758D01*
X126543472Y-89420028D01*
X126581637Y-89451349D01*
X132724674Y-95594387D01*
X132677809Y-95707530D01*
X132587500Y-96161545D01*
X132587500Y-96624455D01*
X132677809Y-97078470D01*
X132854957Y-97506143D01*
X133112136Y-97891038D01*
X133439462Y-98218364D01*
X133824357Y-98475543D01*
X134252030Y-98652691D01*
X134706045Y-98743000D01*
X135168955Y-98743000D01*
X135622970Y-98652691D01*
X135736113Y-98605826D01*
X137624655Y-100494368D01*
X137655972Y-100532528D01*
X137808242Y-100657492D01*
X137981965Y-100750349D01*
X138170466Y-100807530D01*
X138317380Y-100822000D01*
X138317381Y-100822000D01*
X138366499Y-100826838D01*
X138415617Y-100822000D01*
X144222880Y-100822000D01*
X144272000Y-100826838D01*
X144321120Y-100822000D01*
X144468034Y-100807530D01*
X144656535Y-100750349D01*
X144830258Y-100657492D01*
X144982528Y-100532528D01*
X145013849Y-100494363D01*
X148242213Y-97266000D01*
X148326880Y-97266000D01*
X148376000Y-97270838D01*
X148425120Y-97266000D01*
X148572034Y-97251530D01*
X148760535Y-97194349D01*
X148934258Y-97101492D01*
X149000688Y-97046975D01*
X149014656Y-97188798D01*
X149071769Y-97377072D01*
X149164514Y-97550586D01*
X149289328Y-97702672D01*
X149441414Y-97827486D01*
X149614928Y-97920231D01*
X149749000Y-97960902D01*
X149749001Y-107916786D01*
X145885637Y-111780151D01*
X145847472Y-111811472D01*
X145722508Y-111963742D01*
X145650329Y-112098780D01*
X145629651Y-112137466D01*
X145572470Y-112325966D01*
X145553162Y-112522000D01*
X145558000Y-112571120D01*
X145558001Y-117187786D01*
X142841788Y-119904000D01*
X141352212Y-119904000D01*
X143102868Y-118153345D01*
X143141028Y-118122028D01*
X143265992Y-117969758D01*
X143358849Y-117796035D01*
X143416030Y-117607534D01*
X143430500Y-117460620D01*
X143435338Y-117411500D01*
X143430500Y-117362380D01*
X143430500Y-113986628D01*
X144030500Y-113986628D01*
X144177526Y-113972147D01*
X144318901Y-113929261D01*
X144449193Y-113859619D01*
X144563395Y-113765895D01*
X144657119Y-113651693D01*
X144726761Y-113521401D01*
X144769647Y-113380026D01*
X144784128Y-113233000D01*
X144784128Y-110033000D01*
X144769647Y-109885974D01*
X144726761Y-109744599D01*
X144657119Y-109614307D01*
X144563395Y-109500105D01*
X144449193Y-109406381D01*
X144318901Y-109336739D01*
X144177526Y-109293853D01*
X144030500Y-109279372D01*
X140830500Y-109279372D01*
X140683474Y-109293853D01*
X140542099Y-109336739D01*
X140411807Y-109406381D01*
X140297605Y-109500105D01*
X140203881Y-109614307D01*
X140134239Y-109744599D01*
X140091353Y-109885974D01*
X140076872Y-110033000D01*
X140076872Y-113233000D01*
X140091353Y-113380026D01*
X140134239Y-113521401D01*
X140203881Y-113651693D01*
X140297605Y-113765895D01*
X140411807Y-113859619D01*
X140542099Y-113929261D01*
X140683474Y-113972147D01*
X140830500Y-113986628D01*
X141430500Y-113986628D01*
X141430501Y-116997286D01*
X138523788Y-119904000D01*
X133224213Y-119904000D01*
X135609874Y-117518340D01*
X135648028Y-117487028D01*
X135772992Y-117334758D01*
X135865849Y-117161035D01*
X135923030Y-116972534D01*
X135937500Y-116825620D01*
X135937500Y-116825611D01*
X135942337Y-116776501D01*
X135937500Y-116727391D01*
X135937500Y-113986628D01*
X136537500Y-113986628D01*
X136684526Y-113972147D01*
X136825901Y-113929261D01*
X136956193Y-113859619D01*
X137070395Y-113765895D01*
X137164119Y-113651693D01*
X137233761Y-113521401D01*
X137276647Y-113380026D01*
X137291128Y-113233000D01*
X137291128Y-110033000D01*
X137276647Y-109885974D01*
X137233761Y-109744599D01*
X137164119Y-109614307D01*
X137070395Y-109500105D01*
X136956193Y-109406381D01*
X136825901Y-109336739D01*
X136684526Y-109293853D01*
X136537500Y-109279372D01*
X133337500Y-109279372D01*
X133190474Y-109293853D01*
X133049099Y-109336739D01*
X132918807Y-109406381D01*
X132804605Y-109500105D01*
X132710881Y-109614307D01*
X132641239Y-109744599D01*
X132598353Y-109885974D01*
X132583872Y-110033000D01*
X132583872Y-113233000D01*
X132598353Y-113380026D01*
X132641239Y-113521401D01*
X132710881Y-113651693D01*
X132804605Y-113765895D01*
X132918807Y-113859619D01*
X133049099Y-113929261D01*
X133190474Y-113972147D01*
X133337500Y-113986628D01*
X133937500Y-113986628D01*
X133937501Y-116362285D01*
X130395788Y-119904000D01*
X120810213Y-119904000D01*
X117522500Y-116616288D01*
X117522500Y-113962902D01*
X117656572Y-113922231D01*
X117830086Y-113829486D01*
X117982172Y-113704672D01*
X118106986Y-113552586D01*
X118199731Y-113379072D01*
X118256844Y-113190798D01*
X118276128Y-112995000D01*
X118276128Y-111795000D01*
X118256844Y-111599202D01*
X118199731Y-111410928D01*
X118106986Y-111237414D01*
X117982172Y-111085328D01*
X117845066Y-110972807D01*
X118019373Y-110749954D01*
X118160286Y-110470764D01*
X118194283Y-110389143D01*
X118062700Y-110145000D01*
X116772500Y-110145000D01*
X116772500Y-110165000D01*
X116272500Y-110165000D01*
X116272500Y-110145000D01*
X114982300Y-110145000D01*
X114850717Y-110389143D01*
X114884714Y-110470764D01*
X115025627Y-110749954D01*
X115199934Y-110972807D01*
X115062828Y-111085328D01*
X114938014Y-111237414D01*
X114845269Y-111410928D01*
X114788156Y-111599202D01*
X114768872Y-111795000D01*
X114768872Y-112995000D01*
X114788156Y-113190798D01*
X114845269Y-113379072D01*
X114938014Y-113552586D01*
X115062828Y-113704672D01*
X115214914Y-113829486D01*
X115388428Y-113922231D01*
X115522500Y-113962902D01*
X115522501Y-116981370D01*
X115517662Y-117030500D01*
X115536970Y-117226534D01*
X115594151Y-117415034D01*
X115594152Y-117415035D01*
X115687009Y-117588758D01*
X115811973Y-117741028D01*
X115850132Y-117772344D01*
X119654155Y-121576368D01*
X119685472Y-121614528D01*
X119837742Y-121739492D01*
X120011465Y-121832349D01*
X120199966Y-121889530D01*
X120346880Y-121904000D01*
X120346881Y-121904000D01*
X120395999Y-121908838D01*
X120445117Y-121904000D01*
X130760880Y-121904000D01*
X130810000Y-121908838D01*
X130859120Y-121904000D01*
X138888880Y-121904000D01*
X138938000Y-121908838D01*
X138987120Y-121904000D01*
X143206880Y-121904000D01*
X143256000Y-121908838D01*
X143305120Y-121904000D01*
X145429380Y-121904000D01*
X145478500Y-121908838D01*
X145527620Y-121904000D01*
X145674534Y-121889530D01*
X145863035Y-121832349D01*
X146036758Y-121739492D01*
X146189028Y-121614528D01*
X146220349Y-121576363D01*
X150750085Y-117046628D01*
X151689500Y-117046628D01*
X151885298Y-117027344D01*
X152073572Y-116970231D01*
X152247086Y-116877486D01*
X152399172Y-116752672D01*
X152523986Y-116600586D01*
X152616731Y-116427072D01*
X152673844Y-116238798D01*
X152693128Y-116043000D01*
X152693128Y-114843000D01*
X152673844Y-114647202D01*
X152616731Y-114458928D01*
X152523986Y-114285414D01*
X152399172Y-114133328D01*
X152269672Y-114027050D01*
X152426288Y-113836213D01*
X152574859Y-113558256D01*
X152666349Y-113256655D01*
X152697241Y-112943000D01*
X152666440Y-112630272D01*
X153511089Y-111785624D01*
X153511093Y-111785619D01*
X154088368Y-111208345D01*
X154126528Y-111177028D01*
X154251492Y-111024758D01*
X154344349Y-110851035D01*
X154401530Y-110662534D01*
X154416000Y-110515620D01*
X154420838Y-110466500D01*
X154416000Y-110417380D01*
X154416000Y-90473109D01*
X154420837Y-90423999D01*
X154416000Y-90374889D01*
X154416000Y-90374880D01*
X154401530Y-90227966D01*
X154344349Y-90039465D01*
X154251492Y-89865742D01*
X154126528Y-89713472D01*
X154088368Y-89682155D01*
X153649849Y-89243636D01*
X153618528Y-89205472D01*
X153466258Y-89080508D01*
X153292535Y-88987651D01*
X153104034Y-88930470D01*
X152957120Y-88916000D01*
X152908000Y-88911162D01*
X152858880Y-88916000D01*
X142654213Y-88916000D01*
X142033500Y-88295287D01*
X142033500Y-85312749D01*
X142243174Y-85140674D01*
X142310750Y-85058332D01*
X142471734Y-85225226D01*
X142745395Y-85415302D01*
X143050880Y-85548337D01*
X143063135Y-85555203D01*
X143323500Y-85425231D01*
X143323500Y-84133500D01*
X143823500Y-84133500D01*
X143823500Y-85425231D01*
X144083865Y-85555203D01*
X144096120Y-85548337D01*
X144401605Y-85415302D01*
X144675266Y-85225226D01*
X144906587Y-84985414D01*
X145086678Y-84705081D01*
X145208618Y-84395001D01*
X145073573Y-84133500D01*
X143823500Y-84133500D01*
X143323500Y-84133500D01*
X143303500Y-84133500D01*
X143303500Y-83633500D01*
X143323500Y-83633500D01*
X143323500Y-82341769D01*
X143823500Y-82341769D01*
X143823500Y-83633500D01*
X145073573Y-83633500D01*
X145208618Y-83371999D01*
X145086678Y-83061919D01*
X144906587Y-82781586D01*
X144675266Y-82541774D01*
X144401605Y-82351698D01*
X144096120Y-82218663D01*
X144083865Y-82211797D01*
X143823500Y-82341769D01*
X143323500Y-82341769D01*
X143063135Y-82211797D01*
X143050880Y-82218663D01*
X142745395Y-82351698D01*
X142471734Y-82541774D01*
X142310750Y-82708667D01*
X142243174Y-82626326D01*
X141983934Y-82413574D01*
X141688170Y-82255485D01*
X141367247Y-82158134D01*
X141033500Y-82125263D01*
X140699752Y-82158134D01*
X140378829Y-82255485D01*
X140083065Y-82413574D01*
X140051699Y-82439316D01*
X139978895Y-82350605D01*
X139864693Y-82256881D01*
X139734401Y-82187239D01*
X139593026Y-82144353D01*
X139493500Y-82134550D01*
X139493500Y-81900619D01*
X139498338Y-81851499D01*
X139479030Y-81655465D01*
X139421849Y-81466965D01*
X139328992Y-81293242D01*
X139314021Y-81275000D01*
X150250000Y-81275000D01*
X150250000Y-87500000D01*
X150254804Y-87548773D01*
X150269030Y-87595671D01*
X150292133Y-87638893D01*
X150323223Y-87676777D01*
X150361107Y-87707867D01*
X150404329Y-87730970D01*
X150451227Y-87745196D01*
X150500000Y-87750000D01*
X156725000Y-87750000D01*
X156725001Y-121750000D01*
X150500000Y-121750000D01*
X150451227Y-121754804D01*
X150404329Y-121769030D01*
X150361107Y-121792133D01*
X150323223Y-121823223D01*
X150292133Y-121861107D01*
X150269030Y-121904329D01*
X150254804Y-121951227D01*
X150250000Y-122000000D01*
X150250000Y-128225000D01*
X119250000Y-128225000D01*
X119250000Y-122000000D01*
X119245196Y-121951227D01*
X119230970Y-121904329D01*
X119207867Y-121861107D01*
X119176777Y-121823223D01*
X119138893Y-121792133D01*
X119095671Y-121769030D01*
X119048773Y-121754804D01*
X119000000Y-121750000D01*
X112775000Y-121750000D01*
X112775000Y-109400857D01*
X114850717Y-109400857D01*
X114982300Y-109645000D01*
X116272500Y-109645000D01*
X116272500Y-108490328D01*
X116772500Y-108490328D01*
X116772500Y-109645000D01*
X118062700Y-109645000D01*
X118194283Y-109400857D01*
X118160286Y-109319236D01*
X118019373Y-109040046D01*
X117826700Y-108793712D01*
X117589672Y-108589700D01*
X117317397Y-108435850D01*
X117020339Y-108338074D01*
X116772500Y-108490328D01*
X116272500Y-108490328D01*
X116024661Y-108338074D01*
X115727603Y-108435850D01*
X115455328Y-108589700D01*
X115218300Y-108793712D01*
X115025627Y-109040046D01*
X114884714Y-109319236D01*
X114850717Y-109400857D01*
X112775000Y-109400857D01*
X112775000Y-92505857D01*
X114853217Y-92505857D01*
X114984800Y-92750000D01*
X116250000Y-92750000D01*
X116250000Y-91597291D01*
X116750000Y-91597291D01*
X116750000Y-92750000D01*
X118015200Y-92750000D01*
X118146783Y-92505857D01*
X118121471Y-92447762D01*
X117984980Y-92166426D01*
X117796226Y-91917124D01*
X117562463Y-91709436D01*
X117292673Y-91551344D01*
X116997225Y-91448923D01*
X116750000Y-91597291D01*
X116250000Y-91597291D01*
X116002775Y-91448923D01*
X115707327Y-91551344D01*
X115437537Y-91709436D01*
X115203774Y-91917124D01*
X115015020Y-92166426D01*
X114878529Y-92447762D01*
X114853217Y-92505857D01*
X112775000Y-92505857D01*
X112775000Y-87750000D01*
X119000000Y-87750000D01*
X119048773Y-87745196D01*
X119095671Y-87730970D01*
X119138893Y-87707867D01*
X119176777Y-87676777D01*
X119207867Y-87638893D01*
X119230970Y-87595671D01*
X119245196Y-87548773D01*
X119250000Y-87500000D01*
X119250000Y-81275000D01*
X120191571Y-81275000D01*
X120172470Y-81337966D01*
G37*
%TD.AperFunction*%
%TD*%
M02*
