G04 #@! TF.GenerationSoftware,KiCad,Pcbnew,(5.1.4)-1*
G04 #@! TF.CreationDate,2020-01-25T09:52:24+02:00*
G04 #@! TF.ProjectId,4_switch_array,345f7377-6974-4636-985f-61727261792e,rev?*
G04 #@! TF.SameCoordinates,Original*
G04 #@! TF.FileFunction,Copper,L1,Top*
G04 #@! TF.FilePolarity,Positive*
%FSLAX46Y46*%
G04 Gerber Fmt 4.6, Leading zero omitted, Abs format (unit mm)*
G04 Created by KiCad (PCBNEW (5.1.4)-1) date 2020-01-25 09:52:24*
%MOMM*%
%LPD*%
G04 APERTURE LIST*
%ADD10C,1.600000*%
%ADD11O,1.600000X1.600000*%
%ADD12R,1.600000X1.600000*%
%ADD13C,2.000000*%
%ADD14R,1.500000X1.500000*%
%ADD15C,1.500000*%
%ADD16O,1.700000X2.000000*%
%ADD17C,0.100000*%
%ADD18C,1.700000*%
%ADD19O,2.000000X1.700000*%
%ADD20O,1.700000X1.950000*%
%ADD21C,1.000000*%
%ADD22C,0.500000*%
G04 APERTURE END LIST*
D10*
X140250000Y-46500000D03*
X140250000Y-51500000D03*
D11*
X150620000Y-47000000D03*
X143000000Y-69860000D03*
X150620000Y-49540000D03*
X143000000Y-67320000D03*
X150620000Y-52080000D03*
X143000000Y-64780000D03*
X150620000Y-54620000D03*
X143000000Y-62240000D03*
X150620000Y-57160000D03*
X143000000Y-59700000D03*
X150620000Y-59700000D03*
X143000000Y-57160000D03*
X150620000Y-62240000D03*
X143000000Y-54620000D03*
X150620000Y-64780000D03*
X143000000Y-52080000D03*
X150620000Y-67320000D03*
X143000000Y-49540000D03*
X150620000Y-69860000D03*
D12*
X143000000Y-47000000D03*
D13*
X128500000Y-71000000D03*
X137500000Y-71000000D03*
X165000000Y-56500000D03*
X156000000Y-56500000D03*
X128500000Y-56500000D03*
X137500000Y-56500000D03*
X165000000Y-71000000D03*
X156000000Y-71000000D03*
D14*
X137500000Y-61000000D03*
D15*
X137500000Y-66080000D03*
X137500000Y-63540000D03*
D14*
X155500000Y-46500000D03*
D15*
X155500000Y-51580000D03*
X155500000Y-49040000D03*
D14*
X135750000Y-46500000D03*
D15*
X135750000Y-51580000D03*
X135750000Y-49040000D03*
D14*
X155500000Y-61000000D03*
D15*
X155500000Y-66080000D03*
X155500000Y-63540000D03*
D16*
X145500000Y-77500000D03*
D17*
G36*
X148624504Y-76501204D02*
G01*
X148648773Y-76504804D01*
X148672571Y-76510765D01*
X148695671Y-76519030D01*
X148717849Y-76529520D01*
X148738893Y-76542133D01*
X148758598Y-76556747D01*
X148776777Y-76573223D01*
X148793253Y-76591402D01*
X148807867Y-76611107D01*
X148820480Y-76632151D01*
X148830970Y-76654329D01*
X148839235Y-76677429D01*
X148845196Y-76701227D01*
X148848796Y-76725496D01*
X148850000Y-76750000D01*
X148850000Y-78250000D01*
X148848796Y-78274504D01*
X148845196Y-78298773D01*
X148839235Y-78322571D01*
X148830970Y-78345671D01*
X148820480Y-78367849D01*
X148807867Y-78388893D01*
X148793253Y-78408598D01*
X148776777Y-78426777D01*
X148758598Y-78443253D01*
X148738893Y-78457867D01*
X148717849Y-78470480D01*
X148695671Y-78480970D01*
X148672571Y-78489235D01*
X148648773Y-78495196D01*
X148624504Y-78498796D01*
X148600000Y-78500000D01*
X147400000Y-78500000D01*
X147375496Y-78498796D01*
X147351227Y-78495196D01*
X147327429Y-78489235D01*
X147304329Y-78480970D01*
X147282151Y-78470480D01*
X147261107Y-78457867D01*
X147241402Y-78443253D01*
X147223223Y-78426777D01*
X147206747Y-78408598D01*
X147192133Y-78388893D01*
X147179520Y-78367849D01*
X147169030Y-78345671D01*
X147160765Y-78322571D01*
X147154804Y-78298773D01*
X147151204Y-78274504D01*
X147150000Y-78250000D01*
X147150000Y-76750000D01*
X147151204Y-76725496D01*
X147154804Y-76701227D01*
X147160765Y-76677429D01*
X147169030Y-76654329D01*
X147179520Y-76632151D01*
X147192133Y-76611107D01*
X147206747Y-76591402D01*
X147223223Y-76573223D01*
X147241402Y-76556747D01*
X147261107Y-76542133D01*
X147282151Y-76529520D01*
X147304329Y-76519030D01*
X147327429Y-76510765D01*
X147351227Y-76504804D01*
X147375496Y-76501204D01*
X147400000Y-76500000D01*
X148600000Y-76500000D01*
X148624504Y-76501204D01*
X148624504Y-76501204D01*
G37*
D18*
X148000000Y-77500000D03*
D19*
X128500000Y-62500000D03*
D17*
G36*
X129274504Y-64151204D02*
G01*
X129298773Y-64154804D01*
X129322571Y-64160765D01*
X129345671Y-64169030D01*
X129367849Y-64179520D01*
X129388893Y-64192133D01*
X129408598Y-64206747D01*
X129426777Y-64223223D01*
X129443253Y-64241402D01*
X129457867Y-64261107D01*
X129470480Y-64282151D01*
X129480970Y-64304329D01*
X129489235Y-64327429D01*
X129495196Y-64351227D01*
X129498796Y-64375496D01*
X129500000Y-64400000D01*
X129500000Y-65600000D01*
X129498796Y-65624504D01*
X129495196Y-65648773D01*
X129489235Y-65672571D01*
X129480970Y-65695671D01*
X129470480Y-65717849D01*
X129457867Y-65738893D01*
X129443253Y-65758598D01*
X129426777Y-65776777D01*
X129408598Y-65793253D01*
X129388893Y-65807867D01*
X129367849Y-65820480D01*
X129345671Y-65830970D01*
X129322571Y-65839235D01*
X129298773Y-65845196D01*
X129274504Y-65848796D01*
X129250000Y-65850000D01*
X127750000Y-65850000D01*
X127725496Y-65848796D01*
X127701227Y-65845196D01*
X127677429Y-65839235D01*
X127654329Y-65830970D01*
X127632151Y-65820480D01*
X127611107Y-65807867D01*
X127591402Y-65793253D01*
X127573223Y-65776777D01*
X127556747Y-65758598D01*
X127542133Y-65738893D01*
X127529520Y-65717849D01*
X127519030Y-65695671D01*
X127510765Y-65672571D01*
X127504804Y-65648773D01*
X127501204Y-65624504D01*
X127500000Y-65600000D01*
X127500000Y-64400000D01*
X127501204Y-64375496D01*
X127504804Y-64351227D01*
X127510765Y-64327429D01*
X127519030Y-64304329D01*
X127529520Y-64282151D01*
X127542133Y-64261107D01*
X127556747Y-64241402D01*
X127573223Y-64223223D01*
X127591402Y-64206747D01*
X127611107Y-64192133D01*
X127632151Y-64179520D01*
X127654329Y-64169030D01*
X127677429Y-64160765D01*
X127701227Y-64154804D01*
X127725496Y-64151204D01*
X127750000Y-64150000D01*
X129250000Y-64150000D01*
X129274504Y-64151204D01*
X129274504Y-64151204D01*
G37*
D18*
X128500000Y-65000000D03*
D19*
X165000000Y-50500000D03*
D17*
G36*
X165774504Y-47151204D02*
G01*
X165798773Y-47154804D01*
X165822571Y-47160765D01*
X165845671Y-47169030D01*
X165867849Y-47179520D01*
X165888893Y-47192133D01*
X165908598Y-47206747D01*
X165926777Y-47223223D01*
X165943253Y-47241402D01*
X165957867Y-47261107D01*
X165970480Y-47282151D01*
X165980970Y-47304329D01*
X165989235Y-47327429D01*
X165995196Y-47351227D01*
X165998796Y-47375496D01*
X166000000Y-47400000D01*
X166000000Y-48600000D01*
X165998796Y-48624504D01*
X165995196Y-48648773D01*
X165989235Y-48672571D01*
X165980970Y-48695671D01*
X165970480Y-48717849D01*
X165957867Y-48738893D01*
X165943253Y-48758598D01*
X165926777Y-48776777D01*
X165908598Y-48793253D01*
X165888893Y-48807867D01*
X165867849Y-48820480D01*
X165845671Y-48830970D01*
X165822571Y-48839235D01*
X165798773Y-48845196D01*
X165774504Y-48848796D01*
X165750000Y-48850000D01*
X164250000Y-48850000D01*
X164225496Y-48848796D01*
X164201227Y-48845196D01*
X164177429Y-48839235D01*
X164154329Y-48830970D01*
X164132151Y-48820480D01*
X164111107Y-48807867D01*
X164091402Y-48793253D01*
X164073223Y-48776777D01*
X164056747Y-48758598D01*
X164042133Y-48738893D01*
X164029520Y-48717849D01*
X164019030Y-48695671D01*
X164010765Y-48672571D01*
X164004804Y-48648773D01*
X164001204Y-48624504D01*
X164000000Y-48600000D01*
X164000000Y-47400000D01*
X164001204Y-47375496D01*
X164004804Y-47351227D01*
X164010765Y-47327429D01*
X164019030Y-47304329D01*
X164029520Y-47282151D01*
X164042133Y-47261107D01*
X164056747Y-47241402D01*
X164073223Y-47223223D01*
X164091402Y-47206747D01*
X164111107Y-47192133D01*
X164132151Y-47179520D01*
X164154329Y-47169030D01*
X164177429Y-47160765D01*
X164201227Y-47154804D01*
X164225496Y-47151204D01*
X164250000Y-47150000D01*
X165750000Y-47150000D01*
X165774504Y-47151204D01*
X165774504Y-47151204D01*
G37*
D18*
X165000000Y-48000000D03*
D19*
X128500000Y-48000000D03*
D17*
G36*
X129274504Y-49651204D02*
G01*
X129298773Y-49654804D01*
X129322571Y-49660765D01*
X129345671Y-49669030D01*
X129367849Y-49679520D01*
X129388893Y-49692133D01*
X129408598Y-49706747D01*
X129426777Y-49723223D01*
X129443253Y-49741402D01*
X129457867Y-49761107D01*
X129470480Y-49782151D01*
X129480970Y-49804329D01*
X129489235Y-49827429D01*
X129495196Y-49851227D01*
X129498796Y-49875496D01*
X129500000Y-49900000D01*
X129500000Y-51100000D01*
X129498796Y-51124504D01*
X129495196Y-51148773D01*
X129489235Y-51172571D01*
X129480970Y-51195671D01*
X129470480Y-51217849D01*
X129457867Y-51238893D01*
X129443253Y-51258598D01*
X129426777Y-51276777D01*
X129408598Y-51293253D01*
X129388893Y-51307867D01*
X129367849Y-51320480D01*
X129345671Y-51330970D01*
X129322571Y-51339235D01*
X129298773Y-51345196D01*
X129274504Y-51348796D01*
X129250000Y-51350000D01*
X127750000Y-51350000D01*
X127725496Y-51348796D01*
X127701227Y-51345196D01*
X127677429Y-51339235D01*
X127654329Y-51330970D01*
X127632151Y-51320480D01*
X127611107Y-51307867D01*
X127591402Y-51293253D01*
X127573223Y-51276777D01*
X127556747Y-51258598D01*
X127542133Y-51238893D01*
X127529520Y-51217849D01*
X127519030Y-51195671D01*
X127510765Y-51172571D01*
X127504804Y-51148773D01*
X127501204Y-51124504D01*
X127500000Y-51100000D01*
X127500000Y-49900000D01*
X127501204Y-49875496D01*
X127504804Y-49851227D01*
X127510765Y-49827429D01*
X127519030Y-49804329D01*
X127529520Y-49782151D01*
X127542133Y-49761107D01*
X127556747Y-49741402D01*
X127573223Y-49723223D01*
X127591402Y-49706747D01*
X127611107Y-49692133D01*
X127632151Y-49679520D01*
X127654329Y-49669030D01*
X127677429Y-49660765D01*
X127701227Y-49654804D01*
X127725496Y-49651204D01*
X127750000Y-49650000D01*
X129250000Y-49650000D01*
X129274504Y-49651204D01*
X129274504Y-49651204D01*
G37*
D18*
X128500000Y-50500000D03*
D19*
X165000000Y-65000000D03*
D17*
G36*
X165774504Y-61651204D02*
G01*
X165798773Y-61654804D01*
X165822571Y-61660765D01*
X165845671Y-61669030D01*
X165867849Y-61679520D01*
X165888893Y-61692133D01*
X165908598Y-61706747D01*
X165926777Y-61723223D01*
X165943253Y-61741402D01*
X165957867Y-61761107D01*
X165970480Y-61782151D01*
X165980970Y-61804329D01*
X165989235Y-61827429D01*
X165995196Y-61851227D01*
X165998796Y-61875496D01*
X166000000Y-61900000D01*
X166000000Y-63100000D01*
X165998796Y-63124504D01*
X165995196Y-63148773D01*
X165989235Y-63172571D01*
X165980970Y-63195671D01*
X165970480Y-63217849D01*
X165957867Y-63238893D01*
X165943253Y-63258598D01*
X165926777Y-63276777D01*
X165908598Y-63293253D01*
X165888893Y-63307867D01*
X165867849Y-63320480D01*
X165845671Y-63330970D01*
X165822571Y-63339235D01*
X165798773Y-63345196D01*
X165774504Y-63348796D01*
X165750000Y-63350000D01*
X164250000Y-63350000D01*
X164225496Y-63348796D01*
X164201227Y-63345196D01*
X164177429Y-63339235D01*
X164154329Y-63330970D01*
X164132151Y-63320480D01*
X164111107Y-63307867D01*
X164091402Y-63293253D01*
X164073223Y-63276777D01*
X164056747Y-63258598D01*
X164042133Y-63238893D01*
X164029520Y-63217849D01*
X164019030Y-63195671D01*
X164010765Y-63172571D01*
X164004804Y-63148773D01*
X164001204Y-63124504D01*
X164000000Y-63100000D01*
X164000000Y-61900000D01*
X164001204Y-61875496D01*
X164004804Y-61851227D01*
X164010765Y-61827429D01*
X164019030Y-61804329D01*
X164029520Y-61782151D01*
X164042133Y-61761107D01*
X164056747Y-61741402D01*
X164073223Y-61723223D01*
X164091402Y-61706747D01*
X164111107Y-61692133D01*
X164132151Y-61679520D01*
X164154329Y-61669030D01*
X164177429Y-61660765D01*
X164201227Y-61654804D01*
X164225496Y-61651204D01*
X164250000Y-61650000D01*
X165750000Y-61650000D01*
X165774504Y-61651204D01*
X165774504Y-61651204D01*
G37*
D18*
X165000000Y-62500000D03*
D20*
X157500000Y-38000000D03*
X155000000Y-38000000D03*
X152500000Y-38000000D03*
D17*
G36*
X150624504Y-37026204D02*
G01*
X150648773Y-37029804D01*
X150672571Y-37035765D01*
X150695671Y-37044030D01*
X150717849Y-37054520D01*
X150738893Y-37067133D01*
X150758598Y-37081747D01*
X150776777Y-37098223D01*
X150793253Y-37116402D01*
X150807867Y-37136107D01*
X150820480Y-37157151D01*
X150830970Y-37179329D01*
X150839235Y-37202429D01*
X150845196Y-37226227D01*
X150848796Y-37250496D01*
X150850000Y-37275000D01*
X150850000Y-38725000D01*
X150848796Y-38749504D01*
X150845196Y-38773773D01*
X150839235Y-38797571D01*
X150830970Y-38820671D01*
X150820480Y-38842849D01*
X150807867Y-38863893D01*
X150793253Y-38883598D01*
X150776777Y-38901777D01*
X150758598Y-38918253D01*
X150738893Y-38932867D01*
X150717849Y-38945480D01*
X150695671Y-38955970D01*
X150672571Y-38964235D01*
X150648773Y-38970196D01*
X150624504Y-38973796D01*
X150600000Y-38975000D01*
X149400000Y-38975000D01*
X149375496Y-38973796D01*
X149351227Y-38970196D01*
X149327429Y-38964235D01*
X149304329Y-38955970D01*
X149282151Y-38945480D01*
X149261107Y-38932867D01*
X149241402Y-38918253D01*
X149223223Y-38901777D01*
X149206747Y-38883598D01*
X149192133Y-38863893D01*
X149179520Y-38842849D01*
X149169030Y-38820671D01*
X149160765Y-38797571D01*
X149154804Y-38773773D01*
X149151204Y-38749504D01*
X149150000Y-38725000D01*
X149150000Y-37275000D01*
X149151204Y-37250496D01*
X149154804Y-37226227D01*
X149160765Y-37202429D01*
X149169030Y-37179329D01*
X149179520Y-37157151D01*
X149192133Y-37136107D01*
X149206747Y-37116402D01*
X149223223Y-37098223D01*
X149241402Y-37081747D01*
X149261107Y-37067133D01*
X149282151Y-37054520D01*
X149304329Y-37044030D01*
X149327429Y-37035765D01*
X149351227Y-37029804D01*
X149375496Y-37026204D01*
X149400000Y-37025000D01*
X150600000Y-37025000D01*
X150624504Y-37026204D01*
X150624504Y-37026204D01*
G37*
D18*
X150000000Y-38000000D03*
D20*
X143500000Y-38000000D03*
X141000000Y-38000000D03*
X138500000Y-38000000D03*
D17*
G36*
X136624504Y-37026204D02*
G01*
X136648773Y-37029804D01*
X136672571Y-37035765D01*
X136695671Y-37044030D01*
X136717849Y-37054520D01*
X136738893Y-37067133D01*
X136758598Y-37081747D01*
X136776777Y-37098223D01*
X136793253Y-37116402D01*
X136807867Y-37136107D01*
X136820480Y-37157151D01*
X136830970Y-37179329D01*
X136839235Y-37202429D01*
X136845196Y-37226227D01*
X136848796Y-37250496D01*
X136850000Y-37275000D01*
X136850000Y-38725000D01*
X136848796Y-38749504D01*
X136845196Y-38773773D01*
X136839235Y-38797571D01*
X136830970Y-38820671D01*
X136820480Y-38842849D01*
X136807867Y-38863893D01*
X136793253Y-38883598D01*
X136776777Y-38901777D01*
X136758598Y-38918253D01*
X136738893Y-38932867D01*
X136717849Y-38945480D01*
X136695671Y-38955970D01*
X136672571Y-38964235D01*
X136648773Y-38970196D01*
X136624504Y-38973796D01*
X136600000Y-38975000D01*
X135400000Y-38975000D01*
X135375496Y-38973796D01*
X135351227Y-38970196D01*
X135327429Y-38964235D01*
X135304329Y-38955970D01*
X135282151Y-38945480D01*
X135261107Y-38932867D01*
X135241402Y-38918253D01*
X135223223Y-38901777D01*
X135206747Y-38883598D01*
X135192133Y-38863893D01*
X135179520Y-38842849D01*
X135169030Y-38820671D01*
X135160765Y-38797571D01*
X135154804Y-38773773D01*
X135151204Y-38749504D01*
X135150000Y-38725000D01*
X135150000Y-37275000D01*
X135151204Y-37250496D01*
X135154804Y-37226227D01*
X135160765Y-37202429D01*
X135169030Y-37179329D01*
X135179520Y-37157151D01*
X135192133Y-37136107D01*
X135206747Y-37116402D01*
X135223223Y-37098223D01*
X135241402Y-37081747D01*
X135261107Y-37067133D01*
X135282151Y-37054520D01*
X135304329Y-37044030D01*
X135327429Y-37035765D01*
X135351227Y-37029804D01*
X135375496Y-37026204D01*
X135400000Y-37025000D01*
X136600000Y-37025000D01*
X136624504Y-37026204D01*
X136624504Y-37026204D01*
G37*
D18*
X136000000Y-38000000D03*
D21*
X142210000Y-49540000D02*
X140250000Y-51500000D01*
X143000000Y-49540000D02*
X142210000Y-49540000D01*
D22*
X135960000Y-49040000D02*
X128500000Y-56500000D01*
X135960000Y-63540000D02*
X128500000Y-71000000D01*
X137500000Y-63540000D02*
X135960000Y-63540000D01*
X157540000Y-49040000D02*
X165000000Y-56500000D01*
X155500000Y-49040000D02*
X157540000Y-49040000D01*
X157540000Y-63540000D02*
X165000000Y-71000000D01*
X155500000Y-63540000D02*
X157540000Y-63540000D01*
X139380000Y-54620000D02*
X137500000Y-56500000D01*
X143000000Y-54620000D02*
X139380000Y-54620000D01*
X138499999Y-70000001D02*
X137500000Y-71000000D01*
X139000000Y-69500000D02*
X138499999Y-70000001D01*
X143000000Y-57160000D02*
X139000000Y-61160000D01*
X139000000Y-61160000D02*
X139000000Y-69500000D01*
X154120000Y-54620000D02*
X156000000Y-56500000D01*
X150620000Y-54620000D02*
X154120000Y-54620000D01*
X155000001Y-70000001D02*
X156000000Y-71000000D01*
X154000000Y-69000000D02*
X155000001Y-70000001D01*
X150620000Y-57160000D02*
X154000000Y-60540000D01*
X154000000Y-60540000D02*
X154000000Y-69000000D01*
X143799999Y-63980001D02*
X143000000Y-64780000D01*
X145500000Y-62280000D02*
X143799999Y-63980001D01*
X145500000Y-41475000D02*
X145500000Y-62280000D01*
X143500000Y-38000000D02*
X143500000Y-39475000D01*
X143500000Y-39475000D02*
X145500000Y-41475000D01*
X143799999Y-51280001D02*
X143000000Y-52080000D01*
X144500000Y-50580000D02*
X143799999Y-51280001D01*
X144500000Y-42975000D02*
X144500000Y-50580000D01*
X141000000Y-38000000D02*
X141000000Y-39475000D01*
X141000000Y-39475000D02*
X144500000Y-42975000D01*
X157500000Y-38125000D02*
X157500000Y-38000000D01*
X149000000Y-46625000D02*
X157500000Y-38125000D01*
X150620000Y-64780000D02*
X149000000Y-63160000D01*
X149000000Y-63160000D02*
X149000000Y-46625000D01*
X150620000Y-67320000D02*
X148000000Y-64700000D01*
X155000000Y-38125000D02*
X155000000Y-38000000D01*
X148000000Y-45125000D02*
X155000000Y-38125000D01*
X148000000Y-45500000D02*
X148000000Y-45125000D01*
X148000000Y-64700000D02*
X148000000Y-45500000D01*
X132500000Y-46500000D02*
X128500000Y-50500000D01*
X135750000Y-46500000D02*
X132500000Y-46500000D01*
X132500000Y-61000000D02*
X128500000Y-65000000D01*
X137500000Y-61000000D02*
X132500000Y-61000000D01*
X163500000Y-46500000D02*
X165000000Y-48000000D01*
X155500000Y-46500000D02*
X163500000Y-46500000D01*
X163500000Y-61000000D02*
X165000000Y-62500000D01*
X155500000Y-61000000D02*
X163500000Y-61000000D01*
G36*
X162250000Y-40500000D02*
G01*
X162254804Y-40548773D01*
X162269030Y-40595671D01*
X162292133Y-40638893D01*
X162323223Y-40676777D01*
X162361107Y-40707867D01*
X162404329Y-40730970D01*
X162451227Y-40745196D01*
X162500000Y-40750000D01*
X168725000Y-40750000D01*
X168725001Y-74750000D01*
X162500000Y-74750000D01*
X162451227Y-74754804D01*
X162404329Y-74769030D01*
X162361107Y-74792133D01*
X162323223Y-74823223D01*
X162292133Y-74861107D01*
X162269030Y-74904329D01*
X162254804Y-74951227D01*
X162250000Y-75000000D01*
X162250000Y-81225000D01*
X131250000Y-81225000D01*
X131250000Y-77271403D01*
X143900000Y-77271403D01*
X143900000Y-77728596D01*
X143923151Y-77963654D01*
X144014641Y-78265255D01*
X144163212Y-78543212D01*
X144363155Y-78786845D01*
X144606787Y-78986788D01*
X144884744Y-79135359D01*
X145186345Y-79226849D01*
X145500000Y-79257741D01*
X145813654Y-79226849D01*
X146115255Y-79135359D01*
X146393212Y-78986788D01*
X146508990Y-78891772D01*
X146523380Y-78918694D01*
X146617104Y-79032896D01*
X146731306Y-79126620D01*
X146861599Y-79196262D01*
X147002974Y-79239148D01*
X147150000Y-79253629D01*
X147562500Y-79250000D01*
X147750000Y-79062500D01*
X147750000Y-77750000D01*
X148250000Y-77750000D01*
X148250000Y-79062500D01*
X148437500Y-79250000D01*
X148850000Y-79253629D01*
X148997026Y-79239148D01*
X149138401Y-79196262D01*
X149268694Y-79126620D01*
X149382896Y-79032896D01*
X149476620Y-78918694D01*
X149546262Y-78788401D01*
X149589148Y-78647026D01*
X149603629Y-78500000D01*
X149600000Y-77937500D01*
X149412500Y-77750000D01*
X148250000Y-77750000D01*
X147750000Y-77750000D01*
X147730000Y-77750000D01*
X147730000Y-77250000D01*
X147750000Y-77250000D01*
X147750000Y-75937500D01*
X148250000Y-75937500D01*
X148250000Y-77250000D01*
X149412500Y-77250000D01*
X149600000Y-77062500D01*
X149603629Y-76500000D01*
X149589148Y-76352974D01*
X149546262Y-76211599D01*
X149476620Y-76081306D01*
X149382896Y-75967104D01*
X149268694Y-75873380D01*
X149138401Y-75803738D01*
X148997026Y-75760852D01*
X148850000Y-75746371D01*
X148437500Y-75750000D01*
X148250000Y-75937500D01*
X147750000Y-75937500D01*
X147562500Y-75750000D01*
X147150000Y-75746371D01*
X147002974Y-75760852D01*
X146861599Y-75803738D01*
X146731306Y-75873380D01*
X146617104Y-75967104D01*
X146523380Y-76081306D01*
X146508990Y-76108228D01*
X146393213Y-76013212D01*
X146115256Y-75864641D01*
X145813655Y-75773151D01*
X145500000Y-75742259D01*
X145186346Y-75773151D01*
X144884745Y-75864641D01*
X144606788Y-76013212D01*
X144363155Y-76213155D01*
X144163212Y-76456787D01*
X144014641Y-76734744D01*
X143923151Y-77036345D01*
X143900000Y-77271403D01*
X131250000Y-77271403D01*
X131250000Y-75000000D01*
X131245196Y-74951227D01*
X131230970Y-74904329D01*
X131207867Y-74861107D01*
X131176777Y-74823223D01*
X131138893Y-74792133D01*
X131095671Y-74769030D01*
X131048773Y-74754804D01*
X131000000Y-74750000D01*
X124775000Y-74750000D01*
X124775000Y-62500000D01*
X126742259Y-62500000D01*
X126773151Y-62813655D01*
X126864641Y-63115256D01*
X127013212Y-63393213D01*
X127169828Y-63584050D01*
X127040328Y-63690328D01*
X126915514Y-63842414D01*
X126822769Y-64015928D01*
X126765656Y-64204202D01*
X126746372Y-64400000D01*
X126746372Y-65600000D01*
X126765656Y-65795798D01*
X126822769Y-65984072D01*
X126915514Y-66157586D01*
X127040328Y-66309672D01*
X127192414Y-66434486D01*
X127365928Y-66527231D01*
X127554202Y-66584344D01*
X127750000Y-66603628D01*
X129250000Y-66603628D01*
X129445798Y-66584344D01*
X129634072Y-66527231D01*
X129807586Y-66434486D01*
X129959672Y-66309672D01*
X130084486Y-66157586D01*
X130177231Y-65984072D01*
X130234344Y-65795798D01*
X130253628Y-65600000D01*
X130253628Y-64660584D01*
X132914213Y-62000000D01*
X136042090Y-62000000D01*
X136053739Y-62038401D01*
X136123381Y-62168693D01*
X136217105Y-62282895D01*
X136331307Y-62376619D01*
X136461599Y-62446261D01*
X136469901Y-62448779D01*
X136378680Y-62540000D01*
X136009117Y-62540000D01*
X135959999Y-62535162D01*
X135910881Y-62540000D01*
X135910880Y-62540000D01*
X135763966Y-62554470D01*
X135575465Y-62611651D01*
X135401742Y-62704508D01*
X135249472Y-62829472D01*
X135218155Y-62867632D01*
X128808674Y-69277114D01*
X128672360Y-69250000D01*
X128327640Y-69250000D01*
X127989544Y-69317251D01*
X127671064Y-69449170D01*
X127384440Y-69640686D01*
X127140686Y-69884440D01*
X126949170Y-70171064D01*
X126817251Y-70489544D01*
X126750000Y-70827640D01*
X126750000Y-71172360D01*
X126817251Y-71510456D01*
X126949170Y-71828936D01*
X127140686Y-72115560D01*
X127384440Y-72359314D01*
X127671064Y-72550830D01*
X127989544Y-72682749D01*
X128327640Y-72750000D01*
X128672360Y-72750000D01*
X129010456Y-72682749D01*
X129328936Y-72550830D01*
X129615560Y-72359314D01*
X129859314Y-72115560D01*
X130050830Y-71828936D01*
X130182749Y-71510456D01*
X130250000Y-71172360D01*
X130250000Y-70827640D01*
X130222886Y-70691326D01*
X134938109Y-65976103D01*
X135996328Y-65976103D01*
X136004951Y-66271451D01*
X136071028Y-66559442D01*
X136150547Y-66751418D01*
X136406910Y-66819537D01*
X137146447Y-66080000D01*
X136406910Y-65340463D01*
X136150547Y-65408582D01*
X136045489Y-65684748D01*
X135996328Y-65976103D01*
X134938109Y-65976103D01*
X136374213Y-64540000D01*
X136378680Y-64540000D01*
X136543806Y-64705126D01*
X136789483Y-64869283D01*
X136791496Y-64870117D01*
X136760463Y-64986910D01*
X137500000Y-65726447D01*
X137514143Y-65712305D01*
X137867696Y-66065858D01*
X137853553Y-66080000D01*
X137867696Y-66094143D01*
X137514143Y-66447696D01*
X137500000Y-66433553D01*
X136760463Y-67173090D01*
X136828582Y-67429453D01*
X137104748Y-67534511D01*
X137396103Y-67583672D01*
X137691451Y-67575049D01*
X137979442Y-67508972D01*
X138000001Y-67500456D01*
X138000001Y-69085787D01*
X137827631Y-69258157D01*
X137827625Y-69258162D01*
X137808673Y-69277114D01*
X137672360Y-69250000D01*
X137327640Y-69250000D01*
X136989544Y-69317251D01*
X136671064Y-69449170D01*
X136384440Y-69640686D01*
X136140686Y-69884440D01*
X135949170Y-70171064D01*
X135817251Y-70489544D01*
X135750000Y-70827640D01*
X135750000Y-71172360D01*
X135817251Y-71510456D01*
X135949170Y-71828936D01*
X136140686Y-72115560D01*
X136384440Y-72359314D01*
X136671064Y-72550830D01*
X136989544Y-72682749D01*
X137327640Y-72750000D01*
X137672360Y-72750000D01*
X138010456Y-72682749D01*
X138328936Y-72550830D01*
X138615560Y-72359314D01*
X138859314Y-72115560D01*
X139050830Y-71828936D01*
X139182749Y-71510456D01*
X139250000Y-71172360D01*
X139250000Y-70827640D01*
X139222886Y-70691327D01*
X139241838Y-70672375D01*
X139241843Y-70672369D01*
X139672363Y-70241849D01*
X139710528Y-70210528D01*
X139835492Y-70058258D01*
X139928349Y-69884535D01*
X139985530Y-69696034D01*
X140000000Y-69549120D01*
X140000000Y-69549119D01*
X140004838Y-69500001D01*
X140000000Y-69450883D01*
X140000000Y-61574212D01*
X141495221Y-60078991D01*
X141561059Y-60296029D01*
X141704987Y-60565300D01*
X141898682Y-60801318D01*
X142104222Y-60970000D01*
X141898682Y-61138682D01*
X141704987Y-61374700D01*
X141561059Y-61643971D01*
X141472428Y-61936147D01*
X141442501Y-62240000D01*
X141472428Y-62543853D01*
X141561059Y-62836029D01*
X141704987Y-63105300D01*
X141898682Y-63341318D01*
X142104222Y-63510000D01*
X141898682Y-63678682D01*
X141704987Y-63914700D01*
X141561059Y-64183971D01*
X141472428Y-64476147D01*
X141442501Y-64780000D01*
X141472428Y-65083853D01*
X141561059Y-65376029D01*
X141704987Y-65645300D01*
X141898682Y-65881318D01*
X142104222Y-66050000D01*
X141898682Y-66218682D01*
X141704987Y-66454700D01*
X141561059Y-66723971D01*
X141472428Y-67016147D01*
X141442501Y-67320000D01*
X141472428Y-67623853D01*
X141561059Y-67916029D01*
X141704987Y-68185300D01*
X141898682Y-68421318D01*
X142104222Y-68590000D01*
X141898682Y-68758682D01*
X141704987Y-68994700D01*
X141561059Y-69263971D01*
X141472428Y-69556147D01*
X141442501Y-69860000D01*
X141472428Y-70163853D01*
X141561059Y-70456029D01*
X141704987Y-70725300D01*
X141898682Y-70961318D01*
X142134700Y-71155013D01*
X142403971Y-71298941D01*
X142696147Y-71387572D01*
X142923862Y-71410000D01*
X143076138Y-71410000D01*
X143303853Y-71387572D01*
X143596029Y-71298941D01*
X143865300Y-71155013D01*
X144101318Y-70961318D01*
X144295013Y-70725300D01*
X144438941Y-70456029D01*
X144527572Y-70163853D01*
X144557499Y-69860000D01*
X144527572Y-69556147D01*
X144438941Y-69263971D01*
X144295013Y-68994700D01*
X144101318Y-68758682D01*
X143895778Y-68590000D01*
X144101318Y-68421318D01*
X144295013Y-68185300D01*
X144438941Y-67916029D01*
X144527572Y-67623853D01*
X144557499Y-67320000D01*
X144527572Y-67016147D01*
X144438941Y-66723971D01*
X144295013Y-66454700D01*
X144101318Y-66218682D01*
X143895778Y-66050000D01*
X144101318Y-65881318D01*
X144295013Y-65645300D01*
X144438941Y-65376029D01*
X144527572Y-65083853D01*
X144557499Y-64780000D01*
X144544652Y-64649560D01*
X146172374Y-63021840D01*
X146210528Y-62990528D01*
X146335492Y-62838258D01*
X146428349Y-62664535D01*
X146485530Y-62476034D01*
X146500000Y-62329120D01*
X146500000Y-62329119D01*
X146504838Y-62280001D01*
X146500000Y-62230883D01*
X146500000Y-45125000D01*
X146995162Y-45125000D01*
X147000000Y-45174120D01*
X147000000Y-45549119D01*
X147000001Y-45549129D01*
X147000000Y-64650880D01*
X146995162Y-64700000D01*
X147005402Y-64803966D01*
X147014470Y-64896033D01*
X147071651Y-65084534D01*
X147164508Y-65258258D01*
X147289472Y-65410528D01*
X147327637Y-65441849D01*
X149075348Y-67189561D01*
X149062501Y-67320000D01*
X149092428Y-67623853D01*
X149181059Y-67916029D01*
X149324987Y-68185300D01*
X149518682Y-68421318D01*
X149724222Y-68590000D01*
X149518682Y-68758682D01*
X149324987Y-68994700D01*
X149181059Y-69263971D01*
X149092428Y-69556147D01*
X149062501Y-69860000D01*
X149092428Y-70163853D01*
X149181059Y-70456029D01*
X149324987Y-70725300D01*
X149518682Y-70961318D01*
X149754700Y-71155013D01*
X150023971Y-71298941D01*
X150316147Y-71387572D01*
X150543862Y-71410000D01*
X150696138Y-71410000D01*
X150923853Y-71387572D01*
X151216029Y-71298941D01*
X151485300Y-71155013D01*
X151721318Y-70961318D01*
X151915013Y-70725300D01*
X152058941Y-70456029D01*
X152147572Y-70163853D01*
X152177499Y-69860000D01*
X152147572Y-69556147D01*
X152058941Y-69263971D01*
X151915013Y-68994700D01*
X151721318Y-68758682D01*
X151515778Y-68590000D01*
X151721318Y-68421318D01*
X151915013Y-68185300D01*
X152058941Y-67916029D01*
X152147572Y-67623853D01*
X152177499Y-67320000D01*
X152147572Y-67016147D01*
X152058941Y-66723971D01*
X151915013Y-66454700D01*
X151721318Y-66218682D01*
X151515778Y-66050000D01*
X151721318Y-65881318D01*
X151915013Y-65645300D01*
X152058941Y-65376029D01*
X152147572Y-65083853D01*
X152177499Y-64780000D01*
X152147572Y-64476147D01*
X152058941Y-64183971D01*
X151915013Y-63914700D01*
X151721318Y-63678682D01*
X151515778Y-63510000D01*
X151721318Y-63341318D01*
X151915013Y-63105300D01*
X152058941Y-62836029D01*
X152147572Y-62543853D01*
X152177499Y-62240000D01*
X152147572Y-61936147D01*
X152058941Y-61643971D01*
X151915013Y-61374700D01*
X151721318Y-61138682D01*
X151515778Y-60970000D01*
X151721318Y-60801318D01*
X151915013Y-60565300D01*
X152058941Y-60296029D01*
X152124779Y-60078992D01*
X153000000Y-60954213D01*
X153000001Y-68950870D01*
X152995162Y-69000000D01*
X153014470Y-69196034D01*
X153071651Y-69384534D01*
X153071652Y-69384535D01*
X153164509Y-69558258D01*
X153289473Y-69710528D01*
X153327632Y-69741844D01*
X154277114Y-70691327D01*
X154250000Y-70827640D01*
X154250000Y-71172360D01*
X154317251Y-71510456D01*
X154449170Y-71828936D01*
X154640686Y-72115560D01*
X154884440Y-72359314D01*
X155171064Y-72550830D01*
X155489544Y-72682749D01*
X155827640Y-72750000D01*
X156172360Y-72750000D01*
X156510456Y-72682749D01*
X156828936Y-72550830D01*
X157115560Y-72359314D01*
X157359314Y-72115560D01*
X157550830Y-71828936D01*
X157682749Y-71510456D01*
X157750000Y-71172360D01*
X157750000Y-70827640D01*
X157682749Y-70489544D01*
X157550830Y-70171064D01*
X157359314Y-69884440D01*
X157115560Y-69640686D01*
X156828936Y-69449170D01*
X156510456Y-69317251D01*
X156172360Y-69250000D01*
X155827640Y-69250000D01*
X155691327Y-69277114D01*
X155000000Y-68585788D01*
X155000000Y-67494663D01*
X155104748Y-67534511D01*
X155396103Y-67583672D01*
X155691451Y-67575049D01*
X155979442Y-67508972D01*
X156171418Y-67429453D01*
X156239537Y-67173090D01*
X155500000Y-66433553D01*
X155485858Y-66447696D01*
X155132305Y-66094143D01*
X155146447Y-66080000D01*
X155853553Y-66080000D01*
X156593090Y-66819537D01*
X156849453Y-66751418D01*
X156954511Y-66475252D01*
X157003672Y-66183897D01*
X156995049Y-65888549D01*
X156928972Y-65600558D01*
X156849453Y-65408582D01*
X156593090Y-65340463D01*
X155853553Y-66080000D01*
X155146447Y-66080000D01*
X155132305Y-66065858D01*
X155485858Y-65712305D01*
X155500000Y-65726447D01*
X156239537Y-64986910D01*
X156208504Y-64870117D01*
X156210517Y-64869283D01*
X156456194Y-64705126D01*
X156621320Y-64540000D01*
X157125788Y-64540000D01*
X163277114Y-70691327D01*
X163250000Y-70827640D01*
X163250000Y-71172360D01*
X163317251Y-71510456D01*
X163449170Y-71828936D01*
X163640686Y-72115560D01*
X163884440Y-72359314D01*
X164171064Y-72550830D01*
X164489544Y-72682749D01*
X164827640Y-72750000D01*
X165172360Y-72750000D01*
X165510456Y-72682749D01*
X165828936Y-72550830D01*
X166115560Y-72359314D01*
X166359314Y-72115560D01*
X166550830Y-71828936D01*
X166682749Y-71510456D01*
X166750000Y-71172360D01*
X166750000Y-70827640D01*
X166682749Y-70489544D01*
X166550830Y-70171064D01*
X166359314Y-69884440D01*
X166115560Y-69640686D01*
X165828936Y-69449170D01*
X165510456Y-69317251D01*
X165172360Y-69250000D01*
X164827640Y-69250000D01*
X164691327Y-69277114D01*
X158281849Y-62867637D01*
X158250528Y-62829472D01*
X158098258Y-62704508D01*
X157924535Y-62611651D01*
X157736034Y-62554470D01*
X157589120Y-62540000D01*
X157540000Y-62535162D01*
X157490880Y-62540000D01*
X156621320Y-62540000D01*
X156530099Y-62448779D01*
X156538401Y-62446261D01*
X156668693Y-62376619D01*
X156782895Y-62282895D01*
X156876619Y-62168693D01*
X156946261Y-62038401D01*
X156957910Y-62000000D01*
X163085788Y-62000000D01*
X163246372Y-62160584D01*
X163246372Y-63100000D01*
X163265656Y-63295798D01*
X163322769Y-63484072D01*
X163415514Y-63657586D01*
X163540328Y-63809672D01*
X163669828Y-63915950D01*
X163513212Y-64106787D01*
X163364641Y-64384744D01*
X163273151Y-64686345D01*
X163242259Y-65000000D01*
X163273151Y-65313655D01*
X163364641Y-65615256D01*
X163513212Y-65893213D01*
X163713155Y-66136845D01*
X163956787Y-66336788D01*
X164234744Y-66485359D01*
X164536345Y-66576849D01*
X164771403Y-66600000D01*
X165228597Y-66600000D01*
X165463655Y-66576849D01*
X165765256Y-66485359D01*
X166043213Y-66336788D01*
X166286845Y-66136845D01*
X166486788Y-65893213D01*
X166635359Y-65615256D01*
X166726849Y-65313655D01*
X166757741Y-65000000D01*
X166726849Y-64686345D01*
X166635359Y-64384744D01*
X166486788Y-64106787D01*
X166330172Y-63915950D01*
X166459672Y-63809672D01*
X166584486Y-63657586D01*
X166677231Y-63484072D01*
X166734344Y-63295798D01*
X166753628Y-63100000D01*
X166753628Y-61900000D01*
X166734344Y-61704202D01*
X166677231Y-61515928D01*
X166584486Y-61342414D01*
X166459672Y-61190328D01*
X166307586Y-61065514D01*
X166134072Y-60972769D01*
X165945798Y-60915656D01*
X165750000Y-60896372D01*
X164810584Y-60896372D01*
X164241849Y-60327637D01*
X164210528Y-60289472D01*
X164058258Y-60164508D01*
X163884535Y-60071651D01*
X163696034Y-60014470D01*
X163549120Y-60000000D01*
X163500000Y-59995162D01*
X163450880Y-60000000D01*
X156957910Y-60000000D01*
X156946261Y-59961599D01*
X156876619Y-59831307D01*
X156782895Y-59717105D01*
X156668693Y-59623381D01*
X156538401Y-59553739D01*
X156397026Y-59510853D01*
X156250000Y-59496372D01*
X154750000Y-59496372D01*
X154602974Y-59510853D01*
X154461599Y-59553739D01*
X154439672Y-59565459D01*
X152164652Y-57290440D01*
X152177499Y-57160000D01*
X152147572Y-56856147D01*
X152058941Y-56563971D01*
X151915013Y-56294700D01*
X151721318Y-56058682D01*
X151515778Y-55890000D01*
X151721318Y-55721318D01*
X151804468Y-55620000D01*
X153705788Y-55620000D01*
X154277114Y-56191327D01*
X154250000Y-56327640D01*
X154250000Y-56672360D01*
X154317251Y-57010456D01*
X154449170Y-57328936D01*
X154640686Y-57615560D01*
X154884440Y-57859314D01*
X155171064Y-58050830D01*
X155489544Y-58182749D01*
X155827640Y-58250000D01*
X156172360Y-58250000D01*
X156510456Y-58182749D01*
X156828936Y-58050830D01*
X157115560Y-57859314D01*
X157359314Y-57615560D01*
X157550830Y-57328936D01*
X157682749Y-57010456D01*
X157750000Y-56672360D01*
X157750000Y-56327640D01*
X157682749Y-55989544D01*
X157550830Y-55671064D01*
X157359314Y-55384440D01*
X157115560Y-55140686D01*
X156828936Y-54949170D01*
X156510456Y-54817251D01*
X156172360Y-54750000D01*
X155827640Y-54750000D01*
X155691327Y-54777114D01*
X154861849Y-53947637D01*
X154830528Y-53909472D01*
X154678258Y-53784508D01*
X154504535Y-53691651D01*
X154316034Y-53634470D01*
X154169120Y-53620000D01*
X154120000Y-53615162D01*
X154070880Y-53620000D01*
X151804468Y-53620000D01*
X151721318Y-53518682D01*
X151515778Y-53350000D01*
X151721318Y-53181318D01*
X151915013Y-52945300D01*
X152058941Y-52676029D01*
X152059832Y-52673090D01*
X154760463Y-52673090D01*
X154828582Y-52929453D01*
X155104748Y-53034511D01*
X155396103Y-53083672D01*
X155691451Y-53075049D01*
X155979442Y-53008972D01*
X156171418Y-52929453D01*
X156239537Y-52673090D01*
X155500000Y-51933553D01*
X154760463Y-52673090D01*
X152059832Y-52673090D01*
X152147572Y-52383853D01*
X152177499Y-52080000D01*
X152147572Y-51776147D01*
X152058941Y-51483971D01*
X152054736Y-51476103D01*
X153996328Y-51476103D01*
X154004951Y-51771451D01*
X154071028Y-52059442D01*
X154150547Y-52251418D01*
X154406910Y-52319537D01*
X155146447Y-51580000D01*
X155853553Y-51580000D01*
X156593090Y-52319537D01*
X156849453Y-52251418D01*
X156954511Y-51975252D01*
X157003672Y-51683897D01*
X156995049Y-51388549D01*
X156928972Y-51100558D01*
X156849453Y-50908582D01*
X156593090Y-50840463D01*
X155853553Y-51580000D01*
X155146447Y-51580000D01*
X154406910Y-50840463D01*
X154150547Y-50908582D01*
X154045489Y-51184748D01*
X153996328Y-51476103D01*
X152054736Y-51476103D01*
X151915013Y-51214700D01*
X151721318Y-50978682D01*
X151515778Y-50810000D01*
X151721318Y-50641318D01*
X151915013Y-50405300D01*
X152058941Y-50136029D01*
X152147572Y-49843853D01*
X152177499Y-49540000D01*
X152147572Y-49236147D01*
X152058941Y-48943971D01*
X151915013Y-48674700D01*
X151721318Y-48438682D01*
X151515778Y-48270000D01*
X151721318Y-48101318D01*
X151915013Y-47865300D01*
X152058941Y-47596029D01*
X152147572Y-47303853D01*
X152177499Y-47000000D01*
X152147572Y-46696147D01*
X152058941Y-46403971D01*
X151915013Y-46134700D01*
X151721318Y-45898682D01*
X151540149Y-45750000D01*
X153996372Y-45750000D01*
X153996372Y-47250000D01*
X154010853Y-47397026D01*
X154053739Y-47538401D01*
X154123381Y-47668693D01*
X154217105Y-47782895D01*
X154331307Y-47876619D01*
X154461599Y-47946261D01*
X154469901Y-47948779D01*
X154334874Y-48083806D01*
X154170717Y-48329483D01*
X154057644Y-48602466D01*
X154000000Y-48892263D01*
X154000000Y-49187737D01*
X154057644Y-49477534D01*
X154170717Y-49750517D01*
X154334874Y-49996194D01*
X154543806Y-50205126D01*
X154789483Y-50369283D01*
X154791496Y-50370117D01*
X154760463Y-50486910D01*
X155500000Y-51226447D01*
X156239537Y-50486910D01*
X156208504Y-50370117D01*
X156210517Y-50369283D01*
X156456194Y-50205126D01*
X156621320Y-50040000D01*
X157125788Y-50040000D01*
X163277114Y-56191327D01*
X163250000Y-56327640D01*
X163250000Y-56672360D01*
X163317251Y-57010456D01*
X163449170Y-57328936D01*
X163640686Y-57615560D01*
X163884440Y-57859314D01*
X164171064Y-58050830D01*
X164489544Y-58182749D01*
X164827640Y-58250000D01*
X165172360Y-58250000D01*
X165510456Y-58182749D01*
X165828936Y-58050830D01*
X166115560Y-57859314D01*
X166359314Y-57615560D01*
X166550830Y-57328936D01*
X166682749Y-57010456D01*
X166750000Y-56672360D01*
X166750000Y-56327640D01*
X166682749Y-55989544D01*
X166550830Y-55671064D01*
X166359314Y-55384440D01*
X166115560Y-55140686D01*
X165828936Y-54949170D01*
X165510456Y-54817251D01*
X165172360Y-54750000D01*
X164827640Y-54750000D01*
X164691327Y-54777114D01*
X158281849Y-48367637D01*
X158250528Y-48329472D01*
X158098258Y-48204508D01*
X157924535Y-48111651D01*
X157736034Y-48054470D01*
X157589120Y-48040000D01*
X157540000Y-48035162D01*
X157490880Y-48040000D01*
X156621320Y-48040000D01*
X156530099Y-47948779D01*
X156538401Y-47946261D01*
X156668693Y-47876619D01*
X156782895Y-47782895D01*
X156876619Y-47668693D01*
X156946261Y-47538401D01*
X156957910Y-47500000D01*
X163085788Y-47500000D01*
X163246372Y-47660584D01*
X163246372Y-48600000D01*
X163265656Y-48795798D01*
X163322769Y-48984072D01*
X163415514Y-49157586D01*
X163540328Y-49309672D01*
X163669828Y-49415950D01*
X163513212Y-49606787D01*
X163364641Y-49884744D01*
X163273151Y-50186345D01*
X163242259Y-50500000D01*
X163273151Y-50813655D01*
X163364641Y-51115256D01*
X163513212Y-51393213D01*
X163713155Y-51636845D01*
X163956787Y-51836788D01*
X164234744Y-51985359D01*
X164536345Y-52076849D01*
X164771403Y-52100000D01*
X165228597Y-52100000D01*
X165463655Y-52076849D01*
X165765256Y-51985359D01*
X166043213Y-51836788D01*
X166286845Y-51636845D01*
X166486788Y-51393213D01*
X166635359Y-51115256D01*
X166726849Y-50813655D01*
X166757741Y-50500000D01*
X166726849Y-50186345D01*
X166635359Y-49884744D01*
X166486788Y-49606787D01*
X166330172Y-49415950D01*
X166459672Y-49309672D01*
X166584486Y-49157586D01*
X166677231Y-48984072D01*
X166734344Y-48795798D01*
X166753628Y-48600000D01*
X166753628Y-47400000D01*
X166734344Y-47204202D01*
X166677231Y-47015928D01*
X166584486Y-46842414D01*
X166459672Y-46690328D01*
X166307586Y-46565514D01*
X166134072Y-46472769D01*
X165945798Y-46415656D01*
X165750000Y-46396372D01*
X164810584Y-46396372D01*
X164241849Y-45827637D01*
X164210528Y-45789472D01*
X164058258Y-45664508D01*
X163884535Y-45571651D01*
X163696034Y-45514470D01*
X163549120Y-45500000D01*
X163500000Y-45495162D01*
X163450880Y-45500000D01*
X156957910Y-45500000D01*
X156946261Y-45461599D01*
X156876619Y-45331307D01*
X156782895Y-45217105D01*
X156668693Y-45123381D01*
X156538401Y-45053739D01*
X156397026Y-45010853D01*
X156250000Y-44996372D01*
X154750000Y-44996372D01*
X154602974Y-45010853D01*
X154461599Y-45053739D01*
X154331307Y-45123381D01*
X154217105Y-45217105D01*
X154123381Y-45331307D01*
X154053739Y-45461599D01*
X154010853Y-45602974D01*
X153996372Y-45750000D01*
X151540149Y-45750000D01*
X151485300Y-45704987D01*
X151386848Y-45652364D01*
X157323824Y-39715389D01*
X157500000Y-39732741D01*
X157813655Y-39701849D01*
X158115256Y-39610359D01*
X158393213Y-39461788D01*
X158636845Y-39261845D01*
X158836788Y-39018213D01*
X158985359Y-38740255D01*
X159076849Y-38438654D01*
X159100000Y-38203596D01*
X159100000Y-37796403D01*
X159076849Y-37561345D01*
X158985359Y-37259744D01*
X158836788Y-36981787D01*
X158636845Y-36738155D01*
X158393212Y-36538212D01*
X158115255Y-36389641D01*
X157813654Y-36298151D01*
X157500000Y-36267259D01*
X157186345Y-36298151D01*
X156884744Y-36389641D01*
X156606787Y-36538212D01*
X156363155Y-36738155D01*
X156250000Y-36876035D01*
X156136845Y-36738155D01*
X155893212Y-36538212D01*
X155615255Y-36389641D01*
X155313654Y-36298151D01*
X155000000Y-36267259D01*
X154686345Y-36298151D01*
X154384744Y-36389641D01*
X154106787Y-36538212D01*
X153863155Y-36738155D01*
X153750000Y-36876035D01*
X153636845Y-36738155D01*
X153393212Y-36538212D01*
X153115255Y-36389641D01*
X152813654Y-36298151D01*
X152500000Y-36267259D01*
X152186345Y-36298151D01*
X151884744Y-36389641D01*
X151606787Y-36538212D01*
X151415950Y-36694828D01*
X151309672Y-36565328D01*
X151157586Y-36440514D01*
X150984072Y-36347769D01*
X150795798Y-36290656D01*
X150600000Y-36271372D01*
X149400000Y-36271372D01*
X149204202Y-36290656D01*
X149015928Y-36347769D01*
X148842414Y-36440514D01*
X148690328Y-36565328D01*
X148565514Y-36717414D01*
X148472769Y-36890928D01*
X148415656Y-37079202D01*
X148396372Y-37275000D01*
X148396372Y-38725000D01*
X148415656Y-38920798D01*
X148472769Y-39109072D01*
X148565514Y-39282586D01*
X148690328Y-39434672D01*
X148842414Y-39559486D01*
X149015928Y-39652231D01*
X149204202Y-39709344D01*
X149400000Y-39728628D01*
X150600000Y-39728628D01*
X150795798Y-39709344D01*
X150984072Y-39652231D01*
X151157586Y-39559486D01*
X151309672Y-39434672D01*
X151415950Y-39305172D01*
X151606788Y-39461788D01*
X151884745Y-39610359D01*
X152050229Y-39660558D01*
X147327632Y-44383156D01*
X147289473Y-44414472D01*
X147164508Y-44566742D01*
X147071651Y-44740465D01*
X147071651Y-44740466D01*
X147014470Y-44928966D01*
X146995162Y-45125000D01*
X146500000Y-45125000D01*
X146500000Y-41524117D01*
X146504838Y-41474999D01*
X146500000Y-41425880D01*
X146485530Y-41278966D01*
X146428349Y-41090465D01*
X146335492Y-40916742D01*
X146210528Y-40764472D01*
X146172368Y-40733155D01*
X144665789Y-39226577D01*
X144836788Y-39018213D01*
X144985359Y-38740255D01*
X145076849Y-38438654D01*
X145100000Y-38203596D01*
X145100000Y-37796403D01*
X145076849Y-37561345D01*
X144985359Y-37259744D01*
X144836788Y-36981787D01*
X144636845Y-36738155D01*
X144393212Y-36538212D01*
X144115255Y-36389641D01*
X143813654Y-36298151D01*
X143500000Y-36267259D01*
X143186345Y-36298151D01*
X142884744Y-36389641D01*
X142606787Y-36538212D01*
X142363155Y-36738155D01*
X142250000Y-36876035D01*
X142136845Y-36738155D01*
X141893212Y-36538212D01*
X141615255Y-36389641D01*
X141313654Y-36298151D01*
X141000000Y-36267259D01*
X140686345Y-36298151D01*
X140384744Y-36389641D01*
X140106787Y-36538212D01*
X139863155Y-36738155D01*
X139750000Y-36876035D01*
X139636845Y-36738155D01*
X139393212Y-36538212D01*
X139115255Y-36389641D01*
X138813654Y-36298151D01*
X138500000Y-36267259D01*
X138186345Y-36298151D01*
X137884744Y-36389641D01*
X137606787Y-36538212D01*
X137415950Y-36694828D01*
X137309672Y-36565328D01*
X137157586Y-36440514D01*
X136984072Y-36347769D01*
X136795798Y-36290656D01*
X136600000Y-36271372D01*
X135400000Y-36271372D01*
X135204202Y-36290656D01*
X135015928Y-36347769D01*
X134842414Y-36440514D01*
X134690328Y-36565328D01*
X134565514Y-36717414D01*
X134472769Y-36890928D01*
X134415656Y-37079202D01*
X134396372Y-37275000D01*
X134396372Y-38725000D01*
X134415656Y-38920798D01*
X134472769Y-39109072D01*
X134565514Y-39282586D01*
X134690328Y-39434672D01*
X134842414Y-39559486D01*
X135015928Y-39652231D01*
X135204202Y-39709344D01*
X135400000Y-39728628D01*
X136600000Y-39728628D01*
X136795798Y-39709344D01*
X136984072Y-39652231D01*
X137157586Y-39559486D01*
X137309672Y-39434672D01*
X137415950Y-39305172D01*
X137606788Y-39461788D01*
X137884745Y-39610359D01*
X138186346Y-39701849D01*
X138500000Y-39732741D01*
X138813655Y-39701849D01*
X139115256Y-39610359D01*
X139393213Y-39461788D01*
X139636845Y-39261845D01*
X139750000Y-39123965D01*
X139863155Y-39261845D01*
X140000001Y-39374151D01*
X140000001Y-39425870D01*
X139995162Y-39475000D01*
X140014470Y-39671034D01*
X140071651Y-39859534D01*
X140071652Y-39859535D01*
X140164509Y-40033258D01*
X140289473Y-40185528D01*
X140327632Y-40216844D01*
X143500000Y-43389214D01*
X143500000Y-45446372D01*
X142200000Y-45446372D01*
X142052974Y-45460853D01*
X141911599Y-45503739D01*
X141781307Y-45573381D01*
X141667105Y-45667105D01*
X141606770Y-45740623D01*
X141453964Y-45511932D01*
X141238068Y-45296036D01*
X140984200Y-45126408D01*
X140702118Y-45009565D01*
X140402662Y-44950000D01*
X140097338Y-44950000D01*
X139797882Y-45009565D01*
X139515800Y-45126408D01*
X139261932Y-45296036D01*
X139046036Y-45511932D01*
X138876408Y-45765800D01*
X138759565Y-46047882D01*
X138700000Y-46347338D01*
X138700000Y-46652662D01*
X138759565Y-46952118D01*
X138876408Y-47234200D01*
X139046036Y-47488068D01*
X139261932Y-47703964D01*
X139515800Y-47873592D01*
X139797882Y-47990435D01*
X140097338Y-48050000D01*
X140402662Y-48050000D01*
X140702118Y-47990435D01*
X140984200Y-47873592D01*
X141238068Y-47703964D01*
X141446372Y-47495660D01*
X141446372Y-47800000D01*
X141460853Y-47947026D01*
X141503739Y-48088401D01*
X141573381Y-48218693D01*
X141626778Y-48283757D01*
X141611107Y-48292133D01*
X141573223Y-48323223D01*
X139908322Y-49988124D01*
X139762589Y-50020730D01*
X139548649Y-50109347D01*
X139474306Y-50370753D01*
X140250000Y-51146447D01*
X140264143Y-51132305D01*
X140617696Y-51485858D01*
X140603553Y-51500000D01*
X141379247Y-52275694D01*
X141459527Y-52252863D01*
X141472428Y-52383853D01*
X141561059Y-52676029D01*
X141704987Y-52945300D01*
X141898682Y-53181318D01*
X142104222Y-53350000D01*
X141898682Y-53518682D01*
X141815532Y-53620000D01*
X139429109Y-53620000D01*
X139379999Y-53615163D01*
X139330889Y-53620000D01*
X139330880Y-53620000D01*
X139183966Y-53634470D01*
X138995465Y-53691651D01*
X138821742Y-53784508D01*
X138669472Y-53909472D01*
X138638160Y-53947626D01*
X137808673Y-54777114D01*
X137672360Y-54750000D01*
X137327640Y-54750000D01*
X136989544Y-54817251D01*
X136671064Y-54949170D01*
X136384440Y-55140686D01*
X136140686Y-55384440D01*
X135949170Y-55671064D01*
X135817251Y-55989544D01*
X135750000Y-56327640D01*
X135750000Y-56672360D01*
X135817251Y-57010456D01*
X135949170Y-57328936D01*
X136140686Y-57615560D01*
X136384440Y-57859314D01*
X136671064Y-58050830D01*
X136989544Y-58182749D01*
X137327640Y-58250000D01*
X137672360Y-58250000D01*
X138010456Y-58182749D01*
X138328936Y-58050830D01*
X138615560Y-57859314D01*
X138859314Y-57615560D01*
X139050830Y-57328936D01*
X139182749Y-57010456D01*
X139250000Y-56672360D01*
X139250000Y-56327640D01*
X139222886Y-56191327D01*
X139794214Y-55620000D01*
X141815532Y-55620000D01*
X141898682Y-55721318D01*
X142104222Y-55890000D01*
X141898682Y-56058682D01*
X141704987Y-56294700D01*
X141561059Y-56563971D01*
X141472428Y-56856147D01*
X141442501Y-57160000D01*
X141455348Y-57290439D01*
X138889807Y-59855981D01*
X138876619Y-59831307D01*
X138782895Y-59717105D01*
X138668693Y-59623381D01*
X138538401Y-59553739D01*
X138397026Y-59510853D01*
X138250000Y-59496372D01*
X136750000Y-59496372D01*
X136602974Y-59510853D01*
X136461599Y-59553739D01*
X136331307Y-59623381D01*
X136217105Y-59717105D01*
X136123381Y-59831307D01*
X136053739Y-59961599D01*
X136042090Y-60000000D01*
X132549117Y-60000000D01*
X132499999Y-59995162D01*
X132450881Y-60000000D01*
X132450880Y-60000000D01*
X132303966Y-60014470D01*
X132115465Y-60071651D01*
X131941742Y-60164508D01*
X131789472Y-60289472D01*
X131758155Y-60327632D01*
X130150647Y-61935141D01*
X130135359Y-61884744D01*
X129986788Y-61606787D01*
X129786845Y-61363155D01*
X129543213Y-61163212D01*
X129265256Y-61014641D01*
X128963655Y-60923151D01*
X128728597Y-60900000D01*
X128271403Y-60900000D01*
X128036345Y-60923151D01*
X127734744Y-61014641D01*
X127456787Y-61163212D01*
X127213155Y-61363155D01*
X127013212Y-61606787D01*
X126864641Y-61884744D01*
X126773151Y-62186345D01*
X126742259Y-62500000D01*
X124775000Y-62500000D01*
X124775000Y-48000000D01*
X126742259Y-48000000D01*
X126773151Y-48313655D01*
X126864641Y-48615256D01*
X127013212Y-48893213D01*
X127169828Y-49084050D01*
X127040328Y-49190328D01*
X126915514Y-49342414D01*
X126822769Y-49515928D01*
X126765656Y-49704202D01*
X126746372Y-49900000D01*
X126746372Y-51100000D01*
X126765656Y-51295798D01*
X126822769Y-51484072D01*
X126915514Y-51657586D01*
X127040328Y-51809672D01*
X127192414Y-51934486D01*
X127365928Y-52027231D01*
X127554202Y-52084344D01*
X127750000Y-52103628D01*
X129250000Y-52103628D01*
X129445798Y-52084344D01*
X129634072Y-52027231D01*
X129807586Y-51934486D01*
X129959672Y-51809672D01*
X130084486Y-51657586D01*
X130177231Y-51484072D01*
X130234344Y-51295798D01*
X130253628Y-51100000D01*
X130253628Y-50160584D01*
X132914213Y-47500000D01*
X134292090Y-47500000D01*
X134303739Y-47538401D01*
X134373381Y-47668693D01*
X134467105Y-47782895D01*
X134581307Y-47876619D01*
X134711599Y-47946261D01*
X134719901Y-47948779D01*
X134584874Y-48083806D01*
X134420717Y-48329483D01*
X134307644Y-48602466D01*
X134250000Y-48892263D01*
X134250000Y-49187737D01*
X134274563Y-49311224D01*
X128808674Y-54777114D01*
X128672360Y-54750000D01*
X128327640Y-54750000D01*
X127989544Y-54817251D01*
X127671064Y-54949170D01*
X127384440Y-55140686D01*
X127140686Y-55384440D01*
X126949170Y-55671064D01*
X126817251Y-55989544D01*
X126750000Y-56327640D01*
X126750000Y-56672360D01*
X126817251Y-57010456D01*
X126949170Y-57328936D01*
X127140686Y-57615560D01*
X127384440Y-57859314D01*
X127671064Y-58050830D01*
X127989544Y-58182749D01*
X128327640Y-58250000D01*
X128672360Y-58250000D01*
X129010456Y-58182749D01*
X129328936Y-58050830D01*
X129615560Y-57859314D01*
X129859314Y-57615560D01*
X130050830Y-57328936D01*
X130182749Y-57010456D01*
X130250000Y-56672360D01*
X130250000Y-56327640D01*
X130222886Y-56191326D01*
X133741122Y-52673090D01*
X135010463Y-52673090D01*
X135078582Y-52929453D01*
X135354748Y-53034511D01*
X135646103Y-53083672D01*
X135941451Y-53075049D01*
X136229442Y-53008972D01*
X136421418Y-52929453D01*
X136489537Y-52673090D01*
X136445694Y-52629247D01*
X139474306Y-52629247D01*
X139548649Y-52890653D01*
X139833429Y-53000758D01*
X140134216Y-53053190D01*
X140439454Y-53045935D01*
X140737411Y-52979270D01*
X140951351Y-52890653D01*
X141025694Y-52629247D01*
X140250000Y-51853553D01*
X139474306Y-52629247D01*
X136445694Y-52629247D01*
X135750000Y-51933553D01*
X135010463Y-52673090D01*
X133741122Y-52673090D01*
X134330911Y-52083302D01*
X134400547Y-52251418D01*
X134656910Y-52319537D01*
X135396447Y-51580000D01*
X136103553Y-51580000D01*
X136843090Y-52319537D01*
X137099453Y-52251418D01*
X137204511Y-51975252D01*
X137253672Y-51683897D01*
X137245049Y-51388549D01*
X137244055Y-51384216D01*
X138696810Y-51384216D01*
X138704065Y-51689454D01*
X138770730Y-51987411D01*
X138859347Y-52201351D01*
X139120753Y-52275694D01*
X139896447Y-51500000D01*
X139120753Y-50724306D01*
X138859347Y-50798649D01*
X138749242Y-51083429D01*
X138696810Y-51384216D01*
X137244055Y-51384216D01*
X137178972Y-51100558D01*
X137099453Y-50908582D01*
X136843090Y-50840463D01*
X136103553Y-51580000D01*
X135396447Y-51580000D01*
X135382305Y-51565858D01*
X135735858Y-51212305D01*
X135750000Y-51226447D01*
X136489537Y-50486910D01*
X136458504Y-50370117D01*
X136460517Y-50369283D01*
X136706194Y-50205126D01*
X136915126Y-49996194D01*
X137079283Y-49750517D01*
X137192356Y-49477534D01*
X137250000Y-49187737D01*
X137250000Y-48892263D01*
X137192356Y-48602466D01*
X137079283Y-48329483D01*
X136915126Y-48083806D01*
X136780099Y-47948779D01*
X136788401Y-47946261D01*
X136918693Y-47876619D01*
X137032895Y-47782895D01*
X137126619Y-47668693D01*
X137196261Y-47538401D01*
X137239147Y-47397026D01*
X137253628Y-47250000D01*
X137253628Y-45750000D01*
X137239147Y-45602974D01*
X137196261Y-45461599D01*
X137126619Y-45331307D01*
X137032895Y-45217105D01*
X136918693Y-45123381D01*
X136788401Y-45053739D01*
X136647026Y-45010853D01*
X136500000Y-44996372D01*
X135000000Y-44996372D01*
X134852974Y-45010853D01*
X134711599Y-45053739D01*
X134581307Y-45123381D01*
X134467105Y-45217105D01*
X134373381Y-45331307D01*
X134303739Y-45461599D01*
X134292090Y-45500000D01*
X132549117Y-45500000D01*
X132499999Y-45495162D01*
X132450881Y-45500000D01*
X132450880Y-45500000D01*
X132303966Y-45514470D01*
X132115465Y-45571651D01*
X131941742Y-45664508D01*
X131789472Y-45789472D01*
X131758155Y-45827632D01*
X130150647Y-47435141D01*
X130135359Y-47384744D01*
X129986788Y-47106787D01*
X129786845Y-46863155D01*
X129543213Y-46663212D01*
X129265256Y-46514641D01*
X128963655Y-46423151D01*
X128728597Y-46400000D01*
X128271403Y-46400000D01*
X128036345Y-46423151D01*
X127734744Y-46514641D01*
X127456787Y-46663212D01*
X127213155Y-46863155D01*
X127013212Y-47106787D01*
X126864641Y-47384744D01*
X126773151Y-47686345D01*
X126742259Y-48000000D01*
X124775000Y-48000000D01*
X124775000Y-40750000D01*
X131000000Y-40750000D01*
X131048773Y-40745196D01*
X131095671Y-40730970D01*
X131138893Y-40707867D01*
X131176777Y-40676777D01*
X131207867Y-40638893D01*
X131230970Y-40595671D01*
X131245196Y-40548773D01*
X131250000Y-40500000D01*
X131250000Y-34275000D01*
X162250000Y-34275000D01*
X162250000Y-40500000D01*
X162250000Y-40500000D01*
G37*
X162250000Y-40500000D02*
X162254804Y-40548773D01*
X162269030Y-40595671D01*
X162292133Y-40638893D01*
X162323223Y-40676777D01*
X162361107Y-40707867D01*
X162404329Y-40730970D01*
X162451227Y-40745196D01*
X162500000Y-40750000D01*
X168725000Y-40750000D01*
X168725001Y-74750000D01*
X162500000Y-74750000D01*
X162451227Y-74754804D01*
X162404329Y-74769030D01*
X162361107Y-74792133D01*
X162323223Y-74823223D01*
X162292133Y-74861107D01*
X162269030Y-74904329D01*
X162254804Y-74951227D01*
X162250000Y-75000000D01*
X162250000Y-81225000D01*
X131250000Y-81225000D01*
X131250000Y-77271403D01*
X143900000Y-77271403D01*
X143900000Y-77728596D01*
X143923151Y-77963654D01*
X144014641Y-78265255D01*
X144163212Y-78543212D01*
X144363155Y-78786845D01*
X144606787Y-78986788D01*
X144884744Y-79135359D01*
X145186345Y-79226849D01*
X145500000Y-79257741D01*
X145813654Y-79226849D01*
X146115255Y-79135359D01*
X146393212Y-78986788D01*
X146508990Y-78891772D01*
X146523380Y-78918694D01*
X146617104Y-79032896D01*
X146731306Y-79126620D01*
X146861599Y-79196262D01*
X147002974Y-79239148D01*
X147150000Y-79253629D01*
X147562500Y-79250000D01*
X147750000Y-79062500D01*
X147750000Y-77750000D01*
X148250000Y-77750000D01*
X148250000Y-79062500D01*
X148437500Y-79250000D01*
X148850000Y-79253629D01*
X148997026Y-79239148D01*
X149138401Y-79196262D01*
X149268694Y-79126620D01*
X149382896Y-79032896D01*
X149476620Y-78918694D01*
X149546262Y-78788401D01*
X149589148Y-78647026D01*
X149603629Y-78500000D01*
X149600000Y-77937500D01*
X149412500Y-77750000D01*
X148250000Y-77750000D01*
X147750000Y-77750000D01*
X147730000Y-77750000D01*
X147730000Y-77250000D01*
X147750000Y-77250000D01*
X147750000Y-75937500D01*
X148250000Y-75937500D01*
X148250000Y-77250000D01*
X149412500Y-77250000D01*
X149600000Y-77062500D01*
X149603629Y-76500000D01*
X149589148Y-76352974D01*
X149546262Y-76211599D01*
X149476620Y-76081306D01*
X149382896Y-75967104D01*
X149268694Y-75873380D01*
X149138401Y-75803738D01*
X148997026Y-75760852D01*
X148850000Y-75746371D01*
X148437500Y-75750000D01*
X148250000Y-75937500D01*
X147750000Y-75937500D01*
X147562500Y-75750000D01*
X147150000Y-75746371D01*
X147002974Y-75760852D01*
X146861599Y-75803738D01*
X146731306Y-75873380D01*
X146617104Y-75967104D01*
X146523380Y-76081306D01*
X146508990Y-76108228D01*
X146393213Y-76013212D01*
X146115256Y-75864641D01*
X145813655Y-75773151D01*
X145500000Y-75742259D01*
X145186346Y-75773151D01*
X144884745Y-75864641D01*
X144606788Y-76013212D01*
X144363155Y-76213155D01*
X144163212Y-76456787D01*
X144014641Y-76734744D01*
X143923151Y-77036345D01*
X143900000Y-77271403D01*
X131250000Y-77271403D01*
X131250000Y-75000000D01*
X131245196Y-74951227D01*
X131230970Y-74904329D01*
X131207867Y-74861107D01*
X131176777Y-74823223D01*
X131138893Y-74792133D01*
X131095671Y-74769030D01*
X131048773Y-74754804D01*
X131000000Y-74750000D01*
X124775000Y-74750000D01*
X124775000Y-62500000D01*
X126742259Y-62500000D01*
X126773151Y-62813655D01*
X126864641Y-63115256D01*
X127013212Y-63393213D01*
X127169828Y-63584050D01*
X127040328Y-63690328D01*
X126915514Y-63842414D01*
X126822769Y-64015928D01*
X126765656Y-64204202D01*
X126746372Y-64400000D01*
X126746372Y-65600000D01*
X126765656Y-65795798D01*
X126822769Y-65984072D01*
X126915514Y-66157586D01*
X127040328Y-66309672D01*
X127192414Y-66434486D01*
X127365928Y-66527231D01*
X127554202Y-66584344D01*
X127750000Y-66603628D01*
X129250000Y-66603628D01*
X129445798Y-66584344D01*
X129634072Y-66527231D01*
X129807586Y-66434486D01*
X129959672Y-66309672D01*
X130084486Y-66157586D01*
X130177231Y-65984072D01*
X130234344Y-65795798D01*
X130253628Y-65600000D01*
X130253628Y-64660584D01*
X132914213Y-62000000D01*
X136042090Y-62000000D01*
X136053739Y-62038401D01*
X136123381Y-62168693D01*
X136217105Y-62282895D01*
X136331307Y-62376619D01*
X136461599Y-62446261D01*
X136469901Y-62448779D01*
X136378680Y-62540000D01*
X136009117Y-62540000D01*
X135959999Y-62535162D01*
X135910881Y-62540000D01*
X135910880Y-62540000D01*
X135763966Y-62554470D01*
X135575465Y-62611651D01*
X135401742Y-62704508D01*
X135249472Y-62829472D01*
X135218155Y-62867632D01*
X128808674Y-69277114D01*
X128672360Y-69250000D01*
X128327640Y-69250000D01*
X127989544Y-69317251D01*
X127671064Y-69449170D01*
X127384440Y-69640686D01*
X127140686Y-69884440D01*
X126949170Y-70171064D01*
X126817251Y-70489544D01*
X126750000Y-70827640D01*
X126750000Y-71172360D01*
X126817251Y-71510456D01*
X126949170Y-71828936D01*
X127140686Y-72115560D01*
X127384440Y-72359314D01*
X127671064Y-72550830D01*
X127989544Y-72682749D01*
X128327640Y-72750000D01*
X128672360Y-72750000D01*
X129010456Y-72682749D01*
X129328936Y-72550830D01*
X129615560Y-72359314D01*
X129859314Y-72115560D01*
X130050830Y-71828936D01*
X130182749Y-71510456D01*
X130250000Y-71172360D01*
X130250000Y-70827640D01*
X130222886Y-70691326D01*
X134938109Y-65976103D01*
X135996328Y-65976103D01*
X136004951Y-66271451D01*
X136071028Y-66559442D01*
X136150547Y-66751418D01*
X136406910Y-66819537D01*
X137146447Y-66080000D01*
X136406910Y-65340463D01*
X136150547Y-65408582D01*
X136045489Y-65684748D01*
X135996328Y-65976103D01*
X134938109Y-65976103D01*
X136374213Y-64540000D01*
X136378680Y-64540000D01*
X136543806Y-64705126D01*
X136789483Y-64869283D01*
X136791496Y-64870117D01*
X136760463Y-64986910D01*
X137500000Y-65726447D01*
X137514143Y-65712305D01*
X137867696Y-66065858D01*
X137853553Y-66080000D01*
X137867696Y-66094143D01*
X137514143Y-66447696D01*
X137500000Y-66433553D01*
X136760463Y-67173090D01*
X136828582Y-67429453D01*
X137104748Y-67534511D01*
X137396103Y-67583672D01*
X137691451Y-67575049D01*
X137979442Y-67508972D01*
X138000001Y-67500456D01*
X138000001Y-69085787D01*
X137827631Y-69258157D01*
X137827625Y-69258162D01*
X137808673Y-69277114D01*
X137672360Y-69250000D01*
X137327640Y-69250000D01*
X136989544Y-69317251D01*
X136671064Y-69449170D01*
X136384440Y-69640686D01*
X136140686Y-69884440D01*
X135949170Y-70171064D01*
X135817251Y-70489544D01*
X135750000Y-70827640D01*
X135750000Y-71172360D01*
X135817251Y-71510456D01*
X135949170Y-71828936D01*
X136140686Y-72115560D01*
X136384440Y-72359314D01*
X136671064Y-72550830D01*
X136989544Y-72682749D01*
X137327640Y-72750000D01*
X137672360Y-72750000D01*
X138010456Y-72682749D01*
X138328936Y-72550830D01*
X138615560Y-72359314D01*
X138859314Y-72115560D01*
X139050830Y-71828936D01*
X139182749Y-71510456D01*
X139250000Y-71172360D01*
X139250000Y-70827640D01*
X139222886Y-70691327D01*
X139241838Y-70672375D01*
X139241843Y-70672369D01*
X139672363Y-70241849D01*
X139710528Y-70210528D01*
X139835492Y-70058258D01*
X139928349Y-69884535D01*
X139985530Y-69696034D01*
X140000000Y-69549120D01*
X140000000Y-69549119D01*
X140004838Y-69500001D01*
X140000000Y-69450883D01*
X140000000Y-61574212D01*
X141495221Y-60078991D01*
X141561059Y-60296029D01*
X141704987Y-60565300D01*
X141898682Y-60801318D01*
X142104222Y-60970000D01*
X141898682Y-61138682D01*
X141704987Y-61374700D01*
X141561059Y-61643971D01*
X141472428Y-61936147D01*
X141442501Y-62240000D01*
X141472428Y-62543853D01*
X141561059Y-62836029D01*
X141704987Y-63105300D01*
X141898682Y-63341318D01*
X142104222Y-63510000D01*
X141898682Y-63678682D01*
X141704987Y-63914700D01*
X141561059Y-64183971D01*
X141472428Y-64476147D01*
X141442501Y-64780000D01*
X141472428Y-65083853D01*
X141561059Y-65376029D01*
X141704987Y-65645300D01*
X141898682Y-65881318D01*
X142104222Y-66050000D01*
X141898682Y-66218682D01*
X141704987Y-66454700D01*
X141561059Y-66723971D01*
X141472428Y-67016147D01*
X141442501Y-67320000D01*
X141472428Y-67623853D01*
X141561059Y-67916029D01*
X141704987Y-68185300D01*
X141898682Y-68421318D01*
X142104222Y-68590000D01*
X141898682Y-68758682D01*
X141704987Y-68994700D01*
X141561059Y-69263971D01*
X141472428Y-69556147D01*
X141442501Y-69860000D01*
X141472428Y-70163853D01*
X141561059Y-70456029D01*
X141704987Y-70725300D01*
X141898682Y-70961318D01*
X142134700Y-71155013D01*
X142403971Y-71298941D01*
X142696147Y-71387572D01*
X142923862Y-71410000D01*
X143076138Y-71410000D01*
X143303853Y-71387572D01*
X143596029Y-71298941D01*
X143865300Y-71155013D01*
X144101318Y-70961318D01*
X144295013Y-70725300D01*
X144438941Y-70456029D01*
X144527572Y-70163853D01*
X144557499Y-69860000D01*
X144527572Y-69556147D01*
X144438941Y-69263971D01*
X144295013Y-68994700D01*
X144101318Y-68758682D01*
X143895778Y-68590000D01*
X144101318Y-68421318D01*
X144295013Y-68185300D01*
X144438941Y-67916029D01*
X144527572Y-67623853D01*
X144557499Y-67320000D01*
X144527572Y-67016147D01*
X144438941Y-66723971D01*
X144295013Y-66454700D01*
X144101318Y-66218682D01*
X143895778Y-66050000D01*
X144101318Y-65881318D01*
X144295013Y-65645300D01*
X144438941Y-65376029D01*
X144527572Y-65083853D01*
X144557499Y-64780000D01*
X144544652Y-64649560D01*
X146172374Y-63021840D01*
X146210528Y-62990528D01*
X146335492Y-62838258D01*
X146428349Y-62664535D01*
X146485530Y-62476034D01*
X146500000Y-62329120D01*
X146500000Y-62329119D01*
X146504838Y-62280001D01*
X146500000Y-62230883D01*
X146500000Y-45125000D01*
X146995162Y-45125000D01*
X147000000Y-45174120D01*
X147000000Y-45549119D01*
X147000001Y-45549129D01*
X147000000Y-64650880D01*
X146995162Y-64700000D01*
X147005402Y-64803966D01*
X147014470Y-64896033D01*
X147071651Y-65084534D01*
X147164508Y-65258258D01*
X147289472Y-65410528D01*
X147327637Y-65441849D01*
X149075348Y-67189561D01*
X149062501Y-67320000D01*
X149092428Y-67623853D01*
X149181059Y-67916029D01*
X149324987Y-68185300D01*
X149518682Y-68421318D01*
X149724222Y-68590000D01*
X149518682Y-68758682D01*
X149324987Y-68994700D01*
X149181059Y-69263971D01*
X149092428Y-69556147D01*
X149062501Y-69860000D01*
X149092428Y-70163853D01*
X149181059Y-70456029D01*
X149324987Y-70725300D01*
X149518682Y-70961318D01*
X149754700Y-71155013D01*
X150023971Y-71298941D01*
X150316147Y-71387572D01*
X150543862Y-71410000D01*
X150696138Y-71410000D01*
X150923853Y-71387572D01*
X151216029Y-71298941D01*
X151485300Y-71155013D01*
X151721318Y-70961318D01*
X151915013Y-70725300D01*
X152058941Y-70456029D01*
X152147572Y-70163853D01*
X152177499Y-69860000D01*
X152147572Y-69556147D01*
X152058941Y-69263971D01*
X151915013Y-68994700D01*
X151721318Y-68758682D01*
X151515778Y-68590000D01*
X151721318Y-68421318D01*
X151915013Y-68185300D01*
X152058941Y-67916029D01*
X152147572Y-67623853D01*
X152177499Y-67320000D01*
X152147572Y-67016147D01*
X152058941Y-66723971D01*
X151915013Y-66454700D01*
X151721318Y-66218682D01*
X151515778Y-66050000D01*
X151721318Y-65881318D01*
X151915013Y-65645300D01*
X152058941Y-65376029D01*
X152147572Y-65083853D01*
X152177499Y-64780000D01*
X152147572Y-64476147D01*
X152058941Y-64183971D01*
X151915013Y-63914700D01*
X151721318Y-63678682D01*
X151515778Y-63510000D01*
X151721318Y-63341318D01*
X151915013Y-63105300D01*
X152058941Y-62836029D01*
X152147572Y-62543853D01*
X152177499Y-62240000D01*
X152147572Y-61936147D01*
X152058941Y-61643971D01*
X151915013Y-61374700D01*
X151721318Y-61138682D01*
X151515778Y-60970000D01*
X151721318Y-60801318D01*
X151915013Y-60565300D01*
X152058941Y-60296029D01*
X152124779Y-60078992D01*
X153000000Y-60954213D01*
X153000001Y-68950870D01*
X152995162Y-69000000D01*
X153014470Y-69196034D01*
X153071651Y-69384534D01*
X153071652Y-69384535D01*
X153164509Y-69558258D01*
X153289473Y-69710528D01*
X153327632Y-69741844D01*
X154277114Y-70691327D01*
X154250000Y-70827640D01*
X154250000Y-71172360D01*
X154317251Y-71510456D01*
X154449170Y-71828936D01*
X154640686Y-72115560D01*
X154884440Y-72359314D01*
X155171064Y-72550830D01*
X155489544Y-72682749D01*
X155827640Y-72750000D01*
X156172360Y-72750000D01*
X156510456Y-72682749D01*
X156828936Y-72550830D01*
X157115560Y-72359314D01*
X157359314Y-72115560D01*
X157550830Y-71828936D01*
X157682749Y-71510456D01*
X157750000Y-71172360D01*
X157750000Y-70827640D01*
X157682749Y-70489544D01*
X157550830Y-70171064D01*
X157359314Y-69884440D01*
X157115560Y-69640686D01*
X156828936Y-69449170D01*
X156510456Y-69317251D01*
X156172360Y-69250000D01*
X155827640Y-69250000D01*
X155691327Y-69277114D01*
X155000000Y-68585788D01*
X155000000Y-67494663D01*
X155104748Y-67534511D01*
X155396103Y-67583672D01*
X155691451Y-67575049D01*
X155979442Y-67508972D01*
X156171418Y-67429453D01*
X156239537Y-67173090D01*
X155500000Y-66433553D01*
X155485858Y-66447696D01*
X155132305Y-66094143D01*
X155146447Y-66080000D01*
X155853553Y-66080000D01*
X156593090Y-66819537D01*
X156849453Y-66751418D01*
X156954511Y-66475252D01*
X157003672Y-66183897D01*
X156995049Y-65888549D01*
X156928972Y-65600558D01*
X156849453Y-65408582D01*
X156593090Y-65340463D01*
X155853553Y-66080000D01*
X155146447Y-66080000D01*
X155132305Y-66065858D01*
X155485858Y-65712305D01*
X155500000Y-65726447D01*
X156239537Y-64986910D01*
X156208504Y-64870117D01*
X156210517Y-64869283D01*
X156456194Y-64705126D01*
X156621320Y-64540000D01*
X157125788Y-64540000D01*
X163277114Y-70691327D01*
X163250000Y-70827640D01*
X163250000Y-71172360D01*
X163317251Y-71510456D01*
X163449170Y-71828936D01*
X163640686Y-72115560D01*
X163884440Y-72359314D01*
X164171064Y-72550830D01*
X164489544Y-72682749D01*
X164827640Y-72750000D01*
X165172360Y-72750000D01*
X165510456Y-72682749D01*
X165828936Y-72550830D01*
X166115560Y-72359314D01*
X166359314Y-72115560D01*
X166550830Y-71828936D01*
X166682749Y-71510456D01*
X166750000Y-71172360D01*
X166750000Y-70827640D01*
X166682749Y-70489544D01*
X166550830Y-70171064D01*
X166359314Y-69884440D01*
X166115560Y-69640686D01*
X165828936Y-69449170D01*
X165510456Y-69317251D01*
X165172360Y-69250000D01*
X164827640Y-69250000D01*
X164691327Y-69277114D01*
X158281849Y-62867637D01*
X158250528Y-62829472D01*
X158098258Y-62704508D01*
X157924535Y-62611651D01*
X157736034Y-62554470D01*
X157589120Y-62540000D01*
X157540000Y-62535162D01*
X157490880Y-62540000D01*
X156621320Y-62540000D01*
X156530099Y-62448779D01*
X156538401Y-62446261D01*
X156668693Y-62376619D01*
X156782895Y-62282895D01*
X156876619Y-62168693D01*
X156946261Y-62038401D01*
X156957910Y-62000000D01*
X163085788Y-62000000D01*
X163246372Y-62160584D01*
X163246372Y-63100000D01*
X163265656Y-63295798D01*
X163322769Y-63484072D01*
X163415514Y-63657586D01*
X163540328Y-63809672D01*
X163669828Y-63915950D01*
X163513212Y-64106787D01*
X163364641Y-64384744D01*
X163273151Y-64686345D01*
X163242259Y-65000000D01*
X163273151Y-65313655D01*
X163364641Y-65615256D01*
X163513212Y-65893213D01*
X163713155Y-66136845D01*
X163956787Y-66336788D01*
X164234744Y-66485359D01*
X164536345Y-66576849D01*
X164771403Y-66600000D01*
X165228597Y-66600000D01*
X165463655Y-66576849D01*
X165765256Y-66485359D01*
X166043213Y-66336788D01*
X166286845Y-66136845D01*
X166486788Y-65893213D01*
X166635359Y-65615256D01*
X166726849Y-65313655D01*
X166757741Y-65000000D01*
X166726849Y-64686345D01*
X166635359Y-64384744D01*
X166486788Y-64106787D01*
X166330172Y-63915950D01*
X166459672Y-63809672D01*
X166584486Y-63657586D01*
X166677231Y-63484072D01*
X166734344Y-63295798D01*
X166753628Y-63100000D01*
X166753628Y-61900000D01*
X166734344Y-61704202D01*
X166677231Y-61515928D01*
X166584486Y-61342414D01*
X166459672Y-61190328D01*
X166307586Y-61065514D01*
X166134072Y-60972769D01*
X165945798Y-60915656D01*
X165750000Y-60896372D01*
X164810584Y-60896372D01*
X164241849Y-60327637D01*
X164210528Y-60289472D01*
X164058258Y-60164508D01*
X163884535Y-60071651D01*
X163696034Y-60014470D01*
X163549120Y-60000000D01*
X163500000Y-59995162D01*
X163450880Y-60000000D01*
X156957910Y-60000000D01*
X156946261Y-59961599D01*
X156876619Y-59831307D01*
X156782895Y-59717105D01*
X156668693Y-59623381D01*
X156538401Y-59553739D01*
X156397026Y-59510853D01*
X156250000Y-59496372D01*
X154750000Y-59496372D01*
X154602974Y-59510853D01*
X154461599Y-59553739D01*
X154439672Y-59565459D01*
X152164652Y-57290440D01*
X152177499Y-57160000D01*
X152147572Y-56856147D01*
X152058941Y-56563971D01*
X151915013Y-56294700D01*
X151721318Y-56058682D01*
X151515778Y-55890000D01*
X151721318Y-55721318D01*
X151804468Y-55620000D01*
X153705788Y-55620000D01*
X154277114Y-56191327D01*
X154250000Y-56327640D01*
X154250000Y-56672360D01*
X154317251Y-57010456D01*
X154449170Y-57328936D01*
X154640686Y-57615560D01*
X154884440Y-57859314D01*
X155171064Y-58050830D01*
X155489544Y-58182749D01*
X155827640Y-58250000D01*
X156172360Y-58250000D01*
X156510456Y-58182749D01*
X156828936Y-58050830D01*
X157115560Y-57859314D01*
X157359314Y-57615560D01*
X157550830Y-57328936D01*
X157682749Y-57010456D01*
X157750000Y-56672360D01*
X157750000Y-56327640D01*
X157682749Y-55989544D01*
X157550830Y-55671064D01*
X157359314Y-55384440D01*
X157115560Y-55140686D01*
X156828936Y-54949170D01*
X156510456Y-54817251D01*
X156172360Y-54750000D01*
X155827640Y-54750000D01*
X155691327Y-54777114D01*
X154861849Y-53947637D01*
X154830528Y-53909472D01*
X154678258Y-53784508D01*
X154504535Y-53691651D01*
X154316034Y-53634470D01*
X154169120Y-53620000D01*
X154120000Y-53615162D01*
X154070880Y-53620000D01*
X151804468Y-53620000D01*
X151721318Y-53518682D01*
X151515778Y-53350000D01*
X151721318Y-53181318D01*
X151915013Y-52945300D01*
X152058941Y-52676029D01*
X152059832Y-52673090D01*
X154760463Y-52673090D01*
X154828582Y-52929453D01*
X155104748Y-53034511D01*
X155396103Y-53083672D01*
X155691451Y-53075049D01*
X155979442Y-53008972D01*
X156171418Y-52929453D01*
X156239537Y-52673090D01*
X155500000Y-51933553D01*
X154760463Y-52673090D01*
X152059832Y-52673090D01*
X152147572Y-52383853D01*
X152177499Y-52080000D01*
X152147572Y-51776147D01*
X152058941Y-51483971D01*
X152054736Y-51476103D01*
X153996328Y-51476103D01*
X154004951Y-51771451D01*
X154071028Y-52059442D01*
X154150547Y-52251418D01*
X154406910Y-52319537D01*
X155146447Y-51580000D01*
X155853553Y-51580000D01*
X156593090Y-52319537D01*
X156849453Y-52251418D01*
X156954511Y-51975252D01*
X157003672Y-51683897D01*
X156995049Y-51388549D01*
X156928972Y-51100558D01*
X156849453Y-50908582D01*
X156593090Y-50840463D01*
X155853553Y-51580000D01*
X155146447Y-51580000D01*
X154406910Y-50840463D01*
X154150547Y-50908582D01*
X154045489Y-51184748D01*
X153996328Y-51476103D01*
X152054736Y-51476103D01*
X151915013Y-51214700D01*
X151721318Y-50978682D01*
X151515778Y-50810000D01*
X151721318Y-50641318D01*
X151915013Y-50405300D01*
X152058941Y-50136029D01*
X152147572Y-49843853D01*
X152177499Y-49540000D01*
X152147572Y-49236147D01*
X152058941Y-48943971D01*
X151915013Y-48674700D01*
X151721318Y-48438682D01*
X151515778Y-48270000D01*
X151721318Y-48101318D01*
X151915013Y-47865300D01*
X152058941Y-47596029D01*
X152147572Y-47303853D01*
X152177499Y-47000000D01*
X152147572Y-46696147D01*
X152058941Y-46403971D01*
X151915013Y-46134700D01*
X151721318Y-45898682D01*
X151540149Y-45750000D01*
X153996372Y-45750000D01*
X153996372Y-47250000D01*
X154010853Y-47397026D01*
X154053739Y-47538401D01*
X154123381Y-47668693D01*
X154217105Y-47782895D01*
X154331307Y-47876619D01*
X154461599Y-47946261D01*
X154469901Y-47948779D01*
X154334874Y-48083806D01*
X154170717Y-48329483D01*
X154057644Y-48602466D01*
X154000000Y-48892263D01*
X154000000Y-49187737D01*
X154057644Y-49477534D01*
X154170717Y-49750517D01*
X154334874Y-49996194D01*
X154543806Y-50205126D01*
X154789483Y-50369283D01*
X154791496Y-50370117D01*
X154760463Y-50486910D01*
X155500000Y-51226447D01*
X156239537Y-50486910D01*
X156208504Y-50370117D01*
X156210517Y-50369283D01*
X156456194Y-50205126D01*
X156621320Y-50040000D01*
X157125788Y-50040000D01*
X163277114Y-56191327D01*
X163250000Y-56327640D01*
X163250000Y-56672360D01*
X163317251Y-57010456D01*
X163449170Y-57328936D01*
X163640686Y-57615560D01*
X163884440Y-57859314D01*
X164171064Y-58050830D01*
X164489544Y-58182749D01*
X164827640Y-58250000D01*
X165172360Y-58250000D01*
X165510456Y-58182749D01*
X165828936Y-58050830D01*
X166115560Y-57859314D01*
X166359314Y-57615560D01*
X166550830Y-57328936D01*
X166682749Y-57010456D01*
X166750000Y-56672360D01*
X166750000Y-56327640D01*
X166682749Y-55989544D01*
X166550830Y-55671064D01*
X166359314Y-55384440D01*
X166115560Y-55140686D01*
X165828936Y-54949170D01*
X165510456Y-54817251D01*
X165172360Y-54750000D01*
X164827640Y-54750000D01*
X164691327Y-54777114D01*
X158281849Y-48367637D01*
X158250528Y-48329472D01*
X158098258Y-48204508D01*
X157924535Y-48111651D01*
X157736034Y-48054470D01*
X157589120Y-48040000D01*
X157540000Y-48035162D01*
X157490880Y-48040000D01*
X156621320Y-48040000D01*
X156530099Y-47948779D01*
X156538401Y-47946261D01*
X156668693Y-47876619D01*
X156782895Y-47782895D01*
X156876619Y-47668693D01*
X156946261Y-47538401D01*
X156957910Y-47500000D01*
X163085788Y-47500000D01*
X163246372Y-47660584D01*
X163246372Y-48600000D01*
X163265656Y-48795798D01*
X163322769Y-48984072D01*
X163415514Y-49157586D01*
X163540328Y-49309672D01*
X163669828Y-49415950D01*
X163513212Y-49606787D01*
X163364641Y-49884744D01*
X163273151Y-50186345D01*
X163242259Y-50500000D01*
X163273151Y-50813655D01*
X163364641Y-51115256D01*
X163513212Y-51393213D01*
X163713155Y-51636845D01*
X163956787Y-51836788D01*
X164234744Y-51985359D01*
X164536345Y-52076849D01*
X164771403Y-52100000D01*
X165228597Y-52100000D01*
X165463655Y-52076849D01*
X165765256Y-51985359D01*
X166043213Y-51836788D01*
X166286845Y-51636845D01*
X166486788Y-51393213D01*
X166635359Y-51115256D01*
X166726849Y-50813655D01*
X166757741Y-50500000D01*
X166726849Y-50186345D01*
X166635359Y-49884744D01*
X166486788Y-49606787D01*
X166330172Y-49415950D01*
X166459672Y-49309672D01*
X166584486Y-49157586D01*
X166677231Y-48984072D01*
X166734344Y-48795798D01*
X166753628Y-48600000D01*
X166753628Y-47400000D01*
X166734344Y-47204202D01*
X166677231Y-47015928D01*
X166584486Y-46842414D01*
X166459672Y-46690328D01*
X166307586Y-46565514D01*
X166134072Y-46472769D01*
X165945798Y-46415656D01*
X165750000Y-46396372D01*
X164810584Y-46396372D01*
X164241849Y-45827637D01*
X164210528Y-45789472D01*
X164058258Y-45664508D01*
X163884535Y-45571651D01*
X163696034Y-45514470D01*
X163549120Y-45500000D01*
X163500000Y-45495162D01*
X163450880Y-45500000D01*
X156957910Y-45500000D01*
X156946261Y-45461599D01*
X156876619Y-45331307D01*
X156782895Y-45217105D01*
X156668693Y-45123381D01*
X156538401Y-45053739D01*
X156397026Y-45010853D01*
X156250000Y-44996372D01*
X154750000Y-44996372D01*
X154602974Y-45010853D01*
X154461599Y-45053739D01*
X154331307Y-45123381D01*
X154217105Y-45217105D01*
X154123381Y-45331307D01*
X154053739Y-45461599D01*
X154010853Y-45602974D01*
X153996372Y-45750000D01*
X151540149Y-45750000D01*
X151485300Y-45704987D01*
X151386848Y-45652364D01*
X157323824Y-39715389D01*
X157500000Y-39732741D01*
X157813655Y-39701849D01*
X158115256Y-39610359D01*
X158393213Y-39461788D01*
X158636845Y-39261845D01*
X158836788Y-39018213D01*
X158985359Y-38740255D01*
X159076849Y-38438654D01*
X159100000Y-38203596D01*
X159100000Y-37796403D01*
X159076849Y-37561345D01*
X158985359Y-37259744D01*
X158836788Y-36981787D01*
X158636845Y-36738155D01*
X158393212Y-36538212D01*
X158115255Y-36389641D01*
X157813654Y-36298151D01*
X157500000Y-36267259D01*
X157186345Y-36298151D01*
X156884744Y-36389641D01*
X156606787Y-36538212D01*
X156363155Y-36738155D01*
X156250000Y-36876035D01*
X156136845Y-36738155D01*
X155893212Y-36538212D01*
X155615255Y-36389641D01*
X155313654Y-36298151D01*
X155000000Y-36267259D01*
X154686345Y-36298151D01*
X154384744Y-36389641D01*
X154106787Y-36538212D01*
X153863155Y-36738155D01*
X153750000Y-36876035D01*
X153636845Y-36738155D01*
X153393212Y-36538212D01*
X153115255Y-36389641D01*
X152813654Y-36298151D01*
X152500000Y-36267259D01*
X152186345Y-36298151D01*
X151884744Y-36389641D01*
X151606787Y-36538212D01*
X151415950Y-36694828D01*
X151309672Y-36565328D01*
X151157586Y-36440514D01*
X150984072Y-36347769D01*
X150795798Y-36290656D01*
X150600000Y-36271372D01*
X149400000Y-36271372D01*
X149204202Y-36290656D01*
X149015928Y-36347769D01*
X148842414Y-36440514D01*
X148690328Y-36565328D01*
X148565514Y-36717414D01*
X148472769Y-36890928D01*
X148415656Y-37079202D01*
X148396372Y-37275000D01*
X148396372Y-38725000D01*
X148415656Y-38920798D01*
X148472769Y-39109072D01*
X148565514Y-39282586D01*
X148690328Y-39434672D01*
X148842414Y-39559486D01*
X149015928Y-39652231D01*
X149204202Y-39709344D01*
X149400000Y-39728628D01*
X150600000Y-39728628D01*
X150795798Y-39709344D01*
X150984072Y-39652231D01*
X151157586Y-39559486D01*
X151309672Y-39434672D01*
X151415950Y-39305172D01*
X151606788Y-39461788D01*
X151884745Y-39610359D01*
X152050229Y-39660558D01*
X147327632Y-44383156D01*
X147289473Y-44414472D01*
X147164508Y-44566742D01*
X147071651Y-44740465D01*
X147071651Y-44740466D01*
X147014470Y-44928966D01*
X146995162Y-45125000D01*
X146500000Y-45125000D01*
X146500000Y-41524117D01*
X146504838Y-41474999D01*
X146500000Y-41425880D01*
X146485530Y-41278966D01*
X146428349Y-41090465D01*
X146335492Y-40916742D01*
X146210528Y-40764472D01*
X146172368Y-40733155D01*
X144665789Y-39226577D01*
X144836788Y-39018213D01*
X144985359Y-38740255D01*
X145076849Y-38438654D01*
X145100000Y-38203596D01*
X145100000Y-37796403D01*
X145076849Y-37561345D01*
X144985359Y-37259744D01*
X144836788Y-36981787D01*
X144636845Y-36738155D01*
X144393212Y-36538212D01*
X144115255Y-36389641D01*
X143813654Y-36298151D01*
X143500000Y-36267259D01*
X143186345Y-36298151D01*
X142884744Y-36389641D01*
X142606787Y-36538212D01*
X142363155Y-36738155D01*
X142250000Y-36876035D01*
X142136845Y-36738155D01*
X141893212Y-36538212D01*
X141615255Y-36389641D01*
X141313654Y-36298151D01*
X141000000Y-36267259D01*
X140686345Y-36298151D01*
X140384744Y-36389641D01*
X140106787Y-36538212D01*
X139863155Y-36738155D01*
X139750000Y-36876035D01*
X139636845Y-36738155D01*
X139393212Y-36538212D01*
X139115255Y-36389641D01*
X138813654Y-36298151D01*
X138500000Y-36267259D01*
X138186345Y-36298151D01*
X137884744Y-36389641D01*
X137606787Y-36538212D01*
X137415950Y-36694828D01*
X137309672Y-36565328D01*
X137157586Y-36440514D01*
X136984072Y-36347769D01*
X136795798Y-36290656D01*
X136600000Y-36271372D01*
X135400000Y-36271372D01*
X135204202Y-36290656D01*
X135015928Y-36347769D01*
X134842414Y-36440514D01*
X134690328Y-36565328D01*
X134565514Y-36717414D01*
X134472769Y-36890928D01*
X134415656Y-37079202D01*
X134396372Y-37275000D01*
X134396372Y-38725000D01*
X134415656Y-38920798D01*
X134472769Y-39109072D01*
X134565514Y-39282586D01*
X134690328Y-39434672D01*
X134842414Y-39559486D01*
X135015928Y-39652231D01*
X135204202Y-39709344D01*
X135400000Y-39728628D01*
X136600000Y-39728628D01*
X136795798Y-39709344D01*
X136984072Y-39652231D01*
X137157586Y-39559486D01*
X137309672Y-39434672D01*
X137415950Y-39305172D01*
X137606788Y-39461788D01*
X137884745Y-39610359D01*
X138186346Y-39701849D01*
X138500000Y-39732741D01*
X138813655Y-39701849D01*
X139115256Y-39610359D01*
X139393213Y-39461788D01*
X139636845Y-39261845D01*
X139750000Y-39123965D01*
X139863155Y-39261845D01*
X140000001Y-39374151D01*
X140000001Y-39425870D01*
X139995162Y-39475000D01*
X140014470Y-39671034D01*
X140071651Y-39859534D01*
X140071652Y-39859535D01*
X140164509Y-40033258D01*
X140289473Y-40185528D01*
X140327632Y-40216844D01*
X143500000Y-43389214D01*
X143500000Y-45446372D01*
X142200000Y-45446372D01*
X142052974Y-45460853D01*
X141911599Y-45503739D01*
X141781307Y-45573381D01*
X141667105Y-45667105D01*
X141606770Y-45740623D01*
X141453964Y-45511932D01*
X141238068Y-45296036D01*
X140984200Y-45126408D01*
X140702118Y-45009565D01*
X140402662Y-44950000D01*
X140097338Y-44950000D01*
X139797882Y-45009565D01*
X139515800Y-45126408D01*
X139261932Y-45296036D01*
X139046036Y-45511932D01*
X138876408Y-45765800D01*
X138759565Y-46047882D01*
X138700000Y-46347338D01*
X138700000Y-46652662D01*
X138759565Y-46952118D01*
X138876408Y-47234200D01*
X139046036Y-47488068D01*
X139261932Y-47703964D01*
X139515800Y-47873592D01*
X139797882Y-47990435D01*
X140097338Y-48050000D01*
X140402662Y-48050000D01*
X140702118Y-47990435D01*
X140984200Y-47873592D01*
X141238068Y-47703964D01*
X141446372Y-47495660D01*
X141446372Y-47800000D01*
X141460853Y-47947026D01*
X141503739Y-48088401D01*
X141573381Y-48218693D01*
X141626778Y-48283757D01*
X141611107Y-48292133D01*
X141573223Y-48323223D01*
X139908322Y-49988124D01*
X139762589Y-50020730D01*
X139548649Y-50109347D01*
X139474306Y-50370753D01*
X140250000Y-51146447D01*
X140264143Y-51132305D01*
X140617696Y-51485858D01*
X140603553Y-51500000D01*
X141379247Y-52275694D01*
X141459527Y-52252863D01*
X141472428Y-52383853D01*
X141561059Y-52676029D01*
X141704987Y-52945300D01*
X141898682Y-53181318D01*
X142104222Y-53350000D01*
X141898682Y-53518682D01*
X141815532Y-53620000D01*
X139429109Y-53620000D01*
X139379999Y-53615163D01*
X139330889Y-53620000D01*
X139330880Y-53620000D01*
X139183966Y-53634470D01*
X138995465Y-53691651D01*
X138821742Y-53784508D01*
X138669472Y-53909472D01*
X138638160Y-53947626D01*
X137808673Y-54777114D01*
X137672360Y-54750000D01*
X137327640Y-54750000D01*
X136989544Y-54817251D01*
X136671064Y-54949170D01*
X136384440Y-55140686D01*
X136140686Y-55384440D01*
X135949170Y-55671064D01*
X135817251Y-55989544D01*
X135750000Y-56327640D01*
X135750000Y-56672360D01*
X135817251Y-57010456D01*
X135949170Y-57328936D01*
X136140686Y-57615560D01*
X136384440Y-57859314D01*
X136671064Y-58050830D01*
X136989544Y-58182749D01*
X137327640Y-58250000D01*
X137672360Y-58250000D01*
X138010456Y-58182749D01*
X138328936Y-58050830D01*
X138615560Y-57859314D01*
X138859314Y-57615560D01*
X139050830Y-57328936D01*
X139182749Y-57010456D01*
X139250000Y-56672360D01*
X139250000Y-56327640D01*
X139222886Y-56191327D01*
X139794214Y-55620000D01*
X141815532Y-55620000D01*
X141898682Y-55721318D01*
X142104222Y-55890000D01*
X141898682Y-56058682D01*
X141704987Y-56294700D01*
X141561059Y-56563971D01*
X141472428Y-56856147D01*
X141442501Y-57160000D01*
X141455348Y-57290439D01*
X138889807Y-59855981D01*
X138876619Y-59831307D01*
X138782895Y-59717105D01*
X138668693Y-59623381D01*
X138538401Y-59553739D01*
X138397026Y-59510853D01*
X138250000Y-59496372D01*
X136750000Y-59496372D01*
X136602974Y-59510853D01*
X136461599Y-59553739D01*
X136331307Y-59623381D01*
X136217105Y-59717105D01*
X136123381Y-59831307D01*
X136053739Y-59961599D01*
X136042090Y-60000000D01*
X132549117Y-60000000D01*
X132499999Y-59995162D01*
X132450881Y-60000000D01*
X132450880Y-60000000D01*
X132303966Y-60014470D01*
X132115465Y-60071651D01*
X131941742Y-60164508D01*
X131789472Y-60289472D01*
X131758155Y-60327632D01*
X130150647Y-61935141D01*
X130135359Y-61884744D01*
X129986788Y-61606787D01*
X129786845Y-61363155D01*
X129543213Y-61163212D01*
X129265256Y-61014641D01*
X128963655Y-60923151D01*
X128728597Y-60900000D01*
X128271403Y-60900000D01*
X128036345Y-60923151D01*
X127734744Y-61014641D01*
X127456787Y-61163212D01*
X127213155Y-61363155D01*
X127013212Y-61606787D01*
X126864641Y-61884744D01*
X126773151Y-62186345D01*
X126742259Y-62500000D01*
X124775000Y-62500000D01*
X124775000Y-48000000D01*
X126742259Y-48000000D01*
X126773151Y-48313655D01*
X126864641Y-48615256D01*
X127013212Y-48893213D01*
X127169828Y-49084050D01*
X127040328Y-49190328D01*
X126915514Y-49342414D01*
X126822769Y-49515928D01*
X126765656Y-49704202D01*
X126746372Y-49900000D01*
X126746372Y-51100000D01*
X126765656Y-51295798D01*
X126822769Y-51484072D01*
X126915514Y-51657586D01*
X127040328Y-51809672D01*
X127192414Y-51934486D01*
X127365928Y-52027231D01*
X127554202Y-52084344D01*
X127750000Y-52103628D01*
X129250000Y-52103628D01*
X129445798Y-52084344D01*
X129634072Y-52027231D01*
X129807586Y-51934486D01*
X129959672Y-51809672D01*
X130084486Y-51657586D01*
X130177231Y-51484072D01*
X130234344Y-51295798D01*
X130253628Y-51100000D01*
X130253628Y-50160584D01*
X132914213Y-47500000D01*
X134292090Y-47500000D01*
X134303739Y-47538401D01*
X134373381Y-47668693D01*
X134467105Y-47782895D01*
X134581307Y-47876619D01*
X134711599Y-47946261D01*
X134719901Y-47948779D01*
X134584874Y-48083806D01*
X134420717Y-48329483D01*
X134307644Y-48602466D01*
X134250000Y-48892263D01*
X134250000Y-49187737D01*
X134274563Y-49311224D01*
X128808674Y-54777114D01*
X128672360Y-54750000D01*
X128327640Y-54750000D01*
X127989544Y-54817251D01*
X127671064Y-54949170D01*
X127384440Y-55140686D01*
X127140686Y-55384440D01*
X126949170Y-55671064D01*
X126817251Y-55989544D01*
X126750000Y-56327640D01*
X126750000Y-56672360D01*
X126817251Y-57010456D01*
X126949170Y-57328936D01*
X127140686Y-57615560D01*
X127384440Y-57859314D01*
X127671064Y-58050830D01*
X127989544Y-58182749D01*
X128327640Y-58250000D01*
X128672360Y-58250000D01*
X129010456Y-58182749D01*
X129328936Y-58050830D01*
X129615560Y-57859314D01*
X129859314Y-57615560D01*
X130050830Y-57328936D01*
X130182749Y-57010456D01*
X130250000Y-56672360D01*
X130250000Y-56327640D01*
X130222886Y-56191326D01*
X133741122Y-52673090D01*
X135010463Y-52673090D01*
X135078582Y-52929453D01*
X135354748Y-53034511D01*
X135646103Y-53083672D01*
X135941451Y-53075049D01*
X136229442Y-53008972D01*
X136421418Y-52929453D01*
X136489537Y-52673090D01*
X136445694Y-52629247D01*
X139474306Y-52629247D01*
X139548649Y-52890653D01*
X139833429Y-53000758D01*
X140134216Y-53053190D01*
X140439454Y-53045935D01*
X140737411Y-52979270D01*
X140951351Y-52890653D01*
X141025694Y-52629247D01*
X140250000Y-51853553D01*
X139474306Y-52629247D01*
X136445694Y-52629247D01*
X135750000Y-51933553D01*
X135010463Y-52673090D01*
X133741122Y-52673090D01*
X134330911Y-52083302D01*
X134400547Y-52251418D01*
X134656910Y-52319537D01*
X135396447Y-51580000D01*
X136103553Y-51580000D01*
X136843090Y-52319537D01*
X137099453Y-52251418D01*
X137204511Y-51975252D01*
X137253672Y-51683897D01*
X137245049Y-51388549D01*
X137244055Y-51384216D01*
X138696810Y-51384216D01*
X138704065Y-51689454D01*
X138770730Y-51987411D01*
X138859347Y-52201351D01*
X139120753Y-52275694D01*
X139896447Y-51500000D01*
X139120753Y-50724306D01*
X138859347Y-50798649D01*
X138749242Y-51083429D01*
X138696810Y-51384216D01*
X137244055Y-51384216D01*
X137178972Y-51100558D01*
X137099453Y-50908582D01*
X136843090Y-50840463D01*
X136103553Y-51580000D01*
X135396447Y-51580000D01*
X135382305Y-51565858D01*
X135735858Y-51212305D01*
X135750000Y-51226447D01*
X136489537Y-50486910D01*
X136458504Y-50370117D01*
X136460517Y-50369283D01*
X136706194Y-50205126D01*
X136915126Y-49996194D01*
X137079283Y-49750517D01*
X137192356Y-49477534D01*
X137250000Y-49187737D01*
X137250000Y-48892263D01*
X137192356Y-48602466D01*
X137079283Y-48329483D01*
X136915126Y-48083806D01*
X136780099Y-47948779D01*
X136788401Y-47946261D01*
X136918693Y-47876619D01*
X137032895Y-47782895D01*
X137126619Y-47668693D01*
X137196261Y-47538401D01*
X137239147Y-47397026D01*
X137253628Y-47250000D01*
X137253628Y-45750000D01*
X137239147Y-45602974D01*
X137196261Y-45461599D01*
X137126619Y-45331307D01*
X137032895Y-45217105D01*
X136918693Y-45123381D01*
X136788401Y-45053739D01*
X136647026Y-45010853D01*
X136500000Y-44996372D01*
X135000000Y-44996372D01*
X134852974Y-45010853D01*
X134711599Y-45053739D01*
X134581307Y-45123381D01*
X134467105Y-45217105D01*
X134373381Y-45331307D01*
X134303739Y-45461599D01*
X134292090Y-45500000D01*
X132549117Y-45500000D01*
X132499999Y-45495162D01*
X132450881Y-45500000D01*
X132450880Y-45500000D01*
X132303966Y-45514470D01*
X132115465Y-45571651D01*
X131941742Y-45664508D01*
X131789472Y-45789472D01*
X131758155Y-45827632D01*
X130150647Y-47435141D01*
X130135359Y-47384744D01*
X129986788Y-47106787D01*
X129786845Y-46863155D01*
X129543213Y-46663212D01*
X129265256Y-46514641D01*
X128963655Y-46423151D01*
X128728597Y-46400000D01*
X128271403Y-46400000D01*
X128036345Y-46423151D01*
X127734744Y-46514641D01*
X127456787Y-46663212D01*
X127213155Y-46863155D01*
X127013212Y-47106787D01*
X126864641Y-47384744D01*
X126773151Y-47686345D01*
X126742259Y-48000000D01*
X124775000Y-48000000D01*
X124775000Y-40750000D01*
X131000000Y-40750000D01*
X131048773Y-40745196D01*
X131095671Y-40730970D01*
X131138893Y-40707867D01*
X131176777Y-40676777D01*
X131207867Y-40638893D01*
X131230970Y-40595671D01*
X131245196Y-40548773D01*
X131250000Y-40500000D01*
X131250000Y-34275000D01*
X162250000Y-34275000D01*
X162250000Y-40500000D01*
M02*
