M48
; DRILL file {KiCad 5.1.10-88a1d61d58~90~ubuntu20.04.1} date Sun Jan 16 22:12:22 2022
; FORMAT={-:-/ absolute / metric / decimal}
; #@! TF.CreationDate,2022-01-16T22:12:22+00:00
; #@! TF.GenerationSoftware,Kicad,Pcbnew,5.1.10-88a1d61d58~90~ubuntu20.04.1
; #@! TF.FileFunction,Plated,1,2,PTH
FMAT,2
METRIC
T1C0.750
T2C0.950
T3C1.000
T4C1.200
%
G90
G05
T1
X141.0Y-75.5
X141.0Y-76.77
X141.0Y-78.04
X141.0Y-83.5
X141.0Y-84.77
X141.0Y-86.04
X141.0Y-93.5
X141.0Y-94.77
X141.0Y-96.04
X141.0Y-103.5
X141.0Y-104.77
X141.0Y-106.04
T2
X114.5Y-76.5
X114.5Y-79.0
X114.5Y-81.5
X114.5Y-84.0
X114.5Y-91.0
X114.5Y-93.5
X114.5Y-96.0
X114.5Y-98.5
T3
X150.0Y-70.5
X150.0Y-73.0
X150.0Y-79.5
X150.0Y-82.0
X150.0Y-88.5
X150.0Y-91.0
X150.0Y-97.5
X150.0Y-100.0
T4
X112.3Y-70.5
X118.8Y-65.0
X124.0Y-75.5
X124.0Y-80.5
X124.0Y-85.5
X124.0Y-90.5
X124.0Y-95.5
X124.0Y-100.5
X124.0Y-105.5
X125.0Y-70.5
X129.5Y-70.5
X131.5Y-65.0
X136.7Y-75.5
X136.7Y-80.5
X136.7Y-85.5
X136.7Y-90.5
X136.7Y-95.5
X136.7Y-100.5
X136.7Y-105.5
X142.2Y-70.5
T0
M30
