%TF.GenerationSoftware,KiCad,Pcbnew,5.1.10-88a1d61d58~90~ubuntu20.04.1*%
%TF.CreationDate,2022-01-16T22:12:24+00:00*%
%TF.ProjectId,level_shifter,6c657665-6c5f-4736-9869-667465722e6b,rev?*%
%TF.SameCoordinates,Original*%
%TF.FileFunction,Soldermask,Top*%
%TF.FilePolarity,Negative*%
%FSLAX46Y46*%
G04 Gerber Fmt 4.6, Leading zero omitted, Abs format (unit mm)*
G04 Created by KiCad (PCBNEW 5.1.10-88a1d61d58~90~ubuntu20.04.1) date 2022-01-16 22:12:24*
%MOMM*%
%LPD*%
G01*
G04 APERTURE LIST*
%ADD10O,2.400000X2.400000*%
%ADD11C,2.400000*%
%ADD12R,1.500000X1.050000*%
%ADD13O,1.500000X1.050000*%
%ADD14O,2.000000X1.700000*%
%ADD15O,1.950000X1.700000*%
%ADD16C,3.200000*%
G04 APERTURE END LIST*
D10*
%TO.C,R10*%
X136700000Y-105500000D03*
D11*
X124000000Y-105500000D03*
%TD*%
D10*
%TO.C,R9*%
X136700000Y-95500000D03*
D11*
X124000000Y-95500000D03*
%TD*%
D10*
%TO.C,R8*%
X136700000Y-85500000D03*
D11*
X124000000Y-85500000D03*
%TD*%
D10*
%TO.C,R7*%
X136700000Y-75500000D03*
D11*
X124000000Y-75500000D03*
%TD*%
D10*
%TO.C,R6*%
X136700000Y-100500000D03*
D11*
X124000000Y-100500000D03*
%TD*%
D10*
%TO.C,R5*%
X136700000Y-90500000D03*
D11*
X124000000Y-90500000D03*
%TD*%
D10*
%TO.C,R4*%
X136700000Y-80500000D03*
D11*
X124000000Y-80500000D03*
%TD*%
D10*
%TO.C,R3*%
X142200000Y-70500000D03*
D11*
X129500000Y-70500000D03*
%TD*%
D10*
%TO.C,R2*%
X118800000Y-65000000D03*
D11*
X131500000Y-65000000D03*
%TD*%
D10*
%TO.C,R1*%
X112300000Y-70500000D03*
D11*
X125000000Y-70500000D03*
%TD*%
D12*
%TO.C,Q4*%
X141000000Y-103500000D03*
D13*
X141000000Y-106040000D03*
X141000000Y-104770000D03*
%TD*%
D12*
%TO.C,Q3*%
X141000000Y-93500000D03*
D13*
X141000000Y-96040000D03*
X141000000Y-94770000D03*
%TD*%
D12*
%TO.C,Q2*%
X141000000Y-83500000D03*
D13*
X141000000Y-86040000D03*
X141000000Y-84770000D03*
%TD*%
D12*
%TO.C,Q1*%
X141000000Y-75500000D03*
D13*
X141000000Y-78040000D03*
X141000000Y-76770000D03*
%TD*%
D14*
%TO.C,J6*%
X150000000Y-100000000D03*
G36*
G01*
X149250000Y-96650000D02*
X150750000Y-96650000D01*
G75*
G02*
X151000000Y-96900000I0J-250000D01*
G01*
X151000000Y-98100000D01*
G75*
G02*
X150750000Y-98350000I-250000J0D01*
G01*
X149250000Y-98350000D01*
G75*
G02*
X149000000Y-98100000I0J250000D01*
G01*
X149000000Y-96900000D01*
G75*
G02*
X149250000Y-96650000I250000J0D01*
G01*
G37*
%TD*%
%TO.C,J5*%
X150000000Y-91000000D03*
G36*
G01*
X149250000Y-87650000D02*
X150750000Y-87650000D01*
G75*
G02*
X151000000Y-87900000I0J-250000D01*
G01*
X151000000Y-89100000D01*
G75*
G02*
X150750000Y-89350000I-250000J0D01*
G01*
X149250000Y-89350000D01*
G75*
G02*
X149000000Y-89100000I0J250000D01*
G01*
X149000000Y-87900000D01*
G75*
G02*
X149250000Y-87650000I250000J0D01*
G01*
G37*
%TD*%
%TO.C,J4*%
X150000000Y-82000000D03*
G36*
G01*
X149250000Y-78650000D02*
X150750000Y-78650000D01*
G75*
G02*
X151000000Y-78900000I0J-250000D01*
G01*
X151000000Y-80100000D01*
G75*
G02*
X150750000Y-80350000I-250000J0D01*
G01*
X149250000Y-80350000D01*
G75*
G02*
X149000000Y-80100000I0J250000D01*
G01*
X149000000Y-78900000D01*
G75*
G02*
X149250000Y-78650000I250000J0D01*
G01*
G37*
%TD*%
%TO.C,J3*%
X150000000Y-73000000D03*
G36*
G01*
X149250000Y-69650000D02*
X150750000Y-69650000D01*
G75*
G02*
X151000000Y-69900000I0J-250000D01*
G01*
X151000000Y-71100000D01*
G75*
G02*
X150750000Y-71350000I-250000J0D01*
G01*
X149250000Y-71350000D01*
G75*
G02*
X149000000Y-71100000I0J250000D01*
G01*
X149000000Y-69900000D01*
G75*
G02*
X149250000Y-69650000I250000J0D01*
G01*
G37*
%TD*%
D15*
%TO.C,J2*%
X114500000Y-91000000D03*
X114500000Y-93500000D03*
X114500000Y-96000000D03*
G36*
G01*
X115225000Y-99350000D02*
X113775000Y-99350000D01*
G75*
G02*
X113525000Y-99100000I0J250000D01*
G01*
X113525000Y-97900000D01*
G75*
G02*
X113775000Y-97650000I250000J0D01*
G01*
X115225000Y-97650000D01*
G75*
G02*
X115475000Y-97900000I0J-250000D01*
G01*
X115475000Y-99100000D01*
G75*
G02*
X115225000Y-99350000I-250000J0D01*
G01*
G37*
%TD*%
%TO.C,J1*%
X114500000Y-76500000D03*
X114500000Y-79000000D03*
X114500000Y-81500000D03*
G36*
G01*
X115225000Y-84850000D02*
X113775000Y-84850000D01*
G75*
G02*
X113525000Y-84600000I0J250000D01*
G01*
X113525000Y-83400000D01*
G75*
G02*
X113775000Y-83150000I250000J0D01*
G01*
X115225000Y-83150000D01*
G75*
G02*
X115475000Y-83400000I0J-250000D01*
G01*
X115475000Y-84600000D01*
G75*
G02*
X115225000Y-84850000I-250000J0D01*
G01*
G37*
%TD*%
D16*
%TO.C,REF\u002A\u002A*%
X113000000Y-106000000D03*
%TD*%
%TO.C,REF\u002A\u002A*%
X151500000Y-64500000D03*
%TD*%
%TO.C,REF\u002A\u002A*%
X113000000Y-64500000D03*
%TD*%
%TO.C,REF\u002A\u002A*%
X151500000Y-106000000D03*
%TD*%
M02*
