<?xml version="1.0" encoding="UTF-8" standalone="no"?>
<!-- Created with Inkscape (http://www.inkscape.org/) -->

<svg
   xmlns:dc="http://purl.org/dc/elements/1.1/"
   xmlns:cc="http://creativecommons.org/ns#"
   xmlns:rdf="http://www.w3.org/1999/02/22-rdf-syntax-ns#"
   xmlns:svg="http://www.w3.org/2000/svg"
   xmlns="http://www.w3.org/2000/svg"
   xmlns:sodipodi="http://sodipodi.sourceforge.net/DTD/sodipodi-0.dtd"
   xmlns:inkscape="http://www.inkscape.org/namespaces/inkscape"
   width="94.291481"
   height="30"
   id="svg2985"
   version="1.1"
   inkscape:version="0.92.3 (2405546, 2018-03-11)"
   sodipodi:docname="bonsai-lettering.svg"
   inkscape:export-filename="Bonsai.png"
   inkscape:export-xdpi="1034.1727"
   inkscape:export-ydpi="1034.1727">
  <defs
     id="defs2987" />
  <sodipodi:namedview
     id="base"
     pagecolor="#474747"
     bordercolor="#666666"
     borderopacity="1.0"
     inkscape:pageopacity="0"
     inkscape:pageshadow="2"
     inkscape:zoom="8"
     inkscape:cx="52.355694"
     inkscape:cy="15.542056"
     inkscape:document-units="mm"
     inkscape:current-layer="layer2"
     showgrid="false"
     inkscape:window-width="1735"
     inkscape:window-height="1080"
     inkscape:window-x="264"
     inkscape:window-y="141"
     inkscape:window-maximized="0"
     units="px"
     showguides="true"
     inkscape:guide-bbox="true"
     fit-margin-top="0"
     fit-margin-left="0"
     fit-margin-right="0"
     fit-margin-bottom="0">
    <sodipodi:guide
       orientation="0,1"
       position="-13.519531,39.30529"
       id="guide4444"
       inkscape:locked="false"
       inkscape:label=""
       inkscape:color="rgb(0,0,255)" />
    <sodipodi:guide
       orientation="1,0"
       position="65.25,70.032829"
       id="guide4446"
       inkscape:locked="false"
       inkscape:label=""
       inkscape:color="rgb(0,0,255)" />
  </sodipodi:namedview>
  <metadata
     id="metadata2990">
    <rdf:RDF>
      <cc:Work
         rdf:about="">
        <dc:format>image/svg+xml</dc:format>
        <dc:type
           rdf:resource="http://purl.org/dc/dcmitype/StillImage" />
        <dc:title></dc:title>
      </cc:Work>
    </rdf:RDF>
  </metadata>
  <g
     inkscape:groupmode="layer"
     id="layer2"
     inkscape:label="Layer 1"
     transform="translate(50.25,-24.305292)">
    <g
       id="g45"
       transform="translate(-50.25,24.305309)">
      <circle
         r="15"
         cy="14.999983"
         cx="15"
         id="path1206"
         style="fill:#ec2227;stroke-width:2" />
      <path
         inkscape:connector-curvature="0"
         id="path1082"
         d="m 12.261719,3.3691406 c -1.632041,0 -2.9934449,1.161525 -3.3007815,2.703125 C 8.710026,5.9336656 8.4207229,5.8580406 8.1113281,5.8691406 7.2755851,5.8997406 6.5846829,6.5771094 6.5390625,7.4121094 6.4876112,8.356809 7.2383742,9.138672 8.171875,9.138672 c 0.5054248,0 0.9578506,-0.229544 1.2578125,-0.589844 0.3742256,0.5825 0.9226045,1.043841 1.5722655,1.306641 C 11.000923,9.877269 11,9.897922 11,9.919922 10.544312,9.632822 10.004099,9.466797 9.4257812,9.466797 c -1.6327258,0 -2.9550781,1.322578 -2.9550781,2.955078 0,0.0299 0.0011,0.06044 0.00195,0.08984 -0.2852125,-0.0782 -0.5932818,-0.104147 -0.9121093,-0.06055 -1.0700187,0.1466 -1.8952996,1.051959 -1.9472657,2.130859 -0.023325,0.4864 0.106111,0.941613 0.3457032,1.320313 -0.3629042,0.2369 -0.5934092,0.657559 -0.5585938,1.130859 0.045449,0.6147 0.5542196,1.110878 1.1699219,1.142578 0.7083149,0.0364 1.2950832,-0.52095 1.3046875,-1.21875 0.3003049,-2e-4 0.585597,-0.05972 0.8476562,-0.166015 0.6012959,-0.1626 2.0020288,-0.45296 3.3124999,-0.06836 1.126615,0.3307 1.99755,1.469335 2.013672,1.490235 0.4797,1.004 1.985476,1.669406 2.046875,2.316406 0.188998,1.9949 -4.2806109,2.678681 -6.8085937,3.363281 4.4610777,3.7433 10.9647037,3.665175 15.4257817,-0.07813 0,0 -5.006042,-0.659362 -6.017579,-3.476562 -0.761481,-2.1209 -2.625952,-2.342622 -2.632812,-3.107422 -0.0108,-1.1925 1.995063,-1.2206 2.03125,-2.6875 0.0048,-0.1944 -0.01829,-0.368538 -0.05859,-0.523438 0.641771,-0.0549 1.229048,-0.298681 1.707032,-0.675781 0.0055,0.0112 0.01209,0.022 0.01758,0.0332 -0.381598,0.2893 -0.606551,0.774341 -0.521485,1.306641 0.09313,0.5824 0.568027,1.043947 1.152344,1.123047 0.577113,0.078 1.093542,-0.207104 1.359375,-0.658203 0.387601,0.1416 0.80749,0.21875 1.244141,0.21875 1.763241,0 3.231058,-1.258735 3.554687,-2.927735 0.810875,-0.1285 1.420003,-0.867069 1.341797,-1.730469 -0.06792,-0.7495 -0.669865,-1.360306 -1.417969,-1.441406 -0.266518,-0.0288 -0.520527,0.00946 -0.75,0.097656 -0.664067,-0.7606 -1.639459,-1.242187 -2.728515,-1.242187 -0.975347,0 -1.860515,0.386872 -2.511719,1.013672 -0.423788,-0.6807 -1.095119,-1.1909971 -1.888672,-1.4042971 0.459119,-0.2319 0.775457,-0.7067594 0.777344,-1.2558594 0.0026,-0.7433 -0.552069,-1.3505094 -1.292969,-1.4121094 -0.292931,-0.0245 -0.567772,0.041575 -0.802734,0.171875 -0.551045,-1.1072 -1.692914,-1.8671875 -3.013672,-1.8671875 z m 2.173828,10.6503904 c 0.02487,0.1008 0.04102,0.208219 0.04101,0.324219 0,0.6091 -1.576319,1.168719 -2.259765,2.261719 -0.433736,-0.3517 -0.951681,-0.68871 -1.484375,-0.84961 -0.931615,-0.2817 -2.1433165,-0.177684 -2.8183595,-0.08398 0.090212,-0.1883 0.1560763,-0.392669 0.1914063,-0.605469 0.3978911,0.1994 0.8450727,0.3125 1.3203124,0.3125 0.9592288,0 1.8114928,-0.455962 2.3515628,-1.164062 0.345753,0.2255 0.75766,0.355468 1.201172,0.355468 0.558591,0 1.068743,-0.208181 1.457031,-0.550781 z"
         style="fill:#ffffff;stroke-width:0.17150483" />
    </g>
    <g
       id="g1052">
      <path
         inkscape:connector-curvature="0"
         d="m -12.93559,50.696686 -0.817152,-1.977909 h -0.288627 l 0.988329,2.312766 h 0.228653 l 0.98708,-2.312766 h -0.278631 z m 0,0"
         id="path1342"
         style="fill:#ffffff;stroke-width:0.07996598" />
      <path
         inkscape:connector-curvature="0"
         d="M -11.358467,48.718777 V 51.0153 h 0.25989 v -2.296523 z m 0,0"
         id="path1330"
         style="fill:#ffffff;stroke-width:0.07996598" />
      <path
         inkscape:connector-curvature="0"
         d="m -10.223394,49.293532 c 0,-0.20991 0.189919,-0.373591 0.4885419,-0.373591 0.2361495,0 0.4498086,0.07497 0.6622183,0.248645 l 0.1511857,-0.199915 c -0.2324012,-0.187421 -0.4722991,-0.28238 -0.8071567,-0.28238 -0.4360642,0 -0.7534292,0.262388 -0.7534292,0.629732 0,0.381088 0.242397,0.551016 0.7709218,0.665967 0.4810454,0.101207 0.5959964,0.223654 0.5959964,0.439812 0,0.232402 -0.2024138,0.393583 -0.5110325,0.393583 -0.3186145,0 -0.5485167,-0.108704 -0.7871647,-0.324862 l -0.161182,0.189919 c 0.276133,0.246146 0.5747556,0.367344 0.9383509,0.367344 0.456056,0 0.7834167,-0.256141 0.7834167,-0.652222 0,-0.354849 -0.2361495,-0.54102 -0.7471821,-0.653472 -0.5047855,-0.107455 -0.6234845,-0.228653 -0.6234845,-0.44856 z m 0,0"
         id="path1350"
         style="fill:#ffffff;stroke-width:0.07996598" />
      <path
         inkscape:connector-curvature="0"
         d="m -6.4456208,48.718777 h -0.2586399 v 1.335682 c 0,0.501037 -0.2686358,0.757178 -0.6922056,0.757178 -0.4398129,0 -0.7022012,-0.278632 -0.7022012,-0.773421 v -1.319439 h -0.25864 v 1.335682 c 0,0.649723 0.3873352,0.997076 0.9545939,0.997076 0.573506,0 0.9570928,-0.347353 0.9570928,-1.017068 z m 0,0"
         id="path1354"
         style="fill:#ffffff;stroke-width:0.07996598" />
      <path
         inkscape:connector-curvature="0"
         d="M -4.8188421,48.702534 H -5.061239 L -6.1082935,51.0153 h 0.2661368 l 0.2723841,-0.607242 h 1.2494684 l 0.2686357,0.607242 h 0.2786315 z m 0.397331,1.473123 h -1.0470546 l 0.5247768,-1.170752 z m 0,0"
         id="path1314"
         style="fill:#ffffff;stroke-width:0.07996598" />
      <path
         inkscape:connector-curvature="0"
         d="m -3.3166979,51.0153 h 1.5518398 v -0.239898 h -1.2931998 v -2.056625 h -0.25864 z m 0,0"
         id="path1326"
         style="fill:#ffffff;stroke-width:0.07996598" />
      <path
         inkscape:connector-curvature="0"
         d="M 1.603025,51.0153 0.89707538,50.076949 c 0.36109642,-0.06497 0.62348472,-0.288627 0.62348472,-0.672214 0,-0.413574 -0.3248618,-0.685958 -0.82964701,-0.685958 H -0.29616698 V 51.0153 h 0.25863997 V 50.12318 H 0.61844392 L 1.2844106,51.0153 Z M 1.2581718,49.414731 c 0,0.298623 -0.2461453,0.476047 -0.58974914,0.476047 h -0.70594967 v -0.932103 h 0.7084486 c 0.37109211,0 0.58725021,0.171177 0.58725021,0.456056 z m 0,0"
         id="path1406"
         style="fill:#ffffff;stroke-width:0.07996598" />
      <path
         inkscape:connector-curvature="0"
         d="M 3.7375714,48.718777 H 2.0782773 V 51.0153 H 3.7538145 V 50.77915 H 2.3369173 V 49.975742 H 3.5901341 V 49.739593 H 2.3369173 v -0.784666 h 1.4006541 z m 0,0"
         id="path1398"
         style="fill:#ffffff;stroke-width:0.07996598" />
      <path
         inkscape:connector-curvature="0"
         d="M 5.3709389,48.702534 H 5.128542 L 4.0814875,51.0153 H 4.3476243 L 4.6200084,50.408058 H 5.8694768 L 6.1381125,51.0153 H 6.416744 Z m 0.397331,1.473123 H 4.7212153 l 0.5247768,-1.170752 z m 0,0"
         id="path1318"
         style="fill:#ffffff;stroke-width:0.07996598" />
      <path
         inkscape:connector-curvature="0"
         d="M 8.7065314,50.651705 8.5353542,50.484276 c -0.218657,0.209911 -0.4260687,0.331109 -0.7409348,0.331109 -0.5047852,0 -0.888372,-0.417322 -0.888372,-0.950845 0,-0.534773 0.3798384,-0.944599 0.888372,-0.944599 0.3123671,0 0.5285252,0.131195 0.7221928,0.314866 l 0.176175,-0.191168 C 8.4641345,48.827481 8.2142408,48.680043 7.7981678,48.680043 c -0.6759624,0 -1.1607561,0.534773 -1.1607561,1.190744 0,0.662218 0.4885421,1.184496 1.1507604,1.184496 0.416073,0 0.6784613,-0.161181 0.9183593,-0.403578 z m 0,0"
         id="path1418"
         style="fill:#ffffff;stroke-width:0.07996598" />
      <path
         inkscape:connector-curvature="0"
         d="m 10.031886,48.958675 h 0.769672 V 48.718777 H 8.9985751 v 0.239898 H 9.7694972 V 51.0153 h 0.2623888 z m 0,0"
         id="path1386"
         style="fill:#ffffff;stroke-width:0.07996598" />
      <path
         inkscape:connector-curvature="0"
         d="M 11.31322,48.718777 V 51.0153 h 0.25989 v -2.296523 z m 0,0"
         id="path1334"
         style="fill:#ffffff;stroke-width:0.07996598" />
      <path
         inkscape:connector-curvature="0"
         d="m 13.156743,50.696686 -0.817152,-1.977909 h -0.288627 l 0.988329,2.312766 h 0.228653 l 0.98708,-2.312766 h -0.278631 z m 0,0"
         id="path1346"
         style="fill:#ffffff;stroke-width:0.07996598" />
      <path
         inkscape:connector-curvature="0"
         d="M 16.370668,48.718777 H 14.711374 V 51.0153 h 1.675537 v -0.23615 h -1.416897 v -0.803408 h 1.253217 v -0.236149 h -1.253217 v -0.784666 h 1.400654 z m 0,0"
         id="path1402"
         style="fill:#ffffff;stroke-width:0.07996598" />
      <path
         inkscape:connector-curvature="0"
         d="m 19.617187,49.450966 c 0,-0.456056 -0.341105,-0.732189 -0.858385,-0.732189 H 17.899168 V 51.0153 h 0.25864 v -0.809656 h 0.558512 c 0.488542,0 0.900867,-0.256141 0.900867,-0.754678 z m -0.262388,0.01 c 0,0.304871 -0.248645,0.508534 -0.629733,0.508534 h -0.567258 v -1.01082 h 0.581003 c 0.371092,0 0.615988,0.171177 0.615988,0.502286 z m 0,0"
         id="path1370"
         style="fill:#ffffff;stroke-width:0.07996598" />
      <path
         inkscape:connector-curvature="0"
         d="m 21.992424,51.0153 -0.70595,-0.938351 c 0.361097,-0.06497 0.623485,-0.288627 0.623485,-0.672214 0,-0.413574 -0.324862,-0.685958 -0.829647,-0.685958 h -0.98708 V 51.0153 h 0.25864 v -0.89212 h 0.655971 l 0.665966,0.89212 z m -0.344853,-1.600569 c 0,0.298623 -0.246146,0.476047 -0.58975,0.476047 h -0.705949 v -0.932103 h 0.708448 c 0.371092,0 0.587251,0.171177 0.587251,0.456056 z m 0,0"
         id="path1410"
         style="fill:#ffffff;stroke-width:0.07996598" />
      <path
         inkscape:connector-curvature="0"
         d="m 24.707975,49.86454 c 0,-0.637229 -0.4698,-1.184497 -1.168253,-1.184497 -0.698453,0 -1.173251,0.554764 -1.173251,1.190744 0,0.635979 0.468551,1.184496 1.167003,1.184496 0.698453,0 1.174501,-0.554764 1.174501,-1.190743 z m -0.268636,0.0062 c 0,0.524777 -0.374841,0.944598 -0.899617,0.944598 -0.524777,0 -0.904615,-0.426069 -0.904615,-0.950845 0,-0.524777 0.373591,-0.944599 0.898367,-0.944599 0.524777,0 0.905865,0.426069 0.905865,0.950846 z m 0,0"
         id="path1366"
         style="fill:#ffffff;stroke-width:0.07996598" />
      <path
         inkscape:connector-curvature="0"
         d="m 27.246546,50.704182 v -0.91586 H 26.2982 v 0.233651 h 0.698452 v 0.569757 c -0.157433,0.128695 -0.39983,0.229902 -0.662218,0.229902 -0.557263,0 -0.908363,-0.406077 -0.908363,-0.957092 0,-0.516031 0.363595,-0.944599 0.872129,-0.944599 0.324861,0 0.521028,0.107455 0.698452,0.262389 l 0.167429,-0.197416 c -0.229902,-0.193668 -0.468551,-0.304871 -0.855886,-0.304871 -0.688457,0 -1.15076,0.557263 -1.15076,1.190744 0,0.65847 0.44606,1.184496 1.167003,1.184496 0.387336,0 0.708449,-0.161181 0.922108,-0.351101 z m 0,0"
         id="path1374"
         style="fill:#ffffff;stroke-width:0.07996598" />
      <path
         inkscape:connector-curvature="0"
         d="m 29.732331,51.0153 -0.70595,-0.938351 c 0.361097,-0.06497 0.623485,-0.288627 0.623485,-0.672214 0,-0.413574 -0.324862,-0.685958 -0.829647,-0.685958 h -0.98708 V 51.0153 h 0.25864 v -0.89212 h 0.655971 l 0.665966,0.89212 z m -0.344853,-1.600569 c 0,0.298623 -0.246146,0.476047 -0.58975,0.476047 h -0.705949 v -0.932103 h 0.708448 c 0.371092,0 0.587251,0.171177 0.587251,0.456056 z m 0,0"
         id="path1414"
         style="fill:#ffffff;stroke-width:0.07996598" />
      <path
         inkscape:connector-curvature="0"
         d="M 31.299612,48.702534 H 31.057215 L 30.010161,51.0153 h 0.266137 l 0.272384,-0.607242 h 1.249468 l 0.268636,0.607242 h 0.278631 z m 0.397331,1.473123 h -1.047054 l 0.524776,-1.170752 z m 0,0"
         id="path1322"
         style="fill:#ffffff;stroke-width:0.07996598" />
      <path
         inkscape:connector-curvature="0"
         d="M 34.739686,49.156091 V 51.0153 h 0.25989 v -2.296523 h -0.262389 l -0.837143,1.253217 -0.835895,-1.253217 H 32.801761 V 51.0153 h 0.252392 v -1.85671 l 0.835895,1.226978 h 0.01374 z m 0,0"
         id="path1358"
         style="fill:#ffffff;stroke-width:0.07996598" />
      <path
         inkscape:connector-curvature="0"
         d="M 37.589682,49.156091 V 51.0153 h 0.25989 V 48.718777 H 37.587183 L 36.75004,49.971994 35.914145,48.718777 H 35.651757 V 51.0153 h 0.252392 v -1.85671 l 0.835895,1.226978 h 0.01374 z m 0,0"
         id="path1362"
         style="fill:#ffffff;stroke-width:0.07996598" />
      <path
         inkscape:connector-curvature="0"
         d="M 38.524234,48.718777 V 51.0153 h 0.25989 v -2.296523 z m 0,0"
         id="path1338"
         style="fill:#ffffff;stroke-width:0.07996598" />
      <path
         inkscape:connector-curvature="0"
         d="M 41.148674,50.559244 39.70179,48.718777 H 39.459393 V 51.0153 h 0.252392 v -1.882949 l 1.483119,1.882949 h 0.206163 v -2.296523 h -0.252393 z m 0,0"
         id="path1382"
         style="fill:#ffffff;stroke-width:0.07996598" />
      <path
         inkscape:connector-curvature="0"
         d="m 44.041481,50.704182 v -0.91586 h -0.948346 v 0.233651 h 0.698452 v 0.569757 c -0.157433,0.128695 -0.39983,0.229902 -0.662218,0.229902 -0.557263,0 -0.908363,-0.406077 -0.908363,-0.957092 0,-0.516031 0.363595,-0.944599 0.872129,-0.944599 0.324861,0 0.521028,0.107455 0.698452,0.262389 l 0.167429,-0.197416 c -0.229902,-0.193668 -0.468551,-0.304871 -0.855886,-0.304871 -0.688457,0 -1.15076,0.557263 -1.15076,1.190744 0,0.65847 0.44606,1.184496 1.167003,1.184496 0.387336,0 0.708449,-0.161181 0.922108,-0.351101 z m 0,0"
         id="path1378"
         style="fill:#ffffff;stroke-width:0.07996598" />
      <path
         id="path1261-6"
         d="m -8.2744834,43.9508 c 0.4619913,0 0.8996173,-0.0878 1.3128803,-0.2633 0.4132607,-0.1755 0.7737332,-0.4179 1.0820387,-0.7272 0.3083055,-0.3089 0.549454,-0.6706 0.7246921,-1.0852 0.1749253,-0.4145 0.2627007,-0.8537 0.2627007,-1.3172 0,-0.4636 -0.087775,-0.9027 -0.2627007,-1.3173 -0.1752381,-0.4138 -0.4163866,-0.7759 -0.7246921,-1.0851 -0.3083055,-0.309 -0.668778,-0.5514 -1.0820387,-0.7272 -0.413263,-0.1756 -0.850889,-0.2633 -1.3128803,-0.2633 -0.4623041,0 -0.9002407,0.0877 -1.3131908,0.2633 -0.4132628,0.1758 -0.7740458,0.4182 -1.0820408,0.7272 -0.308306,0.3092 -0.553201,0.6675 -0.735312,1.0748 -0.182109,0.4077 -0.273008,0.8431 -0.273008,1.3064 v 0.0212 c 0,0.4635 0.0909,0.9027 0.273008,1.3172 0.182111,0.4146 0.427006,0.7763 0.735312,1.0852 0.307995,0.3093 0.668778,0.5517 1.0820408,0.7272 0.4129501,0.1755 0.8508867,0.2633 1.3131908,0.2633 m -0.01062,-8.9565 c 0.772482,0 1.4962378,0.1443 2.1706397,0.432 0.6743996,0.2883 1.2644602,0.685 1.770184,1.1908 0.5057215,0.5057 0.9027409,1.0958 1.1907431,1.7702 0.2880022,0.6744 0.4320022,1.3981 0.4320022,2.1706 0,0.7728 -0.144,1.4962 -0.4320022,2.1706 -0.2880022,0.6744 -0.6850216,1.2645 -1.1907431,1.7702 -0.5057238,0.5057 -1.0957844,0.9028 -1.770184,1.1904 -0.6744019,0.2884 -1.3981577,0.4324 -2.1706397,0.4324 -0.7727971,0 -1.4962401,-0.144 -2.1706396,-0.4324 -0.674089,-0.2876 -1.264462,-0.6847 -1.770184,-1.1904 -0.505724,-0.5057 -0.902741,-1.0958 -1.190745,-1.7702 -0.288002,-0.6744 -0.432002,-1.3978 -0.432002,-2.1706 V 27.7574 c 0,-0.1115 0.09059,-0.2021 0.202101,-0.2021 h 1.766124 c 0.111828,0 0.202414,0.0909 0.202102,0.2027 l -0.01968,8.0026 c -6.24e-4,0.1602 0.178048,0.2586 0.311742,0.1699 0.392021,-0.2602 0.814654,-0.4704 1.267586,-0.6307 0.5760037,-0.2033 1.187306,-0.3055 1.8335956,-0.3055"
         style="fill:#ffffff;stroke-width:0.07996599"
         inkscape:connector-curvature="0" />
      <path
         id="path1263-6"
         d="m 3.6748079,43.9299 c 0.4619913,0 0.8996173,-0.0878 1.3128803,-0.2636 0.4132607,-0.1756 0.7737332,-0.418 1.0820387,-0.7272 0.3083055,-0.3087 0.549454,-0.6707 0.7246921,-1.0852 0.1749252,-0.4142 0.2627007,-0.8534 0.2627007,-1.3172 0,-0.4636 -0.087776,-0.9025 -0.2627007,-1.317 C 6.6191809,38.8055 6.3780324,38.4438 6.0697269,38.1345 5.7614214,37.8253 5.4009489,37.5832 4.9876882,37.4074 4.5744252,37.2315 4.1367992,37.144 3.6748079,37.144 c -0.4623019,0 -0.9002407,0.0875 -1.3131908,0.2634 -0.4132607,0.1758 -0.774046,0.4179 -1.0820387,0.7271 -0.30830782,0.3093 -0.55320321,0.671 -0.73531182,1.0852 -0.18211088,0.4145 -0.27300992,0.8534 -0.27300992,1.317 0,0.4638 0.090899,0.903 0.27300992,1.3172 0.18210861,0.4145 0.427004,0.7765 0.73531182,1.0852 0.3079927,0.3092 0.668778,0.5516 1.0820387,0.7272 0.4129501,0.1758 0.8508889,0.2636 1.3131908,0.2636 m -0.01062,-8.9565 c 0.7724842,0 1.4962378,0.1443 2.1706397,0.4317 0.6743996,0.2883 1.2644602,0.685 1.770184,1.1907 0.5060343,0.5061 0.9027409,1.0958 1.1907431,1.7705 0.2880022,0.6741 0.4320044,1.3982 0.4320044,2.1704 0,0.7727 -0.1440022,1.4965 -0.4320044,2.1709 -0.2880022,0.6741 -0.6847088,1.2642 -1.1907431,1.7702 -0.5057238,0.5057 -1.0957844,0.9027 -1.770184,1.1904 -0.6744019,0.2883 -1.3981555,0.432 -2.1706397,0.432 -0.7727971,0 -1.4962379,-0.1437 -2.1703269,-0.432 -0.67440193,-0.2877 -1.2647753,-0.6847 -1.7704968,-1.1904 -0.50572377,-0.506 -0.9027409,-1.0961 -1.1907431,-1.7702 -0.2880022,-0.6744 -0.4320045,-1.3982 -0.4320045,-2.1709 0,-0.7722 0.1440023,-1.4963 0.4320045,-2.1704 0.2880022,-0.6747 0.68501933,-1.2644 1.1907431,-1.7705 0.5057215,-0.5057 1.09609487,-0.9024 1.7704968,-1.1907 0.674089,-0.2874 1.3975298,-0.4317 2.1703269,-0.4317"
         style="fill:#ffffff;stroke-width:0.07996599"
         inkscape:connector-curvature="0" />
      <path
         id="path1265-3"
         d="m 17.674479,35.7109 c 0.667837,0.4498 1.196364,1.0292 1.5862,1.7383 0.389521,0.71 0.584439,1.4859 0.584439,2.329 v 6.1409 c 0,0.1118 -0.09027,0.2024 -0.202099,0.2024 H 17.87658 c -0.111515,0 -0.202101,-0.0906 -0.202101,-0.2024 v -6.1409 c 0,-0.3654 -0.07091,-0.7128 -0.211785,-1.0433 -0.140879,-0.3298 -0.334859,-0.6178 -0.581939,-0.8637 -0.246772,-0.2458 -0.532274,-0.4392 -0.856826,-0.5797 -0.324236,-0.1403 -0.669401,-0.2106 -1.036431,-0.2106 -0.36672,0 -0.71626,0.0703 -1.047369,0.2106 -0.331422,0.1405 -0.617237,0.3339 -0.856821,0.5797 -0.239587,0.2459 -0.430443,0.5339 -0.571321,0.8637 -0.140877,0.3305 -0.211473,0.6779 -0.211473,1.0433 v 6.1409 c 0,0.1118 -0.09027,0.2024 -0.202101,0.2024 h -1.766435 c -0.111517,0 -0.202103,-0.0906 -0.202103,-0.2024 v -10.807 c 0,-0.1118 0.09059,-0.2021 0.202103,-0.2021 h 1.770495 c 0.110266,0 0.199916,0.0881 0.202414,0.198 l 0.005,0.2512 c 0.0031,0.1521 0.167117,0.2467 0.299561,0.1724 0.298934,-0.1687 0.619736,-0.3055 0.962404,-0.4108 0.457303,-0.1402 0.931789,-0.2108 1.423767,-0.2108 0.491978,0 0.96709,0.0706 1.424083,0.2108 0.456993,0.1406 0.874941,0.3371 1.254779,0.5901"
         style="fill:#ffffff;stroke-width:0.07996599"
         inkscape:connector-curvature="0" />
      <path
         id="path1267-8"
         d="m 27.214799,40.9505 c 0.0041,0.005 0.0081,0.0107 0.01155,0.0157 0.193982,0.2792 0.346725,0.5819 0.458247,0.9089 0.112136,0.3302 0.161179,0.6779 0.147431,1.043 -0.01406,0.4636 -0.119324,0.8925 -0.316112,1.2854 -0.196797,0.3936 -0.456687,0.7378 -0.77967,1.0327 -0.323302,0.2952 -0.702827,0.5235 -1.138267,0.685 -0.435439,0.1618 -0.892115,0.2352 -1.369729,0.2212 -0.674089,-0.0284 -1.28195,-0.2034 -1.822663,-0.5267 -0.484172,-0.2889 -0.864009,-0.6622 -1.139828,-1.1204 -0.05498,-0.0909 -0.02936,-0.2096 0.05779,-0.2705 l 1.458755,-1.0177 c 0.09902,-0.0691 0.232397,-0.0309 0.288621,0.0756 0.08434,0.1608 0.210543,0.3027 0.377657,0.4257 0.238961,0.1759 0.519467,0.2634 0.842769,0.2634 0.365469,0.014 0.68502,-0.0875 0.958968,-0.3052 0.273939,-0.2181 0.411073,-0.4883 0.411073,-0.8116 0,-0.098 -0.0072,-0.1686 -0.02093,-0.2108 V 42.602 c -0.01437,-0.0281 -0.02125,-0.0528 -0.02125,-0.0737 0,-0.0209 -0.0072,-0.0456 -0.02124,-0.0737 -0.0984,-0.239 -0.280817,-0.4355 -0.547575,-0.5901 -0.04217,-0.0281 -0.105586,-0.0562 -0.189607,-0.0843 l 0.02093,-0.0213 c -0.1971,-0.1121 -0.414502,-0.2211 -0.653466,-0.3264 -0.238963,-0.1056 -0.481356,-0.2177 -0.726874,-0.3373 -0.246152,-0.119 -0.488545,-0.2459 -0.727195,-0.3792 -0.238963,-0.1334 -0.463555,-0.2915 -0.674402,-0.4742 v -0.0213 l -0.06309,-0.0631 c -0.295194,-0.2808 -0.526967,-0.6075 -0.695335,-0.9799 -0.168674,-0.372 -0.246144,-0.7693 -0.232086,-1.1907 0.01406,-0.4214 0.112449,-0.8147 0.295186,-1.1801 0.182428,-0.3652 0.424821,-0.6813 0.727194,-0.9484 0.302056,-0.2667 0.656594,-0.4773 1.063916,-0.6322 0.407644,-0.1543 0.843082,-0.2246 1.306638,-0.2108 0.604119,0.0284 1.148575,0.1758 1.633367,0.4426 0.421693,0.2324 0.765922,0.5335 1.033616,0.904 0.06623,0.0915 0.04342,0.2202 -0.04966,0.2845 l -1.440957,0.9949 c -0.08621,0.0594 -0.201473,0.0419 -0.269884,-0.0375 -0.07903,-0.0921 -0.18117,-0.1752 -0.305805,-0.2492 -0.189609,-0.1122 -0.404205,-0.1687 -0.642855,-0.1687 -0.323294,-0.0138 -0.600368,0.0634 -0.832143,0.2318 -0.232093,0.1686 -0.347668,0.3726 -0.347668,0.6113 0,0.0706 0.0069,0.1193 0.02094,0.1477 0.0278,0.1546 0.09808,0.288 0.210846,0.4002 0.109954,0.1105 0.247702,0.2008 0.41232,0.2702 0.0059,0.0028 0.01156,0.0053 0.01718,0.0087 0.264889,0.1531 0.567568,0.3096 0.908671,0.4692 0.342359,0.1608 0.688148,0.3389 1.037685,0.5344 0.0038,0.0022 0.0075,0.0038 0.01124,0.0057 0.248024,0.1112 0.496358,0.2692 0.744372,0.4751 0.0056,0.0047 0.01093,0.0093 0.01625,0.0147 l 0.09745,0.0977 c 0.138692,0.1247 0.291437,0.2908 0.457621,0.4979"
         style="fill:#ffffff;stroke-width:0.07996599"
         inkscape:connector-curvature="0" />
      <path
         id="path1269-3"
         d="m 34.385804,44.0561 c 0.477614,0 0.923672,-0.0918 1.338184,-0.2755 0.414199,-0.1837 0.776229,-0.4311 1.085473,-0.7422 0.308933,-0.3108 0.554765,-0.675 0.737504,-1.092 0.182416,-0.4167 0.273946,-0.8587 0.273946,-1.3251 0,-0.4807 -0.09153,-0.9293 -0.273946,-1.3463 -0.182739,-0.417 -0.428571,-0.7812 -0.737504,-1.092 -0.309244,-0.3112 -0.671274,-0.5585 -1.085473,-0.7425 -0.414512,-0.1837 -0.86057,-0.2755 -1.338184,-0.2755 -0.477915,0 -0.923974,0.0918 -1.338175,0.2755 -0.414512,0.184 -0.776238,0.4313 -1.085162,0.7425 -0.309244,0.3108 -0.555083,0.675 -0.737815,1.092 -0.182426,0.417 -0.273946,0.8656 -0.273946,1.3463 0,0.4664 0.09152,0.9084 0.273946,1.3251 0.182732,0.417 0.428571,0.7812 0.737815,1.092 0.308924,0.3111 0.67065,0.5585 1.085162,0.7422 0.414201,0.1837 0.86026,0.2755 1.338175,0.2755 m -0.01062,-9.0618 c 0.771553,0 1.496868,0.1475 2.177202,0.4426 0.680336,0.2949 1.276019,0.6954 1.787992,1.2011 0.511656,0.506 0.914922,1.103 1.209487,1.7914 0.294249,0.6885 0.441683,1.4191 0.441683,2.1919 v 5.2559 c 0,0.1115 -0.09059,0.2021 -0.202099,0.2021 H 38.02301 c -0.111513,0 -0.202099,-0.0906 -0.202099,-0.2021 V 45.448 c 0,-0.1599 -0.177741,-0.2577 -0.311436,-0.1696 -0.39264,0.2593 -0.815589,0.471 -1.269148,0.6353 -0.576002,0.2087 -1.19417,0.313 -1.854523,0.313 -0.77279,0 -1.499674,-0.1474 -2.180944,-0.4426 -0.681894,-0.2949 -1.27508,-0.6953 -1.780802,-1.201 -0.505721,-0.5058 -0.906184,-1.0993 -1.201057,-1.7808 -0.295498,-0.6813 -0.442619,-1.4085 -0.442619,-2.181 0,-0.7728 0.146808,-1.5034 0.44137,-2.1919 0.294565,-0.6884 0.694082,-1.2854 1.198868,-1.7914 0.504785,-0.5057 1.097348,-0.9062 1.777371,-1.2011 0.680334,-0.2951 1.406273,-0.4426 2.177193,-0.4426"
         style="fill:#ffffff;stroke-width:0.07996599"
         inkscape:connector-curvature="0" />
      <path
         id="path1271-7"
         d="m 43.742457,35.1755 v 10.7226 c 0,0.1118 -0.09059,0.2021 -0.202106,0.2021 h -1.766433 c -0.111522,0 -0.202106,-0.0903 -0.202106,-0.2021 V 35.1755 c 0,-0.1115 0.09058,-0.2021 0.202106,-0.2021 h 1.766433 c 0.111512,0 0.202106,0.0906 0.202106,0.2021 M 41.571812,33.633 v -1.7661 c 0,-0.1118 0.09058,-0.2021 0.202106,-0.2021 h 1.766433 c 0.111512,0 0.202106,0.0903 0.202106,0.2021 v 1.7661 c 0,0.1115 -0.09059,0.2021 -0.202106,0.2021 h -1.766433 c -0.111522,0 -0.202106,-0.0906 -0.202106,-0.2021"
         style="fill:#ffffff;stroke-width:0.07996599"
         inkscape:connector-curvature="0" />
    </g>
  </g>
</svg>
