<?xml version="1.0" encoding="UTF-8" standalone="no"?>
<!-- Created with Inkscape (http://www.inkscape.org/) -->

<svg
   width="64.689552mm"
   height="64.529633mm"
   viewBox="0 0 64.689552 64.529633"
   version="1.1"
   id="svg1"
   xml:space="preserve"
   inkscape:version="1.4.2 (f4327f4, 2025-05-13)"
   sodipodi:docname="clutch.svg"
   xmlns:inkscape="http://www.inkscape.org/namespaces/inkscape"
   xmlns:sodipodi="http://sodipodi.sourceforge.net/DTD/sodipodi-0.dtd"
   xmlns="http://www.w3.org/2000/svg"
   xmlns:svg="http://www.w3.org/2000/svg"><sodipodi:namedview
     id="namedview1"
     pagecolor="#ffffff"
     bordercolor="#000000"
     borderopacity="0.25"
     inkscape:showpageshadow="2"
     inkscape:pageopacity="0.0"
     inkscape:pagecheckerboard="0"
     inkscape:deskcolor="#d1d1d1"
     inkscape:document-units="mm"
     inkscape:zoom="0.73851712"
     inkscape:cx="167.227"
     inkscape:cy="-33.174587"
     inkscape:window-width="1920"
     inkscape:window-height="1009"
     inkscape:window-x="-8"
     inkscape:window-y="-8"
     inkscape:window-maximized="1"
     inkscape:current-layer="layer1" /><defs
     id="defs1" /><g
     inkscape:label="Camada 1"
     inkscape:groupmode="layer"
     id="layer1"
     transform="translate(-60.84224,-157.21391)"><path
       style="fill:#000000"
       d="m 90.804814,221.5769 c -33.381761,-3.74796 -41.321325,-46.89559 -11.270656,-61.25048 23.240722,-11.10185 49.921312,9.15191 45.516432,34.55242 -2.79609,16.12355 -18.61166,28.45339 -34.245776,26.69806 z m 1.494136,-6.72201 c 1.4231,-6.48843 1.431048,-6.01903 -0.105074,-6.20582 -4.164837,-0.50644 -7.477813,-1.65347 -10.042607,-3.47697 l -1.196767,-0.85087 -2.020157,1.28616 c -1.111086,0.70738 -3.367947,2.16394 -5.015246,3.2368 l -2.99509,1.95064 1.62266,1.5023 c 4.008961,3.71159 9.487689,6.40075 15.215436,7.4683 3.563102,0.6641 3.23667,1.01742 4.536845,-4.91054 z M 82.146753,214.1214 c -2.282552,-1.77375 -0.288777,-5.45887 2.462221,-4.55096 2.751983,0.90823 2.106278,5.02961 -0.785553,5.01398 -0.619806,-0.003 -1.341669,-0.2027 -1.676668,-0.46302 z m 2.519727,-1.17151 c 0.174625,-0.17463 0.3175,-0.56753 0.3175,-0.87313 0,-0.30559 -0.142875,-0.6985 -0.3175,-0.87312 -0.174625,-0.17463 -0.567531,-0.3175 -0.873125,-0.3175 -1.056144,0 -1.61528,1.32159 -0.873125,2.06375 0.174625,0.17462 0.567531,0.3175 0.873125,0.3175 0.305594,0 0.6985,-0.14288 0.873125,-0.3175 z m 16.32479,6.27862 c 5.70608,-1.47811 13.01237,-5.87318 12.11327,-7.28668 -3.62364,-5.69681 -5.80477,-8.96934 -5.98516,-8.98004 -0.12204,-0.007 -0.83642,0.52899 -1.5875,1.19161 -1.84572,1.62834 -5.618279,3.46188 -8.244775,4.00715 -1.164166,0.24168 -2.141809,0.45309 -2.172539,0.4698 -0.06287,0.0342 -2.457669,11.17168 -2.457669,11.42987 0,0.39577 5.849182,-0.18794 8.334373,-0.83171 z m -0.2285,-5.33574 c -1.352086,-1.35209 -0.802334,-3.72738 1.00038,-4.32233 2.05036,-0.67668 3.99862,1.27159 3.32195,3.32194 -0.59495,1.80272 -2.97025,2.35247 -4.32233,1.00039 z m 2.68913,-0.94288 c 0.17462,-0.17463 0.3175,-0.56753 0.3175,-0.87313 0,-0.30559 -0.14288,-0.6985 -0.3175,-0.87312 -0.17463,-0.17463 -0.56753,-0.3175 -0.87313,-0.3175 -0.30559,0 -0.6985,0.14287 -0.87312,0.3175 -0.17463,0.17462 -0.3175,0.56753 -0.3175,0.87312 0,0.3056 0.14287,0.6985 0.3175,0.87313 0.17462,0.17462 0.56753,0.3175 0.87312,0.3175 0.3056,0 0.6985,-0.14288 0.87313,-0.3175 z m 12.8202,-3.09774 c 3.80712,-4.11214 6.60141,-9.99149 7.45852,-15.69318 0.44903,-2.98697 1.03904,-2.55429 -5.27685,-3.8697 -6.37123,-1.32693 -5.95312,-1.31315 -5.95312,-0.1962 0,2.84564 -1.44388,7.25264 -3.28498,10.02637 -0.5472,0.82439 -0.95467,1.60178 -0.90549,1.72751 0.21797,0.55725 6.19254,9.56623 6.34478,9.56724 0.0935,6.1e-4 0.82118,-0.7023 1.61714,-1.56204 z m -2.2043,-9.26441 c -1.88016,-1.88016 0.0102,-5.08659 2.51197,-4.26092 1.32561,0.43749 1.874,1.18998 1.874,2.57146 0,2.33098 -2.70319,3.37224 -4.38597,1.68946 z m 2.8308,-1.22325 c 0.30418,-0.46062 0.2966,-0.62846 -0.0508,-1.12448 -0.50697,-0.72381 -1.58629,-0.76312 -1.95656,-0.0713 -0.78699,1.47049 1.08829,2.58754 2.00739,1.19575 z m -41.966027,7.13249 c 2.617857,-1.68643 4.75974,-3.12745 4.75974,-3.20227 0,-0.0748 -0.532012,-0.72776 -1.182249,-1.45098 -2.080218,-2.3137 -3.888752,-6.10029 -4.263748,-8.92714 -0.099,-0.7463 -0.284688,-1.42162 -0.412638,-1.50069 -0.223948,-0.13841 -10.993243,-2.49018 -11.403094,-2.49018 -1.329411,0 1.053665,10.38788 3.393939,14.79425 3.485073,6.56186 3.313846,6.50965 9.10805,2.77701 z m -6.27186,-5.77439 c -0.923568,-0.79443 -1.053713,-2.66602 -0.247344,-3.55705 1.749976,-1.9337 4.664361,-0.77957 4.664361,1.84715 0,2.01497 -2.801527,3.09948 -4.417017,1.7099 z m 2.678327,-1.10015 c 0.506316,-0.50631 0.525184,-0.92095 0.07022,-1.54315 -0.439704,-0.60134 -1.460122,-0.4688 -1.93573,0.25141 -0.74439,1.12723 0.894914,2.26234 1.86551,1.29174 z m 26.142154,7.04839 c 16.011356,-4.09501 18.411686,-25.66657 3.680346,-33.07497 -11.767481,-5.91787 -25.812569,2.7218 -25.781228,15.85902 0.02751,11.5303 10.978281,20.06063 22.100882,17.21595 z m -9.834675,-1.01021 c -0.861641,-0.6986 -0.720021,-4.56192 0.181732,-4.95754 0.802809,-0.35221 0.758734,-0.45137 -0.460147,-1.03528 -1.305366,-0.62534 -3.223357,-2.44072 -4.191392,-3.96715 -0.733621,-1.1568 -0.733621,-1.1568 -1.295239,-0.52628 -0.694774,0.78001 -3.514943,0.91668 -4.511538,0.21864 -0.91963,-0.64414 -0.91963,-11.23211 0,-11.87625 0.996595,-0.69804 3.816764,-0.56137 4.511538,0.21864 0.561618,0.63052 0.561618,0.63052 1.295239,-0.52628 0.968035,-1.52643 2.886026,-3.34181 4.191392,-3.96715 1.218881,-0.58391 1.262956,-0.68307 0.460147,-1.03528 -0.901753,-0.39562 -1.043373,-4.25894 -0.181732,-4.95754 0.808844,-0.65579 10.376437,-0.69908 11.301507,-0.0511 1.145774,0.80254 0.808129,4.61968 -0.449794,5.08501 -0.597579,0.22106 -0.564419,0.26949 0.729912,1.06589 1.645456,1.01246 3.284866,2.66234 4.204156,4.23099 0.60362,1.03001 0.71304,1.10871 0.93989,0.67608 0.67672,-1.29057 3.88233,-1.69305 4.95346,-0.62193 0.81363,0.81363 0.81363,10.82804 0,11.64167 -1.07113,1.07112 -4.27674,0.66865 -4.95346,-0.62192 -0.22646,-0.43189 -0.33924,-0.34885 -0.9563,0.70409 -0.87746,1.49726 -2.78105,3.4167 -4.153449,4.18804 -0.987602,0.55506 -1.354529,1.02146 -0.803609,1.02146 1.205447,0 1.619368,4.35277 0.489194,5.14437 -0.92507,0.64794 -10.492663,0.60465 -11.301507,-0.0511 z m 1.570795,-2.4474 c 0,-0.99954 -0.09701,-1.32292 -0.396875,-1.32292 -0.299861,0 -0.396875,0.32338 -0.396875,1.32292 0,0.99954 0.09701,1.32292 0.396875,1.32292 0.299861,0 0.396875,-0.32338 0.396875,-1.32292 z m 2.116666,0 c 0,-0.99954 -0.09701,-1.32292 -0.396875,-1.32292 -0.299861,0 -0.396875,0.32338 -0.396875,1.32292 0,0.99954 0.09701,1.32292 0.396875,1.32292 0.299861,0 0.396875,-0.32338 0.396875,-1.32292 z m 2.38125,0 c 0,-0.99954 -0.09701,-1.32292 -0.396875,-1.32292 -0.299861,0 -0.396875,0.32338 -0.396875,1.32292 0,0.99954 0.09701,1.32292 0.396875,1.32292 0.299861,0 0.396875,-0.32338 0.396875,-1.32292 z m 2.38125,-0.0194 c 0,-1.13551 -0.07134,-1.32877 -0.46302,-1.25439 -0.749672,0.14236 -0.825893,2.59671 -0.08064,2.59671 0.477055,0 0.543663,-0.16446 0.543663,-1.34232 z m 2.116667,0.0194 c 0,-0.99954 -0.09701,-1.32292 -0.396875,-1.32292 -0.299861,0 -0.396875,0.32338 -0.396875,1.32292 0,0.99954 0.09701,1.32292 0.396875,1.32292 0.299861,0 0.396875,-0.32338 0.396875,-1.32292 z m -1.813807,-3.96439 c 4.23807,-1.32269 7.10547,-5.27504 7.10547,-9.79395 0,-10.08672 -13.057074,-14.12179 -18.85269,-5.82611 -5.604172,8.02166 2.322442,18.56153 11.74722,15.62006 z m -4.330504,-1.47437 c -0.104472,-0.10447 -0.616826,-0.22382 -1.138564,-0.26522 -0.521737,-0.0414 -1.255402,-0.29298 -1.630365,-0.55908 -0.374964,-0.2661 -0.891431,-0.60753 -1.147704,-0.75873 -0.82647,-0.48762 -1.365768,-1.01361 -1.605939,-1.5663 -0.129071,-0.29702 -0.473386,-0.83769 -0.765145,-1.2015 -0.619122,-0.77199 -1.173597,-3.44556 -0.956944,-4.61418 0.08257,-0.44537 0.200291,-1.20001 0.261603,-1.67696 0.06131,-0.47695 0.331381,-1.17731 0.600152,-1.55635 0.268772,-0.37904 0.612386,-0.89884 0.763588,-1.15512 0.48762,-0.82647 1.013605,-1.36576 1.566297,-1.60594 0.297022,-0.12907 0.850025,-0.48408 1.228896,-0.78891 1.396688,-1.12376 6.279299,-1.16528 7.82751,-0.0666 0.374963,0.2661 0.89143,0.60753 1.147704,0.75873 0.826469,0.48762 1.365767,1.0136 1.605939,1.56629 0.12907,0.29703 0.473386,0.8377 0.765146,1.2015 0.61912,0.772 1.1736,3.44556 0.95694,4.61418 -0.0826,0.44538 -0.20029,1.20001 -0.2616,1.67697 -0.0613,0.47695 -0.33138,1.17731 -0.60015,1.55635 -0.26877,0.37904 -0.61239,0.89884 -0.763591,1.15511 -0.487619,0.82647 -1.013605,1.36577 -1.566297,1.60594 -0.297022,0.12907 -0.850025,0.48409 -1.228896,0.78892 -0.37887,0.30483 -1.152776,0.61611 -1.719791,0.69173 -2.553965,0.3406 -3.161111,0.37681 -3.338789,0.19913 z m 1.904387,-1.76256 c 0.40011,-0.49411 0.540535,-0.53243 0.889597,-0.24273 0.637988,0.52948 1.365952,0.26388 1.365952,-0.49838 0,-0.55286 0.125333,-0.65669 0.79375,-0.65754 0.987414,-0.001 1.535503,-0.33416 1.349258,-0.8195 -0.222972,-0.58106 0.113397,-1.16387 0.671728,-1.16387 0.716166,0 0.908382,-0.71725 0.355837,-1.3278 -0.506496,-0.55968 -0.180841,-1.31803 0.565991,-1.31803 0.563704,0 0.430724,-0.78757 -0.222253,-1.31633 -0.494114,-0.4001 -0.532431,-0.54053 -0.242736,-0.88959 0.529483,-0.63799 0.26388,-1.36595 -0.498378,-1.36595 -0.560619,0 -0.65653,-0.12227 -0.65653,-0.83695 0,-1.0203 -0.232715,-1.27972 -1.147991,-1.27972 -0.534301,0 -0.724993,-0.14746 -0.790761,-0.61149 -0.11551,-0.81499 -0.739599,-1.01603 -1.373431,-0.44242 -0.559672,0.5065 -1.318026,0.18084 -1.318026,-0.56599 0,-0.5637 -0.787575,-0.43072 -1.316326,0.22226 -0.400109,0.49411 -0.540535,0.53243 -0.889596,0.24273 -0.637988,-0.52948 -1.365953,-0.26388 -1.365953,0.49838 0,0.55286 -0.125333,0.65669 -0.79375,0.65754 -0.987414,0.001 -1.535503,0.33416 -1.349258,0.8195 0.222972,0.58106 -0.113397,1.16386 -0.671728,1.16386 -0.716166,0 -0.908381,0.71726 -0.355837,1.32781 0.506496,0.55967 0.180842,1.31803 -0.56599,1.31803 -0.563704,0 -0.430727,0.78757 0.222253,1.31632 0.494114,0.40011 0.53243,0.54054 0.242735,0.8896 -0.529483,0.63799 -0.263879,1.36595 0.498378,1.36595 0.560619,0 0.656531,0.12227 0.656531,0.83695 0,1.0203 0.232714,1.27972 1.14799,1.27972 0.534301,0 0.724993,0.14746 0.790761,0.61149 0.115511,0.81499 0.739599,1.01603 1.373432,0.44242 0.559672,-0.5065 1.318025,-0.18085 1.318025,0.56599 0,0.5637 0.787575,0.43072 1.316326,-0.22226 z m -2.465891,-1.91587 c -3.405108,-1.21408 -4.331671,-5.50991 -1.746107,-8.09547 2.614772,-2.61478 7.246191,-1.36432 8.143358,2.19865 0.998055,3.96363 -2.576923,7.25896 -6.397251,5.89682 z m 3.291071,-1.61128 c 3.35654,-1.73574 1.698187,-6.82195 -2.085244,-6.3955 -4.17351,0.47042 -3.787709,6.70762 0.419898,6.78845 0.480169,0.009 1.229575,-0.16761 1.665346,-0.39295 z m -13.847952,1.5342 c 0.07838,-0.2381 -0.304896,-0.33073 -1.368381,-0.33073 -1.379846,0 -1.741533,0.17669 -1.28867,0.62956 0.309645,0.30964 2.539291,0.0589 2.657051,-0.29883 z m 27.516669,0 c 0.0784,-0.2381 -0.3049,-0.33073 -1.36838,-0.33073 -1.37985,0 -1.74154,0.17669 -1.28867,0.62956 0.30964,0.30964 2.53929,0.0589 2.65705,-0.29883 z m -27.45189,-2.31511 c 0,-0.30467 -0.338079,-0.39687 -1.455208,-0.39687 -1.11713,0 -1.455209,0.0922 -1.455209,0.39687 0,0.30467 0.338079,0.39688 1.455209,0.39688 1.117129,0 1.455208,-0.0922 1.455208,-0.39688 z m 27.51667,0 c 0,-0.30467 -0.33808,-0.39687 -1.45521,-0.39687 -1.11713,0 -1.45521,0.0922 -1.45521,0.39687 0,0.30467 0.33808,0.39688 1.45521,0.39688 1.11713,0 1.45521,-0.0922 1.45521,-0.39688 z m -27.648962,-2.24896 c 0,-0.29222 -0.366272,-0.41796 -1.389062,-0.47684 -1.261003,-0.0726 -1.389063,-0.0286 -1.389063,0.47684 0,0.50549 0.12806,0.54945 1.389063,0.47685 1.02279,-0.0589 1.389062,-0.18462 1.389062,-0.47685 z m 27.648962,0 c 0,-0.58295 -2.43787,-0.81513 -2.77813,-0.26458 -0.32177,0.52064 0.18431,0.79375 1.47083,0.79375 1.13091,0 1.3073,-0.0714 1.3073,-0.52917 z m -27.51667,-2.24895 c 0,-0.30468 -0.338079,-0.39688 -1.455208,-0.39688 -1.11713,0 -1.455209,0.0922 -1.455209,0.39688 0,0.30467 0.338079,0.39687 1.455209,0.39687 1.117129,0 1.455208,-0.0922 1.455208,-0.39687 z m 27.51667,0 c 0,-0.30468 -0.33808,-0.39688 -1.45521,-0.39688 -1.11713,0 -1.45521,0.0922 -1.45521,0.39688 0,0.30467 0.33808,0.39687 1.45521,0.39687 1.11713,0 1.45521,-0.0922 1.45521,-0.39687 z m -27.582816,-2.31511 c -0.06792,-0.20376 -0.601192,-0.33073 -1.389062,-0.33073 -0.787871,0 -1.321143,0.12697 -1.389063,0.33073 -0.07955,0.23865 0.307211,0.33073 1.389063,0.33073 1.081852,0 1.46861,-0.0921 1.389062,-0.33073 z m 27.516666,0 c -0.0679,-0.20376 -0.60119,-0.33073 -1.38906,-0.33073 -0.78787,0 -1.32114,0.12697 -1.38906,0.33073 -0.0795,0.23865 0.30721,0.33073 1.38906,0.33073 1.08185,0 1.46861,-0.0921 1.38906,-0.33073 z m -19.248436,-9.19427 c 0,-0.99954 -0.09701,-1.32292 -0.396875,-1.32292 -0.299861,0 -0.396875,0.32338 -0.396875,1.32292 0,0.99954 0.09701,1.32292 0.396875,1.32292 0.299861,0 0.396875,-0.32338 0.396875,-1.32292 z m 2.116666,0 c 0,-0.99954 -0.09701,-1.32292 -0.396875,-1.32292 -0.299861,0 -0.396875,0.32338 -0.396875,1.32292 0,0.99954 0.09701,1.32292 0.396875,1.32292 0.299861,0 0.396875,-0.32338 0.396875,-1.32292 z m 2.38125,0 c 0,-0.99954 -0.09701,-1.32292 -0.396875,-1.32292 -0.299861,0 -0.396875,0.32338 -0.396875,1.32292 0,0.99954 0.09701,1.32292 0.396875,1.32292 0.299861,0 0.396875,-0.32338 0.396875,-1.32292 z m 2.38125,0 c 0,-1.14653 -0.07055,-1.32292 -0.529166,-1.32292 -0.532344,0 -0.818579,2.00365 -0.352778,2.46945 0.544666,0.54466 0.881944,0.1062 0.881944,-1.14653 z m 2.116667,0 c 0,-0.99954 -0.09701,-1.32292 -0.396875,-1.32292 -0.299861,0 -0.396875,0.32338 -0.396875,1.32292 0,0.99954 0.09701,1.32292 0.396875,1.32292 0.299861,0 0.396875,-0.32338 0.396875,-1.32292 z m 25.927613,13.03073 c -0.005,-3.95059 -1.50685,-9.6093 -3.59315,-13.53748 -1.2568,-2.36635 -3.70081,-5.84325 -4.10738,-5.84325 -0.23282,0 -9.11099,5.63897 -9.59811,6.09623 -0.13202,0.12394 0.35785,0.88486 1.12063,1.74069 2.0455,2.295 4.27332,7.2904 4.27332,9.58201 0,0.76253 -0.0216,0.75497 5.76317,2.01915 6.69225,1.4625 6.14341,1.46763 6.14152,-0.0573 z m -9.42212,-6.29525 c -2.368,-1.19876 -1.54833,-4.8834 1.08634,-4.8834 1.25434,0 1.8849,0.35735 2.40489,1.36291 1.16356,2.25009 -1.23098,4.6647 -3.49123,3.52049 z m 2.19081,-1.86883 c 0.3223,-0.4884 0.307,-0.63237 -0.12379,-1.16437 -0.95974,-1.18523 -2.62364,-0.0203 -1.90062,1.33067 0.37854,0.7073 1.50919,0.61442 2.02441,-0.1663 z m -43.03797,8.2535 c 0,-2.64555 1.239085,-6.73651 2.771813,-9.1514 1.713096,-2.69907 1.860785,-2.02 -1.587593,-7.2996 -1.702386,-2.60642 -3.143299,-4.79033 -3.20203,-4.85315 -1.500942,-1.60528 -8.295999,11.11407 -9.209183,17.23824 -0.445185,2.98559 -1.059747,2.51266 4.9651,3.8209 6.425838,1.3953 6.261893,1.38889 6.261893,0.24501 z m -4.365625,-6.22652 c -1.721825,-0.70473 -2.206867,-3.23169 -0.845142,-4.403 1.089405,-0.93706 2.628672,-0.8801 3.64362,0.13485 1.963675,1.96368 -0.235173,5.31729 -2.798478,4.26815 z m 1.989724,-1.87654 c 0.39644,-0.74076 0.08619,-1.54445 -0.669404,-1.73409 -1.156631,-0.2903 -1.953581,0.75969 -1.292734,1.70318 0.508553,0.72606 1.581062,0.74296 1.962138,0.0309 z m 9.344669,-5.95727 c 1.845721,-1.62834 5.618278,-3.46188 8.244774,-4.00715 1.164167,-0.24168 2.14181,-0.45309 2.17254,-0.4698 0.06287,-0.0342 2.457668,-11.17168 2.457668,-11.42987 0,-0.0911 -1.279922,-0.0954 -2.84427,-0.01 -7.1273,0.39083 -19.035386,5.88607 -17.603367,8.12345 4.5008,7.03202 5.799696,8.98297 5.985154,8.98971 0.122041,0.004 0.836416,-0.53408 1.587501,-1.1967 z m 1.818724,-5.54386 c -2.613467,-1.1355 -1.675597,-4.89304 1.221286,-4.89304 2.710537,0 3.465006,3.86996 0.958632,4.91719 -1.079221,0.45093 -1.086676,0.45084 -2.179918,-0.0241 z m 2.007508,-1.50638 c 0.174625,-0.17462 0.3175,-0.56753 0.3175,-0.87312 0,-0.3056 -0.142875,-0.6985 -0.3175,-0.87313 -0.174625,-0.17462 -0.567531,-0.3175 -0.873125,-0.3175 -1.056144,0 -1.61528,1.3216 -0.873125,2.06375 0.174625,0.17463 0.567531,0.3175 0.873125,0.3175 0.305594,0 0.6985,-0.14287 0.873125,-0.3175 z m 26.74496,3.03486 4.03412,-2.62842 -1.62138,-1.50111 c -4.41737,-4.08971 -11.74958,-7.39128 -16.962445,-7.6379 l -1.649687,-0.078 -1.130232,5.15937 c -1.426426,6.51146 -1.434067,6.01971 0.09644,6.20582 4.168598,0.5069 7.477704,1.65339 10.049304,3.48173 1.39344,0.9907 0.45489,1.38283 7.18389,-3.00144 z m -9.93631,-1.51556 c -2.449815,-1.06565 -1.653923,-4.90596 1.01674,-4.90596 2.93876,0 3.83704,3.78713 1.16326,4.90431 -1.10958,0.46361 -1.11801,0.46362 -2.18,0.002 z m 1.97677,-1.5193 c 0.17462,-0.17462 0.3175,-0.56753 0.3175,-0.87312 0,-0.3056 -0.14288,-0.6985 -0.3175,-0.87313 -0.17463,-0.17462 -0.56753,-0.3175 -0.87313,-0.3175 -0.30559,0 -0.6985,0.14288 -0.87312,0.3175 -0.17463,0.17463 -0.3175,0.56753 -0.3175,0.87313 0,0.30559 0.14287,0.6985 0.3175,0.87312 0.17462,0.17463 0.56753,0.3175 0.87312,0.3175 0.3056,0 0.6985,-0.14287 0.87313,-0.3175 z"
       id="path1" /></g></svg>
