<?xml version="1.0" encoding="UTF-8" standalone="no"?>
<!-- Created with Inkscape (http://www.inkscape.org/) -->

<svg
   xmlns:dc="http://purl.org/dc/elements/1.1/"
   xmlns:cc="http://creativecommons.org/ns#"
   xmlns:rdf="http://www.w3.org/1999/02/22-rdf-syntax-ns#"
   xmlns:svg="http://www.w3.org/2000/svg"
   xmlns="http://www.w3.org/2000/svg"
   xmlns:sodipodi="http://sodipodi.sourceforge.net/DTD/sodipodi-0.dtd"
   xmlns:inkscape="http://www.inkscape.org/namespaces/inkscape"
   width="210mm"
   height="297mm"
   viewBox="0 0 210 297"
   version="1.1"
   id="svg8"
   inkscape:version="0.92.3 (2405546, 2018-03-11)"
   sodipodi:docname="beehive_logo_antenna.svg"
   inkscape:export-filename="E:\Program Files (x86)\Лабораторные работы\upwork\FlyPi modules\Logo\beehive_logo_antenna.svg.png"
   inkscape:export-xdpi="1200.8425"
   inkscape:export-ydpi="1200.8425">
  <defs
     id="defs2">
    <inkscape:path-effect
       effect="bspline"
       id="path-effect4948"
       is_visible="true"
       weight="33.333333"
       steps="2"
       helper_size="0"
       apply_no_weight="true"
       apply_with_weight="true"
       only_selected="false" />
    <inkscape:path-effect
       effect="bspline"
       id="path-effect4579"
       is_visible="true"
       weight="33.333333"
       steps="2"
       helper_size="0"
       apply_no_weight="true"
       apply_with_weight="true"
       only_selected="false" />
    <inkscape:path-effect
       effect="bspline"
       id="path-effect4579-6"
       is_visible="true"
       weight="33.333333"
       steps="2"
       helper_size="0"
       apply_no_weight="true"
       apply_with_weight="true"
       only_selected="false" />
    <inkscape:path-effect
       effect="bspline"
       id="path-effect4579-3"
       is_visible="true"
       weight="33.333333"
       steps="2"
       helper_size="0"
       apply_no_weight="true"
       apply_with_weight="true"
       only_selected="false" />
    <inkscape:path-effect
       effect="bspline"
       id="path-effect4948-8"
       is_visible="true"
       weight="33.333333"
       steps="2"
       helper_size="0"
       apply_no_weight="true"
       apply_with_weight="true"
       only_selected="false" />
    <inkscape:path-effect
       effect="bspline"
       id="path-effect4948-7"
       is_visible="true"
       weight="33.333333"
       steps="2"
       helper_size="0"
       apply_no_weight="true"
       apply_with_weight="true"
       only_selected="false" />
    <inkscape:path-effect
       effect="bspline"
       id="path-effect4948-3"
       is_visible="true"
       weight="33.333333"
       steps="2"
       helper_size="0"
       apply_no_weight="true"
       apply_with_weight="true"
       only_selected="false" />
  </defs>
  <sodipodi:namedview
     id="base"
     pagecolor="#ffffff"
     bordercolor="#666666"
     borderopacity="1.0"
     inkscape:pageopacity="1"
     inkscape:pageshadow="2"
     inkscape:zoom="128.00001"
     inkscape:cx="81.936763"
     inkscape:cy="1070.9415"
     inkscape:document-units="mm"
     inkscape:current-layer="g5000"
     showgrid="true"
     inkscape:window-width="1920"
     inkscape:window-height="1003"
     inkscape:window-x="-9"
     inkscape:window-y="-9"
     inkscape:window-maximized="1"
     inkscape:snap-grids="true">
    <inkscape:grid
       type="xygrid"
       id="grid812"
       units="mm"
       spacingx="0.1"
       spacingy="0.1" />
  </sodipodi:namedview>
  <metadata
     id="metadata5">
    <rdf:RDF>
      <cc:Work
         rdf:about="">
        <dc:format>image/svg+xml</dc:format>
        <dc:type
           rdf:resource="http://purl.org/dc/dcmitype/StillImage" />
        <dc:title />
      </cc:Work>
    </rdf:RDF>
  </metadata>
  <g
     inkscape:label="Layer 1"
     inkscape:groupmode="layer"
     id="layer1">
    <g
       id="g5091"
       style="fill:#ffffff">
      <g
         id="g6959"
         transform="translate(0.04999813)">
        <path
           inkscape:connector-curvature="0"
           id="rect5037-4"
           d="M 16.55005,10.637126 C 17.503134,9.664752 20.5,10 20.5,10 c 0,0 -1.677411,2.512136 -2.965572,2.715082 -0.465115,0.07328 -0.861131,-0.297152 -1.043945,-0.647162 -0.208968,-0.400075 -0.325294,-1.038144 0.05956,-1.430794 z"
           style="opacity:1;fill:none;fill-opacity:1;stroke:#000000;stroke-width:0.1;stroke-linecap:round;stroke-linejoin:round;stroke-miterlimit:4;stroke-dasharray:none;stroke-dashoffset:0;stroke-opacity:1;paint-order:normal" />
        <path
           inkscape:connector-curvature="0"
           id="rect5037-4-7"
           d="M 27.34995,10.637126 C 26.396866,9.664752 23.4,10 23.4,10 c 0,0 1.677411,2.512136 2.965572,2.715082 0.465115,0.07328 0.861131,-0.297152 1.043945,-0.647162 0.208968,-0.400075 0.325294,-1.038144 -0.05956,-1.430794 z"
           style="opacity:1;fill:none;fill-opacity:1;stroke:#000000;stroke-width:0.1;stroke-linecap:round;stroke-linejoin:round;stroke-miterlimit:4;stroke-dasharray:none;stroke-dashoffset:0;stroke-opacity:1;paint-order:normal" />
      </g>
      <path
         style="opacity:1;fill:#ffffff;fill-opacity:1;stroke:#000000;stroke-width:0.1;stroke-linecap:round;stroke-linejoin:round;stroke-miterlimit:4;stroke-dasharray:none;stroke-dashoffset:0;stroke-opacity:1;paint-order:normal"
         d="M 16,7.8266794 C 17.690314,7.5023672 20.5,9.9 20.5,9.9 c 0,0 -3.56624,1.377371 -5.030214,0.69635 C 14.941189,10.350454 14.810732,9.705129 14.882692,9.2269146 14.964942,8.6802988 15.317441,7.9576386 16,7.8266794 Z"
         id="rect5037" />
      <path
         style="opacity:1;fill:#ffffff;fill-opacity:1;stroke:#000000;stroke-width:0;stroke-linecap:round;stroke-linejoin:round;stroke-miterlimit:4;stroke-dasharray:none;stroke-dashoffset:0;stroke-opacity:1;paint-order:normal"
         d="M 74.88768,42.317428 C 74.666287,41.60064 74.414307,40.164248 74.414307,39.619004 V 39.51294 h 8.734374 8.734375 l -3.12e-4,0.164063 c -9.97e-4,0.544184 -0.195478,1.693678 -0.428103,2.530345 l -0.08495,0.305592 h -8.210809 -8.210809 z"
         id="path6938"
         inkscape:connector-curvature="0"
         transform="scale(0.26458333)" />
      <path
         style="opacity:1;fill:#ffffff;fill-opacity:1;stroke:#ffffff;stroke-width:0.37795276;stroke-linecap:round;stroke-linejoin:round;stroke-miterlimit:4;stroke-dasharray:none;stroke-dashoffset:0;stroke-opacity:1;paint-order:normal"
         d="M 74.88768,42.317428 C 74.666287,41.60064 74.414307,40.164248 74.414307,39.619004 V 39.51294 h 8.734374 8.734375 l -3.12e-4,0.164063 c -9.97e-4,0.544184 -0.195478,1.693678 -0.428103,2.530345 l -0.08495,0.305592 h -8.210809 -8.210809 z"
         id="path6940"
         inkscape:connector-curvature="0"
         transform="scale(0.26458333)" />
      <path
         sodipodi:nodetypes="acaaa"
         inkscape:connector-curvature="0"
         id="rect5037-7"
         d="M 28,7.8266795 C 26.309686,7.5023673 23.5,9.9 23.5,9.9 c 0,0 3.56624,1.377371 5.030214,0.69635 0.528597,-0.245896 0.659054,-0.891221 0.587094,-1.3694353 C 29.035058,8.6802989 28.682559,7.9576387 28,7.8266795 Z"
         style="opacity:1;fill:#ffffff;fill-opacity:1;stroke:#000000;stroke-width:0.1;stroke-linecap:round;stroke-linejoin:round;stroke-miterlimit:4;stroke-dasharray:none;stroke-dashoffset:0;stroke-opacity:1;paint-order:normal" />
    </g>
    <g
       id="g4565"
       transform="translate(0.03469454,0.4)">
      <path
         inkscape:connector-curvature="0"
         id="path822"
         d="m 21.10496,6.6 v 1"
         style="fill:none;stroke:#000000;stroke-width:0.2;stroke-linecap:butt;stroke-linejoin:miter;stroke-miterlimit:4;stroke-dasharray:none;stroke-opacity:1" />
      <path
         inkscape:connector-curvature="0"
         id="path822-7"
         d="m 22.80496,6.6 v 1"
         style="fill:none;stroke:#000000;stroke-width:0.2;stroke-linecap:butt;stroke-linejoin:miter;stroke-miterlimit:4;stroke-dasharray:none;stroke-opacity:1" />
    </g>
    <g
       id="g4704"
       transform="translate(-1.999997e-6,0.3000002)">
      <path
         sodipodi:nodetypes="ccccc"
         inkscape:original-d="m 20.800002,5.9999998 c -0.0664,-0.1002644 -0.133069,-0.2002644 -0.2,-0.2999999 -0.03305,-0.1335167 -0.0664,-0.266931 -0.1,-0.3999999 2.64e-4,-0.1669317 2.63e-4,-0.3335976 -2e-6,-0.5 0.0336,-0.1002648 0.1,-0.3 0.1,-0.3"
         inkscape:path-effect="#path-effect4579"
         inkscape:connector-curvature="0"
         id="path4577"
         d="m 20.800002,5.9999998 c -0.06671,-0.10006 -0.133374,-0.200061 -0.183367,-0.3167501 -0.04999,-0.116689 -0.08335,-0.2501025 -0.09999,-0.400142 C 20.500001,5.1330683 20.500001,4.9664024 20.51672,4.833042 20.533439,4.6996817 20.566667,4.6 20.6,4.5"
         style="fill:none;stroke:#000000;stroke-width:0.1;stroke-linecap:round;stroke-linejoin:miter;stroke-miterlimit:4;stroke-dasharray:none;stroke-opacity:1" />
      <circle
         cy="4.25"
         cx="20.65"
         id="path4599"
         style="opacity:1;fill:none;fill-opacity:1;stroke:#000000;stroke-width:0.1;stroke-linecap:round;stroke-linejoin:round;stroke-miterlimit:4;stroke-dasharray:none;stroke-dashoffset:0;stroke-opacity:1;paint-order:normal"
         r="0.2" />
    </g>
    <g
       id="g4696"
       transform="translate(0,0.3000027)">
      <path
         sodipodi:nodetypes="ccccc"
         inkscape:original-d="m 23.2,5.9999973 c 0,0 0.399776,-0.59953 0.6,-0.8999973 C 23.867094,4.6987584 23.933535,4.3001115 24,3.9 23.933535,3.4326299 23.866903,2.9662033 23.8,2.5 23.666988,2.2331823 23.4,1.7 23.4,1.7"
         inkscape:path-effect="#path-effect4579-6"
         inkscape:connector-curvature="0"
         id="path4577-1"
         d="M 23.2,5.9999973 C 23.4,5.6999982 23.599715,5.4004266 23.733297,5.0495746 23.86688,4.6987227 23.933321,4.3000758 23.93328,3.866374 23.933239,3.4326722 23.866607,2.9662457 23.766639,2.5997933 23.666671,2.233341 23.533333,1.9666667 23.4,1.7"
         style="fill:none;stroke:#000000;stroke-width:0.1;stroke-linecap:round;stroke-linejoin:miter;stroke-miterlimit:4;stroke-dasharray:none;stroke-opacity:1" />
      <circle
         r="0.2"
         cy="1.5"
         cx="23.35"
         id="path4599-8"
         style="opacity:1;fill:none;fill-opacity:1;stroke:#000000;stroke-width:0.1;stroke-linecap:round;stroke-linejoin:round;stroke-miterlimit:4;stroke-dasharray:none;stroke-dashoffset:0;stroke-opacity:1;paint-order:normal" />
    </g>
    <g
       id="g4665"
       transform="translate(0.2378348,0.1)">
      <path
         inkscape:connector-curvature="0"
         id="path4624"
         d="M 22.403832,1.9 21.3,3"
         style="fill:none;stroke:#000000;stroke-width:0.1;stroke-linecap:round;stroke-linejoin:round;stroke-miterlimit:4;stroke-dasharray:none;stroke-opacity:1"
         sodipodi:nodetypes="cc" />
      <path
         inkscape:connector-curvature="0"
         id="path4624-5"
         d="m 22.1,3 -1,1"
         style="fill:none;stroke:#000000;stroke-width:0.1;stroke-linecap:round;stroke-linejoin:round;stroke-miterlimit:4;stroke-dasharray:none;stroke-opacity:1" />
      <path
         inkscape:connector-curvature="0"
         id="path4641"
         d="m 21.3,3 h 0.8"
         style="fill:none;stroke:#000000;stroke-width:0.1;stroke-linecap:round;stroke-linejoin:round;stroke-miterlimit:4;stroke-dasharray:none;stroke-opacity:1" />
      <path
         inkscape:connector-curvature="0"
         id="path4643"
         d="M 21.1,3.9999999 21.2,3.4999998"
         style="fill:none;stroke:#000000;stroke-width:0.1;stroke-linecap:round;stroke-linejoin:miter;stroke-miterlimit:4;stroke-dasharray:none;stroke-opacity:1" />
      <path
         inkscape:connector-curvature="0"
         id="path4643-5"
         d="M 21.6,3.9 21.1,4"
         style="fill:none;stroke:#000000;stroke-width:0.1;stroke-linecap:round;stroke-linejoin:miter;stroke-miterlimit:4;stroke-dasharray:none;stroke-opacity:1" />
    </g>
    <ellipse
       style="opacity:1;fill:none;fill-opacity:1;stroke:#000000;stroke-width:0.09962692;stroke-miterlimit:4;stroke-dasharray:none;stroke-dashoffset:0;stroke-opacity:1;paint-order:normal"
       id="path818"
       cx="22"
       cy="7.5"
       rx="1.9501865"
       ry="1.4501865" />
    <g
       id="g5000"
       transform="translate(0.01038644)">
      <path
         transform="scale(0.26458333)"
         id="path4938"
         d="m 89.019531,46.865234 h -5.86914 -5.949219 a 8.9740466,10.60992 0 0 0 5.910156,2.642578 8.9740466,10.60992 0 0 0 5.908203,-2.642578 z"
         style="opacity:1;fill:none;fill-opacity:1;stroke:#000000;stroke-width:0.37795275;stroke-linecap:round;stroke-linejoin:round;stroke-miterlimit:4;stroke-dasharray:none;stroke-dashoffset:0;stroke-opacity:1;paint-order:normal"
         inkscape:connector-curvature="0" />
      <path
         transform="scale(0.26458333)"
         id="path4936"
         d="m 91.478516,42.708984 h -8.328125 -8.394532 a 8.9740466,10.60992 0 0 0 2.445313,4.15625 h 5.949219 5.86914 a 8.9740466,10.60992 0 0 0 2.458985,-4.15625 z"
         style="opacity:1;fill:none;fill-opacity:1;stroke:#000000;stroke-width:0.37795275;stroke-linecap:round;stroke-linejoin:round;stroke-miterlimit:4;stroke-dasharray:none;stroke-dashoffset:0;stroke-opacity:1;paint-order:normal"
         inkscape:connector-curvature="0" />
      <path
         transform="scale(0.26458333)"
         id="path4933"
         d="m 74.154297,39.306641 a 8.9740466,10.60992 0 0 0 0.601562,3.402343 h 8.394532 8.328125 a 8.9740466,10.60992 0 0 0 0.59375,-3.402343 h -8.921875 z"
         style="opacity:1;fill:none;fill-opacity:1;stroke:#000000;stroke-width:0.37795275;stroke-linecap:round;stroke-linejoin:round;stroke-miterlimit:4;stroke-dasharray:none;stroke-dashoffset:0;stroke-opacity:1;paint-order:normal"
         inkscape:connector-curvature="0" />
      <path
         transform="scale(0.26458333)"
         id="path4931"
         d="m 91.490234,35.150391 h -8.339843 -8.423829 a 8.9740467,10.60992 0 0 0 -0.589843,3.748047 8.9740467,10.60992 0 0 0 0.01758,0.408203 h 8.996094 8.921875 a 8.9740467,10.60992 0 0 0 0.01172,-0.408203 8.9740467,10.60992 0 0 0 -0.59375,-3.748047 z"
         style="opacity:1;fill:none;fill-opacity:1;stroke:#000000;stroke-width:0.37795275;stroke-linecap:round;stroke-linejoin:round;stroke-miterlimit:4;stroke-dasharray:none;stroke-dashoffset:0;stroke-opacity:1;paint-order:normal"
         inkscape:connector-curvature="0" />
      <path
         transform="scale(0.26458333)"
         id="path4706"
         d="m 76.876953,31.267578 a 8.9740467,10.60992 0 0 0 -2.150391,3.882813 h 8.423829 8.339843 a 8.9740467,10.60992 0 0 0 -2.15625,-3.88086 7.3707835,5.4810197 0 0 1 -6.222656,2.558594 7.3707835,5.4810197 0 0 1 -6.234375,-2.560547 z"
         style="opacity:1;fill:none;fill-opacity:1;stroke:#000000;stroke-width:0.37795275;stroke-linecap:round;stroke-linejoin:round;stroke-miterlimit:4;stroke-dasharray:none;stroke-dashoffset:0;stroke-opacity:1;paint-order:normal"
         inkscape:connector-curvature="0" />
      <path
         transform="scale(0.26458333)"
         inkscape:connector-curvature="0"
         id="path4942"
         d="m 74.339398,39.00542 c -0.01588,-0.105929 0.02175,-0.966823 0.05659,-1.294648 0.03915,-0.368341 0.111029,-0.841929 0.178179,-1.174007 0.06502,-0.321565 0.239036,-1.018799 0.282636,-1.132476 l 0.02331,-0.06077 h 8.230776 8.230776 l 0.04425,0.149156 c 0.300686,1.013582 0.457312,2.00574 0.481392,3.049398 l 0.01287,0.557951 H 83.11688 74.353583 Z"
         style="opacity:1;fill:#000000;fill-opacity:1;stroke:#000000;stroke-width:0.37795275;stroke-linecap:round;stroke-linejoin:round;stroke-miterlimit:4;stroke-dasharray:none;stroke-dashoffset:0;stroke-opacity:1;paint-order:normal" />
      <path
         transform="scale(0.26458333)"
         inkscape:connector-curvature="0"
         id="path4944"
         d="m 77.144559,46.508976 c -0.667063,-0.755028 -1.13136,-1.447172 -1.581304,-2.357307 -0.173096,-0.350134 -0.527368,-1.182431 -0.527368,-1.238954 0,-0.0066 3.634418,-0.01199 8.076485,-0.01199 5.768703,0 8.076486,0.0068 8.076486,0.02387 0,0.06436 -0.315529,0.810986 -0.508192,1.202522 -0.424673,0.863033 -0.928954,1.618645 -1.549878,2.322331 l -0.183348,0.207786 h -5.83595 -5.835949 z"
         style="opacity:1;fill:#000000;fill-opacity:1;stroke:#000000;stroke-width:0.37795275;stroke-linecap:round;stroke-linejoin:round;stroke-miterlimit:4;stroke-dasharray:none;stroke-dashoffset:0;stroke-opacity:1;paint-order:normal" />
      <g
         id="g4988"
         transform="matrix(1,0,0,0.77777778,0,2.9111111)">
        <path
           style="fill:none;stroke:#000000;stroke-width:0.1;stroke-linecap:round;stroke-linejoin:miter;stroke-miterlimit:4;stroke-dasharray:none;stroke-opacity:1"
           d="m 21.989613,14 -0.2,-0.9"
           id="path5022"
           inkscape:connector-curvature="0" />
        <path
           style="fill:none;stroke:#000000;stroke-width:0.1;stroke-linecap:round;stroke-linejoin:miter;stroke-miterlimit:4;stroke-dasharray:none;stroke-opacity:1"
           d="m 21.989613,14 0.2,-0.9"
           id="path5024"
           inkscape:connector-curvature="0" />
        <path
           style="opacity:1;fill:#000000;fill-opacity:1;stroke:#000000;stroke-width:0.37795275;stroke-linecap:round;stroke-linejoin:round;stroke-miterlimit:4;stroke-dasharray:none;stroke-dashoffset:0;stroke-opacity:1;paint-order:normal"
           d="m 83.144628,51.986671 c -0.0036,-0.0091 -0.118423,-0.521215 -0.255169,-1.138 -0.136746,-0.616785 -0.251009,-1.131395 -0.253918,-1.143577 -0.0052,-0.02166 -0.0021,-0.02195 0.140634,-0.01303 0.08026,0.005 0.313723,0.0067 0.518811,0.0037 l 0.372886,-0.0055 -0.0058,0.02401 c -0.0032,0.01321 -0.117664,0.528656 -0.254439,1.145441 -0.136775,0.616785 -0.250444,1.126399 -0.252596,1.132476 -0.0022,0.0061 -0.0069,0.0036 -0.01045,-0.0055 z"
           id="path5026"
           inkscape:connector-curvature="0"
           transform="matrix(0.26458333,0,0,0.26458333,-0.01038644,0)" />
      </g>
    </g>
  </g>
</svg>
