M48
; DRILL file {KiCad (6.0.2)} date Wed Aug 24 18:01:36 2022
; FORMAT={-:-/ absolute / inch / decimal}
; #@! TF.CreationDate,2022-08-24T18:01:36+01:00
; #@! TF.GenerationSoftware,Kicad,Pcbnew,(6.0.2)
; #@! TF.FileFunction,Plated,1,2,PTH
FMAT,2
INCH
; #@! TA.AperFunction,Plated,PTH,ComponentDrill
T1C0.0374
; #@! TA.AperFunction,Plated,PTH,ComponentDrill
T2C0.0394
; #@! TA.AperFunction,Plated,PTH,ComponentDrill
T3C0.0433
; #@! TA.AperFunction,Plated,PTH,ComponentDrill
T4C0.0630
%
G90
G05
T1
X4.5866Y-3.5974
X4.5866Y-3.6958
X4.5866Y-3.7942
X4.5866Y-3.8926
T2
X4.585Y-4.5366
X4.585Y-4.635
X4.5875Y-4.1608
X4.5875Y-4.2592
X4.89Y-3.625
X4.89Y-3.9793
X4.895Y-4.2057
X4.895Y-4.56
X5.125Y-3.6228
X5.125Y-3.9772
X5.13Y-4.2057
X5.13Y-4.56
X5.9393Y-3.7008
X5.9393Y-3.7992
X5.9493Y-4.4458
X5.9493Y-4.5442
T3
X4.905Y-3.305
X5.005Y-3.305
X5.105Y-3.305
X5.4525Y-3.3025
X5.5525Y-3.3025
X5.6525Y-3.3025
T4
X5.385Y-3.795
X5.385Y-4.395
X5.655Y-3.795
X5.655Y-4.395
T0
M30
