G04 #@! TF.GenerationSoftware,KiCad,Pcbnew,(6.0.7)*
G04 #@! TF.CreationDate,2023-03-09T18:45:31+00:00*
G04 #@! TF.ProjectId,solenoid_driver,736f6c65-6e6f-4696-945f-647269766572,rev?*
G04 #@! TF.SameCoordinates,Original*
G04 #@! TF.FileFunction,Copper,L1,Top*
G04 #@! TF.FilePolarity,Positive*
%FSLAX46Y46*%
G04 Gerber Fmt 4.6, Leading zero omitted, Abs format (unit mm)*
G04 Created by KiCad (PCBNEW (6.0.7)) date 2023-03-09 18:45:31*
%MOMM*%
%LPD*%
G01*
G04 APERTURE LIST*
G04 Aperture macros list*
%AMRoundRect*
0 Rectangle with rounded corners*
0 $1 Rounding radius*
0 $2 $3 $4 $5 $6 $7 $8 $9 X,Y pos of 4 corners*
0 Add a 4 corners polygon primitive as box body*
4,1,4,$2,$3,$4,$5,$6,$7,$8,$9,$2,$3,0*
0 Add four circle primitives for the rounded corners*
1,1,$1+$1,$2,$3*
1,1,$1+$1,$4,$5*
1,1,$1+$1,$6,$7*
1,1,$1+$1,$8,$9*
0 Add four rect primitives between the rounded corners*
20,1,$1+$1,$2,$3,$4,$5,0*
20,1,$1+$1,$4,$5,$6,$7,0*
20,1,$1+$1,$6,$7,$8,$9,0*
20,1,$1+$1,$8,$9,$2,$3,0*%
G04 Aperture macros list end*
G04 #@! TA.AperFunction,ComponentPad*
%ADD10R,1.600000X1.600000*%
G04 #@! TD*
G04 #@! TA.AperFunction,ComponentPad*
%ADD11O,1.600000X1.600000*%
G04 #@! TD*
G04 #@! TA.AperFunction,ComponentPad*
%ADD12C,2.000000*%
G04 #@! TD*
G04 #@! TA.AperFunction,ComponentPad*
%ADD13C,1.600000*%
G04 #@! TD*
G04 #@! TA.AperFunction,ComponentPad*
%ADD14RoundRect,0.250000X0.725000X-0.600000X0.725000X0.600000X-0.725000X0.600000X-0.725000X-0.600000X0*%
G04 #@! TD*
G04 #@! TA.AperFunction,ComponentPad*
%ADD15O,1.950000X1.700000*%
G04 #@! TD*
G04 #@! TA.AperFunction,ComponentPad*
%ADD16O,3.200000X3.200000*%
G04 #@! TD*
G04 #@! TA.AperFunction,ComponentPad*
%ADD17R,3.200000X3.200000*%
G04 #@! TD*
G04 #@! TA.AperFunction,ComponentPad*
%ADD18O,2.000000X1.700000*%
G04 #@! TD*
G04 #@! TA.AperFunction,ComponentPad*
%ADD19RoundRect,0.250000X0.750000X-0.600000X0.750000X0.600000X-0.750000X0.600000X-0.750000X-0.600000X0*%
G04 #@! TD*
G04 #@! TA.AperFunction,ComponentPad*
%ADD20R,1.905000X2.000000*%
G04 #@! TD*
G04 #@! TA.AperFunction,ComponentPad*
%ADD21O,1.905000X2.000000*%
G04 #@! TD*
G04 #@! TA.AperFunction,Conductor*
%ADD22C,1.000000*%
G04 #@! TD*
G04 #@! TA.AperFunction,Conductor*
%ADD23C,0.500000*%
G04 #@! TD*
G04 APERTURE END LIST*
D10*
X123000000Y-96950000D03*
D11*
X123000000Y-99490000D03*
X123000000Y-102030000D03*
X123000000Y-104570000D03*
X130620000Y-104570000D03*
X130620000Y-102030000D03*
X130620000Y-99490000D03*
X130620000Y-96950000D03*
D12*
X123500000Y-83500000D03*
X123500000Y-92500000D03*
X130000000Y-83500000D03*
X130000000Y-92500000D03*
D13*
X127950000Y-108250000D03*
X122950000Y-108250000D03*
D14*
X116975000Y-98873000D03*
D15*
X116975000Y-96373000D03*
X116975000Y-93873000D03*
X116975000Y-91373000D03*
D12*
X145000000Y-120500000D03*
X136000000Y-120500000D03*
D16*
X135380000Y-101000000D03*
D17*
X150620000Y-101000000D03*
X150620000Y-108500000D03*
D16*
X135380000Y-108500000D03*
D18*
X151000000Y-116000000D03*
D19*
X151000000Y-118500000D03*
D20*
X138493500Y-84500000D03*
D21*
X141033500Y-84500000D03*
X143573500Y-84500000D03*
X138460000Y-125055000D03*
X141000000Y-125055000D03*
D20*
X143540000Y-125055000D03*
D12*
X145000000Y-94000000D03*
X136000000Y-94000000D03*
D18*
X116997500Y-105684000D03*
D19*
X116997500Y-108184000D03*
X151000000Y-93250000D03*
D18*
X151000000Y-90750000D03*
D12*
X136000000Y-115500000D03*
X145000000Y-115500000D03*
X145000000Y-89000000D03*
X136000000Y-89000000D03*
D19*
X116934000Y-117729000D03*
D18*
X116934000Y-115229000D03*
D22*
X114500000Y-116000000D02*
X116229000Y-117729000D01*
X116229000Y-117729000D02*
X116934000Y-117729000D01*
X117816000Y-108184000D02*
X116316000Y-108184000D01*
X114500000Y-110000000D02*
X114500000Y-116000000D01*
X127950000Y-108250000D02*
X125700000Y-110500000D01*
X125700000Y-110500000D02*
X120132000Y-110500000D01*
X120132000Y-110500000D02*
X117816000Y-108184000D01*
X116316000Y-108184000D02*
X114500000Y-110000000D01*
D23*
X121990000Y-99490000D02*
X123000000Y-99490000D01*
X118873000Y-96373000D02*
X121990000Y-99490000D01*
X116975000Y-96373000D02*
X118873000Y-96373000D01*
X126500000Y-96000000D02*
X130000000Y-92500000D01*
X126500000Y-101510000D02*
X126500000Y-96000000D01*
X116975000Y-99975000D02*
X121570000Y-104570000D01*
X121570000Y-104570000D02*
X123440000Y-104570000D01*
X116975000Y-98873000D02*
X116975000Y-99975000D01*
X123440000Y-104570000D02*
X126500000Y-101510000D01*
D22*
X145500000Y-108500000D02*
X151000000Y-114000000D01*
X151000000Y-114000000D02*
X151000000Y-116000000D01*
X135380000Y-108500000D02*
X145500000Y-108500000D01*
X149750000Y-90750000D02*
X151000000Y-90750000D01*
X148000000Y-95000000D02*
X148000000Y-92500000D01*
X142000000Y-101000000D02*
X148000000Y-95000000D01*
X135380000Y-101000000D02*
X142000000Y-101000000D01*
X148000000Y-92500000D02*
X149750000Y-90750000D01*
X152000000Y-118500000D02*
X151000000Y-118500000D01*
X153500000Y-117000000D02*
X152000000Y-118500000D01*
X153500000Y-111380000D02*
X153500000Y-117000000D01*
X150500000Y-108380000D02*
X153500000Y-111380000D01*
X151000000Y-93250000D02*
X150500000Y-93750000D01*
X150500000Y-93750000D02*
X150500000Y-108380000D01*
X145000000Y-104500000D02*
X149000000Y-108500000D01*
X149000000Y-108500000D02*
X150620000Y-108500000D01*
X132530000Y-102030000D02*
X135000000Y-104500000D01*
X130620000Y-102030000D02*
X132530000Y-102030000D01*
X135000000Y-104500000D02*
X145000000Y-104500000D01*
D23*
X133000000Y-92500000D02*
X136500000Y-89000000D01*
X133000000Y-97500000D02*
X133000000Y-92500000D01*
X131010000Y-99490000D02*
X133000000Y-97500000D01*
X130620000Y-99490000D02*
X131010000Y-99490000D01*
X142000000Y-122500000D02*
X143540000Y-124040000D01*
X138000000Y-122500000D02*
X142000000Y-122500000D01*
X143540000Y-124040000D02*
X143540000Y-125055000D01*
X136000000Y-120500000D02*
X138000000Y-122500000D01*
X141000000Y-115500000D02*
X145000000Y-115500000D01*
X136000000Y-120500000D02*
X141000000Y-115500000D01*
X130620000Y-110120000D02*
X130620000Y-104570000D01*
X136000000Y-115500000D02*
X130620000Y-110120000D01*
D22*
X141033500Y-82966500D02*
X141033500Y-84500000D01*
X142000000Y-82000000D02*
X141033500Y-82966500D01*
X145500000Y-82000000D02*
X142000000Y-82000000D01*
X151000000Y-90750000D02*
X151000000Y-87500000D01*
X151000000Y-87500000D02*
X145500000Y-82000000D01*
X145500000Y-127500000D02*
X148000000Y-125000000D01*
X142500000Y-127500000D02*
X145500000Y-127500000D01*
X148000000Y-117500000D02*
X149500000Y-116000000D01*
X149500000Y-116000000D02*
X151000000Y-116000000D01*
X141000000Y-126000000D02*
X142500000Y-127500000D01*
X148000000Y-125000000D02*
X148000000Y-117500000D01*
X141000000Y-125000000D02*
X141000000Y-126000000D01*
X129470000Y-102030000D02*
X130620000Y-102030000D01*
X127950000Y-103550000D02*
X129470000Y-102030000D01*
X127950000Y-108250000D02*
X127950000Y-103550000D01*
D23*
X125000000Y-97995000D02*
X125000000Y-94000000D01*
X125000000Y-94000000D02*
X123500000Y-92500000D01*
X123505000Y-99490000D02*
X125000000Y-97995000D01*
X123000000Y-99490000D02*
X123505000Y-99490000D01*
D22*
X146000000Y-90250000D02*
X142250000Y-94000000D01*
X146000000Y-89000000D02*
X146000000Y-90250000D01*
X142250000Y-94000000D02*
X136500000Y-94000000D01*
X144500000Y-87500000D02*
X146000000Y-89000000D01*
X140500000Y-87500000D02*
X144500000Y-87500000D01*
X138493500Y-85493500D02*
X140500000Y-87500000D01*
X138493500Y-84500000D02*
X138493500Y-85493500D01*
M02*
