%TF.GenerationSoftware,KiCad,Pcbnew,(6.0.7)*%
%TF.CreationDate,2023-03-09T18:45:51+00:00*%
%TF.ProjectId,solenoid_driver,736f6c65-6e6f-4696-945f-647269766572,rev?*%
%TF.SameCoordinates,Original*%
%TF.FileFunction,Drillmap*%
%TF.FilePolarity,Positive*%
%FSLAX45Y45*%
G04 Gerber Fmt 4.5, Leading zero omitted, Abs format (unit mm)*
G04 Created by KiCad (PCBNEW (6.0.7)) date 2023-03-09 18:45:51*
%MOMM*%
%LPD*%
G01*
G04 APERTURE LIST*
%ADD10C,0.050000*%
%ADD11C,0.200000*%
%ADD12C,0.320000*%
G04 APERTURE END LIST*
D10*
X15750000Y-8050000D02*
X15750000Y-12900000D01*
X11200000Y-12900000D02*
X11200000Y-8050000D01*
X15750000Y-8050000D02*
X11200000Y-8050000D01*
X15750000Y-12900000D02*
X11200000Y-12900000D01*
D11*
D12*
X11390000Y-8240000D02*
X11710000Y-8560000D01*
X11710000Y-8240000D02*
X11390000Y-8560000D01*
X11390000Y-12390000D02*
X11710000Y-12710000D01*
X11710000Y-12390000D02*
X11390000Y-12710000D01*
X15240000Y-8240000D02*
X15560000Y-8560000D01*
X15560000Y-8240000D02*
X15240000Y-8560000D01*
X15240000Y-12390000D02*
X15560000Y-12710000D01*
X15560000Y-12390000D02*
X15240000Y-12710000D01*
D11*
X11455119Y-13212976D02*
X11455119Y-13012976D01*
X11502738Y-13012976D01*
X11531309Y-13022500D01*
X11550357Y-13041548D01*
X11559881Y-13060595D01*
X11569405Y-13098690D01*
X11569405Y-13127262D01*
X11559881Y-13165357D01*
X11550357Y-13184405D01*
X11531309Y-13203452D01*
X11502738Y-13212976D01*
X11455119Y-13212976D01*
X11655119Y-13212976D02*
X11655119Y-13079643D01*
X11655119Y-13117738D02*
X11664643Y-13098690D01*
X11674167Y-13089167D01*
X11693214Y-13079643D01*
X11712262Y-13079643D01*
X11778928Y-13212976D02*
X11778928Y-13079643D01*
X11778928Y-13012976D02*
X11769405Y-13022500D01*
X11778928Y-13032024D01*
X11788452Y-13022500D01*
X11778928Y-13012976D01*
X11778928Y-13032024D01*
X11902738Y-13212976D02*
X11883690Y-13203452D01*
X11874167Y-13184405D01*
X11874167Y-13012976D01*
X12007500Y-13212976D02*
X11988452Y-13203452D01*
X11978928Y-13184405D01*
X11978928Y-13012976D01*
X12236071Y-13212976D02*
X12236071Y-13012976D01*
X12302738Y-13155833D01*
X12369405Y-13012976D01*
X12369405Y-13212976D01*
X12550357Y-13212976D02*
X12550357Y-13108214D01*
X12540833Y-13089167D01*
X12521786Y-13079643D01*
X12483690Y-13079643D01*
X12464643Y-13089167D01*
X12550357Y-13203452D02*
X12531309Y-13212976D01*
X12483690Y-13212976D01*
X12464643Y-13203452D01*
X12455119Y-13184405D01*
X12455119Y-13165357D01*
X12464643Y-13146309D01*
X12483690Y-13136786D01*
X12531309Y-13136786D01*
X12550357Y-13127262D01*
X12645595Y-13079643D02*
X12645595Y-13279643D01*
X12645595Y-13089167D02*
X12664643Y-13079643D01*
X12702738Y-13079643D01*
X12721786Y-13089167D01*
X12731309Y-13098690D01*
X12740833Y-13117738D01*
X12740833Y-13174881D01*
X12731309Y-13193928D01*
X12721786Y-13203452D01*
X12702738Y-13212976D01*
X12664643Y-13212976D01*
X12645595Y-13203452D01*
X12826548Y-13193928D02*
X12836071Y-13203452D01*
X12826548Y-13212976D01*
X12817024Y-13203452D01*
X12826548Y-13193928D01*
X12826548Y-13212976D01*
X12826548Y-13089167D02*
X12836071Y-13098690D01*
X12826548Y-13108214D01*
X12817024Y-13098690D01*
X12826548Y-13089167D01*
X12826548Y-13108214D01*
X10997500Y-13442500D02*
X11197500Y-13642500D01*
X11197500Y-13442500D02*
X10997500Y-13642500D01*
X11436071Y-13432976D02*
X11559881Y-13432976D01*
X11493214Y-13509167D01*
X11521786Y-13509167D01*
X11540833Y-13518690D01*
X11550357Y-13528214D01*
X11559881Y-13547262D01*
X11559881Y-13594881D01*
X11550357Y-13613928D01*
X11540833Y-13623452D01*
X11521786Y-13632976D01*
X11464643Y-13632976D01*
X11445595Y-13623452D01*
X11436071Y-13613928D01*
X11645595Y-13613928D02*
X11655119Y-13623452D01*
X11645595Y-13632976D01*
X11636071Y-13623452D01*
X11645595Y-13613928D01*
X11645595Y-13632976D01*
X11731309Y-13452024D02*
X11740833Y-13442500D01*
X11759881Y-13432976D01*
X11807500Y-13432976D01*
X11826548Y-13442500D01*
X11836071Y-13452024D01*
X11845595Y-13471071D01*
X11845595Y-13490119D01*
X11836071Y-13518690D01*
X11721786Y-13632976D01*
X11845595Y-13632976D01*
X11969405Y-13432976D02*
X11988452Y-13432976D01*
X12007500Y-13442500D01*
X12017024Y-13452024D01*
X12026548Y-13471071D01*
X12036071Y-13509167D01*
X12036071Y-13556786D01*
X12026548Y-13594881D01*
X12017024Y-13613928D01*
X12007500Y-13623452D01*
X11988452Y-13632976D01*
X11969405Y-13632976D01*
X11950357Y-13623452D01*
X11940833Y-13613928D01*
X11931309Y-13594881D01*
X11921786Y-13556786D01*
X11921786Y-13509167D01*
X11931309Y-13471071D01*
X11940833Y-13452024D01*
X11950357Y-13442500D01*
X11969405Y-13432976D01*
X12159881Y-13432976D02*
X12178928Y-13432976D01*
X12197976Y-13442500D01*
X12207500Y-13452024D01*
X12217024Y-13471071D01*
X12226548Y-13509167D01*
X12226548Y-13556786D01*
X12217024Y-13594881D01*
X12207500Y-13613928D01*
X12197976Y-13623452D01*
X12178928Y-13632976D01*
X12159881Y-13632976D01*
X12140833Y-13623452D01*
X12131309Y-13613928D01*
X12121786Y-13594881D01*
X12112262Y-13556786D01*
X12112262Y-13509167D01*
X12121786Y-13471071D01*
X12131309Y-13452024D01*
X12140833Y-13442500D01*
X12159881Y-13432976D01*
X12312262Y-13632976D02*
X12312262Y-13499643D01*
X12312262Y-13518690D02*
X12321786Y-13509167D01*
X12340833Y-13499643D01*
X12369405Y-13499643D01*
X12388452Y-13509167D01*
X12397976Y-13528214D01*
X12397976Y-13632976D01*
X12397976Y-13528214D02*
X12407500Y-13509167D01*
X12426548Y-13499643D01*
X12455119Y-13499643D01*
X12474167Y-13509167D01*
X12483690Y-13528214D01*
X12483690Y-13632976D01*
X12578928Y-13632976D02*
X12578928Y-13499643D01*
X12578928Y-13518690D02*
X12588452Y-13509167D01*
X12607500Y-13499643D01*
X12636071Y-13499643D01*
X12655119Y-13509167D01*
X12664643Y-13528214D01*
X12664643Y-13632976D01*
X12664643Y-13528214D02*
X12674167Y-13509167D01*
X12693214Y-13499643D01*
X12721786Y-13499643D01*
X12740833Y-13509167D01*
X12750357Y-13528214D01*
X12750357Y-13632976D01*
X13140833Y-13423452D02*
X12969405Y-13680595D01*
X13397976Y-13432976D02*
X13417024Y-13432976D01*
X13436071Y-13442500D01*
X13445595Y-13452024D01*
X13455119Y-13471071D01*
X13464643Y-13509167D01*
X13464643Y-13556786D01*
X13455119Y-13594881D01*
X13445595Y-13613928D01*
X13436071Y-13623452D01*
X13417024Y-13632976D01*
X13397976Y-13632976D01*
X13378928Y-13623452D01*
X13369405Y-13613928D01*
X13359881Y-13594881D01*
X13350357Y-13556786D01*
X13350357Y-13509167D01*
X13359881Y-13471071D01*
X13369405Y-13452024D01*
X13378928Y-13442500D01*
X13397976Y-13432976D01*
X13550357Y-13613928D02*
X13559881Y-13623452D01*
X13550357Y-13632976D01*
X13540833Y-13623452D01*
X13550357Y-13613928D01*
X13550357Y-13632976D01*
X13750357Y-13632976D02*
X13636071Y-13632976D01*
X13693214Y-13632976D02*
X13693214Y-13432976D01*
X13674167Y-13461548D01*
X13655119Y-13480595D01*
X13636071Y-13490119D01*
X13826548Y-13452024D02*
X13836071Y-13442500D01*
X13855119Y-13432976D01*
X13902738Y-13432976D01*
X13921786Y-13442500D01*
X13931309Y-13452024D01*
X13940833Y-13471071D01*
X13940833Y-13490119D01*
X13931309Y-13518690D01*
X13817024Y-13632976D01*
X13940833Y-13632976D01*
X14112262Y-13432976D02*
X14074167Y-13432976D01*
X14055119Y-13442500D01*
X14045595Y-13452024D01*
X14026548Y-13480595D01*
X14017024Y-13518690D01*
X14017024Y-13594881D01*
X14026548Y-13613928D01*
X14036071Y-13623452D01*
X14055119Y-13632976D01*
X14093214Y-13632976D01*
X14112262Y-13623452D01*
X14121786Y-13613928D01*
X14131309Y-13594881D01*
X14131309Y-13547262D01*
X14121786Y-13528214D01*
X14112262Y-13518690D01*
X14093214Y-13509167D01*
X14055119Y-13509167D01*
X14036071Y-13518690D01*
X14026548Y-13528214D01*
X14017024Y-13547262D01*
X14255119Y-13432976D02*
X14274167Y-13432976D01*
X14293214Y-13442500D01*
X14302738Y-13452024D01*
X14312262Y-13471071D01*
X14321786Y-13509167D01*
X14321786Y-13556786D01*
X14312262Y-13594881D01*
X14302738Y-13613928D01*
X14293214Y-13623452D01*
X14274167Y-13632976D01*
X14255119Y-13632976D01*
X14236071Y-13623452D01*
X14226548Y-13613928D01*
X14217024Y-13594881D01*
X14207500Y-13556786D01*
X14207500Y-13509167D01*
X14217024Y-13471071D01*
X14226548Y-13452024D01*
X14236071Y-13442500D01*
X14255119Y-13432976D01*
X14397976Y-13432976D02*
X14397976Y-13471071D01*
X14474167Y-13432976D02*
X14474167Y-13471071D01*
X14769405Y-13709167D02*
X14759881Y-13699643D01*
X14740833Y-13671071D01*
X14731309Y-13652024D01*
X14721786Y-13623452D01*
X14712262Y-13575833D01*
X14712262Y-13537738D01*
X14721786Y-13490119D01*
X14731309Y-13461548D01*
X14740833Y-13442500D01*
X14759881Y-13413928D01*
X14769405Y-13404405D01*
X14931309Y-13499643D02*
X14931309Y-13632976D01*
X14883690Y-13423452D02*
X14836071Y-13566309D01*
X14959881Y-13566309D01*
X15188452Y-13632976D02*
X15188452Y-13432976D01*
X15274167Y-13632976D02*
X15274167Y-13528214D01*
X15264643Y-13509167D01*
X15245595Y-13499643D01*
X15217024Y-13499643D01*
X15197976Y-13509167D01*
X15188452Y-13518690D01*
X15397976Y-13632976D02*
X15378928Y-13623452D01*
X15369405Y-13613928D01*
X15359881Y-13594881D01*
X15359881Y-13537738D01*
X15369405Y-13518690D01*
X15378928Y-13509167D01*
X15397976Y-13499643D01*
X15426548Y-13499643D01*
X15445595Y-13509167D01*
X15455119Y-13518690D01*
X15464643Y-13537738D01*
X15464643Y-13594881D01*
X15455119Y-13613928D01*
X15445595Y-13623452D01*
X15426548Y-13632976D01*
X15397976Y-13632976D01*
X15578928Y-13632976D02*
X15559881Y-13623452D01*
X15550357Y-13604405D01*
X15550357Y-13432976D01*
X15731309Y-13623452D02*
X15712262Y-13632976D01*
X15674167Y-13632976D01*
X15655119Y-13623452D01*
X15645595Y-13604405D01*
X15645595Y-13528214D01*
X15655119Y-13509167D01*
X15674167Y-13499643D01*
X15712262Y-13499643D01*
X15731309Y-13509167D01*
X15740833Y-13528214D01*
X15740833Y-13547262D01*
X15645595Y-13566309D01*
X15817024Y-13623452D02*
X15836071Y-13632976D01*
X15874167Y-13632976D01*
X15893214Y-13623452D01*
X15902738Y-13604405D01*
X15902738Y-13594881D01*
X15893214Y-13575833D01*
X15874167Y-13566309D01*
X15845595Y-13566309D01*
X15826548Y-13556786D01*
X15817024Y-13537738D01*
X15817024Y-13528214D01*
X15826548Y-13509167D01*
X15845595Y-13499643D01*
X15874167Y-13499643D01*
X15893214Y-13509167D01*
X15969405Y-13709167D02*
X15978928Y-13699643D01*
X15997976Y-13671071D01*
X16007500Y-13652024D01*
X16017024Y-13623452D01*
X16026548Y-13575833D01*
X16026548Y-13537738D01*
X16017024Y-13490119D01*
X16007500Y-13461548D01*
X15997976Y-13442500D01*
X15978928Y-13413928D01*
X15969405Y-13404405D01*
X16331309Y-13709167D02*
X16321786Y-13699643D01*
X16302738Y-13671071D01*
X16293214Y-13652024D01*
X16283690Y-13623452D01*
X16274167Y-13575833D01*
X16274167Y-13537738D01*
X16283690Y-13490119D01*
X16293214Y-13461548D01*
X16302738Y-13442500D01*
X16321786Y-13413928D01*
X16331309Y-13404405D01*
X16407500Y-13499643D02*
X16407500Y-13632976D01*
X16407500Y-13518690D02*
X16417024Y-13509167D01*
X16436071Y-13499643D01*
X16464643Y-13499643D01*
X16483690Y-13509167D01*
X16493214Y-13528214D01*
X16493214Y-13632976D01*
X16617024Y-13632976D02*
X16597976Y-13623452D01*
X16588452Y-13613928D01*
X16578928Y-13594881D01*
X16578928Y-13537738D01*
X16588452Y-13518690D01*
X16597976Y-13509167D01*
X16617024Y-13499643D01*
X16645595Y-13499643D01*
X16664643Y-13509167D01*
X16674167Y-13518690D01*
X16683690Y-13537738D01*
X16683690Y-13594881D01*
X16674167Y-13613928D01*
X16664643Y-13623452D01*
X16645595Y-13632976D01*
X16617024Y-13632976D01*
X16740833Y-13499643D02*
X16817024Y-13499643D01*
X16769405Y-13432976D02*
X16769405Y-13604405D01*
X16778929Y-13623452D01*
X16797976Y-13632976D01*
X16817024Y-13632976D01*
X17036071Y-13499643D02*
X17036071Y-13699643D01*
X17036071Y-13509167D02*
X17055119Y-13499643D01*
X17093214Y-13499643D01*
X17112262Y-13509167D01*
X17121786Y-13518690D01*
X17131310Y-13537738D01*
X17131310Y-13594881D01*
X17121786Y-13613928D01*
X17112262Y-13623452D01*
X17093214Y-13632976D01*
X17055119Y-13632976D01*
X17036071Y-13623452D01*
X17245595Y-13632976D02*
X17226548Y-13623452D01*
X17217024Y-13604405D01*
X17217024Y-13432976D01*
X17407500Y-13632976D02*
X17407500Y-13528214D01*
X17397976Y-13509167D01*
X17378929Y-13499643D01*
X17340833Y-13499643D01*
X17321786Y-13509167D01*
X17407500Y-13623452D02*
X17388452Y-13632976D01*
X17340833Y-13632976D01*
X17321786Y-13623452D01*
X17312262Y-13604405D01*
X17312262Y-13585357D01*
X17321786Y-13566309D01*
X17340833Y-13556786D01*
X17388452Y-13556786D01*
X17407500Y-13547262D01*
X17474167Y-13499643D02*
X17550357Y-13499643D01*
X17502738Y-13432976D02*
X17502738Y-13604405D01*
X17512262Y-13623452D01*
X17531310Y-13632976D01*
X17550357Y-13632976D01*
X17693214Y-13623452D02*
X17674167Y-13632976D01*
X17636071Y-13632976D01*
X17617024Y-13623452D01*
X17607500Y-13604405D01*
X17607500Y-13528214D01*
X17617024Y-13509167D01*
X17636071Y-13499643D01*
X17674167Y-13499643D01*
X17693214Y-13509167D01*
X17702738Y-13528214D01*
X17702738Y-13547262D01*
X17607500Y-13566309D01*
X17874167Y-13632976D02*
X17874167Y-13432976D01*
X17874167Y-13623452D02*
X17855119Y-13632976D01*
X17817024Y-13632976D01*
X17797976Y-13623452D01*
X17788452Y-13613928D01*
X17778929Y-13594881D01*
X17778929Y-13537738D01*
X17788452Y-13518690D01*
X17797976Y-13509167D01*
X17817024Y-13499643D01*
X17855119Y-13499643D01*
X17874167Y-13509167D01*
X17950357Y-13709167D02*
X17959881Y-13699643D01*
X17978929Y-13671071D01*
X17988452Y-13652024D01*
X17997976Y-13623452D01*
X18007500Y-13575833D01*
X18007500Y-13537738D01*
X17997976Y-13490119D01*
X17988452Y-13461548D01*
X17978929Y-13442500D01*
X17959881Y-13413928D01*
X17950357Y-13404405D01*
M02*
