%TF.GenerationSoftware,KiCad,Pcbnew,(6.0.7)*%
%TF.CreationDate,2023-03-09T18:45:51+00:00*%
%TF.ProjectId,solenoid_driver,736f6c65-6e6f-4696-945f-647269766572,rev?*%
%TF.SameCoordinates,Original*%
%TF.FileFunction,Drillmap*%
%TF.FilePolarity,Positive*%
%FSLAX45Y45*%
G04 Gerber Fmt 4.5, Leading zero omitted, Abs format (unit mm)*
G04 Created by KiCad (PCBNEW (6.0.7)) date 2023-03-09 18:45:51*
%MOMM*%
%LPD*%
G01*
G04 APERTURE LIST*
%ADD10C,0.050000*%
%ADD11C,0.200000*%
%ADD12C,0.080000*%
%ADD13C,0.095000*%
%ADD14C,0.100000*%
%ADD15C,0.110000*%
%ADD16C,0.160000*%
G04 APERTURE END LIST*
D10*
X15750000Y-8050000D02*
X15750000Y-12900000D01*
X11200000Y-12900000D02*
X11200000Y-8050000D01*
X15750000Y-8050000D02*
X11200000Y-8050000D01*
X15750000Y-12900000D02*
X11200000Y-12900000D01*
D11*
D12*
X12255000Y-10785000D02*
X12335000Y-10865000D01*
X12335000Y-10785000D02*
X12255000Y-10865000D01*
X12260000Y-9655000D02*
X12340000Y-9735000D01*
X12340000Y-9655000D02*
X12260000Y-9735000D01*
X12260000Y-9909000D02*
X12340000Y-9989000D01*
X12340000Y-9909000D02*
X12260000Y-9989000D01*
X12260000Y-10163000D02*
X12340000Y-10243000D01*
X12340000Y-10163000D02*
X12260000Y-10243000D01*
X12260000Y-10417000D02*
X12340000Y-10497000D01*
X12340000Y-10417000D02*
X12260000Y-10497000D01*
X12755000Y-10785000D02*
X12835000Y-10865000D01*
X12835000Y-10785000D02*
X12755000Y-10865000D01*
X13022000Y-9655000D02*
X13102000Y-9735000D01*
X13102000Y-9655000D02*
X13022000Y-9735000D01*
X13022000Y-9909000D02*
X13102000Y-9989000D01*
X13102000Y-9909000D02*
X13022000Y-9989000D01*
X13022000Y-10163000D02*
X13102000Y-10243000D01*
X13102000Y-10163000D02*
X13022000Y-10243000D01*
X13022000Y-10417000D02*
X13102000Y-10497000D01*
X13102000Y-10417000D02*
X13022000Y-10497000D01*
D13*
X11745000Y-9137300D02*
G75*
G03*
X11745000Y-9137300I-47500J0D01*
G01*
X11745000Y-9387300D02*
G75*
G03*
X11745000Y-9387300I-47500J0D01*
G01*
X11745000Y-9637300D02*
G75*
G03*
X11745000Y-9637300I-47500J0D01*
G01*
X11745000Y-9887300D02*
G75*
G03*
X11745000Y-9887300I-47500J0D01*
G01*
D14*
X11693400Y-11472900D02*
X11693400Y-11572900D01*
X11643400Y-11522900D02*
X11743400Y-11522900D01*
X11693400Y-11722900D02*
X11693400Y-11822900D01*
X11643400Y-11772900D02*
X11743400Y-11772900D01*
X11699750Y-10518400D02*
X11699750Y-10618400D01*
X11649750Y-10568400D02*
X11749750Y-10568400D01*
X11699750Y-10768400D02*
X11699750Y-10868400D01*
X11649750Y-10818400D02*
X11749750Y-10818400D01*
X12350000Y-8300000D02*
X12350000Y-8400000D01*
X12300000Y-8350000D02*
X12400000Y-8350000D01*
X12350000Y-9200000D02*
X12350000Y-9300000D01*
X12300000Y-9250000D02*
X12400000Y-9250000D01*
X13000000Y-8300000D02*
X13000000Y-8400000D01*
X12950000Y-8350000D02*
X13050000Y-8350000D01*
X13000000Y-9200000D02*
X13000000Y-9300000D01*
X12950000Y-9250000D02*
X13050000Y-9250000D01*
X13600000Y-8850000D02*
X13600000Y-8950000D01*
X13550000Y-8900000D02*
X13650000Y-8900000D01*
X13600000Y-9350000D02*
X13600000Y-9450000D01*
X13550000Y-9400000D02*
X13650000Y-9400000D01*
X13600000Y-11500000D02*
X13600000Y-11600000D01*
X13550000Y-11550000D02*
X13650000Y-11550000D01*
X13600000Y-12000000D02*
X13600000Y-12100000D01*
X13550000Y-12050000D02*
X13650000Y-12050000D01*
X14500000Y-8850000D02*
X14500000Y-8950000D01*
X14450000Y-8900000D02*
X14550000Y-8900000D01*
X14500000Y-9350000D02*
X14500000Y-9450000D01*
X14450000Y-9400000D02*
X14550000Y-9400000D01*
X14500000Y-11500000D02*
X14500000Y-11600000D01*
X14450000Y-11550000D02*
X14550000Y-11550000D01*
X14500000Y-12000000D02*
X14500000Y-12100000D01*
X14450000Y-12050000D02*
X14550000Y-12050000D01*
X15100000Y-9025000D02*
X15100000Y-9125000D01*
X15050000Y-9075000D02*
X15150000Y-9075000D01*
X15100000Y-9275000D02*
X15100000Y-9375000D01*
X15050000Y-9325000D02*
X15150000Y-9325000D01*
X15100000Y-11550000D02*
X15100000Y-11650000D01*
X15050000Y-11600000D02*
X15150000Y-11600000D01*
X15100000Y-11800000D02*
X15100000Y-11900000D01*
X15050000Y-11850000D02*
X15150000Y-11850000D01*
D15*
X13884891Y-12544391D02*
X13884891Y-12466609D01*
X13807109Y-12466609D01*
X13807109Y-12544391D01*
X13884891Y-12544391D01*
X13888241Y-8488891D02*
X13888241Y-8411109D01*
X13810459Y-8411109D01*
X13810459Y-8488891D01*
X13888241Y-8488891D01*
X14138891Y-12544391D02*
X14138891Y-12466609D01*
X14061109Y-12466609D01*
X14061109Y-12544391D01*
X14138891Y-12544391D01*
X14142241Y-8488891D02*
X14142241Y-8411109D01*
X14064459Y-8411109D01*
X14064459Y-8488891D01*
X14142241Y-8488891D01*
X14392891Y-12544391D02*
X14392891Y-12466609D01*
X14315109Y-12466609D01*
X14315109Y-12544391D01*
X14392891Y-12544391D01*
X14396241Y-8488891D02*
X14396241Y-8411109D01*
X14318459Y-8411109D01*
X14318459Y-8488891D01*
X14396241Y-8488891D01*
D16*
X13538000Y-10180000D02*
X13618000Y-10100000D01*
X13538000Y-10020000D01*
X13458000Y-10100000D01*
X13538000Y-10180000D01*
X13538000Y-10930000D02*
X13618000Y-10850000D01*
X13538000Y-10770000D01*
X13458000Y-10850000D01*
X13538000Y-10930000D01*
X15062000Y-10180000D02*
X15142000Y-10100000D01*
X15062000Y-10020000D01*
X14982000Y-10100000D01*
X15062000Y-10180000D01*
X15062000Y-10930000D02*
X15142000Y-10850000D01*
X15062000Y-10770000D01*
X14982000Y-10850000D01*
X15062000Y-10930000D01*
D11*
X11455119Y-13212976D02*
X11455119Y-13012976D01*
X11502738Y-13012976D01*
X11531309Y-13022500D01*
X11550357Y-13041548D01*
X11559881Y-13060595D01*
X11569405Y-13098690D01*
X11569405Y-13127262D01*
X11559881Y-13165357D01*
X11550357Y-13184405D01*
X11531309Y-13203452D01*
X11502738Y-13212976D01*
X11455119Y-13212976D01*
X11655119Y-13212976D02*
X11655119Y-13079643D01*
X11655119Y-13117738D02*
X11664643Y-13098690D01*
X11674167Y-13089167D01*
X11693214Y-13079643D01*
X11712262Y-13079643D01*
X11778928Y-13212976D02*
X11778928Y-13079643D01*
X11778928Y-13012976D02*
X11769405Y-13022500D01*
X11778928Y-13032024D01*
X11788452Y-13022500D01*
X11778928Y-13012976D01*
X11778928Y-13032024D01*
X11902738Y-13212976D02*
X11883690Y-13203452D01*
X11874167Y-13184405D01*
X11874167Y-13012976D01*
X12007500Y-13212976D02*
X11988452Y-13203452D01*
X11978928Y-13184405D01*
X11978928Y-13012976D01*
X12236071Y-13212976D02*
X12236071Y-13012976D01*
X12302738Y-13155833D01*
X12369405Y-13012976D01*
X12369405Y-13212976D01*
X12550357Y-13212976D02*
X12550357Y-13108214D01*
X12540833Y-13089167D01*
X12521786Y-13079643D01*
X12483690Y-13079643D01*
X12464643Y-13089167D01*
X12550357Y-13203452D02*
X12531309Y-13212976D01*
X12483690Y-13212976D01*
X12464643Y-13203452D01*
X12455119Y-13184405D01*
X12455119Y-13165357D01*
X12464643Y-13146309D01*
X12483690Y-13136786D01*
X12531309Y-13136786D01*
X12550357Y-13127262D01*
X12645595Y-13079643D02*
X12645595Y-13279643D01*
X12645595Y-13089167D02*
X12664643Y-13079643D01*
X12702738Y-13079643D01*
X12721786Y-13089167D01*
X12731309Y-13098690D01*
X12740833Y-13117738D01*
X12740833Y-13174881D01*
X12731309Y-13193928D01*
X12721786Y-13203452D01*
X12702738Y-13212976D01*
X12664643Y-13212976D01*
X12645595Y-13203452D01*
X12826548Y-13193928D02*
X12836071Y-13203452D01*
X12826548Y-13212976D01*
X12817024Y-13203452D01*
X12826548Y-13193928D01*
X12826548Y-13212976D01*
X12826548Y-13089167D02*
X12836071Y-13098690D01*
X12826548Y-13108214D01*
X12817024Y-13098690D01*
X12826548Y-13089167D01*
X12826548Y-13108214D01*
D12*
X11117500Y-13502500D02*
X11197500Y-13582500D01*
X11197500Y-13502500D02*
X11117500Y-13582500D01*
D11*
X11493214Y-13432976D02*
X11512262Y-13432976D01*
X11531309Y-13442500D01*
X11540833Y-13452024D01*
X11550357Y-13471071D01*
X11559881Y-13509167D01*
X11559881Y-13556786D01*
X11550357Y-13594881D01*
X11540833Y-13613928D01*
X11531309Y-13623452D01*
X11512262Y-13632976D01*
X11493214Y-13632976D01*
X11474167Y-13623452D01*
X11464643Y-13613928D01*
X11455119Y-13594881D01*
X11445595Y-13556786D01*
X11445595Y-13509167D01*
X11455119Y-13471071D01*
X11464643Y-13452024D01*
X11474167Y-13442500D01*
X11493214Y-13432976D01*
X11645595Y-13613928D02*
X11655119Y-13623452D01*
X11645595Y-13632976D01*
X11636071Y-13623452D01*
X11645595Y-13613928D01*
X11645595Y-13632976D01*
X11769405Y-13518690D02*
X11750357Y-13509167D01*
X11740833Y-13499643D01*
X11731309Y-13480595D01*
X11731309Y-13471071D01*
X11740833Y-13452024D01*
X11750357Y-13442500D01*
X11769405Y-13432976D01*
X11807500Y-13432976D01*
X11826548Y-13442500D01*
X11836071Y-13452024D01*
X11845595Y-13471071D01*
X11845595Y-13480595D01*
X11836071Y-13499643D01*
X11826548Y-13509167D01*
X11807500Y-13518690D01*
X11769405Y-13518690D01*
X11750357Y-13528214D01*
X11740833Y-13537738D01*
X11731309Y-13556786D01*
X11731309Y-13594881D01*
X11740833Y-13613928D01*
X11750357Y-13623452D01*
X11769405Y-13632976D01*
X11807500Y-13632976D01*
X11826548Y-13623452D01*
X11836071Y-13613928D01*
X11845595Y-13594881D01*
X11845595Y-13556786D01*
X11836071Y-13537738D01*
X11826548Y-13528214D01*
X11807500Y-13518690D01*
X11969405Y-13432976D02*
X11988452Y-13432976D01*
X12007500Y-13442500D01*
X12017024Y-13452024D01*
X12026548Y-13471071D01*
X12036071Y-13509167D01*
X12036071Y-13556786D01*
X12026548Y-13594881D01*
X12017024Y-13613928D01*
X12007500Y-13623452D01*
X11988452Y-13632976D01*
X11969405Y-13632976D01*
X11950357Y-13623452D01*
X11940833Y-13613928D01*
X11931309Y-13594881D01*
X11921786Y-13556786D01*
X11921786Y-13509167D01*
X11931309Y-13471071D01*
X11940833Y-13452024D01*
X11950357Y-13442500D01*
X11969405Y-13432976D01*
X12159881Y-13432976D02*
X12178928Y-13432976D01*
X12197976Y-13442500D01*
X12207500Y-13452024D01*
X12217024Y-13471071D01*
X12226548Y-13509167D01*
X12226548Y-13556786D01*
X12217024Y-13594881D01*
X12207500Y-13613928D01*
X12197976Y-13623452D01*
X12178928Y-13632976D01*
X12159881Y-13632976D01*
X12140833Y-13623452D01*
X12131309Y-13613928D01*
X12121786Y-13594881D01*
X12112262Y-13556786D01*
X12112262Y-13509167D01*
X12121786Y-13471071D01*
X12131309Y-13452024D01*
X12140833Y-13442500D01*
X12159881Y-13432976D01*
X12312262Y-13632976D02*
X12312262Y-13499643D01*
X12312262Y-13518690D02*
X12321786Y-13509167D01*
X12340833Y-13499643D01*
X12369405Y-13499643D01*
X12388452Y-13509167D01*
X12397976Y-13528214D01*
X12397976Y-13632976D01*
X12397976Y-13528214D02*
X12407500Y-13509167D01*
X12426548Y-13499643D01*
X12455119Y-13499643D01*
X12474167Y-13509167D01*
X12483690Y-13528214D01*
X12483690Y-13632976D01*
X12578928Y-13632976D02*
X12578928Y-13499643D01*
X12578928Y-13518690D02*
X12588452Y-13509167D01*
X12607500Y-13499643D01*
X12636071Y-13499643D01*
X12655119Y-13509167D01*
X12664643Y-13528214D01*
X12664643Y-13632976D01*
X12664643Y-13528214D02*
X12674167Y-13509167D01*
X12693214Y-13499643D01*
X12721786Y-13499643D01*
X12740833Y-13509167D01*
X12750357Y-13528214D01*
X12750357Y-13632976D01*
X13140833Y-13423452D02*
X12969405Y-13680595D01*
X13397976Y-13432976D02*
X13417024Y-13432976D01*
X13436071Y-13442500D01*
X13445595Y-13452024D01*
X13455119Y-13471071D01*
X13464643Y-13509167D01*
X13464643Y-13556786D01*
X13455119Y-13594881D01*
X13445595Y-13613928D01*
X13436071Y-13623452D01*
X13417024Y-13632976D01*
X13397976Y-13632976D01*
X13378928Y-13623452D01*
X13369405Y-13613928D01*
X13359881Y-13594881D01*
X13350357Y-13556786D01*
X13350357Y-13509167D01*
X13359881Y-13471071D01*
X13369405Y-13452024D01*
X13378928Y-13442500D01*
X13397976Y-13432976D01*
X13550357Y-13613928D02*
X13559881Y-13623452D01*
X13550357Y-13632976D01*
X13540833Y-13623452D01*
X13550357Y-13613928D01*
X13550357Y-13632976D01*
X13683690Y-13432976D02*
X13702738Y-13432976D01*
X13721786Y-13442500D01*
X13731309Y-13452024D01*
X13740833Y-13471071D01*
X13750357Y-13509167D01*
X13750357Y-13556786D01*
X13740833Y-13594881D01*
X13731309Y-13613928D01*
X13721786Y-13623452D01*
X13702738Y-13632976D01*
X13683690Y-13632976D01*
X13664643Y-13623452D01*
X13655119Y-13613928D01*
X13645595Y-13594881D01*
X13636071Y-13556786D01*
X13636071Y-13509167D01*
X13645595Y-13471071D01*
X13655119Y-13452024D01*
X13664643Y-13442500D01*
X13683690Y-13432976D01*
X13817024Y-13432976D02*
X13940833Y-13432976D01*
X13874167Y-13509167D01*
X13902738Y-13509167D01*
X13921786Y-13518690D01*
X13931309Y-13528214D01*
X13940833Y-13547262D01*
X13940833Y-13594881D01*
X13931309Y-13613928D01*
X13921786Y-13623452D01*
X13902738Y-13632976D01*
X13845595Y-13632976D01*
X13826548Y-13623452D01*
X13817024Y-13613928D01*
X14131309Y-13632976D02*
X14017024Y-13632976D01*
X14074167Y-13632976D02*
X14074167Y-13432976D01*
X14055119Y-13461548D01*
X14036071Y-13480595D01*
X14017024Y-13490119D01*
X14312262Y-13432976D02*
X14217024Y-13432976D01*
X14207500Y-13528214D01*
X14217024Y-13518690D01*
X14236071Y-13509167D01*
X14283690Y-13509167D01*
X14302738Y-13518690D01*
X14312262Y-13528214D01*
X14321786Y-13547262D01*
X14321786Y-13594881D01*
X14312262Y-13613928D01*
X14302738Y-13623452D01*
X14283690Y-13632976D01*
X14236071Y-13632976D01*
X14217024Y-13623452D01*
X14207500Y-13613928D01*
X14397976Y-13432976D02*
X14397976Y-13471071D01*
X14474167Y-13432976D02*
X14474167Y-13471071D01*
X14769405Y-13709167D02*
X14759881Y-13699643D01*
X14740833Y-13671071D01*
X14731309Y-13652024D01*
X14721786Y-13623452D01*
X14712262Y-13575833D01*
X14712262Y-13537738D01*
X14721786Y-13490119D01*
X14731309Y-13461548D01*
X14740833Y-13442500D01*
X14759881Y-13413928D01*
X14769405Y-13404405D01*
X14950357Y-13632976D02*
X14836071Y-13632976D01*
X14893214Y-13632976D02*
X14893214Y-13432976D01*
X14874167Y-13461548D01*
X14855119Y-13480595D01*
X14836071Y-13490119D01*
X15074167Y-13432976D02*
X15093214Y-13432976D01*
X15112262Y-13442500D01*
X15121786Y-13452024D01*
X15131309Y-13471071D01*
X15140833Y-13509167D01*
X15140833Y-13556786D01*
X15131309Y-13594881D01*
X15121786Y-13613928D01*
X15112262Y-13623452D01*
X15093214Y-13632976D01*
X15074167Y-13632976D01*
X15055119Y-13623452D01*
X15045595Y-13613928D01*
X15036071Y-13594881D01*
X15026548Y-13556786D01*
X15026548Y-13509167D01*
X15036071Y-13471071D01*
X15045595Y-13452024D01*
X15055119Y-13442500D01*
X15074167Y-13432976D01*
X15378928Y-13632976D02*
X15378928Y-13432976D01*
X15464643Y-13632976D02*
X15464643Y-13528214D01*
X15455119Y-13509167D01*
X15436071Y-13499643D01*
X15407500Y-13499643D01*
X15388452Y-13509167D01*
X15378928Y-13518690D01*
X15588452Y-13632976D02*
X15569405Y-13623452D01*
X15559881Y-13613928D01*
X15550357Y-13594881D01*
X15550357Y-13537738D01*
X15559881Y-13518690D01*
X15569405Y-13509167D01*
X15588452Y-13499643D01*
X15617024Y-13499643D01*
X15636071Y-13509167D01*
X15645595Y-13518690D01*
X15655119Y-13537738D01*
X15655119Y-13594881D01*
X15645595Y-13613928D01*
X15636071Y-13623452D01*
X15617024Y-13632976D01*
X15588452Y-13632976D01*
X15769405Y-13632976D02*
X15750357Y-13623452D01*
X15740833Y-13604405D01*
X15740833Y-13432976D01*
X15921786Y-13623452D02*
X15902738Y-13632976D01*
X15864643Y-13632976D01*
X15845595Y-13623452D01*
X15836071Y-13604405D01*
X15836071Y-13528214D01*
X15845595Y-13509167D01*
X15864643Y-13499643D01*
X15902738Y-13499643D01*
X15921786Y-13509167D01*
X15931309Y-13528214D01*
X15931309Y-13547262D01*
X15836071Y-13566309D01*
X16007500Y-13623452D02*
X16026548Y-13632976D01*
X16064643Y-13632976D01*
X16083690Y-13623452D01*
X16093214Y-13604405D01*
X16093214Y-13594881D01*
X16083690Y-13575833D01*
X16064643Y-13566309D01*
X16036071Y-13566309D01*
X16017024Y-13556786D01*
X16007500Y-13537738D01*
X16007500Y-13528214D01*
X16017024Y-13509167D01*
X16036071Y-13499643D01*
X16064643Y-13499643D01*
X16083690Y-13509167D01*
X16159881Y-13709167D02*
X16169405Y-13699643D01*
X16188452Y-13671071D01*
X16197976Y-13652024D01*
X16207500Y-13623452D01*
X16217024Y-13575833D01*
X16217024Y-13537738D01*
X16207500Y-13490119D01*
X16197976Y-13461548D01*
X16188452Y-13442500D01*
X16169405Y-13413928D01*
X16159881Y-13404405D01*
D13*
X11197500Y-13806500D02*
G75*
G03*
X11197500Y-13806500I-47500J0D01*
G01*
D11*
X11493214Y-13696976D02*
X11512262Y-13696976D01*
X11531309Y-13706500D01*
X11540833Y-13716024D01*
X11550357Y-13735071D01*
X11559881Y-13773167D01*
X11559881Y-13820786D01*
X11550357Y-13858881D01*
X11540833Y-13877928D01*
X11531309Y-13887452D01*
X11512262Y-13896976D01*
X11493214Y-13896976D01*
X11474167Y-13887452D01*
X11464643Y-13877928D01*
X11455119Y-13858881D01*
X11445595Y-13820786D01*
X11445595Y-13773167D01*
X11455119Y-13735071D01*
X11464643Y-13716024D01*
X11474167Y-13706500D01*
X11493214Y-13696976D01*
X11645595Y-13877928D02*
X11655119Y-13887452D01*
X11645595Y-13896976D01*
X11636071Y-13887452D01*
X11645595Y-13877928D01*
X11645595Y-13896976D01*
X11750357Y-13896976D02*
X11788452Y-13896976D01*
X11807500Y-13887452D01*
X11817024Y-13877928D01*
X11836071Y-13849357D01*
X11845595Y-13811262D01*
X11845595Y-13735071D01*
X11836071Y-13716024D01*
X11826548Y-13706500D01*
X11807500Y-13696976D01*
X11769405Y-13696976D01*
X11750357Y-13706500D01*
X11740833Y-13716024D01*
X11731309Y-13735071D01*
X11731309Y-13782690D01*
X11740833Y-13801738D01*
X11750357Y-13811262D01*
X11769405Y-13820786D01*
X11807500Y-13820786D01*
X11826548Y-13811262D01*
X11836071Y-13801738D01*
X11845595Y-13782690D01*
X12026548Y-13696976D02*
X11931309Y-13696976D01*
X11921786Y-13792214D01*
X11931309Y-13782690D01*
X11950357Y-13773167D01*
X11997976Y-13773167D01*
X12017024Y-13782690D01*
X12026548Y-13792214D01*
X12036071Y-13811262D01*
X12036071Y-13858881D01*
X12026548Y-13877928D01*
X12017024Y-13887452D01*
X11997976Y-13896976D01*
X11950357Y-13896976D01*
X11931309Y-13887452D01*
X11921786Y-13877928D01*
X12159881Y-13696976D02*
X12178928Y-13696976D01*
X12197976Y-13706500D01*
X12207500Y-13716024D01*
X12217024Y-13735071D01*
X12226548Y-13773167D01*
X12226548Y-13820786D01*
X12217024Y-13858881D01*
X12207500Y-13877928D01*
X12197976Y-13887452D01*
X12178928Y-13896976D01*
X12159881Y-13896976D01*
X12140833Y-13887452D01*
X12131309Y-13877928D01*
X12121786Y-13858881D01*
X12112262Y-13820786D01*
X12112262Y-13773167D01*
X12121786Y-13735071D01*
X12131309Y-13716024D01*
X12140833Y-13706500D01*
X12159881Y-13696976D01*
X12312262Y-13896976D02*
X12312262Y-13763643D01*
X12312262Y-13782690D02*
X12321786Y-13773167D01*
X12340833Y-13763643D01*
X12369405Y-13763643D01*
X12388452Y-13773167D01*
X12397976Y-13792214D01*
X12397976Y-13896976D01*
X12397976Y-13792214D02*
X12407500Y-13773167D01*
X12426548Y-13763643D01*
X12455119Y-13763643D01*
X12474167Y-13773167D01*
X12483690Y-13792214D01*
X12483690Y-13896976D01*
X12578928Y-13896976D02*
X12578928Y-13763643D01*
X12578928Y-13782690D02*
X12588452Y-13773167D01*
X12607500Y-13763643D01*
X12636071Y-13763643D01*
X12655119Y-13773167D01*
X12664643Y-13792214D01*
X12664643Y-13896976D01*
X12664643Y-13792214D02*
X12674167Y-13773167D01*
X12693214Y-13763643D01*
X12721786Y-13763643D01*
X12740833Y-13773167D01*
X12750357Y-13792214D01*
X12750357Y-13896976D01*
X13140833Y-13687452D02*
X12969405Y-13944595D01*
X13397976Y-13696976D02*
X13417024Y-13696976D01*
X13436071Y-13706500D01*
X13445595Y-13716024D01*
X13455119Y-13735071D01*
X13464643Y-13773167D01*
X13464643Y-13820786D01*
X13455119Y-13858881D01*
X13445595Y-13877928D01*
X13436071Y-13887452D01*
X13417024Y-13896976D01*
X13397976Y-13896976D01*
X13378928Y-13887452D01*
X13369405Y-13877928D01*
X13359881Y-13858881D01*
X13350357Y-13820786D01*
X13350357Y-13773167D01*
X13359881Y-13735071D01*
X13369405Y-13716024D01*
X13378928Y-13706500D01*
X13397976Y-13696976D01*
X13550357Y-13877928D02*
X13559881Y-13887452D01*
X13550357Y-13896976D01*
X13540833Y-13887452D01*
X13550357Y-13877928D01*
X13550357Y-13896976D01*
X13683690Y-13696976D02*
X13702738Y-13696976D01*
X13721786Y-13706500D01*
X13731309Y-13716024D01*
X13740833Y-13735071D01*
X13750357Y-13773167D01*
X13750357Y-13820786D01*
X13740833Y-13858881D01*
X13731309Y-13877928D01*
X13721786Y-13887452D01*
X13702738Y-13896976D01*
X13683690Y-13896976D01*
X13664643Y-13887452D01*
X13655119Y-13877928D01*
X13645595Y-13858881D01*
X13636071Y-13820786D01*
X13636071Y-13773167D01*
X13645595Y-13735071D01*
X13655119Y-13716024D01*
X13664643Y-13706500D01*
X13683690Y-13696976D01*
X13817024Y-13696976D02*
X13940833Y-13696976D01*
X13874167Y-13773167D01*
X13902738Y-13773167D01*
X13921786Y-13782690D01*
X13931309Y-13792214D01*
X13940833Y-13811262D01*
X13940833Y-13858881D01*
X13931309Y-13877928D01*
X13921786Y-13887452D01*
X13902738Y-13896976D01*
X13845595Y-13896976D01*
X13826548Y-13887452D01*
X13817024Y-13877928D01*
X14007500Y-13696976D02*
X14140833Y-13696976D01*
X14055119Y-13896976D01*
X14302738Y-13763643D02*
X14302738Y-13896976D01*
X14255119Y-13687452D02*
X14207500Y-13830309D01*
X14331309Y-13830309D01*
X14397976Y-13696976D02*
X14397976Y-13735071D01*
X14474167Y-13696976D02*
X14474167Y-13735071D01*
X14769405Y-13973167D02*
X14759881Y-13963643D01*
X14740833Y-13935071D01*
X14731309Y-13916024D01*
X14721786Y-13887452D01*
X14712262Y-13839833D01*
X14712262Y-13801738D01*
X14721786Y-13754119D01*
X14731309Y-13725548D01*
X14740833Y-13706500D01*
X14759881Y-13677928D01*
X14769405Y-13668405D01*
X14931309Y-13763643D02*
X14931309Y-13896976D01*
X14883690Y-13687452D02*
X14836071Y-13830309D01*
X14959881Y-13830309D01*
X15188452Y-13896976D02*
X15188452Y-13696976D01*
X15274167Y-13896976D02*
X15274167Y-13792214D01*
X15264643Y-13773167D01*
X15245595Y-13763643D01*
X15217024Y-13763643D01*
X15197976Y-13773167D01*
X15188452Y-13782690D01*
X15397976Y-13896976D02*
X15378928Y-13887452D01*
X15369405Y-13877928D01*
X15359881Y-13858881D01*
X15359881Y-13801738D01*
X15369405Y-13782690D01*
X15378928Y-13773167D01*
X15397976Y-13763643D01*
X15426548Y-13763643D01*
X15445595Y-13773167D01*
X15455119Y-13782690D01*
X15464643Y-13801738D01*
X15464643Y-13858881D01*
X15455119Y-13877928D01*
X15445595Y-13887452D01*
X15426548Y-13896976D01*
X15397976Y-13896976D01*
X15578928Y-13896976D02*
X15559881Y-13887452D01*
X15550357Y-13868405D01*
X15550357Y-13696976D01*
X15731309Y-13887452D02*
X15712262Y-13896976D01*
X15674167Y-13896976D01*
X15655119Y-13887452D01*
X15645595Y-13868405D01*
X15645595Y-13792214D01*
X15655119Y-13773167D01*
X15674167Y-13763643D01*
X15712262Y-13763643D01*
X15731309Y-13773167D01*
X15740833Y-13792214D01*
X15740833Y-13811262D01*
X15645595Y-13830309D01*
X15817024Y-13887452D02*
X15836071Y-13896976D01*
X15874167Y-13896976D01*
X15893214Y-13887452D01*
X15902738Y-13868405D01*
X15902738Y-13858881D01*
X15893214Y-13839833D01*
X15874167Y-13830309D01*
X15845595Y-13830309D01*
X15826548Y-13820786D01*
X15817024Y-13801738D01*
X15817024Y-13792214D01*
X15826548Y-13773167D01*
X15845595Y-13763643D01*
X15874167Y-13763643D01*
X15893214Y-13773167D01*
X15969405Y-13973167D02*
X15978928Y-13963643D01*
X15997976Y-13935071D01*
X16007500Y-13916024D01*
X16017024Y-13887452D01*
X16026548Y-13839833D01*
X16026548Y-13801738D01*
X16017024Y-13754119D01*
X16007500Y-13725548D01*
X15997976Y-13706500D01*
X15978928Y-13677928D01*
X15969405Y-13668405D01*
D14*
X11147500Y-14020500D02*
X11147500Y-14120500D01*
X11097500Y-14070500D02*
X11197500Y-14070500D01*
D11*
X11559881Y-14160976D02*
X11445595Y-14160976D01*
X11502738Y-14160976D02*
X11502738Y-13960976D01*
X11483690Y-13989548D01*
X11464643Y-14008595D01*
X11445595Y-14018119D01*
X11645595Y-14141928D02*
X11655119Y-14151452D01*
X11645595Y-14160976D01*
X11636071Y-14151452D01*
X11645595Y-14141928D01*
X11645595Y-14160976D01*
X11778928Y-13960976D02*
X11797976Y-13960976D01*
X11817024Y-13970500D01*
X11826548Y-13980024D01*
X11836071Y-13999071D01*
X11845595Y-14037167D01*
X11845595Y-14084786D01*
X11836071Y-14122881D01*
X11826548Y-14141928D01*
X11817024Y-14151452D01*
X11797976Y-14160976D01*
X11778928Y-14160976D01*
X11759881Y-14151452D01*
X11750357Y-14141928D01*
X11740833Y-14122881D01*
X11731309Y-14084786D01*
X11731309Y-14037167D01*
X11740833Y-13999071D01*
X11750357Y-13980024D01*
X11759881Y-13970500D01*
X11778928Y-13960976D01*
X11969405Y-13960976D02*
X11988452Y-13960976D01*
X12007500Y-13970500D01*
X12017024Y-13980024D01*
X12026548Y-13999071D01*
X12036071Y-14037167D01*
X12036071Y-14084786D01*
X12026548Y-14122881D01*
X12017024Y-14141928D01*
X12007500Y-14151452D01*
X11988452Y-14160976D01*
X11969405Y-14160976D01*
X11950357Y-14151452D01*
X11940833Y-14141928D01*
X11931309Y-14122881D01*
X11921786Y-14084786D01*
X11921786Y-14037167D01*
X11931309Y-13999071D01*
X11940833Y-13980024D01*
X11950357Y-13970500D01*
X11969405Y-13960976D01*
X12159881Y-13960976D02*
X12178928Y-13960976D01*
X12197976Y-13970500D01*
X12207500Y-13980024D01*
X12217024Y-13999071D01*
X12226548Y-14037167D01*
X12226548Y-14084786D01*
X12217024Y-14122881D01*
X12207500Y-14141928D01*
X12197976Y-14151452D01*
X12178928Y-14160976D01*
X12159881Y-14160976D01*
X12140833Y-14151452D01*
X12131309Y-14141928D01*
X12121786Y-14122881D01*
X12112262Y-14084786D01*
X12112262Y-14037167D01*
X12121786Y-13999071D01*
X12131309Y-13980024D01*
X12140833Y-13970500D01*
X12159881Y-13960976D01*
X12312262Y-14160976D02*
X12312262Y-14027643D01*
X12312262Y-14046690D02*
X12321786Y-14037167D01*
X12340833Y-14027643D01*
X12369405Y-14027643D01*
X12388452Y-14037167D01*
X12397976Y-14056214D01*
X12397976Y-14160976D01*
X12397976Y-14056214D02*
X12407500Y-14037167D01*
X12426548Y-14027643D01*
X12455119Y-14027643D01*
X12474167Y-14037167D01*
X12483690Y-14056214D01*
X12483690Y-14160976D01*
X12578928Y-14160976D02*
X12578928Y-14027643D01*
X12578928Y-14046690D02*
X12588452Y-14037167D01*
X12607500Y-14027643D01*
X12636071Y-14027643D01*
X12655119Y-14037167D01*
X12664643Y-14056214D01*
X12664643Y-14160976D01*
X12664643Y-14056214D02*
X12674167Y-14037167D01*
X12693214Y-14027643D01*
X12721786Y-14027643D01*
X12740833Y-14037167D01*
X12750357Y-14056214D01*
X12750357Y-14160976D01*
X13140833Y-13951452D02*
X12969405Y-14208595D01*
X13397976Y-13960976D02*
X13417024Y-13960976D01*
X13436071Y-13970500D01*
X13445595Y-13980024D01*
X13455119Y-13999071D01*
X13464643Y-14037167D01*
X13464643Y-14084786D01*
X13455119Y-14122881D01*
X13445595Y-14141928D01*
X13436071Y-14151452D01*
X13417024Y-14160976D01*
X13397976Y-14160976D01*
X13378928Y-14151452D01*
X13369405Y-14141928D01*
X13359881Y-14122881D01*
X13350357Y-14084786D01*
X13350357Y-14037167D01*
X13359881Y-13999071D01*
X13369405Y-13980024D01*
X13378928Y-13970500D01*
X13397976Y-13960976D01*
X13550357Y-14141928D02*
X13559881Y-14151452D01*
X13550357Y-14160976D01*
X13540833Y-14151452D01*
X13550357Y-14141928D01*
X13550357Y-14160976D01*
X13683690Y-13960976D02*
X13702738Y-13960976D01*
X13721786Y-13970500D01*
X13731309Y-13980024D01*
X13740833Y-13999071D01*
X13750357Y-14037167D01*
X13750357Y-14084786D01*
X13740833Y-14122881D01*
X13731309Y-14141928D01*
X13721786Y-14151452D01*
X13702738Y-14160976D01*
X13683690Y-14160976D01*
X13664643Y-14151452D01*
X13655119Y-14141928D01*
X13645595Y-14122881D01*
X13636071Y-14084786D01*
X13636071Y-14037167D01*
X13645595Y-13999071D01*
X13655119Y-13980024D01*
X13664643Y-13970500D01*
X13683690Y-13960976D01*
X13817024Y-13960976D02*
X13940833Y-13960976D01*
X13874167Y-14037167D01*
X13902738Y-14037167D01*
X13921786Y-14046690D01*
X13931309Y-14056214D01*
X13940833Y-14075262D01*
X13940833Y-14122881D01*
X13931309Y-14141928D01*
X13921786Y-14151452D01*
X13902738Y-14160976D01*
X13845595Y-14160976D01*
X13826548Y-14151452D01*
X13817024Y-14141928D01*
X14036071Y-14160976D02*
X14074167Y-14160976D01*
X14093214Y-14151452D01*
X14102738Y-14141928D01*
X14121786Y-14113357D01*
X14131309Y-14075262D01*
X14131309Y-13999071D01*
X14121786Y-13980024D01*
X14112262Y-13970500D01*
X14093214Y-13960976D01*
X14055119Y-13960976D01*
X14036071Y-13970500D01*
X14026548Y-13980024D01*
X14017024Y-13999071D01*
X14017024Y-14046690D01*
X14026548Y-14065738D01*
X14036071Y-14075262D01*
X14055119Y-14084786D01*
X14093214Y-14084786D01*
X14112262Y-14075262D01*
X14121786Y-14065738D01*
X14131309Y-14046690D01*
X14302738Y-14027643D02*
X14302738Y-14160976D01*
X14255119Y-13951452D02*
X14207500Y-14094309D01*
X14331309Y-14094309D01*
X14397976Y-13960976D02*
X14397976Y-13999071D01*
X14474167Y-13960976D02*
X14474167Y-13999071D01*
X14769405Y-14237167D02*
X14759881Y-14227643D01*
X14740833Y-14199071D01*
X14731309Y-14180024D01*
X14721786Y-14151452D01*
X14712262Y-14103833D01*
X14712262Y-14065738D01*
X14721786Y-14018119D01*
X14731309Y-13989548D01*
X14740833Y-13970500D01*
X14759881Y-13941928D01*
X14769405Y-13932405D01*
X14836071Y-13980024D02*
X14845595Y-13970500D01*
X14864643Y-13960976D01*
X14912262Y-13960976D01*
X14931309Y-13970500D01*
X14940833Y-13980024D01*
X14950357Y-13999071D01*
X14950357Y-14018119D01*
X14940833Y-14046690D01*
X14826548Y-14160976D01*
X14950357Y-14160976D01*
X15074167Y-13960976D02*
X15093214Y-13960976D01*
X15112262Y-13970500D01*
X15121786Y-13980024D01*
X15131309Y-13999071D01*
X15140833Y-14037167D01*
X15140833Y-14084786D01*
X15131309Y-14122881D01*
X15121786Y-14141928D01*
X15112262Y-14151452D01*
X15093214Y-14160976D01*
X15074167Y-14160976D01*
X15055119Y-14151452D01*
X15045595Y-14141928D01*
X15036071Y-14122881D01*
X15026548Y-14084786D01*
X15026548Y-14037167D01*
X15036071Y-13999071D01*
X15045595Y-13980024D01*
X15055119Y-13970500D01*
X15074167Y-13960976D01*
X15378928Y-14160976D02*
X15378928Y-13960976D01*
X15464643Y-14160976D02*
X15464643Y-14056214D01*
X15455119Y-14037167D01*
X15436071Y-14027643D01*
X15407500Y-14027643D01*
X15388452Y-14037167D01*
X15378928Y-14046690D01*
X15588452Y-14160976D02*
X15569405Y-14151452D01*
X15559881Y-14141928D01*
X15550357Y-14122881D01*
X15550357Y-14065738D01*
X15559881Y-14046690D01*
X15569405Y-14037167D01*
X15588452Y-14027643D01*
X15617024Y-14027643D01*
X15636071Y-14037167D01*
X15645595Y-14046690D01*
X15655119Y-14065738D01*
X15655119Y-14122881D01*
X15645595Y-14141928D01*
X15636071Y-14151452D01*
X15617024Y-14160976D01*
X15588452Y-14160976D01*
X15769405Y-14160976D02*
X15750357Y-14151452D01*
X15740833Y-14132405D01*
X15740833Y-13960976D01*
X15921786Y-14151452D02*
X15902738Y-14160976D01*
X15864643Y-14160976D01*
X15845595Y-14151452D01*
X15836071Y-14132405D01*
X15836071Y-14056214D01*
X15845595Y-14037167D01*
X15864643Y-14027643D01*
X15902738Y-14027643D01*
X15921786Y-14037167D01*
X15931309Y-14056214D01*
X15931309Y-14075262D01*
X15836071Y-14094309D01*
X16007500Y-14151452D02*
X16026548Y-14160976D01*
X16064643Y-14160976D01*
X16083690Y-14151452D01*
X16093214Y-14132405D01*
X16093214Y-14122881D01*
X16083690Y-14103833D01*
X16064643Y-14094309D01*
X16036071Y-14094309D01*
X16017024Y-14084786D01*
X16007500Y-14065738D01*
X16007500Y-14056214D01*
X16017024Y-14037167D01*
X16036071Y-14027643D01*
X16064643Y-14027643D01*
X16083690Y-14037167D01*
X16159881Y-14237167D02*
X16169405Y-14227643D01*
X16188452Y-14199071D01*
X16197976Y-14180024D01*
X16207500Y-14151452D01*
X16217024Y-14103833D01*
X16217024Y-14065738D01*
X16207500Y-14018119D01*
X16197976Y-13989548D01*
X16188452Y-13970500D01*
X16169405Y-13941928D01*
X16159881Y-13932405D01*
D15*
X11181391Y-14373391D02*
X11181391Y-14295609D01*
X11103609Y-14295609D01*
X11103609Y-14373391D01*
X11181391Y-14373391D01*
D11*
X11559881Y-14424976D02*
X11445595Y-14424976D01*
X11502738Y-14424976D02*
X11502738Y-14224976D01*
X11483690Y-14253548D01*
X11464643Y-14272595D01*
X11445595Y-14282119D01*
X11645595Y-14405928D02*
X11655119Y-14415452D01*
X11645595Y-14424976D01*
X11636071Y-14415452D01*
X11645595Y-14405928D01*
X11645595Y-14424976D01*
X11845595Y-14424976D02*
X11731309Y-14424976D01*
X11788452Y-14424976D02*
X11788452Y-14224976D01*
X11769405Y-14253548D01*
X11750357Y-14272595D01*
X11731309Y-14282119D01*
X11969405Y-14224976D02*
X11988452Y-14224976D01*
X12007500Y-14234500D01*
X12017024Y-14244024D01*
X12026548Y-14263071D01*
X12036071Y-14301167D01*
X12036071Y-14348786D01*
X12026548Y-14386881D01*
X12017024Y-14405928D01*
X12007500Y-14415452D01*
X11988452Y-14424976D01*
X11969405Y-14424976D01*
X11950357Y-14415452D01*
X11940833Y-14405928D01*
X11931309Y-14386881D01*
X11921786Y-14348786D01*
X11921786Y-14301167D01*
X11931309Y-14263071D01*
X11940833Y-14244024D01*
X11950357Y-14234500D01*
X11969405Y-14224976D01*
X12159881Y-14224976D02*
X12178928Y-14224976D01*
X12197976Y-14234500D01*
X12207500Y-14244024D01*
X12217024Y-14263071D01*
X12226548Y-14301167D01*
X12226548Y-14348786D01*
X12217024Y-14386881D01*
X12207500Y-14405928D01*
X12197976Y-14415452D01*
X12178928Y-14424976D01*
X12159881Y-14424976D01*
X12140833Y-14415452D01*
X12131309Y-14405928D01*
X12121786Y-14386881D01*
X12112262Y-14348786D01*
X12112262Y-14301167D01*
X12121786Y-14263071D01*
X12131309Y-14244024D01*
X12140833Y-14234500D01*
X12159881Y-14224976D01*
X12312262Y-14424976D02*
X12312262Y-14291643D01*
X12312262Y-14310690D02*
X12321786Y-14301167D01*
X12340833Y-14291643D01*
X12369405Y-14291643D01*
X12388452Y-14301167D01*
X12397976Y-14320214D01*
X12397976Y-14424976D01*
X12397976Y-14320214D02*
X12407500Y-14301167D01*
X12426548Y-14291643D01*
X12455119Y-14291643D01*
X12474167Y-14301167D01*
X12483690Y-14320214D01*
X12483690Y-14424976D01*
X12578928Y-14424976D02*
X12578928Y-14291643D01*
X12578928Y-14310690D02*
X12588452Y-14301167D01*
X12607500Y-14291643D01*
X12636071Y-14291643D01*
X12655119Y-14301167D01*
X12664643Y-14320214D01*
X12664643Y-14424976D01*
X12664643Y-14320214D02*
X12674167Y-14301167D01*
X12693214Y-14291643D01*
X12721786Y-14291643D01*
X12740833Y-14301167D01*
X12750357Y-14320214D01*
X12750357Y-14424976D01*
X13140833Y-14215452D02*
X12969405Y-14472595D01*
X13397976Y-14224976D02*
X13417024Y-14224976D01*
X13436071Y-14234500D01*
X13445595Y-14244024D01*
X13455119Y-14263071D01*
X13464643Y-14301167D01*
X13464643Y-14348786D01*
X13455119Y-14386881D01*
X13445595Y-14405928D01*
X13436071Y-14415452D01*
X13417024Y-14424976D01*
X13397976Y-14424976D01*
X13378928Y-14415452D01*
X13369405Y-14405928D01*
X13359881Y-14386881D01*
X13350357Y-14348786D01*
X13350357Y-14301167D01*
X13359881Y-14263071D01*
X13369405Y-14244024D01*
X13378928Y-14234500D01*
X13397976Y-14224976D01*
X13550357Y-14405928D02*
X13559881Y-14415452D01*
X13550357Y-14424976D01*
X13540833Y-14415452D01*
X13550357Y-14405928D01*
X13550357Y-14424976D01*
X13683690Y-14224976D02*
X13702738Y-14224976D01*
X13721786Y-14234500D01*
X13731309Y-14244024D01*
X13740833Y-14263071D01*
X13750357Y-14301167D01*
X13750357Y-14348786D01*
X13740833Y-14386881D01*
X13731309Y-14405928D01*
X13721786Y-14415452D01*
X13702738Y-14424976D01*
X13683690Y-14424976D01*
X13664643Y-14415452D01*
X13655119Y-14405928D01*
X13645595Y-14386881D01*
X13636071Y-14348786D01*
X13636071Y-14301167D01*
X13645595Y-14263071D01*
X13655119Y-14244024D01*
X13664643Y-14234500D01*
X13683690Y-14224976D01*
X13921786Y-14291643D02*
X13921786Y-14424976D01*
X13874167Y-14215452D02*
X13826548Y-14358309D01*
X13950357Y-14358309D01*
X14007500Y-14224976D02*
X14131309Y-14224976D01*
X14064643Y-14301167D01*
X14093214Y-14301167D01*
X14112262Y-14310690D01*
X14121786Y-14320214D01*
X14131309Y-14339262D01*
X14131309Y-14386881D01*
X14121786Y-14405928D01*
X14112262Y-14415452D01*
X14093214Y-14424976D01*
X14036071Y-14424976D01*
X14017024Y-14415452D01*
X14007500Y-14405928D01*
X14197976Y-14224976D02*
X14321786Y-14224976D01*
X14255119Y-14301167D01*
X14283690Y-14301167D01*
X14302738Y-14310690D01*
X14312262Y-14320214D01*
X14321786Y-14339262D01*
X14321786Y-14386881D01*
X14312262Y-14405928D01*
X14302738Y-14415452D01*
X14283690Y-14424976D01*
X14226548Y-14424976D01*
X14207500Y-14415452D01*
X14197976Y-14405928D01*
X14397976Y-14224976D02*
X14397976Y-14263071D01*
X14474167Y-14224976D02*
X14474167Y-14263071D01*
X14769405Y-14501167D02*
X14759881Y-14491643D01*
X14740833Y-14463071D01*
X14731309Y-14444024D01*
X14721786Y-14415452D01*
X14712262Y-14367833D01*
X14712262Y-14329738D01*
X14721786Y-14282119D01*
X14731309Y-14253548D01*
X14740833Y-14234500D01*
X14759881Y-14205928D01*
X14769405Y-14196405D01*
X14931309Y-14224976D02*
X14893214Y-14224976D01*
X14874167Y-14234500D01*
X14864643Y-14244024D01*
X14845595Y-14272595D01*
X14836071Y-14310690D01*
X14836071Y-14386881D01*
X14845595Y-14405928D01*
X14855119Y-14415452D01*
X14874167Y-14424976D01*
X14912262Y-14424976D01*
X14931309Y-14415452D01*
X14940833Y-14405928D01*
X14950357Y-14386881D01*
X14950357Y-14339262D01*
X14940833Y-14320214D01*
X14931309Y-14310690D01*
X14912262Y-14301167D01*
X14874167Y-14301167D01*
X14855119Y-14310690D01*
X14845595Y-14320214D01*
X14836071Y-14339262D01*
X15188452Y-14424976D02*
X15188452Y-14224976D01*
X15274167Y-14424976D02*
X15274167Y-14320214D01*
X15264643Y-14301167D01*
X15245595Y-14291643D01*
X15217024Y-14291643D01*
X15197976Y-14301167D01*
X15188452Y-14310690D01*
X15397976Y-14424976D02*
X15378928Y-14415452D01*
X15369405Y-14405928D01*
X15359881Y-14386881D01*
X15359881Y-14329738D01*
X15369405Y-14310690D01*
X15378928Y-14301167D01*
X15397976Y-14291643D01*
X15426548Y-14291643D01*
X15445595Y-14301167D01*
X15455119Y-14310690D01*
X15464643Y-14329738D01*
X15464643Y-14386881D01*
X15455119Y-14405928D01*
X15445595Y-14415452D01*
X15426548Y-14424976D01*
X15397976Y-14424976D01*
X15578928Y-14424976D02*
X15559881Y-14415452D01*
X15550357Y-14396405D01*
X15550357Y-14224976D01*
X15731309Y-14415452D02*
X15712262Y-14424976D01*
X15674167Y-14424976D01*
X15655119Y-14415452D01*
X15645595Y-14396405D01*
X15645595Y-14320214D01*
X15655119Y-14301167D01*
X15674167Y-14291643D01*
X15712262Y-14291643D01*
X15731309Y-14301167D01*
X15740833Y-14320214D01*
X15740833Y-14339262D01*
X15645595Y-14358309D01*
X15817024Y-14415452D02*
X15836071Y-14424976D01*
X15874167Y-14424976D01*
X15893214Y-14415452D01*
X15902738Y-14396405D01*
X15902738Y-14386881D01*
X15893214Y-14367833D01*
X15874167Y-14358309D01*
X15845595Y-14358309D01*
X15826548Y-14348786D01*
X15817024Y-14329738D01*
X15817024Y-14320214D01*
X15826548Y-14301167D01*
X15845595Y-14291643D01*
X15874167Y-14291643D01*
X15893214Y-14301167D01*
X15969405Y-14501167D02*
X15978928Y-14491643D01*
X15997976Y-14463071D01*
X16007500Y-14444024D01*
X16017024Y-14415452D01*
X16026548Y-14367833D01*
X16026548Y-14329738D01*
X16017024Y-14282119D01*
X16007500Y-14253548D01*
X15997976Y-14234500D01*
X15978928Y-14205928D01*
X15969405Y-14196405D01*
D16*
X11117500Y-14678500D02*
X11197500Y-14598500D01*
X11117500Y-14518500D01*
X11037500Y-14598500D01*
X11117500Y-14678500D01*
D11*
X11559881Y-14688976D02*
X11445595Y-14688976D01*
X11502738Y-14688976D02*
X11502738Y-14488976D01*
X11483690Y-14517548D01*
X11464643Y-14536595D01*
X11445595Y-14546119D01*
X11645595Y-14669928D02*
X11655119Y-14679452D01*
X11645595Y-14688976D01*
X11636071Y-14679452D01*
X11645595Y-14669928D01*
X11645595Y-14688976D01*
X11826548Y-14488976D02*
X11788452Y-14488976D01*
X11769405Y-14498500D01*
X11759881Y-14508024D01*
X11740833Y-14536595D01*
X11731309Y-14574690D01*
X11731309Y-14650881D01*
X11740833Y-14669928D01*
X11750357Y-14679452D01*
X11769405Y-14688976D01*
X11807500Y-14688976D01*
X11826548Y-14679452D01*
X11836071Y-14669928D01*
X11845595Y-14650881D01*
X11845595Y-14603262D01*
X11836071Y-14584214D01*
X11826548Y-14574690D01*
X11807500Y-14565167D01*
X11769405Y-14565167D01*
X11750357Y-14574690D01*
X11740833Y-14584214D01*
X11731309Y-14603262D01*
X11969405Y-14488976D02*
X11988452Y-14488976D01*
X12007500Y-14498500D01*
X12017024Y-14508024D01*
X12026548Y-14527071D01*
X12036071Y-14565167D01*
X12036071Y-14612786D01*
X12026548Y-14650881D01*
X12017024Y-14669928D01*
X12007500Y-14679452D01*
X11988452Y-14688976D01*
X11969405Y-14688976D01*
X11950357Y-14679452D01*
X11940833Y-14669928D01*
X11931309Y-14650881D01*
X11921786Y-14612786D01*
X11921786Y-14565167D01*
X11931309Y-14527071D01*
X11940833Y-14508024D01*
X11950357Y-14498500D01*
X11969405Y-14488976D01*
X12159881Y-14488976D02*
X12178928Y-14488976D01*
X12197976Y-14498500D01*
X12207500Y-14508024D01*
X12217024Y-14527071D01*
X12226548Y-14565167D01*
X12226548Y-14612786D01*
X12217024Y-14650881D01*
X12207500Y-14669928D01*
X12197976Y-14679452D01*
X12178928Y-14688976D01*
X12159881Y-14688976D01*
X12140833Y-14679452D01*
X12131309Y-14669928D01*
X12121786Y-14650881D01*
X12112262Y-14612786D01*
X12112262Y-14565167D01*
X12121786Y-14527071D01*
X12131309Y-14508024D01*
X12140833Y-14498500D01*
X12159881Y-14488976D01*
X12312262Y-14688976D02*
X12312262Y-14555643D01*
X12312262Y-14574690D02*
X12321786Y-14565167D01*
X12340833Y-14555643D01*
X12369405Y-14555643D01*
X12388452Y-14565167D01*
X12397976Y-14584214D01*
X12397976Y-14688976D01*
X12397976Y-14584214D02*
X12407500Y-14565167D01*
X12426548Y-14555643D01*
X12455119Y-14555643D01*
X12474167Y-14565167D01*
X12483690Y-14584214D01*
X12483690Y-14688976D01*
X12578928Y-14688976D02*
X12578928Y-14555643D01*
X12578928Y-14574690D02*
X12588452Y-14565167D01*
X12607500Y-14555643D01*
X12636071Y-14555643D01*
X12655119Y-14565167D01*
X12664643Y-14584214D01*
X12664643Y-14688976D01*
X12664643Y-14584214D02*
X12674167Y-14565167D01*
X12693214Y-14555643D01*
X12721786Y-14555643D01*
X12740833Y-14565167D01*
X12750357Y-14584214D01*
X12750357Y-14688976D01*
X13140833Y-14479452D02*
X12969405Y-14736595D01*
X13397976Y-14488976D02*
X13417024Y-14488976D01*
X13436071Y-14498500D01*
X13445595Y-14508024D01*
X13455119Y-14527071D01*
X13464643Y-14565167D01*
X13464643Y-14612786D01*
X13455119Y-14650881D01*
X13445595Y-14669928D01*
X13436071Y-14679452D01*
X13417024Y-14688976D01*
X13397976Y-14688976D01*
X13378928Y-14679452D01*
X13369405Y-14669928D01*
X13359881Y-14650881D01*
X13350357Y-14612786D01*
X13350357Y-14565167D01*
X13359881Y-14527071D01*
X13369405Y-14508024D01*
X13378928Y-14498500D01*
X13397976Y-14488976D01*
X13550357Y-14669928D02*
X13559881Y-14679452D01*
X13550357Y-14688976D01*
X13540833Y-14679452D01*
X13550357Y-14669928D01*
X13550357Y-14688976D01*
X13683690Y-14488976D02*
X13702738Y-14488976D01*
X13721786Y-14498500D01*
X13731309Y-14508024D01*
X13740833Y-14527071D01*
X13750357Y-14565167D01*
X13750357Y-14612786D01*
X13740833Y-14650881D01*
X13731309Y-14669928D01*
X13721786Y-14679452D01*
X13702738Y-14688976D01*
X13683690Y-14688976D01*
X13664643Y-14679452D01*
X13655119Y-14669928D01*
X13645595Y-14650881D01*
X13636071Y-14612786D01*
X13636071Y-14565167D01*
X13645595Y-14527071D01*
X13655119Y-14508024D01*
X13664643Y-14498500D01*
X13683690Y-14488976D01*
X13921786Y-14488976D02*
X13883690Y-14488976D01*
X13864643Y-14498500D01*
X13855119Y-14508024D01*
X13836071Y-14536595D01*
X13826548Y-14574690D01*
X13826548Y-14650881D01*
X13836071Y-14669928D01*
X13845595Y-14679452D01*
X13864643Y-14688976D01*
X13902738Y-14688976D01*
X13921786Y-14679452D01*
X13931309Y-14669928D01*
X13940833Y-14650881D01*
X13940833Y-14603262D01*
X13931309Y-14584214D01*
X13921786Y-14574690D01*
X13902738Y-14565167D01*
X13864643Y-14565167D01*
X13845595Y-14574690D01*
X13836071Y-14584214D01*
X13826548Y-14603262D01*
X14007500Y-14488976D02*
X14131309Y-14488976D01*
X14064643Y-14565167D01*
X14093214Y-14565167D01*
X14112262Y-14574690D01*
X14121786Y-14584214D01*
X14131309Y-14603262D01*
X14131309Y-14650881D01*
X14121786Y-14669928D01*
X14112262Y-14679452D01*
X14093214Y-14688976D01*
X14036071Y-14688976D01*
X14017024Y-14679452D01*
X14007500Y-14669928D01*
X14255119Y-14488976D02*
X14274167Y-14488976D01*
X14293214Y-14498500D01*
X14302738Y-14508024D01*
X14312262Y-14527071D01*
X14321786Y-14565167D01*
X14321786Y-14612786D01*
X14312262Y-14650881D01*
X14302738Y-14669928D01*
X14293214Y-14679452D01*
X14274167Y-14688976D01*
X14255119Y-14688976D01*
X14236071Y-14679452D01*
X14226548Y-14669928D01*
X14217024Y-14650881D01*
X14207500Y-14612786D01*
X14207500Y-14565167D01*
X14217024Y-14527071D01*
X14226548Y-14508024D01*
X14236071Y-14498500D01*
X14255119Y-14488976D01*
X14397976Y-14488976D02*
X14397976Y-14527071D01*
X14474167Y-14488976D02*
X14474167Y-14527071D01*
X14769405Y-14765167D02*
X14759881Y-14755643D01*
X14740833Y-14727071D01*
X14731309Y-14708024D01*
X14721786Y-14679452D01*
X14712262Y-14631833D01*
X14712262Y-14593738D01*
X14721786Y-14546119D01*
X14731309Y-14517548D01*
X14740833Y-14498500D01*
X14759881Y-14469928D01*
X14769405Y-14460405D01*
X14931309Y-14555643D02*
X14931309Y-14688976D01*
X14883690Y-14479452D02*
X14836071Y-14622309D01*
X14959881Y-14622309D01*
X15188452Y-14688976D02*
X15188452Y-14488976D01*
X15274167Y-14688976D02*
X15274167Y-14584214D01*
X15264643Y-14565167D01*
X15245595Y-14555643D01*
X15217024Y-14555643D01*
X15197976Y-14565167D01*
X15188452Y-14574690D01*
X15397976Y-14688976D02*
X15378928Y-14679452D01*
X15369405Y-14669928D01*
X15359881Y-14650881D01*
X15359881Y-14593738D01*
X15369405Y-14574690D01*
X15378928Y-14565167D01*
X15397976Y-14555643D01*
X15426548Y-14555643D01*
X15445595Y-14565167D01*
X15455119Y-14574690D01*
X15464643Y-14593738D01*
X15464643Y-14650881D01*
X15455119Y-14669928D01*
X15445595Y-14679452D01*
X15426548Y-14688976D01*
X15397976Y-14688976D01*
X15578928Y-14688976D02*
X15559881Y-14679452D01*
X15550357Y-14660405D01*
X15550357Y-14488976D01*
X15731309Y-14679452D02*
X15712262Y-14688976D01*
X15674167Y-14688976D01*
X15655119Y-14679452D01*
X15645595Y-14660405D01*
X15645595Y-14584214D01*
X15655119Y-14565167D01*
X15674167Y-14555643D01*
X15712262Y-14555643D01*
X15731309Y-14565167D01*
X15740833Y-14584214D01*
X15740833Y-14603262D01*
X15645595Y-14622309D01*
X15817024Y-14679452D02*
X15836071Y-14688976D01*
X15874167Y-14688976D01*
X15893214Y-14679452D01*
X15902738Y-14660405D01*
X15902738Y-14650881D01*
X15893214Y-14631833D01*
X15874167Y-14622309D01*
X15845595Y-14622309D01*
X15826548Y-14612786D01*
X15817024Y-14593738D01*
X15817024Y-14584214D01*
X15826548Y-14565167D01*
X15845595Y-14555643D01*
X15874167Y-14555643D01*
X15893214Y-14565167D01*
X15969405Y-14765167D02*
X15978928Y-14755643D01*
X15997976Y-14727071D01*
X16007500Y-14708024D01*
X16017024Y-14679452D01*
X16026548Y-14631833D01*
X16026548Y-14593738D01*
X16017024Y-14546119D01*
X16007500Y-14517548D01*
X15997976Y-14498500D01*
X15978928Y-14469928D01*
X15969405Y-14460405D01*
M02*
