M48
; DRILL file {KiCad (5.1.7)-1} date 12/19/20 13:21:20
; FORMAT={-:-/ absolute / metric / decimal}
; #@! TF.CreationDate,2020-12-19T13:21:20+02:00
; #@! TF.GenerationSoftware,Kicad,Pcbnew,(5.1.7)-1
; #@! TF.FileFunction,Plated,1,2,PTH
FMAT,2
METRIC
T1C0.800
T2C0.950
T3C1.000
%
G90
G05
T1
X154.5Y-58.0
X138.0Y-58.0
X138.0Y-60.54
X138.0Y-63.08
X149.0Y-58.0
X149.0Y-60.54
X149.0Y-63.08
X154.5Y-60.54
X154.5Y-63.08
X143.5Y-58.0
X143.5Y-60.54
X143.5Y-63.08
T2
X136.0Y-38.0
X138.5Y-38.0
X141.0Y-38.0
X143.5Y-38.0
X150.0Y-38.0
X152.5Y-38.0
X155.0Y-38.0
X157.5Y-38.0
T3
X151.0Y-69.5
X153.5Y-69.5
X166.0Y-53.0
X166.0Y-62.0
X133.0Y-53.0
X133.0Y-62.0
X127.5Y-53.0
X127.5Y-62.0
X140.0Y-69.5
X142.5Y-69.5
X140.0Y-78.0
X142.5Y-78.0
X151.0Y-78.0
X153.5Y-78.0
X160.5Y-53.0
X160.5Y-62.0
X129.0Y-69.5
X131.5Y-69.5
X162.0Y-69.5
X164.5Y-69.5
T0
M30
