G04 #@! TF.GenerationSoftware,KiCad,Pcbnew,(6.0.1)*
G04 #@! TF.CreationDate,2022-01-19T14:13:58+00:00*
G04 #@! TF.ProjectId,power_supply,706f7765-725f-4737-9570-706c792e6b69,rev?*
G04 #@! TF.SameCoordinates,Original*
G04 #@! TF.FileFunction,Other,ECO1*
%FSLAX46Y46*%
G04 Gerber Fmt 4.6, Leading zero omitted, Abs format (unit mm)*
G04 Created by KiCad (PCBNEW (6.0.1)) date 2022-01-19 14:13:58*
%MOMM*%
%LPD*%
G01*
G04 APERTURE LIST*
%ADD10C,0.150000*%
G04 APERTURE END LIST*
D10*
X207897619Y-131619047D02*
X207850000Y-131571428D01*
X207802380Y-131476190D01*
X207802380Y-131238095D01*
X207850000Y-131142857D01*
X207897619Y-131095238D01*
X207992857Y-131047619D01*
X208088095Y-131047619D01*
X208230952Y-131095238D01*
X208802380Y-131666666D01*
X208802380Y-131047619D01*
X207802380Y-130714285D02*
X207802380Y-130095238D01*
X208183333Y-130428571D01*
X208183333Y-130285714D01*
X208230952Y-130190476D01*
X208278571Y-130142857D01*
X208373809Y-130095238D01*
X208611904Y-130095238D01*
X208707142Y-130142857D01*
X208754761Y-130190476D01*
X208802380Y-130285714D01*
X208802380Y-130571428D01*
X208754761Y-130666666D01*
X208707142Y-130714285D01*
X208707142Y-129666666D02*
X208754761Y-129619047D01*
X208802380Y-129666666D01*
X208754761Y-129714285D01*
X208707142Y-129666666D01*
X208802380Y-129666666D01*
X207802380Y-129000000D02*
X207802380Y-128904761D01*
X207850000Y-128809523D01*
X207897619Y-128761904D01*
X207992857Y-128714285D01*
X208183333Y-128666666D01*
X208421428Y-128666666D01*
X208611904Y-128714285D01*
X208707142Y-128761904D01*
X208754761Y-128809523D01*
X208802380Y-128904761D01*
X208802380Y-129000000D01*
X208754761Y-129095238D01*
X208707142Y-129142857D01*
X208611904Y-129190476D01*
X208421428Y-129238095D01*
X208183333Y-129238095D01*
X207992857Y-129190476D01*
X207897619Y-129142857D01*
X207850000Y-129095238D01*
X207802380Y-129000000D01*
X207802380Y-128047619D02*
X207802380Y-127952380D01*
X207850000Y-127857142D01*
X207897619Y-127809523D01*
X207992857Y-127761904D01*
X208183333Y-127714285D01*
X208421428Y-127714285D01*
X208611904Y-127761904D01*
X208707142Y-127809523D01*
X208754761Y-127857142D01*
X208802380Y-127952380D01*
X208802380Y-128047619D01*
X208754761Y-128142857D01*
X208707142Y-128190476D01*
X208611904Y-128238095D01*
X208421428Y-128285714D01*
X208183333Y-128285714D01*
X207992857Y-128238095D01*
X207897619Y-128190476D01*
X207850000Y-128142857D01*
X207802380Y-128047619D01*
X207802380Y-127095238D02*
X207802380Y-127000000D01*
X207850000Y-126904761D01*
X207897619Y-126857142D01*
X207992857Y-126809523D01*
X208183333Y-126761904D01*
X208421428Y-126761904D01*
X208611904Y-126809523D01*
X208707142Y-126857142D01*
X208754761Y-126904761D01*
X208802380Y-127000000D01*
X208802380Y-127095238D01*
X208754761Y-127190476D01*
X208707142Y-127238095D01*
X208611904Y-127285714D01*
X208421428Y-127333333D01*
X208183333Y-127333333D01*
X207992857Y-127285714D01*
X207897619Y-127238095D01*
X207850000Y-127190476D01*
X207802380Y-127095238D01*
X207802380Y-126142857D02*
X207802380Y-126047619D01*
X207850000Y-125952380D01*
X207897619Y-125904761D01*
X207992857Y-125857142D01*
X208183333Y-125809523D01*
X208421428Y-125809523D01*
X208611904Y-125857142D01*
X208707142Y-125904761D01*
X208754761Y-125952380D01*
X208802380Y-126047619D01*
X208802380Y-126142857D01*
X208754761Y-126238095D01*
X208707142Y-126285714D01*
X208611904Y-126333333D01*
X208421428Y-126380952D01*
X208183333Y-126380952D01*
X207992857Y-126333333D01*
X207897619Y-126285714D01*
X207850000Y-126238095D01*
X207802380Y-126142857D01*
X208802380Y-124619047D02*
X208135714Y-124619047D01*
X208230952Y-124619047D02*
X208183333Y-124571428D01*
X208135714Y-124476190D01*
X208135714Y-124333333D01*
X208183333Y-124238095D01*
X208278571Y-124190476D01*
X208802380Y-124190476D01*
X208278571Y-124190476D02*
X208183333Y-124142857D01*
X208135714Y-124047619D01*
X208135714Y-123904761D01*
X208183333Y-123809523D01*
X208278571Y-123761904D01*
X208802380Y-123761904D01*
X208802380Y-123285714D02*
X208135714Y-123285714D01*
X208230952Y-123285714D02*
X208183333Y-123238095D01*
X208135714Y-123142857D01*
X208135714Y-123000000D01*
X208183333Y-122904761D01*
X208278571Y-122857142D01*
X208802380Y-122857142D01*
X208278571Y-122857142D02*
X208183333Y-122809523D01*
X208135714Y-122714285D01*
X208135714Y-122571428D01*
X208183333Y-122476190D01*
X208278571Y-122428571D01*
X208802380Y-122428571D01*
X200500000Y-138500000D02*
X210086420Y-138500000D01*
X200500000Y-115500000D02*
X210086420Y-115500000D01*
X209500000Y-138500000D02*
X209500000Y-115500000D01*
X209500000Y-138500000D02*
X209500000Y-115500000D01*
X209500000Y-138500000D02*
X210086421Y-137373496D01*
X209500000Y-138500000D02*
X208913579Y-137373496D01*
X209500000Y-115500000D02*
X208913579Y-116626504D01*
X209500000Y-115500000D02*
X210086421Y-116626504D01*
X213635714Y-140392857D02*
X214302380Y-140392857D01*
X213254761Y-140630952D02*
X213969047Y-140869047D01*
X213969047Y-140250000D01*
X213730952Y-139726190D02*
X213683333Y-139821428D01*
X213635714Y-139869047D01*
X213540476Y-139916666D01*
X213492857Y-139916666D01*
X213397619Y-139869047D01*
X213350000Y-139821428D01*
X213302380Y-139726190D01*
X213302380Y-139535714D01*
X213350000Y-139440476D01*
X213397619Y-139392857D01*
X213492857Y-139345238D01*
X213540476Y-139345238D01*
X213635714Y-139392857D01*
X213683333Y-139440476D01*
X213730952Y-139535714D01*
X213730952Y-139726190D01*
X213778571Y-139821428D01*
X213826190Y-139869047D01*
X213921428Y-139916666D01*
X214111904Y-139916666D01*
X214207142Y-139869047D01*
X214254761Y-139821428D01*
X214302380Y-139726190D01*
X214302380Y-139535714D01*
X214254761Y-139440476D01*
X214207142Y-139392857D01*
X214111904Y-139345238D01*
X213921428Y-139345238D01*
X213826190Y-139392857D01*
X213778571Y-139440476D01*
X213730952Y-139535714D01*
X214207142Y-138916666D02*
X214254761Y-138869047D01*
X214302380Y-138916666D01*
X214254761Y-138964285D01*
X214207142Y-138916666D01*
X214302380Y-138916666D01*
X213302380Y-137964285D02*
X213302380Y-138440476D01*
X213778571Y-138488095D01*
X213730952Y-138440476D01*
X213683333Y-138345238D01*
X213683333Y-138107142D01*
X213730952Y-138011904D01*
X213778571Y-137964285D01*
X213873809Y-137916666D01*
X214111904Y-137916666D01*
X214207142Y-137964285D01*
X214254761Y-138011904D01*
X214302380Y-138107142D01*
X214302380Y-138345238D01*
X214254761Y-138440476D01*
X214207142Y-138488095D01*
X213302380Y-137297619D02*
X213302380Y-137202380D01*
X213350000Y-137107142D01*
X213397619Y-137059523D01*
X213492857Y-137011904D01*
X213683333Y-136964285D01*
X213921428Y-136964285D01*
X214111904Y-137011904D01*
X214207142Y-137059523D01*
X214254761Y-137107142D01*
X214302380Y-137202380D01*
X214302380Y-137297619D01*
X214254761Y-137392857D01*
X214207142Y-137440476D01*
X214111904Y-137488095D01*
X213921428Y-137535714D01*
X213683333Y-137535714D01*
X213492857Y-137488095D01*
X213397619Y-137440476D01*
X213350000Y-137392857D01*
X213302380Y-137297619D01*
X213302380Y-136345238D02*
X213302380Y-136250000D01*
X213350000Y-136154761D01*
X213397619Y-136107142D01*
X213492857Y-136059523D01*
X213683333Y-136011904D01*
X213921428Y-136011904D01*
X214111904Y-136059523D01*
X214207142Y-136107142D01*
X214254761Y-136154761D01*
X214302380Y-136250000D01*
X214302380Y-136345238D01*
X214254761Y-136440476D01*
X214207142Y-136488095D01*
X214111904Y-136535714D01*
X213921428Y-136583333D01*
X213683333Y-136583333D01*
X213492857Y-136535714D01*
X213397619Y-136488095D01*
X213350000Y-136440476D01*
X213302380Y-136345238D01*
X213302380Y-135392857D02*
X213302380Y-135297619D01*
X213350000Y-135202380D01*
X213397619Y-135154761D01*
X213492857Y-135107142D01*
X213683333Y-135059523D01*
X213921428Y-135059523D01*
X214111904Y-135107142D01*
X214207142Y-135154761D01*
X214254761Y-135202380D01*
X214302380Y-135297619D01*
X214302380Y-135392857D01*
X214254761Y-135488095D01*
X214207142Y-135535714D01*
X214111904Y-135583333D01*
X213921428Y-135630952D01*
X213683333Y-135630952D01*
X213492857Y-135583333D01*
X213397619Y-135535714D01*
X213350000Y-135488095D01*
X213302380Y-135392857D01*
X214302380Y-133869047D02*
X213635714Y-133869047D01*
X213730952Y-133869047D02*
X213683333Y-133821428D01*
X213635714Y-133726190D01*
X213635714Y-133583333D01*
X213683333Y-133488095D01*
X213778571Y-133440476D01*
X214302380Y-133440476D01*
X213778571Y-133440476D02*
X213683333Y-133392857D01*
X213635714Y-133297619D01*
X213635714Y-133154761D01*
X213683333Y-133059523D01*
X213778571Y-133011904D01*
X214302380Y-133011904D01*
X214302380Y-132535714D02*
X213635714Y-132535714D01*
X213730952Y-132535714D02*
X213683333Y-132488095D01*
X213635714Y-132392857D01*
X213635714Y-132250000D01*
X213683333Y-132154761D01*
X213778571Y-132107142D01*
X214302380Y-132107142D01*
X213778571Y-132107142D02*
X213683333Y-132059523D01*
X213635714Y-131964285D01*
X213635714Y-131821428D01*
X213683333Y-131726190D01*
X213778571Y-131678571D01*
X214302380Y-131678571D01*
X204000000Y-160500000D02*
X215586420Y-160500000D01*
X204000000Y-112000000D02*
X215586420Y-112000000D01*
X215000000Y-160500000D02*
X215000000Y-112000000D01*
X215000000Y-160500000D02*
X215000000Y-112000000D01*
X215000000Y-160500000D02*
X215586421Y-159373496D01*
X215000000Y-160500000D02*
X214413579Y-159373496D01*
X215000000Y-112000000D02*
X214413579Y-113126504D01*
X215000000Y-112000000D02*
X215586421Y-113126504D01*
X176583333Y-103802380D02*
X177202380Y-103802380D01*
X176869047Y-104183333D01*
X177011904Y-104183333D01*
X177107142Y-104230952D01*
X177154761Y-104278571D01*
X177202380Y-104373809D01*
X177202380Y-104611904D01*
X177154761Y-104707142D01*
X177107142Y-104754761D01*
X177011904Y-104802380D01*
X176726190Y-104802380D01*
X176630952Y-104754761D01*
X176583333Y-104707142D01*
X177773809Y-104230952D02*
X177678571Y-104183333D01*
X177630952Y-104135714D01*
X177583333Y-104040476D01*
X177583333Y-103992857D01*
X177630952Y-103897619D01*
X177678571Y-103850000D01*
X177773809Y-103802380D01*
X177964285Y-103802380D01*
X178059523Y-103850000D01*
X178107142Y-103897619D01*
X178154761Y-103992857D01*
X178154761Y-104040476D01*
X178107142Y-104135714D01*
X178059523Y-104183333D01*
X177964285Y-104230952D01*
X177773809Y-104230952D01*
X177678571Y-104278571D01*
X177630952Y-104326190D01*
X177583333Y-104421428D01*
X177583333Y-104611904D01*
X177630952Y-104707142D01*
X177678571Y-104754761D01*
X177773809Y-104802380D01*
X177964285Y-104802380D01*
X178059523Y-104754761D01*
X178107142Y-104707142D01*
X178154761Y-104611904D01*
X178154761Y-104421428D01*
X178107142Y-104326190D01*
X178059523Y-104278571D01*
X177964285Y-104230952D01*
X178583333Y-104707142D02*
X178630952Y-104754761D01*
X178583333Y-104802380D01*
X178535714Y-104754761D01*
X178583333Y-104707142D01*
X178583333Y-104802380D01*
X179535714Y-103802380D02*
X179059523Y-103802380D01*
X179011904Y-104278571D01*
X179059523Y-104230952D01*
X179154761Y-104183333D01*
X179392857Y-104183333D01*
X179488095Y-104230952D01*
X179535714Y-104278571D01*
X179583333Y-104373809D01*
X179583333Y-104611904D01*
X179535714Y-104707142D01*
X179488095Y-104754761D01*
X179392857Y-104802380D01*
X179154761Y-104802380D01*
X179059523Y-104754761D01*
X179011904Y-104707142D01*
X180202380Y-103802380D02*
X180297619Y-103802380D01*
X180392857Y-103850000D01*
X180440476Y-103897619D01*
X180488095Y-103992857D01*
X180535714Y-104183333D01*
X180535714Y-104421428D01*
X180488095Y-104611904D01*
X180440476Y-104707142D01*
X180392857Y-104754761D01*
X180297619Y-104802380D01*
X180202380Y-104802380D01*
X180107142Y-104754761D01*
X180059523Y-104707142D01*
X180011904Y-104611904D01*
X179964285Y-104421428D01*
X179964285Y-104183333D01*
X180011904Y-103992857D01*
X180059523Y-103897619D01*
X180107142Y-103850000D01*
X180202380Y-103802380D01*
X181154761Y-103802380D02*
X181250000Y-103802380D01*
X181345238Y-103850000D01*
X181392857Y-103897619D01*
X181440476Y-103992857D01*
X181488095Y-104183333D01*
X181488095Y-104421428D01*
X181440476Y-104611904D01*
X181392857Y-104707142D01*
X181345238Y-104754761D01*
X181250000Y-104802380D01*
X181154761Y-104802380D01*
X181059523Y-104754761D01*
X181011904Y-104707142D01*
X180964285Y-104611904D01*
X180916666Y-104421428D01*
X180916666Y-104183333D01*
X180964285Y-103992857D01*
X181011904Y-103897619D01*
X181059523Y-103850000D01*
X181154761Y-103802380D01*
X182107142Y-103802380D02*
X182202380Y-103802380D01*
X182297619Y-103850000D01*
X182345238Y-103897619D01*
X182392857Y-103992857D01*
X182440476Y-104183333D01*
X182440476Y-104421428D01*
X182392857Y-104611904D01*
X182345238Y-104707142D01*
X182297619Y-104754761D01*
X182202380Y-104802380D01*
X182107142Y-104802380D01*
X182011904Y-104754761D01*
X181964285Y-104707142D01*
X181916666Y-104611904D01*
X181869047Y-104421428D01*
X181869047Y-104183333D01*
X181916666Y-103992857D01*
X181964285Y-103897619D01*
X182011904Y-103850000D01*
X182107142Y-103802380D01*
X183630952Y-104802380D02*
X183630952Y-104135714D01*
X183630952Y-104230952D02*
X183678571Y-104183333D01*
X183773809Y-104135714D01*
X183916666Y-104135714D01*
X184011904Y-104183333D01*
X184059523Y-104278571D01*
X184059523Y-104802380D01*
X184059523Y-104278571D02*
X184107142Y-104183333D01*
X184202380Y-104135714D01*
X184345238Y-104135714D01*
X184440476Y-104183333D01*
X184488095Y-104278571D01*
X184488095Y-104802380D01*
X184964285Y-104802380D02*
X184964285Y-104135714D01*
X184964285Y-104230952D02*
X185011904Y-104183333D01*
X185107142Y-104135714D01*
X185250000Y-104135714D01*
X185345238Y-104183333D01*
X185392857Y-104278571D01*
X185392857Y-104802380D01*
X185392857Y-104278571D02*
X185440476Y-104183333D01*
X185535714Y-104135714D01*
X185678571Y-104135714D01*
X185773809Y-104183333D01*
X185821428Y-104278571D01*
X185821428Y-104802380D01*
X200500000Y-115500000D02*
X200500000Y-104913580D01*
X162000000Y-115500000D02*
X162000000Y-104913580D01*
X200500000Y-105500000D02*
X162000000Y-105500000D01*
X200500000Y-105500000D02*
X162000000Y-105500000D01*
X200500000Y-105500000D02*
X199373496Y-104913579D01*
X200500000Y-105500000D02*
X199373496Y-106086421D01*
X162000000Y-105500000D02*
X163126504Y-106086421D01*
X162000000Y-105500000D02*
X163126504Y-104913579D01*
X177107142Y-100135714D02*
X177107142Y-100802380D01*
X176869047Y-99754761D02*
X176630952Y-100469047D01*
X177250000Y-100469047D01*
X178107142Y-99802380D02*
X177630952Y-99802380D01*
X177583333Y-100278571D01*
X177630952Y-100230952D01*
X177726190Y-100183333D01*
X177964285Y-100183333D01*
X178059523Y-100230952D01*
X178107142Y-100278571D01*
X178154761Y-100373809D01*
X178154761Y-100611904D01*
X178107142Y-100707142D01*
X178059523Y-100754761D01*
X177964285Y-100802380D01*
X177726190Y-100802380D01*
X177630952Y-100754761D01*
X177583333Y-100707142D01*
X178583333Y-100707142D02*
X178630952Y-100754761D01*
X178583333Y-100802380D01*
X178535714Y-100754761D01*
X178583333Y-100707142D01*
X178583333Y-100802380D01*
X179535714Y-99802380D02*
X179059523Y-99802380D01*
X179011904Y-100278571D01*
X179059523Y-100230952D01*
X179154761Y-100183333D01*
X179392857Y-100183333D01*
X179488095Y-100230952D01*
X179535714Y-100278571D01*
X179583333Y-100373809D01*
X179583333Y-100611904D01*
X179535714Y-100707142D01*
X179488095Y-100754761D01*
X179392857Y-100802380D01*
X179154761Y-100802380D01*
X179059523Y-100754761D01*
X179011904Y-100707142D01*
X180202380Y-99802380D02*
X180297619Y-99802380D01*
X180392857Y-99850000D01*
X180440476Y-99897619D01*
X180488095Y-99992857D01*
X180535714Y-100183333D01*
X180535714Y-100421428D01*
X180488095Y-100611904D01*
X180440476Y-100707142D01*
X180392857Y-100754761D01*
X180297619Y-100802380D01*
X180202380Y-100802380D01*
X180107142Y-100754761D01*
X180059523Y-100707142D01*
X180011904Y-100611904D01*
X179964285Y-100421428D01*
X179964285Y-100183333D01*
X180011904Y-99992857D01*
X180059523Y-99897619D01*
X180107142Y-99850000D01*
X180202380Y-99802380D01*
X181154761Y-99802380D02*
X181250000Y-99802380D01*
X181345238Y-99850000D01*
X181392857Y-99897619D01*
X181440476Y-99992857D01*
X181488095Y-100183333D01*
X181488095Y-100421428D01*
X181440476Y-100611904D01*
X181392857Y-100707142D01*
X181345238Y-100754761D01*
X181250000Y-100802380D01*
X181154761Y-100802380D01*
X181059523Y-100754761D01*
X181011904Y-100707142D01*
X180964285Y-100611904D01*
X180916666Y-100421428D01*
X180916666Y-100183333D01*
X180964285Y-99992857D01*
X181011904Y-99897619D01*
X181059523Y-99850000D01*
X181154761Y-99802380D01*
X182107142Y-99802380D02*
X182202380Y-99802380D01*
X182297619Y-99850000D01*
X182345238Y-99897619D01*
X182392857Y-99992857D01*
X182440476Y-100183333D01*
X182440476Y-100421428D01*
X182392857Y-100611904D01*
X182345238Y-100707142D01*
X182297619Y-100754761D01*
X182202380Y-100802380D01*
X182107142Y-100802380D01*
X182011904Y-100754761D01*
X181964285Y-100707142D01*
X181916666Y-100611904D01*
X181869047Y-100421428D01*
X181869047Y-100183333D01*
X181916666Y-99992857D01*
X181964285Y-99897619D01*
X182011904Y-99850000D01*
X182107142Y-99802380D01*
X183630952Y-100802380D02*
X183630952Y-100135714D01*
X183630952Y-100230952D02*
X183678571Y-100183333D01*
X183773809Y-100135714D01*
X183916666Y-100135714D01*
X184011904Y-100183333D01*
X184059523Y-100278571D01*
X184059523Y-100802380D01*
X184059523Y-100278571D02*
X184107142Y-100183333D01*
X184202380Y-100135714D01*
X184345238Y-100135714D01*
X184440476Y-100183333D01*
X184488095Y-100278571D01*
X184488095Y-100802380D01*
X184964285Y-100802380D02*
X184964285Y-100135714D01*
X184964285Y-100230952D02*
X185011904Y-100183333D01*
X185107142Y-100135714D01*
X185250000Y-100135714D01*
X185345238Y-100183333D01*
X185392857Y-100278571D01*
X185392857Y-100802380D01*
X185392857Y-100278571D02*
X185440476Y-100183333D01*
X185535714Y-100135714D01*
X185678571Y-100135714D01*
X185773809Y-100183333D01*
X185821428Y-100278571D01*
X185821428Y-100802380D01*
X204000000Y-112000000D02*
X204000000Y-100913580D01*
X158500000Y-112000000D02*
X158500000Y-100913580D01*
X204000000Y-101500000D02*
X158500000Y-101500000D01*
X204000000Y-101500000D02*
X158500000Y-101500000D01*
X204000000Y-101500000D02*
X202873496Y-100913579D01*
X204000000Y-101500000D02*
X202873496Y-102086421D01*
X158500000Y-101500000D02*
X159626504Y-102086421D01*
X158500000Y-101500000D02*
X159626504Y-100913579D01*
M02*
