M48
; DRILL file {KiCad 5.1.6-c6e7f7d~87~ubuntu20.04.1} date Fri Aug 21 13:28:02 2020
; FORMAT={-:-/ absolute / metric / decimal}
; #@! TF.CreationDate,2020-08-21T13:28:02+01:00
; #@! TF.GenerationSoftware,Kicad,Pcbnew,5.1.6-c6e7f7d~87~ubuntu20.04.1
; #@! TF.FileFunction,Plated,1,2,PTH
FMAT,2
METRIC
T1C0.800
T2C0.950
T3C1.000
T4C1.100
T5C1.200
T6C1.300
%
G90
G05
T1
X197.0Y-127.0
X200.8Y-127.0
T2
X163.0Y-123.0
X163.0Y-125.5
X163.0Y-128.0
X163.0Y-130.5
T3
X172.5Y-128.5
X177.5Y-128.5
X191.0Y-137.5
X193.5Y-137.5
X191.0Y-116.5
X193.5Y-116.5
T4
X174.5Y-121.5
X176.2Y-117.8
X177.9Y-121.5
X179.6Y-117.8
X181.3Y-121.5
T5
X186.0Y-127.0
X191.0Y-127.0
T6
X170.76Y-137.5
X186.0Y-137.5
T0
M30
