G04 #@! TF.GenerationSoftware,KiCad,Pcbnew,(5.1.7)-1*
G04 #@! TF.CreationDate,2021-02-14T19:11:41+02:00*
G04 #@! TF.ProjectId,power_supply,706f7765-725f-4737-9570-706c792e6b69,rev?*
G04 #@! TF.SameCoordinates,Original*
G04 #@! TF.FileFunction,Copper,L2,Bot*
G04 #@! TF.FilePolarity,Positive*
%FSLAX46Y46*%
G04 Gerber Fmt 4.6, Leading zero omitted, Abs format (unit mm)*
G04 Created by KiCad (PCBNEW (5.1.7)-1) date 2021-02-14 19:11:41*
%MOMM*%
%LPD*%
G01*
G04 APERTURE LIST*
G04 #@! TA.AperFunction,ComponentPad*
%ADD10O,1.700000X2.000000*%
G04 #@! TD*
G04 #@! TA.AperFunction,ComponentPad*
%ADD11O,2.000000X1.700000*%
G04 #@! TD*
G04 #@! TA.AperFunction,ComponentPad*
%ADD12C,2.000000*%
G04 #@! TD*
G04 #@! TA.AperFunction,ComponentPad*
%ADD13C,1.800000*%
G04 #@! TD*
G04 #@! TA.AperFunction,ComponentPad*
%ADD14R,1.800000X1.800000*%
G04 #@! TD*
G04 #@! TA.AperFunction,ComponentPad*
%ADD15R,2.000000X2.000000*%
G04 #@! TD*
G04 #@! TA.AperFunction,ComponentPad*
%ADD16R,1.600000X1.600000*%
G04 #@! TD*
G04 #@! TA.AperFunction,ComponentPad*
%ADD17C,1.600000*%
G04 #@! TD*
G04 #@! TA.AperFunction,ComponentPad*
%ADD18R,2.600000X2.600000*%
G04 #@! TD*
G04 #@! TA.AperFunction,ComponentPad*
%ADD19O,2.600000X2.600000*%
G04 #@! TD*
G04 #@! TA.AperFunction,ComponentPad*
%ADD20C,2.400000*%
G04 #@! TD*
G04 #@! TA.AperFunction,ComponentPad*
%ADD21O,1.800000X1.800000*%
G04 #@! TD*
G04 #@! TA.AperFunction,Conductor*
%ADD22C,0.500000*%
G04 #@! TD*
G04 #@! TA.AperFunction,Conductor*
%ADD23C,0.100000*%
G04 #@! TD*
G04 APERTURE END LIST*
D10*
X189000000Y-156000000D03*
G04 #@! TA.AperFunction,ComponentPad*
G36*
G01*
X192350000Y-155250000D02*
X192350000Y-156750000D01*
G75*
G02*
X192100000Y-157000000I-250000J0D01*
G01*
X190900000Y-157000000D01*
G75*
G02*
X190650000Y-156750000I0J250000D01*
G01*
X190650000Y-155250000D01*
G75*
G02*
X190900000Y-155000000I250000J0D01*
G01*
X192100000Y-155000000D01*
G75*
G02*
X192350000Y-155250000I0J-250000D01*
G01*
G37*
G04 #@! TD.AperFunction*
D11*
X199500000Y-147500000D03*
G04 #@! TA.AperFunction,ComponentPad*
G36*
G01*
X198750000Y-144150000D02*
X200250000Y-144150000D01*
G75*
G02*
X200500000Y-144400000I0J-250000D01*
G01*
X200500000Y-145600000D01*
G75*
G02*
X200250000Y-145850000I-250000J0D01*
G01*
X198750000Y-145850000D01*
G75*
G02*
X198500000Y-145600000I0J250000D01*
G01*
X198500000Y-144400000D01*
G75*
G02*
X198750000Y-144150000I250000J0D01*
G01*
G37*
G04 #@! TD.AperFunction*
D12*
X162500000Y-140000000D03*
X171500000Y-140000000D03*
D13*
X162500000Y-144960000D03*
D14*
X162500000Y-147500000D03*
G04 #@! TA.AperFunction,ComponentPad*
G36*
G01*
X163750000Y-125850000D02*
X162250000Y-125850000D01*
G75*
G02*
X162000000Y-125600000I0J250000D01*
G01*
X162000000Y-124400000D01*
G75*
G02*
X162250000Y-124150000I250000J0D01*
G01*
X163750000Y-124150000D01*
G75*
G02*
X164000000Y-124400000I0J-250000D01*
G01*
X164000000Y-125600000D01*
G75*
G02*
X163750000Y-125850000I-250000J0D01*
G01*
G37*
G04 #@! TD.AperFunction*
D11*
X163000000Y-122500000D03*
G04 #@! TA.AperFunction,ComponentPad*
G36*
G01*
X163750000Y-134850000D02*
X162250000Y-134850000D01*
G75*
G02*
X162000000Y-134600000I0J250000D01*
G01*
X162000000Y-133400000D01*
G75*
G02*
X162250000Y-133150000I250000J0D01*
G01*
X163750000Y-133150000D01*
G75*
G02*
X164000000Y-133400000I0J-250000D01*
G01*
X164000000Y-134600000D01*
G75*
G02*
X163750000Y-134850000I-250000J0D01*
G01*
G37*
G04 #@! TD.AperFunction*
X163000000Y-131500000D03*
D12*
X179500000Y-131000000D03*
D15*
X174500000Y-131000000D03*
D16*
X192000000Y-119000000D03*
D17*
X192000000Y-115200000D03*
D18*
X186000000Y-134500000D03*
D19*
X186000000Y-149740000D03*
G04 #@! TA.AperFunction,ComponentPad*
G36*
G01*
X198750000Y-124150000D02*
X200250000Y-124150000D01*
G75*
G02*
X200500000Y-124400000I0J-250000D01*
G01*
X200500000Y-125600000D01*
G75*
G02*
X200250000Y-125850000I-250000J0D01*
G01*
X198750000Y-125850000D01*
G75*
G02*
X198500000Y-125600000I0J250000D01*
G01*
X198500000Y-124400000D01*
G75*
G02*
X198750000Y-124150000I250000J0D01*
G01*
G37*
G04 #@! TD.AperFunction*
D11*
X199500000Y-127500000D03*
G04 #@! TA.AperFunction,ComponentPad*
G36*
G01*
X198750000Y-134150000D02*
X200250000Y-134150000D01*
G75*
G02*
X200500000Y-134400000I0J-250000D01*
G01*
X200500000Y-135600000D01*
G75*
G02*
X200250000Y-135850000I-250000J0D01*
G01*
X198750000Y-135850000D01*
G75*
G02*
X198500000Y-135600000I0J250000D01*
G01*
X198500000Y-134400000D01*
G75*
G02*
X198750000Y-134150000I250000J0D01*
G01*
G37*
G04 #@! TD.AperFunction*
X199500000Y-137500000D03*
D20*
X186000000Y-127000000D03*
X191000000Y-127000000D03*
D14*
X174500000Y-121500000D03*
D21*
X176200000Y-117800000D03*
X177900000Y-121500000D03*
X179600000Y-117800000D03*
X181300000Y-121500000D03*
D22*
X196750000Y-119000000D02*
X196754804Y-119048773D01*
X196769030Y-119095671D01*
X196792133Y-119138893D01*
X196823223Y-119176777D01*
X196861107Y-119207867D01*
X196904329Y-119230970D01*
X196951227Y-119245196D01*
X197000000Y-119250000D01*
X203225000Y-119250000D01*
X203225001Y-153250000D01*
X197000000Y-153250000D01*
X196951227Y-153254804D01*
X196904329Y-153269030D01*
X196861107Y-153292133D01*
X196823223Y-153323223D01*
X196792133Y-153361107D01*
X196769030Y-153404329D01*
X196754804Y-153451227D01*
X196750000Y-153500000D01*
X196750000Y-159725000D01*
X165750000Y-159725000D01*
X165750000Y-156497839D01*
X187443074Y-156497839D01*
X187540850Y-156794897D01*
X187694700Y-157067172D01*
X187898712Y-157304200D01*
X188145046Y-157496873D01*
X188424236Y-157637786D01*
X188505857Y-157671783D01*
X188750000Y-157540200D01*
X188750000Y-156250000D01*
X187595328Y-156250000D01*
X187443074Y-156497839D01*
X165750000Y-156497839D01*
X165750000Y-155502161D01*
X187443074Y-155502161D01*
X187595328Y-155750000D01*
X188750000Y-155750000D01*
X188750000Y-154459800D01*
X189250000Y-154459800D01*
X189250000Y-155750000D01*
X189270000Y-155750000D01*
X189270000Y-156250000D01*
X189250000Y-156250000D01*
X189250000Y-157540200D01*
X189494143Y-157671783D01*
X189575764Y-157637786D01*
X189854954Y-157496873D01*
X190077807Y-157322566D01*
X190190328Y-157459672D01*
X190342414Y-157584486D01*
X190515928Y-157677231D01*
X190704202Y-157734344D01*
X190900000Y-157753628D01*
X192100000Y-157753628D01*
X192295798Y-157734344D01*
X192484072Y-157677231D01*
X192657586Y-157584486D01*
X192809672Y-157459672D01*
X192934486Y-157307586D01*
X193027231Y-157134072D01*
X193084344Y-156945798D01*
X193103628Y-156750000D01*
X193103628Y-155250000D01*
X193084344Y-155054202D01*
X193027231Y-154865928D01*
X192934486Y-154692414D01*
X192809672Y-154540328D01*
X192657586Y-154415514D01*
X192484072Y-154322769D01*
X192295798Y-154265656D01*
X192100000Y-154246372D01*
X190900000Y-154246372D01*
X190704202Y-154265656D01*
X190515928Y-154322769D01*
X190342414Y-154415514D01*
X190190328Y-154540328D01*
X190077807Y-154677434D01*
X189854954Y-154503127D01*
X189575764Y-154362214D01*
X189494143Y-154328217D01*
X189250000Y-154459800D01*
X188750000Y-154459800D01*
X188505857Y-154328217D01*
X188424236Y-154362214D01*
X188145046Y-154503127D01*
X187898712Y-154695800D01*
X187694700Y-154932828D01*
X187540850Y-155205103D01*
X187443074Y-155502161D01*
X165750000Y-155502161D01*
X165750000Y-153500000D01*
X165745196Y-153451227D01*
X165730970Y-153404329D01*
X165707867Y-153361107D01*
X165676777Y-153323223D01*
X165638893Y-153292133D01*
X165595671Y-153269030D01*
X165548773Y-153254804D01*
X165500000Y-153250000D01*
X159275000Y-153250000D01*
X159275000Y-150305220D01*
X184029453Y-150305220D01*
X184177585Y-150678794D01*
X184395752Y-151016291D01*
X184675569Y-151304741D01*
X185006283Y-151533059D01*
X185375185Y-151692470D01*
X185434781Y-151710540D01*
X185750000Y-151585645D01*
X185750000Y-149990000D01*
X186250000Y-149990000D01*
X186250000Y-151585645D01*
X186565219Y-151710540D01*
X186624815Y-151692470D01*
X186993717Y-151533059D01*
X187324431Y-151304741D01*
X187604248Y-151016291D01*
X187822415Y-150678794D01*
X187970547Y-150305220D01*
X187847206Y-149990000D01*
X186250000Y-149990000D01*
X185750000Y-149990000D01*
X184152794Y-149990000D01*
X184029453Y-150305220D01*
X159275000Y-150305220D01*
X159275000Y-149174780D01*
X184029453Y-149174780D01*
X184152794Y-149490000D01*
X185750000Y-149490000D01*
X185750000Y-147894355D01*
X186250000Y-147894355D01*
X186250000Y-149490000D01*
X187847206Y-149490000D01*
X187970547Y-149174780D01*
X187822415Y-148801206D01*
X187604248Y-148463709D01*
X187324431Y-148175259D01*
X187062089Y-147994143D01*
X197828217Y-147994143D01*
X197862214Y-148075764D01*
X198003127Y-148354954D01*
X198195800Y-148601288D01*
X198432828Y-148805300D01*
X198705103Y-148959150D01*
X199002161Y-149056926D01*
X199250000Y-148904672D01*
X199250000Y-147750000D01*
X199750000Y-147750000D01*
X199750000Y-148904672D01*
X199997839Y-149056926D01*
X200294897Y-148959150D01*
X200567172Y-148805300D01*
X200804200Y-148601288D01*
X200996873Y-148354954D01*
X201137786Y-148075764D01*
X201171783Y-147994143D01*
X201040200Y-147750000D01*
X199750000Y-147750000D01*
X199250000Y-147750000D01*
X197959800Y-147750000D01*
X197828217Y-147994143D01*
X187062089Y-147994143D01*
X186993717Y-147946941D01*
X186624815Y-147787530D01*
X186565219Y-147769460D01*
X186250000Y-147894355D01*
X185750000Y-147894355D01*
X185434781Y-147769460D01*
X185375185Y-147787530D01*
X185006283Y-147946941D01*
X184675569Y-148175259D01*
X184395752Y-148463709D01*
X184177585Y-148801206D01*
X184029453Y-149174780D01*
X159275000Y-149174780D01*
X159275000Y-148400000D01*
X160846371Y-148400000D01*
X160860852Y-148547026D01*
X160903738Y-148688401D01*
X160973380Y-148818694D01*
X161067104Y-148932896D01*
X161181306Y-149026620D01*
X161311599Y-149096262D01*
X161452974Y-149139148D01*
X161600000Y-149153629D01*
X162062500Y-149150000D01*
X162250000Y-148962500D01*
X162250000Y-147750000D01*
X162750000Y-147750000D01*
X162750000Y-148962500D01*
X162937500Y-149150000D01*
X163400000Y-149153629D01*
X163547026Y-149139148D01*
X163688401Y-149096262D01*
X163818694Y-149026620D01*
X163932896Y-148932896D01*
X164026620Y-148818694D01*
X164096262Y-148688401D01*
X164139148Y-148547026D01*
X164153629Y-148400000D01*
X164150000Y-147937500D01*
X163962500Y-147750000D01*
X162750000Y-147750000D01*
X162250000Y-147750000D01*
X161037500Y-147750000D01*
X160850000Y-147937500D01*
X160846371Y-148400000D01*
X159275000Y-148400000D01*
X159275000Y-146600000D01*
X160846371Y-146600000D01*
X160850000Y-147062500D01*
X161037500Y-147250000D01*
X162250000Y-147250000D01*
X162250000Y-147230000D01*
X162750000Y-147230000D01*
X162750000Y-147250000D01*
X163962500Y-147250000D01*
X164150000Y-147062500D01*
X164153629Y-146600000D01*
X164139148Y-146452974D01*
X164096262Y-146311599D01*
X164026620Y-146181306D01*
X163932896Y-146067104D01*
X163818694Y-145973380D01*
X163810313Y-145968900D01*
X163962211Y-145741568D01*
X164086592Y-145441287D01*
X164150000Y-145122511D01*
X164150000Y-144797489D01*
X164086592Y-144478713D01*
X164053988Y-144400000D01*
X197746372Y-144400000D01*
X197746372Y-145600000D01*
X197765656Y-145795798D01*
X197822769Y-145984072D01*
X197915514Y-146157586D01*
X198040328Y-146309672D01*
X198177434Y-146422193D01*
X198003127Y-146645046D01*
X197862214Y-146924236D01*
X197828217Y-147005857D01*
X197959800Y-147250000D01*
X199250000Y-147250000D01*
X199250000Y-147230000D01*
X199750000Y-147230000D01*
X199750000Y-147250000D01*
X201040200Y-147250000D01*
X201171783Y-147005857D01*
X201137786Y-146924236D01*
X200996873Y-146645046D01*
X200822566Y-146422193D01*
X200959672Y-146309672D01*
X201084486Y-146157586D01*
X201177231Y-145984072D01*
X201234344Y-145795798D01*
X201253628Y-145600000D01*
X201253628Y-144400000D01*
X201234344Y-144204202D01*
X201177231Y-144015928D01*
X201084486Y-143842414D01*
X200959672Y-143690328D01*
X200807586Y-143565514D01*
X200634072Y-143472769D01*
X200445798Y-143415656D01*
X200250000Y-143396372D01*
X198750000Y-143396372D01*
X198554202Y-143415656D01*
X198365928Y-143472769D01*
X198192414Y-143565514D01*
X198040328Y-143690328D01*
X197915514Y-143842414D01*
X197822769Y-144015928D01*
X197765656Y-144204202D01*
X197746372Y-144400000D01*
X164053988Y-144400000D01*
X163962211Y-144178432D01*
X163781639Y-143908186D01*
X163551814Y-143678361D01*
X163281568Y-143497789D01*
X162981287Y-143373408D01*
X162662511Y-143310000D01*
X162337489Y-143310000D01*
X162018713Y-143373408D01*
X161718432Y-143497789D01*
X161448186Y-143678361D01*
X161218361Y-143908186D01*
X161037789Y-144178432D01*
X160913408Y-144478713D01*
X160850000Y-144797489D01*
X160850000Y-145122511D01*
X160913408Y-145441287D01*
X161037789Y-145741568D01*
X161189687Y-145968900D01*
X161181306Y-145973380D01*
X161067104Y-146067104D01*
X160973380Y-146181306D01*
X160903738Y-146311599D01*
X160860852Y-146452974D01*
X160846371Y-146600000D01*
X159275000Y-146600000D01*
X159275000Y-139827640D01*
X160750000Y-139827640D01*
X160750000Y-140172360D01*
X160817251Y-140510456D01*
X160949170Y-140828936D01*
X161140686Y-141115560D01*
X161384440Y-141359314D01*
X161671064Y-141550830D01*
X161989544Y-141682749D01*
X162327640Y-141750000D01*
X162672360Y-141750000D01*
X163010456Y-141682749D01*
X163328936Y-141550830D01*
X163615560Y-141359314D01*
X163859314Y-141115560D01*
X164050830Y-140828936D01*
X164182749Y-140510456D01*
X164250000Y-140172360D01*
X164250000Y-139827640D01*
X169750000Y-139827640D01*
X169750000Y-140172360D01*
X169817251Y-140510456D01*
X169949170Y-140828936D01*
X170140686Y-141115560D01*
X170384440Y-141359314D01*
X170671064Y-141550830D01*
X170989544Y-141682749D01*
X171327640Y-141750000D01*
X171672360Y-141750000D01*
X172010456Y-141682749D01*
X172328936Y-141550830D01*
X172615560Y-141359314D01*
X172859314Y-141115560D01*
X173050830Y-140828936D01*
X173182749Y-140510456D01*
X173250000Y-140172360D01*
X173250000Y-139827640D01*
X173182749Y-139489544D01*
X173050830Y-139171064D01*
X172859314Y-138884440D01*
X172615560Y-138640686D01*
X172328936Y-138449170D01*
X172010456Y-138317251D01*
X171672360Y-138250000D01*
X171327640Y-138250000D01*
X170989544Y-138317251D01*
X170671064Y-138449170D01*
X170384440Y-138640686D01*
X170140686Y-138884440D01*
X169949170Y-139171064D01*
X169817251Y-139489544D01*
X169750000Y-139827640D01*
X164250000Y-139827640D01*
X164182749Y-139489544D01*
X164050830Y-139171064D01*
X163859314Y-138884440D01*
X163615560Y-138640686D01*
X163328936Y-138449170D01*
X163010456Y-138317251D01*
X162672360Y-138250000D01*
X162327640Y-138250000D01*
X161989544Y-138317251D01*
X161671064Y-138449170D01*
X161384440Y-138640686D01*
X161140686Y-138884440D01*
X160949170Y-139171064D01*
X160817251Y-139489544D01*
X160750000Y-139827640D01*
X159275000Y-139827640D01*
X159275000Y-137994143D01*
X197828217Y-137994143D01*
X197862214Y-138075764D01*
X198003127Y-138354954D01*
X198195800Y-138601288D01*
X198432828Y-138805300D01*
X198705103Y-138959150D01*
X199002161Y-139056926D01*
X199250000Y-138904672D01*
X199250000Y-137750000D01*
X199750000Y-137750000D01*
X199750000Y-138904672D01*
X199997839Y-139056926D01*
X200294897Y-138959150D01*
X200567172Y-138805300D01*
X200804200Y-138601288D01*
X200996873Y-138354954D01*
X201137786Y-138075764D01*
X201171783Y-137994143D01*
X201040200Y-137750000D01*
X199750000Y-137750000D01*
X199250000Y-137750000D01*
X197959800Y-137750000D01*
X197828217Y-137994143D01*
X159275000Y-137994143D01*
X159275000Y-133400000D01*
X161246372Y-133400000D01*
X161246372Y-134600000D01*
X161265656Y-134795798D01*
X161322769Y-134984072D01*
X161415514Y-135157586D01*
X161540328Y-135309672D01*
X161692414Y-135434486D01*
X161865928Y-135527231D01*
X162054202Y-135584344D01*
X162250000Y-135603628D01*
X163750000Y-135603628D01*
X163945798Y-135584344D01*
X164134072Y-135527231D01*
X164307586Y-135434486D01*
X164459672Y-135309672D01*
X164584486Y-135157586D01*
X164677231Y-134984072D01*
X164734344Y-134795798D01*
X164753628Y-134600000D01*
X164753628Y-133400000D01*
X164734344Y-133204202D01*
X164733070Y-133200000D01*
X183946372Y-133200000D01*
X183946372Y-135800000D01*
X183960853Y-135947026D01*
X184003739Y-136088401D01*
X184073381Y-136218693D01*
X184167105Y-136332895D01*
X184281307Y-136426619D01*
X184411599Y-136496261D01*
X184552974Y-136539147D01*
X184700000Y-136553628D01*
X187300000Y-136553628D01*
X187447026Y-136539147D01*
X187588401Y-136496261D01*
X187718693Y-136426619D01*
X187832895Y-136332895D01*
X187926619Y-136218693D01*
X187996261Y-136088401D01*
X188039147Y-135947026D01*
X188053628Y-135800000D01*
X188053628Y-134400000D01*
X197746372Y-134400000D01*
X197746372Y-135600000D01*
X197765656Y-135795798D01*
X197822769Y-135984072D01*
X197915514Y-136157586D01*
X198040328Y-136309672D01*
X198177434Y-136422193D01*
X198003127Y-136645046D01*
X197862214Y-136924236D01*
X197828217Y-137005857D01*
X197959800Y-137250000D01*
X199250000Y-137250000D01*
X199250000Y-137230000D01*
X199750000Y-137230000D01*
X199750000Y-137250000D01*
X201040200Y-137250000D01*
X201171783Y-137005857D01*
X201137786Y-136924236D01*
X200996873Y-136645046D01*
X200822566Y-136422193D01*
X200959672Y-136309672D01*
X201084486Y-136157586D01*
X201177231Y-135984072D01*
X201234344Y-135795798D01*
X201253628Y-135600000D01*
X201253628Y-134400000D01*
X201234344Y-134204202D01*
X201177231Y-134015928D01*
X201084486Y-133842414D01*
X200959672Y-133690328D01*
X200807586Y-133565514D01*
X200634072Y-133472769D01*
X200445798Y-133415656D01*
X200250000Y-133396372D01*
X198750000Y-133396372D01*
X198554202Y-133415656D01*
X198365928Y-133472769D01*
X198192414Y-133565514D01*
X198040328Y-133690328D01*
X197915514Y-133842414D01*
X197822769Y-134015928D01*
X197765656Y-134204202D01*
X197746372Y-134400000D01*
X188053628Y-134400000D01*
X188053628Y-133200000D01*
X188039147Y-133052974D01*
X187996261Y-132911599D01*
X187926619Y-132781307D01*
X187832895Y-132667105D01*
X187718693Y-132573381D01*
X187588401Y-132503739D01*
X187447026Y-132460853D01*
X187300000Y-132446372D01*
X184700000Y-132446372D01*
X184552974Y-132460853D01*
X184411599Y-132503739D01*
X184281307Y-132573381D01*
X184167105Y-132667105D01*
X184073381Y-132781307D01*
X184003739Y-132911599D01*
X183960853Y-133052974D01*
X183946372Y-133200000D01*
X164733070Y-133200000D01*
X164677231Y-133015928D01*
X164584486Y-132842414D01*
X164459672Y-132690328D01*
X164322566Y-132577807D01*
X164496873Y-132354954D01*
X164637786Y-132075764D01*
X164671783Y-131994143D01*
X164540200Y-131750000D01*
X163250000Y-131750000D01*
X163250000Y-131770000D01*
X162750000Y-131770000D01*
X162750000Y-131750000D01*
X161459800Y-131750000D01*
X161328217Y-131994143D01*
X161362214Y-132075764D01*
X161503127Y-132354954D01*
X161677434Y-132577807D01*
X161540328Y-132690328D01*
X161415514Y-132842414D01*
X161322769Y-133015928D01*
X161265656Y-133204202D01*
X161246372Y-133400000D01*
X159275000Y-133400000D01*
X159275000Y-131005857D01*
X161328217Y-131005857D01*
X161459800Y-131250000D01*
X162750000Y-131250000D01*
X162750000Y-130095328D01*
X163250000Y-130095328D01*
X163250000Y-131250000D01*
X164540200Y-131250000D01*
X164671783Y-131005857D01*
X164637786Y-130924236D01*
X164496873Y-130645046D01*
X164304200Y-130398712D01*
X164067172Y-130194700D01*
X163794897Y-130040850D01*
X163670789Y-130000000D01*
X172746372Y-130000000D01*
X172746372Y-132000000D01*
X172760853Y-132147026D01*
X172803739Y-132288401D01*
X172873381Y-132418693D01*
X172967105Y-132532895D01*
X173081307Y-132626619D01*
X173211599Y-132696261D01*
X173352974Y-132739147D01*
X173500000Y-132753628D01*
X175500000Y-132753628D01*
X175647026Y-132739147D01*
X175788401Y-132696261D01*
X175918693Y-132626619D01*
X176032895Y-132532895D01*
X176126619Y-132418693D01*
X176196261Y-132288401D01*
X176200792Y-132273463D01*
X178580091Y-132273463D01*
X178679152Y-132555127D01*
X178998313Y-132685385D01*
X179336755Y-132750875D01*
X179681470Y-132749080D01*
X180019212Y-132680068D01*
X180320848Y-132555127D01*
X180419909Y-132273463D01*
X179500000Y-131353553D01*
X178580091Y-132273463D01*
X176200792Y-132273463D01*
X176239147Y-132147026D01*
X176253628Y-132000000D01*
X176253628Y-130836755D01*
X177749125Y-130836755D01*
X177750920Y-131181470D01*
X177819932Y-131519212D01*
X177944873Y-131820848D01*
X178226537Y-131919909D01*
X179146447Y-131000000D01*
X179853553Y-131000000D01*
X180773463Y-131919909D01*
X181055127Y-131820848D01*
X181185385Y-131501687D01*
X181250875Y-131163245D01*
X181249080Y-130818530D01*
X181180068Y-130480788D01*
X181055127Y-130179152D01*
X180773463Y-130080091D01*
X179853553Y-131000000D01*
X179146447Y-131000000D01*
X178226537Y-130080091D01*
X177944873Y-130179152D01*
X177814615Y-130498313D01*
X177749125Y-130836755D01*
X176253628Y-130836755D01*
X176253628Y-130000000D01*
X176239147Y-129852974D01*
X176200793Y-129726537D01*
X178580091Y-129726537D01*
X179500000Y-130646447D01*
X180419909Y-129726537D01*
X180320848Y-129444873D01*
X180001687Y-129314615D01*
X179663245Y-129249125D01*
X179318530Y-129250920D01*
X178980788Y-129319932D01*
X178679152Y-129444873D01*
X178580091Y-129726537D01*
X176200793Y-129726537D01*
X176196261Y-129711599D01*
X176126619Y-129581307D01*
X176032895Y-129467105D01*
X175918693Y-129373381D01*
X175788401Y-129303739D01*
X175647026Y-129260853D01*
X175500000Y-129246372D01*
X173500000Y-129246372D01*
X173352974Y-129260853D01*
X173211599Y-129303739D01*
X173081307Y-129373381D01*
X172967105Y-129467105D01*
X172873381Y-129581307D01*
X172803739Y-129711599D01*
X172760853Y-129852974D01*
X172746372Y-130000000D01*
X163670789Y-130000000D01*
X163497839Y-129943074D01*
X163250000Y-130095328D01*
X162750000Y-130095328D01*
X162502161Y-129943074D01*
X162205103Y-130040850D01*
X161932828Y-130194700D01*
X161695800Y-130398712D01*
X161503127Y-130645046D01*
X161362214Y-130924236D01*
X161328217Y-131005857D01*
X159275000Y-131005857D01*
X159275000Y-126807942D01*
X184050000Y-126807942D01*
X184050000Y-127192058D01*
X184124938Y-127568794D01*
X184271933Y-127923671D01*
X184485336Y-128243052D01*
X184756948Y-128514664D01*
X185076329Y-128728067D01*
X185431206Y-128875062D01*
X185807942Y-128950000D01*
X186192058Y-128950000D01*
X186568794Y-128875062D01*
X186923671Y-128728067D01*
X187243052Y-128514664D01*
X187514664Y-128243052D01*
X187728067Y-127923671D01*
X187875062Y-127568794D01*
X187950000Y-127192058D01*
X187950000Y-126807942D01*
X189050000Y-126807942D01*
X189050000Y-127192058D01*
X189124938Y-127568794D01*
X189271933Y-127923671D01*
X189485336Y-128243052D01*
X189756948Y-128514664D01*
X190076329Y-128728067D01*
X190431206Y-128875062D01*
X190807942Y-128950000D01*
X191192058Y-128950000D01*
X191568794Y-128875062D01*
X191923671Y-128728067D01*
X192243052Y-128514664D01*
X192514664Y-128243052D01*
X192680979Y-127994143D01*
X197828217Y-127994143D01*
X197862214Y-128075764D01*
X198003127Y-128354954D01*
X198195800Y-128601288D01*
X198432828Y-128805300D01*
X198705103Y-128959150D01*
X199002161Y-129056926D01*
X199250000Y-128904672D01*
X199250000Y-127750000D01*
X199750000Y-127750000D01*
X199750000Y-128904672D01*
X199997839Y-129056926D01*
X200294897Y-128959150D01*
X200567172Y-128805300D01*
X200804200Y-128601288D01*
X200996873Y-128354954D01*
X201137786Y-128075764D01*
X201171783Y-127994143D01*
X201040200Y-127750000D01*
X199750000Y-127750000D01*
X199250000Y-127750000D01*
X197959800Y-127750000D01*
X197828217Y-127994143D01*
X192680979Y-127994143D01*
X192728067Y-127923671D01*
X192875062Y-127568794D01*
X192950000Y-127192058D01*
X192950000Y-126807942D01*
X192875062Y-126431206D01*
X192728067Y-126076329D01*
X192514664Y-125756948D01*
X192243052Y-125485336D01*
X191923671Y-125271933D01*
X191568794Y-125124938D01*
X191192058Y-125050000D01*
X190807942Y-125050000D01*
X190431206Y-125124938D01*
X190076329Y-125271933D01*
X189756948Y-125485336D01*
X189485336Y-125756948D01*
X189271933Y-126076329D01*
X189124938Y-126431206D01*
X189050000Y-126807942D01*
X187950000Y-126807942D01*
X187875062Y-126431206D01*
X187728067Y-126076329D01*
X187514664Y-125756948D01*
X187243052Y-125485336D01*
X186923671Y-125271933D01*
X186568794Y-125124938D01*
X186192058Y-125050000D01*
X185807942Y-125050000D01*
X185431206Y-125124938D01*
X185076329Y-125271933D01*
X184756948Y-125485336D01*
X184485336Y-125756948D01*
X184271933Y-126076329D01*
X184124938Y-126431206D01*
X184050000Y-126807942D01*
X159275000Y-126807942D01*
X159275000Y-124400000D01*
X161246372Y-124400000D01*
X161246372Y-125600000D01*
X161265656Y-125795798D01*
X161322769Y-125984072D01*
X161415514Y-126157586D01*
X161540328Y-126309672D01*
X161692414Y-126434486D01*
X161865928Y-126527231D01*
X162054202Y-126584344D01*
X162250000Y-126603628D01*
X163750000Y-126603628D01*
X163945798Y-126584344D01*
X164134072Y-126527231D01*
X164307586Y-126434486D01*
X164459672Y-126309672D01*
X164584486Y-126157586D01*
X164677231Y-125984072D01*
X164734344Y-125795798D01*
X164753628Y-125600000D01*
X164753628Y-124400000D01*
X197746372Y-124400000D01*
X197746372Y-125600000D01*
X197765656Y-125795798D01*
X197822769Y-125984072D01*
X197915514Y-126157586D01*
X198040328Y-126309672D01*
X198177434Y-126422193D01*
X198003127Y-126645046D01*
X197862214Y-126924236D01*
X197828217Y-127005857D01*
X197959800Y-127250000D01*
X199250000Y-127250000D01*
X199250000Y-127230000D01*
X199750000Y-127230000D01*
X199750000Y-127250000D01*
X201040200Y-127250000D01*
X201171783Y-127005857D01*
X201137786Y-126924236D01*
X200996873Y-126645046D01*
X200822566Y-126422193D01*
X200959672Y-126309672D01*
X201084486Y-126157586D01*
X201177231Y-125984072D01*
X201234344Y-125795798D01*
X201253628Y-125600000D01*
X201253628Y-124400000D01*
X201234344Y-124204202D01*
X201177231Y-124015928D01*
X201084486Y-123842414D01*
X200959672Y-123690328D01*
X200807586Y-123565514D01*
X200634072Y-123472769D01*
X200445798Y-123415656D01*
X200250000Y-123396372D01*
X198750000Y-123396372D01*
X198554202Y-123415656D01*
X198365928Y-123472769D01*
X198192414Y-123565514D01*
X198040328Y-123690328D01*
X197915514Y-123842414D01*
X197822769Y-124015928D01*
X197765656Y-124204202D01*
X197746372Y-124400000D01*
X164753628Y-124400000D01*
X164734344Y-124204202D01*
X164677231Y-124015928D01*
X164584486Y-123842414D01*
X164459672Y-123690328D01*
X164322566Y-123577807D01*
X164496873Y-123354954D01*
X164637786Y-123075764D01*
X164671783Y-122994143D01*
X164540200Y-122750000D01*
X163250000Y-122750000D01*
X163250000Y-122770000D01*
X162750000Y-122770000D01*
X162750000Y-122750000D01*
X161459800Y-122750000D01*
X161328217Y-122994143D01*
X161362214Y-123075764D01*
X161503127Y-123354954D01*
X161677434Y-123577807D01*
X161540328Y-123690328D01*
X161415514Y-123842414D01*
X161322769Y-124015928D01*
X161265656Y-124204202D01*
X161246372Y-124400000D01*
X159275000Y-124400000D01*
X159275000Y-122005857D01*
X161328217Y-122005857D01*
X161459800Y-122250000D01*
X162750000Y-122250000D01*
X162750000Y-121095328D01*
X163250000Y-121095328D01*
X163250000Y-122250000D01*
X164540200Y-122250000D01*
X164671783Y-122005857D01*
X164637786Y-121924236D01*
X164496873Y-121645046D01*
X164304200Y-121398712D01*
X164067172Y-121194700D01*
X163794897Y-121040850D01*
X163497839Y-120943074D01*
X163250000Y-121095328D01*
X162750000Y-121095328D01*
X162502161Y-120943074D01*
X162205103Y-121040850D01*
X161932828Y-121194700D01*
X161695800Y-121398712D01*
X161503127Y-121645046D01*
X161362214Y-121924236D01*
X161328217Y-122005857D01*
X159275000Y-122005857D01*
X159275000Y-120600000D01*
X172846372Y-120600000D01*
X172846372Y-122400000D01*
X172860853Y-122547026D01*
X172903739Y-122688401D01*
X172973381Y-122818693D01*
X173067105Y-122932895D01*
X173181307Y-123026619D01*
X173311599Y-123096261D01*
X173452974Y-123139147D01*
X173600000Y-123153628D01*
X175400000Y-123153628D01*
X175547026Y-123139147D01*
X175688401Y-123096261D01*
X175818693Y-123026619D01*
X175932895Y-122932895D01*
X176026619Y-122818693D01*
X176096261Y-122688401D01*
X176139147Y-122547026D01*
X176153628Y-122400000D01*
X176153628Y-122002059D01*
X176328237Y-122002059D01*
X176433581Y-122256400D01*
X176609324Y-122527950D01*
X176834667Y-122759997D01*
X177100950Y-122943623D01*
X177397940Y-123071771D01*
X177650000Y-122943459D01*
X177650000Y-121750000D01*
X178150000Y-121750000D01*
X178150000Y-122943459D01*
X178402060Y-123071771D01*
X178699050Y-122943623D01*
X178965333Y-122759997D01*
X179190676Y-122527950D01*
X179366419Y-122256400D01*
X179471763Y-122002059D01*
X179728237Y-122002059D01*
X179833581Y-122256400D01*
X180009324Y-122527950D01*
X180234667Y-122759997D01*
X180500950Y-122943623D01*
X180797940Y-123071771D01*
X181050000Y-122943459D01*
X181050000Y-121750000D01*
X181550000Y-121750000D01*
X181550000Y-122943459D01*
X181802060Y-123071771D01*
X182099050Y-122943623D01*
X182365333Y-122759997D01*
X182590676Y-122527950D01*
X182766419Y-122256400D01*
X182871763Y-122002059D01*
X182740974Y-121750000D01*
X181550000Y-121750000D01*
X181050000Y-121750000D01*
X179859026Y-121750000D01*
X179728237Y-122002059D01*
X179471763Y-122002059D01*
X179340974Y-121750000D01*
X178150000Y-121750000D01*
X177650000Y-121750000D01*
X176459026Y-121750000D01*
X176328237Y-122002059D01*
X176153628Y-122002059D01*
X176153628Y-120997941D01*
X176328237Y-120997941D01*
X176459026Y-121250000D01*
X177650000Y-121250000D01*
X177650000Y-120056541D01*
X178150000Y-120056541D01*
X178150000Y-121250000D01*
X179340974Y-121250000D01*
X179471763Y-120997941D01*
X179728237Y-120997941D01*
X179859026Y-121250000D01*
X181050000Y-121250000D01*
X181050000Y-120056541D01*
X181550000Y-120056541D01*
X181550000Y-121250000D01*
X182740974Y-121250000D01*
X182871763Y-120997941D01*
X182766419Y-120743600D01*
X182590676Y-120472050D01*
X182365333Y-120240003D01*
X182099050Y-120056377D01*
X181802060Y-119928229D01*
X181550000Y-120056541D01*
X181050000Y-120056541D01*
X180797940Y-119928229D01*
X180500950Y-120056377D01*
X180234667Y-120240003D01*
X180009324Y-120472050D01*
X179833581Y-120743600D01*
X179728237Y-120997941D01*
X179471763Y-120997941D01*
X179366419Y-120743600D01*
X179190676Y-120472050D01*
X178965333Y-120240003D01*
X178699050Y-120056377D01*
X178402060Y-119928229D01*
X178150000Y-120056541D01*
X177650000Y-120056541D01*
X177397940Y-119928229D01*
X177100950Y-120056377D01*
X176834667Y-120240003D01*
X176609324Y-120472050D01*
X176433581Y-120743600D01*
X176328237Y-120997941D01*
X176153628Y-120997941D01*
X176153628Y-120600000D01*
X176139147Y-120452974D01*
X176096261Y-120311599D01*
X176026619Y-120181307D01*
X175932895Y-120067105D01*
X175818693Y-119973381D01*
X175688401Y-119903739D01*
X175547026Y-119860853D01*
X175400000Y-119846372D01*
X173600000Y-119846372D01*
X173452974Y-119860853D01*
X173311599Y-119903739D01*
X173181307Y-119973381D01*
X173067105Y-120067105D01*
X172973381Y-120181307D01*
X172903739Y-120311599D01*
X172860853Y-120452974D01*
X172846372Y-120600000D01*
X159275000Y-120600000D01*
X159275000Y-119250000D01*
X165500000Y-119250000D01*
X165548773Y-119245196D01*
X165595671Y-119230970D01*
X165638893Y-119207867D01*
X165676777Y-119176777D01*
X165707867Y-119138893D01*
X165730970Y-119095671D01*
X165745196Y-119048773D01*
X165750000Y-119000000D01*
X165750000Y-117637489D01*
X174550000Y-117637489D01*
X174550000Y-117962511D01*
X174613408Y-118281287D01*
X174737789Y-118581568D01*
X174918361Y-118851814D01*
X175148186Y-119081639D01*
X175418432Y-119262211D01*
X175718713Y-119386592D01*
X176037489Y-119450000D01*
X176362511Y-119450000D01*
X176681287Y-119386592D01*
X176981568Y-119262211D01*
X177251814Y-119081639D01*
X177481639Y-118851814D01*
X177662211Y-118581568D01*
X177786592Y-118281287D01*
X177850000Y-117962511D01*
X177850000Y-117637489D01*
X177950000Y-117637489D01*
X177950000Y-117962511D01*
X178013408Y-118281287D01*
X178137789Y-118581568D01*
X178318361Y-118851814D01*
X178548186Y-119081639D01*
X178818432Y-119262211D01*
X179118713Y-119386592D01*
X179437489Y-119450000D01*
X179762511Y-119450000D01*
X180081287Y-119386592D01*
X180381568Y-119262211D01*
X180651814Y-119081639D01*
X180881639Y-118851814D01*
X181062211Y-118581568D01*
X181186592Y-118281287D01*
X181202760Y-118200000D01*
X190446372Y-118200000D01*
X190446372Y-119800000D01*
X190460853Y-119947026D01*
X190503739Y-120088401D01*
X190573381Y-120218693D01*
X190667105Y-120332895D01*
X190781307Y-120426619D01*
X190911599Y-120496261D01*
X191052974Y-120539147D01*
X191200000Y-120553628D01*
X192800000Y-120553628D01*
X192947026Y-120539147D01*
X193088401Y-120496261D01*
X193218693Y-120426619D01*
X193332895Y-120332895D01*
X193426619Y-120218693D01*
X193496261Y-120088401D01*
X193539147Y-119947026D01*
X193553628Y-119800000D01*
X193553628Y-118200000D01*
X193539147Y-118052974D01*
X193496261Y-117911599D01*
X193426619Y-117781307D01*
X193332895Y-117667105D01*
X193218693Y-117573381D01*
X193088401Y-117503739D01*
X192947026Y-117460853D01*
X192800000Y-117446372D01*
X191200000Y-117446372D01*
X191052974Y-117460853D01*
X190911599Y-117503739D01*
X190781307Y-117573381D01*
X190667105Y-117667105D01*
X190573381Y-117781307D01*
X190503739Y-117911599D01*
X190460853Y-118052974D01*
X190446372Y-118200000D01*
X181202760Y-118200000D01*
X181250000Y-117962511D01*
X181250000Y-117637489D01*
X181186592Y-117318713D01*
X181062211Y-117018432D01*
X180881639Y-116748186D01*
X180651814Y-116518361D01*
X180381568Y-116337789D01*
X180360946Y-116329247D01*
X191224306Y-116329247D01*
X191298649Y-116590653D01*
X191583429Y-116700758D01*
X191884216Y-116753190D01*
X192189454Y-116745935D01*
X192487411Y-116679270D01*
X192701351Y-116590653D01*
X192775694Y-116329247D01*
X192000000Y-115553553D01*
X191224306Y-116329247D01*
X180360946Y-116329247D01*
X180081287Y-116213408D01*
X179762511Y-116150000D01*
X179437489Y-116150000D01*
X179118713Y-116213408D01*
X178818432Y-116337789D01*
X178548186Y-116518361D01*
X178318361Y-116748186D01*
X178137789Y-117018432D01*
X178013408Y-117318713D01*
X177950000Y-117637489D01*
X177850000Y-117637489D01*
X177786592Y-117318713D01*
X177662211Y-117018432D01*
X177481639Y-116748186D01*
X177251814Y-116518361D01*
X176981568Y-116337789D01*
X176681287Y-116213408D01*
X176362511Y-116150000D01*
X176037489Y-116150000D01*
X175718713Y-116213408D01*
X175418432Y-116337789D01*
X175148186Y-116518361D01*
X174918361Y-116748186D01*
X174737789Y-117018432D01*
X174613408Y-117318713D01*
X174550000Y-117637489D01*
X165750000Y-117637489D01*
X165750000Y-115084216D01*
X190446810Y-115084216D01*
X190454065Y-115389454D01*
X190520730Y-115687411D01*
X190609347Y-115901351D01*
X190870753Y-115975694D01*
X191646447Y-115200000D01*
X192353553Y-115200000D01*
X193129247Y-115975694D01*
X193390653Y-115901351D01*
X193500758Y-115616571D01*
X193553190Y-115315784D01*
X193545935Y-115010546D01*
X193479270Y-114712589D01*
X193390653Y-114498649D01*
X193129247Y-114424306D01*
X192353553Y-115200000D01*
X191646447Y-115200000D01*
X190870753Y-114424306D01*
X190609347Y-114498649D01*
X190499242Y-114783429D01*
X190446810Y-115084216D01*
X165750000Y-115084216D01*
X165750000Y-114070753D01*
X191224306Y-114070753D01*
X192000000Y-114846447D01*
X192775694Y-114070753D01*
X192701351Y-113809347D01*
X192416571Y-113699242D01*
X192115784Y-113646810D01*
X191810546Y-113654065D01*
X191512589Y-113720730D01*
X191298649Y-113809347D01*
X191224306Y-114070753D01*
X165750000Y-114070753D01*
X165750000Y-112775000D01*
X196750000Y-112775000D01*
X196750000Y-119000000D01*
G04 #@! TA.AperFunction,Conductor*
D23*
G36*
X196750000Y-119000000D02*
G01*
X196754804Y-119048773D01*
X196769030Y-119095671D01*
X196792133Y-119138893D01*
X196823223Y-119176777D01*
X196861107Y-119207867D01*
X196904329Y-119230970D01*
X196951227Y-119245196D01*
X197000000Y-119250000D01*
X203225000Y-119250000D01*
X203225001Y-153250000D01*
X197000000Y-153250000D01*
X196951227Y-153254804D01*
X196904329Y-153269030D01*
X196861107Y-153292133D01*
X196823223Y-153323223D01*
X196792133Y-153361107D01*
X196769030Y-153404329D01*
X196754804Y-153451227D01*
X196750000Y-153500000D01*
X196750000Y-159725000D01*
X165750000Y-159725000D01*
X165750000Y-156497839D01*
X187443074Y-156497839D01*
X187540850Y-156794897D01*
X187694700Y-157067172D01*
X187898712Y-157304200D01*
X188145046Y-157496873D01*
X188424236Y-157637786D01*
X188505857Y-157671783D01*
X188750000Y-157540200D01*
X188750000Y-156250000D01*
X187595328Y-156250000D01*
X187443074Y-156497839D01*
X165750000Y-156497839D01*
X165750000Y-155502161D01*
X187443074Y-155502161D01*
X187595328Y-155750000D01*
X188750000Y-155750000D01*
X188750000Y-154459800D01*
X189250000Y-154459800D01*
X189250000Y-155750000D01*
X189270000Y-155750000D01*
X189270000Y-156250000D01*
X189250000Y-156250000D01*
X189250000Y-157540200D01*
X189494143Y-157671783D01*
X189575764Y-157637786D01*
X189854954Y-157496873D01*
X190077807Y-157322566D01*
X190190328Y-157459672D01*
X190342414Y-157584486D01*
X190515928Y-157677231D01*
X190704202Y-157734344D01*
X190900000Y-157753628D01*
X192100000Y-157753628D01*
X192295798Y-157734344D01*
X192484072Y-157677231D01*
X192657586Y-157584486D01*
X192809672Y-157459672D01*
X192934486Y-157307586D01*
X193027231Y-157134072D01*
X193084344Y-156945798D01*
X193103628Y-156750000D01*
X193103628Y-155250000D01*
X193084344Y-155054202D01*
X193027231Y-154865928D01*
X192934486Y-154692414D01*
X192809672Y-154540328D01*
X192657586Y-154415514D01*
X192484072Y-154322769D01*
X192295798Y-154265656D01*
X192100000Y-154246372D01*
X190900000Y-154246372D01*
X190704202Y-154265656D01*
X190515928Y-154322769D01*
X190342414Y-154415514D01*
X190190328Y-154540328D01*
X190077807Y-154677434D01*
X189854954Y-154503127D01*
X189575764Y-154362214D01*
X189494143Y-154328217D01*
X189250000Y-154459800D01*
X188750000Y-154459800D01*
X188505857Y-154328217D01*
X188424236Y-154362214D01*
X188145046Y-154503127D01*
X187898712Y-154695800D01*
X187694700Y-154932828D01*
X187540850Y-155205103D01*
X187443074Y-155502161D01*
X165750000Y-155502161D01*
X165750000Y-153500000D01*
X165745196Y-153451227D01*
X165730970Y-153404329D01*
X165707867Y-153361107D01*
X165676777Y-153323223D01*
X165638893Y-153292133D01*
X165595671Y-153269030D01*
X165548773Y-153254804D01*
X165500000Y-153250000D01*
X159275000Y-153250000D01*
X159275000Y-150305220D01*
X184029453Y-150305220D01*
X184177585Y-150678794D01*
X184395752Y-151016291D01*
X184675569Y-151304741D01*
X185006283Y-151533059D01*
X185375185Y-151692470D01*
X185434781Y-151710540D01*
X185750000Y-151585645D01*
X185750000Y-149990000D01*
X186250000Y-149990000D01*
X186250000Y-151585645D01*
X186565219Y-151710540D01*
X186624815Y-151692470D01*
X186993717Y-151533059D01*
X187324431Y-151304741D01*
X187604248Y-151016291D01*
X187822415Y-150678794D01*
X187970547Y-150305220D01*
X187847206Y-149990000D01*
X186250000Y-149990000D01*
X185750000Y-149990000D01*
X184152794Y-149990000D01*
X184029453Y-150305220D01*
X159275000Y-150305220D01*
X159275000Y-149174780D01*
X184029453Y-149174780D01*
X184152794Y-149490000D01*
X185750000Y-149490000D01*
X185750000Y-147894355D01*
X186250000Y-147894355D01*
X186250000Y-149490000D01*
X187847206Y-149490000D01*
X187970547Y-149174780D01*
X187822415Y-148801206D01*
X187604248Y-148463709D01*
X187324431Y-148175259D01*
X187062089Y-147994143D01*
X197828217Y-147994143D01*
X197862214Y-148075764D01*
X198003127Y-148354954D01*
X198195800Y-148601288D01*
X198432828Y-148805300D01*
X198705103Y-148959150D01*
X199002161Y-149056926D01*
X199250000Y-148904672D01*
X199250000Y-147750000D01*
X199750000Y-147750000D01*
X199750000Y-148904672D01*
X199997839Y-149056926D01*
X200294897Y-148959150D01*
X200567172Y-148805300D01*
X200804200Y-148601288D01*
X200996873Y-148354954D01*
X201137786Y-148075764D01*
X201171783Y-147994143D01*
X201040200Y-147750000D01*
X199750000Y-147750000D01*
X199250000Y-147750000D01*
X197959800Y-147750000D01*
X197828217Y-147994143D01*
X187062089Y-147994143D01*
X186993717Y-147946941D01*
X186624815Y-147787530D01*
X186565219Y-147769460D01*
X186250000Y-147894355D01*
X185750000Y-147894355D01*
X185434781Y-147769460D01*
X185375185Y-147787530D01*
X185006283Y-147946941D01*
X184675569Y-148175259D01*
X184395752Y-148463709D01*
X184177585Y-148801206D01*
X184029453Y-149174780D01*
X159275000Y-149174780D01*
X159275000Y-148400000D01*
X160846371Y-148400000D01*
X160860852Y-148547026D01*
X160903738Y-148688401D01*
X160973380Y-148818694D01*
X161067104Y-148932896D01*
X161181306Y-149026620D01*
X161311599Y-149096262D01*
X161452974Y-149139148D01*
X161600000Y-149153629D01*
X162062500Y-149150000D01*
X162250000Y-148962500D01*
X162250000Y-147750000D01*
X162750000Y-147750000D01*
X162750000Y-148962500D01*
X162937500Y-149150000D01*
X163400000Y-149153629D01*
X163547026Y-149139148D01*
X163688401Y-149096262D01*
X163818694Y-149026620D01*
X163932896Y-148932896D01*
X164026620Y-148818694D01*
X164096262Y-148688401D01*
X164139148Y-148547026D01*
X164153629Y-148400000D01*
X164150000Y-147937500D01*
X163962500Y-147750000D01*
X162750000Y-147750000D01*
X162250000Y-147750000D01*
X161037500Y-147750000D01*
X160850000Y-147937500D01*
X160846371Y-148400000D01*
X159275000Y-148400000D01*
X159275000Y-146600000D01*
X160846371Y-146600000D01*
X160850000Y-147062500D01*
X161037500Y-147250000D01*
X162250000Y-147250000D01*
X162250000Y-147230000D01*
X162750000Y-147230000D01*
X162750000Y-147250000D01*
X163962500Y-147250000D01*
X164150000Y-147062500D01*
X164153629Y-146600000D01*
X164139148Y-146452974D01*
X164096262Y-146311599D01*
X164026620Y-146181306D01*
X163932896Y-146067104D01*
X163818694Y-145973380D01*
X163810313Y-145968900D01*
X163962211Y-145741568D01*
X164086592Y-145441287D01*
X164150000Y-145122511D01*
X164150000Y-144797489D01*
X164086592Y-144478713D01*
X164053988Y-144400000D01*
X197746372Y-144400000D01*
X197746372Y-145600000D01*
X197765656Y-145795798D01*
X197822769Y-145984072D01*
X197915514Y-146157586D01*
X198040328Y-146309672D01*
X198177434Y-146422193D01*
X198003127Y-146645046D01*
X197862214Y-146924236D01*
X197828217Y-147005857D01*
X197959800Y-147250000D01*
X199250000Y-147250000D01*
X199250000Y-147230000D01*
X199750000Y-147230000D01*
X199750000Y-147250000D01*
X201040200Y-147250000D01*
X201171783Y-147005857D01*
X201137786Y-146924236D01*
X200996873Y-146645046D01*
X200822566Y-146422193D01*
X200959672Y-146309672D01*
X201084486Y-146157586D01*
X201177231Y-145984072D01*
X201234344Y-145795798D01*
X201253628Y-145600000D01*
X201253628Y-144400000D01*
X201234344Y-144204202D01*
X201177231Y-144015928D01*
X201084486Y-143842414D01*
X200959672Y-143690328D01*
X200807586Y-143565514D01*
X200634072Y-143472769D01*
X200445798Y-143415656D01*
X200250000Y-143396372D01*
X198750000Y-143396372D01*
X198554202Y-143415656D01*
X198365928Y-143472769D01*
X198192414Y-143565514D01*
X198040328Y-143690328D01*
X197915514Y-143842414D01*
X197822769Y-144015928D01*
X197765656Y-144204202D01*
X197746372Y-144400000D01*
X164053988Y-144400000D01*
X163962211Y-144178432D01*
X163781639Y-143908186D01*
X163551814Y-143678361D01*
X163281568Y-143497789D01*
X162981287Y-143373408D01*
X162662511Y-143310000D01*
X162337489Y-143310000D01*
X162018713Y-143373408D01*
X161718432Y-143497789D01*
X161448186Y-143678361D01*
X161218361Y-143908186D01*
X161037789Y-144178432D01*
X160913408Y-144478713D01*
X160850000Y-144797489D01*
X160850000Y-145122511D01*
X160913408Y-145441287D01*
X161037789Y-145741568D01*
X161189687Y-145968900D01*
X161181306Y-145973380D01*
X161067104Y-146067104D01*
X160973380Y-146181306D01*
X160903738Y-146311599D01*
X160860852Y-146452974D01*
X160846371Y-146600000D01*
X159275000Y-146600000D01*
X159275000Y-139827640D01*
X160750000Y-139827640D01*
X160750000Y-140172360D01*
X160817251Y-140510456D01*
X160949170Y-140828936D01*
X161140686Y-141115560D01*
X161384440Y-141359314D01*
X161671064Y-141550830D01*
X161989544Y-141682749D01*
X162327640Y-141750000D01*
X162672360Y-141750000D01*
X163010456Y-141682749D01*
X163328936Y-141550830D01*
X163615560Y-141359314D01*
X163859314Y-141115560D01*
X164050830Y-140828936D01*
X164182749Y-140510456D01*
X164250000Y-140172360D01*
X164250000Y-139827640D01*
X169750000Y-139827640D01*
X169750000Y-140172360D01*
X169817251Y-140510456D01*
X169949170Y-140828936D01*
X170140686Y-141115560D01*
X170384440Y-141359314D01*
X170671064Y-141550830D01*
X170989544Y-141682749D01*
X171327640Y-141750000D01*
X171672360Y-141750000D01*
X172010456Y-141682749D01*
X172328936Y-141550830D01*
X172615560Y-141359314D01*
X172859314Y-141115560D01*
X173050830Y-140828936D01*
X173182749Y-140510456D01*
X173250000Y-140172360D01*
X173250000Y-139827640D01*
X173182749Y-139489544D01*
X173050830Y-139171064D01*
X172859314Y-138884440D01*
X172615560Y-138640686D01*
X172328936Y-138449170D01*
X172010456Y-138317251D01*
X171672360Y-138250000D01*
X171327640Y-138250000D01*
X170989544Y-138317251D01*
X170671064Y-138449170D01*
X170384440Y-138640686D01*
X170140686Y-138884440D01*
X169949170Y-139171064D01*
X169817251Y-139489544D01*
X169750000Y-139827640D01*
X164250000Y-139827640D01*
X164182749Y-139489544D01*
X164050830Y-139171064D01*
X163859314Y-138884440D01*
X163615560Y-138640686D01*
X163328936Y-138449170D01*
X163010456Y-138317251D01*
X162672360Y-138250000D01*
X162327640Y-138250000D01*
X161989544Y-138317251D01*
X161671064Y-138449170D01*
X161384440Y-138640686D01*
X161140686Y-138884440D01*
X160949170Y-139171064D01*
X160817251Y-139489544D01*
X160750000Y-139827640D01*
X159275000Y-139827640D01*
X159275000Y-137994143D01*
X197828217Y-137994143D01*
X197862214Y-138075764D01*
X198003127Y-138354954D01*
X198195800Y-138601288D01*
X198432828Y-138805300D01*
X198705103Y-138959150D01*
X199002161Y-139056926D01*
X199250000Y-138904672D01*
X199250000Y-137750000D01*
X199750000Y-137750000D01*
X199750000Y-138904672D01*
X199997839Y-139056926D01*
X200294897Y-138959150D01*
X200567172Y-138805300D01*
X200804200Y-138601288D01*
X200996873Y-138354954D01*
X201137786Y-138075764D01*
X201171783Y-137994143D01*
X201040200Y-137750000D01*
X199750000Y-137750000D01*
X199250000Y-137750000D01*
X197959800Y-137750000D01*
X197828217Y-137994143D01*
X159275000Y-137994143D01*
X159275000Y-133400000D01*
X161246372Y-133400000D01*
X161246372Y-134600000D01*
X161265656Y-134795798D01*
X161322769Y-134984072D01*
X161415514Y-135157586D01*
X161540328Y-135309672D01*
X161692414Y-135434486D01*
X161865928Y-135527231D01*
X162054202Y-135584344D01*
X162250000Y-135603628D01*
X163750000Y-135603628D01*
X163945798Y-135584344D01*
X164134072Y-135527231D01*
X164307586Y-135434486D01*
X164459672Y-135309672D01*
X164584486Y-135157586D01*
X164677231Y-134984072D01*
X164734344Y-134795798D01*
X164753628Y-134600000D01*
X164753628Y-133400000D01*
X164734344Y-133204202D01*
X164733070Y-133200000D01*
X183946372Y-133200000D01*
X183946372Y-135800000D01*
X183960853Y-135947026D01*
X184003739Y-136088401D01*
X184073381Y-136218693D01*
X184167105Y-136332895D01*
X184281307Y-136426619D01*
X184411599Y-136496261D01*
X184552974Y-136539147D01*
X184700000Y-136553628D01*
X187300000Y-136553628D01*
X187447026Y-136539147D01*
X187588401Y-136496261D01*
X187718693Y-136426619D01*
X187832895Y-136332895D01*
X187926619Y-136218693D01*
X187996261Y-136088401D01*
X188039147Y-135947026D01*
X188053628Y-135800000D01*
X188053628Y-134400000D01*
X197746372Y-134400000D01*
X197746372Y-135600000D01*
X197765656Y-135795798D01*
X197822769Y-135984072D01*
X197915514Y-136157586D01*
X198040328Y-136309672D01*
X198177434Y-136422193D01*
X198003127Y-136645046D01*
X197862214Y-136924236D01*
X197828217Y-137005857D01*
X197959800Y-137250000D01*
X199250000Y-137250000D01*
X199250000Y-137230000D01*
X199750000Y-137230000D01*
X199750000Y-137250000D01*
X201040200Y-137250000D01*
X201171783Y-137005857D01*
X201137786Y-136924236D01*
X200996873Y-136645046D01*
X200822566Y-136422193D01*
X200959672Y-136309672D01*
X201084486Y-136157586D01*
X201177231Y-135984072D01*
X201234344Y-135795798D01*
X201253628Y-135600000D01*
X201253628Y-134400000D01*
X201234344Y-134204202D01*
X201177231Y-134015928D01*
X201084486Y-133842414D01*
X200959672Y-133690328D01*
X200807586Y-133565514D01*
X200634072Y-133472769D01*
X200445798Y-133415656D01*
X200250000Y-133396372D01*
X198750000Y-133396372D01*
X198554202Y-133415656D01*
X198365928Y-133472769D01*
X198192414Y-133565514D01*
X198040328Y-133690328D01*
X197915514Y-133842414D01*
X197822769Y-134015928D01*
X197765656Y-134204202D01*
X197746372Y-134400000D01*
X188053628Y-134400000D01*
X188053628Y-133200000D01*
X188039147Y-133052974D01*
X187996261Y-132911599D01*
X187926619Y-132781307D01*
X187832895Y-132667105D01*
X187718693Y-132573381D01*
X187588401Y-132503739D01*
X187447026Y-132460853D01*
X187300000Y-132446372D01*
X184700000Y-132446372D01*
X184552974Y-132460853D01*
X184411599Y-132503739D01*
X184281307Y-132573381D01*
X184167105Y-132667105D01*
X184073381Y-132781307D01*
X184003739Y-132911599D01*
X183960853Y-133052974D01*
X183946372Y-133200000D01*
X164733070Y-133200000D01*
X164677231Y-133015928D01*
X164584486Y-132842414D01*
X164459672Y-132690328D01*
X164322566Y-132577807D01*
X164496873Y-132354954D01*
X164637786Y-132075764D01*
X164671783Y-131994143D01*
X164540200Y-131750000D01*
X163250000Y-131750000D01*
X163250000Y-131770000D01*
X162750000Y-131770000D01*
X162750000Y-131750000D01*
X161459800Y-131750000D01*
X161328217Y-131994143D01*
X161362214Y-132075764D01*
X161503127Y-132354954D01*
X161677434Y-132577807D01*
X161540328Y-132690328D01*
X161415514Y-132842414D01*
X161322769Y-133015928D01*
X161265656Y-133204202D01*
X161246372Y-133400000D01*
X159275000Y-133400000D01*
X159275000Y-131005857D01*
X161328217Y-131005857D01*
X161459800Y-131250000D01*
X162750000Y-131250000D01*
X162750000Y-130095328D01*
X163250000Y-130095328D01*
X163250000Y-131250000D01*
X164540200Y-131250000D01*
X164671783Y-131005857D01*
X164637786Y-130924236D01*
X164496873Y-130645046D01*
X164304200Y-130398712D01*
X164067172Y-130194700D01*
X163794897Y-130040850D01*
X163670789Y-130000000D01*
X172746372Y-130000000D01*
X172746372Y-132000000D01*
X172760853Y-132147026D01*
X172803739Y-132288401D01*
X172873381Y-132418693D01*
X172967105Y-132532895D01*
X173081307Y-132626619D01*
X173211599Y-132696261D01*
X173352974Y-132739147D01*
X173500000Y-132753628D01*
X175500000Y-132753628D01*
X175647026Y-132739147D01*
X175788401Y-132696261D01*
X175918693Y-132626619D01*
X176032895Y-132532895D01*
X176126619Y-132418693D01*
X176196261Y-132288401D01*
X176200792Y-132273463D01*
X178580091Y-132273463D01*
X178679152Y-132555127D01*
X178998313Y-132685385D01*
X179336755Y-132750875D01*
X179681470Y-132749080D01*
X180019212Y-132680068D01*
X180320848Y-132555127D01*
X180419909Y-132273463D01*
X179500000Y-131353553D01*
X178580091Y-132273463D01*
X176200792Y-132273463D01*
X176239147Y-132147026D01*
X176253628Y-132000000D01*
X176253628Y-130836755D01*
X177749125Y-130836755D01*
X177750920Y-131181470D01*
X177819932Y-131519212D01*
X177944873Y-131820848D01*
X178226537Y-131919909D01*
X179146447Y-131000000D01*
X179853553Y-131000000D01*
X180773463Y-131919909D01*
X181055127Y-131820848D01*
X181185385Y-131501687D01*
X181250875Y-131163245D01*
X181249080Y-130818530D01*
X181180068Y-130480788D01*
X181055127Y-130179152D01*
X180773463Y-130080091D01*
X179853553Y-131000000D01*
X179146447Y-131000000D01*
X178226537Y-130080091D01*
X177944873Y-130179152D01*
X177814615Y-130498313D01*
X177749125Y-130836755D01*
X176253628Y-130836755D01*
X176253628Y-130000000D01*
X176239147Y-129852974D01*
X176200793Y-129726537D01*
X178580091Y-129726537D01*
X179500000Y-130646447D01*
X180419909Y-129726537D01*
X180320848Y-129444873D01*
X180001687Y-129314615D01*
X179663245Y-129249125D01*
X179318530Y-129250920D01*
X178980788Y-129319932D01*
X178679152Y-129444873D01*
X178580091Y-129726537D01*
X176200793Y-129726537D01*
X176196261Y-129711599D01*
X176126619Y-129581307D01*
X176032895Y-129467105D01*
X175918693Y-129373381D01*
X175788401Y-129303739D01*
X175647026Y-129260853D01*
X175500000Y-129246372D01*
X173500000Y-129246372D01*
X173352974Y-129260853D01*
X173211599Y-129303739D01*
X173081307Y-129373381D01*
X172967105Y-129467105D01*
X172873381Y-129581307D01*
X172803739Y-129711599D01*
X172760853Y-129852974D01*
X172746372Y-130000000D01*
X163670789Y-130000000D01*
X163497839Y-129943074D01*
X163250000Y-130095328D01*
X162750000Y-130095328D01*
X162502161Y-129943074D01*
X162205103Y-130040850D01*
X161932828Y-130194700D01*
X161695800Y-130398712D01*
X161503127Y-130645046D01*
X161362214Y-130924236D01*
X161328217Y-131005857D01*
X159275000Y-131005857D01*
X159275000Y-126807942D01*
X184050000Y-126807942D01*
X184050000Y-127192058D01*
X184124938Y-127568794D01*
X184271933Y-127923671D01*
X184485336Y-128243052D01*
X184756948Y-128514664D01*
X185076329Y-128728067D01*
X185431206Y-128875062D01*
X185807942Y-128950000D01*
X186192058Y-128950000D01*
X186568794Y-128875062D01*
X186923671Y-128728067D01*
X187243052Y-128514664D01*
X187514664Y-128243052D01*
X187728067Y-127923671D01*
X187875062Y-127568794D01*
X187950000Y-127192058D01*
X187950000Y-126807942D01*
X189050000Y-126807942D01*
X189050000Y-127192058D01*
X189124938Y-127568794D01*
X189271933Y-127923671D01*
X189485336Y-128243052D01*
X189756948Y-128514664D01*
X190076329Y-128728067D01*
X190431206Y-128875062D01*
X190807942Y-128950000D01*
X191192058Y-128950000D01*
X191568794Y-128875062D01*
X191923671Y-128728067D01*
X192243052Y-128514664D01*
X192514664Y-128243052D01*
X192680979Y-127994143D01*
X197828217Y-127994143D01*
X197862214Y-128075764D01*
X198003127Y-128354954D01*
X198195800Y-128601288D01*
X198432828Y-128805300D01*
X198705103Y-128959150D01*
X199002161Y-129056926D01*
X199250000Y-128904672D01*
X199250000Y-127750000D01*
X199750000Y-127750000D01*
X199750000Y-128904672D01*
X199997839Y-129056926D01*
X200294897Y-128959150D01*
X200567172Y-128805300D01*
X200804200Y-128601288D01*
X200996873Y-128354954D01*
X201137786Y-128075764D01*
X201171783Y-127994143D01*
X201040200Y-127750000D01*
X199750000Y-127750000D01*
X199250000Y-127750000D01*
X197959800Y-127750000D01*
X197828217Y-127994143D01*
X192680979Y-127994143D01*
X192728067Y-127923671D01*
X192875062Y-127568794D01*
X192950000Y-127192058D01*
X192950000Y-126807942D01*
X192875062Y-126431206D01*
X192728067Y-126076329D01*
X192514664Y-125756948D01*
X192243052Y-125485336D01*
X191923671Y-125271933D01*
X191568794Y-125124938D01*
X191192058Y-125050000D01*
X190807942Y-125050000D01*
X190431206Y-125124938D01*
X190076329Y-125271933D01*
X189756948Y-125485336D01*
X189485336Y-125756948D01*
X189271933Y-126076329D01*
X189124938Y-126431206D01*
X189050000Y-126807942D01*
X187950000Y-126807942D01*
X187875062Y-126431206D01*
X187728067Y-126076329D01*
X187514664Y-125756948D01*
X187243052Y-125485336D01*
X186923671Y-125271933D01*
X186568794Y-125124938D01*
X186192058Y-125050000D01*
X185807942Y-125050000D01*
X185431206Y-125124938D01*
X185076329Y-125271933D01*
X184756948Y-125485336D01*
X184485336Y-125756948D01*
X184271933Y-126076329D01*
X184124938Y-126431206D01*
X184050000Y-126807942D01*
X159275000Y-126807942D01*
X159275000Y-124400000D01*
X161246372Y-124400000D01*
X161246372Y-125600000D01*
X161265656Y-125795798D01*
X161322769Y-125984072D01*
X161415514Y-126157586D01*
X161540328Y-126309672D01*
X161692414Y-126434486D01*
X161865928Y-126527231D01*
X162054202Y-126584344D01*
X162250000Y-126603628D01*
X163750000Y-126603628D01*
X163945798Y-126584344D01*
X164134072Y-126527231D01*
X164307586Y-126434486D01*
X164459672Y-126309672D01*
X164584486Y-126157586D01*
X164677231Y-125984072D01*
X164734344Y-125795798D01*
X164753628Y-125600000D01*
X164753628Y-124400000D01*
X197746372Y-124400000D01*
X197746372Y-125600000D01*
X197765656Y-125795798D01*
X197822769Y-125984072D01*
X197915514Y-126157586D01*
X198040328Y-126309672D01*
X198177434Y-126422193D01*
X198003127Y-126645046D01*
X197862214Y-126924236D01*
X197828217Y-127005857D01*
X197959800Y-127250000D01*
X199250000Y-127250000D01*
X199250000Y-127230000D01*
X199750000Y-127230000D01*
X199750000Y-127250000D01*
X201040200Y-127250000D01*
X201171783Y-127005857D01*
X201137786Y-126924236D01*
X200996873Y-126645046D01*
X200822566Y-126422193D01*
X200959672Y-126309672D01*
X201084486Y-126157586D01*
X201177231Y-125984072D01*
X201234344Y-125795798D01*
X201253628Y-125600000D01*
X201253628Y-124400000D01*
X201234344Y-124204202D01*
X201177231Y-124015928D01*
X201084486Y-123842414D01*
X200959672Y-123690328D01*
X200807586Y-123565514D01*
X200634072Y-123472769D01*
X200445798Y-123415656D01*
X200250000Y-123396372D01*
X198750000Y-123396372D01*
X198554202Y-123415656D01*
X198365928Y-123472769D01*
X198192414Y-123565514D01*
X198040328Y-123690328D01*
X197915514Y-123842414D01*
X197822769Y-124015928D01*
X197765656Y-124204202D01*
X197746372Y-124400000D01*
X164753628Y-124400000D01*
X164734344Y-124204202D01*
X164677231Y-124015928D01*
X164584486Y-123842414D01*
X164459672Y-123690328D01*
X164322566Y-123577807D01*
X164496873Y-123354954D01*
X164637786Y-123075764D01*
X164671783Y-122994143D01*
X164540200Y-122750000D01*
X163250000Y-122750000D01*
X163250000Y-122770000D01*
X162750000Y-122770000D01*
X162750000Y-122750000D01*
X161459800Y-122750000D01*
X161328217Y-122994143D01*
X161362214Y-123075764D01*
X161503127Y-123354954D01*
X161677434Y-123577807D01*
X161540328Y-123690328D01*
X161415514Y-123842414D01*
X161322769Y-124015928D01*
X161265656Y-124204202D01*
X161246372Y-124400000D01*
X159275000Y-124400000D01*
X159275000Y-122005857D01*
X161328217Y-122005857D01*
X161459800Y-122250000D01*
X162750000Y-122250000D01*
X162750000Y-121095328D01*
X163250000Y-121095328D01*
X163250000Y-122250000D01*
X164540200Y-122250000D01*
X164671783Y-122005857D01*
X164637786Y-121924236D01*
X164496873Y-121645046D01*
X164304200Y-121398712D01*
X164067172Y-121194700D01*
X163794897Y-121040850D01*
X163497839Y-120943074D01*
X163250000Y-121095328D01*
X162750000Y-121095328D01*
X162502161Y-120943074D01*
X162205103Y-121040850D01*
X161932828Y-121194700D01*
X161695800Y-121398712D01*
X161503127Y-121645046D01*
X161362214Y-121924236D01*
X161328217Y-122005857D01*
X159275000Y-122005857D01*
X159275000Y-120600000D01*
X172846372Y-120600000D01*
X172846372Y-122400000D01*
X172860853Y-122547026D01*
X172903739Y-122688401D01*
X172973381Y-122818693D01*
X173067105Y-122932895D01*
X173181307Y-123026619D01*
X173311599Y-123096261D01*
X173452974Y-123139147D01*
X173600000Y-123153628D01*
X175400000Y-123153628D01*
X175547026Y-123139147D01*
X175688401Y-123096261D01*
X175818693Y-123026619D01*
X175932895Y-122932895D01*
X176026619Y-122818693D01*
X176096261Y-122688401D01*
X176139147Y-122547026D01*
X176153628Y-122400000D01*
X176153628Y-122002059D01*
X176328237Y-122002059D01*
X176433581Y-122256400D01*
X176609324Y-122527950D01*
X176834667Y-122759997D01*
X177100950Y-122943623D01*
X177397940Y-123071771D01*
X177650000Y-122943459D01*
X177650000Y-121750000D01*
X178150000Y-121750000D01*
X178150000Y-122943459D01*
X178402060Y-123071771D01*
X178699050Y-122943623D01*
X178965333Y-122759997D01*
X179190676Y-122527950D01*
X179366419Y-122256400D01*
X179471763Y-122002059D01*
X179728237Y-122002059D01*
X179833581Y-122256400D01*
X180009324Y-122527950D01*
X180234667Y-122759997D01*
X180500950Y-122943623D01*
X180797940Y-123071771D01*
X181050000Y-122943459D01*
X181050000Y-121750000D01*
X181550000Y-121750000D01*
X181550000Y-122943459D01*
X181802060Y-123071771D01*
X182099050Y-122943623D01*
X182365333Y-122759997D01*
X182590676Y-122527950D01*
X182766419Y-122256400D01*
X182871763Y-122002059D01*
X182740974Y-121750000D01*
X181550000Y-121750000D01*
X181050000Y-121750000D01*
X179859026Y-121750000D01*
X179728237Y-122002059D01*
X179471763Y-122002059D01*
X179340974Y-121750000D01*
X178150000Y-121750000D01*
X177650000Y-121750000D01*
X176459026Y-121750000D01*
X176328237Y-122002059D01*
X176153628Y-122002059D01*
X176153628Y-120997941D01*
X176328237Y-120997941D01*
X176459026Y-121250000D01*
X177650000Y-121250000D01*
X177650000Y-120056541D01*
X178150000Y-120056541D01*
X178150000Y-121250000D01*
X179340974Y-121250000D01*
X179471763Y-120997941D01*
X179728237Y-120997941D01*
X179859026Y-121250000D01*
X181050000Y-121250000D01*
X181050000Y-120056541D01*
X181550000Y-120056541D01*
X181550000Y-121250000D01*
X182740974Y-121250000D01*
X182871763Y-120997941D01*
X182766419Y-120743600D01*
X182590676Y-120472050D01*
X182365333Y-120240003D01*
X182099050Y-120056377D01*
X181802060Y-119928229D01*
X181550000Y-120056541D01*
X181050000Y-120056541D01*
X180797940Y-119928229D01*
X180500950Y-120056377D01*
X180234667Y-120240003D01*
X180009324Y-120472050D01*
X179833581Y-120743600D01*
X179728237Y-120997941D01*
X179471763Y-120997941D01*
X179366419Y-120743600D01*
X179190676Y-120472050D01*
X178965333Y-120240003D01*
X178699050Y-120056377D01*
X178402060Y-119928229D01*
X178150000Y-120056541D01*
X177650000Y-120056541D01*
X177397940Y-119928229D01*
X177100950Y-120056377D01*
X176834667Y-120240003D01*
X176609324Y-120472050D01*
X176433581Y-120743600D01*
X176328237Y-120997941D01*
X176153628Y-120997941D01*
X176153628Y-120600000D01*
X176139147Y-120452974D01*
X176096261Y-120311599D01*
X176026619Y-120181307D01*
X175932895Y-120067105D01*
X175818693Y-119973381D01*
X175688401Y-119903739D01*
X175547026Y-119860853D01*
X175400000Y-119846372D01*
X173600000Y-119846372D01*
X173452974Y-119860853D01*
X173311599Y-119903739D01*
X173181307Y-119973381D01*
X173067105Y-120067105D01*
X172973381Y-120181307D01*
X172903739Y-120311599D01*
X172860853Y-120452974D01*
X172846372Y-120600000D01*
X159275000Y-120600000D01*
X159275000Y-119250000D01*
X165500000Y-119250000D01*
X165548773Y-119245196D01*
X165595671Y-119230970D01*
X165638893Y-119207867D01*
X165676777Y-119176777D01*
X165707867Y-119138893D01*
X165730970Y-119095671D01*
X165745196Y-119048773D01*
X165750000Y-119000000D01*
X165750000Y-117637489D01*
X174550000Y-117637489D01*
X174550000Y-117962511D01*
X174613408Y-118281287D01*
X174737789Y-118581568D01*
X174918361Y-118851814D01*
X175148186Y-119081639D01*
X175418432Y-119262211D01*
X175718713Y-119386592D01*
X176037489Y-119450000D01*
X176362511Y-119450000D01*
X176681287Y-119386592D01*
X176981568Y-119262211D01*
X177251814Y-119081639D01*
X177481639Y-118851814D01*
X177662211Y-118581568D01*
X177786592Y-118281287D01*
X177850000Y-117962511D01*
X177850000Y-117637489D01*
X177950000Y-117637489D01*
X177950000Y-117962511D01*
X178013408Y-118281287D01*
X178137789Y-118581568D01*
X178318361Y-118851814D01*
X178548186Y-119081639D01*
X178818432Y-119262211D01*
X179118713Y-119386592D01*
X179437489Y-119450000D01*
X179762511Y-119450000D01*
X180081287Y-119386592D01*
X180381568Y-119262211D01*
X180651814Y-119081639D01*
X180881639Y-118851814D01*
X181062211Y-118581568D01*
X181186592Y-118281287D01*
X181202760Y-118200000D01*
X190446372Y-118200000D01*
X190446372Y-119800000D01*
X190460853Y-119947026D01*
X190503739Y-120088401D01*
X190573381Y-120218693D01*
X190667105Y-120332895D01*
X190781307Y-120426619D01*
X190911599Y-120496261D01*
X191052974Y-120539147D01*
X191200000Y-120553628D01*
X192800000Y-120553628D01*
X192947026Y-120539147D01*
X193088401Y-120496261D01*
X193218693Y-120426619D01*
X193332895Y-120332895D01*
X193426619Y-120218693D01*
X193496261Y-120088401D01*
X193539147Y-119947026D01*
X193553628Y-119800000D01*
X193553628Y-118200000D01*
X193539147Y-118052974D01*
X193496261Y-117911599D01*
X193426619Y-117781307D01*
X193332895Y-117667105D01*
X193218693Y-117573381D01*
X193088401Y-117503739D01*
X192947026Y-117460853D01*
X192800000Y-117446372D01*
X191200000Y-117446372D01*
X191052974Y-117460853D01*
X190911599Y-117503739D01*
X190781307Y-117573381D01*
X190667105Y-117667105D01*
X190573381Y-117781307D01*
X190503739Y-117911599D01*
X190460853Y-118052974D01*
X190446372Y-118200000D01*
X181202760Y-118200000D01*
X181250000Y-117962511D01*
X181250000Y-117637489D01*
X181186592Y-117318713D01*
X181062211Y-117018432D01*
X180881639Y-116748186D01*
X180651814Y-116518361D01*
X180381568Y-116337789D01*
X180360946Y-116329247D01*
X191224306Y-116329247D01*
X191298649Y-116590653D01*
X191583429Y-116700758D01*
X191884216Y-116753190D01*
X192189454Y-116745935D01*
X192487411Y-116679270D01*
X192701351Y-116590653D01*
X192775694Y-116329247D01*
X192000000Y-115553553D01*
X191224306Y-116329247D01*
X180360946Y-116329247D01*
X180081287Y-116213408D01*
X179762511Y-116150000D01*
X179437489Y-116150000D01*
X179118713Y-116213408D01*
X178818432Y-116337789D01*
X178548186Y-116518361D01*
X178318361Y-116748186D01*
X178137789Y-117018432D01*
X178013408Y-117318713D01*
X177950000Y-117637489D01*
X177850000Y-117637489D01*
X177786592Y-117318713D01*
X177662211Y-117018432D01*
X177481639Y-116748186D01*
X177251814Y-116518361D01*
X176981568Y-116337789D01*
X176681287Y-116213408D01*
X176362511Y-116150000D01*
X176037489Y-116150000D01*
X175718713Y-116213408D01*
X175418432Y-116337789D01*
X175148186Y-116518361D01*
X174918361Y-116748186D01*
X174737789Y-117018432D01*
X174613408Y-117318713D01*
X174550000Y-117637489D01*
X165750000Y-117637489D01*
X165750000Y-115084216D01*
X190446810Y-115084216D01*
X190454065Y-115389454D01*
X190520730Y-115687411D01*
X190609347Y-115901351D01*
X190870753Y-115975694D01*
X191646447Y-115200000D01*
X192353553Y-115200000D01*
X193129247Y-115975694D01*
X193390653Y-115901351D01*
X193500758Y-115616571D01*
X193553190Y-115315784D01*
X193545935Y-115010546D01*
X193479270Y-114712589D01*
X193390653Y-114498649D01*
X193129247Y-114424306D01*
X192353553Y-115200000D01*
X191646447Y-115200000D01*
X190870753Y-114424306D01*
X190609347Y-114498649D01*
X190499242Y-114783429D01*
X190446810Y-115084216D01*
X165750000Y-115084216D01*
X165750000Y-114070753D01*
X191224306Y-114070753D01*
X192000000Y-114846447D01*
X192775694Y-114070753D01*
X192701351Y-113809347D01*
X192416571Y-113699242D01*
X192115784Y-113646810D01*
X191810546Y-113654065D01*
X191512589Y-113720730D01*
X191298649Y-113809347D01*
X191224306Y-114070753D01*
X165750000Y-114070753D01*
X165750000Y-112775000D01*
X196750000Y-112775000D01*
X196750000Y-119000000D01*
G37*
G04 #@! TD.AperFunction*
M02*
