G04 #@! TF.GenerationSoftware,KiCad,Pcbnew,(5.1.7)-1*
G04 #@! TF.CreationDate,2020-12-10T18:12:26+02:00*
G04 #@! TF.ProjectId,8_switch_array,385f7377-6974-4636-985f-61727261792e,rev?*
G04 #@! TF.SameCoordinates,Original*
G04 #@! TF.FileFunction,Other,Fab,Top*
%FSLAX46Y46*%
G04 Gerber Fmt 4.6, Leading zero omitted, Abs format (unit mm)*
G04 Created by KiCad (PCBNEW (5.1.7)-1) date 2020-12-10 18:12:26*
%MOMM*%
%LPD*%
G01*
G04 APERTURE LIST*
%ADD10C,0.100000*%
%ADD11C,0.150000*%
G04 APERTURE END LIST*
D10*
X155950000Y-102850000D02*
X155950000Y-97100000D01*
X155950000Y-97100000D02*
X148550000Y-97100000D01*
X148550000Y-97100000D02*
X148550000Y-102850000D01*
X148550000Y-102850000D02*
X155950000Y-102850000D01*
X154125000Y-102850000D02*
X153500000Y-101850000D01*
X153500000Y-101850000D02*
X152875000Y-102850000D01*
X136730000Y-52865000D02*
X136730000Y-47515000D01*
X136730000Y-47515000D02*
X157050000Y-47515000D01*
X157050000Y-47515000D02*
X157050000Y-53865000D01*
X157050000Y-53865000D02*
X137730000Y-53865000D01*
X137730000Y-53865000D02*
X136730000Y-52865000D01*
X128500000Y-48250000D02*
X135500000Y-48250000D01*
X128500000Y-45750000D02*
X128500000Y-48250000D01*
X135500000Y-45750000D02*
X128500000Y-45750000D01*
X135500000Y-48250000D02*
X135500000Y-45750000D01*
X158250000Y-66800000D02*
X158250000Y-70300000D01*
X158246375Y-66786375D02*
G75*
G02*
X162480000Y-68540000I1753625J-1753625D01*
G01*
X158246375Y-70293625D02*
G75*
G03*
X162480000Y-68540000I1753625J1753625D01*
G01*
X168000000Y-64000000D02*
X168000000Y-51000000D01*
X164000000Y-64000000D02*
X168000000Y-64000000D01*
X164000000Y-51000000D02*
X164000000Y-64000000D01*
X168000000Y-51000000D02*
X164000000Y-51000000D01*
X162500000Y-64000000D02*
X162500000Y-51000000D01*
X158500000Y-64000000D02*
X162500000Y-64000000D01*
X158500000Y-51000000D02*
X158500000Y-64000000D01*
X162500000Y-51000000D02*
X158500000Y-51000000D01*
X146000000Y-70000000D02*
X146000000Y-57000000D01*
X142000000Y-70000000D02*
X146000000Y-70000000D01*
X142000000Y-57000000D02*
X142000000Y-70000000D01*
X146000000Y-57000000D02*
X142000000Y-57000000D01*
X140500000Y-70000000D02*
X140500000Y-57000000D01*
X136500000Y-70000000D02*
X140500000Y-70000000D01*
X136500000Y-57000000D02*
X136500000Y-70000000D01*
X140500000Y-57000000D02*
X136500000Y-57000000D01*
X163750000Y-66800000D02*
X163750000Y-70300000D01*
X163746375Y-66786375D02*
G75*
G02*
X167980000Y-68540000I1753625J-1753625D01*
G01*
X163746375Y-70293625D02*
G75*
G03*
X167980000Y-68540000I1753625J1753625D01*
G01*
X140300000Y-77250000D02*
X143800000Y-77250000D01*
X140286375Y-77253625D02*
G75*
G02*
X142040000Y-73020000I1753625J1753625D01*
G01*
X143793625Y-77253625D02*
G75*
G03*
X142040000Y-73020000I-1753625J1753625D01*
G01*
X132800000Y-77250000D02*
X136300000Y-77250000D01*
X132786375Y-77253625D02*
G75*
G02*
X134540000Y-73020000I1753625J1753625D01*
G01*
X136293625Y-77253625D02*
G75*
G03*
X134540000Y-73020000I-1753625J1753625D01*
G01*
X164500000Y-92350000D02*
X163875000Y-93350000D01*
X165125000Y-93350000D02*
X164500000Y-92350000D01*
X159550000Y-93350000D02*
X166950000Y-93350000D01*
X159550000Y-87600000D02*
X159550000Y-93350000D01*
X166950000Y-87600000D02*
X159550000Y-87600000D01*
X166950000Y-93350000D02*
X166950000Y-87600000D01*
X153500000Y-92350000D02*
X152875000Y-93350000D01*
X154125000Y-93350000D02*
X153500000Y-92350000D01*
X148550000Y-93350000D02*
X155950000Y-93350000D01*
X148550000Y-87600000D02*
X148550000Y-93350000D01*
X155950000Y-87600000D02*
X148550000Y-87600000D01*
X155950000Y-93350000D02*
X155950000Y-87600000D01*
X164500000Y-84350000D02*
X163875000Y-85350000D01*
X165125000Y-85350000D02*
X164500000Y-84350000D01*
X159550000Y-85350000D02*
X166950000Y-85350000D01*
X159550000Y-79600000D02*
X159550000Y-85350000D01*
X166950000Y-79600000D02*
X159550000Y-79600000D01*
X166950000Y-85350000D02*
X166950000Y-79600000D01*
X153500000Y-84350000D02*
X152875000Y-85350000D01*
X154125000Y-85350000D02*
X153500000Y-84350000D01*
X148550000Y-85350000D02*
X155950000Y-85350000D01*
X148550000Y-79600000D02*
X148550000Y-85350000D01*
X155950000Y-79600000D02*
X148550000Y-79600000D01*
X155950000Y-85350000D02*
X155950000Y-79600000D01*
X135000000Y-64000000D02*
X135000000Y-51000000D01*
X131000000Y-64000000D02*
X135000000Y-64000000D01*
X131000000Y-51000000D02*
X131000000Y-64000000D01*
X135000000Y-51000000D02*
X131000000Y-51000000D01*
X151500000Y-70000000D02*
X151500000Y-57000000D01*
X147500000Y-70000000D02*
X151500000Y-70000000D01*
X147500000Y-57000000D02*
X147500000Y-70000000D01*
X151500000Y-57000000D02*
X147500000Y-57000000D01*
X129500000Y-64000000D02*
X129500000Y-51000000D01*
X125500000Y-64000000D02*
X129500000Y-64000000D01*
X125500000Y-51000000D02*
X125500000Y-64000000D01*
X129500000Y-51000000D02*
X125500000Y-51000000D01*
X157000000Y-70000000D02*
X157000000Y-57000000D01*
X153000000Y-70000000D02*
X157000000Y-70000000D01*
X153000000Y-57000000D02*
X153000000Y-70000000D01*
X157000000Y-57000000D02*
X153000000Y-57000000D01*
X131250000Y-66800000D02*
X131250000Y-70300000D01*
X131246375Y-66786375D02*
G75*
G02*
X135480000Y-68540000I1753625J-1753625D01*
G01*
X131246375Y-70293625D02*
G75*
G03*
X135480000Y-68540000I1753625J1753625D01*
G01*
X147800000Y-77250000D02*
X151300000Y-77250000D01*
X147786375Y-77253625D02*
G75*
G02*
X149540000Y-73020000I1753625J1753625D01*
G01*
X151293625Y-77253625D02*
G75*
G03*
X149540000Y-73020000I-1753625J1753625D01*
G01*
X125750000Y-66800000D02*
X125750000Y-70300000D01*
X125746375Y-66786375D02*
G75*
G02*
X129980000Y-68540000I1753625J-1753625D01*
G01*
X125746375Y-70293625D02*
G75*
G03*
X129980000Y-68540000I1753625J1753625D01*
G01*
X155300000Y-77250000D02*
X158800000Y-77250000D01*
X155286375Y-77253625D02*
G75*
G02*
X157040000Y-73020000I1753625J1753625D01*
G01*
X158793625Y-77253625D02*
G75*
G03*
X157040000Y-73020000I-1753625J1753625D01*
G01*
X142500000Y-101850000D02*
X141875000Y-102850000D01*
X143125000Y-102850000D02*
X142500000Y-101850000D01*
X137550000Y-102850000D02*
X144950000Y-102850000D01*
X137550000Y-97100000D02*
X137550000Y-102850000D01*
X144950000Y-97100000D02*
X137550000Y-97100000D01*
X144950000Y-102850000D02*
X144950000Y-97100000D01*
X142500000Y-84350000D02*
X141875000Y-85350000D01*
X143125000Y-85350000D02*
X142500000Y-84350000D01*
X137550000Y-85350000D02*
X144950000Y-85350000D01*
X137550000Y-79600000D02*
X137550000Y-85350000D01*
X144950000Y-79600000D02*
X137550000Y-79600000D01*
X144950000Y-85350000D02*
X144950000Y-79600000D01*
X131500000Y-92350000D02*
X130875000Y-93350000D01*
X132125000Y-93350000D02*
X131500000Y-92350000D01*
X126550000Y-93350000D02*
X133950000Y-93350000D01*
X126550000Y-87600000D02*
X126550000Y-93350000D01*
X133950000Y-87600000D02*
X126550000Y-87600000D01*
X133950000Y-93350000D02*
X133950000Y-87600000D01*
X131500000Y-84350000D02*
X130875000Y-85350000D01*
X132125000Y-85350000D02*
X131500000Y-84350000D01*
X126550000Y-85350000D02*
X133950000Y-85350000D01*
X126550000Y-79600000D02*
X126550000Y-85350000D01*
X133950000Y-79600000D02*
X126550000Y-79600000D01*
X133950000Y-85350000D02*
X133950000Y-79600000D01*
X142500000Y-92350000D02*
X141875000Y-93350000D01*
X143125000Y-93350000D02*
X142500000Y-92350000D01*
X137550000Y-93350000D02*
X144950000Y-93350000D01*
X137550000Y-87600000D02*
X137550000Y-93350000D01*
X144950000Y-87600000D02*
X137550000Y-87600000D01*
X144950000Y-93350000D02*
X144950000Y-87600000D01*
X150000000Y-36650000D02*
X150625000Y-35650000D01*
X149375000Y-35650000D02*
X150000000Y-36650000D01*
X159950000Y-35650000D02*
X147550000Y-35650000D01*
X159950000Y-41400000D02*
X159950000Y-35650000D01*
X147550000Y-41400000D02*
X159950000Y-41400000D01*
X147550000Y-35650000D02*
X147550000Y-41400000D01*
X136000000Y-36650000D02*
X136625000Y-35650000D01*
X135375000Y-35650000D02*
X136000000Y-36650000D01*
X145950000Y-35650000D02*
X133550000Y-35650000D01*
X145950000Y-41400000D02*
X145950000Y-35650000D01*
X133550000Y-41400000D02*
X145950000Y-41400000D01*
X133550000Y-35650000D02*
X133550000Y-41400000D01*
D11*
X148511904Y-96257142D02*
X148464285Y-96304761D01*
X148321428Y-96352380D01*
X148226190Y-96352380D01*
X148083333Y-96304761D01*
X147988095Y-96209523D01*
X147940476Y-96114285D01*
X147892857Y-95923809D01*
X147892857Y-95780952D01*
X147940476Y-95590476D01*
X147988095Y-95495238D01*
X148083333Y-95400000D01*
X148226190Y-95352380D01*
X148321428Y-95352380D01*
X148464285Y-95400000D01*
X148511904Y-95447619D01*
X149083333Y-96352380D02*
X148988095Y-96304761D01*
X148940476Y-96257142D01*
X148892857Y-96161904D01*
X148892857Y-95876190D01*
X148940476Y-95780952D01*
X148988095Y-95733333D01*
X149083333Y-95685714D01*
X149226190Y-95685714D01*
X149321428Y-95733333D01*
X149369047Y-95780952D01*
X149416666Y-95876190D01*
X149416666Y-96161904D01*
X149369047Y-96257142D01*
X149321428Y-96304761D01*
X149226190Y-96352380D01*
X149083333Y-96352380D01*
X149845238Y-95685714D02*
X149845238Y-96352380D01*
X149845238Y-95780952D02*
X149892857Y-95733333D01*
X149988095Y-95685714D01*
X150130952Y-95685714D01*
X150226190Y-95733333D01*
X150273809Y-95828571D01*
X150273809Y-96352380D01*
X150750000Y-95685714D02*
X150750000Y-96352380D01*
X150750000Y-95780952D02*
X150797619Y-95733333D01*
X150892857Y-95685714D01*
X151035714Y-95685714D01*
X151130952Y-95733333D01*
X151178571Y-95828571D01*
X151178571Y-96352380D01*
X151416666Y-96447619D02*
X152178571Y-96447619D01*
X152607142Y-95352380D02*
X152702380Y-95352380D01*
X152797619Y-95400000D01*
X152845238Y-95447619D01*
X152892857Y-95542857D01*
X152940476Y-95733333D01*
X152940476Y-95971428D01*
X152892857Y-96161904D01*
X152845238Y-96257142D01*
X152797619Y-96304761D01*
X152702380Y-96352380D01*
X152607142Y-96352380D01*
X152511904Y-96304761D01*
X152464285Y-96257142D01*
X152416666Y-96161904D01*
X152369047Y-95971428D01*
X152369047Y-95733333D01*
X152416666Y-95542857D01*
X152464285Y-95447619D01*
X152511904Y-95400000D01*
X152607142Y-95352380D01*
X153892857Y-96352380D02*
X153321428Y-96352380D01*
X153607142Y-96352380D02*
X153607142Y-95352380D01*
X153511904Y-95495238D01*
X153416666Y-95590476D01*
X153321428Y-95638095D01*
X154226190Y-96352380D02*
X154750000Y-95685714D01*
X154226190Y-95685714D02*
X154750000Y-96352380D01*
X155321428Y-95352380D02*
X155416666Y-95352380D01*
X155511904Y-95400000D01*
X155559523Y-95447619D01*
X155607142Y-95542857D01*
X155654761Y-95733333D01*
X155654761Y-95971428D01*
X155607142Y-96161904D01*
X155559523Y-96257142D01*
X155511904Y-96304761D01*
X155416666Y-96352380D01*
X155321428Y-96352380D01*
X155226190Y-96304761D01*
X155178571Y-96257142D01*
X155130952Y-96161904D01*
X155083333Y-95971428D01*
X155083333Y-95733333D01*
X155130952Y-95542857D01*
X155178571Y-95447619D01*
X155226190Y-95400000D01*
X155321428Y-95352380D01*
X156035714Y-95447619D02*
X156083333Y-95400000D01*
X156178571Y-95352380D01*
X156416666Y-95352380D01*
X156511904Y-95400000D01*
X156559523Y-95447619D01*
X156607142Y-95542857D01*
X156607142Y-95638095D01*
X156559523Y-95780952D01*
X155988095Y-96352380D01*
X156607142Y-96352380D01*
X151440476Y-97252380D02*
X151440476Y-97966666D01*
X151392857Y-98109523D01*
X151297619Y-98204761D01*
X151154761Y-98252380D01*
X151059523Y-98252380D01*
X152440476Y-98252380D02*
X151869047Y-98252380D01*
X152154761Y-98252380D02*
X152154761Y-97252380D01*
X152059523Y-97395238D01*
X151964285Y-97490476D01*
X151869047Y-97538095D01*
X152821428Y-97347619D02*
X152869047Y-97300000D01*
X152964285Y-97252380D01*
X153202380Y-97252380D01*
X153297619Y-97300000D01*
X153345238Y-97347619D01*
X153392857Y-97442857D01*
X153392857Y-97538095D01*
X153345238Y-97680952D01*
X152773809Y-98252380D01*
X153392857Y-98252380D01*
X146342380Y-51451904D02*
X147151904Y-51451904D01*
X147247142Y-51404285D01*
X147294761Y-51356666D01*
X147342380Y-51261428D01*
X147342380Y-51070952D01*
X147294761Y-50975714D01*
X147247142Y-50928095D01*
X147151904Y-50880476D01*
X146342380Y-50880476D01*
X147342380Y-49880476D02*
X147342380Y-50451904D01*
X147342380Y-50166190D02*
X146342380Y-50166190D01*
X146485238Y-50261428D01*
X146580476Y-50356666D01*
X146628095Y-50451904D01*
X131833333Y-47357142D02*
X131785714Y-47404761D01*
X131642857Y-47452380D01*
X131547619Y-47452380D01*
X131404761Y-47404761D01*
X131309523Y-47309523D01*
X131261904Y-47214285D01*
X131214285Y-47023809D01*
X131214285Y-46880952D01*
X131261904Y-46690476D01*
X131309523Y-46595238D01*
X131404761Y-46500000D01*
X131547619Y-46452380D01*
X131642857Y-46452380D01*
X131785714Y-46500000D01*
X131833333Y-46547619D01*
X132785714Y-47452380D02*
X132214285Y-47452380D01*
X132500000Y-47452380D02*
X132500000Y-46452380D01*
X132404761Y-46595238D01*
X132309523Y-46690476D01*
X132214285Y-46738095D01*
X167452380Y-57666666D02*
X166976190Y-58000000D01*
X167452380Y-58238095D02*
X166452380Y-58238095D01*
X166452380Y-57857142D01*
X166500000Y-57761904D01*
X166547619Y-57714285D01*
X166642857Y-57666666D01*
X166785714Y-57666666D01*
X166880952Y-57714285D01*
X166928571Y-57761904D01*
X166976190Y-57857142D01*
X166976190Y-58238095D01*
X166880952Y-57095238D02*
X166833333Y-57190476D01*
X166785714Y-57238095D01*
X166690476Y-57285714D01*
X166642857Y-57285714D01*
X166547619Y-57238095D01*
X166500000Y-57190476D01*
X166452380Y-57095238D01*
X166452380Y-56904761D01*
X166500000Y-56809523D01*
X166547619Y-56761904D01*
X166642857Y-56714285D01*
X166690476Y-56714285D01*
X166785714Y-56761904D01*
X166833333Y-56809523D01*
X166880952Y-56904761D01*
X166880952Y-57095238D01*
X166928571Y-57190476D01*
X166976190Y-57238095D01*
X167071428Y-57285714D01*
X167261904Y-57285714D01*
X167357142Y-57238095D01*
X167404761Y-57190476D01*
X167452380Y-57095238D01*
X167452380Y-56904761D01*
X167404761Y-56809523D01*
X167357142Y-56761904D01*
X167261904Y-56714285D01*
X167071428Y-56714285D01*
X166976190Y-56761904D01*
X166928571Y-56809523D01*
X166880952Y-56904761D01*
X161952380Y-57666666D02*
X161476190Y-58000000D01*
X161952380Y-58238095D02*
X160952380Y-58238095D01*
X160952380Y-57857142D01*
X161000000Y-57761904D01*
X161047619Y-57714285D01*
X161142857Y-57666666D01*
X161285714Y-57666666D01*
X161380952Y-57714285D01*
X161428571Y-57761904D01*
X161476190Y-57857142D01*
X161476190Y-58238095D01*
X160952380Y-57333333D02*
X160952380Y-56666666D01*
X161952380Y-57095238D01*
X143452380Y-63666666D02*
X142976190Y-64000000D01*
X143452380Y-64238095D02*
X142452380Y-64238095D01*
X142452380Y-63857142D01*
X142500000Y-63761904D01*
X142547619Y-63714285D01*
X142642857Y-63666666D01*
X142785714Y-63666666D01*
X142880952Y-63714285D01*
X142928571Y-63761904D01*
X142976190Y-63857142D01*
X142976190Y-64238095D01*
X142785714Y-62809523D02*
X143452380Y-62809523D01*
X142404761Y-63047619D02*
X143119047Y-63285714D01*
X143119047Y-62666666D01*
X137952380Y-63666666D02*
X137476190Y-64000000D01*
X137952380Y-64238095D02*
X136952380Y-64238095D01*
X136952380Y-63857142D01*
X137000000Y-63761904D01*
X137047619Y-63714285D01*
X137142857Y-63666666D01*
X137285714Y-63666666D01*
X137380952Y-63714285D01*
X137428571Y-63761904D01*
X137476190Y-63857142D01*
X137476190Y-64238095D01*
X136952380Y-63333333D02*
X136952380Y-62714285D01*
X137333333Y-63047619D01*
X137333333Y-62904761D01*
X137380952Y-62809523D01*
X137428571Y-62761904D01*
X137523809Y-62714285D01*
X137761904Y-62714285D01*
X137857142Y-62761904D01*
X137904761Y-62809523D01*
X137952380Y-62904761D01*
X137952380Y-63190476D01*
X137904761Y-63285714D01*
X137857142Y-63333333D01*
X159511904Y-86757142D02*
X159464285Y-86804761D01*
X159321428Y-86852380D01*
X159226190Y-86852380D01*
X159083333Y-86804761D01*
X158988095Y-86709523D01*
X158940476Y-86614285D01*
X158892857Y-86423809D01*
X158892857Y-86280952D01*
X158940476Y-86090476D01*
X158988095Y-85995238D01*
X159083333Y-85900000D01*
X159226190Y-85852380D01*
X159321428Y-85852380D01*
X159464285Y-85900000D01*
X159511904Y-85947619D01*
X160083333Y-86852380D02*
X159988095Y-86804761D01*
X159940476Y-86757142D01*
X159892857Y-86661904D01*
X159892857Y-86376190D01*
X159940476Y-86280952D01*
X159988095Y-86233333D01*
X160083333Y-86185714D01*
X160226190Y-86185714D01*
X160321428Y-86233333D01*
X160369047Y-86280952D01*
X160416666Y-86376190D01*
X160416666Y-86661904D01*
X160369047Y-86757142D01*
X160321428Y-86804761D01*
X160226190Y-86852380D01*
X160083333Y-86852380D01*
X160845238Y-86185714D02*
X160845238Y-86852380D01*
X160845238Y-86280952D02*
X160892857Y-86233333D01*
X160988095Y-86185714D01*
X161130952Y-86185714D01*
X161226190Y-86233333D01*
X161273809Y-86328571D01*
X161273809Y-86852380D01*
X161750000Y-86185714D02*
X161750000Y-86852380D01*
X161750000Y-86280952D02*
X161797619Y-86233333D01*
X161892857Y-86185714D01*
X162035714Y-86185714D01*
X162130952Y-86233333D01*
X162178571Y-86328571D01*
X162178571Y-86852380D01*
X162416666Y-86947619D02*
X163178571Y-86947619D01*
X163607142Y-85852380D02*
X163702380Y-85852380D01*
X163797619Y-85900000D01*
X163845238Y-85947619D01*
X163892857Y-86042857D01*
X163940476Y-86233333D01*
X163940476Y-86471428D01*
X163892857Y-86661904D01*
X163845238Y-86757142D01*
X163797619Y-86804761D01*
X163702380Y-86852380D01*
X163607142Y-86852380D01*
X163511904Y-86804761D01*
X163464285Y-86757142D01*
X163416666Y-86661904D01*
X163369047Y-86471428D01*
X163369047Y-86233333D01*
X163416666Y-86042857D01*
X163464285Y-85947619D01*
X163511904Y-85900000D01*
X163607142Y-85852380D01*
X164892857Y-86852380D02*
X164321428Y-86852380D01*
X164607142Y-86852380D02*
X164607142Y-85852380D01*
X164511904Y-85995238D01*
X164416666Y-86090476D01*
X164321428Y-86138095D01*
X165226190Y-86852380D02*
X165750000Y-86185714D01*
X165226190Y-86185714D02*
X165750000Y-86852380D01*
X166321428Y-85852380D02*
X166416666Y-85852380D01*
X166511904Y-85900000D01*
X166559523Y-85947619D01*
X166607142Y-86042857D01*
X166654761Y-86233333D01*
X166654761Y-86471428D01*
X166607142Y-86661904D01*
X166559523Y-86757142D01*
X166511904Y-86804761D01*
X166416666Y-86852380D01*
X166321428Y-86852380D01*
X166226190Y-86804761D01*
X166178571Y-86757142D01*
X166130952Y-86661904D01*
X166083333Y-86471428D01*
X166083333Y-86233333D01*
X166130952Y-86042857D01*
X166178571Y-85947619D01*
X166226190Y-85900000D01*
X166321428Y-85852380D01*
X167035714Y-85947619D02*
X167083333Y-85900000D01*
X167178571Y-85852380D01*
X167416666Y-85852380D01*
X167511904Y-85900000D01*
X167559523Y-85947619D01*
X167607142Y-86042857D01*
X167607142Y-86138095D01*
X167559523Y-86280952D01*
X166988095Y-86852380D01*
X167607142Y-86852380D01*
X162440476Y-87752380D02*
X162440476Y-88466666D01*
X162392857Y-88609523D01*
X162297619Y-88704761D01*
X162154761Y-88752380D01*
X162059523Y-88752380D01*
X163440476Y-88752380D02*
X162869047Y-88752380D01*
X163154761Y-88752380D02*
X163154761Y-87752380D01*
X163059523Y-87895238D01*
X162964285Y-87990476D01*
X162869047Y-88038095D01*
X164059523Y-87752380D02*
X164154761Y-87752380D01*
X164250000Y-87800000D01*
X164297619Y-87847619D01*
X164345238Y-87942857D01*
X164392857Y-88133333D01*
X164392857Y-88371428D01*
X164345238Y-88561904D01*
X164297619Y-88657142D01*
X164250000Y-88704761D01*
X164154761Y-88752380D01*
X164059523Y-88752380D01*
X163964285Y-88704761D01*
X163916666Y-88657142D01*
X163869047Y-88561904D01*
X163821428Y-88371428D01*
X163821428Y-88133333D01*
X163869047Y-87942857D01*
X163916666Y-87847619D01*
X163964285Y-87800000D01*
X164059523Y-87752380D01*
X151916666Y-87752380D02*
X151916666Y-88466666D01*
X151869047Y-88609523D01*
X151773809Y-88704761D01*
X151630952Y-88752380D01*
X151535714Y-88752380D01*
X152440476Y-88752380D02*
X152630952Y-88752380D01*
X152726190Y-88704761D01*
X152773809Y-88657142D01*
X152869047Y-88514285D01*
X152916666Y-88323809D01*
X152916666Y-87942857D01*
X152869047Y-87847619D01*
X152821428Y-87800000D01*
X152726190Y-87752380D01*
X152535714Y-87752380D01*
X152440476Y-87800000D01*
X152392857Y-87847619D01*
X152345238Y-87942857D01*
X152345238Y-88180952D01*
X152392857Y-88276190D01*
X152440476Y-88323809D01*
X152535714Y-88371428D01*
X152726190Y-88371428D01*
X152821428Y-88323809D01*
X152869047Y-88276190D01*
X152916666Y-88180952D01*
X159511904Y-78757142D02*
X159464285Y-78804761D01*
X159321428Y-78852380D01*
X159226190Y-78852380D01*
X159083333Y-78804761D01*
X158988095Y-78709523D01*
X158940476Y-78614285D01*
X158892857Y-78423809D01*
X158892857Y-78280952D01*
X158940476Y-78090476D01*
X158988095Y-77995238D01*
X159083333Y-77900000D01*
X159226190Y-77852380D01*
X159321428Y-77852380D01*
X159464285Y-77900000D01*
X159511904Y-77947619D01*
X160083333Y-78852380D02*
X159988095Y-78804761D01*
X159940476Y-78757142D01*
X159892857Y-78661904D01*
X159892857Y-78376190D01*
X159940476Y-78280952D01*
X159988095Y-78233333D01*
X160083333Y-78185714D01*
X160226190Y-78185714D01*
X160321428Y-78233333D01*
X160369047Y-78280952D01*
X160416666Y-78376190D01*
X160416666Y-78661904D01*
X160369047Y-78757142D01*
X160321428Y-78804761D01*
X160226190Y-78852380D01*
X160083333Y-78852380D01*
X160845238Y-78185714D02*
X160845238Y-78852380D01*
X160845238Y-78280952D02*
X160892857Y-78233333D01*
X160988095Y-78185714D01*
X161130952Y-78185714D01*
X161226190Y-78233333D01*
X161273809Y-78328571D01*
X161273809Y-78852380D01*
X161750000Y-78185714D02*
X161750000Y-78852380D01*
X161750000Y-78280952D02*
X161797619Y-78233333D01*
X161892857Y-78185714D01*
X162035714Y-78185714D01*
X162130952Y-78233333D01*
X162178571Y-78328571D01*
X162178571Y-78852380D01*
X162416666Y-78947619D02*
X163178571Y-78947619D01*
X163607142Y-77852380D02*
X163702380Y-77852380D01*
X163797619Y-77900000D01*
X163845238Y-77947619D01*
X163892857Y-78042857D01*
X163940476Y-78233333D01*
X163940476Y-78471428D01*
X163892857Y-78661904D01*
X163845238Y-78757142D01*
X163797619Y-78804761D01*
X163702380Y-78852380D01*
X163607142Y-78852380D01*
X163511904Y-78804761D01*
X163464285Y-78757142D01*
X163416666Y-78661904D01*
X163369047Y-78471428D01*
X163369047Y-78233333D01*
X163416666Y-78042857D01*
X163464285Y-77947619D01*
X163511904Y-77900000D01*
X163607142Y-77852380D01*
X164892857Y-78852380D02*
X164321428Y-78852380D01*
X164607142Y-78852380D02*
X164607142Y-77852380D01*
X164511904Y-77995238D01*
X164416666Y-78090476D01*
X164321428Y-78138095D01*
X165226190Y-78852380D02*
X165750000Y-78185714D01*
X165226190Y-78185714D02*
X165750000Y-78852380D01*
X166321428Y-77852380D02*
X166416666Y-77852380D01*
X166511904Y-77900000D01*
X166559523Y-77947619D01*
X166607142Y-78042857D01*
X166654761Y-78233333D01*
X166654761Y-78471428D01*
X166607142Y-78661904D01*
X166559523Y-78757142D01*
X166511904Y-78804761D01*
X166416666Y-78852380D01*
X166321428Y-78852380D01*
X166226190Y-78804761D01*
X166178571Y-78757142D01*
X166130952Y-78661904D01*
X166083333Y-78471428D01*
X166083333Y-78233333D01*
X166130952Y-78042857D01*
X166178571Y-77947619D01*
X166226190Y-77900000D01*
X166321428Y-77852380D01*
X167035714Y-77947619D02*
X167083333Y-77900000D01*
X167178571Y-77852380D01*
X167416666Y-77852380D01*
X167511904Y-77900000D01*
X167559523Y-77947619D01*
X167607142Y-78042857D01*
X167607142Y-78138095D01*
X167559523Y-78280952D01*
X166988095Y-78852380D01*
X167607142Y-78852380D01*
X162916666Y-79752380D02*
X162916666Y-80466666D01*
X162869047Y-80609523D01*
X162773809Y-80704761D01*
X162630952Y-80752380D01*
X162535714Y-80752380D01*
X163821428Y-79752380D02*
X163630952Y-79752380D01*
X163535714Y-79800000D01*
X163488095Y-79847619D01*
X163392857Y-79990476D01*
X163345238Y-80180952D01*
X163345238Y-80561904D01*
X163392857Y-80657142D01*
X163440476Y-80704761D01*
X163535714Y-80752380D01*
X163726190Y-80752380D01*
X163821428Y-80704761D01*
X163869047Y-80657142D01*
X163916666Y-80561904D01*
X163916666Y-80323809D01*
X163869047Y-80228571D01*
X163821428Y-80180952D01*
X163726190Y-80133333D01*
X163535714Y-80133333D01*
X163440476Y-80180952D01*
X163392857Y-80228571D01*
X163345238Y-80323809D01*
X148511904Y-78757142D02*
X148464285Y-78804761D01*
X148321428Y-78852380D01*
X148226190Y-78852380D01*
X148083333Y-78804761D01*
X147988095Y-78709523D01*
X147940476Y-78614285D01*
X147892857Y-78423809D01*
X147892857Y-78280952D01*
X147940476Y-78090476D01*
X147988095Y-77995238D01*
X148083333Y-77900000D01*
X148226190Y-77852380D01*
X148321428Y-77852380D01*
X148464285Y-77900000D01*
X148511904Y-77947619D01*
X149083333Y-78852380D02*
X148988095Y-78804761D01*
X148940476Y-78757142D01*
X148892857Y-78661904D01*
X148892857Y-78376190D01*
X148940476Y-78280952D01*
X148988095Y-78233333D01*
X149083333Y-78185714D01*
X149226190Y-78185714D01*
X149321428Y-78233333D01*
X149369047Y-78280952D01*
X149416666Y-78376190D01*
X149416666Y-78661904D01*
X149369047Y-78757142D01*
X149321428Y-78804761D01*
X149226190Y-78852380D01*
X149083333Y-78852380D01*
X149845238Y-78185714D02*
X149845238Y-78852380D01*
X149845238Y-78280952D02*
X149892857Y-78233333D01*
X149988095Y-78185714D01*
X150130952Y-78185714D01*
X150226190Y-78233333D01*
X150273809Y-78328571D01*
X150273809Y-78852380D01*
X150750000Y-78185714D02*
X150750000Y-78852380D01*
X150750000Y-78280952D02*
X150797619Y-78233333D01*
X150892857Y-78185714D01*
X151035714Y-78185714D01*
X151130952Y-78233333D01*
X151178571Y-78328571D01*
X151178571Y-78852380D01*
X151416666Y-78947619D02*
X152178571Y-78947619D01*
X152607142Y-77852380D02*
X152702380Y-77852380D01*
X152797619Y-77900000D01*
X152845238Y-77947619D01*
X152892857Y-78042857D01*
X152940476Y-78233333D01*
X152940476Y-78471428D01*
X152892857Y-78661904D01*
X152845238Y-78757142D01*
X152797619Y-78804761D01*
X152702380Y-78852380D01*
X152607142Y-78852380D01*
X152511904Y-78804761D01*
X152464285Y-78757142D01*
X152416666Y-78661904D01*
X152369047Y-78471428D01*
X152369047Y-78233333D01*
X152416666Y-78042857D01*
X152464285Y-77947619D01*
X152511904Y-77900000D01*
X152607142Y-77852380D01*
X153892857Y-78852380D02*
X153321428Y-78852380D01*
X153607142Y-78852380D02*
X153607142Y-77852380D01*
X153511904Y-77995238D01*
X153416666Y-78090476D01*
X153321428Y-78138095D01*
X154226190Y-78852380D02*
X154750000Y-78185714D01*
X154226190Y-78185714D02*
X154750000Y-78852380D01*
X155321428Y-77852380D02*
X155416666Y-77852380D01*
X155511904Y-77900000D01*
X155559523Y-77947619D01*
X155607142Y-78042857D01*
X155654761Y-78233333D01*
X155654761Y-78471428D01*
X155607142Y-78661904D01*
X155559523Y-78757142D01*
X155511904Y-78804761D01*
X155416666Y-78852380D01*
X155321428Y-78852380D01*
X155226190Y-78804761D01*
X155178571Y-78757142D01*
X155130952Y-78661904D01*
X155083333Y-78471428D01*
X155083333Y-78233333D01*
X155130952Y-78042857D01*
X155178571Y-77947619D01*
X155226190Y-77900000D01*
X155321428Y-77852380D01*
X156035714Y-77947619D02*
X156083333Y-77900000D01*
X156178571Y-77852380D01*
X156416666Y-77852380D01*
X156511904Y-77900000D01*
X156559523Y-77947619D01*
X156607142Y-78042857D01*
X156607142Y-78138095D01*
X156559523Y-78280952D01*
X155988095Y-78852380D01*
X156607142Y-78852380D01*
X151916666Y-79752380D02*
X151916666Y-80466666D01*
X151869047Y-80609523D01*
X151773809Y-80704761D01*
X151630952Y-80752380D01*
X151535714Y-80752380D01*
X152869047Y-79752380D02*
X152392857Y-79752380D01*
X152345238Y-80228571D01*
X152392857Y-80180952D01*
X152488095Y-80133333D01*
X152726190Y-80133333D01*
X152821428Y-80180952D01*
X152869047Y-80228571D01*
X152916666Y-80323809D01*
X152916666Y-80561904D01*
X152869047Y-80657142D01*
X152821428Y-80704761D01*
X152726190Y-80752380D01*
X152488095Y-80752380D01*
X152392857Y-80704761D01*
X152345238Y-80657142D01*
X132452380Y-57666666D02*
X131976190Y-58000000D01*
X132452380Y-58238095D02*
X131452380Y-58238095D01*
X131452380Y-57857142D01*
X131500000Y-57761904D01*
X131547619Y-57714285D01*
X131642857Y-57666666D01*
X131785714Y-57666666D01*
X131880952Y-57714285D01*
X131928571Y-57761904D01*
X131976190Y-57857142D01*
X131976190Y-58238095D01*
X131547619Y-57285714D02*
X131500000Y-57238095D01*
X131452380Y-57142857D01*
X131452380Y-56904761D01*
X131500000Y-56809523D01*
X131547619Y-56761904D01*
X131642857Y-56714285D01*
X131738095Y-56714285D01*
X131880952Y-56761904D01*
X132452380Y-57333333D01*
X132452380Y-56714285D01*
X150952380Y-63666666D02*
X150476190Y-64000000D01*
X150952380Y-64238095D02*
X149952380Y-64238095D01*
X149952380Y-63857142D01*
X150000000Y-63761904D01*
X150047619Y-63714285D01*
X150142857Y-63666666D01*
X150285714Y-63666666D01*
X150380952Y-63714285D01*
X150428571Y-63761904D01*
X150476190Y-63857142D01*
X150476190Y-64238095D01*
X149952380Y-62761904D02*
X149952380Y-63238095D01*
X150428571Y-63285714D01*
X150380952Y-63238095D01*
X150333333Y-63142857D01*
X150333333Y-62904761D01*
X150380952Y-62809523D01*
X150428571Y-62761904D01*
X150523809Y-62714285D01*
X150761904Y-62714285D01*
X150857142Y-62761904D01*
X150904761Y-62809523D01*
X150952380Y-62904761D01*
X150952380Y-63142857D01*
X150904761Y-63238095D01*
X150857142Y-63285714D01*
X126952380Y-57666666D02*
X126476190Y-58000000D01*
X126952380Y-58238095D02*
X125952380Y-58238095D01*
X125952380Y-57857142D01*
X126000000Y-57761904D01*
X126047619Y-57714285D01*
X126142857Y-57666666D01*
X126285714Y-57666666D01*
X126380952Y-57714285D01*
X126428571Y-57761904D01*
X126476190Y-57857142D01*
X126476190Y-58238095D01*
X126952380Y-56714285D02*
X126952380Y-57285714D01*
X126952380Y-57000000D02*
X125952380Y-57000000D01*
X126095238Y-57095238D01*
X126190476Y-57190476D01*
X126238095Y-57285714D01*
X156452380Y-63666666D02*
X155976190Y-64000000D01*
X156452380Y-64238095D02*
X155452380Y-64238095D01*
X155452380Y-63857142D01*
X155500000Y-63761904D01*
X155547619Y-63714285D01*
X155642857Y-63666666D01*
X155785714Y-63666666D01*
X155880952Y-63714285D01*
X155928571Y-63761904D01*
X155976190Y-63857142D01*
X155976190Y-64238095D01*
X155452380Y-62809523D02*
X155452380Y-63000000D01*
X155500000Y-63095238D01*
X155547619Y-63142857D01*
X155690476Y-63238095D01*
X155880952Y-63285714D01*
X156261904Y-63285714D01*
X156357142Y-63238095D01*
X156404761Y-63190476D01*
X156452380Y-63095238D01*
X156452380Y-62904761D01*
X156404761Y-62809523D01*
X156357142Y-62761904D01*
X156261904Y-62714285D01*
X156023809Y-62714285D01*
X155928571Y-62761904D01*
X155880952Y-62809523D01*
X155833333Y-62904761D01*
X155833333Y-63095238D01*
X155880952Y-63190476D01*
X155928571Y-63238095D01*
X156023809Y-63285714D01*
X140440476Y-97952380D02*
X140440476Y-98666666D01*
X140392857Y-98809523D01*
X140297619Y-98904761D01*
X140154761Y-98952380D01*
X140059523Y-98952380D01*
X141440476Y-98952380D02*
X140869047Y-98952380D01*
X141154761Y-98952380D02*
X141154761Y-97952380D01*
X141059523Y-98095238D01*
X140964285Y-98190476D01*
X140869047Y-98238095D01*
X142392857Y-98952380D02*
X141821428Y-98952380D01*
X142107142Y-98952380D02*
X142107142Y-97952380D01*
X142011904Y-98095238D01*
X141916666Y-98190476D01*
X141821428Y-98238095D01*
X140916666Y-80452380D02*
X140916666Y-81166666D01*
X140869047Y-81309523D01*
X140773809Y-81404761D01*
X140630952Y-81452380D01*
X140535714Y-81452380D01*
X141821428Y-80785714D02*
X141821428Y-81452380D01*
X141583333Y-80404761D02*
X141345238Y-81119047D01*
X141964285Y-81119047D01*
X129916666Y-88452380D02*
X129916666Y-89166666D01*
X129869047Y-89309523D01*
X129773809Y-89404761D01*
X129630952Y-89452380D01*
X129535714Y-89452380D01*
X130297619Y-88452380D02*
X130964285Y-88452380D01*
X130535714Y-89452380D01*
X129916666Y-80452380D02*
X129916666Y-81166666D01*
X129869047Y-81309523D01*
X129773809Y-81404761D01*
X129630952Y-81452380D01*
X129535714Y-81452380D01*
X130297619Y-80452380D02*
X130916666Y-80452380D01*
X130583333Y-80833333D01*
X130726190Y-80833333D01*
X130821428Y-80880952D01*
X130869047Y-80928571D01*
X130916666Y-81023809D01*
X130916666Y-81261904D01*
X130869047Y-81357142D01*
X130821428Y-81404761D01*
X130726190Y-81452380D01*
X130440476Y-81452380D01*
X130345238Y-81404761D01*
X130297619Y-81357142D01*
X140916666Y-88452380D02*
X140916666Y-89166666D01*
X140869047Y-89309523D01*
X140773809Y-89404761D01*
X140630952Y-89452380D01*
X140535714Y-89452380D01*
X141535714Y-88880952D02*
X141440476Y-88833333D01*
X141392857Y-88785714D01*
X141345238Y-88690476D01*
X141345238Y-88642857D01*
X141392857Y-88547619D01*
X141440476Y-88500000D01*
X141535714Y-88452380D01*
X141726190Y-88452380D01*
X141821428Y-88500000D01*
X141869047Y-88547619D01*
X141916666Y-88642857D01*
X141916666Y-88690476D01*
X141869047Y-88785714D01*
X141821428Y-88833333D01*
X141726190Y-88880952D01*
X141535714Y-88880952D01*
X141440476Y-88928571D01*
X141392857Y-88976190D01*
X141345238Y-89071428D01*
X141345238Y-89261904D01*
X141392857Y-89357142D01*
X141440476Y-89404761D01*
X141535714Y-89452380D01*
X141726190Y-89452380D01*
X141821428Y-89404761D01*
X141869047Y-89357142D01*
X141916666Y-89261904D01*
X141916666Y-89071428D01*
X141869047Y-88976190D01*
X141821428Y-88928571D01*
X141726190Y-88880952D01*
X153416666Y-39452380D02*
X153416666Y-40166666D01*
X153369047Y-40309523D01*
X153273809Y-40404761D01*
X153130952Y-40452380D01*
X153035714Y-40452380D01*
X153845238Y-39547619D02*
X153892857Y-39500000D01*
X153988095Y-39452380D01*
X154226190Y-39452380D01*
X154321428Y-39500000D01*
X154369047Y-39547619D01*
X154416666Y-39642857D01*
X154416666Y-39738095D01*
X154369047Y-39880952D01*
X153797619Y-40452380D01*
X154416666Y-40452380D01*
X139416666Y-39452380D02*
X139416666Y-40166666D01*
X139369047Y-40309523D01*
X139273809Y-40404761D01*
X139130952Y-40452380D01*
X139035714Y-40452380D01*
X140416666Y-40452380D02*
X139845238Y-40452380D01*
X140130952Y-40452380D02*
X140130952Y-39452380D01*
X140035714Y-39595238D01*
X139940476Y-39690476D01*
X139845238Y-39738095D01*
M02*
