G04 #@! TF.GenerationSoftware,KiCad,Pcbnew,(5.1.7)-1*
G04 #@! TF.CreationDate,2020-12-10T18:12:25+02:00*
G04 #@! TF.ProjectId,8_switch_array,385f7377-6974-4636-985f-61727261792e,rev?*
G04 #@! TF.SameCoordinates,Original*
G04 #@! TF.FileFunction,Soldermask,Top*
G04 #@! TF.FilePolarity,Negative*
%FSLAX46Y46*%
G04 Gerber Fmt 4.6, Leading zero omitted, Abs format (unit mm)*
G04 Created by KiCad (PCBNEW (5.1.7)-1) date 2020-12-10 18:12:25*
%MOMM*%
%LPD*%
G01*
G04 APERTURE LIST*
%ADD10O,1.700000X2.000000*%
%ADD11R,1.600000X1.600000*%
%ADD12O,1.600000X1.600000*%
%ADD13C,1.600000*%
%ADD14R,1.500000X1.500000*%
%ADD15C,1.500000*%
%ADD16C,2.000000*%
%ADD17C,3.200000*%
%ADD18O,1.700000X1.950000*%
G04 APERTURE END LIST*
D10*
X151000000Y-100500000D03*
G36*
G01*
X154350000Y-99750000D02*
X154350000Y-101250000D01*
G75*
G02*
X154100000Y-101500000I-250000J0D01*
G01*
X152900000Y-101500000D01*
G75*
G02*
X152650000Y-101250000I0J250000D01*
G01*
X152650000Y-99750000D01*
G75*
G02*
X152900000Y-99500000I250000J0D01*
G01*
X154100000Y-99500000D01*
G75*
G02*
X154350000Y-99750000I0J-250000D01*
G01*
G37*
D11*
X138000000Y-54500000D03*
D12*
X155780000Y-46880000D03*
X140540000Y-54500000D03*
X153240000Y-46880000D03*
X143080000Y-54500000D03*
X150700000Y-46880000D03*
X145620000Y-54500000D03*
X148160000Y-46880000D03*
X148160000Y-54500000D03*
X145620000Y-46880000D03*
X150700000Y-54500000D03*
X143080000Y-46880000D03*
X153240000Y-54500000D03*
X140540000Y-46880000D03*
X155780000Y-54500000D03*
X138000000Y-46880000D03*
D13*
X129500000Y-47000000D03*
X134500000Y-47000000D03*
D14*
X160000000Y-66000000D03*
D15*
X160000000Y-71080000D03*
X160000000Y-68540000D03*
D16*
X166000000Y-62000000D03*
X166000000Y-53000000D03*
X160500000Y-62000000D03*
X160500000Y-53000000D03*
X144000000Y-68000000D03*
X144000000Y-59000000D03*
X138500000Y-68000000D03*
X138500000Y-59000000D03*
D14*
X165500000Y-66000000D03*
D15*
X165500000Y-71080000D03*
X165500000Y-68540000D03*
D14*
X139500000Y-75500000D03*
D15*
X144580000Y-75500000D03*
X142040000Y-75500000D03*
D14*
X132000000Y-75500000D03*
D15*
X137080000Y-75500000D03*
X134540000Y-75500000D03*
D10*
X162000000Y-91000000D03*
G36*
G01*
X165350000Y-90250000D02*
X165350000Y-91750000D01*
G75*
G02*
X165100000Y-92000000I-250000J0D01*
G01*
X163900000Y-92000000D01*
G75*
G02*
X163650000Y-91750000I0J250000D01*
G01*
X163650000Y-90250000D01*
G75*
G02*
X163900000Y-90000000I250000J0D01*
G01*
X165100000Y-90000000D01*
G75*
G02*
X165350000Y-90250000I0J-250000D01*
G01*
G37*
X151000000Y-91000000D03*
G36*
G01*
X154350000Y-90250000D02*
X154350000Y-91750000D01*
G75*
G02*
X154100000Y-92000000I-250000J0D01*
G01*
X152900000Y-92000000D01*
G75*
G02*
X152650000Y-91750000I0J250000D01*
G01*
X152650000Y-90250000D01*
G75*
G02*
X152900000Y-90000000I250000J0D01*
G01*
X154100000Y-90000000D01*
G75*
G02*
X154350000Y-90250000I0J-250000D01*
G01*
G37*
X162000000Y-83000000D03*
G36*
G01*
X165350000Y-82250000D02*
X165350000Y-83750000D01*
G75*
G02*
X165100000Y-84000000I-250000J0D01*
G01*
X163900000Y-84000000D01*
G75*
G02*
X163650000Y-83750000I0J250000D01*
G01*
X163650000Y-82250000D01*
G75*
G02*
X163900000Y-82000000I250000J0D01*
G01*
X165100000Y-82000000D01*
G75*
G02*
X165350000Y-82250000I0J-250000D01*
G01*
G37*
X151000000Y-83000000D03*
G36*
G01*
X154350000Y-82250000D02*
X154350000Y-83750000D01*
G75*
G02*
X154100000Y-84000000I-250000J0D01*
G01*
X152900000Y-84000000D01*
G75*
G02*
X152650000Y-83750000I0J250000D01*
G01*
X152650000Y-82250000D01*
G75*
G02*
X152900000Y-82000000I250000J0D01*
G01*
X154100000Y-82000000D01*
G75*
G02*
X154350000Y-82250000I0J-250000D01*
G01*
G37*
D17*
X166000000Y-37000000D03*
X166000000Y-101000000D03*
X127500000Y-101000000D03*
X127500000Y-37000000D03*
D16*
X133000000Y-62000000D03*
X133000000Y-53000000D03*
X149500000Y-68000000D03*
X149500000Y-59000000D03*
X127500000Y-62000000D03*
X127500000Y-53000000D03*
X155000000Y-68000000D03*
X155000000Y-59000000D03*
D14*
X133000000Y-66000000D03*
D15*
X133000000Y-71080000D03*
X133000000Y-68540000D03*
D14*
X147000000Y-75500000D03*
D15*
X152080000Y-75500000D03*
X149540000Y-75500000D03*
D14*
X127500000Y-66000000D03*
D15*
X127500000Y-71080000D03*
X127500000Y-68540000D03*
D14*
X154500000Y-75500000D03*
D15*
X159580000Y-75500000D03*
X157040000Y-75500000D03*
D10*
X140000000Y-100500000D03*
G36*
G01*
X143350000Y-99750000D02*
X143350000Y-101250000D01*
G75*
G02*
X143100000Y-101500000I-250000J0D01*
G01*
X141900000Y-101500000D01*
G75*
G02*
X141650000Y-101250000I0J250000D01*
G01*
X141650000Y-99750000D01*
G75*
G02*
X141900000Y-99500000I250000J0D01*
G01*
X143100000Y-99500000D01*
G75*
G02*
X143350000Y-99750000I0J-250000D01*
G01*
G37*
X140000000Y-83000000D03*
G36*
G01*
X143350000Y-82250000D02*
X143350000Y-83750000D01*
G75*
G02*
X143100000Y-84000000I-250000J0D01*
G01*
X141900000Y-84000000D01*
G75*
G02*
X141650000Y-83750000I0J250000D01*
G01*
X141650000Y-82250000D01*
G75*
G02*
X141900000Y-82000000I250000J0D01*
G01*
X143100000Y-82000000D01*
G75*
G02*
X143350000Y-82250000I0J-250000D01*
G01*
G37*
X129000000Y-91000000D03*
G36*
G01*
X132350000Y-90250000D02*
X132350000Y-91750000D01*
G75*
G02*
X132100000Y-92000000I-250000J0D01*
G01*
X130900000Y-92000000D01*
G75*
G02*
X130650000Y-91750000I0J250000D01*
G01*
X130650000Y-90250000D01*
G75*
G02*
X130900000Y-90000000I250000J0D01*
G01*
X132100000Y-90000000D01*
G75*
G02*
X132350000Y-90250000I0J-250000D01*
G01*
G37*
X129000000Y-83000000D03*
G36*
G01*
X132350000Y-82250000D02*
X132350000Y-83750000D01*
G75*
G02*
X132100000Y-84000000I-250000J0D01*
G01*
X130900000Y-84000000D01*
G75*
G02*
X130650000Y-83750000I0J250000D01*
G01*
X130650000Y-82250000D01*
G75*
G02*
X130900000Y-82000000I250000J0D01*
G01*
X132100000Y-82000000D01*
G75*
G02*
X132350000Y-82250000I0J-250000D01*
G01*
G37*
X140000000Y-91000000D03*
G36*
G01*
X143350000Y-90250000D02*
X143350000Y-91750000D01*
G75*
G02*
X143100000Y-92000000I-250000J0D01*
G01*
X141900000Y-92000000D01*
G75*
G02*
X141650000Y-91750000I0J250000D01*
G01*
X141650000Y-90250000D01*
G75*
G02*
X141900000Y-90000000I250000J0D01*
G01*
X143100000Y-90000000D01*
G75*
G02*
X143350000Y-90250000I0J-250000D01*
G01*
G37*
D18*
X157500000Y-38000000D03*
X155000000Y-38000000D03*
X152500000Y-38000000D03*
G36*
G01*
X149150000Y-38725000D02*
X149150000Y-37275000D01*
G75*
G02*
X149400000Y-37025000I250000J0D01*
G01*
X150600000Y-37025000D01*
G75*
G02*
X150850000Y-37275000I0J-250000D01*
G01*
X150850000Y-38725000D01*
G75*
G02*
X150600000Y-38975000I-250000J0D01*
G01*
X149400000Y-38975000D01*
G75*
G02*
X149150000Y-38725000I0J250000D01*
G01*
G37*
X143500000Y-38000000D03*
X141000000Y-38000000D03*
X138500000Y-38000000D03*
G36*
G01*
X135150000Y-38725000D02*
X135150000Y-37275000D01*
G75*
G02*
X135400000Y-37025000I250000J0D01*
G01*
X136600000Y-37025000D01*
G75*
G02*
X136850000Y-37275000I0J-250000D01*
G01*
X136850000Y-38725000D01*
G75*
G02*
X136600000Y-38975000I-250000J0D01*
G01*
X135400000Y-38975000D01*
G75*
G02*
X135150000Y-38725000I0J250000D01*
G01*
G37*
M02*
