G04 #@! TF.GenerationSoftware,KiCad,Pcbnew,5.1.10-88a1d61d58~90~ubuntu20.04.1*
G04 #@! TF.CreationDate,2022-01-16T21:05:33+00:00*
G04 #@! TF.ProjectId,hum_temp_sensor,68756d5f-7465-46d7-905f-73656e736f72,rev?*
G04 #@! TF.SameCoordinates,Original*
G04 #@! TF.FileFunction,Other,ECO1*
%FSLAX46Y46*%
G04 Gerber Fmt 4.6, Leading zero omitted, Abs format (unit mm)*
G04 Created by KiCad (PCBNEW 5.1.10-88a1d61d58~90~ubuntu20.04.1) date 2022-01-16 21:05:33*
%MOMM*%
%LPD*%
G01*
G04 APERTURE LIST*
%ADD10C,0.150000*%
G04 APERTURE END LIST*
D10*
X86666666Y-124357142D02*
X86619047Y-124404761D01*
X86476190Y-124452380D01*
X86380952Y-124452380D01*
X86238095Y-124404761D01*
X86142857Y-124309523D01*
X86095238Y-124214285D01*
X86047619Y-124023809D01*
X86047619Y-123880952D01*
X86095238Y-123690476D01*
X86142857Y-123595238D01*
X86238095Y-123500000D01*
X86380952Y-123452380D01*
X86476190Y-123452380D01*
X86619047Y-123500000D01*
X86666666Y-123547619D01*
X87238095Y-124452380D02*
X87142857Y-124404761D01*
X87095238Y-124357142D01*
X87047619Y-124261904D01*
X87047619Y-123976190D01*
X87095238Y-123880952D01*
X87142857Y-123833333D01*
X87238095Y-123785714D01*
X87380952Y-123785714D01*
X87476190Y-123833333D01*
X87523809Y-123880952D01*
X87571428Y-123976190D01*
X87571428Y-124261904D01*
X87523809Y-124357142D01*
X87476190Y-124404761D01*
X87380952Y-124452380D01*
X87238095Y-124452380D01*
X88000000Y-123785714D02*
X88000000Y-124452380D01*
X88000000Y-123880952D02*
X88047619Y-123833333D01*
X88142857Y-123785714D01*
X88285714Y-123785714D01*
X88380952Y-123833333D01*
X88428571Y-123928571D01*
X88428571Y-124452380D01*
X88904761Y-123785714D02*
X88904761Y-124452380D01*
X88904761Y-123880952D02*
X88952380Y-123833333D01*
X89047619Y-123785714D01*
X89190476Y-123785714D01*
X89285714Y-123833333D01*
X89333333Y-123928571D01*
X89333333Y-124452380D01*
X90190476Y-124404761D02*
X90095238Y-124452380D01*
X89904761Y-124452380D01*
X89809523Y-124404761D01*
X89761904Y-124309523D01*
X89761904Y-123928571D01*
X89809523Y-123833333D01*
X89904761Y-123785714D01*
X90095238Y-123785714D01*
X90190476Y-123833333D01*
X90238095Y-123928571D01*
X90238095Y-124023809D01*
X89761904Y-124119047D01*
X91095238Y-124404761D02*
X91000000Y-124452380D01*
X90809523Y-124452380D01*
X90714285Y-124404761D01*
X90666666Y-124357142D01*
X90619047Y-124261904D01*
X90619047Y-123976190D01*
X90666666Y-123880952D01*
X90714285Y-123833333D01*
X90809523Y-123785714D01*
X91000000Y-123785714D01*
X91095238Y-123833333D01*
X91380952Y-123785714D02*
X91761904Y-123785714D01*
X91523809Y-123452380D02*
X91523809Y-124309523D01*
X91571428Y-124404761D01*
X91666666Y-124452380D01*
X91761904Y-124452380D01*
X92238095Y-124452380D02*
X92142857Y-124404761D01*
X92095238Y-124357142D01*
X92047619Y-124261904D01*
X92047619Y-123976190D01*
X92095238Y-123880952D01*
X92142857Y-123833333D01*
X92238095Y-123785714D01*
X92380952Y-123785714D01*
X92476190Y-123833333D01*
X92523809Y-123880952D01*
X92571428Y-123976190D01*
X92571428Y-124261904D01*
X92523809Y-124357142D01*
X92476190Y-124404761D01*
X92380952Y-124452380D01*
X92238095Y-124452380D01*
X93000000Y-124452380D02*
X93000000Y-123785714D01*
X93000000Y-123976190D02*
X93047619Y-123880952D01*
X93095238Y-123833333D01*
X93190476Y-123785714D01*
X93285714Y-123785714D01*
X94380952Y-124452380D02*
X94380952Y-123785714D01*
X94380952Y-123452380D02*
X94333333Y-123500000D01*
X94380952Y-123547619D01*
X94428571Y-123500000D01*
X94380952Y-123452380D01*
X94380952Y-123547619D01*
X94809523Y-124404761D02*
X94904761Y-124452380D01*
X95095238Y-124452380D01*
X95190476Y-124404761D01*
X95238095Y-124309523D01*
X95238095Y-124261904D01*
X95190476Y-124166666D01*
X95095238Y-124119047D01*
X94952380Y-124119047D01*
X94857142Y-124071428D01*
X94809523Y-123976190D01*
X94809523Y-123928571D01*
X94857142Y-123833333D01*
X94952380Y-123785714D01*
X95095238Y-123785714D01*
X95190476Y-123833333D01*
X96428571Y-123785714D02*
X96428571Y-124785714D01*
X96428571Y-123833333D02*
X96523809Y-123785714D01*
X96714285Y-123785714D01*
X96809523Y-123833333D01*
X96857142Y-123880952D01*
X96904761Y-123976190D01*
X96904761Y-124261904D01*
X96857142Y-124357142D01*
X96809523Y-124404761D01*
X96714285Y-124452380D01*
X96523809Y-124452380D01*
X96428571Y-124404761D01*
X97476190Y-124452380D02*
X97380952Y-124404761D01*
X97333333Y-124309523D01*
X97333333Y-123452380D01*
X98285714Y-124452380D02*
X98285714Y-123928571D01*
X98238095Y-123833333D01*
X98142857Y-123785714D01*
X97952380Y-123785714D01*
X97857142Y-123833333D01*
X98285714Y-124404761D02*
X98190476Y-124452380D01*
X97952380Y-124452380D01*
X97857142Y-124404761D01*
X97809523Y-124309523D01*
X97809523Y-124214285D01*
X97857142Y-124119047D01*
X97952380Y-124071428D01*
X98190476Y-124071428D01*
X98285714Y-124023809D01*
X99190476Y-124404761D02*
X99095238Y-124452380D01*
X98904761Y-124452380D01*
X98809523Y-124404761D01*
X98761904Y-124357142D01*
X98714285Y-124261904D01*
X98714285Y-123976190D01*
X98761904Y-123880952D01*
X98809523Y-123833333D01*
X98904761Y-123785714D01*
X99095238Y-123785714D01*
X99190476Y-123833333D01*
X100000000Y-124404761D02*
X99904761Y-124452380D01*
X99714285Y-124452380D01*
X99619047Y-124404761D01*
X99571428Y-124309523D01*
X99571428Y-123928571D01*
X99619047Y-123833333D01*
X99714285Y-123785714D01*
X99904761Y-123785714D01*
X100000000Y-123833333D01*
X100047619Y-123928571D01*
X100047619Y-124023809D01*
X99571428Y-124119047D01*
X100904761Y-124452380D02*
X100904761Y-123452380D01*
X100904761Y-124404761D02*
X100809523Y-124452380D01*
X100619047Y-124452380D01*
X100523809Y-124404761D01*
X100476190Y-124357142D01*
X100428571Y-124261904D01*
X100428571Y-123976190D01*
X100476190Y-123880952D01*
X100523809Y-123833333D01*
X100619047Y-123785714D01*
X100809523Y-123785714D01*
X100904761Y-123833333D01*
X102000000Y-123785714D02*
X102380952Y-123785714D01*
X102142857Y-123452380D02*
X102142857Y-124309523D01*
X102190476Y-124404761D01*
X102285714Y-124452380D01*
X102380952Y-124452380D01*
X102714285Y-124452380D02*
X102714285Y-123452380D01*
X103142857Y-124452380D02*
X103142857Y-123928571D01*
X103095238Y-123833333D01*
X103000000Y-123785714D01*
X102857142Y-123785714D01*
X102761904Y-123833333D01*
X102714285Y-123880952D01*
X103619047Y-124452380D02*
X103619047Y-123785714D01*
X103619047Y-123452380D02*
X103571428Y-123500000D01*
X103619047Y-123547619D01*
X103666666Y-123500000D01*
X103619047Y-123452380D01*
X103619047Y-123547619D01*
X104047619Y-124404761D02*
X104142857Y-124452380D01*
X104333333Y-124452380D01*
X104428571Y-124404761D01*
X104476190Y-124309523D01*
X104476190Y-124261904D01*
X104428571Y-124166666D01*
X104333333Y-124119047D01*
X104190476Y-124119047D01*
X104095238Y-124071428D01*
X104047619Y-123976190D01*
X104047619Y-123928571D01*
X104095238Y-123833333D01*
X104190476Y-123785714D01*
X104333333Y-123785714D01*
X104428571Y-123833333D01*
X105571428Y-123785714D02*
X105761904Y-124452380D01*
X105952380Y-123976190D01*
X106142857Y-124452380D01*
X106333333Y-123785714D01*
X107142857Y-124452380D02*
X107142857Y-123928571D01*
X107095238Y-123833333D01*
X107000000Y-123785714D01*
X106809523Y-123785714D01*
X106714285Y-123833333D01*
X107142857Y-124404761D02*
X107047619Y-124452380D01*
X106809523Y-124452380D01*
X106714285Y-124404761D01*
X106666666Y-124309523D01*
X106666666Y-124214285D01*
X106714285Y-124119047D01*
X106809523Y-124071428D01*
X107047619Y-124071428D01*
X107142857Y-124023809D01*
X107523809Y-123785714D02*
X107761904Y-124452380D01*
X108000000Y-123785714D02*
X107761904Y-124452380D01*
X107666666Y-124690476D01*
X107619047Y-124738095D01*
X107523809Y-124785714D01*
X109000000Y-123785714D02*
X109380952Y-123785714D01*
X109142857Y-123452380D02*
X109142857Y-124309523D01*
X109190476Y-124404761D01*
X109285714Y-124452380D01*
X109380952Y-124452380D01*
X109857142Y-124452380D02*
X109761904Y-124404761D01*
X109714285Y-124357142D01*
X109666666Y-124261904D01*
X109666666Y-123976190D01*
X109714285Y-123880952D01*
X109761904Y-123833333D01*
X109857142Y-123785714D01*
X110000000Y-123785714D01*
X110095238Y-123833333D01*
X110142857Y-123880952D01*
X110190476Y-123976190D01*
X110190476Y-124261904D01*
X110142857Y-124357142D01*
X110095238Y-124404761D01*
X110000000Y-124452380D01*
X109857142Y-124452380D01*
X111380952Y-124452380D02*
X111380952Y-123452380D01*
X111380952Y-123833333D02*
X111476190Y-123785714D01*
X111666666Y-123785714D01*
X111761904Y-123833333D01*
X111809523Y-123880952D01*
X111857142Y-123976190D01*
X111857142Y-124261904D01*
X111809523Y-124357142D01*
X111761904Y-124404761D01*
X111666666Y-124452380D01*
X111476190Y-124452380D01*
X111380952Y-124404761D01*
X112666666Y-124404761D02*
X112571428Y-124452380D01*
X112380952Y-124452380D01*
X112285714Y-124404761D01*
X112238095Y-124309523D01*
X112238095Y-123928571D01*
X112285714Y-123833333D01*
X112380952Y-123785714D01*
X112571428Y-123785714D01*
X112666666Y-123833333D01*
X112714285Y-123928571D01*
X112714285Y-124023809D01*
X112238095Y-124119047D01*
X114333333Y-124404761D02*
X114238095Y-124452380D01*
X114047619Y-124452380D01*
X113952380Y-124404761D01*
X113904761Y-124357142D01*
X113857142Y-124261904D01*
X113857142Y-123976190D01*
X113904761Y-123880952D01*
X113952380Y-123833333D01*
X114047619Y-123785714D01*
X114238095Y-123785714D01*
X114333333Y-123833333D01*
X114904761Y-124452380D02*
X114809523Y-124404761D01*
X114761904Y-124357142D01*
X114714285Y-124261904D01*
X114714285Y-123976190D01*
X114761904Y-123880952D01*
X114809523Y-123833333D01*
X114904761Y-123785714D01*
X115047619Y-123785714D01*
X115142857Y-123833333D01*
X115190476Y-123880952D01*
X115238095Y-123976190D01*
X115238095Y-124261904D01*
X115190476Y-124357142D01*
X115142857Y-124404761D01*
X115047619Y-124452380D01*
X114904761Y-124452380D01*
X115666666Y-124452380D02*
X115666666Y-123785714D01*
X115666666Y-123880952D02*
X115714285Y-123833333D01*
X115809523Y-123785714D01*
X115952380Y-123785714D01*
X116047619Y-123833333D01*
X116095238Y-123928571D01*
X116095238Y-124452380D01*
X116095238Y-123928571D02*
X116142857Y-123833333D01*
X116238095Y-123785714D01*
X116380952Y-123785714D01*
X116476190Y-123833333D01*
X116523809Y-123928571D01*
X116523809Y-124452380D01*
X117000000Y-123785714D02*
X117000000Y-124785714D01*
X117000000Y-123833333D02*
X117095238Y-123785714D01*
X117285714Y-123785714D01*
X117380952Y-123833333D01*
X117428571Y-123880952D01*
X117476190Y-123976190D01*
X117476190Y-124261904D01*
X117428571Y-124357142D01*
X117380952Y-124404761D01*
X117285714Y-124452380D01*
X117095238Y-124452380D01*
X117000000Y-124404761D01*
X118333333Y-124452380D02*
X118333333Y-123928571D01*
X118285714Y-123833333D01*
X118190476Y-123785714D01*
X118000000Y-123785714D01*
X117904761Y-123833333D01*
X118333333Y-124404761D02*
X118238095Y-124452380D01*
X118000000Y-124452380D01*
X117904761Y-124404761D01*
X117857142Y-124309523D01*
X117857142Y-124214285D01*
X117904761Y-124119047D01*
X118000000Y-124071428D01*
X118238095Y-124071428D01*
X118333333Y-124023809D01*
X118666666Y-123785714D02*
X119047619Y-123785714D01*
X118809523Y-123452380D02*
X118809523Y-124309523D01*
X118857142Y-124404761D01*
X118952380Y-124452380D01*
X119047619Y-124452380D01*
X119761904Y-124404761D02*
X119666666Y-124452380D01*
X119476190Y-124452380D01*
X119380952Y-124404761D01*
X119333333Y-124309523D01*
X119333333Y-123928571D01*
X119380952Y-123833333D01*
X119476190Y-123785714D01*
X119666666Y-123785714D01*
X119761904Y-123833333D01*
X119809523Y-123928571D01*
X119809523Y-124023809D01*
X119333333Y-124119047D01*
X120238095Y-124452380D02*
X120238095Y-123452380D01*
X120238095Y-123833333D02*
X120333333Y-123785714D01*
X120523809Y-123785714D01*
X120619047Y-123833333D01*
X120666666Y-123880952D01*
X120714285Y-123976190D01*
X120714285Y-124261904D01*
X120666666Y-124357142D01*
X120619047Y-124404761D01*
X120523809Y-124452380D01*
X120333333Y-124452380D01*
X120238095Y-124404761D01*
X121285714Y-124452380D02*
X121190476Y-124404761D01*
X121142857Y-124309523D01*
X121142857Y-123452380D01*
X122047619Y-124404761D02*
X121952380Y-124452380D01*
X121761904Y-124452380D01*
X121666666Y-124404761D01*
X121619047Y-124309523D01*
X121619047Y-123928571D01*
X121666666Y-123833333D01*
X121761904Y-123785714D01*
X121952380Y-123785714D01*
X122047619Y-123833333D01*
X122095238Y-123928571D01*
X122095238Y-124023809D01*
X121619047Y-124119047D01*
X123190476Y-123785714D02*
X123380952Y-124452380D01*
X123571428Y-123976190D01*
X123761904Y-124452380D01*
X123952380Y-123785714D01*
X124333333Y-124452380D02*
X124333333Y-123785714D01*
X124333333Y-123452380D02*
X124285714Y-123500000D01*
X124333333Y-123547619D01*
X124380952Y-123500000D01*
X124333333Y-123452380D01*
X124333333Y-123547619D01*
X124666666Y-123785714D02*
X125047619Y-123785714D01*
X124809523Y-123452380D02*
X124809523Y-124309523D01*
X124857142Y-124404761D01*
X124952380Y-124452380D01*
X125047619Y-124452380D01*
X125380952Y-124452380D02*
X125380952Y-123452380D01*
X125809523Y-124452380D02*
X125809523Y-123928571D01*
X125761904Y-123833333D01*
X125666666Y-123785714D01*
X125523809Y-123785714D01*
X125428571Y-123833333D01*
X125380952Y-123880952D01*
X127571428Y-123500000D02*
X127476190Y-123452380D01*
X127333333Y-123452380D01*
X127190476Y-123500000D01*
X127095238Y-123595238D01*
X127047619Y-123690476D01*
X127000000Y-123880952D01*
X127000000Y-124023809D01*
X127047619Y-124214285D01*
X127095238Y-124309523D01*
X127190476Y-124404761D01*
X127333333Y-124452380D01*
X127428571Y-124452380D01*
X127571428Y-124404761D01*
X127619047Y-124357142D01*
X127619047Y-124023809D01*
X127428571Y-124023809D01*
X128047619Y-124452380D02*
X128047619Y-123785714D01*
X128047619Y-123976190D02*
X128095238Y-123880952D01*
X128142857Y-123833333D01*
X128238095Y-123785714D01*
X128333333Y-123785714D01*
X128809523Y-124452380D02*
X128714285Y-124404761D01*
X128666666Y-124357142D01*
X128619047Y-124261904D01*
X128619047Y-123976190D01*
X128666666Y-123880952D01*
X128714285Y-123833333D01*
X128809523Y-123785714D01*
X128952380Y-123785714D01*
X129047619Y-123833333D01*
X129095238Y-123880952D01*
X129142857Y-123976190D01*
X129142857Y-124261904D01*
X129095238Y-124357142D01*
X129047619Y-124404761D01*
X128952380Y-124452380D01*
X128809523Y-124452380D01*
X129476190Y-123785714D02*
X129714285Y-124452380D01*
X129952380Y-123785714D01*
X130714285Y-124404761D02*
X130619047Y-124452380D01*
X130428571Y-124452380D01*
X130333333Y-124404761D01*
X130285714Y-124309523D01*
X130285714Y-123928571D01*
X130333333Y-123833333D01*
X130428571Y-123785714D01*
X130619047Y-123785714D01*
X130714285Y-123833333D01*
X130761904Y-123928571D01*
X130761904Y-124023809D01*
X130285714Y-124119047D01*
X131952380Y-124452380D02*
X131952380Y-123785714D01*
X131952380Y-123880952D02*
X131999999Y-123833333D01*
X132095238Y-123785714D01*
X132238095Y-123785714D01*
X132333333Y-123833333D01*
X132380952Y-123928571D01*
X132380952Y-124452380D01*
X132380952Y-123928571D02*
X132428571Y-123833333D01*
X132523809Y-123785714D01*
X132666666Y-123785714D01*
X132761904Y-123833333D01*
X132809523Y-123928571D01*
X132809523Y-124452380D01*
X133428571Y-124452380D02*
X133333333Y-124404761D01*
X133285714Y-124357142D01*
X133238095Y-124261904D01*
X133238095Y-123976190D01*
X133285714Y-123880952D01*
X133333333Y-123833333D01*
X133428571Y-123785714D01*
X133571428Y-123785714D01*
X133666666Y-123833333D01*
X133714285Y-123880952D01*
X133761904Y-123976190D01*
X133761904Y-124261904D01*
X133714285Y-124357142D01*
X133666666Y-124404761D01*
X133571428Y-124452380D01*
X133428571Y-124452380D01*
X134619047Y-124452380D02*
X134619047Y-123452380D01*
X134619047Y-124404761D02*
X134523809Y-124452380D01*
X134333333Y-124452380D01*
X134238095Y-124404761D01*
X134190476Y-124357142D01*
X134142857Y-124261904D01*
X134142857Y-123976190D01*
X134190476Y-123880952D01*
X134238095Y-123833333D01*
X134333333Y-123785714D01*
X134523809Y-123785714D01*
X134619047Y-123833333D01*
X135523809Y-123785714D02*
X135523809Y-124452380D01*
X135095238Y-123785714D02*
X135095238Y-124309523D01*
X135142857Y-124404761D01*
X135238095Y-124452380D01*
X135380952Y-124452380D01*
X135476190Y-124404761D01*
X135523809Y-124357142D01*
X136142857Y-124452380D02*
X136047619Y-124404761D01*
X136000000Y-124309523D01*
X136000000Y-123452380D01*
X136904761Y-124404761D02*
X136809523Y-124452380D01*
X136619047Y-124452380D01*
X136523809Y-124404761D01*
X136476190Y-124309523D01*
X136476190Y-123928571D01*
X136523809Y-123833333D01*
X136619047Y-123785714D01*
X136809523Y-123785714D01*
X136904761Y-123833333D01*
X136952380Y-123928571D01*
X136952380Y-124023809D01*
X136476190Y-124119047D01*
X138252380Y-102739285D02*
X138252380Y-102072619D01*
X139252380Y-102501190D01*
X139157142Y-101691666D02*
X139204761Y-101644047D01*
X139252380Y-101691666D01*
X139204761Y-101739285D01*
X139157142Y-101691666D01*
X139252380Y-101691666D01*
X138252380Y-101025000D02*
X138252380Y-100929761D01*
X138300000Y-100834523D01*
X138347619Y-100786904D01*
X138442857Y-100739285D01*
X138633333Y-100691666D01*
X138871428Y-100691666D01*
X139061904Y-100739285D01*
X139157142Y-100786904D01*
X139204761Y-100834523D01*
X139252380Y-100929761D01*
X139252380Y-101025000D01*
X139204761Y-101120238D01*
X139157142Y-101167857D01*
X139061904Y-101215476D01*
X138871428Y-101263095D01*
X138633333Y-101263095D01*
X138442857Y-101215476D01*
X138347619Y-101167857D01*
X138300000Y-101120238D01*
X138252380Y-101025000D01*
X138252380Y-99786904D02*
X138252380Y-100263095D01*
X138728571Y-100310714D01*
X138680952Y-100263095D01*
X138633333Y-100167857D01*
X138633333Y-99929761D01*
X138680952Y-99834523D01*
X138728571Y-99786904D01*
X138823809Y-99739285D01*
X139061904Y-99739285D01*
X139157142Y-99786904D01*
X139204761Y-99834523D01*
X139252380Y-99929761D01*
X139252380Y-100167857D01*
X139204761Y-100263095D01*
X139157142Y-100310714D01*
X138252380Y-99120238D02*
X138252380Y-99025000D01*
X138300000Y-98929761D01*
X138347619Y-98882142D01*
X138442857Y-98834523D01*
X138633333Y-98786904D01*
X138871428Y-98786904D01*
X139061904Y-98834523D01*
X139157142Y-98882142D01*
X139204761Y-98929761D01*
X139252380Y-99025000D01*
X139252380Y-99120238D01*
X139204761Y-99215476D01*
X139157142Y-99263095D01*
X139061904Y-99310714D01*
X138871428Y-99358333D01*
X138633333Y-99358333D01*
X138442857Y-99310714D01*
X138347619Y-99263095D01*
X138300000Y-99215476D01*
X138252380Y-99120238D01*
X139252380Y-97596428D02*
X138585714Y-97596428D01*
X138680952Y-97596428D02*
X138633333Y-97548809D01*
X138585714Y-97453571D01*
X138585714Y-97310714D01*
X138633333Y-97215476D01*
X138728571Y-97167857D01*
X139252380Y-97167857D01*
X138728571Y-97167857D02*
X138633333Y-97120238D01*
X138585714Y-97025000D01*
X138585714Y-96882142D01*
X138633333Y-96786904D01*
X138728571Y-96739285D01*
X139252380Y-96739285D01*
X139252380Y-96263095D02*
X138585714Y-96263095D01*
X138680952Y-96263095D02*
X138633333Y-96215476D01*
X138585714Y-96120238D01*
X138585714Y-95977380D01*
X138633333Y-95882142D01*
X138728571Y-95834523D01*
X139252380Y-95834523D01*
X138728571Y-95834523D02*
X138633333Y-95786904D01*
X138585714Y-95691666D01*
X138585714Y-95548809D01*
X138633333Y-95453571D01*
X138728571Y-95405952D01*
X139252380Y-95405952D01*
X137500000Y-102550000D02*
X137500000Y-95500000D01*
X133350000Y-102550000D02*
X138086421Y-102550000D01*
X133350000Y-95500000D02*
X138086421Y-95500000D01*
X137500000Y-95500000D02*
X138086421Y-96626504D01*
X137500000Y-95500000D02*
X136913579Y-96626504D01*
X137500000Y-102550000D02*
X138086421Y-101423496D01*
X137500000Y-102550000D02*
X136913579Y-101423496D01*
X143752380Y-105107142D02*
X143800000Y-105154761D01*
X143847619Y-105250000D01*
X143847619Y-105488095D01*
X143800000Y-105583333D01*
X143752380Y-105630952D01*
X143657142Y-105678571D01*
X143561904Y-105678571D01*
X143419047Y-105630952D01*
X142847619Y-105059523D01*
X142847619Y-105678571D01*
X143847619Y-106297619D02*
X143847619Y-106392857D01*
X143800000Y-106488095D01*
X143752380Y-106535714D01*
X143657142Y-106583333D01*
X143466666Y-106630952D01*
X143228571Y-106630952D01*
X143038095Y-106583333D01*
X142942857Y-106535714D01*
X142895238Y-106488095D01*
X142847619Y-106392857D01*
X142847619Y-106297619D01*
X142895238Y-106202380D01*
X142942857Y-106154761D01*
X143038095Y-106107142D01*
X143228571Y-106059523D01*
X143466666Y-106059523D01*
X143657142Y-106107142D01*
X143752380Y-106154761D01*
X143800000Y-106202380D01*
X143847619Y-106297619D01*
X142942857Y-107059523D02*
X142895238Y-107107142D01*
X142847619Y-107059523D01*
X142895238Y-107011904D01*
X142942857Y-107059523D01*
X142847619Y-107059523D01*
X143847619Y-108011904D02*
X143847619Y-107535714D01*
X143371428Y-107488095D01*
X143419047Y-107535714D01*
X143466666Y-107630952D01*
X143466666Y-107869047D01*
X143419047Y-107964285D01*
X143371428Y-108011904D01*
X143276190Y-108059523D01*
X143038095Y-108059523D01*
X142942857Y-108011904D01*
X142895238Y-107964285D01*
X142847619Y-107869047D01*
X142847619Y-107630952D01*
X142895238Y-107535714D01*
X142942857Y-107488095D01*
X143847619Y-108678571D02*
X143847619Y-108773809D01*
X143800000Y-108869047D01*
X143752380Y-108916666D01*
X143657142Y-108964285D01*
X143466666Y-109011904D01*
X143228571Y-109011904D01*
X143038095Y-108964285D01*
X142942857Y-108916666D01*
X142895238Y-108869047D01*
X142847619Y-108773809D01*
X142847619Y-108678571D01*
X142895238Y-108583333D01*
X142942857Y-108535714D01*
X143038095Y-108488095D01*
X143228571Y-108440476D01*
X143466666Y-108440476D01*
X143657142Y-108488095D01*
X143752380Y-108535714D01*
X143800000Y-108583333D01*
X143847619Y-108678571D01*
X143847619Y-109630952D02*
X143847619Y-109726190D01*
X143800000Y-109821428D01*
X143752380Y-109869047D01*
X143657142Y-109916666D01*
X143466666Y-109964285D01*
X143228571Y-109964285D01*
X143038095Y-109916666D01*
X142942857Y-109869047D01*
X142895238Y-109821428D01*
X142847619Y-109726190D01*
X142847619Y-109630952D01*
X142895238Y-109535714D01*
X142942857Y-109488095D01*
X143038095Y-109440476D01*
X143228571Y-109392857D01*
X143466666Y-109392857D01*
X143657142Y-109440476D01*
X143752380Y-109488095D01*
X143800000Y-109535714D01*
X143847619Y-109630952D01*
X142847619Y-111154761D02*
X143514285Y-111154761D01*
X143419047Y-111154761D02*
X143466666Y-111202380D01*
X143514285Y-111297619D01*
X143514285Y-111440476D01*
X143466666Y-111535714D01*
X143371428Y-111583333D01*
X142847619Y-111583333D01*
X143371428Y-111583333D02*
X143466666Y-111630952D01*
X143514285Y-111726190D01*
X143514285Y-111869047D01*
X143466666Y-111964285D01*
X143371428Y-112011904D01*
X142847619Y-112011904D01*
X142847619Y-112488095D02*
X143514285Y-112488095D01*
X143419047Y-112488095D02*
X143466666Y-112535714D01*
X143514285Y-112630952D01*
X143514285Y-112773809D01*
X143466666Y-112869047D01*
X143371428Y-112916666D01*
X142847619Y-112916666D01*
X143371428Y-112916666D02*
X143466666Y-112964285D01*
X143514285Y-113059523D01*
X143514285Y-113202380D01*
X143466666Y-113297619D01*
X143371428Y-113345238D01*
X142847619Y-113345238D01*
X142000000Y-99000000D02*
X142000000Y-119500000D01*
X130500000Y-99000000D02*
X142586421Y-99000000D01*
X130500000Y-119500000D02*
X142586421Y-119500000D01*
X142000000Y-119500000D02*
X141413579Y-118373496D01*
X142000000Y-119500000D02*
X142586421Y-118373496D01*
X142000000Y-99000000D02*
X141413579Y-100126504D01*
X142000000Y-99000000D02*
X142586421Y-100126504D01*
X146752380Y-105107142D02*
X146800000Y-105154761D01*
X146847619Y-105250000D01*
X146847619Y-105488095D01*
X146800000Y-105583333D01*
X146752380Y-105630952D01*
X146657142Y-105678571D01*
X146561904Y-105678571D01*
X146419047Y-105630952D01*
X145847619Y-105059523D01*
X145847619Y-105678571D01*
X146847619Y-106011904D02*
X146847619Y-106678571D01*
X145847619Y-106250000D01*
X145942857Y-107059523D02*
X145895238Y-107107142D01*
X145847619Y-107059523D01*
X145895238Y-107011904D01*
X145942857Y-107059523D01*
X145847619Y-107059523D01*
X146847619Y-108011904D02*
X146847619Y-107535714D01*
X146371428Y-107488095D01*
X146419047Y-107535714D01*
X146466666Y-107630952D01*
X146466666Y-107869047D01*
X146419047Y-107964285D01*
X146371428Y-108011904D01*
X146276190Y-108059523D01*
X146038095Y-108059523D01*
X145942857Y-108011904D01*
X145895238Y-107964285D01*
X145847619Y-107869047D01*
X145847619Y-107630952D01*
X145895238Y-107535714D01*
X145942857Y-107488095D01*
X146847619Y-108678571D02*
X146847619Y-108773809D01*
X146800000Y-108869047D01*
X146752380Y-108916666D01*
X146657142Y-108964285D01*
X146466666Y-109011904D01*
X146228571Y-109011904D01*
X146038095Y-108964285D01*
X145942857Y-108916666D01*
X145895238Y-108869047D01*
X145847619Y-108773809D01*
X145847619Y-108678571D01*
X145895238Y-108583333D01*
X145942857Y-108535714D01*
X146038095Y-108488095D01*
X146228571Y-108440476D01*
X146466666Y-108440476D01*
X146657142Y-108488095D01*
X146752380Y-108535714D01*
X146800000Y-108583333D01*
X146847619Y-108678571D01*
X146847619Y-109630952D02*
X146847619Y-109726190D01*
X146800000Y-109821428D01*
X146752380Y-109869047D01*
X146657142Y-109916666D01*
X146466666Y-109964285D01*
X146228571Y-109964285D01*
X146038095Y-109916666D01*
X145942857Y-109869047D01*
X145895238Y-109821428D01*
X145847619Y-109726190D01*
X145847619Y-109630952D01*
X145895238Y-109535714D01*
X145942857Y-109488095D01*
X146038095Y-109440476D01*
X146228571Y-109392857D01*
X146466666Y-109392857D01*
X146657142Y-109440476D01*
X146752380Y-109488095D01*
X146800000Y-109535714D01*
X146847619Y-109630952D01*
X145847619Y-111154761D02*
X146514285Y-111154761D01*
X146419047Y-111154761D02*
X146466666Y-111202380D01*
X146514285Y-111297619D01*
X146514285Y-111440476D01*
X146466666Y-111535714D01*
X146371428Y-111583333D01*
X145847619Y-111583333D01*
X146371428Y-111583333D02*
X146466666Y-111630952D01*
X146514285Y-111726190D01*
X146514285Y-111869047D01*
X146466666Y-111964285D01*
X146371428Y-112011904D01*
X145847619Y-112011904D01*
X145847619Y-112488095D02*
X146514285Y-112488095D01*
X146419047Y-112488095D02*
X146466666Y-112535714D01*
X146514285Y-112630952D01*
X146514285Y-112773809D01*
X146466666Y-112869047D01*
X146371428Y-112916666D01*
X145847619Y-112916666D01*
X146371428Y-112916666D02*
X146466666Y-112964285D01*
X146514285Y-113059523D01*
X146514285Y-113202380D01*
X146466666Y-113297619D01*
X146371428Y-113345238D01*
X145847619Y-113345238D01*
X145000000Y-95500000D02*
X145000000Y-123000000D01*
X134000000Y-95500000D02*
X145586421Y-95500000D01*
X134000000Y-123000000D02*
X145586421Y-123000000D01*
X145000000Y-123000000D02*
X144413579Y-121873496D01*
X145000000Y-123000000D02*
X145586421Y-121873496D01*
X145000000Y-95500000D02*
X144413579Y-96626504D01*
X145000000Y-95500000D02*
X145586421Y-96626504D01*
X106083333Y-89985714D02*
X106083333Y-90652380D01*
X105845238Y-89604761D02*
X105607142Y-90319047D01*
X106226190Y-90319047D01*
X107130952Y-90652380D02*
X106559523Y-90652380D01*
X106845238Y-90652380D02*
X106845238Y-89652380D01*
X106750000Y-89795238D01*
X106654761Y-89890476D01*
X106559523Y-89938095D01*
X107559523Y-90557142D02*
X107607142Y-90604761D01*
X107559523Y-90652380D01*
X107511904Y-90604761D01*
X107559523Y-90557142D01*
X107559523Y-90652380D01*
X108511904Y-89652380D02*
X108035714Y-89652380D01*
X107988095Y-90128571D01*
X108035714Y-90080952D01*
X108130952Y-90033333D01*
X108369047Y-90033333D01*
X108464285Y-90080952D01*
X108511904Y-90128571D01*
X108559523Y-90223809D01*
X108559523Y-90461904D01*
X108511904Y-90557142D01*
X108464285Y-90604761D01*
X108369047Y-90652380D01*
X108130952Y-90652380D01*
X108035714Y-90604761D01*
X107988095Y-90557142D01*
X109178571Y-89652380D02*
X109273809Y-89652380D01*
X109369047Y-89700000D01*
X109416666Y-89747619D01*
X109464285Y-89842857D01*
X109511904Y-90033333D01*
X109511904Y-90271428D01*
X109464285Y-90461904D01*
X109416666Y-90557142D01*
X109369047Y-90604761D01*
X109273809Y-90652380D01*
X109178571Y-90652380D01*
X109083333Y-90604761D01*
X109035714Y-90557142D01*
X108988095Y-90461904D01*
X108940476Y-90271428D01*
X108940476Y-90033333D01*
X108988095Y-89842857D01*
X109035714Y-89747619D01*
X109083333Y-89700000D01*
X109178571Y-89652380D01*
X110130952Y-89652380D02*
X110226190Y-89652380D01*
X110321428Y-89700000D01*
X110369047Y-89747619D01*
X110416666Y-89842857D01*
X110464285Y-90033333D01*
X110464285Y-90271428D01*
X110416666Y-90461904D01*
X110369047Y-90557142D01*
X110321428Y-90604761D01*
X110226190Y-90652380D01*
X110130952Y-90652380D01*
X110035714Y-90604761D01*
X109988095Y-90557142D01*
X109940476Y-90461904D01*
X109892857Y-90271428D01*
X109892857Y-90033333D01*
X109940476Y-89842857D01*
X109988095Y-89747619D01*
X110035714Y-89700000D01*
X110130952Y-89652380D01*
X111654761Y-90652380D02*
X111654761Y-89985714D01*
X111654761Y-90080952D02*
X111702380Y-90033333D01*
X111797619Y-89985714D01*
X111940476Y-89985714D01*
X112035714Y-90033333D01*
X112083333Y-90128571D01*
X112083333Y-90652380D01*
X112083333Y-90128571D02*
X112130952Y-90033333D01*
X112226190Y-89985714D01*
X112369047Y-89985714D01*
X112464285Y-90033333D01*
X112511904Y-90128571D01*
X112511904Y-90652380D01*
X112988095Y-90652380D02*
X112988095Y-89985714D01*
X112988095Y-90080952D02*
X113035714Y-90033333D01*
X113130952Y-89985714D01*
X113273809Y-89985714D01*
X113369047Y-90033333D01*
X113416666Y-90128571D01*
X113416666Y-90652380D01*
X113416666Y-90128571D02*
X113464285Y-90033333D01*
X113559523Y-89985714D01*
X113702380Y-89985714D01*
X113797619Y-90033333D01*
X113845238Y-90128571D01*
X113845238Y-90652380D01*
X89000000Y-91500000D02*
X130500000Y-91500000D01*
X89000000Y-99000000D02*
X89000000Y-90913579D01*
X130500000Y-99000000D02*
X130500000Y-90913579D01*
X130500000Y-91500000D02*
X129373496Y-92086421D01*
X130500000Y-91500000D02*
X129373496Y-90913579D01*
X89000000Y-91500000D02*
X90126504Y-92086421D01*
X89000000Y-91500000D02*
X90126504Y-90913579D01*
X106083333Y-86485714D02*
X106083333Y-87152380D01*
X105845238Y-86104761D02*
X105607142Y-86819047D01*
X106226190Y-86819047D01*
X106750000Y-86580952D02*
X106654761Y-86533333D01*
X106607142Y-86485714D01*
X106559523Y-86390476D01*
X106559523Y-86342857D01*
X106607142Y-86247619D01*
X106654761Y-86200000D01*
X106750000Y-86152380D01*
X106940476Y-86152380D01*
X107035714Y-86200000D01*
X107083333Y-86247619D01*
X107130952Y-86342857D01*
X107130952Y-86390476D01*
X107083333Y-86485714D01*
X107035714Y-86533333D01*
X106940476Y-86580952D01*
X106750000Y-86580952D01*
X106654761Y-86628571D01*
X106607142Y-86676190D01*
X106559523Y-86771428D01*
X106559523Y-86961904D01*
X106607142Y-87057142D01*
X106654761Y-87104761D01*
X106750000Y-87152380D01*
X106940476Y-87152380D01*
X107035714Y-87104761D01*
X107083333Y-87057142D01*
X107130952Y-86961904D01*
X107130952Y-86771428D01*
X107083333Y-86676190D01*
X107035714Y-86628571D01*
X106940476Y-86580952D01*
X107559523Y-87057142D02*
X107607142Y-87104761D01*
X107559523Y-87152380D01*
X107511904Y-87104761D01*
X107559523Y-87057142D01*
X107559523Y-87152380D01*
X108511904Y-86152380D02*
X108035714Y-86152380D01*
X107988095Y-86628571D01*
X108035714Y-86580952D01*
X108130952Y-86533333D01*
X108369047Y-86533333D01*
X108464285Y-86580952D01*
X108511904Y-86628571D01*
X108559523Y-86723809D01*
X108559523Y-86961904D01*
X108511904Y-87057142D01*
X108464285Y-87104761D01*
X108369047Y-87152380D01*
X108130952Y-87152380D01*
X108035714Y-87104761D01*
X107988095Y-87057142D01*
X109178571Y-86152380D02*
X109273809Y-86152380D01*
X109369047Y-86200000D01*
X109416666Y-86247619D01*
X109464285Y-86342857D01*
X109511904Y-86533333D01*
X109511904Y-86771428D01*
X109464285Y-86961904D01*
X109416666Y-87057142D01*
X109369047Y-87104761D01*
X109273809Y-87152380D01*
X109178571Y-87152380D01*
X109083333Y-87104761D01*
X109035714Y-87057142D01*
X108988095Y-86961904D01*
X108940476Y-86771428D01*
X108940476Y-86533333D01*
X108988095Y-86342857D01*
X109035714Y-86247619D01*
X109083333Y-86200000D01*
X109178571Y-86152380D01*
X110130952Y-86152380D02*
X110226190Y-86152380D01*
X110321428Y-86200000D01*
X110369047Y-86247619D01*
X110416666Y-86342857D01*
X110464285Y-86533333D01*
X110464285Y-86771428D01*
X110416666Y-86961904D01*
X110369047Y-87057142D01*
X110321428Y-87104761D01*
X110226190Y-87152380D01*
X110130952Y-87152380D01*
X110035714Y-87104761D01*
X109988095Y-87057142D01*
X109940476Y-86961904D01*
X109892857Y-86771428D01*
X109892857Y-86533333D01*
X109940476Y-86342857D01*
X109988095Y-86247619D01*
X110035714Y-86200000D01*
X110130952Y-86152380D01*
X111654761Y-87152380D02*
X111654761Y-86485714D01*
X111654761Y-86580952D02*
X111702380Y-86533333D01*
X111797619Y-86485714D01*
X111940476Y-86485714D01*
X112035714Y-86533333D01*
X112083333Y-86628571D01*
X112083333Y-87152380D01*
X112083333Y-86628571D02*
X112130952Y-86533333D01*
X112226190Y-86485714D01*
X112369047Y-86485714D01*
X112464285Y-86533333D01*
X112511904Y-86628571D01*
X112511904Y-87152380D01*
X112988095Y-87152380D02*
X112988095Y-86485714D01*
X112988095Y-86580952D02*
X113035714Y-86533333D01*
X113130952Y-86485714D01*
X113273809Y-86485714D01*
X113369047Y-86533333D01*
X113416666Y-86628571D01*
X113416666Y-87152380D01*
X113416666Y-86628571D02*
X113464285Y-86533333D01*
X113559523Y-86485714D01*
X113702380Y-86485714D01*
X113797619Y-86533333D01*
X113845238Y-86628571D01*
X113845238Y-87152380D01*
X85500000Y-88000000D02*
X134000000Y-88000000D01*
X85500000Y-95500000D02*
X85500000Y-87413579D01*
X134000000Y-95500000D02*
X134000000Y-87413579D01*
X134000000Y-88000000D02*
X132873496Y-88586421D01*
X134000000Y-88000000D02*
X132873496Y-87413579D01*
X85500000Y-88000000D02*
X86626504Y-88586421D01*
X85500000Y-88000000D02*
X86626504Y-87413579D01*
M02*
