G04 #@! TF.GenerationSoftware,KiCad,Pcbnew,(5.1.4)-1*
G04 #@! TF.CreationDate,2020-01-25T09:23:27+02:00*
G04 #@! TF.ProjectId,power_supply,706f7765-725f-4737-9570-706c792e6b69,rev?*
G04 #@! TF.SameCoordinates,Original*
G04 #@! TF.FileFunction,Copper,L1,Top*
G04 #@! TF.FilePolarity,Positive*
%FSLAX46Y46*%
G04 Gerber Fmt 4.6, Leading zero omitted, Abs format (unit mm)*
G04 Created by KiCad (PCBNEW (5.1.4)-1) date 2020-01-25 09:23:27*
%MOMM*%
%LPD*%
G04 APERTURE LIST*
%ADD10C,2.000000*%
%ADD11R,2.000000X2.000000*%
%ADD12R,1.600000X1.600000*%
%ADD13C,1.600000*%
%ADD14R,2.600000X2.600000*%
%ADD15O,2.600000X2.600000*%
%ADD16O,1.950000X1.700000*%
%ADD17C,0.100000*%
%ADD18C,1.700000*%
%ADD19O,1.700000X2.000000*%
%ADD20C,2.400000*%
%ADD21C,1.800000*%
%ADD22C,1.500000*%
G04 APERTURE END LIST*
D10*
X177500000Y-128500000D03*
D11*
X172500000Y-128500000D03*
D12*
X197000000Y-127000000D03*
D13*
X200800000Y-127000000D03*
D14*
X186000000Y-137500000D03*
D15*
X170760000Y-137500000D03*
D16*
X163000000Y-123000000D03*
X163000000Y-125500000D03*
X163000000Y-128000000D03*
D17*
G36*
X163749504Y-129651204D02*
G01*
X163773773Y-129654804D01*
X163797571Y-129660765D01*
X163820671Y-129669030D01*
X163842849Y-129679520D01*
X163863893Y-129692133D01*
X163883598Y-129706747D01*
X163901777Y-129723223D01*
X163918253Y-129741402D01*
X163932867Y-129761107D01*
X163945480Y-129782151D01*
X163955970Y-129804329D01*
X163964235Y-129827429D01*
X163970196Y-129851227D01*
X163973796Y-129875496D01*
X163975000Y-129900000D01*
X163975000Y-131100000D01*
X163973796Y-131124504D01*
X163970196Y-131148773D01*
X163964235Y-131172571D01*
X163955970Y-131195671D01*
X163945480Y-131217849D01*
X163932867Y-131238893D01*
X163918253Y-131258598D01*
X163901777Y-131276777D01*
X163883598Y-131293253D01*
X163863893Y-131307867D01*
X163842849Y-131320480D01*
X163820671Y-131330970D01*
X163797571Y-131339235D01*
X163773773Y-131345196D01*
X163749504Y-131348796D01*
X163725000Y-131350000D01*
X162275000Y-131350000D01*
X162250496Y-131348796D01*
X162226227Y-131345196D01*
X162202429Y-131339235D01*
X162179329Y-131330970D01*
X162157151Y-131320480D01*
X162136107Y-131307867D01*
X162116402Y-131293253D01*
X162098223Y-131276777D01*
X162081747Y-131258598D01*
X162067133Y-131238893D01*
X162054520Y-131217849D01*
X162044030Y-131195671D01*
X162035765Y-131172571D01*
X162029804Y-131148773D01*
X162026204Y-131124504D01*
X162025000Y-131100000D01*
X162025000Y-129900000D01*
X162026204Y-129875496D01*
X162029804Y-129851227D01*
X162035765Y-129827429D01*
X162044030Y-129804329D01*
X162054520Y-129782151D01*
X162067133Y-129761107D01*
X162081747Y-129741402D01*
X162098223Y-129723223D01*
X162116402Y-129706747D01*
X162136107Y-129692133D01*
X162157151Y-129679520D01*
X162179329Y-129669030D01*
X162202429Y-129660765D01*
X162226227Y-129654804D01*
X162250496Y-129651204D01*
X162275000Y-129650000D01*
X163725000Y-129650000D01*
X163749504Y-129651204D01*
X163749504Y-129651204D01*
G37*
D18*
X163000000Y-130500000D03*
D19*
X191000000Y-137500000D03*
D17*
G36*
X194124504Y-136501204D02*
G01*
X194148773Y-136504804D01*
X194172571Y-136510765D01*
X194195671Y-136519030D01*
X194217849Y-136529520D01*
X194238893Y-136542133D01*
X194258598Y-136556747D01*
X194276777Y-136573223D01*
X194293253Y-136591402D01*
X194307867Y-136611107D01*
X194320480Y-136632151D01*
X194330970Y-136654329D01*
X194339235Y-136677429D01*
X194345196Y-136701227D01*
X194348796Y-136725496D01*
X194350000Y-136750000D01*
X194350000Y-138250000D01*
X194348796Y-138274504D01*
X194345196Y-138298773D01*
X194339235Y-138322571D01*
X194330970Y-138345671D01*
X194320480Y-138367849D01*
X194307867Y-138388893D01*
X194293253Y-138408598D01*
X194276777Y-138426777D01*
X194258598Y-138443253D01*
X194238893Y-138457867D01*
X194217849Y-138470480D01*
X194195671Y-138480970D01*
X194172571Y-138489235D01*
X194148773Y-138495196D01*
X194124504Y-138498796D01*
X194100000Y-138500000D01*
X192900000Y-138500000D01*
X192875496Y-138498796D01*
X192851227Y-138495196D01*
X192827429Y-138489235D01*
X192804329Y-138480970D01*
X192782151Y-138470480D01*
X192761107Y-138457867D01*
X192741402Y-138443253D01*
X192723223Y-138426777D01*
X192706747Y-138408598D01*
X192692133Y-138388893D01*
X192679520Y-138367849D01*
X192669030Y-138345671D01*
X192660765Y-138322571D01*
X192654804Y-138298773D01*
X192651204Y-138274504D01*
X192650000Y-138250000D01*
X192650000Y-136750000D01*
X192651204Y-136725496D01*
X192654804Y-136701227D01*
X192660765Y-136677429D01*
X192669030Y-136654329D01*
X192679520Y-136632151D01*
X192692133Y-136611107D01*
X192706747Y-136591402D01*
X192723223Y-136573223D01*
X192741402Y-136556747D01*
X192761107Y-136542133D01*
X192782151Y-136529520D01*
X192804329Y-136519030D01*
X192827429Y-136510765D01*
X192851227Y-136504804D01*
X192875496Y-136501204D01*
X192900000Y-136500000D01*
X194100000Y-136500000D01*
X194124504Y-136501204D01*
X194124504Y-136501204D01*
G37*
D18*
X193500000Y-137500000D03*
D17*
G36*
X191624504Y-115501204D02*
G01*
X191648773Y-115504804D01*
X191672571Y-115510765D01*
X191695671Y-115519030D01*
X191717849Y-115529520D01*
X191738893Y-115542133D01*
X191758598Y-115556747D01*
X191776777Y-115573223D01*
X191793253Y-115591402D01*
X191807867Y-115611107D01*
X191820480Y-115632151D01*
X191830970Y-115654329D01*
X191839235Y-115677429D01*
X191845196Y-115701227D01*
X191848796Y-115725496D01*
X191850000Y-115750000D01*
X191850000Y-117250000D01*
X191848796Y-117274504D01*
X191845196Y-117298773D01*
X191839235Y-117322571D01*
X191830970Y-117345671D01*
X191820480Y-117367849D01*
X191807867Y-117388893D01*
X191793253Y-117408598D01*
X191776777Y-117426777D01*
X191758598Y-117443253D01*
X191738893Y-117457867D01*
X191717849Y-117470480D01*
X191695671Y-117480970D01*
X191672571Y-117489235D01*
X191648773Y-117495196D01*
X191624504Y-117498796D01*
X191600000Y-117500000D01*
X190400000Y-117500000D01*
X190375496Y-117498796D01*
X190351227Y-117495196D01*
X190327429Y-117489235D01*
X190304329Y-117480970D01*
X190282151Y-117470480D01*
X190261107Y-117457867D01*
X190241402Y-117443253D01*
X190223223Y-117426777D01*
X190206747Y-117408598D01*
X190192133Y-117388893D01*
X190179520Y-117367849D01*
X190169030Y-117345671D01*
X190160765Y-117322571D01*
X190154804Y-117298773D01*
X190151204Y-117274504D01*
X190150000Y-117250000D01*
X190150000Y-115750000D01*
X190151204Y-115725496D01*
X190154804Y-115701227D01*
X190160765Y-115677429D01*
X190169030Y-115654329D01*
X190179520Y-115632151D01*
X190192133Y-115611107D01*
X190206747Y-115591402D01*
X190223223Y-115573223D01*
X190241402Y-115556747D01*
X190261107Y-115542133D01*
X190282151Y-115529520D01*
X190304329Y-115519030D01*
X190327429Y-115510765D01*
X190351227Y-115504804D01*
X190375496Y-115501204D01*
X190400000Y-115500000D01*
X191600000Y-115500000D01*
X191624504Y-115501204D01*
X191624504Y-115501204D01*
G37*
D18*
X191000000Y-116500000D03*
D19*
X193500000Y-116500000D03*
D20*
X186000000Y-127000000D03*
X191000000Y-127000000D03*
D21*
X177900000Y-121500000D03*
X181300000Y-121500000D03*
X174500000Y-121500000D03*
X176200000Y-117300000D03*
X179600000Y-117300000D03*
D22*
X170500000Y-130500000D02*
X172500000Y-128500000D01*
X163000000Y-130500000D02*
X170500000Y-130500000D01*
X172500000Y-123500000D02*
X174500000Y-121500000D01*
X172500000Y-128500000D02*
X172500000Y-123500000D01*
X191000000Y-127000000D02*
X197000000Y-127000000D01*
X191000000Y-125302944D02*
X191000000Y-127000000D01*
X191000000Y-124500000D02*
X191000000Y-125302944D01*
X179600000Y-117300000D02*
X183800000Y-117300000D01*
X190094447Y-117405553D02*
X187000000Y-120500000D01*
X191000000Y-116500000D02*
X190094447Y-117405553D01*
X183800000Y-117300000D02*
X187000000Y-120500000D01*
X187000000Y-120500000D02*
X191000000Y-124500000D01*
X191000000Y-127000000D02*
X191000000Y-130500000D01*
X193500000Y-133000000D02*
X193500000Y-137500000D01*
X191000000Y-130500000D02*
X193500000Y-133000000D01*
X186000000Y-135200000D02*
X186000000Y-127000000D01*
X186000000Y-137500000D02*
X186000000Y-135200000D01*
X176200000Y-117300000D02*
X178400000Y-119500000D01*
X178400000Y-119500000D02*
X182500000Y-119500000D01*
X186000000Y-123000000D02*
X186000000Y-127000000D01*
X182500000Y-119500000D02*
X186000000Y-123000000D01*
M02*
