<?xml version="1.0" encoding="UTF-8"?>
<svg id="Layer_1" data-name="Layer 1" xmlns="http://www.w3.org/2000/svg" viewBox="0 0 3203.21 2021.04">
  <defs>
    <style>
      .cls-1 {
        font-size: 45px;
      }

      .cls-1, .cls-2, .cls-3 {
        font-family: ArialMT, Arial;
      }

      .cls-4, .cls-5, .cls-6, .cls-7, .cls-8, .cls-9, .cls-10, .cls-11, .cls-12, .cls-13, .cls-14, .cls-15, .cls-16, .cls-17, .cls-18, .cls-19, .cls-20, .cls-21, .cls-22, .cls-23, .cls-24, .cls-25, .cls-26, .cls-27, .cls-28, .cls-29 {
        fill: none;
        stroke-miterlimit: 10;
      }

      .cls-4, .cls-5, .cls-6, .cls-7, .cls-9, .cls-10, .cls-11, .cls-12, .cls-13, .cls-15, .cls-16, .cls-17, .cls-18, .cls-19, .cls-20, .cls-21, .cls-22, .cls-23, .cls-24, .cls-26, .cls-27, .cls-29 {
        stroke: #000;
      }

      .cls-30 {
        opacity: .47;
      }

      .cls-30, .cls-31, .cls-32 {
        fill: #fff;
      }

      .cls-5 {
        stroke-width: 4.26px;
      }

      .cls-6, .cls-28 {
        stroke-width: 12px;
      }

      .cls-7 {
        stroke-width: .75px;
      }

      .cls-8 {
        stroke-width: 7px;
      }

      .cls-8, .cls-14 {
        stroke: #3f49ff;
      }

      .cls-2 {
        font-size: 45.9px;
      }

      .cls-9 {
        stroke-width: 6.69px;
      }

      .cls-10 {
        stroke-width: 3.26px;
      }

      .cls-3 {
        font-size: 50px;
      }

      .cls-33 {
        fill: #01060c;
      }

      .cls-34 {
        fill: #809dc8;
      }

      .cls-11 {
        stroke-width: 10.44px;
      }

      .cls-35 {
        fill: #3f49ff;
      }

      .cls-32 {
        opacity: .78;
      }

      .cls-36 {
        fill: #1d1c1a;
      }

      .cls-12 {
        stroke-width: 7.32px;
      }

      .cls-13 {
        stroke-width: 8.83px;
      }

      .cls-14 {
        stroke-width: 8px;
      }

      .cls-15 {
        stroke-width: 2px;
      }

      .cls-16 {
        stroke-width: 1.09px;
      }

      .cls-17 {
        stroke-width: 6px;
      }

      .cls-37 {
        fill: #765e34;
      }

      .cls-38 {
        fill: #546686;
      }

      .cls-18 {
        stroke-width: 4.26px;
      }

      .cls-39 {
        fill: #7f0017;
        opacity: .28;
      }

      .cls-19, .cls-26 {
        stroke-width: 4px;
      }

      .cls-20 {
        opacity: .29;
        stroke-width: 14px;
      }

      .cls-21 {
        stroke-width: 6.13px;
      }

      .cls-40 {
        fill: #949798;
      }

      .cls-22 {
        stroke-width: 3px;
      }

      .cls-23 {
        stroke-width: 4.71px;
      }

      .cls-24 {
        stroke-width: 4.14px;
      }

      .cls-25 {
        stroke: #1d1c1a;
        stroke-width: 1.01px;
      }

      .cls-26 {
        opacity: .51;
      }

      .cls-27 {
        stroke-width: 6.81px;
      }

      .cls-28 {
        stroke: #7f0017;
      }

      .cls-41 {
        fill: #5c5c5c;
      }

      .cls-29 {
        stroke-width: 4.2px;
      }
    </style>
  </defs>
  <line class="cls-22" x1="1242.3" y1="1965.54" x2="1828.7" y2="28.54"/>
  <line class="cls-20" x1="551.2" y1="1096.04" x2="635.2" y2="1334.04"/>
  <line class="cls-26" x1="551.2" y1="1096.04" x2="635.2" y2="1334.04"/>
  <line class="cls-22" x1="1383.3" y1="2019.54" x2="1242.3" y2="1965.54"/>
  <line class="cls-22" x1="1383.3" y1="2019.54" x2="1930.7" y2="79.54"/>
  <line class="cls-22" x1="1002.3" y1="1965.54" x2="1242.3" y2="1965.54"/>
  <line class="cls-22" x1="1041.3" y1="1914.54" x2="1242.3" y2="1863.54"/>
  <line class="cls-22" x1="1041.3" y1="1914.54" x2="1412.7" y2="866.54"/>
  <line class="cls-22" x1="1002.3" y1="1965.54" x2="1044.3" y2="1992.54"/>
  <line class="cls-22" x1="1383.3" y1="2019.54" x2="1044.3" y2="1992.54"/>
  <line class="cls-22" x1="1383.3" y1="2019.54" x2="1242.3" y2="1965.54"/>
  <line class="cls-22" x1="1002.3" y1="1965.54" x2="1242.3" y2="1965.54"/>
  <line class="cls-22" x1="1041.3" y1="1914.54" x2="1242.3" y2="1863.54"/>
  <line class="cls-22" x1="1002.3" y1="1965.54" x2="1405.7" y2="862.54"/>
  <line class="cls-22" x1="1405.3" y1="863.54" x2="1828.7" y2="28.54"/>
  <line class="cls-22" x1="1041.3" y1="1914.54" x2="1412.7" y2="866.54"/>
  <line class="cls-22" x1="1242.3" y1="1863.54" x2="1771.7" y2="182.54"/>
  <line class="cls-22" x1="1383.3" y1="2019.54" x2="1044.3" y2="1992.54"/>
  <line class="cls-19" x1="825.7" y1="1314.54" x2="991.7" y2="1313.54"/>
  <line class="cls-19" x1="811.7" y1="814.54" x2="923.7" y2="814.54"/>
  <line class="cls-19" x1="999.7" y1="814.54" x2="1108.3" y2="814.54"/>
  <path class="cls-24" d="M791.8,996.04c0,175.77,15.43,318,34.5,318"/>
  <path class="cls-29" d="M792.2,996.04c0-100.32,8.54-181.5,19.1-181.5"/>
  <path class="cls-5" d="M1125.2,995.54c0,142.88-7.6,258.5-17,258.5"/>
  <path class="cls-18" d="M1125.2,997.04c0-101.15-8.72-183-19.5-183"/>
  <line class="cls-6" x1="751" y1="1071" x2="791.8" y2="1071.04"/>
  <line class="cls-6" x1="1126" y1="1071" x2="1166.8" y2="1071.04"/>
  <ellipse class="cls-16" cx="1359.98" cy="1215.23" rx="126.54" ry="22.81" transform="translate(-239.3 2091.94) rotate(-70.51)"/>
  <line class="cls-10" x1="1827.7" y1="28.54" x2="1929.7" y2="79.54"/>
  <line class="cls-22" x1="569.7" y1="2019.54" x2="710.7" y2="1965.54"/>
  <line class="cls-22" x1="710.7" y1="1965.54" x2="182.7" y2="225.54"/>
  <line class="cls-22" x1="569.7" y1="2019.54" x2="22.3" y2="79.54"/>
  <line class="cls-22" x1="950.7" y1="1965.54" x2="710.7" y2="1965.54"/>
  <line class="cls-22" x1="911.7" y1="1914.54" x2="710.7" y2="1863.54"/>
  <line class="cls-22" x1="911.7" y1="1914.54" x2="540.3" y2="866.54"/>
  <line class="cls-22" x1="950.7" y1="1965.54" x2="908.7" y2="1992.54"/>
  <line class="cls-22" x1="569.7" y1="2019.54" x2="908.7" y2="1992.54"/>
  <line class="cls-22" x1="569.7" y1="2019.54" x2="710.7" y2="1965.54"/>
  <line class="cls-22" x1="710.7" y1="1965.54" x2="124.3" y2="28.54"/>
  <line class="cls-22" x1="950.7" y1="1965.54" x2="710.7" y2="1965.54"/>
  <line class="cls-22" x1="911.7" y1="1914.54" x2="710.7" y2="1863.54"/>
  <line class="cls-22" x1="950.7" y1="1965.54" x2="547.3" y2="862.54"/>
  <line class="cls-22" x1="547.7" y1="863.54" x2="124.3" y2="28.54"/>
  <line class="cls-22" x1="911.7" y1="1914.54" x2="540.3" y2="866.54"/>
  <line class="cls-22" x1="710.7" y1="1863.54" x2="181.3" y2="182.54"/>
  <line class="cls-22" x1="540.7" y1="866.54" x2="181.3" y2="182.54"/>
  <line class="cls-22" x1="569.7" y1="2019.54" x2="908.7" y2="1992.54"/>
  <ellipse class="cls-19" cx="593.02" cy="1215.23" rx="22.81" ry="126.54" transform="translate(-371.41 267.42) rotate(-19.49)"/>
  <line class="cls-20" x1="1401.84" y1="1096.04" x2="1317.84" y2="1334.04"/>
  <line class="cls-26" x1="1401.84" y1="1096.04" x2="1317.84" y2="1334.04"/>
  <ellipse class="cls-19" cx="1360.02" cy="1215.23" rx="126.54" ry="22.81" transform="translate(-239.27 2091.97) rotate(-70.51)"/>
  <line class="cls-10" x1="124.3" y1="28.54" x2="22.3" y2="79.54"/>
  <g>
    <path class="cls-41" d="M976.75,779.24c-.81-4.21-4.17-8.12-7.78-10.23-3.85-2.25-8.84-3.08-13.14-1.76-5.83,1.8-10.52,6.01-12.15,12.08-2.01,7.48,1.42,15.54,8.08,19.37,5.7,3.27,12.57,2.95,18.13-.36l-4.03,1.7c.54-.22,1.1-.29,1.67-.38l-4.49.6c1.54-.19,3.05-.16,4.58.03l-4.49-.6c4.7.68,9.25,2.56,13.62,4.38l-4.03-1.7c2.59,1.1,5.1,2.37,7.35,4.08l-3.42-2.64c1.27,1,2.41,2.12,3.41,3.4l-2.64-3.42c1.51,2.02,2.61,4.25,3.59,6.56l-1.7-4.03c2.64,6.33,5.27,12.87,6.25,19.69l-.6-4.49c.34,2.59.4,5.19.09,7.79l.6-4.49c-.45,3.24-1.5,6.3-2.76,9.31l1.7-4.03c-2.55,6.01-5.36,11.91-8.19,17.79-1.41,2.93-2.84,5.85-4.3,8.75-.72,1.43-1.46,2.85-2.17,4.29-.9,1.83-1.74,3.74-2.41,5.66-.7,2.02-.85,4.36-.99,6.41,2.79-4.86,5.57-9.71,8.36-14.57-2.37,1.4-4.59,3.21-6.39,5.31-.98,1.14-1.91,2.29-3.11,3.22l3.42-2.64c-.75.53-1.53.97-2.36,1.34l4.03-1.7c-1.85.77-3.79,1.16-5.77,1.45l4.49-.6c-5.63.75-11.44,1.41-17.1.67l4.49.6c-2.11-.31-4.15-.84-6.12-1.66l4.03,1.7c-1.51-.66-2.92-1.46-4.24-2.45l3.42,2.64c-1.08-.85-2.04-1.8-2.89-2.88l2.64,3.42c-1.82-2.46-3.08-5.41-4.48-8.12-1.52-2.95-3.01-5.92-4.47-8.9-2.88-5.87-5.72-11.79-8.27-17.82l1.7,4.03c-1.64-3.94-3.04-7.97-3.67-12.21l.6,4.49c-.36-2.69-.35-5.37,0-8.06l-.6,4.49c.57-3.85,1.78-7.54,3.28-11.12l-1.7,4.03c2.04-4.78,4.49-9.38,6.85-14.01l-6.05,6.05c4.76-3.56,9.85-6.78,15.33-9.11l-4.03,1.7c2.87-1.19,5.83-2.09,8.92-2.51l-4.49.6c1.99-.24,3.97-.28,5.96-.04l-4.49-.6c1.77.24,3.48.71,5.13,1.4l-4.03-1.7c1.53.67,2.95,1.5,4.27,2.51l-3.42-2.64c1.09.87,2.08,1.85,2.94,2.95l-2.64-3.42c.69.92,1.27,1.89,1.74,2.94l-1.7-4.03c.45,1.07.76,2.17.94,3.32,5.42-7.12,10.85-14.24,16.27-21.36-5.64.38-11.41.86-16.89,2.33-3.12.84-6.18,2.15-9.08,3.54s-5.22,3.3-7.64,5.24-4.26,4.39-6.08,6.91c-.53.73-1.02,1.49-1.42,2.3-.98,2-2.03,4.12-2.53,6.31-1.34,5.84-.9,11.87,2.04,17.17.5.89,1.23,1.71,1.84,2.5.72.93,1.19,1.65,1.99,2.38,2.69,2.41,5.35,4,8.81,5.11,1.68.54,3.64.72,5.38.82s3.68-.24,5.38-.6c.15-.03.29-.05.44-.09,1.38-.38,3.21-1.16,4.45-1.85.43-.24.82-.52,1.23-.8,1.9-1.3,3.93-2.38,6.04-3.27l-4.03,1.7c2.66-1.09,5.43-1.85,8.28-2.26l-4.49.6c1.99-.26,3.96-.32,5.95-.07l-4.49-.6c1.26.19,2.47.5,3.65.98l-4.03-1.7c.85.38,1.63.82,2.38,1.37l-3.42-2.64c.69.55,1.3,1.15,1.86,1.83l-2.64-3.42c.53.7.96,1.42,1.32,2.22l-1.7-4.03c.27.68.47,1.37.58,2.09l-.6-4.49c.07.61.08,1.2.03,1.8l.6-4.49c-.06.46-.15.89-.31,1.33l1.7-4.03c-.13.29-.27.54-.44.8l2.64-3.42c-.26.33-.53.61-.84.89l3.42-2.64c-.52.4-1.07.71-1.66.99l4.03-1.7c-2.22.93-4.67,1.22-7.03,1.55l4.49-.6c-7.04.93-14.16.92-21.2-.02l4.49.6c-3.29-.46-6.58-1.04-9.9-1.3s-6.44.15-9.53.82c-2.17.47-4.29,1.51-6.27,2.46-2.64,1.28-4.72,3.26-6.48,5.54s-2.65,3.33-3.4,6.36c-.38,1.55-.73,3.61-.7,5.21.02,1.31.32,3.59.66,4.85.22.81.66,1.67.96,2.37.49,1.17.83,2.2,1.53,3.2,3.21,4.59,7.03,8.91,10.61,13.23,1.16,1.4,2.39,2.73,3.81,3.88,1.61,1.31,3.28,2.78,5.13,3.78.9.49,1.9.86,2.83,1.25,1.03.43,2.09.98,3.2,1.24,3.2.78,5.89.87,9.04.45,1.07-.14,2.29-.22,3.37-.54,1.73-.53,3.49-1.34,5.11-2.13,1.91-.93,3.56-2.3,5.51-3.18l-4.03,1.7c1.39-.58,2.81-.96,4.3-1.17l-4.49.6c1.36-.15,2.7-.14,4.06.03l-4.49-.6c1.17.18,2.33.45,3.43.9l-4.03-1.7c.36.17.68.36.99.6l-3.42-2.64c.3.25.56.51.81.8l-2.64-3.42c.36.47.64.96.87,1.5l-1.7-4.03c.21.57.36,1.13.45,1.73l-.6-4.49c.08.72.07,1.41-.02,2.13l.6-4.49c-.1.61-.26,1.18-.48,1.76l1.7-4.03c-.27.62-.62,1.18-1.02,1.73l2.64-3.42c-.54.68-1.13,1.26-1.8,1.81l3.42-2.64c-1.09.84-2.28,1.49-3.54,2.03l4.03-1.7c-3.69,1.49-7.68,1.81-11.47,2.97-5.87,1.79-11.38,4.88-15.63,9.35s-7.04,9.54-9.2,15.4c-1.33,3.62-1.41,7.57-2.89,11.14l1.7-4.03c-.37.8-.83,1.55-1.23,2.33-1.76,3.41-2.87,6.65-2.97,10.52,0,.19,0,.36.01.55.04,1,.38,3.66.62,4.65.4,1.67,1.12,3.26,1.92,4.78.48.92.96,1.43,1.7,2.39.64.83,1.27,1.82,2.09,2.53,1.52,1.33,3.17,2.72,4.97,3.68,1.92,1.03,4,1.79,6.03,2.59s4.13,1.56,6.23,2.25c4.12,1.36,8.32,2.48,12.57,3.37,1,.21,2.01.41,3.02.59,2.23.4,4.58.96,6.85.8,3.25-.23,5.36-.74,8.21-1.94s4.91-2.6,7.26-4.7c.32-.29.61-.61.9-.94,1.15-1.36,2.35-2.8,3.28-4.32.62-1.01,1.03-2.18,1.48-3.25s.94-2.1,1.28-3.19c1.06-3.44,1.26-7.16,1.47-10.74-11.05,1.5-22.1,2.99-33.15,4.49l.07.41-.6-4.49c.05.55.06,1.08,0,1.64l.6-4.49c-.1.69-.27,1.33-.54,1.97l1.7-4.03c-.11.25-.24.49-.38.73-2.17,3.86-2.89,8.7-1.7,13,1.08,3.91,4.1,8.16,7.76,10.09,3.92,2.07,8.66,3.11,13,1.7s7.91-3.87,10.09-7.76c1.13-2.01,2.17-4.24,2.59-6.53.86-4.76.73-6.43-.04-11.22-.52-2.2-1.53-4.11-3.02-5.74-1.19-1.84-2.77-3.29-4.73-4.35l-4.03-1.7c-2.24-.7-4.49-.8-6.73-.3-1.52,0-2.94.39-4.26,1.15-2.09.68-3.9,1.84-5.43,3.49l-2.64,3.42c-1.53,2.63-2.29,5.47-2.3,8.52-.07,1.13-.15,2.25-.28,3.37l.6-4.49c-.19,1.4-.49,2.74-1.02,4.05l1.7-4.03c-.32.72-.69,1.37-1.15,2l2.64-3.42c-.47.58-.99,1.09-1.59,1.56l3.42-2.64c-.4.28-.81.53-1.25.74l4.03-1.7c-.56.24-1.11.4-1.71.49l4.49-.6c-.49.04-.95.03-1.43-.04l4.49.6c-8.03-1.4-15.96-3.59-23.51-6.68l4.03,1.7c-.85-.36-1.65-.78-2.41-1.31l3.42,2.64c-.44-.34-.82-.7-1.16-1.14l2.64,3.42c-.18-.27-.31-.52-.44-.82l1.7,4.03c-.07-.2-.13-.4-.16-.61l.6,4.49c-.04-.38-.03-.71.02-1.09l-.6,4.49c.09-.39.2-.73.35-1.1l-1.7,4.03c1.76-3.72,3.66-7.3,4.47-11.38.52-2.64,1.01-5.21,2.03-7.71l-1.7,4.03c.79-1.85,1.78-3.59,2.99-5.2l-2.64,3.42c1.07-1.38,2.28-2.61,3.65-3.69l-3.42,2.64c1.21-.92,2.5-1.67,3.9-2.28l-4.03,1.7c3.91-1.59,8.16-1.85,12.15-3.18,7.12-2.39,14.04-6.57,17.66-13.44,1.95-3.69,3.26-7.99,3.04-12.21-.09-1.72-.37-3.55-.68-5.24-.06-.35-.13-.69-.23-1.02-.48-1.59-1.25-3.23-1.96-4.72-.17-.36-.34-.69-.56-1.02-1.62-2.51-3.15-4.14-5.41-5.89-.79-.61-1.56-1.3-2.44-1.79-1.52-.85-3.3-1.51-4.96-2.08-3.17-1.08-6.75-1.53-10.09-1.38-2.43.11-4.93.44-7.31.98s-4.59,1.61-6.73,2.59-3.8,2.42-5.86,3.34l4.03-1.7c-.61.24-1.21.41-1.85.51l4.49-.6c-.49.04-.95.05-1.44,0l4.49.6c-.72-.1-1.38-.28-2.06-.55l4.03,1.7c-.91-.41-1.74-.93-2.53-1.54l3.42,2.64c-2.16-1.74-3.85-3.92-5.58-6.05-2.03-2.49-4.08-4.96-6.07-7.47l2.64,3.42c-.32-.43-.58-.86-.8-1.35l1.7,4.03c-.09-.23-.14-.47-.16-.72l.6,4.49v-.36c-.19,1.5-.39,2.99-.59,4.49l.09-.36-1.7,4.03c.09-.23.21-.44.38-.62l-2.64,3.42c.17-.19.35-.35.56-.5l-3.42,2.64c.55-.37,1.12-.67,1.73-.94l-4.03,1.7c.87-.33,1.75-.55,2.67-.69l-4.49.6c2.19-.26,4.37-.06,6.55.24l-4.49-.6c7.4,1.03,14.64,2.03,22.12,1.64,4.4-.23,8.79-.82,13.13-1.53,3.56-.58,7.13-1.67,10.19-3.64,1.5-.97,3.01-2.04,4.25-3.34s2.48-2.87,3.34-4.4,1.6-3.2,2.02-4.91c.22-.92.31-2.15.42-2.97.14-1.02.36-2.1.34-3.15-.1-6.65-2.81-12.51-7.15-17.44-1.59-1.8-3.66-3.31-5.64-4.61-2.22-1.46-4.84-2.47-7.39-3.19-3.83-1.08-8.1-1.46-12.08-1.01-4.41.5-8.65,1.13-12.79,2.75-2.65,1.04-5.4,2.15-7.91,3.55-1.3.72-2.48,1.72-3.79,2.38l4.03-1.7c-.29.11-.55.18-.86.24l4.49-.6c-.31.03-.59.02-.89,0l4.49.6c-.41-.07-.79-.18-1.18-.34l4.03,1.7c-.39-.19-.73-.4-1.07-.66l3.42,2.64c-.25-.21-.46-.42-.67-.67l2.64,3.42c-.26-.34-.47-.68-.65-1.07l1.7,4.03c-.18-.5-.3-.99-.38-1.52l.6,4.49c-.04-.53-.03-1.04.03-1.57l-.6,4.49c.12-.81.34-1.57.63-2.33l-1.7,4.03c.52-1.2,1.19-2.3,1.98-3.34l-2.64,3.42c.95-1.19,2.02-2.24,3.22-3.19l-3.42,2.64c1.63-1.25,3.39-2.26,5.27-3.08l-4.03,1.7c3.02-1.27,6.21-1.98,9.45-2.44l-4.49.6c2.31-.31,4.63-.5,6.95-.65,3.05,0,5.89-.78,8.52-2.3,1.97-1.06,3.54-2.51,4.73-4.35,1.49-1.63,2.5-3.54,3.02-5.74.8-2.99.8-5.98,0-8.97-.81-5.33-3.88-9.92-7.23-13.97-.82-.99-1.73-1.87-2.73-2.68-1.98-1.61-4.09-3.35-6.4-4.54-5.24-2.7-9.82-3.86-15.64-4.39-1.61-.15-3.22-.1-4.83.07-2.98.31-6.1.69-9.01,1.48-4.47,1.22-8.8,3.15-12.9,5.29-3.06,1.6-6,3.44-8.83,5.42-.7.49-1.4.99-2.09,1.5-2.69,1.99-4.75,3.33-6.43,6.33-.15.27-.29.56-.43.84-.85,1.66-1.7,3.33-2.54,4.99-2.13,4.21-4.05,8.47-5.84,12.83-1.27,3.1-2.33,6.31-2.88,9.62-.49,2.9-.97,5.94-1.02,8.91s.45,6.21.92,9.23c.52,3.39,1.53,6.66,2.77,9.86,1.77,4.55,3.78,9.02,5.83,13.45,3.05,6.61,6.25,13.16,9.59,19.64.74,1.44,1.49,2.87,2.24,4.31,1.44,2.73,2.95,4.86,4.99,7.31,2.63,3.17,6.23,5.81,9.97,7.53,2.54,1.17,5.23,2.38,7.98,3.04,3.19.77,6.55,1.17,9.83,1.34,3.97.21,7.95-.22,11.89-.65,3.09-.34,6.21-.65,9.25-1.3,2.82-.6,5.58-1.79,8.13-3.07s5.04-3.27,6.98-5.46c1.06-1.19,2.02-2.47,3.27-3.48l-3.42,2.64c1.52-1.12,2.74-1.65,4.33-3.24,2.09-2.11,3.54-4.59,4.34-7.45.32-1.63.53-3.27.63-4.92l-.6,4.49c.11-.74.31-1.42.59-2.11l-1.7,4.03c1.68-3.8,3.73-7.46,5.56-11.2s3.59-7.47,5.33-11.23c2.28-4.94,4.56-9.89,6.55-14.95.73-1.87,1.37-3.78,1.79-5.74.69-3.25,1.17-6.65,1.17-9.98s-.53-6.55-1.05-9.75c-.32-1.99-.8-3.96-1.37-5.89-1.13-3.86-2.62-7.61-4.11-11.34-1.16-2.9-2.31-5.84-3.74-8.62s-3.36-5.22-5.35-7.59-4.43-4.03-6.78-5.75c-1.4-1.02-2.92-1.88-4.48-2.64-4.85-2.35-10.08-4.46-15.25-6.06-3.43-1.06-7.09-1.62-10.66-1.84-1.85-.12-3.61.16-5.45.41-1.13.15-2.46.25-3.61.56-1.67.46-3.39,1.35-4.93,2.15l4.03-1.7-.25.06,4.49-.6-.26-.02,8.52,2.3-.21-.11,6.05,6.05-.12-.2,1.7,13,.04-.17-7.76,10.09.15-.1-4.03,1.7.18-.03h-8.97l.14.05-11.79-11.79.03.15c.52,2.2,1.53,4.11,3.02,5.74,1.19,1.84,2.77,3.29,4.73,4.35,1.94,1.23,4.03,1.9,6.27,2,2.24.5,4.49.4,6.73-.3,4.08-1.32,8.02-3.85,10.09-7.76l1.7-4.03c.8-2.99.8-5.98,0-8.97h0Z"/>
    <g>
      <g>
        <path d="M958.66,765.02c-10.03.25-19.88,2.71-28.8,7.32-4.15,2.15-8.06,4.74-11.68,7.69-3.76,3.05-6.57,7.19-8.7,11.51s-3.62,8.83-5.12,13.36c-.74,2.24-1.49,4.48-2.33,6.69-.4,1.06-.95,2.12-1.23,3.21-.33,1.29-.54,2.61-.71,3.93-.74,5.65-.41,11.42.62,17.02.51,2.78,1.87,5.55,2.9,8.18s2.14,5.38,3.26,8.04c5.06,12.02,10.84,23.74,17.54,34.93l-.09-.65c-1.63,7.04,3.06,13.78,1.89,20.82-.18,1.06,1.45,1.52,1.63.45.91-5.48-1.38-10.65-2.04-16.01-.14-1.15-.2-2.32-.08-3.47.05-.52.32-1.15.25-1.68-.09-.65-.71-1.34-1.05-1.91-1.66-2.81-3.25-5.65-4.8-8.53-6.19-11.52-11.52-23.49-16.14-35.72-.52-1.36-1.15-2.76-1.5-4.17-.43-1.74-.62-3.59-.8-5.36-.33-3.24-.4-6.52-.13-9.77.12-1.49.32-2.98.62-4.45s.84-2.7,1.36-4.06c.92-2.38,1.72-4.81,2.52-7.23,1.72-5.19,3.45-10.42,6.18-15.19,1.36-2.38,2.96-4.62,4.83-6.63s4.18-3.64,6.43-5.19c10.38-7.16,22.58-11.13,35.19-11.45,1.08-.03,1.09-1.71,0-1.69h0Z"/>
        <path d="M961.43,766.71c11.3.28,22.32,3.47,31.98,9.36,4.66,2.84,9.13,6.09,12.34,10.58s5.3,9.66,7.08,14.87c.83,2.43,1.61,4.87,2.45,7.29s2.13,5.03,2.66,7.65c1.24,6.2,1.15,13.17-.26,19.33-.72,3.13-2.23,6.23-3.41,9.22-1.24,3.13-2.53,6.25-3.87,9.34-2.56,5.9-5.29,11.72-8.24,17.43-1.64,3.19-3.34,6.34-5.12,9.46-.46.81-.92,1.61-1.39,2.42-.44.74-1.16,1.58-1.42,2.39-.17.55.01,1.01.1,1.58.1.67.12,1.35.11,2.03-.13,6.06-3.2,11.73-2.18,17.86.18,1.07,1.8.62,1.63-.45-1.17-7.04,3.52-13.78,1.89-20.82l-.09.65c6.02-10.05,11.3-20.53,15.97-31.27,2.27-5.23,4.41-10.51,6.41-15.85.5-1.33,1.06-2.64,1.32-4.03s.48-2.9.64-4.36c.33-2.89.45-5.8.32-8.7-.12-2.62-.37-5.35-1.05-7.89-.61-2.24-1.7-4.42-2.46-6.63-1.55-4.5-2.92-9.07-4.78-13.46s-4.29-8.66-7.54-12.26-7.3-6.12-11.25-8.44c-9.67-5.67-20.64-8.72-31.84-9-1.09-.03-1.09,1.66,0,1.69h0Z"/>
        <path d="M965.03,763.81c0-.08.16-1.29.03-.43.04-.24.08-.48.12-.73.11-.6.24-1.2.4-1.79s.33-1.17.53-1.75c.12-.35.25-.69.38-1.03.43-1.1-.33.65.18-.41s1.1-2.18,1.76-3.22c.33-.52.69-1.02,1.04-1.52.69-.98-.47.54.29-.38.24-.29.47-.57.72-.85.81-.94,1.69-1.83,2.6-2.67.46-.42.94-.82,1.41-1.22.9-.77-.32.23.24-.2.35-.26.7-.52,1.06-.77,2.06-1.43,4.7-2.84,6.65-3.6,5.83-2.27,11.33-3.07,17.34-3.23,6.33-.17,13.05.45,19.05,1.3,13.34,1.9,26.53,4.98,40.01,5.72,6.78.37,13.59.08,20.28-1.15,6.05-1.11,12.42-2.97,16.98-7.31,2.66-2.53,4.35-5.77,5.7-9.13s2.37-7.17,2.77-10.92c.78-7.25-1.68-14.47-7.62-18.9-1.64-1.22-4.43-.32-5.34,1.4-1.08,2.05-.35,4.03,1.4,5.34-.59-.44.37.34.39.36.19.17.36.35.54.54.02.02.83.96.37.37.16.2.3.41.44.62.36.54.64,1.1.95,1.66.58,1.04-.11-.35.15.3.17.42.31.85.44,1.28.7,2.33.83,4.85.42,7.38-.25,1.55-.63,3.07-1.08,4.57-.22.73-.46,1.46-.71,2.18-.2.57-.59,1.59-.7,1.85-.33.78-1.07,2.23-1.69,3.19-.66,1.04-1.38,1.88-2.58,2.94-.27.24-.54.43-1.2.85-.58.37-1.18.7-1.8,1.01-.67.33-.99.47-1.35.61-.72.26-1.44.52-2.17.75-2.98.92-6.08,1.58-9.18,1.99-2.48.33-5.94.54-8.81.57-3.31.04-6.62-.11-9.92-.38-12.76-1.05-25.58-4.08-38.54-5.74s-25.52-2.04-37.24,2.7c-11.76,4.76-21.35,14.81-22.53,27.84-.19,2.04,1.93,3.99,3.9,3.9,2.27-.1,3.71-1.72,3.9-3.9h0Z"/>
      </g>
      <g>
        <g>
          <path class="cls-41" d="M944.61,955.65c.4.13,1.12.55,1.52.94.16.15.3.31.45.46.41.4-.01-.07.18.2.28.4.51.82.74,1.25.11.2.16.42.04.09.07.2.14.41.2.62.07.26.13.52.19.79.12.52-.02-.48.01.06.03.48.04.96,0,1.44.05-.5,0-.03-.07.21-.07.26-.15.52-.24.77h6.51c-1.11-4.98-4.87-8.19-9.51-9.85-2.09-.75-4.01-1.28-5.88-2.42-2.06-1.26-4-2.64-6.31-3.43-5.07-1.72-10.62.53-12.04,5.91-1.3,4.92,1.2,10.19,3.21,14.57,3.99,8.67,9.88,16.31,15.86,23.69,2.89,3.56,5.8,7.14,9.67,9.69s8.51,3.59,12.94,2.54c2.61-.62,4.77-2.12,6.56-4.08s3.9-3.23,5.79-5.05c3.4-3.27,4.89-8.04,8.18-10.96l-5.3-4.09c-3.28,5.74-7.5,10.75-12.56,15.01l5.3,4.09c2.05-3.78,4.38-7.34,7.47-10.34,1.67-1.62,3.58-2.97,5.2-4.63s3.04-3.64,4.32-5.62c5.15-7.96,8.7-16.85,9.81-26.29.23-1.97-1.75-3.17-3.38-3.38-2.1-.26-4.2-.53-6.31-.79s-4.06-.33-6.05.72c-1.71.9-3.29,2.23-4.78,3.45s-2.77,2.45-4.02,3.82-2.77,2.94-3.36,4.79c-.65,2.03-.05,4.24.23,6.29.54,3.91,1.45,7.58,5.45,9.23,1.01.42,1.57.61,2.44,1.14,1.17.71,2.55,1.06,3.91.73,2.3-.54,4.37-2.47,6.29-3.78,1.5-1.03,2.18-2.97,1.21-4.62s-3.02-2.11-4.62-1.21c-4.21,2.37-8.11,5.38-11.42,8.91-1.73,1.84-3.31,3.84-4.74,5.93-1.32,1.93-2.4,4.06-3.86,5.89-1.3,1.62-2.73,2.9-4.62,3.21-.65.11-1.54.01-2.35-.21-1.12-.31-1.91-.71-2.94-1.33-3.82-2.33-7.16-6.09-9.69-9.84-1.7-2.52-3.08-5.05-5.63-6.85-2.06-1.46-4.17-2.5-5.64-4.43l-4.62,4.62c1.66.94,3.42,1.72,5.23,2.32s3.79,1.16,5.69.78c3.88-.77,5.34-4.85,6.63-8.09.67-1.7,1.45-3.52,1.52-5.37.08-2.06-.97-3.61-2.1-5.2-2.06-2.9-3.96-6.27-7.15-8.08l-1.7,6.29c1.73.15,3.59,1.03,5.22,1.89,1.75.92,3.68,1.83,5.19,3.1.7.59,1.16,1.07,1.59,1.79.28.47.32.63.45,1.03.08.43.11.52.08.28-.05.91.19.62.71-.86-.26,0-.8.49-1.07.63-.5.28-1.02.55-1.55.77-.89.38-1.9.68-2.87.93l3.81,4.96c1.16-1.92,2.4-3.78,3.72-5.6,1.07-1.48.25-3.76-1.21-4.62-1.71-1-3.53-.26-4.62,1.21-1.31,1.78-2.62,3.57-3.94,5.35-1.17,1.59-2.68,3.19-3.55,4.95-1.22,2.46-.18,4.57,1.02,6.76.82,1.49,1.68,2.95,2.63,4.36,4.09,6.05,11.02,12.71,19.02,11.15,4.2-.82,6.96-4.71,9.17-8.05,1.09-1.65,2.06-3.39,2.9-5.19.97-2.1,2.06-4.34,1.34-6.68-.83-2.71-4.07-4.21-6.6-2.81-1.76.98-2.54,3.04-3.5,4.71-.9,1.56-1.84,3.07-3.16,4.32-1,.94-2.21,1.72-3.67,1.86.46-.05-.98-.05-.57,0-.46-.05-.95-.2-1.38-.37-.63-.24-1.58-.83-2.26-1.34-1.32-.99-2.54-2.32-3.32-3.79-.35-.66-.58-1.19-.68-2.09.05.42.01-.22.01-.24,0-.16.1-.64.03-.77.18.34-1.98,1.49-.9.74-1.56,1.09-.66.27-1.22.58-.09.05.09.02.24.14-.35-.27.26.25.32.31.18.18.62.64.66.69.59.73,1.08,1.72,1.32,2.4.6,1.72,2.31,2.86,4.15,2.36,1.67-.46,2.96-2.42,2.36-4.15-1.28-3.67-4.32-8.44-8.73-8.44-5.96,0-5.46,7.44-3.73,11.19,1.55,3.39,4.71,6.44,8.03,8.1,3.93,1.97,8.39,1.8,12.05-.74,1.99-1.39,3.54-3.12,4.91-5.12.61-.9,1.17-1.84,1.7-2.79.29-.51.56-1.02.85-1.53.09-.16.23-.34.29-.52.11-.17.11-.18,0-.04-.2.26-.45.46-.76.6h-1.79c-.63-.11-.93-1.62-1.15-1.63-.02,0-.28.78-.31.85-.36.88-.8,1.74-1.24,2.58-.89,1.69-1.9,3.31-3.02,4.86-.82,1.12-1.87,2.57-3.01,3.15-.5.25-.96.34-1.45.34-.8,0-1.34-.11-2.19-.38-2.87-.91-5.06-2.91-7.06-5.24-.91-1.07-1.72-2.23-2.57-3.57s-1.5-2.95-2.44-4.24c-.09-.12-.13-.31-.17-.29.32-.13-.76,1.56-.12,1.05.4-.32.75-1.05,1.05-1.46.68-.92,1.36-1.85,2.04-2.77,1.41-1.92,2.82-3.83,4.23-5.75l-5.83-3.41c-1.32,1.82-2.56,3.68-3.72,5.6-1.55,2.56,1.01,5.68,3.81,4.96s6.7-1.98,8.62-4.37c2.42-3.03.58-7.39-1.56-10.01-1.9-2.33-4.61-3.82-7.22-5.21-2.99-1.6-5.98-2.93-9.4-3.22s-4.48,4.71-1.7,6.29c1.72.97,2.8,2.94,4.04,4.7.41.58.82,1.16,1.23,1.73.21.3.72.94.73,1.13-.03-.5-.32.54-.35.64-.21.66-.45,1.32-.69,1.97-.4,1.06-.83,2.11-1.34,3.12-.2.4-.41.84-.69,1.19.23-.28-.07-.06-.13.07,0,0,.32-.29.37-.24-.11-.1-.81-.19-1.06-.25-.64-.17-1.28-.36-1.9-.58-1.12-.39-2.17-.92-3.2-1.5-1.31-.74-3.02-.54-4.09.53-.97.97-1.42,2.92-.53,4.09,1.75,2.29,3.73,4.16,6.2,5.67,1.02.62,1.82,1.06,2.56,1.86.8.87,1.38,2.01,2.03,3.02,3,4.66,6.82,8.96,11.36,12.18s10.62,4.64,15.59,1.41c4.54-2.95,6.72-8.17,9.81-12.2,3.45-4.49,7.7-8.06,12.58-10.8l-3.41-5.83c-.94.64-1.89,1.29-2.83,1.93-.4.28-.8.56-1.21.83-.17.12-.34.23-.52.33-.66.34-.17.39,1.46.14-.48-.66-2.13-1.16-2.78-1.41s-.96-.25-1.29-.58c.33.33-.2-.34-.26-.47.18.38-.17-.6-.2-.73-.2-.8-.31-1.62-.42-2.44-.12-.86-.29-1.89-.37-2.65.02.22-.05-1.18-.09-.6-.03.37.18-.32.29-.48-.24.34.47-.57.46-.55.28-.33.56-.65.84-.96.67-.74,1.36-1.45,2.09-2.14,1.25-1.19,2.54-2.27,3.95-3.24.34-.24.68-.48,1.03-.69.1-.06.78-.36.6-.32.5-.1,1.81.14,2.56.23,2.1.26,4.2.53,6.31.79l-3.38-3.38c-.99,8.41-4.66,16.58-9.38,23.63-1.17,1.75-2.47,3.31-4.05,4.71s-3.33,2.76-4.83,4.33c-3.05,3.2-5.53,6.93-7.63,10.8-.8,1.47-.49,3.33.87,4.35s3.11.85,4.43-.26c5.46-4.59,10.08-10.18,13.62-16.37,1.95-3.42-2.48-6.6-5.3-4.09s-4.38,5.87-6.45,8.9c-.53.78-.7,1-1.33,1.67s-1.31,1.21-2,1.73c-1.78,1.34-3.23,2.78-4.78,4.36-1.03,1.05-2.04,1.59-3.42,1.8s-2.74.05-4.3-.45c-1.19-.38-2.82-1.3-3.97-2.2-1.56-1.23-2.94-2.71-4.24-4.21-5.23-6.02-10.22-12.45-14.31-19.3-2.02-3.38-3.83-6.91-5.16-10.62-.35-.99-.7-1.99-.92-3.02-.08-.38-.14-.7-.15-1.11,0-.23,0-.45,0-.67l.02-.36c-.04.24-.03.23.01,0,.04-.18.09-.35.13-.53,0,.02.19-.53.08-.28-.12.29.53-.83.22-.44.46-.59.73-.63,1.3-.68.08,0,.75.03.76.03.51.08,1.03.23,1.51.41.17.06.48.22.86.42.5.27.99.57,1.48.87,2.09,1.31,4.1,2.56,6.44,3.41,2,.73,4.1,1.12,5.78,2.39,1.05.79,1.89,2.23,2.25,3.83.32,1.44,1.83,2.48,3.25,2.48,1.55,0,2.77-1.06,3.25-2.48,2.14-6.19-1.69-13.07-7.73-15.13-1.73-.59-3.69.67-4.15,2.36-.51,1.85.63,3.56,2.36,4.15h0Z"/>
          <path class="cls-41" d="M999.04,909.45c.05-.23.1-.46.18-.69-.48,1.06-.57,1.27-.26.64l.18-.31c.39-.58.24-.41-.43.51.19-.1.62-.54.76-.74-.91.68-1.08.83-.49.45.62-.32.41-.24-.65.24l.34-.11c.74-.16.6-.16-.41,0,.11-.17,1.42-.06,1.65-.07,1.46-.03,2.9-.16,4.34-.4.99-.17,2-.41,2.97-.66.58-.1.57-.11-.05-.02-.61.07-.63.08-.04.03.26-.01.52,0,.79.02-1.15-.19-1.46-.22-.93-.1.17.04.34.08.5.14.66.24.44.15-.65-.28.22.18.64.41.89.55-1.55-.83-.68-.54-.18,0,1.04,1.13-.63-1.18-.08-.09.15.29.31.69.51.95-.43-1.07-.53-1.27-.3-.61.07.23.13.46.17.69l-.13-1.05c.03.26.05.52.05.78,0,.35-.13.84-.05,1.17.17-1.14.19-1.35.05-.63-.06.26-.12.51-.2.76l-.12.38c-.25.67-.16.5.25-.5-.24.25-.36.75-.54,1.07-.2.35-.81.96-.87,1.34l.56-.74c-.17.2-.34.4-.52.6-.28.3-.57.59-.87.87-.2.19-.41.37-.62.54-.55.45-.42.35.4-.3-.35.19-.68.48-1.01.7-1.62,1.06-3.36,1.89-5.13,2.65-.94.4-1.92,1.56-2.42,2.42-.77,1.31-1,2.82-.8,4.3.38,2.85,2.26,4.58,4.84,5.61.41.16.82.33,1.23.49,1.2-4.34,2.39-8.68,3.59-13.02-4.34-.68-8.45-.9-12.54.99-3.61,1.67-6.02,5.14-7.16,8.87-.92,3.01-.95,6.28-.94,9.4.02,3.6.03,7.21.05,10.81,3.84-1.59,7.68-3.18,11.52-4.77-5.01-4.97-12.59-6.59-19.33-4.73-6.36,1.76-11.76,6.72-14.59,12.62-1.47,3.07-2.41,6.15-2.91,9.5-.46,3.05-.72,6.16-1.76,9.08-.06.18-.52,1.41-.08.27s-.05.05-.15.24c-.29.56-.7,1.07-.98,1.63.72-1.44.59-.71.11-.2-.17.18-.35.35-.53.53-.94.95,1.37-.77.19-.12-.47.26-1.52.6.13.08-1.42.45,1.59.06.14.02.71.02,1.33.1,1.97.46l.82.63c-.47-.5-.35-.31.38.57,0-.08-.4-.68-.4-.68l.38.9c-.08-.24-.15-.48-.2-.73.52.59.07,1.51.1.67,0-.28.11-.9.03-1.16-.16,1.07-.2,1.34-.1.81.03-.2.07-.4.12-.59.19-.81.45-1.61.74-2.39l.15-.4c.27-.67.21-.53-.19.44.23-.15.41-.92.52-1.15.93-2,1.84-4.01,2.67-6.06,1.36-3.38,2.39-6.87,3.13-10.44.5-2.4.05-4.78-1.74-6.57s-4.13-2.16-6.57-1.74c-.74.12-.59.11.46-.04-.3.03-.6.06-.9.08-.45.03-.9.05-1.35.05s-.9-.01-1.35-.04c-.3-.02-.6-.05-.9-.08,1.09.16,1.37.19.84.11-1.73-.33-3.4-.76-5.06-1.35-.74-.26-1.47-.55-2.2-.85-1.23-.5,1.51.65-.03-.01-.42-.18-.85-.37-1.27-.56-1.97-.87-3.95-1.74-5.95-2.56-3.5-1.42-7.16-2.41-10.96-2.53-5.22-.17-11.68,1.92-12.88,7.75-.71,3.45,1,7.46,4.71,8.3,3.5.8,7.38-1.05,8.3-4.71.15-.6.3-1.2.45-1.8l-11.28,2.98c.73.69-.53-.85-.65-1.17-.21-.57-.26-.7-.16-.37.15.53.12.19-.1-1.01,0,.92.15-.75.17-.85-.14.48-.1.41.13-.21.17-.54.47-.99.9-1.37l11.28,6.57c.8-2.15,1.4-4.47,1.38-6.78-.02-2.16-.57-4.16-1.39-6.13-.3-.73-.62-1.47-.85-2.23-.08-.25-.14-.5-.2-.75l.12,1.04c-.03-.26-.03-.51-.02-.77l-.15,1c-.07-.68.52-1.71.72-2.34.41-1.25.68-2.62.66-3.93-.07-4.31-2.7-7.73-6.39-9.72-.98-.53-2-.95-2.97-1.5-.24-.13-.46-.28-.7-.42-1.09-.64.94.9.53.42-.2-.23-.88-1-.09.03s.13.1-.02-.18c-1.93-3.89-7.74-4.33-10.6-1.37-.31.32-.62.65-.94.97l10.6,1.37c-1.39-1.91-2.91-3.67-4.46-5.44-.34-.39-.66-.79-1-1.18-.32-.39-.19-.22.37.5-.18-.23-.35-.47-.52-.71-.47-.68-.78-1.48-1.25-2.15.4.99.47,1.14.22.47l-.13-.39c-.07-.24-.39-1.95-.22-.68s-.07-.49.05-.69l-.15,1.01c.05-.26.11-.52.18-.77.27-1.32-.64,1.25-.07.23.61-1.07-1.16,1.21-.08.11s-1.19.64-.13.04c.31-.18.63-.36.94-.54,1.08-.63-1.48.42-.26.13.35-.08.71-.18,1.06-.28,1.1-.32-1.7.1.06,0,.53-.03,1.07-.03,1.6,0,.45.02.93.12,1.38.12-1.8.01-.49-.05.03.04,1.03.19,2.05.41,3.07.65.81.19,1.6.42,2.4.67,1.31.4-1.19-.68-.09-.06.25.12.49.25.72.39.61.4.48.27-.39-.38.1.17.66.73.8.77-.61-.84-.78-1.05-.49-.63.11.15.2.31.29.47.67,1.08-.39-1.41-.15-.26-.11-1.21-.15-1.45-.1-.73-.03.72,0,.48.12-.72l4.71-4.71c-.6.21-1.2.33-1.81.5-.9.25,1.77-.07.35-.04-.28,0-.55.04-.83.04s-.56,0-.84-.01c-.21-.01-1.56.01-.35,0,1.01-.02.21.01-.13-.07-.41-.09-.81-.21-1.2-.34-1.21-.41.17-.22.26.13-.01-.05-.76-.39-.74-.38-.89-.45-1.79-.92-2.74-1.22-3.15-.97-6.28-.22-8.76,1.89-5.72,4.88-4.29,13.55.26,18.62,4.1,4.57,10.48,5.4,16.2,6.2,3.57.5,7.12,1.32,10.72.58,4.18-.87,7.6-4.36,8.17-8.59,1.18-8.77-9.56-13.96-16.43-9.27-3.06,2.09-4.86,5.13-6.07,8.57-.45,1.26-.77,2.57-.99,3.89-.3,1.82-.65,3.75-.5,5.6.4,4.82,3.25,8.05,7.67,9.71,2,.75,4.15.92,6.17,1.6.3.1,2.19.8,1.08.39s.13.08.31.16c.25.12.49.23.73.35,1.1.54,2.18,1.13,3.25,1.73,2.21,1.23,4.41,2.49,6.73,3.49,6.81,2.95,14.34,3.82,21.52,1.54,3.36-1.07,6.54-2.69,9.7-4.23s6.16-3.01,9.24-4.52c2.56-1.25,3.97-4.95,3.1-7.62s-3.47-5.09-6.51-4.96c-7.94.34-15.91.07-23.81-.87-.47-.06-.95-.12-1.42-.17-1.66-.21,1.56.23-.1-.01-.94-.14-1.89-.28-2.83-.43-2.04-.33-4.07-.7-6.1-1.11-3.9-.8-7.75-1.76-11.57-2.86v13.02c2.05-.61,4.13-1.11,6.24-1.49.45-.08.9-.16,1.35-.23.3-.05.6-.09.9-.13-1.04.14-1.19.16-.44.06,1.06-.12,2.12-.23,3.18-.32,4.14-.33,8.29-.36,12.43-.32,8.49.09,17.01.49,25.46-.57,1.55-.19,2.81-.46,4.09-1.45,1.12-.86,2.1-2.09,2.42-3.51.66-2.89-.42-6.12-3.1-7.62-3.63-2.03-7.59-3.12-11.68-3.75-4.51-.7-9.04-1.26-13.57-1.82-8.28-1.02-16.58-1.86-24.9-2.54v13.5c17.83.16,35.63-1.23,53.25-3.98,4.92-.77,9.82-1.65,14.69-2.65,2.77-.57,5.08-3.71,4.96-6.51-.05-1.2-.36-2.35-.92-3.41-.69-1.31-2.53-2.86-4.03-3.1-5.47-.87-10.9-1.13-16.43-.79-5.01.31-9.98,1-14.95,1.65s-9.97,1.27-15,1.45c-2.5.09-5,.07-7.5-.06-1.25-.07-2.49-.16-3.74-.28-.54-.05-1.09-.11-1.63-.17-.31-.04-.62-.08-.93-.11-.87-.1,1.45.22.17.02-5.57-.88-11.02-2.18-16.35-4.06-3.33-1.18-7.53,1.33-8.3,4.71-.86,3.78,1.15,7.04,4.71,8.3,9.75,3.44,20.18,5.2,30.52,5.2s20.09-2.05,30.15-2.94c2.83-.25,5.68-.41,8.52-.39,1.34,0,2.68.06,4.01.15.71.05,1.42.11,2.12.19.22.02.71.02.94.11l-.85-.11c.31.05.63.09.94.15v-13.02c-4.24.87-8.49,1.65-12.76,2.34-2.09.34-4.19.66-6.29.96-.48.07-.97.13-1.45.2-.78.11.57-.08.58-.08-.24.02-.49.06-.73.1-1.13.15-2.27.29-3.4.42-8.51,1.02-17.05,1.68-25.62,2-4.89.18-9.79.24-14.68.2-3.53-.03-6.91,3.13-6.75,6.75.17,3.9,2.97,6.44,6.75,6.75,7.99.65,15.96,1.46,23.92,2.42,1.97.24,3.94.49,5.9.75.21.03,1.92.25.82.11s.61.08.82.11c.92.13,1.84.25,2.76.39,1.75.26,3.5.56,5.22,1.01.85.22,1.69.48,2.52.78.21.07.41.15.61.24-.87-.38-1.07-.46-.61-.24.45.24.92.46,1.37.71l3.41-12.58c-17.53,2.19-35.51-1.68-52.72,3.48-2.74.82-5.09,3.52-4.96,6.51s2.01,5.66,4.96,6.51c15.98,4.62,32.8,6.66,49.42,5.94-1.14-4.19-2.27-8.39-3.41-12.58-3.23,1.58-6.45,3.16-9.68,4.73-1.37.67-2.74,1.32-4.11,1.97s1.44-.53-.03.02c-.28.1-.55.22-.83.32-.84.31-1.69.57-2.56.78-.72.18-1.46.27-2.18.42,1.88-.41.51-.09.03-.05-.3.02-.59.03-.89.04-.82.02-1.63,0-2.44-.06-.22-.02-.94-.21-1.11-.11,1.06.15,1.22.16.48.04-.22-.04-.44-.08-.65-.13-.8-.17-1.59-.38-2.36-.64-.54-.18-2.54-1.13-.67-.2-1.35-.67-2.71-1.29-4.03-2.01-2.51-1.38-4.98-2.84-7.61-3.98-1.77-.77-3.56-1.52-5.45-1.96-1.2-.28-2.43-.45-3.61-.83-.2-.06-.41-.16-.61-.22l1.04.42c-.18-.09-.36-.19-.53-.31,1.06.36,1.14.99.68.49l.68.9c-.32-.55-.24-.33.24.66.4,1.55.08.91.08.27,0-.37.05-.74.07-1.12.07-1.59-.32,1.54,0-.02.09-.45.16-.9.26-1.35.17-.74.37-1.48.61-2.2.11-.34.29-.69.38-1.04-.4,1.55-.49,1.05-.22.59.19-.32.37-.64.55-.96.62-1.12-.89.93-.28.36.18-.17.51-.42.64-.62-.91.67-1.08.82-.49.45.48-.24.43-.22-.17.06l-.49.22c.69-.15.39-.12-.89.11,1.22-.05-1.76-.43-.57-.1.71.2-.04.27-.75-.36l.27.15c.57.37.35.2-.66-.52.7.66-.51-.69-.52-.7l-.44-1.1c.18.67.14.35-.11-.95l.16-1.17c.51-1.03.63-1.32.36-.86-.27.44-.08.21.56-.71-.51.46-.31.32.58-.43-1.01.67,1.32-.32.53-.2-1.38.22.36,0,.35,0-.03-.06-1.91-.1-2.17-.11,1.96.03.5.07,0,0-.31-.04-.62-.09-.92-.13-.92-.13-1.85-.26-2.77-.39-1.46-.2-2.92-.39-4.36-.68-.73-.15-1.46-.32-2.18-.53-.26-.08-.51-.17-.77-.25-.67-.25-.51-.17.49.24-.24-.11-.48-.22-.72-.35-.24-.12-.47-.25-.7-.39l-.34-.22c-.6-.42-.45-.3.45.37-.14-.17-.35-.31-.5-.47l-.24-.25c-.45-.53-.31-.34.41.55-.08-.24-.33-.51-.46-.74-.4-.72.03-.73.17.51-.03-.3-.21-.69-.29-.98-.34-1.11,0,1.68.07.47v-.33c.05-.71,0-.44-.13.82.05-.1.17-.57.17-.63l-.43,1.01c.1-.2.21-.39.33-.57-.19.77-.95,1.11-.37.57l-2.07,1.23c-2.51-.23-3.19-.18-2.03.14-1.6-.49-.78-.3-.3-.05,1.13.59,2.31,1.1,3.52,1.51,3.62,1.23,7.96,1.23,11.59.07,2.44-.78,4.36-2.28,5.11-4.85.29-.99.4-2.17.34-3.23-.12-2.28-.84-4.54-2.19-6.39-2.64-3.61-6.41-5.51-10.7-6.52s-8.85-1.78-13.33-.83c-4.01.85-8.14,3.63-9.93,7.39-2.25,4.73-1.66,9.8.72,14.36.99,1.9,2.42,3.6,3.8,5.22.58.67,1.17,1.33,1.75,2,.24.28.48.56.72.84.19.23.38.45.56.68-.6-.79-.68-.89-.25-.31,1.29,1.77,2.71,2.92,4.93,3.22,2.08.28,4.18-.31,5.67-1.86.31-.32.62-.65.94-.97l-10.6-1.37c1.37,2.75,4.05,4.51,6.73,5.81.9.44,1.73.93,2.59,1.43-1.62-.94-1.07-.91-.61-.42.69.73-1-1.52-.47-.61.49.83-.53-1.57-.34-.83.14.49.1.15-.1-1.03-.01.56.01.52.08-.11.17-1.19-.05,0-.13.27-.12.39-.26.78-.4,1.16-.33.96-.5,1.86-.63,2.87-.29,2.19.03,4.41.83,6.48.27.69.57,1.36.84,2.04.15.37.28.75.4,1.13.06.2.09.82.24.96-.11-1.02-.15-1.26-.12-.71.01.23.01.46,0,.69-.05.61-.05.62.02.02.08-.59.07-.58-.05.02-.29.9-.53,1.8-.86,2.69-.99,2.67.64,6.32,3.1,7.62s6.26,1.3,8.18-1.06c1.72-2.11,2.81-4.33,2.75-7.12-.05-2.6-1.15-5.2-3.05-7-3.6-3.4-10.01-2.09-11.28,2.98-.15.6-.3,1.2-.45,1.8l13.02,3.59c.16-.68.04-.43-.37.73l-.67.88c-.98.69-1.18.85-.59.48l.3-.15c-1.1.43-1.32.54-.65.32l.33-.08c1.14-.38-1.82.14-.18.02.75-.06,1.51-.06,2.26,0,.27.02,1.67.18.41.01s.13.04.4.1c1.56.31,3.07.79,4.56,1.35.53.2,2.9,1.25.92.34.71.33,1.45.63,2.17.94,3.28,1.45,6.57,2.99,10.03,3.97,4.38,1.24,8.75,1.34,13.21.56l-8.3-8.3c-.68,3.27-1.6,6.48-2.8,9.59-.13.35-.27.99-.5,1.27l.33-.77c-.09.21-.18.42-.27.63-.33.74-.67,1.46-1.01,2.19-.84,1.8-1.68,3.62-2.31,5.51-1.36,4.04-1.44,8.67.77,12.44,1.35,2.3,3.39,4.03,5.92,4.89,2.85.97,6.03.35,8.62-1.06,3.23-1.76,5.76-4.81,7.25-8.14s2.15-6.75,2.66-10.4c.21-1.53.44-3.06.79-4.57.16-.7.36-1.39.58-2.07.1-.3.21-.59.32-.89.26-.66.18-.47-.25.56.1-.23.21-.46.31-.69.55-1.14,1.21-2.19,1.92-3.23.78-1.14-1.05,1.22-.13.19.17-.19.33-.38.49-.56.55-.6,1.15-1.12,1.75-1.66.67-.59-1.44.97-.33.27.42-.27.83-.55,1.26-.79.22-.12.44-.23.66-.35,1.02-.55-1.66.57.04-.02.69-.24,1.38-.39,2.09-.55,1.28-.29-1.45.12-.54.07.42-.02.84-.06,1.26-.07.36,0,.72,0,1.08.03l.36.03c.72.08.48.04-.73-.1.64.24,1.4.32,2.07.53,1.27.39-1.48-.77-.31-.14.31.17.63.32.93.5s.58.44.88.58c-.89-.71-1.07-.83-.54-.39.18.16.35.32.52.49,1.94,1.92,4.89,2.45,7.37,1.4s4.16-3.46,4.15-6.17c-.01-3.03-.03-6.06-.04-9.09,0-1.31-.03-2.62,0-3.92,0-.53.03-1.07.06-1.6.02-.3.06-.59.07-.89.04-.78-.33,1.84-.08.57.1-.51.2-1.02.34-1.52.06-.22.14-.43.21-.65.22-.76-.78,1.48-.23.53.11-.18.23-.38.32-.58.44-.93-.79.73-.38.44.13-.1.42-.6.58-.59-.05,0-1.43.92-.52.41.17-.1,1.3-.65.21-.18s.07.02.27-.03c.14-.03.63-.22.75-.15-.24-.12-1.74.16-.44.11.59-.02,1.19,0,1.78.04.27.02.53.05.79.07,1.46.14-1.66-.25-.23-.02,1.86.29,3.52.3,5.2-.68,1.4-.82,2.74-2.42,3.1-4.03.39-1.73.31-3.67-.68-5.2s-2.31-2.41-4.03-3.1c-.41-.16-.82-.33-1.23-.49.54,4.11,1.07,8.22,1.61,12.34,3.76-1.61,7.51-3.77,10.24-6.87,3.2-3.64,5.55-8.51,5.07-13.48s-3.1-9.88-7.73-12.16c-2.94-1.45-5.8-1.73-9.01-1.23-.93.15-1.84.39-2.76.6-.25.06-1.69.36-.62.15s.03-.04-.26-.03c-.31.01-.63.01-.94.02-3.28.06-6.37.64-9.01,2.69-2.37,1.83-4.19,4.32-4.86,7.29-.78,3.44,1.05,7.47,4.71,8.3,3.43.78,7.47-1.03,8.3-4.71h0Z"/>
        </g>
        <path class="cls-36" d="M959.56,1004.28c4.73,0,9.03-3.09,12.47-6.05,3.85-3.3,7.05-7.18,10.1-11.21,3.88-5.12,7.47-10.47,10.17-16.31,2.62-5.69,4.53-11.69,5.84-17.81,1.41-6.57,2.16-13.29,2.18-20.01,0-1.09-1.68-1.09-1.69,0-.03,11.71-2.2,23.6-6.68,34.43-2.33,5.64-5.48,10.86-9.03,15.81-2.96,4.12-6.05,8.18-9.69,11.73s-8.39,7.72-13.67,7.73c-1.09,0-1.09,1.69,0,1.69h0Z"/>
        <path class="cls-36" d="M956.78,1002.59c-4.66,0-8.95-3.42-12.23-6.39-3.73-3.37-6.83-7.26-9.82-11.28-3.6-4.85-6.91-9.94-9.41-15.45s-4.24-11.19-5.49-17.02c-1.38-6.43-2.1-12.99-2.12-19.56,0-1.09-1.69-1.09-1.69,0,.03,12.14,2.33,24.48,7.07,35.68,2.5,5.9,5.87,11.34,9.65,16.5,3.11,4.24,6.34,8.4,10.21,11.97,3.71,3.42,8.51,7.24,13.82,7.25,1.09,0,1.09-1.69,0-1.69h0Z"/>
        <path class="cls-36" d="M959.13,1004.63c.89.48,1.93.47,2.76-.13s1.3-1.49,1.53-2.44c.24-1,.21-2.11-.17-3.07-.48-1.21-1.39-2.09-2.58-2.59-2.54-1.05-5.97-.18-7.17,2.45-.55,1.2-.54,2.6.18,3.74.76,1.2,2.16,2.09,3.55,2.37,1.1.22,2.2.04,3.09-.67.68-.54,1.16-1.38,1.32-2.24.17-.91.08-1.88-.42-2.68-.57-.92-1.54-1.41-2.6-1.49-.6-.04-1.21.08-1.8.19-.48.09-.97.21-1.43.37-.64.23-1.35.55-1.68,1.19-.67,1.3.77,2.3,1.79,2.74,1.17.5,2.54.87,3.81.65.6-.1,1.18-.45,1.37-1.06s-.12-1.29-.5-1.8c-.28-.38-.6-.72-.95-1.04-.79-.74-1.99.45-1.19,1.19.28.26.54.54.79.84-.18-.21-.03-.04.01.02s.08.12.12.18c.03.05.05.1.08.14.09.15-.06-.23,0-.02,0,.04.02.09.03.12.06.15-.02-.25-.01-.09,0,.05-.02.2.01,0s0-.03-.02.01c.02-.05.12-.24.04-.11-.05.08.18-.21.06-.09s0-.07.09-.06c-.02,0-.08.05-.1.06-.17.09.22-.06.06-.03-.04,0-.07.02-.11.03-.04.01-.08.02-.12.03-.21.05.08,0,.04,0-.22,0-.44.03-.66.01-.11,0-.22-.02-.33-.03-.2-.02.24.04-.02,0-.07-.01-.14-.02-.21-.04-.25-.05-.5-.11-.75-.18s-.51-.16-.76-.26c-.22-.08.1.05,0,0-.06-.03-.13-.06-.19-.09-.11-.05-.22-.11-.32-.17-.09-.05-.18-.1-.26-.16-.03-.02-.11-.1-.14-.1,0,0,.17.15.1.08-.02-.03-.06-.04-.08-.07-.06-.06-.12-.12-.18-.18-.12-.11.11.2.05.06-.02-.03-.05-.09-.07-.12-.08-.09.09.25.04.08,0-.02-.01-.09-.02-.09.06.04.02.28.02.11,0-.15-.05.27,0,.1s-.08.19-.04.09c0-.02.07-.09.07-.11.01.09-.19.17-.04.06.02-.01.03-.03.05-.04.11-.12-.02.1-.07.05,0,0,.26-.16.28-.17.07-.04.14-.07.21-.1.02-.01.05-.02.08-.03-.26.12-.06.03,0,0,.38-.14.76-.24,1.15-.33.24-.05.49-.1.73-.14.05,0,.44-.07.22-.04.13-.02.26-.03.39-.03.11,0,.22,0,.34,0,.05,0,.1,0,.14.01-.24-.02-.06-.01,0,0,.09.02.17.04.26.06.04.01.08.03.12.04.2.05-.13-.08,0,0,.07.04.14.07.21.11.1.06.21.16.06.03.07.06.14.12.2.18s.21.3.07.07c.07.13.15.26.23.38.09.14-.06-.19-.01-.04,0,.03.02.06.03.08.03.09.06.19.08.28.02.08.04.36.02.07,0,.08.02.15.02.23,0,.17,0,.34-.02.51s.04-.21,0-.04c0,.04-.01.08-.02.12-.02.08-.04.17-.06.25-.02.08-.05.15-.07.22,0,.02-.07.17,0,.03s-.02.04-.03.07c-.07.15-.16.28-.25.43-.03.05-.12.13.03-.04-.03.04-.06.07-.09.11-.06.07-.13.14-.2.2-.05.05-.27.19-.05.05-.07.04-.13.09-.2.13s-.14.07-.21.11c-.15.09.19-.06.02,0-.06.02-.11.04-.17.06-.09.03-.18.05-.27.07-.23.05.15,0-.09.01-.09,0-.19,0-.28,0-.07,0-.43-.05-.19,0-.24-.04-.47-.1-.7-.17-.05-.02-.36-.14-.21-.07-.14-.06-.29-.13-.43-.21s-.27-.15-.39-.23c-.11-.07-.29-.2-.31-.21-.12-.1-.23-.2-.34-.31-.04-.04-.07-.08-.11-.12-.02-.02-.21-.27-.11-.13-.07-.1-.14-.2-.2-.31-.03-.05-.17-.36-.1-.18-.05-.12-.09-.23-.12-.35-.01-.05-.03-.11-.04-.16,0-.04-.02-.09-.02-.13.01.1.02.12.01.06,0-.12-.02-.24-.01-.36,0-.06.05-.39,0-.17.05-.24.11-.47.2-.7-.08.19.07-.14.1-.19.06-.11.13-.21.2-.32.03-.04.05-.08.08-.11-.12.16.02-.02.04-.05.09-.11.19-.21.29-.31.09-.08.18-.16.27-.24-.15.12.05-.03.06-.04.05-.04.1-.07.15-.1.12-.07.24-.14.36-.21.05-.02.09-.05.14-.07.05-.02.09-.04.14-.06-.08.04-.08.03.01,0,.25-.08.5-.17.77-.22.25-.05.48-.07.87-.06.55.01,1.02.11,1.61.33.22.08-.14-.08.07.03.05.03.11.05.16.08.11.06.22.12.32.19.05.03.31.24.15.1.1.08.19.16.28.25.07.07.14.15.21.23.14.15-.09-.15.02.02.03.04.06.08.08.12.06.09.12.18.17.28.04.07.17.39.09.17.07.18.13.36.18.55.02.1.03.21.06.31.03.12-.02-.22,0-.03,0,.08.02.15.02.23.01.19.01.38,0,.57,0,.09-.02.19-.03.28.03-.27-.02.09-.03.16-.04.19-.1.39-.16.57-.01.03-.03.07-.04.1-.06.18.09-.17,0,0-.05.09-.09.19-.14.28-.04.07-.08.14-.13.21-.03.04-.19.26-.1.15s-.09.1-.12.13c-.06.07-.14.12-.2.19-.1.11.14-.07.05-.04-.03.01-.06.04-.09.06-.06.03-.13.06-.19.1-.12.09.19-.05.05-.02-.03,0-.07.02-.1.03s-.07.02-.1.03c-.03,0-.05.01-.08.02-.09.01-.05,0,.1-.01-.03.03-.17,0-.21,0-.21,0,.17.05-.04,0-.07-.02-.15-.04-.22-.06-.07-.02-.18-.1.02.01-.04-.03-.09-.05-.14-.07-.96-.51-1.81.94-.85,1.46h0Z"/>
        <path class="cls-36" d="M994.02,927.08c1.28,6.38,8.95,4.98,13.38,3.19,2.56-1.04,4.84-2.38,6.8-4.34,2.88-2.9,5.13-6.42,6.35-10.34,1.84-5.87,2.03-13.2-3.03-17.51-4.14-3.52-10.04-4.51-15.32-4.11-5.87.44-12.27,2.6-15.84,7.55-.2.27-.14.81.13,1.02.95.77,1.31.38,2.27-.02s.14-1.87-.85-1.46c-.41.17-.44.12-.23.29l.13,1.02c2.78-3.85,7.69-5.73,12.22-6.46s10.05-.38,14.29,2c1.91,1.07,3.54,2.57,4.55,4.53,1.36,2.62,1.29,5.74.94,8.6-.78,6.4-4.56,13.17-10.31,16.37-3.54,1.97-12.6,5.53-13.87-.77-.21-1.06-1.84-.61-1.63.45h0Z"/>
        <path class="cls-36" d="M925.4,926.45c-1.14,5.67-8.74,3.22-12.27,1.59-5.73-2.66-9.81-8.25-11.36-14.31-1.37-5.36-1.28-11.57,3.55-15.11,3.88-2.85,9.1-3.52,13.78-3.12,5.13.43,10.99,2.34,14.13,6.69l.13-1.02c.21-.17.18-.12-.23-.29-.99-.42-1.85,1.04-.85,1.46s1.32.79,2.27.02c.27-.21.33-.74.13-1.02-3.15-4.37-8.55-6.56-13.73-7.31s-11.35-.25-15.95,2.76c-2.07,1.35-3.76,3.22-4.71,5.51-1.31,3.14-1.11,6.79-.54,10.07,1.2,6.88,5.61,13.72,11.97,16.85,4.53,2.24,13.84,4.92,15.3-2.33.21-1.06-1.41-1.51-1.63-.45h0Z"/>
        <path class="cls-36" d="M942.72,992.47c-4.61,0-9.21-.17-13.81.18s-9.65,1.04-13.62,3.59c-1.94,1.24-3.44,2.93-4.31,5.08-.33.81.98,1.16,1.3.36,2.13-5.26,8.75-6.75,13.78-7.39,5.53-.71,11.11-.47,16.67-.47.87,0,.87-1.35,0-1.35h0Z"/>
        <path class="cls-36" d="M944.07,988.88c-12.64-.6-26.72-2.97-37.33,5.66-.67.55.29,1.5.95.95,10.25-8.33,24.21-5.85,36.38-5.27.87.04.87-1.31,0-1.35h0Z"/>
        <path class="cls-36" d="M944.69,985.73c-14.61-2.16-30.77-6.6-43.95,2.58-.71.49-.03,1.66.68,1.17,12.86-8.96,28.66-4.55,42.91-2.44.85.13,1.22-1.17.36-1.3h0Z"/>
        <path class="cls-36" d="M974.34,993.82c5.56,0,11.14-.24,16.67.47,5.03.64,11.65,2.13,13.78,7.39.32.8,1.63.45,1.3-.36-1.64-4.07-5.55-6.2-9.59-7.33-4.81-1.34-9.91-1.55-14.87-1.58-2.43-.01-4.86.05-7.29.05-.87,0-.87,1.35,0,1.35h0Z"/>
        <path class="cls-36" d="M972.99,990.23c12.17-.58,26.13-3.06,36.38,5.27.67.54,1.63-.41.95-.95-10.62-8.63-24.69-6.27-37.33-5.66-.86.04-.87,1.39,0,1.35h0Z"/>
        <path class="cls-36" d="M972.73,987.03c14.25-2.11,30.05-6.51,42.91,2.44.71.5,1.39-.67.68-1.17-13.18-9.18-29.34-4.74-43.95-2.58-.86.13-.49,1.43.36,1.3h0Z"/>
        <path class="cls-36" d="M980.88,967.56c-.09.09-.18.19-.27.27-.04.04-.09.08-.14.12-.1.08.16-.09-.02.01-.09.05-.18.11-.27.16-.03.02-.07.03-.11.05.19-.1.04-.02-.01,0-.09.02-.18.04-.27.07.24-.06,0,0-.09,0-.03,0-.07,0-.1,0-.18.01.19.05.02,0-.08-.02-.17-.04-.25-.06-.22-.06.11.08-.09-.04-.08-.04-.16-.09-.24-.14-.03-.02-.06-.04-.09-.06-.17-.1.13.12-.01,0-.07-.07-.15-.13-.22-.2s-.14-.15-.21-.22c-.03-.03-.23-.3-.11-.13-.13-.18-.25-.36-.37-.56s-.21-.41-.32-.62c-.01-.03-.06-.15,0,0-.02-.06-.05-.11-.07-.17-.05-.12-.09-.25-.13-.38-.08-.23-.14-.47-.2-.71-.02-.11-.05-.22-.07-.32-.01-.06-.06-.44-.04-.24-.05-.48-.05-.94-.02-1.41.01-.22-.02.12,0-.01,0-.06.02-.11.03-.17.02-.11.04-.22.07-.32.03-.09.05-.19.09-.28.02-.05.04-.1.06-.15-.07.2,0,0,.02-.03.05-.09.09-.18.15-.27.03-.05.23-.29.08-.13.18-.21.37-.41.59-.58-.1.08.04-.03.06-.04.06-.04.11-.08.17-.11.11-.07.23-.13.35-.19.03-.01.15-.06.01,0,.06-.02.12-.05.18-.07.13-.04.26-.08.4-.11,0,0,.24-.04.11-.02s.11-.01.11-.01c.12-.01.24-.01.37-.01.11,0,.22.01.33.02.14.01-.2-.04.03,0,.07.01.14.03.22.04.12.03.24.06.36.1.05.02.38.14.22.07.23.1.45.22.66.35.11.07.21.14.31.21-.13-.1.12.1.15.13.2.18.38.37.56.57.1.12.03.04.01,0,.05.06.09.12.13.18.06.09.13.19.18.29s.11.2.16.3c.03.07.07.14.1.21-.06-.14,0,.03.03.08.08.23.14.46.18.69.03.14-.01-.2,0,.04,0,.05,0,.1.01.15,0,.15.01.31,0,.46,0,.05,0,.1-.01.15-.02.25.04-.16-.01.08-.03.12-.05.23-.08.35s-.07.23-.12.35c-.1.25.07-.14-.05.11-.04.08-.08.15-.12.23-.28.51-.49.76-.95,1.16-.12.11-.02.02,0,0-.06.04-.11.08-.17.12-.08.05-.17.1-.26.15-.05.02-.1.05-.15.07.16-.08.07-.02.03-.01-.12.04-.23.08-.36.11-.07.02-.38.05-.13.03-.09,0-.18.02-.27.02s-.18,0-.27,0c-.05,0-.25-.03-.01,0-.06,0-.12-.02-.18-.03-.19-.04-.37-.1-.55-.16-.05-.02-.18-.08,0,0-.04-.02-.07-.03-.11-.05-.11-.06-.22-.11-.32-.17-.09-.05-.17-.11-.26-.16-.03-.02-.07-.05-.1-.07-.17-.11.1.08,0,0-.17-.14-.33-.28-.47-.44-.06-.07-.12-.14-.18-.21-.03-.04-.12-.16,0,0-.02-.03-.05-.06-.07-.1-.12-.18-.24-.37-.34-.57-.02-.04-.03-.07-.05-.11-.09-.17.05.13,0,.01-.03-.08-.06-.17-.09-.25-.03-.09-.06-.19-.08-.28-.01-.05-.02-.09-.03-.14-.05-.21,0,.14,0-.03s-.01-.34,0-.51c0-.24-.04.12.02-.11.03-.11.06-.22.09-.33.01-.04.03-.07.04-.11-.07.19-.03.06,0,.01.04-.08.08-.16.13-.24.03-.05.07-.1.1-.15-.02.02-.12.13-.02.02.09-.1.17-.2.27-.29.03-.03.07-.06.1-.09,0,0,.18-.14.08-.07s.1-.07.09-.06c.04-.03.08-.06.13-.08.21-.13.44-.25.66-.36.05-.02.29-.13.18-.08s.12-.05.16-.06c.17-.06.35-.11.53-.15.03,0,.06,0,.09-.02.15-.04-.18,0-.07,0,.06,0,.12-.01.19-.01.06,0,.13,0,.19,0,.19,0-.21-.06.02,0,.05.01.1.03.15.04.2.04-.11-.08-.03-.02.04.03.09.05.14.07.15.08.03.08,0-.01.01.03.08.07.1.09.18.16-.04-.02-.01-.03.03,0,.16.26.17.29.1.18-.04-.14-.01-.03.01.05.04.11.06.16.04.12.06.24.08.36.05.22,0-.15,0-.02,0,.06.01.12.02.19,0,.13,0,.27,0,.4,0,.13-.02.25-.03.38,0,.09.04-.23,0,.01-.01.07-.03.15-.04.22-.05.26-.13.52-.22.77-.02.06-.04.11-.06.17.1-.28.02-.05,0,.01-.06.12-.12.24-.19.35-.06.1-.13.19-.19.29-.04.07.16-.17,0,0-.04.05-.08.09-.13.14-.03.03-.07.07-.11.1,0,0-.07.06-.07.06-.02,0,.2-.13.1-.07-.08.04-.18.1-.26.16-.04.03.22-.06.04-.02-.04,0-.1.02-.14.04-.16.06.23,0,.05,0-.04,0-.1,0-.15,0-.05,0,.23.06.05,0-.04-.01-.11-.04-.15-.04s.2.11.02,0c-.05-.03-.1-.06-.16-.09-.03-.02-.06-.05-.09-.07,0,0,.16.15.08.06-.05-.05-.11-.09-.16-.14-.12-.11-.22-.23-.32-.36.16.2-.03-.04-.06-.09-.06-.08-.11-.17-.16-.25-.12-.19-.22-.39-.32-.59-.21-.41-.78-.52-1.15-.3-.41.24-.51.75-.3,1.15.7,1.37,2.05,3,3.77,2.18,1.15-.55,1.77-1.98,1.97-3.17.22-1.3.12-2.93-1.11-3.71-.66-.42-1.49-.41-2.23-.21-.99.27-2.06.84-2.72,1.63-1.48,1.75-.85,4.22.72,5.69.79.74,1.77,1.23,2.85,1.34,1.13.11,2.23-.34,3.05-1.11,1-.93,1.66-2.29,1.67-3.67s-.55-2.55-1.41-3.52c-.8-.9-1.93-1.59-3.12-1.8-1.38-.24-2.71.11-3.79,1.01-1.87,1.56-1.85,4.31-1.09,6.43.66,1.85,2.37,4.3,4.67,3.44.57-.21,1.05-.57,1.46-1.01.74-.79-.45-1.99-1.19-1.19h0Z"/>
        <path class="cls-36" d="M978.96,965.87c.27.31.63.54,1.02.67s.83.12,1.24.03c.2-.04.4-.21.5-.39s.15-.45.09-.65-.19-.4-.39-.5c-.21-.11-.42-.14-.65-.09-.05.01-.1.02-.16.03l.22-.03c-.13.02-.26.02-.38,0l.22.03c-.12-.02-.23-.05-.34-.09l.2.09c-.12-.05-.22-.11-.32-.19l.17.13c-.09-.07-.17-.15-.24-.23-.13-.16-.4-.25-.6-.25s-.45.09-.6.25-.26.37-.25.6l.03.22c.04.14.11.27.22.37h0Z"/>
        <path class="cls-36" d="M981.84,964.32v-.71h-1.69c0,.08,0,.17,0,.25v.94c0,.12.02.22.07.33.03.1.09.2.17.27.08.08.17.14.27.17.1.05.21.08.33.07l.22-.03c.14-.04.27-.11.37-.22l.13-.17c.08-.13.11-.27.12-.43v-1.11s0-.06,0-.09c0-.12-.02-.22-.07-.33-.03-.1-.09-.2-.17-.27-.08-.08-.17-.14-.27-.17-.1-.05-.21-.08-.33-.07l-.22.03c-.14.04-.27.11-.37.22l-.13.17c-.08.13-.11.27-.12.43,0,.14,0,.28,0,.42v.3c0,.12.02.22.07.33.03.1.09.2.17.27.08.08.17.14.27.17.1.05.21.08.33.07l.22-.03c.14-.04.27-.11.37-.22l.13-.17c.08-.13.11-.27.12-.43h0Z"/>
        <path class="cls-36" d="M980.09,964.57c.12.05.23.11.34.18l-.17-.13s.08.06.11.1l-.13-.17s.05.07.07.11l-.09-.2c.03.06.04.12.05.19l-.03-.22c.01.1,0,.19,0,.29l.03.22c.03.11.08.21.15.29.12.15.26.24.44.3.4.14.86.23,1.27.07.24-.09.4-.2.6-.36.1-.08.18-.18.28-.27.3-.29.32-.78.07-1.11-.11-.14-.26-.26-.44-.3-.2-.05-.48-.05-.65.09-.36.28-.7.58-1.06.86l.17-.13c-.13.1-.27.22-.42.29l.2-.09s-.01,0-.02,0l1.07.81c.01-.27.03-.53.01-.8,0-.2-.03-.41-.08-.6-.03-.12-.07-.24-.14-.34-.1-.17-.21-.26-.37-.38l-.2-.09c-.11-.04-.22-.04-.34-.02-.2.03-.33.11-.48.23l-.04.03.17-.13c-.1.07-.2.15-.31.19l.2-.09s-.06.02-.09.03l.22-.03s-.04,0-.06,0l.22.03s-.03,0-.04-.01l.2.09s-.02-.01-.03-.02l.17.13s-.03-.03-.05-.05l.13.17c-.13-.17-.22-.38-.4-.52s-.36-.25-.6-.25c-.21,0-.45.09-.6.25s-.26.37-.25.6c0,.21.08.46.25.6.04.04.08.07.11.12l-.13-.17c.05.07.09.14.13.2.15.22.34.4.61.48.53.15.96-.16,1.35-.46l-1.02.13h.01c-.06-.04-.11-.08-.17-.12.01.01.02.02.03.03l-.13-.17s.03.05.04.07l-.09-.2c.03.08.05.17.06.26l-.03-.22c.04.34.02.67,0,1.01-.02.52.56,1,1.07.81.4-.14.71-.43,1.04-.69.22-.18.44-.37.66-.55l-.17.13h0c-.34-.45-.68-.89-1.02-1.33-.11.11-.21.22-.34.32l.17-.13s-.1.07-.16.1l.2-.09c-.05.02-.11.04-.17.04l.22-.03c-.08,0-.16,0-.23,0l.22.03c-.15-.02-.29-.06-.43-.11l.62.81c.03-.34-.02-.72-.22-1.01s-.45-.46-.75-.6c-.21-.1-.42-.15-.65-.09-.2.05-.41.21-.5.39-.1.2-.16.43-.09.65.06.2.19.42.39.5h0Z"/>
        <path class="cls-31" d="M982.53,962.47v.73c0,.12.02.22.07.33.03.1.09.2.17.27.08.08.17.14.27.17.1.05.21.08.33.07l.22-.03c.14-.04.27-.11.37-.22l.13-.17c.08-.13.11-.27.12-.43v-.73c0-.12-.02-.22-.07-.33-.03-.1-.09-.2-.17-.27-.08-.08-.17-.14-.27-.17-.1-.05-.21-.08-.33-.07l-.22.03c-.14.04-.27.11-.37.22l-.13.17c-.08.13-.11.27-.12.43h0Z"/>
        <path class="cls-25" d="M988.89,953.76c-.08,3.43-.28,6.98-1.98,10.16-1.7,3.18-5.28,5.94-9.27,5.98-.69-2.23-1.66-4.19-1.99-6.49-.06-.45-.12-.92.01-1.37.14-.46.46-.87.79-1.26,2.19-2.57,4.86-4.84,7.88-6.69,1.08-.66,2.77-1.2,3.47-.3"/>
        <path class="cls-36" d="M933.66,968.75c.79.84,1.9,1.39,3.06,1.08,1.02-.27,1.8-1.11,2.35-1.98,1.17-1.89,1.69-4.62.69-6.68-.54-1.12-1.73-1.98-2.93-2.26s-2.55-.02-3.64.62c-2.32,1.37-3.51,4.24-2.3,6.74.55,1.14,1.53,2.13,2.74,2.53,1.05.35,2.19.15,3.16-.34,1.78-.92,3.15-3.07,2.64-5.11-.28-1.15-1.16-1.97-2.17-2.51-.75-.4-1.62-.75-2.49-.66-1.56.16-2.26,1.58-2.26,3.01,0,1.29.45,2.76,1.38,3.69.45.45,1.07.77,1.72.73.79-.04,1.46-.53,1.94-1.13.32-.4.58-.82.81-1.27.21-.41.11-.91-.3-1.15-.38-.22-.95-.11-1.15.3-.1.2-.21.4-.32.59-.05.08-.11.17-.16.25-.05.07-.2.26-.06.09-.1.12-.21.25-.32.36-.05.05-.11.09-.16.14-.06.06.17-.1-.02,0-.05.03-.1.06-.16.09-.18.11.06,0,.02,0-.05,0-.11.03-.15.04-.19.06.11,0,.05,0-.04,0-.1,0-.15,0-.16.02.21.06.05,0-.04-.01-.1-.03-.14-.04-.19-.04.1.06.04.02-.08-.05-.18-.11-.26-.16-.09-.05.18.17.04.02-.04-.04-.09-.08-.13-.12-.04-.04-.08-.08-.11-.13-.14-.15.04.07,0,0-.06-.1-.14-.2-.2-.3s-.12-.22-.18-.34c-.02-.04-.1-.23-.04-.08s-.03-.07-.04-.12c-.09-.25-.17-.51-.22-.78-.01-.07-.02-.13-.04-.2,0-.03,0-.05-.01-.08-.03-.16.02.22,0,.07,0-.13-.03-.26-.03-.4s0-.26,0-.39c0-.06.01-.11.01-.17,0-.15-.05.22,0-.01.02-.12.05-.23.08-.34.02-.05.04-.1.05-.14.04-.13-.11.19,0,0,.02-.03.14-.28.17-.27,0,0-.18.19-.02.04,0,0,.12-.12.12-.12.06.07-.21.13-.08.07.02-.01.04-.03.06-.04.04-.02.09-.04.12-.07.12-.09-.21.05-.04.02.06-.01.14-.03.2-.05.19-.06-.21,0,0,0,.06,0,.12,0,.17,0,.06,0,.12.01.18.01.16,0-.21-.05-.05,0,.04.01.09.02.13.03.16.03.31.08.46.13.08.03.16.06.24.09-.23-.09.13.06.19.09.2.1.39.2.57.32.1.06.19.12.28.19-.15-.11.03.03.05.04.05.05.1.09.15.14.08.08.15.16.22.24.03.03.08.13-.02-.02.03.04.06.08.09.13.05.08.09.16.13.23.03.04.09.23.01.01.02.05.04.11.06.16.03.09.05.18.07.28.05.22.01-.1.01.08,0,.2,0,.39-.01.6.03-.26-.02.05-.03.12-.02.09-.04.17-.07.25s-.06.17-.09.25c-.06.19.09-.16,0,.02-.03.05-.05.11-.08.16-.09.17-.19.33-.3.49-.03.04-.06.08-.09.12.11-.15.05-.06.02-.03-.08.09-.16.19-.24.28-.14.14-.28.27-.43.4-.1.08.17-.11,0,0-.03.02-.07.05-.1.07-.1.07-.2.13-.31.2-.08.05-.16.09-.24.13-.05.02-.09.04-.14.06.18-.08.08-.03.03-.02-.21.07-.41.13-.63.18-.04,0-.08.01-.12.02.22-.03.07,0,.02,0-.09,0-.18.01-.27,0-.1,0-.2-.01-.3-.02.21.02.07.01.02,0-.07-.02-.14-.03-.21-.05-.09-.02-.18-.05-.27-.08-.05-.02-.18-.08,0,0-.04-.02-.08-.04-.12-.06-.1-.05-.2-.11-.29-.17-.05-.03-.1-.06-.14-.1-.05-.04-.04-.03.03.03-.04-.03-.07-.06-.11-.09-.45-.39-.66-.66-.94-1.19-.03-.05-.05-.1-.08-.15-.12-.24.03.08-.03-.07-.05-.11-.09-.23-.12-.35-.04-.13-.06-.26-.09-.39-.05-.24,0,.1,0-.05,0-.09-.02-.18-.02-.27,0-.11,0-.23,0-.34,0-.05.05-.37.01-.19.05-.27.12-.54.21-.8.01-.03.06-.15,0,0,.02-.06.05-.11.08-.17.05-.1.1-.2.16-.3.06-.11.13-.22.2-.32.04-.05.07-.1.11-.15.04-.05.03-.04-.02.02.03-.04.06-.08.1-.12.15-.17.31-.34.48-.49.06-.05.11-.1.17-.15.02-.02.13-.09,0,0,.11-.08.23-.16.34-.23.2-.13.41-.24.63-.33-.16.07.17-.06.22-.07.13-.04.26-.08.39-.11.06-.01.36-.06.17-.04.12-.01.24-.02.37-.02s.25,0,.37.01c.05,0,.1,0,.15.02-.2-.03.07.02.1.03.47.1.87.3,1.17.54.2.17.38.36.56.55-.15-.17.05.08.08.13.06.1.11.2.16.3.02.05.07.18,0,0,.01.04.03.08.04.12.03.1.07.2.1.31s.05.21.07.32c0,.04.01.09.02.13.03.17,0-.15,0,.08s.03.44.03.66c0,.12,0,.24-.01.36,0,.05,0,.1-.01.14,0,.02-.03.29-.02.18.02-.13-.02.1-.02.1,0,.05-.02.1-.02.14-.02.12-.05.24-.07.36-.06.25-.13.5-.21.74-.03.1-.07.21-.11.31-.03.07-.05.13-.08.2.01-.03.07-.15,0,0-.1.21-.2.42-.32.62s-.24.38-.37.56c.12-.17-.07.09-.11.13-.07.08-.14.15-.21.22s-.15.13-.22.2c-.14.13.11-.08.01,0-.04.03-.08.05-.12.08-.08.05-.16.09-.24.14-.19.1.11-.02-.09.04-.08.02-.17.04-.25.06-.15.04.13.02.04,0-.03-.01-.1,0-.13,0-.08,0-.34-.06-.09,0-.09-.02-.18-.04-.27-.07-.05-.01-.21-.1-.01,0-.04-.02-.07-.03-.11-.05-.09-.05-.18-.11-.27-.16-.13-.07-.02-.01,0,.01-.06-.04-.11-.09-.16-.14-.1-.09-.19-.18-.27-.27-.74-.79-1.94.4-1.19,1.19h0Z"/>
        <path class="cls-36" d="M935.58,964.68c-.07.08-.15.16-.24.23l.17-.13c-.1.08-.21.14-.32.19l.2-.09c-.11.04-.22.07-.34.09l.22-.03c-.13.02-.26.01-.38,0l.22.03c-.05,0-.1-.02-.16-.03-.22-.05-.45-.03-.65.09-.18.1-.34.3-.39.5-.05.22-.04.46.09.65.12.18.29.34.5.39s.43.08.64.07c.2,0,.41-.03.6-.1.39-.13.75-.36,1.02-.67.15-.17.25-.36.25-.6,0-.21-.09-.45-.25-.6s-.37-.26-.6-.25-.45.08-.6.25h0Z"/>
        <path class="cls-36" d="M935.58,964.32v-.71c0-.12-.02-.22-.07-.33-.03-.1-.09-.2-.17-.27-.08-.08-.17-.14-.27-.17-.1-.05-.21-.08-.33-.07l-.22.03c-.14.04-.27.11-.37.22l-.13.17c-.08.13-.11.27-.12.43v1.19c0,.12.02.22.07.33.03.1.09.2.17.27.08.08.17.14.27.17.1.05.21.08.33.07l.22-.03c.14-.04.27-.11.37-.22l.13-.17c.08-.13.11-.27.12-.43v-1.19c0-.12-.02-.22-.07-.33-.03-.1-.09-.2-.17-.27-.08-.08-.17-.14-.27-.17-.1-.05-.21-.08-.33-.07l-.22.03c-.14.04-.27.11-.37.22l-.13.17c-.08.13-.11.27-.12.43v.71c0,.12.02.22.07.33.03.1.09.2.17.27.08.08.17.14.27.17.1.05.21.08.33.07l.22-.03c.14-.04.27-.11.37-.22l.13-.17c.08-.13.11-.27.12-.43h0Z"/>
        <path class="cls-36" d="M934.79,963.11c-.3.14-.56.32-.75.6s-.25.67-.22,1.01l.62-.81c-.14.05-.28.09-.43.11l.22-.03c-.08,0-.16.01-.23,0l.22.03c-.06,0-.11-.02-.17-.04l.2.09c-.06-.03-.11-.06-.16-.1l.17.13c-.12-.1-.22-.21-.34-.32l-1.02,1.33h0c-.06-.04-.11-.08-.17-.13.23.18.44.37.66.55.32.26.64.54,1.04.69.51.18,1.09-.3,1.07-.81-.01-.34-.04-.67,0-1.01l-.03.22c.01-.09.03-.18.06-.26l-.09.2s.02-.05.04-.07l-.13.17s.02-.02.03-.03l-.17.13h.01c-.34-.05-.68-.1-1.02-.14.39.3.82.61,1.35.46.27-.08.46-.26.61-.48.05-.07.08-.14.13-.2l-.13.17s.07-.08.11-.12c.16-.13.25-.4.25-.6,0-.21-.09-.45-.25-.6s-.37-.26-.6-.25c-.24.01-.41.1-.6.25-.17.14-.26.34-.4.52l.13-.17s-.03.03-.05.05l.17-.13s-.02.01-.03.02l.2-.09s-.02,0-.04.01l.22-.03s-.04,0-.06,0l.22.03s-.06-.02-.09-.03l.2.09c-.11-.05-.21-.12-.31-.19l.17.13-.04-.03c-.15-.12-.29-.21-.48-.23-.17-.02-.4,0-.54.1s-.27.2-.36.37c-.06.1-.11.22-.14.33-.05.2-.07.41-.08.61-.01.27,0,.53.01.8l1.07-.81s-.01,0-.02,0l.2.09c-.15-.07-.29-.18-.42-.29l.17.13c-.36-.28-.7-.58-1.06-.86-.15-.12-.47-.14-.65-.09s-.32.15-.44.3c-.25.32-.24.82.07,1.11.09.09.18.18.27.26.19.17.36.28.61.37.41.15.87.06,1.27-.07.18-.06.32-.15.44-.3.11-.14.2-.33.18-.51,0-.1-.01-.19,0-.29l-.03.22c0-.07.02-.13.05-.19l-.09.2s.04-.08.07-.11l-.13.17s.07-.07.11-.1l-.17.13c.1-.08.22-.13.34-.18.18-.08.34-.32.39-.5.06-.2.03-.47-.09-.65s-.29-.34-.5-.39c-.23-.05-.43-.01-.65.09h0Z"/>
        <path class="cls-31" d="M931.63,962.84v.73c0,.12.02.22.07.33.03.1.09.2.17.27.08.08.17.14.27.17.1.05.21.08.33.07l.22-.03c.14-.04.27-.11.37-.22l.13-.17c.08-.13.11-.27.12-.43v-.73c0-.12-.02-.22-.07-.33-.03-.1-.09-.2-.17-.27-.08-.08-.17-.14-.27-.17-.1-.05-.21-.08-.33-.07l-.22.03c-.14.04-.27.11-.37.22l-.13.17c-.08.13-.11.27-.12.43h0Z"/>
        <path class="cls-25" d="M926.85,953.76c.08,3.43.28,6.98,1.98,10.16,1.7,3.18,5.28,5.94,9.27,5.98.69-2.23,1.66-4.19,1.99-6.49.06-.45.12-.92-.01-1.37-.14-.46-.46-.87-.79-1.26-2.19-2.57-4.86-4.84-7.88-6.69-1.08-.66-2.77-1.2-3.47-.3"/>
      </g>
    </g>
  </g>
  <g>
    <path class="cls-33" d="M913.04,697.53c2.43,4.6,7.41,6.82,12.28,7.81,5.86,1.19,11.85,1.78,17.82,2.06s11.49.24,17.23.2,11.88-.17,17.67-1.51,11.3-4.09,15.56-8.28c1.8-1.77,1.91-5.06,0-6.81s-4.89-1.89-6.81,0c-.39.38-.79.76-1.2,1.12-.21.18-.42.35-.63.52.68-.59.17-.13,0-.01-.95.65-1.9,1.27-2.92,1.82-.47.25-.96.49-1.44.72-.13.06-.92.4-.35.16s-.22.08-.36.13c-1.06.41-2.15.76-3.25,1.05s-2.24.54-3.37.74c-.24.04-.48.08-.71.12-.11.02-1.1.16-.55.09s-.44.05-.56.06c-.4.04-.8.08-1.2.12-2.65.23-5.3.3-7.96.33-5.25.06-10.51.09-15.77-.06-2.67-.07-5.33-.2-7.99-.41-1.29-.1-2.58-.22-3.86-.37-.56-.06-1.12-.13-1.68-.2.78.1-.03,0-.16-.02-.48-.07-.96-.14-1.44-.22-2.38-.38-4.8-.77-7.08-1.58-.19-.07-.47-.14-.66-.25,1.09.62.08,0-.12-.1s-.41-.22-.6-.34c-.13-.08-.99-.56-.37-.2.5.28.08.07-.05-.05-.25-.24-.49-.47-.73-.72-.43-.44-.2.04.11.16-.21-.08-.45-.75-.54-.92-1.18-2.23-4.46-3.09-6.58-1.73-2.27,1.46-2.99,4.2-1.73,6.58h0Z"/>
    <g>
      <g>
        <g>
          <path class="cls-33" d="M904.49,614.83c.15.06.32.1.48.11,1.09.9.81,2,.9,3.02,1.8,21.1,3.43,40.61,4.97,58.7.07.81-.09,1.66.5,2.36.73.54,1.42.46,2.17.23,1.17-1.05.75-2.33.66-3.55-1.31-17.27-2.75-35.83-4.28-55.82-.09-1.24-.41-2.52.18-3.62,1.09-.58,1.91-.36,2.73.25.73,1.28.61,2.63.7,3.95,1.42,19.88,2.71,38.34,3.93,55.52.08,1.06-.01,2.14.58,3.16.23.32.56.55,1.08.61.61.02,1.21.06,1.8.22,1.66.28,3.32.18,4.97.19,8.38,0,16.77,0,25.15,0,1.33,0,2.66.04,3.96-.2,1.81-.37,2.46-1.29,2.5-2.53.02-.77.05-1.54.06-2.32.22-16.98.45-35.21.72-54.82.02-1.24-.23-2.53.78-4.08,8.21-.25,16.61-.21,24.63-.02.78.81.82,1.36.58,1.85-1.25,2.56-1.3,5.07-.39,7.58.24.68.27,1.46.04,2.15-1.22,3.68-.77,7.29-.65,10.86.05,1.44-.26,2.86-.92,4.26-.62,1.31-.71,2.68-.34,4,.92,3.28.73,6.51-.57,9.71-.46,1.13-.58,2.3-.26,3.42.96,3.37.74,6.67-.6,9.95-.39.95-.53,1.96-.2,2.88.55,1.58.62,3.16.58,4.77-.02.84.15,1.66,1.48,2,4.56.81,9.26.53,13.94.46.9-.1,1.94.08,2.52-.69.18-1.79.37-3.6.56-5.42.18-1.76.36-3.53.53-5.32.05-.54.1-1.08.16-1.62.08-.45.12-.89.14-1.34.15-1.54.31-3.1.46-4.66.19-1.86.38-3.73.56-5.61.25-2.52.51-5.07.76-7.64.2-1.96.4-3.93.59-5.92.24-2.39.48-4.79.72-7.22.14-1.35.27-2.71.41-4.08.19-1.92.38-3.85.58-5.79.22-2.14.43-4.29.64-6.47.06-.66.13-1.31.19-1.97.2-.51-.08-1.06.39-1.54,1.59-.83,3.18-1.66,5.32-2.78-4.85-1.1-8.03-1.82-11.78-2.67-.04-.13-.21-.74-.39-1.36-.35-.11.15-.12-.22-.13-4.39-.06-8.66-.94-13.1-.78-.31.11-.58.27-.81.47-.51.9-1.4,1.13-2.54,1.12-2.44-.01-4.88-.02-7.32.01-1.11.02-2.28-.1-3.15.71-.59.75-.12,1.67-.63,2.42-4.65,1.36-8.11.58-9.65-2.18-.38-.49-.95-.89-1.61-.84-4.11.3-7.88-1.41-12.04-1.11-3.8.27-7.66.05-11.5.06-1.91,0-3.77.07-5.64.54-1.88.48-3.97.47-5.94-.12-1.22-.37-2.45-.41-3.69-.43-1.48-.09-2.95-.15-4.38.18-2.02.72-3.69,1.91-5.75,2.57-2.65.1-4.84,1.41-7.4,1.28-1.39,1.52-.19,2.32,1.16,3.07Z"/>
          <line class="cls-11" x1="905.2" y1="610.84" x2="1005.2" y2="610.84"/>
          <path class="cls-33" d="M912.29,689.72c-.32.22-.94.45-.92.67.37,3.78,1.13,7.52,1.14,11.17,0,3.05,1.51,5.03,6.08,5.83,1.08.61,2.36.53,3.6.55,5.39.08,10.76-.2,16.15-.09.7.07,1.4.09,2.1.09,15.62.04,31.24,0,46.86,0,.86,0,1.72.03,2.57-.14.47-.07.87-.23,1.2-.47,1.3-.52,2.61-1.04,3.91-1.57.43-.35,1.03-.6,1.37-1.01.17-1.72.35-3.46.52-5.21.16-1.58.32-3.17.47-4.77.05-.48.09-.96.14-1.44.1-.18.12-.36.07-.55.02-.15.03-.3.05-.45.08-.18.1-.36.05-.55.08-.59.15-1.19.23-1.78-.46-.63-1.38-.45-2.15-.45-7.09-.02-14.19-.01-21.28,0-.86,0-1.82-.13-2.65.74,2,1.49,4.95.42,7.23,1.08.81.72.89,1.65.58,2.48-1.22,3.21-1.42,6.35-.51,9.45.06.21-.05.42-.23.85-7.04.23-14.07.19-20.87.14-1.04-.83-.81-1.6-.81-2.33,0-3.16.09-6.36.09-9.61,0-.94.03-1.91-1.49-2.77-12.31-.13-24.87.11-37.68-.03.83,5.1,1.01,9.79,1.21,14.2-.99.57-1.72.56-2.85.13-.82-4.49-.42-9.27-1.92-13.97-.87-.43-1.57-.35-2.27-.18Z"/>
          <path class="cls-40" d="M938.31,708.84c-6.62.06-13.25.12-19.87.18.25,1.57.49,3.12.76,4.78,7.92,2.48,15.83,4.96,23.75,7.44,8.05-.08,16.38-.17,24.46-.26,7.5-2.48,15.03-4.97,22.8-7.54l.71-5.22c-.31.02-.62.05-.93.07-.94.36-.79.8-.88,1.22-.24,1.12-.11,2.23-.61,3.27-1.37.6-3.01.59-4.63.62-8,.12-16.03.31-23.97.24-5.06-.04-10.2-.18-15.38-.19-1.82-1.29-.71-3.32-1.36-4.66"/>
          <path class="cls-40" d="M912.29,689.72c.7.08,1.39.16,2.09.24.4,5.05.78,9.85,1.16,14.68,1.64,0,2.92,0,4.16,0-.34-4.82-.67-9.6-1.02-14.64,12.31,0,24.92,0,37.84,0-.06,5.1-.11,9.84-.16,14.72,7.98,0,15.64,0,23.09,0,.29-4.66.58-9.24.88-14.15-2.59,0-5.29,0-7.99,0,0-.19.02-.38.03-.58,8.51,0,17.02,0,25.53,0,.32-3.48.65-7.02.99-10.61-.71.07-1.42.14-2.13.2-1.02.62.59,1.14-.05,1.74-.01.37.45.58.53.92-.12.4-.48.75-.6,1.15-.27.67-.18,1.39-.82,2.24-7.4.6-14.73-.05-21.86.32-1.33-1.28-.72-2.61-1.38-3.71-2.16-.97-4.58-.08-6.84-.34-2.07.13-3.82-.6-5.71-.96-1.24.2-2.62.01-3.68.7-.28.26-.39.56-.46.87-.35.99.07,2.07-.83,3.32-11.76.11-23.66.06-35.36.02-1.37-1.29-.59-2.63-1.54-3.71-2.61-1.16-5.75-1.35-7.36-.46.15,1.8.31,3.58.47,5.56.64-.18,1.02-.3,1.41-.41.49-.79-.5-1.59-.19-2.21-.16.83.51,1.58,1.65,2.2,15.48.11,30.95.26,46.42.32,12.28.05,24.57.01,37.02.01,0,.78-.01,1.26-.02,1.79-.55.07-.95.16-1.34.16-6.21.04-12.42,0-18.63.12-4.77.09-9.56.56-14.31.52-12.67-.12-25.35-.45-38.05-.66-3.84-.06-7.68-.02-11.52.03-.49,0-.94.4-1.41.61Z"/>
          <path class="cls-40" d="M918.46,679.49c-.72-9.44-1.51-19.26-2.25-29.49-.79-10.86-1.55-22.21-2.39-34.38-1.6-.28-3.19-.57-5.12-.91,1.84,23.46,3.51,44.66,5.05,64.32-.77.08-1.36.15-2.32.25-.07-.79-.12-1.42-.17-2.05-1.54-18.44-3.19-38.34-5.04-59.91-.07-.79-.82-1.59-1.25-2.39,1.94,22.84,3.73,43.84,5.38,63.21.04.47.16.94.24,1.4,2.73,1.12,5.29.45,7.87-.06Z"/>
          <path class="cls-34" d="M918.46,679.49c-2.62.02-5.25.04-7.87.06.07.71.13,1.42.19,2.12,2.3.12,4.59.24,6.89.36.28.1.58.16.9.17,3.31-.13,6.63-.03,9.94-.06,8.25-.07,16.49-.26,24.75-.01,1.14.03,2.34.14,3.35-.43,1.23-.15,2.47-.31,3.7-.46-.15-.71-.96-.98-1.73-1.29-1.16-.21-2.25-.63-3.51-.54-11.75.04-23.49.08-35.23.12h-.03c-.45-.02-.89-.04-1.34-.05Z"/>
          <path class="cls-40" d="M904.49,614.83c-.5-.81-1.01-1.62-1.33-2.15,2.94-.66,5.54-1.25,8.16-1.84.08-.82.09-.86-.6-.99-.82-.16-1.71.08-2.49-.38-.46-.04-.91-.07-1.37-.11-.33.34-.69.34-1.08,0-.31.53-.63,1.05-1.03,1.74-.5.02-1.23.05-2.07.09-.47.61-.95,1.24-1.75,2.27,1.4.54,2.48.96,3.57,1.38Z"/>
          <path class="cls-37" d="M908.22,609.47c1.03.46,2.07.92,3.09,1.38,1.57-.79,3.15-1.59,4.74-2.38-1.68,0-4.36-.02-6.04-.03-.93.34-.86.69-1.79,1.03Z"/>
          <path class="cls-33" d="M914.13,686.81c-.46-1.51-.93-3.02-1.4-4.55l-1.13.08c.36,1.5.72,3,1.07,4.48.49,0,.97,0,1.46-.01Z"/>
          <path class="cls-40" d="M999.96,668.64c-.18,1.79-.35,3.56-.53,5.32.18-1.76.35-3.53.53-5.32Z"/>
          <path class="cls-40" d="M1001.28,655.41c-.19,1.88-.37,3.75-.56,5.61.18-1.86.37-3.73.56-5.61Z"/>
          <path class="cls-40" d="M1002.63,641.85c-.2,1.99-.39,3.96-.59,5.92.19-1.96.39-3.93.59-5.92Z"/>
          <path class="cls-40" d="M1004.98,618.3c-.22,2.17-.43,4.33-.64,6.47.21-2.14.43-4.29.64-6.47Z"/>
          <path class="cls-40" d="M997.35,694.76c-.16,1.6-.32,3.19-.47,4.77.16-1.58.32-3.17.47-4.77Z"/>
          <path class="cls-40" d="M1003.76,630.55c-.14,1.37-.27,2.72-.41,4.07.13-1.35.27-2.71.41-4.07Z"/>
          <path class="cls-33" d="M905.77,609.36c.08.55.17,1.1.25,1.65.27.01.53.02.8.03,0-.56.02-1.12.03-1.68-.36,0-.72,0-1.08,0Z"/>
          <path class="cls-40" d="M996.36,704.74c-.46.34-.91.67-1.37,1.01.46-.34.91-.67,1.37-1.01Z"/>
          <path class="cls-40" d="M1000.25,665.68c-.05.45-.09.89-.14,1.34.05-.45.09-.89.14-1.34Z"/>
          <path class="cls-40" d="M1005.55,614.78c-.13.52-.26,1.03-.39,1.54.13-.51.26-1.03.39-1.54Z"/>
          <path class="cls-40" d="M997.65,691.77c-.02.18-.03.36-.05.55.02-.18.03-.36.05-.55Z"/>
          <path class="cls-40" d="M997.56,692.77c-.02.18-.04.36-.07.55.02-.18.04-.36.07-.55Z"/>
          <path class="cls-40" d="M955.06,679.42c1.22.25,2.44.51,3.65.76,3.08-.1,6.17-.14,9.24.06,3.88-.19,7.76-.02,11.63-.13,1.06-.03,2.39.22,2.97-.83-.22-.08-.63-.14-.63-.23-.22-3.11-.55-6.25-.56-9.45-.01-3.04.33-6.13.5-9.25.07-1.2-.04-2.41.14-3.62.38-2.54,1.04-5.09,1.34-7.68.35-3.09.56-6.23.61-9.4.1-5.46-.12-11.03.09-16.73.08-2.34.94-4.72,1.52-7.44-9.41,0-18.52,0-27.89,0-.27,22.93-.52,43.91-.75,63.29-.73.26-1.3.45-1.87.65Z"/>
          <path class="cls-34" d="M982.57,679.28c-3.92.09-7.84.16-11.76.28-1.13.04-2.25.24-3.38.36-.12.34.18.65.12.93-.58.63-2.35.19-2.17,1.33,2.3.05,4.59.1,6.89.16,2.76.28,5.49.91,8.36.25.97-.46,2.05-.44,3.13-.44,3.39,0,6.78.01,10.18-.01,1.14,0,2.38.08,3.04-.89.45-.21.9-.41,1.32-.61-.57-.39-1.06-.72-1.55-1.06-4.72-.1-9.45-.2-14.18-.3Z"/>
          <path class="cls-40" d="M971.46,609.92c-3.56.03-7.12.06-10.68.09,1.34.94,2.51,2.36,4.06,2.71,2.08.47,4.47.12,7.41.12-.32-1.19-.56-2.05-.79-2.91Z"/>
          <polygon class="cls-40" points="919.8 679.54 919.83 679.54 919.81 679.45 919.8 679.54"/>
          <path class="cls-33" d="M918.24,682.07c-.19-.01-.38-.02-.57-.03.1,1.38.19,2.76.31,4.38,12.83,0,25.54,0,38.52,0l.04-4c-.48-.4-1.15-.41-1.82-.41-12.17-.09-24.33-.07-36.49.07Z"/>
          <path class="cls-33" d="M980.51,682.36c-2.75,0-5.5-.02-8.26-.03-.06,1.29-.11,2.57-.18,3.98,8.31,0,16.2,0,24.64,0,.17-1.02.37-2.17.56-3.32-.14-.64-.62-.98-1.62-.99-4.76-.07-9.53.07-14.29.05-.33,0-.62.16-.87.32Z"/>
          <path class="cls-38" d="M918.24,682.07c1.68.08,3.37.22,5.04.23,11.09.05,22.18.08,33.27.12.02-.23.04-.47.06-.7-11.97-.03-23.95-.07-35.92-.08-.82,0-1.63.28-2.44.44Z"/>
          <path class="cls-31" d="M965.37,682.18c1.06-.3,2.11-.6,3.39-.96-.46-.44-.89-.87-1.33-1.29-2.91.09-5.81.17-8.71.26.53.36,1.06.71,1.59,1.07.66.29,1.31.59,2.06.93.92,0,1.97,0,3.01,0Z"/>
          <path class="cls-38" d="M980.51,682.36c4.76,0,9.53-.04,14.29.01.85,0,1.66.4,2.48.62.39-.27.78-.54,1.31-.91-.66-.34-1.15-.58-1.63-.83-4.66.15-9.32.27-13.97.47-.83.04-1.65.42-2.48.64Z"/>
        </g>
        <path class="cls-40" d="M920.93,715.63c4.86,1.69,9.73,3.36,14.65,4.89,2.41.75,4.85,1.33,7.37,1.59s5.04.2,7.55.21c5.14.02,10.35.29,15.45-.48,4.65-.7,9.11-2.25,13.5-3.9,2.41-.91,4.8-1.84,7.23-2.67,1.31-.45,2.54-.92,3.11-2.29.5-1.21.64-2.62.68-3.92.08-2.58-3.94-2.58-4.02,0-.01.45-.04.89-.11,1.33-.04.25-.22.58-.18.82.06.43-.11.04.16-.05-1.05.35-2.09.72-3.12,1.1-2.01.74-4.01,1.52-6.02,2.26-3.99,1.48-8.07,2.83-12.29,3.45-4.64.68-9.46.35-14.14.33-2.29,0-4.58.03-6.86-.13s-4.44-.68-6.59-1.33c-5.14-1.55-10.22-3.32-15.29-5.08-2.45-.85-3.5,3.03-1.07,3.87h0Z"/>
      </g>
      <line class="cls-13" x1="905.2" y1="609.55" x2="1004.2" y2="609.55"/>
    </g>
    <path class="cls-22" d="M764.2,594.54c0,10.5,95.71,19,214,19"/>
    <line class="cls-22" x1="764.7" y1="594.54" x2="752.7" y2="453.54"/>
    <path class="cls-22" d="M1136.7,594.54c0,10.5-95.71,19-214,19"/>
    <line class="cls-22" x1="1136.2" y1="594.54" x2="1148.2" y2="453.54"/>
    <rect class="cls-31" x="897.7" y="596.54" width="107" height="14"/>
  </g>
  <line class="cls-7" x1="1073.04" y1="1156.97" x2="1075.23" y2="1168.94"/>
  <g>
    <line class="cls-15" x1="977.22" y1="1232.49" x2="975.12" y2="1226.52"/>
    <line class="cls-15" x1="973.26" y1="1235.55" x2="977.22" y2="1232.49"/>
    <line class="cls-15" x1="974.39" y1="1243.54" x2="977.5" y2="1250.49"/>
    <g>
      <g>
        <line class="cls-15" x1="1132.54" y1="1281.26" x2="1131" y2="1296.27"/>
        <line class="cls-15" x1="1140.23" y1="1318.98" x2="1146.29" y2="1285.35"/>
        <g>
          <line class="cls-15" x1="981.09" y1="1224.43" x2="978.49" y2="1217.97"/>
          <line class="cls-15" x1="985" y1="1218.37" x2="978" y2="1218.48"/>
          <line class="cls-15" x1="983.89" y1="1211.38" x2="985" y2="1218.37"/>
          <line class="cls-15" x1="991.92" y1="1213.26" x2="983.89" y2="1211.38"/>
          <line class="cls-15" x1="991.79" y1="1205.26" x2="991.92" y2="1213.26"/>
          <line class="cls-15" x1="998.84" y1="1208.15" x2="991.79" y2="1205.26"/>
          <line class="cls-15" x1="1000.73" y1="1201.12" x2="998.84" y2="1208.15"/>
          <line class="cls-15" x1="1006.79" y1="1205.02" x2="1000.73" y2="1201.12"/>
          <line class="cls-15" x1="1009.68" y1="1197.97" x2="1006.79" y2="1205.02"/>
          <line class="cls-15" x1="1015.77" y1="1203.88" x2="1009.68" y2="1197.97"/>
          <line class="cls-15" x1="1015.77" y1="1203.88" x2="1019.68" y2="1197.82"/>
          <line class="cls-15" x1="1023.77" y1="1203.75" x2="1019.68" y2="1197.82"/>
          <line class="cls-15" x1="1030.2" y1="1199.15" x2="1023.26" y2="1203.26"/>
          <line class="cls-15" x1="1031.8" y1="1205.63" x2="1029.69" y2="1198.66"/>
          <line class="cls-15" x1="1039.77" y1="1203.5" x2="1031.8" y2="1205.63"/>
          <line class="cls-15" x1="1039.88" y1="1210.5" x2="1039.77" y2="1203.5"/>
          <line class="cls-15" x1="1046.86" y1="1209.39" x2="1039.88" y2="1210.5"/>
          <line class="cls-15" x1="1045.96" y1="1215.4" x2="1046.86" y2="1209.39"/>
          <line class="cls-15" x1="975.12" y1="1226.52" x2="981.09" y2="1224.43"/>
          <line class="cls-15" x1="1053.46" y1="1215.79" x2="1046.46" y2="1215.9"/>
          <line class="cls-15" x1="1050.05" y1="1221.34" x2="1053.97" y2="1216.28"/>
          <line class="cls-15" x1="1056.1" y1="1224.25" x2="1050.05" y2="1221.34"/>
          <line class="cls-15" x1="1051.16" y1="1228.32" x2="1056.1" y2="1224.25"/>
          <line class="cls-15" x1="1055.22" y1="1232.26" x2="1051.16" y2="1228.32"/>
          <line class="cls-15" x1="1050.29" y1="1235.32" x2="1055.22" y2="1232.26"/>
          <line class="cls-15" x1="1052.37" y1="1241.31" x2="1050.66" y2="1235.31"/>
          <line class="cls-15" x1="1056.95" y1="1215.23" x2="1051.91" y2="1212.31"/>
          <line class="cls-15" x1="1053.04" y1="1220.79" x2="1056.96" y2="1215.73"/>
          <line class="cls-15" x1="1059.1" y1="1224.7" x2="1053.03" y2="1220.29"/>
          <line class="cls-15" x1="1054.17" y1="1228.78" x2="1059.1" y2="1224.7"/>
          <line class="cls-15" x1="1058.23" y1="1232.71" x2="1054.17" y2="1228.78"/>
          <line class="cls-15" x1="1053.3" y1="1237.29" x2="1058.23" y2="1232.71"/>
          <line class="cls-15" x1="1057.71" y1="1199.72" x2="1051.64" y2="1195.31"/>
          <line class="cls-15" x1="1052.77" y1="1203.8" x2="1057.71" y2="1199.72"/>
          <line class="cls-15" x1="1056.84" y1="1207.73" x2="1052.77" y2="1203.8"/>
          <line class="cls-15" x1="1051.91" y1="1212.31" x2="1056.84" y2="1207.73"/>
          <line class="cls-15" x1="1058.36" y1="1241.21" x2="1053.69" y2="1236.76"/>
          <line class="cls-15" x1="1053.42" y1="1244.79" x2="1058.36" y2="1240.71"/>
          <line class="cls-15" x1="1057.48" y1="1248.73" x2="1053.42" y2="1244.79"/>
          <line class="cls-15" x1="1052.55" y1="1253.31" x2="1057.48" y2="1248.73"/>
          <line class="cls-15" x1="1057.62" y1="1257.23" x2="1052.94" y2="1252.77"/>
          <line class="cls-15" x1="1053.3" y1="1237.29" x2="1058.23" y2="1232.71"/>
          <line class="cls-15" x1="1058.36" y1="1241.21" x2="1053.69" y2="1236.76"/>
          <line class="cls-15" x1="1052.69" y1="1261.8" x2="1057.62" y2="1257.73"/>
          <line class="cls-15" x1="1056.75" y1="1265.74" x2="1052.69" y2="1261.8"/>
          <line class="cls-15" x1="1051.82" y1="1270.32" x2="1056.75" y2="1265.74"/>
          <line class="cls-15" x1="1056.88" y1="1274.24" x2="1052.21" y2="1269.79"/>
          <line class="cls-15" x1="1046.7" y1="1242.54" x2="1052.37" y2="1241.31"/>
          <line class="cls-15" x1="1048.49" y1="1249.37" x2="1046.7" y2="1242.54"/>
          <line class="cls-15" x1="1040.49" y1="1249.49" x2="1047.99" y2="1249.38"/>
          <line class="cls-15" x1="1039.59" y1="1255.51" x2="1040.49" y2="1249.49"/>
          <line class="cls-15" x1="1032.57" y1="1254.62" x2="1040.09" y2="1255.5"/>
          <line class="cls-15" x1="1033.68" y1="1261.6" x2="1032.56" y2="1254.12"/>
          <line class="cls-15" x1="1026.65" y1="1259.71" x2="1033.68" y2="1261.6"/>
          <line class="cls-15" x1="1024.75" y1="1265.75" x2="1026.65" y2="1259.71"/>
          <line class="cls-15" x1="1016.8" y1="1268.87" x2="1018.7" y2="1262.84"/>
          <line class="cls-15" x1="1024.75" y1="1265.75" x2="1018.7" y2="1262.84"/>
          <line class="cls-15" x1="1016.8" y1="1268.87" x2="1010.75" y2="1265.97"/>
          <line class="cls-15" x1="1006.83" y1="1271.03" x2="1010.75" y2="1265.97"/>
          <line class="cls-15" x1="973.26" y1="1235.55" x2="979.31" y2="1238.46"/>
          <line class="cls-15" x1="974.39" y1="1243.54" x2="979.31" y2="1238.46"/>
          <line class="cls-15" x1="981.41" y1="1244.43" x2="974.39" y2="1243.54"/>
          <line class="cls-15" x1="978.01" y1="1250.98" x2="980.91" y2="1244.93"/>
          <line class="cls-15" x1="985.52" y1="1251.36" x2="977.5" y2="1250.49"/>
          <line class="cls-15" x1="982.61" y1="1257.41" x2="985.52" y2="1251.36"/>
          <line class="cls-15" x1="990.61" y1="1257.28" x2="982.61" y2="1257.41"/>
          <line class="cls-15" x1="990.6" y1="1256.78" x2="987.7" y2="1263.33"/>
          <line class="cls-15" x1="995.69" y1="1262.2" x2="987.7" y2="1263.33"/>
          <line class="cls-15" x1="995.8" y1="1269.2" x2="995.69" y2="1262.2"/>
          <line class="cls-15" x1="996.29" y1="1268.69" x2="1002.77" y2="1267.09"/>
          <line class="cls-15" x1="1006.83" y1="1271.03" x2="1002.26" y2="1266.6"/>
          <line class="cls-15" x1="978.5" y1="1250.47" x2="986.32" y2="1270.85"/>
          <line class="cls-15" x1="989.81" y1="1270.3" x2="985.83" y2="1271.36"/>
          <line class="cls-15" x1="987.7" y1="1263.33" x2="992.92" y2="1277.25"/>
          <line class="cls-15" x1="1039.57" y1="1254.51" x2="1046.78" y2="1267.4"/>
          <line class="cls-15" x1="997.91" y1="1276.17" x2="992.92" y2="1277.25"/>
          <line class="cls-15" x1="995.8" y1="1269.2" x2="999.99" y2="1281.14"/>
          <line class="cls-15" x1="1001.77" y1="1267.11" x2="1004.94" y2="1278.06"/>
          <line class="cls-15" x1="1012" y1="1281.95" x2="1015.94" y2="1277.89"/>
          <line class="cls-15" x1="1010.75" y1="1265.97" x2="1016.95" y2="1278.87"/>
          <line class="cls-15" x1="1019.72" y1="1263.82" x2="1024.92" y2="1276.74"/>
          <line class="cls-15" x1="1026.65" y1="1259.71" x2="1032.87" y2="1273.62"/>
          <line class="cls-15" x1="1032.57" y1="1254.62" x2="1038.78" y2="1267.52"/>
          <line class="cls-15" x1="1004.94" y1="1278.06" x2="999.99" y2="1281.14"/>
          <line class="cls-15" x1="1006.83" y1="1271.03" x2="1012" y2="1281.95"/>
          <line class="cls-15" x1="1004.94" y1="1278.06" x2="1012" y2="1281.95"/>
          <line class="cls-15" x1="1015.94" y1="1277.89" x2="1021.98" y2="1280.79"/>
          <line class="cls-15" x1="1024.92" y1="1276.74" x2="1021.98" y2="1280.79"/>
          <line class="cls-15" x1="1016.8" y1="1268.87" x2="1021.98" y2="1280.79"/>
          <line class="cls-15" x1="1033.68" y1="1261.6" x2="1039.87" y2="1273.51"/>
          <line class="cls-15" x1="1046.7" y1="1242.54" x2="1052.7" y2="1250.54"/>
          <line class="cls-15" x1="1025.41" y1="1276.24" x2="1031.46" y2="1279.14"/>
          <line class="cls-15" x1="1032.36" y1="1273.13" x2="1031.46" y2="1279.14"/>
          <line class="cls-15" x1="1032.86" y1="1272.62" x2="1039.87" y2="1273.51"/>
          <line class="cls-15" x1="1038.78" y1="1267.52" x2="1039.87" y2="1273.51"/>
          <line class="cls-15" x1="1038.28" y1="1267.53" x2="1047.78" y2="1267.38"/>
          <line class="cls-15" x1="1057.47" y1="1182.47" x2="1051.4" y2="1178.07"/>
          <line class="cls-15" x1="1052.53" y1="1186.55" x2="1057.47" y2="1182.47"/>
          <line class="cls-15" x1="1056.59" y1="1190.49" x2="1052.53" y2="1186.55"/>
          <line class="cls-15" x1="1051.66" y1="1195.06" x2="1056.59" y2="1190.49"/>
          <line class="cls-15" x1="1040.49" y1="1249.49" x2="1047.68" y2="1261.38"/>
          <line class="cls-15" x1="1047.78" y1="1267.38" x2="1047.68" y2="1261.38"/>
          <line class="cls-15" x1="1048.18" y1="1261.38" x2="1054.65" y2="1259.27"/>
          <line class="cls-15" x1="1048.49" y1="1249.37" x2="1054.65" y2="1259.27"/>
          <line class="cls-15" x1="1054.65" y1="1259.27" x2="1053.59" y2="1255.29"/>
          <line class="cls-15" x1="1052.37" y1="1241.31" x2="1053.89" y2="1242.78"/>
          <line class="cls-15" x1="1039.23" y1="1119.68" x2="1045.86" y2="1209.41"/>
          <line class="cls-15" x1="1054.3" y1="1110.26" x2="1058.7" y2="1158.54"/>
          <line class="cls-15" x1="1055.07" y1="1159.25" x2="1073.04" y2="1156.97"/>
          <line class="cls-15" x1="1051.37" y1="1178.31" x2="1056.31" y2="1174.24"/>
          <line class="cls-15" x1="1055.07" y1="1159.25" x2="1056.31" y2="1174.24"/>
          <line class="cls-15" x1="1072.05" y1="1157.99" x2="1080.42" y2="1307.87"/>
          <line class="cls-15" x1="996.94" y1="1278.18" x2="1000.46" y2="1311.13"/>
          <line class="cls-15" x1="1048.39" y1="1306.38" x2="1000.46" y2="1311.13"/>
          <line class="cls-15" x1="1044.79" y1="1268.43" x2="1048.39" y2="1306.38"/>
          <line class="cls-15" x1="1000.46" y1="1311.13" x2="1005.69" y2="1326.05"/>
          <line class="cls-15" x1="1052.63" y1="1321.31" x2="1005.69" y2="1326.05"/>
          <line class="cls-15" x1="1048.41" y1="1307.38" x2="1052.63" y2="1321.31"/>
          <line class="cls-15" x1="1047.84" y1="1271.38" x2="1052.63" y2="1321.31"/>
          <line class="cls-15" x1="1044.79" y1="1268.43" x2="1047.84" y2="1271.38"/>
          <line class="cls-15" x1="1056.9" y1="1275.24" x2="1059.42" y2="1308.2"/>
          <line class="cls-15" x1="1080.42" y1="1307.87" x2="1059.42" y2="1308.2"/>
          <line class="cls-15" x1="1046.86" y1="1209.39" x2="1049.96" y2="1215.34"/>
          <line class="cls-15" x1="1075.23" y1="1168.94" x2="1077.84" y2="1207.9"/>
          <line class="cls-15" x1="1080.42" y1="1307.87" x2="1084.51" y2="1313.81"/>
          <line class="cls-15" x1="1063.51" y1="1314.14" x2="1084.51" y2="1313.81"/>
          <line class="cls-15" x1="1059.42" y1="1308.2" x2="1063.51" y2="1314.14"/>
          <line class="cls-15" x1="1088.86" y1="1208.73" x2="1074.86" y2="1208.95"/>
          <line class="cls-15" x1="1089.98" y1="1266.12" x2="1088.86" y2="1208.73"/>
          <ellipse class="cls-15" cx="1113.44" cy="1279.83" rx="5.5" ry="7" transform="translate(-199.48 2354.05) rotate(-88.27)"/>
          <ellipse class="cls-15" cx="1113.05" cy="1279.79" rx="14.81" ry="19.42" transform="translate(-199.81 2353.63) rotate(-88.27)"/>
          <ellipse class="cls-15" cx="1113.66" cy="1283.93" rx="27.59" ry="32.23" transform="translate(-203.36 2358.25) rotate(-88.27)"/>
          <line class="cls-15" x1="1094.05" y1="1277.6" x2="1092.98" y2="1294.06"/>
          <line class="cls-15" x1="1089.7" y1="1323.54" x2="1073.54" y2="1503.98"/>
          <line class="cls-15" x1="1125.38" y1="1326.77" x2="1097.96" y2="1510.68"/>
          <line class="cls-15" x1="1080.99" y1="1284.05" x2="1083.69" y2="1309.98"/>
          <path class="cls-15" d="M1092.8,1293.07c1.49,8.16,13.69,12.75,27.29,10.27"/>
          <path class="cls-15" d="M1131.22,1294.7c.65,3.53-4.77,7.48-12.11,8.82"/>
          <path class="cls-15" d="M1083.69,1309.98c2.43,13.32,20.46,21.17,40.31,17.55"/>
          <path class="cls-15" d="M1140.45,1317.41c.69,3.81-7.54,8.49-18.42,10.48"/>
          <ellipse class="cls-15" cx="1012.55" cy="1232.14" rx="5.5" ry="5" transform="translate(-94.31 83.98) rotate(-4.54)"/>
          <line class="cls-15" x1="1072.7" y1="1313.54" x2="1073.7" y2="1325.54"/>
          <line class="cls-15" x1="1073.7" y1="1325.54" x2="998.7" y2="1332.54"/>
          <line class="cls-15" x1="991.7" y1="1274.54" x2="998.7" y2="1332.54"/>
        </g>
      </g>
      <g>
        <path d="M988.42,1090.65c3.22,0,3.22-5,0-5s-3.22,5,0,5h0Z"/>
        <g>
          <path d="M958.85,1056.26c5.81-.13,11.62-.26,17.43-.38,5.41-.12,10.89.21,15.93-2.06,2.33-1.05,4.53-2.4,6.94-3.27,2.58-.93,5.29-1.47,8.03-1.57,4.49-.16,10.44.51,12.94,4.8,1.14,1.95,1.61,4.22,2.49,6.28s2.3,3.87,4.12,5.32c4.21,3.34,8.95,6.13,13.41,9.13,4.16,2.79,8.43,6.72,13.79,5.41,2.25-.55,4.45-1.59,6.76-.69,1.89.74,3.3,2.38,4.29,4.1s2.04,4.25,1.73,6.29c-.2,1.3-1.23,1.99-2.23,2.69-1.26.88-2.53,1.75-3.8,2.63-2.26,1.57-4.53,3.14-6.79,4.71s-4.35,3.27-6.79,4.37c-3.9,1.76-8.4-.03-10.46-3.71-.46-.82-.78-1.74-.89-2.68-.15-1.27.16-2.54-.05-3.81-.36-2.12-1.99-3.38-3.77-4.35-2.58-1.41-5.21-2.74-7.82-4.11-.92-.48-1.9-1.13-2.99-.99s-1.69.96-2.26,1.84c-1.8,2.82-6.27,3.51-8.69,1.04-1.51-1.55-1.91-3.86-3.58-5.31s-3.89-1.87-6.03-1.99c-5.3-.28-10.76.42-15.92,1.62-2.1.49-4.27,1-5.56,2.88-.98,1.44-1.21,3.21-1.45,4.89-.22,1.53-.35,3.62-1.71,4.62-1.7,1.25-4.83.57-6.69.01-2.33-.7-4.17-2.15-5.08-4.45s-1.11-4.94-1.49-7.38c-.89-5.72-1.78-11.43-2.67-17.15-.44-2.86-.89-5.72-1.33-8.57-.25-1.58-2.66-.91-2.41.66.94,6.04,1.88,12.09,2.82,18.13.47,3.02.94,6.04,1.41,9.06.39,2.48.69,5.04,1.87,7.29,2.17,4.16,7.47,5.85,11.91,5.47,2.04-.18,3.84-1.16,4.76-3.04.84-1.72.91-3.65,1.25-5.5.38-2.13,1.07-3.46,3.27-4.08,2.8-.79,5.72-1.3,8.61-1.62s5.61-.49,8.4-.34c1.12.06,2.29.2,3.32.67,1.16.54,1.83,1.5,2.42,2.6.99,1.85,1.94,3.6,3.87,4.6,1.65.85,3.55,1.1,5.38.8s3.51-1.15,4.69-2.53c.26-.3.49-.63.7-.97.39-.61.32-.91,1.03-.56,1.34.66,2.65,1.39,3.98,2.09s2.65,1.39,3.98,2.09c1.03.54,2.34,1.08,2.99,2.1s.29,2.46.31,3.62c.01,1.05.21,2.12.58,3.1,1.45,3.87,5.17,6.77,9.3,7.15,5.18.49,9.71-3.78,13.67-6.52,2.4-1.66,4.8-3.32,7.19-4.98,2.03-1.41,4.63-2.73,5.17-5.37.44-2.14-.28-4.55-1.11-6.51s-2.1-3.96-3.82-5.37c-1.54-1.27-3.42-2.09-5.43-2.12-2.64-.04-5.06,1.6-7.68,1.4s-5.1-2.33-7.24-3.77c-2.49-1.67-4.98-3.35-7.48-5.02s-4.8-3.14-7.13-4.81c-2.07-1.49-3.62-3.23-4.55-5.62-.87-2.23-1.42-4.65-2.79-6.66-1.29-1.88-3.14-3.16-5.24-4-4.83-1.91-10.6-1.79-15.57-.53-5.33,1.35-9.79,5.16-15.31,5.73-2.89.3-5.84.23-8.74.29l-9.33.21c-2.95.06-5.89.13-8.84.19-1.61.04-1.61,2.54,0,2.5h0Z"/>
          <line class="cls-15" x1="1067.79" y1="1090.66" x2="1060.64" y2="1107.21"/>
          <line class="cls-15" x1="1035.2" y1="1101.05" x2="1031.75" y2="1110.43"/>
          <line class="cls-15" x1="1021.41" y1="1086.39" x2="1017.17" y2="1100.81"/>
          <line class="cls-15" x1="1002.89" y1="1081.71" x2="999.34" y2="1094.26"/>
          <line class="cls-15" x1="981.61" y1="1084.54" x2="977.62" y2="1101.18"/>
          <line class="cls-15" x1="957.78" y1="1056.6" x2="954.14" y2="1072.31"/>
          <path d="M1059.4,1106.41c-2.45,1.85-4.9,3.7-7.35,5.55-2.28,1.72-4.53,3.63-7.12,4.87s-5.56,1.42-8.16-.16c-2.11-1.28-5.36-3.54-4.16-6.41.62-1.48-1.8-2.13-2.41-.66-1.31,3.12.9,5.98,3.26,7.8,2.71,2.09,5.57,3.39,9.05,2.82s6.2-2.62,8.87-4.63c3.1-2.34,6.19-4.68,9.29-7.01,1.27-.96.02-3.13-1.26-2.16h0Z"/>
          <path d="M1031.26,1108.46c-1.71-1.92-3.38-3.92-5.3-5.65s-4.17-3.32-6.73-3.75c-.67-.11-1.35.17-1.54.87-.16.6.2,1.43.87,1.54,2.29.38,4.25,1.82,5.92,3.37,1.8,1.67,3.38,3.56,5.01,5.39,1.07,1.2,2.84-.57,1.77-1.77h0Z"/>
          <path d="M1016.87,1099.93c-1.75,2.39-3.76,4.8-7.04,4.16-2.34-.46-5.76-1.7-6.88-4.01-.62-1.28-.22-2.78-.68-4.12-.4-1.19-1.35-2.13-2.46-2.69-2.76-1.4-6.34-.57-9.28-.34-1.45.12-2.95.19-4.33.66s-2.56,1.3-3.62,2.28c-2.19,2-3.79,4.23-6.85,4.92-5.84,1.31-12.44-.96-15.36-6.38-1.71-3.17-1.66-7.15-2.21-10.64-.63-4.02-1.43-8.02-2.38-11.98-.37-1.56-2.78-.9-2.41.66.91,3.8,1.68,7.64,2.3,11.5.56,3.46.6,7.28,1.98,10.54,2.45,5.78,8.46,9.1,14.6,9.15,3.28.03,6.46-.73,8.97-2.92,2.22-1.94,3.84-4.48,6.94-5.03,1.88-.33,3.84-.36,5.74-.51,1.6-.13,3.51-.44,4.96.43s1.11,2.36,1.31,3.78.95,2.78,2.04,3.79c2.2,2.04,5.98,3.63,8.99,3.56,3.57-.09,5.87-2.87,7.81-5.53.95-1.3-1.22-2.55-2.16-1.26h0Z"/>
          <path d="M1058.82,1109.62c10.83,6.52,21.16,13.81,31.18,21.5.37.28.74.57,1.11.86-.65-.5-.01-.01.1.08.62.48,1.23.96,1.85,1.44,1.35,1.06,2.7,2.12,4.04,3.19,2.44,1.95,4.87,3.91,7.28,5.9,4.86,4.02,9.61,8.19,13.96,12.77,2.16,2.27,4.23,4.62,6.22,7.03.93,1.12,1.84,2.25,2.74,3.39.24.3.47.6.71.9.6.77.19.24.06.08.56.73,1.11,1.46,1.66,2.19,3.74,4.99,7.31,10.11,10.88,15.22s7.44,10.49,11.04,15.81c1.7,2.51,3.34,5.06,4.8,7.71.72,1.32,1.4,2.66,2.02,4.03,0-.02.56,1.27.26.58s.25.61.24.59c.32.8.62,1.6.9,2.41,4.45,12.58,5.61,26.12,11.98,38.03,1.24,2.31,4.63,3.22,6.84,1.79,2.35-1.51,3.12-4.37,1.79-6.84-.67-1.26-1.29-2.54-1.87-3.85.48,1.06-.1-.24-.15-.38-.11-.26-.21-.53-.31-.79-.31-.8-.6-1.6-.87-2.41-.93-2.71-1.7-5.47-2.4-8.24-1.46-5.71-2.66-11.49-4.42-17.12-1.89-6.06-4.54-11.79-7.93-17.15s-7.25-10.6-10.93-15.85c-7.41-10.57-14.67-21.34-23.26-31.01-8.48-9.55-18.56-17.51-28.59-25.35-11.52-9-23.36-17.6-35.89-25.14-2.24-1.35-5.59-.57-6.84,1.79s-.6,5.4,1.79,6.84h0Z"/>
          <path d="M1001.16,1069.85c2.62,0,5.12-2.3,5-5s-2.2-5-5-5c-2.62,0-5.12,2.3-5,5s2.2,5,5,5h0Z"/>
          <circle class="cls-4" cx="1001.2" cy="1064.57" r="8.5"/>
        </g>
        <line class="cls-17" x1="988.7" y1="1088.54" x2="997.7" y2="1113.54"/>
        <line class="cls-17" x1="960.2" y1="1011.04" x2="975.7" y2="1054.54"/>
      </g>
    </g>
  </g>
  <g>
    <ellipse class="cls-22" cx="1268.05" cy="558.93" rx="11" ry="28.95" transform="translate(514.27 1721.76) rotate(-80.83)"/>
    <line class="cls-22" x1="1239.5" y1="554.5" x2="1221.5" y2="668.5"/>
    <line class="cls-22" x1="1296.5" y1="565.5" x2="1267.5" y2="676.5"/>
    <path class="cls-22" d="M1221,668c0,6.63,14.31,12,32,12"/>
    <path class="cls-22" d="M1267.96,676.82c.04,1.66-6.63,3.16-14.92,3.36"/>
    <path class="cls-22" d="M1294.13,577.75c-.17,2.76-11.02,4.33-24.26,3.51"/>
    <path class="cls-22" d="M1292.13,583.75c-.16,2.58-10.51,4.04-23.13,3.25"/>
    <path class="cls-22" d="M1269.5,587.5c0-3.32.45-6,1-6"/>
  </g>
  <path d="M1374.6,535.71c-1.92,13.98-11.23,25.25-22.88,32.65-13.63,8.66-29.82,11.44-45.66,12.79-29.05,2.48-62.39,1.07-85.18,22.54-19.39,18.26-24.39,46.63-25.9,72.05-2.07,34.93.1,70.14,3.79,104.88,3.74,35.29,9.3,70.35,14.76,105.4s11.55,70.65,13.4,106.31c1.69,32.69-.65,66.03-12.31,96.88-10,26.46-26.74,51.12-50.4,67.13-26.61,18-60.86,23.99-92.51,21.29s-61.69-17.06-72.44-47.43c-2.34-6.61-3.35-13.51-2.95-20.51.11-1.93-2.89-1.92-3,0-1.66,29.44,20.67,53.89,46.79,64,14.61,5.65,30.47,7.61,46.06,7.47,16.42-.14,33-2.38,48.66-7.4,28.03-9,50.96-27.62,66.9-52.21,16.42-25.34,24.83-54.88,27.57-84.76,3.28-35.62-1.02-71.39-6.07-106.63-5.2-36.26-11.36-72.37-16.4-108.65-5.11-36.84-9.04-73.93-9.5-111.15-.2-15.99-.07-32.14,1.83-48.04,1.68-14.07,4.95-28.35,11.84-40.84,7.31-13.24,18.69-23.04,32.83-28.42,14.71-5.6,30.53-6.85,46.1-7.81,29.05-1.79,63.15-4.33,80.86-31.1,3.52-5.33,5.85-11.32,6.71-17.64.26-1.89-2.63-2.7-2.89-.8h0Z"/>
  <rect class="cls-32" x="1487" y="696" width="321" height="938"/>
  <circle class="cls-23" cx="1588.68" cy="863.27" r="31.1"/>
  <circle class="cls-23" cx="1666.9" cy="863.27" r="31.1"/>
  <circle class="cls-23" cx="1588.68" cy="941.11" r="31.1"/>
  <circle class="cls-23" cx="1666.9" cy="941.11" r="31.1"/>
  <circle class="cls-23" cx="1600.68" cy="1473.97" r="31.1"/>
  <circle class="cls-23" cx="1678.9" cy="1473.97" r="31.1"/>
  <circle class="cls-27" cx="2130.03" cy="856.3" r="44.97"/>
  <circle class="cls-27" cx="2130.03" cy="978.14" r="44.97"/>
  <circle class="cls-27" cx="2130.03" cy="1099.14" r="44.97"/>
  <circle class="cls-27" cx="2130.03" cy="1226.53" r="44.97"/>
  <circle class="cls-27" cx="2130.03" cy="1345.93" r="44.97"/>
  <circle cx="2129.74" cy="858.56" r="13.75"/>
  <circle cx="2129.74" cy="978.58" r="13.75"/>
  <circle cx="2129.74" cy="1099.17" r="13.75"/>
  <circle cx="2129.74" cy="1227.97" r="13.75"/>
  <text class="cls-2" transform="translate(1728.41 953.35)"><tspan x="0" y="0">Solenoid 2</tspan></text>
  <circle cx="2129.74" cy="1346.76" r="13.75"/>
  <text class="cls-2" transform="translate(2202.66 1240.21)"><tspan x="0" y="0">Lick sensor 2</tspan></text>
  <rect class="cls-30" x="2045" y="1167" width="466" height="116"/>
  <rect class="cls-30" x="1555" y="900" width="411" height="83"/>
  <rect class="cls-39" x="1512" y="719" width="1126" height="879" rx="12" ry="12"/>
  <text class="cls-2" transform="translate(2202.66 1111.42)"><tspan x="0" y="0">Lick sensor 1</tspan></text>
  <text class="cls-2" transform="translate(1726.41 871.53)"><tspan x="0" y="0">Solenoid 1</tspan></text>
  <text class="cls-2" transform="translate(1723.36 1490.71) rotate(.06)"><tspan x="0" y="0">Motor</tspan></text>
  <text class="cls-2" transform="translate(2202.66 870.8)"><tspan x="0" y="0">Monitor side</tspan></text>
  <text class="cls-2" transform="translate(2202.66 990.82)"><tspan x="0" y="0">Stimulus timing</tspan></text>
  <text class="cls-2" transform="translate(2202.66 1359)"><tspan x="0" y="0">Output</tspan></text>
  <g>
    <line class="cls-22" x1="1412.3" y1="866.54" x2="1771.7" y2="182.54"/>
    <line class="cls-22" x1="1498.5" y1="680.5" x2="1480.5" y2="715.5"/>
    <line class="cls-22" x1="1502.5" y1="694.5" x2="1484.5" y2="729.5"/>
  </g>
  <rect class="cls-31" width="1999" height="536"/>
  <text class="cls-2" transform="translate(1591.7 505.24)"><tspan x="0" y="0">Monitor left</tspan></text>
  <text class="cls-2" transform="translate(124.7 505.24)"><tspan x="0" y="0">Monitor right</tspan></text>
  <g>
    <rect class="cls-12" x="1899.5" y="1889.5" width="462" height="112"/>
    <text class="cls-3" transform="translate(1932.2 1958.84)"><tspan x="0" y="0">DAQ / Scanimage</tspan></text>
  </g>
  <g>
    <line class="cls-8" x1="2937.5" y1="824.91" x2="2937.5" y2="650.5"/>
    <polygon class="cls-35" points="2966.13 801.71 2961 796.94 2937.51 822.22 2914 796.94 2908.88 801.71 2937.51 832.5 2966.13 801.71"/>
  </g>
  <rect class="cls-9" x="2786.5" y="842.5" width="294" height="147"/>
  <rect class="cls-21" x="2684.65" y="469" width="515.5" height="181"/>
  <text class="cls-3" transform="translate(2840.38 934.84)"><tspan x="0" y="0">LabJack</tspan></text>
  <text class="cls-3" transform="translate(2729.48 542.84)"><tspan x="0" y="0">Stimulus Computer</tspan><tspan x="0" y="60">Python / PsychoPy</tspan></text>
  <rect class="cls-28" x="1512" y="719" width="1126" height="879" rx="12" ry="12"/>
  <g>
    <line class="cls-8" x1="1022.5" y1="1297.59" x2="1022.5" y2="1477.5"/>
    <polygon class="cls-35" points="993.87 1320.79 999 1325.56 1022.49 1300.28 1046 1325.56 1051.12 1320.79 1022.49 1290 993.87 1320.79"/>
  </g>
  <line class="cls-8" x1="1022" y1="1477" x2="1557.5" y2="1477.5"/>
  <g>
    <line class="cls-8" x1="2064.91" y1="1088.5" x2="1047.5" y2="1088.5"/>
    <polygon class="cls-35" points="2041.71 1059.87 2036.94 1065 2062.22 1088.49 2036.94 1112 2041.71 1117.12 2072.5 1088.49 2041.71 1059.87"/>
  </g>
  <line class="cls-8" x1="1625.67" y1="838.75" x2="1625.67" y2="624.5"/>
  <g>
    <line class="cls-8" x1="1289.09" y1="622.25" x2="1625.42" y2="622.25"/>
    <polygon class="cls-35" points="1312.29 650.88 1317.06 645.75 1291.78 622.26 1317.06 598.75 1312.29 593.63 1281.5 622.26 1312.29 650.88"/>
  </g>
  <g>
    <line class="cls-14" x1="2130.12" y1="1856.32" x2="2130.12" y2="1427.54"/>
    <polygon class="cls-35" points="2162.84 1829.82 2156.98 1824.36 2130.13 1853.25 2103.27 1824.36 2097.41 1829.82 2130.13 1865 2162.84 1829.82"/>
  </g>
  <g>
    <line class="cls-8" x1="2541.09" y1="970.51" x2="2788.29" y2="970.67"/>
    <polygon class="cls-35" points="2564.27 999.15 2569.05 994.03 2543.78 970.51 2569.08 947.03 2564.3 941.9 2533.5 970.51 2564.27 999.15"/>
  </g>
  <g>
    <line class="cls-8" x1="2534.09" y1="858.5" x2="2786.5" y2="858.5"/>
    <polygon class="cls-35" points="2557.29 887.13 2562.06 882 2536.78 858.51 2562.06 835 2557.29 829.88 2526.5 858.51 2557.29 887.13"/>
  </g>
  <text class="cls-1" transform="translate(2159.72 1667.34)"><tspan x="0" y="0">Stimulus time (side)</tspan><tspan x="0" y="62">Solenoid time (side)</tspan><tspan x="0" y="124">Lick time (side)</tspan></text>
</svg>