G04 #@! TF.GenerationSoftware,KiCad,Pcbnew,(6.0.7)*
G04 #@! TF.CreationDate,2023-05-03T18:52:43+01:00*
G04 #@! TF.ProjectId,beehive,62656568-6976-4652-9e6b-696361645f70,rev?*
G04 #@! TF.SameCoordinates,Original*
G04 #@! TF.FileFunction,Soldermask,Top*
G04 #@! TF.FilePolarity,Negative*
%FSLAX46Y46*%
G04 Gerber Fmt 4.6, Leading zero omitted, Abs format (unit mm)*
G04 Created by KiCad (PCBNEW (6.0.7)) date 2023-05-03 18:52:43*
%MOMM*%
%LPD*%
G01*
G04 APERTURE LIST*
G04 Aperture macros list*
%AMRoundRect*
0 Rectangle with rounded corners*
0 $1 Rounding radius*
0 $2 $3 $4 $5 $6 $7 $8 $9 X,Y pos of 4 corners*
0 Add a 4 corners polygon primitive as box body*
4,1,4,$2,$3,$4,$5,$6,$7,$8,$9,$2,$3,0*
0 Add four circle primitives for the rounded corners*
1,1,$1+$1,$2,$3*
1,1,$1+$1,$4,$5*
1,1,$1+$1,$6,$7*
1,1,$1+$1,$8,$9*
0 Add four rect primitives between the rounded corners*
20,1,$1+$1,$2,$3,$4,$5,0*
20,1,$1+$1,$4,$5,$6,$7,0*
20,1,$1+$1,$6,$7,$8,$9,0*
20,1,$1+$1,$8,$9,$2,$3,0*%
G04 Aperture macros list end*
%ADD10C,3.200000*%
%ADD11R,1.750000X1.750000*%
%ADD12C,1.750000*%
%ADD13R,3.500000X3.500000*%
%ADD14RoundRect,0.750000X-1.000000X0.750000X-1.000000X-0.750000X1.000000X-0.750000X1.000000X0.750000X0*%
%ADD15RoundRect,0.875000X-0.875000X0.875000X-0.875000X-0.875000X0.875000X-0.875000X0.875000X0.875000X0*%
%ADD16C,1.800000*%
%ADD17R,1.300000X1.300000*%
%ADD18C,1.300000*%
%ADD19R,2.540000X2.540000*%
%ADD20C,2.540000*%
%ADD21RoundRect,0.250000X-0.600000X-0.750000X0.600000X-0.750000X0.600000X0.750000X-0.600000X0.750000X0*%
%ADD22O,1.700000X2.000000*%
%ADD23R,1.800000X1.800000*%
%ADD24O,1.800000X1.800000*%
%ADD25R,1.560000X1.560000*%
%ADD26C,1.560000*%
%ADD27C,2.000000*%
%ADD28RoundRect,0.250000X0.750000X-0.600000X0.750000X0.600000X-0.750000X0.600000X-0.750000X-0.600000X0*%
%ADD29O,2.000000X1.700000*%
%ADD30RoundRect,0.250000X-0.750000X0.600000X-0.750000X-0.600000X0.750000X-0.600000X0.750000X0.600000X0*%
G04 APERTURE END LIST*
D10*
X51000000Y-34500000D03*
D11*
X51500000Y-44500000D03*
D12*
X51500000Y-47000000D03*
X51500000Y-49500000D03*
X51500000Y-52000000D03*
D11*
X51500000Y-59550000D03*
D12*
X51500000Y-62050000D03*
X51500000Y-64550000D03*
X51500000Y-67050000D03*
D11*
X51500000Y-74500000D03*
D12*
X51500000Y-77000000D03*
X51500000Y-79500000D03*
X51500000Y-82000000D03*
D11*
X51500000Y-89500000D03*
D12*
X51500000Y-92000000D03*
X51500000Y-94500000D03*
X51500000Y-97000000D03*
D11*
X51500000Y-104300000D03*
D12*
X51500000Y-106800000D03*
X51500000Y-109300000D03*
X51500000Y-111800000D03*
D11*
X63000000Y-136000000D03*
D12*
X65500000Y-136000000D03*
X68000000Y-136000000D03*
X70500000Y-136000000D03*
D11*
X122500000Y-82000000D03*
D12*
X122500000Y-79500000D03*
X122500000Y-77000000D03*
X122500000Y-74500000D03*
D11*
X122500000Y-97000000D03*
D12*
X122500000Y-94500000D03*
X122500000Y-92000000D03*
X122500000Y-89500000D03*
D11*
X122500000Y-127000000D03*
D12*
X122500000Y-124500000D03*
X122500000Y-122000000D03*
X122500000Y-119500000D03*
D11*
X103000000Y-136000000D03*
D12*
X105500000Y-136000000D03*
X108000000Y-136000000D03*
X110500000Y-136000000D03*
D11*
X122500000Y-112000000D03*
D12*
X122500000Y-109500000D03*
X122500000Y-107000000D03*
X122500000Y-104500000D03*
D11*
X122500000Y-52000000D03*
D12*
X122500000Y-49500000D03*
X122500000Y-47000000D03*
X122500000Y-44500000D03*
D11*
X122475000Y-67000000D03*
D12*
X122475000Y-64500000D03*
X122475000Y-62000000D03*
X122475000Y-59500000D03*
D11*
X51525000Y-119050000D03*
D12*
X51525000Y-121550000D03*
X51525000Y-124050000D03*
X51525000Y-126550000D03*
D13*
X114457500Y-45000000D03*
D14*
X114457500Y-39000000D03*
D15*
X109757500Y-42000000D03*
D16*
X78500000Y-96500000D03*
X78500000Y-91500000D03*
D17*
X91000000Y-107621220D03*
D18*
X91000000Y-102621220D03*
D17*
X91000000Y-92000000D03*
D18*
X91000000Y-95800000D03*
D19*
X78500000Y-102380000D03*
D20*
X78500000Y-117620000D03*
D21*
X91000000Y-136000000D03*
D22*
X93500000Y-136000000D03*
D21*
X79750000Y-136000000D03*
D22*
X82250000Y-136000000D03*
D23*
X94500000Y-113471220D03*
D24*
X92800000Y-117171220D03*
X91100000Y-113471220D03*
X89400000Y-117171220D03*
X87700000Y-113471220D03*
D25*
X97500000Y-79500000D03*
D26*
X97500000Y-76960000D03*
X97500000Y-74420000D03*
X97500000Y-71880000D03*
X97500000Y-69340000D03*
X97500000Y-66800000D03*
X97500000Y-64260000D03*
X97500000Y-61720000D03*
X97500000Y-59180000D03*
X97500000Y-56640000D03*
X97500000Y-54100000D03*
X97500000Y-51560000D03*
X97500000Y-49020000D03*
X97500000Y-46480000D03*
X97500000Y-43940000D03*
X97500000Y-41400000D03*
X97500000Y-38860000D03*
X97500000Y-36320000D03*
X97500000Y-33780000D03*
X72100000Y-79500000D03*
X72100000Y-76960000D03*
X72100000Y-74420000D03*
X72100000Y-71880000D03*
X72100000Y-69340000D03*
X72100000Y-66800000D03*
X72100000Y-64260000D03*
X72100000Y-61720000D03*
X72100000Y-59180000D03*
X72100000Y-56640000D03*
X72100000Y-54100000D03*
X72100000Y-51560000D03*
X72100000Y-49020000D03*
X72100000Y-46480000D03*
X72100000Y-43940000D03*
X72100000Y-41400000D03*
X72100000Y-38860000D03*
X72100000Y-36320000D03*
X72100000Y-33780000D03*
D23*
X68000000Y-36275000D03*
D16*
X68000000Y-33735000D03*
D27*
X68000000Y-40500000D03*
X59000000Y-40500000D03*
D28*
X112475000Y-92000000D03*
D29*
X112475000Y-89500000D03*
D30*
X61500000Y-64500000D03*
D29*
X61500000Y-67000000D03*
D30*
X61500000Y-94500000D03*
D29*
X61500000Y-97000000D03*
D28*
X112500000Y-77000000D03*
D29*
X112500000Y-74500000D03*
D21*
X103000000Y-125500000D03*
D22*
X105500000Y-125500000D03*
D28*
X112500000Y-122000000D03*
D29*
X112500000Y-119500000D03*
D10*
X51000000Y-136500000D03*
X123000000Y-136500000D03*
D28*
X112475000Y-62000000D03*
D29*
X112475000Y-59500000D03*
D30*
X61500000Y-49500000D03*
D29*
X61500000Y-52000000D03*
D28*
X112500000Y-52750000D03*
D29*
X112500000Y-50250000D03*
D10*
X123000000Y-34500000D03*
D28*
X103000000Y-37500000D03*
D29*
X103000000Y-35000000D03*
D30*
X61500000Y-79500000D03*
D29*
X61500000Y-82000000D03*
D21*
X68000000Y-125500000D03*
D22*
X70500000Y-125500000D03*
D28*
X112500000Y-107000000D03*
D29*
X112500000Y-104500000D03*
D30*
X61500000Y-124000000D03*
D29*
X61500000Y-126500000D03*
D30*
X61500000Y-109500000D03*
D29*
X61500000Y-112000000D03*
M02*
