%TF.GenerationSoftware,KiCad,Pcbnew,(6.0.7)*%
%TF.CreationDate,2023-05-03T18:50:36+01:00*%
%TF.ProjectId,beehive,62656568-6976-4652-9e6b-696361645f70,rev?*%
%TF.SameCoordinates,Original*%
%TF.FileFunction,Drillmap*%
%TF.FilePolarity,Positive*%
%FSLAX45Y45*%
G04 Gerber Fmt 4.5, Leading zero omitted, Abs format (unit mm)*
G04 Created by KiCad (PCBNEW (6.0.7)) date 2023-05-03 18:50:36*
%MOMM*%
%LPD*%
G01*
G04 APERTURE LIST*
%ADD10C,0.100000*%
%ADD11C,0.150000*%
%ADD12C,0.200000*%
%ADD13C,0.080000*%
%ADD14C,0.080010*%
%ADD15C,0.090000*%
%ADD16C,0.104000*%
%ADD17C,0.110000*%
%ADD18C,0.150114*%
G04 APERTURE END LIST*
D10*
X12700000Y-14050000D02*
X4700000Y-14050000D01*
D11*
X4700000Y-3050000D02*
X4700000Y-14050000D01*
X4700000Y-3050000D02*
X12700000Y-3050000D01*
X12700000Y-3050000D02*
X12700000Y-14050000D01*
D12*
D13*
X9060000Y-9160000D02*
X9140000Y-9240000D01*
X9140000Y-9160000D02*
X9060000Y-9240000D01*
X9060000Y-9540000D02*
X9140000Y-9620000D01*
X9140000Y-9540000D02*
X9060000Y-9620000D01*
X9060000Y-10222122D02*
X9140000Y-10302122D01*
X9140000Y-10222122D02*
X9060000Y-10302122D01*
X9060000Y-10722122D02*
X9140000Y-10802122D01*
X9140000Y-10722122D02*
X9060000Y-10802122D01*
D14*
X7890005Y-9150000D02*
G75*
G03*
X7890005Y-9150000I-40005J0D01*
G01*
X7890005Y-9650000D02*
G75*
G03*
X7890005Y-9650000I-40005J0D01*
G01*
D15*
X6800000Y-3328500D02*
X6800000Y-3418500D01*
X6755000Y-3373500D02*
X6845000Y-3373500D01*
X6800000Y-3582500D02*
X6800000Y-3672500D01*
X6755000Y-3627500D02*
X6845000Y-3627500D01*
D10*
X5185356Y-4485356D02*
X5185356Y-4414644D01*
X5114644Y-4414644D01*
X5114644Y-4485356D01*
X5185356Y-4485356D01*
X5185356Y-4735356D02*
X5185356Y-4664644D01*
X5114644Y-4664644D01*
X5114644Y-4735356D01*
X5185356Y-4735356D01*
X5185356Y-4985356D02*
X5185356Y-4914644D01*
X5114644Y-4914644D01*
X5114644Y-4985356D01*
X5185356Y-4985356D01*
X5185356Y-5235356D02*
X5185356Y-5164644D01*
X5114644Y-5164644D01*
X5114644Y-5235356D01*
X5185356Y-5235356D01*
X5185356Y-5990356D02*
X5185356Y-5919644D01*
X5114644Y-5919644D01*
X5114644Y-5990356D01*
X5185356Y-5990356D01*
X5185356Y-6240356D02*
X5185356Y-6169644D01*
X5114644Y-6169644D01*
X5114644Y-6240356D01*
X5185356Y-6240356D01*
X5185356Y-6490356D02*
X5185356Y-6419644D01*
X5114644Y-6419644D01*
X5114644Y-6490356D01*
X5185356Y-6490356D01*
X5185356Y-6740356D02*
X5185356Y-6669644D01*
X5114644Y-6669644D01*
X5114644Y-6740356D01*
X5185356Y-6740356D01*
X5185356Y-7485356D02*
X5185356Y-7414644D01*
X5114644Y-7414644D01*
X5114644Y-7485356D01*
X5185356Y-7485356D01*
X5185356Y-7735356D02*
X5185356Y-7664644D01*
X5114644Y-7664644D01*
X5114644Y-7735356D01*
X5185356Y-7735356D01*
X5185356Y-7985356D02*
X5185356Y-7914644D01*
X5114644Y-7914644D01*
X5114644Y-7985356D01*
X5185356Y-7985356D01*
X5185356Y-8235356D02*
X5185356Y-8164644D01*
X5114644Y-8164644D01*
X5114644Y-8235356D01*
X5185356Y-8235356D01*
X5185356Y-8985356D02*
X5185356Y-8914644D01*
X5114644Y-8914644D01*
X5114644Y-8985356D01*
X5185356Y-8985356D01*
X5185356Y-9235356D02*
X5185356Y-9164644D01*
X5114644Y-9164644D01*
X5114644Y-9235356D01*
X5185356Y-9235356D01*
X5185356Y-9485356D02*
X5185356Y-9414644D01*
X5114644Y-9414644D01*
X5114644Y-9485356D01*
X5185356Y-9485356D01*
X5185356Y-9735356D02*
X5185356Y-9664644D01*
X5114644Y-9664644D01*
X5114644Y-9735356D01*
X5185356Y-9735356D01*
X5185356Y-10465356D02*
X5185356Y-10394644D01*
X5114644Y-10394644D01*
X5114644Y-10465356D01*
X5185356Y-10465356D01*
X5185356Y-10715356D02*
X5185356Y-10644644D01*
X5114644Y-10644644D01*
X5114644Y-10715356D01*
X5185356Y-10715356D01*
X5185356Y-10965356D02*
X5185356Y-10894644D01*
X5114644Y-10894644D01*
X5114644Y-10965356D01*
X5185356Y-10965356D01*
X5185356Y-11215356D02*
X5185356Y-11144644D01*
X5114644Y-11144644D01*
X5114644Y-11215356D01*
X5185356Y-11215356D01*
X5187856Y-11940356D02*
X5187856Y-11869644D01*
X5117144Y-11869644D01*
X5117144Y-11940356D01*
X5187856Y-11940356D01*
X5187856Y-12190356D02*
X5187856Y-12119644D01*
X5117144Y-12119644D01*
X5117144Y-12190356D01*
X5187856Y-12190356D01*
X5187856Y-12440356D02*
X5187856Y-12369644D01*
X5117144Y-12369644D01*
X5117144Y-12440356D01*
X5187856Y-12440356D01*
X5187856Y-12690356D02*
X5187856Y-12619644D01*
X5117144Y-12619644D01*
X5117144Y-12690356D01*
X5187856Y-12690356D01*
X5935356Y-4085356D02*
X5935356Y-4014644D01*
X5864644Y-4014644D01*
X5864644Y-4085356D01*
X5935356Y-4085356D01*
X6185356Y-4985356D02*
X6185356Y-4914644D01*
X6114644Y-4914644D01*
X6114644Y-4985356D01*
X6185356Y-4985356D01*
X6185356Y-5235356D02*
X6185356Y-5164644D01*
X6114644Y-5164644D01*
X6114644Y-5235356D01*
X6185356Y-5235356D01*
X6185356Y-6485356D02*
X6185356Y-6414644D01*
X6114644Y-6414644D01*
X6114644Y-6485356D01*
X6185356Y-6485356D01*
X6185356Y-6735356D02*
X6185356Y-6664644D01*
X6114644Y-6664644D01*
X6114644Y-6735356D01*
X6185356Y-6735356D01*
X6185356Y-7985356D02*
X6185356Y-7914644D01*
X6114644Y-7914644D01*
X6114644Y-7985356D01*
X6185356Y-7985356D01*
X6185356Y-8235356D02*
X6185356Y-8164644D01*
X6114644Y-8164644D01*
X6114644Y-8235356D01*
X6185356Y-8235356D01*
X6185356Y-9485356D02*
X6185356Y-9414644D01*
X6114644Y-9414644D01*
X6114644Y-9485356D01*
X6185356Y-9485356D01*
X6185356Y-9735356D02*
X6185356Y-9664644D01*
X6114644Y-9664644D01*
X6114644Y-9735356D01*
X6185356Y-9735356D01*
X6185356Y-10985356D02*
X6185356Y-10914644D01*
X6114644Y-10914644D01*
X6114644Y-10985356D01*
X6185356Y-10985356D01*
X6185356Y-11235356D02*
X6185356Y-11164644D01*
X6114644Y-11164644D01*
X6114644Y-11235356D01*
X6185356Y-11235356D01*
X6185356Y-12435356D02*
X6185356Y-12364644D01*
X6114644Y-12364644D01*
X6114644Y-12435356D01*
X6185356Y-12435356D01*
X6185356Y-12685356D02*
X6185356Y-12614644D01*
X6114644Y-12614644D01*
X6114644Y-12685356D01*
X6185356Y-12685356D01*
X6335356Y-13635356D02*
X6335356Y-13564644D01*
X6264644Y-13564644D01*
X6264644Y-13635356D01*
X6335356Y-13635356D01*
X6585356Y-13635356D02*
X6585356Y-13564644D01*
X6514644Y-13564644D01*
X6514644Y-13635356D01*
X6585356Y-13635356D01*
X6835356Y-4085356D02*
X6835356Y-4014644D01*
X6764644Y-4014644D01*
X6764644Y-4085356D01*
X6835356Y-4085356D01*
X6835356Y-12585356D02*
X6835356Y-12514644D01*
X6764644Y-12514644D01*
X6764644Y-12585356D01*
X6835356Y-12585356D01*
X6835356Y-13635356D02*
X6835356Y-13564644D01*
X6764644Y-13564644D01*
X6764644Y-13635356D01*
X6835356Y-13635356D01*
X7085356Y-12585356D02*
X7085356Y-12514644D01*
X7014644Y-12514644D01*
X7014644Y-12585356D01*
X7085356Y-12585356D01*
X7085356Y-13635356D02*
X7085356Y-13564644D01*
X7014644Y-13564644D01*
X7014644Y-13635356D01*
X7085356Y-13635356D01*
X8010356Y-13635356D02*
X8010356Y-13564644D01*
X7939644Y-13564644D01*
X7939644Y-13635356D01*
X8010356Y-13635356D01*
X8260356Y-13635356D02*
X8260356Y-13564644D01*
X8189644Y-13564644D01*
X8189644Y-13635356D01*
X8260356Y-13635356D01*
X9135356Y-13635356D02*
X9135356Y-13564644D01*
X9064644Y-13564644D01*
X9064644Y-13635356D01*
X9135356Y-13635356D01*
X9385356Y-13635356D02*
X9385356Y-13564644D01*
X9314644Y-13564644D01*
X9314644Y-13635356D01*
X9385356Y-13635356D01*
X10211106Y-3785356D02*
X10211106Y-3714644D01*
X10140394Y-3714644D01*
X10140394Y-3785356D01*
X10211106Y-3785356D01*
D12*
X10125750Y-3650000D02*
X10125750Y-3850000D01*
X10225750Y-3650000D02*
X10225750Y-3850000D01*
X10125750Y-3850000D02*
G75*
G03*
X10225750Y-3850000I50000J0D01*
G01*
X10225750Y-3650000D02*
G75*
G03*
X10125750Y-3650000I-50000J0D01*
G01*
D10*
X10335356Y-12585356D02*
X10335356Y-12514644D01*
X10264644Y-12514644D01*
X10264644Y-12585356D01*
X10335356Y-12585356D01*
X10335356Y-13635356D02*
X10335356Y-13564644D01*
X10264644Y-13564644D01*
X10264644Y-13635356D01*
X10335356Y-13635356D01*
X10585356Y-12585356D02*
X10585356Y-12514644D01*
X10514644Y-12514644D01*
X10514644Y-12585356D01*
X10585356Y-12585356D01*
X10585356Y-13635356D02*
X10585356Y-13564644D01*
X10514644Y-13564644D01*
X10514644Y-13635356D01*
X10585356Y-13635356D01*
X10681106Y-3485356D02*
X10681106Y-3414644D01*
X10610394Y-3414644D01*
X10610394Y-3485356D01*
X10681106Y-3485356D01*
D12*
X10745750Y-3400000D02*
X10545750Y-3400000D01*
X10745750Y-3500000D02*
X10545750Y-3500000D01*
X10545750Y-3400000D02*
G75*
G03*
X10545750Y-3500000I0J-50000D01*
G01*
X10745750Y-3500000D02*
G75*
G03*
X10745750Y-3400000I0J50000D01*
G01*
D10*
X10681106Y-4085356D02*
X10681106Y-4014644D01*
X10610394Y-4014644D01*
X10610394Y-4085356D01*
X10681106Y-4085356D01*
D12*
X10745750Y-4000000D02*
X10545750Y-4000000D01*
X10745750Y-4100000D02*
X10545750Y-4100000D01*
X10545750Y-4000000D02*
G75*
G03*
X10545750Y-4100000I0J-50000D01*
G01*
X10745750Y-4100000D02*
G75*
G03*
X10745750Y-4000000I0J50000D01*
G01*
D10*
X10835356Y-13635356D02*
X10835356Y-13564644D01*
X10764644Y-13564644D01*
X10764644Y-13635356D01*
X10835356Y-13635356D01*
X11085356Y-13635356D02*
X11085356Y-13564644D01*
X11014644Y-13564644D01*
X11014644Y-13635356D01*
X11085356Y-13635356D01*
X11282856Y-5985356D02*
X11282856Y-5914644D01*
X11212144Y-5914644D01*
X11212144Y-5985356D01*
X11282856Y-5985356D01*
X11282856Y-6235356D02*
X11282856Y-6164644D01*
X11212144Y-6164644D01*
X11212144Y-6235356D01*
X11282856Y-6235356D01*
X11282856Y-8985356D02*
X11282856Y-8914644D01*
X11212144Y-8914644D01*
X11212144Y-8985356D01*
X11282856Y-8985356D01*
X11282856Y-9235356D02*
X11282856Y-9164644D01*
X11212144Y-9164644D01*
X11212144Y-9235356D01*
X11282856Y-9235356D01*
X11285356Y-4535356D02*
X11285356Y-4464644D01*
X11214644Y-4464644D01*
X11214644Y-4535356D01*
X11285356Y-4535356D01*
X11285356Y-4785356D02*
X11285356Y-4714644D01*
X11214644Y-4714644D01*
X11214644Y-4785356D01*
X11285356Y-4785356D01*
X11285356Y-7485356D02*
X11285356Y-7414644D01*
X11214644Y-7414644D01*
X11214644Y-7485356D01*
X11285356Y-7485356D01*
X11285356Y-7735356D02*
X11285356Y-7664644D01*
X11214644Y-7664644D01*
X11214644Y-7735356D01*
X11285356Y-7735356D01*
X11285356Y-10485356D02*
X11285356Y-10414644D01*
X11214644Y-10414644D01*
X11214644Y-10485356D01*
X11285356Y-10485356D01*
X11285356Y-10735356D02*
X11285356Y-10664644D01*
X11214644Y-10664644D01*
X11214644Y-10735356D01*
X11285356Y-10735356D01*
X11285356Y-11985356D02*
X11285356Y-11914644D01*
X11214644Y-11914644D01*
X11214644Y-11985356D01*
X11285356Y-11985356D01*
X11285356Y-12235356D02*
X11285356Y-12164644D01*
X11214644Y-12164644D01*
X11214644Y-12235356D01*
X11285356Y-12235356D01*
X11532856Y-3460356D02*
X11532856Y-3389644D01*
X11462144Y-3389644D01*
X11462144Y-3460356D01*
X11532856Y-3460356D01*
X11532856Y-3710356D02*
X11532856Y-3639644D01*
X11462144Y-3639644D01*
X11462144Y-3710356D01*
X11532856Y-3710356D01*
X12282856Y-5985356D02*
X12282856Y-5914644D01*
X12212144Y-5914644D01*
X12212144Y-5985356D01*
X12282856Y-5985356D01*
X12282856Y-6235356D02*
X12282856Y-6164644D01*
X12212144Y-6164644D01*
X12212144Y-6235356D01*
X12282856Y-6235356D01*
X12282856Y-6485356D02*
X12282856Y-6414644D01*
X12212144Y-6414644D01*
X12212144Y-6485356D01*
X12282856Y-6485356D01*
X12282856Y-6735356D02*
X12282856Y-6664644D01*
X12212144Y-6664644D01*
X12212144Y-6735356D01*
X12282856Y-6735356D01*
X12285356Y-4485356D02*
X12285356Y-4414644D01*
X12214644Y-4414644D01*
X12214644Y-4485356D01*
X12285356Y-4485356D01*
X12285356Y-4735356D02*
X12285356Y-4664644D01*
X12214644Y-4664644D01*
X12214644Y-4735356D01*
X12285356Y-4735356D01*
X12285356Y-4985356D02*
X12285356Y-4914644D01*
X12214644Y-4914644D01*
X12214644Y-4985356D01*
X12285356Y-4985356D01*
X12285356Y-5235356D02*
X12285356Y-5164644D01*
X12214644Y-5164644D01*
X12214644Y-5235356D01*
X12285356Y-5235356D01*
X12285356Y-7485356D02*
X12285356Y-7414644D01*
X12214644Y-7414644D01*
X12214644Y-7485356D01*
X12285356Y-7485356D01*
X12285356Y-7735356D02*
X12285356Y-7664644D01*
X12214644Y-7664644D01*
X12214644Y-7735356D01*
X12285356Y-7735356D01*
X12285356Y-7985356D02*
X12285356Y-7914644D01*
X12214644Y-7914644D01*
X12214644Y-7985356D01*
X12285356Y-7985356D01*
X12285356Y-8235356D02*
X12285356Y-8164644D01*
X12214644Y-8164644D01*
X12214644Y-8235356D01*
X12285356Y-8235356D01*
X12285356Y-8985356D02*
X12285356Y-8914644D01*
X12214644Y-8914644D01*
X12214644Y-8985356D01*
X12285356Y-8985356D01*
X12285356Y-9235356D02*
X12285356Y-9164644D01*
X12214644Y-9164644D01*
X12214644Y-9235356D01*
X12285356Y-9235356D01*
X12285356Y-9485356D02*
X12285356Y-9414644D01*
X12214644Y-9414644D01*
X12214644Y-9485356D01*
X12285356Y-9485356D01*
X12285356Y-9735356D02*
X12285356Y-9664644D01*
X12214644Y-9664644D01*
X12214644Y-9735356D01*
X12285356Y-9735356D01*
X12285356Y-10485356D02*
X12285356Y-10414644D01*
X12214644Y-10414644D01*
X12214644Y-10485356D01*
X12285356Y-10485356D01*
X12285356Y-10735356D02*
X12285356Y-10664644D01*
X12214644Y-10664644D01*
X12214644Y-10735356D01*
X12285356Y-10735356D01*
X12285356Y-10985356D02*
X12285356Y-10914644D01*
X12214644Y-10914644D01*
X12214644Y-10985356D01*
X12285356Y-10985356D01*
X12285356Y-11235356D02*
X12285356Y-11164644D01*
X12214644Y-11164644D01*
X12214644Y-11235356D01*
X12285356Y-11235356D01*
X12285356Y-11985356D02*
X12285356Y-11914644D01*
X12214644Y-11914644D01*
X12214644Y-11985356D01*
X12285356Y-11985356D01*
X12285356Y-12235356D02*
X12285356Y-12164644D01*
X12214644Y-12164644D01*
X12214644Y-12235356D01*
X12285356Y-12235356D01*
X12285356Y-12485356D02*
X12285356Y-12414644D01*
X12214644Y-12414644D01*
X12214644Y-12485356D01*
X12285356Y-12485356D01*
X12285356Y-12735356D02*
X12285356Y-12664644D01*
X12214644Y-12664644D01*
X12214644Y-12735356D01*
X12285356Y-12735356D01*
D16*
X7210000Y-3430000D02*
X7262000Y-3378000D01*
X7210000Y-3326000D01*
X7158000Y-3378000D01*
X7210000Y-3430000D01*
X7210000Y-3684000D02*
X7262000Y-3632000D01*
X7210000Y-3580000D01*
X7158000Y-3632000D01*
X7210000Y-3684000D01*
X7210000Y-3938000D02*
X7262000Y-3886000D01*
X7210000Y-3834000D01*
X7158000Y-3886000D01*
X7210000Y-3938000D01*
X7210000Y-4192000D02*
X7262000Y-4140000D01*
X7210000Y-4088000D01*
X7158000Y-4140000D01*
X7210000Y-4192000D01*
X7210000Y-4446000D02*
X7262000Y-4394000D01*
X7210000Y-4342000D01*
X7158000Y-4394000D01*
X7210000Y-4446000D01*
X7210000Y-4700000D02*
X7262000Y-4648000D01*
X7210000Y-4596000D01*
X7158000Y-4648000D01*
X7210000Y-4700000D01*
X7210000Y-4954000D02*
X7262000Y-4902000D01*
X7210000Y-4850000D01*
X7158000Y-4902000D01*
X7210000Y-4954000D01*
X7210000Y-5208000D02*
X7262000Y-5156000D01*
X7210000Y-5104000D01*
X7158000Y-5156000D01*
X7210000Y-5208000D01*
X7210000Y-5462000D02*
X7262000Y-5410000D01*
X7210000Y-5358000D01*
X7158000Y-5410000D01*
X7210000Y-5462000D01*
X7210000Y-5716000D02*
X7262000Y-5664000D01*
X7210000Y-5612000D01*
X7158000Y-5664000D01*
X7210000Y-5716000D01*
X7210000Y-5970000D02*
X7262000Y-5918000D01*
X7210000Y-5866000D01*
X7158000Y-5918000D01*
X7210000Y-5970000D01*
X7210000Y-6224000D02*
X7262000Y-6172000D01*
X7210000Y-6120000D01*
X7158000Y-6172000D01*
X7210000Y-6224000D01*
X7210000Y-6478000D02*
X7262000Y-6426000D01*
X7210000Y-6374000D01*
X7158000Y-6426000D01*
X7210000Y-6478000D01*
X7210000Y-6732000D02*
X7262000Y-6680000D01*
X7210000Y-6628000D01*
X7158000Y-6680000D01*
X7210000Y-6732000D01*
X7210000Y-6986000D02*
X7262000Y-6934000D01*
X7210000Y-6882000D01*
X7158000Y-6934000D01*
X7210000Y-6986000D01*
X7210000Y-7240000D02*
X7262000Y-7188000D01*
X7210000Y-7136000D01*
X7158000Y-7188000D01*
X7210000Y-7240000D01*
X7210000Y-7494000D02*
X7262000Y-7442000D01*
X7210000Y-7390000D01*
X7158000Y-7442000D01*
X7210000Y-7494000D01*
X7210000Y-7748000D02*
X7262000Y-7696000D01*
X7210000Y-7644000D01*
X7158000Y-7696000D01*
X7210000Y-7748000D01*
X7210000Y-8002000D02*
X7262000Y-7950000D01*
X7210000Y-7898000D01*
X7158000Y-7950000D01*
X7210000Y-8002000D01*
X9750000Y-3430000D02*
X9802000Y-3378000D01*
X9750000Y-3326000D01*
X9698000Y-3378000D01*
X9750000Y-3430000D01*
X9750000Y-3684000D02*
X9802000Y-3632000D01*
X9750000Y-3580000D01*
X9698000Y-3632000D01*
X9750000Y-3684000D01*
X9750000Y-3938000D02*
X9802000Y-3886000D01*
X9750000Y-3834000D01*
X9698000Y-3886000D01*
X9750000Y-3938000D01*
X9750000Y-4192000D02*
X9802000Y-4140000D01*
X9750000Y-4088000D01*
X9698000Y-4140000D01*
X9750000Y-4192000D01*
X9750000Y-4446000D02*
X9802000Y-4394000D01*
X9750000Y-4342000D01*
X9698000Y-4394000D01*
X9750000Y-4446000D01*
X9750000Y-4700000D02*
X9802000Y-4648000D01*
X9750000Y-4596000D01*
X9698000Y-4648000D01*
X9750000Y-4700000D01*
X9750000Y-4954000D02*
X9802000Y-4902000D01*
X9750000Y-4850000D01*
X9698000Y-4902000D01*
X9750000Y-4954000D01*
X9750000Y-5208000D02*
X9802000Y-5156000D01*
X9750000Y-5104000D01*
X9698000Y-5156000D01*
X9750000Y-5208000D01*
X9750000Y-5462000D02*
X9802000Y-5410000D01*
X9750000Y-5358000D01*
X9698000Y-5410000D01*
X9750000Y-5462000D01*
X9750000Y-5716000D02*
X9802000Y-5664000D01*
X9750000Y-5612000D01*
X9698000Y-5664000D01*
X9750000Y-5716000D01*
X9750000Y-5970000D02*
X9802000Y-5918000D01*
X9750000Y-5866000D01*
X9698000Y-5918000D01*
X9750000Y-5970000D01*
X9750000Y-6224000D02*
X9802000Y-6172000D01*
X9750000Y-6120000D01*
X9698000Y-6172000D01*
X9750000Y-6224000D01*
X9750000Y-6478000D02*
X9802000Y-6426000D01*
X9750000Y-6374000D01*
X9698000Y-6426000D01*
X9750000Y-6478000D01*
X9750000Y-6732000D02*
X9802000Y-6680000D01*
X9750000Y-6628000D01*
X9698000Y-6680000D01*
X9750000Y-6732000D01*
X9750000Y-6986000D02*
X9802000Y-6934000D01*
X9750000Y-6882000D01*
X9698000Y-6934000D01*
X9750000Y-6986000D01*
X9750000Y-7240000D02*
X9802000Y-7188000D01*
X9750000Y-7136000D01*
X9698000Y-7188000D01*
X9750000Y-7240000D01*
X9750000Y-7494000D02*
X9802000Y-7442000D01*
X9750000Y-7390000D01*
X9698000Y-7442000D01*
X9750000Y-7494000D01*
X9750000Y-7748000D02*
X9802000Y-7696000D01*
X9750000Y-7644000D01*
X9698000Y-7696000D01*
X9750000Y-7748000D01*
X9750000Y-8002000D02*
X9802000Y-7950000D01*
X9750000Y-7898000D01*
X9698000Y-7950000D01*
X9750000Y-8002000D01*
D17*
X8715000Y-11292122D02*
X8825000Y-11402122D01*
X8825000Y-11292122D02*
X8715000Y-11402122D01*
X8825000Y-11347122D02*
G75*
G03*
X8825000Y-11347122I-55000J0D01*
G01*
X8885000Y-11662122D02*
X8995000Y-11772122D01*
X8995000Y-11662122D02*
X8885000Y-11772122D01*
X8995000Y-11717122D02*
G75*
G03*
X8995000Y-11717122I-55000J0D01*
G01*
X9055000Y-11292122D02*
X9165000Y-11402122D01*
X9165000Y-11292122D02*
X9055000Y-11402122D01*
X9165000Y-11347122D02*
G75*
G03*
X9165000Y-11347122I-55000J0D01*
G01*
X9225000Y-11662122D02*
X9335000Y-11772122D01*
X9335000Y-11662122D02*
X9225000Y-11772122D01*
X9335000Y-11717122D02*
G75*
G03*
X9335000Y-11717122I-55000J0D01*
G01*
X9395000Y-11292122D02*
X9505000Y-11402122D01*
X9505000Y-11292122D02*
X9395000Y-11402122D01*
X9505000Y-11347122D02*
G75*
G03*
X9505000Y-11347122I-55000J0D01*
G01*
D18*
X7774943Y-10162943D02*
X7925057Y-10313057D01*
X7925057Y-10162943D02*
X7774943Y-10313057D01*
X7850000Y-10162943D02*
X7850000Y-10313057D01*
X7774943Y-10238000D02*
X7925057Y-10238000D01*
X7774943Y-11686943D02*
X7925057Y-11837057D01*
X7925057Y-11686943D02*
X7774943Y-11837057D01*
X7850000Y-11686943D02*
X7850000Y-11837057D01*
X7774943Y-11762000D02*
X7925057Y-11762000D01*
D12*
X4950119Y-14367976D02*
X4950119Y-14167976D01*
X4997738Y-14167976D01*
X5026310Y-14177500D01*
X5045357Y-14196548D01*
X5054881Y-14215595D01*
X5064405Y-14253690D01*
X5064405Y-14282262D01*
X5054881Y-14320357D01*
X5045357Y-14339405D01*
X5026310Y-14358452D01*
X4997738Y-14367976D01*
X4950119Y-14367976D01*
X5150119Y-14367976D02*
X5150119Y-14234643D01*
X5150119Y-14272738D02*
X5159643Y-14253690D01*
X5169167Y-14244167D01*
X5188214Y-14234643D01*
X5207262Y-14234643D01*
X5273929Y-14367976D02*
X5273929Y-14234643D01*
X5273929Y-14167976D02*
X5264405Y-14177500D01*
X5273929Y-14187024D01*
X5283452Y-14177500D01*
X5273929Y-14167976D01*
X5273929Y-14187024D01*
X5397738Y-14367976D02*
X5378690Y-14358452D01*
X5369167Y-14339405D01*
X5369167Y-14167976D01*
X5502500Y-14367976D02*
X5483452Y-14358452D01*
X5473929Y-14339405D01*
X5473929Y-14167976D01*
X5731071Y-14367976D02*
X5731071Y-14167976D01*
X5797738Y-14310833D01*
X5864405Y-14167976D01*
X5864405Y-14367976D01*
X6045357Y-14367976D02*
X6045357Y-14263214D01*
X6035833Y-14244167D01*
X6016786Y-14234643D01*
X5978690Y-14234643D01*
X5959643Y-14244167D01*
X6045357Y-14358452D02*
X6026309Y-14367976D01*
X5978690Y-14367976D01*
X5959643Y-14358452D01*
X5950119Y-14339405D01*
X5950119Y-14320357D01*
X5959643Y-14301309D01*
X5978690Y-14291786D01*
X6026309Y-14291786D01*
X6045357Y-14282262D01*
X6140595Y-14234643D02*
X6140595Y-14434643D01*
X6140595Y-14244167D02*
X6159643Y-14234643D01*
X6197738Y-14234643D01*
X6216786Y-14244167D01*
X6226309Y-14253690D01*
X6235833Y-14272738D01*
X6235833Y-14329881D01*
X6226309Y-14348928D01*
X6216786Y-14358452D01*
X6197738Y-14367976D01*
X6159643Y-14367976D01*
X6140595Y-14358452D01*
X6321548Y-14348928D02*
X6331071Y-14358452D01*
X6321548Y-14367976D01*
X6312024Y-14358452D01*
X6321548Y-14348928D01*
X6321548Y-14367976D01*
X6321548Y-14244167D02*
X6331071Y-14253690D01*
X6321548Y-14263214D01*
X6312024Y-14253690D01*
X6321548Y-14244167D01*
X6321548Y-14263214D01*
D13*
X4612500Y-14657500D02*
X4692500Y-14737500D01*
X4692500Y-14657500D02*
X4612500Y-14737500D01*
D12*
X4988214Y-14587976D02*
X5007262Y-14587976D01*
X5026310Y-14597500D01*
X5035833Y-14607024D01*
X5045357Y-14626071D01*
X5054881Y-14664167D01*
X5054881Y-14711786D01*
X5045357Y-14749881D01*
X5035833Y-14768928D01*
X5026310Y-14778452D01*
X5007262Y-14787976D01*
X4988214Y-14787976D01*
X4969167Y-14778452D01*
X4959643Y-14768928D01*
X4950119Y-14749881D01*
X4940595Y-14711786D01*
X4940595Y-14664167D01*
X4950119Y-14626071D01*
X4959643Y-14607024D01*
X4969167Y-14597500D01*
X4988214Y-14587976D01*
X5140595Y-14768928D02*
X5150119Y-14778452D01*
X5140595Y-14787976D01*
X5131071Y-14778452D01*
X5140595Y-14768928D01*
X5140595Y-14787976D01*
X5264405Y-14673690D02*
X5245357Y-14664167D01*
X5235833Y-14654643D01*
X5226310Y-14635595D01*
X5226310Y-14626071D01*
X5235833Y-14607024D01*
X5245357Y-14597500D01*
X5264405Y-14587976D01*
X5302500Y-14587976D01*
X5321548Y-14597500D01*
X5331071Y-14607024D01*
X5340595Y-14626071D01*
X5340595Y-14635595D01*
X5331071Y-14654643D01*
X5321548Y-14664167D01*
X5302500Y-14673690D01*
X5264405Y-14673690D01*
X5245357Y-14683214D01*
X5235833Y-14692738D01*
X5226310Y-14711786D01*
X5226310Y-14749881D01*
X5235833Y-14768928D01*
X5245357Y-14778452D01*
X5264405Y-14787976D01*
X5302500Y-14787976D01*
X5321548Y-14778452D01*
X5331071Y-14768928D01*
X5340595Y-14749881D01*
X5340595Y-14711786D01*
X5331071Y-14692738D01*
X5321548Y-14683214D01*
X5302500Y-14673690D01*
X5464405Y-14587976D02*
X5483452Y-14587976D01*
X5502500Y-14597500D01*
X5512024Y-14607024D01*
X5521548Y-14626071D01*
X5531071Y-14664167D01*
X5531071Y-14711786D01*
X5521548Y-14749881D01*
X5512024Y-14768928D01*
X5502500Y-14778452D01*
X5483452Y-14787976D01*
X5464405Y-14787976D01*
X5445357Y-14778452D01*
X5435833Y-14768928D01*
X5426310Y-14749881D01*
X5416786Y-14711786D01*
X5416786Y-14664167D01*
X5426310Y-14626071D01*
X5435833Y-14607024D01*
X5445357Y-14597500D01*
X5464405Y-14587976D01*
X5654881Y-14587976D02*
X5673928Y-14587976D01*
X5692976Y-14597500D01*
X5702500Y-14607024D01*
X5712024Y-14626071D01*
X5721548Y-14664167D01*
X5721548Y-14711786D01*
X5712024Y-14749881D01*
X5702500Y-14768928D01*
X5692976Y-14778452D01*
X5673928Y-14787976D01*
X5654881Y-14787976D01*
X5635833Y-14778452D01*
X5626309Y-14768928D01*
X5616786Y-14749881D01*
X5607262Y-14711786D01*
X5607262Y-14664167D01*
X5616786Y-14626071D01*
X5626309Y-14607024D01*
X5635833Y-14597500D01*
X5654881Y-14587976D01*
X5807262Y-14787976D02*
X5807262Y-14654643D01*
X5807262Y-14673690D02*
X5816786Y-14664167D01*
X5835833Y-14654643D01*
X5864405Y-14654643D01*
X5883452Y-14664167D01*
X5892976Y-14683214D01*
X5892976Y-14787976D01*
X5892976Y-14683214D02*
X5902500Y-14664167D01*
X5921548Y-14654643D01*
X5950119Y-14654643D01*
X5969167Y-14664167D01*
X5978690Y-14683214D01*
X5978690Y-14787976D01*
X6073928Y-14787976D02*
X6073928Y-14654643D01*
X6073928Y-14673690D02*
X6083452Y-14664167D01*
X6102500Y-14654643D01*
X6131071Y-14654643D01*
X6150119Y-14664167D01*
X6159643Y-14683214D01*
X6159643Y-14787976D01*
X6159643Y-14683214D02*
X6169167Y-14664167D01*
X6188214Y-14654643D01*
X6216786Y-14654643D01*
X6235833Y-14664167D01*
X6245357Y-14683214D01*
X6245357Y-14787976D01*
X6635833Y-14578452D02*
X6464405Y-14835595D01*
X6892976Y-14587976D02*
X6912024Y-14587976D01*
X6931071Y-14597500D01*
X6940595Y-14607024D01*
X6950119Y-14626071D01*
X6959643Y-14664167D01*
X6959643Y-14711786D01*
X6950119Y-14749881D01*
X6940595Y-14768928D01*
X6931071Y-14778452D01*
X6912024Y-14787976D01*
X6892976Y-14787976D01*
X6873928Y-14778452D01*
X6864405Y-14768928D01*
X6854881Y-14749881D01*
X6845357Y-14711786D01*
X6845357Y-14664167D01*
X6854881Y-14626071D01*
X6864405Y-14607024D01*
X6873928Y-14597500D01*
X6892976Y-14587976D01*
X7045357Y-14768928D02*
X7054881Y-14778452D01*
X7045357Y-14787976D01*
X7035833Y-14778452D01*
X7045357Y-14768928D01*
X7045357Y-14787976D01*
X7178690Y-14587976D02*
X7197738Y-14587976D01*
X7216786Y-14597500D01*
X7226309Y-14607024D01*
X7235833Y-14626071D01*
X7245357Y-14664167D01*
X7245357Y-14711786D01*
X7235833Y-14749881D01*
X7226309Y-14768928D01*
X7216786Y-14778452D01*
X7197738Y-14787976D01*
X7178690Y-14787976D01*
X7159643Y-14778452D01*
X7150119Y-14768928D01*
X7140595Y-14749881D01*
X7131071Y-14711786D01*
X7131071Y-14664167D01*
X7140595Y-14626071D01*
X7150119Y-14607024D01*
X7159643Y-14597500D01*
X7178690Y-14587976D01*
X7312024Y-14587976D02*
X7435833Y-14587976D01*
X7369167Y-14664167D01*
X7397738Y-14664167D01*
X7416786Y-14673690D01*
X7426309Y-14683214D01*
X7435833Y-14702262D01*
X7435833Y-14749881D01*
X7426309Y-14768928D01*
X7416786Y-14778452D01*
X7397738Y-14787976D01*
X7340595Y-14787976D01*
X7321548Y-14778452D01*
X7312024Y-14768928D01*
X7626309Y-14787976D02*
X7512024Y-14787976D01*
X7569167Y-14787976D02*
X7569167Y-14587976D01*
X7550119Y-14616548D01*
X7531071Y-14635595D01*
X7512024Y-14645119D01*
X7807262Y-14587976D02*
X7712024Y-14587976D01*
X7702500Y-14683214D01*
X7712024Y-14673690D01*
X7731071Y-14664167D01*
X7778690Y-14664167D01*
X7797738Y-14673690D01*
X7807262Y-14683214D01*
X7816786Y-14702262D01*
X7816786Y-14749881D01*
X7807262Y-14768928D01*
X7797738Y-14778452D01*
X7778690Y-14787976D01*
X7731071Y-14787976D01*
X7712024Y-14778452D01*
X7702500Y-14768928D01*
X7892976Y-14587976D02*
X7892976Y-14626071D01*
X7969167Y-14587976D02*
X7969167Y-14626071D01*
X8264405Y-14864167D02*
X8254881Y-14854643D01*
X8235833Y-14826071D01*
X8226309Y-14807024D01*
X8216786Y-14778452D01*
X8207262Y-14730833D01*
X8207262Y-14692738D01*
X8216786Y-14645119D01*
X8226309Y-14616548D01*
X8235833Y-14597500D01*
X8254881Y-14568928D01*
X8264405Y-14559405D01*
X8426310Y-14654643D02*
X8426310Y-14787976D01*
X8378690Y-14578452D02*
X8331071Y-14721309D01*
X8454881Y-14721309D01*
X8683452Y-14787976D02*
X8683452Y-14587976D01*
X8769167Y-14787976D02*
X8769167Y-14683214D01*
X8759643Y-14664167D01*
X8740595Y-14654643D01*
X8712024Y-14654643D01*
X8692976Y-14664167D01*
X8683452Y-14673690D01*
X8892976Y-14787976D02*
X8873929Y-14778452D01*
X8864405Y-14768928D01*
X8854881Y-14749881D01*
X8854881Y-14692738D01*
X8864405Y-14673690D01*
X8873929Y-14664167D01*
X8892976Y-14654643D01*
X8921548Y-14654643D01*
X8940595Y-14664167D01*
X8950119Y-14673690D01*
X8959643Y-14692738D01*
X8959643Y-14749881D01*
X8950119Y-14768928D01*
X8940595Y-14778452D01*
X8921548Y-14787976D01*
X8892976Y-14787976D01*
X9073929Y-14787976D02*
X9054881Y-14778452D01*
X9045357Y-14759405D01*
X9045357Y-14587976D01*
X9226310Y-14778452D02*
X9207262Y-14787976D01*
X9169167Y-14787976D01*
X9150119Y-14778452D01*
X9140595Y-14759405D01*
X9140595Y-14683214D01*
X9150119Y-14664167D01*
X9169167Y-14654643D01*
X9207262Y-14654643D01*
X9226310Y-14664167D01*
X9235833Y-14683214D01*
X9235833Y-14702262D01*
X9140595Y-14721309D01*
X9312024Y-14778452D02*
X9331071Y-14787976D01*
X9369167Y-14787976D01*
X9388214Y-14778452D01*
X9397738Y-14759405D01*
X9397738Y-14749881D01*
X9388214Y-14730833D01*
X9369167Y-14721309D01*
X9340595Y-14721309D01*
X9321548Y-14711786D01*
X9312024Y-14692738D01*
X9312024Y-14683214D01*
X9321548Y-14664167D01*
X9340595Y-14654643D01*
X9369167Y-14654643D01*
X9388214Y-14664167D01*
X9464405Y-14864167D02*
X9473929Y-14854643D01*
X9492976Y-14826071D01*
X9502500Y-14807024D01*
X9512024Y-14778452D01*
X9521548Y-14730833D01*
X9521548Y-14692738D01*
X9512024Y-14645119D01*
X9502500Y-14616548D01*
X9492976Y-14597500D01*
X9473929Y-14568928D01*
X9464405Y-14559405D01*
D14*
X4692500Y-14961500D02*
G75*
G03*
X4692500Y-14961500I-40005J0D01*
G01*
D12*
X4988214Y-14851976D02*
X5007262Y-14851976D01*
X5026310Y-14861500D01*
X5035833Y-14871024D01*
X5045357Y-14890071D01*
X5054881Y-14928167D01*
X5054881Y-14975786D01*
X5045357Y-15013881D01*
X5035833Y-15032928D01*
X5026310Y-15042452D01*
X5007262Y-15051976D01*
X4988214Y-15051976D01*
X4969167Y-15042452D01*
X4959643Y-15032928D01*
X4950119Y-15013881D01*
X4940595Y-14975786D01*
X4940595Y-14928167D01*
X4950119Y-14890071D01*
X4959643Y-14871024D01*
X4969167Y-14861500D01*
X4988214Y-14851976D01*
X5140595Y-15032928D02*
X5150119Y-15042452D01*
X5140595Y-15051976D01*
X5131071Y-15042452D01*
X5140595Y-15032928D01*
X5140595Y-15051976D01*
X5264405Y-14937690D02*
X5245357Y-14928167D01*
X5235833Y-14918643D01*
X5226310Y-14899595D01*
X5226310Y-14890071D01*
X5235833Y-14871024D01*
X5245357Y-14861500D01*
X5264405Y-14851976D01*
X5302500Y-14851976D01*
X5321548Y-14861500D01*
X5331071Y-14871024D01*
X5340595Y-14890071D01*
X5340595Y-14899595D01*
X5331071Y-14918643D01*
X5321548Y-14928167D01*
X5302500Y-14937690D01*
X5264405Y-14937690D01*
X5245357Y-14947214D01*
X5235833Y-14956738D01*
X5226310Y-14975786D01*
X5226310Y-15013881D01*
X5235833Y-15032928D01*
X5245357Y-15042452D01*
X5264405Y-15051976D01*
X5302500Y-15051976D01*
X5321548Y-15042452D01*
X5331071Y-15032928D01*
X5340595Y-15013881D01*
X5340595Y-14975786D01*
X5331071Y-14956738D01*
X5321548Y-14947214D01*
X5302500Y-14937690D01*
X5464405Y-14851976D02*
X5483452Y-14851976D01*
X5502500Y-14861500D01*
X5512024Y-14871024D01*
X5521548Y-14890071D01*
X5531071Y-14928167D01*
X5531071Y-14975786D01*
X5521548Y-15013881D01*
X5512024Y-15032928D01*
X5502500Y-15042452D01*
X5483452Y-15051976D01*
X5464405Y-15051976D01*
X5445357Y-15042452D01*
X5435833Y-15032928D01*
X5426310Y-15013881D01*
X5416786Y-14975786D01*
X5416786Y-14928167D01*
X5426310Y-14890071D01*
X5435833Y-14871024D01*
X5445357Y-14861500D01*
X5464405Y-14851976D01*
X5654881Y-14851976D02*
X5673928Y-14851976D01*
X5692976Y-14861500D01*
X5702500Y-14871024D01*
X5712024Y-14890071D01*
X5721548Y-14928167D01*
X5721548Y-14975786D01*
X5712024Y-15013881D01*
X5702500Y-15032928D01*
X5692976Y-15042452D01*
X5673928Y-15051976D01*
X5654881Y-15051976D01*
X5635833Y-15042452D01*
X5626309Y-15032928D01*
X5616786Y-15013881D01*
X5607262Y-14975786D01*
X5607262Y-14928167D01*
X5616786Y-14890071D01*
X5626309Y-14871024D01*
X5635833Y-14861500D01*
X5654881Y-14851976D01*
X5807262Y-15051976D02*
X5807262Y-14918643D01*
X5807262Y-14937690D02*
X5816786Y-14928167D01*
X5835833Y-14918643D01*
X5864405Y-14918643D01*
X5883452Y-14928167D01*
X5892976Y-14947214D01*
X5892976Y-15051976D01*
X5892976Y-14947214D02*
X5902500Y-14928167D01*
X5921548Y-14918643D01*
X5950119Y-14918643D01*
X5969167Y-14928167D01*
X5978690Y-14947214D01*
X5978690Y-15051976D01*
X6073928Y-15051976D02*
X6073928Y-14918643D01*
X6073928Y-14937690D02*
X6083452Y-14928167D01*
X6102500Y-14918643D01*
X6131071Y-14918643D01*
X6150119Y-14928167D01*
X6159643Y-14947214D01*
X6159643Y-15051976D01*
X6159643Y-14947214D02*
X6169167Y-14928167D01*
X6188214Y-14918643D01*
X6216786Y-14918643D01*
X6235833Y-14928167D01*
X6245357Y-14947214D01*
X6245357Y-15051976D01*
X6635833Y-14842452D02*
X6464405Y-15099595D01*
X6892976Y-14851976D02*
X6912024Y-14851976D01*
X6931071Y-14861500D01*
X6940595Y-14871024D01*
X6950119Y-14890071D01*
X6959643Y-14928167D01*
X6959643Y-14975786D01*
X6950119Y-15013881D01*
X6940595Y-15032928D01*
X6931071Y-15042452D01*
X6912024Y-15051976D01*
X6892976Y-15051976D01*
X6873928Y-15042452D01*
X6864405Y-15032928D01*
X6854881Y-15013881D01*
X6845357Y-14975786D01*
X6845357Y-14928167D01*
X6854881Y-14890071D01*
X6864405Y-14871024D01*
X6873928Y-14861500D01*
X6892976Y-14851976D01*
X7045357Y-15032928D02*
X7054881Y-15042452D01*
X7045357Y-15051976D01*
X7035833Y-15042452D01*
X7045357Y-15032928D01*
X7045357Y-15051976D01*
X7178690Y-14851976D02*
X7197738Y-14851976D01*
X7216786Y-14861500D01*
X7226309Y-14871024D01*
X7235833Y-14890071D01*
X7245357Y-14928167D01*
X7245357Y-14975786D01*
X7235833Y-15013881D01*
X7226309Y-15032928D01*
X7216786Y-15042452D01*
X7197738Y-15051976D01*
X7178690Y-15051976D01*
X7159643Y-15042452D01*
X7150119Y-15032928D01*
X7140595Y-15013881D01*
X7131071Y-14975786D01*
X7131071Y-14928167D01*
X7140595Y-14890071D01*
X7150119Y-14871024D01*
X7159643Y-14861500D01*
X7178690Y-14851976D01*
X7312024Y-14851976D02*
X7435833Y-14851976D01*
X7369167Y-14928167D01*
X7397738Y-14928167D01*
X7416786Y-14937690D01*
X7426309Y-14947214D01*
X7435833Y-14966262D01*
X7435833Y-15013881D01*
X7426309Y-15032928D01*
X7416786Y-15042452D01*
X7397738Y-15051976D01*
X7340595Y-15051976D01*
X7321548Y-15042452D01*
X7312024Y-15032928D01*
X7626309Y-15051976D02*
X7512024Y-15051976D01*
X7569167Y-15051976D02*
X7569167Y-14851976D01*
X7550119Y-14880548D01*
X7531071Y-14899595D01*
X7512024Y-14909119D01*
X7807262Y-14851976D02*
X7712024Y-14851976D01*
X7702500Y-14947214D01*
X7712024Y-14937690D01*
X7731071Y-14928167D01*
X7778690Y-14928167D01*
X7797738Y-14937690D01*
X7807262Y-14947214D01*
X7816786Y-14966262D01*
X7816786Y-15013881D01*
X7807262Y-15032928D01*
X7797738Y-15042452D01*
X7778690Y-15051976D01*
X7731071Y-15051976D01*
X7712024Y-15042452D01*
X7702500Y-15032928D01*
X7892976Y-14851976D02*
X7892976Y-14890071D01*
X7969167Y-14851976D02*
X7969167Y-14890071D01*
X8264405Y-15128167D02*
X8254881Y-15118643D01*
X8235833Y-15090071D01*
X8226309Y-15071024D01*
X8216786Y-15042452D01*
X8207262Y-14994833D01*
X8207262Y-14956738D01*
X8216786Y-14909119D01*
X8226309Y-14880548D01*
X8235833Y-14861500D01*
X8254881Y-14832928D01*
X8264405Y-14823405D01*
X8331071Y-14871024D02*
X8340595Y-14861500D01*
X8359643Y-14851976D01*
X8407262Y-14851976D01*
X8426310Y-14861500D01*
X8435833Y-14871024D01*
X8445357Y-14890071D01*
X8445357Y-14909119D01*
X8435833Y-14937690D01*
X8321548Y-15051976D01*
X8445357Y-15051976D01*
X8683452Y-15051976D02*
X8683452Y-14851976D01*
X8769167Y-15051976D02*
X8769167Y-14947214D01*
X8759643Y-14928167D01*
X8740595Y-14918643D01*
X8712024Y-14918643D01*
X8692976Y-14928167D01*
X8683452Y-14937690D01*
X8892976Y-15051976D02*
X8873929Y-15042452D01*
X8864405Y-15032928D01*
X8854881Y-15013881D01*
X8854881Y-14956738D01*
X8864405Y-14937690D01*
X8873929Y-14928167D01*
X8892976Y-14918643D01*
X8921548Y-14918643D01*
X8940595Y-14928167D01*
X8950119Y-14937690D01*
X8959643Y-14956738D01*
X8959643Y-15013881D01*
X8950119Y-15032928D01*
X8940595Y-15042452D01*
X8921548Y-15051976D01*
X8892976Y-15051976D01*
X9073929Y-15051976D02*
X9054881Y-15042452D01*
X9045357Y-15023405D01*
X9045357Y-14851976D01*
X9226310Y-15042452D02*
X9207262Y-15051976D01*
X9169167Y-15051976D01*
X9150119Y-15042452D01*
X9140595Y-15023405D01*
X9140595Y-14947214D01*
X9150119Y-14928167D01*
X9169167Y-14918643D01*
X9207262Y-14918643D01*
X9226310Y-14928167D01*
X9235833Y-14947214D01*
X9235833Y-14966262D01*
X9140595Y-14985309D01*
X9312024Y-15042452D02*
X9331071Y-15051976D01*
X9369167Y-15051976D01*
X9388214Y-15042452D01*
X9397738Y-15023405D01*
X9397738Y-15013881D01*
X9388214Y-14994833D01*
X9369167Y-14985309D01*
X9340595Y-14985309D01*
X9321548Y-14975786D01*
X9312024Y-14956738D01*
X9312024Y-14947214D01*
X9321548Y-14928167D01*
X9340595Y-14918643D01*
X9369167Y-14918643D01*
X9388214Y-14928167D01*
X9464405Y-15128167D02*
X9473929Y-15118643D01*
X9492976Y-15090071D01*
X9502500Y-15071024D01*
X9512024Y-15042452D01*
X9521548Y-14994833D01*
X9521548Y-14956738D01*
X9512024Y-14909119D01*
X9502500Y-14880548D01*
X9492976Y-14861500D01*
X9473929Y-14832928D01*
X9464405Y-14823405D01*
D15*
X4647500Y-15180500D02*
X4647500Y-15270500D01*
X4602500Y-15225500D02*
X4692500Y-15225500D01*
D12*
X4988214Y-15115976D02*
X5007262Y-15115976D01*
X5026310Y-15125500D01*
X5035833Y-15135024D01*
X5045357Y-15154071D01*
X5054881Y-15192167D01*
X5054881Y-15239786D01*
X5045357Y-15277881D01*
X5035833Y-15296928D01*
X5026310Y-15306452D01*
X5007262Y-15315976D01*
X4988214Y-15315976D01*
X4969167Y-15306452D01*
X4959643Y-15296928D01*
X4950119Y-15277881D01*
X4940595Y-15239786D01*
X4940595Y-15192167D01*
X4950119Y-15154071D01*
X4959643Y-15135024D01*
X4969167Y-15125500D01*
X4988214Y-15115976D01*
X5140595Y-15296928D02*
X5150119Y-15306452D01*
X5140595Y-15315976D01*
X5131071Y-15306452D01*
X5140595Y-15296928D01*
X5140595Y-15315976D01*
X5245357Y-15315976D02*
X5283452Y-15315976D01*
X5302500Y-15306452D01*
X5312024Y-15296928D01*
X5331071Y-15268357D01*
X5340595Y-15230262D01*
X5340595Y-15154071D01*
X5331071Y-15135024D01*
X5321548Y-15125500D01*
X5302500Y-15115976D01*
X5264405Y-15115976D01*
X5245357Y-15125500D01*
X5235833Y-15135024D01*
X5226310Y-15154071D01*
X5226310Y-15201690D01*
X5235833Y-15220738D01*
X5245357Y-15230262D01*
X5264405Y-15239786D01*
X5302500Y-15239786D01*
X5321548Y-15230262D01*
X5331071Y-15220738D01*
X5340595Y-15201690D01*
X5464405Y-15115976D02*
X5483452Y-15115976D01*
X5502500Y-15125500D01*
X5512024Y-15135024D01*
X5521548Y-15154071D01*
X5531071Y-15192167D01*
X5531071Y-15239786D01*
X5521548Y-15277881D01*
X5512024Y-15296928D01*
X5502500Y-15306452D01*
X5483452Y-15315976D01*
X5464405Y-15315976D01*
X5445357Y-15306452D01*
X5435833Y-15296928D01*
X5426310Y-15277881D01*
X5416786Y-15239786D01*
X5416786Y-15192167D01*
X5426310Y-15154071D01*
X5435833Y-15135024D01*
X5445357Y-15125500D01*
X5464405Y-15115976D01*
X5654881Y-15115976D02*
X5673928Y-15115976D01*
X5692976Y-15125500D01*
X5702500Y-15135024D01*
X5712024Y-15154071D01*
X5721548Y-15192167D01*
X5721548Y-15239786D01*
X5712024Y-15277881D01*
X5702500Y-15296928D01*
X5692976Y-15306452D01*
X5673928Y-15315976D01*
X5654881Y-15315976D01*
X5635833Y-15306452D01*
X5626309Y-15296928D01*
X5616786Y-15277881D01*
X5607262Y-15239786D01*
X5607262Y-15192167D01*
X5616786Y-15154071D01*
X5626309Y-15135024D01*
X5635833Y-15125500D01*
X5654881Y-15115976D01*
X5807262Y-15315976D02*
X5807262Y-15182643D01*
X5807262Y-15201690D02*
X5816786Y-15192167D01*
X5835833Y-15182643D01*
X5864405Y-15182643D01*
X5883452Y-15192167D01*
X5892976Y-15211214D01*
X5892976Y-15315976D01*
X5892976Y-15211214D02*
X5902500Y-15192167D01*
X5921548Y-15182643D01*
X5950119Y-15182643D01*
X5969167Y-15192167D01*
X5978690Y-15211214D01*
X5978690Y-15315976D01*
X6073928Y-15315976D02*
X6073928Y-15182643D01*
X6073928Y-15201690D02*
X6083452Y-15192167D01*
X6102500Y-15182643D01*
X6131071Y-15182643D01*
X6150119Y-15192167D01*
X6159643Y-15211214D01*
X6159643Y-15315976D01*
X6159643Y-15211214D02*
X6169167Y-15192167D01*
X6188214Y-15182643D01*
X6216786Y-15182643D01*
X6235833Y-15192167D01*
X6245357Y-15211214D01*
X6245357Y-15315976D01*
X6635833Y-15106452D02*
X6464405Y-15363595D01*
X6892976Y-15115976D02*
X6912024Y-15115976D01*
X6931071Y-15125500D01*
X6940595Y-15135024D01*
X6950119Y-15154071D01*
X6959643Y-15192167D01*
X6959643Y-15239786D01*
X6950119Y-15277881D01*
X6940595Y-15296928D01*
X6931071Y-15306452D01*
X6912024Y-15315976D01*
X6892976Y-15315976D01*
X6873928Y-15306452D01*
X6864405Y-15296928D01*
X6854881Y-15277881D01*
X6845357Y-15239786D01*
X6845357Y-15192167D01*
X6854881Y-15154071D01*
X6864405Y-15135024D01*
X6873928Y-15125500D01*
X6892976Y-15115976D01*
X7045357Y-15296928D02*
X7054881Y-15306452D01*
X7045357Y-15315976D01*
X7035833Y-15306452D01*
X7045357Y-15296928D01*
X7045357Y-15315976D01*
X7178690Y-15115976D02*
X7197738Y-15115976D01*
X7216786Y-15125500D01*
X7226309Y-15135024D01*
X7235833Y-15154071D01*
X7245357Y-15192167D01*
X7245357Y-15239786D01*
X7235833Y-15277881D01*
X7226309Y-15296928D01*
X7216786Y-15306452D01*
X7197738Y-15315976D01*
X7178690Y-15315976D01*
X7159643Y-15306452D01*
X7150119Y-15296928D01*
X7140595Y-15277881D01*
X7131071Y-15239786D01*
X7131071Y-15192167D01*
X7140595Y-15154071D01*
X7150119Y-15135024D01*
X7159643Y-15125500D01*
X7178690Y-15115976D01*
X7312024Y-15115976D02*
X7435833Y-15115976D01*
X7369167Y-15192167D01*
X7397738Y-15192167D01*
X7416786Y-15201690D01*
X7426309Y-15211214D01*
X7435833Y-15230262D01*
X7435833Y-15277881D01*
X7426309Y-15296928D01*
X7416786Y-15306452D01*
X7397738Y-15315976D01*
X7340595Y-15315976D01*
X7321548Y-15306452D01*
X7312024Y-15296928D01*
X7616786Y-15115976D02*
X7521548Y-15115976D01*
X7512024Y-15211214D01*
X7521548Y-15201690D01*
X7540595Y-15192167D01*
X7588214Y-15192167D01*
X7607262Y-15201690D01*
X7616786Y-15211214D01*
X7626309Y-15230262D01*
X7626309Y-15277881D01*
X7616786Y-15296928D01*
X7607262Y-15306452D01*
X7588214Y-15315976D01*
X7540595Y-15315976D01*
X7521548Y-15306452D01*
X7512024Y-15296928D01*
X7797738Y-15182643D02*
X7797738Y-15315976D01*
X7750119Y-15106452D02*
X7702500Y-15249309D01*
X7826309Y-15249309D01*
X7892976Y-15115976D02*
X7892976Y-15154071D01*
X7969167Y-15115976D02*
X7969167Y-15154071D01*
X8264405Y-15392167D02*
X8254881Y-15382643D01*
X8235833Y-15354071D01*
X8226309Y-15335024D01*
X8216786Y-15306452D01*
X8207262Y-15258833D01*
X8207262Y-15220738D01*
X8216786Y-15173119D01*
X8226309Y-15144548D01*
X8235833Y-15125500D01*
X8254881Y-15096928D01*
X8264405Y-15087405D01*
X8331071Y-15135024D02*
X8340595Y-15125500D01*
X8359643Y-15115976D01*
X8407262Y-15115976D01*
X8426310Y-15125500D01*
X8435833Y-15135024D01*
X8445357Y-15154071D01*
X8445357Y-15173119D01*
X8435833Y-15201690D01*
X8321548Y-15315976D01*
X8445357Y-15315976D01*
X8683452Y-15315976D02*
X8683452Y-15115976D01*
X8769167Y-15315976D02*
X8769167Y-15211214D01*
X8759643Y-15192167D01*
X8740595Y-15182643D01*
X8712024Y-15182643D01*
X8692976Y-15192167D01*
X8683452Y-15201690D01*
X8892976Y-15315976D02*
X8873929Y-15306452D01*
X8864405Y-15296928D01*
X8854881Y-15277881D01*
X8854881Y-15220738D01*
X8864405Y-15201690D01*
X8873929Y-15192167D01*
X8892976Y-15182643D01*
X8921548Y-15182643D01*
X8940595Y-15192167D01*
X8950119Y-15201690D01*
X8959643Y-15220738D01*
X8959643Y-15277881D01*
X8950119Y-15296928D01*
X8940595Y-15306452D01*
X8921548Y-15315976D01*
X8892976Y-15315976D01*
X9073929Y-15315976D02*
X9054881Y-15306452D01*
X9045357Y-15287405D01*
X9045357Y-15115976D01*
X9226310Y-15306452D02*
X9207262Y-15315976D01*
X9169167Y-15315976D01*
X9150119Y-15306452D01*
X9140595Y-15287405D01*
X9140595Y-15211214D01*
X9150119Y-15192167D01*
X9169167Y-15182643D01*
X9207262Y-15182643D01*
X9226310Y-15192167D01*
X9235833Y-15211214D01*
X9235833Y-15230262D01*
X9140595Y-15249309D01*
X9312024Y-15306452D02*
X9331071Y-15315976D01*
X9369167Y-15315976D01*
X9388214Y-15306452D01*
X9397738Y-15287405D01*
X9397738Y-15277881D01*
X9388214Y-15258833D01*
X9369167Y-15249309D01*
X9340595Y-15249309D01*
X9321548Y-15239786D01*
X9312024Y-15220738D01*
X9312024Y-15211214D01*
X9321548Y-15192167D01*
X9340595Y-15182643D01*
X9369167Y-15182643D01*
X9388214Y-15192167D01*
X9464405Y-15392167D02*
X9473929Y-15382643D01*
X9492976Y-15354071D01*
X9502500Y-15335024D01*
X9512024Y-15306452D01*
X9521548Y-15258833D01*
X9521548Y-15220738D01*
X9512024Y-15173119D01*
X9502500Y-15144548D01*
X9492976Y-15125500D01*
X9473929Y-15096928D01*
X9464405Y-15087405D01*
D10*
X4677856Y-15524856D02*
X4677856Y-15454144D01*
X4607144Y-15454144D01*
X4607144Y-15524856D01*
X4677856Y-15524856D01*
D12*
X5054881Y-15579976D02*
X4940595Y-15579976D01*
X4997738Y-15579976D02*
X4997738Y-15379976D01*
X4978690Y-15408548D01*
X4959643Y-15427595D01*
X4940595Y-15437119D01*
X5140595Y-15560928D02*
X5150119Y-15570452D01*
X5140595Y-15579976D01*
X5131071Y-15570452D01*
X5140595Y-15560928D01*
X5140595Y-15579976D01*
X5273929Y-15379976D02*
X5292976Y-15379976D01*
X5312024Y-15389500D01*
X5321548Y-15399024D01*
X5331071Y-15418071D01*
X5340595Y-15456167D01*
X5340595Y-15503786D01*
X5331071Y-15541881D01*
X5321548Y-15560928D01*
X5312024Y-15570452D01*
X5292976Y-15579976D01*
X5273929Y-15579976D01*
X5254881Y-15570452D01*
X5245357Y-15560928D01*
X5235833Y-15541881D01*
X5226310Y-15503786D01*
X5226310Y-15456167D01*
X5235833Y-15418071D01*
X5245357Y-15399024D01*
X5254881Y-15389500D01*
X5273929Y-15379976D01*
X5464405Y-15379976D02*
X5483452Y-15379976D01*
X5502500Y-15389500D01*
X5512024Y-15399024D01*
X5521548Y-15418071D01*
X5531071Y-15456167D01*
X5531071Y-15503786D01*
X5521548Y-15541881D01*
X5512024Y-15560928D01*
X5502500Y-15570452D01*
X5483452Y-15579976D01*
X5464405Y-15579976D01*
X5445357Y-15570452D01*
X5435833Y-15560928D01*
X5426310Y-15541881D01*
X5416786Y-15503786D01*
X5416786Y-15456167D01*
X5426310Y-15418071D01*
X5435833Y-15399024D01*
X5445357Y-15389500D01*
X5464405Y-15379976D01*
X5654881Y-15379976D02*
X5673928Y-15379976D01*
X5692976Y-15389500D01*
X5702500Y-15399024D01*
X5712024Y-15418071D01*
X5721548Y-15456167D01*
X5721548Y-15503786D01*
X5712024Y-15541881D01*
X5702500Y-15560928D01*
X5692976Y-15570452D01*
X5673928Y-15579976D01*
X5654881Y-15579976D01*
X5635833Y-15570452D01*
X5626309Y-15560928D01*
X5616786Y-15541881D01*
X5607262Y-15503786D01*
X5607262Y-15456167D01*
X5616786Y-15418071D01*
X5626309Y-15399024D01*
X5635833Y-15389500D01*
X5654881Y-15379976D01*
X5807262Y-15579976D02*
X5807262Y-15446643D01*
X5807262Y-15465690D02*
X5816786Y-15456167D01*
X5835833Y-15446643D01*
X5864405Y-15446643D01*
X5883452Y-15456167D01*
X5892976Y-15475214D01*
X5892976Y-15579976D01*
X5892976Y-15475214D02*
X5902500Y-15456167D01*
X5921548Y-15446643D01*
X5950119Y-15446643D01*
X5969167Y-15456167D01*
X5978690Y-15475214D01*
X5978690Y-15579976D01*
X6073928Y-15579976D02*
X6073928Y-15446643D01*
X6073928Y-15465690D02*
X6083452Y-15456167D01*
X6102500Y-15446643D01*
X6131071Y-15446643D01*
X6150119Y-15456167D01*
X6159643Y-15475214D01*
X6159643Y-15579976D01*
X6159643Y-15475214D02*
X6169167Y-15456167D01*
X6188214Y-15446643D01*
X6216786Y-15446643D01*
X6235833Y-15456167D01*
X6245357Y-15475214D01*
X6245357Y-15579976D01*
X6635833Y-15370452D02*
X6464405Y-15627595D01*
X6892976Y-15379976D02*
X6912024Y-15379976D01*
X6931071Y-15389500D01*
X6940595Y-15399024D01*
X6950119Y-15418071D01*
X6959643Y-15456167D01*
X6959643Y-15503786D01*
X6950119Y-15541881D01*
X6940595Y-15560928D01*
X6931071Y-15570452D01*
X6912024Y-15579976D01*
X6892976Y-15579976D01*
X6873928Y-15570452D01*
X6864405Y-15560928D01*
X6854881Y-15541881D01*
X6845357Y-15503786D01*
X6845357Y-15456167D01*
X6854881Y-15418071D01*
X6864405Y-15399024D01*
X6873928Y-15389500D01*
X6892976Y-15379976D01*
X7045357Y-15560928D02*
X7054881Y-15570452D01*
X7045357Y-15579976D01*
X7035833Y-15570452D01*
X7045357Y-15560928D01*
X7045357Y-15579976D01*
X7178690Y-15379976D02*
X7197738Y-15379976D01*
X7216786Y-15389500D01*
X7226309Y-15399024D01*
X7235833Y-15418071D01*
X7245357Y-15456167D01*
X7245357Y-15503786D01*
X7235833Y-15541881D01*
X7226309Y-15560928D01*
X7216786Y-15570452D01*
X7197738Y-15579976D01*
X7178690Y-15579976D01*
X7159643Y-15570452D01*
X7150119Y-15560928D01*
X7140595Y-15541881D01*
X7131071Y-15503786D01*
X7131071Y-15456167D01*
X7140595Y-15418071D01*
X7150119Y-15399024D01*
X7159643Y-15389500D01*
X7178690Y-15379976D01*
X7312024Y-15379976D02*
X7435833Y-15379976D01*
X7369167Y-15456167D01*
X7397738Y-15456167D01*
X7416786Y-15465690D01*
X7426309Y-15475214D01*
X7435833Y-15494262D01*
X7435833Y-15541881D01*
X7426309Y-15560928D01*
X7416786Y-15570452D01*
X7397738Y-15579976D01*
X7340595Y-15579976D01*
X7321548Y-15570452D01*
X7312024Y-15560928D01*
X7531071Y-15579976D02*
X7569167Y-15579976D01*
X7588214Y-15570452D01*
X7597738Y-15560928D01*
X7616786Y-15532357D01*
X7626309Y-15494262D01*
X7626309Y-15418071D01*
X7616786Y-15399024D01*
X7607262Y-15389500D01*
X7588214Y-15379976D01*
X7550119Y-15379976D01*
X7531071Y-15389500D01*
X7521548Y-15399024D01*
X7512024Y-15418071D01*
X7512024Y-15465690D01*
X7521548Y-15484738D01*
X7531071Y-15494262D01*
X7550119Y-15503786D01*
X7588214Y-15503786D01*
X7607262Y-15494262D01*
X7616786Y-15484738D01*
X7626309Y-15465690D01*
X7797738Y-15446643D02*
X7797738Y-15579976D01*
X7750119Y-15370452D02*
X7702500Y-15513309D01*
X7826309Y-15513309D01*
X7892976Y-15379976D02*
X7892976Y-15418071D01*
X7969167Y-15379976D02*
X7969167Y-15418071D01*
X8264405Y-15656167D02*
X8254881Y-15646643D01*
X8235833Y-15618071D01*
X8226309Y-15599024D01*
X8216786Y-15570452D01*
X8207262Y-15522833D01*
X8207262Y-15484738D01*
X8216786Y-15437119D01*
X8226309Y-15408548D01*
X8235833Y-15389500D01*
X8254881Y-15360928D01*
X8264405Y-15351405D01*
X8350119Y-15579976D02*
X8388214Y-15579976D01*
X8407262Y-15570452D01*
X8416786Y-15560928D01*
X8435833Y-15532357D01*
X8445357Y-15494262D01*
X8445357Y-15418071D01*
X8435833Y-15399024D01*
X8426310Y-15389500D01*
X8407262Y-15379976D01*
X8369167Y-15379976D01*
X8350119Y-15389500D01*
X8340595Y-15399024D01*
X8331071Y-15418071D01*
X8331071Y-15465690D01*
X8340595Y-15484738D01*
X8350119Y-15494262D01*
X8369167Y-15503786D01*
X8407262Y-15503786D01*
X8426310Y-15494262D01*
X8435833Y-15484738D01*
X8445357Y-15465690D01*
X8521548Y-15399024D02*
X8531071Y-15389500D01*
X8550119Y-15379976D01*
X8597738Y-15379976D01*
X8616786Y-15389500D01*
X8626310Y-15399024D01*
X8635833Y-15418071D01*
X8635833Y-15437119D01*
X8626310Y-15465690D01*
X8512024Y-15579976D01*
X8635833Y-15579976D01*
X8873929Y-15579976D02*
X8873929Y-15379976D01*
X8959643Y-15579976D02*
X8959643Y-15475214D01*
X8950119Y-15456167D01*
X8931071Y-15446643D01*
X8902500Y-15446643D01*
X8883452Y-15456167D01*
X8873929Y-15465690D01*
X9083452Y-15579976D02*
X9064405Y-15570452D01*
X9054881Y-15560928D01*
X9045357Y-15541881D01*
X9045357Y-15484738D01*
X9054881Y-15465690D01*
X9064405Y-15456167D01*
X9083452Y-15446643D01*
X9112024Y-15446643D01*
X9131071Y-15456167D01*
X9140595Y-15465690D01*
X9150119Y-15484738D01*
X9150119Y-15541881D01*
X9140595Y-15560928D01*
X9131071Y-15570452D01*
X9112024Y-15579976D01*
X9083452Y-15579976D01*
X9264405Y-15579976D02*
X9245357Y-15570452D01*
X9235833Y-15551405D01*
X9235833Y-15379976D01*
X9416786Y-15570452D02*
X9397738Y-15579976D01*
X9359643Y-15579976D01*
X9340595Y-15570452D01*
X9331071Y-15551405D01*
X9331071Y-15475214D01*
X9340595Y-15456167D01*
X9359643Y-15446643D01*
X9397738Y-15446643D01*
X9416786Y-15456167D01*
X9426310Y-15475214D01*
X9426310Y-15494262D01*
X9331071Y-15513309D01*
X9502500Y-15570452D02*
X9521548Y-15579976D01*
X9559643Y-15579976D01*
X9578690Y-15570452D01*
X9588214Y-15551405D01*
X9588214Y-15541881D01*
X9578690Y-15522833D01*
X9559643Y-15513309D01*
X9531071Y-15513309D01*
X9512024Y-15503786D01*
X9502500Y-15484738D01*
X9502500Y-15475214D01*
X9512024Y-15456167D01*
X9531071Y-15446643D01*
X9559643Y-15446643D01*
X9578690Y-15456167D01*
X9826310Y-15503786D02*
X9978690Y-15503786D01*
X9902500Y-15579976D02*
X9902500Y-15427595D01*
X10207262Y-15379976D02*
X10331071Y-15379976D01*
X10264405Y-15456167D01*
X10292976Y-15456167D01*
X10312024Y-15465690D01*
X10321548Y-15475214D01*
X10331071Y-15494262D01*
X10331071Y-15541881D01*
X10321548Y-15560928D01*
X10312024Y-15570452D01*
X10292976Y-15579976D01*
X10235833Y-15579976D01*
X10216786Y-15570452D01*
X10207262Y-15560928D01*
X10559643Y-15570452D02*
X10578690Y-15579976D01*
X10616786Y-15579976D01*
X10635833Y-15570452D01*
X10645357Y-15551405D01*
X10645357Y-15541881D01*
X10635833Y-15522833D01*
X10616786Y-15513309D01*
X10588214Y-15513309D01*
X10569167Y-15503786D01*
X10559643Y-15484738D01*
X10559643Y-15475214D01*
X10569167Y-15456167D01*
X10588214Y-15446643D01*
X10616786Y-15446643D01*
X10635833Y-15456167D01*
X10759643Y-15579976D02*
X10740595Y-15570452D01*
X10731071Y-15551405D01*
X10731071Y-15379976D01*
X10864405Y-15579976D02*
X10845357Y-15570452D01*
X10835833Y-15560928D01*
X10826310Y-15541881D01*
X10826310Y-15484738D01*
X10835833Y-15465690D01*
X10845357Y-15456167D01*
X10864405Y-15446643D01*
X10892976Y-15446643D01*
X10912024Y-15456167D01*
X10921548Y-15465690D01*
X10931071Y-15484738D01*
X10931071Y-15541881D01*
X10921548Y-15560928D01*
X10912024Y-15570452D01*
X10892976Y-15579976D01*
X10864405Y-15579976D01*
X10988214Y-15446643D02*
X11064405Y-15446643D01*
X11016786Y-15379976D02*
X11016786Y-15551405D01*
X11026310Y-15570452D01*
X11045357Y-15579976D01*
X11064405Y-15579976D01*
X11121548Y-15570452D02*
X11140595Y-15579976D01*
X11178690Y-15579976D01*
X11197738Y-15570452D01*
X11207262Y-15551405D01*
X11207262Y-15541881D01*
X11197738Y-15522833D01*
X11178690Y-15513309D01*
X11150119Y-15513309D01*
X11131071Y-15503786D01*
X11121548Y-15484738D01*
X11121548Y-15475214D01*
X11131071Y-15456167D01*
X11150119Y-15446643D01*
X11178690Y-15446643D01*
X11197738Y-15456167D01*
X11273928Y-15656167D02*
X11283452Y-15646643D01*
X11302500Y-15618071D01*
X11312024Y-15599024D01*
X11321548Y-15570452D01*
X11331071Y-15522833D01*
X11331071Y-15484738D01*
X11321548Y-15437119D01*
X11312024Y-15408548D01*
X11302500Y-15389500D01*
X11283452Y-15360928D01*
X11273928Y-15351405D01*
D16*
X4640500Y-15805500D02*
X4692500Y-15753500D01*
X4640500Y-15701500D01*
X4588500Y-15753500D01*
X4640500Y-15805500D01*
D12*
X5054881Y-15843976D02*
X4940595Y-15843976D01*
X4997738Y-15843976D02*
X4997738Y-15643976D01*
X4978690Y-15672548D01*
X4959643Y-15691595D01*
X4940595Y-15701119D01*
X5140595Y-15824928D02*
X5150119Y-15834452D01*
X5140595Y-15843976D01*
X5131071Y-15834452D01*
X5140595Y-15824928D01*
X5140595Y-15843976D01*
X5273929Y-15643976D02*
X5292976Y-15643976D01*
X5312024Y-15653500D01*
X5321548Y-15663024D01*
X5331071Y-15682071D01*
X5340595Y-15720167D01*
X5340595Y-15767786D01*
X5331071Y-15805881D01*
X5321548Y-15824928D01*
X5312024Y-15834452D01*
X5292976Y-15843976D01*
X5273929Y-15843976D01*
X5254881Y-15834452D01*
X5245357Y-15824928D01*
X5235833Y-15805881D01*
X5226310Y-15767786D01*
X5226310Y-15720167D01*
X5235833Y-15682071D01*
X5245357Y-15663024D01*
X5254881Y-15653500D01*
X5273929Y-15643976D01*
X5512024Y-15710643D02*
X5512024Y-15843976D01*
X5464405Y-15634452D02*
X5416786Y-15777309D01*
X5540595Y-15777309D01*
X5654881Y-15643976D02*
X5673928Y-15643976D01*
X5692976Y-15653500D01*
X5702500Y-15663024D01*
X5712024Y-15682071D01*
X5721548Y-15720167D01*
X5721548Y-15767786D01*
X5712024Y-15805881D01*
X5702500Y-15824928D01*
X5692976Y-15834452D01*
X5673928Y-15843976D01*
X5654881Y-15843976D01*
X5635833Y-15834452D01*
X5626309Y-15824928D01*
X5616786Y-15805881D01*
X5607262Y-15767786D01*
X5607262Y-15720167D01*
X5616786Y-15682071D01*
X5626309Y-15663024D01*
X5635833Y-15653500D01*
X5654881Y-15643976D01*
X5807262Y-15843976D02*
X5807262Y-15710643D01*
X5807262Y-15729690D02*
X5816786Y-15720167D01*
X5835833Y-15710643D01*
X5864405Y-15710643D01*
X5883452Y-15720167D01*
X5892976Y-15739214D01*
X5892976Y-15843976D01*
X5892976Y-15739214D02*
X5902500Y-15720167D01*
X5921548Y-15710643D01*
X5950119Y-15710643D01*
X5969167Y-15720167D01*
X5978690Y-15739214D01*
X5978690Y-15843976D01*
X6073928Y-15843976D02*
X6073928Y-15710643D01*
X6073928Y-15729690D02*
X6083452Y-15720167D01*
X6102500Y-15710643D01*
X6131071Y-15710643D01*
X6150119Y-15720167D01*
X6159643Y-15739214D01*
X6159643Y-15843976D01*
X6159643Y-15739214D02*
X6169167Y-15720167D01*
X6188214Y-15710643D01*
X6216786Y-15710643D01*
X6235833Y-15720167D01*
X6245357Y-15739214D01*
X6245357Y-15843976D01*
X6635833Y-15634452D02*
X6464405Y-15891595D01*
X6892976Y-15643976D02*
X6912024Y-15643976D01*
X6931071Y-15653500D01*
X6940595Y-15663024D01*
X6950119Y-15682071D01*
X6959643Y-15720167D01*
X6959643Y-15767786D01*
X6950119Y-15805881D01*
X6940595Y-15824928D01*
X6931071Y-15834452D01*
X6912024Y-15843976D01*
X6892976Y-15843976D01*
X6873928Y-15834452D01*
X6864405Y-15824928D01*
X6854881Y-15805881D01*
X6845357Y-15767786D01*
X6845357Y-15720167D01*
X6854881Y-15682071D01*
X6864405Y-15663024D01*
X6873928Y-15653500D01*
X6892976Y-15643976D01*
X7045357Y-15824928D02*
X7054881Y-15834452D01*
X7045357Y-15843976D01*
X7035833Y-15834452D01*
X7045357Y-15824928D01*
X7045357Y-15843976D01*
X7178690Y-15643976D02*
X7197738Y-15643976D01*
X7216786Y-15653500D01*
X7226309Y-15663024D01*
X7235833Y-15682071D01*
X7245357Y-15720167D01*
X7245357Y-15767786D01*
X7235833Y-15805881D01*
X7226309Y-15824928D01*
X7216786Y-15834452D01*
X7197738Y-15843976D01*
X7178690Y-15843976D01*
X7159643Y-15834452D01*
X7150119Y-15824928D01*
X7140595Y-15805881D01*
X7131071Y-15767786D01*
X7131071Y-15720167D01*
X7140595Y-15682071D01*
X7150119Y-15663024D01*
X7159643Y-15653500D01*
X7178690Y-15643976D01*
X7416786Y-15710643D02*
X7416786Y-15843976D01*
X7369167Y-15634452D02*
X7321548Y-15777309D01*
X7445357Y-15777309D01*
X7559643Y-15643976D02*
X7578690Y-15643976D01*
X7597738Y-15653500D01*
X7607262Y-15663024D01*
X7616786Y-15682071D01*
X7626309Y-15720167D01*
X7626309Y-15767786D01*
X7616786Y-15805881D01*
X7607262Y-15824928D01*
X7597738Y-15834452D01*
X7578690Y-15843976D01*
X7559643Y-15843976D01*
X7540595Y-15834452D01*
X7531071Y-15824928D01*
X7521548Y-15805881D01*
X7512024Y-15767786D01*
X7512024Y-15720167D01*
X7521548Y-15682071D01*
X7531071Y-15663024D01*
X7540595Y-15653500D01*
X7559643Y-15643976D01*
X7721548Y-15843976D02*
X7759643Y-15843976D01*
X7778690Y-15834452D01*
X7788214Y-15824928D01*
X7807262Y-15796357D01*
X7816786Y-15758262D01*
X7816786Y-15682071D01*
X7807262Y-15663024D01*
X7797738Y-15653500D01*
X7778690Y-15643976D01*
X7740595Y-15643976D01*
X7721548Y-15653500D01*
X7712024Y-15663024D01*
X7702500Y-15682071D01*
X7702500Y-15729690D01*
X7712024Y-15748738D01*
X7721548Y-15758262D01*
X7740595Y-15767786D01*
X7778690Y-15767786D01*
X7797738Y-15758262D01*
X7807262Y-15748738D01*
X7816786Y-15729690D01*
X7892976Y-15643976D02*
X7892976Y-15682071D01*
X7969167Y-15643976D02*
X7969167Y-15682071D01*
X8264405Y-15920167D02*
X8254881Y-15910643D01*
X8235833Y-15882071D01*
X8226309Y-15863024D01*
X8216786Y-15834452D01*
X8207262Y-15786833D01*
X8207262Y-15748738D01*
X8216786Y-15701119D01*
X8226309Y-15672548D01*
X8235833Y-15653500D01*
X8254881Y-15624928D01*
X8264405Y-15615405D01*
X8321548Y-15643976D02*
X8445357Y-15643976D01*
X8378690Y-15720167D01*
X8407262Y-15720167D01*
X8426310Y-15729690D01*
X8435833Y-15739214D01*
X8445357Y-15758262D01*
X8445357Y-15805881D01*
X8435833Y-15824928D01*
X8426310Y-15834452D01*
X8407262Y-15843976D01*
X8350119Y-15843976D01*
X8331071Y-15834452D01*
X8321548Y-15824928D01*
X8559643Y-15729690D02*
X8540595Y-15720167D01*
X8531071Y-15710643D01*
X8521548Y-15691595D01*
X8521548Y-15682071D01*
X8531071Y-15663024D01*
X8540595Y-15653500D01*
X8559643Y-15643976D01*
X8597738Y-15643976D01*
X8616786Y-15653500D01*
X8626310Y-15663024D01*
X8635833Y-15682071D01*
X8635833Y-15691595D01*
X8626310Y-15710643D01*
X8616786Y-15720167D01*
X8597738Y-15729690D01*
X8559643Y-15729690D01*
X8540595Y-15739214D01*
X8531071Y-15748738D01*
X8521548Y-15767786D01*
X8521548Y-15805881D01*
X8531071Y-15824928D01*
X8540595Y-15834452D01*
X8559643Y-15843976D01*
X8597738Y-15843976D01*
X8616786Y-15834452D01*
X8626310Y-15824928D01*
X8635833Y-15805881D01*
X8635833Y-15767786D01*
X8626310Y-15748738D01*
X8616786Y-15739214D01*
X8597738Y-15729690D01*
X8873929Y-15843976D02*
X8873929Y-15643976D01*
X8959643Y-15843976D02*
X8959643Y-15739214D01*
X8950119Y-15720167D01*
X8931071Y-15710643D01*
X8902500Y-15710643D01*
X8883452Y-15720167D01*
X8873929Y-15729690D01*
X9083452Y-15843976D02*
X9064405Y-15834452D01*
X9054881Y-15824928D01*
X9045357Y-15805881D01*
X9045357Y-15748738D01*
X9054881Y-15729690D01*
X9064405Y-15720167D01*
X9083452Y-15710643D01*
X9112024Y-15710643D01*
X9131071Y-15720167D01*
X9140595Y-15729690D01*
X9150119Y-15748738D01*
X9150119Y-15805881D01*
X9140595Y-15824928D01*
X9131071Y-15834452D01*
X9112024Y-15843976D01*
X9083452Y-15843976D01*
X9264405Y-15843976D02*
X9245357Y-15834452D01*
X9235833Y-15815405D01*
X9235833Y-15643976D01*
X9416786Y-15834452D02*
X9397738Y-15843976D01*
X9359643Y-15843976D01*
X9340595Y-15834452D01*
X9331071Y-15815405D01*
X9331071Y-15739214D01*
X9340595Y-15720167D01*
X9359643Y-15710643D01*
X9397738Y-15710643D01*
X9416786Y-15720167D01*
X9426310Y-15739214D01*
X9426310Y-15758262D01*
X9331071Y-15777309D01*
X9502500Y-15834452D02*
X9521548Y-15843976D01*
X9559643Y-15843976D01*
X9578690Y-15834452D01*
X9588214Y-15815405D01*
X9588214Y-15805881D01*
X9578690Y-15786833D01*
X9559643Y-15777309D01*
X9531071Y-15777309D01*
X9512024Y-15767786D01*
X9502500Y-15748738D01*
X9502500Y-15739214D01*
X9512024Y-15720167D01*
X9531071Y-15710643D01*
X9559643Y-15710643D01*
X9578690Y-15720167D01*
X9654881Y-15920167D02*
X9664405Y-15910643D01*
X9683452Y-15882071D01*
X9692976Y-15863024D01*
X9702500Y-15834452D01*
X9712024Y-15786833D01*
X9712024Y-15748738D01*
X9702500Y-15701119D01*
X9692976Y-15672548D01*
X9683452Y-15653500D01*
X9664405Y-15624928D01*
X9654881Y-15615405D01*
D17*
X4582500Y-15962500D02*
X4692500Y-16072500D01*
X4692500Y-15962500D02*
X4582500Y-16072500D01*
X4692500Y-16017500D02*
G75*
G03*
X4692500Y-16017500I-55000J0D01*
G01*
D12*
X5054881Y-16107976D02*
X4940595Y-16107976D01*
X4997738Y-16107976D02*
X4997738Y-15907976D01*
X4978690Y-15936548D01*
X4959643Y-15955595D01*
X4940595Y-15965119D01*
X5140595Y-16088928D02*
X5150119Y-16098452D01*
X5140595Y-16107976D01*
X5131071Y-16098452D01*
X5140595Y-16088928D01*
X5140595Y-16107976D01*
X5340595Y-16107976D02*
X5226310Y-16107976D01*
X5283452Y-16107976D02*
X5283452Y-15907976D01*
X5264405Y-15936548D01*
X5245357Y-15955595D01*
X5226310Y-15965119D01*
X5464405Y-15907976D02*
X5483452Y-15907976D01*
X5502500Y-15917500D01*
X5512024Y-15927024D01*
X5521548Y-15946071D01*
X5531071Y-15984167D01*
X5531071Y-16031786D01*
X5521548Y-16069881D01*
X5512024Y-16088928D01*
X5502500Y-16098452D01*
X5483452Y-16107976D01*
X5464405Y-16107976D01*
X5445357Y-16098452D01*
X5435833Y-16088928D01*
X5426310Y-16069881D01*
X5416786Y-16031786D01*
X5416786Y-15984167D01*
X5426310Y-15946071D01*
X5435833Y-15927024D01*
X5445357Y-15917500D01*
X5464405Y-15907976D01*
X5654881Y-15907976D02*
X5673928Y-15907976D01*
X5692976Y-15917500D01*
X5702500Y-15927024D01*
X5712024Y-15946071D01*
X5721548Y-15984167D01*
X5721548Y-16031786D01*
X5712024Y-16069881D01*
X5702500Y-16088928D01*
X5692976Y-16098452D01*
X5673928Y-16107976D01*
X5654881Y-16107976D01*
X5635833Y-16098452D01*
X5626309Y-16088928D01*
X5616786Y-16069881D01*
X5607262Y-16031786D01*
X5607262Y-15984167D01*
X5616786Y-15946071D01*
X5626309Y-15927024D01*
X5635833Y-15917500D01*
X5654881Y-15907976D01*
X5807262Y-16107976D02*
X5807262Y-15974643D01*
X5807262Y-15993690D02*
X5816786Y-15984167D01*
X5835833Y-15974643D01*
X5864405Y-15974643D01*
X5883452Y-15984167D01*
X5892976Y-16003214D01*
X5892976Y-16107976D01*
X5892976Y-16003214D02*
X5902500Y-15984167D01*
X5921548Y-15974643D01*
X5950119Y-15974643D01*
X5969167Y-15984167D01*
X5978690Y-16003214D01*
X5978690Y-16107976D01*
X6073928Y-16107976D02*
X6073928Y-15974643D01*
X6073928Y-15993690D02*
X6083452Y-15984167D01*
X6102500Y-15974643D01*
X6131071Y-15974643D01*
X6150119Y-15984167D01*
X6159643Y-16003214D01*
X6159643Y-16107976D01*
X6159643Y-16003214D02*
X6169167Y-15984167D01*
X6188214Y-15974643D01*
X6216786Y-15974643D01*
X6235833Y-15984167D01*
X6245357Y-16003214D01*
X6245357Y-16107976D01*
X6635833Y-15898452D02*
X6464405Y-16155595D01*
X6892976Y-15907976D02*
X6912024Y-15907976D01*
X6931071Y-15917500D01*
X6940595Y-15927024D01*
X6950119Y-15946071D01*
X6959643Y-15984167D01*
X6959643Y-16031786D01*
X6950119Y-16069881D01*
X6940595Y-16088928D01*
X6931071Y-16098452D01*
X6912024Y-16107976D01*
X6892976Y-16107976D01*
X6873928Y-16098452D01*
X6864405Y-16088928D01*
X6854881Y-16069881D01*
X6845357Y-16031786D01*
X6845357Y-15984167D01*
X6854881Y-15946071D01*
X6864405Y-15927024D01*
X6873928Y-15917500D01*
X6892976Y-15907976D01*
X7045357Y-16088928D02*
X7054881Y-16098452D01*
X7045357Y-16107976D01*
X7035833Y-16098452D01*
X7045357Y-16088928D01*
X7045357Y-16107976D01*
X7178690Y-15907976D02*
X7197738Y-15907976D01*
X7216786Y-15917500D01*
X7226309Y-15927024D01*
X7235833Y-15946071D01*
X7245357Y-15984167D01*
X7245357Y-16031786D01*
X7235833Y-16069881D01*
X7226309Y-16088928D01*
X7216786Y-16098452D01*
X7197738Y-16107976D01*
X7178690Y-16107976D01*
X7159643Y-16098452D01*
X7150119Y-16088928D01*
X7140595Y-16069881D01*
X7131071Y-16031786D01*
X7131071Y-15984167D01*
X7140595Y-15946071D01*
X7150119Y-15927024D01*
X7159643Y-15917500D01*
X7178690Y-15907976D01*
X7416786Y-15974643D02*
X7416786Y-16107976D01*
X7369167Y-15898452D02*
X7321548Y-16041309D01*
X7445357Y-16041309D01*
X7502500Y-15907976D02*
X7626309Y-15907976D01*
X7559643Y-15984167D01*
X7588214Y-15984167D01*
X7607262Y-15993690D01*
X7616786Y-16003214D01*
X7626309Y-16022262D01*
X7626309Y-16069881D01*
X7616786Y-16088928D01*
X7607262Y-16098452D01*
X7588214Y-16107976D01*
X7531071Y-16107976D01*
X7512024Y-16098452D01*
X7502500Y-16088928D01*
X7692976Y-15907976D02*
X7816786Y-15907976D01*
X7750119Y-15984167D01*
X7778690Y-15984167D01*
X7797738Y-15993690D01*
X7807262Y-16003214D01*
X7816786Y-16022262D01*
X7816786Y-16069881D01*
X7807262Y-16088928D01*
X7797738Y-16098452D01*
X7778690Y-16107976D01*
X7721548Y-16107976D01*
X7702500Y-16098452D01*
X7692976Y-16088928D01*
X7892976Y-15907976D02*
X7892976Y-15946071D01*
X7969167Y-15907976D02*
X7969167Y-15946071D01*
X8264405Y-16184167D02*
X8254881Y-16174643D01*
X8235833Y-16146071D01*
X8226309Y-16127024D01*
X8216786Y-16098452D01*
X8207262Y-16050833D01*
X8207262Y-16012738D01*
X8216786Y-15965119D01*
X8226309Y-15936548D01*
X8235833Y-15917500D01*
X8254881Y-15888928D01*
X8264405Y-15879405D01*
X8435833Y-15907976D02*
X8340595Y-15907976D01*
X8331071Y-16003214D01*
X8340595Y-15993690D01*
X8359643Y-15984167D01*
X8407262Y-15984167D01*
X8426310Y-15993690D01*
X8435833Y-16003214D01*
X8445357Y-16022262D01*
X8445357Y-16069881D01*
X8435833Y-16088928D01*
X8426310Y-16098452D01*
X8407262Y-16107976D01*
X8359643Y-16107976D01*
X8340595Y-16098452D01*
X8331071Y-16088928D01*
X8683452Y-16107976D02*
X8683452Y-15907976D01*
X8769167Y-16107976D02*
X8769167Y-16003214D01*
X8759643Y-15984167D01*
X8740595Y-15974643D01*
X8712024Y-15974643D01*
X8692976Y-15984167D01*
X8683452Y-15993690D01*
X8892976Y-16107976D02*
X8873929Y-16098452D01*
X8864405Y-16088928D01*
X8854881Y-16069881D01*
X8854881Y-16012738D01*
X8864405Y-15993690D01*
X8873929Y-15984167D01*
X8892976Y-15974643D01*
X8921548Y-15974643D01*
X8940595Y-15984167D01*
X8950119Y-15993690D01*
X8959643Y-16012738D01*
X8959643Y-16069881D01*
X8950119Y-16088928D01*
X8940595Y-16098452D01*
X8921548Y-16107976D01*
X8892976Y-16107976D01*
X9073929Y-16107976D02*
X9054881Y-16098452D01*
X9045357Y-16079405D01*
X9045357Y-15907976D01*
X9226310Y-16098452D02*
X9207262Y-16107976D01*
X9169167Y-16107976D01*
X9150119Y-16098452D01*
X9140595Y-16079405D01*
X9140595Y-16003214D01*
X9150119Y-15984167D01*
X9169167Y-15974643D01*
X9207262Y-15974643D01*
X9226310Y-15984167D01*
X9235833Y-16003214D01*
X9235833Y-16022262D01*
X9140595Y-16041309D01*
X9312024Y-16098452D02*
X9331071Y-16107976D01*
X9369167Y-16107976D01*
X9388214Y-16098452D01*
X9397738Y-16079405D01*
X9397738Y-16069881D01*
X9388214Y-16050833D01*
X9369167Y-16041309D01*
X9340595Y-16041309D01*
X9321548Y-16031786D01*
X9312024Y-16012738D01*
X9312024Y-16003214D01*
X9321548Y-15984167D01*
X9340595Y-15974643D01*
X9369167Y-15974643D01*
X9388214Y-15984167D01*
X9464405Y-16184167D02*
X9473929Y-16174643D01*
X9492976Y-16146071D01*
X9502500Y-16127024D01*
X9512024Y-16098452D01*
X9521548Y-16050833D01*
X9521548Y-16012738D01*
X9512024Y-15965119D01*
X9502500Y-15936548D01*
X9492976Y-15917500D01*
X9473929Y-15888928D01*
X9464405Y-15879405D01*
D18*
X4542386Y-16206443D02*
X4692500Y-16356557D01*
X4692500Y-16206443D02*
X4542386Y-16356557D01*
X4617443Y-16206443D02*
X4617443Y-16356557D01*
X4542386Y-16281500D02*
X4692500Y-16281500D01*
D12*
X5054881Y-16371976D02*
X4940595Y-16371976D01*
X4997738Y-16371976D02*
X4997738Y-16171976D01*
X4978690Y-16200548D01*
X4959643Y-16219595D01*
X4940595Y-16229119D01*
X5140595Y-16352928D02*
X5150119Y-16362452D01*
X5140595Y-16371976D01*
X5131071Y-16362452D01*
X5140595Y-16352928D01*
X5140595Y-16371976D01*
X5331071Y-16171976D02*
X5235833Y-16171976D01*
X5226310Y-16267214D01*
X5235833Y-16257690D01*
X5254881Y-16248167D01*
X5302500Y-16248167D01*
X5321548Y-16257690D01*
X5331071Y-16267214D01*
X5340595Y-16286262D01*
X5340595Y-16333881D01*
X5331071Y-16352928D01*
X5321548Y-16362452D01*
X5302500Y-16371976D01*
X5254881Y-16371976D01*
X5235833Y-16362452D01*
X5226310Y-16352928D01*
X5464405Y-16171976D02*
X5483452Y-16171976D01*
X5502500Y-16181500D01*
X5512024Y-16191024D01*
X5521548Y-16210071D01*
X5531071Y-16248167D01*
X5531071Y-16295786D01*
X5521548Y-16333881D01*
X5512024Y-16352928D01*
X5502500Y-16362452D01*
X5483452Y-16371976D01*
X5464405Y-16371976D01*
X5445357Y-16362452D01*
X5435833Y-16352928D01*
X5426310Y-16333881D01*
X5416786Y-16295786D01*
X5416786Y-16248167D01*
X5426310Y-16210071D01*
X5435833Y-16191024D01*
X5445357Y-16181500D01*
X5464405Y-16171976D01*
X5721548Y-16371976D02*
X5607262Y-16371976D01*
X5664405Y-16371976D02*
X5664405Y-16171976D01*
X5645357Y-16200548D01*
X5626309Y-16219595D01*
X5607262Y-16229119D01*
X5807262Y-16371976D02*
X5807262Y-16238643D01*
X5807262Y-16257690D02*
X5816786Y-16248167D01*
X5835833Y-16238643D01*
X5864405Y-16238643D01*
X5883452Y-16248167D01*
X5892976Y-16267214D01*
X5892976Y-16371976D01*
X5892976Y-16267214D02*
X5902500Y-16248167D01*
X5921548Y-16238643D01*
X5950119Y-16238643D01*
X5969167Y-16248167D01*
X5978690Y-16267214D01*
X5978690Y-16371976D01*
X6073928Y-16371976D02*
X6073928Y-16238643D01*
X6073928Y-16257690D02*
X6083452Y-16248167D01*
X6102500Y-16238643D01*
X6131071Y-16238643D01*
X6150119Y-16248167D01*
X6159643Y-16267214D01*
X6159643Y-16371976D01*
X6159643Y-16267214D02*
X6169167Y-16248167D01*
X6188214Y-16238643D01*
X6216786Y-16238643D01*
X6235833Y-16248167D01*
X6245357Y-16267214D01*
X6245357Y-16371976D01*
X6635833Y-16162452D02*
X6464405Y-16419595D01*
X6892976Y-16171976D02*
X6912024Y-16171976D01*
X6931071Y-16181500D01*
X6940595Y-16191024D01*
X6950119Y-16210071D01*
X6959643Y-16248167D01*
X6959643Y-16295786D01*
X6950119Y-16333881D01*
X6940595Y-16352928D01*
X6931071Y-16362452D01*
X6912024Y-16371976D01*
X6892976Y-16371976D01*
X6873928Y-16362452D01*
X6864405Y-16352928D01*
X6854881Y-16333881D01*
X6845357Y-16295786D01*
X6845357Y-16248167D01*
X6854881Y-16210071D01*
X6864405Y-16191024D01*
X6873928Y-16181500D01*
X6892976Y-16171976D01*
X7045357Y-16352928D02*
X7054881Y-16362452D01*
X7045357Y-16371976D01*
X7035833Y-16362452D01*
X7045357Y-16352928D01*
X7045357Y-16371976D01*
X7178690Y-16171976D02*
X7197738Y-16171976D01*
X7216786Y-16181500D01*
X7226309Y-16191024D01*
X7235833Y-16210071D01*
X7245357Y-16248167D01*
X7245357Y-16295786D01*
X7235833Y-16333881D01*
X7226309Y-16352928D01*
X7216786Y-16362452D01*
X7197738Y-16371976D01*
X7178690Y-16371976D01*
X7159643Y-16362452D01*
X7150119Y-16352928D01*
X7140595Y-16333881D01*
X7131071Y-16295786D01*
X7131071Y-16248167D01*
X7140595Y-16210071D01*
X7150119Y-16191024D01*
X7159643Y-16181500D01*
X7178690Y-16171976D01*
X7426309Y-16171976D02*
X7331071Y-16171976D01*
X7321548Y-16267214D01*
X7331071Y-16257690D01*
X7350119Y-16248167D01*
X7397738Y-16248167D01*
X7416786Y-16257690D01*
X7426309Y-16267214D01*
X7435833Y-16286262D01*
X7435833Y-16333881D01*
X7426309Y-16352928D01*
X7416786Y-16362452D01*
X7397738Y-16371976D01*
X7350119Y-16371976D01*
X7331071Y-16362452D01*
X7321548Y-16352928D01*
X7531071Y-16371976D02*
X7569167Y-16371976D01*
X7588214Y-16362452D01*
X7597738Y-16352928D01*
X7616786Y-16324357D01*
X7626309Y-16286262D01*
X7626309Y-16210071D01*
X7616786Y-16191024D01*
X7607262Y-16181500D01*
X7588214Y-16171976D01*
X7550119Y-16171976D01*
X7531071Y-16181500D01*
X7521548Y-16191024D01*
X7512024Y-16210071D01*
X7512024Y-16257690D01*
X7521548Y-16276738D01*
X7531071Y-16286262D01*
X7550119Y-16295786D01*
X7588214Y-16295786D01*
X7607262Y-16286262D01*
X7616786Y-16276738D01*
X7626309Y-16257690D01*
X7816786Y-16371976D02*
X7702500Y-16371976D01*
X7759643Y-16371976D02*
X7759643Y-16171976D01*
X7740595Y-16200548D01*
X7721548Y-16219595D01*
X7702500Y-16229119D01*
X7892976Y-16171976D02*
X7892976Y-16210071D01*
X7969167Y-16171976D02*
X7969167Y-16210071D01*
X8264405Y-16448167D02*
X8254881Y-16438643D01*
X8235833Y-16410071D01*
X8226309Y-16391024D01*
X8216786Y-16362452D01*
X8207262Y-16314833D01*
X8207262Y-16276738D01*
X8216786Y-16229119D01*
X8226309Y-16200548D01*
X8235833Y-16181500D01*
X8254881Y-16152928D01*
X8264405Y-16143405D01*
X8331071Y-16191024D02*
X8340595Y-16181500D01*
X8359643Y-16171976D01*
X8407262Y-16171976D01*
X8426310Y-16181500D01*
X8435833Y-16191024D01*
X8445357Y-16210071D01*
X8445357Y-16229119D01*
X8435833Y-16257690D01*
X8321548Y-16371976D01*
X8445357Y-16371976D01*
X8683452Y-16371976D02*
X8683452Y-16171976D01*
X8769167Y-16371976D02*
X8769167Y-16267214D01*
X8759643Y-16248167D01*
X8740595Y-16238643D01*
X8712024Y-16238643D01*
X8692976Y-16248167D01*
X8683452Y-16257690D01*
X8892976Y-16371976D02*
X8873929Y-16362452D01*
X8864405Y-16352928D01*
X8854881Y-16333881D01*
X8854881Y-16276738D01*
X8864405Y-16257690D01*
X8873929Y-16248167D01*
X8892976Y-16238643D01*
X8921548Y-16238643D01*
X8940595Y-16248167D01*
X8950119Y-16257690D01*
X8959643Y-16276738D01*
X8959643Y-16333881D01*
X8950119Y-16352928D01*
X8940595Y-16362452D01*
X8921548Y-16371976D01*
X8892976Y-16371976D01*
X9073929Y-16371976D02*
X9054881Y-16362452D01*
X9045357Y-16343405D01*
X9045357Y-16171976D01*
X9226310Y-16362452D02*
X9207262Y-16371976D01*
X9169167Y-16371976D01*
X9150119Y-16362452D01*
X9140595Y-16343405D01*
X9140595Y-16267214D01*
X9150119Y-16248167D01*
X9169167Y-16238643D01*
X9207262Y-16238643D01*
X9226310Y-16248167D01*
X9235833Y-16267214D01*
X9235833Y-16286262D01*
X9140595Y-16305309D01*
X9312024Y-16362452D02*
X9331071Y-16371976D01*
X9369167Y-16371976D01*
X9388214Y-16362452D01*
X9397738Y-16343405D01*
X9397738Y-16333881D01*
X9388214Y-16314833D01*
X9369167Y-16305309D01*
X9340595Y-16305309D01*
X9321548Y-16295786D01*
X9312024Y-16276738D01*
X9312024Y-16267214D01*
X9321548Y-16248167D01*
X9340595Y-16238643D01*
X9369167Y-16238643D01*
X9388214Y-16248167D01*
X9464405Y-16448167D02*
X9473929Y-16438643D01*
X9492976Y-16410071D01*
X9502500Y-16391024D01*
X9512024Y-16362452D01*
X9521548Y-16314833D01*
X9521548Y-16276738D01*
X9512024Y-16229119D01*
X9502500Y-16200548D01*
X9492976Y-16181500D01*
X9473929Y-16152928D01*
X9464405Y-16143405D01*
M02*
