%TF.GenerationSoftware,KiCad,Pcbnew,6.0.7-f9a2dced07~116~ubuntu20.04.1*%
%TF.CreationDate,2022-11-24T17:15:52+00:00*%
%TF.ProjectId,testing_board,74657374-696e-4675-9f62-6f6172642e6b,rev?*%
%TF.SameCoordinates,Original*%
%TF.FileFunction,Other,User*%
%FSLAX46Y46*%
G04 Gerber Fmt 4.6, Leading zero omitted, Abs format (unit mm)*
G04 Created by KiCad (PCBNEW 6.0.7-f9a2dced07~116~ubuntu20.04.1) date 2022-11-24 17:15:52*
%MOMM*%
%LPD*%
G01*
G04 APERTURE LIST*
%ADD10C,0.050000*%
G04 APERTURE END LIST*
D10*
%TO.C,D1*%
X99349000Y-96376000D02*
X94849000Y-96376000D01*
X99349000Y-101226000D02*
X99349000Y-96376000D01*
X94849000Y-101226000D02*
X99349000Y-101226000D01*
X94849000Y-96376000D02*
X94849000Y-101226000D01*
%TO.C,D3*%
X78728000Y-100718000D02*
X78728000Y-95868000D01*
X74228000Y-95868000D02*
X74228000Y-100718000D01*
X78728000Y-95868000D02*
X74228000Y-95868000D01*
X74228000Y-100718000D02*
X78728000Y-100718000D01*
%TO.C,D4*%
X52096000Y-86253000D02*
X56596000Y-86253000D01*
X56596000Y-86253000D02*
X56596000Y-81403000D01*
X52096000Y-81403000D02*
X52096000Y-86253000D01*
X56596000Y-81403000D02*
X52096000Y-81403000D01*
%TO.C,D5*%
X56596000Y-87554000D02*
X52096000Y-87554000D01*
X56596000Y-92404000D02*
X56596000Y-87554000D01*
X52096000Y-87554000D02*
X52096000Y-92404000D01*
X52096000Y-92404000D02*
X56596000Y-92404000D01*
%TO.C,D6*%
X52487000Y-69984000D02*
X56987000Y-69984000D01*
X56987000Y-69984000D02*
X56987000Y-65134000D01*
X56987000Y-65134000D02*
X52487000Y-65134000D01*
X52487000Y-65134000D02*
X52487000Y-69984000D01*
%TO.C,D7*%
X52487000Y-76842000D02*
X56987000Y-76842000D01*
X56987000Y-76842000D02*
X56987000Y-71992000D01*
X52487000Y-71992000D02*
X52487000Y-76842000D01*
X56987000Y-71992000D02*
X52487000Y-71992000D01*
%TO.C,D8*%
X69584000Y-100718000D02*
X69584000Y-95868000D01*
X65084000Y-100718000D02*
X69584000Y-100718000D01*
X65084000Y-95868000D02*
X65084000Y-100718000D01*
X69584000Y-95868000D02*
X65084000Y-95868000D01*
%TO.C,D9*%
X76000000Y-40950000D02*
X71150000Y-40950000D01*
X71150000Y-45450000D02*
X76000000Y-45450000D01*
X76000000Y-45450000D02*
X76000000Y-40950000D01*
X71150000Y-40950000D02*
X71150000Y-45450000D01*
%TO.C,D10*%
X65875000Y-40950000D02*
X65875000Y-45450000D01*
X65875000Y-45450000D02*
X70725000Y-45450000D01*
X70725000Y-45450000D02*
X70725000Y-40950000D01*
X70725000Y-40950000D02*
X65875000Y-40950000D01*
%TO.C,D11*%
X60375000Y-45450000D02*
X65225000Y-45450000D01*
X65225000Y-45450000D02*
X65225000Y-40950000D01*
X65225000Y-40950000D02*
X60375000Y-40950000D01*
X60375000Y-40950000D02*
X60375000Y-45450000D01*
%TO.C,D12*%
X54900000Y-45450000D02*
X59750000Y-45450000D01*
X59750000Y-40950000D02*
X54900000Y-40950000D01*
X59750000Y-45450000D02*
X59750000Y-40950000D01*
X54900000Y-40950000D02*
X54900000Y-45450000D01*
%TO.C,D13*%
X54000000Y-101792000D02*
X58500000Y-101792000D01*
X58500000Y-96942000D02*
X54000000Y-96942000D01*
X54000000Y-96942000D02*
X54000000Y-101792000D01*
X58500000Y-101792000D02*
X58500000Y-96942000D01*
%TO.C,D14*%
X54000000Y-103825000D02*
X54000000Y-108675000D01*
X54000000Y-108675000D02*
X58500000Y-108675000D01*
X58500000Y-103825000D02*
X54000000Y-103825000D01*
X58500000Y-108675000D02*
X58500000Y-103825000D01*
%TO.C,D15*%
X71125000Y-46950000D02*
X71125000Y-51450000D01*
X75975000Y-51450000D02*
X75975000Y-46950000D01*
X71125000Y-51450000D02*
X75975000Y-51450000D01*
X75975000Y-46950000D02*
X71125000Y-46950000D01*
%TO.C,D16*%
X70725000Y-46950000D02*
X65875000Y-46950000D01*
X65875000Y-46950000D02*
X65875000Y-51450000D01*
X70725000Y-51450000D02*
X70725000Y-46950000D01*
X65875000Y-51450000D02*
X70725000Y-51450000D01*
%TO.C,D17*%
X60375000Y-46950000D02*
X60375000Y-51450000D01*
X60375000Y-51450000D02*
X65225000Y-51450000D01*
X65225000Y-46950000D02*
X60375000Y-46950000D01*
X65225000Y-51450000D02*
X65225000Y-46950000D01*
%TO.C,D18*%
X59725000Y-46950000D02*
X54875000Y-46950000D01*
X54875000Y-51450000D02*
X59725000Y-51450000D01*
X54875000Y-46950000D02*
X54875000Y-51450000D01*
X59725000Y-51450000D02*
X59725000Y-46950000D01*
%TO.C,J1*%
X99167000Y-110688000D02*
X85767000Y-110688000D01*
X99167000Y-117438000D02*
X99167000Y-110688000D01*
X85767000Y-110688000D02*
X85767000Y-117438000D01*
X85767000Y-117438000D02*
X99167000Y-117438000D01*
%TO.C,J2*%
X78927000Y-117311000D02*
X78927000Y-110561000D01*
X65527000Y-117311000D02*
X78927000Y-117311000D01*
X65527000Y-110561000D02*
X65527000Y-117311000D01*
X78927000Y-110561000D02*
X65527000Y-110561000D01*
%TO.C,J3*%
X46020000Y-93322000D02*
X46020000Y-79922000D01*
X39270000Y-79922000D02*
X39270000Y-93322000D01*
X39270000Y-93322000D02*
X46020000Y-93322000D01*
X46020000Y-79922000D02*
X39270000Y-79922000D01*
%TO.C,J4*%
X39407000Y-64360000D02*
X39407000Y-77760000D01*
X46157000Y-77760000D02*
X46157000Y-64360000D01*
X46157000Y-64360000D02*
X39407000Y-64360000D01*
X39407000Y-77760000D02*
X46157000Y-77760000D01*
%TO.C,J5*%
X110919999Y-117557999D02*
X124319999Y-117557999D01*
X124319999Y-117557999D02*
X124319999Y-110807999D01*
X124319999Y-110807999D02*
X110919999Y-110807999D01*
X110919999Y-110807999D02*
X110919999Y-117557999D01*
%TO.C,R1*%
X99800000Y-103571000D02*
X97700000Y-103571000D01*
X97700000Y-108111000D02*
X99800000Y-108111000D01*
X97700000Y-103571000D02*
X97700000Y-108111000D01*
X99800000Y-108111000D02*
X99800000Y-103571000D01*
%TO.C,R2*%
X88175000Y-103598000D02*
X88175000Y-108138000D01*
X88175000Y-108138000D02*
X90275000Y-108138000D01*
X90275000Y-108138000D02*
X90275000Y-103598000D01*
X90275000Y-103598000D02*
X88175000Y-103598000D01*
%TO.C,R3*%
X76952000Y-107884000D02*
X79052000Y-107884000D01*
X79052000Y-107884000D02*
X79052000Y-103344000D01*
X79052000Y-103344000D02*
X76952000Y-103344000D01*
X76952000Y-103344000D02*
X76952000Y-107884000D01*
%TO.C,R4*%
X49300000Y-80906000D02*
X47200000Y-80906000D01*
X47200000Y-80906000D02*
X47200000Y-85446000D01*
X47200000Y-85446000D02*
X49300000Y-85446000D01*
X49300000Y-85446000D02*
X49300000Y-80906000D01*
%TO.C,R5*%
X49300000Y-92050000D02*
X49300000Y-87510000D01*
X47200000Y-87510000D02*
X47200000Y-92050000D01*
X49300000Y-87510000D02*
X47200000Y-87510000D01*
X47200000Y-92050000D02*
X49300000Y-92050000D01*
%TO.C,R6*%
X47591000Y-65344000D02*
X47591000Y-69884000D01*
X47591000Y-69884000D02*
X49691000Y-69884000D01*
X49691000Y-69884000D02*
X49691000Y-65344000D01*
X49691000Y-65344000D02*
X47591000Y-65344000D01*
%TO.C,R7*%
X49691000Y-71948000D02*
X47591000Y-71948000D01*
X47591000Y-76488000D02*
X49691000Y-76488000D01*
X49691000Y-76488000D02*
X49691000Y-71948000D01*
X47591000Y-71948000D02*
X47591000Y-76488000D01*
%TO.C,R8*%
X94144000Y-103444000D02*
X94144000Y-107984000D01*
X96244000Y-107984000D02*
X96244000Y-103444000D01*
X94144000Y-107984000D02*
X96244000Y-107984000D01*
X96244000Y-103444000D02*
X94144000Y-103444000D01*
%TO.C,R9*%
X75623000Y-107857000D02*
X75623000Y-103317000D01*
X73523000Y-107857000D02*
X75623000Y-107857000D01*
X75623000Y-103317000D02*
X73523000Y-103317000D01*
X73523000Y-103317000D02*
X73523000Y-107857000D01*
%TO.C,R10*%
X64506000Y-107857000D02*
X66606000Y-107857000D01*
X66606000Y-103317000D02*
X64506000Y-103317000D01*
X66606000Y-107857000D02*
X66606000Y-103317000D01*
X64506000Y-103317000D02*
X64506000Y-107857000D01*
%TO.C,R11*%
X69908000Y-107857000D02*
X69908000Y-103317000D01*
X69908000Y-103317000D02*
X67808000Y-103317000D01*
X67808000Y-103317000D02*
X67808000Y-107857000D01*
X67808000Y-107857000D02*
X69908000Y-107857000D01*
%TO.C,R12*%
X84619000Y-107984000D02*
X86719000Y-107984000D01*
X84619000Y-103444000D02*
X84619000Y-107984000D01*
X86719000Y-107984000D02*
X86719000Y-103444000D01*
X86719000Y-103444000D02*
X84619000Y-103444000D01*
%TO.C,R13*%
X76020000Y-39250000D02*
X76020000Y-37150000D01*
X76020000Y-37150000D02*
X71480000Y-37150000D01*
X71480000Y-39250000D02*
X76020000Y-39250000D01*
X71480000Y-37150000D02*
X71480000Y-39250000D01*
%TO.C,R14*%
X70620000Y-37150000D02*
X66080000Y-37150000D01*
X66080000Y-39250000D02*
X70620000Y-39250000D01*
X66080000Y-37150000D02*
X66080000Y-39250000D01*
X70620000Y-39250000D02*
X70620000Y-37150000D01*
%TO.C,R15*%
X60480000Y-37150000D02*
X60480000Y-39250000D01*
X65020000Y-37150000D02*
X60480000Y-37150000D01*
X60480000Y-39250000D02*
X65020000Y-39250000D01*
X65020000Y-39250000D02*
X65020000Y-37150000D01*
%TO.C,R16*%
X55080000Y-37150000D02*
X55080000Y-39250000D01*
X59620000Y-39250000D02*
X59620000Y-37150000D01*
X55080000Y-39250000D02*
X59620000Y-39250000D01*
X59620000Y-37150000D02*
X55080000Y-37150000D01*
%TO.C,R17*%
X117137999Y-107849999D02*
X119237999Y-107849999D01*
X119237999Y-107849999D02*
X119237999Y-103309999D01*
X119237999Y-103309999D02*
X117137999Y-103309999D01*
X117137999Y-103309999D02*
X117137999Y-107849999D01*
%TO.C,R18*%
X81199000Y-35825000D02*
X85739000Y-35825000D01*
X81199000Y-33725000D02*
X81199000Y-35825000D01*
X85739000Y-35825000D02*
X85739000Y-33725000D01*
X85739000Y-33725000D02*
X81199000Y-33725000D01*
%TO.C,R19*%
X115427999Y-107849999D02*
X115427999Y-103309999D01*
X113327999Y-103309999D02*
X113327999Y-107849999D01*
X113327999Y-107849999D02*
X115427999Y-107849999D01*
X115427999Y-103309999D02*
X113327999Y-103309999D01*
%TO.C,R20*%
X104306000Y-70704000D02*
X106406000Y-70704000D01*
X106406000Y-70704000D02*
X106406000Y-66164000D01*
X106406000Y-66164000D02*
X104306000Y-66164000D01*
X104306000Y-66164000D02*
X104306000Y-70704000D01*
%TO.C,R21*%
X47326000Y-103656000D02*
X47326000Y-105756000D01*
X51866000Y-103656000D02*
X47326000Y-103656000D01*
X51866000Y-105756000D02*
X51866000Y-103656000D01*
X47326000Y-105756000D02*
X51866000Y-105756000D01*
%TO.C,R22*%
X76070000Y-53150000D02*
X71530000Y-53150000D01*
X71530000Y-55250000D02*
X76070000Y-55250000D01*
X71530000Y-53150000D02*
X71530000Y-55250000D01*
X76070000Y-55250000D02*
X76070000Y-53150000D01*
%TO.C,R23*%
X70570000Y-55250000D02*
X70570000Y-53150000D01*
X66030000Y-53150000D02*
X66030000Y-55250000D01*
X70570000Y-53150000D02*
X66030000Y-53150000D01*
X66030000Y-55250000D02*
X70570000Y-55250000D01*
%TO.C,R24*%
X65220000Y-53150000D02*
X60680000Y-53150000D01*
X60680000Y-55250000D02*
X65220000Y-55250000D01*
X60680000Y-53150000D02*
X60680000Y-55250000D01*
X65220000Y-55250000D02*
X65220000Y-53150000D01*
%TO.C,R25*%
X55080000Y-55250000D02*
X59620000Y-55250000D01*
X59620000Y-55250000D02*
X59620000Y-53150000D01*
X59620000Y-53150000D02*
X55080000Y-53150000D01*
X55080000Y-53150000D02*
X55080000Y-55250000D01*
%TO.C,RV1*%
X132497999Y-87199999D02*
X119197999Y-87199999D01*
X119197999Y-87199999D02*
X119197999Y-101599999D01*
X119197999Y-101599999D02*
X132497999Y-101599999D01*
X132497999Y-101599999D02*
X132497999Y-87199999D01*
%TO.C,RV2*%
X117257999Y-87199999D02*
X103957999Y-87199999D01*
X103957999Y-101599999D02*
X117257999Y-101599999D01*
X103957999Y-87199999D02*
X103957999Y-101599999D01*
X117257999Y-101599999D02*
X117257999Y-87199999D01*
%TO.C,SW1*%
X93313000Y-84964000D02*
X93563000Y-84964000D01*
X93313000Y-94214000D02*
X93313000Y-85214000D01*
X100563000Y-94464000D02*
X93563000Y-94464000D01*
X100813000Y-85214000D02*
X100813000Y-94214000D01*
X100813000Y-85214000D02*
X100813000Y-84964000D01*
X93563000Y-84964000D02*
X100563000Y-84964000D01*
X100563000Y-94464000D02*
X100813000Y-94464000D01*
X100813000Y-84964000D02*
X100563000Y-84964000D01*
X93313000Y-85214000D02*
X93313000Y-84964000D01*
X93313000Y-94464000D02*
X93313000Y-94214000D01*
X93563000Y-94464000D02*
X93313000Y-94464000D01*
X100813000Y-94464000D02*
X100813000Y-94214000D01*
%TO.C,SW2*%
X83661000Y-94214000D02*
X83661000Y-85214000D01*
X91161000Y-94464000D02*
X91161000Y-94214000D01*
X91161000Y-85214000D02*
X91161000Y-94214000D01*
X91161000Y-85214000D02*
X91161000Y-84964000D01*
X83661000Y-94464000D02*
X83661000Y-94214000D01*
X91161000Y-84964000D02*
X90911000Y-84964000D01*
X83911000Y-84964000D02*
X90911000Y-84964000D01*
X83661000Y-85214000D02*
X83661000Y-84964000D01*
X83911000Y-94464000D02*
X83661000Y-94464000D01*
X83661000Y-84964000D02*
X83911000Y-84964000D01*
X90911000Y-94464000D02*
X83911000Y-94464000D01*
X90911000Y-94464000D02*
X91161000Y-94464000D01*
%TO.C,SW3*%
X80192000Y-84456000D02*
X79942000Y-84456000D01*
X72692000Y-84456000D02*
X72942000Y-84456000D01*
X72692000Y-93956000D02*
X72692000Y-93706000D01*
X80192000Y-93956000D02*
X80192000Y-93706000D01*
X79942000Y-93956000D02*
X80192000Y-93956000D01*
X80192000Y-84706000D02*
X80192000Y-93706000D01*
X79942000Y-93956000D02*
X72942000Y-93956000D01*
X72692000Y-93706000D02*
X72692000Y-84706000D01*
X72942000Y-84456000D02*
X79942000Y-84456000D01*
X72942000Y-93956000D02*
X72692000Y-93956000D01*
X72692000Y-84706000D02*
X72692000Y-84456000D01*
X80192000Y-84706000D02*
X80192000Y-84456000D01*
%TO.C,SW4*%
X70798000Y-93956000D02*
X71048000Y-93956000D01*
X71048000Y-84706000D02*
X71048000Y-84456000D01*
X63798000Y-93956000D02*
X63548000Y-93956000D01*
X63548000Y-84706000D02*
X63548000Y-84456000D01*
X71048000Y-93956000D02*
X71048000Y-93706000D01*
X63548000Y-84456000D02*
X63798000Y-84456000D01*
X70798000Y-93956000D02*
X63798000Y-93956000D01*
X63548000Y-93956000D02*
X63548000Y-93706000D01*
X63798000Y-84456000D02*
X70798000Y-84456000D01*
X71048000Y-84456000D02*
X70798000Y-84456000D01*
X71048000Y-84706000D02*
X71048000Y-93706000D01*
X63548000Y-93706000D02*
X63548000Y-84706000D01*
%TO.C,U1*%
X86369000Y-41150000D02*
X80569000Y-41150000D01*
X86369000Y-41150000D02*
X86369000Y-45400000D01*
X86369000Y-45400000D02*
X80569000Y-45400000D01*
X80569000Y-41150000D02*
X80569000Y-45400000D01*
%TO.C,U2*%
X86369000Y-47900000D02*
X80569000Y-47900000D01*
X86369000Y-47900000D02*
X86369000Y-52150000D01*
X80569000Y-47900000D02*
X80569000Y-52150000D01*
X86369000Y-52150000D02*
X80569000Y-52150000D01*
%TO.C,J16*%
X77950000Y-29450000D02*
X91350000Y-29450000D01*
X91350000Y-29450000D02*
X91350000Y-22700000D01*
X77950000Y-22700000D02*
X77950000Y-29450000D01*
X91350000Y-22700000D02*
X77950000Y-22700000D01*
%TO.C,R26*%
X108770000Y-103120000D02*
X106670000Y-103120000D01*
X106670000Y-107660000D02*
X108770000Y-107660000D01*
X106670000Y-103120000D02*
X106670000Y-107660000D01*
X108770000Y-107660000D02*
X108770000Y-103120000D01*
%TO.C,D2*%
X85324000Y-96503000D02*
X85324000Y-101353000D01*
X85324000Y-101353000D02*
X89824000Y-101353000D01*
X89824000Y-96503000D02*
X85324000Y-96503000D01*
X89824000Y-101353000D02*
X89824000Y-96503000D01*
%TO.C,D21*%
X118600000Y-70550000D02*
X123100000Y-70550000D01*
X123100000Y-70550000D02*
X123100000Y-65700000D01*
X118600000Y-65700000D02*
X118600000Y-70550000D01*
X123100000Y-65700000D02*
X118600000Y-65700000D01*
%TO.C,D22*%
X96375000Y-70677000D02*
X100875000Y-70677000D01*
X96375000Y-65827000D02*
X96375000Y-70677000D01*
X100875000Y-65827000D02*
X96375000Y-65827000D01*
X100875000Y-70677000D02*
X100875000Y-65827000D01*
%TO.C,J7*%
X46446000Y-22389000D02*
X46446000Y-29139000D01*
X59846000Y-22389000D02*
X46446000Y-22389000D01*
X46446000Y-29139000D02*
X59846000Y-29139000D01*
X59846000Y-29139000D02*
X59846000Y-22389000D01*
%TO.C,J8*%
X60162000Y-29139000D02*
X73562000Y-29139000D01*
X73562000Y-22389000D02*
X60162000Y-22389000D01*
X60162000Y-22389000D02*
X60162000Y-29139000D01*
X73562000Y-29139000D02*
X73562000Y-22389000D01*
%TO.C,J9*%
X105574000Y-22447000D02*
X105574000Y-29197000D01*
X105574000Y-29197000D02*
X118974000Y-29197000D01*
X118974000Y-29197000D02*
X118974000Y-22447000D01*
X118974000Y-22447000D02*
X105574000Y-22447000D01*
%TO.C,R27*%
X51866000Y-101438000D02*
X51866000Y-99338000D01*
X47326000Y-101438000D02*
X51866000Y-101438000D01*
X47326000Y-99338000D02*
X47326000Y-101438000D01*
X51866000Y-99338000D02*
X47326000Y-99338000D01*
%TO.C,R28*%
X126150000Y-65910000D02*
X126150000Y-70450000D01*
X128250000Y-65910000D02*
X126150000Y-65910000D01*
X128250000Y-70450000D02*
X128250000Y-65910000D01*
X126150000Y-70450000D02*
X128250000Y-70450000D01*
%TO.C,RLY1*%
X131940000Y-63615000D02*
X114840000Y-63615000D01*
X114840000Y-63615000D02*
X114840000Y-40515000D01*
X131940000Y-40515000D02*
X131940000Y-63615000D01*
X131940000Y-40515000D02*
X114840000Y-40515000D01*
%TO.C,RLY2*%
X110858000Y-40515000D02*
X93758000Y-40515000D01*
X110858000Y-40515000D02*
X110858000Y-63615000D01*
X93758000Y-63615000D02*
X93758000Y-40515000D01*
X110858000Y-63615000D02*
X93758000Y-63615000D01*
%TO.C,U3*%
X40350000Y-59800000D02*
X50900000Y-59800000D01*
X50900000Y-59800000D02*
X50900000Y-33850000D01*
X40350000Y-33850000D02*
X40350000Y-59800000D01*
X50900000Y-33850000D02*
X40350000Y-33850000D01*
%TO.C,J6*%
X45765000Y-108933000D02*
X45765000Y-95533000D01*
X45765000Y-95533000D02*
X39015000Y-95533000D01*
X39015000Y-108933000D02*
X45765000Y-108933000D01*
X39015000Y-95533000D02*
X39015000Y-108933000D01*
%TO.C,D19*%
X132179000Y-32337000D02*
X113839000Y-32337000D01*
X113839000Y-32337000D02*
X113839000Y-38137000D01*
X132179000Y-38137000D02*
X132179000Y-32337000D01*
X113839000Y-38137000D02*
X132179000Y-38137000D01*
%TO.C,D20*%
X111605000Y-32337000D02*
X93265000Y-32337000D01*
X93265000Y-32337000D02*
X93265000Y-38137000D01*
X93265000Y-38137000D02*
X111605000Y-38137000D01*
X111605000Y-38137000D02*
X111605000Y-32337000D01*
%TO.C,R29*%
X123450000Y-107770000D02*
X125550000Y-107770000D01*
X125550000Y-103230000D02*
X123450000Y-103230000D01*
X123450000Y-103230000D02*
X123450000Y-107770000D01*
X125550000Y-107770000D02*
X125550000Y-103230000D01*
%TO.C,C1*%
X51250000Y-30750000D02*
X51250000Y-36250000D01*
X51250000Y-36250000D02*
X63750000Y-36250000D01*
X63750000Y-36250000D02*
X63750000Y-30750000D01*
X63750000Y-30750000D02*
X51250000Y-30750000D01*
%TO.C,H2*%
X133860000Y-25400000D02*
G75*
G03*
X133860000Y-25400000I-3050000J0D01*
G01*
%TO.C,H3*%
X44960000Y-114300000D02*
G75*
G03*
X44960000Y-114300000I-3050000J0D01*
G01*
%TO.C,H4*%
X133860000Y-114300000D02*
G75*
G03*
X133860000Y-114300000I-3050000J0D01*
G01*
%TO.C,H1*%
X44706000Y-25146000D02*
G75*
G03*
X44706000Y-25146000I-3050000J0D01*
G01*
%TD*%
M02*
