%TF.GenerationSoftware,KiCad,Pcbnew,6.0.7-f9a2dced07~116~ubuntu20.04.1*%
%TF.CreationDate,2022-11-24T17:15:52+00:00*%
%TF.ProjectId,testing_board,74657374-696e-4675-9f62-6f6172642e6b,rev?*%
%TF.SameCoordinates,Original*%
%TF.FileFunction,AssemblyDrawing,Top*%
%FSLAX46Y46*%
G04 Gerber Fmt 4.6, Leading zero omitted, Abs format (unit mm)*
G04 Created by KiCad (PCBNEW 6.0.7-f9a2dced07~116~ubuntu20.04.1) date 2022-11-24 17:15:52*
%MOMM*%
%LPD*%
G01*
G04 APERTURE LIST*
%ADD10C,0.150000*%
%ADD11C,0.100000*%
G04 APERTURE END LIST*
D10*
%TO.C,D1*%
X100511380Y-99448857D02*
X100511380Y-99925047D01*
X99511380Y-99925047D01*
X99987571Y-99115523D02*
X99987571Y-98782190D01*
X100511380Y-98639333D02*
X100511380Y-99115523D01*
X99511380Y-99115523D01*
X99511380Y-98639333D01*
X100511380Y-98210761D02*
X99511380Y-98210761D01*
X99511380Y-97972666D01*
X99559000Y-97829809D01*
X99654238Y-97734571D01*
X99749476Y-97686952D01*
X99939952Y-97639333D01*
X100082809Y-97639333D01*
X100273285Y-97686952D01*
X100368523Y-97734571D01*
X100463761Y-97829809D01*
X100511380Y-97972666D01*
X100511380Y-98210761D01*
%TO.C,D3*%
X79890380Y-98940857D02*
X79890380Y-99417047D01*
X78890380Y-99417047D01*
X79366571Y-98607523D02*
X79366571Y-98274190D01*
X79890380Y-98131333D02*
X79890380Y-98607523D01*
X78890380Y-98607523D01*
X78890380Y-98131333D01*
X79890380Y-97702761D02*
X78890380Y-97702761D01*
X78890380Y-97464666D01*
X78938000Y-97321809D01*
X79033238Y-97226571D01*
X79128476Y-97178952D01*
X79318952Y-97131333D01*
X79461809Y-97131333D01*
X79652285Y-97178952D01*
X79747523Y-97226571D01*
X79842761Y-97321809D01*
X79890380Y-97464666D01*
X79890380Y-97702761D01*
%TO.C,D4*%
X57758380Y-84475857D02*
X57758380Y-84952047D01*
X56758380Y-84952047D01*
X57234571Y-84142523D02*
X57234571Y-83809190D01*
X57758380Y-83666333D02*
X57758380Y-84142523D01*
X56758380Y-84142523D01*
X56758380Y-83666333D01*
X57758380Y-83237761D02*
X56758380Y-83237761D01*
X56758380Y-82999666D01*
X56806000Y-82856809D01*
X56901238Y-82761571D01*
X56996476Y-82713952D01*
X57186952Y-82666333D01*
X57329809Y-82666333D01*
X57520285Y-82713952D01*
X57615523Y-82761571D01*
X57710761Y-82856809D01*
X57758380Y-82999666D01*
X57758380Y-83237761D01*
%TO.C,D5*%
X57758380Y-90626857D02*
X57758380Y-91103047D01*
X56758380Y-91103047D01*
X57234571Y-90293523D02*
X57234571Y-89960190D01*
X57758380Y-89817333D02*
X57758380Y-90293523D01*
X56758380Y-90293523D01*
X56758380Y-89817333D01*
X57758380Y-89388761D02*
X56758380Y-89388761D01*
X56758380Y-89150666D01*
X56806000Y-89007809D01*
X56901238Y-88912571D01*
X56996476Y-88864952D01*
X57186952Y-88817333D01*
X57329809Y-88817333D01*
X57520285Y-88864952D01*
X57615523Y-88912571D01*
X57710761Y-89007809D01*
X57758380Y-89150666D01*
X57758380Y-89388761D01*
%TO.C,D6*%
X58149380Y-68206857D02*
X58149380Y-68683047D01*
X57149380Y-68683047D01*
X57625571Y-67873523D02*
X57625571Y-67540190D01*
X58149380Y-67397333D02*
X58149380Y-67873523D01*
X57149380Y-67873523D01*
X57149380Y-67397333D01*
X58149380Y-66968761D02*
X57149380Y-66968761D01*
X57149380Y-66730666D01*
X57197000Y-66587809D01*
X57292238Y-66492571D01*
X57387476Y-66444952D01*
X57577952Y-66397333D01*
X57720809Y-66397333D01*
X57911285Y-66444952D01*
X58006523Y-66492571D01*
X58101761Y-66587809D01*
X58149380Y-66730666D01*
X58149380Y-66968761D01*
%TO.C,D7*%
X58149380Y-75064857D02*
X58149380Y-75541047D01*
X57149380Y-75541047D01*
X57625571Y-74731523D02*
X57625571Y-74398190D01*
X58149380Y-74255333D02*
X58149380Y-74731523D01*
X57149380Y-74731523D01*
X57149380Y-74255333D01*
X58149380Y-73826761D02*
X57149380Y-73826761D01*
X57149380Y-73588666D01*
X57197000Y-73445809D01*
X57292238Y-73350571D01*
X57387476Y-73302952D01*
X57577952Y-73255333D01*
X57720809Y-73255333D01*
X57911285Y-73302952D01*
X58006523Y-73350571D01*
X58101761Y-73445809D01*
X58149380Y-73588666D01*
X58149380Y-73826761D01*
%TO.C,D8*%
X70746380Y-98940857D02*
X70746380Y-99417047D01*
X69746380Y-99417047D01*
X70222571Y-98607523D02*
X70222571Y-98274190D01*
X70746380Y-98131333D02*
X70746380Y-98607523D01*
X69746380Y-98607523D01*
X69746380Y-98131333D01*
X70746380Y-97702761D02*
X69746380Y-97702761D01*
X69746380Y-97464666D01*
X69794000Y-97321809D01*
X69889238Y-97226571D01*
X69984476Y-97178952D01*
X70174952Y-97131333D01*
X70317809Y-97131333D01*
X70508285Y-97178952D01*
X70603523Y-97226571D01*
X70698761Y-97321809D01*
X70746380Y-97464666D01*
X70746380Y-97702761D01*
%TO.C,D9*%
X72927142Y-46612380D02*
X72450952Y-46612380D01*
X72450952Y-45612380D01*
X73260476Y-46088571D02*
X73593809Y-46088571D01*
X73736666Y-46612380D02*
X73260476Y-46612380D01*
X73260476Y-45612380D01*
X73736666Y-45612380D01*
X74165238Y-46612380D02*
X74165238Y-45612380D01*
X74403333Y-45612380D01*
X74546190Y-45660000D01*
X74641428Y-45755238D01*
X74689047Y-45850476D01*
X74736666Y-46040952D01*
X74736666Y-46183809D01*
X74689047Y-46374285D01*
X74641428Y-46469523D01*
X74546190Y-46564761D01*
X74403333Y-46612380D01*
X74165238Y-46612380D01*
%TO.C,D10*%
X67652142Y-46612380D02*
X67175952Y-46612380D01*
X67175952Y-45612380D01*
X67985476Y-46088571D02*
X68318809Y-46088571D01*
X68461666Y-46612380D02*
X67985476Y-46612380D01*
X67985476Y-45612380D01*
X68461666Y-45612380D01*
X68890238Y-46612380D02*
X68890238Y-45612380D01*
X69128333Y-45612380D01*
X69271190Y-45660000D01*
X69366428Y-45755238D01*
X69414047Y-45850476D01*
X69461666Y-46040952D01*
X69461666Y-46183809D01*
X69414047Y-46374285D01*
X69366428Y-46469523D01*
X69271190Y-46564761D01*
X69128333Y-46612380D01*
X68890238Y-46612380D01*
%TO.C,D11*%
X62152142Y-46612380D02*
X61675952Y-46612380D01*
X61675952Y-45612380D01*
X62485476Y-46088571D02*
X62818809Y-46088571D01*
X62961666Y-46612380D02*
X62485476Y-46612380D01*
X62485476Y-45612380D01*
X62961666Y-45612380D01*
X63390238Y-46612380D02*
X63390238Y-45612380D01*
X63628333Y-45612380D01*
X63771190Y-45660000D01*
X63866428Y-45755238D01*
X63914047Y-45850476D01*
X63961666Y-46040952D01*
X63961666Y-46183809D01*
X63914047Y-46374285D01*
X63866428Y-46469523D01*
X63771190Y-46564761D01*
X63628333Y-46612380D01*
X63390238Y-46612380D01*
%TO.C,D12*%
X56677142Y-46612380D02*
X56200952Y-46612380D01*
X56200952Y-45612380D01*
X57010476Y-46088571D02*
X57343809Y-46088571D01*
X57486666Y-46612380D02*
X57010476Y-46612380D01*
X57010476Y-45612380D01*
X57486666Y-45612380D01*
X57915238Y-46612380D02*
X57915238Y-45612380D01*
X58153333Y-45612380D01*
X58296190Y-45660000D01*
X58391428Y-45755238D01*
X58439047Y-45850476D01*
X58486666Y-46040952D01*
X58486666Y-46183809D01*
X58439047Y-46374285D01*
X58391428Y-46469523D01*
X58296190Y-46564761D01*
X58153333Y-46612380D01*
X57915238Y-46612380D01*
%TO.C,D13*%
X59662380Y-100014857D02*
X59662380Y-100491047D01*
X58662380Y-100491047D01*
X59138571Y-99681523D02*
X59138571Y-99348190D01*
X59662380Y-99205333D02*
X59662380Y-99681523D01*
X58662380Y-99681523D01*
X58662380Y-99205333D01*
X59662380Y-98776761D02*
X58662380Y-98776761D01*
X58662380Y-98538666D01*
X58710000Y-98395809D01*
X58805238Y-98300571D01*
X58900476Y-98252952D01*
X59090952Y-98205333D01*
X59233809Y-98205333D01*
X59424285Y-98252952D01*
X59519523Y-98300571D01*
X59614761Y-98395809D01*
X59662380Y-98538666D01*
X59662380Y-98776761D01*
%TO.C,D14*%
X59662380Y-106897857D02*
X59662380Y-107374047D01*
X58662380Y-107374047D01*
X59138571Y-106564523D02*
X59138571Y-106231190D01*
X59662380Y-106088333D02*
X59662380Y-106564523D01*
X58662380Y-106564523D01*
X58662380Y-106088333D01*
X59662380Y-105659761D02*
X58662380Y-105659761D01*
X58662380Y-105421666D01*
X58710000Y-105278809D01*
X58805238Y-105183571D01*
X58900476Y-105135952D01*
X59090952Y-105088333D01*
X59233809Y-105088333D01*
X59424285Y-105135952D01*
X59519523Y-105183571D01*
X59614761Y-105278809D01*
X59662380Y-105421666D01*
X59662380Y-105659761D01*
%TO.C,D15*%
X72902142Y-52612380D02*
X72425952Y-52612380D01*
X72425952Y-51612380D01*
X73235476Y-52088571D02*
X73568809Y-52088571D01*
X73711666Y-52612380D02*
X73235476Y-52612380D01*
X73235476Y-51612380D01*
X73711666Y-51612380D01*
X74140238Y-52612380D02*
X74140238Y-51612380D01*
X74378333Y-51612380D01*
X74521190Y-51660000D01*
X74616428Y-51755238D01*
X74664047Y-51850476D01*
X74711666Y-52040952D01*
X74711666Y-52183809D01*
X74664047Y-52374285D01*
X74616428Y-52469523D01*
X74521190Y-52564761D01*
X74378333Y-52612380D01*
X74140238Y-52612380D01*
%TO.C,D16*%
X67652142Y-52612380D02*
X67175952Y-52612380D01*
X67175952Y-51612380D01*
X67985476Y-52088571D02*
X68318809Y-52088571D01*
X68461666Y-52612380D02*
X67985476Y-52612380D01*
X67985476Y-51612380D01*
X68461666Y-51612380D01*
X68890238Y-52612380D02*
X68890238Y-51612380D01*
X69128333Y-51612380D01*
X69271190Y-51660000D01*
X69366428Y-51755238D01*
X69414047Y-51850476D01*
X69461666Y-52040952D01*
X69461666Y-52183809D01*
X69414047Y-52374285D01*
X69366428Y-52469523D01*
X69271190Y-52564761D01*
X69128333Y-52612380D01*
X68890238Y-52612380D01*
%TO.C,D17*%
X62152142Y-52612380D02*
X61675952Y-52612380D01*
X61675952Y-51612380D01*
X62485476Y-52088571D02*
X62818809Y-52088571D01*
X62961666Y-52612380D02*
X62485476Y-52612380D01*
X62485476Y-51612380D01*
X62961666Y-51612380D01*
X63390238Y-52612380D02*
X63390238Y-51612380D01*
X63628333Y-51612380D01*
X63771190Y-51660000D01*
X63866428Y-51755238D01*
X63914047Y-51850476D01*
X63961666Y-52040952D01*
X63961666Y-52183809D01*
X63914047Y-52374285D01*
X63866428Y-52469523D01*
X63771190Y-52564761D01*
X63628333Y-52612380D01*
X63390238Y-52612380D01*
%TO.C,D18*%
X56652142Y-52612380D02*
X56175952Y-52612380D01*
X56175952Y-51612380D01*
X56985476Y-52088571D02*
X57318809Y-52088571D01*
X57461666Y-52612380D02*
X56985476Y-52612380D01*
X56985476Y-51612380D01*
X57461666Y-51612380D01*
X57890238Y-52612380D02*
X57890238Y-51612380D01*
X58128333Y-51612380D01*
X58271190Y-51660000D01*
X58366428Y-51755238D01*
X58414047Y-51850476D01*
X58461666Y-52040952D01*
X58461666Y-52183809D01*
X58414047Y-52374285D01*
X58366428Y-52469523D01*
X58271190Y-52564761D01*
X58128333Y-52612380D01*
X57890238Y-52612380D01*
%TO.C,J1*%
X88728904Y-118495142D02*
X88681285Y-118542761D01*
X88538428Y-118590380D01*
X88443190Y-118590380D01*
X88300333Y-118542761D01*
X88205095Y-118447523D01*
X88157476Y-118352285D01*
X88109857Y-118161809D01*
X88109857Y-118018952D01*
X88157476Y-117828476D01*
X88205095Y-117733238D01*
X88300333Y-117638000D01*
X88443190Y-117590380D01*
X88538428Y-117590380D01*
X88681285Y-117638000D01*
X88728904Y-117685619D01*
X89300333Y-118590380D02*
X89205095Y-118542761D01*
X89157476Y-118495142D01*
X89109857Y-118399904D01*
X89109857Y-118114190D01*
X89157476Y-118018952D01*
X89205095Y-117971333D01*
X89300333Y-117923714D01*
X89443190Y-117923714D01*
X89538428Y-117971333D01*
X89586047Y-118018952D01*
X89633666Y-118114190D01*
X89633666Y-118399904D01*
X89586047Y-118495142D01*
X89538428Y-118542761D01*
X89443190Y-118590380D01*
X89300333Y-118590380D01*
X90062238Y-117923714D02*
X90062238Y-118590380D01*
X90062238Y-118018952D02*
X90109857Y-117971333D01*
X90205095Y-117923714D01*
X90347952Y-117923714D01*
X90443190Y-117971333D01*
X90490809Y-118066571D01*
X90490809Y-118590380D01*
X90967000Y-117923714D02*
X90967000Y-118590380D01*
X90967000Y-118018952D02*
X91014619Y-117971333D01*
X91109857Y-117923714D01*
X91252714Y-117923714D01*
X91347952Y-117971333D01*
X91395571Y-118066571D01*
X91395571Y-118590380D01*
X91633666Y-118685619D02*
X92395571Y-118685619D01*
X92824142Y-117590380D02*
X92919380Y-117590380D01*
X93014619Y-117638000D01*
X93062238Y-117685619D01*
X93109857Y-117780857D01*
X93157476Y-117971333D01*
X93157476Y-118209428D01*
X93109857Y-118399904D01*
X93062238Y-118495142D01*
X93014619Y-118542761D01*
X92919380Y-118590380D01*
X92824142Y-118590380D01*
X92728904Y-118542761D01*
X92681285Y-118495142D01*
X92633666Y-118399904D01*
X92586047Y-118209428D01*
X92586047Y-117971333D01*
X92633666Y-117780857D01*
X92681285Y-117685619D01*
X92728904Y-117638000D01*
X92824142Y-117590380D01*
X94109857Y-118590380D02*
X93538428Y-118590380D01*
X93824142Y-118590380D02*
X93824142Y-117590380D01*
X93728904Y-117733238D01*
X93633666Y-117828476D01*
X93538428Y-117876095D01*
X94443190Y-118590380D02*
X94967000Y-117923714D01*
X94443190Y-117923714D02*
X94967000Y-118590380D01*
X95538428Y-117590380D02*
X95633666Y-117590380D01*
X95728904Y-117638000D01*
X95776523Y-117685619D01*
X95824142Y-117780857D01*
X95871761Y-117971333D01*
X95871761Y-118209428D01*
X95824142Y-118399904D01*
X95776523Y-118495142D01*
X95728904Y-118542761D01*
X95633666Y-118590380D01*
X95538428Y-118590380D01*
X95443190Y-118542761D01*
X95395571Y-118495142D01*
X95347952Y-118399904D01*
X95300333Y-118209428D01*
X95300333Y-117971333D01*
X95347952Y-117780857D01*
X95395571Y-117685619D01*
X95443190Y-117638000D01*
X95538428Y-117590380D01*
X96728904Y-117923714D02*
X96728904Y-118590380D01*
X96490809Y-117542761D02*
X96252714Y-118257047D01*
X96871761Y-118257047D01*
X92133666Y-115690380D02*
X92133666Y-116404666D01*
X92086047Y-116547523D01*
X91990809Y-116642761D01*
X91847952Y-116690380D01*
X91752714Y-116690380D01*
X93133666Y-116690380D02*
X92562238Y-116690380D01*
X92847952Y-116690380D02*
X92847952Y-115690380D01*
X92752714Y-115833238D01*
X92657476Y-115928476D01*
X92562238Y-115976095D01*
%TO.C,J2*%
X68488904Y-118368142D02*
X68441285Y-118415761D01*
X68298428Y-118463380D01*
X68203190Y-118463380D01*
X68060333Y-118415761D01*
X67965095Y-118320523D01*
X67917476Y-118225285D01*
X67869857Y-118034809D01*
X67869857Y-117891952D01*
X67917476Y-117701476D01*
X67965095Y-117606238D01*
X68060333Y-117511000D01*
X68203190Y-117463380D01*
X68298428Y-117463380D01*
X68441285Y-117511000D01*
X68488904Y-117558619D01*
X69060333Y-118463380D02*
X68965095Y-118415761D01*
X68917476Y-118368142D01*
X68869857Y-118272904D01*
X68869857Y-117987190D01*
X68917476Y-117891952D01*
X68965095Y-117844333D01*
X69060333Y-117796714D01*
X69203190Y-117796714D01*
X69298428Y-117844333D01*
X69346047Y-117891952D01*
X69393666Y-117987190D01*
X69393666Y-118272904D01*
X69346047Y-118368142D01*
X69298428Y-118415761D01*
X69203190Y-118463380D01*
X69060333Y-118463380D01*
X69822238Y-117796714D02*
X69822238Y-118463380D01*
X69822238Y-117891952D02*
X69869857Y-117844333D01*
X69965095Y-117796714D01*
X70107952Y-117796714D01*
X70203190Y-117844333D01*
X70250809Y-117939571D01*
X70250809Y-118463380D01*
X70727000Y-117796714D02*
X70727000Y-118463380D01*
X70727000Y-117891952D02*
X70774619Y-117844333D01*
X70869857Y-117796714D01*
X71012714Y-117796714D01*
X71107952Y-117844333D01*
X71155571Y-117939571D01*
X71155571Y-118463380D01*
X71393666Y-118558619D02*
X72155571Y-118558619D01*
X72584142Y-117463380D02*
X72679380Y-117463380D01*
X72774619Y-117511000D01*
X72822238Y-117558619D01*
X72869857Y-117653857D01*
X72917476Y-117844333D01*
X72917476Y-118082428D01*
X72869857Y-118272904D01*
X72822238Y-118368142D01*
X72774619Y-118415761D01*
X72679380Y-118463380D01*
X72584142Y-118463380D01*
X72488904Y-118415761D01*
X72441285Y-118368142D01*
X72393666Y-118272904D01*
X72346047Y-118082428D01*
X72346047Y-117844333D01*
X72393666Y-117653857D01*
X72441285Y-117558619D01*
X72488904Y-117511000D01*
X72584142Y-117463380D01*
X73869857Y-118463380D02*
X73298428Y-118463380D01*
X73584142Y-118463380D02*
X73584142Y-117463380D01*
X73488904Y-117606238D01*
X73393666Y-117701476D01*
X73298428Y-117749095D01*
X74203190Y-118463380D02*
X74727000Y-117796714D01*
X74203190Y-117796714D02*
X74727000Y-118463380D01*
X75298428Y-117463380D02*
X75393666Y-117463380D01*
X75488904Y-117511000D01*
X75536523Y-117558619D01*
X75584142Y-117653857D01*
X75631761Y-117844333D01*
X75631761Y-118082428D01*
X75584142Y-118272904D01*
X75536523Y-118368142D01*
X75488904Y-118415761D01*
X75393666Y-118463380D01*
X75298428Y-118463380D01*
X75203190Y-118415761D01*
X75155571Y-118368142D01*
X75107952Y-118272904D01*
X75060333Y-118082428D01*
X75060333Y-117844333D01*
X75107952Y-117653857D01*
X75155571Y-117558619D01*
X75203190Y-117511000D01*
X75298428Y-117463380D01*
X76488904Y-117796714D02*
X76488904Y-118463380D01*
X76250809Y-117415761D02*
X76012714Y-118130047D01*
X76631761Y-118130047D01*
X71893666Y-115563380D02*
X71893666Y-116277666D01*
X71846047Y-116420523D01*
X71750809Y-116515761D01*
X71607952Y-116563380D01*
X71512714Y-116563380D01*
X72322238Y-115658619D02*
X72369857Y-115611000D01*
X72465095Y-115563380D01*
X72703190Y-115563380D01*
X72798428Y-115611000D01*
X72846047Y-115658619D01*
X72893666Y-115753857D01*
X72893666Y-115849095D01*
X72846047Y-115991952D01*
X72274619Y-116563380D01*
X72893666Y-116563380D01*
%TO.C,J3*%
X38927142Y-90360095D02*
X38974761Y-90407714D01*
X39022380Y-90550571D01*
X39022380Y-90645809D01*
X38974761Y-90788666D01*
X38879523Y-90883904D01*
X38784285Y-90931523D01*
X38593809Y-90979142D01*
X38450952Y-90979142D01*
X38260476Y-90931523D01*
X38165238Y-90883904D01*
X38070000Y-90788666D01*
X38022380Y-90645809D01*
X38022380Y-90550571D01*
X38070000Y-90407714D01*
X38117619Y-90360095D01*
X39022380Y-89788666D02*
X38974761Y-89883904D01*
X38927142Y-89931523D01*
X38831904Y-89979142D01*
X38546190Y-89979142D01*
X38450952Y-89931523D01*
X38403333Y-89883904D01*
X38355714Y-89788666D01*
X38355714Y-89645809D01*
X38403333Y-89550571D01*
X38450952Y-89502952D01*
X38546190Y-89455333D01*
X38831904Y-89455333D01*
X38927142Y-89502952D01*
X38974761Y-89550571D01*
X39022380Y-89645809D01*
X39022380Y-89788666D01*
X38355714Y-89026761D02*
X39022380Y-89026761D01*
X38450952Y-89026761D02*
X38403333Y-88979142D01*
X38355714Y-88883904D01*
X38355714Y-88741047D01*
X38403333Y-88645809D01*
X38498571Y-88598190D01*
X39022380Y-88598190D01*
X38355714Y-88122000D02*
X39022380Y-88122000D01*
X38450952Y-88122000D02*
X38403333Y-88074380D01*
X38355714Y-87979142D01*
X38355714Y-87836285D01*
X38403333Y-87741047D01*
X38498571Y-87693428D01*
X39022380Y-87693428D01*
X39117619Y-87455333D02*
X39117619Y-86693428D01*
X38022380Y-86264857D02*
X38022380Y-86169619D01*
X38070000Y-86074380D01*
X38117619Y-86026761D01*
X38212857Y-85979142D01*
X38403333Y-85931523D01*
X38641428Y-85931523D01*
X38831904Y-85979142D01*
X38927142Y-86026761D01*
X38974761Y-86074380D01*
X39022380Y-86169619D01*
X39022380Y-86264857D01*
X38974761Y-86360095D01*
X38927142Y-86407714D01*
X38831904Y-86455333D01*
X38641428Y-86502952D01*
X38403333Y-86502952D01*
X38212857Y-86455333D01*
X38117619Y-86407714D01*
X38070000Y-86360095D01*
X38022380Y-86264857D01*
X39022380Y-84979142D02*
X39022380Y-85550571D01*
X39022380Y-85264857D02*
X38022380Y-85264857D01*
X38165238Y-85360095D01*
X38260476Y-85455333D01*
X38308095Y-85550571D01*
X39022380Y-84645809D02*
X38355714Y-84122000D01*
X38355714Y-84645809D02*
X39022380Y-84122000D01*
X38022380Y-83550571D02*
X38022380Y-83455333D01*
X38070000Y-83360095D01*
X38117619Y-83312476D01*
X38212857Y-83264857D01*
X38403333Y-83217238D01*
X38641428Y-83217238D01*
X38831904Y-83264857D01*
X38927142Y-83312476D01*
X38974761Y-83360095D01*
X39022380Y-83455333D01*
X39022380Y-83550571D01*
X38974761Y-83645809D01*
X38927142Y-83693428D01*
X38831904Y-83741047D01*
X38641428Y-83788666D01*
X38403333Y-83788666D01*
X38212857Y-83741047D01*
X38117619Y-83693428D01*
X38070000Y-83645809D01*
X38022380Y-83550571D01*
X38355714Y-82360095D02*
X39022380Y-82360095D01*
X37974761Y-82598190D02*
X38689047Y-82836285D01*
X38689047Y-82217238D01*
X39922380Y-86955333D02*
X40636666Y-86955333D01*
X40779523Y-87002952D01*
X40874761Y-87098190D01*
X40922380Y-87241047D01*
X40922380Y-87336285D01*
X39922380Y-86574380D02*
X39922380Y-85955333D01*
X40303333Y-86288666D01*
X40303333Y-86145809D01*
X40350952Y-86050571D01*
X40398571Y-86002952D01*
X40493809Y-85955333D01*
X40731904Y-85955333D01*
X40827142Y-86002952D01*
X40874761Y-86050571D01*
X40922380Y-86145809D01*
X40922380Y-86431523D01*
X40874761Y-86526761D01*
X40827142Y-86574380D01*
%TO.C,J4*%
X39064142Y-74798095D02*
X39111761Y-74845714D01*
X39159380Y-74988571D01*
X39159380Y-75083809D01*
X39111761Y-75226666D01*
X39016523Y-75321904D01*
X38921285Y-75369523D01*
X38730809Y-75417142D01*
X38587952Y-75417142D01*
X38397476Y-75369523D01*
X38302238Y-75321904D01*
X38207000Y-75226666D01*
X38159380Y-75083809D01*
X38159380Y-74988571D01*
X38207000Y-74845714D01*
X38254619Y-74798095D01*
X39159380Y-74226666D02*
X39111761Y-74321904D01*
X39064142Y-74369523D01*
X38968904Y-74417142D01*
X38683190Y-74417142D01*
X38587952Y-74369523D01*
X38540333Y-74321904D01*
X38492714Y-74226666D01*
X38492714Y-74083809D01*
X38540333Y-73988571D01*
X38587952Y-73940952D01*
X38683190Y-73893333D01*
X38968904Y-73893333D01*
X39064142Y-73940952D01*
X39111761Y-73988571D01*
X39159380Y-74083809D01*
X39159380Y-74226666D01*
X38492714Y-73464761D02*
X39159380Y-73464761D01*
X38587952Y-73464761D02*
X38540333Y-73417142D01*
X38492714Y-73321904D01*
X38492714Y-73179047D01*
X38540333Y-73083809D01*
X38635571Y-73036190D01*
X39159380Y-73036190D01*
X38492714Y-72560000D02*
X39159380Y-72560000D01*
X38587952Y-72560000D02*
X38540333Y-72512380D01*
X38492714Y-72417142D01*
X38492714Y-72274285D01*
X38540333Y-72179047D01*
X38635571Y-72131428D01*
X39159380Y-72131428D01*
X39254619Y-71893333D02*
X39254619Y-71131428D01*
X38159380Y-70702857D02*
X38159380Y-70607619D01*
X38207000Y-70512380D01*
X38254619Y-70464761D01*
X38349857Y-70417142D01*
X38540333Y-70369523D01*
X38778428Y-70369523D01*
X38968904Y-70417142D01*
X39064142Y-70464761D01*
X39111761Y-70512380D01*
X39159380Y-70607619D01*
X39159380Y-70702857D01*
X39111761Y-70798095D01*
X39064142Y-70845714D01*
X38968904Y-70893333D01*
X38778428Y-70940952D01*
X38540333Y-70940952D01*
X38349857Y-70893333D01*
X38254619Y-70845714D01*
X38207000Y-70798095D01*
X38159380Y-70702857D01*
X39159380Y-69417142D02*
X39159380Y-69988571D01*
X39159380Y-69702857D02*
X38159380Y-69702857D01*
X38302238Y-69798095D01*
X38397476Y-69893333D01*
X38445095Y-69988571D01*
X39159380Y-69083809D02*
X38492714Y-68560000D01*
X38492714Y-69083809D02*
X39159380Y-68560000D01*
X38159380Y-67988571D02*
X38159380Y-67893333D01*
X38207000Y-67798095D01*
X38254619Y-67750476D01*
X38349857Y-67702857D01*
X38540333Y-67655238D01*
X38778428Y-67655238D01*
X38968904Y-67702857D01*
X39064142Y-67750476D01*
X39111761Y-67798095D01*
X39159380Y-67893333D01*
X39159380Y-67988571D01*
X39111761Y-68083809D01*
X39064142Y-68131428D01*
X38968904Y-68179047D01*
X38778428Y-68226666D01*
X38540333Y-68226666D01*
X38349857Y-68179047D01*
X38254619Y-68131428D01*
X38207000Y-68083809D01*
X38159380Y-67988571D01*
X38492714Y-66798095D02*
X39159380Y-66798095D01*
X38111761Y-67036190D02*
X38826047Y-67274285D01*
X38826047Y-66655238D01*
X40059380Y-71393333D02*
X40773666Y-71393333D01*
X40916523Y-71440952D01*
X41011761Y-71536190D01*
X41059380Y-71679047D01*
X41059380Y-71774285D01*
X40392714Y-70488571D02*
X41059380Y-70488571D01*
X40011761Y-70726666D02*
X40726047Y-70964761D01*
X40726047Y-70345714D01*
%TO.C,J5*%
X113881903Y-118615141D02*
X113834284Y-118662760D01*
X113691427Y-118710379D01*
X113596189Y-118710379D01*
X113453332Y-118662760D01*
X113358094Y-118567522D01*
X113310475Y-118472284D01*
X113262856Y-118281808D01*
X113262856Y-118138951D01*
X113310475Y-117948475D01*
X113358094Y-117853237D01*
X113453332Y-117757999D01*
X113596189Y-117710379D01*
X113691427Y-117710379D01*
X113834284Y-117757999D01*
X113881903Y-117805618D01*
X114453332Y-118710379D02*
X114358094Y-118662760D01*
X114310475Y-118615141D01*
X114262856Y-118519903D01*
X114262856Y-118234189D01*
X114310475Y-118138951D01*
X114358094Y-118091332D01*
X114453332Y-118043713D01*
X114596189Y-118043713D01*
X114691427Y-118091332D01*
X114739046Y-118138951D01*
X114786665Y-118234189D01*
X114786665Y-118519903D01*
X114739046Y-118615141D01*
X114691427Y-118662760D01*
X114596189Y-118710379D01*
X114453332Y-118710379D01*
X115215237Y-118043713D02*
X115215237Y-118710379D01*
X115215237Y-118138951D02*
X115262856Y-118091332D01*
X115358094Y-118043713D01*
X115500951Y-118043713D01*
X115596189Y-118091332D01*
X115643808Y-118186570D01*
X115643808Y-118710379D01*
X116119999Y-118043713D02*
X116119999Y-118710379D01*
X116119999Y-118138951D02*
X116167618Y-118091332D01*
X116262856Y-118043713D01*
X116405713Y-118043713D01*
X116500951Y-118091332D01*
X116548570Y-118186570D01*
X116548570Y-118710379D01*
X116786665Y-118805618D02*
X117548570Y-118805618D01*
X117977141Y-117710379D02*
X118072379Y-117710379D01*
X118167618Y-117757999D01*
X118215237Y-117805618D01*
X118262856Y-117900856D01*
X118310475Y-118091332D01*
X118310475Y-118329427D01*
X118262856Y-118519903D01*
X118215237Y-118615141D01*
X118167618Y-118662760D01*
X118072379Y-118710379D01*
X117977141Y-118710379D01*
X117881903Y-118662760D01*
X117834284Y-118615141D01*
X117786665Y-118519903D01*
X117739046Y-118329427D01*
X117739046Y-118091332D01*
X117786665Y-117900856D01*
X117834284Y-117805618D01*
X117881903Y-117757999D01*
X117977141Y-117710379D01*
X119262856Y-118710379D02*
X118691427Y-118710379D01*
X118977141Y-118710379D02*
X118977141Y-117710379D01*
X118881903Y-117853237D01*
X118786665Y-117948475D01*
X118691427Y-117996094D01*
X119596189Y-118710379D02*
X120119999Y-118043713D01*
X119596189Y-118043713D02*
X120119999Y-118710379D01*
X120691427Y-117710379D02*
X120786665Y-117710379D01*
X120881903Y-117757999D01*
X120929522Y-117805618D01*
X120977141Y-117900856D01*
X121024760Y-118091332D01*
X121024760Y-118329427D01*
X120977141Y-118519903D01*
X120929522Y-118615141D01*
X120881903Y-118662760D01*
X120786665Y-118710379D01*
X120691427Y-118710379D01*
X120596189Y-118662760D01*
X120548570Y-118615141D01*
X120500951Y-118519903D01*
X120453332Y-118329427D01*
X120453332Y-118091332D01*
X120500951Y-117900856D01*
X120548570Y-117805618D01*
X120596189Y-117757999D01*
X120691427Y-117710379D01*
X121881903Y-118043713D02*
X121881903Y-118710379D01*
X121643808Y-117662760D02*
X121405713Y-118377046D01*
X122024760Y-118377046D01*
X117286665Y-115810379D02*
X117286665Y-116524665D01*
X117239046Y-116667522D01*
X117143808Y-116762760D01*
X117000951Y-116810379D01*
X116905713Y-116810379D01*
X118239046Y-115810379D02*
X117762856Y-115810379D01*
X117715237Y-116286570D01*
X117762856Y-116238951D01*
X117858094Y-116191332D01*
X118096189Y-116191332D01*
X118191427Y-116238951D01*
X118239046Y-116286570D01*
X118286665Y-116381808D01*
X118286665Y-116619903D01*
X118239046Y-116715141D01*
X118191427Y-116762760D01*
X118096189Y-116810379D01*
X117858094Y-116810379D01*
X117762856Y-116762760D01*
X117715237Y-116715141D01*
%TO.C,R1*%
X100217619Y-107029095D02*
X100170000Y-106981476D01*
X100122380Y-106886238D01*
X100122380Y-106648142D01*
X100170000Y-106552904D01*
X100217619Y-106505285D01*
X100312857Y-106457666D01*
X100408095Y-106457666D01*
X100550952Y-106505285D01*
X101122380Y-107076714D01*
X101122380Y-106457666D01*
X100217619Y-106076714D02*
X100170000Y-106029095D01*
X100122380Y-105933857D01*
X100122380Y-105695761D01*
X100170000Y-105600523D01*
X100217619Y-105552904D01*
X100312857Y-105505285D01*
X100408095Y-105505285D01*
X100550952Y-105552904D01*
X101122380Y-106124333D01*
X101122380Y-105505285D01*
X100122380Y-104886238D02*
X100122380Y-104791000D01*
X100170000Y-104695761D01*
X100217619Y-104648142D01*
X100312857Y-104600523D01*
X100503333Y-104552904D01*
X100741428Y-104552904D01*
X100931904Y-104600523D01*
X101027142Y-104648142D01*
X101074761Y-104695761D01*
X101122380Y-104791000D01*
X101122380Y-104886238D01*
X101074761Y-104981476D01*
X101027142Y-105029095D01*
X100931904Y-105076714D01*
X100741428Y-105124333D01*
X100503333Y-105124333D01*
X100312857Y-105076714D01*
X100217619Y-105029095D01*
X100170000Y-104981476D01*
X100122380Y-104886238D01*
X97282380Y-105957666D02*
X96806190Y-106291000D01*
X97282380Y-106529095D02*
X96282380Y-106529095D01*
X96282380Y-106148142D01*
X96330000Y-106052904D01*
X96377619Y-106005285D01*
X96472857Y-105957666D01*
X96615714Y-105957666D01*
X96710952Y-106005285D01*
X96758571Y-106052904D01*
X96806190Y-106148142D01*
X96806190Y-106529095D01*
X97282380Y-105005285D02*
X97282380Y-105576714D01*
X97282380Y-105291000D02*
X96282380Y-105291000D01*
X96425238Y-105386238D01*
X96520476Y-105481476D01*
X96568095Y-105576714D01*
%TO.C,R2*%
X90804619Y-104616095D02*
X90757000Y-104568476D01*
X90709380Y-104473238D01*
X90709380Y-104235142D01*
X90757000Y-104139904D01*
X90804619Y-104092285D01*
X90899857Y-104044666D01*
X90995095Y-104044666D01*
X91137952Y-104092285D01*
X91709380Y-104663714D01*
X91709380Y-104044666D01*
X90804619Y-103663714D02*
X90757000Y-103616095D01*
X90709380Y-103520857D01*
X90709380Y-103282761D01*
X90757000Y-103187523D01*
X90804619Y-103139904D01*
X90899857Y-103092285D01*
X90995095Y-103092285D01*
X91137952Y-103139904D01*
X91709380Y-103711333D01*
X91709380Y-103092285D01*
X90709380Y-102473238D02*
X90709380Y-102378000D01*
X90757000Y-102282761D01*
X90804619Y-102235142D01*
X90899857Y-102187523D01*
X91090333Y-102139904D01*
X91328428Y-102139904D01*
X91518904Y-102187523D01*
X91614142Y-102235142D01*
X91661761Y-102282761D01*
X91709380Y-102378000D01*
X91709380Y-102473238D01*
X91661761Y-102568476D01*
X91614142Y-102616095D01*
X91518904Y-102663714D01*
X91328428Y-102711333D01*
X91090333Y-102711333D01*
X90899857Y-102663714D01*
X90804619Y-102616095D01*
X90757000Y-102568476D01*
X90709380Y-102473238D01*
X91597380Y-106084666D02*
X91121190Y-106418000D01*
X91597380Y-106656095D02*
X90597380Y-106656095D01*
X90597380Y-106275142D01*
X90645000Y-106179904D01*
X90692619Y-106132285D01*
X90787857Y-106084666D01*
X90930714Y-106084666D01*
X91025952Y-106132285D01*
X91073571Y-106179904D01*
X91121190Y-106275142D01*
X91121190Y-106656095D01*
X90692619Y-105703714D02*
X90645000Y-105656095D01*
X90597380Y-105560857D01*
X90597380Y-105322761D01*
X90645000Y-105227523D01*
X90692619Y-105179904D01*
X90787857Y-105132285D01*
X90883095Y-105132285D01*
X91025952Y-105179904D01*
X91597380Y-105751333D01*
X91597380Y-105132285D01*
%TO.C,R3*%
X79581619Y-109188095D02*
X79534000Y-109140476D01*
X79486380Y-109045238D01*
X79486380Y-108807142D01*
X79534000Y-108711904D01*
X79581619Y-108664285D01*
X79676857Y-108616666D01*
X79772095Y-108616666D01*
X79914952Y-108664285D01*
X80486380Y-109235714D01*
X80486380Y-108616666D01*
X79581619Y-108235714D02*
X79534000Y-108188095D01*
X79486380Y-108092857D01*
X79486380Y-107854761D01*
X79534000Y-107759523D01*
X79581619Y-107711904D01*
X79676857Y-107664285D01*
X79772095Y-107664285D01*
X79914952Y-107711904D01*
X80486380Y-108283333D01*
X80486380Y-107664285D01*
X79486380Y-107045238D02*
X79486380Y-106950000D01*
X79534000Y-106854761D01*
X79581619Y-106807142D01*
X79676857Y-106759523D01*
X79867333Y-106711904D01*
X80105428Y-106711904D01*
X80295904Y-106759523D01*
X80391142Y-106807142D01*
X80438761Y-106854761D01*
X80486380Y-106950000D01*
X80486380Y-107045238D01*
X80438761Y-107140476D01*
X80391142Y-107188095D01*
X80295904Y-107235714D01*
X80105428Y-107283333D01*
X79867333Y-107283333D01*
X79676857Y-107235714D01*
X79581619Y-107188095D01*
X79534000Y-107140476D01*
X79486380Y-107045238D01*
X80374380Y-105830666D02*
X79898190Y-106164000D01*
X80374380Y-106402095D02*
X79374380Y-106402095D01*
X79374380Y-106021142D01*
X79422000Y-105925904D01*
X79469619Y-105878285D01*
X79564857Y-105830666D01*
X79707714Y-105830666D01*
X79802952Y-105878285D01*
X79850571Y-105925904D01*
X79898190Y-106021142D01*
X79898190Y-106402095D01*
X79374380Y-105497333D02*
X79374380Y-104878285D01*
X79755333Y-105211619D01*
X79755333Y-105068761D01*
X79802952Y-104973523D01*
X79850571Y-104925904D01*
X79945809Y-104878285D01*
X80183904Y-104878285D01*
X80279142Y-104925904D01*
X80326761Y-104973523D01*
X80374380Y-105068761D01*
X80374380Y-105354476D01*
X80326761Y-105449714D01*
X80279142Y-105497333D01*
%TO.C,R4*%
X49717619Y-84364095D02*
X49670000Y-84316476D01*
X49622380Y-84221238D01*
X49622380Y-83983142D01*
X49670000Y-83887904D01*
X49717619Y-83840285D01*
X49812857Y-83792666D01*
X49908095Y-83792666D01*
X50050952Y-83840285D01*
X50622380Y-84411714D01*
X50622380Y-83792666D01*
X49717619Y-83411714D02*
X49670000Y-83364095D01*
X49622380Y-83268857D01*
X49622380Y-83030761D01*
X49670000Y-82935523D01*
X49717619Y-82887904D01*
X49812857Y-82840285D01*
X49908095Y-82840285D01*
X50050952Y-82887904D01*
X50622380Y-83459333D01*
X50622380Y-82840285D01*
X49622380Y-82221238D02*
X49622380Y-82126000D01*
X49670000Y-82030761D01*
X49717619Y-81983142D01*
X49812857Y-81935523D01*
X50003333Y-81887904D01*
X50241428Y-81887904D01*
X50431904Y-81935523D01*
X50527142Y-81983142D01*
X50574761Y-82030761D01*
X50622380Y-82126000D01*
X50622380Y-82221238D01*
X50574761Y-82316476D01*
X50527142Y-82364095D01*
X50431904Y-82411714D01*
X50241428Y-82459333D01*
X50003333Y-82459333D01*
X49812857Y-82411714D01*
X49717619Y-82364095D01*
X49670000Y-82316476D01*
X49622380Y-82221238D01*
X46782380Y-83292666D02*
X46306190Y-83626000D01*
X46782380Y-83864095D02*
X45782380Y-83864095D01*
X45782380Y-83483142D01*
X45830000Y-83387904D01*
X45877619Y-83340285D01*
X45972857Y-83292666D01*
X46115714Y-83292666D01*
X46210952Y-83340285D01*
X46258571Y-83387904D01*
X46306190Y-83483142D01*
X46306190Y-83864095D01*
X46115714Y-82435523D02*
X46782380Y-82435523D01*
X45734761Y-82673619D02*
X46449047Y-82911714D01*
X46449047Y-82292666D01*
%TO.C,R5*%
X49717619Y-90968095D02*
X49670000Y-90920476D01*
X49622380Y-90825238D01*
X49622380Y-90587142D01*
X49670000Y-90491904D01*
X49717619Y-90444285D01*
X49812857Y-90396666D01*
X49908095Y-90396666D01*
X50050952Y-90444285D01*
X50622380Y-91015714D01*
X50622380Y-90396666D01*
X49717619Y-90015714D02*
X49670000Y-89968095D01*
X49622380Y-89872857D01*
X49622380Y-89634761D01*
X49670000Y-89539523D01*
X49717619Y-89491904D01*
X49812857Y-89444285D01*
X49908095Y-89444285D01*
X50050952Y-89491904D01*
X50622380Y-90063333D01*
X50622380Y-89444285D01*
X49622380Y-88825238D02*
X49622380Y-88730000D01*
X49670000Y-88634761D01*
X49717619Y-88587142D01*
X49812857Y-88539523D01*
X50003333Y-88491904D01*
X50241428Y-88491904D01*
X50431904Y-88539523D01*
X50527142Y-88587142D01*
X50574761Y-88634761D01*
X50622380Y-88730000D01*
X50622380Y-88825238D01*
X50574761Y-88920476D01*
X50527142Y-88968095D01*
X50431904Y-89015714D01*
X50241428Y-89063333D01*
X50003333Y-89063333D01*
X49812857Y-89015714D01*
X49717619Y-88968095D01*
X49670000Y-88920476D01*
X49622380Y-88825238D01*
X46782380Y-89896666D02*
X46306190Y-90230000D01*
X46782380Y-90468095D02*
X45782380Y-90468095D01*
X45782380Y-90087142D01*
X45830000Y-89991904D01*
X45877619Y-89944285D01*
X45972857Y-89896666D01*
X46115714Y-89896666D01*
X46210952Y-89944285D01*
X46258571Y-89991904D01*
X46306190Y-90087142D01*
X46306190Y-90468095D01*
X45782380Y-88991904D02*
X45782380Y-89468095D01*
X46258571Y-89515714D01*
X46210952Y-89468095D01*
X46163333Y-89372857D01*
X46163333Y-89134761D01*
X46210952Y-89039523D01*
X46258571Y-88991904D01*
X46353809Y-88944285D01*
X46591904Y-88944285D01*
X46687142Y-88991904D01*
X46734761Y-89039523D01*
X46782380Y-89134761D01*
X46782380Y-89372857D01*
X46734761Y-89468095D01*
X46687142Y-89515714D01*
%TO.C,R6*%
X50108619Y-68802095D02*
X50061000Y-68754476D01*
X50013380Y-68659238D01*
X50013380Y-68421142D01*
X50061000Y-68325904D01*
X50108619Y-68278285D01*
X50203857Y-68230666D01*
X50299095Y-68230666D01*
X50441952Y-68278285D01*
X51013380Y-68849714D01*
X51013380Y-68230666D01*
X50108619Y-67849714D02*
X50061000Y-67802095D01*
X50013380Y-67706857D01*
X50013380Y-67468761D01*
X50061000Y-67373523D01*
X50108619Y-67325904D01*
X50203857Y-67278285D01*
X50299095Y-67278285D01*
X50441952Y-67325904D01*
X51013380Y-67897333D01*
X51013380Y-67278285D01*
X50013380Y-66659238D02*
X50013380Y-66564000D01*
X50061000Y-66468761D01*
X50108619Y-66421142D01*
X50203857Y-66373523D01*
X50394333Y-66325904D01*
X50632428Y-66325904D01*
X50822904Y-66373523D01*
X50918142Y-66421142D01*
X50965761Y-66468761D01*
X51013380Y-66564000D01*
X51013380Y-66659238D01*
X50965761Y-66754476D01*
X50918142Y-66802095D01*
X50822904Y-66849714D01*
X50632428Y-66897333D01*
X50394333Y-66897333D01*
X50203857Y-66849714D01*
X50108619Y-66802095D01*
X50061000Y-66754476D01*
X50013380Y-66659238D01*
X47173380Y-67730666D02*
X46697190Y-68064000D01*
X47173380Y-68302095D02*
X46173380Y-68302095D01*
X46173380Y-67921142D01*
X46221000Y-67825904D01*
X46268619Y-67778285D01*
X46363857Y-67730666D01*
X46506714Y-67730666D01*
X46601952Y-67778285D01*
X46649571Y-67825904D01*
X46697190Y-67921142D01*
X46697190Y-68302095D01*
X46173380Y-66873523D02*
X46173380Y-67064000D01*
X46221000Y-67159238D01*
X46268619Y-67206857D01*
X46411476Y-67302095D01*
X46601952Y-67349714D01*
X46982904Y-67349714D01*
X47078142Y-67302095D01*
X47125761Y-67254476D01*
X47173380Y-67159238D01*
X47173380Y-66968761D01*
X47125761Y-66873523D01*
X47078142Y-66825904D01*
X46982904Y-66778285D01*
X46744809Y-66778285D01*
X46649571Y-66825904D01*
X46601952Y-66873523D01*
X46554333Y-66968761D01*
X46554333Y-67159238D01*
X46601952Y-67254476D01*
X46649571Y-67302095D01*
X46744809Y-67349714D01*
%TO.C,R7*%
X50108619Y-75406095D02*
X50061000Y-75358476D01*
X50013380Y-75263238D01*
X50013380Y-75025142D01*
X50061000Y-74929904D01*
X50108619Y-74882285D01*
X50203857Y-74834666D01*
X50299095Y-74834666D01*
X50441952Y-74882285D01*
X51013380Y-75453714D01*
X51013380Y-74834666D01*
X50108619Y-74453714D02*
X50061000Y-74406095D01*
X50013380Y-74310857D01*
X50013380Y-74072761D01*
X50061000Y-73977523D01*
X50108619Y-73929904D01*
X50203857Y-73882285D01*
X50299095Y-73882285D01*
X50441952Y-73929904D01*
X51013380Y-74501333D01*
X51013380Y-73882285D01*
X50013380Y-73263238D02*
X50013380Y-73168000D01*
X50061000Y-73072761D01*
X50108619Y-73025142D01*
X50203857Y-72977523D01*
X50394333Y-72929904D01*
X50632428Y-72929904D01*
X50822904Y-72977523D01*
X50918142Y-73025142D01*
X50965761Y-73072761D01*
X51013380Y-73168000D01*
X51013380Y-73263238D01*
X50965761Y-73358476D01*
X50918142Y-73406095D01*
X50822904Y-73453714D01*
X50632428Y-73501333D01*
X50394333Y-73501333D01*
X50203857Y-73453714D01*
X50108619Y-73406095D01*
X50061000Y-73358476D01*
X50013380Y-73263238D01*
X47173380Y-74334666D02*
X46697190Y-74668000D01*
X47173380Y-74906095D02*
X46173380Y-74906095D01*
X46173380Y-74525142D01*
X46221000Y-74429904D01*
X46268619Y-74382285D01*
X46363857Y-74334666D01*
X46506714Y-74334666D01*
X46601952Y-74382285D01*
X46649571Y-74429904D01*
X46697190Y-74525142D01*
X46697190Y-74906095D01*
X46173380Y-74001333D02*
X46173380Y-73334666D01*
X47173380Y-73763238D01*
%TO.C,R8*%
X97566380Y-105783047D02*
X97566380Y-106354476D01*
X97566380Y-106068761D02*
X96566380Y-106068761D01*
X96709238Y-106164000D01*
X96804476Y-106259238D01*
X96852095Y-106354476D01*
X97566380Y-105354476D02*
X96566380Y-105354476D01*
X97185428Y-105259238D02*
X97566380Y-104973523D01*
X96899714Y-104973523D02*
X97280666Y-105354476D01*
X93726380Y-105830666D02*
X93250190Y-106164000D01*
X93726380Y-106402095D02*
X92726380Y-106402095D01*
X92726380Y-106021142D01*
X92774000Y-105925904D01*
X92821619Y-105878285D01*
X92916857Y-105830666D01*
X93059714Y-105830666D01*
X93154952Y-105878285D01*
X93202571Y-105925904D01*
X93250190Y-106021142D01*
X93250190Y-106402095D01*
X93154952Y-105259238D02*
X93107333Y-105354476D01*
X93059714Y-105402095D01*
X92964476Y-105449714D01*
X92916857Y-105449714D01*
X92821619Y-105402095D01*
X92774000Y-105354476D01*
X92726380Y-105259238D01*
X92726380Y-105068761D01*
X92774000Y-104973523D01*
X92821619Y-104925904D01*
X92916857Y-104878285D01*
X92964476Y-104878285D01*
X93059714Y-104925904D01*
X93107333Y-104973523D01*
X93154952Y-105068761D01*
X93154952Y-105259238D01*
X93202571Y-105354476D01*
X93250190Y-105402095D01*
X93345428Y-105449714D01*
X93535904Y-105449714D01*
X93631142Y-105402095D01*
X93678761Y-105354476D01*
X93726380Y-105259238D01*
X93726380Y-105068761D01*
X93678761Y-104973523D01*
X93631142Y-104925904D01*
X93535904Y-104878285D01*
X93345428Y-104878285D01*
X93250190Y-104925904D01*
X93202571Y-104973523D01*
X93154952Y-105068761D01*
%TO.C,R9*%
X73120380Y-103751047D02*
X73120380Y-104322476D01*
X73120380Y-104036761D02*
X72120380Y-104036761D01*
X72263238Y-104132000D01*
X72358476Y-104227238D01*
X72406095Y-104322476D01*
X73120380Y-103322476D02*
X72120380Y-103322476D01*
X72739428Y-103227238D02*
X73120380Y-102941523D01*
X72453714Y-102941523D02*
X72834666Y-103322476D01*
X73105380Y-105703666D02*
X72629190Y-106037000D01*
X73105380Y-106275095D02*
X72105380Y-106275095D01*
X72105380Y-105894142D01*
X72153000Y-105798904D01*
X72200619Y-105751285D01*
X72295857Y-105703666D01*
X72438714Y-105703666D01*
X72533952Y-105751285D01*
X72581571Y-105798904D01*
X72629190Y-105894142D01*
X72629190Y-106275095D01*
X73105380Y-105227476D02*
X73105380Y-105037000D01*
X73057761Y-104941761D01*
X73010142Y-104894142D01*
X72867285Y-104798904D01*
X72676809Y-104751285D01*
X72295857Y-104751285D01*
X72200619Y-104798904D01*
X72153000Y-104846523D01*
X72105380Y-104941761D01*
X72105380Y-105132238D01*
X72153000Y-105227476D01*
X72200619Y-105275095D01*
X72295857Y-105322714D01*
X72533952Y-105322714D01*
X72629190Y-105275095D01*
X72676809Y-105227476D01*
X72724428Y-105132238D01*
X72724428Y-104941761D01*
X72676809Y-104846523D01*
X72629190Y-104798904D01*
X72533952Y-104751285D01*
%TO.C,R10*%
X66008380Y-108831047D02*
X66008380Y-109402476D01*
X66008380Y-109116761D02*
X65008380Y-109116761D01*
X65151238Y-109212000D01*
X65246476Y-109307238D01*
X65294095Y-109402476D01*
X66008380Y-108402476D02*
X65008380Y-108402476D01*
X65627428Y-108307238D02*
X66008380Y-108021523D01*
X65341714Y-108021523D02*
X65722666Y-108402476D01*
X64088380Y-106179857D02*
X63612190Y-106513190D01*
X64088380Y-106751285D02*
X63088380Y-106751285D01*
X63088380Y-106370333D01*
X63136000Y-106275095D01*
X63183619Y-106227476D01*
X63278857Y-106179857D01*
X63421714Y-106179857D01*
X63516952Y-106227476D01*
X63564571Y-106275095D01*
X63612190Y-106370333D01*
X63612190Y-106751285D01*
X64088380Y-105227476D02*
X64088380Y-105798904D01*
X64088380Y-105513190D02*
X63088380Y-105513190D01*
X63231238Y-105608428D01*
X63326476Y-105703666D01*
X63374095Y-105798904D01*
X63088380Y-104608428D02*
X63088380Y-104513190D01*
X63136000Y-104417952D01*
X63183619Y-104370333D01*
X63278857Y-104322714D01*
X63469333Y-104275095D01*
X63707428Y-104275095D01*
X63897904Y-104322714D01*
X63993142Y-104370333D01*
X64040761Y-104417952D01*
X64088380Y-104513190D01*
X64088380Y-104608428D01*
X64040761Y-104703666D01*
X63993142Y-104751285D01*
X63897904Y-104798904D01*
X63707428Y-104846523D01*
X63469333Y-104846523D01*
X63278857Y-104798904D01*
X63183619Y-104751285D01*
X63136000Y-104703666D01*
X63088380Y-104608428D01*
%TO.C,R11*%
X68405619Y-110458095D02*
X68358000Y-110410476D01*
X68310380Y-110315238D01*
X68310380Y-110077142D01*
X68358000Y-109981904D01*
X68405619Y-109934285D01*
X68500857Y-109886666D01*
X68596095Y-109886666D01*
X68738952Y-109934285D01*
X69310380Y-110505714D01*
X69310380Y-109886666D01*
X68405619Y-109505714D02*
X68358000Y-109458095D01*
X68310380Y-109362857D01*
X68310380Y-109124761D01*
X68358000Y-109029523D01*
X68405619Y-108981904D01*
X68500857Y-108934285D01*
X68596095Y-108934285D01*
X68738952Y-108981904D01*
X69310380Y-109553333D01*
X69310380Y-108934285D01*
X68310380Y-108315238D02*
X68310380Y-108220000D01*
X68358000Y-108124761D01*
X68405619Y-108077142D01*
X68500857Y-108029523D01*
X68691333Y-107981904D01*
X68929428Y-107981904D01*
X69119904Y-108029523D01*
X69215142Y-108077142D01*
X69262761Y-108124761D01*
X69310380Y-108220000D01*
X69310380Y-108315238D01*
X69262761Y-108410476D01*
X69215142Y-108458095D01*
X69119904Y-108505714D01*
X68929428Y-108553333D01*
X68691333Y-108553333D01*
X68500857Y-108505714D01*
X68405619Y-108458095D01*
X68358000Y-108410476D01*
X68310380Y-108315238D01*
X67390380Y-106179857D02*
X66914190Y-106513190D01*
X67390380Y-106751285D02*
X66390380Y-106751285D01*
X66390380Y-106370333D01*
X66438000Y-106275095D01*
X66485619Y-106227476D01*
X66580857Y-106179857D01*
X66723714Y-106179857D01*
X66818952Y-106227476D01*
X66866571Y-106275095D01*
X66914190Y-106370333D01*
X66914190Y-106751285D01*
X67390380Y-105227476D02*
X67390380Y-105798904D01*
X67390380Y-105513190D02*
X66390380Y-105513190D01*
X66533238Y-105608428D01*
X66628476Y-105703666D01*
X66676095Y-105798904D01*
X67390380Y-104275095D02*
X67390380Y-104846523D01*
X67390380Y-104560809D02*
X66390380Y-104560809D01*
X66533238Y-104656047D01*
X66628476Y-104751285D01*
X66676095Y-104846523D01*
%TO.C,R12*%
X84089380Y-108323047D02*
X84089380Y-108894476D01*
X84089380Y-108608761D02*
X83089380Y-108608761D01*
X83232238Y-108704000D01*
X83327476Y-108799238D01*
X83375095Y-108894476D01*
X84089380Y-107894476D02*
X83089380Y-107894476D01*
X83708428Y-107799238D02*
X84089380Y-107513523D01*
X83422714Y-107513523D02*
X83803666Y-107894476D01*
X84201380Y-106306857D02*
X83725190Y-106640190D01*
X84201380Y-106878285D02*
X83201380Y-106878285D01*
X83201380Y-106497333D01*
X83249000Y-106402095D01*
X83296619Y-106354476D01*
X83391857Y-106306857D01*
X83534714Y-106306857D01*
X83629952Y-106354476D01*
X83677571Y-106402095D01*
X83725190Y-106497333D01*
X83725190Y-106878285D01*
X84201380Y-105354476D02*
X84201380Y-105925904D01*
X84201380Y-105640190D02*
X83201380Y-105640190D01*
X83344238Y-105735428D01*
X83439476Y-105830666D01*
X83487095Y-105925904D01*
X83296619Y-104973523D02*
X83249000Y-104925904D01*
X83201380Y-104830666D01*
X83201380Y-104592571D01*
X83249000Y-104497333D01*
X83296619Y-104449714D01*
X83391857Y-104402095D01*
X83487095Y-104402095D01*
X83629952Y-104449714D01*
X84201380Y-105021142D01*
X84201380Y-104402095D01*
%TO.C,R13*%
X73085714Y-39572380D02*
X72609523Y-39572380D01*
X72561904Y-40048571D01*
X72609523Y-40000952D01*
X72704761Y-39953333D01*
X72942857Y-39953333D01*
X73038095Y-40000952D01*
X73085714Y-40048571D01*
X73133333Y-40143809D01*
X73133333Y-40381904D01*
X73085714Y-40477142D01*
X73038095Y-40524761D01*
X72942857Y-40572380D01*
X72704761Y-40572380D01*
X72609523Y-40524761D01*
X72561904Y-40477142D01*
X73990476Y-39572380D02*
X73800000Y-39572380D01*
X73704761Y-39620000D01*
X73657142Y-39667619D01*
X73561904Y-39810476D01*
X73514285Y-40000952D01*
X73514285Y-40381904D01*
X73561904Y-40477142D01*
X73609523Y-40524761D01*
X73704761Y-40572380D01*
X73895238Y-40572380D01*
X73990476Y-40524761D01*
X74038095Y-40477142D01*
X74085714Y-40381904D01*
X74085714Y-40143809D01*
X74038095Y-40048571D01*
X73990476Y-40000952D01*
X73895238Y-39953333D01*
X73704761Y-39953333D01*
X73609523Y-40000952D01*
X73561904Y-40048571D01*
X73514285Y-40143809D01*
X74704761Y-39572380D02*
X74800000Y-39572380D01*
X74895238Y-39620000D01*
X74942857Y-39667619D01*
X74990476Y-39762857D01*
X75038095Y-39953333D01*
X75038095Y-40191428D01*
X74990476Y-40381904D01*
X74942857Y-40477142D01*
X74895238Y-40524761D01*
X74800000Y-40572380D01*
X74704761Y-40572380D01*
X74609523Y-40524761D01*
X74561904Y-40477142D01*
X74514285Y-40381904D01*
X74466666Y-40191428D01*
X74466666Y-39953333D01*
X74514285Y-39762857D01*
X74561904Y-39667619D01*
X74609523Y-39620000D01*
X74704761Y-39572380D01*
X73157142Y-36732380D02*
X72823809Y-36256190D01*
X72585714Y-36732380D02*
X72585714Y-35732380D01*
X72966666Y-35732380D01*
X73061904Y-35780000D01*
X73109523Y-35827619D01*
X73157142Y-35922857D01*
X73157142Y-36065714D01*
X73109523Y-36160952D01*
X73061904Y-36208571D01*
X72966666Y-36256190D01*
X72585714Y-36256190D01*
X74109523Y-36732380D02*
X73538095Y-36732380D01*
X73823809Y-36732380D02*
X73823809Y-35732380D01*
X73728571Y-35875238D01*
X73633333Y-35970476D01*
X73538095Y-36018095D01*
X74442857Y-35732380D02*
X75061904Y-35732380D01*
X74728571Y-36113333D01*
X74871428Y-36113333D01*
X74966666Y-36160952D01*
X75014285Y-36208571D01*
X75061904Y-36303809D01*
X75061904Y-36541904D01*
X75014285Y-36637142D01*
X74966666Y-36684761D01*
X74871428Y-36732380D01*
X74585714Y-36732380D01*
X74490476Y-36684761D01*
X74442857Y-36637142D01*
%TO.C,R14*%
X67685714Y-39572380D02*
X67209523Y-39572380D01*
X67161904Y-40048571D01*
X67209523Y-40000952D01*
X67304761Y-39953333D01*
X67542857Y-39953333D01*
X67638095Y-40000952D01*
X67685714Y-40048571D01*
X67733333Y-40143809D01*
X67733333Y-40381904D01*
X67685714Y-40477142D01*
X67638095Y-40524761D01*
X67542857Y-40572380D01*
X67304761Y-40572380D01*
X67209523Y-40524761D01*
X67161904Y-40477142D01*
X68590476Y-39572380D02*
X68400000Y-39572380D01*
X68304761Y-39620000D01*
X68257142Y-39667619D01*
X68161904Y-39810476D01*
X68114285Y-40000952D01*
X68114285Y-40381904D01*
X68161904Y-40477142D01*
X68209523Y-40524761D01*
X68304761Y-40572380D01*
X68495238Y-40572380D01*
X68590476Y-40524761D01*
X68638095Y-40477142D01*
X68685714Y-40381904D01*
X68685714Y-40143809D01*
X68638095Y-40048571D01*
X68590476Y-40000952D01*
X68495238Y-39953333D01*
X68304761Y-39953333D01*
X68209523Y-40000952D01*
X68161904Y-40048571D01*
X68114285Y-40143809D01*
X69304761Y-39572380D02*
X69400000Y-39572380D01*
X69495238Y-39620000D01*
X69542857Y-39667619D01*
X69590476Y-39762857D01*
X69638095Y-39953333D01*
X69638095Y-40191428D01*
X69590476Y-40381904D01*
X69542857Y-40477142D01*
X69495238Y-40524761D01*
X69400000Y-40572380D01*
X69304761Y-40572380D01*
X69209523Y-40524761D01*
X69161904Y-40477142D01*
X69114285Y-40381904D01*
X69066666Y-40191428D01*
X69066666Y-39953333D01*
X69114285Y-39762857D01*
X69161904Y-39667619D01*
X69209523Y-39620000D01*
X69304761Y-39572380D01*
X67757142Y-36732380D02*
X67423809Y-36256190D01*
X67185714Y-36732380D02*
X67185714Y-35732380D01*
X67566666Y-35732380D01*
X67661904Y-35780000D01*
X67709523Y-35827619D01*
X67757142Y-35922857D01*
X67757142Y-36065714D01*
X67709523Y-36160952D01*
X67661904Y-36208571D01*
X67566666Y-36256190D01*
X67185714Y-36256190D01*
X68709523Y-36732380D02*
X68138095Y-36732380D01*
X68423809Y-36732380D02*
X68423809Y-35732380D01*
X68328571Y-35875238D01*
X68233333Y-35970476D01*
X68138095Y-36018095D01*
X69566666Y-36065714D02*
X69566666Y-36732380D01*
X69328571Y-35684761D02*
X69090476Y-36399047D01*
X69709523Y-36399047D01*
%TO.C,R15*%
X62085714Y-39572380D02*
X61609523Y-39572380D01*
X61561904Y-40048571D01*
X61609523Y-40000952D01*
X61704761Y-39953333D01*
X61942857Y-39953333D01*
X62038095Y-40000952D01*
X62085714Y-40048571D01*
X62133333Y-40143809D01*
X62133333Y-40381904D01*
X62085714Y-40477142D01*
X62038095Y-40524761D01*
X61942857Y-40572380D01*
X61704761Y-40572380D01*
X61609523Y-40524761D01*
X61561904Y-40477142D01*
X62990476Y-39572380D02*
X62800000Y-39572380D01*
X62704761Y-39620000D01*
X62657142Y-39667619D01*
X62561904Y-39810476D01*
X62514285Y-40000952D01*
X62514285Y-40381904D01*
X62561904Y-40477142D01*
X62609523Y-40524761D01*
X62704761Y-40572380D01*
X62895238Y-40572380D01*
X62990476Y-40524761D01*
X63038095Y-40477142D01*
X63085714Y-40381904D01*
X63085714Y-40143809D01*
X63038095Y-40048571D01*
X62990476Y-40000952D01*
X62895238Y-39953333D01*
X62704761Y-39953333D01*
X62609523Y-40000952D01*
X62561904Y-40048571D01*
X62514285Y-40143809D01*
X63704761Y-39572380D02*
X63800000Y-39572380D01*
X63895238Y-39620000D01*
X63942857Y-39667619D01*
X63990476Y-39762857D01*
X64038095Y-39953333D01*
X64038095Y-40191428D01*
X63990476Y-40381904D01*
X63942857Y-40477142D01*
X63895238Y-40524761D01*
X63800000Y-40572380D01*
X63704761Y-40572380D01*
X63609523Y-40524761D01*
X63561904Y-40477142D01*
X63514285Y-40381904D01*
X63466666Y-40191428D01*
X63466666Y-39953333D01*
X63514285Y-39762857D01*
X63561904Y-39667619D01*
X63609523Y-39620000D01*
X63704761Y-39572380D01*
X62157142Y-36732380D02*
X61823809Y-36256190D01*
X61585714Y-36732380D02*
X61585714Y-35732380D01*
X61966666Y-35732380D01*
X62061904Y-35780000D01*
X62109523Y-35827619D01*
X62157142Y-35922857D01*
X62157142Y-36065714D01*
X62109523Y-36160952D01*
X62061904Y-36208571D01*
X61966666Y-36256190D01*
X61585714Y-36256190D01*
X63109523Y-36732380D02*
X62538095Y-36732380D01*
X62823809Y-36732380D02*
X62823809Y-35732380D01*
X62728571Y-35875238D01*
X62633333Y-35970476D01*
X62538095Y-36018095D01*
X64014285Y-35732380D02*
X63538095Y-35732380D01*
X63490476Y-36208571D01*
X63538095Y-36160952D01*
X63633333Y-36113333D01*
X63871428Y-36113333D01*
X63966666Y-36160952D01*
X64014285Y-36208571D01*
X64061904Y-36303809D01*
X64061904Y-36541904D01*
X64014285Y-36637142D01*
X63966666Y-36684761D01*
X63871428Y-36732380D01*
X63633333Y-36732380D01*
X63538095Y-36684761D01*
X63490476Y-36637142D01*
%TO.C,R16*%
X56685714Y-39572380D02*
X56209523Y-39572380D01*
X56161904Y-40048571D01*
X56209523Y-40000952D01*
X56304761Y-39953333D01*
X56542857Y-39953333D01*
X56638095Y-40000952D01*
X56685714Y-40048571D01*
X56733333Y-40143809D01*
X56733333Y-40381904D01*
X56685714Y-40477142D01*
X56638095Y-40524761D01*
X56542857Y-40572380D01*
X56304761Y-40572380D01*
X56209523Y-40524761D01*
X56161904Y-40477142D01*
X57590476Y-39572380D02*
X57400000Y-39572380D01*
X57304761Y-39620000D01*
X57257142Y-39667619D01*
X57161904Y-39810476D01*
X57114285Y-40000952D01*
X57114285Y-40381904D01*
X57161904Y-40477142D01*
X57209523Y-40524761D01*
X57304761Y-40572380D01*
X57495238Y-40572380D01*
X57590476Y-40524761D01*
X57638095Y-40477142D01*
X57685714Y-40381904D01*
X57685714Y-40143809D01*
X57638095Y-40048571D01*
X57590476Y-40000952D01*
X57495238Y-39953333D01*
X57304761Y-39953333D01*
X57209523Y-40000952D01*
X57161904Y-40048571D01*
X57114285Y-40143809D01*
X58304761Y-39572380D02*
X58400000Y-39572380D01*
X58495238Y-39620000D01*
X58542857Y-39667619D01*
X58590476Y-39762857D01*
X58638095Y-39953333D01*
X58638095Y-40191428D01*
X58590476Y-40381904D01*
X58542857Y-40477142D01*
X58495238Y-40524761D01*
X58400000Y-40572380D01*
X58304761Y-40572380D01*
X58209523Y-40524761D01*
X58161904Y-40477142D01*
X58114285Y-40381904D01*
X58066666Y-40191428D01*
X58066666Y-39953333D01*
X58114285Y-39762857D01*
X58161904Y-39667619D01*
X58209523Y-39620000D01*
X58304761Y-39572380D01*
X56757142Y-36732380D02*
X56423809Y-36256190D01*
X56185714Y-36732380D02*
X56185714Y-35732380D01*
X56566666Y-35732380D01*
X56661904Y-35780000D01*
X56709523Y-35827619D01*
X56757142Y-35922857D01*
X56757142Y-36065714D01*
X56709523Y-36160952D01*
X56661904Y-36208571D01*
X56566666Y-36256190D01*
X56185714Y-36256190D01*
X57709523Y-36732380D02*
X57138095Y-36732380D01*
X57423809Y-36732380D02*
X57423809Y-35732380D01*
X57328571Y-35875238D01*
X57233333Y-35970476D01*
X57138095Y-36018095D01*
X58566666Y-35732380D02*
X58376190Y-35732380D01*
X58280952Y-35780000D01*
X58233333Y-35827619D01*
X58138095Y-35970476D01*
X58090476Y-36160952D01*
X58090476Y-36541904D01*
X58138095Y-36637142D01*
X58185714Y-36684761D01*
X58280952Y-36732380D01*
X58471428Y-36732380D01*
X58566666Y-36684761D01*
X58614285Y-36637142D01*
X58661904Y-36541904D01*
X58661904Y-36303809D01*
X58614285Y-36208571D01*
X58566666Y-36160952D01*
X58471428Y-36113333D01*
X58280952Y-36113333D01*
X58185714Y-36160952D01*
X58138095Y-36208571D01*
X58090476Y-36303809D01*
%TO.C,R17*%
X117608618Y-110451094D02*
X117560999Y-110403475D01*
X117513379Y-110308237D01*
X117513379Y-110070141D01*
X117560999Y-109974903D01*
X117608618Y-109927284D01*
X117703856Y-109879665D01*
X117799094Y-109879665D01*
X117941951Y-109927284D01*
X118513379Y-110498713D01*
X118513379Y-109879665D01*
X117608618Y-109498713D02*
X117560999Y-109451094D01*
X117513379Y-109355856D01*
X117513379Y-109117760D01*
X117560999Y-109022522D01*
X117608618Y-108974903D01*
X117703856Y-108927284D01*
X117799094Y-108927284D01*
X117941951Y-108974903D01*
X118513379Y-109546332D01*
X118513379Y-108927284D01*
X117513379Y-108308237D02*
X117513379Y-108212999D01*
X117560999Y-108117760D01*
X117608618Y-108070141D01*
X117703856Y-108022522D01*
X117894332Y-107974903D01*
X118132427Y-107974903D01*
X118322903Y-108022522D01*
X118418141Y-108070141D01*
X118465760Y-108117760D01*
X118513379Y-108212999D01*
X118513379Y-108308237D01*
X118465760Y-108403475D01*
X118418141Y-108451094D01*
X118322903Y-108498713D01*
X118132427Y-108546332D01*
X117894332Y-108546332D01*
X117703856Y-108498713D01*
X117608618Y-108451094D01*
X117560999Y-108403475D01*
X117513379Y-108308237D01*
X116720379Y-106172856D02*
X116244189Y-106506189D01*
X116720379Y-106744284D02*
X115720379Y-106744284D01*
X115720379Y-106363332D01*
X115767999Y-106268094D01*
X115815618Y-106220475D01*
X115910856Y-106172856D01*
X116053713Y-106172856D01*
X116148951Y-106220475D01*
X116196570Y-106268094D01*
X116244189Y-106363332D01*
X116244189Y-106744284D01*
X116720379Y-105220475D02*
X116720379Y-105791903D01*
X116720379Y-105506189D02*
X115720379Y-105506189D01*
X115863237Y-105601427D01*
X115958475Y-105696665D01*
X116006094Y-105791903D01*
X115720379Y-104887141D02*
X115720379Y-104220475D01*
X116720379Y-104649046D01*
%TO.C,R18*%
X82590428Y-36480714D02*
X82590428Y-37147380D01*
X82352333Y-36099761D02*
X82114238Y-36814047D01*
X82733285Y-36814047D01*
X83114238Y-37052142D02*
X83161857Y-37099761D01*
X83114238Y-37147380D01*
X83066619Y-37099761D01*
X83114238Y-37052142D01*
X83114238Y-37147380D01*
X83495190Y-36147380D02*
X84161857Y-36147380D01*
X83733285Y-37147380D01*
X84542809Y-37147380D02*
X84542809Y-36147380D01*
X84638047Y-36766428D02*
X84923761Y-37147380D01*
X84923761Y-36480714D02*
X84542809Y-36861666D01*
X82876142Y-33307380D02*
X82542809Y-32831190D01*
X82304714Y-33307380D02*
X82304714Y-32307380D01*
X82685666Y-32307380D01*
X82780904Y-32355000D01*
X82828523Y-32402619D01*
X82876142Y-32497857D01*
X82876142Y-32640714D01*
X82828523Y-32735952D01*
X82780904Y-32783571D01*
X82685666Y-32831190D01*
X82304714Y-32831190D01*
X83828523Y-33307380D02*
X83257095Y-33307380D01*
X83542809Y-33307380D02*
X83542809Y-32307380D01*
X83447571Y-32450238D01*
X83352333Y-32545476D01*
X83257095Y-32593095D01*
X84399952Y-32735952D02*
X84304714Y-32688333D01*
X84257095Y-32640714D01*
X84209476Y-32545476D01*
X84209476Y-32497857D01*
X84257095Y-32402619D01*
X84304714Y-32355000D01*
X84399952Y-32307380D01*
X84590428Y-32307380D01*
X84685666Y-32355000D01*
X84733285Y-32402619D01*
X84780904Y-32497857D01*
X84780904Y-32545476D01*
X84733285Y-32640714D01*
X84685666Y-32688333D01*
X84590428Y-32735952D01*
X84399952Y-32735952D01*
X84304714Y-32783571D01*
X84257095Y-32831190D01*
X84209476Y-32926428D01*
X84209476Y-33116904D01*
X84257095Y-33212142D01*
X84304714Y-33259761D01*
X84399952Y-33307380D01*
X84590428Y-33307380D01*
X84685666Y-33259761D01*
X84733285Y-33212142D01*
X84780904Y-33116904D01*
X84780904Y-32926428D01*
X84733285Y-32831190D01*
X84685666Y-32783571D01*
X84590428Y-32735952D01*
%TO.C,R19*%
X113703379Y-110752713D02*
X113703379Y-110133665D01*
X114084332Y-110466999D01*
X114084332Y-110324141D01*
X114131951Y-110228903D01*
X114179570Y-110181284D01*
X114274808Y-110133665D01*
X114512903Y-110133665D01*
X114608141Y-110181284D01*
X114655760Y-110228903D01*
X114703379Y-110324141D01*
X114703379Y-110609856D01*
X114655760Y-110705094D01*
X114608141Y-110752713D01*
X113703379Y-109800332D02*
X113703379Y-109181284D01*
X114084332Y-109514618D01*
X114084332Y-109371760D01*
X114131951Y-109276522D01*
X114179570Y-109228903D01*
X114274808Y-109181284D01*
X114512903Y-109181284D01*
X114608141Y-109228903D01*
X114655760Y-109276522D01*
X114703379Y-109371760D01*
X114703379Y-109657475D01*
X114655760Y-109752713D01*
X114608141Y-109800332D01*
X113703379Y-108562237D02*
X113703379Y-108466999D01*
X113750999Y-108371760D01*
X113798618Y-108324141D01*
X113893856Y-108276522D01*
X114084332Y-108228903D01*
X114322427Y-108228903D01*
X114512903Y-108276522D01*
X114608141Y-108324141D01*
X114655760Y-108371760D01*
X114703379Y-108466999D01*
X114703379Y-108562237D01*
X114655760Y-108657475D01*
X114608141Y-108705094D01*
X114512903Y-108752713D01*
X114322427Y-108800332D01*
X114084332Y-108800332D01*
X113893856Y-108752713D01*
X113798618Y-108705094D01*
X113750999Y-108657475D01*
X113703379Y-108562237D01*
X112910379Y-106172856D02*
X112434189Y-106506189D01*
X112910379Y-106744284D02*
X111910379Y-106744284D01*
X111910379Y-106363332D01*
X111957999Y-106268094D01*
X112005618Y-106220475D01*
X112100856Y-106172856D01*
X112243713Y-106172856D01*
X112338951Y-106220475D01*
X112386570Y-106268094D01*
X112434189Y-106363332D01*
X112434189Y-106744284D01*
X112910379Y-105220475D02*
X112910379Y-105791903D01*
X112910379Y-105506189D02*
X111910379Y-105506189D01*
X112053237Y-105601427D01*
X112148475Y-105696665D01*
X112196094Y-105791903D01*
X112910379Y-104744284D02*
X112910379Y-104553808D01*
X112862760Y-104458570D01*
X112815141Y-104410951D01*
X112672284Y-104315713D01*
X112481808Y-104268094D01*
X112100856Y-104268094D01*
X112005618Y-104315713D01*
X111957999Y-104363332D01*
X111910379Y-104458570D01*
X111910379Y-104649046D01*
X111957999Y-104744284D01*
X112005618Y-104791903D01*
X112100856Y-104839522D01*
X112338951Y-104839522D01*
X112434189Y-104791903D01*
X112481808Y-104744284D01*
X112529427Y-104649046D01*
X112529427Y-104458570D01*
X112481808Y-104363332D01*
X112434189Y-104315713D01*
X112338951Y-104268094D01*
%TO.C,R20*%
X106728380Y-69098285D02*
X106728380Y-69574476D01*
X107204571Y-69622095D01*
X107156952Y-69574476D01*
X107109333Y-69479238D01*
X107109333Y-69241142D01*
X107156952Y-69145904D01*
X107204571Y-69098285D01*
X107299809Y-69050666D01*
X107537904Y-69050666D01*
X107633142Y-69098285D01*
X107680761Y-69145904D01*
X107728380Y-69241142D01*
X107728380Y-69479238D01*
X107680761Y-69574476D01*
X107633142Y-69622095D01*
X106728380Y-68193523D02*
X106728380Y-68384000D01*
X106776000Y-68479238D01*
X106823619Y-68526857D01*
X106966476Y-68622095D01*
X107156952Y-68669714D01*
X107537904Y-68669714D01*
X107633142Y-68622095D01*
X107680761Y-68574476D01*
X107728380Y-68479238D01*
X107728380Y-68288761D01*
X107680761Y-68193523D01*
X107633142Y-68145904D01*
X107537904Y-68098285D01*
X107299809Y-68098285D01*
X107204571Y-68145904D01*
X107156952Y-68193523D01*
X107109333Y-68288761D01*
X107109333Y-68479238D01*
X107156952Y-68574476D01*
X107204571Y-68622095D01*
X107299809Y-68669714D01*
X106728380Y-67479238D02*
X106728380Y-67384000D01*
X106776000Y-67288761D01*
X106823619Y-67241142D01*
X106918857Y-67193523D01*
X107109333Y-67145904D01*
X107347428Y-67145904D01*
X107537904Y-67193523D01*
X107633142Y-67241142D01*
X107680761Y-67288761D01*
X107728380Y-67384000D01*
X107728380Y-67479238D01*
X107680761Y-67574476D01*
X107633142Y-67622095D01*
X107537904Y-67669714D01*
X107347428Y-67717333D01*
X107109333Y-67717333D01*
X106918857Y-67669714D01*
X106823619Y-67622095D01*
X106776000Y-67574476D01*
X106728380Y-67479238D01*
X103888380Y-69026857D02*
X103412190Y-69360190D01*
X103888380Y-69598285D02*
X102888380Y-69598285D01*
X102888380Y-69217333D01*
X102936000Y-69122095D01*
X102983619Y-69074476D01*
X103078857Y-69026857D01*
X103221714Y-69026857D01*
X103316952Y-69074476D01*
X103364571Y-69122095D01*
X103412190Y-69217333D01*
X103412190Y-69598285D01*
X102983619Y-68645904D02*
X102936000Y-68598285D01*
X102888380Y-68503047D01*
X102888380Y-68264952D01*
X102936000Y-68169714D01*
X102983619Y-68122095D01*
X103078857Y-68074476D01*
X103174095Y-68074476D01*
X103316952Y-68122095D01*
X103888380Y-68693523D01*
X103888380Y-68074476D01*
X102888380Y-67455428D02*
X102888380Y-67360190D01*
X102936000Y-67264952D01*
X102983619Y-67217333D01*
X103078857Y-67169714D01*
X103269333Y-67122095D01*
X103507428Y-67122095D01*
X103697904Y-67169714D01*
X103793142Y-67217333D01*
X103840761Y-67264952D01*
X103888380Y-67360190D01*
X103888380Y-67455428D01*
X103840761Y-67550666D01*
X103793142Y-67598285D01*
X103697904Y-67645904D01*
X103507428Y-67693523D01*
X103269333Y-67693523D01*
X103078857Y-67645904D01*
X102983619Y-67598285D01*
X102936000Y-67550666D01*
X102888380Y-67455428D01*
%TO.C,R21*%
X48931714Y-106078380D02*
X48455523Y-106078380D01*
X48407904Y-106554571D01*
X48455523Y-106506952D01*
X48550761Y-106459333D01*
X48788857Y-106459333D01*
X48884095Y-106506952D01*
X48931714Y-106554571D01*
X48979333Y-106649809D01*
X48979333Y-106887904D01*
X48931714Y-106983142D01*
X48884095Y-107030761D01*
X48788857Y-107078380D01*
X48550761Y-107078380D01*
X48455523Y-107030761D01*
X48407904Y-106983142D01*
X49836476Y-106078380D02*
X49646000Y-106078380D01*
X49550761Y-106126000D01*
X49503142Y-106173619D01*
X49407904Y-106316476D01*
X49360285Y-106506952D01*
X49360285Y-106887904D01*
X49407904Y-106983142D01*
X49455523Y-107030761D01*
X49550761Y-107078380D01*
X49741238Y-107078380D01*
X49836476Y-107030761D01*
X49884095Y-106983142D01*
X49931714Y-106887904D01*
X49931714Y-106649809D01*
X49884095Y-106554571D01*
X49836476Y-106506952D01*
X49741238Y-106459333D01*
X49550761Y-106459333D01*
X49455523Y-106506952D01*
X49407904Y-106554571D01*
X49360285Y-106649809D01*
X50550761Y-106078380D02*
X50646000Y-106078380D01*
X50741238Y-106126000D01*
X50788857Y-106173619D01*
X50836476Y-106268857D01*
X50884095Y-106459333D01*
X50884095Y-106697428D01*
X50836476Y-106887904D01*
X50788857Y-106983142D01*
X50741238Y-107030761D01*
X50646000Y-107078380D01*
X50550761Y-107078380D01*
X50455523Y-107030761D01*
X50407904Y-106983142D01*
X50360285Y-106887904D01*
X50312666Y-106697428D01*
X50312666Y-106459333D01*
X50360285Y-106268857D01*
X50407904Y-106173619D01*
X50455523Y-106126000D01*
X50550761Y-106078380D01*
X49003142Y-103238380D02*
X48669809Y-102762190D01*
X48431714Y-103238380D02*
X48431714Y-102238380D01*
X48812666Y-102238380D01*
X48907904Y-102286000D01*
X48955523Y-102333619D01*
X49003142Y-102428857D01*
X49003142Y-102571714D01*
X48955523Y-102666952D01*
X48907904Y-102714571D01*
X48812666Y-102762190D01*
X48431714Y-102762190D01*
X49384095Y-102333619D02*
X49431714Y-102286000D01*
X49526952Y-102238380D01*
X49765047Y-102238380D01*
X49860285Y-102286000D01*
X49907904Y-102333619D01*
X49955523Y-102428857D01*
X49955523Y-102524095D01*
X49907904Y-102666952D01*
X49336476Y-103238380D01*
X49955523Y-103238380D01*
X50907904Y-103238380D02*
X50336476Y-103238380D01*
X50622190Y-103238380D02*
X50622190Y-102238380D01*
X50526952Y-102381238D01*
X50431714Y-102476476D01*
X50336476Y-102524095D01*
%TO.C,R22*%
X73135714Y-55572380D02*
X72659523Y-55572380D01*
X72611904Y-56048571D01*
X72659523Y-56000952D01*
X72754761Y-55953333D01*
X72992857Y-55953333D01*
X73088095Y-56000952D01*
X73135714Y-56048571D01*
X73183333Y-56143809D01*
X73183333Y-56381904D01*
X73135714Y-56477142D01*
X73088095Y-56524761D01*
X72992857Y-56572380D01*
X72754761Y-56572380D01*
X72659523Y-56524761D01*
X72611904Y-56477142D01*
X74040476Y-55572380D02*
X73850000Y-55572380D01*
X73754761Y-55620000D01*
X73707142Y-55667619D01*
X73611904Y-55810476D01*
X73564285Y-56000952D01*
X73564285Y-56381904D01*
X73611904Y-56477142D01*
X73659523Y-56524761D01*
X73754761Y-56572380D01*
X73945238Y-56572380D01*
X74040476Y-56524761D01*
X74088095Y-56477142D01*
X74135714Y-56381904D01*
X74135714Y-56143809D01*
X74088095Y-56048571D01*
X74040476Y-56000952D01*
X73945238Y-55953333D01*
X73754761Y-55953333D01*
X73659523Y-56000952D01*
X73611904Y-56048571D01*
X73564285Y-56143809D01*
X74754761Y-55572380D02*
X74850000Y-55572380D01*
X74945238Y-55620000D01*
X74992857Y-55667619D01*
X75040476Y-55762857D01*
X75088095Y-55953333D01*
X75088095Y-56191428D01*
X75040476Y-56381904D01*
X74992857Y-56477142D01*
X74945238Y-56524761D01*
X74850000Y-56572380D01*
X74754761Y-56572380D01*
X74659523Y-56524761D01*
X74611904Y-56477142D01*
X74564285Y-56381904D01*
X74516666Y-56191428D01*
X74516666Y-55953333D01*
X74564285Y-55762857D01*
X74611904Y-55667619D01*
X74659523Y-55620000D01*
X74754761Y-55572380D01*
X73207142Y-52732380D02*
X72873809Y-52256190D01*
X72635714Y-52732380D02*
X72635714Y-51732380D01*
X73016666Y-51732380D01*
X73111904Y-51780000D01*
X73159523Y-51827619D01*
X73207142Y-51922857D01*
X73207142Y-52065714D01*
X73159523Y-52160952D01*
X73111904Y-52208571D01*
X73016666Y-52256190D01*
X72635714Y-52256190D01*
X73588095Y-51827619D02*
X73635714Y-51780000D01*
X73730952Y-51732380D01*
X73969047Y-51732380D01*
X74064285Y-51780000D01*
X74111904Y-51827619D01*
X74159523Y-51922857D01*
X74159523Y-52018095D01*
X74111904Y-52160952D01*
X73540476Y-52732380D01*
X74159523Y-52732380D01*
X74540476Y-51827619D02*
X74588095Y-51780000D01*
X74683333Y-51732380D01*
X74921428Y-51732380D01*
X75016666Y-51780000D01*
X75064285Y-51827619D01*
X75111904Y-51922857D01*
X75111904Y-52018095D01*
X75064285Y-52160952D01*
X74492857Y-52732380D01*
X75111904Y-52732380D01*
%TO.C,R23*%
X67635714Y-55572380D02*
X67159523Y-55572380D01*
X67111904Y-56048571D01*
X67159523Y-56000952D01*
X67254761Y-55953333D01*
X67492857Y-55953333D01*
X67588095Y-56000952D01*
X67635714Y-56048571D01*
X67683333Y-56143809D01*
X67683333Y-56381904D01*
X67635714Y-56477142D01*
X67588095Y-56524761D01*
X67492857Y-56572380D01*
X67254761Y-56572380D01*
X67159523Y-56524761D01*
X67111904Y-56477142D01*
X68540476Y-55572380D02*
X68350000Y-55572380D01*
X68254761Y-55620000D01*
X68207142Y-55667619D01*
X68111904Y-55810476D01*
X68064285Y-56000952D01*
X68064285Y-56381904D01*
X68111904Y-56477142D01*
X68159523Y-56524761D01*
X68254761Y-56572380D01*
X68445238Y-56572380D01*
X68540476Y-56524761D01*
X68588095Y-56477142D01*
X68635714Y-56381904D01*
X68635714Y-56143809D01*
X68588095Y-56048571D01*
X68540476Y-56000952D01*
X68445238Y-55953333D01*
X68254761Y-55953333D01*
X68159523Y-56000952D01*
X68111904Y-56048571D01*
X68064285Y-56143809D01*
X69254761Y-55572380D02*
X69350000Y-55572380D01*
X69445238Y-55620000D01*
X69492857Y-55667619D01*
X69540476Y-55762857D01*
X69588095Y-55953333D01*
X69588095Y-56191428D01*
X69540476Y-56381904D01*
X69492857Y-56477142D01*
X69445238Y-56524761D01*
X69350000Y-56572380D01*
X69254761Y-56572380D01*
X69159523Y-56524761D01*
X69111904Y-56477142D01*
X69064285Y-56381904D01*
X69016666Y-56191428D01*
X69016666Y-55953333D01*
X69064285Y-55762857D01*
X69111904Y-55667619D01*
X69159523Y-55620000D01*
X69254761Y-55572380D01*
X67707142Y-52732380D02*
X67373809Y-52256190D01*
X67135714Y-52732380D02*
X67135714Y-51732380D01*
X67516666Y-51732380D01*
X67611904Y-51780000D01*
X67659523Y-51827619D01*
X67707142Y-51922857D01*
X67707142Y-52065714D01*
X67659523Y-52160952D01*
X67611904Y-52208571D01*
X67516666Y-52256190D01*
X67135714Y-52256190D01*
X68088095Y-51827619D02*
X68135714Y-51780000D01*
X68230952Y-51732380D01*
X68469047Y-51732380D01*
X68564285Y-51780000D01*
X68611904Y-51827619D01*
X68659523Y-51922857D01*
X68659523Y-52018095D01*
X68611904Y-52160952D01*
X68040476Y-52732380D01*
X68659523Y-52732380D01*
X68992857Y-51732380D02*
X69611904Y-51732380D01*
X69278571Y-52113333D01*
X69421428Y-52113333D01*
X69516666Y-52160952D01*
X69564285Y-52208571D01*
X69611904Y-52303809D01*
X69611904Y-52541904D01*
X69564285Y-52637142D01*
X69516666Y-52684761D01*
X69421428Y-52732380D01*
X69135714Y-52732380D01*
X69040476Y-52684761D01*
X68992857Y-52637142D01*
%TO.C,R24*%
X62285714Y-55572380D02*
X61809523Y-55572380D01*
X61761904Y-56048571D01*
X61809523Y-56000952D01*
X61904761Y-55953333D01*
X62142857Y-55953333D01*
X62238095Y-56000952D01*
X62285714Y-56048571D01*
X62333333Y-56143809D01*
X62333333Y-56381904D01*
X62285714Y-56477142D01*
X62238095Y-56524761D01*
X62142857Y-56572380D01*
X61904761Y-56572380D01*
X61809523Y-56524761D01*
X61761904Y-56477142D01*
X63190476Y-55572380D02*
X63000000Y-55572380D01*
X62904761Y-55620000D01*
X62857142Y-55667619D01*
X62761904Y-55810476D01*
X62714285Y-56000952D01*
X62714285Y-56381904D01*
X62761904Y-56477142D01*
X62809523Y-56524761D01*
X62904761Y-56572380D01*
X63095238Y-56572380D01*
X63190476Y-56524761D01*
X63238095Y-56477142D01*
X63285714Y-56381904D01*
X63285714Y-56143809D01*
X63238095Y-56048571D01*
X63190476Y-56000952D01*
X63095238Y-55953333D01*
X62904761Y-55953333D01*
X62809523Y-56000952D01*
X62761904Y-56048571D01*
X62714285Y-56143809D01*
X63904761Y-55572380D02*
X64000000Y-55572380D01*
X64095238Y-55620000D01*
X64142857Y-55667619D01*
X64190476Y-55762857D01*
X64238095Y-55953333D01*
X64238095Y-56191428D01*
X64190476Y-56381904D01*
X64142857Y-56477142D01*
X64095238Y-56524761D01*
X64000000Y-56572380D01*
X63904761Y-56572380D01*
X63809523Y-56524761D01*
X63761904Y-56477142D01*
X63714285Y-56381904D01*
X63666666Y-56191428D01*
X63666666Y-55953333D01*
X63714285Y-55762857D01*
X63761904Y-55667619D01*
X63809523Y-55620000D01*
X63904761Y-55572380D01*
X62357142Y-52732380D02*
X62023809Y-52256190D01*
X61785714Y-52732380D02*
X61785714Y-51732380D01*
X62166666Y-51732380D01*
X62261904Y-51780000D01*
X62309523Y-51827619D01*
X62357142Y-51922857D01*
X62357142Y-52065714D01*
X62309523Y-52160952D01*
X62261904Y-52208571D01*
X62166666Y-52256190D01*
X61785714Y-52256190D01*
X62738095Y-51827619D02*
X62785714Y-51780000D01*
X62880952Y-51732380D01*
X63119047Y-51732380D01*
X63214285Y-51780000D01*
X63261904Y-51827619D01*
X63309523Y-51922857D01*
X63309523Y-52018095D01*
X63261904Y-52160952D01*
X62690476Y-52732380D01*
X63309523Y-52732380D01*
X64166666Y-52065714D02*
X64166666Y-52732380D01*
X63928571Y-51684761D02*
X63690476Y-52399047D01*
X64309523Y-52399047D01*
%TO.C,R25*%
X56685714Y-55572380D02*
X56209523Y-55572380D01*
X56161904Y-56048571D01*
X56209523Y-56000952D01*
X56304761Y-55953333D01*
X56542857Y-55953333D01*
X56638095Y-56000952D01*
X56685714Y-56048571D01*
X56733333Y-56143809D01*
X56733333Y-56381904D01*
X56685714Y-56477142D01*
X56638095Y-56524761D01*
X56542857Y-56572380D01*
X56304761Y-56572380D01*
X56209523Y-56524761D01*
X56161904Y-56477142D01*
X57590476Y-55572380D02*
X57400000Y-55572380D01*
X57304761Y-55620000D01*
X57257142Y-55667619D01*
X57161904Y-55810476D01*
X57114285Y-56000952D01*
X57114285Y-56381904D01*
X57161904Y-56477142D01*
X57209523Y-56524761D01*
X57304761Y-56572380D01*
X57495238Y-56572380D01*
X57590476Y-56524761D01*
X57638095Y-56477142D01*
X57685714Y-56381904D01*
X57685714Y-56143809D01*
X57638095Y-56048571D01*
X57590476Y-56000952D01*
X57495238Y-55953333D01*
X57304761Y-55953333D01*
X57209523Y-56000952D01*
X57161904Y-56048571D01*
X57114285Y-56143809D01*
X58304761Y-55572380D02*
X58400000Y-55572380D01*
X58495238Y-55620000D01*
X58542857Y-55667619D01*
X58590476Y-55762857D01*
X58638095Y-55953333D01*
X58638095Y-56191428D01*
X58590476Y-56381904D01*
X58542857Y-56477142D01*
X58495238Y-56524761D01*
X58400000Y-56572380D01*
X58304761Y-56572380D01*
X58209523Y-56524761D01*
X58161904Y-56477142D01*
X58114285Y-56381904D01*
X58066666Y-56191428D01*
X58066666Y-55953333D01*
X58114285Y-55762857D01*
X58161904Y-55667619D01*
X58209523Y-55620000D01*
X58304761Y-55572380D01*
X56757142Y-52732380D02*
X56423809Y-52256190D01*
X56185714Y-52732380D02*
X56185714Y-51732380D01*
X56566666Y-51732380D01*
X56661904Y-51780000D01*
X56709523Y-51827619D01*
X56757142Y-51922857D01*
X56757142Y-52065714D01*
X56709523Y-52160952D01*
X56661904Y-52208571D01*
X56566666Y-52256190D01*
X56185714Y-52256190D01*
X57138095Y-51827619D02*
X57185714Y-51780000D01*
X57280952Y-51732380D01*
X57519047Y-51732380D01*
X57614285Y-51780000D01*
X57661904Y-51827619D01*
X57709523Y-51922857D01*
X57709523Y-52018095D01*
X57661904Y-52160952D01*
X57090476Y-52732380D01*
X57709523Y-52732380D01*
X58614285Y-51732380D02*
X58138095Y-51732380D01*
X58090476Y-52208571D01*
X58138095Y-52160952D01*
X58233333Y-52113333D01*
X58471428Y-52113333D01*
X58566666Y-52160952D01*
X58614285Y-52208571D01*
X58661904Y-52303809D01*
X58661904Y-52541904D01*
X58614285Y-52637142D01*
X58566666Y-52684761D01*
X58471428Y-52732380D01*
X58233333Y-52732380D01*
X58138095Y-52684761D01*
X58090476Y-52637142D01*
%TO.C,RV1*%
X133950379Y-94519046D02*
X133950379Y-95090475D01*
X133950379Y-94804760D02*
X132950379Y-94804760D01*
X133093237Y-94899999D01*
X133188475Y-94995237D01*
X133236094Y-95090475D01*
X133950379Y-94090475D02*
X132950379Y-94090475D01*
X133569427Y-93995237D02*
X133950379Y-93709522D01*
X133283713Y-93709522D02*
X133664665Y-94090475D01*
X125252760Y-98902379D02*
X124919427Y-98426189D01*
X124681332Y-98902379D02*
X124681332Y-97902379D01*
X125062284Y-97902379D01*
X125157522Y-97949999D01*
X125205141Y-97997618D01*
X125252760Y-98092856D01*
X125252760Y-98235713D01*
X125205141Y-98330951D01*
X125157522Y-98378570D01*
X125062284Y-98426189D01*
X124681332Y-98426189D01*
X125538475Y-97902379D02*
X125871808Y-98902379D01*
X126205141Y-97902379D01*
X127062284Y-98902379D02*
X126490856Y-98902379D01*
X126776570Y-98902379D02*
X126776570Y-97902379D01*
X126681332Y-98045237D01*
X126586094Y-98140475D01*
X126490856Y-98188094D01*
%TO.C,RV2*%
X118710379Y-94519046D02*
X118710379Y-95090475D01*
X118710379Y-94804760D02*
X117710379Y-94804760D01*
X117853237Y-94899999D01*
X117948475Y-94995237D01*
X117996094Y-95090475D01*
X118710379Y-94090475D02*
X117710379Y-94090475D01*
X118329427Y-93995237D02*
X118710379Y-93709522D01*
X118043713Y-93709522D02*
X118424665Y-94090475D01*
X110012760Y-98902379D02*
X109679427Y-98426189D01*
X109441332Y-98902379D02*
X109441332Y-97902379D01*
X109822284Y-97902379D01*
X109917522Y-97949999D01*
X109965141Y-97997618D01*
X110012760Y-98092856D01*
X110012760Y-98235713D01*
X109965141Y-98330951D01*
X109917522Y-98378570D01*
X109822284Y-98426189D01*
X109441332Y-98426189D01*
X110298475Y-97902379D02*
X110631808Y-98902379D01*
X110965141Y-97902379D01*
X111250856Y-97997618D02*
X111298475Y-97949999D01*
X111393713Y-97902379D01*
X111631808Y-97902379D01*
X111727046Y-97949999D01*
X111774665Y-97997618D01*
X111822284Y-98092856D01*
X111822284Y-98188094D01*
X111774665Y-98330951D01*
X111203237Y-98902379D01*
X111822284Y-98902379D01*
%TO.C,SW1*%
X101917761Y-92261619D02*
X101965380Y-92118761D01*
X101965380Y-91880666D01*
X101917761Y-91785428D01*
X101870142Y-91737809D01*
X101774904Y-91690190D01*
X101679666Y-91690190D01*
X101584428Y-91737809D01*
X101536809Y-91785428D01*
X101489190Y-91880666D01*
X101441571Y-92071142D01*
X101393952Y-92166380D01*
X101346333Y-92214000D01*
X101251095Y-92261619D01*
X101155857Y-92261619D01*
X101060619Y-92214000D01*
X101013000Y-92166380D01*
X100965380Y-92071142D01*
X100965380Y-91833047D01*
X101013000Y-91690190D01*
X100965380Y-91356857D02*
X101965380Y-91118761D01*
X101251095Y-90928285D01*
X101965380Y-90737809D01*
X100965380Y-90499714D01*
X102060619Y-90356857D02*
X102060619Y-89594952D01*
X101965380Y-89356857D02*
X100965380Y-89356857D01*
X100965380Y-88975904D01*
X101013000Y-88880666D01*
X101060619Y-88833047D01*
X101155857Y-88785428D01*
X101298714Y-88785428D01*
X101393952Y-88833047D01*
X101441571Y-88880666D01*
X101489190Y-88975904D01*
X101489190Y-89356857D01*
X101298714Y-87928285D02*
X101965380Y-87928285D01*
X101298714Y-88356857D02*
X101822523Y-88356857D01*
X101917761Y-88309238D01*
X101965380Y-88214000D01*
X101965380Y-88071142D01*
X101917761Y-87975904D01*
X101870142Y-87928285D01*
X101917761Y-87499714D02*
X101965380Y-87404476D01*
X101965380Y-87214000D01*
X101917761Y-87118761D01*
X101822523Y-87071142D01*
X101774904Y-87071142D01*
X101679666Y-87118761D01*
X101632047Y-87214000D01*
X101632047Y-87356857D01*
X101584428Y-87452095D01*
X101489190Y-87499714D01*
X101441571Y-87499714D01*
X101346333Y-87452095D01*
X101298714Y-87356857D01*
X101298714Y-87214000D01*
X101346333Y-87118761D01*
X101965380Y-86642571D02*
X100965380Y-86642571D01*
X101965380Y-86214000D02*
X101441571Y-86214000D01*
X101346333Y-86261619D01*
X101298714Y-86356857D01*
X101298714Y-86499714D01*
X101346333Y-86594952D01*
X101393952Y-86642571D01*
X97467761Y-91047333D02*
X97515380Y-90904476D01*
X97515380Y-90666380D01*
X97467761Y-90571142D01*
X97420142Y-90523523D01*
X97324904Y-90475904D01*
X97229666Y-90475904D01*
X97134428Y-90523523D01*
X97086809Y-90571142D01*
X97039190Y-90666380D01*
X96991571Y-90856857D01*
X96943952Y-90952095D01*
X96896333Y-90999714D01*
X96801095Y-91047333D01*
X96705857Y-91047333D01*
X96610619Y-90999714D01*
X96563000Y-90952095D01*
X96515380Y-90856857D01*
X96515380Y-90618761D01*
X96563000Y-90475904D01*
X96515380Y-90142571D02*
X97515380Y-89904476D01*
X96801095Y-89714000D01*
X97515380Y-89523523D01*
X96515380Y-89285428D01*
X97515380Y-88380666D02*
X97515380Y-88952095D01*
X97515380Y-88666380D02*
X96515380Y-88666380D01*
X96658238Y-88761619D01*
X96753476Y-88856857D01*
X96801095Y-88952095D01*
%TO.C,SW2*%
X92265761Y-92261619D02*
X92313380Y-92118761D01*
X92313380Y-91880666D01*
X92265761Y-91785428D01*
X92218142Y-91737809D01*
X92122904Y-91690190D01*
X92027666Y-91690190D01*
X91932428Y-91737809D01*
X91884809Y-91785428D01*
X91837190Y-91880666D01*
X91789571Y-92071142D01*
X91741952Y-92166380D01*
X91694333Y-92214000D01*
X91599095Y-92261619D01*
X91503857Y-92261619D01*
X91408619Y-92214000D01*
X91361000Y-92166380D01*
X91313380Y-92071142D01*
X91313380Y-91833047D01*
X91361000Y-91690190D01*
X91313380Y-91356857D02*
X92313380Y-91118761D01*
X91599095Y-90928285D01*
X92313380Y-90737809D01*
X91313380Y-90499714D01*
X92408619Y-90356857D02*
X92408619Y-89594952D01*
X92313380Y-89356857D02*
X91313380Y-89356857D01*
X91313380Y-88975904D01*
X91361000Y-88880666D01*
X91408619Y-88833047D01*
X91503857Y-88785428D01*
X91646714Y-88785428D01*
X91741952Y-88833047D01*
X91789571Y-88880666D01*
X91837190Y-88975904D01*
X91837190Y-89356857D01*
X91646714Y-87928285D02*
X92313380Y-87928285D01*
X91646714Y-88356857D02*
X92170523Y-88356857D01*
X92265761Y-88309238D01*
X92313380Y-88214000D01*
X92313380Y-88071142D01*
X92265761Y-87975904D01*
X92218142Y-87928285D01*
X92265761Y-87499714D02*
X92313380Y-87404476D01*
X92313380Y-87214000D01*
X92265761Y-87118761D01*
X92170523Y-87071142D01*
X92122904Y-87071142D01*
X92027666Y-87118761D01*
X91980047Y-87214000D01*
X91980047Y-87356857D01*
X91932428Y-87452095D01*
X91837190Y-87499714D01*
X91789571Y-87499714D01*
X91694333Y-87452095D01*
X91646714Y-87356857D01*
X91646714Y-87214000D01*
X91694333Y-87118761D01*
X92313380Y-86642571D02*
X91313380Y-86642571D01*
X92313380Y-86214000D02*
X91789571Y-86214000D01*
X91694333Y-86261619D01*
X91646714Y-86356857D01*
X91646714Y-86499714D01*
X91694333Y-86594952D01*
X91741952Y-86642571D01*
X87815761Y-91047333D02*
X87863380Y-90904476D01*
X87863380Y-90666380D01*
X87815761Y-90571142D01*
X87768142Y-90523523D01*
X87672904Y-90475904D01*
X87577666Y-90475904D01*
X87482428Y-90523523D01*
X87434809Y-90571142D01*
X87387190Y-90666380D01*
X87339571Y-90856857D01*
X87291952Y-90952095D01*
X87244333Y-90999714D01*
X87149095Y-91047333D01*
X87053857Y-91047333D01*
X86958619Y-90999714D01*
X86911000Y-90952095D01*
X86863380Y-90856857D01*
X86863380Y-90618761D01*
X86911000Y-90475904D01*
X86863380Y-90142571D02*
X87863380Y-89904476D01*
X87149095Y-89714000D01*
X87863380Y-89523523D01*
X86863380Y-89285428D01*
X86958619Y-88952095D02*
X86911000Y-88904476D01*
X86863380Y-88809238D01*
X86863380Y-88571142D01*
X86911000Y-88475904D01*
X86958619Y-88428285D01*
X87053857Y-88380666D01*
X87149095Y-88380666D01*
X87291952Y-88428285D01*
X87863380Y-88999714D01*
X87863380Y-88380666D01*
%TO.C,SW3*%
X81296761Y-91753619D02*
X81344380Y-91610761D01*
X81344380Y-91372666D01*
X81296761Y-91277428D01*
X81249142Y-91229809D01*
X81153904Y-91182190D01*
X81058666Y-91182190D01*
X80963428Y-91229809D01*
X80915809Y-91277428D01*
X80868190Y-91372666D01*
X80820571Y-91563142D01*
X80772952Y-91658380D01*
X80725333Y-91706000D01*
X80630095Y-91753619D01*
X80534857Y-91753619D01*
X80439619Y-91706000D01*
X80392000Y-91658380D01*
X80344380Y-91563142D01*
X80344380Y-91325047D01*
X80392000Y-91182190D01*
X80344380Y-90848857D02*
X81344380Y-90610761D01*
X80630095Y-90420285D01*
X81344380Y-90229809D01*
X80344380Y-89991714D01*
X81439619Y-89848857D02*
X81439619Y-89086952D01*
X81344380Y-88848857D02*
X80344380Y-88848857D01*
X80344380Y-88467904D01*
X80392000Y-88372666D01*
X80439619Y-88325047D01*
X80534857Y-88277428D01*
X80677714Y-88277428D01*
X80772952Y-88325047D01*
X80820571Y-88372666D01*
X80868190Y-88467904D01*
X80868190Y-88848857D01*
X80677714Y-87420285D02*
X81344380Y-87420285D01*
X80677714Y-87848857D02*
X81201523Y-87848857D01*
X81296761Y-87801238D01*
X81344380Y-87706000D01*
X81344380Y-87563142D01*
X81296761Y-87467904D01*
X81249142Y-87420285D01*
X81296761Y-86991714D02*
X81344380Y-86896476D01*
X81344380Y-86706000D01*
X81296761Y-86610761D01*
X81201523Y-86563142D01*
X81153904Y-86563142D01*
X81058666Y-86610761D01*
X81011047Y-86706000D01*
X81011047Y-86848857D01*
X80963428Y-86944095D01*
X80868190Y-86991714D01*
X80820571Y-86991714D01*
X80725333Y-86944095D01*
X80677714Y-86848857D01*
X80677714Y-86706000D01*
X80725333Y-86610761D01*
X81344380Y-86134571D02*
X80344380Y-86134571D01*
X81344380Y-85706000D02*
X80820571Y-85706000D01*
X80725333Y-85753619D01*
X80677714Y-85848857D01*
X80677714Y-85991714D01*
X80725333Y-86086952D01*
X80772952Y-86134571D01*
X76846761Y-90539333D02*
X76894380Y-90396476D01*
X76894380Y-90158380D01*
X76846761Y-90063142D01*
X76799142Y-90015523D01*
X76703904Y-89967904D01*
X76608666Y-89967904D01*
X76513428Y-90015523D01*
X76465809Y-90063142D01*
X76418190Y-90158380D01*
X76370571Y-90348857D01*
X76322952Y-90444095D01*
X76275333Y-90491714D01*
X76180095Y-90539333D01*
X76084857Y-90539333D01*
X75989619Y-90491714D01*
X75942000Y-90444095D01*
X75894380Y-90348857D01*
X75894380Y-90110761D01*
X75942000Y-89967904D01*
X75894380Y-89634571D02*
X76894380Y-89396476D01*
X76180095Y-89206000D01*
X76894380Y-89015523D01*
X75894380Y-88777428D01*
X75894380Y-88491714D02*
X75894380Y-87872666D01*
X76275333Y-88206000D01*
X76275333Y-88063142D01*
X76322952Y-87967904D01*
X76370571Y-87920285D01*
X76465809Y-87872666D01*
X76703904Y-87872666D01*
X76799142Y-87920285D01*
X76846761Y-87967904D01*
X76894380Y-88063142D01*
X76894380Y-88348857D01*
X76846761Y-88444095D01*
X76799142Y-88491714D01*
%TO.C,SW4*%
X72152761Y-91753619D02*
X72200380Y-91610761D01*
X72200380Y-91372666D01*
X72152761Y-91277428D01*
X72105142Y-91229809D01*
X72009904Y-91182190D01*
X71914666Y-91182190D01*
X71819428Y-91229809D01*
X71771809Y-91277428D01*
X71724190Y-91372666D01*
X71676571Y-91563142D01*
X71628952Y-91658380D01*
X71581333Y-91706000D01*
X71486095Y-91753619D01*
X71390857Y-91753619D01*
X71295619Y-91706000D01*
X71248000Y-91658380D01*
X71200380Y-91563142D01*
X71200380Y-91325047D01*
X71248000Y-91182190D01*
X71200380Y-90848857D02*
X72200380Y-90610761D01*
X71486095Y-90420285D01*
X72200380Y-90229809D01*
X71200380Y-89991714D01*
X72295619Y-89848857D02*
X72295619Y-89086952D01*
X72200380Y-88848857D02*
X71200380Y-88848857D01*
X71200380Y-88467904D01*
X71248000Y-88372666D01*
X71295619Y-88325047D01*
X71390857Y-88277428D01*
X71533714Y-88277428D01*
X71628952Y-88325047D01*
X71676571Y-88372666D01*
X71724190Y-88467904D01*
X71724190Y-88848857D01*
X71533714Y-87420285D02*
X72200380Y-87420285D01*
X71533714Y-87848857D02*
X72057523Y-87848857D01*
X72152761Y-87801238D01*
X72200380Y-87706000D01*
X72200380Y-87563142D01*
X72152761Y-87467904D01*
X72105142Y-87420285D01*
X72152761Y-86991714D02*
X72200380Y-86896476D01*
X72200380Y-86706000D01*
X72152761Y-86610761D01*
X72057523Y-86563142D01*
X72009904Y-86563142D01*
X71914666Y-86610761D01*
X71867047Y-86706000D01*
X71867047Y-86848857D01*
X71819428Y-86944095D01*
X71724190Y-86991714D01*
X71676571Y-86991714D01*
X71581333Y-86944095D01*
X71533714Y-86848857D01*
X71533714Y-86706000D01*
X71581333Y-86610761D01*
X72200380Y-86134571D02*
X71200380Y-86134571D01*
X72200380Y-85706000D02*
X71676571Y-85706000D01*
X71581333Y-85753619D01*
X71533714Y-85848857D01*
X71533714Y-85991714D01*
X71581333Y-86086952D01*
X71628952Y-86134571D01*
X67702761Y-90624334D02*
X67750380Y-90481477D01*
X67750380Y-90243381D01*
X67702761Y-90148143D01*
X67655142Y-90100524D01*
X67559904Y-90052905D01*
X67464666Y-90052905D01*
X67369428Y-90100524D01*
X67321809Y-90148143D01*
X67274190Y-90243381D01*
X67226571Y-90433858D01*
X67178952Y-90529096D01*
X67131333Y-90576715D01*
X67036095Y-90624334D01*
X66940857Y-90624334D01*
X66845619Y-90576715D01*
X66798000Y-90529096D01*
X66750380Y-90433858D01*
X66750380Y-90195762D01*
X66798000Y-90052905D01*
X66750380Y-89719572D02*
X67750380Y-89481477D01*
X67036095Y-89291001D01*
X67750380Y-89100524D01*
X66750380Y-88862429D01*
X67083714Y-88052905D02*
X67750380Y-88052905D01*
X66702761Y-88291001D02*
X67417047Y-88529096D01*
X67417047Y-87910048D01*
%TO.C,U1*%
X79969000Y-40852380D02*
X79969000Y-39852380D01*
X80207095Y-39852380D01*
X80349952Y-39900000D01*
X80445190Y-39995238D01*
X80492809Y-40090476D01*
X80540428Y-40280952D01*
X80540428Y-40423809D01*
X80492809Y-40614285D01*
X80445190Y-40709523D01*
X80349952Y-40804761D01*
X80207095Y-40852380D01*
X79969000Y-40852380D01*
X80921380Y-40804761D02*
X81064238Y-40852380D01*
X81302333Y-40852380D01*
X81397571Y-40804761D01*
X81445190Y-40757142D01*
X81492809Y-40661904D01*
X81492809Y-40566666D01*
X81445190Y-40471428D01*
X81397571Y-40423809D01*
X81302333Y-40376190D01*
X81111857Y-40328571D01*
X81016619Y-40280952D01*
X80969000Y-40233333D01*
X80921380Y-40138095D01*
X80921380Y-40042857D01*
X80969000Y-39947619D01*
X81016619Y-39900000D01*
X81111857Y-39852380D01*
X81349952Y-39852380D01*
X81492809Y-39900000D01*
X82445190Y-40852380D02*
X81873761Y-40852380D01*
X82159476Y-40852380D02*
X82159476Y-39852380D01*
X82064238Y-39995238D01*
X81969000Y-40090476D01*
X81873761Y-40138095D01*
X83016619Y-40280952D02*
X82921380Y-40233333D01*
X82873761Y-40185714D01*
X82826142Y-40090476D01*
X82826142Y-40042857D01*
X82873761Y-39947619D01*
X82921380Y-39900000D01*
X83016619Y-39852380D01*
X83207095Y-39852380D01*
X83302333Y-39900000D01*
X83349952Y-39947619D01*
X83397571Y-40042857D01*
X83397571Y-40090476D01*
X83349952Y-40185714D01*
X83302333Y-40233333D01*
X83207095Y-40280952D01*
X83016619Y-40280952D01*
X82921380Y-40328571D01*
X82873761Y-40376190D01*
X82826142Y-40471428D01*
X82826142Y-40661904D01*
X82873761Y-40757142D01*
X82921380Y-40804761D01*
X83016619Y-40852380D01*
X83207095Y-40852380D01*
X83302333Y-40804761D01*
X83349952Y-40757142D01*
X83397571Y-40661904D01*
X83397571Y-40471428D01*
X83349952Y-40376190D01*
X83302333Y-40328571D01*
X83207095Y-40280952D01*
X83778523Y-40804761D02*
X83921380Y-40852380D01*
X84159476Y-40852380D01*
X84254714Y-40804761D01*
X84302333Y-40757142D01*
X84349952Y-40661904D01*
X84349952Y-40566666D01*
X84302333Y-40471428D01*
X84254714Y-40423809D01*
X84159476Y-40376190D01*
X83969000Y-40328571D01*
X83873761Y-40280952D01*
X83826142Y-40233333D01*
X83778523Y-40138095D01*
X83778523Y-40042857D01*
X83826142Y-39947619D01*
X83873761Y-39900000D01*
X83969000Y-39852380D01*
X84207095Y-39852380D01*
X84349952Y-39900000D01*
X84730904Y-39947619D02*
X84778523Y-39900000D01*
X84873761Y-39852380D01*
X85111857Y-39852380D01*
X85207095Y-39900000D01*
X85254714Y-39947619D01*
X85302333Y-40042857D01*
X85302333Y-40138095D01*
X85254714Y-40280952D01*
X84683285Y-40852380D01*
X85302333Y-40852380D01*
X85921380Y-39852380D02*
X86016619Y-39852380D01*
X86111857Y-39900000D01*
X86159476Y-39947619D01*
X86207095Y-40042857D01*
X86254714Y-40233333D01*
X86254714Y-40471428D01*
X86207095Y-40661904D01*
X86159476Y-40757142D01*
X86111857Y-40804761D01*
X86016619Y-40852380D01*
X85921380Y-40852380D01*
X85826142Y-40804761D01*
X85778523Y-40757142D01*
X85730904Y-40661904D01*
X85683285Y-40471428D01*
X85683285Y-40233333D01*
X85730904Y-40042857D01*
X85778523Y-39947619D01*
X85826142Y-39900000D01*
X85921380Y-39852380D01*
X86445190Y-40947619D02*
X87207095Y-40947619D01*
X82897571Y-43739285D02*
X82897571Y-44346428D01*
X82933285Y-44417857D01*
X82969000Y-44453571D01*
X83040428Y-44489285D01*
X83183285Y-44489285D01*
X83254714Y-44453571D01*
X83290428Y-44417857D01*
X83326142Y-44346428D01*
X83326142Y-43739285D01*
X84076142Y-44489285D02*
X83647571Y-44489285D01*
X83861857Y-44489285D02*
X83861857Y-43739285D01*
X83790428Y-43846428D01*
X83719000Y-43917857D01*
X83647571Y-43953571D01*
%TO.C,U2*%
X79969000Y-47602380D02*
X79969000Y-46602380D01*
X80207095Y-46602380D01*
X80349952Y-46650000D01*
X80445190Y-46745238D01*
X80492809Y-46840476D01*
X80540428Y-47030952D01*
X80540428Y-47173809D01*
X80492809Y-47364285D01*
X80445190Y-47459523D01*
X80349952Y-47554761D01*
X80207095Y-47602380D01*
X79969000Y-47602380D01*
X80921380Y-47554761D02*
X81064238Y-47602380D01*
X81302333Y-47602380D01*
X81397571Y-47554761D01*
X81445190Y-47507142D01*
X81492809Y-47411904D01*
X81492809Y-47316666D01*
X81445190Y-47221428D01*
X81397571Y-47173809D01*
X81302333Y-47126190D01*
X81111857Y-47078571D01*
X81016619Y-47030952D01*
X80969000Y-46983333D01*
X80921380Y-46888095D01*
X80921380Y-46792857D01*
X80969000Y-46697619D01*
X81016619Y-46650000D01*
X81111857Y-46602380D01*
X81349952Y-46602380D01*
X81492809Y-46650000D01*
X82445190Y-47602380D02*
X81873761Y-47602380D01*
X82159476Y-47602380D02*
X82159476Y-46602380D01*
X82064238Y-46745238D01*
X81969000Y-46840476D01*
X81873761Y-46888095D01*
X83016619Y-47030952D02*
X82921380Y-46983333D01*
X82873761Y-46935714D01*
X82826142Y-46840476D01*
X82826142Y-46792857D01*
X82873761Y-46697619D01*
X82921380Y-46650000D01*
X83016619Y-46602380D01*
X83207095Y-46602380D01*
X83302333Y-46650000D01*
X83349952Y-46697619D01*
X83397571Y-46792857D01*
X83397571Y-46840476D01*
X83349952Y-46935714D01*
X83302333Y-46983333D01*
X83207095Y-47030952D01*
X83016619Y-47030952D01*
X82921380Y-47078571D01*
X82873761Y-47126190D01*
X82826142Y-47221428D01*
X82826142Y-47411904D01*
X82873761Y-47507142D01*
X82921380Y-47554761D01*
X83016619Y-47602380D01*
X83207095Y-47602380D01*
X83302333Y-47554761D01*
X83349952Y-47507142D01*
X83397571Y-47411904D01*
X83397571Y-47221428D01*
X83349952Y-47126190D01*
X83302333Y-47078571D01*
X83207095Y-47030952D01*
X83778523Y-47554761D02*
X83921380Y-47602380D01*
X84159476Y-47602380D01*
X84254714Y-47554761D01*
X84302333Y-47507142D01*
X84349952Y-47411904D01*
X84349952Y-47316666D01*
X84302333Y-47221428D01*
X84254714Y-47173809D01*
X84159476Y-47126190D01*
X83969000Y-47078571D01*
X83873761Y-47030952D01*
X83826142Y-46983333D01*
X83778523Y-46888095D01*
X83778523Y-46792857D01*
X83826142Y-46697619D01*
X83873761Y-46650000D01*
X83969000Y-46602380D01*
X84207095Y-46602380D01*
X84349952Y-46650000D01*
X84730904Y-46697619D02*
X84778523Y-46650000D01*
X84873761Y-46602380D01*
X85111857Y-46602380D01*
X85207095Y-46650000D01*
X85254714Y-46697619D01*
X85302333Y-46792857D01*
X85302333Y-46888095D01*
X85254714Y-47030952D01*
X84683285Y-47602380D01*
X85302333Y-47602380D01*
X85921380Y-46602380D02*
X86016619Y-46602380D01*
X86111857Y-46650000D01*
X86159476Y-46697619D01*
X86207095Y-46792857D01*
X86254714Y-46983333D01*
X86254714Y-47221428D01*
X86207095Y-47411904D01*
X86159476Y-47507142D01*
X86111857Y-47554761D01*
X86016619Y-47602380D01*
X85921380Y-47602380D01*
X85826142Y-47554761D01*
X85778523Y-47507142D01*
X85730904Y-47411904D01*
X85683285Y-47221428D01*
X85683285Y-46983333D01*
X85730904Y-46792857D01*
X85778523Y-46697619D01*
X85826142Y-46650000D01*
X85921380Y-46602380D01*
X86445190Y-47697619D02*
X87207095Y-47697619D01*
X82897571Y-50489285D02*
X82897571Y-51096428D01*
X82933285Y-51167857D01*
X82969000Y-51203571D01*
X83040428Y-51239285D01*
X83183285Y-51239285D01*
X83254714Y-51203571D01*
X83290428Y-51167857D01*
X83326142Y-51096428D01*
X83326142Y-50489285D01*
X83647571Y-50560714D02*
X83683285Y-50525000D01*
X83754714Y-50489285D01*
X83933285Y-50489285D01*
X84004714Y-50525000D01*
X84040428Y-50560714D01*
X84076142Y-50632142D01*
X84076142Y-50703571D01*
X84040428Y-50810714D01*
X83611857Y-51239285D01*
X84076142Y-51239285D01*
%TO.C,J16*%
X80911904Y-22357142D02*
X80864285Y-22404761D01*
X80721428Y-22452380D01*
X80626190Y-22452380D01*
X80483333Y-22404761D01*
X80388095Y-22309523D01*
X80340476Y-22214285D01*
X80292857Y-22023809D01*
X80292857Y-21880952D01*
X80340476Y-21690476D01*
X80388095Y-21595238D01*
X80483333Y-21500000D01*
X80626190Y-21452380D01*
X80721428Y-21452380D01*
X80864285Y-21500000D01*
X80911904Y-21547619D01*
X81483333Y-22452380D02*
X81388095Y-22404761D01*
X81340476Y-22357142D01*
X81292857Y-22261904D01*
X81292857Y-21976190D01*
X81340476Y-21880952D01*
X81388095Y-21833333D01*
X81483333Y-21785714D01*
X81626190Y-21785714D01*
X81721428Y-21833333D01*
X81769047Y-21880952D01*
X81816666Y-21976190D01*
X81816666Y-22261904D01*
X81769047Y-22357142D01*
X81721428Y-22404761D01*
X81626190Y-22452380D01*
X81483333Y-22452380D01*
X82245238Y-21785714D02*
X82245238Y-22452380D01*
X82245238Y-21880952D02*
X82292857Y-21833333D01*
X82388095Y-21785714D01*
X82530952Y-21785714D01*
X82626190Y-21833333D01*
X82673809Y-21928571D01*
X82673809Y-22452380D01*
X83150000Y-21785714D02*
X83150000Y-22452380D01*
X83150000Y-21880952D02*
X83197619Y-21833333D01*
X83292857Y-21785714D01*
X83435714Y-21785714D01*
X83530952Y-21833333D01*
X83578571Y-21928571D01*
X83578571Y-22452380D01*
X83816666Y-22547619D02*
X84578571Y-22547619D01*
X85007142Y-21452380D02*
X85102380Y-21452380D01*
X85197619Y-21500000D01*
X85245238Y-21547619D01*
X85292857Y-21642857D01*
X85340476Y-21833333D01*
X85340476Y-22071428D01*
X85292857Y-22261904D01*
X85245238Y-22357142D01*
X85197619Y-22404761D01*
X85102380Y-22452380D01*
X85007142Y-22452380D01*
X84911904Y-22404761D01*
X84864285Y-22357142D01*
X84816666Y-22261904D01*
X84769047Y-22071428D01*
X84769047Y-21833333D01*
X84816666Y-21642857D01*
X84864285Y-21547619D01*
X84911904Y-21500000D01*
X85007142Y-21452380D01*
X86292857Y-22452380D02*
X85721428Y-22452380D01*
X86007142Y-22452380D02*
X86007142Y-21452380D01*
X85911904Y-21595238D01*
X85816666Y-21690476D01*
X85721428Y-21738095D01*
X86626190Y-22452380D02*
X87150000Y-21785714D01*
X86626190Y-21785714D02*
X87150000Y-22452380D01*
X87721428Y-21452380D02*
X87816666Y-21452380D01*
X87911904Y-21500000D01*
X87959523Y-21547619D01*
X88007142Y-21642857D01*
X88054761Y-21833333D01*
X88054761Y-22071428D01*
X88007142Y-22261904D01*
X87959523Y-22357142D01*
X87911904Y-22404761D01*
X87816666Y-22452380D01*
X87721428Y-22452380D01*
X87626190Y-22404761D01*
X87578571Y-22357142D01*
X87530952Y-22261904D01*
X87483333Y-22071428D01*
X87483333Y-21833333D01*
X87530952Y-21642857D01*
X87578571Y-21547619D01*
X87626190Y-21500000D01*
X87721428Y-21452380D01*
X88911904Y-21785714D02*
X88911904Y-22452380D01*
X88673809Y-21404761D02*
X88435714Y-22119047D01*
X89054761Y-22119047D01*
X83840476Y-23352380D02*
X83840476Y-24066666D01*
X83792857Y-24209523D01*
X83697619Y-24304761D01*
X83554761Y-24352380D01*
X83459523Y-24352380D01*
X84840476Y-24352380D02*
X84269047Y-24352380D01*
X84554761Y-24352380D02*
X84554761Y-23352380D01*
X84459523Y-23495238D01*
X84364285Y-23590476D01*
X84269047Y-23638095D01*
X85697619Y-23352380D02*
X85507142Y-23352380D01*
X85411904Y-23400000D01*
X85364285Y-23447619D01*
X85269047Y-23590476D01*
X85221428Y-23780952D01*
X85221428Y-24161904D01*
X85269047Y-24257142D01*
X85316666Y-24304761D01*
X85411904Y-24352380D01*
X85602380Y-24352380D01*
X85697619Y-24304761D01*
X85745238Y-24257142D01*
X85792857Y-24161904D01*
X85792857Y-23923809D01*
X85745238Y-23828571D01*
X85697619Y-23780952D01*
X85602380Y-23733333D01*
X85411904Y-23733333D01*
X85316666Y-23780952D01*
X85269047Y-23828571D01*
X85221428Y-23923809D01*
%TO.C,R26*%
X109092380Y-106625714D02*
X109092380Y-106006666D01*
X109473333Y-106340000D01*
X109473333Y-106197142D01*
X109520952Y-106101904D01*
X109568571Y-106054285D01*
X109663809Y-106006666D01*
X109901904Y-106006666D01*
X109997142Y-106054285D01*
X110044761Y-106101904D01*
X110092380Y-106197142D01*
X110092380Y-106482857D01*
X110044761Y-106578095D01*
X109997142Y-106625714D01*
X109092380Y-105673333D02*
X109092380Y-105054285D01*
X109473333Y-105387619D01*
X109473333Y-105244761D01*
X109520952Y-105149523D01*
X109568571Y-105101904D01*
X109663809Y-105054285D01*
X109901904Y-105054285D01*
X109997142Y-105101904D01*
X110044761Y-105149523D01*
X110092380Y-105244761D01*
X110092380Y-105530476D01*
X110044761Y-105625714D01*
X109997142Y-105673333D01*
X109092380Y-104435238D02*
X109092380Y-104340000D01*
X109140000Y-104244761D01*
X109187619Y-104197142D01*
X109282857Y-104149523D01*
X109473333Y-104101904D01*
X109711428Y-104101904D01*
X109901904Y-104149523D01*
X109997142Y-104197142D01*
X110044761Y-104244761D01*
X110092380Y-104340000D01*
X110092380Y-104435238D01*
X110044761Y-104530476D01*
X109997142Y-104578095D01*
X109901904Y-104625714D01*
X109711428Y-104673333D01*
X109473333Y-104673333D01*
X109282857Y-104625714D01*
X109187619Y-104578095D01*
X109140000Y-104530476D01*
X109092380Y-104435238D01*
X106252380Y-105982857D02*
X105776190Y-106316190D01*
X106252380Y-106554285D02*
X105252380Y-106554285D01*
X105252380Y-106173333D01*
X105300000Y-106078095D01*
X105347619Y-106030476D01*
X105442857Y-105982857D01*
X105585714Y-105982857D01*
X105680952Y-106030476D01*
X105728571Y-106078095D01*
X105776190Y-106173333D01*
X105776190Y-106554285D01*
X105347619Y-105601904D02*
X105300000Y-105554285D01*
X105252380Y-105459047D01*
X105252380Y-105220952D01*
X105300000Y-105125714D01*
X105347619Y-105078095D01*
X105442857Y-105030476D01*
X105538095Y-105030476D01*
X105680952Y-105078095D01*
X106252380Y-105649523D01*
X106252380Y-105030476D01*
X105252380Y-104173333D02*
X105252380Y-104363809D01*
X105300000Y-104459047D01*
X105347619Y-104506666D01*
X105490476Y-104601904D01*
X105680952Y-104649523D01*
X106061904Y-104649523D01*
X106157142Y-104601904D01*
X106204761Y-104554285D01*
X106252380Y-104459047D01*
X106252380Y-104268571D01*
X106204761Y-104173333D01*
X106157142Y-104125714D01*
X106061904Y-104078095D01*
X105823809Y-104078095D01*
X105728571Y-104125714D01*
X105680952Y-104173333D01*
X105633333Y-104268571D01*
X105633333Y-104459047D01*
X105680952Y-104554285D01*
X105728571Y-104601904D01*
X105823809Y-104649523D01*
%TO.C,D2*%
X90986380Y-99575857D02*
X90986380Y-100052047D01*
X89986380Y-100052047D01*
X90462571Y-99242523D02*
X90462571Y-98909190D01*
X90986380Y-98766333D02*
X90986380Y-99242523D01*
X89986380Y-99242523D01*
X89986380Y-98766333D01*
X90986380Y-98337761D02*
X89986380Y-98337761D01*
X89986380Y-98099666D01*
X90034000Y-97956809D01*
X90129238Y-97861571D01*
X90224476Y-97813952D01*
X90414952Y-97766333D01*
X90557809Y-97766333D01*
X90748285Y-97813952D01*
X90843523Y-97861571D01*
X90938761Y-97956809D01*
X90986380Y-98099666D01*
X90986380Y-98337761D01*
%TO.C,D21*%
X124262380Y-68772857D02*
X124262380Y-69249047D01*
X123262380Y-69249047D01*
X123738571Y-68439523D02*
X123738571Y-68106190D01*
X124262380Y-67963333D02*
X124262380Y-68439523D01*
X123262380Y-68439523D01*
X123262380Y-67963333D01*
X124262380Y-67534761D02*
X123262380Y-67534761D01*
X123262380Y-67296666D01*
X123310000Y-67153809D01*
X123405238Y-67058571D01*
X123500476Y-67010952D01*
X123690952Y-66963333D01*
X123833809Y-66963333D01*
X124024285Y-67010952D01*
X124119523Y-67058571D01*
X124214761Y-67153809D01*
X124262380Y-67296666D01*
X124262380Y-67534761D01*
%TO.C,D22*%
X102037380Y-68899857D02*
X102037380Y-69376047D01*
X101037380Y-69376047D01*
X101513571Y-68566523D02*
X101513571Y-68233190D01*
X102037380Y-68090333D02*
X102037380Y-68566523D01*
X101037380Y-68566523D01*
X101037380Y-68090333D01*
X102037380Y-67661761D02*
X101037380Y-67661761D01*
X101037380Y-67423666D01*
X101085000Y-67280809D01*
X101180238Y-67185571D01*
X101275476Y-67137952D01*
X101465952Y-67090333D01*
X101608809Y-67090333D01*
X101799285Y-67137952D01*
X101894523Y-67185571D01*
X101989761Y-67280809D01*
X102037380Y-67423666D01*
X102037380Y-67661761D01*
%TO.C,J7*%
X49407904Y-22046142D02*
X49360285Y-22093761D01*
X49217428Y-22141380D01*
X49122190Y-22141380D01*
X48979333Y-22093761D01*
X48884095Y-21998523D01*
X48836476Y-21903285D01*
X48788857Y-21712809D01*
X48788857Y-21569952D01*
X48836476Y-21379476D01*
X48884095Y-21284238D01*
X48979333Y-21189000D01*
X49122190Y-21141380D01*
X49217428Y-21141380D01*
X49360285Y-21189000D01*
X49407904Y-21236619D01*
X49979333Y-22141380D02*
X49884095Y-22093761D01*
X49836476Y-22046142D01*
X49788857Y-21950904D01*
X49788857Y-21665190D01*
X49836476Y-21569952D01*
X49884095Y-21522333D01*
X49979333Y-21474714D01*
X50122190Y-21474714D01*
X50217428Y-21522333D01*
X50265047Y-21569952D01*
X50312666Y-21665190D01*
X50312666Y-21950904D01*
X50265047Y-22046142D01*
X50217428Y-22093761D01*
X50122190Y-22141380D01*
X49979333Y-22141380D01*
X50741238Y-21474714D02*
X50741238Y-22141380D01*
X50741238Y-21569952D02*
X50788857Y-21522333D01*
X50884095Y-21474714D01*
X51026952Y-21474714D01*
X51122190Y-21522333D01*
X51169809Y-21617571D01*
X51169809Y-22141380D01*
X51646000Y-21474714D02*
X51646000Y-22141380D01*
X51646000Y-21569952D02*
X51693619Y-21522333D01*
X51788857Y-21474714D01*
X51931714Y-21474714D01*
X52026952Y-21522333D01*
X52074571Y-21617571D01*
X52074571Y-22141380D01*
X52312666Y-22236619D02*
X53074571Y-22236619D01*
X53503142Y-21141380D02*
X53598380Y-21141380D01*
X53693619Y-21189000D01*
X53741238Y-21236619D01*
X53788857Y-21331857D01*
X53836476Y-21522333D01*
X53836476Y-21760428D01*
X53788857Y-21950904D01*
X53741238Y-22046142D01*
X53693619Y-22093761D01*
X53598380Y-22141380D01*
X53503142Y-22141380D01*
X53407904Y-22093761D01*
X53360285Y-22046142D01*
X53312666Y-21950904D01*
X53265047Y-21760428D01*
X53265047Y-21522333D01*
X53312666Y-21331857D01*
X53360285Y-21236619D01*
X53407904Y-21189000D01*
X53503142Y-21141380D01*
X54788857Y-22141380D02*
X54217428Y-22141380D01*
X54503142Y-22141380D02*
X54503142Y-21141380D01*
X54407904Y-21284238D01*
X54312666Y-21379476D01*
X54217428Y-21427095D01*
X55122190Y-22141380D02*
X55646000Y-21474714D01*
X55122190Y-21474714D02*
X55646000Y-22141380D01*
X56217428Y-21141380D02*
X56312666Y-21141380D01*
X56407904Y-21189000D01*
X56455523Y-21236619D01*
X56503142Y-21331857D01*
X56550761Y-21522333D01*
X56550761Y-21760428D01*
X56503142Y-21950904D01*
X56455523Y-22046142D01*
X56407904Y-22093761D01*
X56312666Y-22141380D01*
X56217428Y-22141380D01*
X56122190Y-22093761D01*
X56074571Y-22046142D01*
X56026952Y-21950904D01*
X55979333Y-21760428D01*
X55979333Y-21522333D01*
X56026952Y-21331857D01*
X56074571Y-21236619D01*
X56122190Y-21189000D01*
X56217428Y-21141380D01*
X57407904Y-21474714D02*
X57407904Y-22141380D01*
X57169809Y-21093761D02*
X56931714Y-21808047D01*
X57550761Y-21808047D01*
X52812666Y-23041380D02*
X52812666Y-23755666D01*
X52765047Y-23898523D01*
X52669809Y-23993761D01*
X52526952Y-24041380D01*
X52431714Y-24041380D01*
X53193619Y-23041380D02*
X53860285Y-23041380D01*
X53431714Y-24041380D01*
%TO.C,J8*%
X63123904Y-22046142D02*
X63076285Y-22093761D01*
X62933428Y-22141380D01*
X62838190Y-22141380D01*
X62695333Y-22093761D01*
X62600095Y-21998523D01*
X62552476Y-21903285D01*
X62504857Y-21712809D01*
X62504857Y-21569952D01*
X62552476Y-21379476D01*
X62600095Y-21284238D01*
X62695333Y-21189000D01*
X62838190Y-21141380D01*
X62933428Y-21141380D01*
X63076285Y-21189000D01*
X63123904Y-21236619D01*
X63695333Y-22141380D02*
X63600095Y-22093761D01*
X63552476Y-22046142D01*
X63504857Y-21950904D01*
X63504857Y-21665190D01*
X63552476Y-21569952D01*
X63600095Y-21522333D01*
X63695333Y-21474714D01*
X63838190Y-21474714D01*
X63933428Y-21522333D01*
X63981047Y-21569952D01*
X64028666Y-21665190D01*
X64028666Y-21950904D01*
X63981047Y-22046142D01*
X63933428Y-22093761D01*
X63838190Y-22141380D01*
X63695333Y-22141380D01*
X64457238Y-21474714D02*
X64457238Y-22141380D01*
X64457238Y-21569952D02*
X64504857Y-21522333D01*
X64600095Y-21474714D01*
X64742952Y-21474714D01*
X64838190Y-21522333D01*
X64885809Y-21617571D01*
X64885809Y-22141380D01*
X65362000Y-21474714D02*
X65362000Y-22141380D01*
X65362000Y-21569952D02*
X65409619Y-21522333D01*
X65504857Y-21474714D01*
X65647714Y-21474714D01*
X65742952Y-21522333D01*
X65790571Y-21617571D01*
X65790571Y-22141380D01*
X66028666Y-22236619D02*
X66790571Y-22236619D01*
X67219142Y-21141380D02*
X67314380Y-21141380D01*
X67409619Y-21189000D01*
X67457238Y-21236619D01*
X67504857Y-21331857D01*
X67552476Y-21522333D01*
X67552476Y-21760428D01*
X67504857Y-21950904D01*
X67457238Y-22046142D01*
X67409619Y-22093761D01*
X67314380Y-22141380D01*
X67219142Y-22141380D01*
X67123904Y-22093761D01*
X67076285Y-22046142D01*
X67028666Y-21950904D01*
X66981047Y-21760428D01*
X66981047Y-21522333D01*
X67028666Y-21331857D01*
X67076285Y-21236619D01*
X67123904Y-21189000D01*
X67219142Y-21141380D01*
X68504857Y-22141380D02*
X67933428Y-22141380D01*
X68219142Y-22141380D02*
X68219142Y-21141380D01*
X68123904Y-21284238D01*
X68028666Y-21379476D01*
X67933428Y-21427095D01*
X68838190Y-22141380D02*
X69362000Y-21474714D01*
X68838190Y-21474714D02*
X69362000Y-22141380D01*
X69933428Y-21141380D02*
X70028666Y-21141380D01*
X70123904Y-21189000D01*
X70171523Y-21236619D01*
X70219142Y-21331857D01*
X70266761Y-21522333D01*
X70266761Y-21760428D01*
X70219142Y-21950904D01*
X70171523Y-22046142D01*
X70123904Y-22093761D01*
X70028666Y-22141380D01*
X69933428Y-22141380D01*
X69838190Y-22093761D01*
X69790571Y-22046142D01*
X69742952Y-21950904D01*
X69695333Y-21760428D01*
X69695333Y-21522333D01*
X69742952Y-21331857D01*
X69790571Y-21236619D01*
X69838190Y-21189000D01*
X69933428Y-21141380D01*
X71123904Y-21474714D02*
X71123904Y-22141380D01*
X70885809Y-21093761D02*
X70647714Y-21808047D01*
X71266761Y-21808047D01*
X66528666Y-23041380D02*
X66528666Y-23755666D01*
X66481047Y-23898523D01*
X66385809Y-23993761D01*
X66242952Y-24041380D01*
X66147714Y-24041380D01*
X67147714Y-23469952D02*
X67052476Y-23422333D01*
X67004857Y-23374714D01*
X66957238Y-23279476D01*
X66957238Y-23231857D01*
X67004857Y-23136619D01*
X67052476Y-23089000D01*
X67147714Y-23041380D01*
X67338190Y-23041380D01*
X67433428Y-23089000D01*
X67481047Y-23136619D01*
X67528666Y-23231857D01*
X67528666Y-23279476D01*
X67481047Y-23374714D01*
X67433428Y-23422333D01*
X67338190Y-23469952D01*
X67147714Y-23469952D01*
X67052476Y-23517571D01*
X67004857Y-23565190D01*
X66957238Y-23660428D01*
X66957238Y-23850904D01*
X67004857Y-23946142D01*
X67052476Y-23993761D01*
X67147714Y-24041380D01*
X67338190Y-24041380D01*
X67433428Y-23993761D01*
X67481047Y-23946142D01*
X67528666Y-23850904D01*
X67528666Y-23660428D01*
X67481047Y-23565190D01*
X67433428Y-23517571D01*
X67338190Y-23469952D01*
%TO.C,J9*%
X108535904Y-22104142D02*
X108488285Y-22151761D01*
X108345428Y-22199380D01*
X108250190Y-22199380D01*
X108107333Y-22151761D01*
X108012095Y-22056523D01*
X107964476Y-21961285D01*
X107916857Y-21770809D01*
X107916857Y-21627952D01*
X107964476Y-21437476D01*
X108012095Y-21342238D01*
X108107333Y-21247000D01*
X108250190Y-21199380D01*
X108345428Y-21199380D01*
X108488285Y-21247000D01*
X108535904Y-21294619D01*
X109107333Y-22199380D02*
X109012095Y-22151761D01*
X108964476Y-22104142D01*
X108916857Y-22008904D01*
X108916857Y-21723190D01*
X108964476Y-21627952D01*
X109012095Y-21580333D01*
X109107333Y-21532714D01*
X109250190Y-21532714D01*
X109345428Y-21580333D01*
X109393047Y-21627952D01*
X109440666Y-21723190D01*
X109440666Y-22008904D01*
X109393047Y-22104142D01*
X109345428Y-22151761D01*
X109250190Y-22199380D01*
X109107333Y-22199380D01*
X109869238Y-21532714D02*
X109869238Y-22199380D01*
X109869238Y-21627952D02*
X109916857Y-21580333D01*
X110012095Y-21532714D01*
X110154952Y-21532714D01*
X110250190Y-21580333D01*
X110297809Y-21675571D01*
X110297809Y-22199380D01*
X110774000Y-21532714D02*
X110774000Y-22199380D01*
X110774000Y-21627952D02*
X110821619Y-21580333D01*
X110916857Y-21532714D01*
X111059714Y-21532714D01*
X111154952Y-21580333D01*
X111202571Y-21675571D01*
X111202571Y-22199380D01*
X111440666Y-22294619D02*
X112202571Y-22294619D01*
X112631142Y-21199380D02*
X112726380Y-21199380D01*
X112821619Y-21247000D01*
X112869238Y-21294619D01*
X112916857Y-21389857D01*
X112964476Y-21580333D01*
X112964476Y-21818428D01*
X112916857Y-22008904D01*
X112869238Y-22104142D01*
X112821619Y-22151761D01*
X112726380Y-22199380D01*
X112631142Y-22199380D01*
X112535904Y-22151761D01*
X112488285Y-22104142D01*
X112440666Y-22008904D01*
X112393047Y-21818428D01*
X112393047Y-21580333D01*
X112440666Y-21389857D01*
X112488285Y-21294619D01*
X112535904Y-21247000D01*
X112631142Y-21199380D01*
X113916857Y-22199380D02*
X113345428Y-22199380D01*
X113631142Y-22199380D02*
X113631142Y-21199380D01*
X113535904Y-21342238D01*
X113440666Y-21437476D01*
X113345428Y-21485095D01*
X114250190Y-22199380D02*
X114774000Y-21532714D01*
X114250190Y-21532714D02*
X114774000Y-22199380D01*
X115345428Y-21199380D02*
X115440666Y-21199380D01*
X115535904Y-21247000D01*
X115583523Y-21294619D01*
X115631142Y-21389857D01*
X115678761Y-21580333D01*
X115678761Y-21818428D01*
X115631142Y-22008904D01*
X115583523Y-22104142D01*
X115535904Y-22151761D01*
X115440666Y-22199380D01*
X115345428Y-22199380D01*
X115250190Y-22151761D01*
X115202571Y-22104142D01*
X115154952Y-22008904D01*
X115107333Y-21818428D01*
X115107333Y-21580333D01*
X115154952Y-21389857D01*
X115202571Y-21294619D01*
X115250190Y-21247000D01*
X115345428Y-21199380D01*
X116535904Y-21532714D02*
X116535904Y-22199380D01*
X116297809Y-21151761D02*
X116059714Y-21866047D01*
X116678761Y-21866047D01*
X111940666Y-23099380D02*
X111940666Y-23813666D01*
X111893047Y-23956523D01*
X111797809Y-24051761D01*
X111654952Y-24099380D01*
X111559714Y-24099380D01*
X112464476Y-24099380D02*
X112654952Y-24099380D01*
X112750190Y-24051761D01*
X112797809Y-24004142D01*
X112893047Y-23861285D01*
X112940666Y-23670809D01*
X112940666Y-23289857D01*
X112893047Y-23194619D01*
X112845428Y-23147000D01*
X112750190Y-23099380D01*
X112559714Y-23099380D01*
X112464476Y-23147000D01*
X112416857Y-23194619D01*
X112369238Y-23289857D01*
X112369238Y-23527952D01*
X112416857Y-23623190D01*
X112464476Y-23670809D01*
X112559714Y-23718428D01*
X112750190Y-23718428D01*
X112845428Y-23670809D01*
X112893047Y-23623190D01*
X112940666Y-23527952D01*
%TO.C,R27*%
X48931714Y-101760380D02*
X48455523Y-101760380D01*
X48407904Y-102236571D01*
X48455523Y-102188952D01*
X48550761Y-102141333D01*
X48788857Y-102141333D01*
X48884095Y-102188952D01*
X48931714Y-102236571D01*
X48979333Y-102331809D01*
X48979333Y-102569904D01*
X48931714Y-102665142D01*
X48884095Y-102712761D01*
X48788857Y-102760380D01*
X48550761Y-102760380D01*
X48455523Y-102712761D01*
X48407904Y-102665142D01*
X49836476Y-101760380D02*
X49646000Y-101760380D01*
X49550761Y-101808000D01*
X49503142Y-101855619D01*
X49407904Y-101998476D01*
X49360285Y-102188952D01*
X49360285Y-102569904D01*
X49407904Y-102665142D01*
X49455523Y-102712761D01*
X49550761Y-102760380D01*
X49741238Y-102760380D01*
X49836476Y-102712761D01*
X49884095Y-102665142D01*
X49931714Y-102569904D01*
X49931714Y-102331809D01*
X49884095Y-102236571D01*
X49836476Y-102188952D01*
X49741238Y-102141333D01*
X49550761Y-102141333D01*
X49455523Y-102188952D01*
X49407904Y-102236571D01*
X49360285Y-102331809D01*
X50550761Y-101760380D02*
X50646000Y-101760380D01*
X50741238Y-101808000D01*
X50788857Y-101855619D01*
X50836476Y-101950857D01*
X50884095Y-102141333D01*
X50884095Y-102379428D01*
X50836476Y-102569904D01*
X50788857Y-102665142D01*
X50741238Y-102712761D01*
X50646000Y-102760380D01*
X50550761Y-102760380D01*
X50455523Y-102712761D01*
X50407904Y-102665142D01*
X50360285Y-102569904D01*
X50312666Y-102379428D01*
X50312666Y-102141333D01*
X50360285Y-101950857D01*
X50407904Y-101855619D01*
X50455523Y-101808000D01*
X50550761Y-101760380D01*
X49003142Y-98920380D02*
X48669809Y-98444190D01*
X48431714Y-98920380D02*
X48431714Y-97920380D01*
X48812666Y-97920380D01*
X48907904Y-97968000D01*
X48955523Y-98015619D01*
X49003142Y-98110857D01*
X49003142Y-98253714D01*
X48955523Y-98348952D01*
X48907904Y-98396571D01*
X48812666Y-98444190D01*
X48431714Y-98444190D01*
X49384095Y-98015619D02*
X49431714Y-97968000D01*
X49526952Y-97920380D01*
X49765047Y-97920380D01*
X49860285Y-97968000D01*
X49907904Y-98015619D01*
X49955523Y-98110857D01*
X49955523Y-98206095D01*
X49907904Y-98348952D01*
X49336476Y-98920380D01*
X49955523Y-98920380D01*
X50288857Y-97920380D02*
X50955523Y-97920380D01*
X50526952Y-98920380D01*
%TO.C,R28*%
X128572380Y-68844285D02*
X128572380Y-69320476D01*
X129048571Y-69368095D01*
X129000952Y-69320476D01*
X128953333Y-69225238D01*
X128953333Y-68987142D01*
X129000952Y-68891904D01*
X129048571Y-68844285D01*
X129143809Y-68796666D01*
X129381904Y-68796666D01*
X129477142Y-68844285D01*
X129524761Y-68891904D01*
X129572380Y-68987142D01*
X129572380Y-69225238D01*
X129524761Y-69320476D01*
X129477142Y-69368095D01*
X128572380Y-67939523D02*
X128572380Y-68130000D01*
X128620000Y-68225238D01*
X128667619Y-68272857D01*
X128810476Y-68368095D01*
X129000952Y-68415714D01*
X129381904Y-68415714D01*
X129477142Y-68368095D01*
X129524761Y-68320476D01*
X129572380Y-68225238D01*
X129572380Y-68034761D01*
X129524761Y-67939523D01*
X129477142Y-67891904D01*
X129381904Y-67844285D01*
X129143809Y-67844285D01*
X129048571Y-67891904D01*
X129000952Y-67939523D01*
X128953333Y-68034761D01*
X128953333Y-68225238D01*
X129000952Y-68320476D01*
X129048571Y-68368095D01*
X129143809Y-68415714D01*
X128572380Y-67225238D02*
X128572380Y-67130000D01*
X128620000Y-67034761D01*
X128667619Y-66987142D01*
X128762857Y-66939523D01*
X128953333Y-66891904D01*
X129191428Y-66891904D01*
X129381904Y-66939523D01*
X129477142Y-66987142D01*
X129524761Y-67034761D01*
X129572380Y-67130000D01*
X129572380Y-67225238D01*
X129524761Y-67320476D01*
X129477142Y-67368095D01*
X129381904Y-67415714D01*
X129191428Y-67463333D01*
X128953333Y-67463333D01*
X128762857Y-67415714D01*
X128667619Y-67368095D01*
X128620000Y-67320476D01*
X128572380Y-67225238D01*
X125732380Y-68772857D02*
X125256190Y-69106190D01*
X125732380Y-69344285D02*
X124732380Y-69344285D01*
X124732380Y-68963333D01*
X124780000Y-68868095D01*
X124827619Y-68820476D01*
X124922857Y-68772857D01*
X125065714Y-68772857D01*
X125160952Y-68820476D01*
X125208571Y-68868095D01*
X125256190Y-68963333D01*
X125256190Y-69344285D01*
X124827619Y-68391904D02*
X124780000Y-68344285D01*
X124732380Y-68249047D01*
X124732380Y-68010952D01*
X124780000Y-67915714D01*
X124827619Y-67868095D01*
X124922857Y-67820476D01*
X125018095Y-67820476D01*
X125160952Y-67868095D01*
X125732380Y-68439523D01*
X125732380Y-67820476D01*
X125160952Y-67249047D02*
X125113333Y-67344285D01*
X125065714Y-67391904D01*
X124970476Y-67439523D01*
X124922857Y-67439523D01*
X124827619Y-67391904D01*
X124780000Y-67344285D01*
X124732380Y-67249047D01*
X124732380Y-67058571D01*
X124780000Y-66963333D01*
X124827619Y-66915714D01*
X124922857Y-66868095D01*
X124970476Y-66868095D01*
X125065714Y-66915714D01*
X125113333Y-66963333D01*
X125160952Y-67058571D01*
X125160952Y-67249047D01*
X125208571Y-67344285D01*
X125256190Y-67391904D01*
X125351428Y-67439523D01*
X125541904Y-67439523D01*
X125637142Y-67391904D01*
X125684761Y-67344285D01*
X125732380Y-67249047D01*
X125732380Y-67058571D01*
X125684761Y-66963333D01*
X125637142Y-66915714D01*
X125541904Y-66868095D01*
X125351428Y-66868095D01*
X125256190Y-66915714D01*
X125208571Y-66963333D01*
X125160952Y-67058571D01*
%TO.C,RLY1*%
X113440000Y-56890000D02*
X113392380Y-56985238D01*
X113392380Y-57128095D01*
X113440000Y-57270952D01*
X113535238Y-57366190D01*
X113630476Y-57413809D01*
X113820952Y-57461428D01*
X113963809Y-57461428D01*
X114154285Y-57413809D01*
X114249523Y-57366190D01*
X114344761Y-57270952D01*
X114392380Y-57128095D01*
X114392380Y-57032857D01*
X114344761Y-56890000D01*
X114297142Y-56842380D01*
X113963809Y-56842380D01*
X113963809Y-57032857D01*
X113392380Y-55937619D02*
X113392380Y-56413809D01*
X113868571Y-56461428D01*
X113820952Y-56413809D01*
X113773333Y-56318571D01*
X113773333Y-56080476D01*
X113820952Y-55985238D01*
X113868571Y-55937619D01*
X113963809Y-55890000D01*
X114201904Y-55890000D01*
X114297142Y-55937619D01*
X114344761Y-55985238D01*
X114392380Y-56080476D01*
X114392380Y-56318571D01*
X114344761Y-56413809D01*
X114297142Y-56461428D01*
X114392380Y-54985238D02*
X114392380Y-55461428D01*
X113392380Y-55461428D01*
X113868571Y-54651904D02*
X113868571Y-54318571D01*
X114392380Y-54175714D02*
X114392380Y-54651904D01*
X113392380Y-54651904D01*
X113392380Y-54175714D01*
X114011428Y-53747142D02*
X114011428Y-52985238D01*
X114392380Y-51985238D02*
X114392380Y-52556666D01*
X114392380Y-52270952D02*
X113392380Y-52270952D01*
X113535238Y-52366190D01*
X113630476Y-52461428D01*
X113678095Y-52556666D01*
X113725714Y-51128095D02*
X114392380Y-51128095D01*
X113344761Y-51366190D02*
X114059047Y-51604285D01*
X114059047Y-50985238D01*
X114487619Y-50842380D02*
X114487619Y-50080476D01*
X114392380Y-49842380D02*
X113392380Y-49842380D01*
X113392380Y-49604285D01*
X113440000Y-49461428D01*
X113535238Y-49366190D01*
X113630476Y-49318571D01*
X113820952Y-49270952D01*
X113963809Y-49270952D01*
X114154285Y-49318571D01*
X114249523Y-49366190D01*
X114344761Y-49461428D01*
X114392380Y-49604285D01*
X114392380Y-49842380D01*
X114297142Y-48270952D02*
X114344761Y-48318571D01*
X114392380Y-48461428D01*
X114392380Y-48556666D01*
X114344761Y-48699523D01*
X114249523Y-48794761D01*
X114154285Y-48842380D01*
X113963809Y-48890000D01*
X113820952Y-48890000D01*
X113630476Y-48842380D01*
X113535238Y-48794761D01*
X113440000Y-48699523D01*
X113392380Y-48556666D01*
X113392380Y-48461428D01*
X113440000Y-48318571D01*
X113487619Y-48270952D01*
X113392380Y-47366190D02*
X113392380Y-47842380D01*
X113868571Y-47890000D01*
X113820952Y-47842380D01*
X113773333Y-47747142D01*
X113773333Y-47509047D01*
X113820952Y-47413809D01*
X113868571Y-47366190D01*
X113963809Y-47318571D01*
X114201904Y-47318571D01*
X114297142Y-47366190D01*
X114344761Y-47413809D01*
X114392380Y-47509047D01*
X114392380Y-47747142D01*
X114344761Y-47842380D01*
X114297142Y-47890000D01*
X123967380Y-53090000D02*
X123491190Y-53423333D01*
X123967380Y-53661428D02*
X122967380Y-53661428D01*
X122967380Y-53280476D01*
X123015000Y-53185238D01*
X123062619Y-53137619D01*
X123157857Y-53090000D01*
X123300714Y-53090000D01*
X123395952Y-53137619D01*
X123443571Y-53185238D01*
X123491190Y-53280476D01*
X123491190Y-53661428D01*
X123967380Y-52185238D02*
X123967380Y-52661428D01*
X122967380Y-52661428D01*
X123491190Y-51661428D02*
X123967380Y-51661428D01*
X122967380Y-51994761D02*
X123491190Y-51661428D01*
X122967380Y-51328095D01*
X123967380Y-50470952D02*
X123967380Y-51042380D01*
X123967380Y-50756666D02*
X122967380Y-50756666D01*
X123110238Y-50851904D01*
X123205476Y-50947142D01*
X123253095Y-51042380D01*
%TO.C,RLY2*%
X92358000Y-56890000D02*
X92310380Y-56985238D01*
X92310380Y-57128095D01*
X92358000Y-57270952D01*
X92453238Y-57366190D01*
X92548476Y-57413809D01*
X92738952Y-57461428D01*
X92881809Y-57461428D01*
X93072285Y-57413809D01*
X93167523Y-57366190D01*
X93262761Y-57270952D01*
X93310380Y-57128095D01*
X93310380Y-57032857D01*
X93262761Y-56890000D01*
X93215142Y-56842380D01*
X92881809Y-56842380D01*
X92881809Y-57032857D01*
X92310380Y-55937619D02*
X92310380Y-56413809D01*
X92786571Y-56461428D01*
X92738952Y-56413809D01*
X92691333Y-56318571D01*
X92691333Y-56080476D01*
X92738952Y-55985238D01*
X92786571Y-55937619D01*
X92881809Y-55890000D01*
X93119904Y-55890000D01*
X93215142Y-55937619D01*
X93262761Y-55985238D01*
X93310380Y-56080476D01*
X93310380Y-56318571D01*
X93262761Y-56413809D01*
X93215142Y-56461428D01*
X93310380Y-54985238D02*
X93310380Y-55461428D01*
X92310380Y-55461428D01*
X92786571Y-54651904D02*
X92786571Y-54318571D01*
X93310380Y-54175714D02*
X93310380Y-54651904D01*
X92310380Y-54651904D01*
X92310380Y-54175714D01*
X92929428Y-53747142D02*
X92929428Y-52985238D01*
X93310380Y-51985238D02*
X93310380Y-52556666D01*
X93310380Y-52270952D02*
X92310380Y-52270952D01*
X92453238Y-52366190D01*
X92548476Y-52461428D01*
X92596095Y-52556666D01*
X92643714Y-51128095D02*
X93310380Y-51128095D01*
X92262761Y-51366190D02*
X92977047Y-51604285D01*
X92977047Y-50985238D01*
X93405619Y-50842380D02*
X93405619Y-50080476D01*
X93310380Y-49842380D02*
X92310380Y-49842380D01*
X92310380Y-49604285D01*
X92358000Y-49461428D01*
X92453238Y-49366190D01*
X92548476Y-49318571D01*
X92738952Y-49270952D01*
X92881809Y-49270952D01*
X93072285Y-49318571D01*
X93167523Y-49366190D01*
X93262761Y-49461428D01*
X93310380Y-49604285D01*
X93310380Y-49842380D01*
X93215142Y-48270952D02*
X93262761Y-48318571D01*
X93310380Y-48461428D01*
X93310380Y-48556666D01*
X93262761Y-48699523D01*
X93167523Y-48794761D01*
X93072285Y-48842380D01*
X92881809Y-48890000D01*
X92738952Y-48890000D01*
X92548476Y-48842380D01*
X92453238Y-48794761D01*
X92358000Y-48699523D01*
X92310380Y-48556666D01*
X92310380Y-48461428D01*
X92358000Y-48318571D01*
X92405619Y-48270952D01*
X92310380Y-47366190D02*
X92310380Y-47842380D01*
X92786571Y-47890000D01*
X92738952Y-47842380D01*
X92691333Y-47747142D01*
X92691333Y-47509047D01*
X92738952Y-47413809D01*
X92786571Y-47366190D01*
X92881809Y-47318571D01*
X93119904Y-47318571D01*
X93215142Y-47366190D01*
X93262761Y-47413809D01*
X93310380Y-47509047D01*
X93310380Y-47747142D01*
X93262761Y-47842380D01*
X93215142Y-47890000D01*
X102885380Y-53090000D02*
X102409190Y-53423333D01*
X102885380Y-53661428D02*
X101885380Y-53661428D01*
X101885380Y-53280476D01*
X101933000Y-53185238D01*
X101980619Y-53137619D01*
X102075857Y-53090000D01*
X102218714Y-53090000D01*
X102313952Y-53137619D01*
X102361571Y-53185238D01*
X102409190Y-53280476D01*
X102409190Y-53661428D01*
X102885380Y-52185238D02*
X102885380Y-52661428D01*
X101885380Y-52661428D01*
X102409190Y-51661428D02*
X102885380Y-51661428D01*
X101885380Y-51994761D02*
X102409190Y-51661428D01*
X101885380Y-51328095D01*
X101980619Y-51042380D02*
X101933000Y-50994761D01*
X101885380Y-50899523D01*
X101885380Y-50661428D01*
X101933000Y-50566190D01*
X101980619Y-50518571D01*
X102075857Y-50470952D01*
X102171095Y-50470952D01*
X102313952Y-50518571D01*
X102885380Y-51090000D01*
X102885380Y-50470952D01*
%TO.C,U3*%
X42181428Y-60042380D02*
X42752857Y-60042380D01*
X42467142Y-61042380D02*
X42467142Y-60042380D01*
X43086190Y-61042380D02*
X43086190Y-60042380D01*
X43467142Y-60042380D01*
X43562380Y-60090000D01*
X43610000Y-60137619D01*
X43657619Y-60232857D01*
X43657619Y-60375714D01*
X43610000Y-60470952D01*
X43562380Y-60518571D01*
X43467142Y-60566190D01*
X43086190Y-60566190D01*
X44086190Y-61042380D02*
X44086190Y-60042380D01*
X45133809Y-60947142D02*
X45086190Y-60994761D01*
X44943333Y-61042380D01*
X44848095Y-61042380D01*
X44705238Y-60994761D01*
X44610000Y-60899523D01*
X44562380Y-60804285D01*
X44514761Y-60613809D01*
X44514761Y-60470952D01*
X44562380Y-60280476D01*
X44610000Y-60185238D01*
X44705238Y-60090000D01*
X44848095Y-60042380D01*
X44943333Y-60042380D01*
X45086190Y-60090000D01*
X45133809Y-60137619D01*
X45990952Y-60042380D02*
X45800476Y-60042380D01*
X45705238Y-60090000D01*
X45657619Y-60137619D01*
X45562380Y-60280476D01*
X45514761Y-60470952D01*
X45514761Y-60851904D01*
X45562380Y-60947142D01*
X45610000Y-60994761D01*
X45705238Y-61042380D01*
X45895714Y-61042380D01*
X45990952Y-60994761D01*
X46038571Y-60947142D01*
X46086190Y-60851904D01*
X46086190Y-60613809D01*
X46038571Y-60518571D01*
X45990952Y-60470952D01*
X45895714Y-60423333D01*
X45705238Y-60423333D01*
X45610000Y-60470952D01*
X45562380Y-60518571D01*
X45514761Y-60613809D01*
X46990952Y-60042380D02*
X46514761Y-60042380D01*
X46467142Y-60518571D01*
X46514761Y-60470952D01*
X46610000Y-60423333D01*
X46848095Y-60423333D01*
X46943333Y-60470952D01*
X46990952Y-60518571D01*
X47038571Y-60613809D01*
X47038571Y-60851904D01*
X46990952Y-60947142D01*
X46943333Y-60994761D01*
X46848095Y-61042380D01*
X46610000Y-61042380D01*
X46514761Y-60994761D01*
X46467142Y-60947142D01*
X47514761Y-61042380D02*
X47705238Y-61042380D01*
X47800476Y-60994761D01*
X47848095Y-60947142D01*
X47943333Y-60804285D01*
X47990952Y-60613809D01*
X47990952Y-60232857D01*
X47943333Y-60137619D01*
X47895714Y-60090000D01*
X47800476Y-60042380D01*
X47610000Y-60042380D01*
X47514761Y-60090000D01*
X47467142Y-60137619D01*
X47419523Y-60232857D01*
X47419523Y-60470952D01*
X47467142Y-60566190D01*
X47514761Y-60613809D01*
X47610000Y-60661428D01*
X47800476Y-60661428D01*
X47895714Y-60613809D01*
X47943333Y-60566190D01*
X47990952Y-60470952D01*
X48895714Y-60042380D02*
X48419523Y-60042380D01*
X48371904Y-60518571D01*
X48419523Y-60470952D01*
X48514761Y-60423333D01*
X48752857Y-60423333D01*
X48848095Y-60470952D01*
X48895714Y-60518571D01*
X48943333Y-60613809D01*
X48943333Y-60851904D01*
X48895714Y-60947142D01*
X48848095Y-60994761D01*
X48752857Y-61042380D01*
X48514761Y-61042380D01*
X48419523Y-60994761D01*
X48371904Y-60947142D01*
X44848095Y-46282380D02*
X44848095Y-47091904D01*
X44895714Y-47187142D01*
X44943333Y-47234761D01*
X45038571Y-47282380D01*
X45229047Y-47282380D01*
X45324285Y-47234761D01*
X45371904Y-47187142D01*
X45419523Y-47091904D01*
X45419523Y-46282380D01*
X45800476Y-46282380D02*
X46419523Y-46282380D01*
X46086190Y-46663333D01*
X46229047Y-46663333D01*
X46324285Y-46710952D01*
X46371904Y-46758571D01*
X46419523Y-46853809D01*
X46419523Y-47091904D01*
X46371904Y-47187142D01*
X46324285Y-47234761D01*
X46229047Y-47282380D01*
X45943333Y-47282380D01*
X45848095Y-47234761D01*
X45800476Y-47187142D01*
%TO.C,J6*%
X38672142Y-105971095D02*
X38719761Y-106018714D01*
X38767380Y-106161571D01*
X38767380Y-106256809D01*
X38719761Y-106399666D01*
X38624523Y-106494904D01*
X38529285Y-106542523D01*
X38338809Y-106590142D01*
X38195952Y-106590142D01*
X38005476Y-106542523D01*
X37910238Y-106494904D01*
X37815000Y-106399666D01*
X37767380Y-106256809D01*
X37767380Y-106161571D01*
X37815000Y-106018714D01*
X37862619Y-105971095D01*
X38767380Y-105399666D02*
X38719761Y-105494904D01*
X38672142Y-105542523D01*
X38576904Y-105590142D01*
X38291190Y-105590142D01*
X38195952Y-105542523D01*
X38148333Y-105494904D01*
X38100714Y-105399666D01*
X38100714Y-105256809D01*
X38148333Y-105161571D01*
X38195952Y-105113952D01*
X38291190Y-105066333D01*
X38576904Y-105066333D01*
X38672142Y-105113952D01*
X38719761Y-105161571D01*
X38767380Y-105256809D01*
X38767380Y-105399666D01*
X38100714Y-104637761D02*
X38767380Y-104637761D01*
X38195952Y-104637761D02*
X38148333Y-104590142D01*
X38100714Y-104494904D01*
X38100714Y-104352047D01*
X38148333Y-104256809D01*
X38243571Y-104209190D01*
X38767380Y-104209190D01*
X38100714Y-103733000D02*
X38767380Y-103733000D01*
X38195952Y-103733000D02*
X38148333Y-103685380D01*
X38100714Y-103590142D01*
X38100714Y-103447285D01*
X38148333Y-103352047D01*
X38243571Y-103304428D01*
X38767380Y-103304428D01*
X38862619Y-103066333D02*
X38862619Y-102304428D01*
X37767380Y-101875857D02*
X37767380Y-101780619D01*
X37815000Y-101685380D01*
X37862619Y-101637761D01*
X37957857Y-101590142D01*
X38148333Y-101542523D01*
X38386428Y-101542523D01*
X38576904Y-101590142D01*
X38672142Y-101637761D01*
X38719761Y-101685380D01*
X38767380Y-101780619D01*
X38767380Y-101875857D01*
X38719761Y-101971095D01*
X38672142Y-102018714D01*
X38576904Y-102066333D01*
X38386428Y-102113952D01*
X38148333Y-102113952D01*
X37957857Y-102066333D01*
X37862619Y-102018714D01*
X37815000Y-101971095D01*
X37767380Y-101875857D01*
X38767380Y-100590142D02*
X38767380Y-101161571D01*
X38767380Y-100875857D02*
X37767380Y-100875857D01*
X37910238Y-100971095D01*
X38005476Y-101066333D01*
X38053095Y-101161571D01*
X38767380Y-100256809D02*
X38100714Y-99733000D01*
X38100714Y-100256809D02*
X38767380Y-99733000D01*
X37767380Y-99161571D02*
X37767380Y-99066333D01*
X37815000Y-98971095D01*
X37862619Y-98923476D01*
X37957857Y-98875857D01*
X38148333Y-98828238D01*
X38386428Y-98828238D01*
X38576904Y-98875857D01*
X38672142Y-98923476D01*
X38719761Y-98971095D01*
X38767380Y-99066333D01*
X38767380Y-99161571D01*
X38719761Y-99256809D01*
X38672142Y-99304428D01*
X38576904Y-99352047D01*
X38386428Y-99399666D01*
X38148333Y-99399666D01*
X37957857Y-99352047D01*
X37862619Y-99304428D01*
X37815000Y-99256809D01*
X37767380Y-99161571D01*
X38100714Y-97971095D02*
X38767380Y-97971095D01*
X37719761Y-98209190D02*
X38434047Y-98447285D01*
X38434047Y-97828238D01*
X39667380Y-102566333D02*
X40381666Y-102566333D01*
X40524523Y-102613952D01*
X40619761Y-102709190D01*
X40667380Y-102852047D01*
X40667380Y-102947285D01*
X39667380Y-101661571D02*
X39667380Y-101852047D01*
X39715000Y-101947285D01*
X39762619Y-101994904D01*
X39905476Y-102090142D01*
X40095952Y-102137761D01*
X40476904Y-102137761D01*
X40572142Y-102090142D01*
X40619761Y-102042523D01*
X40667380Y-101947285D01*
X40667380Y-101756809D01*
X40619761Y-101661571D01*
X40572142Y-101613952D01*
X40476904Y-101566333D01*
X40238809Y-101566333D01*
X40143571Y-101613952D01*
X40095952Y-101661571D01*
X40048333Y-101756809D01*
X40048333Y-101947285D01*
X40095952Y-102042523D01*
X40143571Y-102090142D01*
X40238809Y-102137761D01*
%TO.C,D19*%
X119199476Y-31919380D02*
X119199476Y-30919380D01*
X119437571Y-30919380D01*
X119580428Y-30967000D01*
X119675666Y-31062238D01*
X119723285Y-31157476D01*
X119770904Y-31347952D01*
X119770904Y-31490809D01*
X119723285Y-31681285D01*
X119675666Y-31776523D01*
X119580428Y-31871761D01*
X119437571Y-31919380D01*
X119199476Y-31919380D01*
X119961380Y-32014619D02*
X120723285Y-32014619D01*
X120913761Y-31871761D02*
X121056619Y-31919380D01*
X121294714Y-31919380D01*
X121389952Y-31871761D01*
X121437571Y-31824142D01*
X121485190Y-31728904D01*
X121485190Y-31633666D01*
X121437571Y-31538428D01*
X121389952Y-31490809D01*
X121294714Y-31443190D01*
X121104238Y-31395571D01*
X121009000Y-31347952D01*
X120961380Y-31300333D01*
X120913761Y-31205095D01*
X120913761Y-31109857D01*
X120961380Y-31014619D01*
X121009000Y-30967000D01*
X121104238Y-30919380D01*
X121342333Y-30919380D01*
X121485190Y-30967000D01*
X122342333Y-31871761D02*
X122247095Y-31919380D01*
X122056619Y-31919380D01*
X121961380Y-31871761D01*
X121913761Y-31824142D01*
X121866142Y-31728904D01*
X121866142Y-31443190D01*
X121913761Y-31347952D01*
X121961380Y-31300333D01*
X122056619Y-31252714D01*
X122247095Y-31252714D01*
X122342333Y-31300333D01*
X122770904Y-31919380D02*
X122770904Y-30919380D01*
X123199476Y-31919380D02*
X123199476Y-31395571D01*
X123151857Y-31300333D01*
X123056619Y-31252714D01*
X122913761Y-31252714D01*
X122818523Y-31300333D01*
X122770904Y-31347952D01*
X123818523Y-31919380D02*
X123723285Y-31871761D01*
X123675666Y-31824142D01*
X123628047Y-31728904D01*
X123628047Y-31443190D01*
X123675666Y-31347952D01*
X123723285Y-31300333D01*
X123818523Y-31252714D01*
X123961380Y-31252714D01*
X124056619Y-31300333D01*
X124104238Y-31347952D01*
X124151857Y-31443190D01*
X124151857Y-31728904D01*
X124104238Y-31824142D01*
X124056619Y-31871761D01*
X123961380Y-31919380D01*
X123818523Y-31919380D01*
X124437571Y-31252714D02*
X124818523Y-31252714D01*
X124580428Y-30919380D02*
X124580428Y-31776523D01*
X124628047Y-31871761D01*
X124723285Y-31919380D01*
X124818523Y-31919380D01*
X125009000Y-31252714D02*
X125389952Y-31252714D01*
X125151857Y-30919380D02*
X125151857Y-31776523D01*
X125199476Y-31871761D01*
X125294714Y-31919380D01*
X125389952Y-31919380D01*
X125723285Y-31919380D02*
X125723285Y-30919380D01*
X125818523Y-31538428D02*
X126104238Y-31919380D01*
X126104238Y-31252714D02*
X125723285Y-31633666D01*
X126437571Y-31252714D02*
X126675666Y-31919380D01*
X126913761Y-31252714D02*
X126675666Y-31919380D01*
X126580428Y-32157476D01*
X126532809Y-32205095D01*
X126437571Y-32252714D01*
X121119714Y-35689380D02*
X121119714Y-34689380D01*
X121357809Y-34689380D01*
X121500666Y-34737000D01*
X121595904Y-34832238D01*
X121643523Y-34927476D01*
X121691142Y-35117952D01*
X121691142Y-35260809D01*
X121643523Y-35451285D01*
X121595904Y-35546523D01*
X121500666Y-35641761D01*
X121357809Y-35689380D01*
X121119714Y-35689380D01*
X122643523Y-35689380D02*
X122072095Y-35689380D01*
X122357809Y-35689380D02*
X122357809Y-34689380D01*
X122262571Y-34832238D01*
X122167333Y-34927476D01*
X122072095Y-34975095D01*
X123119714Y-35689380D02*
X123310190Y-35689380D01*
X123405428Y-35641761D01*
X123453047Y-35594142D01*
X123548285Y-35451285D01*
X123595904Y-35260809D01*
X123595904Y-34879857D01*
X123548285Y-34784619D01*
X123500666Y-34737000D01*
X123405428Y-34689380D01*
X123214952Y-34689380D01*
X123119714Y-34737000D01*
X123072095Y-34784619D01*
X123024476Y-34879857D01*
X123024476Y-35117952D01*
X123072095Y-35213190D01*
X123119714Y-35260809D01*
X123214952Y-35308428D01*
X123405428Y-35308428D01*
X123500666Y-35260809D01*
X123548285Y-35213190D01*
X123595904Y-35117952D01*
X130367095Y-37989380D02*
X130367095Y-36989380D01*
X130938523Y-37989380D02*
X130509952Y-37417952D01*
X130938523Y-36989380D02*
X130367095Y-37560809D01*
%TO.C,D20*%
X98625476Y-31919380D02*
X98625476Y-30919380D01*
X98863571Y-30919380D01*
X99006428Y-30967000D01*
X99101666Y-31062238D01*
X99149285Y-31157476D01*
X99196904Y-31347952D01*
X99196904Y-31490809D01*
X99149285Y-31681285D01*
X99101666Y-31776523D01*
X99006428Y-31871761D01*
X98863571Y-31919380D01*
X98625476Y-31919380D01*
X99387380Y-32014619D02*
X100149285Y-32014619D01*
X100339761Y-31871761D02*
X100482619Y-31919380D01*
X100720714Y-31919380D01*
X100815952Y-31871761D01*
X100863571Y-31824142D01*
X100911190Y-31728904D01*
X100911190Y-31633666D01*
X100863571Y-31538428D01*
X100815952Y-31490809D01*
X100720714Y-31443190D01*
X100530238Y-31395571D01*
X100435000Y-31347952D01*
X100387380Y-31300333D01*
X100339761Y-31205095D01*
X100339761Y-31109857D01*
X100387380Y-31014619D01*
X100435000Y-30967000D01*
X100530238Y-30919380D01*
X100768333Y-30919380D01*
X100911190Y-30967000D01*
X101768333Y-31871761D02*
X101673095Y-31919380D01*
X101482619Y-31919380D01*
X101387380Y-31871761D01*
X101339761Y-31824142D01*
X101292142Y-31728904D01*
X101292142Y-31443190D01*
X101339761Y-31347952D01*
X101387380Y-31300333D01*
X101482619Y-31252714D01*
X101673095Y-31252714D01*
X101768333Y-31300333D01*
X102196904Y-31919380D02*
X102196904Y-30919380D01*
X102625476Y-31919380D02*
X102625476Y-31395571D01*
X102577857Y-31300333D01*
X102482619Y-31252714D01*
X102339761Y-31252714D01*
X102244523Y-31300333D01*
X102196904Y-31347952D01*
X103244523Y-31919380D02*
X103149285Y-31871761D01*
X103101666Y-31824142D01*
X103054047Y-31728904D01*
X103054047Y-31443190D01*
X103101666Y-31347952D01*
X103149285Y-31300333D01*
X103244523Y-31252714D01*
X103387380Y-31252714D01*
X103482619Y-31300333D01*
X103530238Y-31347952D01*
X103577857Y-31443190D01*
X103577857Y-31728904D01*
X103530238Y-31824142D01*
X103482619Y-31871761D01*
X103387380Y-31919380D01*
X103244523Y-31919380D01*
X103863571Y-31252714D02*
X104244523Y-31252714D01*
X104006428Y-30919380D02*
X104006428Y-31776523D01*
X104054047Y-31871761D01*
X104149285Y-31919380D01*
X104244523Y-31919380D01*
X104435000Y-31252714D02*
X104815952Y-31252714D01*
X104577857Y-30919380D02*
X104577857Y-31776523D01*
X104625476Y-31871761D01*
X104720714Y-31919380D01*
X104815952Y-31919380D01*
X105149285Y-31919380D02*
X105149285Y-30919380D01*
X105244523Y-31538428D02*
X105530238Y-31919380D01*
X105530238Y-31252714D02*
X105149285Y-31633666D01*
X105863571Y-31252714D02*
X106101666Y-31919380D01*
X106339761Y-31252714D02*
X106101666Y-31919380D01*
X106006428Y-32157476D01*
X105958809Y-32205095D01*
X105863571Y-32252714D01*
X109793095Y-37989380D02*
X109793095Y-36989380D01*
X110364523Y-37989380D02*
X109935952Y-37417952D01*
X110364523Y-36989380D02*
X109793095Y-37560809D01*
X100545714Y-35689380D02*
X100545714Y-34689380D01*
X100783809Y-34689380D01*
X100926666Y-34737000D01*
X101021904Y-34832238D01*
X101069523Y-34927476D01*
X101117142Y-35117952D01*
X101117142Y-35260809D01*
X101069523Y-35451285D01*
X101021904Y-35546523D01*
X100926666Y-35641761D01*
X100783809Y-35689380D01*
X100545714Y-35689380D01*
X101498095Y-34784619D02*
X101545714Y-34737000D01*
X101640952Y-34689380D01*
X101879047Y-34689380D01*
X101974285Y-34737000D01*
X102021904Y-34784619D01*
X102069523Y-34879857D01*
X102069523Y-34975095D01*
X102021904Y-35117952D01*
X101450476Y-35689380D01*
X102069523Y-35689380D01*
X102688571Y-34689380D02*
X102783809Y-34689380D01*
X102879047Y-34737000D01*
X102926666Y-34784619D01*
X102974285Y-34879857D01*
X103021904Y-35070333D01*
X103021904Y-35308428D01*
X102974285Y-35498904D01*
X102926666Y-35594142D01*
X102879047Y-35641761D01*
X102783809Y-35689380D01*
X102688571Y-35689380D01*
X102593333Y-35641761D01*
X102545714Y-35594142D01*
X102498095Y-35498904D01*
X102450476Y-35308428D01*
X102450476Y-35070333D01*
X102498095Y-34879857D01*
X102545714Y-34784619D01*
X102593333Y-34737000D01*
X102688571Y-34689380D01*
%TO.C,R29*%
X122032380Y-106835714D02*
X122032380Y-106216666D01*
X122413333Y-106550000D01*
X122413333Y-106407142D01*
X122460952Y-106311904D01*
X122508571Y-106264285D01*
X122603809Y-106216666D01*
X122841904Y-106216666D01*
X122937142Y-106264285D01*
X122984761Y-106311904D01*
X123032380Y-106407142D01*
X123032380Y-106692857D01*
X122984761Y-106788095D01*
X122937142Y-106835714D01*
X122032380Y-105883333D02*
X122032380Y-105264285D01*
X122413333Y-105597619D01*
X122413333Y-105454761D01*
X122460952Y-105359523D01*
X122508571Y-105311904D01*
X122603809Y-105264285D01*
X122841904Y-105264285D01*
X122937142Y-105311904D01*
X122984761Y-105359523D01*
X123032380Y-105454761D01*
X123032380Y-105740476D01*
X122984761Y-105835714D01*
X122937142Y-105883333D01*
X122032380Y-104645238D02*
X122032380Y-104550000D01*
X122080000Y-104454761D01*
X122127619Y-104407142D01*
X122222857Y-104359523D01*
X122413333Y-104311904D01*
X122651428Y-104311904D01*
X122841904Y-104359523D01*
X122937142Y-104407142D01*
X122984761Y-104454761D01*
X123032380Y-104550000D01*
X123032380Y-104645238D01*
X122984761Y-104740476D01*
X122937142Y-104788095D01*
X122841904Y-104835714D01*
X122651428Y-104883333D01*
X122413333Y-104883333D01*
X122222857Y-104835714D01*
X122127619Y-104788095D01*
X122080000Y-104740476D01*
X122032380Y-104645238D01*
X126872380Y-106192857D02*
X126396190Y-106526190D01*
X126872380Y-106764285D02*
X125872380Y-106764285D01*
X125872380Y-106383333D01*
X125920000Y-106288095D01*
X125967619Y-106240476D01*
X126062857Y-106192857D01*
X126205714Y-106192857D01*
X126300952Y-106240476D01*
X126348571Y-106288095D01*
X126396190Y-106383333D01*
X126396190Y-106764285D01*
X125967619Y-105811904D02*
X125920000Y-105764285D01*
X125872380Y-105669047D01*
X125872380Y-105430952D01*
X125920000Y-105335714D01*
X125967619Y-105288095D01*
X126062857Y-105240476D01*
X126158095Y-105240476D01*
X126300952Y-105288095D01*
X126872380Y-105859523D01*
X126872380Y-105240476D01*
X126872380Y-104764285D02*
X126872380Y-104573809D01*
X126824761Y-104478571D01*
X126777142Y-104430952D01*
X126634285Y-104335714D01*
X126443809Y-104288095D01*
X126062857Y-104288095D01*
X125967619Y-104335714D01*
X125920000Y-104383333D01*
X125872380Y-104478571D01*
X125872380Y-104669047D01*
X125920000Y-104764285D01*
X125967619Y-104811904D01*
X126062857Y-104859523D01*
X126300952Y-104859523D01*
X126396190Y-104811904D01*
X126443809Y-104764285D01*
X126491428Y-104669047D01*
X126491428Y-104478571D01*
X126443809Y-104383333D01*
X126396190Y-104335714D01*
X126300952Y-104288095D01*
%TO.C,C1*%
X56095238Y-30202380D02*
X55523809Y-30202380D01*
X55809523Y-30202380D02*
X55809523Y-29202380D01*
X55714285Y-29345238D01*
X55619047Y-29440476D01*
X55523809Y-29488095D01*
X56714285Y-29202380D02*
X56809523Y-29202380D01*
X56904761Y-29250000D01*
X56952380Y-29297619D01*
X57000000Y-29392857D01*
X57047619Y-29583333D01*
X57047619Y-29821428D01*
X57000000Y-30011904D01*
X56952380Y-30107142D01*
X56904761Y-30154761D01*
X56809523Y-30202380D01*
X56714285Y-30202380D01*
X56619047Y-30154761D01*
X56571428Y-30107142D01*
X56523809Y-30011904D01*
X56476190Y-29821428D01*
X56476190Y-29583333D01*
X56523809Y-29392857D01*
X56571428Y-29297619D01*
X56619047Y-29250000D01*
X56714285Y-29202380D01*
X57666666Y-29202380D02*
X57761904Y-29202380D01*
X57857142Y-29250000D01*
X57904761Y-29297619D01*
X57952380Y-29392857D01*
X58000000Y-29583333D01*
X58000000Y-29821428D01*
X57952380Y-30011904D01*
X57904761Y-30107142D01*
X57857142Y-30154761D01*
X57761904Y-30202380D01*
X57666666Y-30202380D01*
X57571428Y-30154761D01*
X57523809Y-30107142D01*
X57476190Y-30011904D01*
X57428571Y-29821428D01*
X57428571Y-29583333D01*
X57476190Y-29392857D01*
X57523809Y-29297619D01*
X57571428Y-29250000D01*
X57666666Y-29202380D01*
X58428571Y-29535714D02*
X58428571Y-30202380D01*
X58428571Y-29630952D02*
X58476190Y-29583333D01*
X58571428Y-29535714D01*
X58714285Y-29535714D01*
X58809523Y-29583333D01*
X58857142Y-29678571D01*
X58857142Y-30202380D01*
X59190476Y-29535714D02*
X59571428Y-29535714D01*
X59333333Y-30202380D02*
X59333333Y-29345238D01*
X59380952Y-29250000D01*
X59476190Y-29202380D01*
X59571428Y-29202380D01*
X57333333Y-33857142D02*
X57285714Y-33904761D01*
X57142857Y-33952380D01*
X57047619Y-33952380D01*
X56904761Y-33904761D01*
X56809523Y-33809523D01*
X56761904Y-33714285D01*
X56714285Y-33523809D01*
X56714285Y-33380952D01*
X56761904Y-33190476D01*
X56809523Y-33095238D01*
X56904761Y-33000000D01*
X57047619Y-32952380D01*
X57142857Y-32952380D01*
X57285714Y-33000000D01*
X57333333Y-33047619D01*
X58285714Y-33952380D02*
X57714285Y-33952380D01*
X58000000Y-33952380D02*
X58000000Y-32952380D01*
X57904761Y-33095238D01*
X57809523Y-33190476D01*
X57714285Y-33238095D01*
%TO.C,H2*%
X126024285Y-29652380D02*
X126024285Y-28652380D01*
X126357619Y-29366666D01*
X126690952Y-28652380D01*
X126690952Y-29652380D01*
X127310000Y-29652380D02*
X127214761Y-29604761D01*
X127167142Y-29557142D01*
X127119523Y-29461904D01*
X127119523Y-29176190D01*
X127167142Y-29080952D01*
X127214761Y-29033333D01*
X127310000Y-28985714D01*
X127452857Y-28985714D01*
X127548095Y-29033333D01*
X127595714Y-29080952D01*
X127643333Y-29176190D01*
X127643333Y-29461904D01*
X127595714Y-29557142D01*
X127548095Y-29604761D01*
X127452857Y-29652380D01*
X127310000Y-29652380D01*
X128500476Y-28985714D02*
X128500476Y-29652380D01*
X128071904Y-28985714D02*
X128071904Y-29509523D01*
X128119523Y-29604761D01*
X128214761Y-29652380D01*
X128357619Y-29652380D01*
X128452857Y-29604761D01*
X128500476Y-29557142D01*
X128976666Y-28985714D02*
X128976666Y-29652380D01*
X128976666Y-29080952D02*
X129024285Y-29033333D01*
X129119523Y-28985714D01*
X129262380Y-28985714D01*
X129357619Y-29033333D01*
X129405238Y-29128571D01*
X129405238Y-29652380D01*
X129738571Y-28985714D02*
X130119523Y-28985714D01*
X129881428Y-28652380D02*
X129881428Y-29509523D01*
X129929047Y-29604761D01*
X130024285Y-29652380D01*
X130119523Y-29652380D01*
X130452857Y-29652380D02*
X130452857Y-28985714D01*
X130452857Y-28652380D02*
X130405238Y-28700000D01*
X130452857Y-28747619D01*
X130500476Y-28700000D01*
X130452857Y-28652380D01*
X130452857Y-28747619D01*
X130929047Y-28985714D02*
X130929047Y-29652380D01*
X130929047Y-29080952D02*
X130976666Y-29033333D01*
X131071904Y-28985714D01*
X131214761Y-28985714D01*
X131310000Y-29033333D01*
X131357619Y-29128571D01*
X131357619Y-29652380D01*
X132262380Y-28985714D02*
X132262380Y-29795238D01*
X132214761Y-29890476D01*
X132167142Y-29938095D01*
X132071904Y-29985714D01*
X131929047Y-29985714D01*
X131833809Y-29938095D01*
X132262380Y-29604761D02*
X132167142Y-29652380D01*
X131976666Y-29652380D01*
X131881428Y-29604761D01*
X131833809Y-29557142D01*
X131786190Y-29461904D01*
X131786190Y-29176190D01*
X131833809Y-29080952D01*
X131881428Y-29033333D01*
X131976666Y-28985714D01*
X132167142Y-28985714D01*
X132262380Y-29033333D01*
X132738571Y-29652380D02*
X132738571Y-28652380D01*
X132738571Y-29128571D02*
X133310000Y-29128571D01*
X133310000Y-29652380D02*
X133310000Y-28652380D01*
X133929047Y-29652380D02*
X133833809Y-29604761D01*
X133786190Y-29557142D01*
X133738571Y-29461904D01*
X133738571Y-29176190D01*
X133786190Y-29080952D01*
X133833809Y-29033333D01*
X133929047Y-28985714D01*
X134071904Y-28985714D01*
X134167142Y-29033333D01*
X134214761Y-29080952D01*
X134262380Y-29176190D01*
X134262380Y-29461904D01*
X134214761Y-29557142D01*
X134167142Y-29604761D01*
X134071904Y-29652380D01*
X133929047Y-29652380D01*
X134833809Y-29652380D02*
X134738571Y-29604761D01*
X134690952Y-29509523D01*
X134690952Y-28652380D01*
X135595714Y-29604761D02*
X135500476Y-29652380D01*
X135310000Y-29652380D01*
X135214761Y-29604761D01*
X135167142Y-29509523D01*
X135167142Y-29128571D01*
X135214761Y-29033333D01*
X135310000Y-28985714D01*
X135500476Y-28985714D01*
X135595714Y-29033333D01*
X135643333Y-29128571D01*
X135643333Y-29223809D01*
X135167142Y-29319047D01*
X130048095Y-25852380D02*
X130048095Y-24852380D01*
X130048095Y-25328571D02*
X130619523Y-25328571D01*
X130619523Y-25852380D02*
X130619523Y-24852380D01*
X131048095Y-24947619D02*
X131095714Y-24900000D01*
X131190952Y-24852380D01*
X131429047Y-24852380D01*
X131524285Y-24900000D01*
X131571904Y-24947619D01*
X131619523Y-25042857D01*
X131619523Y-25138095D01*
X131571904Y-25280952D01*
X131000476Y-25852380D01*
X131619523Y-25852380D01*
%TO.C,H3*%
X37124285Y-118552380D02*
X37124285Y-117552380D01*
X37457619Y-118266666D01*
X37790952Y-117552380D01*
X37790952Y-118552380D01*
X38410000Y-118552380D02*
X38314761Y-118504761D01*
X38267142Y-118457142D01*
X38219523Y-118361904D01*
X38219523Y-118076190D01*
X38267142Y-117980952D01*
X38314761Y-117933333D01*
X38410000Y-117885714D01*
X38552857Y-117885714D01*
X38648095Y-117933333D01*
X38695714Y-117980952D01*
X38743333Y-118076190D01*
X38743333Y-118361904D01*
X38695714Y-118457142D01*
X38648095Y-118504761D01*
X38552857Y-118552380D01*
X38410000Y-118552380D01*
X39600476Y-117885714D02*
X39600476Y-118552380D01*
X39171904Y-117885714D02*
X39171904Y-118409523D01*
X39219523Y-118504761D01*
X39314761Y-118552380D01*
X39457619Y-118552380D01*
X39552857Y-118504761D01*
X39600476Y-118457142D01*
X40076666Y-117885714D02*
X40076666Y-118552380D01*
X40076666Y-117980952D02*
X40124285Y-117933333D01*
X40219523Y-117885714D01*
X40362380Y-117885714D01*
X40457619Y-117933333D01*
X40505238Y-118028571D01*
X40505238Y-118552380D01*
X40838571Y-117885714D02*
X41219523Y-117885714D01*
X40981428Y-117552380D02*
X40981428Y-118409523D01*
X41029047Y-118504761D01*
X41124285Y-118552380D01*
X41219523Y-118552380D01*
X41552857Y-118552380D02*
X41552857Y-117885714D01*
X41552857Y-117552380D02*
X41505238Y-117600000D01*
X41552857Y-117647619D01*
X41600476Y-117600000D01*
X41552857Y-117552380D01*
X41552857Y-117647619D01*
X42029047Y-117885714D02*
X42029047Y-118552380D01*
X42029047Y-117980952D02*
X42076666Y-117933333D01*
X42171904Y-117885714D01*
X42314761Y-117885714D01*
X42410000Y-117933333D01*
X42457619Y-118028571D01*
X42457619Y-118552380D01*
X43362380Y-117885714D02*
X43362380Y-118695238D01*
X43314761Y-118790476D01*
X43267142Y-118838095D01*
X43171904Y-118885714D01*
X43029047Y-118885714D01*
X42933809Y-118838095D01*
X43362380Y-118504761D02*
X43267142Y-118552380D01*
X43076666Y-118552380D01*
X42981428Y-118504761D01*
X42933809Y-118457142D01*
X42886190Y-118361904D01*
X42886190Y-118076190D01*
X42933809Y-117980952D01*
X42981428Y-117933333D01*
X43076666Y-117885714D01*
X43267142Y-117885714D01*
X43362380Y-117933333D01*
X43838571Y-118552380D02*
X43838571Y-117552380D01*
X43838571Y-118028571D02*
X44410000Y-118028571D01*
X44410000Y-118552380D02*
X44410000Y-117552380D01*
X45029047Y-118552380D02*
X44933809Y-118504761D01*
X44886190Y-118457142D01*
X44838571Y-118361904D01*
X44838571Y-118076190D01*
X44886190Y-117980952D01*
X44933809Y-117933333D01*
X45029047Y-117885714D01*
X45171904Y-117885714D01*
X45267142Y-117933333D01*
X45314761Y-117980952D01*
X45362380Y-118076190D01*
X45362380Y-118361904D01*
X45314761Y-118457142D01*
X45267142Y-118504761D01*
X45171904Y-118552380D01*
X45029047Y-118552380D01*
X45933809Y-118552380D02*
X45838571Y-118504761D01*
X45790952Y-118409523D01*
X45790952Y-117552380D01*
X46695714Y-118504761D02*
X46600476Y-118552380D01*
X46410000Y-118552380D01*
X46314761Y-118504761D01*
X46267142Y-118409523D01*
X46267142Y-118028571D01*
X46314761Y-117933333D01*
X46410000Y-117885714D01*
X46600476Y-117885714D01*
X46695714Y-117933333D01*
X46743333Y-118028571D01*
X46743333Y-118123809D01*
X46267142Y-118219047D01*
X45838095Y-116452380D02*
X45838095Y-115452380D01*
X45838095Y-115928571D02*
X46409523Y-115928571D01*
X46409523Y-116452380D02*
X46409523Y-115452380D01*
X46790476Y-115452380D02*
X47409523Y-115452380D01*
X47076190Y-115833333D01*
X47219047Y-115833333D01*
X47314285Y-115880952D01*
X47361904Y-115928571D01*
X47409523Y-116023809D01*
X47409523Y-116261904D01*
X47361904Y-116357142D01*
X47314285Y-116404761D01*
X47219047Y-116452380D01*
X46933333Y-116452380D01*
X46838095Y-116404761D01*
X46790476Y-116357142D01*
%TO.C,H4*%
X126024285Y-118552380D02*
X126024285Y-117552380D01*
X126357619Y-118266666D01*
X126690952Y-117552380D01*
X126690952Y-118552380D01*
X127310000Y-118552380D02*
X127214761Y-118504761D01*
X127167142Y-118457142D01*
X127119523Y-118361904D01*
X127119523Y-118076190D01*
X127167142Y-117980952D01*
X127214761Y-117933333D01*
X127310000Y-117885714D01*
X127452857Y-117885714D01*
X127548095Y-117933333D01*
X127595714Y-117980952D01*
X127643333Y-118076190D01*
X127643333Y-118361904D01*
X127595714Y-118457142D01*
X127548095Y-118504761D01*
X127452857Y-118552380D01*
X127310000Y-118552380D01*
X128500476Y-117885714D02*
X128500476Y-118552380D01*
X128071904Y-117885714D02*
X128071904Y-118409523D01*
X128119523Y-118504761D01*
X128214761Y-118552380D01*
X128357619Y-118552380D01*
X128452857Y-118504761D01*
X128500476Y-118457142D01*
X128976666Y-117885714D02*
X128976666Y-118552380D01*
X128976666Y-117980952D02*
X129024285Y-117933333D01*
X129119523Y-117885714D01*
X129262380Y-117885714D01*
X129357619Y-117933333D01*
X129405238Y-118028571D01*
X129405238Y-118552380D01*
X129738571Y-117885714D02*
X130119523Y-117885714D01*
X129881428Y-117552380D02*
X129881428Y-118409523D01*
X129929047Y-118504761D01*
X130024285Y-118552380D01*
X130119523Y-118552380D01*
X130452857Y-118552380D02*
X130452857Y-117885714D01*
X130452857Y-117552380D02*
X130405238Y-117600000D01*
X130452857Y-117647619D01*
X130500476Y-117600000D01*
X130452857Y-117552380D01*
X130452857Y-117647619D01*
X130929047Y-117885714D02*
X130929047Y-118552380D01*
X130929047Y-117980952D02*
X130976666Y-117933333D01*
X131071904Y-117885714D01*
X131214761Y-117885714D01*
X131310000Y-117933333D01*
X131357619Y-118028571D01*
X131357619Y-118552380D01*
X132262380Y-117885714D02*
X132262380Y-118695238D01*
X132214761Y-118790476D01*
X132167142Y-118838095D01*
X132071904Y-118885714D01*
X131929047Y-118885714D01*
X131833809Y-118838095D01*
X132262380Y-118504761D02*
X132167142Y-118552380D01*
X131976666Y-118552380D01*
X131881428Y-118504761D01*
X131833809Y-118457142D01*
X131786190Y-118361904D01*
X131786190Y-118076190D01*
X131833809Y-117980952D01*
X131881428Y-117933333D01*
X131976666Y-117885714D01*
X132167142Y-117885714D01*
X132262380Y-117933333D01*
X132738571Y-118552380D02*
X132738571Y-117552380D01*
X132738571Y-118028571D02*
X133310000Y-118028571D01*
X133310000Y-118552380D02*
X133310000Y-117552380D01*
X133929047Y-118552380D02*
X133833809Y-118504761D01*
X133786190Y-118457142D01*
X133738571Y-118361904D01*
X133738571Y-118076190D01*
X133786190Y-117980952D01*
X133833809Y-117933333D01*
X133929047Y-117885714D01*
X134071904Y-117885714D01*
X134167142Y-117933333D01*
X134214761Y-117980952D01*
X134262380Y-118076190D01*
X134262380Y-118361904D01*
X134214761Y-118457142D01*
X134167142Y-118504761D01*
X134071904Y-118552380D01*
X133929047Y-118552380D01*
X134833809Y-118552380D02*
X134738571Y-118504761D01*
X134690952Y-118409523D01*
X134690952Y-117552380D01*
X135595714Y-118504761D02*
X135500476Y-118552380D01*
X135310000Y-118552380D01*
X135214761Y-118504761D01*
X135167142Y-118409523D01*
X135167142Y-118028571D01*
X135214761Y-117933333D01*
X135310000Y-117885714D01*
X135500476Y-117885714D01*
X135595714Y-117933333D01*
X135643333Y-118028571D01*
X135643333Y-118123809D01*
X135167142Y-118219047D01*
X130048095Y-114752380D02*
X130048095Y-113752380D01*
X130048095Y-114228571D02*
X130619523Y-114228571D01*
X130619523Y-114752380D02*
X130619523Y-113752380D01*
X131524285Y-114085714D02*
X131524285Y-114752380D01*
X131286190Y-113704761D02*
X131048095Y-114419047D01*
X131667142Y-114419047D01*
%TO.C,H1*%
X36870285Y-29398380D02*
X36870285Y-28398380D01*
X37203619Y-29112666D01*
X37536952Y-28398380D01*
X37536952Y-29398380D01*
X38156000Y-29398380D02*
X38060761Y-29350761D01*
X38013142Y-29303142D01*
X37965523Y-29207904D01*
X37965523Y-28922190D01*
X38013142Y-28826952D01*
X38060761Y-28779333D01*
X38156000Y-28731714D01*
X38298857Y-28731714D01*
X38394095Y-28779333D01*
X38441714Y-28826952D01*
X38489333Y-28922190D01*
X38489333Y-29207904D01*
X38441714Y-29303142D01*
X38394095Y-29350761D01*
X38298857Y-29398380D01*
X38156000Y-29398380D01*
X39346476Y-28731714D02*
X39346476Y-29398380D01*
X38917904Y-28731714D02*
X38917904Y-29255523D01*
X38965523Y-29350761D01*
X39060761Y-29398380D01*
X39203619Y-29398380D01*
X39298857Y-29350761D01*
X39346476Y-29303142D01*
X39822666Y-28731714D02*
X39822666Y-29398380D01*
X39822666Y-28826952D02*
X39870285Y-28779333D01*
X39965523Y-28731714D01*
X40108380Y-28731714D01*
X40203619Y-28779333D01*
X40251238Y-28874571D01*
X40251238Y-29398380D01*
X40584571Y-28731714D02*
X40965523Y-28731714D01*
X40727428Y-28398380D02*
X40727428Y-29255523D01*
X40775047Y-29350761D01*
X40870285Y-29398380D01*
X40965523Y-29398380D01*
X41298857Y-29398380D02*
X41298857Y-28731714D01*
X41298857Y-28398380D02*
X41251238Y-28446000D01*
X41298857Y-28493619D01*
X41346476Y-28446000D01*
X41298857Y-28398380D01*
X41298857Y-28493619D01*
X41775047Y-28731714D02*
X41775047Y-29398380D01*
X41775047Y-28826952D02*
X41822666Y-28779333D01*
X41917904Y-28731714D01*
X42060761Y-28731714D01*
X42156000Y-28779333D01*
X42203619Y-28874571D01*
X42203619Y-29398380D01*
X43108380Y-28731714D02*
X43108380Y-29541238D01*
X43060761Y-29636476D01*
X43013142Y-29684095D01*
X42917904Y-29731714D01*
X42775047Y-29731714D01*
X42679809Y-29684095D01*
X43108380Y-29350761D02*
X43013142Y-29398380D01*
X42822666Y-29398380D01*
X42727428Y-29350761D01*
X42679809Y-29303142D01*
X42632190Y-29207904D01*
X42632190Y-28922190D01*
X42679809Y-28826952D01*
X42727428Y-28779333D01*
X42822666Y-28731714D01*
X43013142Y-28731714D01*
X43108380Y-28779333D01*
X43584571Y-29398380D02*
X43584571Y-28398380D01*
X43584571Y-28874571D02*
X44156000Y-28874571D01*
X44156000Y-29398380D02*
X44156000Y-28398380D01*
X44775047Y-29398380D02*
X44679809Y-29350761D01*
X44632190Y-29303142D01*
X44584571Y-29207904D01*
X44584571Y-28922190D01*
X44632190Y-28826952D01*
X44679809Y-28779333D01*
X44775047Y-28731714D01*
X44917904Y-28731714D01*
X45013142Y-28779333D01*
X45060761Y-28826952D01*
X45108380Y-28922190D01*
X45108380Y-29207904D01*
X45060761Y-29303142D01*
X45013142Y-29350761D01*
X44917904Y-29398380D01*
X44775047Y-29398380D01*
X45679809Y-29398380D02*
X45584571Y-29350761D01*
X45536952Y-29255523D01*
X45536952Y-28398380D01*
X46441714Y-29350761D02*
X46346476Y-29398380D01*
X46156000Y-29398380D01*
X46060761Y-29350761D01*
X46013142Y-29255523D01*
X46013142Y-28874571D01*
X46060761Y-28779333D01*
X46156000Y-28731714D01*
X46346476Y-28731714D01*
X46441714Y-28779333D01*
X46489333Y-28874571D01*
X46489333Y-28969809D01*
X46013142Y-29065047D01*
X40894095Y-25598380D02*
X40894095Y-24598380D01*
X40894095Y-25074571D02*
X41465523Y-25074571D01*
X41465523Y-25598380D02*
X41465523Y-24598380D01*
X42465523Y-25598380D02*
X41894095Y-25598380D01*
X42179809Y-25598380D02*
X42179809Y-24598380D01*
X42084571Y-24741238D01*
X41989333Y-24836476D01*
X41894095Y-24884095D01*
D11*
%TO.C,D1*%
X95932810Y-100306000D02*
X98265190Y-100306000D01*
X98264476Y-100306555D02*
G75*
G03*
X95932810Y-100306000I-1165476J1500555D01*
G01*
X98599000Y-98806000D02*
G75*
G03*
X98599000Y-98806000I-1500000J0D01*
G01*
%TO.C,D3*%
X75311810Y-99798000D02*
X77644190Y-99798000D01*
X77643476Y-99798555D02*
G75*
G03*
X75311810Y-99798000I-1165476J1500555D01*
G01*
X77978000Y-98298000D02*
G75*
G03*
X77978000Y-98298000I-1500000J0D01*
G01*
%TO.C,D4*%
X53179810Y-85333000D02*
X55512190Y-85333000D01*
X55511476Y-85333555D02*
G75*
G03*
X53179810Y-85333000I-1165476J1500555D01*
G01*
X55846000Y-83833000D02*
G75*
G03*
X55846000Y-83833000I-1500000J0D01*
G01*
%TO.C,D5*%
X53179810Y-91484000D02*
X55512190Y-91484000D01*
X55511476Y-91484555D02*
G75*
G03*
X53179810Y-91484000I-1165476J1500555D01*
G01*
X55846000Y-89984000D02*
G75*
G03*
X55846000Y-89984000I-1500000J0D01*
G01*
%TO.C,D6*%
X53570810Y-69064000D02*
X55903190Y-69064000D01*
X55902476Y-69064555D02*
G75*
G03*
X53570810Y-69064000I-1165476J1500555D01*
G01*
X56237000Y-67564000D02*
G75*
G03*
X56237000Y-67564000I-1500000J0D01*
G01*
%TO.C,D7*%
X53570810Y-75922000D02*
X55903190Y-75922000D01*
X55902476Y-75922555D02*
G75*
G03*
X53570810Y-75922000I-1165476J1500555D01*
G01*
X56237000Y-74422000D02*
G75*
G03*
X56237000Y-74422000I-1500000J0D01*
G01*
%TO.C,D8*%
X66167810Y-99798000D02*
X68500190Y-99798000D01*
X68499476Y-99798555D02*
G75*
G03*
X66167810Y-99798000I-1165476J1500555D01*
G01*
X68834000Y-98298000D02*
G75*
G03*
X68834000Y-98298000I-1500000J0D01*
G01*
%TO.C,D9*%
X72070000Y-42033810D02*
X72070000Y-44366190D01*
X72069445Y-44365476D02*
G75*
G03*
X72070000Y-42033810I1500555J1165476D01*
G01*
X75070000Y-43200000D02*
G75*
G03*
X75070000Y-43200000I-1500000J0D01*
G01*
%TO.C,D10*%
X66795000Y-42033810D02*
X66795000Y-44366190D01*
X66794445Y-44365476D02*
G75*
G03*
X66795000Y-42033810I1500555J1165476D01*
G01*
X69795000Y-43200000D02*
G75*
G03*
X69795000Y-43200000I-1500000J0D01*
G01*
%TO.C,D11*%
X61295000Y-42033810D02*
X61295000Y-44366190D01*
X61294445Y-44365476D02*
G75*
G03*
X61295000Y-42033810I1500555J1165476D01*
G01*
X64295000Y-43200000D02*
G75*
G03*
X64295000Y-43200000I-1500000J0D01*
G01*
%TO.C,D12*%
X55820000Y-42033810D02*
X55820000Y-44366190D01*
X55819445Y-44365476D02*
G75*
G03*
X55820000Y-42033810I1500555J1165476D01*
G01*
X58820000Y-43200000D02*
G75*
G03*
X58820000Y-43200000I-1500000J0D01*
G01*
%TO.C,D13*%
X55083810Y-100872000D02*
X57416190Y-100872000D01*
X57415476Y-100872555D02*
G75*
G03*
X55083810Y-100872000I-1165476J1500555D01*
G01*
X57750000Y-99372000D02*
G75*
G03*
X57750000Y-99372000I-1500000J0D01*
G01*
%TO.C,D14*%
X55083810Y-107755000D02*
X57416190Y-107755000D01*
X57415476Y-107755555D02*
G75*
G03*
X55083810Y-107755000I-1165476J1500555D01*
G01*
X57750000Y-106255000D02*
G75*
G03*
X57750000Y-106255000I-1500000J0D01*
G01*
%TO.C,D15*%
X72045000Y-48033810D02*
X72045000Y-50366190D01*
X72044445Y-50365476D02*
G75*
G03*
X72045000Y-48033810I1500555J1165476D01*
G01*
X75045000Y-49200000D02*
G75*
G03*
X75045000Y-49200000I-1500000J0D01*
G01*
%TO.C,D16*%
X66795000Y-48033810D02*
X66795000Y-50366190D01*
X66794445Y-50365476D02*
G75*
G03*
X66795000Y-48033810I1500555J1165476D01*
G01*
X69795000Y-49200000D02*
G75*
G03*
X69795000Y-49200000I-1500000J0D01*
G01*
%TO.C,D17*%
X61295000Y-48033810D02*
X61295000Y-50366190D01*
X61294445Y-50365476D02*
G75*
G03*
X61295000Y-48033810I1500555J1165476D01*
G01*
X64295000Y-49200000D02*
G75*
G03*
X64295000Y-49200000I-1500000J0D01*
G01*
%TO.C,D18*%
X55795000Y-48033810D02*
X55795000Y-50366190D01*
X55794445Y-50365476D02*
G75*
G03*
X55795000Y-48033810I1500555J1165476D01*
G01*
X58795000Y-49200000D02*
G75*
G03*
X58795000Y-49200000I-1500000J0D01*
G01*
%TO.C,J1*%
X88717000Y-112188000D02*
X89342000Y-111188000D01*
X86267000Y-111188000D02*
X86267000Y-116938000D01*
X86267000Y-116938000D02*
X98667000Y-116938000D01*
X98667000Y-116938000D02*
X98667000Y-111188000D01*
X88092000Y-111188000D02*
X88717000Y-112188000D01*
X98667000Y-111188000D02*
X86267000Y-111188000D01*
%TO.C,J2*%
X78427000Y-111061000D02*
X66027000Y-111061000D01*
X68477000Y-112061000D02*
X69102000Y-111061000D01*
X66027000Y-111061000D02*
X66027000Y-116811000D01*
X66027000Y-116811000D02*
X78427000Y-116811000D01*
X67852000Y-111061000D02*
X68477000Y-112061000D01*
X78427000Y-116811000D02*
X78427000Y-111061000D01*
%TO.C,J3*%
X44520000Y-82872000D02*
X45520000Y-83497000D01*
X39770000Y-80422000D02*
X39770000Y-92822000D01*
X39770000Y-92822000D02*
X45520000Y-92822000D01*
X45520000Y-92822000D02*
X45520000Y-80422000D01*
X45520000Y-80422000D02*
X39770000Y-80422000D01*
X45520000Y-82247000D02*
X44520000Y-82872000D01*
%TO.C,J4*%
X45657000Y-64860000D02*
X39907000Y-64860000D01*
X44657000Y-67310000D02*
X45657000Y-67935000D01*
X39907000Y-64860000D02*
X39907000Y-77260000D01*
X45657000Y-77260000D02*
X45657000Y-64860000D01*
X39907000Y-77260000D02*
X45657000Y-77260000D01*
X45657000Y-66685000D02*
X44657000Y-67310000D01*
%TO.C,J5*%
X123819999Y-111307999D02*
X111419999Y-111307999D01*
X113244999Y-111307999D02*
X113869999Y-112307999D01*
X111419999Y-117057999D02*
X123819999Y-117057999D01*
X123819999Y-117057999D02*
X123819999Y-111307999D01*
X113869999Y-112307999D02*
X114494999Y-111307999D01*
X111419999Y-111307999D02*
X111419999Y-117057999D01*
%TO.C,R1*%
X98750000Y-107061000D02*
X98750000Y-104521000D01*
X99550000Y-107061000D02*
G75*
G03*
X99550000Y-107061000I-800000J0D01*
G01*
%TO.C,R2*%
X89225000Y-104648000D02*
X89225000Y-107188000D01*
X90025000Y-104648000D02*
G75*
G03*
X90025000Y-104648000I-800000J0D01*
G01*
%TO.C,R3*%
X78002000Y-104394000D02*
X78002000Y-106934000D01*
X78802000Y-104394000D02*
G75*
G03*
X78802000Y-104394000I-800000J0D01*
G01*
%TO.C,R4*%
X48250000Y-84396000D02*
X48250000Y-81856000D01*
X49050000Y-84396000D02*
G75*
G03*
X49050000Y-84396000I-800000J0D01*
G01*
%TO.C,R5*%
X48250000Y-91000000D02*
X48250000Y-88460000D01*
X49050000Y-91000000D02*
G75*
G03*
X49050000Y-91000000I-800000J0D01*
G01*
%TO.C,R6*%
X48641000Y-68834000D02*
X48641000Y-66294000D01*
X49441000Y-68834000D02*
G75*
G03*
X49441000Y-68834000I-800000J0D01*
G01*
%TO.C,R7*%
X48641000Y-75438000D02*
X48641000Y-72898000D01*
X49441000Y-75438000D02*
G75*
G03*
X49441000Y-75438000I-800000J0D01*
G01*
%TO.C,R8*%
X95194000Y-106934000D02*
X95194000Y-104394000D01*
X95994000Y-106934000D02*
G75*
G03*
X95994000Y-106934000I-800000J0D01*
G01*
%TO.C,R9*%
X74573000Y-106807000D02*
X74573000Y-104267000D01*
X75373000Y-106807000D02*
G75*
G03*
X75373000Y-106807000I-800000J0D01*
G01*
%TO.C,R10*%
X65556000Y-106807000D02*
X65556000Y-104267000D01*
X66356000Y-106807000D02*
G75*
G03*
X66356000Y-106807000I-800000J0D01*
G01*
%TO.C,R11*%
X68858000Y-106807000D02*
X68858000Y-104267000D01*
X69658000Y-106807000D02*
G75*
G03*
X69658000Y-106807000I-800000J0D01*
G01*
%TO.C,R12*%
X85669000Y-106934000D02*
X85669000Y-104394000D01*
X86469000Y-106934000D02*
G75*
G03*
X86469000Y-106934000I-800000J0D01*
G01*
%TO.C,R13*%
X72530000Y-38200000D02*
X75070000Y-38200000D01*
X73330000Y-38200000D02*
G75*
G03*
X73330000Y-38200000I-800000J0D01*
G01*
%TO.C,R14*%
X67130000Y-38200000D02*
X69670000Y-38200000D01*
X67930000Y-38200000D02*
G75*
G03*
X67930000Y-38200000I-800000J0D01*
G01*
%TO.C,R15*%
X61530000Y-38200000D02*
X64070000Y-38200000D01*
X62330000Y-38200000D02*
G75*
G03*
X62330000Y-38200000I-800000J0D01*
G01*
%TO.C,R16*%
X56130000Y-38200000D02*
X58670000Y-38200000D01*
X56930000Y-38200000D02*
G75*
G03*
X56930000Y-38200000I-800000J0D01*
G01*
%TO.C,R17*%
X118187999Y-106799999D02*
X118187999Y-104259999D01*
X118987999Y-106799999D02*
G75*
G03*
X118987999Y-106799999I-800000J0D01*
G01*
%TO.C,R18*%
X82249000Y-34775000D02*
X84789000Y-34775000D01*
X83049000Y-34775000D02*
G75*
G03*
X83049000Y-34775000I-800000J0D01*
G01*
%TO.C,R19*%
X114377999Y-106799999D02*
X114377999Y-104259999D01*
X115177999Y-106799999D02*
G75*
G03*
X115177999Y-106799999I-800000J0D01*
G01*
%TO.C,R20*%
X105356000Y-69654000D02*
X105356000Y-67114000D01*
X106156000Y-69654000D02*
G75*
G03*
X106156000Y-69654000I-800000J0D01*
G01*
%TO.C,R21*%
X48376000Y-104706000D02*
X50916000Y-104706000D01*
X49176000Y-104706000D02*
G75*
G03*
X49176000Y-104706000I-800000J0D01*
G01*
%TO.C,R22*%
X72580000Y-54200000D02*
X75120000Y-54200000D01*
X73380000Y-54200000D02*
G75*
G03*
X73380000Y-54200000I-800000J0D01*
G01*
%TO.C,R23*%
X67080000Y-54200000D02*
X69620000Y-54200000D01*
X67880000Y-54200000D02*
G75*
G03*
X67880000Y-54200000I-800000J0D01*
G01*
%TO.C,R24*%
X61730000Y-54200000D02*
X64270000Y-54200000D01*
X62530000Y-54200000D02*
G75*
G03*
X62530000Y-54200000I-800000J0D01*
G01*
%TO.C,R25*%
X56130000Y-54200000D02*
X58670000Y-54200000D01*
X56930000Y-54200000D02*
G75*
G03*
X56930000Y-54200000I-800000J0D01*
G01*
%TO.C,RV1*%
X120947999Y-87449999D02*
X120947999Y-99449999D01*
X130747999Y-99449999D02*
X130747999Y-87449999D01*
X130747999Y-87449999D02*
X120947999Y-87449999D01*
X120947999Y-99449999D02*
X130747999Y-99449999D01*
X128847999Y-92949999D02*
G75*
G03*
X128847999Y-92949999I-3000000J0D01*
G01*
%TO.C,RV2*%
X115507999Y-99449999D02*
X115507999Y-87449999D01*
X105707999Y-87449999D02*
X105707999Y-99449999D01*
X115507999Y-87449999D02*
X105707999Y-87449999D01*
X105707999Y-99449999D02*
X115507999Y-99449999D01*
X113607999Y-92949999D02*
G75*
G03*
X113607999Y-92949999I-3000000J0D01*
G01*
%TO.C,SW1*%
X100063000Y-92714000D02*
X94063000Y-92714000D01*
X94063000Y-92714000D02*
X94063000Y-89714000D01*
X94063000Y-86714000D02*
X100063000Y-86714000D01*
X94063000Y-89714000D02*
X94063000Y-86714000D01*
X100063000Y-86714000D02*
X100063000Y-92714000D01*
X99078564Y-89714000D02*
G75*
G03*
X99078564Y-89714000I-2015564J0D01*
G01*
%TO.C,SW2*%
X84411000Y-86714000D02*
X90411000Y-86714000D01*
X90411000Y-86714000D02*
X90411000Y-92714000D01*
X84411000Y-89714000D02*
X84411000Y-86714000D01*
X84411000Y-92714000D02*
X84411000Y-89714000D01*
X90411000Y-92714000D02*
X84411000Y-92714000D01*
X89426564Y-89714000D02*
G75*
G03*
X89426564Y-89714000I-2015564J0D01*
G01*
%TO.C,SW3*%
X79442000Y-86206000D02*
X79442000Y-92206000D01*
X79442000Y-92206000D02*
X73442000Y-92206000D01*
X73442000Y-92206000D02*
X73442000Y-89206000D01*
X73442000Y-89206000D02*
X73442000Y-86206000D01*
X73442000Y-86206000D02*
X79442000Y-86206000D01*
X78457564Y-89206000D02*
G75*
G03*
X78457564Y-89206000I-2015564J0D01*
G01*
%TO.C,SW4*%
X70298000Y-86206000D02*
X70298000Y-92206000D01*
X64298000Y-86206000D02*
X70298000Y-86206000D01*
X64298000Y-89206000D02*
X64298000Y-86206000D01*
X64298000Y-92206000D02*
X64298000Y-89206000D01*
X70298000Y-92206000D02*
X64298000Y-92206000D01*
X69313564Y-89206000D02*
G75*
G03*
X69313564Y-89206000I-2015564J0D01*
G01*
D10*
%TO.C,U1*%
X81169000Y-41400000D02*
X85769000Y-41400000D01*
X83469000Y-45200000D02*
G75*
G03*
X86069000Y-42600000I1J2599999D01*
G01*
X81166792Y-41404242D02*
G75*
G03*
X85769000Y-41400000I2302208J-1195758D01*
G01*
%TO.C,U2*%
X81169000Y-48150000D02*
X85769000Y-48150000D01*
X81166792Y-48154242D02*
G75*
G03*
X85769000Y-48150000I2302208J-1195758D01*
G01*
X83469000Y-51950000D02*
G75*
G03*
X86069000Y-49350000I1J2599999D01*
G01*
D11*
%TO.C,J16*%
X88400000Y-27950000D02*
X87775000Y-28950000D01*
X90850000Y-28950000D02*
X90850000Y-23200000D01*
X90850000Y-23200000D02*
X78450000Y-23200000D01*
X89025000Y-28950000D02*
X88400000Y-27950000D01*
X78450000Y-23200000D02*
X78450000Y-28950000D01*
X78450000Y-28950000D02*
X90850000Y-28950000D01*
%TO.C,R26*%
X107720000Y-106610000D02*
X107720000Y-104070000D01*
X108520000Y-106610000D02*
G75*
G03*
X108520000Y-106610000I-800000J0D01*
G01*
%TO.C,D2*%
X86407810Y-100433000D02*
X88740190Y-100433000D01*
X88739476Y-100433555D02*
G75*
G03*
X86407810Y-100433000I-1165476J1500555D01*
G01*
X89074000Y-98933000D02*
G75*
G03*
X89074000Y-98933000I-1500000J0D01*
G01*
%TO.C,D21*%
X119683810Y-69630000D02*
X122016190Y-69630000D01*
X122015476Y-69630555D02*
G75*
G03*
X119683810Y-69630000I-1165476J1500555D01*
G01*
X122350000Y-68130000D02*
G75*
G03*
X122350000Y-68130000I-1500000J0D01*
G01*
%TO.C,D22*%
X97458810Y-69757000D02*
X99791190Y-69757000D01*
X99790476Y-69757555D02*
G75*
G03*
X97458810Y-69757000I-1165476J1500555D01*
G01*
X100125000Y-68257000D02*
G75*
G03*
X100125000Y-68257000I-1500000J0D01*
G01*
%TO.C,J7*%
X59346000Y-28639000D02*
X59346000Y-22889000D01*
X46946000Y-22889000D02*
X46946000Y-28639000D01*
X56896000Y-27639000D02*
X56271000Y-28639000D01*
X59346000Y-22889000D02*
X46946000Y-22889000D01*
X46946000Y-28639000D02*
X59346000Y-28639000D01*
X57521000Y-28639000D02*
X56896000Y-27639000D01*
%TO.C,J8*%
X60662000Y-22889000D02*
X60662000Y-28639000D01*
X60662000Y-28639000D02*
X73062000Y-28639000D01*
X73062000Y-28639000D02*
X73062000Y-22889000D01*
X70612000Y-27639000D02*
X69987000Y-28639000D01*
X73062000Y-22889000D02*
X60662000Y-22889000D01*
X71237000Y-28639000D02*
X70612000Y-27639000D01*
%TO.C,J9*%
X116649000Y-28697000D02*
X116024000Y-27697000D01*
X106074000Y-22947000D02*
X106074000Y-28697000D01*
X118474000Y-22947000D02*
X106074000Y-22947000D01*
X118474000Y-28697000D02*
X118474000Y-22947000D01*
X116024000Y-27697000D02*
X115399000Y-28697000D01*
X106074000Y-28697000D02*
X118474000Y-28697000D01*
%TO.C,R27*%
X48376000Y-100388000D02*
X50916000Y-100388000D01*
X49176000Y-100388000D02*
G75*
G03*
X49176000Y-100388000I-800000J0D01*
G01*
%TO.C,R28*%
X127200000Y-69400000D02*
X127200000Y-66860000D01*
X128000000Y-69400000D02*
G75*
G03*
X128000000Y-69400000I-800000J0D01*
G01*
%TO.C,RLY1*%
X131140000Y-40815000D02*
X115140000Y-40815000D01*
X131640000Y-41340000D02*
X131140000Y-40815000D01*
X131640000Y-63315000D02*
X115140000Y-63315000D01*
X115140000Y-40815000D02*
X115140000Y-63315000D01*
X131640000Y-41340000D02*
X131640000Y-63315000D01*
%TO.C,RLY2*%
X94058000Y-40815000D02*
X94058000Y-63315000D01*
X110058000Y-40815000D02*
X94058000Y-40815000D01*
X110558000Y-41340000D02*
X110058000Y-40815000D01*
X110558000Y-63315000D02*
X94058000Y-63315000D01*
X110558000Y-41340000D02*
X110558000Y-63315000D01*
%TO.C,U3*%
X42435000Y-59530000D02*
X42435000Y-35130000D01*
X42435000Y-35130000D02*
X43435000Y-34130000D01*
X48785000Y-34130000D02*
X48785000Y-59530000D01*
X48785000Y-59530000D02*
X42435000Y-59530000D01*
X43435000Y-34130000D02*
X48785000Y-34130000D01*
%TO.C,J6*%
X39515000Y-96033000D02*
X39515000Y-108433000D01*
X45265000Y-108433000D02*
X45265000Y-96033000D01*
X44265000Y-98483000D02*
X45265000Y-99108000D01*
X39515000Y-108433000D02*
X45265000Y-108433000D01*
X45265000Y-97858000D02*
X44265000Y-98483000D01*
X45265000Y-96033000D02*
X39515000Y-96033000D01*
%TO.C,D19*%
X126159000Y-37887000D02*
X126159000Y-32587000D01*
X118509000Y-37887000D02*
X127509000Y-37887000D01*
X115389000Y-35237000D02*
X118509000Y-35237000D01*
X126259000Y-37887000D02*
X126259000Y-32587000D01*
X118509000Y-32587000D02*
X118509000Y-37887000D01*
X127509000Y-32587000D02*
X118509000Y-32587000D01*
X130629000Y-35237000D02*
X127509000Y-35237000D01*
X127509000Y-37887000D02*
X127509000Y-32587000D01*
X126059000Y-37887000D02*
X126059000Y-32587000D01*
%TO.C,D20*%
X105685000Y-37887000D02*
X105685000Y-32587000D01*
X97935000Y-37887000D02*
X106935000Y-37887000D01*
X97935000Y-32587000D02*
X97935000Y-37887000D01*
X106935000Y-37887000D02*
X106935000Y-32587000D01*
X110055000Y-35237000D02*
X106935000Y-35237000D01*
X105585000Y-37887000D02*
X105585000Y-32587000D01*
X106935000Y-32587000D02*
X97935000Y-32587000D01*
X105485000Y-37887000D02*
X105485000Y-32587000D01*
X94815000Y-35237000D02*
X97935000Y-35237000D01*
%TO.C,R29*%
X124500000Y-104280000D02*
X124500000Y-106820000D01*
X125300000Y-104280000D02*
G75*
G03*
X125300000Y-104280000I-800000J0D01*
G01*
%TO.C,C1*%
X53750000Y-31000000D02*
X53750000Y-36000000D01*
X61250000Y-36000000D02*
X61250000Y-31000000D01*
X53750000Y-36000000D02*
X61250000Y-36000000D01*
X61250000Y-31000000D02*
X53750000Y-31000000D01*
%TD*%
M02*
