<?xml version="1.0" encoding="iso-8859-1"?>
<!-- Generator: Adobe Illustrator 19.0.0, SVG Export Plug-In . SVG Version: 6.00 Build 0)  -->
<svg version="1.1" id="Layer_1" xmlns="http://www.w3.org/2000/svg" xmlns:xlink="http://www.w3.org/1999/xlink" x="0px" y="0px"
	 viewBox="0 0 512 512" style="enable-background:new 0 0 512 512;" xml:space="preserve">
<path style="fill:#73C470;" d="M470.141,0h-71.606c-4.269,0-7.732,3.462-7.732,7.732v11.806c0,7.309-5.945,13.255-13.255,13.255
	H158.446c-7.309,0-13.255-5.946-13.255-13.255V7.732c0-4.27-3.462-7.732-7.732-7.732h-95.6C18.778,0,0.001,18.778,0.001,41.859
	v428.282C0.001,493.223,18.778,512,41.859,512h95.6c4.27,0,7.732-3.462,7.732-7.732v-11.806c0-7.309,5.946-13.255,13.255-13.255
	h219.1c7.31,0,13.255,5.946,13.255,13.255v11.806c0,4.27,3.463,7.732,7.732,7.732h71.606c23.082,0,41.859-18.777,41.859-41.859
	V41.859C511.999,18.778,493.222,0,470.141,0z"/>
<g style="opacity:0.15;">
	<path style="fill:#231F20;" d="M17.675,470.141V41.859C17.675,18.778,36.452,0,59.533,0H41.859C18.778,0,0.001,18.778,0.001,41.859
		v428.282C0.001,493.223,18.778,512,41.859,512h17.674C36.452,512,17.675,493.223,17.675,470.141z"/>
</g>
<g>
	<path style="fill:#EBF25F;" d="M390.803,303.767c0,7.321-5.933,13.255-13.255,13.255H129.337c-7.321,0-13.255-5.934-13.255-13.255
		v-99.414c0-7.321,5.934-13.255,13.255-13.255h248.211c7.322,0,13.255,5.934,13.255,13.255L390.803,303.767L390.803,303.767z"/>
	<path style="fill:#EBF25F;" d="M303.149,116.698c7.321,0,13.255,5.935,13.255,13.255v248.212c0,7.32-5.934,13.255-13.255,13.255
		h-99.415c-7.32,0-13.255-5.935-13.255-13.255V129.953c0-7.32,5.935-13.255,13.255-13.255H303.149z"/>
</g>
<path style="fill:#547475;" d="M345.124,147.749H161.76c-9.151,0-16.569,7.419-16.569,16.569v183.364
	c0,9.151,7.419,16.569,16.569,16.569h183.364c9.151,0,16.569-7.419,16.569-16.569v-30.662V191.096v-26.778
	C361.693,155.168,354.275,147.749,345.124,147.749z M303.149,310.126H202.631V204.084h100.519V310.126z"/>
<path style="fill:#384949;" d="M328.555,317.858c0,7.32-5.934,13.255-13.255,13.255H191.584c-7.321,0-13.255-5.935-13.255-13.255
	V194.143c0-7.321,5.934-13.255,13.255-13.255H315.3c7.321,0,13.255,5.934,13.255,13.255V317.858z"/>
<path style="opacity:0.15;fill:#231F20;enable-background:new    ;" d="M196.004,317.858V194.143
	c0-7.321,5.935-13.255,13.255-13.255h-17.675c-7.321,0-13.255,5.934-13.255,13.255v123.715c0,7.32,5.934,13.255,13.255,13.255
	h17.675C201.939,331.114,196.004,325.178,196.004,317.858z"/>
<g>
	<circle style="fill:#DBDDDD;" cx="46.515" cy="45.311" r="16.201"/>
	<circle style="fill:#DBDDDD;" cx="466.684" cy="45.311" r="16.201"/>
	<circle style="fill:#DBDDDD;" cx="466.684" cy="467.203" r="16.201"/>
</g>
<g>
	<path style="fill:#547475;" d="M209.876,124.981c-4.575,0-8.285-3.709-8.285-8.285v-36.75c0-4.575,3.709-8.285,8.285-8.285
		c4.575,0,8.285,3.709,8.285,8.285v36.751C218.16,121.273,214.45,124.981,209.876,124.981z"/>
	<path style="fill:#547475;" d="M239.332,124.981c-4.576,0-8.285-3.709-8.285-8.285v-36.75c0-4.575,3.708-8.285,8.285-8.285
		c4.576,0,8.285,3.709,8.285,8.285v36.751C247.617,121.273,243.907,124.981,239.332,124.981z"/>
	<path style="fill:#547475;" d="M268.787,124.981c-4.576,0-8.285-3.709-8.285-8.285v-36.75c0-4.575,3.708-8.285,8.285-8.285
		c4.576,0,8.285,3.709,8.285,8.285v36.751C277.072,121.273,273.363,124.981,268.787,124.981z"/>
	<path style="fill:#547475;" d="M298.244,124.981c-4.575,0-8.285-3.709-8.285-8.285v-36.75c0-4.575,3.709-8.285,8.285-8.285
		s8.285,3.709,8.285,8.285v36.751C306.528,121.273,302.818,124.981,298.244,124.981z"/>
	<path style="fill:#547475;" d="M209.876,438.397c-4.575,0-8.285-3.709-8.285-8.285v-36.751c0-4.575,3.709-8.285,8.285-8.285
		c4.575,0,8.285,3.709,8.285,8.285v36.751C218.16,434.688,214.45,438.397,209.876,438.397z"/>
	<path style="fill:#547475;" d="M239.332,438.397c-4.576,0-8.285-3.709-8.285-8.285v-36.751c0-4.575,3.708-8.285,8.285-8.285
		c4.576,0,8.285,3.709,8.285,8.285v36.751C247.617,434.688,243.907,438.397,239.332,438.397z"/>
	<path style="fill:#547475;" d="M268.787,438.397c-4.576,0-8.285-3.709-8.285-8.285v-36.751c0-4.575,3.708-8.285,8.285-8.285
		c4.576,0,8.285,3.709,8.285,8.285v36.751C277.072,434.688,273.363,438.397,268.787,438.397z"/>
	<path style="fill:#547475;" d="M298.244,438.397c-4.575,0-8.285-3.709-8.285-8.285v-36.751c0-4.575,3.709-8.285,8.285-8.285
		s8.285,3.709,8.285,8.285v36.751C306.528,434.688,302.818,438.397,298.244,438.397z"/>
	<path style="fill:#547475;" d="M115.727,307.498h-36.75c-4.576,0-8.285-3.709-8.285-8.285c0-4.575,3.708-8.285,8.285-8.285h36.75
		c4.575,0,8.285,3.709,8.285,8.285C124.012,303.789,120.302,307.498,115.727,307.498z"/>
	<path style="fill:#547475;" d="M115.727,278.042h-36.75c-4.576,0-8.285-3.709-8.285-8.285s3.708-8.285,8.285-8.285h36.75
		c4.575,0,8.285,3.709,8.285,8.285C124.012,274.333,120.302,278.042,115.727,278.042z"/>
	<path style="fill:#547475;" d="M115.727,248.586h-36.75c-4.576,0-8.285-3.709-8.285-8.285c0-4.575,3.708-8.285,8.285-8.285h36.75
		c4.575,0,8.285,3.709,8.285,8.285C124.012,244.877,120.302,248.586,115.727,248.586z"/>
	<path style="fill:#547475;" d="M115.727,219.13h-36.75c-4.576,0-8.285-3.709-8.285-8.285c0-4.575,3.708-8.285,8.285-8.285h36.75
		c4.575,0,8.285,3.709,8.285,8.285C124.012,215.421,120.302,219.13,115.727,219.13z"/>
	<path style="fill:#547475;" d="M429.143,307.498h-36.75c-4.575,0-8.285-3.709-8.285-8.285c0-4.575,3.709-8.285,8.285-8.285h36.75
		c4.576,0,8.285,3.709,8.285,8.285C437.427,303.789,433.718,307.498,429.143,307.498z"/>
	<path style="fill:#547475;" d="M429.143,278.042h-36.75c-4.575,0-8.285-3.709-8.285-8.285s3.709-8.285,8.285-8.285h36.75
		c4.576,0,8.285,3.709,8.285,8.285S433.718,278.042,429.143,278.042z"/>
	<path style="fill:#547475;" d="M429.143,248.586h-36.75c-4.575,0-8.285-3.709-8.285-8.285c0-4.575,3.709-8.285,8.285-8.285h36.75
		c4.576,0,8.285,3.709,8.285,8.285C437.427,244.877,433.718,248.586,429.143,248.586z"/>
	<path style="fill:#547475;" d="M429.143,219.13h-36.75c-4.575,0-8.285-3.709-8.285-8.285c0-4.575,3.709-8.285,8.285-8.285h36.75
		c4.576,0,8.285,3.709,8.285,8.285C437.427,215.421,433.718,219.13,429.143,219.13z"/>
</g>
<g>
	
		<line style="fill:none;stroke:#231F20;stroke-width:15;stroke-linecap:round;stroke-linejoin:round;stroke-miterlimit:10;" x1="209.245" y1="210.869" x2="298.872" y2="210.869"/>
	
		<line style="fill:none;stroke:#231F20;stroke-width:15;stroke-linecap:round;stroke-linejoin:round;stroke-miterlimit:10;" x1="209.245" y1="301.258" x2="298.872" y2="301.258"/>
	
		<line style="fill:none;stroke:#231F20;stroke-width:15;stroke-linecap:round;stroke-linejoin:round;stroke-miterlimit:10;" x1="209.245" y1="271.125" x2="298.872" y2="271.125"/>
	
		<line style="fill:none;stroke:#231F20;stroke-width:15;stroke-linecap:round;stroke-linejoin:round;stroke-miterlimit:10;" x1="209.245" y1="241.002" x2="298.872" y2="241.002"/>
</g>
<g>
	<path style="fill:#AAEAA4;" d="M41.963,362.558c-4.575,0-8.297-3.709-8.297-8.285s3.698-8.285,8.272-8.285h0.023
		c4.575,0,8.285,3.709,8.285,8.285C50.247,358.849,46.538,362.558,41.963,362.558z"/>
	<path style="fill:#AAEAA4;" d="M41.963,452.942c-4.575,0-8.297-3.709-8.297-8.285c0-4.575,3.698-8.285,8.272-8.285h0.023
		c4.575,0,8.285,3.709,8.285,8.285C50.247,449.233,46.538,452.942,41.963,452.942z"/>
	<path style="fill:#AAEAA4;" d="M41.963,422.814c-4.575,0-8.297-3.709-8.297-8.285s3.698-8.285,8.272-8.285h0.023
		c4.575,0,8.285,3.709,8.285,8.285C50.247,419.105,46.538,422.814,41.963,422.814z"/>
	<path style="fill:#AAEAA4;" d="M41.963,392.686c-4.575,0-8.297-3.709-8.297-8.285c0-4.575,3.698-8.285,8.272-8.285h0.023
		c4.575,0,8.285,3.709,8.285,8.285C50.247,388.977,46.538,392.686,41.963,392.686z"/>
	<path style="fill:#AAEAA4;" d="M41.963,103.331c-4.575,0-8.297-3.709-8.297-8.285s3.698-8.285,8.272-8.285h0.023
		c4.575,0,8.285,3.709,8.285,8.285C50.247,99.622,46.538,103.331,41.963,103.331z"/>
	<path style="fill:#AAEAA4;" d="M41.963,193.715c-4.575,0-8.297-3.709-8.297-8.285c0-4.575,3.698-8.285,8.272-8.285h0.023
		c4.575,0,8.285,3.709,8.285,8.285C50.247,190.006,46.538,193.715,41.963,193.715z"/>
	<path style="fill:#AAEAA4;" d="M41.963,163.587c-4.575,0-8.297-3.709-8.297-8.285c0-4.575,3.698-8.285,8.272-8.285h0.023
		c4.575,0,8.285,3.709,8.285,8.285C50.247,159.878,46.538,163.587,41.963,163.587z"/>
	<path style="fill:#AAEAA4;" d="M41.963,133.459c-4.575,0-8.297-3.709-8.297-8.285c0-4.575,3.698-8.285,8.272-8.285h0.023
		c4.575,0,8.285,3.709,8.285,8.285C50.246,129.75,46.538,133.459,41.963,133.459z"/>
	<path style="fill:#AAEAA4;" d="M74.251,481.619c-4.576,0-8.285-3.697-8.285-8.272v-0.024c0-4.575,3.708-8.285,8.285-8.285
		s8.285,3.709,8.285,8.285C82.536,477.898,78.828,481.619,74.251,481.619z"/>
	<path style="fill:#AAEAA4;" d="M104.379,481.619c-4.575,0-8.285-3.697-8.285-8.272v-0.024c0-4.575,3.709-8.285,8.285-8.285
		s8.285,3.709,8.285,8.285C112.664,477.898,108.954,481.619,104.379,481.619z"/>
</g>
<path style="fill:#EBF25F;" d="M511.999,164.318h-15.854c-7.321,0-13.255,5.934-13.255,13.255v156.854
	c0,7.32,5.934,13.255,13.255,13.255h15.854V164.318z"/>
<g>
</g>
<g>
</g>
<g>
</g>
<g>
</g>
<g>
</g>
<g>
</g>
<g>
</g>
<g>
</g>
<g>
</g>
<g>
</g>
<g>
</g>
<g>
</g>
<g>
</g>
<g>
</g>
<g>
</g>
</svg>
