<?xml version="1.0" encoding="iso-8859-1"?>
<!-- Generator: Adobe Illustrator 19.0.0, SVG Export Plug-In . SVG Version: 6.00 Build 0)  -->
<svg version="1.1" id="Layer_1" xmlns="http://www.w3.org/2000/svg" xmlns:xlink="http://www.w3.org/1999/xlink" x="0px" y="0px"
	 viewBox="0 0 509.287 509.287" style="enable-background:new 0 0 509.287 509.287;" xml:space="preserve">
<circle style="fill:#F0582F;" cx="254.644" cy="254.644" r="254.644"/>
<path style="fill:#646B79;" d="M369.25,120.371H140.037c-10.85,0-19.666,8.816-19.666,19.666V369.25
	c0,10.85,8.816,19.666,19.666,19.666H369.25c10.85,0,19.666-8.816,19.666-19.666V140.037
	C388.917,129.187,380.101,120.371,369.25,120.371z"/>
<path style="fill:#4F5565;" d="M331.952,164.111H177.335c-7.46,0-13.224,6.103-13.224,13.224v154.278
	c0,7.46,6.103,13.224,13.224,13.224h154.278c7.46,0,13.224-6.103,13.224-13.224V177.335
	C345.176,170.215,339.073,164.111,331.952,164.111z"/>
<g>
	<rect x="40.011" y="164.111" style="fill:#F1F3F7;" width="80.36" height="22.718"/>
	<rect x="40.011" y="217.007" style="fill:#F1F3F7;" width="80.36" height="22.718"/>
	<rect x="40.011" y="269.563" style="fill:#F1F3F7;" width="80.36" height="22.718"/>
	<rect x="40.011" y="322.458" style="fill:#F1F3F7;" width="80.36" height="22.718"/>
	<rect x="388.917" y="164.111" style="fill:#F1F3F7;" width="80.36" height="22.718"/>
	<rect x="388.917" y="217.007" style="fill:#F1F3F7;" width="80.36" height="22.718"/>
	<rect x="388.917" y="269.563" style="fill:#F1F3F7;" width="80.36" height="22.718"/>
	<rect x="388.917" y="322.458" style="fill:#F1F3F7;" width="80.36" height="22.718"/>
	<rect x="164.111" y="388.917" style="fill:#F1F3F7;" width="22.718" height="80.36"/>
	<rect x="217.007" y="388.917" style="fill:#F1F3F7;" width="22.718" height="80.36"/>
	<rect x="269.563" y="388.917" style="fill:#F1F3F7;" width="22.718" height="80.36"/>
	<rect x="322.458" y="388.917" style="fill:#F1F3F7;" width="22.718" height="80.36"/>
	<rect x="164.111" y="40.011" style="fill:#F1F3F7;" width="22.718" height="80.36"/>
	<rect x="217.007" y="40.011" style="fill:#F1F3F7;" width="22.718" height="80.36"/>
	<rect x="269.563" y="40.011" style="fill:#F1F3F7;" width="22.718" height="80.36"/>
	<rect x="322.458" y="40.011" style="fill:#F1F3F7;" width="22.718" height="80.36"/>
</g>
<g>
</g>
<g>
</g>
<g>
</g>
<g>
</g>
<g>
</g>
<g>
</g>
<g>
</g>
<g>
</g>
<g>
</g>
<g>
</g>
<g>
</g>
<g>
</g>
<g>
</g>
<g>
</g>
<g>
</g>
</svg>
