<?xml version="1.0" encoding="iso-8859-1"?>
<!-- Generator: Adobe Illustrator 19.0.0, SVG Export Plug-In . SVG Version: 6.00 Build 0)  -->
<svg version="1.1" id="Layer_1" xmlns="http://www.w3.org/2000/svg" xmlns:xlink="http://www.w3.org/1999/xlink" x="0px" y="0px"
	 viewBox="0 0 511.987 511.987" style="enable-background:new 0 0 511.987 511.987;" xml:space="preserve">
<path style="fill:#646C77;" d="M32,218.661H10.664C4.774,218.661,0,223.443,0,229.333s4.773,10.672,10.664,10.672h21.335
	c5.891,0,10.664-4.781,10.664-10.672S37.89,218.661,32,218.661z"/>
<path style="fill:#424953;" d="M74.663,186.671H32c-5.89,0-10.664,4.773-10.664,10.664v63.998c0,5.891,4.773,10.664,10.664,10.664
	h42.663c5.89,0,10.671-4.773,10.671-10.664v-63.998C85.334,191.443,80.553,186.671,74.663,186.671z"/>
<path style="fill:#E5E8EC;" d="M501.331,122.673c-5.906,0-10.688,4.773-10.688,10.664v85.326h-31.999
	c-5.875,0-10.656,4.781-10.656,10.671s4.781,10.672,10.656,10.672h42.687c5.875,0,10.656-4.781,10.656-10.672v-95.997
	C511.987,127.447,507.206,122.673,501.331,122.673z"/>
<path style="fill:#F5BA45;" d="M106.662,165.335c-17.671,0-31.999,14.328-31.999,31.999v277.312c0,17.688,14.328,32,31.999,32
	s31.999-14.312,31.999-32V197.335C138.661,179.663,124.333,165.335,106.662,165.335z"/>
<path style="fill:#FECD57;" d="M170.661,165.335c-17.671,0-32,14.328-32,31.999v277.312c0,17.688,14.328,32,32,32
	s31.999-14.312,31.999-32V197.335C202.659,179.663,188.332,165.335,170.661,165.335z"/>
<path style="fill:#F5BA45;" d="M234.659,165.335c-17.671,0-32,14.328-32,31.999v277.312c0,17.688,14.328,32,32,32s32-14.312,32-32
	V197.335C266.658,179.663,252.33,165.335,234.659,165.335z"/>
<path style="fill:#FECD57;" d="M298.649,165.335c-17.656,0-31.991,14.328-31.991,31.999v277.312c0,17.688,14.335,32,31.991,32
	c17.687,0,31.999-14.312,31.999-32V197.335C330.648,179.663,316.336,165.335,298.649,165.335z"/>
<path style="fill:#F5BA45;" d="M362.647,165.335c-17.655,0-31.999,14.328-31.999,31.999v277.312c0,17.688,14.344,32,31.999,32
	c17.687,0,31.998-14.312,31.998-32V197.335C394.645,179.663,380.334,165.335,362.647,165.335z"/>
<path style="fill:#FECD57;" d="M426.645,165.335c-17.656,0-32,14.328-32,31.999v277.312c0,17.688,14.344,32,32,32
	c17.688,0,31.999-14.312,31.999-32V197.335C458.644,179.663,444.333,165.335,426.645,165.335z"/>
<g>
	<path style="fill:#E5E8EC;" d="M360.305,115.978c-0.344-0.422-8.281-10.461-0.75-18.023c16.748-16.82,7.78-37.46,0.688-46.053
		l-0.031-0.016v-0.016l0,0c-1.969-2.359-4.906-3.859-8.219-3.859c-5.891,0-10.656,4.773-10.656,10.664
		c0,2.586,0.906,4.961,2.438,6.805l0,0c0.031,0.031,2.281,2.938,3.375,6.656c1.266,4.359,0.469,7.578-2.719,10.766
		c-16.688,16.765-7.781,37.726-0.75,46.468v-0.008c1.969,2.429,4.969,3.976,8.312,3.976c5.891,0,10.655-4.773,10.655-10.664
		C362.647,120.133,361.773,117.813,360.305,115.978L360.305,115.978z"/>
	<path style="fill:#E5E8EC;" d="M285.149,30.682c-3.188-11.945-9.312-20.226-9.999-21.132v0.008
		c-1.969-2.562-5.023-4.218-8.492-4.218c-5.891,0-10.664,4.781-10.664,10.671c0,2.406,0.805,4.617,2.156,6.406h-0.008
		c0.039,0.062,4.484,6.102,6.539,14.32c2.453,9.836,0.484,18.187-6.008,25.538c-11.398,12.882-15.031,28.694-10.5,45.717
		c3.18,11.945,9.312,20.234,10,21.141l0.008-0.008c1.945,2.554,5.016,4.21,8.477,4.21c5.898,0,10.68-4.773,10.68-10.664
		c0-2.43-0.828-4.656-2.188-6.453v-0.008c-0.031-0.055-4.273-5.844-6.359-13.695c-2.68-10.078-0.766-18.616,5.859-26.108
		C286.056,63.517,289.681,47.706,285.149,30.682z"/>
	<path style="fill:#E5E8EC;" d="M189.566,51.902c0,0-0.008-0.016-0.016-0.016l-0.008-0.016l0,0
		c-1.961-2.359-4.914-3.859-8.211-3.859c-5.89,0-10.671,4.773-10.671,10.664c0,2.586,0.922,4.961,2.461,6.805h-0.008
		c0.023,0.031,2.273,2.938,3.367,6.656c1.273,4.359,0.461,7.578-2.71,10.766c-16.703,16.765-7.789,37.726-0.742,46.468v-0.008
		c1.953,2.429,4.945,3.976,8.304,3.976c5.891,0,10.664-4.773,10.664-10.664c0-2.539-0.891-4.859-2.367-6.695h0.008
		c-0.344-0.422-8.281-10.461-0.75-18.023C205.643,81.134,196.675,60.494,189.566,51.902z"/>
</g>
<g>
</g>
<g>
</g>
<g>
</g>
<g>
</g>
<g>
</g>
<g>
</g>
<g>
</g>
<g>
</g>
<g>
</g>
<g>
</g>
<g>
</g>
<g>
</g>
<g>
</g>
<g>
</g>
<g>
</g>
</svg>
