<?xml version="1.0" encoding="iso-8859-1"?>
<!-- Generator: Adobe Illustrator 19.0.0, SVG Export Plug-In . SVG Version: 6.00 Build 0)  -->
<svg version="1.1" id="Layer_1" xmlns="http://www.w3.org/2000/svg" xmlns:xlink="http://www.w3.org/1999/xlink" x="0px" y="0px"
	 viewBox="0 0 496 496" style="enable-background:new 0 0 496 496;" xml:space="preserve">
<g>
	<g>
		<path d="M360,144c-17.336,0-34.6,3.632-50.52,10.472C303.904,139.088,289.288,128,272,128h-56V96h-32V64h128V0H8v64h128v32h-32v32
			H48c-22.056,0-40,17.944-40,40v288c0,22.056,17.944,40,40,40h224c22.056,0,40-17.944,40-40v-65.432
			c15.224,6.16,31.576,9.432,48,9.432c70.576,0,128-57.424,128-128S430.576,144,360,144z M24,48V16h16v16h16V16h16v16h16V16h16v16
			h16V16h16v16h16V16h16v16h16V16h16v16h16V16h16v16h16V16h16v16h16V16h16v32H24z M168,64v32h-16V64H168z M120,112h80v16h-80V112z
			 M96,440H56v16h40v24H48c-13.232,0-24-10.768-24-24v-40h72V440z M208,480h-96v-64h96V480z M296,456c0,13.232-10.768,24-24,24h-48
			v-24h40v-16h-40v-24h72V456z M296,400H24V168c0-13.232,10.768-24,24-24h224c13.232,0,24,10.768,24,24V400z M360,384
			c-16.816,0-32.904-3.832-48-11.04v-58.768c2.824,3.208,5.96,6.12,9.368,8.72l-8.304,14.376l13.856,8l8.256-14.296
			c5.28,2.232,10.936,3.72,16.816,4.456V352h16v-16.552c5.88-0.736,11.536-2.224,16.816-4.456l8.256,14.296l13.856-8l-8.304-14.376
			c4.632-3.52,8.752-7.648,12.28-12.28l14.376,8.304l8-13.856l-14.296-8.256c2.232-5.28,3.72-10.936,4.456-16.816H440v-16h-16.56
			c-0.736-5.888-2.224-11.536-4.456-16.816l14.296-8.256l-8-13.856l-14.376,8.304c-3.52-4.632-7.648-8.752-12.28-12.28l8.304-14.376
			l-13.856-8l-8.256,14.296c-5.28-2.232-10.936-3.72-16.816-4.456V192h-16v16.552c-5.888,0.736-11.536,2.224-16.816,4.456
			l-8.256-14.296l-13.856,8l8.304,14.376c-3.408,2.592-6.544,5.504-9.368,8.72v-58.776c15.08-7.2,31.168-11.032,48-11.032
			c61.76,0,112,50.24,112,112S421.76,384,360,384z M312,272c0-26.472,21.528-48,48-48s48,21.528,48,48s-21.528,48-48,48
			S312,298.472,312,272z"/>
	</g>
</g>
<g>
</g>
<g>
</g>
<g>
</g>
<g>
</g>
<g>
</g>
<g>
</g>
<g>
</g>
<g>
</g>
<g>
</g>
<g>
</g>
<g>
</g>
<g>
</g>
<g>
</g>
<g>
</g>
<g>
</g>
</svg>
