<?xml version="1.0" encoding="iso-8859-1"?>
<!-- Generator: Adobe Illustrator 19.0.0, SVG Export Plug-In . SVG Version: 6.00 Build 0)  -->
<svg version="1.1" id="Layer_1" xmlns="http://www.w3.org/2000/svg" xmlns:xlink="http://www.w3.org/1999/xlink" x="0px" y="0px"
	 viewBox="0 0 512 512" style="enable-background:new 0 0 512 512;" xml:space="preserve">
<g transform="translate(1 1)">
	<g>
		<polygon style="fill:#FFDD09;" points="148.333,41.667 233.667,41.667 233.667,7.533 148.333,7.533 		"/>
		<path style="fill:#FFDD09;" d="M225.133,434.2h-17.067c-5.12,0-8.533-3.413-8.533-8.533s3.413-8.533,8.533-8.533h17.067
			c5.12,0,8.533,3.413,8.533,8.533S230.253,434.2,225.133,434.2z"/>
		<path style="fill:#FFDD09;" d="M208.067,434.2c-18.773,0-34.133-15.36-34.133-34.133v-204.8c0-14.507-11.093-25.6-25.6-25.6
			c-14.507,0-25.6,11.093-25.6,25.6V306.2c0,26.453-12.8,42.667-34.133,42.667c-5.12,0-8.533-3.413-8.533-8.533
			c0-5.12,3.413-8.533,8.533-8.533c4.267,0,17.067,0,17.067-25.6V195.267c0-23.893,18.773-42.667,42.667-42.667
			S191,171.373,191,195.267v204.8c0,9.387,7.68,17.067,17.067,17.067c5.12,0,8.533,3.413,8.533,8.533S213.187,434.2,208.067,434.2z"
			/>
		<path style="fill:#FFDD09;" d="M45.933,348.867h-25.6c-5.12,0-8.533-3.413-8.533-8.533c0-5.12,3.413-8.533,8.533-8.533h25.6
			c5.12,0,8.533,3.413,8.533,8.533C54.467,345.453,51.053,348.867,45.933,348.867z"/>
		<path style="fill:#FFDD09;" d="M404.333,41.667h-51.2c-5.12,0-8.533-3.413-8.533-8.533s3.413-8.533,8.533-8.533h51.2
			c5.12,0,8.533,3.413,8.533,8.533S409.453,41.667,404.333,41.667z"/>
		<path style="fill:#FFDD09;" d="M284.867,41.667h-51.2c-5.12,0-8.533-3.413-8.533-8.533s3.413-8.533,8.533-8.533h51.2
			c5.12,0,8.533,3.413,8.533,8.533S289.987,41.667,284.867,41.667z"/>
		<polygon style="fill:#FFDD09;" points="412.867,502.467 225.133,502.467 284.867,468.333 353.133,468.333 		"/>
	</g>
	<polygon style="fill:#FD9808;" points="353.133,468.333 327.533,468.333 387.267,502.467 412.867,502.467 	"/>
	<polygon style="fill:#FFDD09;" points="284.867,468.333 353.133,468.333 353.133,127 284.867,127 	"/>
	<polygon style="fill:#FD9808;" points="327.533,468.333 353.133,468.333 353.133,127 327.533,127 	"/>
	<polygon style="fill:#FFDD09;" points="267.8,127 370.2,127 370.2,92.867 267.8,92.867 	"/>
	<polygon style="fill:#FD9808;" points="344.6,127 370.2,127 370.2,92.867 344.6,92.867 	"/>
	<g>
		<polygon style="fill:#FFDD09;" points="301.933,92.867 336.067,92.867 336.067,41.667 301.933,41.667 		"/>
		<polygon style="fill:#FFDD09;" points="284.867,41.667 353.133,41.667 353.133,7.533 284.867,7.533 		"/>
		<polygon style="fill:#FFDD09;" points="404.333,41.667 489.667,41.667 489.667,7.533 404.333,7.533 		"/>
	</g>
	<polygon style="fill:#FD9808;" points="464.067,41.667 489.667,41.667 489.667,7.533 464.067,7.533 	"/>
	<polygon style="fill:#FFFFFF;" points="148.333,41.667 173.933,41.667 173.933,7.533 148.333,7.533 	"/>
	<g>
		<polygon style="fill:#FFDD09;" points="233.667,434.2 284.867,434.2 284.867,400.067 233.667,400.067 		"/>
		<polygon style="fill:#FFDD09;" points="54.467,348.867 97.133,348.867 97.133,314.733 54.467,314.733 		"/>
	</g>
	<path d="M412.867,511H225.133c-4.267,0-7.68-2.56-8.533-5.973c-0.853-3.413,0.853-7.68,4.267-9.387l59.733-34.133
		c1.707-1.707,2.56-1.707,4.267-1.707h68.267c1.707,0,2.56,0,4.267,0.853l59.733,34.133c3.413,1.707,5.12,5.973,4.267,9.387
		C420.547,507.587,417.133,511,412.867,511z M257.56,493.933h123.733l-29.867-17.067h-64L257.56,493.933z"/>
	<path d="M353.133,476.867h-68.267c-5.12,0-8.533-3.413-8.533-8.533V127c0-5.12,3.413-8.533,8.533-8.533h68.267
		c5.12,0,8.533,3.413,8.533,8.533v341.333C361.667,473.453,358.253,476.867,353.133,476.867z M293.4,459.8h51.2V135.533h-51.2V459.8
		z"/>
	<path d="M370.2,135.533H267.8c-5.12,0-8.533-3.413-8.533-8.533V92.867c0-5.12,3.413-8.533,8.533-8.533h102.4
		c5.12,0,8.533,3.413,8.533,8.533V127C378.733,132.12,375.32,135.533,370.2,135.533z M276.333,118.467h85.333V101.4h-85.333V118.467
		z"/>
	<path d="M336.067,101.4h-34.133c-5.12,0-8.533-3.413-8.533-8.533v-51.2c0-5.12,3.413-8.533,8.533-8.533h34.133
		c5.12,0,8.533,3.413,8.533,8.533v51.2C344.6,97.987,341.187,101.4,336.067,101.4z M310.467,84.333h17.067V50.2h-17.067V84.333z"/>
	<path d="M353.133,50.2h-68.267c-5.12,0-8.533-3.413-8.533-8.533V7.533c0-5.12,3.413-8.533,8.533-8.533h68.267
		c5.12,0,8.533,3.413,8.533,8.533v34.133C361.667,46.787,358.253,50.2,353.133,50.2z M293.4,33.133h51.2V16.067h-51.2V33.133z"/>
	<path d="M489.667,50.2h-85.333c-5.12,0-8.533-3.413-8.533-8.533V7.533c0-5.12,3.413-8.533,8.533-8.533h85.333
		c5.12,0,8.533,3.413,8.533,8.533v34.133C498.2,46.787,494.787,50.2,489.667,50.2z M412.867,33.133h68.267V16.067h-68.267V33.133z"
		/>
	<path d="M233.667,50.2h-85.333c-5.12,0-8.533-3.413-8.533-8.533V7.533c0-5.12,3.413-8.533,8.533-8.533h85.333
		c5.12,0,8.533,3.413,8.533,8.533v34.133C242.2,46.787,238.787,50.2,233.667,50.2z M156.867,33.133h68.267V16.067h-68.267V33.133z"
		/>
	<path d="M404.333,33.133h-51.2c-5.12,0-8.533-3.413-8.533-8.533s3.413-8.533,8.533-8.533h51.2c5.12,0,8.533,3.413,8.533,8.533
		S409.453,33.133,404.333,33.133z"/>
	<path d="M284.867,33.133h-51.2c-5.12,0-8.533-3.413-8.533-8.533s3.413-8.533,8.533-8.533h51.2c5.12,0,8.533,3.413,8.533,8.533
		S289.987,33.133,284.867,33.133z"/>
	<path d="M233.667,425.667H216.6c-5.12,0-8.533-3.413-8.533-8.533s3.413-8.533,8.533-8.533h17.067c5.12,0,8.533,3.413,8.533,8.533
		S238.787,425.667,233.667,425.667z"/>
	<path d="M284.867,442.733h-51.2c-5.12,0-8.533-3.413-8.533-8.533v-34.133c0-5.12,3.413-8.533,8.533-8.533h51.2
		c5.12,0,8.533,3.413,8.533,8.533V434.2C293.4,439.32,289.987,442.733,284.867,442.733z M242.2,425.667h34.133V408.6H242.2V425.667z
		"/>
	<path d="M216.6,425.667c-18.773,0-34.133-15.36-34.133-34.133v-204.8c0-14.507-11.093-25.6-25.6-25.6
		c-14.507,0-25.6,11.093-25.6,25.6v110.933c0,26.453-12.8,42.667-34.133,42.667c-5.12,0-8.533-3.413-8.533-8.533
		s3.413-8.533,8.533-8.533c4.267,0,17.067,0,17.067-25.6V186.733c0-23.893,18.773-42.667,42.667-42.667s42.667,18.773,42.667,42.667
		v204.8c0,9.387,7.68,17.067,17.067,17.067c5.12,0,8.533,3.413,8.533,8.533S221.72,425.667,216.6,425.667z"/>
	<path d="M97.133,357.4H54.467c-5.12,0-8.533-3.413-8.533-8.533v-34.133c0-5.12,3.413-8.533,8.533-8.533h42.667
		c5.12,0,8.533,3.413,8.533,8.533v34.133C105.667,353.987,102.253,357.4,97.133,357.4z M63,340.333h25.6v-17.067H63V340.333z"/>
	<path d="M54.467,340.333H20.333c-5.12,0-8.533-3.413-8.533-8.533s3.413-8.533,8.533-8.533h34.133c5.12,0,8.533,3.413,8.533,8.533
		S59.587,340.333,54.467,340.333z"/>
</g>
<g>
</g>
<g>
</g>
<g>
</g>
<g>
</g>
<g>
</g>
<g>
</g>
<g>
</g>
<g>
</g>
<g>
</g>
<g>
</g>
<g>
</g>
<g>
</g>
<g>
</g>
<g>
</g>
<g>
</g>
</svg>
