<?xml version="1.0" encoding="iso-8859-1"?>
<!-- Generator: Adobe Illustrator 19.0.0, SVG Export Plug-In . SVG Version: 6.00 Build 0)  -->
<svg version="1.1" id="Layer_1" xmlns="http://www.w3.org/2000/svg" xmlns:xlink="http://www.w3.org/1999/xlink" x="0px" y="0px"
	 viewBox="0 0 512 512" style="enable-background:new 0 0 512 512;" xml:space="preserve">
<g>
	<path style="fill:#8BD8F7;" d="M326.67,349.824v8.084h-44.841v-64.72h-66.406v64.72h-45.379v-8.084
		c0-7.459-6.047-13.506-13.506-13.506h-36.494v28.228v53.126v28.671h36.494c7.459,0,13.506-6.045,13.506-13.506v-8.522h94.34h29.264
		h33.023v8.522c0,7.461,6.045,13.506,13.506,13.506h38.93v-28.671v-53.126v-28.228h-38.93
		C332.716,336.317,326.67,342.365,326.67,349.824z"/>
	<path style="fill:#8BD8F7;" d="M62.116,424.313v8.522c0,7.461,6.047,13.506,13.506,13.506h36.494v-28.671v-53.126v-28.228H75.622
		c-7.459,0-13.506,6.047-13.506,13.506v8.084H39.59H13.506C6.047,357.907,0,363.955,0,371.414v39.394
		c0,7.459,6.047,13.506,13.506,13.506H39.59L62.116,424.313L62.116,424.313z"/>
</g>
<path style="fill:#57BEDD;" d="M22.06,411.026v-39.394c0-7.459,6.047-13.506,13.506-13.506h-22.06
	C6.047,358.127,0,364.174,0,371.633v39.394c0,7.459,6.047,13.506,13.506,13.506h22.06C28.108,424.533,22.06,418.485,22.06,411.026z"
	/>
<rect x="243.036" y="129.503" style="fill:#ADABA6;" width="31.684" height="66.778"/>
<path style="fill:#8BD8F7;" d="M498.494,365.285h-10.116h-39.031v-8.084c0-7.459-1.545-13.506-9.004-13.506h-35.184v28.228v53.126
	v28.671h35.184c7.459,0,9.004-6.045,9.004-13.506v-8.522h39.031h10.116c7.46,0,13.506-6.047,13.506-13.506v-39.394
	C512,371.332,505.954,365.285,498.494,365.285z"/>
<g>
	<path style="fill:#36A1CB;" d="M396.68,326.156h-3.467c-7.791,0-14.106,6.315-14.106,14.106v31.662v53.126v31.662
		c0,7.791,6.315,14.106,14.106,14.106h3.467c7.791,0,14.106-6.315,14.106-14.106v-31.662v-53.126v-31.662
		C410.787,332.471,404.47,326.156,396.68,326.156z"/>
	<path style="fill:#36A1CB;" d="M122.936,326.156h-3.467c-7.791,0-14.106,6.315-14.106,14.106v31.662v53.126v31.662
		c0,7.791,6.315,14.106,14.106,14.106h3.467c7.791,0,14.106-6.315,14.106-14.106v-31.662v-53.126v-31.662
		C137.042,332.471,130.726,326.156,122.936,326.156z"/>
</g>
<path style="fill:#CCC3A8;" d="M312.148,107.371c0-7.459-6.046-13.506-13.506-13.506h-79.537c-7.459,0-13.506,6.047-13.506,13.506
	v24.809c0,7.459,6.047,13.506,13.506,13.506h79.537c7.46,0,13.506-6.047,13.506-13.506V107.371z"/>
<path style="fill:#C9B585;" d="M227.922,132.18v-24.809c0-7.459,6.046-13.506,13.506-13.506h-22.324
	c-7.459,0-13.506,6.047-13.506,13.506v24.809c0,7.459,6.047,13.506,13.506,13.506h22.324
	C233.968,145.686,227.922,139.639,227.922,132.18z"/>
<path style="fill:#E35F46;" d="M352.974,107.349c0,7.459-6.047,13.506-13.506,13.506H177.739c-7.459,0-13.506-6.047-13.506-13.506
	V54.687c0-7.459,6.047-13.506,13.506-13.506h161.728c7.459,0,13.506,6.047,13.506,13.506V107.349z"/>
<path style="fill:#D8422E;" d="M186.554,107.349V54.687c0-7.459,6.047-13.506,13.506-13.506h-22.322
	c-7.459,0-13.506,6.047-13.506,13.506v52.66c0,7.459,6.047,13.506,13.506,13.506h22.322
	C192.602,120.855,186.554,114.806,186.554,107.349z"/>
<g>
	<path style="fill:#C12F1B;" d="M197.001,112.811c-4.662,0-8.441-3.778-8.441-8.441V57.848c0-4.663,3.78-8.441,8.441-8.441
		s8.441,3.778,8.441,8.441v46.522C205.443,109.032,201.663,112.811,197.001,112.811z"/>
	<path style="fill:#C12F1B;" d="M228.197,112.811c-4.663,0-8.441-3.778-8.441-8.441V57.848c0-4.663,3.778-8.441,8.441-8.441
		c4.662,0,8.441,3.778,8.441,8.441v46.522C236.638,109.032,232.859,112.811,228.197,112.811z"/>
	<path style="fill:#C12F1B;" d="M259.391,112.811c-4.663,0-8.441-3.778-8.441-8.441V57.848c0-4.663,3.778-8.441,8.441-8.441
		c4.663,0,8.441,3.778,8.441,8.441v46.522C267.832,109.032,264.054,112.811,259.391,112.811z"/>
	<path style="fill:#C12F1B;" d="M290.585,112.811c-4.662,0-8.441-3.778-8.441-8.441V57.848c0-4.663,3.78-8.441,8.441-8.441
		c4.663,0,8.441,3.778,8.441,8.441v46.522C299.026,109.032,295.247,112.811,290.585,112.811z"/>
	<path style="fill:#C12F1B;" d="M321.78,112.811c-4.662,0-8.441-3.778-8.441-8.441V57.848c0-4.663,3.78-8.441,8.441-8.441
		c4.662,0,8.441,3.778,8.441,8.441v46.522C330.221,109.032,326.441,112.811,321.78,112.811z"/>
</g>
<path style="fill:#57BEDD;" d="M237.975,339.23v-46.043h-22.999v64.72h1.194C220.869,357.795,237.975,356.222,237.975,339.23z"/>
<path style="fill:#52C6EB;" d="M203.589,191.394v15.84v72.989v15.84c0,7.459,6.047,13.506,13.506,13.506h83.015
	c7.459,0,13.506-6.047,13.506-13.506v-15.84v-72.989v-15.84H203.589z"/>
<path style="fill:#57BEDD;" d="M225.913,296.063v-15.84v-72.989v-15.84h-22.324v15.84v72.989v15.84
	c0,7.459,6.047,13.506,13.506,13.506h22.324C231.96,309.569,225.913,303.522,225.913,296.063z"/>
<path style="fill:#36A1CB;" d="M317.098,175.554h-31.663h-53.125h-31.665c-7.791,0-14.106,6.315-14.106,14.106v3.467
	c0,7.791,6.315,14.106,14.106,14.106h31.665h30.502h29.376h24.911c7.791,0,14.106-6.315,14.106-14.106v-3.467
	C331.205,181.87,324.889,175.554,317.098,175.554z"/>
<path style="fill:#2393B5;" d="M208.862,193.127v-3.467c0-7.791,6.315-14.106,14.106-14.106h-22.324
	c-7.791,0-14.106,6.315-14.106,14.106v3.467c0,7.791,6.315,14.106,14.106,14.106h22.324
	C215.179,207.235,208.862,200.918,208.862,193.127z"/>
<g>
	<path style="fill:#57BEDD;" d="M349.221,351.138v-1.315c0-7.459,6.045-13.506,13.506-13.506H339.73
		c-7.461,0-13.506,6.047-13.506,13.506v8.084h14.258C347.745,357.907,349.035,353.428,349.221,351.138z"/>
	<path style="fill:#57BEDD;" d="M349.221,432.836v-1.687c0,0-0.111-6.835-9.116-6.835h-13.882v8.522
		c0,7.461,6.045,13.506,13.506,13.506h22.999C355.268,446.342,349.221,440.297,349.221,432.836z"/>
	<path style="fill:#57BEDD;" d="M85.114,351.138v-1.315c0-7.459,6.045-13.506,13.506-13.506H75.622
		c-7.461,0-13.506,6.047-13.506,13.506v8.084h14.258C83.637,357.907,84.927,353.428,85.114,351.138z"/>
	<path style="fill:#57BEDD;" d="M85.114,432.836v-1.687c0,0-0.111-6.835-9.116-6.835H62.116v8.522
		c0,7.461,6.045,13.506,13.506,13.506h22.999C91.159,446.342,85.114,440.297,85.114,432.836z"/>
</g>
<g>
</g>
<g>
</g>
<g>
</g>
<g>
</g>
<g>
</g>
<g>
</g>
<g>
</g>
<g>
</g>
<g>
</g>
<g>
</g>
<g>
</g>
<g>
</g>
<g>
</g>
<g>
</g>
<g>
</g>
</svg>
