G04 #@! TF.GenerationSoftware,KiCad,Pcbnew,(5.1.4)-1*
G04 #@! TF.CreationDate,2020-08-13T18:30:19+03:00*
G04 #@! TF.ProjectId,4_switch_array,345f7377-6974-4636-985f-61727261792e,rev?*
G04 #@! TF.SameCoordinates,Original*
G04 #@! TF.FileFunction,Copper,L2,Bot*
G04 #@! TF.FilePolarity,Positive*
%FSLAX46Y46*%
G04 Gerber Fmt 4.6, Leading zero omitted, Abs format (unit mm)*
G04 Created by KiCad (PCBNEW (5.1.4)-1) date 2020-08-13 18:30:19*
%MOMM*%
%LPD*%
G04 APERTURE LIST*
%ADD10C,1.600000*%
%ADD11O,1.600000X1.600000*%
%ADD12R,1.600000X1.600000*%
%ADD13C,2.000000*%
%ADD14R,1.500000X1.500000*%
%ADD15C,1.500000*%
%ADD16O,1.700000X2.000000*%
%ADD17C,0.100000*%
%ADD18C,1.700000*%
%ADD19O,2.000000X1.700000*%
%ADD20O,1.700000X1.950000*%
%ADD21C,0.500000*%
G04 APERTURE END LIST*
D10*
X140250000Y-46500000D03*
X140250000Y-51500000D03*
D11*
X150620000Y-47000000D03*
X143000000Y-69860000D03*
X150620000Y-49540000D03*
X143000000Y-67320000D03*
X150620000Y-52080000D03*
X143000000Y-64780000D03*
X150620000Y-54620000D03*
X143000000Y-62240000D03*
X150620000Y-57160000D03*
X143000000Y-59700000D03*
X150620000Y-59700000D03*
X143000000Y-57160000D03*
X150620000Y-62240000D03*
X143000000Y-54620000D03*
X150620000Y-64780000D03*
X143000000Y-52080000D03*
X150620000Y-67320000D03*
X143000000Y-49540000D03*
X150620000Y-69860000D03*
D12*
X143000000Y-47000000D03*
D13*
X128500000Y-71000000D03*
X137500000Y-71000000D03*
X165000000Y-56500000D03*
X156000000Y-56500000D03*
X128500000Y-56500000D03*
X137500000Y-56500000D03*
X165000000Y-71000000D03*
X156000000Y-71000000D03*
D14*
X137500000Y-66040000D03*
D15*
X137500000Y-60960000D03*
X137500000Y-63500000D03*
D14*
X155500000Y-51540000D03*
D15*
X155500000Y-46460000D03*
X155500000Y-49000000D03*
D14*
X136000000Y-51500000D03*
D15*
X136000000Y-46420000D03*
X136000000Y-48960000D03*
D14*
X155500000Y-66040000D03*
D15*
X155500000Y-60960000D03*
X155500000Y-63500000D03*
D16*
X145500000Y-77500000D03*
D17*
G36*
X148624504Y-76501204D02*
G01*
X148648773Y-76504804D01*
X148672571Y-76510765D01*
X148695671Y-76519030D01*
X148717849Y-76529520D01*
X148738893Y-76542133D01*
X148758598Y-76556747D01*
X148776777Y-76573223D01*
X148793253Y-76591402D01*
X148807867Y-76611107D01*
X148820480Y-76632151D01*
X148830970Y-76654329D01*
X148839235Y-76677429D01*
X148845196Y-76701227D01*
X148848796Y-76725496D01*
X148850000Y-76750000D01*
X148850000Y-78250000D01*
X148848796Y-78274504D01*
X148845196Y-78298773D01*
X148839235Y-78322571D01*
X148830970Y-78345671D01*
X148820480Y-78367849D01*
X148807867Y-78388893D01*
X148793253Y-78408598D01*
X148776777Y-78426777D01*
X148758598Y-78443253D01*
X148738893Y-78457867D01*
X148717849Y-78470480D01*
X148695671Y-78480970D01*
X148672571Y-78489235D01*
X148648773Y-78495196D01*
X148624504Y-78498796D01*
X148600000Y-78500000D01*
X147400000Y-78500000D01*
X147375496Y-78498796D01*
X147351227Y-78495196D01*
X147327429Y-78489235D01*
X147304329Y-78480970D01*
X147282151Y-78470480D01*
X147261107Y-78457867D01*
X147241402Y-78443253D01*
X147223223Y-78426777D01*
X147206747Y-78408598D01*
X147192133Y-78388893D01*
X147179520Y-78367849D01*
X147169030Y-78345671D01*
X147160765Y-78322571D01*
X147154804Y-78298773D01*
X147151204Y-78274504D01*
X147150000Y-78250000D01*
X147150000Y-76750000D01*
X147151204Y-76725496D01*
X147154804Y-76701227D01*
X147160765Y-76677429D01*
X147169030Y-76654329D01*
X147179520Y-76632151D01*
X147192133Y-76611107D01*
X147206747Y-76591402D01*
X147223223Y-76573223D01*
X147241402Y-76556747D01*
X147261107Y-76542133D01*
X147282151Y-76529520D01*
X147304329Y-76519030D01*
X147327429Y-76510765D01*
X147351227Y-76504804D01*
X147375496Y-76501204D01*
X147400000Y-76500000D01*
X148600000Y-76500000D01*
X148624504Y-76501204D01*
X148624504Y-76501204D01*
G37*
D18*
X148000000Y-77500000D03*
D19*
X128500000Y-62500000D03*
D17*
G36*
X129274504Y-64151204D02*
G01*
X129298773Y-64154804D01*
X129322571Y-64160765D01*
X129345671Y-64169030D01*
X129367849Y-64179520D01*
X129388893Y-64192133D01*
X129408598Y-64206747D01*
X129426777Y-64223223D01*
X129443253Y-64241402D01*
X129457867Y-64261107D01*
X129470480Y-64282151D01*
X129480970Y-64304329D01*
X129489235Y-64327429D01*
X129495196Y-64351227D01*
X129498796Y-64375496D01*
X129500000Y-64400000D01*
X129500000Y-65600000D01*
X129498796Y-65624504D01*
X129495196Y-65648773D01*
X129489235Y-65672571D01*
X129480970Y-65695671D01*
X129470480Y-65717849D01*
X129457867Y-65738893D01*
X129443253Y-65758598D01*
X129426777Y-65776777D01*
X129408598Y-65793253D01*
X129388893Y-65807867D01*
X129367849Y-65820480D01*
X129345671Y-65830970D01*
X129322571Y-65839235D01*
X129298773Y-65845196D01*
X129274504Y-65848796D01*
X129250000Y-65850000D01*
X127750000Y-65850000D01*
X127725496Y-65848796D01*
X127701227Y-65845196D01*
X127677429Y-65839235D01*
X127654329Y-65830970D01*
X127632151Y-65820480D01*
X127611107Y-65807867D01*
X127591402Y-65793253D01*
X127573223Y-65776777D01*
X127556747Y-65758598D01*
X127542133Y-65738893D01*
X127529520Y-65717849D01*
X127519030Y-65695671D01*
X127510765Y-65672571D01*
X127504804Y-65648773D01*
X127501204Y-65624504D01*
X127500000Y-65600000D01*
X127500000Y-64400000D01*
X127501204Y-64375496D01*
X127504804Y-64351227D01*
X127510765Y-64327429D01*
X127519030Y-64304329D01*
X127529520Y-64282151D01*
X127542133Y-64261107D01*
X127556747Y-64241402D01*
X127573223Y-64223223D01*
X127591402Y-64206747D01*
X127611107Y-64192133D01*
X127632151Y-64179520D01*
X127654329Y-64169030D01*
X127677429Y-64160765D01*
X127701227Y-64154804D01*
X127725496Y-64151204D01*
X127750000Y-64150000D01*
X129250000Y-64150000D01*
X129274504Y-64151204D01*
X129274504Y-64151204D01*
G37*
D18*
X128500000Y-65000000D03*
D19*
X165000000Y-50500000D03*
D17*
G36*
X165774504Y-47151204D02*
G01*
X165798773Y-47154804D01*
X165822571Y-47160765D01*
X165845671Y-47169030D01*
X165867849Y-47179520D01*
X165888893Y-47192133D01*
X165908598Y-47206747D01*
X165926777Y-47223223D01*
X165943253Y-47241402D01*
X165957867Y-47261107D01*
X165970480Y-47282151D01*
X165980970Y-47304329D01*
X165989235Y-47327429D01*
X165995196Y-47351227D01*
X165998796Y-47375496D01*
X166000000Y-47400000D01*
X166000000Y-48600000D01*
X165998796Y-48624504D01*
X165995196Y-48648773D01*
X165989235Y-48672571D01*
X165980970Y-48695671D01*
X165970480Y-48717849D01*
X165957867Y-48738893D01*
X165943253Y-48758598D01*
X165926777Y-48776777D01*
X165908598Y-48793253D01*
X165888893Y-48807867D01*
X165867849Y-48820480D01*
X165845671Y-48830970D01*
X165822571Y-48839235D01*
X165798773Y-48845196D01*
X165774504Y-48848796D01*
X165750000Y-48850000D01*
X164250000Y-48850000D01*
X164225496Y-48848796D01*
X164201227Y-48845196D01*
X164177429Y-48839235D01*
X164154329Y-48830970D01*
X164132151Y-48820480D01*
X164111107Y-48807867D01*
X164091402Y-48793253D01*
X164073223Y-48776777D01*
X164056747Y-48758598D01*
X164042133Y-48738893D01*
X164029520Y-48717849D01*
X164019030Y-48695671D01*
X164010765Y-48672571D01*
X164004804Y-48648773D01*
X164001204Y-48624504D01*
X164000000Y-48600000D01*
X164000000Y-47400000D01*
X164001204Y-47375496D01*
X164004804Y-47351227D01*
X164010765Y-47327429D01*
X164019030Y-47304329D01*
X164029520Y-47282151D01*
X164042133Y-47261107D01*
X164056747Y-47241402D01*
X164073223Y-47223223D01*
X164091402Y-47206747D01*
X164111107Y-47192133D01*
X164132151Y-47179520D01*
X164154329Y-47169030D01*
X164177429Y-47160765D01*
X164201227Y-47154804D01*
X164225496Y-47151204D01*
X164250000Y-47150000D01*
X165750000Y-47150000D01*
X165774504Y-47151204D01*
X165774504Y-47151204D01*
G37*
D18*
X165000000Y-48000000D03*
D19*
X128500000Y-48000000D03*
D17*
G36*
X129274504Y-49651204D02*
G01*
X129298773Y-49654804D01*
X129322571Y-49660765D01*
X129345671Y-49669030D01*
X129367849Y-49679520D01*
X129388893Y-49692133D01*
X129408598Y-49706747D01*
X129426777Y-49723223D01*
X129443253Y-49741402D01*
X129457867Y-49761107D01*
X129470480Y-49782151D01*
X129480970Y-49804329D01*
X129489235Y-49827429D01*
X129495196Y-49851227D01*
X129498796Y-49875496D01*
X129500000Y-49900000D01*
X129500000Y-51100000D01*
X129498796Y-51124504D01*
X129495196Y-51148773D01*
X129489235Y-51172571D01*
X129480970Y-51195671D01*
X129470480Y-51217849D01*
X129457867Y-51238893D01*
X129443253Y-51258598D01*
X129426777Y-51276777D01*
X129408598Y-51293253D01*
X129388893Y-51307867D01*
X129367849Y-51320480D01*
X129345671Y-51330970D01*
X129322571Y-51339235D01*
X129298773Y-51345196D01*
X129274504Y-51348796D01*
X129250000Y-51350000D01*
X127750000Y-51350000D01*
X127725496Y-51348796D01*
X127701227Y-51345196D01*
X127677429Y-51339235D01*
X127654329Y-51330970D01*
X127632151Y-51320480D01*
X127611107Y-51307867D01*
X127591402Y-51293253D01*
X127573223Y-51276777D01*
X127556747Y-51258598D01*
X127542133Y-51238893D01*
X127529520Y-51217849D01*
X127519030Y-51195671D01*
X127510765Y-51172571D01*
X127504804Y-51148773D01*
X127501204Y-51124504D01*
X127500000Y-51100000D01*
X127500000Y-49900000D01*
X127501204Y-49875496D01*
X127504804Y-49851227D01*
X127510765Y-49827429D01*
X127519030Y-49804329D01*
X127529520Y-49782151D01*
X127542133Y-49761107D01*
X127556747Y-49741402D01*
X127573223Y-49723223D01*
X127591402Y-49706747D01*
X127611107Y-49692133D01*
X127632151Y-49679520D01*
X127654329Y-49669030D01*
X127677429Y-49660765D01*
X127701227Y-49654804D01*
X127725496Y-49651204D01*
X127750000Y-49650000D01*
X129250000Y-49650000D01*
X129274504Y-49651204D01*
X129274504Y-49651204D01*
G37*
D18*
X128500000Y-50500000D03*
D19*
X165000000Y-65000000D03*
D17*
G36*
X165774504Y-61651204D02*
G01*
X165798773Y-61654804D01*
X165822571Y-61660765D01*
X165845671Y-61669030D01*
X165867849Y-61679520D01*
X165888893Y-61692133D01*
X165908598Y-61706747D01*
X165926777Y-61723223D01*
X165943253Y-61741402D01*
X165957867Y-61761107D01*
X165970480Y-61782151D01*
X165980970Y-61804329D01*
X165989235Y-61827429D01*
X165995196Y-61851227D01*
X165998796Y-61875496D01*
X166000000Y-61900000D01*
X166000000Y-63100000D01*
X165998796Y-63124504D01*
X165995196Y-63148773D01*
X165989235Y-63172571D01*
X165980970Y-63195671D01*
X165970480Y-63217849D01*
X165957867Y-63238893D01*
X165943253Y-63258598D01*
X165926777Y-63276777D01*
X165908598Y-63293253D01*
X165888893Y-63307867D01*
X165867849Y-63320480D01*
X165845671Y-63330970D01*
X165822571Y-63339235D01*
X165798773Y-63345196D01*
X165774504Y-63348796D01*
X165750000Y-63350000D01*
X164250000Y-63350000D01*
X164225496Y-63348796D01*
X164201227Y-63345196D01*
X164177429Y-63339235D01*
X164154329Y-63330970D01*
X164132151Y-63320480D01*
X164111107Y-63307867D01*
X164091402Y-63293253D01*
X164073223Y-63276777D01*
X164056747Y-63258598D01*
X164042133Y-63238893D01*
X164029520Y-63217849D01*
X164019030Y-63195671D01*
X164010765Y-63172571D01*
X164004804Y-63148773D01*
X164001204Y-63124504D01*
X164000000Y-63100000D01*
X164000000Y-61900000D01*
X164001204Y-61875496D01*
X164004804Y-61851227D01*
X164010765Y-61827429D01*
X164019030Y-61804329D01*
X164029520Y-61782151D01*
X164042133Y-61761107D01*
X164056747Y-61741402D01*
X164073223Y-61723223D01*
X164091402Y-61706747D01*
X164111107Y-61692133D01*
X164132151Y-61679520D01*
X164154329Y-61669030D01*
X164177429Y-61660765D01*
X164201227Y-61654804D01*
X164225496Y-61651204D01*
X164250000Y-61650000D01*
X165750000Y-61650000D01*
X165774504Y-61651204D01*
X165774504Y-61651204D01*
G37*
D18*
X165000000Y-62500000D03*
D20*
X157500000Y-38000000D03*
X155000000Y-38000000D03*
X152500000Y-38000000D03*
D17*
G36*
X150624504Y-37026204D02*
G01*
X150648773Y-37029804D01*
X150672571Y-37035765D01*
X150695671Y-37044030D01*
X150717849Y-37054520D01*
X150738893Y-37067133D01*
X150758598Y-37081747D01*
X150776777Y-37098223D01*
X150793253Y-37116402D01*
X150807867Y-37136107D01*
X150820480Y-37157151D01*
X150830970Y-37179329D01*
X150839235Y-37202429D01*
X150845196Y-37226227D01*
X150848796Y-37250496D01*
X150850000Y-37275000D01*
X150850000Y-38725000D01*
X150848796Y-38749504D01*
X150845196Y-38773773D01*
X150839235Y-38797571D01*
X150830970Y-38820671D01*
X150820480Y-38842849D01*
X150807867Y-38863893D01*
X150793253Y-38883598D01*
X150776777Y-38901777D01*
X150758598Y-38918253D01*
X150738893Y-38932867D01*
X150717849Y-38945480D01*
X150695671Y-38955970D01*
X150672571Y-38964235D01*
X150648773Y-38970196D01*
X150624504Y-38973796D01*
X150600000Y-38975000D01*
X149400000Y-38975000D01*
X149375496Y-38973796D01*
X149351227Y-38970196D01*
X149327429Y-38964235D01*
X149304329Y-38955970D01*
X149282151Y-38945480D01*
X149261107Y-38932867D01*
X149241402Y-38918253D01*
X149223223Y-38901777D01*
X149206747Y-38883598D01*
X149192133Y-38863893D01*
X149179520Y-38842849D01*
X149169030Y-38820671D01*
X149160765Y-38797571D01*
X149154804Y-38773773D01*
X149151204Y-38749504D01*
X149150000Y-38725000D01*
X149150000Y-37275000D01*
X149151204Y-37250496D01*
X149154804Y-37226227D01*
X149160765Y-37202429D01*
X149169030Y-37179329D01*
X149179520Y-37157151D01*
X149192133Y-37136107D01*
X149206747Y-37116402D01*
X149223223Y-37098223D01*
X149241402Y-37081747D01*
X149261107Y-37067133D01*
X149282151Y-37054520D01*
X149304329Y-37044030D01*
X149327429Y-37035765D01*
X149351227Y-37029804D01*
X149375496Y-37026204D01*
X149400000Y-37025000D01*
X150600000Y-37025000D01*
X150624504Y-37026204D01*
X150624504Y-37026204D01*
G37*
D18*
X150000000Y-38000000D03*
D20*
X143500000Y-38000000D03*
X141000000Y-38000000D03*
X138500000Y-38000000D03*
D17*
G36*
X136624504Y-37026204D02*
G01*
X136648773Y-37029804D01*
X136672571Y-37035765D01*
X136695671Y-37044030D01*
X136717849Y-37054520D01*
X136738893Y-37067133D01*
X136758598Y-37081747D01*
X136776777Y-37098223D01*
X136793253Y-37116402D01*
X136807867Y-37136107D01*
X136820480Y-37157151D01*
X136830970Y-37179329D01*
X136839235Y-37202429D01*
X136845196Y-37226227D01*
X136848796Y-37250496D01*
X136850000Y-37275000D01*
X136850000Y-38725000D01*
X136848796Y-38749504D01*
X136845196Y-38773773D01*
X136839235Y-38797571D01*
X136830970Y-38820671D01*
X136820480Y-38842849D01*
X136807867Y-38863893D01*
X136793253Y-38883598D01*
X136776777Y-38901777D01*
X136758598Y-38918253D01*
X136738893Y-38932867D01*
X136717849Y-38945480D01*
X136695671Y-38955970D01*
X136672571Y-38964235D01*
X136648773Y-38970196D01*
X136624504Y-38973796D01*
X136600000Y-38975000D01*
X135400000Y-38975000D01*
X135375496Y-38973796D01*
X135351227Y-38970196D01*
X135327429Y-38964235D01*
X135304329Y-38955970D01*
X135282151Y-38945480D01*
X135261107Y-38932867D01*
X135241402Y-38918253D01*
X135223223Y-38901777D01*
X135206747Y-38883598D01*
X135192133Y-38863893D01*
X135179520Y-38842849D01*
X135169030Y-38820671D01*
X135160765Y-38797571D01*
X135154804Y-38773773D01*
X135151204Y-38749504D01*
X135150000Y-38725000D01*
X135150000Y-37275000D01*
X135151204Y-37250496D01*
X135154804Y-37226227D01*
X135160765Y-37202429D01*
X135169030Y-37179329D01*
X135179520Y-37157151D01*
X135192133Y-37136107D01*
X135206747Y-37116402D01*
X135223223Y-37098223D01*
X135241402Y-37081747D01*
X135261107Y-37067133D01*
X135282151Y-37054520D01*
X135304329Y-37044030D01*
X135327429Y-37035765D01*
X135351227Y-37029804D01*
X135375496Y-37026204D01*
X135400000Y-37025000D01*
X136600000Y-37025000D01*
X136624504Y-37026204D01*
X136624504Y-37026204D01*
G37*
D18*
X136000000Y-38000000D03*
D21*
G36*
X162250000Y-40500000D02*
G01*
X162254804Y-40548773D01*
X162269030Y-40595671D01*
X162292133Y-40638893D01*
X162323223Y-40676777D01*
X162361107Y-40707867D01*
X162404329Y-40730970D01*
X162451227Y-40745196D01*
X162500000Y-40750000D01*
X168725000Y-40750000D01*
X168725001Y-74750000D01*
X162500000Y-74750000D01*
X162451227Y-74754804D01*
X162404329Y-74769030D01*
X162361107Y-74792133D01*
X162323223Y-74823223D01*
X162292133Y-74861107D01*
X162269030Y-74904329D01*
X162254804Y-74951227D01*
X162250000Y-75000000D01*
X162250000Y-81225000D01*
X131250000Y-81225000D01*
X131250000Y-77997839D01*
X143943074Y-77997839D01*
X144040850Y-78294897D01*
X144194700Y-78567172D01*
X144398712Y-78804200D01*
X144645046Y-78996873D01*
X144924236Y-79137786D01*
X145005857Y-79171783D01*
X145250000Y-79040200D01*
X145250000Y-77750000D01*
X144095328Y-77750000D01*
X143943074Y-77997839D01*
X131250000Y-77997839D01*
X131250000Y-77002161D01*
X143943074Y-77002161D01*
X144095328Y-77250000D01*
X145250000Y-77250000D01*
X145250000Y-75959800D01*
X145750000Y-75959800D01*
X145750000Y-77250000D01*
X145770000Y-77250000D01*
X145770000Y-77750000D01*
X145750000Y-77750000D01*
X145750000Y-79040200D01*
X145994143Y-79171783D01*
X146075764Y-79137786D01*
X146354954Y-78996873D01*
X146577807Y-78822566D01*
X146690328Y-78959672D01*
X146842414Y-79084486D01*
X147015928Y-79177231D01*
X147204202Y-79234344D01*
X147400000Y-79253628D01*
X148600000Y-79253628D01*
X148795798Y-79234344D01*
X148984072Y-79177231D01*
X149157586Y-79084486D01*
X149309672Y-78959672D01*
X149434486Y-78807586D01*
X149527231Y-78634072D01*
X149584344Y-78445798D01*
X149603628Y-78250000D01*
X149603628Y-76750000D01*
X149584344Y-76554202D01*
X149527231Y-76365928D01*
X149434486Y-76192414D01*
X149309672Y-76040328D01*
X149157586Y-75915514D01*
X148984072Y-75822769D01*
X148795798Y-75765656D01*
X148600000Y-75746372D01*
X147400000Y-75746372D01*
X147204202Y-75765656D01*
X147015928Y-75822769D01*
X146842414Y-75915514D01*
X146690328Y-76040328D01*
X146577807Y-76177434D01*
X146354954Y-76003127D01*
X146075764Y-75862214D01*
X145994143Y-75828217D01*
X145750000Y-75959800D01*
X145250000Y-75959800D01*
X145005857Y-75828217D01*
X144924236Y-75862214D01*
X144645046Y-76003127D01*
X144398712Y-76195800D01*
X144194700Y-76432828D01*
X144040850Y-76705103D01*
X143943074Y-77002161D01*
X131250000Y-77002161D01*
X131250000Y-75000000D01*
X131245196Y-74951227D01*
X131230970Y-74904329D01*
X131207867Y-74861107D01*
X131176777Y-74823223D01*
X131138893Y-74792133D01*
X131095671Y-74769030D01*
X131048773Y-74754804D01*
X131000000Y-74750000D01*
X124775000Y-74750000D01*
X124775000Y-70827640D01*
X126750000Y-70827640D01*
X126750000Y-71172360D01*
X126817251Y-71510456D01*
X126949170Y-71828936D01*
X127140686Y-72115560D01*
X127384440Y-72359314D01*
X127671064Y-72550830D01*
X127989544Y-72682749D01*
X128327640Y-72750000D01*
X128672360Y-72750000D01*
X129010456Y-72682749D01*
X129328936Y-72550830D01*
X129615560Y-72359314D01*
X129859314Y-72115560D01*
X130050830Y-71828936D01*
X130182749Y-71510456D01*
X130250000Y-71172360D01*
X130250000Y-70827640D01*
X135750000Y-70827640D01*
X135750000Y-71172360D01*
X135817251Y-71510456D01*
X135949170Y-71828936D01*
X136140686Y-72115560D01*
X136384440Y-72359314D01*
X136671064Y-72550830D01*
X136989544Y-72682749D01*
X137327640Y-72750000D01*
X137672360Y-72750000D01*
X138010456Y-72682749D01*
X138328936Y-72550830D01*
X138615560Y-72359314D01*
X138859314Y-72115560D01*
X139050830Y-71828936D01*
X139182749Y-71510456D01*
X139250000Y-71172360D01*
X139250000Y-70827640D01*
X139182749Y-70489544D01*
X139123383Y-70346221D01*
X141528236Y-70346221D01*
X141615489Y-70556890D01*
X141778048Y-70813604D01*
X141987566Y-71033672D01*
X142235992Y-71208636D01*
X142513778Y-71331773D01*
X142750000Y-71202215D01*
X142750000Y-70110000D01*
X143250000Y-70110000D01*
X143250000Y-71202215D01*
X143486222Y-71331773D01*
X143764008Y-71208636D01*
X144012434Y-71033672D01*
X144221952Y-70813604D01*
X144384511Y-70556890D01*
X144471764Y-70346221D01*
X149148236Y-70346221D01*
X149235489Y-70556890D01*
X149398048Y-70813604D01*
X149607566Y-71033672D01*
X149855992Y-71208636D01*
X150133778Y-71331773D01*
X150370000Y-71202215D01*
X150370000Y-70110000D01*
X150870000Y-70110000D01*
X150870000Y-71202215D01*
X151106222Y-71331773D01*
X151384008Y-71208636D01*
X151632434Y-71033672D01*
X151828588Y-70827640D01*
X154250000Y-70827640D01*
X154250000Y-71172360D01*
X154317251Y-71510456D01*
X154449170Y-71828936D01*
X154640686Y-72115560D01*
X154884440Y-72359314D01*
X155171064Y-72550830D01*
X155489544Y-72682749D01*
X155827640Y-72750000D01*
X156172360Y-72750000D01*
X156510456Y-72682749D01*
X156828936Y-72550830D01*
X157115560Y-72359314D01*
X157359314Y-72115560D01*
X157550830Y-71828936D01*
X157682749Y-71510456D01*
X157750000Y-71172360D01*
X157750000Y-70827640D01*
X163250000Y-70827640D01*
X163250000Y-71172360D01*
X163317251Y-71510456D01*
X163449170Y-71828936D01*
X163640686Y-72115560D01*
X163884440Y-72359314D01*
X164171064Y-72550830D01*
X164489544Y-72682749D01*
X164827640Y-72750000D01*
X165172360Y-72750000D01*
X165510456Y-72682749D01*
X165828936Y-72550830D01*
X166115560Y-72359314D01*
X166359314Y-72115560D01*
X166550830Y-71828936D01*
X166682749Y-71510456D01*
X166750000Y-71172360D01*
X166750000Y-70827640D01*
X166682749Y-70489544D01*
X166550830Y-70171064D01*
X166359314Y-69884440D01*
X166115560Y-69640686D01*
X165828936Y-69449170D01*
X165510456Y-69317251D01*
X165172360Y-69250000D01*
X164827640Y-69250000D01*
X164489544Y-69317251D01*
X164171064Y-69449170D01*
X163884440Y-69640686D01*
X163640686Y-69884440D01*
X163449170Y-70171064D01*
X163317251Y-70489544D01*
X163250000Y-70827640D01*
X157750000Y-70827640D01*
X157682749Y-70489544D01*
X157550830Y-70171064D01*
X157359314Y-69884440D01*
X157115560Y-69640686D01*
X156828936Y-69449170D01*
X156510456Y-69317251D01*
X156172360Y-69250000D01*
X155827640Y-69250000D01*
X155489544Y-69317251D01*
X155171064Y-69449170D01*
X154884440Y-69640686D01*
X154640686Y-69884440D01*
X154449170Y-70171064D01*
X154317251Y-70489544D01*
X154250000Y-70827640D01*
X151828588Y-70827640D01*
X151841952Y-70813604D01*
X152004511Y-70556890D01*
X152091764Y-70346221D01*
X151959368Y-70110000D01*
X150870000Y-70110000D01*
X150370000Y-70110000D01*
X149280632Y-70110000D01*
X149148236Y-70346221D01*
X144471764Y-70346221D01*
X144339368Y-70110000D01*
X143250000Y-70110000D01*
X142750000Y-70110000D01*
X141660632Y-70110000D01*
X141528236Y-70346221D01*
X139123383Y-70346221D01*
X139050830Y-70171064D01*
X138859314Y-69884440D01*
X138615560Y-69640686D01*
X138328936Y-69449170D01*
X138010456Y-69317251D01*
X137672360Y-69250000D01*
X137327640Y-69250000D01*
X136989544Y-69317251D01*
X136671064Y-69449170D01*
X136384440Y-69640686D01*
X136140686Y-69884440D01*
X135949170Y-70171064D01*
X135817251Y-70489544D01*
X135750000Y-70827640D01*
X130250000Y-70827640D01*
X130182749Y-70489544D01*
X130050830Y-70171064D01*
X129859314Y-69884440D01*
X129615560Y-69640686D01*
X129328936Y-69449170D01*
X129010456Y-69317251D01*
X128672360Y-69250000D01*
X128327640Y-69250000D01*
X127989544Y-69317251D01*
X127671064Y-69449170D01*
X127384440Y-69640686D01*
X127140686Y-69884440D01*
X126949170Y-70171064D01*
X126817251Y-70489544D01*
X126750000Y-70827640D01*
X124775000Y-70827640D01*
X124775000Y-67806221D01*
X141528236Y-67806221D01*
X141615489Y-68016890D01*
X141778048Y-68273604D01*
X141987566Y-68493672D01*
X142124339Y-68590000D01*
X141987566Y-68686328D01*
X141778048Y-68906396D01*
X141615489Y-69163110D01*
X141528236Y-69373779D01*
X141660632Y-69610000D01*
X142750000Y-69610000D01*
X142750000Y-67570000D01*
X143250000Y-67570000D01*
X143250000Y-69610000D01*
X144339368Y-69610000D01*
X144471764Y-69373779D01*
X144384511Y-69163110D01*
X144221952Y-68906396D01*
X144012434Y-68686328D01*
X143875661Y-68590000D01*
X144012434Y-68493672D01*
X144221952Y-68273604D01*
X144384511Y-68016890D01*
X144471764Y-67806221D01*
X144339368Y-67570000D01*
X143250000Y-67570000D01*
X142750000Y-67570000D01*
X141660632Y-67570000D01*
X141528236Y-67806221D01*
X124775000Y-67806221D01*
X124775000Y-66790000D01*
X135996371Y-66790000D01*
X136010852Y-66937026D01*
X136053738Y-67078401D01*
X136123380Y-67208694D01*
X136217104Y-67322896D01*
X136331306Y-67416620D01*
X136461599Y-67486262D01*
X136602974Y-67529148D01*
X136750000Y-67543629D01*
X137062500Y-67540000D01*
X137250000Y-67352500D01*
X137250000Y-66290000D01*
X137750000Y-66290000D01*
X137750000Y-67352500D01*
X137937500Y-67540000D01*
X138250000Y-67543629D01*
X138397026Y-67529148D01*
X138538401Y-67486262D01*
X138668694Y-67416620D01*
X138782896Y-67322896D01*
X138876620Y-67208694D01*
X138946262Y-67078401D01*
X138989148Y-66937026D01*
X139003629Y-66790000D01*
X139000000Y-66477500D01*
X138812500Y-66290000D01*
X137750000Y-66290000D01*
X137250000Y-66290000D01*
X136187500Y-66290000D01*
X136000000Y-66477500D01*
X135996371Y-66790000D01*
X124775000Y-66790000D01*
X124775000Y-62500000D01*
X126742259Y-62500000D01*
X126773151Y-62813655D01*
X126864641Y-63115256D01*
X127013212Y-63393213D01*
X127169828Y-63584050D01*
X127040328Y-63690328D01*
X126915514Y-63842414D01*
X126822769Y-64015928D01*
X126765656Y-64204202D01*
X126746372Y-64400000D01*
X126746372Y-65600000D01*
X126765656Y-65795798D01*
X126822769Y-65984072D01*
X126915514Y-66157586D01*
X127040328Y-66309672D01*
X127192414Y-66434486D01*
X127365928Y-66527231D01*
X127554202Y-66584344D01*
X127750000Y-66603628D01*
X129250000Y-66603628D01*
X129445798Y-66584344D01*
X129634072Y-66527231D01*
X129807586Y-66434486D01*
X129959672Y-66309672D01*
X130084486Y-66157586D01*
X130177231Y-65984072D01*
X130234344Y-65795798D01*
X130253628Y-65600000D01*
X130253628Y-65290000D01*
X135996371Y-65290000D01*
X136000000Y-65602500D01*
X136187500Y-65790000D01*
X137250000Y-65790000D01*
X137250000Y-65770000D01*
X137750000Y-65770000D01*
X137750000Y-65790000D01*
X138812500Y-65790000D01*
X139000000Y-65602500D01*
X139003629Y-65290000D01*
X138989148Y-65142974D01*
X138946262Y-65001599D01*
X138876620Y-64871306D01*
X138782896Y-64757104D01*
X138668694Y-64663380D01*
X138538401Y-64593738D01*
X138530100Y-64591220D01*
X138665126Y-64456194D01*
X138829283Y-64210517D01*
X138942356Y-63937534D01*
X139000000Y-63647737D01*
X139000000Y-63352263D01*
X138942356Y-63062466D01*
X138829283Y-62789483D01*
X138665126Y-62543806D01*
X138456194Y-62334874D01*
X138299240Y-62230000D01*
X138456194Y-62125126D01*
X138665126Y-61916194D01*
X138829283Y-61670517D01*
X138942356Y-61397534D01*
X139000000Y-61107737D01*
X139000000Y-60812263D01*
X138942356Y-60522466D01*
X138829283Y-60249483D01*
X138665126Y-60003806D01*
X138456194Y-59794874D01*
X138210517Y-59630717D01*
X137937534Y-59517644D01*
X137647737Y-59460000D01*
X137352263Y-59460000D01*
X137062466Y-59517644D01*
X136789483Y-59630717D01*
X136543806Y-59794874D01*
X136334874Y-60003806D01*
X136170717Y-60249483D01*
X136057644Y-60522466D01*
X136000000Y-60812263D01*
X136000000Y-61107737D01*
X136057644Y-61397534D01*
X136170717Y-61670517D01*
X136334874Y-61916194D01*
X136543806Y-62125126D01*
X136700760Y-62230000D01*
X136543806Y-62334874D01*
X136334874Y-62543806D01*
X136170717Y-62789483D01*
X136057644Y-63062466D01*
X136000000Y-63352263D01*
X136000000Y-63647737D01*
X136057644Y-63937534D01*
X136170717Y-64210517D01*
X136334874Y-64456194D01*
X136469900Y-64591220D01*
X136461599Y-64593738D01*
X136331306Y-64663380D01*
X136217104Y-64757104D01*
X136123380Y-64871306D01*
X136053738Y-65001599D01*
X136010852Y-65142974D01*
X135996371Y-65290000D01*
X130253628Y-65290000D01*
X130253628Y-64400000D01*
X130234344Y-64204202D01*
X130177231Y-64015928D01*
X130084486Y-63842414D01*
X129959672Y-63690328D01*
X129830172Y-63584050D01*
X129986788Y-63393213D01*
X130135359Y-63115256D01*
X130226849Y-62813655D01*
X130257741Y-62500000D01*
X130226849Y-62186345D01*
X130135359Y-61884744D01*
X129986788Y-61606787D01*
X129786845Y-61363155D01*
X129543213Y-61163212D01*
X129265256Y-61014641D01*
X128963655Y-60923151D01*
X128728597Y-60900000D01*
X128271403Y-60900000D01*
X128036345Y-60923151D01*
X127734744Y-61014641D01*
X127456787Y-61163212D01*
X127213155Y-61363155D01*
X127013212Y-61606787D01*
X126864641Y-61884744D01*
X126773151Y-62186345D01*
X126742259Y-62500000D01*
X124775000Y-62500000D01*
X124775000Y-56327640D01*
X126750000Y-56327640D01*
X126750000Y-56672360D01*
X126817251Y-57010456D01*
X126949170Y-57328936D01*
X127140686Y-57615560D01*
X127384440Y-57859314D01*
X127671064Y-58050830D01*
X127989544Y-58182749D01*
X128327640Y-58250000D01*
X128672360Y-58250000D01*
X129010456Y-58182749D01*
X129328936Y-58050830D01*
X129615560Y-57859314D01*
X129859314Y-57615560D01*
X130050830Y-57328936D01*
X130182749Y-57010456D01*
X130250000Y-56672360D01*
X130250000Y-56327640D01*
X135750000Y-56327640D01*
X135750000Y-56672360D01*
X135817251Y-57010456D01*
X135949170Y-57328936D01*
X136140686Y-57615560D01*
X136384440Y-57859314D01*
X136671064Y-58050830D01*
X136989544Y-58182749D01*
X137327640Y-58250000D01*
X137672360Y-58250000D01*
X138010456Y-58182749D01*
X138328936Y-58050830D01*
X138615560Y-57859314D01*
X138859314Y-57615560D01*
X139050830Y-57328936D01*
X139182749Y-57010456D01*
X139250000Y-56672360D01*
X139250000Y-56327640D01*
X139182749Y-55989544D01*
X139050830Y-55671064D01*
X138859314Y-55384440D01*
X138615560Y-55140686D01*
X138328936Y-54949170D01*
X138010456Y-54817251D01*
X137672360Y-54750000D01*
X137327640Y-54750000D01*
X136989544Y-54817251D01*
X136671064Y-54949170D01*
X136384440Y-55140686D01*
X136140686Y-55384440D01*
X135949170Y-55671064D01*
X135817251Y-55989544D01*
X135750000Y-56327640D01*
X130250000Y-56327640D01*
X130182749Y-55989544D01*
X130050830Y-55671064D01*
X129859314Y-55384440D01*
X129615560Y-55140686D01*
X129328936Y-54949170D01*
X129010456Y-54817251D01*
X128672360Y-54750000D01*
X128327640Y-54750000D01*
X127989544Y-54817251D01*
X127671064Y-54949170D01*
X127384440Y-55140686D01*
X127140686Y-55384440D01*
X126949170Y-55671064D01*
X126817251Y-55989544D01*
X126750000Y-56327640D01*
X124775000Y-56327640D01*
X124775000Y-52250000D01*
X134496371Y-52250000D01*
X134510852Y-52397026D01*
X134553738Y-52538401D01*
X134623380Y-52668694D01*
X134717104Y-52782896D01*
X134831306Y-52876620D01*
X134961599Y-52946262D01*
X135102974Y-52989148D01*
X135250000Y-53003629D01*
X135562500Y-53000000D01*
X135750000Y-52812500D01*
X135750000Y-51750000D01*
X136250000Y-51750000D01*
X136250000Y-52812500D01*
X136437500Y-53000000D01*
X136750000Y-53003629D01*
X136897026Y-52989148D01*
X137038401Y-52946262D01*
X137168694Y-52876620D01*
X137282896Y-52782896D01*
X137376620Y-52668694D01*
X137446262Y-52538401D01*
X137489148Y-52397026D01*
X137503629Y-52250000D01*
X137500000Y-51937500D01*
X137312500Y-51750000D01*
X136250000Y-51750000D01*
X135750000Y-51750000D01*
X134687500Y-51750000D01*
X134500000Y-51937500D01*
X134496371Y-52250000D01*
X124775000Y-52250000D01*
X124775000Y-48000000D01*
X126742259Y-48000000D01*
X126773151Y-48313655D01*
X126864641Y-48615256D01*
X127013212Y-48893213D01*
X127169828Y-49084050D01*
X127040328Y-49190328D01*
X126915514Y-49342414D01*
X126822769Y-49515928D01*
X126765656Y-49704202D01*
X126746372Y-49900000D01*
X126746372Y-51100000D01*
X126765656Y-51295798D01*
X126822769Y-51484072D01*
X126915514Y-51657586D01*
X127040328Y-51809672D01*
X127192414Y-51934486D01*
X127365928Y-52027231D01*
X127554202Y-52084344D01*
X127750000Y-52103628D01*
X129250000Y-52103628D01*
X129445798Y-52084344D01*
X129634072Y-52027231D01*
X129807586Y-51934486D01*
X129959672Y-51809672D01*
X130084486Y-51657586D01*
X130177231Y-51484072D01*
X130218709Y-51347338D01*
X138700000Y-51347338D01*
X138700000Y-51652662D01*
X138759565Y-51952118D01*
X138876408Y-52234200D01*
X139046036Y-52488068D01*
X139261932Y-52703964D01*
X139515800Y-52873592D01*
X139797882Y-52990435D01*
X140097338Y-53050000D01*
X140402662Y-53050000D01*
X140702118Y-52990435D01*
X140984200Y-52873592D01*
X141238068Y-52703964D01*
X141453964Y-52488068D01*
X141488405Y-52436523D01*
X141561059Y-52676029D01*
X141704987Y-52945300D01*
X141898682Y-53181318D01*
X142104222Y-53350000D01*
X141898682Y-53518682D01*
X141704987Y-53754700D01*
X141561059Y-54023971D01*
X141472428Y-54316147D01*
X141442501Y-54620000D01*
X141472428Y-54923853D01*
X141561059Y-55216029D01*
X141704987Y-55485300D01*
X141898682Y-55721318D01*
X142104222Y-55890000D01*
X141898682Y-56058682D01*
X141704987Y-56294700D01*
X141561059Y-56563971D01*
X141472428Y-56856147D01*
X141442501Y-57160000D01*
X141472428Y-57463853D01*
X141561059Y-57756029D01*
X141704987Y-58025300D01*
X141898682Y-58261318D01*
X142104222Y-58430000D01*
X141898682Y-58598682D01*
X141704987Y-58834700D01*
X141561059Y-59103971D01*
X141472428Y-59396147D01*
X141442501Y-59700000D01*
X141472428Y-60003853D01*
X141561059Y-60296029D01*
X141704987Y-60565300D01*
X141898682Y-60801318D01*
X142104222Y-60970000D01*
X141898682Y-61138682D01*
X141704987Y-61374700D01*
X141561059Y-61643971D01*
X141472428Y-61936147D01*
X141442501Y-62240000D01*
X141472428Y-62543853D01*
X141561059Y-62836029D01*
X141704987Y-63105300D01*
X141898682Y-63341318D01*
X142104222Y-63510000D01*
X141898682Y-63678682D01*
X141704987Y-63914700D01*
X141561059Y-64183971D01*
X141472428Y-64476147D01*
X141442501Y-64780000D01*
X141472428Y-65083853D01*
X141561059Y-65376029D01*
X141704987Y-65645300D01*
X141898682Y-65881318D01*
X142113513Y-66057625D01*
X141987566Y-66146328D01*
X141778048Y-66366396D01*
X141615489Y-66623110D01*
X141528236Y-66833779D01*
X141660632Y-67070000D01*
X142750000Y-67070000D01*
X142750000Y-67050000D01*
X143250000Y-67050000D01*
X143250000Y-67070000D01*
X144339368Y-67070000D01*
X144471764Y-66833779D01*
X144384511Y-66623110D01*
X144221952Y-66366396D01*
X144012434Y-66146328D01*
X143886487Y-66057625D01*
X144101318Y-65881318D01*
X144295013Y-65645300D01*
X144438941Y-65376029D01*
X144527572Y-65083853D01*
X144557499Y-64780000D01*
X144527572Y-64476147D01*
X144438941Y-64183971D01*
X144295013Y-63914700D01*
X144101318Y-63678682D01*
X143895778Y-63510000D01*
X144101318Y-63341318D01*
X144295013Y-63105300D01*
X144438941Y-62836029D01*
X144527572Y-62543853D01*
X144557499Y-62240000D01*
X144527572Y-61936147D01*
X144438941Y-61643971D01*
X144295013Y-61374700D01*
X144101318Y-61138682D01*
X143895778Y-60970000D01*
X144101318Y-60801318D01*
X144295013Y-60565300D01*
X144438941Y-60296029D01*
X144527572Y-60003853D01*
X144557499Y-59700000D01*
X144527572Y-59396147D01*
X144438941Y-59103971D01*
X144295013Y-58834700D01*
X144101318Y-58598682D01*
X143895778Y-58430000D01*
X144101318Y-58261318D01*
X144295013Y-58025300D01*
X144438941Y-57756029D01*
X144527572Y-57463853D01*
X144557499Y-57160000D01*
X144527572Y-56856147D01*
X144438941Y-56563971D01*
X144295013Y-56294700D01*
X144101318Y-56058682D01*
X143895778Y-55890000D01*
X144101318Y-55721318D01*
X144295013Y-55485300D01*
X144438941Y-55216029D01*
X144527572Y-54923853D01*
X144557499Y-54620000D01*
X144527572Y-54316147D01*
X144438941Y-54023971D01*
X144295013Y-53754700D01*
X144101318Y-53518682D01*
X143895778Y-53350000D01*
X144101318Y-53181318D01*
X144295013Y-52945300D01*
X144438941Y-52676029D01*
X144527572Y-52383853D01*
X144557499Y-52080000D01*
X149062501Y-52080000D01*
X149092428Y-52383853D01*
X149181059Y-52676029D01*
X149324987Y-52945300D01*
X149518682Y-53181318D01*
X149724222Y-53350000D01*
X149518682Y-53518682D01*
X149324987Y-53754700D01*
X149181059Y-54023971D01*
X149092428Y-54316147D01*
X149062501Y-54620000D01*
X149092428Y-54923853D01*
X149181059Y-55216029D01*
X149324987Y-55485300D01*
X149518682Y-55721318D01*
X149724222Y-55890000D01*
X149518682Y-56058682D01*
X149324987Y-56294700D01*
X149181059Y-56563971D01*
X149092428Y-56856147D01*
X149062501Y-57160000D01*
X149092428Y-57463853D01*
X149181059Y-57756029D01*
X149324987Y-58025300D01*
X149518682Y-58261318D01*
X149724222Y-58430000D01*
X149518682Y-58598682D01*
X149324987Y-58834700D01*
X149181059Y-59103971D01*
X149092428Y-59396147D01*
X149062501Y-59700000D01*
X149092428Y-60003853D01*
X149181059Y-60296029D01*
X149324987Y-60565300D01*
X149518682Y-60801318D01*
X149724222Y-60970000D01*
X149518682Y-61138682D01*
X149324987Y-61374700D01*
X149181059Y-61643971D01*
X149092428Y-61936147D01*
X149062501Y-62240000D01*
X149092428Y-62543853D01*
X149181059Y-62836029D01*
X149324987Y-63105300D01*
X149518682Y-63341318D01*
X149724222Y-63510000D01*
X149518682Y-63678682D01*
X149324987Y-63914700D01*
X149181059Y-64183971D01*
X149092428Y-64476147D01*
X149062501Y-64780000D01*
X149092428Y-65083853D01*
X149181059Y-65376029D01*
X149324987Y-65645300D01*
X149518682Y-65881318D01*
X149724222Y-66050000D01*
X149518682Y-66218682D01*
X149324987Y-66454700D01*
X149181059Y-66723971D01*
X149092428Y-67016147D01*
X149062501Y-67320000D01*
X149092428Y-67623853D01*
X149181059Y-67916029D01*
X149324987Y-68185300D01*
X149518682Y-68421318D01*
X149733513Y-68597625D01*
X149607566Y-68686328D01*
X149398048Y-68906396D01*
X149235489Y-69163110D01*
X149148236Y-69373779D01*
X149280632Y-69610000D01*
X150370000Y-69610000D01*
X150370000Y-69590000D01*
X150870000Y-69590000D01*
X150870000Y-69610000D01*
X151959368Y-69610000D01*
X152091764Y-69373779D01*
X152004511Y-69163110D01*
X151841952Y-68906396D01*
X151632434Y-68686328D01*
X151506487Y-68597625D01*
X151721318Y-68421318D01*
X151915013Y-68185300D01*
X152058941Y-67916029D01*
X152147572Y-67623853D01*
X152177499Y-67320000D01*
X152147572Y-67016147D01*
X152078971Y-66790000D01*
X153996371Y-66790000D01*
X154010852Y-66937026D01*
X154053738Y-67078401D01*
X154123380Y-67208694D01*
X154217104Y-67322896D01*
X154331306Y-67416620D01*
X154461599Y-67486262D01*
X154602974Y-67529148D01*
X154750000Y-67543629D01*
X155062500Y-67540000D01*
X155250000Y-67352500D01*
X155250000Y-66290000D01*
X155750000Y-66290000D01*
X155750000Y-67352500D01*
X155937500Y-67540000D01*
X156250000Y-67543629D01*
X156397026Y-67529148D01*
X156538401Y-67486262D01*
X156668694Y-67416620D01*
X156782896Y-67322896D01*
X156876620Y-67208694D01*
X156946262Y-67078401D01*
X156989148Y-66937026D01*
X157003629Y-66790000D01*
X157000000Y-66477500D01*
X156812500Y-66290000D01*
X155750000Y-66290000D01*
X155250000Y-66290000D01*
X154187500Y-66290000D01*
X154000000Y-66477500D01*
X153996371Y-66790000D01*
X152078971Y-66790000D01*
X152058941Y-66723971D01*
X151915013Y-66454700D01*
X151721318Y-66218682D01*
X151515778Y-66050000D01*
X151721318Y-65881318D01*
X151915013Y-65645300D01*
X152058941Y-65376029D01*
X152085037Y-65290000D01*
X153996371Y-65290000D01*
X154000000Y-65602500D01*
X154187500Y-65790000D01*
X155250000Y-65790000D01*
X155250000Y-65770000D01*
X155750000Y-65770000D01*
X155750000Y-65790000D01*
X156812500Y-65790000D01*
X157000000Y-65602500D01*
X157003629Y-65290000D01*
X156989148Y-65142974D01*
X156946262Y-65001599D01*
X156945408Y-65000000D01*
X163242259Y-65000000D01*
X163273151Y-65313655D01*
X163364641Y-65615256D01*
X163513212Y-65893213D01*
X163713155Y-66136845D01*
X163956787Y-66336788D01*
X164234744Y-66485359D01*
X164536345Y-66576849D01*
X164771403Y-66600000D01*
X165228597Y-66600000D01*
X165463655Y-66576849D01*
X165765256Y-66485359D01*
X166043213Y-66336788D01*
X166286845Y-66136845D01*
X166486788Y-65893213D01*
X166635359Y-65615256D01*
X166726849Y-65313655D01*
X166757741Y-65000000D01*
X166726849Y-64686345D01*
X166635359Y-64384744D01*
X166486788Y-64106787D01*
X166330172Y-63915950D01*
X166459672Y-63809672D01*
X166584486Y-63657586D01*
X166677231Y-63484072D01*
X166734344Y-63295798D01*
X166753628Y-63100000D01*
X166753628Y-61900000D01*
X166734344Y-61704202D01*
X166677231Y-61515928D01*
X166584486Y-61342414D01*
X166459672Y-61190328D01*
X166307586Y-61065514D01*
X166134072Y-60972769D01*
X165945798Y-60915656D01*
X165750000Y-60896372D01*
X164250000Y-60896372D01*
X164054202Y-60915656D01*
X163865928Y-60972769D01*
X163692414Y-61065514D01*
X163540328Y-61190328D01*
X163415514Y-61342414D01*
X163322769Y-61515928D01*
X163265656Y-61704202D01*
X163246372Y-61900000D01*
X163246372Y-63100000D01*
X163265656Y-63295798D01*
X163322769Y-63484072D01*
X163415514Y-63657586D01*
X163540328Y-63809672D01*
X163669828Y-63915950D01*
X163513212Y-64106787D01*
X163364641Y-64384744D01*
X163273151Y-64686345D01*
X163242259Y-65000000D01*
X156945408Y-65000000D01*
X156876620Y-64871306D01*
X156782896Y-64757104D01*
X156668694Y-64663380D01*
X156538401Y-64593738D01*
X156530100Y-64591220D01*
X156665126Y-64456194D01*
X156829283Y-64210517D01*
X156942356Y-63937534D01*
X157000000Y-63647737D01*
X157000000Y-63352263D01*
X156942356Y-63062466D01*
X156829283Y-62789483D01*
X156665126Y-62543806D01*
X156456194Y-62334874D01*
X156299240Y-62230000D01*
X156456194Y-62125126D01*
X156665126Y-61916194D01*
X156829283Y-61670517D01*
X156942356Y-61397534D01*
X157000000Y-61107737D01*
X157000000Y-60812263D01*
X156942356Y-60522466D01*
X156829283Y-60249483D01*
X156665126Y-60003806D01*
X156456194Y-59794874D01*
X156210517Y-59630717D01*
X155937534Y-59517644D01*
X155647737Y-59460000D01*
X155352263Y-59460000D01*
X155062466Y-59517644D01*
X154789483Y-59630717D01*
X154543806Y-59794874D01*
X154334874Y-60003806D01*
X154170717Y-60249483D01*
X154057644Y-60522466D01*
X154000000Y-60812263D01*
X154000000Y-61107737D01*
X154057644Y-61397534D01*
X154170717Y-61670517D01*
X154334874Y-61916194D01*
X154543806Y-62125126D01*
X154700760Y-62230000D01*
X154543806Y-62334874D01*
X154334874Y-62543806D01*
X154170717Y-62789483D01*
X154057644Y-63062466D01*
X154000000Y-63352263D01*
X154000000Y-63647737D01*
X154057644Y-63937534D01*
X154170717Y-64210517D01*
X154334874Y-64456194D01*
X154469900Y-64591220D01*
X154461599Y-64593738D01*
X154331306Y-64663380D01*
X154217104Y-64757104D01*
X154123380Y-64871306D01*
X154053738Y-65001599D01*
X154010852Y-65142974D01*
X153996371Y-65290000D01*
X152085037Y-65290000D01*
X152147572Y-65083853D01*
X152177499Y-64780000D01*
X152147572Y-64476147D01*
X152058941Y-64183971D01*
X151915013Y-63914700D01*
X151721318Y-63678682D01*
X151515778Y-63510000D01*
X151721318Y-63341318D01*
X151915013Y-63105300D01*
X152058941Y-62836029D01*
X152147572Y-62543853D01*
X152177499Y-62240000D01*
X152147572Y-61936147D01*
X152058941Y-61643971D01*
X151915013Y-61374700D01*
X151721318Y-61138682D01*
X151515778Y-60970000D01*
X151721318Y-60801318D01*
X151915013Y-60565300D01*
X152058941Y-60296029D01*
X152147572Y-60003853D01*
X152177499Y-59700000D01*
X152147572Y-59396147D01*
X152058941Y-59103971D01*
X151915013Y-58834700D01*
X151721318Y-58598682D01*
X151515778Y-58430000D01*
X151721318Y-58261318D01*
X151915013Y-58025300D01*
X152058941Y-57756029D01*
X152147572Y-57463853D01*
X152177499Y-57160000D01*
X152147572Y-56856147D01*
X152058941Y-56563971D01*
X151932620Y-56327640D01*
X154250000Y-56327640D01*
X154250000Y-56672360D01*
X154317251Y-57010456D01*
X154449170Y-57328936D01*
X154640686Y-57615560D01*
X154884440Y-57859314D01*
X155171064Y-58050830D01*
X155489544Y-58182749D01*
X155827640Y-58250000D01*
X156172360Y-58250000D01*
X156510456Y-58182749D01*
X156828936Y-58050830D01*
X157115560Y-57859314D01*
X157359314Y-57615560D01*
X157550830Y-57328936D01*
X157682749Y-57010456D01*
X157750000Y-56672360D01*
X157750000Y-56327640D01*
X163250000Y-56327640D01*
X163250000Y-56672360D01*
X163317251Y-57010456D01*
X163449170Y-57328936D01*
X163640686Y-57615560D01*
X163884440Y-57859314D01*
X164171064Y-58050830D01*
X164489544Y-58182749D01*
X164827640Y-58250000D01*
X165172360Y-58250000D01*
X165510456Y-58182749D01*
X165828936Y-58050830D01*
X166115560Y-57859314D01*
X166359314Y-57615560D01*
X166550830Y-57328936D01*
X166682749Y-57010456D01*
X166750000Y-56672360D01*
X166750000Y-56327640D01*
X166682749Y-55989544D01*
X166550830Y-55671064D01*
X166359314Y-55384440D01*
X166115560Y-55140686D01*
X165828936Y-54949170D01*
X165510456Y-54817251D01*
X165172360Y-54750000D01*
X164827640Y-54750000D01*
X164489544Y-54817251D01*
X164171064Y-54949170D01*
X163884440Y-55140686D01*
X163640686Y-55384440D01*
X163449170Y-55671064D01*
X163317251Y-55989544D01*
X163250000Y-56327640D01*
X157750000Y-56327640D01*
X157682749Y-55989544D01*
X157550830Y-55671064D01*
X157359314Y-55384440D01*
X157115560Y-55140686D01*
X156828936Y-54949170D01*
X156510456Y-54817251D01*
X156172360Y-54750000D01*
X155827640Y-54750000D01*
X155489544Y-54817251D01*
X155171064Y-54949170D01*
X154884440Y-55140686D01*
X154640686Y-55384440D01*
X154449170Y-55671064D01*
X154317251Y-55989544D01*
X154250000Y-56327640D01*
X151932620Y-56327640D01*
X151915013Y-56294700D01*
X151721318Y-56058682D01*
X151515778Y-55890000D01*
X151721318Y-55721318D01*
X151915013Y-55485300D01*
X152058941Y-55216029D01*
X152147572Y-54923853D01*
X152177499Y-54620000D01*
X152147572Y-54316147D01*
X152058941Y-54023971D01*
X151915013Y-53754700D01*
X151721318Y-53518682D01*
X151515778Y-53350000D01*
X151721318Y-53181318D01*
X151915013Y-52945300D01*
X152058941Y-52676029D01*
X152147572Y-52383853D01*
X152156815Y-52290000D01*
X153996371Y-52290000D01*
X154010852Y-52437026D01*
X154053738Y-52578401D01*
X154123380Y-52708694D01*
X154217104Y-52822896D01*
X154331306Y-52916620D01*
X154461599Y-52986262D01*
X154602974Y-53029148D01*
X154750000Y-53043629D01*
X155062500Y-53040000D01*
X155250000Y-52852500D01*
X155250000Y-51790000D01*
X155750000Y-51790000D01*
X155750000Y-52852500D01*
X155937500Y-53040000D01*
X156250000Y-53043629D01*
X156397026Y-53029148D01*
X156538401Y-52986262D01*
X156668694Y-52916620D01*
X156782896Y-52822896D01*
X156876620Y-52708694D01*
X156946262Y-52578401D01*
X156989148Y-52437026D01*
X157003629Y-52290000D01*
X157000000Y-51977500D01*
X156812500Y-51790000D01*
X155750000Y-51790000D01*
X155250000Y-51790000D01*
X154187500Y-51790000D01*
X154000000Y-51977500D01*
X153996371Y-52290000D01*
X152156815Y-52290000D01*
X152177499Y-52080000D01*
X152147572Y-51776147D01*
X152058941Y-51483971D01*
X151915013Y-51214700D01*
X151721318Y-50978682D01*
X151506487Y-50802375D01*
X151524057Y-50790000D01*
X153996371Y-50790000D01*
X154000000Y-51102500D01*
X154187500Y-51290000D01*
X155250000Y-51290000D01*
X155250000Y-51270000D01*
X155750000Y-51270000D01*
X155750000Y-51290000D01*
X156812500Y-51290000D01*
X157000000Y-51102500D01*
X157003629Y-50790000D01*
X156989148Y-50642974D01*
X156946262Y-50501599D01*
X156945408Y-50500000D01*
X163242259Y-50500000D01*
X163273151Y-50813655D01*
X163364641Y-51115256D01*
X163513212Y-51393213D01*
X163713155Y-51636845D01*
X163956787Y-51836788D01*
X164234744Y-51985359D01*
X164536345Y-52076849D01*
X164771403Y-52100000D01*
X165228597Y-52100000D01*
X165463655Y-52076849D01*
X165765256Y-51985359D01*
X166043213Y-51836788D01*
X166286845Y-51636845D01*
X166486788Y-51393213D01*
X166635359Y-51115256D01*
X166726849Y-50813655D01*
X166757741Y-50500000D01*
X166726849Y-50186345D01*
X166635359Y-49884744D01*
X166486788Y-49606787D01*
X166330172Y-49415950D01*
X166459672Y-49309672D01*
X166584486Y-49157586D01*
X166677231Y-48984072D01*
X166734344Y-48795798D01*
X166753628Y-48600000D01*
X166753628Y-47400000D01*
X166734344Y-47204202D01*
X166677231Y-47015928D01*
X166584486Y-46842414D01*
X166459672Y-46690328D01*
X166307586Y-46565514D01*
X166134072Y-46472769D01*
X165945798Y-46415656D01*
X165750000Y-46396372D01*
X164250000Y-46396372D01*
X164054202Y-46415656D01*
X163865928Y-46472769D01*
X163692414Y-46565514D01*
X163540328Y-46690328D01*
X163415514Y-46842414D01*
X163322769Y-47015928D01*
X163265656Y-47204202D01*
X163246372Y-47400000D01*
X163246372Y-48600000D01*
X163265656Y-48795798D01*
X163322769Y-48984072D01*
X163415514Y-49157586D01*
X163540328Y-49309672D01*
X163669828Y-49415950D01*
X163513212Y-49606787D01*
X163364641Y-49884744D01*
X163273151Y-50186345D01*
X163242259Y-50500000D01*
X156945408Y-50500000D01*
X156876620Y-50371306D01*
X156782896Y-50257104D01*
X156668694Y-50163380D01*
X156538401Y-50093738D01*
X156530100Y-50091220D01*
X156665126Y-49956194D01*
X156829283Y-49710517D01*
X156942356Y-49437534D01*
X157000000Y-49147737D01*
X157000000Y-48852263D01*
X156942356Y-48562466D01*
X156829283Y-48289483D01*
X156665126Y-48043806D01*
X156456194Y-47834874D01*
X156299240Y-47730000D01*
X156456194Y-47625126D01*
X156665126Y-47416194D01*
X156829283Y-47170517D01*
X156942356Y-46897534D01*
X157000000Y-46607737D01*
X157000000Y-46312263D01*
X156942356Y-46022466D01*
X156829283Y-45749483D01*
X156665126Y-45503806D01*
X156456194Y-45294874D01*
X156210517Y-45130717D01*
X155937534Y-45017644D01*
X155647737Y-44960000D01*
X155352263Y-44960000D01*
X155062466Y-45017644D01*
X154789483Y-45130717D01*
X154543806Y-45294874D01*
X154334874Y-45503806D01*
X154170717Y-45749483D01*
X154057644Y-46022466D01*
X154000000Y-46312263D01*
X154000000Y-46607737D01*
X154057644Y-46897534D01*
X154170717Y-47170517D01*
X154334874Y-47416194D01*
X154543806Y-47625126D01*
X154700760Y-47730000D01*
X154543806Y-47834874D01*
X154334874Y-48043806D01*
X154170717Y-48289483D01*
X154057644Y-48562466D01*
X154000000Y-48852263D01*
X154000000Y-49147737D01*
X154057644Y-49437534D01*
X154170717Y-49710517D01*
X154334874Y-49956194D01*
X154469900Y-50091220D01*
X154461599Y-50093738D01*
X154331306Y-50163380D01*
X154217104Y-50257104D01*
X154123380Y-50371306D01*
X154053738Y-50501599D01*
X154010852Y-50642974D01*
X153996371Y-50790000D01*
X151524057Y-50790000D01*
X151632434Y-50713672D01*
X151841952Y-50493604D01*
X152004511Y-50236890D01*
X152091764Y-50026221D01*
X151959368Y-49790000D01*
X150870000Y-49790000D01*
X150870000Y-49810000D01*
X150370000Y-49810000D01*
X150370000Y-49790000D01*
X149280632Y-49790000D01*
X149148236Y-50026221D01*
X149235489Y-50236890D01*
X149398048Y-50493604D01*
X149607566Y-50713672D01*
X149733513Y-50802375D01*
X149518682Y-50978682D01*
X149324987Y-51214700D01*
X149181059Y-51483971D01*
X149092428Y-51776147D01*
X149062501Y-52080000D01*
X144557499Y-52080000D01*
X144527572Y-51776147D01*
X144438941Y-51483971D01*
X144295013Y-51214700D01*
X144101318Y-50978682D01*
X143895778Y-50810000D01*
X144101318Y-50641318D01*
X144295013Y-50405300D01*
X144438941Y-50136029D01*
X144527572Y-49843853D01*
X144557499Y-49540000D01*
X144527572Y-49236147D01*
X144438941Y-48943971D01*
X144295013Y-48674700D01*
X144130226Y-48473906D01*
X144218694Y-48426620D01*
X144332896Y-48332896D01*
X144426620Y-48218694D01*
X144496262Y-48088401D01*
X144539148Y-47947026D01*
X144553629Y-47800000D01*
X144550488Y-47486221D01*
X149148236Y-47486221D01*
X149235489Y-47696890D01*
X149398048Y-47953604D01*
X149607566Y-48173672D01*
X149744339Y-48270000D01*
X149607566Y-48366328D01*
X149398048Y-48586396D01*
X149235489Y-48843110D01*
X149148236Y-49053779D01*
X149280632Y-49290000D01*
X150370000Y-49290000D01*
X150370000Y-47250000D01*
X150870000Y-47250000D01*
X150870000Y-49290000D01*
X151959368Y-49290000D01*
X152091764Y-49053779D01*
X152004511Y-48843110D01*
X151841952Y-48586396D01*
X151632434Y-48366328D01*
X151495661Y-48270000D01*
X151632434Y-48173672D01*
X151841952Y-47953604D01*
X152004511Y-47696890D01*
X152091764Y-47486221D01*
X151959368Y-47250000D01*
X150870000Y-47250000D01*
X150370000Y-47250000D01*
X149280632Y-47250000D01*
X149148236Y-47486221D01*
X144550488Y-47486221D01*
X144550000Y-47437500D01*
X144362500Y-47250000D01*
X143250000Y-47250000D01*
X143250000Y-47270000D01*
X142750000Y-47270000D01*
X142750000Y-47250000D01*
X142730000Y-47250000D01*
X142730000Y-46750000D01*
X142750000Y-46750000D01*
X142750000Y-45637500D01*
X143250000Y-45637500D01*
X143250000Y-46750000D01*
X144362500Y-46750000D01*
X144550000Y-46562500D01*
X144550487Y-46513779D01*
X149148236Y-46513779D01*
X149280632Y-46750000D01*
X150370000Y-46750000D01*
X150370000Y-45657785D01*
X150870000Y-45657785D01*
X150870000Y-46750000D01*
X151959368Y-46750000D01*
X152091764Y-46513779D01*
X152004511Y-46303110D01*
X151841952Y-46046396D01*
X151632434Y-45826328D01*
X151384008Y-45651364D01*
X151106222Y-45528227D01*
X150870000Y-45657785D01*
X150370000Y-45657785D01*
X150133778Y-45528227D01*
X149855992Y-45651364D01*
X149607566Y-45826328D01*
X149398048Y-46046396D01*
X149235489Y-46303110D01*
X149148236Y-46513779D01*
X144550487Y-46513779D01*
X144553629Y-46200000D01*
X144539148Y-46052974D01*
X144496262Y-45911599D01*
X144426620Y-45781306D01*
X144332896Y-45667104D01*
X144218694Y-45573380D01*
X144088401Y-45503738D01*
X143947026Y-45460852D01*
X143800000Y-45446371D01*
X143437500Y-45450000D01*
X143250000Y-45637500D01*
X142750000Y-45637500D01*
X142562500Y-45450000D01*
X142200000Y-45446371D01*
X142052974Y-45460852D01*
X141911599Y-45503738D01*
X141781306Y-45573380D01*
X141667104Y-45667104D01*
X141574571Y-45779855D01*
X141379247Y-45724306D01*
X140603553Y-46500000D01*
X141379247Y-47275694D01*
X141469586Y-47250002D01*
X141637498Y-47250002D01*
X141450000Y-47437500D01*
X141446371Y-47800000D01*
X141460852Y-47947026D01*
X141503738Y-48088401D01*
X141573380Y-48218694D01*
X141667104Y-48332896D01*
X141781306Y-48426620D01*
X141869774Y-48473906D01*
X141704987Y-48674700D01*
X141561059Y-48943971D01*
X141472428Y-49236147D01*
X141442501Y-49540000D01*
X141472428Y-49843853D01*
X141561059Y-50136029D01*
X141704987Y-50405300D01*
X141898682Y-50641318D01*
X142104222Y-50810000D01*
X141898682Y-50978682D01*
X141760228Y-51147389D01*
X141740435Y-51047882D01*
X141623592Y-50765800D01*
X141453964Y-50511932D01*
X141238068Y-50296036D01*
X140984200Y-50126408D01*
X140702118Y-50009565D01*
X140402662Y-49950000D01*
X140097338Y-49950000D01*
X139797882Y-50009565D01*
X139515800Y-50126408D01*
X139261932Y-50296036D01*
X139046036Y-50511932D01*
X138876408Y-50765800D01*
X138759565Y-51047882D01*
X138700000Y-51347338D01*
X130218709Y-51347338D01*
X130234344Y-51295798D01*
X130253628Y-51100000D01*
X130253628Y-50750000D01*
X134496371Y-50750000D01*
X134500000Y-51062500D01*
X134687500Y-51250000D01*
X135750000Y-51250000D01*
X135750000Y-51230000D01*
X136250000Y-51230000D01*
X136250000Y-51250000D01*
X137312500Y-51250000D01*
X137500000Y-51062500D01*
X137503629Y-50750000D01*
X137489148Y-50602974D01*
X137446262Y-50461599D01*
X137376620Y-50331306D01*
X137282896Y-50217104D01*
X137168694Y-50123380D01*
X137038401Y-50053738D01*
X137030100Y-50051220D01*
X137165126Y-49916194D01*
X137329283Y-49670517D01*
X137442356Y-49397534D01*
X137500000Y-49107737D01*
X137500000Y-48812263D01*
X137442356Y-48522466D01*
X137329283Y-48249483D01*
X137165126Y-48003806D01*
X136956194Y-47794874D01*
X136799240Y-47690000D01*
X136890162Y-47629247D01*
X139474306Y-47629247D01*
X139548649Y-47890653D01*
X139833429Y-48000758D01*
X140134216Y-48053190D01*
X140439454Y-48045935D01*
X140737411Y-47979270D01*
X140951351Y-47890653D01*
X141025694Y-47629247D01*
X140250000Y-46853553D01*
X139474306Y-47629247D01*
X136890162Y-47629247D01*
X136956194Y-47585126D01*
X137165126Y-47376194D01*
X137329283Y-47130517D01*
X137442356Y-46857534D01*
X137500000Y-46567737D01*
X137500000Y-46384216D01*
X138696810Y-46384216D01*
X138704065Y-46689454D01*
X138770730Y-46987411D01*
X138859347Y-47201351D01*
X139120753Y-47275694D01*
X139896447Y-46500000D01*
X139120753Y-45724306D01*
X138859347Y-45798649D01*
X138749242Y-46083429D01*
X138696810Y-46384216D01*
X137500000Y-46384216D01*
X137500000Y-46272263D01*
X137442356Y-45982466D01*
X137329283Y-45709483D01*
X137165126Y-45463806D01*
X137072073Y-45370753D01*
X139474306Y-45370753D01*
X140250000Y-46146447D01*
X141025694Y-45370753D01*
X140951351Y-45109347D01*
X140666571Y-44999242D01*
X140365784Y-44946810D01*
X140060546Y-44954065D01*
X139762589Y-45020730D01*
X139548649Y-45109347D01*
X139474306Y-45370753D01*
X137072073Y-45370753D01*
X136956194Y-45254874D01*
X136710517Y-45090717D01*
X136437534Y-44977644D01*
X136147737Y-44920000D01*
X135852263Y-44920000D01*
X135562466Y-44977644D01*
X135289483Y-45090717D01*
X135043806Y-45254874D01*
X134834874Y-45463806D01*
X134670717Y-45709483D01*
X134557644Y-45982466D01*
X134500000Y-46272263D01*
X134500000Y-46567737D01*
X134557644Y-46857534D01*
X134670717Y-47130517D01*
X134834874Y-47376194D01*
X135043806Y-47585126D01*
X135200760Y-47690000D01*
X135043806Y-47794874D01*
X134834874Y-48003806D01*
X134670717Y-48249483D01*
X134557644Y-48522466D01*
X134500000Y-48812263D01*
X134500000Y-49107737D01*
X134557644Y-49397534D01*
X134670717Y-49670517D01*
X134834874Y-49916194D01*
X134969900Y-50051220D01*
X134961599Y-50053738D01*
X134831306Y-50123380D01*
X134717104Y-50217104D01*
X134623380Y-50331306D01*
X134553738Y-50461599D01*
X134510852Y-50602974D01*
X134496371Y-50750000D01*
X130253628Y-50750000D01*
X130253628Y-49900000D01*
X130234344Y-49704202D01*
X130177231Y-49515928D01*
X130084486Y-49342414D01*
X129959672Y-49190328D01*
X129830172Y-49084050D01*
X129986788Y-48893213D01*
X130135359Y-48615256D01*
X130226849Y-48313655D01*
X130257741Y-48000000D01*
X130226849Y-47686345D01*
X130135359Y-47384744D01*
X129986788Y-47106787D01*
X129786845Y-46863155D01*
X129543213Y-46663212D01*
X129265256Y-46514641D01*
X128963655Y-46423151D01*
X128728597Y-46400000D01*
X128271403Y-46400000D01*
X128036345Y-46423151D01*
X127734744Y-46514641D01*
X127456787Y-46663212D01*
X127213155Y-46863155D01*
X127013212Y-47106787D01*
X126864641Y-47384744D01*
X126773151Y-47686345D01*
X126742259Y-48000000D01*
X124775000Y-48000000D01*
X124775000Y-40750000D01*
X131000000Y-40750000D01*
X131048773Y-40745196D01*
X131095671Y-40730970D01*
X131138893Y-40707867D01*
X131176777Y-40676777D01*
X131207867Y-40638893D01*
X131230970Y-40595671D01*
X131245196Y-40548773D01*
X131250000Y-40500000D01*
X131250000Y-37275000D01*
X134396372Y-37275000D01*
X134396372Y-38725000D01*
X134415656Y-38920798D01*
X134472769Y-39109072D01*
X134565514Y-39282586D01*
X134690328Y-39434672D01*
X134842414Y-39559486D01*
X135015928Y-39652231D01*
X135204202Y-39709344D01*
X135400000Y-39728628D01*
X136600000Y-39728628D01*
X136795798Y-39709344D01*
X136984072Y-39652231D01*
X137157586Y-39559486D01*
X137309672Y-39434672D01*
X137420928Y-39299106D01*
X137666426Y-39484980D01*
X137947762Y-39621471D01*
X138005857Y-39646783D01*
X138250000Y-39515200D01*
X138250000Y-38250000D01*
X138230000Y-38250000D01*
X138230000Y-37750000D01*
X138250000Y-37750000D01*
X138250000Y-36484800D01*
X138750000Y-36484800D01*
X138750000Y-37750000D01*
X138770000Y-37750000D01*
X138770000Y-38250000D01*
X138750000Y-38250000D01*
X138750000Y-39515200D01*
X138994143Y-39646783D01*
X139052238Y-39621471D01*
X139333574Y-39484980D01*
X139582876Y-39296226D01*
X139743240Y-39115728D01*
X139863155Y-39261845D01*
X140106788Y-39461788D01*
X140384745Y-39610359D01*
X140686346Y-39701849D01*
X141000000Y-39732741D01*
X141313655Y-39701849D01*
X141615256Y-39610359D01*
X141893213Y-39461788D01*
X142136845Y-39261845D01*
X142250000Y-39123965D01*
X142363155Y-39261845D01*
X142606788Y-39461788D01*
X142884745Y-39610359D01*
X143186346Y-39701849D01*
X143500000Y-39732741D01*
X143813655Y-39701849D01*
X144115256Y-39610359D01*
X144393213Y-39461788D01*
X144636845Y-39261845D01*
X144836788Y-39018213D01*
X144985359Y-38740255D01*
X145076849Y-38438654D01*
X145100000Y-38203596D01*
X145100000Y-37796403D01*
X145076849Y-37561345D01*
X144989987Y-37275000D01*
X148396372Y-37275000D01*
X148396372Y-38725000D01*
X148415656Y-38920798D01*
X148472769Y-39109072D01*
X148565514Y-39282586D01*
X148690328Y-39434672D01*
X148842414Y-39559486D01*
X149015928Y-39652231D01*
X149204202Y-39709344D01*
X149400000Y-39728628D01*
X150600000Y-39728628D01*
X150795798Y-39709344D01*
X150984072Y-39652231D01*
X151157586Y-39559486D01*
X151309672Y-39434672D01*
X151420928Y-39299106D01*
X151666426Y-39484980D01*
X151947762Y-39621471D01*
X152005857Y-39646783D01*
X152250000Y-39515200D01*
X152250000Y-38250000D01*
X152230000Y-38250000D01*
X152230000Y-37750000D01*
X152250000Y-37750000D01*
X152250000Y-36484800D01*
X152750000Y-36484800D01*
X152750000Y-37750000D01*
X152770000Y-37750000D01*
X152770000Y-38250000D01*
X152750000Y-38250000D01*
X152750000Y-39515200D01*
X152994143Y-39646783D01*
X153052238Y-39621471D01*
X153333574Y-39484980D01*
X153582876Y-39296226D01*
X153743240Y-39115728D01*
X153863155Y-39261845D01*
X154106788Y-39461788D01*
X154384745Y-39610359D01*
X154686346Y-39701849D01*
X155000000Y-39732741D01*
X155313655Y-39701849D01*
X155615256Y-39610359D01*
X155893213Y-39461788D01*
X156136845Y-39261845D01*
X156250000Y-39123965D01*
X156363155Y-39261845D01*
X156606788Y-39461788D01*
X156884745Y-39610359D01*
X157186346Y-39701849D01*
X157500000Y-39732741D01*
X157813655Y-39701849D01*
X158115256Y-39610359D01*
X158393213Y-39461788D01*
X158636845Y-39261845D01*
X158836788Y-39018213D01*
X158985359Y-38740255D01*
X159076849Y-38438654D01*
X159100000Y-38203596D01*
X159100000Y-37796403D01*
X159076849Y-37561345D01*
X158985359Y-37259744D01*
X158836788Y-36981787D01*
X158636845Y-36738155D01*
X158393212Y-36538212D01*
X158115255Y-36389641D01*
X157813654Y-36298151D01*
X157500000Y-36267259D01*
X157186345Y-36298151D01*
X156884744Y-36389641D01*
X156606787Y-36538212D01*
X156363155Y-36738155D01*
X156250000Y-36876035D01*
X156136845Y-36738155D01*
X155893212Y-36538212D01*
X155615255Y-36389641D01*
X155313654Y-36298151D01*
X155000000Y-36267259D01*
X154686345Y-36298151D01*
X154384744Y-36389641D01*
X154106787Y-36538212D01*
X153863155Y-36738155D01*
X153743241Y-36884272D01*
X153582876Y-36703774D01*
X153333574Y-36515020D01*
X153052238Y-36378529D01*
X152994143Y-36353217D01*
X152750000Y-36484800D01*
X152250000Y-36484800D01*
X152005857Y-36353217D01*
X151947762Y-36378529D01*
X151666426Y-36515020D01*
X151420928Y-36700894D01*
X151309672Y-36565328D01*
X151157586Y-36440514D01*
X150984072Y-36347769D01*
X150795798Y-36290656D01*
X150600000Y-36271372D01*
X149400000Y-36271372D01*
X149204202Y-36290656D01*
X149015928Y-36347769D01*
X148842414Y-36440514D01*
X148690328Y-36565328D01*
X148565514Y-36717414D01*
X148472769Y-36890928D01*
X148415656Y-37079202D01*
X148396372Y-37275000D01*
X144989987Y-37275000D01*
X144985359Y-37259744D01*
X144836788Y-36981787D01*
X144636845Y-36738155D01*
X144393212Y-36538212D01*
X144115255Y-36389641D01*
X143813654Y-36298151D01*
X143500000Y-36267259D01*
X143186345Y-36298151D01*
X142884744Y-36389641D01*
X142606787Y-36538212D01*
X142363155Y-36738155D01*
X142250000Y-36876035D01*
X142136845Y-36738155D01*
X141893212Y-36538212D01*
X141615255Y-36389641D01*
X141313654Y-36298151D01*
X141000000Y-36267259D01*
X140686345Y-36298151D01*
X140384744Y-36389641D01*
X140106787Y-36538212D01*
X139863155Y-36738155D01*
X139743241Y-36884272D01*
X139582876Y-36703774D01*
X139333574Y-36515020D01*
X139052238Y-36378529D01*
X138994143Y-36353217D01*
X138750000Y-36484800D01*
X138250000Y-36484800D01*
X138005857Y-36353217D01*
X137947762Y-36378529D01*
X137666426Y-36515020D01*
X137420928Y-36700894D01*
X137309672Y-36565328D01*
X137157586Y-36440514D01*
X136984072Y-36347769D01*
X136795798Y-36290656D01*
X136600000Y-36271372D01*
X135400000Y-36271372D01*
X135204202Y-36290656D01*
X135015928Y-36347769D01*
X134842414Y-36440514D01*
X134690328Y-36565328D01*
X134565514Y-36717414D01*
X134472769Y-36890928D01*
X134415656Y-37079202D01*
X134396372Y-37275000D01*
X131250000Y-37275000D01*
X131250000Y-34275000D01*
X162250000Y-34275000D01*
X162250000Y-40500000D01*
X162250000Y-40500000D01*
G37*
X162250000Y-40500000D02*
X162254804Y-40548773D01*
X162269030Y-40595671D01*
X162292133Y-40638893D01*
X162323223Y-40676777D01*
X162361107Y-40707867D01*
X162404329Y-40730970D01*
X162451227Y-40745196D01*
X162500000Y-40750000D01*
X168725000Y-40750000D01*
X168725001Y-74750000D01*
X162500000Y-74750000D01*
X162451227Y-74754804D01*
X162404329Y-74769030D01*
X162361107Y-74792133D01*
X162323223Y-74823223D01*
X162292133Y-74861107D01*
X162269030Y-74904329D01*
X162254804Y-74951227D01*
X162250000Y-75000000D01*
X162250000Y-81225000D01*
X131250000Y-81225000D01*
X131250000Y-77997839D01*
X143943074Y-77997839D01*
X144040850Y-78294897D01*
X144194700Y-78567172D01*
X144398712Y-78804200D01*
X144645046Y-78996873D01*
X144924236Y-79137786D01*
X145005857Y-79171783D01*
X145250000Y-79040200D01*
X145250000Y-77750000D01*
X144095328Y-77750000D01*
X143943074Y-77997839D01*
X131250000Y-77997839D01*
X131250000Y-77002161D01*
X143943074Y-77002161D01*
X144095328Y-77250000D01*
X145250000Y-77250000D01*
X145250000Y-75959800D01*
X145750000Y-75959800D01*
X145750000Y-77250000D01*
X145770000Y-77250000D01*
X145770000Y-77750000D01*
X145750000Y-77750000D01*
X145750000Y-79040200D01*
X145994143Y-79171783D01*
X146075764Y-79137786D01*
X146354954Y-78996873D01*
X146577807Y-78822566D01*
X146690328Y-78959672D01*
X146842414Y-79084486D01*
X147015928Y-79177231D01*
X147204202Y-79234344D01*
X147400000Y-79253628D01*
X148600000Y-79253628D01*
X148795798Y-79234344D01*
X148984072Y-79177231D01*
X149157586Y-79084486D01*
X149309672Y-78959672D01*
X149434486Y-78807586D01*
X149527231Y-78634072D01*
X149584344Y-78445798D01*
X149603628Y-78250000D01*
X149603628Y-76750000D01*
X149584344Y-76554202D01*
X149527231Y-76365928D01*
X149434486Y-76192414D01*
X149309672Y-76040328D01*
X149157586Y-75915514D01*
X148984072Y-75822769D01*
X148795798Y-75765656D01*
X148600000Y-75746372D01*
X147400000Y-75746372D01*
X147204202Y-75765656D01*
X147015928Y-75822769D01*
X146842414Y-75915514D01*
X146690328Y-76040328D01*
X146577807Y-76177434D01*
X146354954Y-76003127D01*
X146075764Y-75862214D01*
X145994143Y-75828217D01*
X145750000Y-75959800D01*
X145250000Y-75959800D01*
X145005857Y-75828217D01*
X144924236Y-75862214D01*
X144645046Y-76003127D01*
X144398712Y-76195800D01*
X144194700Y-76432828D01*
X144040850Y-76705103D01*
X143943074Y-77002161D01*
X131250000Y-77002161D01*
X131250000Y-75000000D01*
X131245196Y-74951227D01*
X131230970Y-74904329D01*
X131207867Y-74861107D01*
X131176777Y-74823223D01*
X131138893Y-74792133D01*
X131095671Y-74769030D01*
X131048773Y-74754804D01*
X131000000Y-74750000D01*
X124775000Y-74750000D01*
X124775000Y-70827640D01*
X126750000Y-70827640D01*
X126750000Y-71172360D01*
X126817251Y-71510456D01*
X126949170Y-71828936D01*
X127140686Y-72115560D01*
X127384440Y-72359314D01*
X127671064Y-72550830D01*
X127989544Y-72682749D01*
X128327640Y-72750000D01*
X128672360Y-72750000D01*
X129010456Y-72682749D01*
X129328936Y-72550830D01*
X129615560Y-72359314D01*
X129859314Y-72115560D01*
X130050830Y-71828936D01*
X130182749Y-71510456D01*
X130250000Y-71172360D01*
X130250000Y-70827640D01*
X135750000Y-70827640D01*
X135750000Y-71172360D01*
X135817251Y-71510456D01*
X135949170Y-71828936D01*
X136140686Y-72115560D01*
X136384440Y-72359314D01*
X136671064Y-72550830D01*
X136989544Y-72682749D01*
X137327640Y-72750000D01*
X137672360Y-72750000D01*
X138010456Y-72682749D01*
X138328936Y-72550830D01*
X138615560Y-72359314D01*
X138859314Y-72115560D01*
X139050830Y-71828936D01*
X139182749Y-71510456D01*
X139250000Y-71172360D01*
X139250000Y-70827640D01*
X139182749Y-70489544D01*
X139123383Y-70346221D01*
X141528236Y-70346221D01*
X141615489Y-70556890D01*
X141778048Y-70813604D01*
X141987566Y-71033672D01*
X142235992Y-71208636D01*
X142513778Y-71331773D01*
X142750000Y-71202215D01*
X142750000Y-70110000D01*
X143250000Y-70110000D01*
X143250000Y-71202215D01*
X143486222Y-71331773D01*
X143764008Y-71208636D01*
X144012434Y-71033672D01*
X144221952Y-70813604D01*
X144384511Y-70556890D01*
X144471764Y-70346221D01*
X149148236Y-70346221D01*
X149235489Y-70556890D01*
X149398048Y-70813604D01*
X149607566Y-71033672D01*
X149855992Y-71208636D01*
X150133778Y-71331773D01*
X150370000Y-71202215D01*
X150370000Y-70110000D01*
X150870000Y-70110000D01*
X150870000Y-71202215D01*
X151106222Y-71331773D01*
X151384008Y-71208636D01*
X151632434Y-71033672D01*
X151828588Y-70827640D01*
X154250000Y-70827640D01*
X154250000Y-71172360D01*
X154317251Y-71510456D01*
X154449170Y-71828936D01*
X154640686Y-72115560D01*
X154884440Y-72359314D01*
X155171064Y-72550830D01*
X155489544Y-72682749D01*
X155827640Y-72750000D01*
X156172360Y-72750000D01*
X156510456Y-72682749D01*
X156828936Y-72550830D01*
X157115560Y-72359314D01*
X157359314Y-72115560D01*
X157550830Y-71828936D01*
X157682749Y-71510456D01*
X157750000Y-71172360D01*
X157750000Y-70827640D01*
X163250000Y-70827640D01*
X163250000Y-71172360D01*
X163317251Y-71510456D01*
X163449170Y-71828936D01*
X163640686Y-72115560D01*
X163884440Y-72359314D01*
X164171064Y-72550830D01*
X164489544Y-72682749D01*
X164827640Y-72750000D01*
X165172360Y-72750000D01*
X165510456Y-72682749D01*
X165828936Y-72550830D01*
X166115560Y-72359314D01*
X166359314Y-72115560D01*
X166550830Y-71828936D01*
X166682749Y-71510456D01*
X166750000Y-71172360D01*
X166750000Y-70827640D01*
X166682749Y-70489544D01*
X166550830Y-70171064D01*
X166359314Y-69884440D01*
X166115560Y-69640686D01*
X165828936Y-69449170D01*
X165510456Y-69317251D01*
X165172360Y-69250000D01*
X164827640Y-69250000D01*
X164489544Y-69317251D01*
X164171064Y-69449170D01*
X163884440Y-69640686D01*
X163640686Y-69884440D01*
X163449170Y-70171064D01*
X163317251Y-70489544D01*
X163250000Y-70827640D01*
X157750000Y-70827640D01*
X157682749Y-70489544D01*
X157550830Y-70171064D01*
X157359314Y-69884440D01*
X157115560Y-69640686D01*
X156828936Y-69449170D01*
X156510456Y-69317251D01*
X156172360Y-69250000D01*
X155827640Y-69250000D01*
X155489544Y-69317251D01*
X155171064Y-69449170D01*
X154884440Y-69640686D01*
X154640686Y-69884440D01*
X154449170Y-70171064D01*
X154317251Y-70489544D01*
X154250000Y-70827640D01*
X151828588Y-70827640D01*
X151841952Y-70813604D01*
X152004511Y-70556890D01*
X152091764Y-70346221D01*
X151959368Y-70110000D01*
X150870000Y-70110000D01*
X150370000Y-70110000D01*
X149280632Y-70110000D01*
X149148236Y-70346221D01*
X144471764Y-70346221D01*
X144339368Y-70110000D01*
X143250000Y-70110000D01*
X142750000Y-70110000D01*
X141660632Y-70110000D01*
X141528236Y-70346221D01*
X139123383Y-70346221D01*
X139050830Y-70171064D01*
X138859314Y-69884440D01*
X138615560Y-69640686D01*
X138328936Y-69449170D01*
X138010456Y-69317251D01*
X137672360Y-69250000D01*
X137327640Y-69250000D01*
X136989544Y-69317251D01*
X136671064Y-69449170D01*
X136384440Y-69640686D01*
X136140686Y-69884440D01*
X135949170Y-70171064D01*
X135817251Y-70489544D01*
X135750000Y-70827640D01*
X130250000Y-70827640D01*
X130182749Y-70489544D01*
X130050830Y-70171064D01*
X129859314Y-69884440D01*
X129615560Y-69640686D01*
X129328936Y-69449170D01*
X129010456Y-69317251D01*
X128672360Y-69250000D01*
X128327640Y-69250000D01*
X127989544Y-69317251D01*
X127671064Y-69449170D01*
X127384440Y-69640686D01*
X127140686Y-69884440D01*
X126949170Y-70171064D01*
X126817251Y-70489544D01*
X126750000Y-70827640D01*
X124775000Y-70827640D01*
X124775000Y-67806221D01*
X141528236Y-67806221D01*
X141615489Y-68016890D01*
X141778048Y-68273604D01*
X141987566Y-68493672D01*
X142124339Y-68590000D01*
X141987566Y-68686328D01*
X141778048Y-68906396D01*
X141615489Y-69163110D01*
X141528236Y-69373779D01*
X141660632Y-69610000D01*
X142750000Y-69610000D01*
X142750000Y-67570000D01*
X143250000Y-67570000D01*
X143250000Y-69610000D01*
X144339368Y-69610000D01*
X144471764Y-69373779D01*
X144384511Y-69163110D01*
X144221952Y-68906396D01*
X144012434Y-68686328D01*
X143875661Y-68590000D01*
X144012434Y-68493672D01*
X144221952Y-68273604D01*
X144384511Y-68016890D01*
X144471764Y-67806221D01*
X144339368Y-67570000D01*
X143250000Y-67570000D01*
X142750000Y-67570000D01*
X141660632Y-67570000D01*
X141528236Y-67806221D01*
X124775000Y-67806221D01*
X124775000Y-66790000D01*
X135996371Y-66790000D01*
X136010852Y-66937026D01*
X136053738Y-67078401D01*
X136123380Y-67208694D01*
X136217104Y-67322896D01*
X136331306Y-67416620D01*
X136461599Y-67486262D01*
X136602974Y-67529148D01*
X136750000Y-67543629D01*
X137062500Y-67540000D01*
X137250000Y-67352500D01*
X137250000Y-66290000D01*
X137750000Y-66290000D01*
X137750000Y-67352500D01*
X137937500Y-67540000D01*
X138250000Y-67543629D01*
X138397026Y-67529148D01*
X138538401Y-67486262D01*
X138668694Y-67416620D01*
X138782896Y-67322896D01*
X138876620Y-67208694D01*
X138946262Y-67078401D01*
X138989148Y-66937026D01*
X139003629Y-66790000D01*
X139000000Y-66477500D01*
X138812500Y-66290000D01*
X137750000Y-66290000D01*
X137250000Y-66290000D01*
X136187500Y-66290000D01*
X136000000Y-66477500D01*
X135996371Y-66790000D01*
X124775000Y-66790000D01*
X124775000Y-62500000D01*
X126742259Y-62500000D01*
X126773151Y-62813655D01*
X126864641Y-63115256D01*
X127013212Y-63393213D01*
X127169828Y-63584050D01*
X127040328Y-63690328D01*
X126915514Y-63842414D01*
X126822769Y-64015928D01*
X126765656Y-64204202D01*
X126746372Y-64400000D01*
X126746372Y-65600000D01*
X126765656Y-65795798D01*
X126822769Y-65984072D01*
X126915514Y-66157586D01*
X127040328Y-66309672D01*
X127192414Y-66434486D01*
X127365928Y-66527231D01*
X127554202Y-66584344D01*
X127750000Y-66603628D01*
X129250000Y-66603628D01*
X129445798Y-66584344D01*
X129634072Y-66527231D01*
X129807586Y-66434486D01*
X129959672Y-66309672D01*
X130084486Y-66157586D01*
X130177231Y-65984072D01*
X130234344Y-65795798D01*
X130253628Y-65600000D01*
X130253628Y-65290000D01*
X135996371Y-65290000D01*
X136000000Y-65602500D01*
X136187500Y-65790000D01*
X137250000Y-65790000D01*
X137250000Y-65770000D01*
X137750000Y-65770000D01*
X137750000Y-65790000D01*
X138812500Y-65790000D01*
X139000000Y-65602500D01*
X139003629Y-65290000D01*
X138989148Y-65142974D01*
X138946262Y-65001599D01*
X138876620Y-64871306D01*
X138782896Y-64757104D01*
X138668694Y-64663380D01*
X138538401Y-64593738D01*
X138530100Y-64591220D01*
X138665126Y-64456194D01*
X138829283Y-64210517D01*
X138942356Y-63937534D01*
X139000000Y-63647737D01*
X139000000Y-63352263D01*
X138942356Y-63062466D01*
X138829283Y-62789483D01*
X138665126Y-62543806D01*
X138456194Y-62334874D01*
X138299240Y-62230000D01*
X138456194Y-62125126D01*
X138665126Y-61916194D01*
X138829283Y-61670517D01*
X138942356Y-61397534D01*
X139000000Y-61107737D01*
X139000000Y-60812263D01*
X138942356Y-60522466D01*
X138829283Y-60249483D01*
X138665126Y-60003806D01*
X138456194Y-59794874D01*
X138210517Y-59630717D01*
X137937534Y-59517644D01*
X137647737Y-59460000D01*
X137352263Y-59460000D01*
X137062466Y-59517644D01*
X136789483Y-59630717D01*
X136543806Y-59794874D01*
X136334874Y-60003806D01*
X136170717Y-60249483D01*
X136057644Y-60522466D01*
X136000000Y-60812263D01*
X136000000Y-61107737D01*
X136057644Y-61397534D01*
X136170717Y-61670517D01*
X136334874Y-61916194D01*
X136543806Y-62125126D01*
X136700760Y-62230000D01*
X136543806Y-62334874D01*
X136334874Y-62543806D01*
X136170717Y-62789483D01*
X136057644Y-63062466D01*
X136000000Y-63352263D01*
X136000000Y-63647737D01*
X136057644Y-63937534D01*
X136170717Y-64210517D01*
X136334874Y-64456194D01*
X136469900Y-64591220D01*
X136461599Y-64593738D01*
X136331306Y-64663380D01*
X136217104Y-64757104D01*
X136123380Y-64871306D01*
X136053738Y-65001599D01*
X136010852Y-65142974D01*
X135996371Y-65290000D01*
X130253628Y-65290000D01*
X130253628Y-64400000D01*
X130234344Y-64204202D01*
X130177231Y-64015928D01*
X130084486Y-63842414D01*
X129959672Y-63690328D01*
X129830172Y-63584050D01*
X129986788Y-63393213D01*
X130135359Y-63115256D01*
X130226849Y-62813655D01*
X130257741Y-62500000D01*
X130226849Y-62186345D01*
X130135359Y-61884744D01*
X129986788Y-61606787D01*
X129786845Y-61363155D01*
X129543213Y-61163212D01*
X129265256Y-61014641D01*
X128963655Y-60923151D01*
X128728597Y-60900000D01*
X128271403Y-60900000D01*
X128036345Y-60923151D01*
X127734744Y-61014641D01*
X127456787Y-61163212D01*
X127213155Y-61363155D01*
X127013212Y-61606787D01*
X126864641Y-61884744D01*
X126773151Y-62186345D01*
X126742259Y-62500000D01*
X124775000Y-62500000D01*
X124775000Y-56327640D01*
X126750000Y-56327640D01*
X126750000Y-56672360D01*
X126817251Y-57010456D01*
X126949170Y-57328936D01*
X127140686Y-57615560D01*
X127384440Y-57859314D01*
X127671064Y-58050830D01*
X127989544Y-58182749D01*
X128327640Y-58250000D01*
X128672360Y-58250000D01*
X129010456Y-58182749D01*
X129328936Y-58050830D01*
X129615560Y-57859314D01*
X129859314Y-57615560D01*
X130050830Y-57328936D01*
X130182749Y-57010456D01*
X130250000Y-56672360D01*
X130250000Y-56327640D01*
X135750000Y-56327640D01*
X135750000Y-56672360D01*
X135817251Y-57010456D01*
X135949170Y-57328936D01*
X136140686Y-57615560D01*
X136384440Y-57859314D01*
X136671064Y-58050830D01*
X136989544Y-58182749D01*
X137327640Y-58250000D01*
X137672360Y-58250000D01*
X138010456Y-58182749D01*
X138328936Y-58050830D01*
X138615560Y-57859314D01*
X138859314Y-57615560D01*
X139050830Y-57328936D01*
X139182749Y-57010456D01*
X139250000Y-56672360D01*
X139250000Y-56327640D01*
X139182749Y-55989544D01*
X139050830Y-55671064D01*
X138859314Y-55384440D01*
X138615560Y-55140686D01*
X138328936Y-54949170D01*
X138010456Y-54817251D01*
X137672360Y-54750000D01*
X137327640Y-54750000D01*
X136989544Y-54817251D01*
X136671064Y-54949170D01*
X136384440Y-55140686D01*
X136140686Y-55384440D01*
X135949170Y-55671064D01*
X135817251Y-55989544D01*
X135750000Y-56327640D01*
X130250000Y-56327640D01*
X130182749Y-55989544D01*
X130050830Y-55671064D01*
X129859314Y-55384440D01*
X129615560Y-55140686D01*
X129328936Y-54949170D01*
X129010456Y-54817251D01*
X128672360Y-54750000D01*
X128327640Y-54750000D01*
X127989544Y-54817251D01*
X127671064Y-54949170D01*
X127384440Y-55140686D01*
X127140686Y-55384440D01*
X126949170Y-55671064D01*
X126817251Y-55989544D01*
X126750000Y-56327640D01*
X124775000Y-56327640D01*
X124775000Y-52250000D01*
X134496371Y-52250000D01*
X134510852Y-52397026D01*
X134553738Y-52538401D01*
X134623380Y-52668694D01*
X134717104Y-52782896D01*
X134831306Y-52876620D01*
X134961599Y-52946262D01*
X135102974Y-52989148D01*
X135250000Y-53003629D01*
X135562500Y-53000000D01*
X135750000Y-52812500D01*
X135750000Y-51750000D01*
X136250000Y-51750000D01*
X136250000Y-52812500D01*
X136437500Y-53000000D01*
X136750000Y-53003629D01*
X136897026Y-52989148D01*
X137038401Y-52946262D01*
X137168694Y-52876620D01*
X137282896Y-52782896D01*
X137376620Y-52668694D01*
X137446262Y-52538401D01*
X137489148Y-52397026D01*
X137503629Y-52250000D01*
X137500000Y-51937500D01*
X137312500Y-51750000D01*
X136250000Y-51750000D01*
X135750000Y-51750000D01*
X134687500Y-51750000D01*
X134500000Y-51937500D01*
X134496371Y-52250000D01*
X124775000Y-52250000D01*
X124775000Y-48000000D01*
X126742259Y-48000000D01*
X126773151Y-48313655D01*
X126864641Y-48615256D01*
X127013212Y-48893213D01*
X127169828Y-49084050D01*
X127040328Y-49190328D01*
X126915514Y-49342414D01*
X126822769Y-49515928D01*
X126765656Y-49704202D01*
X126746372Y-49900000D01*
X126746372Y-51100000D01*
X126765656Y-51295798D01*
X126822769Y-51484072D01*
X126915514Y-51657586D01*
X127040328Y-51809672D01*
X127192414Y-51934486D01*
X127365928Y-52027231D01*
X127554202Y-52084344D01*
X127750000Y-52103628D01*
X129250000Y-52103628D01*
X129445798Y-52084344D01*
X129634072Y-52027231D01*
X129807586Y-51934486D01*
X129959672Y-51809672D01*
X130084486Y-51657586D01*
X130177231Y-51484072D01*
X130218709Y-51347338D01*
X138700000Y-51347338D01*
X138700000Y-51652662D01*
X138759565Y-51952118D01*
X138876408Y-52234200D01*
X139046036Y-52488068D01*
X139261932Y-52703964D01*
X139515800Y-52873592D01*
X139797882Y-52990435D01*
X140097338Y-53050000D01*
X140402662Y-53050000D01*
X140702118Y-52990435D01*
X140984200Y-52873592D01*
X141238068Y-52703964D01*
X141453964Y-52488068D01*
X141488405Y-52436523D01*
X141561059Y-52676029D01*
X141704987Y-52945300D01*
X141898682Y-53181318D01*
X142104222Y-53350000D01*
X141898682Y-53518682D01*
X141704987Y-53754700D01*
X141561059Y-54023971D01*
X141472428Y-54316147D01*
X141442501Y-54620000D01*
X141472428Y-54923853D01*
X141561059Y-55216029D01*
X141704987Y-55485300D01*
X141898682Y-55721318D01*
X142104222Y-55890000D01*
X141898682Y-56058682D01*
X141704987Y-56294700D01*
X141561059Y-56563971D01*
X141472428Y-56856147D01*
X141442501Y-57160000D01*
X141472428Y-57463853D01*
X141561059Y-57756029D01*
X141704987Y-58025300D01*
X141898682Y-58261318D01*
X142104222Y-58430000D01*
X141898682Y-58598682D01*
X141704987Y-58834700D01*
X141561059Y-59103971D01*
X141472428Y-59396147D01*
X141442501Y-59700000D01*
X141472428Y-60003853D01*
X141561059Y-60296029D01*
X141704987Y-60565300D01*
X141898682Y-60801318D01*
X142104222Y-60970000D01*
X141898682Y-61138682D01*
X141704987Y-61374700D01*
X141561059Y-61643971D01*
X141472428Y-61936147D01*
X141442501Y-62240000D01*
X141472428Y-62543853D01*
X141561059Y-62836029D01*
X141704987Y-63105300D01*
X141898682Y-63341318D01*
X142104222Y-63510000D01*
X141898682Y-63678682D01*
X141704987Y-63914700D01*
X141561059Y-64183971D01*
X141472428Y-64476147D01*
X141442501Y-64780000D01*
X141472428Y-65083853D01*
X141561059Y-65376029D01*
X141704987Y-65645300D01*
X141898682Y-65881318D01*
X142113513Y-66057625D01*
X141987566Y-66146328D01*
X141778048Y-66366396D01*
X141615489Y-66623110D01*
X141528236Y-66833779D01*
X141660632Y-67070000D01*
X142750000Y-67070000D01*
X142750000Y-67050000D01*
X143250000Y-67050000D01*
X143250000Y-67070000D01*
X144339368Y-67070000D01*
X144471764Y-66833779D01*
X144384511Y-66623110D01*
X144221952Y-66366396D01*
X144012434Y-66146328D01*
X143886487Y-66057625D01*
X144101318Y-65881318D01*
X144295013Y-65645300D01*
X144438941Y-65376029D01*
X144527572Y-65083853D01*
X144557499Y-64780000D01*
X144527572Y-64476147D01*
X144438941Y-64183971D01*
X144295013Y-63914700D01*
X144101318Y-63678682D01*
X143895778Y-63510000D01*
X144101318Y-63341318D01*
X144295013Y-63105300D01*
X144438941Y-62836029D01*
X144527572Y-62543853D01*
X144557499Y-62240000D01*
X144527572Y-61936147D01*
X144438941Y-61643971D01*
X144295013Y-61374700D01*
X144101318Y-61138682D01*
X143895778Y-60970000D01*
X144101318Y-60801318D01*
X144295013Y-60565300D01*
X144438941Y-60296029D01*
X144527572Y-60003853D01*
X144557499Y-59700000D01*
X144527572Y-59396147D01*
X144438941Y-59103971D01*
X144295013Y-58834700D01*
X144101318Y-58598682D01*
X143895778Y-58430000D01*
X144101318Y-58261318D01*
X144295013Y-58025300D01*
X144438941Y-57756029D01*
X144527572Y-57463853D01*
X144557499Y-57160000D01*
X144527572Y-56856147D01*
X144438941Y-56563971D01*
X144295013Y-56294700D01*
X144101318Y-56058682D01*
X143895778Y-55890000D01*
X144101318Y-55721318D01*
X144295013Y-55485300D01*
X144438941Y-55216029D01*
X144527572Y-54923853D01*
X144557499Y-54620000D01*
X144527572Y-54316147D01*
X144438941Y-54023971D01*
X144295013Y-53754700D01*
X144101318Y-53518682D01*
X143895778Y-53350000D01*
X144101318Y-53181318D01*
X144295013Y-52945300D01*
X144438941Y-52676029D01*
X144527572Y-52383853D01*
X144557499Y-52080000D01*
X149062501Y-52080000D01*
X149092428Y-52383853D01*
X149181059Y-52676029D01*
X149324987Y-52945300D01*
X149518682Y-53181318D01*
X149724222Y-53350000D01*
X149518682Y-53518682D01*
X149324987Y-53754700D01*
X149181059Y-54023971D01*
X149092428Y-54316147D01*
X149062501Y-54620000D01*
X149092428Y-54923853D01*
X149181059Y-55216029D01*
X149324987Y-55485300D01*
X149518682Y-55721318D01*
X149724222Y-55890000D01*
X149518682Y-56058682D01*
X149324987Y-56294700D01*
X149181059Y-56563971D01*
X149092428Y-56856147D01*
X149062501Y-57160000D01*
X149092428Y-57463853D01*
X149181059Y-57756029D01*
X149324987Y-58025300D01*
X149518682Y-58261318D01*
X149724222Y-58430000D01*
X149518682Y-58598682D01*
X149324987Y-58834700D01*
X149181059Y-59103971D01*
X149092428Y-59396147D01*
X149062501Y-59700000D01*
X149092428Y-60003853D01*
X149181059Y-60296029D01*
X149324987Y-60565300D01*
X149518682Y-60801318D01*
X149724222Y-60970000D01*
X149518682Y-61138682D01*
X149324987Y-61374700D01*
X149181059Y-61643971D01*
X149092428Y-61936147D01*
X149062501Y-62240000D01*
X149092428Y-62543853D01*
X149181059Y-62836029D01*
X149324987Y-63105300D01*
X149518682Y-63341318D01*
X149724222Y-63510000D01*
X149518682Y-63678682D01*
X149324987Y-63914700D01*
X149181059Y-64183971D01*
X149092428Y-64476147D01*
X149062501Y-64780000D01*
X149092428Y-65083853D01*
X149181059Y-65376029D01*
X149324987Y-65645300D01*
X149518682Y-65881318D01*
X149724222Y-66050000D01*
X149518682Y-66218682D01*
X149324987Y-66454700D01*
X149181059Y-66723971D01*
X149092428Y-67016147D01*
X149062501Y-67320000D01*
X149092428Y-67623853D01*
X149181059Y-67916029D01*
X149324987Y-68185300D01*
X149518682Y-68421318D01*
X149733513Y-68597625D01*
X149607566Y-68686328D01*
X149398048Y-68906396D01*
X149235489Y-69163110D01*
X149148236Y-69373779D01*
X149280632Y-69610000D01*
X150370000Y-69610000D01*
X150370000Y-69590000D01*
X150870000Y-69590000D01*
X150870000Y-69610000D01*
X151959368Y-69610000D01*
X152091764Y-69373779D01*
X152004511Y-69163110D01*
X151841952Y-68906396D01*
X151632434Y-68686328D01*
X151506487Y-68597625D01*
X151721318Y-68421318D01*
X151915013Y-68185300D01*
X152058941Y-67916029D01*
X152147572Y-67623853D01*
X152177499Y-67320000D01*
X152147572Y-67016147D01*
X152078971Y-66790000D01*
X153996371Y-66790000D01*
X154010852Y-66937026D01*
X154053738Y-67078401D01*
X154123380Y-67208694D01*
X154217104Y-67322896D01*
X154331306Y-67416620D01*
X154461599Y-67486262D01*
X154602974Y-67529148D01*
X154750000Y-67543629D01*
X155062500Y-67540000D01*
X155250000Y-67352500D01*
X155250000Y-66290000D01*
X155750000Y-66290000D01*
X155750000Y-67352500D01*
X155937500Y-67540000D01*
X156250000Y-67543629D01*
X156397026Y-67529148D01*
X156538401Y-67486262D01*
X156668694Y-67416620D01*
X156782896Y-67322896D01*
X156876620Y-67208694D01*
X156946262Y-67078401D01*
X156989148Y-66937026D01*
X157003629Y-66790000D01*
X157000000Y-66477500D01*
X156812500Y-66290000D01*
X155750000Y-66290000D01*
X155250000Y-66290000D01*
X154187500Y-66290000D01*
X154000000Y-66477500D01*
X153996371Y-66790000D01*
X152078971Y-66790000D01*
X152058941Y-66723971D01*
X151915013Y-66454700D01*
X151721318Y-66218682D01*
X151515778Y-66050000D01*
X151721318Y-65881318D01*
X151915013Y-65645300D01*
X152058941Y-65376029D01*
X152085037Y-65290000D01*
X153996371Y-65290000D01*
X154000000Y-65602500D01*
X154187500Y-65790000D01*
X155250000Y-65790000D01*
X155250000Y-65770000D01*
X155750000Y-65770000D01*
X155750000Y-65790000D01*
X156812500Y-65790000D01*
X157000000Y-65602500D01*
X157003629Y-65290000D01*
X156989148Y-65142974D01*
X156946262Y-65001599D01*
X156945408Y-65000000D01*
X163242259Y-65000000D01*
X163273151Y-65313655D01*
X163364641Y-65615256D01*
X163513212Y-65893213D01*
X163713155Y-66136845D01*
X163956787Y-66336788D01*
X164234744Y-66485359D01*
X164536345Y-66576849D01*
X164771403Y-66600000D01*
X165228597Y-66600000D01*
X165463655Y-66576849D01*
X165765256Y-66485359D01*
X166043213Y-66336788D01*
X166286845Y-66136845D01*
X166486788Y-65893213D01*
X166635359Y-65615256D01*
X166726849Y-65313655D01*
X166757741Y-65000000D01*
X166726849Y-64686345D01*
X166635359Y-64384744D01*
X166486788Y-64106787D01*
X166330172Y-63915950D01*
X166459672Y-63809672D01*
X166584486Y-63657586D01*
X166677231Y-63484072D01*
X166734344Y-63295798D01*
X166753628Y-63100000D01*
X166753628Y-61900000D01*
X166734344Y-61704202D01*
X166677231Y-61515928D01*
X166584486Y-61342414D01*
X166459672Y-61190328D01*
X166307586Y-61065514D01*
X166134072Y-60972769D01*
X165945798Y-60915656D01*
X165750000Y-60896372D01*
X164250000Y-60896372D01*
X164054202Y-60915656D01*
X163865928Y-60972769D01*
X163692414Y-61065514D01*
X163540328Y-61190328D01*
X163415514Y-61342414D01*
X163322769Y-61515928D01*
X163265656Y-61704202D01*
X163246372Y-61900000D01*
X163246372Y-63100000D01*
X163265656Y-63295798D01*
X163322769Y-63484072D01*
X163415514Y-63657586D01*
X163540328Y-63809672D01*
X163669828Y-63915950D01*
X163513212Y-64106787D01*
X163364641Y-64384744D01*
X163273151Y-64686345D01*
X163242259Y-65000000D01*
X156945408Y-65000000D01*
X156876620Y-64871306D01*
X156782896Y-64757104D01*
X156668694Y-64663380D01*
X156538401Y-64593738D01*
X156530100Y-64591220D01*
X156665126Y-64456194D01*
X156829283Y-64210517D01*
X156942356Y-63937534D01*
X157000000Y-63647737D01*
X157000000Y-63352263D01*
X156942356Y-63062466D01*
X156829283Y-62789483D01*
X156665126Y-62543806D01*
X156456194Y-62334874D01*
X156299240Y-62230000D01*
X156456194Y-62125126D01*
X156665126Y-61916194D01*
X156829283Y-61670517D01*
X156942356Y-61397534D01*
X157000000Y-61107737D01*
X157000000Y-60812263D01*
X156942356Y-60522466D01*
X156829283Y-60249483D01*
X156665126Y-60003806D01*
X156456194Y-59794874D01*
X156210517Y-59630717D01*
X155937534Y-59517644D01*
X155647737Y-59460000D01*
X155352263Y-59460000D01*
X155062466Y-59517644D01*
X154789483Y-59630717D01*
X154543806Y-59794874D01*
X154334874Y-60003806D01*
X154170717Y-60249483D01*
X154057644Y-60522466D01*
X154000000Y-60812263D01*
X154000000Y-61107737D01*
X154057644Y-61397534D01*
X154170717Y-61670517D01*
X154334874Y-61916194D01*
X154543806Y-62125126D01*
X154700760Y-62230000D01*
X154543806Y-62334874D01*
X154334874Y-62543806D01*
X154170717Y-62789483D01*
X154057644Y-63062466D01*
X154000000Y-63352263D01*
X154000000Y-63647737D01*
X154057644Y-63937534D01*
X154170717Y-64210517D01*
X154334874Y-64456194D01*
X154469900Y-64591220D01*
X154461599Y-64593738D01*
X154331306Y-64663380D01*
X154217104Y-64757104D01*
X154123380Y-64871306D01*
X154053738Y-65001599D01*
X154010852Y-65142974D01*
X153996371Y-65290000D01*
X152085037Y-65290000D01*
X152147572Y-65083853D01*
X152177499Y-64780000D01*
X152147572Y-64476147D01*
X152058941Y-64183971D01*
X151915013Y-63914700D01*
X151721318Y-63678682D01*
X151515778Y-63510000D01*
X151721318Y-63341318D01*
X151915013Y-63105300D01*
X152058941Y-62836029D01*
X152147572Y-62543853D01*
X152177499Y-62240000D01*
X152147572Y-61936147D01*
X152058941Y-61643971D01*
X151915013Y-61374700D01*
X151721318Y-61138682D01*
X151515778Y-60970000D01*
X151721318Y-60801318D01*
X151915013Y-60565300D01*
X152058941Y-60296029D01*
X152147572Y-60003853D01*
X152177499Y-59700000D01*
X152147572Y-59396147D01*
X152058941Y-59103971D01*
X151915013Y-58834700D01*
X151721318Y-58598682D01*
X151515778Y-58430000D01*
X151721318Y-58261318D01*
X151915013Y-58025300D01*
X152058941Y-57756029D01*
X152147572Y-57463853D01*
X152177499Y-57160000D01*
X152147572Y-56856147D01*
X152058941Y-56563971D01*
X151932620Y-56327640D01*
X154250000Y-56327640D01*
X154250000Y-56672360D01*
X154317251Y-57010456D01*
X154449170Y-57328936D01*
X154640686Y-57615560D01*
X154884440Y-57859314D01*
X155171064Y-58050830D01*
X155489544Y-58182749D01*
X155827640Y-58250000D01*
X156172360Y-58250000D01*
X156510456Y-58182749D01*
X156828936Y-58050830D01*
X157115560Y-57859314D01*
X157359314Y-57615560D01*
X157550830Y-57328936D01*
X157682749Y-57010456D01*
X157750000Y-56672360D01*
X157750000Y-56327640D01*
X163250000Y-56327640D01*
X163250000Y-56672360D01*
X163317251Y-57010456D01*
X163449170Y-57328936D01*
X163640686Y-57615560D01*
X163884440Y-57859314D01*
X164171064Y-58050830D01*
X164489544Y-58182749D01*
X164827640Y-58250000D01*
X165172360Y-58250000D01*
X165510456Y-58182749D01*
X165828936Y-58050830D01*
X166115560Y-57859314D01*
X166359314Y-57615560D01*
X166550830Y-57328936D01*
X166682749Y-57010456D01*
X166750000Y-56672360D01*
X166750000Y-56327640D01*
X166682749Y-55989544D01*
X166550830Y-55671064D01*
X166359314Y-55384440D01*
X166115560Y-55140686D01*
X165828936Y-54949170D01*
X165510456Y-54817251D01*
X165172360Y-54750000D01*
X164827640Y-54750000D01*
X164489544Y-54817251D01*
X164171064Y-54949170D01*
X163884440Y-55140686D01*
X163640686Y-55384440D01*
X163449170Y-55671064D01*
X163317251Y-55989544D01*
X163250000Y-56327640D01*
X157750000Y-56327640D01*
X157682749Y-55989544D01*
X157550830Y-55671064D01*
X157359314Y-55384440D01*
X157115560Y-55140686D01*
X156828936Y-54949170D01*
X156510456Y-54817251D01*
X156172360Y-54750000D01*
X155827640Y-54750000D01*
X155489544Y-54817251D01*
X155171064Y-54949170D01*
X154884440Y-55140686D01*
X154640686Y-55384440D01*
X154449170Y-55671064D01*
X154317251Y-55989544D01*
X154250000Y-56327640D01*
X151932620Y-56327640D01*
X151915013Y-56294700D01*
X151721318Y-56058682D01*
X151515778Y-55890000D01*
X151721318Y-55721318D01*
X151915013Y-55485300D01*
X152058941Y-55216029D01*
X152147572Y-54923853D01*
X152177499Y-54620000D01*
X152147572Y-54316147D01*
X152058941Y-54023971D01*
X151915013Y-53754700D01*
X151721318Y-53518682D01*
X151515778Y-53350000D01*
X151721318Y-53181318D01*
X151915013Y-52945300D01*
X152058941Y-52676029D01*
X152147572Y-52383853D01*
X152156815Y-52290000D01*
X153996371Y-52290000D01*
X154010852Y-52437026D01*
X154053738Y-52578401D01*
X154123380Y-52708694D01*
X154217104Y-52822896D01*
X154331306Y-52916620D01*
X154461599Y-52986262D01*
X154602974Y-53029148D01*
X154750000Y-53043629D01*
X155062500Y-53040000D01*
X155250000Y-52852500D01*
X155250000Y-51790000D01*
X155750000Y-51790000D01*
X155750000Y-52852500D01*
X155937500Y-53040000D01*
X156250000Y-53043629D01*
X156397026Y-53029148D01*
X156538401Y-52986262D01*
X156668694Y-52916620D01*
X156782896Y-52822896D01*
X156876620Y-52708694D01*
X156946262Y-52578401D01*
X156989148Y-52437026D01*
X157003629Y-52290000D01*
X157000000Y-51977500D01*
X156812500Y-51790000D01*
X155750000Y-51790000D01*
X155250000Y-51790000D01*
X154187500Y-51790000D01*
X154000000Y-51977500D01*
X153996371Y-52290000D01*
X152156815Y-52290000D01*
X152177499Y-52080000D01*
X152147572Y-51776147D01*
X152058941Y-51483971D01*
X151915013Y-51214700D01*
X151721318Y-50978682D01*
X151506487Y-50802375D01*
X151524057Y-50790000D01*
X153996371Y-50790000D01*
X154000000Y-51102500D01*
X154187500Y-51290000D01*
X155250000Y-51290000D01*
X155250000Y-51270000D01*
X155750000Y-51270000D01*
X155750000Y-51290000D01*
X156812500Y-51290000D01*
X157000000Y-51102500D01*
X157003629Y-50790000D01*
X156989148Y-50642974D01*
X156946262Y-50501599D01*
X156945408Y-50500000D01*
X163242259Y-50500000D01*
X163273151Y-50813655D01*
X163364641Y-51115256D01*
X163513212Y-51393213D01*
X163713155Y-51636845D01*
X163956787Y-51836788D01*
X164234744Y-51985359D01*
X164536345Y-52076849D01*
X164771403Y-52100000D01*
X165228597Y-52100000D01*
X165463655Y-52076849D01*
X165765256Y-51985359D01*
X166043213Y-51836788D01*
X166286845Y-51636845D01*
X166486788Y-51393213D01*
X166635359Y-51115256D01*
X166726849Y-50813655D01*
X166757741Y-50500000D01*
X166726849Y-50186345D01*
X166635359Y-49884744D01*
X166486788Y-49606787D01*
X166330172Y-49415950D01*
X166459672Y-49309672D01*
X166584486Y-49157586D01*
X166677231Y-48984072D01*
X166734344Y-48795798D01*
X166753628Y-48600000D01*
X166753628Y-47400000D01*
X166734344Y-47204202D01*
X166677231Y-47015928D01*
X166584486Y-46842414D01*
X166459672Y-46690328D01*
X166307586Y-46565514D01*
X166134072Y-46472769D01*
X165945798Y-46415656D01*
X165750000Y-46396372D01*
X164250000Y-46396372D01*
X164054202Y-46415656D01*
X163865928Y-46472769D01*
X163692414Y-46565514D01*
X163540328Y-46690328D01*
X163415514Y-46842414D01*
X163322769Y-47015928D01*
X163265656Y-47204202D01*
X163246372Y-47400000D01*
X163246372Y-48600000D01*
X163265656Y-48795798D01*
X163322769Y-48984072D01*
X163415514Y-49157586D01*
X163540328Y-49309672D01*
X163669828Y-49415950D01*
X163513212Y-49606787D01*
X163364641Y-49884744D01*
X163273151Y-50186345D01*
X163242259Y-50500000D01*
X156945408Y-50500000D01*
X156876620Y-50371306D01*
X156782896Y-50257104D01*
X156668694Y-50163380D01*
X156538401Y-50093738D01*
X156530100Y-50091220D01*
X156665126Y-49956194D01*
X156829283Y-49710517D01*
X156942356Y-49437534D01*
X157000000Y-49147737D01*
X157000000Y-48852263D01*
X156942356Y-48562466D01*
X156829283Y-48289483D01*
X156665126Y-48043806D01*
X156456194Y-47834874D01*
X156299240Y-47730000D01*
X156456194Y-47625126D01*
X156665126Y-47416194D01*
X156829283Y-47170517D01*
X156942356Y-46897534D01*
X157000000Y-46607737D01*
X157000000Y-46312263D01*
X156942356Y-46022466D01*
X156829283Y-45749483D01*
X156665126Y-45503806D01*
X156456194Y-45294874D01*
X156210517Y-45130717D01*
X155937534Y-45017644D01*
X155647737Y-44960000D01*
X155352263Y-44960000D01*
X155062466Y-45017644D01*
X154789483Y-45130717D01*
X154543806Y-45294874D01*
X154334874Y-45503806D01*
X154170717Y-45749483D01*
X154057644Y-46022466D01*
X154000000Y-46312263D01*
X154000000Y-46607737D01*
X154057644Y-46897534D01*
X154170717Y-47170517D01*
X154334874Y-47416194D01*
X154543806Y-47625126D01*
X154700760Y-47730000D01*
X154543806Y-47834874D01*
X154334874Y-48043806D01*
X154170717Y-48289483D01*
X154057644Y-48562466D01*
X154000000Y-48852263D01*
X154000000Y-49147737D01*
X154057644Y-49437534D01*
X154170717Y-49710517D01*
X154334874Y-49956194D01*
X154469900Y-50091220D01*
X154461599Y-50093738D01*
X154331306Y-50163380D01*
X154217104Y-50257104D01*
X154123380Y-50371306D01*
X154053738Y-50501599D01*
X154010852Y-50642974D01*
X153996371Y-50790000D01*
X151524057Y-50790000D01*
X151632434Y-50713672D01*
X151841952Y-50493604D01*
X152004511Y-50236890D01*
X152091764Y-50026221D01*
X151959368Y-49790000D01*
X150870000Y-49790000D01*
X150870000Y-49810000D01*
X150370000Y-49810000D01*
X150370000Y-49790000D01*
X149280632Y-49790000D01*
X149148236Y-50026221D01*
X149235489Y-50236890D01*
X149398048Y-50493604D01*
X149607566Y-50713672D01*
X149733513Y-50802375D01*
X149518682Y-50978682D01*
X149324987Y-51214700D01*
X149181059Y-51483971D01*
X149092428Y-51776147D01*
X149062501Y-52080000D01*
X144557499Y-52080000D01*
X144527572Y-51776147D01*
X144438941Y-51483971D01*
X144295013Y-51214700D01*
X144101318Y-50978682D01*
X143895778Y-50810000D01*
X144101318Y-50641318D01*
X144295013Y-50405300D01*
X144438941Y-50136029D01*
X144527572Y-49843853D01*
X144557499Y-49540000D01*
X144527572Y-49236147D01*
X144438941Y-48943971D01*
X144295013Y-48674700D01*
X144130226Y-48473906D01*
X144218694Y-48426620D01*
X144332896Y-48332896D01*
X144426620Y-48218694D01*
X144496262Y-48088401D01*
X144539148Y-47947026D01*
X144553629Y-47800000D01*
X144550488Y-47486221D01*
X149148236Y-47486221D01*
X149235489Y-47696890D01*
X149398048Y-47953604D01*
X149607566Y-48173672D01*
X149744339Y-48270000D01*
X149607566Y-48366328D01*
X149398048Y-48586396D01*
X149235489Y-48843110D01*
X149148236Y-49053779D01*
X149280632Y-49290000D01*
X150370000Y-49290000D01*
X150370000Y-47250000D01*
X150870000Y-47250000D01*
X150870000Y-49290000D01*
X151959368Y-49290000D01*
X152091764Y-49053779D01*
X152004511Y-48843110D01*
X151841952Y-48586396D01*
X151632434Y-48366328D01*
X151495661Y-48270000D01*
X151632434Y-48173672D01*
X151841952Y-47953604D01*
X152004511Y-47696890D01*
X152091764Y-47486221D01*
X151959368Y-47250000D01*
X150870000Y-47250000D01*
X150370000Y-47250000D01*
X149280632Y-47250000D01*
X149148236Y-47486221D01*
X144550488Y-47486221D01*
X144550000Y-47437500D01*
X144362500Y-47250000D01*
X143250000Y-47250000D01*
X143250000Y-47270000D01*
X142750000Y-47270000D01*
X142750000Y-47250000D01*
X142730000Y-47250000D01*
X142730000Y-46750000D01*
X142750000Y-46750000D01*
X142750000Y-45637500D01*
X143250000Y-45637500D01*
X143250000Y-46750000D01*
X144362500Y-46750000D01*
X144550000Y-46562500D01*
X144550487Y-46513779D01*
X149148236Y-46513779D01*
X149280632Y-46750000D01*
X150370000Y-46750000D01*
X150370000Y-45657785D01*
X150870000Y-45657785D01*
X150870000Y-46750000D01*
X151959368Y-46750000D01*
X152091764Y-46513779D01*
X152004511Y-46303110D01*
X151841952Y-46046396D01*
X151632434Y-45826328D01*
X151384008Y-45651364D01*
X151106222Y-45528227D01*
X150870000Y-45657785D01*
X150370000Y-45657785D01*
X150133778Y-45528227D01*
X149855992Y-45651364D01*
X149607566Y-45826328D01*
X149398048Y-46046396D01*
X149235489Y-46303110D01*
X149148236Y-46513779D01*
X144550487Y-46513779D01*
X144553629Y-46200000D01*
X144539148Y-46052974D01*
X144496262Y-45911599D01*
X144426620Y-45781306D01*
X144332896Y-45667104D01*
X144218694Y-45573380D01*
X144088401Y-45503738D01*
X143947026Y-45460852D01*
X143800000Y-45446371D01*
X143437500Y-45450000D01*
X143250000Y-45637500D01*
X142750000Y-45637500D01*
X142562500Y-45450000D01*
X142200000Y-45446371D01*
X142052974Y-45460852D01*
X141911599Y-45503738D01*
X141781306Y-45573380D01*
X141667104Y-45667104D01*
X141574571Y-45779855D01*
X141379247Y-45724306D01*
X140603553Y-46500000D01*
X141379247Y-47275694D01*
X141469586Y-47250002D01*
X141637498Y-47250002D01*
X141450000Y-47437500D01*
X141446371Y-47800000D01*
X141460852Y-47947026D01*
X141503738Y-48088401D01*
X141573380Y-48218694D01*
X141667104Y-48332896D01*
X141781306Y-48426620D01*
X141869774Y-48473906D01*
X141704987Y-48674700D01*
X141561059Y-48943971D01*
X141472428Y-49236147D01*
X141442501Y-49540000D01*
X141472428Y-49843853D01*
X141561059Y-50136029D01*
X141704987Y-50405300D01*
X141898682Y-50641318D01*
X142104222Y-50810000D01*
X141898682Y-50978682D01*
X141760228Y-51147389D01*
X141740435Y-51047882D01*
X141623592Y-50765800D01*
X141453964Y-50511932D01*
X141238068Y-50296036D01*
X140984200Y-50126408D01*
X140702118Y-50009565D01*
X140402662Y-49950000D01*
X140097338Y-49950000D01*
X139797882Y-50009565D01*
X139515800Y-50126408D01*
X139261932Y-50296036D01*
X139046036Y-50511932D01*
X138876408Y-50765800D01*
X138759565Y-51047882D01*
X138700000Y-51347338D01*
X130218709Y-51347338D01*
X130234344Y-51295798D01*
X130253628Y-51100000D01*
X130253628Y-50750000D01*
X134496371Y-50750000D01*
X134500000Y-51062500D01*
X134687500Y-51250000D01*
X135750000Y-51250000D01*
X135750000Y-51230000D01*
X136250000Y-51230000D01*
X136250000Y-51250000D01*
X137312500Y-51250000D01*
X137500000Y-51062500D01*
X137503629Y-50750000D01*
X137489148Y-50602974D01*
X137446262Y-50461599D01*
X137376620Y-50331306D01*
X137282896Y-50217104D01*
X137168694Y-50123380D01*
X137038401Y-50053738D01*
X137030100Y-50051220D01*
X137165126Y-49916194D01*
X137329283Y-49670517D01*
X137442356Y-49397534D01*
X137500000Y-49107737D01*
X137500000Y-48812263D01*
X137442356Y-48522466D01*
X137329283Y-48249483D01*
X137165126Y-48003806D01*
X136956194Y-47794874D01*
X136799240Y-47690000D01*
X136890162Y-47629247D01*
X139474306Y-47629247D01*
X139548649Y-47890653D01*
X139833429Y-48000758D01*
X140134216Y-48053190D01*
X140439454Y-48045935D01*
X140737411Y-47979270D01*
X140951351Y-47890653D01*
X141025694Y-47629247D01*
X140250000Y-46853553D01*
X139474306Y-47629247D01*
X136890162Y-47629247D01*
X136956194Y-47585126D01*
X137165126Y-47376194D01*
X137329283Y-47130517D01*
X137442356Y-46857534D01*
X137500000Y-46567737D01*
X137500000Y-46384216D01*
X138696810Y-46384216D01*
X138704065Y-46689454D01*
X138770730Y-46987411D01*
X138859347Y-47201351D01*
X139120753Y-47275694D01*
X139896447Y-46500000D01*
X139120753Y-45724306D01*
X138859347Y-45798649D01*
X138749242Y-46083429D01*
X138696810Y-46384216D01*
X137500000Y-46384216D01*
X137500000Y-46272263D01*
X137442356Y-45982466D01*
X137329283Y-45709483D01*
X137165126Y-45463806D01*
X137072073Y-45370753D01*
X139474306Y-45370753D01*
X140250000Y-46146447D01*
X141025694Y-45370753D01*
X140951351Y-45109347D01*
X140666571Y-44999242D01*
X140365784Y-44946810D01*
X140060546Y-44954065D01*
X139762589Y-45020730D01*
X139548649Y-45109347D01*
X139474306Y-45370753D01*
X137072073Y-45370753D01*
X136956194Y-45254874D01*
X136710517Y-45090717D01*
X136437534Y-44977644D01*
X136147737Y-44920000D01*
X135852263Y-44920000D01*
X135562466Y-44977644D01*
X135289483Y-45090717D01*
X135043806Y-45254874D01*
X134834874Y-45463806D01*
X134670717Y-45709483D01*
X134557644Y-45982466D01*
X134500000Y-46272263D01*
X134500000Y-46567737D01*
X134557644Y-46857534D01*
X134670717Y-47130517D01*
X134834874Y-47376194D01*
X135043806Y-47585126D01*
X135200760Y-47690000D01*
X135043806Y-47794874D01*
X134834874Y-48003806D01*
X134670717Y-48249483D01*
X134557644Y-48522466D01*
X134500000Y-48812263D01*
X134500000Y-49107737D01*
X134557644Y-49397534D01*
X134670717Y-49670517D01*
X134834874Y-49916194D01*
X134969900Y-50051220D01*
X134961599Y-50053738D01*
X134831306Y-50123380D01*
X134717104Y-50217104D01*
X134623380Y-50331306D01*
X134553738Y-50461599D01*
X134510852Y-50602974D01*
X134496371Y-50750000D01*
X130253628Y-50750000D01*
X130253628Y-49900000D01*
X130234344Y-49704202D01*
X130177231Y-49515928D01*
X130084486Y-49342414D01*
X129959672Y-49190328D01*
X129830172Y-49084050D01*
X129986788Y-48893213D01*
X130135359Y-48615256D01*
X130226849Y-48313655D01*
X130257741Y-48000000D01*
X130226849Y-47686345D01*
X130135359Y-47384744D01*
X129986788Y-47106787D01*
X129786845Y-46863155D01*
X129543213Y-46663212D01*
X129265256Y-46514641D01*
X128963655Y-46423151D01*
X128728597Y-46400000D01*
X128271403Y-46400000D01*
X128036345Y-46423151D01*
X127734744Y-46514641D01*
X127456787Y-46663212D01*
X127213155Y-46863155D01*
X127013212Y-47106787D01*
X126864641Y-47384744D01*
X126773151Y-47686345D01*
X126742259Y-48000000D01*
X124775000Y-48000000D01*
X124775000Y-40750000D01*
X131000000Y-40750000D01*
X131048773Y-40745196D01*
X131095671Y-40730970D01*
X131138893Y-40707867D01*
X131176777Y-40676777D01*
X131207867Y-40638893D01*
X131230970Y-40595671D01*
X131245196Y-40548773D01*
X131250000Y-40500000D01*
X131250000Y-37275000D01*
X134396372Y-37275000D01*
X134396372Y-38725000D01*
X134415656Y-38920798D01*
X134472769Y-39109072D01*
X134565514Y-39282586D01*
X134690328Y-39434672D01*
X134842414Y-39559486D01*
X135015928Y-39652231D01*
X135204202Y-39709344D01*
X135400000Y-39728628D01*
X136600000Y-39728628D01*
X136795798Y-39709344D01*
X136984072Y-39652231D01*
X137157586Y-39559486D01*
X137309672Y-39434672D01*
X137420928Y-39299106D01*
X137666426Y-39484980D01*
X137947762Y-39621471D01*
X138005857Y-39646783D01*
X138250000Y-39515200D01*
X138250000Y-38250000D01*
X138230000Y-38250000D01*
X138230000Y-37750000D01*
X138250000Y-37750000D01*
X138250000Y-36484800D01*
X138750000Y-36484800D01*
X138750000Y-37750000D01*
X138770000Y-37750000D01*
X138770000Y-38250000D01*
X138750000Y-38250000D01*
X138750000Y-39515200D01*
X138994143Y-39646783D01*
X139052238Y-39621471D01*
X139333574Y-39484980D01*
X139582876Y-39296226D01*
X139743240Y-39115728D01*
X139863155Y-39261845D01*
X140106788Y-39461788D01*
X140384745Y-39610359D01*
X140686346Y-39701849D01*
X141000000Y-39732741D01*
X141313655Y-39701849D01*
X141615256Y-39610359D01*
X141893213Y-39461788D01*
X142136845Y-39261845D01*
X142250000Y-39123965D01*
X142363155Y-39261845D01*
X142606788Y-39461788D01*
X142884745Y-39610359D01*
X143186346Y-39701849D01*
X143500000Y-39732741D01*
X143813655Y-39701849D01*
X144115256Y-39610359D01*
X144393213Y-39461788D01*
X144636845Y-39261845D01*
X144836788Y-39018213D01*
X144985359Y-38740255D01*
X145076849Y-38438654D01*
X145100000Y-38203596D01*
X145100000Y-37796403D01*
X145076849Y-37561345D01*
X144989987Y-37275000D01*
X148396372Y-37275000D01*
X148396372Y-38725000D01*
X148415656Y-38920798D01*
X148472769Y-39109072D01*
X148565514Y-39282586D01*
X148690328Y-39434672D01*
X148842414Y-39559486D01*
X149015928Y-39652231D01*
X149204202Y-39709344D01*
X149400000Y-39728628D01*
X150600000Y-39728628D01*
X150795798Y-39709344D01*
X150984072Y-39652231D01*
X151157586Y-39559486D01*
X151309672Y-39434672D01*
X151420928Y-39299106D01*
X151666426Y-39484980D01*
X151947762Y-39621471D01*
X152005857Y-39646783D01*
X152250000Y-39515200D01*
X152250000Y-38250000D01*
X152230000Y-38250000D01*
X152230000Y-37750000D01*
X152250000Y-37750000D01*
X152250000Y-36484800D01*
X152750000Y-36484800D01*
X152750000Y-37750000D01*
X152770000Y-37750000D01*
X152770000Y-38250000D01*
X152750000Y-38250000D01*
X152750000Y-39515200D01*
X152994143Y-39646783D01*
X153052238Y-39621471D01*
X153333574Y-39484980D01*
X153582876Y-39296226D01*
X153743240Y-39115728D01*
X153863155Y-39261845D01*
X154106788Y-39461788D01*
X154384745Y-39610359D01*
X154686346Y-39701849D01*
X155000000Y-39732741D01*
X155313655Y-39701849D01*
X155615256Y-39610359D01*
X155893213Y-39461788D01*
X156136845Y-39261845D01*
X156250000Y-39123965D01*
X156363155Y-39261845D01*
X156606788Y-39461788D01*
X156884745Y-39610359D01*
X157186346Y-39701849D01*
X157500000Y-39732741D01*
X157813655Y-39701849D01*
X158115256Y-39610359D01*
X158393213Y-39461788D01*
X158636845Y-39261845D01*
X158836788Y-39018213D01*
X158985359Y-38740255D01*
X159076849Y-38438654D01*
X159100000Y-38203596D01*
X159100000Y-37796403D01*
X159076849Y-37561345D01*
X158985359Y-37259744D01*
X158836788Y-36981787D01*
X158636845Y-36738155D01*
X158393212Y-36538212D01*
X158115255Y-36389641D01*
X157813654Y-36298151D01*
X157500000Y-36267259D01*
X157186345Y-36298151D01*
X156884744Y-36389641D01*
X156606787Y-36538212D01*
X156363155Y-36738155D01*
X156250000Y-36876035D01*
X156136845Y-36738155D01*
X155893212Y-36538212D01*
X155615255Y-36389641D01*
X155313654Y-36298151D01*
X155000000Y-36267259D01*
X154686345Y-36298151D01*
X154384744Y-36389641D01*
X154106787Y-36538212D01*
X153863155Y-36738155D01*
X153743241Y-36884272D01*
X153582876Y-36703774D01*
X153333574Y-36515020D01*
X153052238Y-36378529D01*
X152994143Y-36353217D01*
X152750000Y-36484800D01*
X152250000Y-36484800D01*
X152005857Y-36353217D01*
X151947762Y-36378529D01*
X151666426Y-36515020D01*
X151420928Y-36700894D01*
X151309672Y-36565328D01*
X151157586Y-36440514D01*
X150984072Y-36347769D01*
X150795798Y-36290656D01*
X150600000Y-36271372D01*
X149400000Y-36271372D01*
X149204202Y-36290656D01*
X149015928Y-36347769D01*
X148842414Y-36440514D01*
X148690328Y-36565328D01*
X148565514Y-36717414D01*
X148472769Y-36890928D01*
X148415656Y-37079202D01*
X148396372Y-37275000D01*
X144989987Y-37275000D01*
X144985359Y-37259744D01*
X144836788Y-36981787D01*
X144636845Y-36738155D01*
X144393212Y-36538212D01*
X144115255Y-36389641D01*
X143813654Y-36298151D01*
X143500000Y-36267259D01*
X143186345Y-36298151D01*
X142884744Y-36389641D01*
X142606787Y-36538212D01*
X142363155Y-36738155D01*
X142250000Y-36876035D01*
X142136845Y-36738155D01*
X141893212Y-36538212D01*
X141615255Y-36389641D01*
X141313654Y-36298151D01*
X141000000Y-36267259D01*
X140686345Y-36298151D01*
X140384744Y-36389641D01*
X140106787Y-36538212D01*
X139863155Y-36738155D01*
X139743241Y-36884272D01*
X139582876Y-36703774D01*
X139333574Y-36515020D01*
X139052238Y-36378529D01*
X138994143Y-36353217D01*
X138750000Y-36484800D01*
X138250000Y-36484800D01*
X138005857Y-36353217D01*
X137947762Y-36378529D01*
X137666426Y-36515020D01*
X137420928Y-36700894D01*
X137309672Y-36565328D01*
X137157586Y-36440514D01*
X136984072Y-36347769D01*
X136795798Y-36290656D01*
X136600000Y-36271372D01*
X135400000Y-36271372D01*
X135204202Y-36290656D01*
X135015928Y-36347769D01*
X134842414Y-36440514D01*
X134690328Y-36565328D01*
X134565514Y-36717414D01*
X134472769Y-36890928D01*
X134415656Y-37079202D01*
X134396372Y-37275000D01*
X131250000Y-37275000D01*
X131250000Y-34275000D01*
X162250000Y-34275000D01*
X162250000Y-40500000D01*
M02*
