G04 #@! TF.GenerationSoftware,KiCad,Pcbnew,(5.1.4)-1*
G04 #@! TF.CreationDate,2020-01-27T08:50:11+02:00*
G04 #@! TF.ProjectId,8_switch_array,385f7377-6974-4636-985f-61727261792e,rev?*
G04 #@! TF.SameCoordinates,Original*
G04 #@! TF.FileFunction,Other,User*
%FSLAX46Y46*%
G04 Gerber Fmt 4.6, Leading zero omitted, Abs format (unit mm)*
G04 Created by KiCad (PCBNEW (5.1.4)-1) date 2020-01-27 08:50:11*
%MOMM*%
%LPD*%
G04 APERTURE LIST*
%ADD10C,0.050000*%
G04 APERTURE END LIST*
D10*
X151700000Y-45450000D02*
X141900000Y-45450000D01*
X151700000Y-71400000D02*
X151700000Y-45450000D01*
X141900000Y-71400000D02*
X151700000Y-71400000D01*
X141900000Y-45450000D02*
X141900000Y-71400000D01*
X151750000Y-85750000D02*
X151750000Y-72250000D01*
X147250000Y-85750000D02*
X151750000Y-85750000D01*
X147250000Y-72250000D02*
X147250000Y-85750000D01*
X151750000Y-72250000D02*
X147250000Y-72250000D01*
X167250000Y-83250000D02*
X153750000Y-83250000D01*
X167250000Y-87750000D02*
X167250000Y-83250000D01*
X153750000Y-87750000D02*
X167250000Y-87750000D01*
X153750000Y-83250000D02*
X153750000Y-87750000D01*
X146250000Y-85750000D02*
X146250000Y-72250000D01*
X141750000Y-85750000D02*
X146250000Y-85750000D01*
X141750000Y-72250000D02*
X141750000Y-85750000D01*
X146250000Y-72250000D02*
X141750000Y-72250000D01*
X126250000Y-87750000D02*
X139750000Y-87750000D01*
X126250000Y-83250000D02*
X126250000Y-87750000D01*
X139750000Y-83250000D02*
X126250000Y-83250000D01*
X139750000Y-87750000D02*
X139750000Y-83250000D01*
X153490000Y-96090000D02*
X153490000Y-88990000D01*
X153490000Y-96090000D02*
X158230000Y-96090000D01*
X158230000Y-88990000D02*
X153490000Y-88990000D01*
X158230000Y-88990000D02*
X158230000Y-96090000D01*
X153490000Y-81590000D02*
X153490000Y-74490000D01*
X153490000Y-81590000D02*
X158230000Y-81590000D01*
X158230000Y-74490000D02*
X153490000Y-74490000D01*
X158230000Y-74490000D02*
X158230000Y-81590000D01*
X135490000Y-96090000D02*
X135490000Y-88990000D01*
X135490000Y-96090000D02*
X140230000Y-96090000D01*
X140230000Y-88990000D02*
X135490000Y-88990000D01*
X140230000Y-88990000D02*
X140230000Y-96090000D01*
X135490000Y-81590000D02*
X135490000Y-74490000D01*
X135490000Y-81590000D02*
X140230000Y-81590000D01*
X140230000Y-74490000D02*
X135490000Y-74490000D01*
X140230000Y-74490000D02*
X140230000Y-81590000D01*
X167850000Y-96950000D02*
X167850000Y-88550000D01*
X161100000Y-96950000D02*
X167850000Y-96950000D01*
X161100000Y-88550000D02*
X161100000Y-96950000D01*
X167850000Y-88550000D02*
X161100000Y-88550000D01*
X167850000Y-82450000D02*
X167850000Y-74050000D01*
X161100000Y-82450000D02*
X167850000Y-82450000D01*
X161100000Y-74050000D02*
X161100000Y-82450000D01*
X167850000Y-74050000D02*
X161100000Y-74050000D01*
X125650000Y-88550000D02*
X125650000Y-96950000D01*
X132400000Y-88550000D02*
X125650000Y-88550000D01*
X132400000Y-96950000D02*
X132400000Y-88550000D01*
X125650000Y-96950000D02*
X132400000Y-96950000D01*
X125650000Y-74050000D02*
X125650000Y-82450000D01*
X132400000Y-74050000D02*
X125650000Y-74050000D01*
X132400000Y-82450000D02*
X132400000Y-74050000D01*
X125650000Y-82450000D02*
X132400000Y-82450000D01*
X138750000Y-45250000D02*
X138750000Y-52750000D01*
X141750000Y-45250000D02*
X138750000Y-45250000D01*
X141750000Y-52750000D02*
X141750000Y-45250000D01*
X138750000Y-52750000D02*
X141750000Y-52750000D01*
X169050000Y-37000000D02*
G75*
G03X169050000Y-37000000I-3050000J0D01*
G01*
X169050000Y-101000000D02*
G75*
G03X169050000Y-101000000I-3050000J0D01*
G01*
X130550000Y-101000000D02*
G75*
G03X130550000Y-101000000I-3050000J0D01*
G01*
X130550000Y-37000000D02*
G75*
G03X130550000Y-37000000I-3050000J0D01*
G01*
X126250000Y-73250000D02*
X139750000Y-73250000D01*
X126250000Y-68750000D02*
X126250000Y-73250000D01*
X139750000Y-68750000D02*
X126250000Y-68750000D01*
X139750000Y-73250000D02*
X139750000Y-68750000D01*
X167250000Y-54250000D02*
X153750000Y-54250000D01*
X167250000Y-58750000D02*
X167250000Y-54250000D01*
X153750000Y-58750000D02*
X167250000Y-58750000D01*
X153750000Y-54250000D02*
X153750000Y-58750000D01*
X126250000Y-58750000D02*
X139750000Y-58750000D01*
X126250000Y-54250000D02*
X126250000Y-58750000D01*
X139750000Y-54250000D02*
X126250000Y-54250000D01*
X139750000Y-58750000D02*
X139750000Y-54250000D01*
X167250000Y-68750000D02*
X153750000Y-68750000D01*
X167250000Y-73250000D02*
X167250000Y-68750000D01*
X153750000Y-73250000D02*
X167250000Y-73250000D01*
X153750000Y-68750000D02*
X153750000Y-73250000D01*
X135490000Y-67090000D02*
X135490000Y-59990000D01*
X135490000Y-67090000D02*
X140230000Y-67090000D01*
X140230000Y-59990000D02*
X135490000Y-59990000D01*
X140230000Y-59990000D02*
X140230000Y-67090000D01*
X153490000Y-52590000D02*
X153490000Y-45490000D01*
X153490000Y-52590000D02*
X158230000Y-52590000D01*
X158230000Y-45490000D02*
X153490000Y-45490000D01*
X158230000Y-45490000D02*
X158230000Y-52590000D01*
X133740000Y-52590000D02*
X133740000Y-45490000D01*
X133740000Y-52590000D02*
X138480000Y-52590000D01*
X138480000Y-45490000D02*
X133740000Y-45490000D01*
X138480000Y-45490000D02*
X138480000Y-52590000D01*
X153990000Y-67090000D02*
X153990000Y-59990000D01*
X153990000Y-67090000D02*
X158730000Y-67090000D01*
X158730000Y-59990000D02*
X153990000Y-59990000D01*
X158730000Y-59990000D02*
X158730000Y-67090000D01*
X142550000Y-95850000D02*
X150950000Y-95850000D01*
X142550000Y-89100000D02*
X142550000Y-95850000D01*
X150950000Y-89100000D02*
X142550000Y-89100000D01*
X150950000Y-95850000D02*
X150950000Y-89100000D01*
X125650000Y-59550000D02*
X125650000Y-67950000D01*
X132400000Y-59550000D02*
X125650000Y-59550000D01*
X132400000Y-67950000D02*
X132400000Y-59550000D01*
X125650000Y-67950000D02*
X132400000Y-67950000D01*
X167850000Y-53450000D02*
X167850000Y-45050000D01*
X161100000Y-53450000D02*
X167850000Y-53450000D01*
X161100000Y-45050000D02*
X161100000Y-53450000D01*
X167850000Y-45050000D02*
X161100000Y-45050000D01*
X125650000Y-45050000D02*
X125650000Y-53450000D01*
X132400000Y-45050000D02*
X125650000Y-45050000D01*
X132400000Y-53450000D02*
X132400000Y-45050000D01*
X125650000Y-53450000D02*
X132400000Y-53450000D01*
X167850000Y-67950000D02*
X167850000Y-59550000D01*
X161100000Y-67950000D02*
X167850000Y-67950000D01*
X161100000Y-59550000D02*
X161100000Y-67950000D01*
X167850000Y-59550000D02*
X161100000Y-59550000D01*
X160450000Y-35150000D02*
X147050000Y-35150000D01*
X160450000Y-41900000D02*
X160450000Y-35150000D01*
X147050000Y-41900000D02*
X160450000Y-41900000D01*
X147050000Y-35150000D02*
X147050000Y-41900000D01*
X146450000Y-35150000D02*
X133050000Y-35150000D01*
X146450000Y-41900000D02*
X146450000Y-35150000D01*
X133050000Y-41900000D02*
X146450000Y-41900000D01*
X133050000Y-35150000D02*
X133050000Y-41900000D01*
M02*
