G04 #@! TF.GenerationSoftware,KiCad,Pcbnew,(5.1.4)-1*
G04 #@! TF.CreationDate,2020-01-27T08:50:11+02:00*
G04 #@! TF.ProjectId,8_switch_array,385f7377-6974-4636-985f-61727261792e,rev?*
G04 #@! TF.SameCoordinates,Original*
G04 #@! TF.FileFunction,Copper,L1,Top*
G04 #@! TF.FilePolarity,Positive*
%FSLAX46Y46*%
G04 Gerber Fmt 4.6, Leading zero omitted, Abs format (unit mm)*
G04 Created by KiCad (PCBNEW (5.1.4)-1) date 2020-01-27 08:50:11*
%MOMM*%
%LPD*%
G04 APERTURE LIST*
%ADD10O,1.600000X1.600000*%
%ADD11R,1.600000X1.600000*%
%ADD12C,2.000000*%
%ADD13R,1.500000X1.500000*%
%ADD14C,1.500000*%
%ADD15O,2.000000X1.700000*%
%ADD16C,0.100000*%
%ADD17C,1.700000*%
%ADD18C,1.600000*%
%ADD19O,1.700000X2.000000*%
%ADD20O,1.700000X1.950000*%
%ADD21C,1.000000*%
%ADD22C,0.500000*%
%ADD23C,0.254000*%
G04 APERTURE END LIST*
D10*
X150620000Y-47000000D03*
X143000000Y-69860000D03*
X150620000Y-49540000D03*
X143000000Y-67320000D03*
X150620000Y-52080000D03*
X143000000Y-64780000D03*
X150620000Y-54620000D03*
X143000000Y-62240000D03*
X150620000Y-57160000D03*
X143000000Y-59700000D03*
X150620000Y-59700000D03*
X143000000Y-57160000D03*
X150620000Y-62240000D03*
X143000000Y-54620000D03*
X150620000Y-64780000D03*
X143000000Y-52080000D03*
X150620000Y-67320000D03*
X143000000Y-49540000D03*
X150620000Y-69860000D03*
D11*
X143000000Y-47000000D03*
D12*
X149500000Y-83500000D03*
X149500000Y-74500000D03*
X165000000Y-85500000D03*
X156000000Y-85500000D03*
X144000000Y-83500000D03*
X144000000Y-74500000D03*
X128500000Y-85500000D03*
X137500000Y-85500000D03*
D13*
X155500000Y-90000000D03*
D14*
X155500000Y-95080000D03*
X155500000Y-92540000D03*
D13*
X155500000Y-75500000D03*
D14*
X155500000Y-80580000D03*
X155500000Y-78040000D03*
D13*
X137500000Y-90000000D03*
D14*
X137500000Y-95080000D03*
X137500000Y-92540000D03*
D13*
X137500000Y-75500000D03*
D14*
X137500000Y-80580000D03*
X137500000Y-78040000D03*
D15*
X165000000Y-94000000D03*
D16*
G36*
X165774504Y-90651204D02*
G01*
X165798773Y-90654804D01*
X165822571Y-90660765D01*
X165845671Y-90669030D01*
X165867849Y-90679520D01*
X165888893Y-90692133D01*
X165908598Y-90706747D01*
X165926777Y-90723223D01*
X165943253Y-90741402D01*
X165957867Y-90761107D01*
X165970480Y-90782151D01*
X165980970Y-90804329D01*
X165989235Y-90827429D01*
X165995196Y-90851227D01*
X165998796Y-90875496D01*
X166000000Y-90900000D01*
X166000000Y-92100000D01*
X165998796Y-92124504D01*
X165995196Y-92148773D01*
X165989235Y-92172571D01*
X165980970Y-92195671D01*
X165970480Y-92217849D01*
X165957867Y-92238893D01*
X165943253Y-92258598D01*
X165926777Y-92276777D01*
X165908598Y-92293253D01*
X165888893Y-92307867D01*
X165867849Y-92320480D01*
X165845671Y-92330970D01*
X165822571Y-92339235D01*
X165798773Y-92345196D01*
X165774504Y-92348796D01*
X165750000Y-92350000D01*
X164250000Y-92350000D01*
X164225496Y-92348796D01*
X164201227Y-92345196D01*
X164177429Y-92339235D01*
X164154329Y-92330970D01*
X164132151Y-92320480D01*
X164111107Y-92307867D01*
X164091402Y-92293253D01*
X164073223Y-92276777D01*
X164056747Y-92258598D01*
X164042133Y-92238893D01*
X164029520Y-92217849D01*
X164019030Y-92195671D01*
X164010765Y-92172571D01*
X164004804Y-92148773D01*
X164001204Y-92124504D01*
X164000000Y-92100000D01*
X164000000Y-90900000D01*
X164001204Y-90875496D01*
X164004804Y-90851227D01*
X164010765Y-90827429D01*
X164019030Y-90804329D01*
X164029520Y-90782151D01*
X164042133Y-90761107D01*
X164056747Y-90741402D01*
X164073223Y-90723223D01*
X164091402Y-90706747D01*
X164111107Y-90692133D01*
X164132151Y-90679520D01*
X164154329Y-90669030D01*
X164177429Y-90660765D01*
X164201227Y-90654804D01*
X164225496Y-90651204D01*
X164250000Y-90650000D01*
X165750000Y-90650000D01*
X165774504Y-90651204D01*
X165774504Y-90651204D01*
G37*
D17*
X165000000Y-91500000D03*
D15*
X165000000Y-79500000D03*
D16*
G36*
X165774504Y-76151204D02*
G01*
X165798773Y-76154804D01*
X165822571Y-76160765D01*
X165845671Y-76169030D01*
X165867849Y-76179520D01*
X165888893Y-76192133D01*
X165908598Y-76206747D01*
X165926777Y-76223223D01*
X165943253Y-76241402D01*
X165957867Y-76261107D01*
X165970480Y-76282151D01*
X165980970Y-76304329D01*
X165989235Y-76327429D01*
X165995196Y-76351227D01*
X165998796Y-76375496D01*
X166000000Y-76400000D01*
X166000000Y-77600000D01*
X165998796Y-77624504D01*
X165995196Y-77648773D01*
X165989235Y-77672571D01*
X165980970Y-77695671D01*
X165970480Y-77717849D01*
X165957867Y-77738893D01*
X165943253Y-77758598D01*
X165926777Y-77776777D01*
X165908598Y-77793253D01*
X165888893Y-77807867D01*
X165867849Y-77820480D01*
X165845671Y-77830970D01*
X165822571Y-77839235D01*
X165798773Y-77845196D01*
X165774504Y-77848796D01*
X165750000Y-77850000D01*
X164250000Y-77850000D01*
X164225496Y-77848796D01*
X164201227Y-77845196D01*
X164177429Y-77839235D01*
X164154329Y-77830970D01*
X164132151Y-77820480D01*
X164111107Y-77807867D01*
X164091402Y-77793253D01*
X164073223Y-77776777D01*
X164056747Y-77758598D01*
X164042133Y-77738893D01*
X164029520Y-77717849D01*
X164019030Y-77695671D01*
X164010765Y-77672571D01*
X164004804Y-77648773D01*
X164001204Y-77624504D01*
X164000000Y-77600000D01*
X164000000Y-76400000D01*
X164001204Y-76375496D01*
X164004804Y-76351227D01*
X164010765Y-76327429D01*
X164019030Y-76304329D01*
X164029520Y-76282151D01*
X164042133Y-76261107D01*
X164056747Y-76241402D01*
X164073223Y-76223223D01*
X164091402Y-76206747D01*
X164111107Y-76192133D01*
X164132151Y-76179520D01*
X164154329Y-76169030D01*
X164177429Y-76160765D01*
X164201227Y-76154804D01*
X164225496Y-76151204D01*
X164250000Y-76150000D01*
X165750000Y-76150000D01*
X165774504Y-76151204D01*
X165774504Y-76151204D01*
G37*
D17*
X165000000Y-77000000D03*
D15*
X128500000Y-91500000D03*
D16*
G36*
X129274504Y-93151204D02*
G01*
X129298773Y-93154804D01*
X129322571Y-93160765D01*
X129345671Y-93169030D01*
X129367849Y-93179520D01*
X129388893Y-93192133D01*
X129408598Y-93206747D01*
X129426777Y-93223223D01*
X129443253Y-93241402D01*
X129457867Y-93261107D01*
X129470480Y-93282151D01*
X129480970Y-93304329D01*
X129489235Y-93327429D01*
X129495196Y-93351227D01*
X129498796Y-93375496D01*
X129500000Y-93400000D01*
X129500000Y-94600000D01*
X129498796Y-94624504D01*
X129495196Y-94648773D01*
X129489235Y-94672571D01*
X129480970Y-94695671D01*
X129470480Y-94717849D01*
X129457867Y-94738893D01*
X129443253Y-94758598D01*
X129426777Y-94776777D01*
X129408598Y-94793253D01*
X129388893Y-94807867D01*
X129367849Y-94820480D01*
X129345671Y-94830970D01*
X129322571Y-94839235D01*
X129298773Y-94845196D01*
X129274504Y-94848796D01*
X129250000Y-94850000D01*
X127750000Y-94850000D01*
X127725496Y-94848796D01*
X127701227Y-94845196D01*
X127677429Y-94839235D01*
X127654329Y-94830970D01*
X127632151Y-94820480D01*
X127611107Y-94807867D01*
X127591402Y-94793253D01*
X127573223Y-94776777D01*
X127556747Y-94758598D01*
X127542133Y-94738893D01*
X127529520Y-94717849D01*
X127519030Y-94695671D01*
X127510765Y-94672571D01*
X127504804Y-94648773D01*
X127501204Y-94624504D01*
X127500000Y-94600000D01*
X127500000Y-93400000D01*
X127501204Y-93375496D01*
X127504804Y-93351227D01*
X127510765Y-93327429D01*
X127519030Y-93304329D01*
X127529520Y-93282151D01*
X127542133Y-93261107D01*
X127556747Y-93241402D01*
X127573223Y-93223223D01*
X127591402Y-93206747D01*
X127611107Y-93192133D01*
X127632151Y-93179520D01*
X127654329Y-93169030D01*
X127677429Y-93160765D01*
X127701227Y-93154804D01*
X127725496Y-93151204D01*
X127750000Y-93150000D01*
X129250000Y-93150000D01*
X129274504Y-93151204D01*
X129274504Y-93151204D01*
G37*
D17*
X128500000Y-94000000D03*
D15*
X128500000Y-77000000D03*
D16*
G36*
X129274504Y-78651204D02*
G01*
X129298773Y-78654804D01*
X129322571Y-78660765D01*
X129345671Y-78669030D01*
X129367849Y-78679520D01*
X129388893Y-78692133D01*
X129408598Y-78706747D01*
X129426777Y-78723223D01*
X129443253Y-78741402D01*
X129457867Y-78761107D01*
X129470480Y-78782151D01*
X129480970Y-78804329D01*
X129489235Y-78827429D01*
X129495196Y-78851227D01*
X129498796Y-78875496D01*
X129500000Y-78900000D01*
X129500000Y-80100000D01*
X129498796Y-80124504D01*
X129495196Y-80148773D01*
X129489235Y-80172571D01*
X129480970Y-80195671D01*
X129470480Y-80217849D01*
X129457867Y-80238893D01*
X129443253Y-80258598D01*
X129426777Y-80276777D01*
X129408598Y-80293253D01*
X129388893Y-80307867D01*
X129367849Y-80320480D01*
X129345671Y-80330970D01*
X129322571Y-80339235D01*
X129298773Y-80345196D01*
X129274504Y-80348796D01*
X129250000Y-80350000D01*
X127750000Y-80350000D01*
X127725496Y-80348796D01*
X127701227Y-80345196D01*
X127677429Y-80339235D01*
X127654329Y-80330970D01*
X127632151Y-80320480D01*
X127611107Y-80307867D01*
X127591402Y-80293253D01*
X127573223Y-80276777D01*
X127556747Y-80258598D01*
X127542133Y-80238893D01*
X127529520Y-80217849D01*
X127519030Y-80195671D01*
X127510765Y-80172571D01*
X127504804Y-80148773D01*
X127501204Y-80124504D01*
X127500000Y-80100000D01*
X127500000Y-78900000D01*
X127501204Y-78875496D01*
X127504804Y-78851227D01*
X127510765Y-78827429D01*
X127519030Y-78804329D01*
X127529520Y-78782151D01*
X127542133Y-78761107D01*
X127556747Y-78741402D01*
X127573223Y-78723223D01*
X127591402Y-78706747D01*
X127611107Y-78692133D01*
X127632151Y-78679520D01*
X127654329Y-78669030D01*
X127677429Y-78660765D01*
X127701227Y-78654804D01*
X127725496Y-78651204D01*
X127750000Y-78650000D01*
X129250000Y-78650000D01*
X129274504Y-78651204D01*
X129274504Y-78651204D01*
G37*
D17*
X128500000Y-79500000D03*
D18*
X140250000Y-46500000D03*
X140250000Y-51500000D03*
D12*
X128500000Y-71000000D03*
X137500000Y-71000000D03*
X165000000Y-56500000D03*
X156000000Y-56500000D03*
X128500000Y-56500000D03*
X137500000Y-56500000D03*
X165000000Y-71000000D03*
X156000000Y-71000000D03*
D13*
X137500000Y-61000000D03*
D14*
X137500000Y-66080000D03*
X137500000Y-63540000D03*
D13*
X155500000Y-46500000D03*
D14*
X155500000Y-51580000D03*
X155500000Y-49040000D03*
D13*
X135750000Y-46500000D03*
D14*
X135750000Y-51580000D03*
X135750000Y-49040000D03*
D13*
X156000000Y-61000000D03*
D14*
X156000000Y-66080000D03*
X156000000Y-63540000D03*
D19*
X145500000Y-93000000D03*
D16*
G36*
X148624504Y-92001204D02*
G01*
X148648773Y-92004804D01*
X148672571Y-92010765D01*
X148695671Y-92019030D01*
X148717849Y-92029520D01*
X148738893Y-92042133D01*
X148758598Y-92056747D01*
X148776777Y-92073223D01*
X148793253Y-92091402D01*
X148807867Y-92111107D01*
X148820480Y-92132151D01*
X148830970Y-92154329D01*
X148839235Y-92177429D01*
X148845196Y-92201227D01*
X148848796Y-92225496D01*
X148850000Y-92250000D01*
X148850000Y-93750000D01*
X148848796Y-93774504D01*
X148845196Y-93798773D01*
X148839235Y-93822571D01*
X148830970Y-93845671D01*
X148820480Y-93867849D01*
X148807867Y-93888893D01*
X148793253Y-93908598D01*
X148776777Y-93926777D01*
X148758598Y-93943253D01*
X148738893Y-93957867D01*
X148717849Y-93970480D01*
X148695671Y-93980970D01*
X148672571Y-93989235D01*
X148648773Y-93995196D01*
X148624504Y-93998796D01*
X148600000Y-94000000D01*
X147400000Y-94000000D01*
X147375496Y-93998796D01*
X147351227Y-93995196D01*
X147327429Y-93989235D01*
X147304329Y-93980970D01*
X147282151Y-93970480D01*
X147261107Y-93957867D01*
X147241402Y-93943253D01*
X147223223Y-93926777D01*
X147206747Y-93908598D01*
X147192133Y-93888893D01*
X147179520Y-93867849D01*
X147169030Y-93845671D01*
X147160765Y-93822571D01*
X147154804Y-93798773D01*
X147151204Y-93774504D01*
X147150000Y-93750000D01*
X147150000Y-92250000D01*
X147151204Y-92225496D01*
X147154804Y-92201227D01*
X147160765Y-92177429D01*
X147169030Y-92154329D01*
X147179520Y-92132151D01*
X147192133Y-92111107D01*
X147206747Y-92091402D01*
X147223223Y-92073223D01*
X147241402Y-92056747D01*
X147261107Y-92042133D01*
X147282151Y-92029520D01*
X147304329Y-92019030D01*
X147327429Y-92010765D01*
X147351227Y-92004804D01*
X147375496Y-92001204D01*
X147400000Y-92000000D01*
X148600000Y-92000000D01*
X148624504Y-92001204D01*
X148624504Y-92001204D01*
G37*
D17*
X148000000Y-93000000D03*
D15*
X128500000Y-62500000D03*
D16*
G36*
X129274504Y-64151204D02*
G01*
X129298773Y-64154804D01*
X129322571Y-64160765D01*
X129345671Y-64169030D01*
X129367849Y-64179520D01*
X129388893Y-64192133D01*
X129408598Y-64206747D01*
X129426777Y-64223223D01*
X129443253Y-64241402D01*
X129457867Y-64261107D01*
X129470480Y-64282151D01*
X129480970Y-64304329D01*
X129489235Y-64327429D01*
X129495196Y-64351227D01*
X129498796Y-64375496D01*
X129500000Y-64400000D01*
X129500000Y-65600000D01*
X129498796Y-65624504D01*
X129495196Y-65648773D01*
X129489235Y-65672571D01*
X129480970Y-65695671D01*
X129470480Y-65717849D01*
X129457867Y-65738893D01*
X129443253Y-65758598D01*
X129426777Y-65776777D01*
X129408598Y-65793253D01*
X129388893Y-65807867D01*
X129367849Y-65820480D01*
X129345671Y-65830970D01*
X129322571Y-65839235D01*
X129298773Y-65845196D01*
X129274504Y-65848796D01*
X129250000Y-65850000D01*
X127750000Y-65850000D01*
X127725496Y-65848796D01*
X127701227Y-65845196D01*
X127677429Y-65839235D01*
X127654329Y-65830970D01*
X127632151Y-65820480D01*
X127611107Y-65807867D01*
X127591402Y-65793253D01*
X127573223Y-65776777D01*
X127556747Y-65758598D01*
X127542133Y-65738893D01*
X127529520Y-65717849D01*
X127519030Y-65695671D01*
X127510765Y-65672571D01*
X127504804Y-65648773D01*
X127501204Y-65624504D01*
X127500000Y-65600000D01*
X127500000Y-64400000D01*
X127501204Y-64375496D01*
X127504804Y-64351227D01*
X127510765Y-64327429D01*
X127519030Y-64304329D01*
X127529520Y-64282151D01*
X127542133Y-64261107D01*
X127556747Y-64241402D01*
X127573223Y-64223223D01*
X127591402Y-64206747D01*
X127611107Y-64192133D01*
X127632151Y-64179520D01*
X127654329Y-64169030D01*
X127677429Y-64160765D01*
X127701227Y-64154804D01*
X127725496Y-64151204D01*
X127750000Y-64150000D01*
X129250000Y-64150000D01*
X129274504Y-64151204D01*
X129274504Y-64151204D01*
G37*
D17*
X128500000Y-65000000D03*
D15*
X165000000Y-50500000D03*
D16*
G36*
X165774504Y-47151204D02*
G01*
X165798773Y-47154804D01*
X165822571Y-47160765D01*
X165845671Y-47169030D01*
X165867849Y-47179520D01*
X165888893Y-47192133D01*
X165908598Y-47206747D01*
X165926777Y-47223223D01*
X165943253Y-47241402D01*
X165957867Y-47261107D01*
X165970480Y-47282151D01*
X165980970Y-47304329D01*
X165989235Y-47327429D01*
X165995196Y-47351227D01*
X165998796Y-47375496D01*
X166000000Y-47400000D01*
X166000000Y-48600000D01*
X165998796Y-48624504D01*
X165995196Y-48648773D01*
X165989235Y-48672571D01*
X165980970Y-48695671D01*
X165970480Y-48717849D01*
X165957867Y-48738893D01*
X165943253Y-48758598D01*
X165926777Y-48776777D01*
X165908598Y-48793253D01*
X165888893Y-48807867D01*
X165867849Y-48820480D01*
X165845671Y-48830970D01*
X165822571Y-48839235D01*
X165798773Y-48845196D01*
X165774504Y-48848796D01*
X165750000Y-48850000D01*
X164250000Y-48850000D01*
X164225496Y-48848796D01*
X164201227Y-48845196D01*
X164177429Y-48839235D01*
X164154329Y-48830970D01*
X164132151Y-48820480D01*
X164111107Y-48807867D01*
X164091402Y-48793253D01*
X164073223Y-48776777D01*
X164056747Y-48758598D01*
X164042133Y-48738893D01*
X164029520Y-48717849D01*
X164019030Y-48695671D01*
X164010765Y-48672571D01*
X164004804Y-48648773D01*
X164001204Y-48624504D01*
X164000000Y-48600000D01*
X164000000Y-47400000D01*
X164001204Y-47375496D01*
X164004804Y-47351227D01*
X164010765Y-47327429D01*
X164019030Y-47304329D01*
X164029520Y-47282151D01*
X164042133Y-47261107D01*
X164056747Y-47241402D01*
X164073223Y-47223223D01*
X164091402Y-47206747D01*
X164111107Y-47192133D01*
X164132151Y-47179520D01*
X164154329Y-47169030D01*
X164177429Y-47160765D01*
X164201227Y-47154804D01*
X164225496Y-47151204D01*
X164250000Y-47150000D01*
X165750000Y-47150000D01*
X165774504Y-47151204D01*
X165774504Y-47151204D01*
G37*
D17*
X165000000Y-48000000D03*
D15*
X128500000Y-48000000D03*
D16*
G36*
X129274504Y-49651204D02*
G01*
X129298773Y-49654804D01*
X129322571Y-49660765D01*
X129345671Y-49669030D01*
X129367849Y-49679520D01*
X129388893Y-49692133D01*
X129408598Y-49706747D01*
X129426777Y-49723223D01*
X129443253Y-49741402D01*
X129457867Y-49761107D01*
X129470480Y-49782151D01*
X129480970Y-49804329D01*
X129489235Y-49827429D01*
X129495196Y-49851227D01*
X129498796Y-49875496D01*
X129500000Y-49900000D01*
X129500000Y-51100000D01*
X129498796Y-51124504D01*
X129495196Y-51148773D01*
X129489235Y-51172571D01*
X129480970Y-51195671D01*
X129470480Y-51217849D01*
X129457867Y-51238893D01*
X129443253Y-51258598D01*
X129426777Y-51276777D01*
X129408598Y-51293253D01*
X129388893Y-51307867D01*
X129367849Y-51320480D01*
X129345671Y-51330970D01*
X129322571Y-51339235D01*
X129298773Y-51345196D01*
X129274504Y-51348796D01*
X129250000Y-51350000D01*
X127750000Y-51350000D01*
X127725496Y-51348796D01*
X127701227Y-51345196D01*
X127677429Y-51339235D01*
X127654329Y-51330970D01*
X127632151Y-51320480D01*
X127611107Y-51307867D01*
X127591402Y-51293253D01*
X127573223Y-51276777D01*
X127556747Y-51258598D01*
X127542133Y-51238893D01*
X127529520Y-51217849D01*
X127519030Y-51195671D01*
X127510765Y-51172571D01*
X127504804Y-51148773D01*
X127501204Y-51124504D01*
X127500000Y-51100000D01*
X127500000Y-49900000D01*
X127501204Y-49875496D01*
X127504804Y-49851227D01*
X127510765Y-49827429D01*
X127519030Y-49804329D01*
X127529520Y-49782151D01*
X127542133Y-49761107D01*
X127556747Y-49741402D01*
X127573223Y-49723223D01*
X127591402Y-49706747D01*
X127611107Y-49692133D01*
X127632151Y-49679520D01*
X127654329Y-49669030D01*
X127677429Y-49660765D01*
X127701227Y-49654804D01*
X127725496Y-49651204D01*
X127750000Y-49650000D01*
X129250000Y-49650000D01*
X129274504Y-49651204D01*
X129274504Y-49651204D01*
G37*
D17*
X128500000Y-50500000D03*
D15*
X165000000Y-65000000D03*
D16*
G36*
X165774504Y-61651204D02*
G01*
X165798773Y-61654804D01*
X165822571Y-61660765D01*
X165845671Y-61669030D01*
X165867849Y-61679520D01*
X165888893Y-61692133D01*
X165908598Y-61706747D01*
X165926777Y-61723223D01*
X165943253Y-61741402D01*
X165957867Y-61761107D01*
X165970480Y-61782151D01*
X165980970Y-61804329D01*
X165989235Y-61827429D01*
X165995196Y-61851227D01*
X165998796Y-61875496D01*
X166000000Y-61900000D01*
X166000000Y-63100000D01*
X165998796Y-63124504D01*
X165995196Y-63148773D01*
X165989235Y-63172571D01*
X165980970Y-63195671D01*
X165970480Y-63217849D01*
X165957867Y-63238893D01*
X165943253Y-63258598D01*
X165926777Y-63276777D01*
X165908598Y-63293253D01*
X165888893Y-63307867D01*
X165867849Y-63320480D01*
X165845671Y-63330970D01*
X165822571Y-63339235D01*
X165798773Y-63345196D01*
X165774504Y-63348796D01*
X165750000Y-63350000D01*
X164250000Y-63350000D01*
X164225496Y-63348796D01*
X164201227Y-63345196D01*
X164177429Y-63339235D01*
X164154329Y-63330970D01*
X164132151Y-63320480D01*
X164111107Y-63307867D01*
X164091402Y-63293253D01*
X164073223Y-63276777D01*
X164056747Y-63258598D01*
X164042133Y-63238893D01*
X164029520Y-63217849D01*
X164019030Y-63195671D01*
X164010765Y-63172571D01*
X164004804Y-63148773D01*
X164001204Y-63124504D01*
X164000000Y-63100000D01*
X164000000Y-61900000D01*
X164001204Y-61875496D01*
X164004804Y-61851227D01*
X164010765Y-61827429D01*
X164019030Y-61804329D01*
X164029520Y-61782151D01*
X164042133Y-61761107D01*
X164056747Y-61741402D01*
X164073223Y-61723223D01*
X164091402Y-61706747D01*
X164111107Y-61692133D01*
X164132151Y-61679520D01*
X164154329Y-61669030D01*
X164177429Y-61660765D01*
X164201227Y-61654804D01*
X164225496Y-61651204D01*
X164250000Y-61650000D01*
X165750000Y-61650000D01*
X165774504Y-61651204D01*
X165774504Y-61651204D01*
G37*
D17*
X165000000Y-62500000D03*
D20*
X157500000Y-38000000D03*
X155000000Y-38000000D03*
X152500000Y-38000000D03*
D16*
G36*
X150624504Y-37026204D02*
G01*
X150648773Y-37029804D01*
X150672571Y-37035765D01*
X150695671Y-37044030D01*
X150717849Y-37054520D01*
X150738893Y-37067133D01*
X150758598Y-37081747D01*
X150776777Y-37098223D01*
X150793253Y-37116402D01*
X150807867Y-37136107D01*
X150820480Y-37157151D01*
X150830970Y-37179329D01*
X150839235Y-37202429D01*
X150845196Y-37226227D01*
X150848796Y-37250496D01*
X150850000Y-37275000D01*
X150850000Y-38725000D01*
X150848796Y-38749504D01*
X150845196Y-38773773D01*
X150839235Y-38797571D01*
X150830970Y-38820671D01*
X150820480Y-38842849D01*
X150807867Y-38863893D01*
X150793253Y-38883598D01*
X150776777Y-38901777D01*
X150758598Y-38918253D01*
X150738893Y-38932867D01*
X150717849Y-38945480D01*
X150695671Y-38955970D01*
X150672571Y-38964235D01*
X150648773Y-38970196D01*
X150624504Y-38973796D01*
X150600000Y-38975000D01*
X149400000Y-38975000D01*
X149375496Y-38973796D01*
X149351227Y-38970196D01*
X149327429Y-38964235D01*
X149304329Y-38955970D01*
X149282151Y-38945480D01*
X149261107Y-38932867D01*
X149241402Y-38918253D01*
X149223223Y-38901777D01*
X149206747Y-38883598D01*
X149192133Y-38863893D01*
X149179520Y-38842849D01*
X149169030Y-38820671D01*
X149160765Y-38797571D01*
X149154804Y-38773773D01*
X149151204Y-38749504D01*
X149150000Y-38725000D01*
X149150000Y-37275000D01*
X149151204Y-37250496D01*
X149154804Y-37226227D01*
X149160765Y-37202429D01*
X149169030Y-37179329D01*
X149179520Y-37157151D01*
X149192133Y-37136107D01*
X149206747Y-37116402D01*
X149223223Y-37098223D01*
X149241402Y-37081747D01*
X149261107Y-37067133D01*
X149282151Y-37054520D01*
X149304329Y-37044030D01*
X149327429Y-37035765D01*
X149351227Y-37029804D01*
X149375496Y-37026204D01*
X149400000Y-37025000D01*
X150600000Y-37025000D01*
X150624504Y-37026204D01*
X150624504Y-37026204D01*
G37*
D17*
X150000000Y-38000000D03*
D20*
X143500000Y-38000000D03*
X141000000Y-38000000D03*
X138500000Y-38000000D03*
D16*
G36*
X136624504Y-37026204D02*
G01*
X136648773Y-37029804D01*
X136672571Y-37035765D01*
X136695671Y-37044030D01*
X136717849Y-37054520D01*
X136738893Y-37067133D01*
X136758598Y-37081747D01*
X136776777Y-37098223D01*
X136793253Y-37116402D01*
X136807867Y-37136107D01*
X136820480Y-37157151D01*
X136830970Y-37179329D01*
X136839235Y-37202429D01*
X136845196Y-37226227D01*
X136848796Y-37250496D01*
X136850000Y-37275000D01*
X136850000Y-38725000D01*
X136848796Y-38749504D01*
X136845196Y-38773773D01*
X136839235Y-38797571D01*
X136830970Y-38820671D01*
X136820480Y-38842849D01*
X136807867Y-38863893D01*
X136793253Y-38883598D01*
X136776777Y-38901777D01*
X136758598Y-38918253D01*
X136738893Y-38932867D01*
X136717849Y-38945480D01*
X136695671Y-38955970D01*
X136672571Y-38964235D01*
X136648773Y-38970196D01*
X136624504Y-38973796D01*
X136600000Y-38975000D01*
X135400000Y-38975000D01*
X135375496Y-38973796D01*
X135351227Y-38970196D01*
X135327429Y-38964235D01*
X135304329Y-38955970D01*
X135282151Y-38945480D01*
X135261107Y-38932867D01*
X135241402Y-38918253D01*
X135223223Y-38901777D01*
X135206747Y-38883598D01*
X135192133Y-38863893D01*
X135179520Y-38842849D01*
X135169030Y-38820671D01*
X135160765Y-38797571D01*
X135154804Y-38773773D01*
X135151204Y-38749504D01*
X135150000Y-38725000D01*
X135150000Y-37275000D01*
X135151204Y-37250496D01*
X135154804Y-37226227D01*
X135160765Y-37202429D01*
X135169030Y-37179329D01*
X135179520Y-37157151D01*
X135192133Y-37136107D01*
X135206747Y-37116402D01*
X135223223Y-37098223D01*
X135241402Y-37081747D01*
X135261107Y-37067133D01*
X135282151Y-37054520D01*
X135304329Y-37044030D01*
X135327429Y-37035765D01*
X135351227Y-37029804D01*
X135375496Y-37026204D01*
X135400000Y-37025000D01*
X136600000Y-37025000D01*
X136624504Y-37026204D01*
X136624504Y-37026204D01*
G37*
D17*
X136000000Y-38000000D03*
D21*
X142210000Y-49540000D02*
X140250000Y-51500000D01*
X143000000Y-49540000D02*
X142210000Y-49540000D01*
D22*
X135960000Y-49040000D02*
X128500000Y-56500000D01*
X135960000Y-63540000D02*
X128500000Y-71000000D01*
X137500000Y-63540000D02*
X135960000Y-63540000D01*
X135960000Y-78040000D02*
X128500000Y-85500000D01*
X137500000Y-78040000D02*
X135960000Y-78040000D01*
X144000000Y-86040000D02*
X137500000Y-92540000D01*
X144000000Y-83500000D02*
X144000000Y-86040000D01*
X139380000Y-54620000D02*
X137500000Y-56500000D01*
X143000000Y-54620000D02*
X139380000Y-54620000D01*
X138499999Y-70000001D02*
X137500000Y-71000000D01*
X139000000Y-69500000D02*
X138499999Y-70000001D01*
X143000000Y-57160000D02*
X139000000Y-61160000D01*
X139000000Y-61160000D02*
X139000000Y-69500000D01*
X154120000Y-54620000D02*
X156000000Y-56500000D01*
X150620000Y-54620000D02*
X154120000Y-54620000D01*
X155000001Y-70000001D02*
X156000000Y-71000000D01*
X154500000Y-69500000D02*
X155000001Y-70000001D01*
X150620000Y-57160000D02*
X154500000Y-61040000D01*
X154500000Y-61040000D02*
X154500000Y-69500000D01*
X143799999Y-63980001D02*
X143000000Y-64780000D01*
X145500000Y-62280000D02*
X143799999Y-63980001D01*
X145500000Y-41475000D02*
X145500000Y-62280000D01*
X143500000Y-38000000D02*
X143500000Y-39475000D01*
X143500000Y-39475000D02*
X145500000Y-41475000D01*
X143799999Y-51280001D02*
X143000000Y-52080000D01*
X144500000Y-50580000D02*
X143799999Y-51280001D01*
X144500000Y-42975000D02*
X144500000Y-50580000D01*
X141000000Y-38000000D02*
X141000000Y-39475000D01*
X141000000Y-39475000D02*
X144500000Y-42975000D01*
X157500000Y-38125000D02*
X157500000Y-38000000D01*
X149000000Y-46625000D02*
X157500000Y-38125000D01*
X150620000Y-64780000D02*
X149000000Y-63160000D01*
X149000000Y-63160000D02*
X149000000Y-46625000D01*
X150620000Y-67320000D02*
X148000000Y-64700000D01*
X155000000Y-38125000D02*
X155000000Y-38000000D01*
X148000000Y-45125000D02*
X155000000Y-38125000D01*
X148000000Y-45500000D02*
X148000000Y-45125000D01*
X148000000Y-64700000D02*
X148000000Y-45500000D01*
X132500000Y-46500000D02*
X128500000Y-50500000D01*
X135750000Y-46500000D02*
X132500000Y-46500000D01*
X132500000Y-61000000D02*
X128500000Y-65000000D01*
X137500000Y-61000000D02*
X132500000Y-61000000D01*
X132500000Y-75500000D02*
X128500000Y-79500000D01*
X137500000Y-75500000D02*
X132500000Y-75500000D01*
X132500000Y-90000000D02*
X128500000Y-94000000D01*
X137500000Y-90000000D02*
X132500000Y-90000000D01*
X163500000Y-46500000D02*
X165000000Y-48000000D01*
X155500000Y-46500000D02*
X163500000Y-46500000D01*
X163500000Y-61000000D02*
X165000000Y-62500000D01*
X156000000Y-61000000D02*
X163500000Y-61000000D01*
X163500000Y-75500000D02*
X165000000Y-77000000D01*
X155500000Y-75500000D02*
X163500000Y-75500000D01*
X163500000Y-90000000D02*
X165000000Y-91500000D01*
X155500000Y-90000000D02*
X163500000Y-90000000D01*
X157540000Y-49040000D02*
X165000000Y-56500000D01*
X155500000Y-49040000D02*
X157540000Y-49040000D01*
X157540000Y-63540000D02*
X165000000Y-71000000D01*
X156000000Y-63540000D02*
X157540000Y-63540000D01*
X157540000Y-78040000D02*
X165000000Y-85500000D01*
X155500000Y-78040000D02*
X157540000Y-78040000D01*
X149500000Y-86540000D02*
X155500000Y-92540000D01*
X149500000Y-83500000D02*
X149500000Y-86540000D01*
X138499999Y-84500001D02*
X137500000Y-85500000D01*
X140000000Y-83000000D02*
X138499999Y-84500001D01*
X143000000Y-59700000D02*
X140000000Y-62700000D01*
X140000000Y-62700000D02*
X140000000Y-83000000D01*
X143000001Y-73500001D02*
X144000000Y-74500000D01*
X141000000Y-71500000D02*
X143000001Y-73500001D01*
X143000000Y-62240000D02*
X141000000Y-64240000D01*
X141000000Y-64240000D02*
X141000000Y-71500000D01*
X155000001Y-84500001D02*
X156000000Y-85500000D01*
X153500000Y-83000000D02*
X155000001Y-84500001D01*
X150620000Y-59700000D02*
X153500000Y-62580000D01*
X153500000Y-62580000D02*
X153500000Y-83000000D01*
X150499999Y-73500001D02*
X149500000Y-74500000D01*
X152500000Y-71500000D02*
X150499999Y-73500001D01*
X150620000Y-62240000D02*
X152500000Y-64120000D01*
X152500000Y-64120000D02*
X152500000Y-71500000D01*
D23*
G36*
X162373000Y-40500000D02*
G01*
X162375440Y-40524776D01*
X162382667Y-40548601D01*
X162394403Y-40570557D01*
X162410197Y-40589803D01*
X162429443Y-40605597D01*
X162451399Y-40617333D01*
X162475224Y-40624560D01*
X162500000Y-40627000D01*
X168848000Y-40627000D01*
X168848001Y-81967978D01*
X168848000Y-97373000D01*
X124652000Y-97373000D01*
X124652000Y-96036993D01*
X136722612Y-96036993D01*
X136788137Y-96275860D01*
X137035116Y-96391760D01*
X137299960Y-96457250D01*
X137572492Y-96469812D01*
X137842238Y-96428965D01*
X138098832Y-96336277D01*
X138211863Y-96275860D01*
X138277388Y-96036993D01*
X154722612Y-96036993D01*
X154788137Y-96275860D01*
X155035116Y-96391760D01*
X155299960Y-96457250D01*
X155572492Y-96469812D01*
X155842238Y-96428965D01*
X156098832Y-96336277D01*
X156211863Y-96275860D01*
X156277388Y-96036993D01*
X155500000Y-95259605D01*
X154722612Y-96036993D01*
X138277388Y-96036993D01*
X137500000Y-95259605D01*
X136722612Y-96036993D01*
X124652000Y-96036993D01*
X124652000Y-91500000D01*
X126865854Y-91500000D01*
X126894371Y-91789543D01*
X126978828Y-92067958D01*
X127115978Y-92324547D01*
X127300550Y-92549450D01*
X127372667Y-92608635D01*
X127261080Y-92668279D01*
X127127723Y-92777723D01*
X127018279Y-92911080D01*
X126936956Y-93063226D01*
X126886877Y-93228314D01*
X126869967Y-93400000D01*
X126869967Y-94600000D01*
X126886877Y-94771686D01*
X126936956Y-94936774D01*
X127018279Y-95088920D01*
X127127723Y-95222277D01*
X127261080Y-95331721D01*
X127413226Y-95413044D01*
X127578314Y-95463123D01*
X127750000Y-95480033D01*
X129250000Y-95480033D01*
X129421686Y-95463123D01*
X129586774Y-95413044D01*
X129738920Y-95331721D01*
X129872277Y-95222277D01*
X129929548Y-95152492D01*
X136110188Y-95152492D01*
X136151035Y-95422238D01*
X136243723Y-95678832D01*
X136304140Y-95791863D01*
X136543007Y-95857388D01*
X137320395Y-95080000D01*
X137679605Y-95080000D01*
X138456993Y-95857388D01*
X138695860Y-95791863D01*
X138811760Y-95544884D01*
X138877250Y-95280040D01*
X138883129Y-95152492D01*
X154110188Y-95152492D01*
X154151035Y-95422238D01*
X154243723Y-95678832D01*
X154304140Y-95791863D01*
X154543007Y-95857388D01*
X155320395Y-95080000D01*
X155679605Y-95080000D01*
X156456993Y-95857388D01*
X156695860Y-95791863D01*
X156811760Y-95544884D01*
X156877250Y-95280040D01*
X156889812Y-95007508D01*
X156848965Y-94737762D01*
X156756277Y-94481168D01*
X156695860Y-94368137D01*
X156456993Y-94302612D01*
X155679605Y-95080000D01*
X155320395Y-95080000D01*
X154543007Y-94302612D01*
X154304140Y-94368137D01*
X154188240Y-94615116D01*
X154122750Y-94879960D01*
X154110188Y-95152492D01*
X138883129Y-95152492D01*
X138889812Y-95007508D01*
X138848965Y-94737762D01*
X138756277Y-94481168D01*
X138695860Y-94368137D01*
X138456993Y-94302612D01*
X137679605Y-95080000D01*
X137320395Y-95080000D01*
X136543007Y-94302612D01*
X136304140Y-94368137D01*
X136188240Y-94615116D01*
X136122750Y-94879960D01*
X136110188Y-95152492D01*
X129929548Y-95152492D01*
X129981721Y-95088920D01*
X130063044Y-94936774D01*
X130113123Y-94771686D01*
X130130033Y-94600000D01*
X130130033Y-93610232D01*
X132863265Y-90877000D01*
X136133313Y-90877000D01*
X136167925Y-90991103D01*
X136226147Y-91100028D01*
X136304499Y-91195501D01*
X136399972Y-91273853D01*
X136508897Y-91332075D01*
X136627087Y-91367927D01*
X136750000Y-91380033D01*
X136757478Y-91380033D01*
X136622213Y-91470414D01*
X136430414Y-91662213D01*
X136279718Y-91887746D01*
X136175917Y-92138344D01*
X136123000Y-92404377D01*
X136123000Y-92675623D01*
X136175917Y-92941656D01*
X136279718Y-93192254D01*
X136430414Y-93417787D01*
X136622213Y-93609586D01*
X136847746Y-93760282D01*
X136954445Y-93804478D01*
X136901168Y-93823723D01*
X136788137Y-93884140D01*
X136722612Y-94123007D01*
X137500000Y-94900395D01*
X138277388Y-94123007D01*
X138211863Y-93884140D01*
X138043723Y-93805237D01*
X138152254Y-93760282D01*
X138377787Y-93609586D01*
X138569586Y-93417787D01*
X138720282Y-93192254D01*
X138824083Y-92941656D01*
X138856746Y-92777444D01*
X144023000Y-92777444D01*
X144023000Y-93222555D01*
X144044371Y-93439542D01*
X144128828Y-93717957D01*
X144265978Y-93974546D01*
X144450550Y-94199450D01*
X144675453Y-94384022D01*
X144932042Y-94521172D01*
X145210457Y-94605629D01*
X145500000Y-94634146D01*
X145789542Y-94605629D01*
X146067957Y-94521172D01*
X146324546Y-94384022D01*
X146547432Y-94201106D01*
X146560498Y-94244180D01*
X146619463Y-94354494D01*
X146698815Y-94451185D01*
X146795506Y-94530537D01*
X146905820Y-94589502D01*
X147025518Y-94625812D01*
X147150000Y-94638072D01*
X147714250Y-94635000D01*
X147873000Y-94476250D01*
X147873000Y-93127000D01*
X148127000Y-93127000D01*
X148127000Y-94476250D01*
X148285750Y-94635000D01*
X148850000Y-94638072D01*
X148974482Y-94625812D01*
X149094180Y-94589502D01*
X149204494Y-94530537D01*
X149301185Y-94451185D01*
X149380537Y-94354494D01*
X149439502Y-94244180D01*
X149475812Y-94124482D01*
X149488072Y-94000000D01*
X149485000Y-93285750D01*
X149326250Y-93127000D01*
X148127000Y-93127000D01*
X147873000Y-93127000D01*
X147853000Y-93127000D01*
X147853000Y-92873000D01*
X147873000Y-92873000D01*
X147873000Y-91523750D01*
X148127000Y-91523750D01*
X148127000Y-92873000D01*
X149326250Y-92873000D01*
X149485000Y-92714250D01*
X149488072Y-92000000D01*
X149475812Y-91875518D01*
X149439502Y-91755820D01*
X149380537Y-91645506D01*
X149301185Y-91548815D01*
X149204494Y-91469463D01*
X149094180Y-91410498D01*
X148974482Y-91374188D01*
X148850000Y-91361928D01*
X148285750Y-91365000D01*
X148127000Y-91523750D01*
X147873000Y-91523750D01*
X147714250Y-91365000D01*
X147150000Y-91361928D01*
X147025518Y-91374188D01*
X146905820Y-91410498D01*
X146795506Y-91469463D01*
X146698815Y-91548815D01*
X146619463Y-91645506D01*
X146560498Y-91755820D01*
X146547432Y-91798894D01*
X146324547Y-91615978D01*
X146067958Y-91478828D01*
X145789543Y-91394371D01*
X145500000Y-91365854D01*
X145210458Y-91394371D01*
X144932043Y-91478828D01*
X144675454Y-91615978D01*
X144450550Y-91800550D01*
X144265978Y-92025453D01*
X144128828Y-92282042D01*
X144044371Y-92560457D01*
X144023000Y-92777444D01*
X138856746Y-92777444D01*
X138877000Y-92675623D01*
X138877000Y-92404377D01*
X138876816Y-92403449D01*
X144589668Y-86690597D01*
X144623133Y-86663133D01*
X144732727Y-86529592D01*
X144814162Y-86377237D01*
X144864310Y-86211922D01*
X144877000Y-86083079D01*
X144877000Y-86083078D01*
X144881243Y-86040001D01*
X144877000Y-85996924D01*
X144877000Y-84870783D01*
X145037152Y-84763773D01*
X145263773Y-84537152D01*
X145441828Y-84270673D01*
X145564475Y-83974578D01*
X145627000Y-83660245D01*
X145627000Y-83339755D01*
X147873000Y-83339755D01*
X147873000Y-83660245D01*
X147935525Y-83974578D01*
X148058172Y-84270673D01*
X148236227Y-84537152D01*
X148462848Y-84763773D01*
X148623000Y-84870783D01*
X148623001Y-86496911D01*
X148618757Y-86540000D01*
X148635690Y-86711922D01*
X148685838Y-86877236D01*
X148767274Y-87029592D01*
X148849406Y-87129671D01*
X148849409Y-87129674D01*
X148876868Y-87163133D01*
X148910327Y-87190592D01*
X154123184Y-92403449D01*
X154123000Y-92404377D01*
X154123000Y-92675623D01*
X154175917Y-92941656D01*
X154279718Y-93192254D01*
X154430414Y-93417787D01*
X154622213Y-93609586D01*
X154847746Y-93760282D01*
X154954445Y-93804478D01*
X154901168Y-93823723D01*
X154788137Y-93884140D01*
X154722612Y-94123007D01*
X155500000Y-94900395D01*
X156277388Y-94123007D01*
X156211863Y-93884140D01*
X156043723Y-93805237D01*
X156152254Y-93760282D01*
X156377787Y-93609586D01*
X156569586Y-93417787D01*
X156720282Y-93192254D01*
X156824083Y-92941656D01*
X156877000Y-92675623D01*
X156877000Y-92404377D01*
X156824083Y-92138344D01*
X156720282Y-91887746D01*
X156569586Y-91662213D01*
X156377787Y-91470414D01*
X156242522Y-91380033D01*
X156250000Y-91380033D01*
X156372913Y-91367927D01*
X156491103Y-91332075D01*
X156600028Y-91273853D01*
X156695501Y-91195501D01*
X156773853Y-91100028D01*
X156832075Y-90991103D01*
X156866687Y-90877000D01*
X163136735Y-90877000D01*
X163369967Y-91110232D01*
X163369967Y-92100000D01*
X163386877Y-92271686D01*
X163436956Y-92436774D01*
X163518279Y-92588920D01*
X163627723Y-92722277D01*
X163761080Y-92831721D01*
X163872667Y-92891365D01*
X163800550Y-92950550D01*
X163615978Y-93175453D01*
X163478828Y-93432042D01*
X163394371Y-93710457D01*
X163365854Y-94000000D01*
X163394371Y-94289543D01*
X163478828Y-94567958D01*
X163615978Y-94824547D01*
X163800550Y-95049450D01*
X164025453Y-95234022D01*
X164282042Y-95371172D01*
X164560457Y-95455629D01*
X164777444Y-95477000D01*
X165222556Y-95477000D01*
X165439543Y-95455629D01*
X165717958Y-95371172D01*
X165974547Y-95234022D01*
X166199450Y-95049450D01*
X166384022Y-94824547D01*
X166521172Y-94567958D01*
X166605629Y-94289543D01*
X166634146Y-94000000D01*
X166605629Y-93710457D01*
X166521172Y-93432042D01*
X166384022Y-93175453D01*
X166199450Y-92950550D01*
X166127333Y-92891365D01*
X166238920Y-92831721D01*
X166372277Y-92722277D01*
X166481721Y-92588920D01*
X166563044Y-92436774D01*
X166613123Y-92271686D01*
X166630033Y-92100000D01*
X166630033Y-90900000D01*
X166613123Y-90728314D01*
X166563044Y-90563226D01*
X166481721Y-90411080D01*
X166372277Y-90277723D01*
X166238920Y-90168279D01*
X166086774Y-90086956D01*
X165921686Y-90036877D01*
X165750000Y-90019967D01*
X164760232Y-90019967D01*
X164150597Y-89410332D01*
X164123133Y-89376867D01*
X163989592Y-89267273D01*
X163837237Y-89185838D01*
X163671922Y-89135690D01*
X163543079Y-89123000D01*
X163500000Y-89118757D01*
X163456921Y-89123000D01*
X156866687Y-89123000D01*
X156832075Y-89008897D01*
X156773853Y-88899972D01*
X156695501Y-88804499D01*
X156600028Y-88726147D01*
X156491103Y-88667925D01*
X156372913Y-88632073D01*
X156250000Y-88619967D01*
X154750000Y-88619967D01*
X154627087Y-88632073D01*
X154508897Y-88667925D01*
X154399972Y-88726147D01*
X154304499Y-88804499D01*
X154226147Y-88899972D01*
X154167925Y-89008897D01*
X154132073Y-89127087D01*
X154119967Y-89250000D01*
X154119967Y-89919702D01*
X150377000Y-86176735D01*
X150377000Y-84870783D01*
X150537152Y-84763773D01*
X150763773Y-84537152D01*
X150941828Y-84270673D01*
X151064475Y-83974578D01*
X151127000Y-83660245D01*
X151127000Y-83339755D01*
X151064475Y-83025422D01*
X150941828Y-82729327D01*
X150763773Y-82462848D01*
X150537152Y-82236227D01*
X150270673Y-82058172D01*
X149974578Y-81935525D01*
X149660245Y-81873000D01*
X149339755Y-81873000D01*
X149025422Y-81935525D01*
X148729327Y-82058172D01*
X148462848Y-82236227D01*
X148236227Y-82462848D01*
X148058172Y-82729327D01*
X147935525Y-83025422D01*
X147873000Y-83339755D01*
X145627000Y-83339755D01*
X145564475Y-83025422D01*
X145441828Y-82729327D01*
X145263773Y-82462848D01*
X145037152Y-82236227D01*
X144770673Y-82058172D01*
X144474578Y-81935525D01*
X144160245Y-81873000D01*
X143839755Y-81873000D01*
X143525422Y-81935525D01*
X143229327Y-82058172D01*
X142962848Y-82236227D01*
X142736227Y-82462848D01*
X142558172Y-82729327D01*
X142435525Y-83025422D01*
X142373000Y-83339755D01*
X142373000Y-83660245D01*
X142435525Y-83974578D01*
X142558172Y-84270673D01*
X142736227Y-84537152D01*
X142962848Y-84763773D01*
X143123001Y-84870783D01*
X143123001Y-85676734D01*
X138880033Y-89919702D01*
X138880033Y-89250000D01*
X138867927Y-89127087D01*
X138832075Y-89008897D01*
X138773853Y-88899972D01*
X138695501Y-88804499D01*
X138600028Y-88726147D01*
X138491103Y-88667925D01*
X138372913Y-88632073D01*
X138250000Y-88619967D01*
X136750000Y-88619967D01*
X136627087Y-88632073D01*
X136508897Y-88667925D01*
X136399972Y-88726147D01*
X136304499Y-88804499D01*
X136226147Y-88899972D01*
X136167925Y-89008897D01*
X136133313Y-89123000D01*
X132543069Y-89123000D01*
X132499999Y-89118758D01*
X132456930Y-89123000D01*
X132456921Y-89123000D01*
X132328078Y-89135690D01*
X132162763Y-89185838D01*
X132010408Y-89267273D01*
X131876867Y-89376867D01*
X131849403Y-89410332D01*
X130092514Y-91167221D01*
X130021172Y-90932042D01*
X129884022Y-90675453D01*
X129699450Y-90450550D01*
X129474547Y-90265978D01*
X129217958Y-90128828D01*
X128939543Y-90044371D01*
X128722556Y-90023000D01*
X128277444Y-90023000D01*
X128060457Y-90044371D01*
X127782042Y-90128828D01*
X127525453Y-90265978D01*
X127300550Y-90450550D01*
X127115978Y-90675453D01*
X126978828Y-90932042D01*
X126894371Y-91210457D01*
X126865854Y-91500000D01*
X124652000Y-91500000D01*
X124652000Y-77000000D01*
X126865854Y-77000000D01*
X126894371Y-77289543D01*
X126978828Y-77567958D01*
X127115978Y-77824547D01*
X127300550Y-78049450D01*
X127372667Y-78108635D01*
X127261080Y-78168279D01*
X127127723Y-78277723D01*
X127018279Y-78411080D01*
X126936956Y-78563226D01*
X126886877Y-78728314D01*
X126869967Y-78900000D01*
X126869967Y-80100000D01*
X126886877Y-80271686D01*
X126936956Y-80436774D01*
X127018279Y-80588920D01*
X127127723Y-80722277D01*
X127261080Y-80831721D01*
X127413226Y-80913044D01*
X127578314Y-80963123D01*
X127750000Y-80980033D01*
X129250000Y-80980033D01*
X129421686Y-80963123D01*
X129586774Y-80913044D01*
X129738920Y-80831721D01*
X129872277Y-80722277D01*
X129981721Y-80588920D01*
X130063044Y-80436774D01*
X130113123Y-80271686D01*
X130130033Y-80100000D01*
X130130033Y-79110232D01*
X132863265Y-76377000D01*
X136133313Y-76377000D01*
X136167925Y-76491103D01*
X136226147Y-76600028D01*
X136304499Y-76695501D01*
X136399972Y-76773853D01*
X136508897Y-76832075D01*
X136627087Y-76867927D01*
X136750000Y-76880033D01*
X136757478Y-76880033D01*
X136622213Y-76970414D01*
X136430414Y-77162213D01*
X136429888Y-77163000D01*
X136003076Y-77163000D01*
X135959999Y-77158757D01*
X135916922Y-77163000D01*
X135916921Y-77163000D01*
X135788078Y-77175690D01*
X135622763Y-77225838D01*
X135470408Y-77307273D01*
X135336867Y-77416867D01*
X135309403Y-77450332D01*
X128849158Y-83910577D01*
X128660245Y-83873000D01*
X128339755Y-83873000D01*
X128025422Y-83935525D01*
X127729327Y-84058172D01*
X127462848Y-84236227D01*
X127236227Y-84462848D01*
X127058172Y-84729327D01*
X126935525Y-85025422D01*
X126873000Y-85339755D01*
X126873000Y-85660245D01*
X126935525Y-85974578D01*
X127058172Y-86270673D01*
X127236227Y-86537152D01*
X127462848Y-86763773D01*
X127729327Y-86941828D01*
X128025422Y-87064475D01*
X128339755Y-87127000D01*
X128660245Y-87127000D01*
X128974578Y-87064475D01*
X129270673Y-86941828D01*
X129537152Y-86763773D01*
X129763773Y-86537152D01*
X129941828Y-86270673D01*
X130064475Y-85974578D01*
X130127000Y-85660245D01*
X130127000Y-85339755D01*
X130089423Y-85150842D01*
X133703272Y-81536993D01*
X136722612Y-81536993D01*
X136788137Y-81775860D01*
X137035116Y-81891760D01*
X137299960Y-81957250D01*
X137572492Y-81969812D01*
X137842238Y-81928965D01*
X138098832Y-81836277D01*
X138211863Y-81775860D01*
X138277388Y-81536993D01*
X137500000Y-80759605D01*
X136722612Y-81536993D01*
X133703272Y-81536993D01*
X134587773Y-80652492D01*
X136110188Y-80652492D01*
X136151035Y-80922238D01*
X136243723Y-81178832D01*
X136304140Y-81291863D01*
X136543007Y-81357388D01*
X137320395Y-80580000D01*
X137679605Y-80580000D01*
X138456993Y-81357388D01*
X138695860Y-81291863D01*
X138811760Y-81044884D01*
X138877250Y-80780040D01*
X138889812Y-80507508D01*
X138848965Y-80237762D01*
X138756277Y-79981168D01*
X138695860Y-79868137D01*
X138456993Y-79802612D01*
X137679605Y-80580000D01*
X137320395Y-80580000D01*
X136543007Y-79802612D01*
X136304140Y-79868137D01*
X136188240Y-80115116D01*
X136122750Y-80379960D01*
X136110188Y-80652492D01*
X134587773Y-80652492D01*
X136323265Y-78917000D01*
X136429888Y-78917000D01*
X136430414Y-78917787D01*
X136622213Y-79109586D01*
X136847746Y-79260282D01*
X136954445Y-79304478D01*
X136901168Y-79323723D01*
X136788137Y-79384140D01*
X136722612Y-79623007D01*
X137500000Y-80400395D01*
X138277388Y-79623007D01*
X138211863Y-79384140D01*
X138043723Y-79305237D01*
X138152254Y-79260282D01*
X138377787Y-79109586D01*
X138569586Y-78917787D01*
X138720282Y-78692254D01*
X138824083Y-78441656D01*
X138877000Y-78175623D01*
X138877000Y-77904377D01*
X138824083Y-77638344D01*
X138720282Y-77387746D01*
X138569586Y-77162213D01*
X138377787Y-76970414D01*
X138242522Y-76880033D01*
X138250000Y-76880033D01*
X138372913Y-76867927D01*
X138491103Y-76832075D01*
X138600028Y-76773853D01*
X138695501Y-76695501D01*
X138773853Y-76600028D01*
X138832075Y-76491103D01*
X138867927Y-76372913D01*
X138880033Y-76250000D01*
X138880033Y-74750000D01*
X138867927Y-74627087D01*
X138832075Y-74508897D01*
X138773853Y-74399972D01*
X138695501Y-74304499D01*
X138600028Y-74226147D01*
X138491103Y-74167925D01*
X138372913Y-74132073D01*
X138250000Y-74119967D01*
X136750000Y-74119967D01*
X136627087Y-74132073D01*
X136508897Y-74167925D01*
X136399972Y-74226147D01*
X136304499Y-74304499D01*
X136226147Y-74399972D01*
X136167925Y-74508897D01*
X136133313Y-74623000D01*
X132543069Y-74623000D01*
X132499999Y-74618758D01*
X132456930Y-74623000D01*
X132456921Y-74623000D01*
X132328078Y-74635690D01*
X132162763Y-74685838D01*
X132010408Y-74767273D01*
X131876867Y-74876867D01*
X131849403Y-74910332D01*
X130092514Y-76667221D01*
X130021172Y-76432042D01*
X129884022Y-76175453D01*
X129699450Y-75950550D01*
X129474547Y-75765978D01*
X129217958Y-75628828D01*
X128939543Y-75544371D01*
X128722556Y-75523000D01*
X128277444Y-75523000D01*
X128060457Y-75544371D01*
X127782042Y-75628828D01*
X127525453Y-75765978D01*
X127300550Y-75950550D01*
X127115978Y-76175453D01*
X126978828Y-76432042D01*
X126894371Y-76710457D01*
X126865854Y-77000000D01*
X124652000Y-77000000D01*
X124652000Y-62500000D01*
X126865854Y-62500000D01*
X126894371Y-62789543D01*
X126978828Y-63067958D01*
X127115978Y-63324547D01*
X127300550Y-63549450D01*
X127372667Y-63608635D01*
X127261080Y-63668279D01*
X127127723Y-63777723D01*
X127018279Y-63911080D01*
X126936956Y-64063226D01*
X126886877Y-64228314D01*
X126869967Y-64400000D01*
X126869967Y-65600000D01*
X126886877Y-65771686D01*
X126936956Y-65936774D01*
X127018279Y-66088920D01*
X127127723Y-66222277D01*
X127261080Y-66331721D01*
X127413226Y-66413044D01*
X127578314Y-66463123D01*
X127750000Y-66480033D01*
X129250000Y-66480033D01*
X129421686Y-66463123D01*
X129586774Y-66413044D01*
X129738920Y-66331721D01*
X129872277Y-66222277D01*
X129981721Y-66088920D01*
X130063044Y-65936774D01*
X130113123Y-65771686D01*
X130130033Y-65600000D01*
X130130033Y-64610232D01*
X132863265Y-61877000D01*
X136133313Y-61877000D01*
X136167925Y-61991103D01*
X136226147Y-62100028D01*
X136304499Y-62195501D01*
X136399972Y-62273853D01*
X136508897Y-62332075D01*
X136627087Y-62367927D01*
X136750000Y-62380033D01*
X136757478Y-62380033D01*
X136622213Y-62470414D01*
X136430414Y-62662213D01*
X136429888Y-62663000D01*
X136003076Y-62663000D01*
X135959999Y-62658757D01*
X135916922Y-62663000D01*
X135916921Y-62663000D01*
X135788078Y-62675690D01*
X135622763Y-62725838D01*
X135470408Y-62807273D01*
X135336867Y-62916867D01*
X135309403Y-62950332D01*
X128849158Y-69410577D01*
X128660245Y-69373000D01*
X128339755Y-69373000D01*
X128025422Y-69435525D01*
X127729327Y-69558172D01*
X127462848Y-69736227D01*
X127236227Y-69962848D01*
X127058172Y-70229327D01*
X126935525Y-70525422D01*
X126873000Y-70839755D01*
X126873000Y-71160245D01*
X126935525Y-71474578D01*
X127058172Y-71770673D01*
X127236227Y-72037152D01*
X127462848Y-72263773D01*
X127729327Y-72441828D01*
X128025422Y-72564475D01*
X128339755Y-72627000D01*
X128660245Y-72627000D01*
X128974578Y-72564475D01*
X129270673Y-72441828D01*
X129537152Y-72263773D01*
X129763773Y-72037152D01*
X129941828Y-71770673D01*
X130064475Y-71474578D01*
X130127000Y-71160245D01*
X130127000Y-70839755D01*
X130089423Y-70650842D01*
X134587773Y-66152492D01*
X136110188Y-66152492D01*
X136151035Y-66422238D01*
X136243723Y-66678832D01*
X136304140Y-66791863D01*
X136543007Y-66857388D01*
X137320395Y-66080000D01*
X136543007Y-65302612D01*
X136304140Y-65368137D01*
X136188240Y-65615116D01*
X136122750Y-65879960D01*
X136110188Y-66152492D01*
X134587773Y-66152492D01*
X136323265Y-64417000D01*
X136429888Y-64417000D01*
X136430414Y-64417787D01*
X136622213Y-64609586D01*
X136847746Y-64760282D01*
X136954445Y-64804478D01*
X136901168Y-64823723D01*
X136788137Y-64884140D01*
X136722612Y-65123007D01*
X137500000Y-65900395D01*
X137514143Y-65886253D01*
X137693748Y-66065858D01*
X137679605Y-66080000D01*
X137693748Y-66094143D01*
X137514143Y-66273748D01*
X137500000Y-66259605D01*
X136722612Y-67036993D01*
X136788137Y-67275860D01*
X137035116Y-67391760D01*
X137299960Y-67457250D01*
X137572492Y-67469812D01*
X137842238Y-67428965D01*
X138098832Y-67336277D01*
X138123001Y-67323358D01*
X138123001Y-69136735D01*
X137910328Y-69349407D01*
X137849158Y-69410577D01*
X137660245Y-69373000D01*
X137339755Y-69373000D01*
X137025422Y-69435525D01*
X136729327Y-69558172D01*
X136462848Y-69736227D01*
X136236227Y-69962848D01*
X136058172Y-70229327D01*
X135935525Y-70525422D01*
X135873000Y-70839755D01*
X135873000Y-71160245D01*
X135935525Y-71474578D01*
X136058172Y-71770673D01*
X136236227Y-72037152D01*
X136462848Y-72263773D01*
X136729327Y-72441828D01*
X137025422Y-72564475D01*
X137339755Y-72627000D01*
X137660245Y-72627000D01*
X137974578Y-72564475D01*
X138270673Y-72441828D01*
X138537152Y-72263773D01*
X138763773Y-72037152D01*
X138941828Y-71770673D01*
X139064475Y-71474578D01*
X139123000Y-71180354D01*
X139123001Y-82636733D01*
X137910328Y-83849407D01*
X137849158Y-83910577D01*
X137660245Y-83873000D01*
X137339755Y-83873000D01*
X137025422Y-83935525D01*
X136729327Y-84058172D01*
X136462848Y-84236227D01*
X136236227Y-84462848D01*
X136058172Y-84729327D01*
X135935525Y-85025422D01*
X135873000Y-85339755D01*
X135873000Y-85660245D01*
X135935525Y-85974578D01*
X136058172Y-86270673D01*
X136236227Y-86537152D01*
X136462848Y-86763773D01*
X136729327Y-86941828D01*
X137025422Y-87064475D01*
X137339755Y-87127000D01*
X137660245Y-87127000D01*
X137974578Y-87064475D01*
X138270673Y-86941828D01*
X138537152Y-86763773D01*
X138763773Y-86537152D01*
X138941828Y-86270673D01*
X139064475Y-85974578D01*
X139127000Y-85660245D01*
X139127000Y-85339755D01*
X139089423Y-85150842D01*
X139150593Y-85089672D01*
X140589674Y-83650592D01*
X140623133Y-83623133D01*
X140650595Y-83589671D01*
X140732726Y-83489593D01*
X140814162Y-83337237D01*
X140864310Y-83171923D01*
X140881243Y-83000000D01*
X140877000Y-82956921D01*
X140877000Y-72617265D01*
X142410577Y-74150842D01*
X142373000Y-74339755D01*
X142373000Y-74660245D01*
X142435525Y-74974578D01*
X142558172Y-75270673D01*
X142736227Y-75537152D01*
X142962848Y-75763773D01*
X143229327Y-75941828D01*
X143525422Y-76064475D01*
X143839755Y-76127000D01*
X144160245Y-76127000D01*
X144474578Y-76064475D01*
X144770673Y-75941828D01*
X145037152Y-75763773D01*
X145263773Y-75537152D01*
X145441828Y-75270673D01*
X145564475Y-74974578D01*
X145627000Y-74660245D01*
X145627000Y-74339755D01*
X145564475Y-74025422D01*
X145441828Y-73729327D01*
X145263773Y-73462848D01*
X145037152Y-73236227D01*
X144770673Y-73058172D01*
X144474578Y-72935525D01*
X144160245Y-72873000D01*
X143839755Y-72873000D01*
X143650842Y-72910577D01*
X141877000Y-71136735D01*
X141877000Y-70741013D01*
X141986077Y-70873923D01*
X142203366Y-71052248D01*
X142451269Y-71184755D01*
X142720259Y-71266352D01*
X142929902Y-71287000D01*
X143070098Y-71287000D01*
X143279741Y-71266352D01*
X143548731Y-71184755D01*
X143796634Y-71052248D01*
X144013923Y-70873923D01*
X144192248Y-70656634D01*
X144324755Y-70408731D01*
X144406352Y-70139741D01*
X144433904Y-69860000D01*
X144406352Y-69580259D01*
X144324755Y-69311269D01*
X144192248Y-69063366D01*
X144013923Y-68846077D01*
X143796634Y-68667752D01*
X143651170Y-68590000D01*
X143796634Y-68512248D01*
X144013923Y-68333923D01*
X144192248Y-68116634D01*
X144324755Y-67868731D01*
X144406352Y-67599741D01*
X144433904Y-67320000D01*
X144406352Y-67040259D01*
X144324755Y-66771269D01*
X144192248Y-66523366D01*
X144013923Y-66306077D01*
X143796634Y-66127752D01*
X143651170Y-66050000D01*
X143796634Y-65972248D01*
X144013923Y-65793923D01*
X144192248Y-65576634D01*
X144324755Y-65328731D01*
X144406352Y-65059741D01*
X144433904Y-64780000D01*
X144416542Y-64603723D01*
X146089668Y-62930597D01*
X146123133Y-62903133D01*
X146232727Y-62769592D01*
X146314162Y-62617237D01*
X146364310Y-62451922D01*
X146377000Y-62323079D01*
X146377000Y-62323070D01*
X146381242Y-62280001D01*
X146377000Y-62236931D01*
X146377000Y-45125000D01*
X147118757Y-45125000D01*
X147123000Y-45168079D01*
X147123000Y-45543078D01*
X147123001Y-45543088D01*
X147123000Y-64656920D01*
X147118757Y-64700000D01*
X147135690Y-64871922D01*
X147174919Y-65001242D01*
X147185838Y-65037236D01*
X147267273Y-65189591D01*
X147376867Y-65323133D01*
X147410332Y-65350597D01*
X149203458Y-67143723D01*
X149186096Y-67320000D01*
X149213648Y-67599741D01*
X149295245Y-67868731D01*
X149427752Y-68116634D01*
X149606077Y-68333923D01*
X149823366Y-68512248D01*
X149968830Y-68590000D01*
X149823366Y-68667752D01*
X149606077Y-68846077D01*
X149427752Y-69063366D01*
X149295245Y-69311269D01*
X149213648Y-69580259D01*
X149186096Y-69860000D01*
X149213648Y-70139741D01*
X149295245Y-70408731D01*
X149427752Y-70656634D01*
X149606077Y-70873923D01*
X149823366Y-71052248D01*
X150071269Y-71184755D01*
X150340259Y-71266352D01*
X150549902Y-71287000D01*
X150690098Y-71287000D01*
X150899741Y-71266352D01*
X151168731Y-71184755D01*
X151416634Y-71052248D01*
X151623001Y-70882887D01*
X151623001Y-71136734D01*
X149849158Y-72910577D01*
X149660245Y-72873000D01*
X149339755Y-72873000D01*
X149025422Y-72935525D01*
X148729327Y-73058172D01*
X148462848Y-73236227D01*
X148236227Y-73462848D01*
X148058172Y-73729327D01*
X147935525Y-74025422D01*
X147873000Y-74339755D01*
X147873000Y-74660245D01*
X147935525Y-74974578D01*
X148058172Y-75270673D01*
X148236227Y-75537152D01*
X148462848Y-75763773D01*
X148729327Y-75941828D01*
X149025422Y-76064475D01*
X149339755Y-76127000D01*
X149660245Y-76127000D01*
X149974578Y-76064475D01*
X150270673Y-75941828D01*
X150537152Y-75763773D01*
X150763773Y-75537152D01*
X150941828Y-75270673D01*
X151064475Y-74974578D01*
X151127000Y-74660245D01*
X151127000Y-74339755D01*
X151089423Y-74150842D01*
X152623000Y-72617265D01*
X152623001Y-82956910D01*
X152618757Y-83000000D01*
X152635690Y-83171922D01*
X152685838Y-83337236D01*
X152767274Y-83489592D01*
X152849406Y-83589671D01*
X152849407Y-83589672D01*
X152876868Y-83623133D01*
X152910327Y-83650592D01*
X154410329Y-85150595D01*
X154410335Y-85150600D01*
X154410577Y-85150842D01*
X154373000Y-85339755D01*
X154373000Y-85660245D01*
X154435525Y-85974578D01*
X154558172Y-86270673D01*
X154736227Y-86537152D01*
X154962848Y-86763773D01*
X155229327Y-86941828D01*
X155525422Y-87064475D01*
X155839755Y-87127000D01*
X156160245Y-87127000D01*
X156474578Y-87064475D01*
X156770673Y-86941828D01*
X157037152Y-86763773D01*
X157263773Y-86537152D01*
X157441828Y-86270673D01*
X157564475Y-85974578D01*
X157627000Y-85660245D01*
X157627000Y-85339755D01*
X157564475Y-85025422D01*
X157441828Y-84729327D01*
X157263773Y-84462848D01*
X157037152Y-84236227D01*
X156770673Y-84058172D01*
X156474578Y-83935525D01*
X156160245Y-83873000D01*
X155839755Y-83873000D01*
X155650842Y-83910577D01*
X155650600Y-83910335D01*
X155650595Y-83910329D01*
X154377000Y-82636735D01*
X154377000Y-81536993D01*
X154722612Y-81536993D01*
X154788137Y-81775860D01*
X155035116Y-81891760D01*
X155299960Y-81957250D01*
X155572492Y-81969812D01*
X155842238Y-81928965D01*
X156098832Y-81836277D01*
X156211863Y-81775860D01*
X156277388Y-81536993D01*
X155500000Y-80759605D01*
X154722612Y-81536993D01*
X154377000Y-81536993D01*
X154377000Y-81311850D01*
X154543007Y-81357388D01*
X155320395Y-80580000D01*
X155679605Y-80580000D01*
X156456993Y-81357388D01*
X156695860Y-81291863D01*
X156811760Y-81044884D01*
X156877250Y-80780040D01*
X156889812Y-80507508D01*
X156848965Y-80237762D01*
X156756277Y-79981168D01*
X156695860Y-79868137D01*
X156456993Y-79802612D01*
X155679605Y-80580000D01*
X155320395Y-80580000D01*
X154543007Y-79802612D01*
X154377000Y-79848150D01*
X154377000Y-78837847D01*
X154430414Y-78917787D01*
X154622213Y-79109586D01*
X154847746Y-79260282D01*
X154954445Y-79304478D01*
X154901168Y-79323723D01*
X154788137Y-79384140D01*
X154722612Y-79623007D01*
X155500000Y-80400395D01*
X156277388Y-79623007D01*
X156211863Y-79384140D01*
X156043723Y-79305237D01*
X156152254Y-79260282D01*
X156377787Y-79109586D01*
X156569586Y-78917787D01*
X156570112Y-78917000D01*
X157176735Y-78917000D01*
X163410577Y-85150842D01*
X163373000Y-85339755D01*
X163373000Y-85660245D01*
X163435525Y-85974578D01*
X163558172Y-86270673D01*
X163736227Y-86537152D01*
X163962848Y-86763773D01*
X164229327Y-86941828D01*
X164525422Y-87064475D01*
X164839755Y-87127000D01*
X165160245Y-87127000D01*
X165474578Y-87064475D01*
X165770673Y-86941828D01*
X166037152Y-86763773D01*
X166263773Y-86537152D01*
X166441828Y-86270673D01*
X166564475Y-85974578D01*
X166627000Y-85660245D01*
X166627000Y-85339755D01*
X166564475Y-85025422D01*
X166441828Y-84729327D01*
X166263773Y-84462848D01*
X166037152Y-84236227D01*
X165770673Y-84058172D01*
X165474578Y-83935525D01*
X165160245Y-83873000D01*
X164839755Y-83873000D01*
X164650842Y-83910577D01*
X158190597Y-77450332D01*
X158163133Y-77416867D01*
X158029592Y-77307273D01*
X157877237Y-77225838D01*
X157711922Y-77175690D01*
X157583079Y-77163000D01*
X157540000Y-77158757D01*
X157496921Y-77163000D01*
X156570112Y-77163000D01*
X156569586Y-77162213D01*
X156377787Y-76970414D01*
X156242522Y-76880033D01*
X156250000Y-76880033D01*
X156372913Y-76867927D01*
X156491103Y-76832075D01*
X156600028Y-76773853D01*
X156695501Y-76695501D01*
X156773853Y-76600028D01*
X156832075Y-76491103D01*
X156866687Y-76377000D01*
X163136735Y-76377000D01*
X163369967Y-76610232D01*
X163369967Y-77600000D01*
X163386877Y-77771686D01*
X163436956Y-77936774D01*
X163518279Y-78088920D01*
X163627723Y-78222277D01*
X163761080Y-78331721D01*
X163872667Y-78391365D01*
X163800550Y-78450550D01*
X163615978Y-78675453D01*
X163478828Y-78932042D01*
X163394371Y-79210457D01*
X163365854Y-79500000D01*
X163394371Y-79789543D01*
X163478828Y-80067958D01*
X163615978Y-80324547D01*
X163800550Y-80549450D01*
X164025453Y-80734022D01*
X164282042Y-80871172D01*
X164560457Y-80955629D01*
X164777444Y-80977000D01*
X165222556Y-80977000D01*
X165439543Y-80955629D01*
X165717958Y-80871172D01*
X165974547Y-80734022D01*
X166199450Y-80549450D01*
X166384022Y-80324547D01*
X166521172Y-80067958D01*
X166605629Y-79789543D01*
X166634146Y-79500000D01*
X166605629Y-79210457D01*
X166521172Y-78932042D01*
X166384022Y-78675453D01*
X166199450Y-78450550D01*
X166127333Y-78391365D01*
X166238920Y-78331721D01*
X166372277Y-78222277D01*
X166481721Y-78088920D01*
X166563044Y-77936774D01*
X166613123Y-77771686D01*
X166630033Y-77600000D01*
X166630033Y-76400000D01*
X166613123Y-76228314D01*
X166563044Y-76063226D01*
X166481721Y-75911080D01*
X166372277Y-75777723D01*
X166238920Y-75668279D01*
X166086774Y-75586956D01*
X165921686Y-75536877D01*
X165750000Y-75519967D01*
X164760232Y-75519967D01*
X164150597Y-74910332D01*
X164123133Y-74876867D01*
X163989592Y-74767273D01*
X163837237Y-74685838D01*
X163671922Y-74635690D01*
X163543079Y-74623000D01*
X163500000Y-74618757D01*
X163456921Y-74623000D01*
X156866687Y-74623000D01*
X156832075Y-74508897D01*
X156773853Y-74399972D01*
X156695501Y-74304499D01*
X156600028Y-74226147D01*
X156491103Y-74167925D01*
X156372913Y-74132073D01*
X156250000Y-74119967D01*
X154750000Y-74119967D01*
X154627087Y-74132073D01*
X154508897Y-74167925D01*
X154399972Y-74226147D01*
X154377000Y-74244999D01*
X154377000Y-71180354D01*
X154435525Y-71474578D01*
X154558172Y-71770673D01*
X154736227Y-72037152D01*
X154962848Y-72263773D01*
X155229327Y-72441828D01*
X155525422Y-72564475D01*
X155839755Y-72627000D01*
X156160245Y-72627000D01*
X156474578Y-72564475D01*
X156770673Y-72441828D01*
X157037152Y-72263773D01*
X157263773Y-72037152D01*
X157441828Y-71770673D01*
X157564475Y-71474578D01*
X157627000Y-71160245D01*
X157627000Y-70839755D01*
X157564475Y-70525422D01*
X157441828Y-70229327D01*
X157263773Y-69962848D01*
X157037152Y-69736227D01*
X156770673Y-69558172D01*
X156474578Y-69435525D01*
X156160245Y-69373000D01*
X155839755Y-69373000D01*
X155650842Y-69410577D01*
X155589672Y-69349407D01*
X155589667Y-69349403D01*
X155377000Y-69136736D01*
X155377000Y-67317561D01*
X155535116Y-67391760D01*
X155799960Y-67457250D01*
X156072492Y-67469812D01*
X156342238Y-67428965D01*
X156598832Y-67336277D01*
X156711863Y-67275860D01*
X156777388Y-67036993D01*
X156000000Y-66259605D01*
X155985858Y-66273748D01*
X155806253Y-66094143D01*
X155820395Y-66080000D01*
X156179605Y-66080000D01*
X156956993Y-66857388D01*
X157195860Y-66791863D01*
X157311760Y-66544884D01*
X157377250Y-66280040D01*
X157389812Y-66007508D01*
X157348965Y-65737762D01*
X157256277Y-65481168D01*
X157195860Y-65368137D01*
X156956993Y-65302612D01*
X156179605Y-66080000D01*
X155820395Y-66080000D01*
X155806253Y-66065858D01*
X155985858Y-65886253D01*
X156000000Y-65900395D01*
X156777388Y-65123007D01*
X156711863Y-64884140D01*
X156543723Y-64805237D01*
X156652254Y-64760282D01*
X156877787Y-64609586D01*
X157069586Y-64417787D01*
X157070112Y-64417000D01*
X157176735Y-64417000D01*
X163410577Y-70650842D01*
X163373000Y-70839755D01*
X163373000Y-71160245D01*
X163435525Y-71474578D01*
X163558172Y-71770673D01*
X163736227Y-72037152D01*
X163962848Y-72263773D01*
X164229327Y-72441828D01*
X164525422Y-72564475D01*
X164839755Y-72627000D01*
X165160245Y-72627000D01*
X165474578Y-72564475D01*
X165770673Y-72441828D01*
X166037152Y-72263773D01*
X166263773Y-72037152D01*
X166441828Y-71770673D01*
X166564475Y-71474578D01*
X166627000Y-71160245D01*
X166627000Y-70839755D01*
X166564475Y-70525422D01*
X166441828Y-70229327D01*
X166263773Y-69962848D01*
X166037152Y-69736227D01*
X165770673Y-69558172D01*
X165474578Y-69435525D01*
X165160245Y-69373000D01*
X164839755Y-69373000D01*
X164650842Y-69410577D01*
X158190597Y-62950332D01*
X158163133Y-62916867D01*
X158029592Y-62807273D01*
X157877237Y-62725838D01*
X157711922Y-62675690D01*
X157583079Y-62663000D01*
X157540000Y-62658757D01*
X157496921Y-62663000D01*
X157070112Y-62663000D01*
X157069586Y-62662213D01*
X156877787Y-62470414D01*
X156742522Y-62380033D01*
X156750000Y-62380033D01*
X156872913Y-62367927D01*
X156991103Y-62332075D01*
X157100028Y-62273853D01*
X157195501Y-62195501D01*
X157273853Y-62100028D01*
X157332075Y-61991103D01*
X157366687Y-61877000D01*
X163136735Y-61877000D01*
X163369967Y-62110232D01*
X163369967Y-63100000D01*
X163386877Y-63271686D01*
X163436956Y-63436774D01*
X163518279Y-63588920D01*
X163627723Y-63722277D01*
X163761080Y-63831721D01*
X163872667Y-63891365D01*
X163800550Y-63950550D01*
X163615978Y-64175453D01*
X163478828Y-64432042D01*
X163394371Y-64710457D01*
X163365854Y-65000000D01*
X163394371Y-65289543D01*
X163478828Y-65567958D01*
X163615978Y-65824547D01*
X163800550Y-66049450D01*
X164025453Y-66234022D01*
X164282042Y-66371172D01*
X164560457Y-66455629D01*
X164777444Y-66477000D01*
X165222556Y-66477000D01*
X165439543Y-66455629D01*
X165717958Y-66371172D01*
X165974547Y-66234022D01*
X166199450Y-66049450D01*
X166384022Y-65824547D01*
X166521172Y-65567958D01*
X166605629Y-65289543D01*
X166634146Y-65000000D01*
X166605629Y-64710457D01*
X166521172Y-64432042D01*
X166384022Y-64175453D01*
X166199450Y-63950550D01*
X166127333Y-63891365D01*
X166238920Y-63831721D01*
X166372277Y-63722277D01*
X166481721Y-63588920D01*
X166563044Y-63436774D01*
X166613123Y-63271686D01*
X166630033Y-63100000D01*
X166630033Y-61900000D01*
X166613123Y-61728314D01*
X166563044Y-61563226D01*
X166481721Y-61411080D01*
X166372277Y-61277723D01*
X166238920Y-61168279D01*
X166086774Y-61086956D01*
X165921686Y-61036877D01*
X165750000Y-61019967D01*
X164760232Y-61019967D01*
X164150597Y-60410332D01*
X164123133Y-60376867D01*
X163989592Y-60267273D01*
X163837237Y-60185838D01*
X163671922Y-60135690D01*
X163543079Y-60123000D01*
X163500000Y-60118757D01*
X163456921Y-60123000D01*
X157366687Y-60123000D01*
X157332075Y-60008897D01*
X157273853Y-59899972D01*
X157195501Y-59804499D01*
X157100028Y-59726147D01*
X156991103Y-59667925D01*
X156872913Y-59632073D01*
X156750000Y-59619967D01*
X155250000Y-59619967D01*
X155127087Y-59632073D01*
X155008897Y-59667925D01*
X154899972Y-59726147D01*
X154804499Y-59804499D01*
X154726147Y-59899972D01*
X154682289Y-59982024D01*
X152036542Y-57336277D01*
X152053904Y-57160000D01*
X152026352Y-56880259D01*
X151944755Y-56611269D01*
X151812248Y-56363366D01*
X151633923Y-56146077D01*
X151416634Y-55967752D01*
X151271170Y-55890000D01*
X151416634Y-55812248D01*
X151633923Y-55633923D01*
X151746293Y-55497000D01*
X153756735Y-55497000D01*
X154410577Y-56150842D01*
X154373000Y-56339755D01*
X154373000Y-56660245D01*
X154435525Y-56974578D01*
X154558172Y-57270673D01*
X154736227Y-57537152D01*
X154962848Y-57763773D01*
X155229327Y-57941828D01*
X155525422Y-58064475D01*
X155839755Y-58127000D01*
X156160245Y-58127000D01*
X156474578Y-58064475D01*
X156770673Y-57941828D01*
X157037152Y-57763773D01*
X157263773Y-57537152D01*
X157441828Y-57270673D01*
X157564475Y-56974578D01*
X157627000Y-56660245D01*
X157627000Y-56339755D01*
X157564475Y-56025422D01*
X157441828Y-55729327D01*
X157263773Y-55462848D01*
X157037152Y-55236227D01*
X156770673Y-55058172D01*
X156474578Y-54935525D01*
X156160245Y-54873000D01*
X155839755Y-54873000D01*
X155650842Y-54910577D01*
X154770597Y-54030332D01*
X154743133Y-53996867D01*
X154609592Y-53887273D01*
X154457237Y-53805838D01*
X154291922Y-53755690D01*
X154163079Y-53743000D01*
X154120000Y-53738757D01*
X154076921Y-53743000D01*
X151746293Y-53743000D01*
X151633923Y-53606077D01*
X151416634Y-53427752D01*
X151271170Y-53350000D01*
X151416634Y-53272248D01*
X151633923Y-53093923D01*
X151812248Y-52876634D01*
X151944755Y-52628731D01*
X151972583Y-52536993D01*
X154722612Y-52536993D01*
X154788137Y-52775860D01*
X155035116Y-52891760D01*
X155299960Y-52957250D01*
X155572492Y-52969812D01*
X155842238Y-52928965D01*
X156098832Y-52836277D01*
X156211863Y-52775860D01*
X156277388Y-52536993D01*
X155500000Y-51759605D01*
X154722612Y-52536993D01*
X151972583Y-52536993D01*
X152026352Y-52359741D01*
X152053904Y-52080000D01*
X152026352Y-51800259D01*
X151981528Y-51652492D01*
X154110188Y-51652492D01*
X154151035Y-51922238D01*
X154243723Y-52178832D01*
X154304140Y-52291863D01*
X154543007Y-52357388D01*
X155320395Y-51580000D01*
X155679605Y-51580000D01*
X156456993Y-52357388D01*
X156695860Y-52291863D01*
X156811760Y-52044884D01*
X156877250Y-51780040D01*
X156889812Y-51507508D01*
X156848965Y-51237762D01*
X156756277Y-50981168D01*
X156695860Y-50868137D01*
X156456993Y-50802612D01*
X155679605Y-51580000D01*
X155320395Y-51580000D01*
X154543007Y-50802612D01*
X154304140Y-50868137D01*
X154188240Y-51115116D01*
X154122750Y-51379960D01*
X154110188Y-51652492D01*
X151981528Y-51652492D01*
X151944755Y-51531269D01*
X151812248Y-51283366D01*
X151633923Y-51066077D01*
X151416634Y-50887752D01*
X151271170Y-50810000D01*
X151416634Y-50732248D01*
X151633923Y-50553923D01*
X151812248Y-50336634D01*
X151944755Y-50088731D01*
X152026352Y-49819741D01*
X152053904Y-49540000D01*
X152026352Y-49260259D01*
X151944755Y-48991269D01*
X151812248Y-48743366D01*
X151633923Y-48526077D01*
X151416634Y-48347752D01*
X151271170Y-48270000D01*
X151416634Y-48192248D01*
X151633923Y-48013923D01*
X151812248Y-47796634D01*
X151944755Y-47548731D01*
X152026352Y-47279741D01*
X152053904Y-47000000D01*
X152026352Y-46720259D01*
X151944755Y-46451269D01*
X151812248Y-46203366D01*
X151633923Y-45986077D01*
X151416634Y-45807752D01*
X151308588Y-45750000D01*
X154119967Y-45750000D01*
X154119967Y-47250000D01*
X154132073Y-47372913D01*
X154167925Y-47491103D01*
X154226147Y-47600028D01*
X154304499Y-47695501D01*
X154399972Y-47773853D01*
X154508897Y-47832075D01*
X154627087Y-47867927D01*
X154750000Y-47880033D01*
X154757478Y-47880033D01*
X154622213Y-47970414D01*
X154430414Y-48162213D01*
X154279718Y-48387746D01*
X154175917Y-48638344D01*
X154123000Y-48904377D01*
X154123000Y-49175623D01*
X154175917Y-49441656D01*
X154279718Y-49692254D01*
X154430414Y-49917787D01*
X154622213Y-50109586D01*
X154847746Y-50260282D01*
X154954445Y-50304478D01*
X154901168Y-50323723D01*
X154788137Y-50384140D01*
X154722612Y-50623007D01*
X155500000Y-51400395D01*
X156277388Y-50623007D01*
X156211863Y-50384140D01*
X156043723Y-50305237D01*
X156152254Y-50260282D01*
X156377787Y-50109586D01*
X156569586Y-49917787D01*
X156570112Y-49917000D01*
X157176735Y-49917000D01*
X163410577Y-56150842D01*
X163373000Y-56339755D01*
X163373000Y-56660245D01*
X163435525Y-56974578D01*
X163558172Y-57270673D01*
X163736227Y-57537152D01*
X163962848Y-57763773D01*
X164229327Y-57941828D01*
X164525422Y-58064475D01*
X164839755Y-58127000D01*
X165160245Y-58127000D01*
X165474578Y-58064475D01*
X165770673Y-57941828D01*
X166037152Y-57763773D01*
X166263773Y-57537152D01*
X166441828Y-57270673D01*
X166564475Y-56974578D01*
X166627000Y-56660245D01*
X166627000Y-56339755D01*
X166564475Y-56025422D01*
X166441828Y-55729327D01*
X166263773Y-55462848D01*
X166037152Y-55236227D01*
X165770673Y-55058172D01*
X165474578Y-54935525D01*
X165160245Y-54873000D01*
X164839755Y-54873000D01*
X164650842Y-54910577D01*
X158190597Y-48450332D01*
X158163133Y-48416867D01*
X158029592Y-48307273D01*
X157877237Y-48225838D01*
X157711922Y-48175690D01*
X157583079Y-48163000D01*
X157540000Y-48158757D01*
X157496921Y-48163000D01*
X156570112Y-48163000D01*
X156569586Y-48162213D01*
X156377787Y-47970414D01*
X156242522Y-47880033D01*
X156250000Y-47880033D01*
X156372913Y-47867927D01*
X156491103Y-47832075D01*
X156600028Y-47773853D01*
X156695501Y-47695501D01*
X156773853Y-47600028D01*
X156832075Y-47491103D01*
X156866687Y-47377000D01*
X163136735Y-47377000D01*
X163369967Y-47610232D01*
X163369967Y-48600000D01*
X163386877Y-48771686D01*
X163436956Y-48936774D01*
X163518279Y-49088920D01*
X163627723Y-49222277D01*
X163761080Y-49331721D01*
X163872667Y-49391365D01*
X163800550Y-49450550D01*
X163615978Y-49675453D01*
X163478828Y-49932042D01*
X163394371Y-50210457D01*
X163365854Y-50500000D01*
X163394371Y-50789543D01*
X163478828Y-51067958D01*
X163615978Y-51324547D01*
X163800550Y-51549450D01*
X164025453Y-51734022D01*
X164282042Y-51871172D01*
X164560457Y-51955629D01*
X164777444Y-51977000D01*
X165222556Y-51977000D01*
X165439543Y-51955629D01*
X165717958Y-51871172D01*
X165974547Y-51734022D01*
X166199450Y-51549450D01*
X166384022Y-51324547D01*
X166521172Y-51067958D01*
X166605629Y-50789543D01*
X166634146Y-50500000D01*
X166605629Y-50210457D01*
X166521172Y-49932042D01*
X166384022Y-49675453D01*
X166199450Y-49450550D01*
X166127333Y-49391365D01*
X166238920Y-49331721D01*
X166372277Y-49222277D01*
X166481721Y-49088920D01*
X166563044Y-48936774D01*
X166613123Y-48771686D01*
X166630033Y-48600000D01*
X166630033Y-47400000D01*
X166613123Y-47228314D01*
X166563044Y-47063226D01*
X166481721Y-46911080D01*
X166372277Y-46777723D01*
X166238920Y-46668279D01*
X166086774Y-46586956D01*
X165921686Y-46536877D01*
X165750000Y-46519967D01*
X164760232Y-46519967D01*
X164150597Y-45910332D01*
X164123133Y-45876867D01*
X163989592Y-45767273D01*
X163837237Y-45685838D01*
X163671922Y-45635690D01*
X163543079Y-45623000D01*
X163500000Y-45618757D01*
X163456921Y-45623000D01*
X156866687Y-45623000D01*
X156832075Y-45508897D01*
X156773853Y-45399972D01*
X156695501Y-45304499D01*
X156600028Y-45226147D01*
X156491103Y-45167925D01*
X156372913Y-45132073D01*
X156250000Y-45119967D01*
X154750000Y-45119967D01*
X154627087Y-45132073D01*
X154508897Y-45167925D01*
X154399972Y-45226147D01*
X154304499Y-45304499D01*
X154226147Y-45399972D01*
X154167925Y-45508897D01*
X154132073Y-45627087D01*
X154119967Y-45750000D01*
X151308588Y-45750000D01*
X151182604Y-45682661D01*
X157277985Y-39587280D01*
X157500000Y-39609146D01*
X157789543Y-39580629D01*
X158067958Y-39496172D01*
X158324547Y-39359022D01*
X158549450Y-39174450D01*
X158734022Y-38949547D01*
X158871172Y-38692957D01*
X158955629Y-38414542D01*
X158977000Y-38197555D01*
X158977000Y-37802444D01*
X158955629Y-37585457D01*
X158871172Y-37307042D01*
X158734022Y-37050453D01*
X158549450Y-36825550D01*
X158324546Y-36640978D01*
X158067957Y-36503828D01*
X157789542Y-36419371D01*
X157500000Y-36390854D01*
X157210457Y-36419371D01*
X156932042Y-36503828D01*
X156675453Y-36640978D01*
X156450550Y-36825550D01*
X156265978Y-37050454D01*
X156250000Y-37080346D01*
X156234022Y-37050453D01*
X156049450Y-36825550D01*
X155824546Y-36640978D01*
X155567957Y-36503828D01*
X155289542Y-36419371D01*
X155000000Y-36390854D01*
X154710457Y-36419371D01*
X154432042Y-36503828D01*
X154175453Y-36640978D01*
X153950550Y-36825550D01*
X153765978Y-37050454D01*
X153750000Y-37080346D01*
X153734022Y-37050453D01*
X153549450Y-36825550D01*
X153324546Y-36640978D01*
X153067957Y-36503828D01*
X152789542Y-36419371D01*
X152500000Y-36390854D01*
X152210457Y-36419371D01*
X151932042Y-36503828D01*
X151675453Y-36640978D01*
X151450550Y-36825550D01*
X151391365Y-36897668D01*
X151331721Y-36786080D01*
X151222277Y-36652723D01*
X151088920Y-36543279D01*
X150936774Y-36461956D01*
X150771686Y-36411877D01*
X150600000Y-36394967D01*
X149400000Y-36394967D01*
X149228314Y-36411877D01*
X149063226Y-36461956D01*
X148911080Y-36543279D01*
X148777723Y-36652723D01*
X148668279Y-36786080D01*
X148586956Y-36938226D01*
X148536877Y-37103314D01*
X148519967Y-37275000D01*
X148519967Y-38725000D01*
X148536877Y-38896686D01*
X148586956Y-39061774D01*
X148668279Y-39213920D01*
X148777723Y-39347277D01*
X148911080Y-39456721D01*
X149063226Y-39538044D01*
X149228314Y-39588123D01*
X149400000Y-39605033D01*
X150600000Y-39605033D01*
X150771686Y-39588123D01*
X150936774Y-39538044D01*
X151088920Y-39456721D01*
X151222277Y-39347277D01*
X151331721Y-39213920D01*
X151391365Y-39102333D01*
X151450550Y-39174450D01*
X151675454Y-39359022D01*
X151932043Y-39496172D01*
X152210458Y-39580629D01*
X152295709Y-39589025D01*
X147410327Y-44474408D01*
X147376868Y-44501867D01*
X147267273Y-44635408D01*
X147185838Y-44787763D01*
X147135690Y-44953078D01*
X147118757Y-45125000D01*
X146377000Y-45125000D01*
X146377000Y-41518076D01*
X146381243Y-41474999D01*
X146377000Y-41431921D01*
X146364310Y-41303078D01*
X146314162Y-41137763D01*
X146232727Y-40985408D01*
X146123133Y-40851867D01*
X146089675Y-40824409D01*
X144489178Y-39223913D01*
X144549450Y-39174450D01*
X144734022Y-38949547D01*
X144871172Y-38692957D01*
X144955629Y-38414542D01*
X144977000Y-38197555D01*
X144977000Y-37802444D01*
X144955629Y-37585457D01*
X144871172Y-37307042D01*
X144734022Y-37050453D01*
X144549450Y-36825550D01*
X144324546Y-36640978D01*
X144067957Y-36503828D01*
X143789542Y-36419371D01*
X143500000Y-36390854D01*
X143210457Y-36419371D01*
X142932042Y-36503828D01*
X142675453Y-36640978D01*
X142450550Y-36825550D01*
X142265978Y-37050454D01*
X142250000Y-37080346D01*
X142234022Y-37050453D01*
X142049450Y-36825550D01*
X141824546Y-36640978D01*
X141567957Y-36503828D01*
X141289542Y-36419371D01*
X141000000Y-36390854D01*
X140710457Y-36419371D01*
X140432042Y-36503828D01*
X140175453Y-36640978D01*
X139950550Y-36825550D01*
X139765978Y-37050454D01*
X139750000Y-37080346D01*
X139734022Y-37050453D01*
X139549450Y-36825550D01*
X139324546Y-36640978D01*
X139067957Y-36503828D01*
X138789542Y-36419371D01*
X138500000Y-36390854D01*
X138210457Y-36419371D01*
X137932042Y-36503828D01*
X137675453Y-36640978D01*
X137450550Y-36825550D01*
X137391365Y-36897668D01*
X137331721Y-36786080D01*
X137222277Y-36652723D01*
X137088920Y-36543279D01*
X136936774Y-36461956D01*
X136771686Y-36411877D01*
X136600000Y-36394967D01*
X135400000Y-36394967D01*
X135228314Y-36411877D01*
X135063226Y-36461956D01*
X134911080Y-36543279D01*
X134777723Y-36652723D01*
X134668279Y-36786080D01*
X134586956Y-36938226D01*
X134536877Y-37103314D01*
X134519967Y-37275000D01*
X134519967Y-38725000D01*
X134536877Y-38896686D01*
X134586956Y-39061774D01*
X134668279Y-39213920D01*
X134777723Y-39347277D01*
X134911080Y-39456721D01*
X135063226Y-39538044D01*
X135228314Y-39588123D01*
X135400000Y-39605033D01*
X136600000Y-39605033D01*
X136771686Y-39588123D01*
X136936774Y-39538044D01*
X137088920Y-39456721D01*
X137222277Y-39347277D01*
X137331721Y-39213920D01*
X137391365Y-39102333D01*
X137450550Y-39174450D01*
X137675454Y-39359022D01*
X137932043Y-39496172D01*
X138210458Y-39580629D01*
X138500000Y-39609146D01*
X138789543Y-39580629D01*
X139067958Y-39496172D01*
X139324547Y-39359022D01*
X139549450Y-39174450D01*
X139734022Y-38949547D01*
X139750000Y-38919654D01*
X139765978Y-38949547D01*
X139950550Y-39174450D01*
X140123001Y-39315975D01*
X140123001Y-39431911D01*
X140118757Y-39475000D01*
X140135690Y-39646922D01*
X140185838Y-39812236D01*
X140267274Y-39964592D01*
X140349406Y-40064671D01*
X140349409Y-40064674D01*
X140376868Y-40098133D01*
X140410327Y-40125592D01*
X143623000Y-43338265D01*
X143623000Y-45569967D01*
X142200000Y-45569967D01*
X142077087Y-45582073D01*
X141958897Y-45617925D01*
X141849972Y-45676147D01*
X141754499Y-45754499D01*
X141676147Y-45849972D01*
X141617925Y-45958897D01*
X141597852Y-46025070D01*
X141514591Y-45824062D01*
X141358424Y-45590340D01*
X141159660Y-45391576D01*
X140925938Y-45235409D01*
X140666241Y-45127838D01*
X140390547Y-45073000D01*
X140109453Y-45073000D01*
X139833759Y-45127838D01*
X139574062Y-45235409D01*
X139340340Y-45391576D01*
X139141576Y-45590340D01*
X138985409Y-45824062D01*
X138877838Y-46083759D01*
X138823000Y-46359453D01*
X138823000Y-46640547D01*
X138877838Y-46916241D01*
X138985409Y-47175938D01*
X139141576Y-47409660D01*
X139340340Y-47608424D01*
X139574062Y-47764591D01*
X139833759Y-47872162D01*
X140109453Y-47927000D01*
X140390547Y-47927000D01*
X140666241Y-47872162D01*
X140925938Y-47764591D01*
X141159660Y-47608424D01*
X141358424Y-47409660D01*
X141514591Y-47175938D01*
X141569967Y-47042250D01*
X141569967Y-47800000D01*
X141582073Y-47922913D01*
X141617925Y-48041103D01*
X141676147Y-48150028D01*
X141754499Y-48245501D01*
X141849972Y-48323853D01*
X141941919Y-48373000D01*
X141750000Y-48373000D01*
X141725224Y-48375440D01*
X141701399Y-48382667D01*
X141679443Y-48394403D01*
X141660197Y-48410197D01*
X139981237Y-50089157D01*
X139899870Y-50101213D01*
X139633708Y-50196397D01*
X139508486Y-50263329D01*
X139436903Y-50507298D01*
X140250000Y-51320395D01*
X140264143Y-51306253D01*
X140443748Y-51485858D01*
X140429605Y-51500000D01*
X141242702Y-52313097D01*
X141486671Y-52241514D01*
X141547639Y-52112665D01*
X141560861Y-52105597D01*
X141568037Y-52099708D01*
X141593648Y-52359741D01*
X141675245Y-52628731D01*
X141807752Y-52876634D01*
X141986077Y-53093923D01*
X142203366Y-53272248D01*
X142348830Y-53350000D01*
X142203366Y-53427752D01*
X141986077Y-53606077D01*
X141873707Y-53743000D01*
X139423069Y-53743000D01*
X139379999Y-53738758D01*
X139336930Y-53743000D01*
X139336921Y-53743000D01*
X139208078Y-53755690D01*
X139042763Y-53805838D01*
X138890408Y-53887273D01*
X138756867Y-53996867D01*
X138729403Y-54030332D01*
X137849158Y-54910577D01*
X137660245Y-54873000D01*
X137339755Y-54873000D01*
X137025422Y-54935525D01*
X136729327Y-55058172D01*
X136462848Y-55236227D01*
X136236227Y-55462848D01*
X136058172Y-55729327D01*
X135935525Y-56025422D01*
X135873000Y-56339755D01*
X135873000Y-56660245D01*
X135935525Y-56974578D01*
X136058172Y-57270673D01*
X136236227Y-57537152D01*
X136462848Y-57763773D01*
X136729327Y-57941828D01*
X137025422Y-58064475D01*
X137339755Y-58127000D01*
X137660245Y-58127000D01*
X137974578Y-58064475D01*
X138270673Y-57941828D01*
X138537152Y-57763773D01*
X138763773Y-57537152D01*
X138941828Y-57270673D01*
X139064475Y-56974578D01*
X139127000Y-56660245D01*
X139127000Y-56339755D01*
X139089423Y-56150842D01*
X139743265Y-55497000D01*
X141873707Y-55497000D01*
X141986077Y-55633923D01*
X142203366Y-55812248D01*
X142348830Y-55890000D01*
X142203366Y-55967752D01*
X141986077Y-56146077D01*
X141807752Y-56363366D01*
X141675245Y-56611269D01*
X141593648Y-56880259D01*
X141566096Y-57160000D01*
X141583458Y-57336277D01*
X138850406Y-60069329D01*
X138832075Y-60008897D01*
X138773853Y-59899972D01*
X138695501Y-59804499D01*
X138600028Y-59726147D01*
X138491103Y-59667925D01*
X138372913Y-59632073D01*
X138250000Y-59619967D01*
X136750000Y-59619967D01*
X136627087Y-59632073D01*
X136508897Y-59667925D01*
X136399972Y-59726147D01*
X136304499Y-59804499D01*
X136226147Y-59899972D01*
X136167925Y-60008897D01*
X136133313Y-60123000D01*
X132543069Y-60123000D01*
X132499999Y-60118758D01*
X132456930Y-60123000D01*
X132456921Y-60123000D01*
X132328078Y-60135690D01*
X132162763Y-60185838D01*
X132010408Y-60267273D01*
X131876867Y-60376867D01*
X131849403Y-60410332D01*
X130092514Y-62167221D01*
X130021172Y-61932042D01*
X129884022Y-61675453D01*
X129699450Y-61450550D01*
X129474547Y-61265978D01*
X129217958Y-61128828D01*
X128939543Y-61044371D01*
X128722556Y-61023000D01*
X128277444Y-61023000D01*
X128060457Y-61044371D01*
X127782042Y-61128828D01*
X127525453Y-61265978D01*
X127300550Y-61450550D01*
X127115978Y-61675453D01*
X126978828Y-61932042D01*
X126894371Y-62210457D01*
X126865854Y-62500000D01*
X124652000Y-62500000D01*
X124652000Y-48000000D01*
X126865854Y-48000000D01*
X126894371Y-48289543D01*
X126978828Y-48567958D01*
X127115978Y-48824547D01*
X127300550Y-49049450D01*
X127372667Y-49108635D01*
X127261080Y-49168279D01*
X127127723Y-49277723D01*
X127018279Y-49411080D01*
X126936956Y-49563226D01*
X126886877Y-49728314D01*
X126869967Y-49900000D01*
X126869967Y-51100000D01*
X126886877Y-51271686D01*
X126936956Y-51436774D01*
X127018279Y-51588920D01*
X127127723Y-51722277D01*
X127261080Y-51831721D01*
X127413226Y-51913044D01*
X127578314Y-51963123D01*
X127750000Y-51980033D01*
X129250000Y-51980033D01*
X129421686Y-51963123D01*
X129586774Y-51913044D01*
X129738920Y-51831721D01*
X129872277Y-51722277D01*
X129981721Y-51588920D01*
X130063044Y-51436774D01*
X130113123Y-51271686D01*
X130130033Y-51100000D01*
X130130033Y-50110232D01*
X132863265Y-47377000D01*
X134383313Y-47377000D01*
X134417925Y-47491103D01*
X134476147Y-47600028D01*
X134554499Y-47695501D01*
X134649972Y-47773853D01*
X134758897Y-47832075D01*
X134877087Y-47867927D01*
X135000000Y-47880033D01*
X135007478Y-47880033D01*
X134872213Y-47970414D01*
X134680414Y-48162213D01*
X134529718Y-48387746D01*
X134425917Y-48638344D01*
X134373000Y-48904377D01*
X134373000Y-49175623D01*
X134408026Y-49351709D01*
X128849158Y-54910577D01*
X128660245Y-54873000D01*
X128339755Y-54873000D01*
X128025422Y-54935525D01*
X127729327Y-55058172D01*
X127462848Y-55236227D01*
X127236227Y-55462848D01*
X127058172Y-55729327D01*
X126935525Y-56025422D01*
X126873000Y-56339755D01*
X126873000Y-56660245D01*
X126935525Y-56974578D01*
X127058172Y-57270673D01*
X127236227Y-57537152D01*
X127462848Y-57763773D01*
X127729327Y-57941828D01*
X128025422Y-58064475D01*
X128339755Y-58127000D01*
X128660245Y-58127000D01*
X128974578Y-58064475D01*
X129270673Y-57941828D01*
X129537152Y-57763773D01*
X129763773Y-57537152D01*
X129941828Y-57270673D01*
X130064475Y-56974578D01*
X130127000Y-56660245D01*
X130127000Y-56339755D01*
X130089423Y-56150842D01*
X133703272Y-52536993D01*
X134972612Y-52536993D01*
X135038137Y-52775860D01*
X135285116Y-52891760D01*
X135549960Y-52957250D01*
X135822492Y-52969812D01*
X136092238Y-52928965D01*
X136348832Y-52836277D01*
X136461863Y-52775860D01*
X136527388Y-52536993D01*
X136483097Y-52492702D01*
X139436903Y-52492702D01*
X139508486Y-52736671D01*
X139763996Y-52857571D01*
X140038184Y-52926300D01*
X140320512Y-52940217D01*
X140600130Y-52898787D01*
X140866292Y-52803603D01*
X140991514Y-52736671D01*
X141063097Y-52492702D01*
X140250000Y-51679605D01*
X139436903Y-52492702D01*
X136483097Y-52492702D01*
X135750000Y-51759605D01*
X134972612Y-52536993D01*
X133703272Y-52536993D01*
X134390118Y-51850147D01*
X134401035Y-51922238D01*
X134493723Y-52178832D01*
X134554140Y-52291863D01*
X134793007Y-52357388D01*
X135570395Y-51580000D01*
X135929605Y-51580000D01*
X136706993Y-52357388D01*
X136945860Y-52291863D01*
X137061760Y-52044884D01*
X137127250Y-51780040D01*
X137136907Y-51570512D01*
X138809783Y-51570512D01*
X138851213Y-51850130D01*
X138946397Y-52116292D01*
X139013329Y-52241514D01*
X139257298Y-52313097D01*
X140070395Y-51500000D01*
X139257298Y-50686903D01*
X139013329Y-50758486D01*
X138892429Y-51013996D01*
X138823700Y-51288184D01*
X138809783Y-51570512D01*
X137136907Y-51570512D01*
X137139812Y-51507508D01*
X137098965Y-51237762D01*
X137006277Y-50981168D01*
X136945860Y-50868137D01*
X136706993Y-50802612D01*
X135929605Y-51580000D01*
X135570395Y-51580000D01*
X135556253Y-51565858D01*
X135735858Y-51386253D01*
X135750000Y-51400395D01*
X136527388Y-50623007D01*
X136461863Y-50384140D01*
X136293723Y-50305237D01*
X136402254Y-50260282D01*
X136627787Y-50109586D01*
X136819586Y-49917787D01*
X136970282Y-49692254D01*
X137074083Y-49441656D01*
X137127000Y-49175623D01*
X137127000Y-48904377D01*
X137074083Y-48638344D01*
X136970282Y-48387746D01*
X136819586Y-48162213D01*
X136627787Y-47970414D01*
X136492522Y-47880033D01*
X136500000Y-47880033D01*
X136622913Y-47867927D01*
X136741103Y-47832075D01*
X136850028Y-47773853D01*
X136945501Y-47695501D01*
X137023853Y-47600028D01*
X137082075Y-47491103D01*
X137117927Y-47372913D01*
X137130033Y-47250000D01*
X137130033Y-45750000D01*
X137117927Y-45627087D01*
X137082075Y-45508897D01*
X137023853Y-45399972D01*
X136945501Y-45304499D01*
X136850028Y-45226147D01*
X136741103Y-45167925D01*
X136622913Y-45132073D01*
X136500000Y-45119967D01*
X135000000Y-45119967D01*
X134877087Y-45132073D01*
X134758897Y-45167925D01*
X134649972Y-45226147D01*
X134554499Y-45304499D01*
X134476147Y-45399972D01*
X134417925Y-45508897D01*
X134383313Y-45623000D01*
X132543069Y-45623000D01*
X132499999Y-45618758D01*
X132456930Y-45623000D01*
X132456921Y-45623000D01*
X132328078Y-45635690D01*
X132162763Y-45685838D01*
X132010408Y-45767273D01*
X131876867Y-45876867D01*
X131849403Y-45910332D01*
X130092514Y-47667221D01*
X130021172Y-47432042D01*
X129884022Y-47175453D01*
X129699450Y-46950550D01*
X129474547Y-46765978D01*
X129217958Y-46628828D01*
X128939543Y-46544371D01*
X128722556Y-46523000D01*
X128277444Y-46523000D01*
X128060457Y-46544371D01*
X127782042Y-46628828D01*
X127525453Y-46765978D01*
X127300550Y-46950550D01*
X127115978Y-47175453D01*
X126978828Y-47432042D01*
X126894371Y-47710457D01*
X126865854Y-48000000D01*
X124652000Y-48000000D01*
X124652000Y-40627000D01*
X131000000Y-40627000D01*
X131024776Y-40624560D01*
X131048601Y-40617333D01*
X131070557Y-40605597D01*
X131089803Y-40589803D01*
X131105597Y-40570557D01*
X131117333Y-40548601D01*
X131124560Y-40524776D01*
X131127000Y-40500000D01*
X131127000Y-34152000D01*
X162373000Y-34152000D01*
X162373000Y-40500000D01*
X162373000Y-40500000D01*
G37*
X162373000Y-40500000D02*
X162375440Y-40524776D01*
X162382667Y-40548601D01*
X162394403Y-40570557D01*
X162410197Y-40589803D01*
X162429443Y-40605597D01*
X162451399Y-40617333D01*
X162475224Y-40624560D01*
X162500000Y-40627000D01*
X168848000Y-40627000D01*
X168848001Y-81967978D01*
X168848000Y-97373000D01*
X124652000Y-97373000D01*
X124652000Y-96036993D01*
X136722612Y-96036993D01*
X136788137Y-96275860D01*
X137035116Y-96391760D01*
X137299960Y-96457250D01*
X137572492Y-96469812D01*
X137842238Y-96428965D01*
X138098832Y-96336277D01*
X138211863Y-96275860D01*
X138277388Y-96036993D01*
X154722612Y-96036993D01*
X154788137Y-96275860D01*
X155035116Y-96391760D01*
X155299960Y-96457250D01*
X155572492Y-96469812D01*
X155842238Y-96428965D01*
X156098832Y-96336277D01*
X156211863Y-96275860D01*
X156277388Y-96036993D01*
X155500000Y-95259605D01*
X154722612Y-96036993D01*
X138277388Y-96036993D01*
X137500000Y-95259605D01*
X136722612Y-96036993D01*
X124652000Y-96036993D01*
X124652000Y-91500000D01*
X126865854Y-91500000D01*
X126894371Y-91789543D01*
X126978828Y-92067958D01*
X127115978Y-92324547D01*
X127300550Y-92549450D01*
X127372667Y-92608635D01*
X127261080Y-92668279D01*
X127127723Y-92777723D01*
X127018279Y-92911080D01*
X126936956Y-93063226D01*
X126886877Y-93228314D01*
X126869967Y-93400000D01*
X126869967Y-94600000D01*
X126886877Y-94771686D01*
X126936956Y-94936774D01*
X127018279Y-95088920D01*
X127127723Y-95222277D01*
X127261080Y-95331721D01*
X127413226Y-95413044D01*
X127578314Y-95463123D01*
X127750000Y-95480033D01*
X129250000Y-95480033D01*
X129421686Y-95463123D01*
X129586774Y-95413044D01*
X129738920Y-95331721D01*
X129872277Y-95222277D01*
X129929548Y-95152492D01*
X136110188Y-95152492D01*
X136151035Y-95422238D01*
X136243723Y-95678832D01*
X136304140Y-95791863D01*
X136543007Y-95857388D01*
X137320395Y-95080000D01*
X137679605Y-95080000D01*
X138456993Y-95857388D01*
X138695860Y-95791863D01*
X138811760Y-95544884D01*
X138877250Y-95280040D01*
X138883129Y-95152492D01*
X154110188Y-95152492D01*
X154151035Y-95422238D01*
X154243723Y-95678832D01*
X154304140Y-95791863D01*
X154543007Y-95857388D01*
X155320395Y-95080000D01*
X155679605Y-95080000D01*
X156456993Y-95857388D01*
X156695860Y-95791863D01*
X156811760Y-95544884D01*
X156877250Y-95280040D01*
X156889812Y-95007508D01*
X156848965Y-94737762D01*
X156756277Y-94481168D01*
X156695860Y-94368137D01*
X156456993Y-94302612D01*
X155679605Y-95080000D01*
X155320395Y-95080000D01*
X154543007Y-94302612D01*
X154304140Y-94368137D01*
X154188240Y-94615116D01*
X154122750Y-94879960D01*
X154110188Y-95152492D01*
X138883129Y-95152492D01*
X138889812Y-95007508D01*
X138848965Y-94737762D01*
X138756277Y-94481168D01*
X138695860Y-94368137D01*
X138456993Y-94302612D01*
X137679605Y-95080000D01*
X137320395Y-95080000D01*
X136543007Y-94302612D01*
X136304140Y-94368137D01*
X136188240Y-94615116D01*
X136122750Y-94879960D01*
X136110188Y-95152492D01*
X129929548Y-95152492D01*
X129981721Y-95088920D01*
X130063044Y-94936774D01*
X130113123Y-94771686D01*
X130130033Y-94600000D01*
X130130033Y-93610232D01*
X132863265Y-90877000D01*
X136133313Y-90877000D01*
X136167925Y-90991103D01*
X136226147Y-91100028D01*
X136304499Y-91195501D01*
X136399972Y-91273853D01*
X136508897Y-91332075D01*
X136627087Y-91367927D01*
X136750000Y-91380033D01*
X136757478Y-91380033D01*
X136622213Y-91470414D01*
X136430414Y-91662213D01*
X136279718Y-91887746D01*
X136175917Y-92138344D01*
X136123000Y-92404377D01*
X136123000Y-92675623D01*
X136175917Y-92941656D01*
X136279718Y-93192254D01*
X136430414Y-93417787D01*
X136622213Y-93609586D01*
X136847746Y-93760282D01*
X136954445Y-93804478D01*
X136901168Y-93823723D01*
X136788137Y-93884140D01*
X136722612Y-94123007D01*
X137500000Y-94900395D01*
X138277388Y-94123007D01*
X138211863Y-93884140D01*
X138043723Y-93805237D01*
X138152254Y-93760282D01*
X138377787Y-93609586D01*
X138569586Y-93417787D01*
X138720282Y-93192254D01*
X138824083Y-92941656D01*
X138856746Y-92777444D01*
X144023000Y-92777444D01*
X144023000Y-93222555D01*
X144044371Y-93439542D01*
X144128828Y-93717957D01*
X144265978Y-93974546D01*
X144450550Y-94199450D01*
X144675453Y-94384022D01*
X144932042Y-94521172D01*
X145210457Y-94605629D01*
X145500000Y-94634146D01*
X145789542Y-94605629D01*
X146067957Y-94521172D01*
X146324546Y-94384022D01*
X146547432Y-94201106D01*
X146560498Y-94244180D01*
X146619463Y-94354494D01*
X146698815Y-94451185D01*
X146795506Y-94530537D01*
X146905820Y-94589502D01*
X147025518Y-94625812D01*
X147150000Y-94638072D01*
X147714250Y-94635000D01*
X147873000Y-94476250D01*
X147873000Y-93127000D01*
X148127000Y-93127000D01*
X148127000Y-94476250D01*
X148285750Y-94635000D01*
X148850000Y-94638072D01*
X148974482Y-94625812D01*
X149094180Y-94589502D01*
X149204494Y-94530537D01*
X149301185Y-94451185D01*
X149380537Y-94354494D01*
X149439502Y-94244180D01*
X149475812Y-94124482D01*
X149488072Y-94000000D01*
X149485000Y-93285750D01*
X149326250Y-93127000D01*
X148127000Y-93127000D01*
X147873000Y-93127000D01*
X147853000Y-93127000D01*
X147853000Y-92873000D01*
X147873000Y-92873000D01*
X147873000Y-91523750D01*
X148127000Y-91523750D01*
X148127000Y-92873000D01*
X149326250Y-92873000D01*
X149485000Y-92714250D01*
X149488072Y-92000000D01*
X149475812Y-91875518D01*
X149439502Y-91755820D01*
X149380537Y-91645506D01*
X149301185Y-91548815D01*
X149204494Y-91469463D01*
X149094180Y-91410498D01*
X148974482Y-91374188D01*
X148850000Y-91361928D01*
X148285750Y-91365000D01*
X148127000Y-91523750D01*
X147873000Y-91523750D01*
X147714250Y-91365000D01*
X147150000Y-91361928D01*
X147025518Y-91374188D01*
X146905820Y-91410498D01*
X146795506Y-91469463D01*
X146698815Y-91548815D01*
X146619463Y-91645506D01*
X146560498Y-91755820D01*
X146547432Y-91798894D01*
X146324547Y-91615978D01*
X146067958Y-91478828D01*
X145789543Y-91394371D01*
X145500000Y-91365854D01*
X145210458Y-91394371D01*
X144932043Y-91478828D01*
X144675454Y-91615978D01*
X144450550Y-91800550D01*
X144265978Y-92025453D01*
X144128828Y-92282042D01*
X144044371Y-92560457D01*
X144023000Y-92777444D01*
X138856746Y-92777444D01*
X138877000Y-92675623D01*
X138877000Y-92404377D01*
X138876816Y-92403449D01*
X144589668Y-86690597D01*
X144623133Y-86663133D01*
X144732727Y-86529592D01*
X144814162Y-86377237D01*
X144864310Y-86211922D01*
X144877000Y-86083079D01*
X144877000Y-86083078D01*
X144881243Y-86040001D01*
X144877000Y-85996924D01*
X144877000Y-84870783D01*
X145037152Y-84763773D01*
X145263773Y-84537152D01*
X145441828Y-84270673D01*
X145564475Y-83974578D01*
X145627000Y-83660245D01*
X145627000Y-83339755D01*
X147873000Y-83339755D01*
X147873000Y-83660245D01*
X147935525Y-83974578D01*
X148058172Y-84270673D01*
X148236227Y-84537152D01*
X148462848Y-84763773D01*
X148623000Y-84870783D01*
X148623001Y-86496911D01*
X148618757Y-86540000D01*
X148635690Y-86711922D01*
X148685838Y-86877236D01*
X148767274Y-87029592D01*
X148849406Y-87129671D01*
X148849409Y-87129674D01*
X148876868Y-87163133D01*
X148910327Y-87190592D01*
X154123184Y-92403449D01*
X154123000Y-92404377D01*
X154123000Y-92675623D01*
X154175917Y-92941656D01*
X154279718Y-93192254D01*
X154430414Y-93417787D01*
X154622213Y-93609586D01*
X154847746Y-93760282D01*
X154954445Y-93804478D01*
X154901168Y-93823723D01*
X154788137Y-93884140D01*
X154722612Y-94123007D01*
X155500000Y-94900395D01*
X156277388Y-94123007D01*
X156211863Y-93884140D01*
X156043723Y-93805237D01*
X156152254Y-93760282D01*
X156377787Y-93609586D01*
X156569586Y-93417787D01*
X156720282Y-93192254D01*
X156824083Y-92941656D01*
X156877000Y-92675623D01*
X156877000Y-92404377D01*
X156824083Y-92138344D01*
X156720282Y-91887746D01*
X156569586Y-91662213D01*
X156377787Y-91470414D01*
X156242522Y-91380033D01*
X156250000Y-91380033D01*
X156372913Y-91367927D01*
X156491103Y-91332075D01*
X156600028Y-91273853D01*
X156695501Y-91195501D01*
X156773853Y-91100028D01*
X156832075Y-90991103D01*
X156866687Y-90877000D01*
X163136735Y-90877000D01*
X163369967Y-91110232D01*
X163369967Y-92100000D01*
X163386877Y-92271686D01*
X163436956Y-92436774D01*
X163518279Y-92588920D01*
X163627723Y-92722277D01*
X163761080Y-92831721D01*
X163872667Y-92891365D01*
X163800550Y-92950550D01*
X163615978Y-93175453D01*
X163478828Y-93432042D01*
X163394371Y-93710457D01*
X163365854Y-94000000D01*
X163394371Y-94289543D01*
X163478828Y-94567958D01*
X163615978Y-94824547D01*
X163800550Y-95049450D01*
X164025453Y-95234022D01*
X164282042Y-95371172D01*
X164560457Y-95455629D01*
X164777444Y-95477000D01*
X165222556Y-95477000D01*
X165439543Y-95455629D01*
X165717958Y-95371172D01*
X165974547Y-95234022D01*
X166199450Y-95049450D01*
X166384022Y-94824547D01*
X166521172Y-94567958D01*
X166605629Y-94289543D01*
X166634146Y-94000000D01*
X166605629Y-93710457D01*
X166521172Y-93432042D01*
X166384022Y-93175453D01*
X166199450Y-92950550D01*
X166127333Y-92891365D01*
X166238920Y-92831721D01*
X166372277Y-92722277D01*
X166481721Y-92588920D01*
X166563044Y-92436774D01*
X166613123Y-92271686D01*
X166630033Y-92100000D01*
X166630033Y-90900000D01*
X166613123Y-90728314D01*
X166563044Y-90563226D01*
X166481721Y-90411080D01*
X166372277Y-90277723D01*
X166238920Y-90168279D01*
X166086774Y-90086956D01*
X165921686Y-90036877D01*
X165750000Y-90019967D01*
X164760232Y-90019967D01*
X164150597Y-89410332D01*
X164123133Y-89376867D01*
X163989592Y-89267273D01*
X163837237Y-89185838D01*
X163671922Y-89135690D01*
X163543079Y-89123000D01*
X163500000Y-89118757D01*
X163456921Y-89123000D01*
X156866687Y-89123000D01*
X156832075Y-89008897D01*
X156773853Y-88899972D01*
X156695501Y-88804499D01*
X156600028Y-88726147D01*
X156491103Y-88667925D01*
X156372913Y-88632073D01*
X156250000Y-88619967D01*
X154750000Y-88619967D01*
X154627087Y-88632073D01*
X154508897Y-88667925D01*
X154399972Y-88726147D01*
X154304499Y-88804499D01*
X154226147Y-88899972D01*
X154167925Y-89008897D01*
X154132073Y-89127087D01*
X154119967Y-89250000D01*
X154119967Y-89919702D01*
X150377000Y-86176735D01*
X150377000Y-84870783D01*
X150537152Y-84763773D01*
X150763773Y-84537152D01*
X150941828Y-84270673D01*
X151064475Y-83974578D01*
X151127000Y-83660245D01*
X151127000Y-83339755D01*
X151064475Y-83025422D01*
X150941828Y-82729327D01*
X150763773Y-82462848D01*
X150537152Y-82236227D01*
X150270673Y-82058172D01*
X149974578Y-81935525D01*
X149660245Y-81873000D01*
X149339755Y-81873000D01*
X149025422Y-81935525D01*
X148729327Y-82058172D01*
X148462848Y-82236227D01*
X148236227Y-82462848D01*
X148058172Y-82729327D01*
X147935525Y-83025422D01*
X147873000Y-83339755D01*
X145627000Y-83339755D01*
X145564475Y-83025422D01*
X145441828Y-82729327D01*
X145263773Y-82462848D01*
X145037152Y-82236227D01*
X144770673Y-82058172D01*
X144474578Y-81935525D01*
X144160245Y-81873000D01*
X143839755Y-81873000D01*
X143525422Y-81935525D01*
X143229327Y-82058172D01*
X142962848Y-82236227D01*
X142736227Y-82462848D01*
X142558172Y-82729327D01*
X142435525Y-83025422D01*
X142373000Y-83339755D01*
X142373000Y-83660245D01*
X142435525Y-83974578D01*
X142558172Y-84270673D01*
X142736227Y-84537152D01*
X142962848Y-84763773D01*
X143123001Y-84870783D01*
X143123001Y-85676734D01*
X138880033Y-89919702D01*
X138880033Y-89250000D01*
X138867927Y-89127087D01*
X138832075Y-89008897D01*
X138773853Y-88899972D01*
X138695501Y-88804499D01*
X138600028Y-88726147D01*
X138491103Y-88667925D01*
X138372913Y-88632073D01*
X138250000Y-88619967D01*
X136750000Y-88619967D01*
X136627087Y-88632073D01*
X136508897Y-88667925D01*
X136399972Y-88726147D01*
X136304499Y-88804499D01*
X136226147Y-88899972D01*
X136167925Y-89008897D01*
X136133313Y-89123000D01*
X132543069Y-89123000D01*
X132499999Y-89118758D01*
X132456930Y-89123000D01*
X132456921Y-89123000D01*
X132328078Y-89135690D01*
X132162763Y-89185838D01*
X132010408Y-89267273D01*
X131876867Y-89376867D01*
X131849403Y-89410332D01*
X130092514Y-91167221D01*
X130021172Y-90932042D01*
X129884022Y-90675453D01*
X129699450Y-90450550D01*
X129474547Y-90265978D01*
X129217958Y-90128828D01*
X128939543Y-90044371D01*
X128722556Y-90023000D01*
X128277444Y-90023000D01*
X128060457Y-90044371D01*
X127782042Y-90128828D01*
X127525453Y-90265978D01*
X127300550Y-90450550D01*
X127115978Y-90675453D01*
X126978828Y-90932042D01*
X126894371Y-91210457D01*
X126865854Y-91500000D01*
X124652000Y-91500000D01*
X124652000Y-77000000D01*
X126865854Y-77000000D01*
X126894371Y-77289543D01*
X126978828Y-77567958D01*
X127115978Y-77824547D01*
X127300550Y-78049450D01*
X127372667Y-78108635D01*
X127261080Y-78168279D01*
X127127723Y-78277723D01*
X127018279Y-78411080D01*
X126936956Y-78563226D01*
X126886877Y-78728314D01*
X126869967Y-78900000D01*
X126869967Y-80100000D01*
X126886877Y-80271686D01*
X126936956Y-80436774D01*
X127018279Y-80588920D01*
X127127723Y-80722277D01*
X127261080Y-80831721D01*
X127413226Y-80913044D01*
X127578314Y-80963123D01*
X127750000Y-80980033D01*
X129250000Y-80980033D01*
X129421686Y-80963123D01*
X129586774Y-80913044D01*
X129738920Y-80831721D01*
X129872277Y-80722277D01*
X129981721Y-80588920D01*
X130063044Y-80436774D01*
X130113123Y-80271686D01*
X130130033Y-80100000D01*
X130130033Y-79110232D01*
X132863265Y-76377000D01*
X136133313Y-76377000D01*
X136167925Y-76491103D01*
X136226147Y-76600028D01*
X136304499Y-76695501D01*
X136399972Y-76773853D01*
X136508897Y-76832075D01*
X136627087Y-76867927D01*
X136750000Y-76880033D01*
X136757478Y-76880033D01*
X136622213Y-76970414D01*
X136430414Y-77162213D01*
X136429888Y-77163000D01*
X136003076Y-77163000D01*
X135959999Y-77158757D01*
X135916922Y-77163000D01*
X135916921Y-77163000D01*
X135788078Y-77175690D01*
X135622763Y-77225838D01*
X135470408Y-77307273D01*
X135336867Y-77416867D01*
X135309403Y-77450332D01*
X128849158Y-83910577D01*
X128660245Y-83873000D01*
X128339755Y-83873000D01*
X128025422Y-83935525D01*
X127729327Y-84058172D01*
X127462848Y-84236227D01*
X127236227Y-84462848D01*
X127058172Y-84729327D01*
X126935525Y-85025422D01*
X126873000Y-85339755D01*
X126873000Y-85660245D01*
X126935525Y-85974578D01*
X127058172Y-86270673D01*
X127236227Y-86537152D01*
X127462848Y-86763773D01*
X127729327Y-86941828D01*
X128025422Y-87064475D01*
X128339755Y-87127000D01*
X128660245Y-87127000D01*
X128974578Y-87064475D01*
X129270673Y-86941828D01*
X129537152Y-86763773D01*
X129763773Y-86537152D01*
X129941828Y-86270673D01*
X130064475Y-85974578D01*
X130127000Y-85660245D01*
X130127000Y-85339755D01*
X130089423Y-85150842D01*
X133703272Y-81536993D01*
X136722612Y-81536993D01*
X136788137Y-81775860D01*
X137035116Y-81891760D01*
X137299960Y-81957250D01*
X137572492Y-81969812D01*
X137842238Y-81928965D01*
X138098832Y-81836277D01*
X138211863Y-81775860D01*
X138277388Y-81536993D01*
X137500000Y-80759605D01*
X136722612Y-81536993D01*
X133703272Y-81536993D01*
X134587773Y-80652492D01*
X136110188Y-80652492D01*
X136151035Y-80922238D01*
X136243723Y-81178832D01*
X136304140Y-81291863D01*
X136543007Y-81357388D01*
X137320395Y-80580000D01*
X137679605Y-80580000D01*
X138456993Y-81357388D01*
X138695860Y-81291863D01*
X138811760Y-81044884D01*
X138877250Y-80780040D01*
X138889812Y-80507508D01*
X138848965Y-80237762D01*
X138756277Y-79981168D01*
X138695860Y-79868137D01*
X138456993Y-79802612D01*
X137679605Y-80580000D01*
X137320395Y-80580000D01*
X136543007Y-79802612D01*
X136304140Y-79868137D01*
X136188240Y-80115116D01*
X136122750Y-80379960D01*
X136110188Y-80652492D01*
X134587773Y-80652492D01*
X136323265Y-78917000D01*
X136429888Y-78917000D01*
X136430414Y-78917787D01*
X136622213Y-79109586D01*
X136847746Y-79260282D01*
X136954445Y-79304478D01*
X136901168Y-79323723D01*
X136788137Y-79384140D01*
X136722612Y-79623007D01*
X137500000Y-80400395D01*
X138277388Y-79623007D01*
X138211863Y-79384140D01*
X138043723Y-79305237D01*
X138152254Y-79260282D01*
X138377787Y-79109586D01*
X138569586Y-78917787D01*
X138720282Y-78692254D01*
X138824083Y-78441656D01*
X138877000Y-78175623D01*
X138877000Y-77904377D01*
X138824083Y-77638344D01*
X138720282Y-77387746D01*
X138569586Y-77162213D01*
X138377787Y-76970414D01*
X138242522Y-76880033D01*
X138250000Y-76880033D01*
X138372913Y-76867927D01*
X138491103Y-76832075D01*
X138600028Y-76773853D01*
X138695501Y-76695501D01*
X138773853Y-76600028D01*
X138832075Y-76491103D01*
X138867927Y-76372913D01*
X138880033Y-76250000D01*
X138880033Y-74750000D01*
X138867927Y-74627087D01*
X138832075Y-74508897D01*
X138773853Y-74399972D01*
X138695501Y-74304499D01*
X138600028Y-74226147D01*
X138491103Y-74167925D01*
X138372913Y-74132073D01*
X138250000Y-74119967D01*
X136750000Y-74119967D01*
X136627087Y-74132073D01*
X136508897Y-74167925D01*
X136399972Y-74226147D01*
X136304499Y-74304499D01*
X136226147Y-74399972D01*
X136167925Y-74508897D01*
X136133313Y-74623000D01*
X132543069Y-74623000D01*
X132499999Y-74618758D01*
X132456930Y-74623000D01*
X132456921Y-74623000D01*
X132328078Y-74635690D01*
X132162763Y-74685838D01*
X132010408Y-74767273D01*
X131876867Y-74876867D01*
X131849403Y-74910332D01*
X130092514Y-76667221D01*
X130021172Y-76432042D01*
X129884022Y-76175453D01*
X129699450Y-75950550D01*
X129474547Y-75765978D01*
X129217958Y-75628828D01*
X128939543Y-75544371D01*
X128722556Y-75523000D01*
X128277444Y-75523000D01*
X128060457Y-75544371D01*
X127782042Y-75628828D01*
X127525453Y-75765978D01*
X127300550Y-75950550D01*
X127115978Y-76175453D01*
X126978828Y-76432042D01*
X126894371Y-76710457D01*
X126865854Y-77000000D01*
X124652000Y-77000000D01*
X124652000Y-62500000D01*
X126865854Y-62500000D01*
X126894371Y-62789543D01*
X126978828Y-63067958D01*
X127115978Y-63324547D01*
X127300550Y-63549450D01*
X127372667Y-63608635D01*
X127261080Y-63668279D01*
X127127723Y-63777723D01*
X127018279Y-63911080D01*
X126936956Y-64063226D01*
X126886877Y-64228314D01*
X126869967Y-64400000D01*
X126869967Y-65600000D01*
X126886877Y-65771686D01*
X126936956Y-65936774D01*
X127018279Y-66088920D01*
X127127723Y-66222277D01*
X127261080Y-66331721D01*
X127413226Y-66413044D01*
X127578314Y-66463123D01*
X127750000Y-66480033D01*
X129250000Y-66480033D01*
X129421686Y-66463123D01*
X129586774Y-66413044D01*
X129738920Y-66331721D01*
X129872277Y-66222277D01*
X129981721Y-66088920D01*
X130063044Y-65936774D01*
X130113123Y-65771686D01*
X130130033Y-65600000D01*
X130130033Y-64610232D01*
X132863265Y-61877000D01*
X136133313Y-61877000D01*
X136167925Y-61991103D01*
X136226147Y-62100028D01*
X136304499Y-62195501D01*
X136399972Y-62273853D01*
X136508897Y-62332075D01*
X136627087Y-62367927D01*
X136750000Y-62380033D01*
X136757478Y-62380033D01*
X136622213Y-62470414D01*
X136430414Y-62662213D01*
X136429888Y-62663000D01*
X136003076Y-62663000D01*
X135959999Y-62658757D01*
X135916922Y-62663000D01*
X135916921Y-62663000D01*
X135788078Y-62675690D01*
X135622763Y-62725838D01*
X135470408Y-62807273D01*
X135336867Y-62916867D01*
X135309403Y-62950332D01*
X128849158Y-69410577D01*
X128660245Y-69373000D01*
X128339755Y-69373000D01*
X128025422Y-69435525D01*
X127729327Y-69558172D01*
X127462848Y-69736227D01*
X127236227Y-69962848D01*
X127058172Y-70229327D01*
X126935525Y-70525422D01*
X126873000Y-70839755D01*
X126873000Y-71160245D01*
X126935525Y-71474578D01*
X127058172Y-71770673D01*
X127236227Y-72037152D01*
X127462848Y-72263773D01*
X127729327Y-72441828D01*
X128025422Y-72564475D01*
X128339755Y-72627000D01*
X128660245Y-72627000D01*
X128974578Y-72564475D01*
X129270673Y-72441828D01*
X129537152Y-72263773D01*
X129763773Y-72037152D01*
X129941828Y-71770673D01*
X130064475Y-71474578D01*
X130127000Y-71160245D01*
X130127000Y-70839755D01*
X130089423Y-70650842D01*
X134587773Y-66152492D01*
X136110188Y-66152492D01*
X136151035Y-66422238D01*
X136243723Y-66678832D01*
X136304140Y-66791863D01*
X136543007Y-66857388D01*
X137320395Y-66080000D01*
X136543007Y-65302612D01*
X136304140Y-65368137D01*
X136188240Y-65615116D01*
X136122750Y-65879960D01*
X136110188Y-66152492D01*
X134587773Y-66152492D01*
X136323265Y-64417000D01*
X136429888Y-64417000D01*
X136430414Y-64417787D01*
X136622213Y-64609586D01*
X136847746Y-64760282D01*
X136954445Y-64804478D01*
X136901168Y-64823723D01*
X136788137Y-64884140D01*
X136722612Y-65123007D01*
X137500000Y-65900395D01*
X137514143Y-65886253D01*
X137693748Y-66065858D01*
X137679605Y-66080000D01*
X137693748Y-66094143D01*
X137514143Y-66273748D01*
X137500000Y-66259605D01*
X136722612Y-67036993D01*
X136788137Y-67275860D01*
X137035116Y-67391760D01*
X137299960Y-67457250D01*
X137572492Y-67469812D01*
X137842238Y-67428965D01*
X138098832Y-67336277D01*
X138123001Y-67323358D01*
X138123001Y-69136735D01*
X137910328Y-69349407D01*
X137849158Y-69410577D01*
X137660245Y-69373000D01*
X137339755Y-69373000D01*
X137025422Y-69435525D01*
X136729327Y-69558172D01*
X136462848Y-69736227D01*
X136236227Y-69962848D01*
X136058172Y-70229327D01*
X135935525Y-70525422D01*
X135873000Y-70839755D01*
X135873000Y-71160245D01*
X135935525Y-71474578D01*
X136058172Y-71770673D01*
X136236227Y-72037152D01*
X136462848Y-72263773D01*
X136729327Y-72441828D01*
X137025422Y-72564475D01*
X137339755Y-72627000D01*
X137660245Y-72627000D01*
X137974578Y-72564475D01*
X138270673Y-72441828D01*
X138537152Y-72263773D01*
X138763773Y-72037152D01*
X138941828Y-71770673D01*
X139064475Y-71474578D01*
X139123000Y-71180354D01*
X139123001Y-82636733D01*
X137910328Y-83849407D01*
X137849158Y-83910577D01*
X137660245Y-83873000D01*
X137339755Y-83873000D01*
X137025422Y-83935525D01*
X136729327Y-84058172D01*
X136462848Y-84236227D01*
X136236227Y-84462848D01*
X136058172Y-84729327D01*
X135935525Y-85025422D01*
X135873000Y-85339755D01*
X135873000Y-85660245D01*
X135935525Y-85974578D01*
X136058172Y-86270673D01*
X136236227Y-86537152D01*
X136462848Y-86763773D01*
X136729327Y-86941828D01*
X137025422Y-87064475D01*
X137339755Y-87127000D01*
X137660245Y-87127000D01*
X137974578Y-87064475D01*
X138270673Y-86941828D01*
X138537152Y-86763773D01*
X138763773Y-86537152D01*
X138941828Y-86270673D01*
X139064475Y-85974578D01*
X139127000Y-85660245D01*
X139127000Y-85339755D01*
X139089423Y-85150842D01*
X139150593Y-85089672D01*
X140589674Y-83650592D01*
X140623133Y-83623133D01*
X140650595Y-83589671D01*
X140732726Y-83489593D01*
X140814162Y-83337237D01*
X140864310Y-83171923D01*
X140881243Y-83000000D01*
X140877000Y-82956921D01*
X140877000Y-72617265D01*
X142410577Y-74150842D01*
X142373000Y-74339755D01*
X142373000Y-74660245D01*
X142435525Y-74974578D01*
X142558172Y-75270673D01*
X142736227Y-75537152D01*
X142962848Y-75763773D01*
X143229327Y-75941828D01*
X143525422Y-76064475D01*
X143839755Y-76127000D01*
X144160245Y-76127000D01*
X144474578Y-76064475D01*
X144770673Y-75941828D01*
X145037152Y-75763773D01*
X145263773Y-75537152D01*
X145441828Y-75270673D01*
X145564475Y-74974578D01*
X145627000Y-74660245D01*
X145627000Y-74339755D01*
X145564475Y-74025422D01*
X145441828Y-73729327D01*
X145263773Y-73462848D01*
X145037152Y-73236227D01*
X144770673Y-73058172D01*
X144474578Y-72935525D01*
X144160245Y-72873000D01*
X143839755Y-72873000D01*
X143650842Y-72910577D01*
X141877000Y-71136735D01*
X141877000Y-70741013D01*
X141986077Y-70873923D01*
X142203366Y-71052248D01*
X142451269Y-71184755D01*
X142720259Y-71266352D01*
X142929902Y-71287000D01*
X143070098Y-71287000D01*
X143279741Y-71266352D01*
X143548731Y-71184755D01*
X143796634Y-71052248D01*
X144013923Y-70873923D01*
X144192248Y-70656634D01*
X144324755Y-70408731D01*
X144406352Y-70139741D01*
X144433904Y-69860000D01*
X144406352Y-69580259D01*
X144324755Y-69311269D01*
X144192248Y-69063366D01*
X144013923Y-68846077D01*
X143796634Y-68667752D01*
X143651170Y-68590000D01*
X143796634Y-68512248D01*
X144013923Y-68333923D01*
X144192248Y-68116634D01*
X144324755Y-67868731D01*
X144406352Y-67599741D01*
X144433904Y-67320000D01*
X144406352Y-67040259D01*
X144324755Y-66771269D01*
X144192248Y-66523366D01*
X144013923Y-66306077D01*
X143796634Y-66127752D01*
X143651170Y-66050000D01*
X143796634Y-65972248D01*
X144013923Y-65793923D01*
X144192248Y-65576634D01*
X144324755Y-65328731D01*
X144406352Y-65059741D01*
X144433904Y-64780000D01*
X144416542Y-64603723D01*
X146089668Y-62930597D01*
X146123133Y-62903133D01*
X146232727Y-62769592D01*
X146314162Y-62617237D01*
X146364310Y-62451922D01*
X146377000Y-62323079D01*
X146377000Y-62323070D01*
X146381242Y-62280001D01*
X146377000Y-62236931D01*
X146377000Y-45125000D01*
X147118757Y-45125000D01*
X147123000Y-45168079D01*
X147123000Y-45543078D01*
X147123001Y-45543088D01*
X147123000Y-64656920D01*
X147118757Y-64700000D01*
X147135690Y-64871922D01*
X147174919Y-65001242D01*
X147185838Y-65037236D01*
X147267273Y-65189591D01*
X147376867Y-65323133D01*
X147410332Y-65350597D01*
X149203458Y-67143723D01*
X149186096Y-67320000D01*
X149213648Y-67599741D01*
X149295245Y-67868731D01*
X149427752Y-68116634D01*
X149606077Y-68333923D01*
X149823366Y-68512248D01*
X149968830Y-68590000D01*
X149823366Y-68667752D01*
X149606077Y-68846077D01*
X149427752Y-69063366D01*
X149295245Y-69311269D01*
X149213648Y-69580259D01*
X149186096Y-69860000D01*
X149213648Y-70139741D01*
X149295245Y-70408731D01*
X149427752Y-70656634D01*
X149606077Y-70873923D01*
X149823366Y-71052248D01*
X150071269Y-71184755D01*
X150340259Y-71266352D01*
X150549902Y-71287000D01*
X150690098Y-71287000D01*
X150899741Y-71266352D01*
X151168731Y-71184755D01*
X151416634Y-71052248D01*
X151623001Y-70882887D01*
X151623001Y-71136734D01*
X149849158Y-72910577D01*
X149660245Y-72873000D01*
X149339755Y-72873000D01*
X149025422Y-72935525D01*
X148729327Y-73058172D01*
X148462848Y-73236227D01*
X148236227Y-73462848D01*
X148058172Y-73729327D01*
X147935525Y-74025422D01*
X147873000Y-74339755D01*
X147873000Y-74660245D01*
X147935525Y-74974578D01*
X148058172Y-75270673D01*
X148236227Y-75537152D01*
X148462848Y-75763773D01*
X148729327Y-75941828D01*
X149025422Y-76064475D01*
X149339755Y-76127000D01*
X149660245Y-76127000D01*
X149974578Y-76064475D01*
X150270673Y-75941828D01*
X150537152Y-75763773D01*
X150763773Y-75537152D01*
X150941828Y-75270673D01*
X151064475Y-74974578D01*
X151127000Y-74660245D01*
X151127000Y-74339755D01*
X151089423Y-74150842D01*
X152623000Y-72617265D01*
X152623001Y-82956910D01*
X152618757Y-83000000D01*
X152635690Y-83171922D01*
X152685838Y-83337236D01*
X152767274Y-83489592D01*
X152849406Y-83589671D01*
X152849407Y-83589672D01*
X152876868Y-83623133D01*
X152910327Y-83650592D01*
X154410329Y-85150595D01*
X154410335Y-85150600D01*
X154410577Y-85150842D01*
X154373000Y-85339755D01*
X154373000Y-85660245D01*
X154435525Y-85974578D01*
X154558172Y-86270673D01*
X154736227Y-86537152D01*
X154962848Y-86763773D01*
X155229327Y-86941828D01*
X155525422Y-87064475D01*
X155839755Y-87127000D01*
X156160245Y-87127000D01*
X156474578Y-87064475D01*
X156770673Y-86941828D01*
X157037152Y-86763773D01*
X157263773Y-86537152D01*
X157441828Y-86270673D01*
X157564475Y-85974578D01*
X157627000Y-85660245D01*
X157627000Y-85339755D01*
X157564475Y-85025422D01*
X157441828Y-84729327D01*
X157263773Y-84462848D01*
X157037152Y-84236227D01*
X156770673Y-84058172D01*
X156474578Y-83935525D01*
X156160245Y-83873000D01*
X155839755Y-83873000D01*
X155650842Y-83910577D01*
X155650600Y-83910335D01*
X155650595Y-83910329D01*
X154377000Y-82636735D01*
X154377000Y-81536993D01*
X154722612Y-81536993D01*
X154788137Y-81775860D01*
X155035116Y-81891760D01*
X155299960Y-81957250D01*
X155572492Y-81969812D01*
X155842238Y-81928965D01*
X156098832Y-81836277D01*
X156211863Y-81775860D01*
X156277388Y-81536993D01*
X155500000Y-80759605D01*
X154722612Y-81536993D01*
X154377000Y-81536993D01*
X154377000Y-81311850D01*
X154543007Y-81357388D01*
X155320395Y-80580000D01*
X155679605Y-80580000D01*
X156456993Y-81357388D01*
X156695860Y-81291863D01*
X156811760Y-81044884D01*
X156877250Y-80780040D01*
X156889812Y-80507508D01*
X156848965Y-80237762D01*
X156756277Y-79981168D01*
X156695860Y-79868137D01*
X156456993Y-79802612D01*
X155679605Y-80580000D01*
X155320395Y-80580000D01*
X154543007Y-79802612D01*
X154377000Y-79848150D01*
X154377000Y-78837847D01*
X154430414Y-78917787D01*
X154622213Y-79109586D01*
X154847746Y-79260282D01*
X154954445Y-79304478D01*
X154901168Y-79323723D01*
X154788137Y-79384140D01*
X154722612Y-79623007D01*
X155500000Y-80400395D01*
X156277388Y-79623007D01*
X156211863Y-79384140D01*
X156043723Y-79305237D01*
X156152254Y-79260282D01*
X156377787Y-79109586D01*
X156569586Y-78917787D01*
X156570112Y-78917000D01*
X157176735Y-78917000D01*
X163410577Y-85150842D01*
X163373000Y-85339755D01*
X163373000Y-85660245D01*
X163435525Y-85974578D01*
X163558172Y-86270673D01*
X163736227Y-86537152D01*
X163962848Y-86763773D01*
X164229327Y-86941828D01*
X164525422Y-87064475D01*
X164839755Y-87127000D01*
X165160245Y-87127000D01*
X165474578Y-87064475D01*
X165770673Y-86941828D01*
X166037152Y-86763773D01*
X166263773Y-86537152D01*
X166441828Y-86270673D01*
X166564475Y-85974578D01*
X166627000Y-85660245D01*
X166627000Y-85339755D01*
X166564475Y-85025422D01*
X166441828Y-84729327D01*
X166263773Y-84462848D01*
X166037152Y-84236227D01*
X165770673Y-84058172D01*
X165474578Y-83935525D01*
X165160245Y-83873000D01*
X164839755Y-83873000D01*
X164650842Y-83910577D01*
X158190597Y-77450332D01*
X158163133Y-77416867D01*
X158029592Y-77307273D01*
X157877237Y-77225838D01*
X157711922Y-77175690D01*
X157583079Y-77163000D01*
X157540000Y-77158757D01*
X157496921Y-77163000D01*
X156570112Y-77163000D01*
X156569586Y-77162213D01*
X156377787Y-76970414D01*
X156242522Y-76880033D01*
X156250000Y-76880033D01*
X156372913Y-76867927D01*
X156491103Y-76832075D01*
X156600028Y-76773853D01*
X156695501Y-76695501D01*
X156773853Y-76600028D01*
X156832075Y-76491103D01*
X156866687Y-76377000D01*
X163136735Y-76377000D01*
X163369967Y-76610232D01*
X163369967Y-77600000D01*
X163386877Y-77771686D01*
X163436956Y-77936774D01*
X163518279Y-78088920D01*
X163627723Y-78222277D01*
X163761080Y-78331721D01*
X163872667Y-78391365D01*
X163800550Y-78450550D01*
X163615978Y-78675453D01*
X163478828Y-78932042D01*
X163394371Y-79210457D01*
X163365854Y-79500000D01*
X163394371Y-79789543D01*
X163478828Y-80067958D01*
X163615978Y-80324547D01*
X163800550Y-80549450D01*
X164025453Y-80734022D01*
X164282042Y-80871172D01*
X164560457Y-80955629D01*
X164777444Y-80977000D01*
X165222556Y-80977000D01*
X165439543Y-80955629D01*
X165717958Y-80871172D01*
X165974547Y-80734022D01*
X166199450Y-80549450D01*
X166384022Y-80324547D01*
X166521172Y-80067958D01*
X166605629Y-79789543D01*
X166634146Y-79500000D01*
X166605629Y-79210457D01*
X166521172Y-78932042D01*
X166384022Y-78675453D01*
X166199450Y-78450550D01*
X166127333Y-78391365D01*
X166238920Y-78331721D01*
X166372277Y-78222277D01*
X166481721Y-78088920D01*
X166563044Y-77936774D01*
X166613123Y-77771686D01*
X166630033Y-77600000D01*
X166630033Y-76400000D01*
X166613123Y-76228314D01*
X166563044Y-76063226D01*
X166481721Y-75911080D01*
X166372277Y-75777723D01*
X166238920Y-75668279D01*
X166086774Y-75586956D01*
X165921686Y-75536877D01*
X165750000Y-75519967D01*
X164760232Y-75519967D01*
X164150597Y-74910332D01*
X164123133Y-74876867D01*
X163989592Y-74767273D01*
X163837237Y-74685838D01*
X163671922Y-74635690D01*
X163543079Y-74623000D01*
X163500000Y-74618757D01*
X163456921Y-74623000D01*
X156866687Y-74623000D01*
X156832075Y-74508897D01*
X156773853Y-74399972D01*
X156695501Y-74304499D01*
X156600028Y-74226147D01*
X156491103Y-74167925D01*
X156372913Y-74132073D01*
X156250000Y-74119967D01*
X154750000Y-74119967D01*
X154627087Y-74132073D01*
X154508897Y-74167925D01*
X154399972Y-74226147D01*
X154377000Y-74244999D01*
X154377000Y-71180354D01*
X154435525Y-71474578D01*
X154558172Y-71770673D01*
X154736227Y-72037152D01*
X154962848Y-72263773D01*
X155229327Y-72441828D01*
X155525422Y-72564475D01*
X155839755Y-72627000D01*
X156160245Y-72627000D01*
X156474578Y-72564475D01*
X156770673Y-72441828D01*
X157037152Y-72263773D01*
X157263773Y-72037152D01*
X157441828Y-71770673D01*
X157564475Y-71474578D01*
X157627000Y-71160245D01*
X157627000Y-70839755D01*
X157564475Y-70525422D01*
X157441828Y-70229327D01*
X157263773Y-69962848D01*
X157037152Y-69736227D01*
X156770673Y-69558172D01*
X156474578Y-69435525D01*
X156160245Y-69373000D01*
X155839755Y-69373000D01*
X155650842Y-69410577D01*
X155589672Y-69349407D01*
X155589667Y-69349403D01*
X155377000Y-69136736D01*
X155377000Y-67317561D01*
X155535116Y-67391760D01*
X155799960Y-67457250D01*
X156072492Y-67469812D01*
X156342238Y-67428965D01*
X156598832Y-67336277D01*
X156711863Y-67275860D01*
X156777388Y-67036993D01*
X156000000Y-66259605D01*
X155985858Y-66273748D01*
X155806253Y-66094143D01*
X155820395Y-66080000D01*
X156179605Y-66080000D01*
X156956993Y-66857388D01*
X157195860Y-66791863D01*
X157311760Y-66544884D01*
X157377250Y-66280040D01*
X157389812Y-66007508D01*
X157348965Y-65737762D01*
X157256277Y-65481168D01*
X157195860Y-65368137D01*
X156956993Y-65302612D01*
X156179605Y-66080000D01*
X155820395Y-66080000D01*
X155806253Y-66065858D01*
X155985858Y-65886253D01*
X156000000Y-65900395D01*
X156777388Y-65123007D01*
X156711863Y-64884140D01*
X156543723Y-64805237D01*
X156652254Y-64760282D01*
X156877787Y-64609586D01*
X157069586Y-64417787D01*
X157070112Y-64417000D01*
X157176735Y-64417000D01*
X163410577Y-70650842D01*
X163373000Y-70839755D01*
X163373000Y-71160245D01*
X163435525Y-71474578D01*
X163558172Y-71770673D01*
X163736227Y-72037152D01*
X163962848Y-72263773D01*
X164229327Y-72441828D01*
X164525422Y-72564475D01*
X164839755Y-72627000D01*
X165160245Y-72627000D01*
X165474578Y-72564475D01*
X165770673Y-72441828D01*
X166037152Y-72263773D01*
X166263773Y-72037152D01*
X166441828Y-71770673D01*
X166564475Y-71474578D01*
X166627000Y-71160245D01*
X166627000Y-70839755D01*
X166564475Y-70525422D01*
X166441828Y-70229327D01*
X166263773Y-69962848D01*
X166037152Y-69736227D01*
X165770673Y-69558172D01*
X165474578Y-69435525D01*
X165160245Y-69373000D01*
X164839755Y-69373000D01*
X164650842Y-69410577D01*
X158190597Y-62950332D01*
X158163133Y-62916867D01*
X158029592Y-62807273D01*
X157877237Y-62725838D01*
X157711922Y-62675690D01*
X157583079Y-62663000D01*
X157540000Y-62658757D01*
X157496921Y-62663000D01*
X157070112Y-62663000D01*
X157069586Y-62662213D01*
X156877787Y-62470414D01*
X156742522Y-62380033D01*
X156750000Y-62380033D01*
X156872913Y-62367927D01*
X156991103Y-62332075D01*
X157100028Y-62273853D01*
X157195501Y-62195501D01*
X157273853Y-62100028D01*
X157332075Y-61991103D01*
X157366687Y-61877000D01*
X163136735Y-61877000D01*
X163369967Y-62110232D01*
X163369967Y-63100000D01*
X163386877Y-63271686D01*
X163436956Y-63436774D01*
X163518279Y-63588920D01*
X163627723Y-63722277D01*
X163761080Y-63831721D01*
X163872667Y-63891365D01*
X163800550Y-63950550D01*
X163615978Y-64175453D01*
X163478828Y-64432042D01*
X163394371Y-64710457D01*
X163365854Y-65000000D01*
X163394371Y-65289543D01*
X163478828Y-65567958D01*
X163615978Y-65824547D01*
X163800550Y-66049450D01*
X164025453Y-66234022D01*
X164282042Y-66371172D01*
X164560457Y-66455629D01*
X164777444Y-66477000D01*
X165222556Y-66477000D01*
X165439543Y-66455629D01*
X165717958Y-66371172D01*
X165974547Y-66234022D01*
X166199450Y-66049450D01*
X166384022Y-65824547D01*
X166521172Y-65567958D01*
X166605629Y-65289543D01*
X166634146Y-65000000D01*
X166605629Y-64710457D01*
X166521172Y-64432042D01*
X166384022Y-64175453D01*
X166199450Y-63950550D01*
X166127333Y-63891365D01*
X166238920Y-63831721D01*
X166372277Y-63722277D01*
X166481721Y-63588920D01*
X166563044Y-63436774D01*
X166613123Y-63271686D01*
X166630033Y-63100000D01*
X166630033Y-61900000D01*
X166613123Y-61728314D01*
X166563044Y-61563226D01*
X166481721Y-61411080D01*
X166372277Y-61277723D01*
X166238920Y-61168279D01*
X166086774Y-61086956D01*
X165921686Y-61036877D01*
X165750000Y-61019967D01*
X164760232Y-61019967D01*
X164150597Y-60410332D01*
X164123133Y-60376867D01*
X163989592Y-60267273D01*
X163837237Y-60185838D01*
X163671922Y-60135690D01*
X163543079Y-60123000D01*
X163500000Y-60118757D01*
X163456921Y-60123000D01*
X157366687Y-60123000D01*
X157332075Y-60008897D01*
X157273853Y-59899972D01*
X157195501Y-59804499D01*
X157100028Y-59726147D01*
X156991103Y-59667925D01*
X156872913Y-59632073D01*
X156750000Y-59619967D01*
X155250000Y-59619967D01*
X155127087Y-59632073D01*
X155008897Y-59667925D01*
X154899972Y-59726147D01*
X154804499Y-59804499D01*
X154726147Y-59899972D01*
X154682289Y-59982024D01*
X152036542Y-57336277D01*
X152053904Y-57160000D01*
X152026352Y-56880259D01*
X151944755Y-56611269D01*
X151812248Y-56363366D01*
X151633923Y-56146077D01*
X151416634Y-55967752D01*
X151271170Y-55890000D01*
X151416634Y-55812248D01*
X151633923Y-55633923D01*
X151746293Y-55497000D01*
X153756735Y-55497000D01*
X154410577Y-56150842D01*
X154373000Y-56339755D01*
X154373000Y-56660245D01*
X154435525Y-56974578D01*
X154558172Y-57270673D01*
X154736227Y-57537152D01*
X154962848Y-57763773D01*
X155229327Y-57941828D01*
X155525422Y-58064475D01*
X155839755Y-58127000D01*
X156160245Y-58127000D01*
X156474578Y-58064475D01*
X156770673Y-57941828D01*
X157037152Y-57763773D01*
X157263773Y-57537152D01*
X157441828Y-57270673D01*
X157564475Y-56974578D01*
X157627000Y-56660245D01*
X157627000Y-56339755D01*
X157564475Y-56025422D01*
X157441828Y-55729327D01*
X157263773Y-55462848D01*
X157037152Y-55236227D01*
X156770673Y-55058172D01*
X156474578Y-54935525D01*
X156160245Y-54873000D01*
X155839755Y-54873000D01*
X155650842Y-54910577D01*
X154770597Y-54030332D01*
X154743133Y-53996867D01*
X154609592Y-53887273D01*
X154457237Y-53805838D01*
X154291922Y-53755690D01*
X154163079Y-53743000D01*
X154120000Y-53738757D01*
X154076921Y-53743000D01*
X151746293Y-53743000D01*
X151633923Y-53606077D01*
X151416634Y-53427752D01*
X151271170Y-53350000D01*
X151416634Y-53272248D01*
X151633923Y-53093923D01*
X151812248Y-52876634D01*
X151944755Y-52628731D01*
X151972583Y-52536993D01*
X154722612Y-52536993D01*
X154788137Y-52775860D01*
X155035116Y-52891760D01*
X155299960Y-52957250D01*
X155572492Y-52969812D01*
X155842238Y-52928965D01*
X156098832Y-52836277D01*
X156211863Y-52775860D01*
X156277388Y-52536993D01*
X155500000Y-51759605D01*
X154722612Y-52536993D01*
X151972583Y-52536993D01*
X152026352Y-52359741D01*
X152053904Y-52080000D01*
X152026352Y-51800259D01*
X151981528Y-51652492D01*
X154110188Y-51652492D01*
X154151035Y-51922238D01*
X154243723Y-52178832D01*
X154304140Y-52291863D01*
X154543007Y-52357388D01*
X155320395Y-51580000D01*
X155679605Y-51580000D01*
X156456993Y-52357388D01*
X156695860Y-52291863D01*
X156811760Y-52044884D01*
X156877250Y-51780040D01*
X156889812Y-51507508D01*
X156848965Y-51237762D01*
X156756277Y-50981168D01*
X156695860Y-50868137D01*
X156456993Y-50802612D01*
X155679605Y-51580000D01*
X155320395Y-51580000D01*
X154543007Y-50802612D01*
X154304140Y-50868137D01*
X154188240Y-51115116D01*
X154122750Y-51379960D01*
X154110188Y-51652492D01*
X151981528Y-51652492D01*
X151944755Y-51531269D01*
X151812248Y-51283366D01*
X151633923Y-51066077D01*
X151416634Y-50887752D01*
X151271170Y-50810000D01*
X151416634Y-50732248D01*
X151633923Y-50553923D01*
X151812248Y-50336634D01*
X151944755Y-50088731D01*
X152026352Y-49819741D01*
X152053904Y-49540000D01*
X152026352Y-49260259D01*
X151944755Y-48991269D01*
X151812248Y-48743366D01*
X151633923Y-48526077D01*
X151416634Y-48347752D01*
X151271170Y-48270000D01*
X151416634Y-48192248D01*
X151633923Y-48013923D01*
X151812248Y-47796634D01*
X151944755Y-47548731D01*
X152026352Y-47279741D01*
X152053904Y-47000000D01*
X152026352Y-46720259D01*
X151944755Y-46451269D01*
X151812248Y-46203366D01*
X151633923Y-45986077D01*
X151416634Y-45807752D01*
X151308588Y-45750000D01*
X154119967Y-45750000D01*
X154119967Y-47250000D01*
X154132073Y-47372913D01*
X154167925Y-47491103D01*
X154226147Y-47600028D01*
X154304499Y-47695501D01*
X154399972Y-47773853D01*
X154508897Y-47832075D01*
X154627087Y-47867927D01*
X154750000Y-47880033D01*
X154757478Y-47880033D01*
X154622213Y-47970414D01*
X154430414Y-48162213D01*
X154279718Y-48387746D01*
X154175917Y-48638344D01*
X154123000Y-48904377D01*
X154123000Y-49175623D01*
X154175917Y-49441656D01*
X154279718Y-49692254D01*
X154430414Y-49917787D01*
X154622213Y-50109586D01*
X154847746Y-50260282D01*
X154954445Y-50304478D01*
X154901168Y-50323723D01*
X154788137Y-50384140D01*
X154722612Y-50623007D01*
X155500000Y-51400395D01*
X156277388Y-50623007D01*
X156211863Y-50384140D01*
X156043723Y-50305237D01*
X156152254Y-50260282D01*
X156377787Y-50109586D01*
X156569586Y-49917787D01*
X156570112Y-49917000D01*
X157176735Y-49917000D01*
X163410577Y-56150842D01*
X163373000Y-56339755D01*
X163373000Y-56660245D01*
X163435525Y-56974578D01*
X163558172Y-57270673D01*
X163736227Y-57537152D01*
X163962848Y-57763773D01*
X164229327Y-57941828D01*
X164525422Y-58064475D01*
X164839755Y-58127000D01*
X165160245Y-58127000D01*
X165474578Y-58064475D01*
X165770673Y-57941828D01*
X166037152Y-57763773D01*
X166263773Y-57537152D01*
X166441828Y-57270673D01*
X166564475Y-56974578D01*
X166627000Y-56660245D01*
X166627000Y-56339755D01*
X166564475Y-56025422D01*
X166441828Y-55729327D01*
X166263773Y-55462848D01*
X166037152Y-55236227D01*
X165770673Y-55058172D01*
X165474578Y-54935525D01*
X165160245Y-54873000D01*
X164839755Y-54873000D01*
X164650842Y-54910577D01*
X158190597Y-48450332D01*
X158163133Y-48416867D01*
X158029592Y-48307273D01*
X157877237Y-48225838D01*
X157711922Y-48175690D01*
X157583079Y-48163000D01*
X157540000Y-48158757D01*
X157496921Y-48163000D01*
X156570112Y-48163000D01*
X156569586Y-48162213D01*
X156377787Y-47970414D01*
X156242522Y-47880033D01*
X156250000Y-47880033D01*
X156372913Y-47867927D01*
X156491103Y-47832075D01*
X156600028Y-47773853D01*
X156695501Y-47695501D01*
X156773853Y-47600028D01*
X156832075Y-47491103D01*
X156866687Y-47377000D01*
X163136735Y-47377000D01*
X163369967Y-47610232D01*
X163369967Y-48600000D01*
X163386877Y-48771686D01*
X163436956Y-48936774D01*
X163518279Y-49088920D01*
X163627723Y-49222277D01*
X163761080Y-49331721D01*
X163872667Y-49391365D01*
X163800550Y-49450550D01*
X163615978Y-49675453D01*
X163478828Y-49932042D01*
X163394371Y-50210457D01*
X163365854Y-50500000D01*
X163394371Y-50789543D01*
X163478828Y-51067958D01*
X163615978Y-51324547D01*
X163800550Y-51549450D01*
X164025453Y-51734022D01*
X164282042Y-51871172D01*
X164560457Y-51955629D01*
X164777444Y-51977000D01*
X165222556Y-51977000D01*
X165439543Y-51955629D01*
X165717958Y-51871172D01*
X165974547Y-51734022D01*
X166199450Y-51549450D01*
X166384022Y-51324547D01*
X166521172Y-51067958D01*
X166605629Y-50789543D01*
X166634146Y-50500000D01*
X166605629Y-50210457D01*
X166521172Y-49932042D01*
X166384022Y-49675453D01*
X166199450Y-49450550D01*
X166127333Y-49391365D01*
X166238920Y-49331721D01*
X166372277Y-49222277D01*
X166481721Y-49088920D01*
X166563044Y-48936774D01*
X166613123Y-48771686D01*
X166630033Y-48600000D01*
X166630033Y-47400000D01*
X166613123Y-47228314D01*
X166563044Y-47063226D01*
X166481721Y-46911080D01*
X166372277Y-46777723D01*
X166238920Y-46668279D01*
X166086774Y-46586956D01*
X165921686Y-46536877D01*
X165750000Y-46519967D01*
X164760232Y-46519967D01*
X164150597Y-45910332D01*
X164123133Y-45876867D01*
X163989592Y-45767273D01*
X163837237Y-45685838D01*
X163671922Y-45635690D01*
X163543079Y-45623000D01*
X163500000Y-45618757D01*
X163456921Y-45623000D01*
X156866687Y-45623000D01*
X156832075Y-45508897D01*
X156773853Y-45399972D01*
X156695501Y-45304499D01*
X156600028Y-45226147D01*
X156491103Y-45167925D01*
X156372913Y-45132073D01*
X156250000Y-45119967D01*
X154750000Y-45119967D01*
X154627087Y-45132073D01*
X154508897Y-45167925D01*
X154399972Y-45226147D01*
X154304499Y-45304499D01*
X154226147Y-45399972D01*
X154167925Y-45508897D01*
X154132073Y-45627087D01*
X154119967Y-45750000D01*
X151308588Y-45750000D01*
X151182604Y-45682661D01*
X157277985Y-39587280D01*
X157500000Y-39609146D01*
X157789543Y-39580629D01*
X158067958Y-39496172D01*
X158324547Y-39359022D01*
X158549450Y-39174450D01*
X158734022Y-38949547D01*
X158871172Y-38692957D01*
X158955629Y-38414542D01*
X158977000Y-38197555D01*
X158977000Y-37802444D01*
X158955629Y-37585457D01*
X158871172Y-37307042D01*
X158734022Y-37050453D01*
X158549450Y-36825550D01*
X158324546Y-36640978D01*
X158067957Y-36503828D01*
X157789542Y-36419371D01*
X157500000Y-36390854D01*
X157210457Y-36419371D01*
X156932042Y-36503828D01*
X156675453Y-36640978D01*
X156450550Y-36825550D01*
X156265978Y-37050454D01*
X156250000Y-37080346D01*
X156234022Y-37050453D01*
X156049450Y-36825550D01*
X155824546Y-36640978D01*
X155567957Y-36503828D01*
X155289542Y-36419371D01*
X155000000Y-36390854D01*
X154710457Y-36419371D01*
X154432042Y-36503828D01*
X154175453Y-36640978D01*
X153950550Y-36825550D01*
X153765978Y-37050454D01*
X153750000Y-37080346D01*
X153734022Y-37050453D01*
X153549450Y-36825550D01*
X153324546Y-36640978D01*
X153067957Y-36503828D01*
X152789542Y-36419371D01*
X152500000Y-36390854D01*
X152210457Y-36419371D01*
X151932042Y-36503828D01*
X151675453Y-36640978D01*
X151450550Y-36825550D01*
X151391365Y-36897668D01*
X151331721Y-36786080D01*
X151222277Y-36652723D01*
X151088920Y-36543279D01*
X150936774Y-36461956D01*
X150771686Y-36411877D01*
X150600000Y-36394967D01*
X149400000Y-36394967D01*
X149228314Y-36411877D01*
X149063226Y-36461956D01*
X148911080Y-36543279D01*
X148777723Y-36652723D01*
X148668279Y-36786080D01*
X148586956Y-36938226D01*
X148536877Y-37103314D01*
X148519967Y-37275000D01*
X148519967Y-38725000D01*
X148536877Y-38896686D01*
X148586956Y-39061774D01*
X148668279Y-39213920D01*
X148777723Y-39347277D01*
X148911080Y-39456721D01*
X149063226Y-39538044D01*
X149228314Y-39588123D01*
X149400000Y-39605033D01*
X150600000Y-39605033D01*
X150771686Y-39588123D01*
X150936774Y-39538044D01*
X151088920Y-39456721D01*
X151222277Y-39347277D01*
X151331721Y-39213920D01*
X151391365Y-39102333D01*
X151450550Y-39174450D01*
X151675454Y-39359022D01*
X151932043Y-39496172D01*
X152210458Y-39580629D01*
X152295709Y-39589025D01*
X147410327Y-44474408D01*
X147376868Y-44501867D01*
X147267273Y-44635408D01*
X147185838Y-44787763D01*
X147135690Y-44953078D01*
X147118757Y-45125000D01*
X146377000Y-45125000D01*
X146377000Y-41518076D01*
X146381243Y-41474999D01*
X146377000Y-41431921D01*
X146364310Y-41303078D01*
X146314162Y-41137763D01*
X146232727Y-40985408D01*
X146123133Y-40851867D01*
X146089675Y-40824409D01*
X144489178Y-39223913D01*
X144549450Y-39174450D01*
X144734022Y-38949547D01*
X144871172Y-38692957D01*
X144955629Y-38414542D01*
X144977000Y-38197555D01*
X144977000Y-37802444D01*
X144955629Y-37585457D01*
X144871172Y-37307042D01*
X144734022Y-37050453D01*
X144549450Y-36825550D01*
X144324546Y-36640978D01*
X144067957Y-36503828D01*
X143789542Y-36419371D01*
X143500000Y-36390854D01*
X143210457Y-36419371D01*
X142932042Y-36503828D01*
X142675453Y-36640978D01*
X142450550Y-36825550D01*
X142265978Y-37050454D01*
X142250000Y-37080346D01*
X142234022Y-37050453D01*
X142049450Y-36825550D01*
X141824546Y-36640978D01*
X141567957Y-36503828D01*
X141289542Y-36419371D01*
X141000000Y-36390854D01*
X140710457Y-36419371D01*
X140432042Y-36503828D01*
X140175453Y-36640978D01*
X139950550Y-36825550D01*
X139765978Y-37050454D01*
X139750000Y-37080346D01*
X139734022Y-37050453D01*
X139549450Y-36825550D01*
X139324546Y-36640978D01*
X139067957Y-36503828D01*
X138789542Y-36419371D01*
X138500000Y-36390854D01*
X138210457Y-36419371D01*
X137932042Y-36503828D01*
X137675453Y-36640978D01*
X137450550Y-36825550D01*
X137391365Y-36897668D01*
X137331721Y-36786080D01*
X137222277Y-36652723D01*
X137088920Y-36543279D01*
X136936774Y-36461956D01*
X136771686Y-36411877D01*
X136600000Y-36394967D01*
X135400000Y-36394967D01*
X135228314Y-36411877D01*
X135063226Y-36461956D01*
X134911080Y-36543279D01*
X134777723Y-36652723D01*
X134668279Y-36786080D01*
X134586956Y-36938226D01*
X134536877Y-37103314D01*
X134519967Y-37275000D01*
X134519967Y-38725000D01*
X134536877Y-38896686D01*
X134586956Y-39061774D01*
X134668279Y-39213920D01*
X134777723Y-39347277D01*
X134911080Y-39456721D01*
X135063226Y-39538044D01*
X135228314Y-39588123D01*
X135400000Y-39605033D01*
X136600000Y-39605033D01*
X136771686Y-39588123D01*
X136936774Y-39538044D01*
X137088920Y-39456721D01*
X137222277Y-39347277D01*
X137331721Y-39213920D01*
X137391365Y-39102333D01*
X137450550Y-39174450D01*
X137675454Y-39359022D01*
X137932043Y-39496172D01*
X138210458Y-39580629D01*
X138500000Y-39609146D01*
X138789543Y-39580629D01*
X139067958Y-39496172D01*
X139324547Y-39359022D01*
X139549450Y-39174450D01*
X139734022Y-38949547D01*
X139750000Y-38919654D01*
X139765978Y-38949547D01*
X139950550Y-39174450D01*
X140123001Y-39315975D01*
X140123001Y-39431911D01*
X140118757Y-39475000D01*
X140135690Y-39646922D01*
X140185838Y-39812236D01*
X140267274Y-39964592D01*
X140349406Y-40064671D01*
X140349409Y-40064674D01*
X140376868Y-40098133D01*
X140410327Y-40125592D01*
X143623000Y-43338265D01*
X143623000Y-45569967D01*
X142200000Y-45569967D01*
X142077087Y-45582073D01*
X141958897Y-45617925D01*
X141849972Y-45676147D01*
X141754499Y-45754499D01*
X141676147Y-45849972D01*
X141617925Y-45958897D01*
X141597852Y-46025070D01*
X141514591Y-45824062D01*
X141358424Y-45590340D01*
X141159660Y-45391576D01*
X140925938Y-45235409D01*
X140666241Y-45127838D01*
X140390547Y-45073000D01*
X140109453Y-45073000D01*
X139833759Y-45127838D01*
X139574062Y-45235409D01*
X139340340Y-45391576D01*
X139141576Y-45590340D01*
X138985409Y-45824062D01*
X138877838Y-46083759D01*
X138823000Y-46359453D01*
X138823000Y-46640547D01*
X138877838Y-46916241D01*
X138985409Y-47175938D01*
X139141576Y-47409660D01*
X139340340Y-47608424D01*
X139574062Y-47764591D01*
X139833759Y-47872162D01*
X140109453Y-47927000D01*
X140390547Y-47927000D01*
X140666241Y-47872162D01*
X140925938Y-47764591D01*
X141159660Y-47608424D01*
X141358424Y-47409660D01*
X141514591Y-47175938D01*
X141569967Y-47042250D01*
X141569967Y-47800000D01*
X141582073Y-47922913D01*
X141617925Y-48041103D01*
X141676147Y-48150028D01*
X141754499Y-48245501D01*
X141849972Y-48323853D01*
X141941919Y-48373000D01*
X141750000Y-48373000D01*
X141725224Y-48375440D01*
X141701399Y-48382667D01*
X141679443Y-48394403D01*
X141660197Y-48410197D01*
X139981237Y-50089157D01*
X139899870Y-50101213D01*
X139633708Y-50196397D01*
X139508486Y-50263329D01*
X139436903Y-50507298D01*
X140250000Y-51320395D01*
X140264143Y-51306253D01*
X140443748Y-51485858D01*
X140429605Y-51500000D01*
X141242702Y-52313097D01*
X141486671Y-52241514D01*
X141547639Y-52112665D01*
X141560861Y-52105597D01*
X141568037Y-52099708D01*
X141593648Y-52359741D01*
X141675245Y-52628731D01*
X141807752Y-52876634D01*
X141986077Y-53093923D01*
X142203366Y-53272248D01*
X142348830Y-53350000D01*
X142203366Y-53427752D01*
X141986077Y-53606077D01*
X141873707Y-53743000D01*
X139423069Y-53743000D01*
X139379999Y-53738758D01*
X139336930Y-53743000D01*
X139336921Y-53743000D01*
X139208078Y-53755690D01*
X139042763Y-53805838D01*
X138890408Y-53887273D01*
X138756867Y-53996867D01*
X138729403Y-54030332D01*
X137849158Y-54910577D01*
X137660245Y-54873000D01*
X137339755Y-54873000D01*
X137025422Y-54935525D01*
X136729327Y-55058172D01*
X136462848Y-55236227D01*
X136236227Y-55462848D01*
X136058172Y-55729327D01*
X135935525Y-56025422D01*
X135873000Y-56339755D01*
X135873000Y-56660245D01*
X135935525Y-56974578D01*
X136058172Y-57270673D01*
X136236227Y-57537152D01*
X136462848Y-57763773D01*
X136729327Y-57941828D01*
X137025422Y-58064475D01*
X137339755Y-58127000D01*
X137660245Y-58127000D01*
X137974578Y-58064475D01*
X138270673Y-57941828D01*
X138537152Y-57763773D01*
X138763773Y-57537152D01*
X138941828Y-57270673D01*
X139064475Y-56974578D01*
X139127000Y-56660245D01*
X139127000Y-56339755D01*
X139089423Y-56150842D01*
X139743265Y-55497000D01*
X141873707Y-55497000D01*
X141986077Y-55633923D01*
X142203366Y-55812248D01*
X142348830Y-55890000D01*
X142203366Y-55967752D01*
X141986077Y-56146077D01*
X141807752Y-56363366D01*
X141675245Y-56611269D01*
X141593648Y-56880259D01*
X141566096Y-57160000D01*
X141583458Y-57336277D01*
X138850406Y-60069329D01*
X138832075Y-60008897D01*
X138773853Y-59899972D01*
X138695501Y-59804499D01*
X138600028Y-59726147D01*
X138491103Y-59667925D01*
X138372913Y-59632073D01*
X138250000Y-59619967D01*
X136750000Y-59619967D01*
X136627087Y-59632073D01*
X136508897Y-59667925D01*
X136399972Y-59726147D01*
X136304499Y-59804499D01*
X136226147Y-59899972D01*
X136167925Y-60008897D01*
X136133313Y-60123000D01*
X132543069Y-60123000D01*
X132499999Y-60118758D01*
X132456930Y-60123000D01*
X132456921Y-60123000D01*
X132328078Y-60135690D01*
X132162763Y-60185838D01*
X132010408Y-60267273D01*
X131876867Y-60376867D01*
X131849403Y-60410332D01*
X130092514Y-62167221D01*
X130021172Y-61932042D01*
X129884022Y-61675453D01*
X129699450Y-61450550D01*
X129474547Y-61265978D01*
X129217958Y-61128828D01*
X128939543Y-61044371D01*
X128722556Y-61023000D01*
X128277444Y-61023000D01*
X128060457Y-61044371D01*
X127782042Y-61128828D01*
X127525453Y-61265978D01*
X127300550Y-61450550D01*
X127115978Y-61675453D01*
X126978828Y-61932042D01*
X126894371Y-62210457D01*
X126865854Y-62500000D01*
X124652000Y-62500000D01*
X124652000Y-48000000D01*
X126865854Y-48000000D01*
X126894371Y-48289543D01*
X126978828Y-48567958D01*
X127115978Y-48824547D01*
X127300550Y-49049450D01*
X127372667Y-49108635D01*
X127261080Y-49168279D01*
X127127723Y-49277723D01*
X127018279Y-49411080D01*
X126936956Y-49563226D01*
X126886877Y-49728314D01*
X126869967Y-49900000D01*
X126869967Y-51100000D01*
X126886877Y-51271686D01*
X126936956Y-51436774D01*
X127018279Y-51588920D01*
X127127723Y-51722277D01*
X127261080Y-51831721D01*
X127413226Y-51913044D01*
X127578314Y-51963123D01*
X127750000Y-51980033D01*
X129250000Y-51980033D01*
X129421686Y-51963123D01*
X129586774Y-51913044D01*
X129738920Y-51831721D01*
X129872277Y-51722277D01*
X129981721Y-51588920D01*
X130063044Y-51436774D01*
X130113123Y-51271686D01*
X130130033Y-51100000D01*
X130130033Y-50110232D01*
X132863265Y-47377000D01*
X134383313Y-47377000D01*
X134417925Y-47491103D01*
X134476147Y-47600028D01*
X134554499Y-47695501D01*
X134649972Y-47773853D01*
X134758897Y-47832075D01*
X134877087Y-47867927D01*
X135000000Y-47880033D01*
X135007478Y-47880033D01*
X134872213Y-47970414D01*
X134680414Y-48162213D01*
X134529718Y-48387746D01*
X134425917Y-48638344D01*
X134373000Y-48904377D01*
X134373000Y-49175623D01*
X134408026Y-49351709D01*
X128849158Y-54910577D01*
X128660245Y-54873000D01*
X128339755Y-54873000D01*
X128025422Y-54935525D01*
X127729327Y-55058172D01*
X127462848Y-55236227D01*
X127236227Y-55462848D01*
X127058172Y-55729327D01*
X126935525Y-56025422D01*
X126873000Y-56339755D01*
X126873000Y-56660245D01*
X126935525Y-56974578D01*
X127058172Y-57270673D01*
X127236227Y-57537152D01*
X127462848Y-57763773D01*
X127729327Y-57941828D01*
X128025422Y-58064475D01*
X128339755Y-58127000D01*
X128660245Y-58127000D01*
X128974578Y-58064475D01*
X129270673Y-57941828D01*
X129537152Y-57763773D01*
X129763773Y-57537152D01*
X129941828Y-57270673D01*
X130064475Y-56974578D01*
X130127000Y-56660245D01*
X130127000Y-56339755D01*
X130089423Y-56150842D01*
X133703272Y-52536993D01*
X134972612Y-52536993D01*
X135038137Y-52775860D01*
X135285116Y-52891760D01*
X135549960Y-52957250D01*
X135822492Y-52969812D01*
X136092238Y-52928965D01*
X136348832Y-52836277D01*
X136461863Y-52775860D01*
X136527388Y-52536993D01*
X136483097Y-52492702D01*
X139436903Y-52492702D01*
X139508486Y-52736671D01*
X139763996Y-52857571D01*
X140038184Y-52926300D01*
X140320512Y-52940217D01*
X140600130Y-52898787D01*
X140866292Y-52803603D01*
X140991514Y-52736671D01*
X141063097Y-52492702D01*
X140250000Y-51679605D01*
X139436903Y-52492702D01*
X136483097Y-52492702D01*
X135750000Y-51759605D01*
X134972612Y-52536993D01*
X133703272Y-52536993D01*
X134390118Y-51850147D01*
X134401035Y-51922238D01*
X134493723Y-52178832D01*
X134554140Y-52291863D01*
X134793007Y-52357388D01*
X135570395Y-51580000D01*
X135929605Y-51580000D01*
X136706993Y-52357388D01*
X136945860Y-52291863D01*
X137061760Y-52044884D01*
X137127250Y-51780040D01*
X137136907Y-51570512D01*
X138809783Y-51570512D01*
X138851213Y-51850130D01*
X138946397Y-52116292D01*
X139013329Y-52241514D01*
X139257298Y-52313097D01*
X140070395Y-51500000D01*
X139257298Y-50686903D01*
X139013329Y-50758486D01*
X138892429Y-51013996D01*
X138823700Y-51288184D01*
X138809783Y-51570512D01*
X137136907Y-51570512D01*
X137139812Y-51507508D01*
X137098965Y-51237762D01*
X137006277Y-50981168D01*
X136945860Y-50868137D01*
X136706993Y-50802612D01*
X135929605Y-51580000D01*
X135570395Y-51580000D01*
X135556253Y-51565858D01*
X135735858Y-51386253D01*
X135750000Y-51400395D01*
X136527388Y-50623007D01*
X136461863Y-50384140D01*
X136293723Y-50305237D01*
X136402254Y-50260282D01*
X136627787Y-50109586D01*
X136819586Y-49917787D01*
X136970282Y-49692254D01*
X137074083Y-49441656D01*
X137127000Y-49175623D01*
X137127000Y-48904377D01*
X137074083Y-48638344D01*
X136970282Y-48387746D01*
X136819586Y-48162213D01*
X136627787Y-47970414D01*
X136492522Y-47880033D01*
X136500000Y-47880033D01*
X136622913Y-47867927D01*
X136741103Y-47832075D01*
X136850028Y-47773853D01*
X136945501Y-47695501D01*
X137023853Y-47600028D01*
X137082075Y-47491103D01*
X137117927Y-47372913D01*
X137130033Y-47250000D01*
X137130033Y-45750000D01*
X137117927Y-45627087D01*
X137082075Y-45508897D01*
X137023853Y-45399972D01*
X136945501Y-45304499D01*
X136850028Y-45226147D01*
X136741103Y-45167925D01*
X136622913Y-45132073D01*
X136500000Y-45119967D01*
X135000000Y-45119967D01*
X134877087Y-45132073D01*
X134758897Y-45167925D01*
X134649972Y-45226147D01*
X134554499Y-45304499D01*
X134476147Y-45399972D01*
X134417925Y-45508897D01*
X134383313Y-45623000D01*
X132543069Y-45623000D01*
X132499999Y-45618758D01*
X132456930Y-45623000D01*
X132456921Y-45623000D01*
X132328078Y-45635690D01*
X132162763Y-45685838D01*
X132010408Y-45767273D01*
X131876867Y-45876867D01*
X131849403Y-45910332D01*
X130092514Y-47667221D01*
X130021172Y-47432042D01*
X129884022Y-47175453D01*
X129699450Y-46950550D01*
X129474547Y-46765978D01*
X129217958Y-46628828D01*
X128939543Y-46544371D01*
X128722556Y-46523000D01*
X128277444Y-46523000D01*
X128060457Y-46544371D01*
X127782042Y-46628828D01*
X127525453Y-46765978D01*
X127300550Y-46950550D01*
X127115978Y-47175453D01*
X126978828Y-47432042D01*
X126894371Y-47710457D01*
X126865854Y-48000000D01*
X124652000Y-48000000D01*
X124652000Y-40627000D01*
X131000000Y-40627000D01*
X131024776Y-40624560D01*
X131048601Y-40617333D01*
X131070557Y-40605597D01*
X131089803Y-40589803D01*
X131105597Y-40570557D01*
X131117333Y-40548601D01*
X131124560Y-40524776D01*
X131127000Y-40500000D01*
X131127000Y-34152000D01*
X162373000Y-34152000D01*
X162373000Y-40500000D01*
M02*
