M48
; DRILL file {KiCad (5.1.10)-1} date 10/09/21 13:28:53
; FORMAT={-:-/ absolute / metric / decimal}
; #@! TF.CreationDate,2021-10-09T13:28:53+01:00
; #@! TF.GenerationSoftware,Kicad,Pcbnew,(5.1.10)-1
; #@! TF.FileFunction,Plated,1,2,PTH
FMAT,2
METRIC
T1C0.800
T2C0.950
T3C1.000
%
G90
G05
T1
X135.64Y-46.5
X135.64Y-54.12
X138.18Y-46.5
X138.18Y-54.12
X140.72Y-46.5
X140.72Y-54.12
X143.26Y-46.5
X143.26Y-54.12
X145.8Y-46.5
X145.8Y-54.12
X148.34Y-46.5
X148.34Y-54.12
X150.88Y-46.5
X150.88Y-54.12
X153.42Y-46.5
X153.42Y-54.12
X155.96Y-46.5
X155.96Y-54.12
X158.5Y-46.5
X158.5Y-54.12
X161.0Y-43.5
X166.0Y-43.5
T2
X136.0Y-38.0
X138.5Y-38.0
X141.0Y-38.0
X143.5Y-38.0
X150.0Y-38.0
X152.5Y-38.0
X155.0Y-38.0
X157.5Y-38.0
T3
X128.5Y-60.5
X128.5Y-68.5
X131.0Y-60.5
X131.0Y-68.5
X139.5Y-60.5
X139.5Y-68.5
X139.5Y-77.5
X142.0Y-60.5
X142.0Y-68.5
X142.0Y-77.5
X150.5Y-60.5
X150.5Y-68.5
X150.5Y-77.5
X153.0Y-60.5
X153.0Y-68.5
X153.0Y-77.5
X161.5Y-60.5
X161.5Y-68.5
X164.0Y-60.5
X164.0Y-68.5
T0
M30
