G04 #@! TF.GenerationSoftware,KiCad,Pcbnew,(5.1.10)-1*
G04 #@! TF.CreationDate,2021-10-09T13:30:43+01:00*
G04 #@! TF.ProjectId,8_switch_array,385f7377-6974-4636-985f-61727261792e,rev?*
G04 #@! TF.SameCoordinates,Original*
G04 #@! TF.FileFunction,Soldermask,Bot*
G04 #@! TF.FilePolarity,Negative*
%FSLAX46Y46*%
G04 Gerber Fmt 4.6, Leading zero omitted, Abs format (unit mm)*
G04 Created by KiCad (PCBNEW (5.1.10)-1) date 2021-10-09 13:30:43*
%MOMM*%
%LPD*%
G01*
G04 APERTURE LIST*
%ADD10O,1.600000X1.600000*%
%ADD11R,1.600000X1.600000*%
%ADD12O,1.700000X2.000000*%
%ADD13C,1.600000*%
%ADD14C,3.200000*%
%ADD15O,1.700000X1.950000*%
G04 APERTURE END LIST*
D10*
X158500000Y-54120000D03*
X135640000Y-46500000D03*
X155960000Y-54120000D03*
X138180000Y-46500000D03*
X153420000Y-54120000D03*
X140720000Y-46500000D03*
X150880000Y-54120000D03*
X143260000Y-46500000D03*
X148340000Y-54120000D03*
X145800000Y-46500000D03*
X145800000Y-54120000D03*
X148340000Y-46500000D03*
X143260000Y-54120000D03*
X150880000Y-46500000D03*
X140720000Y-54120000D03*
X153420000Y-46500000D03*
X138180000Y-54120000D03*
X155960000Y-46500000D03*
X135640000Y-54120000D03*
D11*
X158500000Y-46500000D03*
D12*
X150500000Y-77500000D03*
G36*
G01*
X153850000Y-76750000D02*
X153850000Y-78250000D01*
G75*
G02*
X153600000Y-78500000I-250000J0D01*
G01*
X152400000Y-78500000D01*
G75*
G02*
X152150000Y-78250000I0J250000D01*
G01*
X152150000Y-76750000D01*
G75*
G02*
X152400000Y-76500000I250000J0D01*
G01*
X153600000Y-76500000D01*
G75*
G02*
X153850000Y-76750000I0J-250000D01*
G01*
G37*
D13*
X166000000Y-43500000D03*
X161000000Y-43500000D03*
D12*
X161500000Y-68500000D03*
G36*
G01*
X164850000Y-67750000D02*
X164850000Y-69250000D01*
G75*
G02*
X164600000Y-69500000I-250000J0D01*
G01*
X163400000Y-69500000D01*
G75*
G02*
X163150000Y-69250000I0J250000D01*
G01*
X163150000Y-67750000D01*
G75*
G02*
X163400000Y-67500000I250000J0D01*
G01*
X164600000Y-67500000D01*
G75*
G02*
X164850000Y-67750000I0J-250000D01*
G01*
G37*
X150500000Y-68500000D03*
G36*
G01*
X153850000Y-67750000D02*
X153850000Y-69250000D01*
G75*
G02*
X153600000Y-69500000I-250000J0D01*
G01*
X152400000Y-69500000D01*
G75*
G02*
X152150000Y-69250000I0J250000D01*
G01*
X152150000Y-67750000D01*
G75*
G02*
X152400000Y-67500000I250000J0D01*
G01*
X153600000Y-67500000D01*
G75*
G02*
X153850000Y-67750000I0J-250000D01*
G01*
G37*
X161500000Y-60500000D03*
G36*
G01*
X164850000Y-59750000D02*
X164850000Y-61250000D01*
G75*
G02*
X164600000Y-61500000I-250000J0D01*
G01*
X163400000Y-61500000D01*
G75*
G02*
X163150000Y-61250000I0J250000D01*
G01*
X163150000Y-59750000D01*
G75*
G02*
X163400000Y-59500000I250000J0D01*
G01*
X164600000Y-59500000D01*
G75*
G02*
X164850000Y-59750000I0J-250000D01*
G01*
G37*
X150500000Y-60500000D03*
G36*
G01*
X153850000Y-59750000D02*
X153850000Y-61250000D01*
G75*
G02*
X153600000Y-61500000I-250000J0D01*
G01*
X152400000Y-61500000D01*
G75*
G02*
X152150000Y-61250000I0J250000D01*
G01*
X152150000Y-59750000D01*
G75*
G02*
X152400000Y-59500000I250000J0D01*
G01*
X153600000Y-59500000D01*
G75*
G02*
X153850000Y-59750000I0J-250000D01*
G01*
G37*
D14*
X166000000Y-37000000D03*
X166000000Y-78500000D03*
X127500000Y-78500000D03*
X127500000Y-37000000D03*
D12*
X139500000Y-77500000D03*
G36*
G01*
X142850000Y-76750000D02*
X142850000Y-78250000D01*
G75*
G02*
X142600000Y-78500000I-250000J0D01*
G01*
X141400000Y-78500000D01*
G75*
G02*
X141150000Y-78250000I0J250000D01*
G01*
X141150000Y-76750000D01*
G75*
G02*
X141400000Y-76500000I250000J0D01*
G01*
X142600000Y-76500000D01*
G75*
G02*
X142850000Y-76750000I0J-250000D01*
G01*
G37*
X139500000Y-60500000D03*
G36*
G01*
X142850000Y-59750000D02*
X142850000Y-61250000D01*
G75*
G02*
X142600000Y-61500000I-250000J0D01*
G01*
X141400000Y-61500000D01*
G75*
G02*
X141150000Y-61250000I0J250000D01*
G01*
X141150000Y-59750000D01*
G75*
G02*
X141400000Y-59500000I250000J0D01*
G01*
X142600000Y-59500000D01*
G75*
G02*
X142850000Y-59750000I0J-250000D01*
G01*
G37*
X128500000Y-68500000D03*
G36*
G01*
X131850000Y-67750000D02*
X131850000Y-69250000D01*
G75*
G02*
X131600000Y-69500000I-250000J0D01*
G01*
X130400000Y-69500000D01*
G75*
G02*
X130150000Y-69250000I0J250000D01*
G01*
X130150000Y-67750000D01*
G75*
G02*
X130400000Y-67500000I250000J0D01*
G01*
X131600000Y-67500000D01*
G75*
G02*
X131850000Y-67750000I0J-250000D01*
G01*
G37*
X128500000Y-60500000D03*
G36*
G01*
X131850000Y-59750000D02*
X131850000Y-61250000D01*
G75*
G02*
X131600000Y-61500000I-250000J0D01*
G01*
X130400000Y-61500000D01*
G75*
G02*
X130150000Y-61250000I0J250000D01*
G01*
X130150000Y-59750000D01*
G75*
G02*
X130400000Y-59500000I250000J0D01*
G01*
X131600000Y-59500000D01*
G75*
G02*
X131850000Y-59750000I0J-250000D01*
G01*
G37*
X139500000Y-68500000D03*
G36*
G01*
X142850000Y-67750000D02*
X142850000Y-69250000D01*
G75*
G02*
X142600000Y-69500000I-250000J0D01*
G01*
X141400000Y-69500000D01*
G75*
G02*
X141150000Y-69250000I0J250000D01*
G01*
X141150000Y-67750000D01*
G75*
G02*
X141400000Y-67500000I250000J0D01*
G01*
X142600000Y-67500000D01*
G75*
G02*
X142850000Y-67750000I0J-250000D01*
G01*
G37*
D15*
X157500000Y-38000000D03*
X155000000Y-38000000D03*
X152500000Y-38000000D03*
G36*
G01*
X149150000Y-38725000D02*
X149150000Y-37275000D01*
G75*
G02*
X149400000Y-37025000I250000J0D01*
G01*
X150600000Y-37025000D01*
G75*
G02*
X150850000Y-37275000I0J-250000D01*
G01*
X150850000Y-38725000D01*
G75*
G02*
X150600000Y-38975000I-250000J0D01*
G01*
X149400000Y-38975000D01*
G75*
G02*
X149150000Y-38725000I0J250000D01*
G01*
G37*
X143500000Y-38000000D03*
X141000000Y-38000000D03*
X138500000Y-38000000D03*
G36*
G01*
X135150000Y-38725000D02*
X135150000Y-37275000D01*
G75*
G02*
X135400000Y-37025000I250000J0D01*
G01*
X136600000Y-37025000D01*
G75*
G02*
X136850000Y-37275000I0J-250000D01*
G01*
X136850000Y-38725000D01*
G75*
G02*
X136600000Y-38975000I-250000J0D01*
G01*
X135400000Y-38975000D01*
G75*
G02*
X135150000Y-38725000I0J250000D01*
G01*
G37*
M02*
