<?xml version="1.0" encoding="iso-8859-1"?>
<!-- Generator: Adobe Illustrator 19.0.0, SVG Export Plug-In . SVG Version: 6.00 Build 0)  -->
<svg version="1.1" id="Layer_1" xmlns="http://www.w3.org/2000/svg" xmlns:xlink="http://www.w3.org/1999/xlink" x="0px" y="0px"
	 viewBox="0 0 505 505" style="enable-background:new 0 0 505 505;" xml:space="preserve">
<circle style="fill:#54C0EB;" cx="252.5" cy="252.5" r="252.5"/>
<g>
	<path style="fill:#FFFFFF;" d="M388.7,159.8h-18.2c-2.5,0-4.5-2.2-4.3-4.7l3.7-40.6c0.2-2.2,2.1-3.9,4.3-3.9h10.9
		c2.2,0,4.1,1.7,4.3,3.9l3.7,40.6C393.2,157.6,391.2,159.8,388.7,159.8z"/>
	<path style="fill:#FFFFFF;" d="M325.1,159.8h-18.2c-2.5,0-4.5-2.2-4.3-4.7l3.7-40.6c0.2-2.2,2.1-3.9,4.3-3.9h10.9
		c2.2,0,4.1,1.7,4.3,3.9l3.7,40.6C329.6,157.6,327.7,159.8,325.1,159.8z"/>
	<path style="fill:#FFFFFF;" d="M261.6,159.8h-18.2c-2.5,0-4.5-2.2-4.3-4.7l3.7-40.6c0.2-2.2,2.1-3.9,4.3-3.9H258
		c2.2,0,4.1,1.7,4.3,3.9l3.7,40.6C266.1,157.6,264.1,159.8,261.6,159.8z"/>
	<path style="fill:#FFFFFF;" d="M198.1,159.8h-18.2c-2.5,0-4.5-2.2-4.3-4.7l3.7-40.6c0.2-2.2,2.1-3.9,4.3-3.9h10.9
		c2.2,0,4.1,1.7,4.3,3.9l3.7,40.6C202.6,157.6,200.6,159.8,198.1,159.8z"/>
	<path style="fill:#FFFFFF;" d="M134.5,159.8h-18.2c-2.5,0-4.5-2.2-4.3-4.7l3.7-40.6c0.2-2.2,2.1-3.9,4.3-3.9h10.9
		c2.2,0,4.1,1.7,4.3,3.9l3.7,40.6C139,157.6,137,159.8,134.5,159.8z"/>
	<path style="fill:#FFFFFF;" d="M388.7,345.2h-18.2c-2.5,0-4.5,2.2-4.3,4.7l3.7,40.6c0.2,2.2,2.1,3.9,4.3,3.9h10.9
		c2.2,0,4.1-1.7,4.3-3.9l3.7-40.6C393.2,347.4,391.2,345.2,388.7,345.2z"/>
	<path style="fill:#FFFFFF;" d="M325.1,345.2h-18.2c-2.5,0-4.5,2.2-4.3,4.7l3.7,40.6c0.2,2.2,2.1,3.9,4.3,3.9h10.9
		c2.2,0,4.1-1.7,4.3-3.9l3.7-40.6C329.6,347.4,327.7,345.2,325.1,345.2z"/>
	<path style="fill:#FFFFFF;" d="M261.6,345.2h-18.2c-2.5,0-4.5,2.2-4.3,4.7l3.7,40.6c0.2,2.2,2.1,3.9,4.3,3.9H258
		c2.2,0,4.1-1.7,4.3-3.9l3.7-40.6C266.1,347.4,264.1,345.2,261.6,345.2z"/>
	<path style="fill:#FFFFFF;" d="M198.1,345.2h-18.2c-2.5,0-4.5,2.2-4.3,4.7l3.7,40.6c0.2,2.2,2.1,3.9,4.3,3.9h10.9
		c2.2,0,4.1-1.7,4.3-3.9l3.7-40.6C202.6,347.4,200.6,345.2,198.1,345.2z"/>
	<path style="fill:#FFFFFF;" d="M134.5,345.2h-18.2c-2.5,0-4.5,2.2-4.3,4.7l3.7,40.6c0.2,2.2,2.1,3.9,4.3,3.9h10.9
		c2.2,0,4.1-1.7,4.3-3.9l3.7-40.6C139,347.4,137,345.2,134.5,345.2z"/>
</g>
<path style="fill:#324A5E;" d="M427.9,355.3H77.1c-1.5,0-2.8-1.2-2.8-2.8V152.4c0-1.5,1.2-2.8,2.8-2.8h350.7c1.5,0,2.8,1.2,2.8,2.8
	v200.1C430.6,354.1,429.4,355.3,427.9,355.3z"/>
<g>
	<path style="fill:#ACB3BA;" d="M204.7,283.1h14.4v35.6h-7.6v-28.8h-6.8V283.1z"/>
	<path style="fill:#ACB3BA;" d="M241.7,289.1c-2.2,0-3.9,0.7-5.1,2.2c-1.2,1.5-1.9,3.5-2.2,6c2.2-1.4,4.5-2.1,7-2.1
		c3.3,0,6.1,1.1,8.3,3.3c2.2,2.2,3.3,5.1,3.3,8.7s-1.2,6.5-3.6,8.7c-2.4,2.2-5.4,3.3-9,3.3c-2.5,0-4.7-0.5-6.5-1.5
		c-1.9-1-3.3-2.3-4.3-4c-2-3.4-3.1-7.6-3.1-12.6c0-3.3,0.4-6.1,1.2-8.6s1.9-4.4,3.3-5.8c2.7-2.9,6.1-4.3,10.1-4.3
		c1.7,0,3.3,0.2,4.8,0.7s2.7,1,3.5,1.5s1.7,1.2,2.7,1.9l-3.8,5.6c-0.2-0.2-0.5-0.5-0.9-0.8s-1.2-0.8-2.3-1.3
		C243.9,289.3,242.8,289.1,241.7,289.1z M240.6,301.9c-1.6,0-2.9,0.5-4,1.4s-1.6,2.1-1.6,3.6s0.5,2.8,1.5,3.8s2.3,1.6,3.8,1.6
		s2.8-0.5,3.8-1.4s1.5-2.2,1.5-3.7s-0.5-2.8-1.4-3.8C243.5,302.4,242.2,301.9,240.6,301.9z"/>
	<path style="fill:#ACB3BA;" d="M281.5,283.1v6.9h-14.1v6c1.1-0.3,2.3-0.5,3.6-0.5c3.4,0,6.4,1,8.9,3.1s3.7,4.9,3.7,8.4
		s-1.3,6.4-3.8,8.7c-2.6,2.3-5.7,3.4-9.5,3.4c-4.8,0-8.8-1.8-12.1-5.3l4.2-5.8c0.3,0.3,0.7,0.7,1.2,1.1s1.4,1,2.8,1.8
		c1.4,0.7,2.7,1.1,4.1,1.1s2.6-0.4,3.6-1.2c1.1-0.8,1.6-2,1.6-3.6s-0.6-2.8-1.7-3.7c-1.1-0.9-2.6-1.3-4.4-1.3s-3.9,0.6-6.3,1.9
		l-3.3-3.6v-17.4H281.5z"/>
	<path style="fill:#ACB3BA;" d="M287.7,283.1h14.4v35.6h-7.6v-28.8h-6.8V283.1z"/>
	<path style="fill:#ACB3BA;" d="M324.6,289.1c-2.2,0-3.9,0.7-5.1,2.2s-1.9,3.5-2.2,6c2.2-1.4,4.5-2.1,7-2.1c3.3,0,6.1,1.1,8.3,3.3
		c2.2,2.2,3.3,5.1,3.3,8.7s-1.2,6.5-3.6,8.7s-5.4,3.3-9,3.3c-2.5,0-4.7-0.5-6.5-1.5c-1.9-1-3.3-2.3-4.3-4c-2-3.4-3.1-7.6-3.1-12.6
		c0-3.3,0.4-6.1,1.2-8.6c0.8-2.5,1.9-4.4,3.3-5.8c2.7-2.9,6.1-4.3,10.1-4.3c1.7,0,3.3,0.2,4.8,0.7s2.7,1,3.5,1.5s1.7,1.2,2.7,1.9
		l-3.8,5.6c-0.2-0.2-0.5-0.5-0.9-0.8s-1.2-0.8-2.3-1.3C326.8,289.3,325.7,289.1,324.6,289.1z M323.6,301.9c-1.6,0-2.9,0.5-4,1.4
		s-1.6,2.1-1.6,3.6s0.5,2.8,1.5,3.8s2.3,1.6,3.8,1.6s2.8-0.5,3.8-1.4s1.5-2.2,1.5-3.7s-0.5-2.8-1.4-3.8
		C326.4,302.4,325.2,301.9,323.6,301.9z"/>
	<path style="fill:#ACB3BA;" d="M364.4,283.1v6.9h-14.1v6c1.1-0.3,2.3-0.5,3.6-0.5c3.4,0,6.4,1,8.9,3.1s3.7,4.9,3.7,8.4
		s-1.3,6.4-3.8,8.7c-2.6,2.3-5.7,3.4-9.5,3.4c-4.8,0-8.8-1.8-12.1-5.3l4.2-5.8c0.3,0.3,0.7,0.7,1.2,1.1s1.4,1,2.8,1.8
		c1.4,0.7,2.7,1.1,4.1,1.1s2.6-0.4,3.6-1.2c1.1-0.8,1.6-2,1.6-3.6s-0.6-2.8-1.7-3.7c-1.1-0.9-2.6-1.3-4.4-1.3s-3.9,0.6-6.3,1.9
		l-3.3-3.6v-17.4H364.4z"/>
	<path style="fill:#ACB3BA;" d="M370.6,283.1H385v35.6h-7.6v-28.8h-6.8V283.1z"/>
</g>
<g>
</g>
<g>
</g>
<g>
</g>
<g>
</g>
<g>
</g>
<g>
</g>
<g>
</g>
<g>
</g>
<g>
</g>
<g>
</g>
<g>
</g>
<g>
</g>
<g>
</g>
<g>
</g>
<g>
</g>
</svg>
