<?xml version="1.0" encoding="iso-8859-1"?>
<!-- Generator: Adobe Illustrator 19.0.0, SVG Export Plug-In . SVG Version: 6.00 Build 0)  -->
<svg version="1.1" id="Layer_1" xmlns="http://www.w3.org/2000/svg" xmlns:xlink="http://www.w3.org/1999/xlink" x="0px" y="0px"
	 viewBox="0 0 512 512" style="enable-background:new 0 0 512 512;" xml:space="preserve">
<path style="fill:#C9E3F7;" d="M331.294,332.844V75.294C331.294,33.711,297.583,0,256,0s-75.294,33.711-75.294,75.294v257.55
	c-18.622,19.012-30.118,45.029-30.118,73.745C150.588,464.806,197.783,512,256,512s105.412-47.194,105.412-105.412
	C361.412,377.874,349.916,351.855,331.294,332.844z"/>
<path style="fill:#FFFFFF;" d="M225.882,120.471V75.294c0-16.607,13.511-30.118,30.118-30.118s30.118,13.511,30.118,30.118v45.176
	L256,150.588L225.882,120.471z"/>
<g>
	<rect x="180.706" y="240.941" style="fill:#AED5F3;" width="60.235" height="30.118"/>
	<rect x="180.706" y="180.706" style="fill:#AED5F3;" width="60.235" height="30.118"/>
	<rect x="180.706" y="120.471" style="fill:#AED5F3;" width="60.235" height="30.118"/>
</g>
<g>
	<rect x="286.118" y="240.941" style="fill:#78B9EB;" width="45.176" height="30.118"/>
	<rect x="286.118" y="180.706" style="fill:#78B9EB;" width="45.176" height="30.118"/>
	<rect x="286.118" y="120.471" style="fill:#78B9EB;" width="45.176" height="30.118"/>
</g>
<path style="fill:#D80027;" d="M274.574,120.471h-48.691v233.96c-18,10.416-30.118,29.866-30.118,52.158
	c0,33.268,26.967,60.235,60.235,60.235c6.486,0,12.722-1.044,18.574-2.943V120.471z"/>
<path style="fill:#A2001D;" d="M286.118,354.431v-233.96H256c0,0,0,317.741,0,346.353c33.268,0,60.235-26.967,60.235-60.235
	C316.235,384.297,304.117,364.847,286.118,354.431z"/>
<g>
</g>
<g>
</g>
<g>
</g>
<g>
</g>
<g>
</g>
<g>
</g>
<g>
</g>
<g>
</g>
<g>
</g>
<g>
</g>
<g>
</g>
<g>
</g>
<g>
</g>
<g>
</g>
<g>
</g>
</svg>
