%TF.GenerationSoftware,KiCad,Pcbnew,(5.1.7)-1*%
%TF.CreationDate,2021-06-02T10:40:56+01:00*%
%TF.ProjectId,12_24_boost_converter,31325f32-345f-4626-9f6f-73745f636f6e,rev?*%
%TF.SameCoordinates,Original*%
%TF.FileFunction,Legend,Top*%
%TF.FilePolarity,Positive*%
%FSLAX46Y46*%
G04 Gerber Fmt 4.6, Leading zero omitted, Abs format (unit mm)*
G04 Created by KiCad (PCBNEW (5.1.7)-1) date 2021-06-02 10:40:56*
%MOMM*%
%LPD*%
G01*
G04 APERTURE LIST*
%ADD10C,0.120000*%
%ADD11C,0.150000*%
%ADD12C,0.300000*%
%ADD13C,0.010000*%
G04 APERTURE END LIST*
D10*
X139500000Y-115500000D02*
X139500000Y-116000000D01*
X139500000Y-120000000D02*
X139500000Y-120500000D01*
D11*
X149071428Y-115761904D02*
X149071428Y-115000000D01*
X149452380Y-115380952D02*
X148690476Y-115380952D01*
X148547619Y-114571428D02*
X148500000Y-114523809D01*
X148452380Y-114428571D01*
X148452380Y-114190476D01*
X148500000Y-114095238D01*
X148547619Y-114047619D01*
X148642857Y-114000000D01*
X148738095Y-114000000D01*
X148880952Y-114047619D01*
X149452380Y-114619047D01*
X149452380Y-114000000D01*
X148785714Y-113142857D02*
X149452380Y-113142857D01*
X148404761Y-113380952D02*
X149119047Y-113619047D01*
X149119047Y-113000000D01*
X148452380Y-112761904D02*
X149452380Y-112428571D01*
X148452380Y-112095238D01*
X148500000Y-118261904D02*
X148452380Y-118357142D01*
X148452380Y-118500000D01*
X148500000Y-118642857D01*
X148595238Y-118738095D01*
X148690476Y-118785714D01*
X148880952Y-118833333D01*
X149023809Y-118833333D01*
X149214285Y-118785714D01*
X149309523Y-118738095D01*
X149404761Y-118642857D01*
X149452380Y-118500000D01*
X149452380Y-118404761D01*
X149404761Y-118261904D01*
X149357142Y-118214285D01*
X149023809Y-118214285D01*
X149023809Y-118404761D01*
X149452380Y-117785714D02*
X148452380Y-117785714D01*
X149452380Y-117214285D01*
X148452380Y-117214285D01*
X149452380Y-116738095D02*
X148452380Y-116738095D01*
X148452380Y-116500000D01*
X148500000Y-116357142D01*
X148595238Y-116261904D01*
X148690476Y-116214285D01*
X148880952Y-116166666D01*
X149023809Y-116166666D01*
X149214285Y-116214285D01*
X149309523Y-116261904D01*
X149404761Y-116357142D01*
X149452380Y-116500000D01*
X149452380Y-116738095D01*
D10*
X139500000Y-113500000D02*
X139500000Y-114500000D01*
X139500000Y-111500000D02*
X139500000Y-112500000D01*
X142500000Y-120500000D02*
X141500000Y-120500000D01*
X146500000Y-120500000D02*
X145500000Y-120500000D01*
X144500000Y-120500000D02*
X143500000Y-120500000D01*
X148500000Y-120500000D02*
X147500000Y-120500000D01*
X150500000Y-120500000D02*
X149500000Y-120500000D01*
X140500000Y-120500000D02*
X139500000Y-120500000D01*
D11*
X145103571Y-98880952D02*
X145151190Y-98738095D01*
X145198809Y-98690476D01*
X145294047Y-98642857D01*
X145436904Y-98642857D01*
X145532142Y-98690476D01*
X145579761Y-98738095D01*
X145627380Y-98833333D01*
X145627380Y-99214285D01*
X144627380Y-99214285D01*
X144627380Y-98880952D01*
X144675000Y-98785714D01*
X144722619Y-98738095D01*
X144817857Y-98690476D01*
X144913095Y-98690476D01*
X145008333Y-98738095D01*
X145055952Y-98785714D01*
X145103571Y-98880952D01*
X145103571Y-99214285D01*
X145627380Y-98071428D02*
X145579761Y-98166666D01*
X145532142Y-98214285D01*
X145436904Y-98261904D01*
X145151190Y-98261904D01*
X145055952Y-98214285D01*
X145008333Y-98166666D01*
X144960714Y-98071428D01*
X144960714Y-97928571D01*
X145008333Y-97833333D01*
X145055952Y-97785714D01*
X145151190Y-97738095D01*
X145436904Y-97738095D01*
X145532142Y-97785714D01*
X145579761Y-97833333D01*
X145627380Y-97928571D01*
X145627380Y-98071428D01*
X145627380Y-97166666D02*
X145579761Y-97261904D01*
X145532142Y-97309523D01*
X145436904Y-97357142D01*
X145151190Y-97357142D01*
X145055952Y-97309523D01*
X145008333Y-97261904D01*
X144960714Y-97166666D01*
X144960714Y-97023809D01*
X145008333Y-96928571D01*
X145055952Y-96880952D01*
X145151190Y-96833333D01*
X145436904Y-96833333D01*
X145532142Y-96880952D01*
X145579761Y-96928571D01*
X145627380Y-97023809D01*
X145627380Y-97166666D01*
X145579761Y-96452380D02*
X145627380Y-96357142D01*
X145627380Y-96166666D01*
X145579761Y-96071428D01*
X145484523Y-96023809D01*
X145436904Y-96023809D01*
X145341666Y-96071428D01*
X145294047Y-96166666D01*
X145294047Y-96309523D01*
X145246428Y-96404761D01*
X145151190Y-96452380D01*
X145103571Y-96452380D01*
X145008333Y-96404761D01*
X144960714Y-96309523D01*
X144960714Y-96166666D01*
X145008333Y-96071428D01*
X144960714Y-95738095D02*
X144960714Y-95357142D01*
X144627380Y-95595238D02*
X145484523Y-95595238D01*
X145579761Y-95547619D01*
X145627380Y-95452380D01*
X145627380Y-95357142D01*
X145579761Y-93833333D02*
X145627380Y-93928571D01*
X145627380Y-94119047D01*
X145579761Y-94214285D01*
X145532142Y-94261904D01*
X145436904Y-94309523D01*
X145151190Y-94309523D01*
X145055952Y-94261904D01*
X145008333Y-94214285D01*
X144960714Y-94119047D01*
X144960714Y-93928571D01*
X145008333Y-93833333D01*
X145627380Y-93261904D02*
X145579761Y-93357142D01*
X145532142Y-93404761D01*
X145436904Y-93452380D01*
X145151190Y-93452380D01*
X145055952Y-93404761D01*
X145008333Y-93357142D01*
X144960714Y-93261904D01*
X144960714Y-93119047D01*
X145008333Y-93023809D01*
X145055952Y-92976190D01*
X145151190Y-92928571D01*
X145436904Y-92928571D01*
X145532142Y-92976190D01*
X145579761Y-93023809D01*
X145627380Y-93119047D01*
X145627380Y-93261904D01*
X144960714Y-92500000D02*
X145627380Y-92500000D01*
X145055952Y-92500000D02*
X145008333Y-92452380D01*
X144960714Y-92357142D01*
X144960714Y-92214285D01*
X145008333Y-92119047D01*
X145103571Y-92071428D01*
X145627380Y-92071428D01*
X144960714Y-91690476D02*
X145627380Y-91452380D01*
X144960714Y-91214285D01*
X145579761Y-90452380D02*
X145627380Y-90547619D01*
X145627380Y-90738095D01*
X145579761Y-90833333D01*
X145484523Y-90880952D01*
X145103571Y-90880952D01*
X145008333Y-90833333D01*
X144960714Y-90738095D01*
X144960714Y-90547619D01*
X145008333Y-90452380D01*
X145103571Y-90404761D01*
X145198809Y-90404761D01*
X145294047Y-90880952D01*
X145627380Y-89976190D02*
X144960714Y-89976190D01*
X145151190Y-89976190D02*
X145055952Y-89928571D01*
X145008333Y-89880952D01*
X144960714Y-89785714D01*
X144960714Y-89690476D01*
X144960714Y-89500000D02*
X144960714Y-89119047D01*
X144627380Y-89357142D02*
X145484523Y-89357142D01*
X145579761Y-89309523D01*
X145627380Y-89214285D01*
X145627380Y-89119047D01*
X145579761Y-88404761D02*
X145627380Y-88500000D01*
X145627380Y-88690476D01*
X145579761Y-88785714D01*
X145484523Y-88833333D01*
X145103571Y-88833333D01*
X145008333Y-88785714D01*
X144960714Y-88690476D01*
X144960714Y-88500000D01*
X145008333Y-88404761D01*
X145103571Y-88357142D01*
X145198809Y-88357142D01*
X145294047Y-88833333D01*
X145627380Y-87928571D02*
X144960714Y-87928571D01*
X145151190Y-87928571D02*
X145055952Y-87880952D01*
X145008333Y-87833333D01*
X144960714Y-87738095D01*
X144960714Y-87642857D01*
X147277380Y-97333333D02*
X146277380Y-97333333D01*
X146658333Y-97333333D02*
X146610714Y-97238095D01*
X146610714Y-97047619D01*
X146658333Y-96952380D01*
X146705952Y-96904761D01*
X146801190Y-96857142D01*
X147086904Y-96857142D01*
X147182142Y-96904761D01*
X147229761Y-96952380D01*
X147277380Y-97047619D01*
X147277380Y-97238095D01*
X147229761Y-97333333D01*
X147277380Y-96285714D02*
X147229761Y-96380952D01*
X147182142Y-96428571D01*
X147086904Y-96476190D01*
X146801190Y-96476190D01*
X146705952Y-96428571D01*
X146658333Y-96380952D01*
X146610714Y-96285714D01*
X146610714Y-96142857D01*
X146658333Y-96047619D01*
X146705952Y-96000000D01*
X146801190Y-95952380D01*
X147086904Y-95952380D01*
X147182142Y-96000000D01*
X147229761Y-96047619D01*
X147277380Y-96142857D01*
X147277380Y-96285714D01*
X147277380Y-95095238D02*
X146753571Y-95095238D01*
X146658333Y-95142857D01*
X146610714Y-95238095D01*
X146610714Y-95428571D01*
X146658333Y-95523809D01*
X147229761Y-95095238D02*
X147277380Y-95190476D01*
X147277380Y-95428571D01*
X147229761Y-95523809D01*
X147134523Y-95571428D01*
X147039285Y-95571428D01*
X146944047Y-95523809D01*
X146896428Y-95428571D01*
X146896428Y-95190476D01*
X146848809Y-95095238D01*
X147277380Y-94619047D02*
X146610714Y-94619047D01*
X146801190Y-94619047D02*
X146705952Y-94571428D01*
X146658333Y-94523809D01*
X146610714Y-94428571D01*
X146610714Y-94333333D01*
X147277380Y-93571428D02*
X146277380Y-93571428D01*
X147229761Y-93571428D02*
X147277380Y-93666666D01*
X147277380Y-93857142D01*
X147229761Y-93952380D01*
X147182142Y-94000000D01*
X147086904Y-94047619D01*
X146801190Y-94047619D01*
X146705952Y-94000000D01*
X146658333Y-93952380D01*
X146610714Y-93857142D01*
X146610714Y-93666666D01*
X146658333Y-93571428D01*
X146610714Y-92428571D02*
X147277380Y-92190476D01*
X146610714Y-91952380D01*
X146277380Y-91380952D02*
X146277380Y-91285714D01*
X146325000Y-91190476D01*
X146372619Y-91142857D01*
X146467857Y-91095238D01*
X146658333Y-91047619D01*
X146896428Y-91047619D01*
X147086904Y-91095238D01*
X147182142Y-91142857D01*
X147229761Y-91190476D01*
X147277380Y-91285714D01*
X147277380Y-91380952D01*
X147229761Y-91476190D01*
X147182142Y-91523809D01*
X147086904Y-91571428D01*
X146896428Y-91619047D01*
X146658333Y-91619047D01*
X146467857Y-91571428D01*
X146372619Y-91523809D01*
X146325000Y-91476190D01*
X146277380Y-91380952D01*
X147182142Y-90619047D02*
X147229761Y-90571428D01*
X147277380Y-90619047D01*
X147229761Y-90666666D01*
X147182142Y-90619047D01*
X147277380Y-90619047D01*
X147277380Y-89619047D02*
X147277380Y-90190476D01*
X147277380Y-89904761D02*
X146277380Y-89904761D01*
X146420238Y-90000000D01*
X146515476Y-90095238D01*
X146563095Y-90190476D01*
X107071428Y-91761904D02*
X107071428Y-91000000D01*
X107452380Y-91380952D02*
X106690476Y-91380952D01*
X107452380Y-90000000D02*
X107452380Y-90571428D01*
X107452380Y-90285714D02*
X106452380Y-90285714D01*
X106595238Y-90380952D01*
X106690476Y-90476190D01*
X106738095Y-90571428D01*
X106547619Y-89619047D02*
X106500000Y-89571428D01*
X106452380Y-89476190D01*
X106452380Y-89238095D01*
X106500000Y-89142857D01*
X106547619Y-89095238D01*
X106642857Y-89047619D01*
X106738095Y-89047619D01*
X106880952Y-89095238D01*
X107452380Y-89666666D01*
X107452380Y-89047619D01*
X106452380Y-88761904D02*
X107452380Y-88428571D01*
X106452380Y-88095238D01*
X106571428Y-100761904D02*
X106571428Y-100000000D01*
X106952380Y-100380952D02*
X106190476Y-100380952D01*
X106952380Y-99000000D02*
X106952380Y-99571428D01*
X106952380Y-99285714D02*
X105952380Y-99285714D01*
X106095238Y-99380952D01*
X106190476Y-99476190D01*
X106238095Y-99571428D01*
X106047619Y-98619047D02*
X106000000Y-98571428D01*
X105952380Y-98476190D01*
X105952380Y-98238095D01*
X106000000Y-98142857D01*
X106047619Y-98095238D01*
X106142857Y-98047619D01*
X106238095Y-98047619D01*
X106380952Y-98095238D01*
X106952380Y-98666666D01*
X106952380Y-98047619D01*
X105952380Y-97761904D02*
X106952380Y-97428571D01*
X105952380Y-97095238D01*
X106571428Y-110261904D02*
X106571428Y-109500000D01*
X106952380Y-109880952D02*
X106190476Y-109880952D01*
X106952380Y-108500000D02*
X106952380Y-109071428D01*
X106952380Y-108785714D02*
X105952380Y-108785714D01*
X106095238Y-108880952D01*
X106190476Y-108976190D01*
X106238095Y-109071428D01*
X106047619Y-108119047D02*
X106000000Y-108071428D01*
X105952380Y-107976190D01*
X105952380Y-107738095D01*
X106000000Y-107642857D01*
X106047619Y-107595238D01*
X106142857Y-107547619D01*
X106238095Y-107547619D01*
X106380952Y-107595238D01*
X106952380Y-108166666D01*
X106952380Y-107547619D01*
X105952380Y-107261904D02*
X106952380Y-106928571D01*
X105952380Y-106595238D01*
X106000000Y-105261904D02*
X105952380Y-105357142D01*
X105952380Y-105500000D01*
X106000000Y-105642857D01*
X106095238Y-105738095D01*
X106190476Y-105785714D01*
X106380952Y-105833333D01*
X106523809Y-105833333D01*
X106714285Y-105785714D01*
X106809523Y-105738095D01*
X106904761Y-105642857D01*
X106952380Y-105500000D01*
X106952380Y-105404761D01*
X106904761Y-105261904D01*
X106857142Y-105214285D01*
X106523809Y-105214285D01*
X106523809Y-105404761D01*
X106952380Y-104785714D02*
X105952380Y-104785714D01*
X106952380Y-104214285D01*
X105952380Y-104214285D01*
X106952380Y-103738095D02*
X105952380Y-103738095D01*
X105952380Y-103500000D01*
X106000000Y-103357142D01*
X106095238Y-103261904D01*
X106190476Y-103214285D01*
X106380952Y-103166666D01*
X106523809Y-103166666D01*
X106714285Y-103214285D01*
X106809523Y-103261904D01*
X106904761Y-103357142D01*
X106952380Y-103500000D01*
X106952380Y-103738095D01*
X106000000Y-95761904D02*
X105952380Y-95857142D01*
X105952380Y-96000000D01*
X106000000Y-96142857D01*
X106095238Y-96238095D01*
X106190476Y-96285714D01*
X106380952Y-96333333D01*
X106523809Y-96333333D01*
X106714285Y-96285714D01*
X106809523Y-96238095D01*
X106904761Y-96142857D01*
X106952380Y-96000000D01*
X106952380Y-95904761D01*
X106904761Y-95761904D01*
X106857142Y-95714285D01*
X106523809Y-95714285D01*
X106523809Y-95904761D01*
X106952380Y-95285714D02*
X105952380Y-95285714D01*
X106952380Y-94714285D01*
X105952380Y-94714285D01*
X106952380Y-94238095D02*
X105952380Y-94238095D01*
X105952380Y-94000000D01*
X106000000Y-93857142D01*
X106095238Y-93761904D01*
X106190476Y-93714285D01*
X106380952Y-93666666D01*
X106523809Y-93666666D01*
X106714285Y-93714285D01*
X106809523Y-93761904D01*
X106904761Y-93857142D01*
X106952380Y-94000000D01*
X106952380Y-94238095D01*
X149071428Y-106261904D02*
X149071428Y-105500000D01*
X149452380Y-105880952D02*
X148690476Y-105880952D01*
X148547619Y-105071428D02*
X148500000Y-105023809D01*
X148452380Y-104928571D01*
X148452380Y-104690476D01*
X148500000Y-104595238D01*
X148547619Y-104547619D01*
X148642857Y-104500000D01*
X148738095Y-104500000D01*
X148880952Y-104547619D01*
X149452380Y-105119047D01*
X149452380Y-104500000D01*
X148785714Y-103642857D02*
X149452380Y-103642857D01*
X148404761Y-103880952D02*
X149119047Y-104119047D01*
X149119047Y-103500000D01*
X148452380Y-103261904D02*
X149452380Y-102928571D01*
X148452380Y-102595238D01*
X148500000Y-108761904D02*
X148452380Y-108857142D01*
X148452380Y-109000000D01*
X148500000Y-109142857D01*
X148595238Y-109238095D01*
X148690476Y-109285714D01*
X148880952Y-109333333D01*
X149023809Y-109333333D01*
X149214285Y-109285714D01*
X149309523Y-109238095D01*
X149404761Y-109142857D01*
X149452380Y-109000000D01*
X149452380Y-108904761D01*
X149404761Y-108761904D01*
X149357142Y-108714285D01*
X149023809Y-108714285D01*
X149023809Y-108904761D01*
X149452380Y-108285714D02*
X148452380Y-108285714D01*
X149452380Y-107714285D01*
X148452380Y-107714285D01*
X149452380Y-107238095D02*
X148452380Y-107238095D01*
X148452380Y-107000000D01*
X148500000Y-106857142D01*
X148595238Y-106761904D01*
X148690476Y-106714285D01*
X148880952Y-106666666D01*
X149023809Y-106666666D01*
X149214285Y-106714285D01*
X149309523Y-106761904D01*
X149404761Y-106857142D01*
X149452380Y-107000000D01*
X149452380Y-107238095D01*
D12*
X141089285Y-113202380D02*
X141089285Y-112250000D01*
X141565476Y-112726190D02*
X140613095Y-112726190D01*
X140434523Y-111714285D02*
X140375000Y-111654761D01*
X140315476Y-111535714D01*
X140315476Y-111238095D01*
X140375000Y-111119047D01*
X140434523Y-111059523D01*
X140553571Y-111000000D01*
X140672619Y-111000000D01*
X140851190Y-111059523D01*
X141565476Y-111773809D01*
X141565476Y-111000000D01*
X140732142Y-109928571D02*
X141565476Y-109928571D01*
X140255952Y-110226190D02*
X141148809Y-110523809D01*
X141148809Y-109750000D01*
X140315476Y-109452380D02*
X141565476Y-109035714D01*
X140315476Y-108619047D01*
D10*
X143500000Y-100500000D02*
X144500000Y-100500000D01*
X139500000Y-103500000D02*
X139500000Y-104500000D01*
X149500000Y-100500000D02*
X150500000Y-100500000D01*
X147500000Y-100500000D02*
X148500000Y-100500000D01*
X139500000Y-105500000D02*
X139500000Y-106500000D01*
X141500000Y-100500000D02*
X142500000Y-100500000D01*
X139500000Y-101500000D02*
X139500000Y-102500000D01*
X139500000Y-107500000D02*
X139500000Y-108500000D01*
X139500000Y-109500000D02*
X139500000Y-110500000D01*
X139500000Y-100500000D02*
X140500000Y-100500000D01*
X145500000Y-100500000D02*
X146500000Y-100500000D01*
%TO.C,J4*%
X148250000Y-111150000D02*
X147000000Y-111150000D01*
X148250000Y-112400000D02*
X148250000Y-111150000D01*
X142750000Y-118300000D02*
X142750000Y-115250000D01*
X145700000Y-118300000D02*
X142750000Y-118300000D01*
X145700000Y-119050000D02*
X145700000Y-118300000D01*
X142750000Y-112200000D02*
X142750000Y-115250000D01*
X145700000Y-112200000D02*
X142750000Y-112200000D01*
X145700000Y-111450000D02*
X145700000Y-112200000D01*
X147950000Y-119050000D02*
X147950000Y-117250000D01*
X147200000Y-119050000D02*
X147950000Y-119050000D01*
X147200000Y-117250000D02*
X147200000Y-119050000D01*
X147950000Y-117250000D02*
X147200000Y-117250000D01*
X147950000Y-113250000D02*
X147950000Y-111450000D01*
X147200000Y-113250000D02*
X147950000Y-113250000D01*
X147200000Y-111450000D02*
X147200000Y-113250000D01*
X147950000Y-111450000D02*
X147200000Y-111450000D01*
X147950000Y-115750000D02*
X147950000Y-114750000D01*
X147200000Y-115750000D02*
X147950000Y-115750000D01*
X147200000Y-114750000D02*
X147200000Y-115750000D01*
X147950000Y-114750000D02*
X147200000Y-114750000D01*
X147960000Y-119060000D02*
X147960000Y-111440000D01*
X141990000Y-119060000D02*
X147960000Y-119060000D01*
X141990000Y-111440000D02*
X141990000Y-119060000D01*
X147960000Y-111440000D02*
X141990000Y-111440000D01*
%TO.C,L1*%
X119620000Y-118000000D02*
G75*
G03*
X119620000Y-118000000I-5120000J0D01*
G01*
D13*
%TO.C,G\u002A\u002A\u002A*%
G36*
X139508000Y-85173182D02*
G01*
X139404091Y-85173182D01*
X139404091Y-84630546D01*
X139508000Y-84630546D01*
X139508000Y-85173182D01*
G37*
X139508000Y-85173182D02*
X139404091Y-85173182D01*
X139404091Y-84630546D01*
X139508000Y-84630546D01*
X139508000Y-85173182D01*
G36*
X138584364Y-85173182D02*
G01*
X138480454Y-85173182D01*
X138480454Y-84630546D01*
X138584364Y-84630546D01*
X138584364Y-85173182D01*
G37*
X138584364Y-85173182D02*
X138480454Y-85173182D01*
X138480454Y-84630546D01*
X138584364Y-84630546D01*
X138584364Y-85173182D01*
G36*
X139373099Y-81877467D02*
G01*
X139369224Y-81890801D01*
X139354184Y-81913243D01*
X139327016Y-81945969D01*
X139286760Y-81990152D01*
X139232455Y-82046967D01*
X139163140Y-82117587D01*
X139096827Y-82184219D01*
X138809673Y-82471546D01*
X139008746Y-82471546D01*
X139081153Y-82471724D01*
X139133629Y-82472470D01*
X139169333Y-82474105D01*
X139191424Y-82476946D01*
X139203059Y-82481312D01*
X139207397Y-82487523D01*
X139207818Y-82491650D01*
X139199922Y-82504665D01*
X139177598Y-82531642D01*
X139142890Y-82570362D01*
X139097844Y-82618607D01*
X139044505Y-82674157D01*
X138984919Y-82734794D01*
X138968353Y-82751422D01*
X138892325Y-82828149D01*
X138832869Y-82889584D01*
X138789620Y-82936131D01*
X138762213Y-82968191D01*
X138750284Y-82986170D01*
X138751876Y-82990686D01*
X138775058Y-82988110D01*
X138811968Y-82981832D01*
X138846830Y-82974839D01*
X138887484Y-82966987D01*
X138911876Y-82965268D01*
X138926026Y-82969746D01*
X138932354Y-82975734D01*
X138939429Y-82988130D01*
X138936195Y-82998687D01*
X138920071Y-83008553D01*
X138888477Y-83018878D01*
X138838834Y-83030808D01*
X138781542Y-83042861D01*
X138718772Y-83055603D01*
X138674977Y-83064184D01*
X138646501Y-83069030D01*
X138629687Y-83070567D01*
X138620881Y-83069221D01*
X138616426Y-83065417D01*
X138614442Y-83062329D01*
X138613505Y-83046061D01*
X138617598Y-83013162D01*
X138625537Y-82968818D01*
X138636134Y-82918211D01*
X138648206Y-82866526D01*
X138660564Y-82818946D01*
X138672025Y-82780655D01*
X138681401Y-82756836D01*
X138685510Y-82751657D01*
X138704899Y-82750054D01*
X138714545Y-82765014D01*
X138714774Y-82798134D01*
X138705913Y-82851014D01*
X138705861Y-82851262D01*
X138697327Y-82892815D01*
X138691076Y-82925129D01*
X138688313Y-82941940D01*
X138688273Y-82942658D01*
X138696049Y-82936997D01*
X138717942Y-82917022D01*
X138751798Y-82884804D01*
X138795461Y-82842414D01*
X138846779Y-82791923D01*
X138896249Y-82742744D01*
X139104224Y-82535046D01*
X138916592Y-82529273D01*
X138845020Y-82526743D01*
X138793450Y-82523983D01*
X138758794Y-82520617D01*
X138737962Y-82516270D01*
X138727866Y-82510564D01*
X138725608Y-82506000D01*
X138732793Y-82494540D01*
X138754341Y-82469165D01*
X138788077Y-82432073D01*
X138831826Y-82385462D01*
X138883415Y-82331533D01*
X138940667Y-82272484D01*
X139001408Y-82210514D01*
X139063464Y-82147823D01*
X139124660Y-82086608D01*
X139182820Y-82029070D01*
X139235771Y-81977407D01*
X139281337Y-81933819D01*
X139317345Y-81900504D01*
X139341618Y-81879661D01*
X139351193Y-81873429D01*
X139366768Y-81872068D01*
X139373099Y-81877467D01*
G37*
X139373099Y-81877467D02*
X139369224Y-81890801D01*
X139354184Y-81913243D01*
X139327016Y-81945969D01*
X139286760Y-81990152D01*
X139232455Y-82046967D01*
X139163140Y-82117587D01*
X139096827Y-82184219D01*
X138809673Y-82471546D01*
X139008746Y-82471546D01*
X139081153Y-82471724D01*
X139133629Y-82472470D01*
X139169333Y-82474105D01*
X139191424Y-82476946D01*
X139203059Y-82481312D01*
X139207397Y-82487523D01*
X139207818Y-82491650D01*
X139199922Y-82504665D01*
X139177598Y-82531642D01*
X139142890Y-82570362D01*
X139097844Y-82618607D01*
X139044505Y-82674157D01*
X138984919Y-82734794D01*
X138968353Y-82751422D01*
X138892325Y-82828149D01*
X138832869Y-82889584D01*
X138789620Y-82936131D01*
X138762213Y-82968191D01*
X138750284Y-82986170D01*
X138751876Y-82990686D01*
X138775058Y-82988110D01*
X138811968Y-82981832D01*
X138846830Y-82974839D01*
X138887484Y-82966987D01*
X138911876Y-82965268D01*
X138926026Y-82969746D01*
X138932354Y-82975734D01*
X138939429Y-82988130D01*
X138936195Y-82998687D01*
X138920071Y-83008553D01*
X138888477Y-83018878D01*
X138838834Y-83030808D01*
X138781542Y-83042861D01*
X138718772Y-83055603D01*
X138674977Y-83064184D01*
X138646501Y-83069030D01*
X138629687Y-83070567D01*
X138620881Y-83069221D01*
X138616426Y-83065417D01*
X138614442Y-83062329D01*
X138613505Y-83046061D01*
X138617598Y-83013162D01*
X138625537Y-82968818D01*
X138636134Y-82918211D01*
X138648206Y-82866526D01*
X138660564Y-82818946D01*
X138672025Y-82780655D01*
X138681401Y-82756836D01*
X138685510Y-82751657D01*
X138704899Y-82750054D01*
X138714545Y-82765014D01*
X138714774Y-82798134D01*
X138705913Y-82851014D01*
X138705861Y-82851262D01*
X138697327Y-82892815D01*
X138691076Y-82925129D01*
X138688313Y-82941940D01*
X138688273Y-82942658D01*
X138696049Y-82936997D01*
X138717942Y-82917022D01*
X138751798Y-82884804D01*
X138795461Y-82842414D01*
X138846779Y-82791923D01*
X138896249Y-82742744D01*
X139104224Y-82535046D01*
X138916592Y-82529273D01*
X138845020Y-82526743D01*
X138793450Y-82523983D01*
X138758794Y-82520617D01*
X138737962Y-82516270D01*
X138727866Y-82510564D01*
X138725608Y-82506000D01*
X138732793Y-82494540D01*
X138754341Y-82469165D01*
X138788077Y-82432073D01*
X138831826Y-82385462D01*
X138883415Y-82331533D01*
X138940667Y-82272484D01*
X139001408Y-82210514D01*
X139063464Y-82147823D01*
X139124660Y-82086608D01*
X139182820Y-82029070D01*
X139235771Y-81977407D01*
X139281337Y-81933819D01*
X139317345Y-81900504D01*
X139341618Y-81879661D01*
X139351193Y-81873429D01*
X139366768Y-81872068D01*
X139373099Y-81877467D01*
G36*
X139781124Y-81661728D02*
G01*
X139820066Y-81687377D01*
X139850866Y-81722650D01*
X139862381Y-81746443D01*
X139869381Y-81796169D01*
X139860040Y-81844164D01*
X139836291Y-81882547D01*
X139826963Y-81890772D01*
X139800557Y-81910690D01*
X139860848Y-82038141D01*
X139942059Y-82234093D01*
X140003933Y-82438313D01*
X140046800Y-82652394D01*
X140070993Y-82877926D01*
X140077124Y-83077682D01*
X140073712Y-83224672D01*
X140063437Y-83354827D01*
X140045563Y-83473574D01*
X140019354Y-83586342D01*
X139998815Y-83654955D01*
X139968368Y-83736987D01*
X139926952Y-83830997D01*
X139877686Y-83930665D01*
X139823684Y-84029672D01*
X139770857Y-84117323D01*
X139741321Y-84163729D01*
X139716056Y-84203479D01*
X139697810Y-84232246D01*
X139689434Y-84245534D01*
X139694321Y-84257729D01*
X139714538Y-84277895D01*
X139745386Y-84301472D01*
X139810309Y-84352845D01*
X139876016Y-84416479D01*
X139937047Y-84486221D01*
X139987937Y-84555915D01*
X140018545Y-84609279D01*
X140053095Y-84689128D01*
X140074433Y-84761905D01*
X140084874Y-84837629D01*
X140086945Y-84905066D01*
X140076086Y-85020467D01*
X140045188Y-85132328D01*
X139995987Y-85235343D01*
X139962750Y-85284984D01*
X139935175Y-85321741D01*
X139996225Y-85402894D01*
X140032255Y-85454242D01*
X140070613Y-85514339D01*
X140103634Y-85571117D01*
X140106810Y-85577014D01*
X140156345Y-85669982D01*
X140269255Y-85441786D01*
X140379742Y-85226784D01*
X140488243Y-85032834D01*
X140595982Y-84858121D01*
X140704185Y-84700830D01*
X140814075Y-84559147D01*
X140926878Y-84431257D01*
X141004467Y-84352605D01*
X141128950Y-84241502D01*
X141250200Y-84152962D01*
X141369160Y-84086836D01*
X141486770Y-84042977D01*
X141603972Y-84021236D01*
X141721707Y-84021466D01*
X141840917Y-84043519D01*
X141962542Y-84087246D01*
X142087524Y-84152499D01*
X142125835Y-84176265D01*
X142238046Y-84258565D01*
X142336093Y-84351205D01*
X142419199Y-84452068D01*
X142486591Y-84559035D01*
X142537492Y-84669990D01*
X142571127Y-84782815D01*
X142586721Y-84895393D01*
X142583499Y-85005605D01*
X142560685Y-85111335D01*
X142517504Y-85210464D01*
X142509522Y-85224138D01*
X142467783Y-85282863D01*
X142410567Y-85348425D01*
X142342435Y-85416194D01*
X142267951Y-85481537D01*
X142215409Y-85522663D01*
X142176019Y-85551978D01*
X142144162Y-85575822D01*
X142123999Y-85591072D01*
X142119139Y-85594895D01*
X142125036Y-85603996D01*
X142144107Y-85625315D01*
X142172877Y-85655066D01*
X142189509Y-85671619D01*
X142257910Y-85753170D01*
X142316458Y-85851565D01*
X142363304Y-85961991D01*
X142396598Y-86079634D01*
X142414493Y-86199678D01*
X142417102Y-86264228D01*
X142408130Y-86381577D01*
X142382350Y-86492330D01*
X142341250Y-86593721D01*
X142286317Y-86682986D01*
X142219038Y-86757360D01*
X142140903Y-86814077D01*
X142113719Y-86828107D01*
X142009087Y-86865839D01*
X141886866Y-86889603D01*
X141747784Y-86899491D01*
X141592566Y-86895596D01*
X141421940Y-86878011D01*
X141236633Y-86846829D01*
X141037372Y-86802142D01*
X140824883Y-86744044D01*
X140599893Y-86672626D01*
X140430663Y-86613046D01*
X140320008Y-86572564D01*
X140295866Y-86718578D01*
X140253030Y-86913354D01*
X140190764Y-87095947D01*
X140108640Y-87267293D01*
X140006231Y-87428329D01*
X139923258Y-87534228D01*
X139814822Y-87647279D01*
X139693857Y-87746765D01*
X139563822Y-87830581D01*
X139428175Y-87896622D01*
X139290374Y-87942784D01*
X139229531Y-87956334D01*
X139189546Y-87963931D01*
X139158226Y-87970106D01*
X139143514Y-87973255D01*
X139135688Y-87984969D01*
X139123584Y-88014497D01*
X139108873Y-88057339D01*
X139093667Y-88107452D01*
X139076809Y-88166365D01*
X139060376Y-88223781D01*
X139046500Y-88272257D01*
X139038811Y-88299114D01*
X139025628Y-88336932D01*
X139012258Y-88355729D01*
X139000000Y-88359728D01*
X138984712Y-88353083D01*
X138971596Y-88330514D01*
X138961189Y-88299114D01*
X138950794Y-88262807D01*
X138936178Y-88211743D01*
X138919471Y-88153364D01*
X138906333Y-88107452D01*
X138890689Y-88055982D01*
X138876029Y-88013455D01*
X138864023Y-87984371D01*
X138856485Y-87973255D01*
X138839344Y-87969615D01*
X138806870Y-87963240D01*
X138770469Y-87956334D01*
X138632814Y-87919651D01*
X138495781Y-87862154D01*
X138362825Y-87785947D01*
X138237404Y-87693133D01*
X138122974Y-87585815D01*
X138076731Y-87534228D01*
X137960970Y-87380330D01*
X137864743Y-87214564D01*
X137787917Y-87036622D01*
X137780414Y-87011796D01*
X137834015Y-87011796D01*
X137839372Y-87030696D01*
X137853819Y-87065300D01*
X137875126Y-87111187D01*
X137901067Y-87163934D01*
X137929412Y-87219118D01*
X137957934Y-87272316D01*
X137984405Y-87319106D01*
X138006597Y-87355066D01*
X138008015Y-87357185D01*
X138041421Y-87404438D01*
X138079128Y-87454363D01*
X138108646Y-87490932D01*
X138159987Y-87551546D01*
X139841033Y-87551546D01*
X139892441Y-87490932D01*
X139938430Y-87432196D01*
X139986502Y-87362985D01*
X140033888Y-87288071D01*
X140077819Y-87212231D01*
X140115523Y-87140238D01*
X140144233Y-87076867D01*
X140160841Y-87028255D01*
X140168594Y-86997364D01*
X139001251Y-86997364D01*
X138804356Y-86997416D01*
X138629430Y-86997583D01*
X138475352Y-86997878D01*
X138341000Y-86998316D01*
X138225254Y-86998909D01*
X138126991Y-86999671D01*
X138045090Y-87000618D01*
X137978430Y-87001762D01*
X137925889Y-87003117D01*
X137886347Y-87004698D01*
X137858681Y-87006517D01*
X137841771Y-87008590D01*
X137834494Y-87010930D01*
X137834015Y-87011796D01*
X137780414Y-87011796D01*
X137730360Y-86846195D01*
X137691941Y-86642973D01*
X137689637Y-86625739D01*
X137682618Y-86571614D01*
X137570650Y-86612882D01*
X137370135Y-86683029D01*
X137174241Y-86744185D01*
X136985000Y-86795944D01*
X136804445Y-86837898D01*
X136634607Y-86869639D01*
X136477521Y-86890760D01*
X136335217Y-86900853D01*
X136209729Y-86899511D01*
X136161686Y-86895344D01*
X136037910Y-86875638D01*
X135933391Y-86846125D01*
X135845897Y-86805450D01*
X135773197Y-86752259D01*
X135713059Y-86685198D01*
X135663253Y-86602914D01*
X135656254Y-86588582D01*
X135614305Y-86481123D01*
X135591058Y-86372110D01*
X135588525Y-86320836D01*
X135642626Y-86320836D01*
X135650949Y-86403928D01*
X135669686Y-86480954D01*
X135700217Y-86559775D01*
X135703636Y-86567326D01*
X135743730Y-86634464D01*
X135798466Y-86697768D01*
X135861279Y-86750591D01*
X135915738Y-86782114D01*
X136006610Y-86813382D01*
X136115022Y-86834294D01*
X136237756Y-86844603D01*
X136371592Y-86844064D01*
X136513309Y-86832430D01*
X136536022Y-86829585D01*
X136747840Y-86794568D01*
X136973675Y-86743379D01*
X137211572Y-86676523D01*
X137459575Y-86594501D01*
X137489038Y-86583982D01*
X137674809Y-86517150D01*
X137679079Y-86390773D01*
X137730000Y-86390773D01*
X137730000Y-86454728D01*
X140273528Y-86454728D01*
X140266408Y-86330287D01*
X140260547Y-86263060D01*
X140316252Y-86263060D01*
X140321954Y-86512174D01*
X140368136Y-86530811D01*
X140439484Y-86558222D01*
X140526724Y-86589564D01*
X140623473Y-86622685D01*
X140723350Y-86655429D01*
X140819972Y-86685644D01*
X140878735Y-86703118D01*
X141093291Y-86760255D01*
X141292609Y-86802908D01*
X141476182Y-86831017D01*
X141643500Y-86844517D01*
X141794056Y-86843349D01*
X141916290Y-86829447D01*
X142012927Y-86807479D01*
X142091872Y-86777436D01*
X142157765Y-86737114D01*
X142209942Y-86690006D01*
X142274118Y-86607281D01*
X142319819Y-86513726D01*
X142347495Y-86407928D01*
X142357597Y-86288470D01*
X142356526Y-86229811D01*
X142340665Y-86088035D01*
X142306955Y-85960390D01*
X142255506Y-85847166D01*
X142186427Y-85748656D01*
X142170098Y-85730306D01*
X142127268Y-85685713D01*
X142094795Y-85657447D01*
X142068600Y-85643813D01*
X142044605Y-85643112D01*
X142018734Y-85653650D01*
X142005226Y-85661713D01*
X141958944Y-85688662D01*
X141895930Y-85722084D01*
X141820825Y-85759719D01*
X141738272Y-85799303D01*
X141652912Y-85838574D01*
X141569387Y-85875271D01*
X141550619Y-85883239D01*
X141457139Y-85920633D01*
X141346529Y-85961571D01*
X141223166Y-86004679D01*
X141091430Y-86048584D01*
X140955698Y-86091912D01*
X140820349Y-86133289D01*
X140689763Y-86171341D01*
X140568317Y-86204694D01*
X140460390Y-86231975D01*
X140385859Y-86248683D01*
X140316252Y-86263060D01*
X140260547Y-86263060D01*
X140259747Y-86253895D01*
X140248535Y-86167625D01*
X140234147Y-86079964D01*
X140217961Y-85999400D01*
X140203276Y-85940955D01*
X140193293Y-85906319D01*
X137805696Y-85906319D01*
X137779732Y-86010228D01*
X137760890Y-86098477D01*
X137745499Y-86195531D01*
X137734820Y-86291740D01*
X137730115Y-86377451D01*
X137730000Y-86390773D01*
X137679079Y-86390773D01*
X137683355Y-86264228D01*
X137565246Y-86236895D01*
X137498203Y-86220410D01*
X137414263Y-86198273D01*
X137318492Y-86171947D01*
X137215960Y-86142901D01*
X137111733Y-86112598D01*
X137010881Y-86082507D01*
X136918470Y-86054092D01*
X136839569Y-86028820D01*
X136800591Y-86015696D01*
X136676818Y-85971175D01*
X136551015Y-85922730D01*
X136427016Y-85872035D01*
X136308655Y-85820767D01*
X136199765Y-85770601D01*
X136104180Y-85723212D01*
X136025735Y-85680275D01*
X136006185Y-85668554D01*
X135972853Y-85649909D01*
X135946470Y-85642358D01*
X135921874Y-85647357D01*
X135893904Y-85666363D01*
X135857397Y-85700832D01*
X135844130Y-85714282D01*
X135767283Y-85809128D01*
X135708642Y-85918026D01*
X135668325Y-86040673D01*
X135646453Y-86176766D01*
X135643336Y-86223819D01*
X135642626Y-86320836D01*
X135588525Y-86320836D01*
X135585266Y-86254894D01*
X135586693Y-86218046D01*
X135603868Y-86080679D01*
X135638812Y-85952052D01*
X135690427Y-85834840D01*
X135757615Y-85731716D01*
X135811015Y-85671619D01*
X135843100Y-85639059D01*
X135867208Y-85613101D01*
X135879873Y-85597552D01*
X135880861Y-85594895D01*
X135870500Y-85586909D01*
X135845711Y-85568322D01*
X135810646Y-85542238D01*
X135783911Y-85522438D01*
X135707269Y-85461203D01*
X135633882Y-85394100D01*
X135568395Y-85325854D01*
X135515453Y-85261184D01*
X135490478Y-85224148D01*
X135443731Y-85125261D01*
X135417706Y-85019820D01*
X135412710Y-84928698D01*
X135468525Y-84928698D01*
X135469169Y-84960394D01*
X135472559Y-85015291D01*
X135478635Y-85056568D01*
X135489764Y-85093692D01*
X135508315Y-85136134D01*
X135518186Y-85156403D01*
X135574973Y-85248295D01*
X135654171Y-85340169D01*
X135755105Y-85431635D01*
X135877099Y-85522299D01*
X136019476Y-85611771D01*
X136181560Y-85699659D01*
X136362676Y-85785571D01*
X136562148Y-85869116D01*
X136779298Y-85949901D01*
X137013452Y-86027535D01*
X137031500Y-86033164D01*
X137100348Y-86053987D01*
X137176581Y-86076095D01*
X137257097Y-86098684D01*
X137338796Y-86120951D01*
X137418579Y-86142094D01*
X137493343Y-86161309D01*
X137559989Y-86177795D01*
X137615416Y-86190747D01*
X137656524Y-86199364D01*
X137680212Y-86202841D01*
X137684669Y-86202301D01*
X137689475Y-86188430D01*
X137696977Y-86157156D01*
X137705952Y-86113834D01*
X137711356Y-86085273D01*
X137724462Y-86023924D01*
X137742534Y-85952675D01*
X137762502Y-85883276D01*
X137771256Y-85855882D01*
X137811093Y-85736173D01*
X137809078Y-85731736D01*
X140187715Y-85731736D01*
X140224028Y-85841244D01*
X140244940Y-85908541D01*
X140264527Y-85979266D01*
X140281511Y-86048020D01*
X140294618Y-86109401D01*
X140302571Y-86158011D01*
X140304386Y-86181301D01*
X140307638Y-86204155D01*
X140319280Y-86209081D01*
X140324841Y-86207791D01*
X140342821Y-86202968D01*
X140378686Y-86193763D01*
X140427904Y-86181327D01*
X140485942Y-86166807D01*
X140512454Y-86160216D01*
X140763100Y-86094106D01*
X141000962Y-86023487D01*
X141225116Y-85948828D01*
X141434641Y-85870599D01*
X141628614Y-85789271D01*
X141806113Y-85705311D01*
X141966216Y-85619190D01*
X142108001Y-85531377D01*
X142230545Y-85442341D01*
X142332927Y-85352553D01*
X142414223Y-85262482D01*
X142473511Y-85172596D01*
X142480994Y-85158060D01*
X142502829Y-85111304D01*
X142516532Y-85072763D01*
X142524475Y-85033013D01*
X142529027Y-84982632D01*
X142530161Y-84962596D01*
X142525184Y-84839396D01*
X142497675Y-84718093D01*
X142448182Y-84599913D01*
X142377254Y-84486079D01*
X142285439Y-84377816D01*
X142254250Y-84346936D01*
X142145360Y-84255110D01*
X142031263Y-84181317D01*
X141914113Y-84126285D01*
X141796064Y-84090743D01*
X141679268Y-84075421D01*
X141565881Y-84081048D01*
X141505364Y-84093438D01*
X141393310Y-84134032D01*
X141278736Y-84196846D01*
X141162206Y-84281216D01*
X141044283Y-84386476D01*
X140925533Y-84511964D01*
X140806520Y-84657014D01*
X140687807Y-84820963D01*
X140569960Y-85003146D01*
X140453542Y-85202899D01*
X140339118Y-85419558D01*
X140284575Y-85530391D01*
X140187715Y-85731736D01*
X137809078Y-85731736D01*
X137757951Y-85619200D01*
X137655032Y-85403905D01*
X137547824Y-85201117D01*
X137437149Y-85011828D01*
X137323828Y-84837030D01*
X137208682Y-84677714D01*
X137092532Y-84534873D01*
X136976200Y-84409498D01*
X136860506Y-84302582D01*
X136746273Y-84215115D01*
X136634320Y-84148091D01*
X136525470Y-84102500D01*
X136494636Y-84093438D01*
X136384062Y-84075901D01*
X136268887Y-84079716D01*
X136151266Y-84104154D01*
X136033352Y-84148486D01*
X135917299Y-84211983D01*
X135805260Y-84293916D01*
X135745750Y-84346936D01*
X135647717Y-84453518D01*
X135570432Y-84566197D01*
X135514441Y-84683761D01*
X135480290Y-84804999D01*
X135468525Y-84928698D01*
X135412710Y-84928698D01*
X135411675Y-84909826D01*
X135424909Y-84797277D01*
X135456681Y-84684172D01*
X135506264Y-84572512D01*
X135572929Y-84464294D01*
X135655948Y-84361519D01*
X135754595Y-84266185D01*
X135868142Y-84180291D01*
X135871182Y-84178271D01*
X135996469Y-84105441D01*
X136119546Y-84054719D01*
X136241019Y-84026203D01*
X136361491Y-84019991D01*
X136481568Y-84036180D01*
X136601854Y-84074869D01*
X136722954Y-84136155D01*
X136845472Y-84220138D01*
X136970013Y-84326913D01*
X137006715Y-84362274D01*
X137123336Y-84485504D01*
X137236410Y-84621933D01*
X137347122Y-84773333D01*
X137456661Y-84941473D01*
X137566214Y-85128125D01*
X137676968Y-85335058D01*
X137730855Y-85442009D01*
X137843875Y-85670426D01*
X137890709Y-85580554D01*
X137921505Y-85526225D01*
X137959413Y-85466059D01*
X137996845Y-85412031D01*
X138001184Y-85406212D01*
X138064825Y-85321741D01*
X138037249Y-85284984D01*
X137978967Y-85188878D01*
X137938062Y-85081090D01*
X137916267Y-84966923D01*
X137913055Y-84905066D01*
X137913459Y-84895419D01*
X137964040Y-84895419D01*
X137973846Y-85004092D01*
X138004554Y-85109498D01*
X138055071Y-85210166D01*
X138124304Y-85304621D01*
X138211160Y-85391391D01*
X138314544Y-85469002D01*
X138433365Y-85535983D01*
X138566528Y-85590859D01*
X138576997Y-85594423D01*
X138656852Y-85618909D01*
X138731998Y-85636303D01*
X138808715Y-85647415D01*
X138893290Y-85653053D01*
X138992003Y-85654028D01*
X139034636Y-85653341D01*
X139112848Y-85651127D01*
X139174050Y-85647841D01*
X139224321Y-85642791D01*
X139269739Y-85635286D01*
X139316383Y-85624634D01*
X139339248Y-85618667D01*
X139480280Y-85572409D01*
X139607990Y-85513494D01*
X139721255Y-85443288D01*
X139818952Y-85363159D01*
X139899960Y-85274475D01*
X139963155Y-85178601D01*
X140007416Y-85076906D01*
X140031619Y-84970757D01*
X140034643Y-84861520D01*
X140023770Y-84784954D01*
X139988557Y-84673780D01*
X139932382Y-84569313D01*
X139856726Y-84472836D01*
X139763074Y-84385635D01*
X139652907Y-84308997D01*
X139527709Y-84244206D01*
X139388962Y-84192548D01*
X139317435Y-84172657D01*
X139265651Y-84160373D01*
X139220998Y-84151717D01*
X139177290Y-84146071D01*
X139128345Y-84142820D01*
X139067978Y-84141348D01*
X139000000Y-84141035D01*
X138924172Y-84141454D01*
X138865222Y-84143121D01*
X138816945Y-84146649D01*
X138773138Y-84152654D01*
X138727596Y-84161749D01*
X138682500Y-84172464D01*
X138537806Y-84217080D01*
X138405922Y-84275533D01*
X138288332Y-84346534D01*
X138186518Y-84428798D01*
X138101965Y-84521038D01*
X138036156Y-84621968D01*
X137990574Y-84730302D01*
X137976230Y-84784954D01*
X137964040Y-84895419D01*
X137913459Y-84895419D01*
X137916615Y-84820109D01*
X137929268Y-84745900D01*
X137953329Y-84672422D01*
X137981455Y-84609279D01*
X138019793Y-84544292D01*
X138072801Y-84474153D01*
X138135018Y-84405016D01*
X138200982Y-84343036D01*
X138254621Y-84301468D01*
X138318123Y-84257732D01*
X138288693Y-84210343D01*
X138224618Y-84087960D01*
X138184192Y-83972455D01*
X138172388Y-83909787D01*
X138165198Y-83831715D01*
X138162617Y-83745462D01*
X138164642Y-83658249D01*
X138171267Y-83577298D01*
X138182490Y-83509829D01*
X138184453Y-83501771D01*
X138205952Y-83417860D01*
X138176192Y-83394450D01*
X138144897Y-83356554D01*
X138131127Y-83310078D01*
X138132270Y-83293355D01*
X138180273Y-83293355D01*
X138189793Y-83320115D01*
X138213029Y-83347132D01*
X138241995Y-83366780D01*
X138262708Y-83372091D01*
X138289388Y-83364409D01*
X138315188Y-83346988D01*
X138336956Y-83313487D01*
X138340001Y-83277009D01*
X138326694Y-83243629D01*
X138299404Y-83219423D01*
X138261929Y-83210455D01*
X138228815Y-83220588D01*
X138199759Y-83245871D01*
X138182319Y-83278631D01*
X138180273Y-83293355D01*
X138132270Y-83293355D01*
X138134482Y-83260995D01*
X138154561Y-83215281D01*
X138190639Y-83179127D01*
X138235769Y-83157224D01*
X138280150Y-83155593D01*
X138324840Y-83170938D01*
X138360827Y-83199189D01*
X138387568Y-83241053D01*
X138399436Y-83287339D01*
X138399593Y-83293018D01*
X138389292Y-83335048D01*
X138362265Y-83375474D01*
X138324138Y-83406889D01*
X138306671Y-83415417D01*
X138278105Y-83429314D01*
X138260289Y-83447830D01*
X138246674Y-83478772D01*
X138242249Y-83492216D01*
X138230692Y-83544140D01*
X138222568Y-83612171D01*
X138218052Y-83689554D01*
X138217322Y-83769535D01*
X138220553Y-83845360D01*
X138227923Y-83910275D01*
X138230896Y-83926273D01*
X138242704Y-83969706D01*
X138260960Y-84021690D01*
X138283226Y-84076706D01*
X138307064Y-84129238D01*
X138330036Y-84173769D01*
X138349702Y-84204781D01*
X138358025Y-84213911D01*
X138376069Y-84215922D01*
X138412586Y-84206792D01*
X138468325Y-84186330D01*
X138471124Y-84185209D01*
X138643658Y-84128002D01*
X138818957Y-84093434D01*
X138995575Y-84081505D01*
X139172062Y-84092214D01*
X139346972Y-84125560D01*
X139518857Y-84181543D01*
X139529286Y-84185721D01*
X139629227Y-84226196D01*
X139652693Y-84197536D01*
X139675511Y-84166002D01*
X139706046Y-84118665D01*
X139741548Y-84060305D01*
X139779269Y-83995701D01*
X139816461Y-83929633D01*
X139850376Y-83866882D01*
X139878263Y-83812228D01*
X139894974Y-83776182D01*
X139952283Y-83615435D01*
X139993139Y-83441550D01*
X140017692Y-83257437D01*
X140026091Y-83066006D01*
X140018488Y-82870166D01*
X139995032Y-82672826D01*
X139955874Y-82476897D01*
X139901163Y-82285288D01*
X139831050Y-82100908D01*
X139805599Y-82044364D01*
X139782039Y-81994997D01*
X139764405Y-81962296D01*
X139749165Y-81941861D01*
X139732786Y-81929291D01*
X139711739Y-81920188D01*
X139703660Y-81917364D01*
X139659252Y-81893175D01*
X139624129Y-81857209D01*
X139603562Y-81815794D01*
X139600364Y-81793288D01*
X139604074Y-81775694D01*
X139659665Y-81775694D01*
X139662521Y-81811046D01*
X139683492Y-81842990D01*
X139688511Y-81847253D01*
X139725237Y-81867768D01*
X139758193Y-81866362D01*
X139791365Y-81842866D01*
X139791388Y-81842843D01*
X139814899Y-81809669D01*
X139816319Y-81776715D01*
X139795819Y-81739993D01*
X139795798Y-81739966D01*
X139763930Y-81714496D01*
X139738071Y-81709546D01*
X139699613Y-81718908D01*
X139672753Y-81742969D01*
X139659665Y-81775694D01*
X139604074Y-81775694D01*
X139611034Y-81742695D01*
X139639695Y-81698985D01*
X139681320Y-81667184D01*
X139730884Y-81652318D01*
X139741833Y-81651819D01*
X139781124Y-81661728D01*
G37*
X139781124Y-81661728D02*
X139820066Y-81687377D01*
X139850866Y-81722650D01*
X139862381Y-81746443D01*
X139869381Y-81796169D01*
X139860040Y-81844164D01*
X139836291Y-81882547D01*
X139826963Y-81890772D01*
X139800557Y-81910690D01*
X139860848Y-82038141D01*
X139942059Y-82234093D01*
X140003933Y-82438313D01*
X140046800Y-82652394D01*
X140070993Y-82877926D01*
X140077124Y-83077682D01*
X140073712Y-83224672D01*
X140063437Y-83354827D01*
X140045563Y-83473574D01*
X140019354Y-83586342D01*
X139998815Y-83654955D01*
X139968368Y-83736987D01*
X139926952Y-83830997D01*
X139877686Y-83930665D01*
X139823684Y-84029672D01*
X139770857Y-84117323D01*
X139741321Y-84163729D01*
X139716056Y-84203479D01*
X139697810Y-84232246D01*
X139689434Y-84245534D01*
X139694321Y-84257729D01*
X139714538Y-84277895D01*
X139745386Y-84301472D01*
X139810309Y-84352845D01*
X139876016Y-84416479D01*
X139937047Y-84486221D01*
X139987937Y-84555915D01*
X140018545Y-84609279D01*
X140053095Y-84689128D01*
X140074433Y-84761905D01*
X140084874Y-84837629D01*
X140086945Y-84905066D01*
X140076086Y-85020467D01*
X140045188Y-85132328D01*
X139995987Y-85235343D01*
X139962750Y-85284984D01*
X139935175Y-85321741D01*
X139996225Y-85402894D01*
X140032255Y-85454242D01*
X140070613Y-85514339D01*
X140103634Y-85571117D01*
X140106810Y-85577014D01*
X140156345Y-85669982D01*
X140269255Y-85441786D01*
X140379742Y-85226784D01*
X140488243Y-85032834D01*
X140595982Y-84858121D01*
X140704185Y-84700830D01*
X140814075Y-84559147D01*
X140926878Y-84431257D01*
X141004467Y-84352605D01*
X141128950Y-84241502D01*
X141250200Y-84152962D01*
X141369160Y-84086836D01*
X141486770Y-84042977D01*
X141603972Y-84021236D01*
X141721707Y-84021466D01*
X141840917Y-84043519D01*
X141962542Y-84087246D01*
X142087524Y-84152499D01*
X142125835Y-84176265D01*
X142238046Y-84258565D01*
X142336093Y-84351205D01*
X142419199Y-84452068D01*
X142486591Y-84559035D01*
X142537492Y-84669990D01*
X142571127Y-84782815D01*
X142586721Y-84895393D01*
X142583499Y-85005605D01*
X142560685Y-85111335D01*
X142517504Y-85210464D01*
X142509522Y-85224138D01*
X142467783Y-85282863D01*
X142410567Y-85348425D01*
X142342435Y-85416194D01*
X142267951Y-85481537D01*
X142215409Y-85522663D01*
X142176019Y-85551978D01*
X142144162Y-85575822D01*
X142123999Y-85591072D01*
X142119139Y-85594895D01*
X142125036Y-85603996D01*
X142144107Y-85625315D01*
X142172877Y-85655066D01*
X142189509Y-85671619D01*
X142257910Y-85753170D01*
X142316458Y-85851565D01*
X142363304Y-85961991D01*
X142396598Y-86079634D01*
X142414493Y-86199678D01*
X142417102Y-86264228D01*
X142408130Y-86381577D01*
X142382350Y-86492330D01*
X142341250Y-86593721D01*
X142286317Y-86682986D01*
X142219038Y-86757360D01*
X142140903Y-86814077D01*
X142113719Y-86828107D01*
X142009087Y-86865839D01*
X141886866Y-86889603D01*
X141747784Y-86899491D01*
X141592566Y-86895596D01*
X141421940Y-86878011D01*
X141236633Y-86846829D01*
X141037372Y-86802142D01*
X140824883Y-86744044D01*
X140599893Y-86672626D01*
X140430663Y-86613046D01*
X140320008Y-86572564D01*
X140295866Y-86718578D01*
X140253030Y-86913354D01*
X140190764Y-87095947D01*
X140108640Y-87267293D01*
X140006231Y-87428329D01*
X139923258Y-87534228D01*
X139814822Y-87647279D01*
X139693857Y-87746765D01*
X139563822Y-87830581D01*
X139428175Y-87896622D01*
X139290374Y-87942784D01*
X139229531Y-87956334D01*
X139189546Y-87963931D01*
X139158226Y-87970106D01*
X139143514Y-87973255D01*
X139135688Y-87984969D01*
X139123584Y-88014497D01*
X139108873Y-88057339D01*
X139093667Y-88107452D01*
X139076809Y-88166365D01*
X139060376Y-88223781D01*
X139046500Y-88272257D01*
X139038811Y-88299114D01*
X139025628Y-88336932D01*
X139012258Y-88355729D01*
X139000000Y-88359728D01*
X138984712Y-88353083D01*
X138971596Y-88330514D01*
X138961189Y-88299114D01*
X138950794Y-88262807D01*
X138936178Y-88211743D01*
X138919471Y-88153364D01*
X138906333Y-88107452D01*
X138890689Y-88055982D01*
X138876029Y-88013455D01*
X138864023Y-87984371D01*
X138856485Y-87973255D01*
X138839344Y-87969615D01*
X138806870Y-87963240D01*
X138770469Y-87956334D01*
X138632814Y-87919651D01*
X138495781Y-87862154D01*
X138362825Y-87785947D01*
X138237404Y-87693133D01*
X138122974Y-87585815D01*
X138076731Y-87534228D01*
X137960970Y-87380330D01*
X137864743Y-87214564D01*
X137787917Y-87036622D01*
X137780414Y-87011796D01*
X137834015Y-87011796D01*
X137839372Y-87030696D01*
X137853819Y-87065300D01*
X137875126Y-87111187D01*
X137901067Y-87163934D01*
X137929412Y-87219118D01*
X137957934Y-87272316D01*
X137984405Y-87319106D01*
X138006597Y-87355066D01*
X138008015Y-87357185D01*
X138041421Y-87404438D01*
X138079128Y-87454363D01*
X138108646Y-87490932D01*
X138159987Y-87551546D01*
X139841033Y-87551546D01*
X139892441Y-87490932D01*
X139938430Y-87432196D01*
X139986502Y-87362985D01*
X140033888Y-87288071D01*
X140077819Y-87212231D01*
X140115523Y-87140238D01*
X140144233Y-87076867D01*
X140160841Y-87028255D01*
X140168594Y-86997364D01*
X139001251Y-86997364D01*
X138804356Y-86997416D01*
X138629430Y-86997583D01*
X138475352Y-86997878D01*
X138341000Y-86998316D01*
X138225254Y-86998909D01*
X138126991Y-86999671D01*
X138045090Y-87000618D01*
X137978430Y-87001762D01*
X137925889Y-87003117D01*
X137886347Y-87004698D01*
X137858681Y-87006517D01*
X137841771Y-87008590D01*
X137834494Y-87010930D01*
X137834015Y-87011796D01*
X137780414Y-87011796D01*
X137730360Y-86846195D01*
X137691941Y-86642973D01*
X137689637Y-86625739D01*
X137682618Y-86571614D01*
X137570650Y-86612882D01*
X137370135Y-86683029D01*
X137174241Y-86744185D01*
X136985000Y-86795944D01*
X136804445Y-86837898D01*
X136634607Y-86869639D01*
X136477521Y-86890760D01*
X136335217Y-86900853D01*
X136209729Y-86899511D01*
X136161686Y-86895344D01*
X136037910Y-86875638D01*
X135933391Y-86846125D01*
X135845897Y-86805450D01*
X135773197Y-86752259D01*
X135713059Y-86685198D01*
X135663253Y-86602914D01*
X135656254Y-86588582D01*
X135614305Y-86481123D01*
X135591058Y-86372110D01*
X135588525Y-86320836D01*
X135642626Y-86320836D01*
X135650949Y-86403928D01*
X135669686Y-86480954D01*
X135700217Y-86559775D01*
X135703636Y-86567326D01*
X135743730Y-86634464D01*
X135798466Y-86697768D01*
X135861279Y-86750591D01*
X135915738Y-86782114D01*
X136006610Y-86813382D01*
X136115022Y-86834294D01*
X136237756Y-86844603D01*
X136371592Y-86844064D01*
X136513309Y-86832430D01*
X136536022Y-86829585D01*
X136747840Y-86794568D01*
X136973675Y-86743379D01*
X137211572Y-86676523D01*
X137459575Y-86594501D01*
X137489038Y-86583982D01*
X137674809Y-86517150D01*
X137679079Y-86390773D01*
X137730000Y-86390773D01*
X137730000Y-86454728D01*
X140273528Y-86454728D01*
X140266408Y-86330287D01*
X140260547Y-86263060D01*
X140316252Y-86263060D01*
X140321954Y-86512174D01*
X140368136Y-86530811D01*
X140439484Y-86558222D01*
X140526724Y-86589564D01*
X140623473Y-86622685D01*
X140723350Y-86655429D01*
X140819972Y-86685644D01*
X140878735Y-86703118D01*
X141093291Y-86760255D01*
X141292609Y-86802908D01*
X141476182Y-86831017D01*
X141643500Y-86844517D01*
X141794056Y-86843349D01*
X141916290Y-86829447D01*
X142012927Y-86807479D01*
X142091872Y-86777436D01*
X142157765Y-86737114D01*
X142209942Y-86690006D01*
X142274118Y-86607281D01*
X142319819Y-86513726D01*
X142347495Y-86407928D01*
X142357597Y-86288470D01*
X142356526Y-86229811D01*
X142340665Y-86088035D01*
X142306955Y-85960390D01*
X142255506Y-85847166D01*
X142186427Y-85748656D01*
X142170098Y-85730306D01*
X142127268Y-85685713D01*
X142094795Y-85657447D01*
X142068600Y-85643813D01*
X142044605Y-85643112D01*
X142018734Y-85653650D01*
X142005226Y-85661713D01*
X141958944Y-85688662D01*
X141895930Y-85722084D01*
X141820825Y-85759719D01*
X141738272Y-85799303D01*
X141652912Y-85838574D01*
X141569387Y-85875271D01*
X141550619Y-85883239D01*
X141457139Y-85920633D01*
X141346529Y-85961571D01*
X141223166Y-86004679D01*
X141091430Y-86048584D01*
X140955698Y-86091912D01*
X140820349Y-86133289D01*
X140689763Y-86171341D01*
X140568317Y-86204694D01*
X140460390Y-86231975D01*
X140385859Y-86248683D01*
X140316252Y-86263060D01*
X140260547Y-86263060D01*
X140259747Y-86253895D01*
X140248535Y-86167625D01*
X140234147Y-86079964D01*
X140217961Y-85999400D01*
X140203276Y-85940955D01*
X140193293Y-85906319D01*
X137805696Y-85906319D01*
X137779732Y-86010228D01*
X137760890Y-86098477D01*
X137745499Y-86195531D01*
X137734820Y-86291740D01*
X137730115Y-86377451D01*
X137730000Y-86390773D01*
X137679079Y-86390773D01*
X137683355Y-86264228D01*
X137565246Y-86236895D01*
X137498203Y-86220410D01*
X137414263Y-86198273D01*
X137318492Y-86171947D01*
X137215960Y-86142901D01*
X137111733Y-86112598D01*
X137010881Y-86082507D01*
X136918470Y-86054092D01*
X136839569Y-86028820D01*
X136800591Y-86015696D01*
X136676818Y-85971175D01*
X136551015Y-85922730D01*
X136427016Y-85872035D01*
X136308655Y-85820767D01*
X136199765Y-85770601D01*
X136104180Y-85723212D01*
X136025735Y-85680275D01*
X136006185Y-85668554D01*
X135972853Y-85649909D01*
X135946470Y-85642358D01*
X135921874Y-85647357D01*
X135893904Y-85666363D01*
X135857397Y-85700832D01*
X135844130Y-85714282D01*
X135767283Y-85809128D01*
X135708642Y-85918026D01*
X135668325Y-86040673D01*
X135646453Y-86176766D01*
X135643336Y-86223819D01*
X135642626Y-86320836D01*
X135588525Y-86320836D01*
X135585266Y-86254894D01*
X135586693Y-86218046D01*
X135603868Y-86080679D01*
X135638812Y-85952052D01*
X135690427Y-85834840D01*
X135757615Y-85731716D01*
X135811015Y-85671619D01*
X135843100Y-85639059D01*
X135867208Y-85613101D01*
X135879873Y-85597552D01*
X135880861Y-85594895D01*
X135870500Y-85586909D01*
X135845711Y-85568322D01*
X135810646Y-85542238D01*
X135783911Y-85522438D01*
X135707269Y-85461203D01*
X135633882Y-85394100D01*
X135568395Y-85325854D01*
X135515453Y-85261184D01*
X135490478Y-85224148D01*
X135443731Y-85125261D01*
X135417706Y-85019820D01*
X135412710Y-84928698D01*
X135468525Y-84928698D01*
X135469169Y-84960394D01*
X135472559Y-85015291D01*
X135478635Y-85056568D01*
X135489764Y-85093692D01*
X135508315Y-85136134D01*
X135518186Y-85156403D01*
X135574973Y-85248295D01*
X135654171Y-85340169D01*
X135755105Y-85431635D01*
X135877099Y-85522299D01*
X136019476Y-85611771D01*
X136181560Y-85699659D01*
X136362676Y-85785571D01*
X136562148Y-85869116D01*
X136779298Y-85949901D01*
X137013452Y-86027535D01*
X137031500Y-86033164D01*
X137100348Y-86053987D01*
X137176581Y-86076095D01*
X137257097Y-86098684D01*
X137338796Y-86120951D01*
X137418579Y-86142094D01*
X137493343Y-86161309D01*
X137559989Y-86177795D01*
X137615416Y-86190747D01*
X137656524Y-86199364D01*
X137680212Y-86202841D01*
X137684669Y-86202301D01*
X137689475Y-86188430D01*
X137696977Y-86157156D01*
X137705952Y-86113834D01*
X137711356Y-86085273D01*
X137724462Y-86023924D01*
X137742534Y-85952675D01*
X137762502Y-85883276D01*
X137771256Y-85855882D01*
X137811093Y-85736173D01*
X137809078Y-85731736D01*
X140187715Y-85731736D01*
X140224028Y-85841244D01*
X140244940Y-85908541D01*
X140264527Y-85979266D01*
X140281511Y-86048020D01*
X140294618Y-86109401D01*
X140302571Y-86158011D01*
X140304386Y-86181301D01*
X140307638Y-86204155D01*
X140319280Y-86209081D01*
X140324841Y-86207791D01*
X140342821Y-86202968D01*
X140378686Y-86193763D01*
X140427904Y-86181327D01*
X140485942Y-86166807D01*
X140512454Y-86160216D01*
X140763100Y-86094106D01*
X141000962Y-86023487D01*
X141225116Y-85948828D01*
X141434641Y-85870599D01*
X141628614Y-85789271D01*
X141806113Y-85705311D01*
X141966216Y-85619190D01*
X142108001Y-85531377D01*
X142230545Y-85442341D01*
X142332927Y-85352553D01*
X142414223Y-85262482D01*
X142473511Y-85172596D01*
X142480994Y-85158060D01*
X142502829Y-85111304D01*
X142516532Y-85072763D01*
X142524475Y-85033013D01*
X142529027Y-84982632D01*
X142530161Y-84962596D01*
X142525184Y-84839396D01*
X142497675Y-84718093D01*
X142448182Y-84599913D01*
X142377254Y-84486079D01*
X142285439Y-84377816D01*
X142254250Y-84346936D01*
X142145360Y-84255110D01*
X142031263Y-84181317D01*
X141914113Y-84126285D01*
X141796064Y-84090743D01*
X141679268Y-84075421D01*
X141565881Y-84081048D01*
X141505364Y-84093438D01*
X141393310Y-84134032D01*
X141278736Y-84196846D01*
X141162206Y-84281216D01*
X141044283Y-84386476D01*
X140925533Y-84511964D01*
X140806520Y-84657014D01*
X140687807Y-84820963D01*
X140569960Y-85003146D01*
X140453542Y-85202899D01*
X140339118Y-85419558D01*
X140284575Y-85530391D01*
X140187715Y-85731736D01*
X137809078Y-85731736D01*
X137757951Y-85619200D01*
X137655032Y-85403905D01*
X137547824Y-85201117D01*
X137437149Y-85011828D01*
X137323828Y-84837030D01*
X137208682Y-84677714D01*
X137092532Y-84534873D01*
X136976200Y-84409498D01*
X136860506Y-84302582D01*
X136746273Y-84215115D01*
X136634320Y-84148091D01*
X136525470Y-84102500D01*
X136494636Y-84093438D01*
X136384062Y-84075901D01*
X136268887Y-84079716D01*
X136151266Y-84104154D01*
X136033352Y-84148486D01*
X135917299Y-84211983D01*
X135805260Y-84293916D01*
X135745750Y-84346936D01*
X135647717Y-84453518D01*
X135570432Y-84566197D01*
X135514441Y-84683761D01*
X135480290Y-84804999D01*
X135468525Y-84928698D01*
X135412710Y-84928698D01*
X135411675Y-84909826D01*
X135424909Y-84797277D01*
X135456681Y-84684172D01*
X135506264Y-84572512D01*
X135572929Y-84464294D01*
X135655948Y-84361519D01*
X135754595Y-84266185D01*
X135868142Y-84180291D01*
X135871182Y-84178271D01*
X135996469Y-84105441D01*
X136119546Y-84054719D01*
X136241019Y-84026203D01*
X136361491Y-84019991D01*
X136481568Y-84036180D01*
X136601854Y-84074869D01*
X136722954Y-84136155D01*
X136845472Y-84220138D01*
X136970013Y-84326913D01*
X137006715Y-84362274D01*
X137123336Y-84485504D01*
X137236410Y-84621933D01*
X137347122Y-84773333D01*
X137456661Y-84941473D01*
X137566214Y-85128125D01*
X137676968Y-85335058D01*
X137730855Y-85442009D01*
X137843875Y-85670426D01*
X137890709Y-85580554D01*
X137921505Y-85526225D01*
X137959413Y-85466059D01*
X137996845Y-85412031D01*
X138001184Y-85406212D01*
X138064825Y-85321741D01*
X138037249Y-85284984D01*
X137978967Y-85188878D01*
X137938062Y-85081090D01*
X137916267Y-84966923D01*
X137913055Y-84905066D01*
X137913459Y-84895419D01*
X137964040Y-84895419D01*
X137973846Y-85004092D01*
X138004554Y-85109498D01*
X138055071Y-85210166D01*
X138124304Y-85304621D01*
X138211160Y-85391391D01*
X138314544Y-85469002D01*
X138433365Y-85535983D01*
X138566528Y-85590859D01*
X138576997Y-85594423D01*
X138656852Y-85618909D01*
X138731998Y-85636303D01*
X138808715Y-85647415D01*
X138893290Y-85653053D01*
X138992003Y-85654028D01*
X139034636Y-85653341D01*
X139112848Y-85651127D01*
X139174050Y-85647841D01*
X139224321Y-85642791D01*
X139269739Y-85635286D01*
X139316383Y-85624634D01*
X139339248Y-85618667D01*
X139480280Y-85572409D01*
X139607990Y-85513494D01*
X139721255Y-85443288D01*
X139818952Y-85363159D01*
X139899960Y-85274475D01*
X139963155Y-85178601D01*
X140007416Y-85076906D01*
X140031619Y-84970757D01*
X140034643Y-84861520D01*
X140023770Y-84784954D01*
X139988557Y-84673780D01*
X139932382Y-84569313D01*
X139856726Y-84472836D01*
X139763074Y-84385635D01*
X139652907Y-84308997D01*
X139527709Y-84244206D01*
X139388962Y-84192548D01*
X139317435Y-84172657D01*
X139265651Y-84160373D01*
X139220998Y-84151717D01*
X139177290Y-84146071D01*
X139128345Y-84142820D01*
X139067978Y-84141348D01*
X139000000Y-84141035D01*
X138924172Y-84141454D01*
X138865222Y-84143121D01*
X138816945Y-84146649D01*
X138773138Y-84152654D01*
X138727596Y-84161749D01*
X138682500Y-84172464D01*
X138537806Y-84217080D01*
X138405922Y-84275533D01*
X138288332Y-84346534D01*
X138186518Y-84428798D01*
X138101965Y-84521038D01*
X138036156Y-84621968D01*
X137990574Y-84730302D01*
X137976230Y-84784954D01*
X137964040Y-84895419D01*
X137913459Y-84895419D01*
X137916615Y-84820109D01*
X137929268Y-84745900D01*
X137953329Y-84672422D01*
X137981455Y-84609279D01*
X138019793Y-84544292D01*
X138072801Y-84474153D01*
X138135018Y-84405016D01*
X138200982Y-84343036D01*
X138254621Y-84301468D01*
X138318123Y-84257732D01*
X138288693Y-84210343D01*
X138224618Y-84087960D01*
X138184192Y-83972455D01*
X138172388Y-83909787D01*
X138165198Y-83831715D01*
X138162617Y-83745462D01*
X138164642Y-83658249D01*
X138171267Y-83577298D01*
X138182490Y-83509829D01*
X138184453Y-83501771D01*
X138205952Y-83417860D01*
X138176192Y-83394450D01*
X138144897Y-83356554D01*
X138131127Y-83310078D01*
X138132270Y-83293355D01*
X138180273Y-83293355D01*
X138189793Y-83320115D01*
X138213029Y-83347132D01*
X138241995Y-83366780D01*
X138262708Y-83372091D01*
X138289388Y-83364409D01*
X138315188Y-83346988D01*
X138336956Y-83313487D01*
X138340001Y-83277009D01*
X138326694Y-83243629D01*
X138299404Y-83219423D01*
X138261929Y-83210455D01*
X138228815Y-83220588D01*
X138199759Y-83245871D01*
X138182319Y-83278631D01*
X138180273Y-83293355D01*
X138132270Y-83293355D01*
X138134482Y-83260995D01*
X138154561Y-83215281D01*
X138190639Y-83179127D01*
X138235769Y-83157224D01*
X138280150Y-83155593D01*
X138324840Y-83170938D01*
X138360827Y-83199189D01*
X138387568Y-83241053D01*
X138399436Y-83287339D01*
X138399593Y-83293018D01*
X138389292Y-83335048D01*
X138362265Y-83375474D01*
X138324138Y-83406889D01*
X138306671Y-83415417D01*
X138278105Y-83429314D01*
X138260289Y-83447830D01*
X138246674Y-83478772D01*
X138242249Y-83492216D01*
X138230692Y-83544140D01*
X138222568Y-83612171D01*
X138218052Y-83689554D01*
X138217322Y-83769535D01*
X138220553Y-83845360D01*
X138227923Y-83910275D01*
X138230896Y-83926273D01*
X138242704Y-83969706D01*
X138260960Y-84021690D01*
X138283226Y-84076706D01*
X138307064Y-84129238D01*
X138330036Y-84173769D01*
X138349702Y-84204781D01*
X138358025Y-84213911D01*
X138376069Y-84215922D01*
X138412586Y-84206792D01*
X138468325Y-84186330D01*
X138471124Y-84185209D01*
X138643658Y-84128002D01*
X138818957Y-84093434D01*
X138995575Y-84081505D01*
X139172062Y-84092214D01*
X139346972Y-84125560D01*
X139518857Y-84181543D01*
X139529286Y-84185721D01*
X139629227Y-84226196D01*
X139652693Y-84197536D01*
X139675511Y-84166002D01*
X139706046Y-84118665D01*
X139741548Y-84060305D01*
X139779269Y-83995701D01*
X139816461Y-83929633D01*
X139850376Y-83866882D01*
X139878263Y-83812228D01*
X139894974Y-83776182D01*
X139952283Y-83615435D01*
X139993139Y-83441550D01*
X140017692Y-83257437D01*
X140026091Y-83066006D01*
X140018488Y-82870166D01*
X139995032Y-82672826D01*
X139955874Y-82476897D01*
X139901163Y-82285288D01*
X139831050Y-82100908D01*
X139805599Y-82044364D01*
X139782039Y-81994997D01*
X139764405Y-81962296D01*
X139749165Y-81941861D01*
X139732786Y-81929291D01*
X139711739Y-81920188D01*
X139703660Y-81917364D01*
X139659252Y-81893175D01*
X139624129Y-81857209D01*
X139603562Y-81815794D01*
X139600364Y-81793288D01*
X139604074Y-81775694D01*
X139659665Y-81775694D01*
X139662521Y-81811046D01*
X139683492Y-81842990D01*
X139688511Y-81847253D01*
X139725237Y-81867768D01*
X139758193Y-81866362D01*
X139791365Y-81842866D01*
X139791388Y-81842843D01*
X139814899Y-81809669D01*
X139816319Y-81776715D01*
X139795819Y-81739993D01*
X139795798Y-81739966D01*
X139763930Y-81714496D01*
X139738071Y-81709546D01*
X139699613Y-81718908D01*
X139672753Y-81742969D01*
X139659665Y-81775694D01*
X139604074Y-81775694D01*
X139611034Y-81742695D01*
X139639695Y-81698985D01*
X139681320Y-81667184D01*
X139730884Y-81652318D01*
X139741833Y-81651819D01*
X139781124Y-81661728D01*
D10*
%TO.C,R5*%
X131420000Y-86420000D02*
X131420000Y-85940000D01*
X121280000Y-86420000D02*
X131420000Y-86420000D01*
X121280000Y-85940000D02*
X121280000Y-86420000D01*
X131420000Y-82580000D02*
X131420000Y-83060000D01*
X121280000Y-82580000D02*
X131420000Y-82580000D01*
X121280000Y-83060000D02*
X121280000Y-82580000D01*
%TO.C,D2*%
X108710000Y-91080000D02*
X108710000Y-91236000D01*
X108710000Y-88764000D02*
X108710000Y-88920000D01*
X111311130Y-91079837D02*
G75*
G02*
X109229039Y-91080000I-1041130J1079837D01*
G01*
X111311130Y-88920163D02*
G75*
G03*
X109229039Y-88920000I-1041130J-1079837D01*
G01*
X111942335Y-91078608D02*
G75*
G02*
X108710000Y-91235516I-1672335J1078608D01*
G01*
X111942335Y-88921392D02*
G75*
G03*
X108710000Y-88764484I-1672335J-1078608D01*
G01*
%TO.C,D1*%
X135250000Y-120720000D02*
X135250000Y-115280000D01*
X135250000Y-115280000D02*
X125510000Y-115280000D01*
X125510000Y-115280000D02*
X125510000Y-120720000D01*
X125510000Y-120720000D02*
X135250000Y-120720000D01*
X136160000Y-118000000D02*
X135250000Y-118000000D01*
X124600000Y-118000000D02*
X125510000Y-118000000D01*
X133705000Y-120720000D02*
X133705000Y-115280000D01*
X133585000Y-120720000D02*
X133585000Y-115280000D01*
X133825000Y-120720000D02*
X133825000Y-115280000D01*
%TO.C,U1*%
X133560000Y-88170000D02*
X132310000Y-88170000D01*
X133560000Y-98450000D02*
X133560000Y-88170000D01*
X129060000Y-98450000D02*
X133560000Y-98450000D01*
X129060000Y-88170000D02*
X129060000Y-98450000D01*
X130310000Y-88170000D02*
X129060000Y-88170000D01*
X132310000Y-88170000D02*
G75*
G02*
X130310000Y-88170000I-1000000J0D01*
G01*
%TO.C,R1*%
X133920000Y-103420000D02*
X133920000Y-102940000D01*
X123780000Y-103420000D02*
X133920000Y-103420000D01*
X123780000Y-102940000D02*
X123780000Y-103420000D01*
X133920000Y-99580000D02*
X133920000Y-100060000D01*
X123780000Y-99580000D02*
X133920000Y-99580000D01*
X123780000Y-100060000D02*
X123780000Y-99580000D01*
%TO.C,J3*%
X148250000Y-101650000D02*
X147000000Y-101650000D01*
X148250000Y-102900000D02*
X148250000Y-101650000D01*
X142750000Y-108800000D02*
X142750000Y-105750000D01*
X145700000Y-108800000D02*
X142750000Y-108800000D01*
X145700000Y-109550000D02*
X145700000Y-108800000D01*
X142750000Y-102700000D02*
X142750000Y-105750000D01*
X145700000Y-102700000D02*
X142750000Y-102700000D01*
X145700000Y-101950000D02*
X145700000Y-102700000D01*
X147950000Y-109550000D02*
X147950000Y-107750000D01*
X147200000Y-109550000D02*
X147950000Y-109550000D01*
X147200000Y-107750000D02*
X147200000Y-109550000D01*
X147950000Y-107750000D02*
X147200000Y-107750000D01*
X147950000Y-103750000D02*
X147950000Y-101950000D01*
X147200000Y-103750000D02*
X147950000Y-103750000D01*
X147200000Y-101950000D02*
X147200000Y-103750000D01*
X147950000Y-101950000D02*
X147200000Y-101950000D01*
X147950000Y-106250000D02*
X147950000Y-105250000D01*
X147200000Y-106250000D02*
X147950000Y-106250000D01*
X147200000Y-105250000D02*
X147200000Y-106250000D01*
X147950000Y-105250000D02*
X147200000Y-105250000D01*
X147960000Y-109560000D02*
X147960000Y-101940000D01*
X141990000Y-109560000D02*
X147960000Y-109560000D01*
X141990000Y-101940000D02*
X141990000Y-109560000D01*
X147960000Y-101940000D02*
X141990000Y-101940000D01*
%TO.C,C3*%
X140725000Y-121945225D02*
X140225000Y-121945225D01*
X140475000Y-121695225D02*
X140475000Y-122195225D01*
X139284000Y-127101000D02*
X138716000Y-127101000D01*
X139518000Y-127061000D02*
X138482000Y-127061000D01*
X139677000Y-127021000D02*
X138323000Y-127021000D01*
X139805000Y-126981000D02*
X138195000Y-126981000D01*
X139915000Y-126941000D02*
X138085000Y-126941000D01*
X140011000Y-126901000D02*
X137989000Y-126901000D01*
X140098000Y-126861000D02*
X137902000Y-126861000D01*
X140178000Y-126821000D02*
X137822000Y-126821000D01*
X140251000Y-126781000D02*
X137749000Y-126781000D01*
X140319000Y-126741000D02*
X137681000Y-126741000D01*
X140383000Y-126701000D02*
X137617000Y-126701000D01*
X140443000Y-126661000D02*
X137557000Y-126661000D01*
X140500000Y-126621000D02*
X137500000Y-126621000D01*
X140554000Y-126581000D02*
X137446000Y-126581000D01*
X140605000Y-126541000D02*
X137395000Y-126541000D01*
X137960000Y-126501000D02*
X137347000Y-126501000D01*
X140653000Y-126501000D02*
X140040000Y-126501000D01*
X137960000Y-126461000D02*
X137301000Y-126461000D01*
X140699000Y-126461000D02*
X140040000Y-126461000D01*
X137960000Y-126421000D02*
X137257000Y-126421000D01*
X140743000Y-126421000D02*
X140040000Y-126421000D01*
X137960000Y-126381000D02*
X137215000Y-126381000D01*
X140785000Y-126381000D02*
X140040000Y-126381000D01*
X137960000Y-126341000D02*
X137174000Y-126341000D01*
X140826000Y-126341000D02*
X140040000Y-126341000D01*
X137960000Y-126301000D02*
X137136000Y-126301000D01*
X140864000Y-126301000D02*
X140040000Y-126301000D01*
X137960000Y-126261000D02*
X137099000Y-126261000D01*
X140901000Y-126261000D02*
X140040000Y-126261000D01*
X137960000Y-126221000D02*
X137063000Y-126221000D01*
X140937000Y-126221000D02*
X140040000Y-126221000D01*
X137960000Y-126181000D02*
X137029000Y-126181000D01*
X140971000Y-126181000D02*
X140040000Y-126181000D01*
X137960000Y-126141000D02*
X136996000Y-126141000D01*
X141004000Y-126141000D02*
X140040000Y-126141000D01*
X137960000Y-126101000D02*
X136965000Y-126101000D01*
X141035000Y-126101000D02*
X140040000Y-126101000D01*
X137960000Y-126061000D02*
X136935000Y-126061000D01*
X141065000Y-126061000D02*
X140040000Y-126061000D01*
X137960000Y-126021000D02*
X136905000Y-126021000D01*
X141095000Y-126021000D02*
X140040000Y-126021000D01*
X137960000Y-125981000D02*
X136878000Y-125981000D01*
X141122000Y-125981000D02*
X140040000Y-125981000D01*
X137960000Y-125941000D02*
X136851000Y-125941000D01*
X141149000Y-125941000D02*
X140040000Y-125941000D01*
X137960000Y-125901000D02*
X136825000Y-125901000D01*
X141175000Y-125901000D02*
X140040000Y-125901000D01*
X137960000Y-125861000D02*
X136800000Y-125861000D01*
X141200000Y-125861000D02*
X140040000Y-125861000D01*
X137960000Y-125821000D02*
X136776000Y-125821000D01*
X141224000Y-125821000D02*
X140040000Y-125821000D01*
X137960000Y-125781000D02*
X136753000Y-125781000D01*
X141247000Y-125781000D02*
X140040000Y-125781000D01*
X137960000Y-125741000D02*
X136732000Y-125741000D01*
X141268000Y-125741000D02*
X140040000Y-125741000D01*
X137960000Y-125701000D02*
X136710000Y-125701000D01*
X141290000Y-125701000D02*
X140040000Y-125701000D01*
X137960000Y-125661000D02*
X136690000Y-125661000D01*
X141310000Y-125661000D02*
X140040000Y-125661000D01*
X137960000Y-125621000D02*
X136671000Y-125621000D01*
X141329000Y-125621000D02*
X140040000Y-125621000D01*
X137960000Y-125581000D02*
X136652000Y-125581000D01*
X141348000Y-125581000D02*
X140040000Y-125581000D01*
X137960000Y-125541000D02*
X136635000Y-125541000D01*
X141365000Y-125541000D02*
X140040000Y-125541000D01*
X137960000Y-125501000D02*
X136618000Y-125501000D01*
X141382000Y-125501000D02*
X140040000Y-125501000D01*
X137960000Y-125461000D02*
X136602000Y-125461000D01*
X141398000Y-125461000D02*
X140040000Y-125461000D01*
X137960000Y-125421000D02*
X136586000Y-125421000D01*
X141414000Y-125421000D02*
X140040000Y-125421000D01*
X137960000Y-125381000D02*
X136572000Y-125381000D01*
X141428000Y-125381000D02*
X140040000Y-125381000D01*
X137960000Y-125341000D02*
X136558000Y-125341000D01*
X141442000Y-125341000D02*
X140040000Y-125341000D01*
X137960000Y-125301000D02*
X136545000Y-125301000D01*
X141455000Y-125301000D02*
X140040000Y-125301000D01*
X137960000Y-125261000D02*
X136532000Y-125261000D01*
X141468000Y-125261000D02*
X140040000Y-125261000D01*
X137960000Y-125221000D02*
X136520000Y-125221000D01*
X141480000Y-125221000D02*
X140040000Y-125221000D01*
X137960000Y-125180000D02*
X136509000Y-125180000D01*
X141491000Y-125180000D02*
X140040000Y-125180000D01*
X137960000Y-125140000D02*
X136499000Y-125140000D01*
X141501000Y-125140000D02*
X140040000Y-125140000D01*
X137960000Y-125100000D02*
X136489000Y-125100000D01*
X141511000Y-125100000D02*
X140040000Y-125100000D01*
X137960000Y-125060000D02*
X136480000Y-125060000D01*
X141520000Y-125060000D02*
X140040000Y-125060000D01*
X137960000Y-125020000D02*
X136472000Y-125020000D01*
X141528000Y-125020000D02*
X140040000Y-125020000D01*
X137960000Y-124980000D02*
X136464000Y-124980000D01*
X141536000Y-124980000D02*
X140040000Y-124980000D01*
X137960000Y-124940000D02*
X136457000Y-124940000D01*
X141543000Y-124940000D02*
X140040000Y-124940000D01*
X137960000Y-124900000D02*
X136450000Y-124900000D01*
X141550000Y-124900000D02*
X140040000Y-124900000D01*
X137960000Y-124860000D02*
X136444000Y-124860000D01*
X141556000Y-124860000D02*
X140040000Y-124860000D01*
X137960000Y-124820000D02*
X136439000Y-124820000D01*
X141561000Y-124820000D02*
X140040000Y-124820000D01*
X137960000Y-124780000D02*
X136435000Y-124780000D01*
X141565000Y-124780000D02*
X140040000Y-124780000D01*
X137960000Y-124740000D02*
X136431000Y-124740000D01*
X141569000Y-124740000D02*
X140040000Y-124740000D01*
X137960000Y-124700000D02*
X136427000Y-124700000D01*
X141573000Y-124700000D02*
X140040000Y-124700000D01*
X137960000Y-124660000D02*
X136424000Y-124660000D01*
X141576000Y-124660000D02*
X140040000Y-124660000D01*
X137960000Y-124620000D02*
X136422000Y-124620000D01*
X141578000Y-124620000D02*
X140040000Y-124620000D01*
X137960000Y-124580000D02*
X136421000Y-124580000D01*
X141579000Y-124580000D02*
X140040000Y-124580000D01*
X141580000Y-124540000D02*
X140040000Y-124540000D01*
X137960000Y-124540000D02*
X136420000Y-124540000D01*
X141580000Y-124500000D02*
X140040000Y-124500000D01*
X137960000Y-124500000D02*
X136420000Y-124500000D01*
X141620000Y-124500000D02*
G75*
G03*
X141620000Y-124500000I-2620000J0D01*
G01*
%TO.C,R4*%
X133920000Y-113420000D02*
X133920000Y-112940000D01*
X123780000Y-113420000D02*
X133920000Y-113420000D01*
X123780000Y-112940000D02*
X123780000Y-113420000D01*
X133920000Y-109580000D02*
X133920000Y-110060000D01*
X123780000Y-109580000D02*
X133920000Y-109580000D01*
X123780000Y-110060000D02*
X123780000Y-109580000D01*
%TO.C,R3*%
X119420000Y-95580000D02*
X118940000Y-95580000D01*
X119420000Y-105720000D02*
X119420000Y-95580000D01*
X118940000Y-105720000D02*
X119420000Y-105720000D01*
X115580000Y-95580000D02*
X116060000Y-95580000D01*
X115580000Y-105720000D02*
X115580000Y-95580000D01*
X116060000Y-105720000D02*
X115580000Y-105720000D01*
%TO.C,R2*%
X123780000Y-105060000D02*
X123780000Y-104580000D01*
X123780000Y-104580000D02*
X133920000Y-104580000D01*
X133920000Y-104580000D02*
X133920000Y-105060000D01*
X123780000Y-107940000D02*
X123780000Y-108420000D01*
X123780000Y-108420000D02*
X133920000Y-108420000D01*
X133920000Y-108420000D02*
X133920000Y-107940000D01*
%TO.C,C1*%
X124170000Y-91055000D02*
X124170000Y-91721000D01*
X124170000Y-88279000D02*
X124170000Y-88945000D01*
X118830000Y-91055000D02*
X118830000Y-91721000D01*
X118830000Y-88279000D02*
X118830000Y-88945000D01*
X118830000Y-91721000D02*
X124170000Y-91721000D01*
X118830000Y-88279000D02*
X124170000Y-88279000D01*
%TO.C,J2*%
X107250000Y-110850000D02*
X108500000Y-110850000D01*
X107250000Y-109600000D02*
X107250000Y-110850000D01*
X112750000Y-103700000D02*
X112750000Y-106750000D01*
X109800000Y-103700000D02*
X112750000Y-103700000D01*
X109800000Y-102950000D02*
X109800000Y-103700000D01*
X112750000Y-109800000D02*
X112750000Y-106750000D01*
X109800000Y-109800000D02*
X112750000Y-109800000D01*
X109800000Y-110550000D02*
X109800000Y-109800000D01*
X107550000Y-102950000D02*
X107550000Y-104750000D01*
X108300000Y-102950000D02*
X107550000Y-102950000D01*
X108300000Y-104750000D02*
X108300000Y-102950000D01*
X107550000Y-104750000D02*
X108300000Y-104750000D01*
X107550000Y-108750000D02*
X107550000Y-110550000D01*
X108300000Y-108750000D02*
X107550000Y-108750000D01*
X108300000Y-110550000D02*
X108300000Y-108750000D01*
X107550000Y-110550000D02*
X108300000Y-110550000D01*
X107550000Y-106250000D02*
X107550000Y-107250000D01*
X108300000Y-106250000D02*
X107550000Y-106250000D01*
X108300000Y-107250000D02*
X108300000Y-106250000D01*
X107550000Y-107250000D02*
X108300000Y-107250000D01*
X107540000Y-102940000D02*
X107540000Y-110560000D01*
X113510000Y-102940000D02*
X107540000Y-102940000D01*
X113510000Y-110560000D02*
X113510000Y-102940000D01*
X107540000Y-110560000D02*
X113510000Y-110560000D01*
%TO.C,C2*%
X138445000Y-97170000D02*
X137779000Y-97170000D01*
X141221000Y-97170000D02*
X140555000Y-97170000D01*
X138445000Y-91830000D02*
X137779000Y-91830000D01*
X141221000Y-91830000D02*
X140555000Y-91830000D01*
X137779000Y-91830000D02*
X137779000Y-97170000D01*
X141221000Y-91830000D02*
X141221000Y-97170000D01*
%TO.C,Q1*%
X127109000Y-126770000D02*
X127109000Y-125260000D01*
X130810000Y-126770000D02*
X130810000Y-125260000D01*
X134080000Y-125260000D02*
X123840000Y-125260000D01*
X123840000Y-126770000D02*
X123840000Y-122129000D01*
X134080000Y-126770000D02*
X134080000Y-122129000D01*
X134080000Y-122129000D02*
X123840000Y-122129000D01*
X134080000Y-126770000D02*
X123840000Y-126770000D01*
%TO.C,J1*%
X107250000Y-101350000D02*
X108500000Y-101350000D01*
X107250000Y-100100000D02*
X107250000Y-101350000D01*
X112750000Y-94200000D02*
X112750000Y-97250000D01*
X109800000Y-94200000D02*
X112750000Y-94200000D01*
X109800000Y-93450000D02*
X109800000Y-94200000D01*
X112750000Y-100300000D02*
X112750000Y-97250000D01*
X109800000Y-100300000D02*
X112750000Y-100300000D01*
X109800000Y-101050000D02*
X109800000Y-100300000D01*
X107550000Y-93450000D02*
X107550000Y-95250000D01*
X108300000Y-93450000D02*
X107550000Y-93450000D01*
X108300000Y-95250000D02*
X108300000Y-93450000D01*
X107550000Y-95250000D02*
X108300000Y-95250000D01*
X107550000Y-99250000D02*
X107550000Y-101050000D01*
X108300000Y-99250000D02*
X107550000Y-99250000D01*
X108300000Y-101050000D02*
X108300000Y-99250000D01*
X107550000Y-101050000D02*
X108300000Y-101050000D01*
X107550000Y-96750000D02*
X107550000Y-97750000D01*
X108300000Y-96750000D02*
X107550000Y-96750000D01*
X108300000Y-97750000D02*
X108300000Y-96750000D01*
X107550000Y-97750000D02*
X108300000Y-97750000D01*
X107540000Y-93440000D02*
X107540000Y-101060000D01*
X113510000Y-93440000D02*
X107540000Y-93440000D01*
X113510000Y-101060000D02*
X113510000Y-93440000D01*
X107540000Y-101060000D02*
X113510000Y-101060000D01*
%TO.C,J4*%
D11*
X142666666Y-119452380D02*
X142666666Y-120166666D01*
X142619047Y-120309523D01*
X142523809Y-120404761D01*
X142380952Y-120452380D01*
X142285714Y-120452380D01*
X143571428Y-119785714D02*
X143571428Y-120452380D01*
X143333333Y-119404761D02*
X143095238Y-120119047D01*
X143714285Y-120119047D01*
%TO.C,L1*%
X114333333Y-112202380D02*
X113857142Y-112202380D01*
X113857142Y-111202380D01*
X115190476Y-112202380D02*
X114619047Y-112202380D01*
X114904761Y-112202380D02*
X114904761Y-111202380D01*
X114809523Y-111345238D01*
X114714285Y-111440476D01*
X114619047Y-111488095D01*
X112642857Y-123702380D02*
X113261904Y-123702380D01*
X112928571Y-124083333D01*
X113071428Y-124083333D01*
X113166666Y-124130952D01*
X113214285Y-124178571D01*
X113261904Y-124273809D01*
X113261904Y-124511904D01*
X113214285Y-124607142D01*
X113166666Y-124654761D01*
X113071428Y-124702380D01*
X112785714Y-124702380D01*
X112690476Y-124654761D01*
X112642857Y-124607142D01*
X113595238Y-123702380D02*
X114214285Y-123702380D01*
X113880952Y-124083333D01*
X114023809Y-124083333D01*
X114119047Y-124130952D01*
X114166666Y-124178571D01*
X114214285Y-124273809D01*
X114214285Y-124511904D01*
X114166666Y-124607142D01*
X114119047Y-124654761D01*
X114023809Y-124702380D01*
X113738095Y-124702380D01*
X113642857Y-124654761D01*
X113595238Y-124607142D01*
X114642857Y-124035714D02*
X114642857Y-125035714D01*
X115119047Y-124559523D02*
X115166666Y-124654761D01*
X115261904Y-124702380D01*
X114642857Y-124559523D02*
X114690476Y-124654761D01*
X114785714Y-124702380D01*
X114976190Y-124702380D01*
X115071428Y-124654761D01*
X115119047Y-124559523D01*
X115119047Y-124035714D01*
X115690476Y-124702380D02*
X115690476Y-123702380D01*
X115690476Y-124178571D02*
X116261904Y-124178571D01*
X116261904Y-124702380D02*
X116261904Y-123702380D01*
%TO.C,R5*%
X126183333Y-82032380D02*
X125850000Y-81556190D01*
X125611904Y-82032380D02*
X125611904Y-81032380D01*
X125992857Y-81032380D01*
X126088095Y-81080000D01*
X126135714Y-81127619D01*
X126183333Y-81222857D01*
X126183333Y-81365714D01*
X126135714Y-81460952D01*
X126088095Y-81508571D01*
X125992857Y-81556190D01*
X125611904Y-81556190D01*
X127088095Y-81032380D02*
X126611904Y-81032380D01*
X126564285Y-81508571D01*
X126611904Y-81460952D01*
X126707142Y-81413333D01*
X126945238Y-81413333D01*
X127040476Y-81460952D01*
X127088095Y-81508571D01*
X127135714Y-81603809D01*
X127135714Y-81841904D01*
X127088095Y-81937142D01*
X127040476Y-81984761D01*
X126945238Y-82032380D01*
X126707142Y-82032380D01*
X126611904Y-81984761D01*
X126564285Y-81937142D01*
X125635714Y-84952380D02*
X125159523Y-84952380D01*
X125111904Y-85428571D01*
X125159523Y-85380952D01*
X125254761Y-85333333D01*
X125492857Y-85333333D01*
X125588095Y-85380952D01*
X125635714Y-85428571D01*
X125683333Y-85523809D01*
X125683333Y-85761904D01*
X125635714Y-85857142D01*
X125588095Y-85904761D01*
X125492857Y-85952380D01*
X125254761Y-85952380D01*
X125159523Y-85904761D01*
X125111904Y-85857142D01*
X126540476Y-84952380D02*
X126350000Y-84952380D01*
X126254761Y-85000000D01*
X126207142Y-85047619D01*
X126111904Y-85190476D01*
X126064285Y-85380952D01*
X126064285Y-85761904D01*
X126111904Y-85857142D01*
X126159523Y-85904761D01*
X126254761Y-85952380D01*
X126445238Y-85952380D01*
X126540476Y-85904761D01*
X126588095Y-85857142D01*
X126635714Y-85761904D01*
X126635714Y-85523809D01*
X126588095Y-85428571D01*
X126540476Y-85380952D01*
X126445238Y-85333333D01*
X126254761Y-85333333D01*
X126159523Y-85380952D01*
X126111904Y-85428571D01*
X126064285Y-85523809D01*
X127254761Y-84952380D02*
X127350000Y-84952380D01*
X127445238Y-85000000D01*
X127492857Y-85047619D01*
X127540476Y-85142857D01*
X127588095Y-85333333D01*
X127588095Y-85571428D01*
X127540476Y-85761904D01*
X127492857Y-85857142D01*
X127445238Y-85904761D01*
X127350000Y-85952380D01*
X127254761Y-85952380D01*
X127159523Y-85904761D01*
X127111904Y-85857142D01*
X127064285Y-85761904D01*
X127016666Y-85571428D01*
X127016666Y-85333333D01*
X127064285Y-85142857D01*
X127111904Y-85047619D01*
X127159523Y-85000000D01*
X127254761Y-84952380D01*
%TO.C,D2*%
X113952380Y-90738095D02*
X112952380Y-90738095D01*
X112952380Y-90500000D01*
X113000000Y-90357142D01*
X113095238Y-90261904D01*
X113190476Y-90214285D01*
X113380952Y-90166666D01*
X113523809Y-90166666D01*
X113714285Y-90214285D01*
X113809523Y-90261904D01*
X113904761Y-90357142D01*
X113952380Y-90500000D01*
X113952380Y-90738095D01*
X113047619Y-89785714D02*
X113000000Y-89738095D01*
X112952380Y-89642857D01*
X112952380Y-89404761D01*
X113000000Y-89309523D01*
X113047619Y-89261904D01*
X113142857Y-89214285D01*
X113238095Y-89214285D01*
X113380952Y-89261904D01*
X113952380Y-89833333D01*
X113952380Y-89214285D01*
%TO.C,D1*%
X121761904Y-114952380D02*
X121761904Y-113952380D01*
X122000000Y-113952380D01*
X122142857Y-114000000D01*
X122238095Y-114095238D01*
X122285714Y-114190476D01*
X122333333Y-114380952D01*
X122333333Y-114523809D01*
X122285714Y-114714285D01*
X122238095Y-114809523D01*
X122142857Y-114904761D01*
X122000000Y-114952380D01*
X121761904Y-114952380D01*
X123285714Y-114952380D02*
X122714285Y-114952380D01*
X123000000Y-114952380D02*
X123000000Y-113952380D01*
X122904761Y-114095238D01*
X122809523Y-114190476D01*
X122714285Y-114238095D01*
X127357142Y-116952380D02*
X126785714Y-116952380D01*
X127071428Y-116952380D02*
X127071428Y-115952380D01*
X126976190Y-116095238D01*
X126880952Y-116190476D01*
X126785714Y-116238095D01*
X127785714Y-116952380D02*
X127785714Y-115952380D01*
X128357142Y-116952380D01*
X128357142Y-115952380D01*
X129309523Y-115952380D02*
X128833333Y-115952380D01*
X128785714Y-116428571D01*
X128833333Y-116380952D01*
X128928571Y-116333333D01*
X129166666Y-116333333D01*
X129261904Y-116380952D01*
X129309523Y-116428571D01*
X129357142Y-116523809D01*
X129357142Y-116761904D01*
X129309523Y-116857142D01*
X129261904Y-116904761D01*
X129166666Y-116952380D01*
X128928571Y-116952380D01*
X128833333Y-116904761D01*
X128785714Y-116857142D01*
X129928571Y-116380952D02*
X129833333Y-116333333D01*
X129785714Y-116285714D01*
X129738095Y-116190476D01*
X129738095Y-116142857D01*
X129785714Y-116047619D01*
X129833333Y-116000000D01*
X129928571Y-115952380D01*
X130119047Y-115952380D01*
X130214285Y-116000000D01*
X130261904Y-116047619D01*
X130309523Y-116142857D01*
X130309523Y-116190476D01*
X130261904Y-116285714D01*
X130214285Y-116333333D01*
X130119047Y-116380952D01*
X129928571Y-116380952D01*
X129833333Y-116428571D01*
X129785714Y-116476190D01*
X129738095Y-116571428D01*
X129738095Y-116761904D01*
X129785714Y-116857142D01*
X129833333Y-116904761D01*
X129928571Y-116952380D01*
X130119047Y-116952380D01*
X130214285Y-116904761D01*
X130261904Y-116857142D01*
X130309523Y-116761904D01*
X130309523Y-116571428D01*
X130261904Y-116476190D01*
X130214285Y-116428571D01*
X130119047Y-116380952D01*
X130690476Y-116047619D02*
X130738095Y-116000000D01*
X130833333Y-115952380D01*
X131071428Y-115952380D01*
X131166666Y-116000000D01*
X131214285Y-116047619D01*
X131261904Y-116142857D01*
X131261904Y-116238095D01*
X131214285Y-116380952D01*
X130642857Y-116952380D01*
X131261904Y-116952380D01*
X131642857Y-116047619D02*
X131690476Y-116000000D01*
X131785714Y-115952380D01*
X132023809Y-115952380D01*
X132119047Y-116000000D01*
X132166666Y-116047619D01*
X132214285Y-116142857D01*
X132214285Y-116238095D01*
X132166666Y-116380952D01*
X131595238Y-116952380D01*
X132214285Y-116952380D01*
X137738095Y-121052380D02*
X137738095Y-120052380D01*
X138309523Y-121052380D02*
X137880952Y-120480952D01*
X138309523Y-120052380D02*
X137738095Y-120623809D01*
%TO.C,U1*%
X130548095Y-86622380D02*
X130548095Y-87431904D01*
X130595714Y-87527142D01*
X130643333Y-87574761D01*
X130738571Y-87622380D01*
X130929047Y-87622380D01*
X131024285Y-87574761D01*
X131071904Y-87527142D01*
X131119523Y-87431904D01*
X131119523Y-86622380D01*
X132119523Y-87622380D02*
X131548095Y-87622380D01*
X131833809Y-87622380D02*
X131833809Y-86622380D01*
X131738571Y-86765238D01*
X131643333Y-86860476D01*
X131548095Y-86908095D01*
%TO.C,R1*%
X137952380Y-101666666D02*
X137476190Y-102000000D01*
X137952380Y-102238095D02*
X136952380Y-102238095D01*
X136952380Y-101857142D01*
X137000000Y-101761904D01*
X137047619Y-101714285D01*
X137142857Y-101666666D01*
X137285714Y-101666666D01*
X137380952Y-101714285D01*
X137428571Y-101761904D01*
X137476190Y-101857142D01*
X137476190Y-102238095D01*
X137952380Y-100714285D02*
X137952380Y-101285714D01*
X137952380Y-101000000D02*
X136952380Y-101000000D01*
X137095238Y-101095238D01*
X137190476Y-101190476D01*
X137238095Y-101285714D01*
X128564285Y-102285714D02*
X128564285Y-102952380D01*
X128326190Y-101904761D02*
X128088095Y-102619047D01*
X128707142Y-102619047D01*
X128992857Y-101952380D02*
X129659523Y-101952380D01*
X129230952Y-102952380D01*
%TO.C,J3*%
X142666666Y-109952380D02*
X142666666Y-110666666D01*
X142619047Y-110809523D01*
X142523809Y-110904761D01*
X142380952Y-110952380D01*
X142285714Y-110952380D01*
X143047619Y-109952380D02*
X143666666Y-109952380D01*
X143333333Y-110333333D01*
X143476190Y-110333333D01*
X143571428Y-110380952D01*
X143619047Y-110428571D01*
X143666666Y-110523809D01*
X143666666Y-110761904D01*
X143619047Y-110857142D01*
X143571428Y-110904761D01*
X143476190Y-110952380D01*
X143190476Y-110952380D01*
X143095238Y-110904761D01*
X143047619Y-110857142D01*
%TO.C,C3*%
X143107142Y-124666666D02*
X143154761Y-124714285D01*
X143202380Y-124857142D01*
X143202380Y-124952380D01*
X143154761Y-125095238D01*
X143059523Y-125190476D01*
X142964285Y-125238095D01*
X142773809Y-125285714D01*
X142630952Y-125285714D01*
X142440476Y-125238095D01*
X142345238Y-125190476D01*
X142250000Y-125095238D01*
X142202380Y-124952380D01*
X142202380Y-124857142D01*
X142250000Y-124714285D01*
X142297619Y-124666666D01*
X142202380Y-124333333D02*
X142202380Y-123714285D01*
X142583333Y-124047619D01*
X142583333Y-123904761D01*
X142630952Y-123809523D01*
X142678571Y-123761904D01*
X142773809Y-123714285D01*
X143011904Y-123714285D01*
X143107142Y-123761904D01*
X143154761Y-123809523D01*
X143202380Y-123904761D01*
X143202380Y-124190476D01*
X143154761Y-124285714D01*
X143107142Y-124333333D01*
X134797619Y-126214285D02*
X134750000Y-126166666D01*
X134702380Y-126071428D01*
X134702380Y-125833333D01*
X134750000Y-125738095D01*
X134797619Y-125690476D01*
X134892857Y-125642857D01*
X134988095Y-125642857D01*
X135130952Y-125690476D01*
X135702380Y-126261904D01*
X135702380Y-125642857D01*
X134797619Y-125261904D02*
X134750000Y-125214285D01*
X134702380Y-125119047D01*
X134702380Y-124880952D01*
X134750000Y-124785714D01*
X134797619Y-124738095D01*
X134892857Y-124690476D01*
X134988095Y-124690476D01*
X135130952Y-124738095D01*
X135702380Y-125309523D01*
X135702380Y-124690476D01*
X135035714Y-124261904D02*
X136035714Y-124261904D01*
X135559523Y-123785714D02*
X135654761Y-123738095D01*
X135702380Y-123642857D01*
X135559523Y-124261904D02*
X135654761Y-124214285D01*
X135702380Y-124119047D01*
X135702380Y-123928571D01*
X135654761Y-123833333D01*
X135559523Y-123785714D01*
X135035714Y-123785714D01*
X135178571Y-122880952D02*
X135178571Y-123214285D01*
X135702380Y-123214285D02*
X134702380Y-123214285D01*
X134702380Y-122738095D01*
%TO.C,R4*%
X137952380Y-111666666D02*
X137476190Y-112000000D01*
X137952380Y-112238095D02*
X136952380Y-112238095D01*
X136952380Y-111857142D01*
X137000000Y-111761904D01*
X137047619Y-111714285D01*
X137142857Y-111666666D01*
X137285714Y-111666666D01*
X137380952Y-111714285D01*
X137428571Y-111761904D01*
X137476190Y-111857142D01*
X137476190Y-112238095D01*
X137285714Y-110809523D02*
X137952380Y-110809523D01*
X136904761Y-111047619D02*
X137619047Y-111285714D01*
X137619047Y-110666666D01*
X128730952Y-112952380D02*
X128159523Y-112952380D01*
X128445238Y-112952380D02*
X128445238Y-111952380D01*
X128350000Y-112095238D01*
X128254761Y-112190476D01*
X128159523Y-112238095D01*
X129159523Y-112952380D02*
X129159523Y-111952380D01*
X129254761Y-112571428D02*
X129540476Y-112952380D01*
X129540476Y-112285714D02*
X129159523Y-112666666D01*
%TO.C,R3*%
X115032380Y-100816666D02*
X114556190Y-101150000D01*
X115032380Y-101388095D02*
X114032380Y-101388095D01*
X114032380Y-101007142D01*
X114080000Y-100911904D01*
X114127619Y-100864285D01*
X114222857Y-100816666D01*
X114365714Y-100816666D01*
X114460952Y-100864285D01*
X114508571Y-100911904D01*
X114556190Y-101007142D01*
X114556190Y-101388095D01*
X114032380Y-100483333D02*
X114032380Y-99864285D01*
X114413333Y-100197619D01*
X114413333Y-100054761D01*
X114460952Y-99959523D01*
X114508571Y-99911904D01*
X114603809Y-99864285D01*
X114841904Y-99864285D01*
X114937142Y-99911904D01*
X114984761Y-99959523D01*
X115032380Y-100054761D01*
X115032380Y-100340476D01*
X114984761Y-100435714D01*
X114937142Y-100483333D01*
X118285714Y-100935714D02*
X118952380Y-100935714D01*
X117904761Y-101173809D02*
X118619047Y-101411904D01*
X118619047Y-100792857D01*
X117952380Y-100507142D02*
X117952380Y-99840476D01*
X118952380Y-100269047D01*
%TO.C,R2*%
X137952380Y-106666666D02*
X137476190Y-107000000D01*
X137952380Y-107238095D02*
X136952380Y-107238095D01*
X136952380Y-106857142D01*
X137000000Y-106761904D01*
X137047619Y-106714285D01*
X137142857Y-106666666D01*
X137285714Y-106666666D01*
X137380952Y-106714285D01*
X137428571Y-106761904D01*
X137476190Y-106857142D01*
X137476190Y-107238095D01*
X137047619Y-106285714D02*
X137000000Y-106238095D01*
X136952380Y-106142857D01*
X136952380Y-105904761D01*
X137000000Y-105809523D01*
X137047619Y-105761904D01*
X137142857Y-105714285D01*
X137238095Y-105714285D01*
X137380952Y-105761904D01*
X137952380Y-106333333D01*
X137952380Y-105714285D01*
X128564285Y-107285714D02*
X128564285Y-107952380D01*
X128326190Y-106904761D02*
X128088095Y-107619047D01*
X128707142Y-107619047D01*
X128992857Y-106952380D02*
X129659523Y-106952380D01*
X129230952Y-107952380D01*
%TO.C,C1*%
X121333333Y-87507142D02*
X121285714Y-87554761D01*
X121142857Y-87602380D01*
X121047619Y-87602380D01*
X120904761Y-87554761D01*
X120809523Y-87459523D01*
X120761904Y-87364285D01*
X120714285Y-87173809D01*
X120714285Y-87030952D01*
X120761904Y-86840476D01*
X120809523Y-86745238D01*
X120904761Y-86650000D01*
X121047619Y-86602380D01*
X121142857Y-86602380D01*
X121285714Y-86650000D01*
X121333333Y-86697619D01*
X122285714Y-87602380D02*
X121714285Y-87602380D01*
X122000000Y-87602380D02*
X122000000Y-86602380D01*
X121904761Y-86745238D01*
X121809523Y-86840476D01*
X121714285Y-86888095D01*
%TO.C,J2*%
X107666666Y-110952380D02*
X107666666Y-111666666D01*
X107619047Y-111809523D01*
X107523809Y-111904761D01*
X107380952Y-111952380D01*
X107285714Y-111952380D01*
X108095238Y-111047619D02*
X108142857Y-111000000D01*
X108238095Y-110952380D01*
X108476190Y-110952380D01*
X108571428Y-111000000D01*
X108619047Y-111047619D01*
X108666666Y-111142857D01*
X108666666Y-111238095D01*
X108619047Y-111380952D01*
X108047619Y-111952380D01*
X108666666Y-111952380D01*
%TO.C,C2*%
X139333333Y-99357142D02*
X139285714Y-99404761D01*
X139142857Y-99452380D01*
X139047619Y-99452380D01*
X138904761Y-99404761D01*
X138809523Y-99309523D01*
X138761904Y-99214285D01*
X138714285Y-99023809D01*
X138714285Y-98880952D01*
X138761904Y-98690476D01*
X138809523Y-98595238D01*
X138904761Y-98500000D01*
X139047619Y-98452380D01*
X139142857Y-98452380D01*
X139285714Y-98500000D01*
X139333333Y-98547619D01*
X139714285Y-98547619D02*
X139761904Y-98500000D01*
X139857142Y-98452380D01*
X140095238Y-98452380D01*
X140190476Y-98500000D01*
X140238095Y-98547619D01*
X140285714Y-98642857D01*
X140285714Y-98738095D01*
X140238095Y-98880952D01*
X139666666Y-99452380D01*
X140285714Y-99452380D01*
%TO.C,Q1*%
X128904761Y-126547619D02*
X128809523Y-126500000D01*
X128714285Y-126404761D01*
X128571428Y-126261904D01*
X128476190Y-126214285D01*
X128380952Y-126214285D01*
X128428571Y-126452380D02*
X128333333Y-126404761D01*
X128238095Y-126309523D01*
X128190476Y-126119047D01*
X128190476Y-125785714D01*
X128238095Y-125595238D01*
X128333333Y-125500000D01*
X128428571Y-125452380D01*
X128619047Y-125452380D01*
X128714285Y-125500000D01*
X128809523Y-125595238D01*
X128857142Y-125785714D01*
X128857142Y-126119047D01*
X128809523Y-126309523D01*
X128714285Y-126404761D01*
X128619047Y-126452380D01*
X128428571Y-126452380D01*
X129809523Y-126452380D02*
X129238095Y-126452380D01*
X129523809Y-126452380D02*
X129523809Y-125452380D01*
X129428571Y-125595238D01*
X129333333Y-125690476D01*
X129238095Y-125738095D01*
%TO.C,J1*%
X107666666Y-101452380D02*
X107666666Y-102166666D01*
X107619047Y-102309523D01*
X107523809Y-102404761D01*
X107380952Y-102452380D01*
X107285714Y-102452380D01*
X108666666Y-102452380D02*
X108095238Y-102452380D01*
X108380952Y-102452380D02*
X108380952Y-101452380D01*
X108285714Y-101595238D01*
X108190476Y-101690476D01*
X108095238Y-101738095D01*
%TD*%
M02*
