%TF.GenerationSoftware,KiCad,Pcbnew,5.1.10-88a1d61d58~90~ubuntu20.04.1*%
%TF.CreationDate,2022-03-31T22:16:58+01:00*%
%TF.ProjectId,piezo_amplifier,7069657a-6f5f-4616-9d70-6c6966696572,rev?*%
%TF.SameCoordinates,Original*%
%TF.FileFunction,Copper,L2,Bot*%
%TF.FilePolarity,Positive*%
%FSLAX46Y46*%
G04 Gerber Fmt 4.6, Leading zero omitted, Abs format (unit mm)*
G04 Created by KiCad (PCBNEW 5.1.10-88a1d61d58~90~ubuntu20.04.1) date 2022-03-31 22:16:58*
%MOMM*%
%LPD*%
G01*
G04 APERTURE LIST*
%TA.AperFunction,ComponentPad*%
%ADD10C,1.400000*%
%TD*%
%TA.AperFunction,ComponentPad*%
%ADD11O,1.400000X1.400000*%
%TD*%
%TA.AperFunction,ComponentPad*%
%ADD12C,1.600000*%
%TD*%
%TA.AperFunction,ComponentPad*%
%ADD13R,2.200000X2.200000*%
%TD*%
%TA.AperFunction,ComponentPad*%
%ADD14O,2.200000X2.200000*%
%TD*%
%TA.AperFunction,ComponentPad*%
%ADD15O,2.000000X1.700000*%
%TD*%
%TA.AperFunction,ComponentPad*%
%ADD16O,1.950000X1.700000*%
%TD*%
%TA.AperFunction,ComponentPad*%
%ADD17R,2.400000X1.600000*%
%TD*%
%TA.AperFunction,ComponentPad*%
%ADD18O,2.400000X1.600000*%
%TD*%
%TA.AperFunction,Conductor*%
%ADD19C,0.500000*%
%TD*%
%TA.AperFunction,Conductor*%
%ADD20C,0.254000*%
%TD*%
%TA.AperFunction,Conductor*%
%ADD21C,0.100000*%
%TD*%
G04 APERTURE END LIST*
D10*
%TO.P,R3,1*%
%TO.N,Net-(D1-Pad2)*%
X97000000Y-117000000D03*
D11*
%TO.P,R3,2*%
%TO.N,Net-(R3-Pad2)*%
X91920000Y-117000000D03*
%TD*%
D12*
%TO.P,C1,1*%
%TO.N,GND*%
X122000000Y-109000000D03*
%TO.P,C1,2*%
%TO.N,Net-(C1-Pad2)*%
X117000000Y-109000000D03*
%TD*%
D13*
%TO.P,D1,1*%
%TO.N,Net-(C1-Pad2)*%
X112000000Y-110000000D03*
D14*
%TO.P,D1,2*%
%TO.N,Net-(D1-Pad2)*%
X101840000Y-110000000D03*
%TD*%
%TO.P,J1,1*%
%TO.N,Net-(J1-Pad1)*%
%TA.AperFunction,ComponentPad*%
G36*
G01*
X79250000Y-122150000D02*
X80750000Y-122150000D01*
G75*
G02*
X81000000Y-122400000I0J-250000D01*
G01*
X81000000Y-123600000D01*
G75*
G02*
X80750000Y-123850000I-250000J0D01*
G01*
X79250000Y-123850000D01*
G75*
G02*
X79000000Y-123600000I0J250000D01*
G01*
X79000000Y-122400000D01*
G75*
G02*
X79250000Y-122150000I250000J0D01*
G01*
G37*
%TD.AperFunction*%
D15*
%TO.P,J1,2*%
%TO.N,GND*%
X80000000Y-125500000D03*
%TD*%
%TO.P,J2,1*%
%TO.N,Net-(J2-Pad1)*%
%TA.AperFunction,ComponentPad*%
G36*
G01*
X124725000Y-126850000D02*
X123275000Y-126850000D01*
G75*
G02*
X123025000Y-126600000I0J250000D01*
G01*
X123025000Y-125400000D01*
G75*
G02*
X123275000Y-125150000I250000J0D01*
G01*
X124725000Y-125150000D01*
G75*
G02*
X124975000Y-125400000I0J-250000D01*
G01*
X124975000Y-126600000D01*
G75*
G02*
X124725000Y-126850000I-250000J0D01*
G01*
G37*
%TD.AperFunction*%
D16*
%TO.P,J2,2*%
%TO.N,Net-(J2-Pad2)*%
X124000000Y-123500000D03*
%TO.P,J2,3*%
%TO.N,+5V*%
X124000000Y-121000000D03*
%TO.P,J2,4*%
%TO.N,GND*%
X124000000Y-118500000D03*
%TD*%
D11*
%TO.P,R1,2*%
%TO.N,Net-(J1-Pad1)*%
X89000000Y-121920000D03*
D10*
%TO.P,R1,1*%
%TO.N,GND*%
X89000000Y-127000000D03*
%TD*%
%TO.P,R2,1*%
%TO.N,Net-(R2-Pad1)*%
X95000000Y-122000000D03*
D11*
%TO.P,R2,2*%
%TO.N,GND*%
X95000000Y-127080000D03*
%TD*%
%TO.P,R4,2*%
%TO.N,Net-(C1-Pad2)*%
X116920000Y-113000000D03*
D10*
%TO.P,R4,1*%
%TO.N,GND*%
X122000000Y-113000000D03*
%TD*%
%TO.P,RV1,1*%
%TO.N,Net-(R2-Pad1)*%
%TA.AperFunction,ComponentPad*%
G36*
G01*
X79275000Y-109150000D02*
X80725000Y-109150000D01*
G75*
G02*
X80975000Y-109400000I0J-250000D01*
G01*
X80975000Y-110600000D01*
G75*
G02*
X80725000Y-110850000I-250000J0D01*
G01*
X79275000Y-110850000D01*
G75*
G02*
X79025000Y-110600000I0J250000D01*
G01*
X79025000Y-109400000D01*
G75*
G02*
X79275000Y-109150000I250000J0D01*
G01*
G37*
%TD.AperFunction*%
D16*
%TO.P,RV1,2*%
%TO.N,Net-(R3-Pad2)*%
X80000000Y-112500000D03*
%TO.P,RV1,3*%
%TO.N,Net-(RV1-Pad3)*%
X80000000Y-115000000D03*
%TD*%
D17*
%TO.P,U1,1*%
%TO.N,Net-(D1-Pad2)*%
X103000000Y-118000000D03*
D18*
%TO.P,U1,5*%
%TO.N,Net-(C1-Pad2)*%
X110620000Y-125620000D03*
%TO.P,U1,2*%
%TO.N,Net-(R2-Pad1)*%
X103000000Y-120540000D03*
%TO.P,U1,6*%
%TO.N,Net-(J2-Pad2)*%
X110620000Y-123080000D03*
%TO.P,U1,3*%
%TO.N,Net-(J1-Pad1)*%
X103000000Y-123080000D03*
%TO.P,U1,7*%
%TO.N,Net-(J2-Pad2)*%
X110620000Y-120540000D03*
%TO.P,U1,4*%
%TO.N,GND*%
X103000000Y-125620000D03*
%TO.P,U1,8*%
%TO.N,+5V*%
X110620000Y-118000000D03*
%TD*%
D19*
%TO.N,Net-(C1-Pad2)*%
X116000000Y-110000000D02*
X117000000Y-109000000D01*
X114000000Y-110080000D02*
X116920000Y-113000000D01*
X114000000Y-110000000D02*
X114000000Y-110080000D01*
X112000000Y-110000000D02*
X114000000Y-110000000D01*
X114000000Y-110000000D02*
X116000000Y-110000000D01*
X116920000Y-113000000D02*
X109000000Y-113000000D01*
X109000000Y-113000000D02*
X106000000Y-116000000D01*
X106000000Y-116000000D02*
X106000000Y-122000000D01*
X109620000Y-125620000D02*
X110620000Y-125620000D01*
X106000000Y-122000000D02*
X109620000Y-125620000D01*
%TO.N,Net-(D1-Pad2)*%
X97000000Y-117000000D02*
X98000000Y-117000000D01*
X101840000Y-113160000D02*
X101840000Y-110000000D01*
X98000000Y-117000000D02*
X100000000Y-115000000D01*
X100000000Y-115000000D02*
X102000000Y-115000000D01*
X100000000Y-115000000D02*
X101840000Y-113160000D01*
X102000000Y-115000000D02*
X103000000Y-116000000D01*
X103000000Y-116000000D02*
X103000000Y-118000000D01*
%TO.N,Net-(J1-Pad1)*%
X102080000Y-124000000D02*
X103000000Y-123080000D01*
X94000000Y-124000000D02*
X102080000Y-124000000D01*
X91920000Y-121920000D02*
X94000000Y-124000000D01*
X89000000Y-121920000D02*
X91920000Y-121920000D01*
X87920000Y-123000000D02*
X89000000Y-121920000D01*
X80000000Y-123000000D02*
X87920000Y-123000000D01*
%TO.N,Net-(J2-Pad2)*%
X111040000Y-123500000D02*
X110620000Y-123080000D01*
X124000000Y-123500000D02*
X111040000Y-123500000D01*
X110620000Y-120540000D02*
X110620000Y-123080000D01*
%TO.N,+5V*%
X124000000Y-121000000D02*
X117000000Y-121000000D01*
X114000000Y-118000000D02*
X110620000Y-118000000D01*
X117000000Y-121000000D02*
X114000000Y-118000000D01*
%TO.N,Net-(R2-Pad1)*%
X101540000Y-122000000D02*
X103000000Y-120540000D01*
X95000000Y-122000000D02*
X101540000Y-122000000D01*
X95000000Y-114000000D02*
X95000000Y-122000000D01*
X91000000Y-110000000D02*
X95000000Y-114000000D01*
X80000000Y-110000000D02*
X91000000Y-110000000D01*
%TO.N,Net-(R3-Pad2)*%
X87420000Y-112500000D02*
X91920000Y-117000000D01*
X80000000Y-112500000D02*
X87420000Y-112500000D01*
%TD*%
D20*
%TO.N,GND*%
X127873000Y-133340000D02*
X76127000Y-133340000D01*
X76127000Y-127921269D01*
X88258336Y-127921269D01*
X88317797Y-128155037D01*
X88556242Y-128265934D01*
X88811740Y-128328183D01*
X89074473Y-128339390D01*
X89334344Y-128299125D01*
X89581366Y-128208935D01*
X89682203Y-128155037D01*
X89741664Y-127921269D01*
X89000000Y-127179605D01*
X88258336Y-127921269D01*
X76127000Y-127921269D01*
X76127000Y-127074473D01*
X87660610Y-127074473D01*
X87700875Y-127334344D01*
X87791065Y-127581366D01*
X87844963Y-127682203D01*
X88078731Y-127741664D01*
X88820395Y-127000000D01*
X89179605Y-127000000D01*
X89921269Y-127741664D01*
X90155037Y-127682203D01*
X90265934Y-127443758D01*
X90273347Y-127413330D01*
X93707278Y-127413330D01*
X93797147Y-127659123D01*
X93933241Y-127882660D01*
X94110330Y-128075351D01*
X94321608Y-128229792D01*
X94558956Y-128340047D01*
X94666671Y-128372716D01*
X94873000Y-128249374D01*
X94873000Y-127207000D01*
X95127000Y-127207000D01*
X95127000Y-128249374D01*
X95333329Y-128372716D01*
X95441044Y-128340047D01*
X95678392Y-128229792D01*
X95889670Y-128075351D01*
X96066759Y-127882660D01*
X96202853Y-127659123D01*
X96292722Y-127413330D01*
X96170201Y-127207000D01*
X95127000Y-127207000D01*
X94873000Y-127207000D01*
X93829799Y-127207000D01*
X93707278Y-127413330D01*
X90273347Y-127413330D01*
X90328183Y-127188260D01*
X90339390Y-126925527D01*
X90311678Y-126746670D01*
X93707278Y-126746670D01*
X93829799Y-126953000D01*
X94873000Y-126953000D01*
X94873000Y-125910626D01*
X95127000Y-125910626D01*
X95127000Y-126953000D01*
X96170201Y-126953000D01*
X96292722Y-126746670D01*
X96202853Y-126500877D01*
X96066759Y-126277340D01*
X95889670Y-126084649D01*
X95731514Y-125969039D01*
X101208096Y-125969039D01*
X101225633Y-126051818D01*
X101336285Y-126311646D01*
X101495500Y-126544895D01*
X101697161Y-126742601D01*
X101933517Y-126897166D01*
X102195486Y-127002650D01*
X102473000Y-127055000D01*
X102873000Y-127055000D01*
X102873000Y-125747000D01*
X103127000Y-125747000D01*
X103127000Y-127055000D01*
X103527000Y-127055000D01*
X103804514Y-127002650D01*
X104066483Y-126897166D01*
X104302839Y-126742601D01*
X104504500Y-126544895D01*
X104663715Y-126311646D01*
X104774367Y-126051818D01*
X104791904Y-125969039D01*
X104669915Y-125747000D01*
X103127000Y-125747000D01*
X102873000Y-125747000D01*
X101330085Y-125747000D01*
X101208096Y-125969039D01*
X95731514Y-125969039D01*
X95678392Y-125930208D01*
X95441044Y-125819953D01*
X95333329Y-125787284D01*
X95127000Y-125910626D01*
X94873000Y-125910626D01*
X94666671Y-125787284D01*
X94558956Y-125819953D01*
X94321608Y-125930208D01*
X94110330Y-126084649D01*
X93933241Y-126277340D01*
X93797147Y-126500877D01*
X93707278Y-126746670D01*
X90311678Y-126746670D01*
X90299125Y-126665656D01*
X90208935Y-126418634D01*
X90155037Y-126317797D01*
X89921269Y-126258336D01*
X89179605Y-127000000D01*
X88820395Y-127000000D01*
X88078731Y-126258336D01*
X87844963Y-126317797D01*
X87734066Y-126556242D01*
X87671817Y-126811740D01*
X87660610Y-127074473D01*
X76127000Y-127074473D01*
X76127000Y-125856890D01*
X78408524Y-125856890D01*
X78410446Y-125869261D01*
X78510146Y-126143009D01*
X78661336Y-126392046D01*
X78858205Y-126606802D01*
X79093188Y-126779025D01*
X79357255Y-126902096D01*
X79640258Y-126971285D01*
X79873000Y-126827232D01*
X79873000Y-125627000D01*
X80127000Y-125627000D01*
X80127000Y-126827232D01*
X80359742Y-126971285D01*
X80642745Y-126902096D01*
X80906812Y-126779025D01*
X81141795Y-126606802D01*
X81338664Y-126392046D01*
X81489854Y-126143009D01*
X81513264Y-126078731D01*
X88258336Y-126078731D01*
X89000000Y-126820395D01*
X89741664Y-126078731D01*
X89682203Y-125844963D01*
X89443758Y-125734066D01*
X89188260Y-125671817D01*
X88925527Y-125660610D01*
X88665656Y-125700875D01*
X88418634Y-125791065D01*
X88317797Y-125844963D01*
X88258336Y-126078731D01*
X81513264Y-126078731D01*
X81589554Y-125869261D01*
X81591476Y-125856890D01*
X81470155Y-125627000D01*
X80127000Y-125627000D01*
X79873000Y-125627000D01*
X78529845Y-125627000D01*
X78408524Y-125856890D01*
X76127000Y-125856890D01*
X76127000Y-122400000D01*
X78361928Y-122400000D01*
X78361928Y-123600000D01*
X78378992Y-123773254D01*
X78429528Y-123939850D01*
X78511595Y-124093386D01*
X78622038Y-124227962D01*
X78756614Y-124338405D01*
X78858593Y-124392914D01*
X78858205Y-124393198D01*
X78661336Y-124607954D01*
X78510146Y-124856991D01*
X78410446Y-125130739D01*
X78408524Y-125143110D01*
X78529845Y-125373000D01*
X79873000Y-125373000D01*
X79873000Y-125353000D01*
X80127000Y-125353000D01*
X80127000Y-125373000D01*
X81470155Y-125373000D01*
X81591476Y-125143110D01*
X81589554Y-125130739D01*
X81489854Y-124856991D01*
X81338664Y-124607954D01*
X81141795Y-124393198D01*
X81141407Y-124392914D01*
X81243386Y-124338405D01*
X81377962Y-124227962D01*
X81488405Y-124093386D01*
X81570472Y-123939850D01*
X81587110Y-123885000D01*
X87876531Y-123885000D01*
X87920000Y-123889281D01*
X87963469Y-123885000D01*
X87963477Y-123885000D01*
X88093490Y-123872195D01*
X88260313Y-123821589D01*
X88414059Y-123739411D01*
X88548817Y-123628817D01*
X88576534Y-123595044D01*
X88916578Y-123255000D01*
X89131486Y-123255000D01*
X89389405Y-123203696D01*
X89632359Y-123103061D01*
X89851013Y-122956962D01*
X90002975Y-122805000D01*
X91553422Y-122805000D01*
X93343470Y-124595049D01*
X93371183Y-124628817D01*
X93404951Y-124656530D01*
X93404953Y-124656532D01*
X93451954Y-124695105D01*
X93505941Y-124739411D01*
X93659687Y-124821589D01*
X93826510Y-124872195D01*
X93956523Y-124885000D01*
X93956533Y-124885000D01*
X93999999Y-124889281D01*
X94043465Y-124885000D01*
X101365878Y-124885000D01*
X101336285Y-124928354D01*
X101225633Y-125188182D01*
X101208096Y-125270961D01*
X101330085Y-125493000D01*
X102873000Y-125493000D01*
X102873000Y-125473000D01*
X103127000Y-125473000D01*
X103127000Y-125493000D01*
X104669915Y-125493000D01*
X104791904Y-125270961D01*
X104774367Y-125188182D01*
X104663715Y-124928354D01*
X104504500Y-124695105D01*
X104302839Y-124497399D01*
X104073259Y-124347265D01*
X104201101Y-124278932D01*
X104419608Y-124099608D01*
X104598932Y-123881101D01*
X104732182Y-123631808D01*
X104814236Y-123361309D01*
X104841943Y-123080000D01*
X104814236Y-122798691D01*
X104732182Y-122528192D01*
X104598932Y-122278899D01*
X104419608Y-122060392D01*
X104201101Y-121881068D01*
X104068142Y-121810000D01*
X104201101Y-121738932D01*
X104419608Y-121559608D01*
X104598932Y-121341101D01*
X104732182Y-121091808D01*
X104814236Y-120821309D01*
X104841943Y-120540000D01*
X104814236Y-120258691D01*
X104732182Y-119988192D01*
X104598932Y-119738899D01*
X104419608Y-119520392D01*
X104306518Y-119427581D01*
X104324482Y-119425812D01*
X104444180Y-119389502D01*
X104554494Y-119330537D01*
X104651185Y-119251185D01*
X104730537Y-119154494D01*
X104789502Y-119044180D01*
X104825812Y-118924482D01*
X104838072Y-118800000D01*
X104838072Y-117200000D01*
X104825812Y-117075518D01*
X104789502Y-116955820D01*
X104730537Y-116845506D01*
X104651185Y-116748815D01*
X104554494Y-116669463D01*
X104444180Y-116610498D01*
X104324482Y-116574188D01*
X104200000Y-116561928D01*
X103885000Y-116561928D01*
X103885000Y-116043469D01*
X103889281Y-116000000D01*
X105110719Y-116000000D01*
X105115000Y-116043469D01*
X105115001Y-121956521D01*
X105110719Y-122000000D01*
X105127805Y-122173490D01*
X105178412Y-122340313D01*
X105260590Y-122494059D01*
X105343468Y-122595046D01*
X105343471Y-122595049D01*
X105371184Y-122628817D01*
X105404951Y-122656529D01*
X108873705Y-126125284D01*
X108887818Y-126171808D01*
X109021068Y-126421101D01*
X109200392Y-126639608D01*
X109418899Y-126818932D01*
X109668192Y-126952182D01*
X109938691Y-127034236D01*
X110149508Y-127055000D01*
X111090492Y-127055000D01*
X111301309Y-127034236D01*
X111571808Y-126952182D01*
X111821101Y-126818932D01*
X112039608Y-126639608D01*
X112218932Y-126421101D01*
X112352182Y-126171808D01*
X112434236Y-125901309D01*
X112461943Y-125620000D01*
X112434236Y-125338691D01*
X112352182Y-125068192D01*
X112218932Y-124818899D01*
X112039608Y-124600392D01*
X111821101Y-124421068D01*
X111753623Y-124385000D01*
X122680241Y-124385000D01*
X122819866Y-124555134D01*
X122883337Y-124607223D01*
X122781614Y-124661595D01*
X122647038Y-124772038D01*
X122536595Y-124906614D01*
X122454528Y-125060150D01*
X122403992Y-125226746D01*
X122386928Y-125400000D01*
X122386928Y-126600000D01*
X122403992Y-126773254D01*
X122454528Y-126939850D01*
X122536595Y-127093386D01*
X122647038Y-127227962D01*
X122781614Y-127338405D01*
X122935150Y-127420472D01*
X123101746Y-127471008D01*
X123275000Y-127488072D01*
X124725000Y-127488072D01*
X124898254Y-127471008D01*
X125064850Y-127420472D01*
X125218386Y-127338405D01*
X125352962Y-127227962D01*
X125463405Y-127093386D01*
X125545472Y-126939850D01*
X125596008Y-126773254D01*
X125613072Y-126600000D01*
X125613072Y-125400000D01*
X125596008Y-125226746D01*
X125545472Y-125060150D01*
X125463405Y-124906614D01*
X125352962Y-124772038D01*
X125218386Y-124661595D01*
X125116663Y-124607223D01*
X125180134Y-124555134D01*
X125365706Y-124329014D01*
X125503599Y-124071034D01*
X125588513Y-123791111D01*
X125617185Y-123500000D01*
X125588513Y-123208889D01*
X125503599Y-122928966D01*
X125365706Y-122670986D01*
X125180134Y-122444866D01*
X124954014Y-122259294D01*
X124936626Y-122250000D01*
X124954014Y-122240706D01*
X125180134Y-122055134D01*
X125365706Y-121829014D01*
X125503599Y-121571034D01*
X125588513Y-121291111D01*
X125617185Y-121000000D01*
X125588513Y-120708889D01*
X125503599Y-120428966D01*
X125365706Y-120170986D01*
X125180134Y-119944866D01*
X124954014Y-119759294D01*
X124928278Y-119745538D01*
X125134429Y-119589049D01*
X125327496Y-119371193D01*
X125474352Y-119119858D01*
X125566476Y-118856890D01*
X125445155Y-118627000D01*
X124127000Y-118627000D01*
X124127000Y-118647000D01*
X123873000Y-118647000D01*
X123873000Y-118627000D01*
X122554845Y-118627000D01*
X122433524Y-118856890D01*
X122525648Y-119119858D01*
X122672504Y-119371193D01*
X122865571Y-119589049D01*
X123071722Y-119745538D01*
X123045986Y-119759294D01*
X122819866Y-119944866D01*
X122680241Y-120115000D01*
X117366579Y-120115000D01*
X115394689Y-118143110D01*
X122433524Y-118143110D01*
X122554845Y-118373000D01*
X123873000Y-118373000D01*
X123873000Y-117173835D01*
X124127000Y-117173835D01*
X124127000Y-118373000D01*
X125445155Y-118373000D01*
X125566476Y-118143110D01*
X125474352Y-117880142D01*
X125327496Y-117628807D01*
X125134429Y-117410951D01*
X124902570Y-117234947D01*
X124640830Y-117107558D01*
X124359267Y-117033680D01*
X124127000Y-117173835D01*
X123873000Y-117173835D01*
X123640733Y-117033680D01*
X123359170Y-117107558D01*
X123097430Y-117234947D01*
X122865571Y-117410951D01*
X122672504Y-117628807D01*
X122525648Y-117880142D01*
X122433524Y-118143110D01*
X115394689Y-118143110D01*
X114656534Y-117404956D01*
X114628817Y-117371183D01*
X114494059Y-117260589D01*
X114340313Y-117178411D01*
X114173490Y-117127805D01*
X114043477Y-117115000D01*
X114043469Y-117115000D01*
X114000000Y-117110719D01*
X113956531Y-117115000D01*
X112150078Y-117115000D01*
X112039608Y-116980392D01*
X111821101Y-116801068D01*
X111571808Y-116667818D01*
X111301309Y-116585764D01*
X111090492Y-116565000D01*
X110149508Y-116565000D01*
X109938691Y-116585764D01*
X109668192Y-116667818D01*
X109418899Y-116801068D01*
X109200392Y-116980392D01*
X109021068Y-117198899D01*
X108887818Y-117448192D01*
X108805764Y-117718691D01*
X108778057Y-118000000D01*
X108805764Y-118281309D01*
X108887818Y-118551808D01*
X109021068Y-118801101D01*
X109200392Y-119019608D01*
X109418899Y-119198932D01*
X109551858Y-119270000D01*
X109418899Y-119341068D01*
X109200392Y-119520392D01*
X109021068Y-119738899D01*
X108887818Y-119988192D01*
X108805764Y-120258691D01*
X108778057Y-120540000D01*
X108805764Y-120821309D01*
X108887818Y-121091808D01*
X109021068Y-121341101D01*
X109200392Y-121559608D01*
X109418899Y-121738932D01*
X109551858Y-121810000D01*
X109418899Y-121881068D01*
X109200392Y-122060392D01*
X109021068Y-122278899D01*
X108887818Y-122528192D01*
X108805764Y-122798691D01*
X108778057Y-123080000D01*
X108805764Y-123361309D01*
X108887818Y-123631808D01*
X108892906Y-123641328D01*
X106885000Y-121633422D01*
X106885000Y-116366578D01*
X109366579Y-113885000D01*
X115917025Y-113885000D01*
X116068987Y-114036962D01*
X116287641Y-114183061D01*
X116530595Y-114283696D01*
X116788514Y-114335000D01*
X117051486Y-114335000D01*
X117309405Y-114283696D01*
X117552359Y-114183061D01*
X117771013Y-114036962D01*
X117886706Y-113921269D01*
X121258336Y-113921269D01*
X121317797Y-114155037D01*
X121556242Y-114265934D01*
X121811740Y-114328183D01*
X122074473Y-114339390D01*
X122334344Y-114299125D01*
X122581366Y-114208935D01*
X122682203Y-114155037D01*
X122741664Y-113921269D01*
X122000000Y-113179605D01*
X121258336Y-113921269D01*
X117886706Y-113921269D01*
X117956962Y-113851013D01*
X118103061Y-113632359D01*
X118203696Y-113389405D01*
X118255000Y-113131486D01*
X118255000Y-113074473D01*
X120660610Y-113074473D01*
X120700875Y-113334344D01*
X120791065Y-113581366D01*
X120844963Y-113682203D01*
X121078731Y-113741664D01*
X121820395Y-113000000D01*
X122179605Y-113000000D01*
X122921269Y-113741664D01*
X123155037Y-113682203D01*
X123265934Y-113443758D01*
X123328183Y-113188260D01*
X123339390Y-112925527D01*
X123299125Y-112665656D01*
X123208935Y-112418634D01*
X123155037Y-112317797D01*
X122921269Y-112258336D01*
X122179605Y-113000000D01*
X121820395Y-113000000D01*
X121078731Y-112258336D01*
X120844963Y-112317797D01*
X120734066Y-112556242D01*
X120671817Y-112811740D01*
X120660610Y-113074473D01*
X118255000Y-113074473D01*
X118255000Y-112868514D01*
X118203696Y-112610595D01*
X118103061Y-112367641D01*
X117956962Y-112148987D01*
X117886706Y-112078731D01*
X121258336Y-112078731D01*
X122000000Y-112820395D01*
X122741664Y-112078731D01*
X122682203Y-111844963D01*
X122443758Y-111734066D01*
X122188260Y-111671817D01*
X121925527Y-111660610D01*
X121665656Y-111700875D01*
X121418634Y-111791065D01*
X121317797Y-111844963D01*
X121258336Y-112078731D01*
X117886706Y-112078731D01*
X117771013Y-111963038D01*
X117552359Y-111816939D01*
X117309405Y-111716304D01*
X117051486Y-111665000D01*
X116836579Y-111665000D01*
X116055404Y-110883825D01*
X116173490Y-110872195D01*
X116340313Y-110821589D01*
X116494059Y-110739411D01*
X116628817Y-110628817D01*
X116656534Y-110595044D01*
X116823561Y-110428017D01*
X116858665Y-110435000D01*
X117141335Y-110435000D01*
X117418574Y-110379853D01*
X117679727Y-110271680D01*
X117914759Y-110114637D01*
X118036694Y-109992702D01*
X121186903Y-109992702D01*
X121258486Y-110236671D01*
X121513996Y-110357571D01*
X121788184Y-110426300D01*
X122070512Y-110440217D01*
X122350130Y-110398787D01*
X122616292Y-110303603D01*
X122741514Y-110236671D01*
X122813097Y-109992702D01*
X122000000Y-109179605D01*
X121186903Y-109992702D01*
X118036694Y-109992702D01*
X118114637Y-109914759D01*
X118271680Y-109679727D01*
X118379853Y-109418574D01*
X118435000Y-109141335D01*
X118435000Y-109070512D01*
X120559783Y-109070512D01*
X120601213Y-109350130D01*
X120696397Y-109616292D01*
X120763329Y-109741514D01*
X121007298Y-109813097D01*
X121820395Y-109000000D01*
X122179605Y-109000000D01*
X122992702Y-109813097D01*
X123236671Y-109741514D01*
X123357571Y-109486004D01*
X123426300Y-109211816D01*
X123440217Y-108929488D01*
X123398787Y-108649870D01*
X123303603Y-108383708D01*
X123236671Y-108258486D01*
X122992702Y-108186903D01*
X122179605Y-109000000D01*
X121820395Y-109000000D01*
X121007298Y-108186903D01*
X120763329Y-108258486D01*
X120642429Y-108513996D01*
X120573700Y-108788184D01*
X120559783Y-109070512D01*
X118435000Y-109070512D01*
X118435000Y-108858665D01*
X118379853Y-108581426D01*
X118271680Y-108320273D01*
X118114637Y-108085241D01*
X118036694Y-108007298D01*
X121186903Y-108007298D01*
X122000000Y-108820395D01*
X122813097Y-108007298D01*
X122741514Y-107763329D01*
X122486004Y-107642429D01*
X122211816Y-107573700D01*
X121929488Y-107559783D01*
X121649870Y-107601213D01*
X121383708Y-107696397D01*
X121258486Y-107763329D01*
X121186903Y-108007298D01*
X118036694Y-108007298D01*
X117914759Y-107885363D01*
X117679727Y-107728320D01*
X117418574Y-107620147D01*
X117141335Y-107565000D01*
X116858665Y-107565000D01*
X116581426Y-107620147D01*
X116320273Y-107728320D01*
X116085241Y-107885363D01*
X115885363Y-108085241D01*
X115728320Y-108320273D01*
X115620147Y-108581426D01*
X115565000Y-108858665D01*
X115565000Y-109115000D01*
X114043476Y-109115000D01*
X114000000Y-109110718D01*
X113956523Y-109115000D01*
X113738072Y-109115000D01*
X113738072Y-108900000D01*
X113725812Y-108775518D01*
X113689502Y-108655820D01*
X113630537Y-108545506D01*
X113551185Y-108448815D01*
X113454494Y-108369463D01*
X113344180Y-108310498D01*
X113224482Y-108274188D01*
X113100000Y-108261928D01*
X110900000Y-108261928D01*
X110775518Y-108274188D01*
X110655820Y-108310498D01*
X110545506Y-108369463D01*
X110448815Y-108448815D01*
X110369463Y-108545506D01*
X110310498Y-108655820D01*
X110274188Y-108775518D01*
X110261928Y-108900000D01*
X110261928Y-111100000D01*
X110274188Y-111224482D01*
X110310498Y-111344180D01*
X110369463Y-111454494D01*
X110448815Y-111551185D01*
X110545506Y-111630537D01*
X110655820Y-111689502D01*
X110775518Y-111725812D01*
X110900000Y-111738072D01*
X113100000Y-111738072D01*
X113224482Y-111725812D01*
X113344180Y-111689502D01*
X113454494Y-111630537D01*
X113551185Y-111551185D01*
X113630537Y-111454494D01*
X113689502Y-111344180D01*
X113725812Y-111224482D01*
X113738072Y-111100000D01*
X113738072Y-111069650D01*
X114783422Y-112115000D01*
X109043469Y-112115000D01*
X109000000Y-112110719D01*
X108956531Y-112115000D01*
X108956523Y-112115000D01*
X108826510Y-112127805D01*
X108659686Y-112178411D01*
X108505941Y-112260589D01*
X108404953Y-112343468D01*
X108404951Y-112343470D01*
X108371183Y-112371183D01*
X108343470Y-112404951D01*
X105404956Y-115343466D01*
X105371183Y-115371183D01*
X105260589Y-115505942D01*
X105178411Y-115659688D01*
X105154227Y-115739410D01*
X105130709Y-115816939D01*
X105127805Y-115826511D01*
X105115000Y-115956524D01*
X105115000Y-115956531D01*
X105110719Y-116000000D01*
X103889281Y-116000000D01*
X103885000Y-115956531D01*
X103885000Y-115956523D01*
X103872195Y-115826510D01*
X103869292Y-115816939D01*
X103821589Y-115659686D01*
X103739411Y-115505941D01*
X103656532Y-115404953D01*
X103656530Y-115404951D01*
X103628817Y-115371183D01*
X103595050Y-115343471D01*
X102656532Y-114404954D01*
X102628817Y-114371183D01*
X102494059Y-114260589D01*
X102340313Y-114178411D01*
X102173490Y-114127805D01*
X102128231Y-114123347D01*
X102435050Y-113816529D01*
X102468817Y-113788817D01*
X102579411Y-113654059D01*
X102661589Y-113500313D01*
X102712195Y-113333490D01*
X102725000Y-113203477D01*
X102725000Y-113203469D01*
X102729281Y-113160000D01*
X102725000Y-113116531D01*
X102725000Y-111495329D01*
X102945998Y-111347663D01*
X103187663Y-111105998D01*
X103377537Y-110821831D01*
X103508325Y-110506081D01*
X103575000Y-110170883D01*
X103575000Y-109829117D01*
X103508325Y-109493919D01*
X103377537Y-109178169D01*
X103187663Y-108894002D01*
X102945998Y-108652337D01*
X102661831Y-108462463D01*
X102346081Y-108331675D01*
X102010883Y-108265000D01*
X101669117Y-108265000D01*
X101333919Y-108331675D01*
X101018169Y-108462463D01*
X100734002Y-108652337D01*
X100492337Y-108894002D01*
X100302463Y-109178169D01*
X100171675Y-109493919D01*
X100105000Y-109829117D01*
X100105000Y-110170883D01*
X100171675Y-110506081D01*
X100302463Y-110821831D01*
X100492337Y-111105998D01*
X100734002Y-111347663D01*
X100955001Y-111495329D01*
X100955000Y-112793421D01*
X99404958Y-114343464D01*
X99404953Y-114343468D01*
X99404951Y-114343470D01*
X99371183Y-114371183D01*
X99343470Y-114404951D01*
X97811671Y-115936751D01*
X97632359Y-115816939D01*
X97389405Y-115716304D01*
X97131486Y-115665000D01*
X96868514Y-115665000D01*
X96610595Y-115716304D01*
X96367641Y-115816939D01*
X96148987Y-115963038D01*
X95963038Y-116148987D01*
X95885000Y-116265780D01*
X95885000Y-114043465D01*
X95889281Y-113999999D01*
X95885000Y-113956533D01*
X95885000Y-113956523D01*
X95872195Y-113826510D01*
X95821589Y-113659687D01*
X95739411Y-113505941D01*
X95628817Y-113371183D01*
X95595050Y-113343472D01*
X91656532Y-109404954D01*
X91628817Y-109371183D01*
X91494059Y-109260589D01*
X91340313Y-109178411D01*
X91173490Y-109127805D01*
X91043477Y-109115000D01*
X91043469Y-109115000D01*
X91000000Y-109110719D01*
X90956531Y-109115000D01*
X81562110Y-109115000D01*
X81545472Y-109060150D01*
X81463405Y-108906614D01*
X81352962Y-108772038D01*
X81218386Y-108661595D01*
X81064850Y-108579528D01*
X80898254Y-108528992D01*
X80725000Y-108511928D01*
X79275000Y-108511928D01*
X79101746Y-108528992D01*
X78935150Y-108579528D01*
X78781614Y-108661595D01*
X78647038Y-108772038D01*
X78536595Y-108906614D01*
X78454528Y-109060150D01*
X78403992Y-109226746D01*
X78386928Y-109400000D01*
X78386928Y-110600000D01*
X78403992Y-110773254D01*
X78454528Y-110939850D01*
X78536595Y-111093386D01*
X78647038Y-111227962D01*
X78781614Y-111338405D01*
X78883337Y-111392777D01*
X78819866Y-111444866D01*
X78634294Y-111670986D01*
X78496401Y-111928966D01*
X78411487Y-112208889D01*
X78382815Y-112500000D01*
X78411487Y-112791111D01*
X78496401Y-113071034D01*
X78634294Y-113329014D01*
X78819866Y-113555134D01*
X79045986Y-113740706D01*
X79063374Y-113750000D01*
X79045986Y-113759294D01*
X78819866Y-113944866D01*
X78634294Y-114170986D01*
X78496401Y-114428966D01*
X78411487Y-114708889D01*
X78382815Y-115000000D01*
X78411487Y-115291111D01*
X78496401Y-115571034D01*
X78634294Y-115829014D01*
X78819866Y-116055134D01*
X79045986Y-116240706D01*
X79303966Y-116378599D01*
X79583889Y-116463513D01*
X79802050Y-116485000D01*
X80197950Y-116485000D01*
X80416111Y-116463513D01*
X80696034Y-116378599D01*
X80954014Y-116240706D01*
X81180134Y-116055134D01*
X81365706Y-115829014D01*
X81503599Y-115571034D01*
X81588513Y-115291111D01*
X81617185Y-115000000D01*
X81588513Y-114708889D01*
X81503599Y-114428966D01*
X81365706Y-114170986D01*
X81180134Y-113944866D01*
X80954014Y-113759294D01*
X80936626Y-113750000D01*
X80954014Y-113740706D01*
X81180134Y-113555134D01*
X81319759Y-113385000D01*
X87053422Y-113385000D01*
X90585000Y-116916579D01*
X90585000Y-117131486D01*
X90636304Y-117389405D01*
X90736939Y-117632359D01*
X90883038Y-117851013D01*
X91068987Y-118036962D01*
X91287641Y-118183061D01*
X91530595Y-118283696D01*
X91788514Y-118335000D01*
X92051486Y-118335000D01*
X92309405Y-118283696D01*
X92552359Y-118183061D01*
X92771013Y-118036962D01*
X92956962Y-117851013D01*
X93103061Y-117632359D01*
X93203696Y-117389405D01*
X93255000Y-117131486D01*
X93255000Y-116868514D01*
X93203696Y-116610595D01*
X93103061Y-116367641D01*
X92956962Y-116148987D01*
X92771013Y-115963038D01*
X92552359Y-115816939D01*
X92309405Y-115716304D01*
X92051486Y-115665000D01*
X91836579Y-115665000D01*
X88076534Y-111904956D01*
X88048817Y-111871183D01*
X87914059Y-111760589D01*
X87760313Y-111678411D01*
X87593490Y-111627805D01*
X87463477Y-111615000D01*
X87463469Y-111615000D01*
X87420000Y-111610719D01*
X87376531Y-111615000D01*
X81319759Y-111615000D01*
X81180134Y-111444866D01*
X81116663Y-111392777D01*
X81218386Y-111338405D01*
X81352962Y-111227962D01*
X81463405Y-111093386D01*
X81545472Y-110939850D01*
X81562110Y-110885000D01*
X90633422Y-110885000D01*
X94115000Y-114366579D01*
X94115001Y-120997024D01*
X93963038Y-121148987D01*
X93816939Y-121367641D01*
X93716304Y-121610595D01*
X93665000Y-121868514D01*
X93665000Y-122131486D01*
X93716304Y-122389405D01*
X93769564Y-122517985D01*
X92576534Y-121324956D01*
X92548817Y-121291183D01*
X92414059Y-121180589D01*
X92260313Y-121098411D01*
X92093490Y-121047805D01*
X91963477Y-121035000D01*
X91963469Y-121035000D01*
X91920000Y-121030719D01*
X91876531Y-121035000D01*
X90002975Y-121035000D01*
X89851013Y-120883038D01*
X89632359Y-120736939D01*
X89389405Y-120636304D01*
X89131486Y-120585000D01*
X88868514Y-120585000D01*
X88610595Y-120636304D01*
X88367641Y-120736939D01*
X88148987Y-120883038D01*
X87963038Y-121068987D01*
X87816939Y-121287641D01*
X87716304Y-121530595D01*
X87665000Y-121788514D01*
X87665000Y-122003422D01*
X87553422Y-122115000D01*
X81587110Y-122115000D01*
X81570472Y-122060150D01*
X81488405Y-121906614D01*
X81377962Y-121772038D01*
X81243386Y-121661595D01*
X81089850Y-121579528D01*
X80923254Y-121528992D01*
X80750000Y-121511928D01*
X79250000Y-121511928D01*
X79076746Y-121528992D01*
X78910150Y-121579528D01*
X78756614Y-121661595D01*
X78622038Y-121772038D01*
X78511595Y-121906614D01*
X78429528Y-122060150D01*
X78378992Y-122226746D01*
X78361928Y-122400000D01*
X76127000Y-122400000D01*
X76127000Y-102660000D01*
X127873000Y-102660000D01*
X127873000Y-133340000D01*
%TA.AperFunction,Conductor*%
D21*
G36*
X127873000Y-133340000D02*
G01*
X76127000Y-133340000D01*
X76127000Y-127921269D01*
X88258336Y-127921269D01*
X88317797Y-128155037D01*
X88556242Y-128265934D01*
X88811740Y-128328183D01*
X89074473Y-128339390D01*
X89334344Y-128299125D01*
X89581366Y-128208935D01*
X89682203Y-128155037D01*
X89741664Y-127921269D01*
X89000000Y-127179605D01*
X88258336Y-127921269D01*
X76127000Y-127921269D01*
X76127000Y-127074473D01*
X87660610Y-127074473D01*
X87700875Y-127334344D01*
X87791065Y-127581366D01*
X87844963Y-127682203D01*
X88078731Y-127741664D01*
X88820395Y-127000000D01*
X89179605Y-127000000D01*
X89921269Y-127741664D01*
X90155037Y-127682203D01*
X90265934Y-127443758D01*
X90273347Y-127413330D01*
X93707278Y-127413330D01*
X93797147Y-127659123D01*
X93933241Y-127882660D01*
X94110330Y-128075351D01*
X94321608Y-128229792D01*
X94558956Y-128340047D01*
X94666671Y-128372716D01*
X94873000Y-128249374D01*
X94873000Y-127207000D01*
X95127000Y-127207000D01*
X95127000Y-128249374D01*
X95333329Y-128372716D01*
X95441044Y-128340047D01*
X95678392Y-128229792D01*
X95889670Y-128075351D01*
X96066759Y-127882660D01*
X96202853Y-127659123D01*
X96292722Y-127413330D01*
X96170201Y-127207000D01*
X95127000Y-127207000D01*
X94873000Y-127207000D01*
X93829799Y-127207000D01*
X93707278Y-127413330D01*
X90273347Y-127413330D01*
X90328183Y-127188260D01*
X90339390Y-126925527D01*
X90311678Y-126746670D01*
X93707278Y-126746670D01*
X93829799Y-126953000D01*
X94873000Y-126953000D01*
X94873000Y-125910626D01*
X95127000Y-125910626D01*
X95127000Y-126953000D01*
X96170201Y-126953000D01*
X96292722Y-126746670D01*
X96202853Y-126500877D01*
X96066759Y-126277340D01*
X95889670Y-126084649D01*
X95731514Y-125969039D01*
X101208096Y-125969039D01*
X101225633Y-126051818D01*
X101336285Y-126311646D01*
X101495500Y-126544895D01*
X101697161Y-126742601D01*
X101933517Y-126897166D01*
X102195486Y-127002650D01*
X102473000Y-127055000D01*
X102873000Y-127055000D01*
X102873000Y-125747000D01*
X103127000Y-125747000D01*
X103127000Y-127055000D01*
X103527000Y-127055000D01*
X103804514Y-127002650D01*
X104066483Y-126897166D01*
X104302839Y-126742601D01*
X104504500Y-126544895D01*
X104663715Y-126311646D01*
X104774367Y-126051818D01*
X104791904Y-125969039D01*
X104669915Y-125747000D01*
X103127000Y-125747000D01*
X102873000Y-125747000D01*
X101330085Y-125747000D01*
X101208096Y-125969039D01*
X95731514Y-125969039D01*
X95678392Y-125930208D01*
X95441044Y-125819953D01*
X95333329Y-125787284D01*
X95127000Y-125910626D01*
X94873000Y-125910626D01*
X94666671Y-125787284D01*
X94558956Y-125819953D01*
X94321608Y-125930208D01*
X94110330Y-126084649D01*
X93933241Y-126277340D01*
X93797147Y-126500877D01*
X93707278Y-126746670D01*
X90311678Y-126746670D01*
X90299125Y-126665656D01*
X90208935Y-126418634D01*
X90155037Y-126317797D01*
X89921269Y-126258336D01*
X89179605Y-127000000D01*
X88820395Y-127000000D01*
X88078731Y-126258336D01*
X87844963Y-126317797D01*
X87734066Y-126556242D01*
X87671817Y-126811740D01*
X87660610Y-127074473D01*
X76127000Y-127074473D01*
X76127000Y-125856890D01*
X78408524Y-125856890D01*
X78410446Y-125869261D01*
X78510146Y-126143009D01*
X78661336Y-126392046D01*
X78858205Y-126606802D01*
X79093188Y-126779025D01*
X79357255Y-126902096D01*
X79640258Y-126971285D01*
X79873000Y-126827232D01*
X79873000Y-125627000D01*
X80127000Y-125627000D01*
X80127000Y-126827232D01*
X80359742Y-126971285D01*
X80642745Y-126902096D01*
X80906812Y-126779025D01*
X81141795Y-126606802D01*
X81338664Y-126392046D01*
X81489854Y-126143009D01*
X81513264Y-126078731D01*
X88258336Y-126078731D01*
X89000000Y-126820395D01*
X89741664Y-126078731D01*
X89682203Y-125844963D01*
X89443758Y-125734066D01*
X89188260Y-125671817D01*
X88925527Y-125660610D01*
X88665656Y-125700875D01*
X88418634Y-125791065D01*
X88317797Y-125844963D01*
X88258336Y-126078731D01*
X81513264Y-126078731D01*
X81589554Y-125869261D01*
X81591476Y-125856890D01*
X81470155Y-125627000D01*
X80127000Y-125627000D01*
X79873000Y-125627000D01*
X78529845Y-125627000D01*
X78408524Y-125856890D01*
X76127000Y-125856890D01*
X76127000Y-122400000D01*
X78361928Y-122400000D01*
X78361928Y-123600000D01*
X78378992Y-123773254D01*
X78429528Y-123939850D01*
X78511595Y-124093386D01*
X78622038Y-124227962D01*
X78756614Y-124338405D01*
X78858593Y-124392914D01*
X78858205Y-124393198D01*
X78661336Y-124607954D01*
X78510146Y-124856991D01*
X78410446Y-125130739D01*
X78408524Y-125143110D01*
X78529845Y-125373000D01*
X79873000Y-125373000D01*
X79873000Y-125353000D01*
X80127000Y-125353000D01*
X80127000Y-125373000D01*
X81470155Y-125373000D01*
X81591476Y-125143110D01*
X81589554Y-125130739D01*
X81489854Y-124856991D01*
X81338664Y-124607954D01*
X81141795Y-124393198D01*
X81141407Y-124392914D01*
X81243386Y-124338405D01*
X81377962Y-124227962D01*
X81488405Y-124093386D01*
X81570472Y-123939850D01*
X81587110Y-123885000D01*
X87876531Y-123885000D01*
X87920000Y-123889281D01*
X87963469Y-123885000D01*
X87963477Y-123885000D01*
X88093490Y-123872195D01*
X88260313Y-123821589D01*
X88414059Y-123739411D01*
X88548817Y-123628817D01*
X88576534Y-123595044D01*
X88916578Y-123255000D01*
X89131486Y-123255000D01*
X89389405Y-123203696D01*
X89632359Y-123103061D01*
X89851013Y-122956962D01*
X90002975Y-122805000D01*
X91553422Y-122805000D01*
X93343470Y-124595049D01*
X93371183Y-124628817D01*
X93404951Y-124656530D01*
X93404953Y-124656532D01*
X93451954Y-124695105D01*
X93505941Y-124739411D01*
X93659687Y-124821589D01*
X93826510Y-124872195D01*
X93956523Y-124885000D01*
X93956533Y-124885000D01*
X93999999Y-124889281D01*
X94043465Y-124885000D01*
X101365878Y-124885000D01*
X101336285Y-124928354D01*
X101225633Y-125188182D01*
X101208096Y-125270961D01*
X101330085Y-125493000D01*
X102873000Y-125493000D01*
X102873000Y-125473000D01*
X103127000Y-125473000D01*
X103127000Y-125493000D01*
X104669915Y-125493000D01*
X104791904Y-125270961D01*
X104774367Y-125188182D01*
X104663715Y-124928354D01*
X104504500Y-124695105D01*
X104302839Y-124497399D01*
X104073259Y-124347265D01*
X104201101Y-124278932D01*
X104419608Y-124099608D01*
X104598932Y-123881101D01*
X104732182Y-123631808D01*
X104814236Y-123361309D01*
X104841943Y-123080000D01*
X104814236Y-122798691D01*
X104732182Y-122528192D01*
X104598932Y-122278899D01*
X104419608Y-122060392D01*
X104201101Y-121881068D01*
X104068142Y-121810000D01*
X104201101Y-121738932D01*
X104419608Y-121559608D01*
X104598932Y-121341101D01*
X104732182Y-121091808D01*
X104814236Y-120821309D01*
X104841943Y-120540000D01*
X104814236Y-120258691D01*
X104732182Y-119988192D01*
X104598932Y-119738899D01*
X104419608Y-119520392D01*
X104306518Y-119427581D01*
X104324482Y-119425812D01*
X104444180Y-119389502D01*
X104554494Y-119330537D01*
X104651185Y-119251185D01*
X104730537Y-119154494D01*
X104789502Y-119044180D01*
X104825812Y-118924482D01*
X104838072Y-118800000D01*
X104838072Y-117200000D01*
X104825812Y-117075518D01*
X104789502Y-116955820D01*
X104730537Y-116845506D01*
X104651185Y-116748815D01*
X104554494Y-116669463D01*
X104444180Y-116610498D01*
X104324482Y-116574188D01*
X104200000Y-116561928D01*
X103885000Y-116561928D01*
X103885000Y-116043469D01*
X103889281Y-116000000D01*
X105110719Y-116000000D01*
X105115000Y-116043469D01*
X105115001Y-121956521D01*
X105110719Y-122000000D01*
X105127805Y-122173490D01*
X105178412Y-122340313D01*
X105260590Y-122494059D01*
X105343468Y-122595046D01*
X105343471Y-122595049D01*
X105371184Y-122628817D01*
X105404951Y-122656529D01*
X108873705Y-126125284D01*
X108887818Y-126171808D01*
X109021068Y-126421101D01*
X109200392Y-126639608D01*
X109418899Y-126818932D01*
X109668192Y-126952182D01*
X109938691Y-127034236D01*
X110149508Y-127055000D01*
X111090492Y-127055000D01*
X111301309Y-127034236D01*
X111571808Y-126952182D01*
X111821101Y-126818932D01*
X112039608Y-126639608D01*
X112218932Y-126421101D01*
X112352182Y-126171808D01*
X112434236Y-125901309D01*
X112461943Y-125620000D01*
X112434236Y-125338691D01*
X112352182Y-125068192D01*
X112218932Y-124818899D01*
X112039608Y-124600392D01*
X111821101Y-124421068D01*
X111753623Y-124385000D01*
X122680241Y-124385000D01*
X122819866Y-124555134D01*
X122883337Y-124607223D01*
X122781614Y-124661595D01*
X122647038Y-124772038D01*
X122536595Y-124906614D01*
X122454528Y-125060150D01*
X122403992Y-125226746D01*
X122386928Y-125400000D01*
X122386928Y-126600000D01*
X122403992Y-126773254D01*
X122454528Y-126939850D01*
X122536595Y-127093386D01*
X122647038Y-127227962D01*
X122781614Y-127338405D01*
X122935150Y-127420472D01*
X123101746Y-127471008D01*
X123275000Y-127488072D01*
X124725000Y-127488072D01*
X124898254Y-127471008D01*
X125064850Y-127420472D01*
X125218386Y-127338405D01*
X125352962Y-127227962D01*
X125463405Y-127093386D01*
X125545472Y-126939850D01*
X125596008Y-126773254D01*
X125613072Y-126600000D01*
X125613072Y-125400000D01*
X125596008Y-125226746D01*
X125545472Y-125060150D01*
X125463405Y-124906614D01*
X125352962Y-124772038D01*
X125218386Y-124661595D01*
X125116663Y-124607223D01*
X125180134Y-124555134D01*
X125365706Y-124329014D01*
X125503599Y-124071034D01*
X125588513Y-123791111D01*
X125617185Y-123500000D01*
X125588513Y-123208889D01*
X125503599Y-122928966D01*
X125365706Y-122670986D01*
X125180134Y-122444866D01*
X124954014Y-122259294D01*
X124936626Y-122250000D01*
X124954014Y-122240706D01*
X125180134Y-122055134D01*
X125365706Y-121829014D01*
X125503599Y-121571034D01*
X125588513Y-121291111D01*
X125617185Y-121000000D01*
X125588513Y-120708889D01*
X125503599Y-120428966D01*
X125365706Y-120170986D01*
X125180134Y-119944866D01*
X124954014Y-119759294D01*
X124928278Y-119745538D01*
X125134429Y-119589049D01*
X125327496Y-119371193D01*
X125474352Y-119119858D01*
X125566476Y-118856890D01*
X125445155Y-118627000D01*
X124127000Y-118627000D01*
X124127000Y-118647000D01*
X123873000Y-118647000D01*
X123873000Y-118627000D01*
X122554845Y-118627000D01*
X122433524Y-118856890D01*
X122525648Y-119119858D01*
X122672504Y-119371193D01*
X122865571Y-119589049D01*
X123071722Y-119745538D01*
X123045986Y-119759294D01*
X122819866Y-119944866D01*
X122680241Y-120115000D01*
X117366579Y-120115000D01*
X115394689Y-118143110D01*
X122433524Y-118143110D01*
X122554845Y-118373000D01*
X123873000Y-118373000D01*
X123873000Y-117173835D01*
X124127000Y-117173835D01*
X124127000Y-118373000D01*
X125445155Y-118373000D01*
X125566476Y-118143110D01*
X125474352Y-117880142D01*
X125327496Y-117628807D01*
X125134429Y-117410951D01*
X124902570Y-117234947D01*
X124640830Y-117107558D01*
X124359267Y-117033680D01*
X124127000Y-117173835D01*
X123873000Y-117173835D01*
X123640733Y-117033680D01*
X123359170Y-117107558D01*
X123097430Y-117234947D01*
X122865571Y-117410951D01*
X122672504Y-117628807D01*
X122525648Y-117880142D01*
X122433524Y-118143110D01*
X115394689Y-118143110D01*
X114656534Y-117404956D01*
X114628817Y-117371183D01*
X114494059Y-117260589D01*
X114340313Y-117178411D01*
X114173490Y-117127805D01*
X114043477Y-117115000D01*
X114043469Y-117115000D01*
X114000000Y-117110719D01*
X113956531Y-117115000D01*
X112150078Y-117115000D01*
X112039608Y-116980392D01*
X111821101Y-116801068D01*
X111571808Y-116667818D01*
X111301309Y-116585764D01*
X111090492Y-116565000D01*
X110149508Y-116565000D01*
X109938691Y-116585764D01*
X109668192Y-116667818D01*
X109418899Y-116801068D01*
X109200392Y-116980392D01*
X109021068Y-117198899D01*
X108887818Y-117448192D01*
X108805764Y-117718691D01*
X108778057Y-118000000D01*
X108805764Y-118281309D01*
X108887818Y-118551808D01*
X109021068Y-118801101D01*
X109200392Y-119019608D01*
X109418899Y-119198932D01*
X109551858Y-119270000D01*
X109418899Y-119341068D01*
X109200392Y-119520392D01*
X109021068Y-119738899D01*
X108887818Y-119988192D01*
X108805764Y-120258691D01*
X108778057Y-120540000D01*
X108805764Y-120821309D01*
X108887818Y-121091808D01*
X109021068Y-121341101D01*
X109200392Y-121559608D01*
X109418899Y-121738932D01*
X109551858Y-121810000D01*
X109418899Y-121881068D01*
X109200392Y-122060392D01*
X109021068Y-122278899D01*
X108887818Y-122528192D01*
X108805764Y-122798691D01*
X108778057Y-123080000D01*
X108805764Y-123361309D01*
X108887818Y-123631808D01*
X108892906Y-123641328D01*
X106885000Y-121633422D01*
X106885000Y-116366578D01*
X109366579Y-113885000D01*
X115917025Y-113885000D01*
X116068987Y-114036962D01*
X116287641Y-114183061D01*
X116530595Y-114283696D01*
X116788514Y-114335000D01*
X117051486Y-114335000D01*
X117309405Y-114283696D01*
X117552359Y-114183061D01*
X117771013Y-114036962D01*
X117886706Y-113921269D01*
X121258336Y-113921269D01*
X121317797Y-114155037D01*
X121556242Y-114265934D01*
X121811740Y-114328183D01*
X122074473Y-114339390D01*
X122334344Y-114299125D01*
X122581366Y-114208935D01*
X122682203Y-114155037D01*
X122741664Y-113921269D01*
X122000000Y-113179605D01*
X121258336Y-113921269D01*
X117886706Y-113921269D01*
X117956962Y-113851013D01*
X118103061Y-113632359D01*
X118203696Y-113389405D01*
X118255000Y-113131486D01*
X118255000Y-113074473D01*
X120660610Y-113074473D01*
X120700875Y-113334344D01*
X120791065Y-113581366D01*
X120844963Y-113682203D01*
X121078731Y-113741664D01*
X121820395Y-113000000D01*
X122179605Y-113000000D01*
X122921269Y-113741664D01*
X123155037Y-113682203D01*
X123265934Y-113443758D01*
X123328183Y-113188260D01*
X123339390Y-112925527D01*
X123299125Y-112665656D01*
X123208935Y-112418634D01*
X123155037Y-112317797D01*
X122921269Y-112258336D01*
X122179605Y-113000000D01*
X121820395Y-113000000D01*
X121078731Y-112258336D01*
X120844963Y-112317797D01*
X120734066Y-112556242D01*
X120671817Y-112811740D01*
X120660610Y-113074473D01*
X118255000Y-113074473D01*
X118255000Y-112868514D01*
X118203696Y-112610595D01*
X118103061Y-112367641D01*
X117956962Y-112148987D01*
X117886706Y-112078731D01*
X121258336Y-112078731D01*
X122000000Y-112820395D01*
X122741664Y-112078731D01*
X122682203Y-111844963D01*
X122443758Y-111734066D01*
X122188260Y-111671817D01*
X121925527Y-111660610D01*
X121665656Y-111700875D01*
X121418634Y-111791065D01*
X121317797Y-111844963D01*
X121258336Y-112078731D01*
X117886706Y-112078731D01*
X117771013Y-111963038D01*
X117552359Y-111816939D01*
X117309405Y-111716304D01*
X117051486Y-111665000D01*
X116836579Y-111665000D01*
X116055404Y-110883825D01*
X116173490Y-110872195D01*
X116340313Y-110821589D01*
X116494059Y-110739411D01*
X116628817Y-110628817D01*
X116656534Y-110595044D01*
X116823561Y-110428017D01*
X116858665Y-110435000D01*
X117141335Y-110435000D01*
X117418574Y-110379853D01*
X117679727Y-110271680D01*
X117914759Y-110114637D01*
X118036694Y-109992702D01*
X121186903Y-109992702D01*
X121258486Y-110236671D01*
X121513996Y-110357571D01*
X121788184Y-110426300D01*
X122070512Y-110440217D01*
X122350130Y-110398787D01*
X122616292Y-110303603D01*
X122741514Y-110236671D01*
X122813097Y-109992702D01*
X122000000Y-109179605D01*
X121186903Y-109992702D01*
X118036694Y-109992702D01*
X118114637Y-109914759D01*
X118271680Y-109679727D01*
X118379853Y-109418574D01*
X118435000Y-109141335D01*
X118435000Y-109070512D01*
X120559783Y-109070512D01*
X120601213Y-109350130D01*
X120696397Y-109616292D01*
X120763329Y-109741514D01*
X121007298Y-109813097D01*
X121820395Y-109000000D01*
X122179605Y-109000000D01*
X122992702Y-109813097D01*
X123236671Y-109741514D01*
X123357571Y-109486004D01*
X123426300Y-109211816D01*
X123440217Y-108929488D01*
X123398787Y-108649870D01*
X123303603Y-108383708D01*
X123236671Y-108258486D01*
X122992702Y-108186903D01*
X122179605Y-109000000D01*
X121820395Y-109000000D01*
X121007298Y-108186903D01*
X120763329Y-108258486D01*
X120642429Y-108513996D01*
X120573700Y-108788184D01*
X120559783Y-109070512D01*
X118435000Y-109070512D01*
X118435000Y-108858665D01*
X118379853Y-108581426D01*
X118271680Y-108320273D01*
X118114637Y-108085241D01*
X118036694Y-108007298D01*
X121186903Y-108007298D01*
X122000000Y-108820395D01*
X122813097Y-108007298D01*
X122741514Y-107763329D01*
X122486004Y-107642429D01*
X122211816Y-107573700D01*
X121929488Y-107559783D01*
X121649870Y-107601213D01*
X121383708Y-107696397D01*
X121258486Y-107763329D01*
X121186903Y-108007298D01*
X118036694Y-108007298D01*
X117914759Y-107885363D01*
X117679727Y-107728320D01*
X117418574Y-107620147D01*
X117141335Y-107565000D01*
X116858665Y-107565000D01*
X116581426Y-107620147D01*
X116320273Y-107728320D01*
X116085241Y-107885363D01*
X115885363Y-108085241D01*
X115728320Y-108320273D01*
X115620147Y-108581426D01*
X115565000Y-108858665D01*
X115565000Y-109115000D01*
X114043476Y-109115000D01*
X114000000Y-109110718D01*
X113956523Y-109115000D01*
X113738072Y-109115000D01*
X113738072Y-108900000D01*
X113725812Y-108775518D01*
X113689502Y-108655820D01*
X113630537Y-108545506D01*
X113551185Y-108448815D01*
X113454494Y-108369463D01*
X113344180Y-108310498D01*
X113224482Y-108274188D01*
X113100000Y-108261928D01*
X110900000Y-108261928D01*
X110775518Y-108274188D01*
X110655820Y-108310498D01*
X110545506Y-108369463D01*
X110448815Y-108448815D01*
X110369463Y-108545506D01*
X110310498Y-108655820D01*
X110274188Y-108775518D01*
X110261928Y-108900000D01*
X110261928Y-111100000D01*
X110274188Y-111224482D01*
X110310498Y-111344180D01*
X110369463Y-111454494D01*
X110448815Y-111551185D01*
X110545506Y-111630537D01*
X110655820Y-111689502D01*
X110775518Y-111725812D01*
X110900000Y-111738072D01*
X113100000Y-111738072D01*
X113224482Y-111725812D01*
X113344180Y-111689502D01*
X113454494Y-111630537D01*
X113551185Y-111551185D01*
X113630537Y-111454494D01*
X113689502Y-111344180D01*
X113725812Y-111224482D01*
X113738072Y-111100000D01*
X113738072Y-111069650D01*
X114783422Y-112115000D01*
X109043469Y-112115000D01*
X109000000Y-112110719D01*
X108956531Y-112115000D01*
X108956523Y-112115000D01*
X108826510Y-112127805D01*
X108659686Y-112178411D01*
X108505941Y-112260589D01*
X108404953Y-112343468D01*
X108404951Y-112343470D01*
X108371183Y-112371183D01*
X108343470Y-112404951D01*
X105404956Y-115343466D01*
X105371183Y-115371183D01*
X105260589Y-115505942D01*
X105178411Y-115659688D01*
X105154227Y-115739410D01*
X105130709Y-115816939D01*
X105127805Y-115826511D01*
X105115000Y-115956524D01*
X105115000Y-115956531D01*
X105110719Y-116000000D01*
X103889281Y-116000000D01*
X103885000Y-115956531D01*
X103885000Y-115956523D01*
X103872195Y-115826510D01*
X103869292Y-115816939D01*
X103821589Y-115659686D01*
X103739411Y-115505941D01*
X103656532Y-115404953D01*
X103656530Y-115404951D01*
X103628817Y-115371183D01*
X103595050Y-115343471D01*
X102656532Y-114404954D01*
X102628817Y-114371183D01*
X102494059Y-114260589D01*
X102340313Y-114178411D01*
X102173490Y-114127805D01*
X102128231Y-114123347D01*
X102435050Y-113816529D01*
X102468817Y-113788817D01*
X102579411Y-113654059D01*
X102661589Y-113500313D01*
X102712195Y-113333490D01*
X102725000Y-113203477D01*
X102725000Y-113203469D01*
X102729281Y-113160000D01*
X102725000Y-113116531D01*
X102725000Y-111495329D01*
X102945998Y-111347663D01*
X103187663Y-111105998D01*
X103377537Y-110821831D01*
X103508325Y-110506081D01*
X103575000Y-110170883D01*
X103575000Y-109829117D01*
X103508325Y-109493919D01*
X103377537Y-109178169D01*
X103187663Y-108894002D01*
X102945998Y-108652337D01*
X102661831Y-108462463D01*
X102346081Y-108331675D01*
X102010883Y-108265000D01*
X101669117Y-108265000D01*
X101333919Y-108331675D01*
X101018169Y-108462463D01*
X100734002Y-108652337D01*
X100492337Y-108894002D01*
X100302463Y-109178169D01*
X100171675Y-109493919D01*
X100105000Y-109829117D01*
X100105000Y-110170883D01*
X100171675Y-110506081D01*
X100302463Y-110821831D01*
X100492337Y-111105998D01*
X100734002Y-111347663D01*
X100955001Y-111495329D01*
X100955000Y-112793421D01*
X99404958Y-114343464D01*
X99404953Y-114343468D01*
X99404951Y-114343470D01*
X99371183Y-114371183D01*
X99343470Y-114404951D01*
X97811671Y-115936751D01*
X97632359Y-115816939D01*
X97389405Y-115716304D01*
X97131486Y-115665000D01*
X96868514Y-115665000D01*
X96610595Y-115716304D01*
X96367641Y-115816939D01*
X96148987Y-115963038D01*
X95963038Y-116148987D01*
X95885000Y-116265780D01*
X95885000Y-114043465D01*
X95889281Y-113999999D01*
X95885000Y-113956533D01*
X95885000Y-113956523D01*
X95872195Y-113826510D01*
X95821589Y-113659687D01*
X95739411Y-113505941D01*
X95628817Y-113371183D01*
X95595050Y-113343472D01*
X91656532Y-109404954D01*
X91628817Y-109371183D01*
X91494059Y-109260589D01*
X91340313Y-109178411D01*
X91173490Y-109127805D01*
X91043477Y-109115000D01*
X91043469Y-109115000D01*
X91000000Y-109110719D01*
X90956531Y-109115000D01*
X81562110Y-109115000D01*
X81545472Y-109060150D01*
X81463405Y-108906614D01*
X81352962Y-108772038D01*
X81218386Y-108661595D01*
X81064850Y-108579528D01*
X80898254Y-108528992D01*
X80725000Y-108511928D01*
X79275000Y-108511928D01*
X79101746Y-108528992D01*
X78935150Y-108579528D01*
X78781614Y-108661595D01*
X78647038Y-108772038D01*
X78536595Y-108906614D01*
X78454528Y-109060150D01*
X78403992Y-109226746D01*
X78386928Y-109400000D01*
X78386928Y-110600000D01*
X78403992Y-110773254D01*
X78454528Y-110939850D01*
X78536595Y-111093386D01*
X78647038Y-111227962D01*
X78781614Y-111338405D01*
X78883337Y-111392777D01*
X78819866Y-111444866D01*
X78634294Y-111670986D01*
X78496401Y-111928966D01*
X78411487Y-112208889D01*
X78382815Y-112500000D01*
X78411487Y-112791111D01*
X78496401Y-113071034D01*
X78634294Y-113329014D01*
X78819866Y-113555134D01*
X79045986Y-113740706D01*
X79063374Y-113750000D01*
X79045986Y-113759294D01*
X78819866Y-113944866D01*
X78634294Y-114170986D01*
X78496401Y-114428966D01*
X78411487Y-114708889D01*
X78382815Y-115000000D01*
X78411487Y-115291111D01*
X78496401Y-115571034D01*
X78634294Y-115829014D01*
X78819866Y-116055134D01*
X79045986Y-116240706D01*
X79303966Y-116378599D01*
X79583889Y-116463513D01*
X79802050Y-116485000D01*
X80197950Y-116485000D01*
X80416111Y-116463513D01*
X80696034Y-116378599D01*
X80954014Y-116240706D01*
X81180134Y-116055134D01*
X81365706Y-115829014D01*
X81503599Y-115571034D01*
X81588513Y-115291111D01*
X81617185Y-115000000D01*
X81588513Y-114708889D01*
X81503599Y-114428966D01*
X81365706Y-114170986D01*
X81180134Y-113944866D01*
X80954014Y-113759294D01*
X80936626Y-113750000D01*
X80954014Y-113740706D01*
X81180134Y-113555134D01*
X81319759Y-113385000D01*
X87053422Y-113385000D01*
X90585000Y-116916579D01*
X90585000Y-117131486D01*
X90636304Y-117389405D01*
X90736939Y-117632359D01*
X90883038Y-117851013D01*
X91068987Y-118036962D01*
X91287641Y-118183061D01*
X91530595Y-118283696D01*
X91788514Y-118335000D01*
X92051486Y-118335000D01*
X92309405Y-118283696D01*
X92552359Y-118183061D01*
X92771013Y-118036962D01*
X92956962Y-117851013D01*
X93103061Y-117632359D01*
X93203696Y-117389405D01*
X93255000Y-117131486D01*
X93255000Y-116868514D01*
X93203696Y-116610595D01*
X93103061Y-116367641D01*
X92956962Y-116148987D01*
X92771013Y-115963038D01*
X92552359Y-115816939D01*
X92309405Y-115716304D01*
X92051486Y-115665000D01*
X91836579Y-115665000D01*
X88076534Y-111904956D01*
X88048817Y-111871183D01*
X87914059Y-111760589D01*
X87760313Y-111678411D01*
X87593490Y-111627805D01*
X87463477Y-111615000D01*
X87463469Y-111615000D01*
X87420000Y-111610719D01*
X87376531Y-111615000D01*
X81319759Y-111615000D01*
X81180134Y-111444866D01*
X81116663Y-111392777D01*
X81218386Y-111338405D01*
X81352962Y-111227962D01*
X81463405Y-111093386D01*
X81545472Y-110939850D01*
X81562110Y-110885000D01*
X90633422Y-110885000D01*
X94115000Y-114366579D01*
X94115001Y-120997024D01*
X93963038Y-121148987D01*
X93816939Y-121367641D01*
X93716304Y-121610595D01*
X93665000Y-121868514D01*
X93665000Y-122131486D01*
X93716304Y-122389405D01*
X93769564Y-122517985D01*
X92576534Y-121324956D01*
X92548817Y-121291183D01*
X92414059Y-121180589D01*
X92260313Y-121098411D01*
X92093490Y-121047805D01*
X91963477Y-121035000D01*
X91963469Y-121035000D01*
X91920000Y-121030719D01*
X91876531Y-121035000D01*
X90002975Y-121035000D01*
X89851013Y-120883038D01*
X89632359Y-120736939D01*
X89389405Y-120636304D01*
X89131486Y-120585000D01*
X88868514Y-120585000D01*
X88610595Y-120636304D01*
X88367641Y-120736939D01*
X88148987Y-120883038D01*
X87963038Y-121068987D01*
X87816939Y-121287641D01*
X87716304Y-121530595D01*
X87665000Y-121788514D01*
X87665000Y-122003422D01*
X87553422Y-122115000D01*
X81587110Y-122115000D01*
X81570472Y-122060150D01*
X81488405Y-121906614D01*
X81377962Y-121772038D01*
X81243386Y-121661595D01*
X81089850Y-121579528D01*
X80923254Y-121528992D01*
X80750000Y-121511928D01*
X79250000Y-121511928D01*
X79076746Y-121528992D01*
X78910150Y-121579528D01*
X78756614Y-121661595D01*
X78622038Y-121772038D01*
X78511595Y-121906614D01*
X78429528Y-122060150D01*
X78378992Y-122226746D01*
X78361928Y-122400000D01*
X76127000Y-122400000D01*
X76127000Y-102660000D01*
X127873000Y-102660000D01*
X127873000Y-133340000D01*
G37*
%TD.AperFunction*%
%TD*%
M02*
