<?xml version="1.0" standalone="no"?>
 <!DOCTYPE svg PUBLIC "-//W3C//DTD SVG 1.1//EN" 
 "http://www.w3.org/Graphics/SVG/1.1/DTD/svg11.dtd"> 
<svg
  xmlns:svg="http://www.w3.org/2000/svg"
  xmlns="http://www.w3.org/2000/svg"
  xmlns:xlink="http://www.w3.org/1999/xlink"
  version="1.1"
  width="29.700220cm" height="21.000720cm" viewBox="0 0 116930 82680">
<title>SVG Picture created as piezo_amplifier-B_Cu.svg date 2022/03/31 22:23:05 </title>
  <desc>Picture generated by PCBNEW </desc>
<g style="fill:#000000; fill-opacity:1;stroke:#000000; stroke-opacity:1;
stroke-linecap:round; stroke-linejoin:round;"
 transform="translate(0 0) scale(1 1)">
</g>
<g style="fill:#000000; fill-opacity:0.0; 
stroke:#000000; stroke-width:-0.000393701; stroke-opacity:1; 
stroke-linecap:round; stroke-linejoin:round;">
</g>
<g style="fill:#000000; fill-opacity:1.0; 
stroke:#000000; stroke-width:39.3701; stroke-opacity:1; 
stroke-linecap:round; stroke-linejoin:round;">
<rect x="60591.9" y="38179.1" width="32361.3" height="16555.1" rx="0" />
</g>
<g style="fill:#FFFFFF; fill-opacity:1.0; 
stroke:#FFFFFF; stroke-width:39.3701; stroke-opacity:1; 
stroke-linecap:round; stroke-linejoin:round;">
<g >
</g>
<g style="fill:#FFFFFF; fill-opacity:1.0; 
stroke:#FFFFFF; stroke-width:0; stroke-opacity:1; 
stroke-linecap:round; stroke-linejoin:round;">
<circle cx="78741" cy="46063" r="275.591" /> 
</g>
<g style="fill:#FFFFFF; fill-opacity:1.0; 
stroke:#FFFFFF; stroke-width:39.3701; stroke-opacity:1; 
stroke-linecap:round; stroke-linejoin:round;">
</g>
<g style="fill:#FFFFFF; fill-opacity:1.0; 
stroke:#FFFFFF; stroke-width:0; stroke-opacity:1; 
stroke-linecap:round; stroke-linejoin:round;">
<circle cx="80741" cy="46063" r="275.591" /> 
</g>
<g >
</g>
<g style="fill:#FFFFFF; fill-opacity:1.0; 
stroke:#FFFFFF; stroke-width:0; stroke-opacity:1; 
stroke-linecap:round; stroke-linejoin:round;">
<circle cx="68898.5" cy="42913.4" r="314.961" /> 
</g>
<g style="fill:#FFFFFF; fill-opacity:1.0; 
stroke:#FFFFFF; stroke-width:39.3701; stroke-opacity:1; 
stroke-linecap:round; stroke-linejoin:round;">
</g>
<g style="fill:#FFFFFF; fill-opacity:1.0; 
stroke:#FFFFFF; stroke-width:0; stroke-opacity:1; 
stroke-linecap:round; stroke-linejoin:round;">
<circle cx="70867" cy="42913.4" r="314.961" /> 
</g>
<g style="fill:#FFFFFF; fill-opacity:1.0; 
stroke:#FFFFFF; stroke-width:39.3701; stroke-opacity:1; 
stroke-linecap:round; stroke-linejoin:round;">
</g>
<g >
</g>
<g style="fill:#FFFFFF; fill-opacity:1.0; 
stroke:#FFFFFF; stroke-width:39.3701; stroke-opacity:1; 
stroke-linecap:round; stroke-linejoin:round;">
</g>
<g style="fill:#FFFFFF; fill-opacity:1.0; 
stroke:#FFFFFF; stroke-width:0; stroke-opacity:1; 
stroke-linecap:round; stroke-linejoin:round;">
<path style="fill:#FFFFFF; fill-opacity:1.0; 
stroke:#FFFFFF; stroke-width:0; stroke-opacity:1; 
stroke-linecap:round; stroke-linejoin:round;fill-rule:evenodd;"
d="M 72402.4,42874
72402.4,43740.2
73268.6,43740.2
73268.6,42874
Z" /> 
<circle cx="76835.5" cy="43307.1" r="433.071" /> 
</g>
<g >
</g>
<g >
</g>
<g >
</g>
<g >
</g>
<g >
</g>
<g style="fill:#FFFFFF; fill-opacity:1.0; 
stroke:#FFFFFF; stroke-width:0; stroke-opacity:1; 
stroke-linecap:round; stroke-linejoin:round;">
<path style="fill:#FFFFFF; fill-opacity:1.0; 
stroke:#FFFFFF; stroke-width:0; stroke-opacity:1; 
stroke-linecap:round; stroke-linejoin:round;fill-rule:evenodd;"
d="M 85129,48091
85119.5,48092.4
85110.1,48094.8
85101,48098
85092.3,48102.2
85084,48107.1
85076.2,48112.9
85069.1,48119.4
85062.6,48126.5
85056.8,48134.3
85051.9,48142.6
85047.7,48151.3
85044.5,48160.4
85042.1,48169.8
85040.7,48179.3
85040.2,48189
85040.2,48661.4
85040.7,48671.1
85042.1,48680.6
85044.5,48690
85047.7,48699.1
85051.9,48707.8
85056.8,48716.1
85062.6,48723.9
85069.1,48731
85076.2,48737.5
85084,48743.3
85092.3,48748.2
85101,48752.4
85110.1,48755.6
85119.5,48758
85129,48759.4
85138.7,48759.8
85729.2,48759.8
85738.9,48759.4
85748.4,48758
85757.8,48755.6
85766.9,48752.4
85775.6,48748.2
85783.9,48743.3
85791.7,48737.5
85798.8,48731
85805.3,48723.9
85811.1,48716.1
85816,48707.8
85820.1,48699.1
85823.4,48690
85825.7,48680.6
85827.2,48671.1
85827.6,48661.4
85827.6,48189
85827.2,48179.3
85825.7,48169.8
85823.4,48160.4
85820.1,48151.3
85816,48142.6
85811.1,48134.3
85805.3,48126.5
85798.8,48119.4
85791.7,48112.9
85783.9,48107.1
85775.6,48102.2
85766.9,48098
85757.8,48094.8
85748.4,48092.4
85738.9,48091
85729.2,48090.6
85138.7,48090.6
Z" /> 
</g>
<g style="fill:#FFFFFF; fill-opacity:1.0; 
stroke:#FFFFFF; stroke-width:669.291; stroke-opacity:1; 
stroke-linecap:round; stroke-linejoin:round;">
</g>
<g style="fill:#FFFFFF; fill-opacity:0.0; 
stroke:#FFFFFF; stroke-width:669.291; stroke-opacity:1; 
stroke-linecap:round; stroke-linejoin:round;">
<path d="M85374 49409
L85492 49409
" />
</g>
<g >
</g>
<g style="fill:#FFFFFF; fill-opacity:0.0; 
stroke:#FFFFFF; stroke-width:669.291; stroke-opacity:1; 
stroke-linecap:round; stroke-linejoin:round;">
</g>
<g style="fill:#FFFFFF; fill-opacity:0.0; 
stroke:#FFFFFF; stroke-width:0; stroke-opacity:1; 
stroke-linecap:round; stroke-linejoin:round;">
</g>
<g style="fill:#FFFFFF; fill-opacity:1.0; 
stroke:#FFFFFF; stroke-width:0; stroke-opacity:1; 
stroke-linecap:round; stroke-linejoin:round;">
<path style="fill:#FFFFFF; fill-opacity:1.0; 
stroke:#FFFFFF; stroke-width:0; stroke-opacity:1; 
stroke-linecap:round; stroke-linejoin:round;fill-rule:evenodd;"
d="M 67816,49272.1
67806.5,49273.5
67797.1,49275.9
67788,49279.1
67779.3,49283.3
67771,49288.2
67763.2,49294
67756.1,49300.5
67749.6,49307.6
67743.8,49315.4
67738.9,49323.7
67734.7,49332.4
67731.5,49341.5
67729.1,49350.9
67727.7,49360.4
67727.2,49370.1
67727.2,49842.5
67727.7,49852.2
67729.1,49861.7
67731.5,49871.1
67734.7,49880.2
67738.9,49888.9
67743.8,49897.2
67749.6,49905
67756.1,49912.1
67763.2,49918.6
67771,49924.4
67779.3,49929.3
67788,49933.5
67797.1,49936.7
67806.5,49939.1
67816,49940.5
67825.7,49940.9
68396.5,49940.9
68406.2,49940.5
68415.7,49939.1
68425.1,49936.7
68434.2,49933.5
68442.9,49929.3
68451.2,49924.4
68459,49918.6
68466.1,49912.1
68472.6,49905
68478.4,49897.2
68483.3,49888.9
68487.5,49880.2
68490.7,49871.1
68493.1,49861.7
68494.5,49852.2
68495,49842.5
68495,49370.1
68494.5,49360.4
68493.1,49350.9
68490.7,49341.5
68487.5,49332.4
68483.3,49323.7
68478.4,49315.4
68472.6,49307.6
68466.1,49300.5
68459,49294
68451.2,49288.2
68442.9,49283.3
68434.2,49279.1
68425.1,49275.9
68415.7,49273.5
68406.2,49272.1
68396.5,49271.7
67825.7,49271.7
Z" /> 
</g>
<g style="fill:#FFFFFF; fill-opacity:1.0; 
stroke:#FFFFFF; stroke-width:669.291; stroke-opacity:1; 
stroke-linecap:round; stroke-linejoin:round;">
</g>
<g style="fill:#FFFFFF; fill-opacity:0.0; 
stroke:#FFFFFF; stroke-width:669.291; stroke-opacity:1; 
stroke-linecap:round; stroke-linejoin:round;">
<path d="M68160 48622
L68061 48622
" />
<path d="M68160 47637
L68061 47637
" />
<path d="M68160 46653
L68061 46653
" />
</g>
<g >
</g>
<g style="fill:#FFFFFF; fill-opacity:0.0; 
stroke:#FFFFFF; stroke-width:669.291; stroke-opacity:1; 
stroke-linecap:round; stroke-linejoin:round;">
</g>
<g style="fill:#FFFFFF; fill-opacity:1.0; 
stroke:#FFFFFF; stroke-width:0; stroke-opacity:1; 
stroke-linecap:round; stroke-linejoin:round;">
<circle cx="81890.6" cy="48000" r="275.591" /> 
<circle cx="81890.6" cy="50000" r="275.591" /> 
</g>
<g style="fill:#FFFFFF; fill-opacity:1.0; 
stroke:#FFFFFF; stroke-width:39.3701; stroke-opacity:1; 
stroke-linecap:round; stroke-linejoin:round;">
</g>
<g >
</g>
<g style="fill:#FFFFFF; fill-opacity:1.0; 
stroke:#FFFFFF; stroke-width:39.3701; stroke-opacity:1; 
stroke-linecap:round; stroke-linejoin:round;">
</g>
<g style="fill:#FFFFFF; fill-opacity:1.0; 
stroke:#FFFFFF; stroke-width:0; stroke-opacity:1; 
stroke-linecap:round; stroke-linejoin:round;">
<circle cx="79528.4" cy="48031.5" r="275.591" /> 
</g>
<g style="fill:#FFFFFF; fill-opacity:1.0; 
stroke:#FFFFFF; stroke-width:39.3701; stroke-opacity:1; 
stroke-linecap:round; stroke-linejoin:round;">
</g>
<g style="fill:#FFFFFF; fill-opacity:1.0; 
stroke:#FFFFFF; stroke-width:0; stroke-opacity:1; 
stroke-linecap:round; stroke-linejoin:round;">
<circle cx="79528.4" cy="50031.5" r="275.591" /> 
</g>
<g >
</g>
<g style="fill:#FFFFFF; fill-opacity:1.0; 
stroke:#FFFFFF; stroke-width:0; stroke-opacity:1; 
stroke-linecap:round; stroke-linejoin:round;">
<circle cx="70898.5" cy="44488.2" r="275.591" /> 
<circle cx="68898.5" cy="44488.2" r="275.591" /> 
</g>
<g style="fill:#FFFFFF; fill-opacity:1.0; 
stroke:#FFFFFF; stroke-width:39.3701; stroke-opacity:1; 
stroke-linecap:round; stroke-linejoin:round;">
</g>
<g >
</g>
<g style="fill:#FFFFFF; fill-opacity:1.0; 
stroke:#FFFFFF; stroke-width:39.3701; stroke-opacity:1; 
stroke-linecap:round; stroke-linejoin:round;">
</g>
<g style="fill:#FFFFFF; fill-opacity:1.0; 
stroke:#FFFFFF; stroke-width:0; stroke-opacity:1; 
stroke-linecap:round; stroke-linejoin:round;">
<path style="fill:#FFFFFF; fill-opacity:1.0; 
stroke:#FFFFFF; stroke-width:0; stroke-opacity:1; 
stroke-linecap:round; stroke-linejoin:round;fill-rule:evenodd;"
d="M 85138.9,42972.9
85129.3,42974.3
85119.9,42976.7
85110.8,42979.9
85102.1,42984.1
85093.8,42989
85086.1,42994.8
85078.9,43001.3
85072.4,43008.4
85066.7,43016.2
85061.7,43024.5
85057.6,43033.2
85054.3,43042.3
85052,43051.7
85050.6,43061.2
85050.1,43070.9
85050.1,43543.3
85050.6,43553
85052,43562.5
85054.3,43571.9
85057.6,43581
85061.7,43589.7
85066.7,43598
85072.4,43605.7
85078.9,43612.9
85086.1,43619.4
85093.8,43625.1
85102.1,43630.1
85110.8,43634.2
85119.9,43637.5
85129.3,43639.8
85138.9,43641.3
85148.5,43641.7
85719.4,43641.7
85729,43641.3
85738.6,43639.8
85747.9,43637.5
85757,43634.2
85765.8,43630.1
85774.1,43625.1
85781.8,43619.4
85789,43612.9
85795.5,43605.7
85801.2,43598
85806.2,43589.7
85810.3,43581
85813.6,43571.9
85815.9,43562.5
85817.3,43553
85817.8,43543.3
85817.8,43070.9
85817.3,43061.2
85815.9,43051.7
85813.6,43042.3
85810.3,43033.2
85806.2,43024.5
85801.2,43016.2
85795.5,43008.4
85789,43001.3
85781.8,42994.8
85774.1,42989
85765.8,42984.1
85757,42979.9
85747.9,42976.7
85738.6,42974.3
85729,42972.9
85719.4,42972.4
85148.5,42972.4
Z" /> 
</g>
<g style="fill:#FFFFFF; fill-opacity:1.0; 
stroke:#FFFFFF; stroke-width:669.291; stroke-opacity:1; 
stroke-linecap:round; stroke-linejoin:round;">
</g>
<g style="fill:#FFFFFF; fill-opacity:0.0; 
stroke:#FFFFFF; stroke-width:669.291; stroke-opacity:1; 
stroke-linecap:round; stroke-linejoin:round;">
<path d="M85384 44291
L85483 44291
" />
<path d="M85384 45275
L85483 45275
" />
</g>
<g >
</g>
<g style="fill:#FFFFFF; fill-opacity:0.0; 
stroke:#FFFFFF; stroke-width:669.291; stroke-opacity:1; 
stroke-linecap:round; stroke-linejoin:round;">
</g>
<g style="fill:#FFFFFF; fill-opacity:0.0; 
stroke:#FFFFFF; stroke-width:0; stroke-opacity:1; 
stroke-linecap:round; stroke-linejoin:round;">
</g>
<g style="fill:#FFFFFF; fill-opacity:1.0; 
stroke:#FFFFFF; stroke-width:0; stroke-opacity:1; 
stroke-linecap:round; stroke-linejoin:round;">
<path style="fill:#FFFFFF; fill-opacity:1.0; 
stroke:#FFFFFF; stroke-width:0; stroke-opacity:1; 
stroke-linecap:round; stroke-linejoin:round;fill-rule:evenodd;"
d="M 76851.3,46771.7
76851.3,46141.7
75906.4,46141.7
75906.4,46771.7
Z" /> 
</g>
<g style="fill:#FFFFFF; fill-opacity:1.0; 
stroke:#FFFFFF; stroke-width:629.921; stroke-opacity:1; 
stroke-linecap:round; stroke-linejoin:round;">
</g>
<g style="fill:#FFFFFF; fill-opacity:0.0; 
stroke:#FFFFFF; stroke-width:629.921; stroke-opacity:1; 
stroke-linecap:round; stroke-linejoin:round;">
<path d="M73536 49456
L73221 49456
" />
<path d="M76536 47456
L76221 47456
" />
<path d="M73536 48456
L73221 48456
" />
<path d="M76536 48456
L76221 48456
" />
<path d="M73536 47456
L73221 47456
" />
<path d="M76536 49456
L76221 49456
" />
<path d="M73536 46456
L73221 46456
" />
</g>
<g >
</g>
<g >
</g>
<g style="fill:#FFFFFF; fill-opacity:0.0; 
stroke:#FFFFFF; stroke-width:629.921; stroke-opacity:1; 
stroke-linecap:round; stroke-linejoin:round;">
</g>
<g style="fill:#FFFFFF; fill-opacity:0.0; 
stroke:#FFFFFF; stroke-width:196.85; stroke-opacity:1; 
stroke-linecap:round; stroke-linejoin:round;">
<path d="M71260 43307
L70867 42913
" />
<path d="M72048 43338
L70898 44488
" />
<path d="M72048 43307
L72048 43338
" />
<path d="M72835 43307
L72048 43307
" />
<path d="M72048 43307
L71260 43307
" />
<path d="M70898 44488
L74016 44488
" />
<path d="M74016 44488
L75197 45669
" />
<path d="M75197 45669
L75197 48031
" />
<path d="M73772 49456
L73378 49456
" />
<path d="M75197 48031
L73772 49456
" />
<path d="M78741 46062
L78347 46062
" />
<path d="M76835 44551
L76835 43307
" />
<path d="M78347 46062
L77559 45275
" />
<path d="M77559 45275
L76772 45275
" />
<path d="M77559 45275
L76835 44551
" />
<path d="M76772 45275
L76378 45669
" />
<path d="M76378 45669
L76378 46456
" />
<path d="M76741 48818
L76378 48456
" />
<path d="M79922 48818
L76741 48818
" />
<path d="M80741 48000
L79922 48818
" />
<path d="M81890 48000
L80741 48000
" />
<path d="M82315 48425
L81890 48000
" />
<path d="M85433 48425
L82315 48425
" />
<path d="M73213 48622
L73378 48456
" />
<path d="M68111 48622
L73213 48622
" />
<path d="M73378 47456
L73378 48456
" />
<path d="M68111 47637
L70867 47637
" />
<path d="M72048 46456
L73378 46456
" />
<path d="M70867 47637
L72048 46456
" />
<path d="M76953 48031
L76378 47456
" />
<path d="M79528 48031
L76953 48031
" />
<path d="M79528 44881
L79528 48031
" />
<path d="M81103 43307
L79528 44881
" />
<path d="M85433 43307
L81103 43307
" />
<path d="M82512 44291
L80741 46062
" />
<path d="M85433 44291
L82512 44291
" />
</g>
<g >
</g>
<g style="fill:#FFFFFF; fill-opacity:0.0; 
stroke:#FFFFFF; stroke-width:196.85; stroke-opacity:1; 
stroke-linecap:round; stroke-linejoin:round;">
<g >
</g>
<g style="fill:#FFFFFF; fill-opacity:1.0; 
stroke:#FFFFFF; stroke-width:100; stroke-opacity:1; 
stroke-linecap:round; stroke-linejoin:round;">
<path style="fill:#FFFFFF; fill-opacity:1.0; 
stroke:#FFFFFF; stroke-width:100; stroke-opacity:1; 
stroke-linecap:round; stroke-linejoin:round;fill-rule:evenodd;"
d="M 66586.3,52496.1
86958.7,52496.1
86958.7,50362.7
82182.6,50362.7
82159.2,50454.7
82065.3,50498.4
81964.7,50522.9
81861.3,50527.3
81759,50511.5
81661.7,50476
81622,50454.7
81598.6,50362.7
81890.6,50070.7
82182.6,50362.7
86958.7,50362.7
86958.7,50029.3
82417.9,50029.3
82402.1,50131.6
82366.6,50228.9
82345.4,50268.6
82253.3,50292
81961.3,50000
81819.9,50000
81527.9,50292
81435.9,50268.6
81392.2,50174.7
81389.3,50162.7
80037.4,50162.7
80002,50259.5
79948.4,50347.5
79878.7,50423.4
79795.5,50484.2
79702.1,50527.6
79659.7,50540.4
79578.4,50491.9
79578.4,50081.5
79478.4,50081.5
79478.4,50491.9
79397.2,50540.4
79354.8,50527.6
79261.3,50484.2
79178.2,50423.4
79108.4,50347.5
79054.9,50259.5
79019.5,50162.7
79067.7,50081.5
79478.4,50081.5
79578.4,50081.5
79989.1,50081.5
80037.4,50162.7
81389.3,50162.7
81367.7,50074.1
81363.3,49970.7
81374.2,49900.3
80037.4,49900.3
79989.1,49981.5
79578.4,49981.5
79578.4,49571.1
79478.4,49571.1
79478.4,49981.5
79067.7,49981.5
79019.5,49900.3
79054.9,49803.5
79108.4,49715.5
79178.2,49639.6
79240.4,49594.1
77084.3,49594.1
77077.4,49626.7
77033.8,49729
76971.1,49820.8
76891.7,49898.7
76798.7,49959.5
76695.6,50001
76586.3,50021.7
76428.8,50021.7
76428.8,49506.7
76328.8,49506.7
76328.8,50021.7
76171.3,50021.7
76062.1,50001
75958.9,49959.5
75865.9,49898.7
75786.5,49820.8
75723.8,49729
75680.2,49626.7
75673.3,49594.1
75721.4,49506.7
76328.8,49506.7
76428.8,49506.7
77036.3,49506.7
77084.3,49594.1
79240.4,49594.1
79261.3,49578.8
79354.8,49535.4
79397.2,49522.6
79478.4,49571.1
79578.4,49571.1
79659.7,49522.6
79702.1,49535.4
79795.5,49578.8
79878.7,49639.6
79948.4,49715.5
80002,49803.5
80037.4,49900.3
81374.2,49900.3
81379.2,49868.4
81414.7,49771.1
81435.9,49731.4
81527.9,49708
81819.9,50000
81961.3,50000
82253.3,49708
82345.4,49731.4
82389,49825.3
82413.5,49925.9
82417.9,50029.3
86958.7,50029.3
86958.7,49550
86060.5,49550
86059.7,49554.8
86020.5,49662.6
85961,49760.6
85883.5,49845.2
85790.9,49913
85687,49961.5
85575.6,49988.7
85483.9,49932
85483.9,49459.4
85383.9,49459.4
85383.9,49932
85292.3,49988.7
85180.9,49961.5
85076.9,49913
84984.4,49845.2
84906.9,49760.6
84847.4,49662.6
84838.2,49637.3
82182.6,49637.3
81890.6,49929.3
81598.6,49637.3
81622,49545.3
81715.9,49501.6
81816.5,49477.1
81919.9,49472.7
82022.3,49488.5
82119.5,49524
82159.2,49545.3
82182.6,49637.3
84838.2,49637.3
84808.1,49554.8
84807.4,49550
84855.1,49459.4
85383.9,49459.4
85483.9,49459.4
86012.7,49459.4
86060.5,49550
86958.7,49550
86958.7,48189
86078.8,48189
86078.8,48661.4
86072.1,48729.6
86052.2,48795.2
86019.9,48855.7
85976.4,48908.6
85923.5,48952.1
85883.3,48973.6
85883.5,48973.7
85961,49058.2
86020.5,49156.3
86059.7,49264.1
86060.5,49268.9
86012.7,49359.4
85483.9,49359.4
85483.9,49351.6
85383.9,49351.6
85383.9,49359.4
84855.1,49359.4
84807.4,49268.9
84808.1,49264.1
84847.4,49156.3
84906.9,49058.2
84984.4,48973.7
84984.6,48973.6
84944.4,48952.1
84891.4,48908.6
84848,48855.7
84815.6,48795.2
84809.1,48773.6
82332.9,48773.6
82315.8,48775.3
82298.7,48773.6
82298.7,48773.6
82247.5,48768.6
82181.8,48748.7
82121.3,48716.3
82068.3,48672.8
82057.3,48659.5
81923.5,48525.6
81838.9,48525.6
81737.3,48505.4
81641.7,48465.8
81555.6,48408.3
81495.8,48348.4
80885.3,48348.4
80180.6,49053.2
80169.7,49066.5
80156.4,49077.4
80156.4,49077.4
80137.9,49092.6
80116.6,49110
80056.1,49142.4
79990.4,49162.3
79939.2,49167.3
79939.2,49167.3
79922.1,49169
79905,49167.3
77022.2,49167.3
77033.8,49184.4
77077.4,49286.7
77084.3,49319.3
77036.3,49406.7
76428.8,49406.7
76428.8,49398.8
76328.8,49398.8
76328.8,49406.7
75721.4,49406.7
75673.3,49319.3
75680.2,49286.7
75723.8,49184.4
75786.5,49092.6
75865.9,49014.7
75956.3,48955.6
75905.9,48928.7
75819.9,48858.1
75749.3,48772.1
75696.9,48673.9
75664.6,48567.4
75653.6,48456.7
75664.6,48345.9
75696.9,48239.4
75749.3,48141.3
75819.9,48055.3
75905.9,47984.7
75958.3,47956.7
75905.9,47928.7
75819.9,47858.1
75749.3,47772.1
75696.9,47673.9
75664.6,47567.4
75653.6,47456.7
75664.6,47345.9
75696.9,47239.4
75749.3,47141.3
75819.9,47055.3
75864.4,47018.7
75857.4,47018
75810.2,47003.7
75766.8,46980.5
75728.7,46949.3
75697.5,46911.2
75674.3,46867.8
75660,46820.7
75655.2,46771.7
75655.2,46141.7
75660,46092.7
75674.3,46045.6
75697.5,46002.2
75728.7,45964.1
75766.8,45932.9
75810.2,45909.6
75857.4,45895.3
75906.4,45890.5
76030.4,45890.5
76030.4,45686.4
76028.7,45669.3
75547.8,45669.3
75546.1,45686.4
75546.1,48014.4
75547.8,48031.5
75541.1,48099.8
75521.2,48165.5
75488.8,48226
75456.2,48265.8
75456.2,48265.8
75445.3,48279.1
75432,48290
74066.3,49655.6
74060.8,49673.9
74008.3,49772.1
73937.7,49858.1
73851.7,49928.7
73753.5,49981.2
73647.1,50013.5
73564.1,50021.7
73193.6,50021.7
73110.6,50013.5
73004.1,49981.2
72905.9,49928.7
72819.9,49858.1
72749.3,49772.1
72696.9,49673.9
72664.6,49567.4
72653.6,49456.7
72664.6,49345.9
72696.9,49239.4
72749.3,49141.3
72819.9,49055.3
72905.9,48984.7
72932.5,48970.5
68630.7,48970.5
68575.7,49037.5
68550.7,49058
68590.8,49079.4
68643.8,49122.8
68687.2,49175.8
68719.6,49236.3
68739.5,49301.9
68746.2,49370.1
68746.2,49842.5
68739.5,49910.7
68719.6,49976.3
68687.2,50036.8
68643.8,50089.7
68590.8,50133.2
68530.3,50165.5
68464.7,50185.4
68396.5,50192.2
67825.7,50192.2
67757.5,50185.4
67691.9,50165.5
67631.4,50133.2
67578.4,50089.7
67535,50036.8
67502.6,49976.3
67482.8,49910.7
67476,49842.5
67476,49370.1
67482.8,49301.9
67502.6,49236.3
67535,49175.8
67578.4,49122.8
67631.4,49079.4
67671.5,49058
67646.5,49037.5
67573.4,48948.4
67519.1,48846.9
67485.7,48736.7
67474.4,48622
67485.7,48507.4
67519.1,48397.2
67573.4,48295.7
67646.5,48206.6
67735.5,48133.6
67742.4,48129.9
67735.5,48126.3
67646.5,48053.2
67573.4,47964.2
67519.1,47862.6
67485.7,47752.4
67474.4,47637.8
67485.7,47523.2
67519.1,47413
67573.4,47311.4
67646.5,47222.4
67735.5,47149.3
67745.6,47143.9
67664.5,47082.3
67588.5,46996.5
67530.6,46897.6
67494.4,46794.1
67542.1,46703.5
68061.1,46703.5
68061.1,46711.4
68161.1,46711.4
68161.1,46703.5
68680.1,46703.5
68727.8,46794.1
68691.6,46897.6
68633.7,46996.5
68557.7,47082.3
68476.6,47143.9
68486.7,47149.3
68575.7,47222.4
68630.7,47289.4
70722.7,47289.4
71499,46513
68727.8,46513
68680.1,46603.5
68161.1,46603.5
68161.1,46131.4
68061.1,46131.4
68061.1,46603.5
67542.1,46603.5
67494.4,46513
67530.6,46409.5
67588.5,46310.6
67664.5,46224.8
67755.8,46155.5
67858.8,46105.3
67969.7,46076.3
68061.1,46131.4
68161.1,46131.4
68252.5,46076.3
68363.4,46105.3
68466.4,46155.5
68557.7,46224.8
68633.7,46310.6
68691.6,46409.5
68727.8,46513
71499,46513
71789.6,46222.4
71800.5,46209.1
71853.6,46165.6
71914.1,46133.2
71979.8,46113.3
72031,46108.3
72031,46108.3
72048.1,46106.6
72065.2,46108.3
72776.4,46108.3
72819.9,46055.3
72905.9,45984.7
73004.1,45932.2
73110.6,45899.9
73193.6,45891.7
73564.1,45891.7
73647.1,45899.9
73753.5,45932.2
73851.7,45984.7
73937.7,46055.3
74008.3,46141.3
74060.8,46239.4
74093.1,46345.9
74104,46456.7
74093.1,46567.4
74060.8,46673.9
74008.3,46772.1
73937.7,46858.1
73851.7,46928.7
73799.3,46956.7
73851.7,46984.7
73937.7,47055.3
74008.3,47141.3
74060.8,47239.4
74093.1,47345.9
74104,47456.7
74093.1,47567.4
74060.8,47673.9
74008.3,47772.1
73937.7,47858.1
73851.7,47928.7
73799.3,47956.7
73851.7,47984.7
73937.7,48055.3
74008.3,48141.3
74060.8,48239.4
74093.1,48345.9
74104,48456.7
74093.1,48567.4
74060.8,48673.9
74058.8,48677.7
74849.3,47887.2
74849.3,45813.6
73872.3,44836.6
71293.4,44836.6
71233.5,44896.4
71147.5,44954
71051.8,44993.6
70950.3,45013.8
70846.7,45013.8
70745.2,44993.6
70649.5,44954
70563.5,44896.4
70517.9,44850.9
69190.5,44850.9
69167.1,44942.9
69073.2,44986.6
68972.6,45011.1
68869.2,45015.5
68766.9,44999.7
68669.6,44964.1
68629.9,44942.9
68606.5,44850.9
68898.5,44558.9
69190.5,44850.9
70517.9,44850.9
70490.3,44823.2
70432.7,44737.1
70393.1,44641.5
70372.9,44540
70372.9,44517.5
69425.8,44517.5
69410,44619.8
69374.5,44717.1
69353.2,44756.8
69261.2,44780.2
68969.2,44488.2
68827.8,44488.2
68535.8,44780.2
68443.8,44756.8
68400.1,44662.9
68375.6,44562.3
68371.2,44458.9
68387,44356.6
68422.5,44259.3
68443.8,44219.6
68535.8,44196.2
68827.8,44488.2
68969.2,44488.2
69261.2,44196.2
69353.2,44219.6
69396.9,44313.5
69421.4,44414.1
69425.8,44517.5
70372.9,44517.5
70372.9,44436.4
70393.1,44334.9
70432.7,44239.2
70490.3,44153.1
70517.9,44125.5
69190.5,44125.5
68898.5,44417.5
68606.5,44125.5
68629.9,44033.4
68723.8,43989.8
68824.4,43965.3
68927.8,43960.9
69030.1,43976.7
69127.4,44012.2
69167.1,44033.4
69190.5,44125.5
70517.9,44125.5
70563.5,44079.9
70649.5,44022.4
70745.2,43982.8
70846.7,43962.6
70931.3,43962.6
71238.9,43655
71192.4,43650.5
71126.7,43630.5
71066.2,43598.2
71013.1,43554.7
71002.2,43541.4
70936.5,43475.6
70922.7,43478.3
70811.4,43478.3
70702.2,43456.6
70599.4,43414
70506.9,43352.2
70458.9,43304.2
69218.6,43304.2
69190.4,43400.3
69089.8,43447.9
68981.9,43474.9
68870.7,43480.4
68760.7,43464.1
68655.9,43426.6
68606.6,43400.3
68578.4,43304.2
68898.5,42984.1
69218.6,43304.2
70458.9,43304.2
70428.2,43273.5
70366.3,43181
70323.8,43078.2
70302,42969
70302,42941.1
69465.5,42941.1
69449.2,43051.2
69411.7,43156
69385.4,43205.3
69289.3,43233.5
68969.2,42913.4
68827.8,42913.4
68507.7,43233.5
68411.6,43205.3
68364,43104.7
68337,42996.8
68331.5,42885.6
68347.8,42775.5
68385.3,42670.8
68411.6,42621.5
68507.7,42593.3
68827.8,42913.4
68969.2,42913.4
69289.3,42593.3
69385.4,42621.5
69433,42722
69460,42830
69465.5,42941.1
70302,42941.1
70302,42857.7
70323.8,42748.6
70366.3,42645.8
70428.2,42553.2
70458.9,42522.6
69218.6,42522.6
68898.5,42842.7
68578.4,42522.6
68606.6,42426.5
68707.2,42378.9
68815.1,42351.9
68926.3,42346.4
69036.4,42362.7
69141.1,42400.2
69190.4,42426.5
69218.6,42522.6
70458.9,42522.6
70506.9,42474.6
70599.4,42412.7
70702.2,42370.1
70811.4,42348.4
70922.7,42348.4
71031.8,42370.1
71134.6,42412.7
71227.1,42474.6
71305.8,42553.2
71367.7,42645.8
71410.3,42748.6
71432,42857.7
71432,42958.7
72031,42958.7
72048.1,42957
72065.2,42958.7
72151.2,42958.7
72151.2,42874
72156.1,42825
72170.4,42777.9
72193.6,42734.5
72224.8,42696.4
72262.9,42665.1
72306.3,42641.9
72353.4,42627.6
72402.4,42622.8
73268.6,42622.8
73317.6,42627.6
73364.7,42641.9
73408.1,42665.1
73446.2,42696.4
73477.5,42734.5
73500.7,42777.9
73515,42825
73519.8,42874
73519.8,43740.2
73515,43789.2
73500.7,43836.3
73477.5,43879.7
73446.2,43917.8
73408.1,43949
73364.7,43972.2
73317.6,43986.5
73268.6,43991.4
72402.4,43991.4
72353.4,43986.5
72306.3,43972.2
72262.9,43949
72224.8,43917.8
72193.6,43879.7
72170.4,43836.3
72156.1,43789.2
72151.2,43740.2
72151.2,43728.2
71739.7,44139.8
73999.5,44139.8
74016.6,44138.1
74033.7,44139.8
74033.7,44139.8
74084.9,44144.8
74150.6,44164.7
74211.1,44197.1
74250.9,44229.7
74250.9,44229.7
74264.2,44240.6
74275.1,44253.9
75432,45410.8
75445.3,45421.7
75488.8,45474.8
75521.2,45535.3
75530.7,45566.7
75540,45597.2
75541.1,45601
75546.1,45652.2
75546.1,45652.2
75547.8,45669.3
76028.7,45669.3
76030.4,45652.2
76030.4,45652.2
76035.4,45601
76036.6,45597.2
76055.4,45535.3
76087.7,45474.8
76120.3,45435
76120.3,45435
76131.3,45421.7
76144.5,45410.8
76514,45041.3
76525,45028
76578,44984.5
76638.5,44952.1
76704.2,44932.2
76722,44930.5
76601.2,44809.7
76587.9,44798.7
76544.4,44745.7
76512.1,44685.2
76492.1,44619.5
76487.1,44568.3
76487.1,44568.3
76485.4,44551.2
76487.1,44534.1
76487.1,43895.8
76400.1,43837.7
76304.9,43742.5
76230.2,43630.6
76178.7,43506.3
76152.4,43374.4
76152.4,43239.8
76178.7,43107.8
76230.2,42983.5
76304.9,42871.7
76400.1,42776.5
76512,42701.8
76636.3,42650.3
76768.2,42624
76902.8,42624
77034.8,42650.3
77159.1,42701.8
77270.9,42776.5
77366.1,42871.7
77440.8,42983.5
77492.3,43107.8
77518.6,43239.8
77518.6,43374.4
77492.3,43506.3
77440.8,43630.6
77366.1,43742.5
77270.9,43837.7
77183.9,43895.8
77183.9,44406.9
77794.2,45017.1
77794.2,45017.1
77794.2,45017.1
77807.5,45028
77818.4,45041.3
78421.5,45644.4
78492.1,45597.2
78587.7,45557.6
78689.3,45537.4
78792.8,45537.4
78894.3,45557.6
78990,45597.2
79076.1,45654.7
79149.3,45727.9
79180,45773.9
79180,44899
79178.3,44881.9
79180,44864.8
79180,44864.8
79185,44813.6
79205,44747.9
79237.3,44687.4
79280.9,44634.3
79294.2,44623.4
80844.8,43072.8
80855.7,43059.5
80908.7,43016
80969.2,42983.6
81034.9,42963.7
81086.1,42958.7
81086.1,42958.7
81103.2,42957
81120.3,42958.7
84818.9,42958.7
84825.5,42937.1
84857.8,42876.6
84901.3,42823.6
84954.3,42780.2
85014.7,42747.8
85080.3,42727.9
85148.5,42721.2
85719.4,42721.2
85787.6,42727.9
85853.2,42747.8
85913.6,42780.2
85966.6,42823.6
86010.1,42876.6
86042.4,42937.1
86062.3,43002.7
86069,43070.9
86069,43543.3
86062.3,43611.5
86042.4,43677.1
86010.1,43737.6
85966.6,43790.5
85913.6,43834
85873.6,43855.4
85898.6,43875.9
85971.6,43965
86025.9,44066.5
86059.3,44176.7
86070.6,44291.3
86059.3,44405.9
86025.9,44516.2
85971.6,44617.7
85898.6,44706.7
85809.5,44779.8
85802.7,44783.5
85809.5,44787.1
85898.6,44860.2
85971.6,44949.2
86025.9,45050.8
86059.3,45161
86070.6,45275.6
86059.3,45390.2
86025.9,45500.4
85971.6,45602
85898.6,45691
85809.5,45764.1
85708,45818.3
85597.8,45851.8
85511.9,45860.2
85356,45860.2
85270.1,45851.8
85159.9,45818.3
85058.3,45764.1
84969.3,45691
84896.3,45602
84842,45500.4
84808.5,45390.2
84797.2,45275.6
84808.5,45161
84842,45050.8
84896.3,44949.2
84969.3,44860.2
85058.3,44787.1
85065.2,44783.5
85058.3,44779.8
84969.3,44706.7
84914.3,44639.8
82657,44639.8
81266.6,46030.1
81266.6,46114.8
81246.4,46216.3
81206.8,46312
81149.3,46398
81076.1,46471.2
80990,46528.8
80894.3,46568.4
80792.8,46588.6
80689.3,46588.6
80587.7,46568.4
80492.1,46528.8
80406,46471.2
80332.8,46398
80275.3,46312
80235.6,46216.3
80215.4,46114.8
80215.4,46011.2
80235.6,45909.7
80275.3,45814
80332.8,45727.9
80406,45654.7
80492.1,45597.2
80587.7,45557.6
80689.3,45537.4
80773.9,45537.4
82254.2,44057.1
82265.1,44043.8
82318.2,44000.2
82378.7,43967.9
82444.4,43948
82495.6,43942.9
82495.6,43942.9
82512.7,43941.2
82529.8,43942.9
84914.3,43942.9
84969.3,43875.9
84994.3,43855.4
84954.3,43834
84901.3,43790.5
84857.8,43737.6
84825.5,43677.1
84818.9,43655.5
81247.6,43655.5
79876.9,45026.2
79876.9,47636.6
79936.7,47696.5
79994.2,47782.5
80033.8,47878.2
80054,47979.7
80054,48083.3
80033.8,48184.8
80012.8,48235.4
80482.5,47765.7
80493.5,47752.4
80546.5,47708.9
80607,47676.5
80672.7,47656.6
80723.9,47651.6
80723.9,47651.6
80741,47649.9
80758.1,47651.6
81495.8,47651.6
81555.6,47591.7
81641.7,47534.2
81737.3,47494.6
81838.9,47474.4
81942.4,47474.4
82043.9,47494.6
82139.6,47534.2
82225.7,47591.7
82298.9,47665
82356.4,47751
82396,47846.7
82416.2,47948.2
82416.2,48032.8
82460.1,48076.8
84809.1,48076.8
84815.6,48055.2
84848,47994.7
84891.4,47941.7
84944.4,47898.3
85004.9,47866
85070.5,47846.1
85138.7,47839.3
85729.2,47839.3
85797.4,47846.1
85863,47866
85923.5,47898.3
85976.4,47941.7
86019.9,47994.7
86052.2,48055.2
86072.1,48120.8
86078.8,48189
86958.7,48189
86958.7,40417.3
66586.3,40417.3
Z" /> 
</g>
</g>
</g> 
</svg>
