G04 #@! TF.GenerationSoftware,KiCad,Pcbnew,(5.1.7)-1*
G04 #@! TF.CreationDate,2021-05-17T18:14:54+01:00*
G04 #@! TF.ProjectId,driver,64726976-6572-42e6-9b69-6361645f7063,rev?*
G04 #@! TF.SameCoordinates,Original*
G04 #@! TF.FileFunction,Copper,L1,Top*
G04 #@! TF.FilePolarity,Positive*
%FSLAX46Y46*%
G04 Gerber Fmt 4.6, Leading zero omitted, Abs format (unit mm)*
G04 Created by KiCad (PCBNEW (5.1.7)-1) date 2021-05-17 18:14:54*
%MOMM*%
%LPD*%
G01*
G04 APERTURE LIST*
G04 #@! TA.AperFunction,ComponentPad*
%ADD10O,1.700000X2.000000*%
G04 #@! TD*
G04 #@! TA.AperFunction,ComponentPad*
%ADD11O,1.600000X1.600000*%
G04 #@! TD*
G04 #@! TA.AperFunction,ComponentPad*
%ADD12R,1.600000X1.600000*%
G04 #@! TD*
G04 #@! TA.AperFunction,ComponentPad*
%ADD13C,2.000000*%
G04 #@! TD*
G04 #@! TA.AperFunction,ComponentPad*
%ADD14O,1.905000X2.000000*%
G04 #@! TD*
G04 #@! TA.AperFunction,ComponentPad*
%ADD15R,1.905000X2.000000*%
G04 #@! TD*
G04 #@! TA.AperFunction,ComponentPad*
%ADD16C,2.400000*%
G04 #@! TD*
G04 #@! TA.AperFunction,ComponentPad*
%ADD17O,2.000000X1.700000*%
G04 #@! TD*
G04 #@! TA.AperFunction,ComponentPad*
%ADD18O,1.950000X1.700000*%
G04 #@! TD*
G04 #@! TA.AperFunction,ComponentPad*
%ADD19C,1.800000*%
G04 #@! TD*
G04 #@! TA.AperFunction,ComponentPad*
%ADD20R,1.800000X1.800000*%
G04 #@! TD*
G04 #@! TA.AperFunction,ComponentPad*
%ADD21C,1.600000*%
G04 #@! TD*
G04 #@! TA.AperFunction,Conductor*
%ADD22C,1.000000*%
G04 #@! TD*
G04 #@! TA.AperFunction,Conductor*
%ADD23C,0.500000*%
G04 #@! TD*
G04 #@! TA.AperFunction,Conductor*
%ADD24C,0.750000*%
G04 #@! TD*
G04 APERTURE END LIST*
D10*
X158000000Y-75500000D03*
G04 #@! TA.AperFunction,ComponentPad*
G36*
G01*
X154650000Y-76250000D02*
X154650000Y-74750000D01*
G75*
G02*
X154900000Y-74500000I250000J0D01*
G01*
X156100000Y-74500000D01*
G75*
G02*
X156350000Y-74750000I0J-250000D01*
G01*
X156350000Y-76250000D01*
G75*
G02*
X156100000Y-76500000I-250000J0D01*
G01*
X154900000Y-76500000D01*
G75*
G02*
X154650000Y-76250000I0J250000D01*
G01*
G37*
G04 #@! TD.AperFunction*
D11*
X162120000Y-85500000D03*
X154500000Y-93120000D03*
X162120000Y-88040000D03*
X154500000Y-90580000D03*
X162120000Y-90580000D03*
X154500000Y-88040000D03*
X162120000Y-93120000D03*
D12*
X154500000Y-85500000D03*
D11*
X150620000Y-97000000D03*
X143000000Y-104620000D03*
X150620000Y-99540000D03*
X143000000Y-102080000D03*
X150620000Y-102080000D03*
X143000000Y-99540000D03*
X150620000Y-104620000D03*
D12*
X143000000Y-97000000D03*
D13*
X149500000Y-75000000D03*
X149500000Y-84000000D03*
X144500000Y-84000000D03*
X144500000Y-75000000D03*
X183000000Y-80500000D03*
X183000000Y-89500000D03*
X172500000Y-106500000D03*
X172500000Y-97500000D03*
X178000000Y-80500000D03*
X178000000Y-89500000D03*
X166500000Y-106500000D03*
X166500000Y-97500000D03*
X168000000Y-80500000D03*
X168000000Y-89500000D03*
X161000000Y-106500000D03*
X161000000Y-97500000D03*
X173000000Y-89500000D03*
X173000000Y-80500000D03*
X155000000Y-106500000D03*
X155000000Y-97500000D03*
D14*
X185080000Y-76000000D03*
X182540000Y-76000000D03*
D15*
X180000000Y-76000000D03*
D14*
X166920000Y-111500000D03*
X169460000Y-111500000D03*
D15*
X172000000Y-111500000D03*
D14*
X173580000Y-76000000D03*
X171040000Y-76000000D03*
D15*
X168500000Y-76000000D03*
D14*
X155420000Y-111500000D03*
X157960000Y-111500000D03*
D15*
X160500000Y-111500000D03*
D16*
X183500000Y-98000000D03*
X178500000Y-98000000D03*
X183500000Y-109500000D03*
X178500000Y-109500000D03*
D17*
X190500000Y-93000000D03*
G04 #@! TA.AperFunction,ComponentPad*
G36*
G01*
X189750000Y-89650000D02*
X191250000Y-89650000D01*
G75*
G02*
X191500000Y-89900000I0J-250000D01*
G01*
X191500000Y-91100000D01*
G75*
G02*
X191250000Y-91350000I-250000J0D01*
G01*
X189750000Y-91350000D01*
G75*
G02*
X189500000Y-91100000I0J250000D01*
G01*
X189500000Y-89900000D01*
G75*
G02*
X189750000Y-89650000I250000J0D01*
G01*
G37*
G04 #@! TD.AperFunction*
D18*
X128500000Y-97500000D03*
X128500000Y-100000000D03*
X128500000Y-102500000D03*
G04 #@! TA.AperFunction,ComponentPad*
G36*
G01*
X129225000Y-105850000D02*
X127775000Y-105850000D01*
G75*
G02*
X127525000Y-105600000I0J250000D01*
G01*
X127525000Y-104400000D01*
G75*
G02*
X127775000Y-104150000I250000J0D01*
G01*
X129225000Y-104150000D01*
G75*
G02*
X129475000Y-104400000I0J-250000D01*
G01*
X129475000Y-105600000D01*
G75*
G02*
X129225000Y-105850000I-250000J0D01*
G01*
G37*
G04 #@! TD.AperFunction*
X128500000Y-81500000D03*
X128500000Y-84000000D03*
X128500000Y-86500000D03*
G04 #@! TA.AperFunction,ComponentPad*
G36*
G01*
X129225000Y-89850000D02*
X127775000Y-89850000D01*
G75*
G02*
X127525000Y-89600000I0J250000D01*
G01*
X127525000Y-88400000D01*
G75*
G02*
X127775000Y-88150000I250000J0D01*
G01*
X129225000Y-88150000D01*
G75*
G02*
X129475000Y-88400000I0J-250000D01*
G01*
X129475000Y-89600000D01*
G75*
G02*
X129225000Y-89850000I-250000J0D01*
G01*
G37*
G04 #@! TD.AperFunction*
D10*
X138500000Y-75500000D03*
G04 #@! TA.AperFunction,ComponentPad*
G36*
G01*
X135150000Y-76250000D02*
X135150000Y-74750000D01*
G75*
G02*
X135400000Y-74500000I250000J0D01*
G01*
X136600000Y-74500000D01*
G75*
G02*
X136850000Y-74750000I0J-250000D01*
G01*
X136850000Y-76250000D01*
G75*
G02*
X136600000Y-76500000I-250000J0D01*
G01*
X135400000Y-76500000D01*
G75*
G02*
X135150000Y-76250000I0J250000D01*
G01*
G37*
G04 #@! TD.AperFunction*
D19*
X138000000Y-87960000D03*
D20*
X138000000Y-90500000D03*
D19*
X138000000Y-80960000D03*
D20*
X138000000Y-83500000D03*
D21*
X159500000Y-82000000D03*
X154500000Y-82000000D03*
X150500000Y-88500000D03*
X150500000Y-93500000D03*
X190500000Y-101500000D03*
D12*
X190500000Y-99500000D03*
D21*
X190500000Y-107500000D03*
D12*
X190500000Y-105500000D03*
D21*
X163500000Y-77000000D03*
X163500000Y-82000000D03*
X143500000Y-88500000D03*
X143500000Y-93500000D03*
D12*
X138000000Y-95500000D03*
D21*
X138000000Y-97500000D03*
D22*
X143500000Y-96500000D02*
X143000000Y-97000000D01*
X143500000Y-93500000D02*
X143500000Y-96500000D01*
X143500000Y-93500000D02*
X150500000Y-93500000D01*
X150500000Y-96880000D02*
X150620000Y-97000000D01*
X150500000Y-93500000D02*
X150500000Y-96880000D01*
X155000000Y-111080000D02*
X155420000Y-111500000D01*
X155000000Y-106500000D02*
X155000000Y-111080000D01*
X149500000Y-106500000D02*
X155000000Y-106500000D01*
X148500000Y-105500000D02*
X149500000Y-106500000D01*
X148500000Y-99000000D02*
X148500000Y-105500000D01*
X150620000Y-97000000D02*
X150500000Y-97000000D01*
X150500000Y-97000000D02*
X148500000Y-99000000D01*
X142475000Y-93500000D02*
X143500000Y-93500000D01*
X140475000Y-95500000D02*
X142475000Y-93500000D01*
X135500000Y-94500000D02*
X136500000Y-95500000D01*
X135500000Y-76000000D02*
X135500000Y-94500000D01*
X136500000Y-95500000D02*
X140475000Y-95500000D01*
X136000000Y-75500000D02*
X135500000Y-76000000D01*
X136000000Y-75000000D02*
X136000000Y-75500000D01*
X138000000Y-73000000D02*
X136000000Y-75000000D01*
X147500000Y-73000000D02*
X138000000Y-73000000D01*
X149500000Y-75000000D02*
X147500000Y-73000000D01*
X154500000Y-82000000D02*
X154500000Y-85500000D01*
X153000000Y-82000000D02*
X154500000Y-82000000D01*
X152500000Y-92500000D02*
X152500000Y-82500000D01*
X152500000Y-82500000D02*
X153000000Y-82000000D01*
X151500000Y-93500000D02*
X152500000Y-92500000D01*
X150500000Y-93500000D02*
X151500000Y-93500000D01*
X150000000Y-75500000D02*
X149500000Y-75000000D01*
X155500000Y-75500000D02*
X150000000Y-75500000D01*
X163500000Y-82500000D02*
X163500000Y-82000000D01*
X162120000Y-83880000D02*
X163500000Y-82500000D01*
X162120000Y-85500000D02*
X162120000Y-83880000D01*
X170000000Y-86500000D02*
X173000000Y-89500000D01*
X163120000Y-86500000D02*
X170000000Y-86500000D01*
X162120000Y-85500000D02*
X163120000Y-86500000D01*
X156500000Y-80000000D02*
X154500000Y-82000000D01*
X161500000Y-80000000D02*
X156500000Y-80000000D01*
X163500000Y-82000000D02*
X161500000Y-80000000D01*
X175500000Y-77920000D02*
X173580000Y-76000000D01*
X175500000Y-87000000D02*
X175500000Y-77920000D01*
X173000000Y-89500000D02*
X175500000Y-87000000D01*
X187500000Y-105500000D02*
X190500000Y-105500000D01*
X183500000Y-109500000D02*
X187500000Y-105500000D01*
X191500000Y-90500000D02*
X190500000Y-90500000D01*
X193000000Y-92000000D02*
X191500000Y-90500000D01*
X193000000Y-104050000D02*
X193000000Y-92000000D01*
X190500000Y-105500000D02*
X191550000Y-105500000D01*
X191550000Y-105500000D02*
X193000000Y-104050000D01*
X190500000Y-99500000D02*
X190500000Y-93000000D01*
X185000000Y-99500000D02*
X190500000Y-99500000D01*
X183500000Y-98000000D02*
X185000000Y-99500000D01*
D23*
X141460000Y-80960000D02*
X144500000Y-84000000D01*
X138000000Y-80960000D02*
X141460000Y-80960000D01*
D22*
X139460000Y-86500000D02*
X138000000Y-87960000D01*
X147000000Y-86500000D02*
X139460000Y-86500000D01*
X149500000Y-84000000D02*
X147000000Y-86500000D01*
D23*
X129500000Y-90000000D02*
X128500000Y-89000000D01*
X130500000Y-91000000D02*
X129500000Y-90000000D01*
X130500000Y-95000000D02*
X130500000Y-91000000D01*
X135000000Y-99500000D02*
X130500000Y-95000000D01*
X142960000Y-99500000D02*
X135000000Y-99500000D01*
X143000000Y-99540000D02*
X142960000Y-99500000D01*
D22*
X178500000Y-109750000D02*
X178500000Y-109500000D01*
X174750000Y-113500000D02*
X178500000Y-109750000D01*
X170500000Y-113500000D02*
X174750000Y-113500000D01*
X169460000Y-111500000D02*
X169460000Y-112460000D01*
X169460000Y-112460000D02*
X170500000Y-113500000D01*
X168402251Y-109500000D02*
X169460000Y-110557749D01*
X169460000Y-110557749D02*
X169460000Y-111500000D01*
X157960000Y-111500000D02*
X157960000Y-112710000D01*
X158750000Y-113500000D02*
X162000000Y-113500000D01*
X157960000Y-112710000D02*
X158750000Y-113500000D01*
X162000000Y-113500000D02*
X166000000Y-109500000D01*
X166000000Y-109500000D02*
X168402251Y-109500000D01*
D24*
X182460000Y-74040000D02*
X183500000Y-73000000D01*
X182540000Y-74040000D02*
X181500000Y-73000000D01*
D22*
X182540000Y-76000000D02*
X182540000Y-74040000D01*
X171040000Y-75460000D02*
X171040000Y-76000000D01*
X173500000Y-73000000D02*
X171040000Y-75460000D01*
X186000000Y-73000000D02*
X173500000Y-73000000D01*
X187500000Y-74500000D02*
X186000000Y-73000000D01*
X187500000Y-89000000D02*
X187500000Y-74500000D01*
X178500000Y-98000000D02*
X187500000Y-89000000D01*
D24*
X155000000Y-100500000D02*
X161000000Y-106500000D01*
X155000000Y-97500000D02*
X155000000Y-100500000D01*
X161000000Y-111000000D02*
X160500000Y-111500000D01*
X161000000Y-106500000D02*
X161000000Y-111000000D01*
X173000000Y-80500000D02*
X168000000Y-80500000D01*
X168000000Y-76500000D02*
X168500000Y-76000000D01*
X168000000Y-80500000D02*
X168000000Y-76500000D01*
X166500000Y-106500000D02*
X172500000Y-106500000D01*
X172500000Y-111000000D02*
X172000000Y-111500000D01*
X172500000Y-106500000D02*
X172500000Y-111000000D01*
X183000000Y-80500000D02*
X178000000Y-80500000D01*
X178000000Y-78000000D02*
X178000000Y-80500000D01*
X180000000Y-76000000D02*
X178000000Y-78000000D01*
X150620000Y-102080000D02*
X150620000Y-99540000D01*
X159000000Y-95500000D02*
X161000000Y-97500000D01*
X154500000Y-95500000D02*
X159000000Y-95500000D01*
X150620000Y-99540000D02*
X150620000Y-99380000D01*
X150620000Y-99380000D02*
X154500000Y-95500000D01*
X161000000Y-97500000D02*
X166500000Y-97500000D01*
X162120000Y-90580000D02*
X162120000Y-88040000D01*
X176000000Y-91500000D02*
X178000000Y-89500000D01*
X170000000Y-91500000D02*
X176000000Y-91500000D01*
X168000000Y-89500000D02*
X170000000Y-91500000D01*
X165500000Y-89500000D02*
X168000000Y-89500000D01*
X164420000Y-90580000D02*
X165500000Y-89500000D01*
X162120000Y-90580000D02*
X164420000Y-90580000D01*
M02*
