M48
; DRILL file {KiCad (5.1.7)-1} date 05/17/21 18:14:58
; FORMAT={-:-/ absolute / metric / decimal}
; #@! TF.CreationDate,2021-05-17T18:14:58+01:00
; #@! TF.GenerationSoftware,Kicad,Pcbnew,(5.1.7)-1
; #@! TF.FileFunction,Plated,1,2,PTH
FMAT,2
METRIC
T1C0.800
T2C0.900
T3C0.950
T4C1.000
T5C1.100
T6C1.200
%
G90
G05
T1
X143.0Y-97.0
X143.0Y-99.54
X143.0Y-102.08
X143.0Y-104.62
X150.62Y-97.0
X150.62Y-99.54
X150.62Y-102.08
X150.62Y-104.62
X138.0Y-95.5
X138.0Y-97.5
X143.5Y-88.5
X143.5Y-93.5
X154.5Y-82.0
X159.5Y-82.0
X190.5Y-105.5
X190.5Y-107.5
X163.5Y-77.0
X163.5Y-82.0
X190.5Y-99.5
X190.5Y-101.5
X154.5Y-85.5
X154.5Y-88.04
X154.5Y-90.58
X154.5Y-93.12
X162.12Y-85.5
X162.12Y-88.04
X162.12Y-90.58
X162.12Y-93.12
X150.5Y-88.5
X150.5Y-93.5
T2
X138.0Y-80.96
X138.0Y-83.5
X138.0Y-87.96
X138.0Y-90.5
T3
X128.5Y-97.5
X128.5Y-100.0
X128.5Y-102.5
X128.5Y-105.0
X128.5Y-81.5
X128.5Y-84.0
X128.5Y-86.5
X128.5Y-89.0
T4
X168.0Y-80.5
X168.0Y-89.5
X172.5Y-97.5
X172.5Y-106.5
X144.5Y-75.0
X144.5Y-84.0
X136.0Y-75.5
X138.5Y-75.5
X166.5Y-97.5
X166.5Y-106.5
X155.5Y-75.5
X158.0Y-75.5
X155.0Y-97.5
X155.0Y-106.5
X183.0Y-80.5
X183.0Y-89.5
X190.5Y-90.5
X190.5Y-93.0
X173.0Y-80.5
X173.0Y-89.5
X149.5Y-75.0
X149.5Y-84.0
X161.0Y-97.5
X161.0Y-106.5
X178.0Y-80.5
X178.0Y-89.5
T5
X168.5Y-76.0
X171.04Y-76.0
X173.58Y-76.0
X166.92Y-111.5
X169.46Y-111.5
X172.0Y-111.5
X180.0Y-76.0
X182.54Y-76.0
X185.08Y-76.0
X155.42Y-111.5
X157.96Y-111.5
X160.5Y-111.5
T6
X178.5Y-109.5
X183.5Y-109.5
X178.5Y-98.0
X183.5Y-98.0
T0
M30
