G04 #@! TF.GenerationSoftware,KiCad,Pcbnew,5.1.10-88a1d61d58~90~ubuntu20.04.1*
G04 #@! TF.CreationDate,2022-01-16T12:05:17+00:00*
G04 #@! TF.ProjectId,12V5A_breakout,31325635-415f-4627-9265-616b6f75742e,rev?*
G04 #@! TF.SameCoordinates,Original*
G04 #@! TF.FileFunction,Other,ECO1*
%FSLAX46Y46*%
G04 Gerber Fmt 4.6, Leading zero omitted, Abs format (unit mm)*
G04 Created by KiCad (PCBNEW 5.1.10-88a1d61d58~90~ubuntu20.04.1) date 2022-01-16 12:05:17*
%MOMM*%
%LPD*%
G01*
G04 APERTURE LIST*
%ADD10C,0.150000*%
G04 APERTURE END LIST*
D10*
X134347619Y-58059523D02*
X134347619Y-58678571D01*
X133966666Y-58345238D01*
X133966666Y-58488095D01*
X133919047Y-58583333D01*
X133871428Y-58630952D01*
X133776190Y-58678571D01*
X133538095Y-58678571D01*
X133442857Y-58630952D01*
X133395238Y-58583333D01*
X133347619Y-58488095D01*
X133347619Y-58202380D01*
X133395238Y-58107142D01*
X133442857Y-58059523D01*
X133919047Y-59250000D02*
X133966666Y-59154761D01*
X134014285Y-59107142D01*
X134109523Y-59059523D01*
X134157142Y-59059523D01*
X134252380Y-59107142D01*
X134300000Y-59154761D01*
X134347619Y-59250000D01*
X134347619Y-59440476D01*
X134300000Y-59535714D01*
X134252380Y-59583333D01*
X134157142Y-59630952D01*
X134109523Y-59630952D01*
X134014285Y-59583333D01*
X133966666Y-59535714D01*
X133919047Y-59440476D01*
X133919047Y-59250000D01*
X133871428Y-59154761D01*
X133823809Y-59107142D01*
X133728571Y-59059523D01*
X133538095Y-59059523D01*
X133442857Y-59107142D01*
X133395238Y-59154761D01*
X133347619Y-59250000D01*
X133347619Y-59440476D01*
X133395238Y-59535714D01*
X133442857Y-59583333D01*
X133538095Y-59630952D01*
X133728571Y-59630952D01*
X133823809Y-59583333D01*
X133871428Y-59535714D01*
X133919047Y-59440476D01*
X133442857Y-60059523D02*
X133395238Y-60107142D01*
X133347619Y-60059523D01*
X133395238Y-60011904D01*
X133442857Y-60059523D01*
X133347619Y-60059523D01*
X134347619Y-61011904D02*
X134347619Y-60535714D01*
X133871428Y-60488095D01*
X133919047Y-60535714D01*
X133966666Y-60630952D01*
X133966666Y-60869047D01*
X133919047Y-60964285D01*
X133871428Y-61011904D01*
X133776190Y-61059523D01*
X133538095Y-61059523D01*
X133442857Y-61011904D01*
X133395238Y-60964285D01*
X133347619Y-60869047D01*
X133347619Y-60630952D01*
X133395238Y-60535714D01*
X133442857Y-60488095D01*
X134347619Y-61678571D02*
X134347619Y-61773809D01*
X134300000Y-61869047D01*
X134252380Y-61916666D01*
X134157142Y-61964285D01*
X133966666Y-62011904D01*
X133728571Y-62011904D01*
X133538095Y-61964285D01*
X133442857Y-61916666D01*
X133395238Y-61869047D01*
X133347619Y-61773809D01*
X133347619Y-61678571D01*
X133395238Y-61583333D01*
X133442857Y-61535714D01*
X133538095Y-61488095D01*
X133728571Y-61440476D01*
X133966666Y-61440476D01*
X134157142Y-61488095D01*
X134252380Y-61535714D01*
X134300000Y-61583333D01*
X134347619Y-61678571D01*
X134347619Y-62630952D02*
X134347619Y-62726190D01*
X134300000Y-62821428D01*
X134252380Y-62869047D01*
X134157142Y-62916666D01*
X133966666Y-62964285D01*
X133728571Y-62964285D01*
X133538095Y-62916666D01*
X133442857Y-62869047D01*
X133395238Y-62821428D01*
X133347619Y-62726190D01*
X133347619Y-62630952D01*
X133395238Y-62535714D01*
X133442857Y-62488095D01*
X133538095Y-62440476D01*
X133728571Y-62392857D01*
X133966666Y-62392857D01*
X134157142Y-62440476D01*
X134252380Y-62488095D01*
X134300000Y-62535714D01*
X134347619Y-62630952D01*
X133347619Y-64154761D02*
X134014285Y-64154761D01*
X133919047Y-64154761D02*
X133966666Y-64202380D01*
X134014285Y-64297619D01*
X134014285Y-64440476D01*
X133966666Y-64535714D01*
X133871428Y-64583333D01*
X133347619Y-64583333D01*
X133871428Y-64583333D02*
X133966666Y-64630952D01*
X134014285Y-64726190D01*
X134014285Y-64869047D01*
X133966666Y-64964285D01*
X133871428Y-65011904D01*
X133347619Y-65011904D01*
X133347619Y-65488095D02*
X134014285Y-65488095D01*
X133919047Y-65488095D02*
X133966666Y-65535714D01*
X134014285Y-65630952D01*
X134014285Y-65773809D01*
X133966666Y-65869047D01*
X133871428Y-65916666D01*
X133347619Y-65916666D01*
X133871428Y-65916666D02*
X133966666Y-65964285D01*
X134014285Y-66059523D01*
X134014285Y-66202380D01*
X133966666Y-66297619D01*
X133871428Y-66345238D01*
X133347619Y-66345238D01*
X132500000Y-43000000D02*
X132500000Y-81500000D01*
X120000000Y-43000000D02*
X133086421Y-43000000D01*
X120000000Y-81500000D02*
X133086421Y-81500000D01*
X132500000Y-81500000D02*
X131913579Y-80373496D01*
X132500000Y-81500000D02*
X133086421Y-80373496D01*
X132500000Y-43000000D02*
X131913579Y-44126504D01*
X132500000Y-43000000D02*
X133086421Y-44126504D01*
X138514285Y-58583333D02*
X137847619Y-58583333D01*
X138895238Y-58345238D02*
X138180952Y-58107142D01*
X138180952Y-58726190D01*
X138847619Y-59583333D02*
X138847619Y-59107142D01*
X138371428Y-59059523D01*
X138419047Y-59107142D01*
X138466666Y-59202380D01*
X138466666Y-59440476D01*
X138419047Y-59535714D01*
X138371428Y-59583333D01*
X138276190Y-59630952D01*
X138038095Y-59630952D01*
X137942857Y-59583333D01*
X137895238Y-59535714D01*
X137847619Y-59440476D01*
X137847619Y-59202380D01*
X137895238Y-59107142D01*
X137942857Y-59059523D01*
X137942857Y-60059523D02*
X137895238Y-60107142D01*
X137847619Y-60059523D01*
X137895238Y-60011904D01*
X137942857Y-60059523D01*
X137847619Y-60059523D01*
X138847619Y-61011904D02*
X138847619Y-60535714D01*
X138371428Y-60488095D01*
X138419047Y-60535714D01*
X138466666Y-60630952D01*
X138466666Y-60869047D01*
X138419047Y-60964285D01*
X138371428Y-61011904D01*
X138276190Y-61059523D01*
X138038095Y-61059523D01*
X137942857Y-61011904D01*
X137895238Y-60964285D01*
X137847619Y-60869047D01*
X137847619Y-60630952D01*
X137895238Y-60535714D01*
X137942857Y-60488095D01*
X138847619Y-61678571D02*
X138847619Y-61773809D01*
X138800000Y-61869047D01*
X138752380Y-61916666D01*
X138657142Y-61964285D01*
X138466666Y-62011904D01*
X138228571Y-62011904D01*
X138038095Y-61964285D01*
X137942857Y-61916666D01*
X137895238Y-61869047D01*
X137847619Y-61773809D01*
X137847619Y-61678571D01*
X137895238Y-61583333D01*
X137942857Y-61535714D01*
X138038095Y-61488095D01*
X138228571Y-61440476D01*
X138466666Y-61440476D01*
X138657142Y-61488095D01*
X138752380Y-61535714D01*
X138800000Y-61583333D01*
X138847619Y-61678571D01*
X138847619Y-62630952D02*
X138847619Y-62726190D01*
X138800000Y-62821428D01*
X138752380Y-62869047D01*
X138657142Y-62916666D01*
X138466666Y-62964285D01*
X138228571Y-62964285D01*
X138038095Y-62916666D01*
X137942857Y-62869047D01*
X137895238Y-62821428D01*
X137847619Y-62726190D01*
X137847619Y-62630952D01*
X137895238Y-62535714D01*
X137942857Y-62488095D01*
X138038095Y-62440476D01*
X138228571Y-62392857D01*
X138466666Y-62392857D01*
X138657142Y-62440476D01*
X138752380Y-62488095D01*
X138800000Y-62535714D01*
X138847619Y-62630952D01*
X137847619Y-64154761D02*
X138514285Y-64154761D01*
X138419047Y-64154761D02*
X138466666Y-64202380D01*
X138514285Y-64297619D01*
X138514285Y-64440476D01*
X138466666Y-64535714D01*
X138371428Y-64583333D01*
X137847619Y-64583333D01*
X138371428Y-64583333D02*
X138466666Y-64630952D01*
X138514285Y-64726190D01*
X138514285Y-64869047D01*
X138466666Y-64964285D01*
X138371428Y-65011904D01*
X137847619Y-65011904D01*
X137847619Y-65488095D02*
X138514285Y-65488095D01*
X138419047Y-65488095D02*
X138466666Y-65535714D01*
X138514285Y-65630952D01*
X138514285Y-65773809D01*
X138466666Y-65869047D01*
X138371428Y-65916666D01*
X137847619Y-65916666D01*
X138371428Y-65916666D02*
X138466666Y-65964285D01*
X138514285Y-66059523D01*
X138514285Y-66202380D01*
X138466666Y-66297619D01*
X138371428Y-66345238D01*
X137847619Y-66345238D01*
X137000000Y-39500000D02*
X137000000Y-85000000D01*
X123500000Y-39500000D02*
X137586421Y-39500000D01*
X123500000Y-85000000D02*
X137586421Y-85000000D01*
X137000000Y-85000000D02*
X136413579Y-83873496D01*
X137000000Y-85000000D02*
X137586421Y-83873496D01*
X137000000Y-39500000D02*
X136413579Y-40626504D01*
X137000000Y-39500000D02*
X137586421Y-40626504D01*
X95583333Y-30485714D02*
X95583333Y-31152380D01*
X95345238Y-30104761D02*
X95107142Y-30819047D01*
X95726190Y-30819047D01*
X96630952Y-31152380D02*
X96059523Y-31152380D01*
X96345238Y-31152380D02*
X96345238Y-30152380D01*
X96250000Y-30295238D01*
X96154761Y-30390476D01*
X96059523Y-30438095D01*
X97059523Y-31057142D02*
X97107142Y-31104761D01*
X97059523Y-31152380D01*
X97011904Y-31104761D01*
X97059523Y-31057142D01*
X97059523Y-31152380D01*
X98011904Y-30152380D02*
X97535714Y-30152380D01*
X97488095Y-30628571D01*
X97535714Y-30580952D01*
X97630952Y-30533333D01*
X97869047Y-30533333D01*
X97964285Y-30580952D01*
X98011904Y-30628571D01*
X98059523Y-30723809D01*
X98059523Y-30961904D01*
X98011904Y-31057142D01*
X97964285Y-31104761D01*
X97869047Y-31152380D01*
X97630952Y-31152380D01*
X97535714Y-31104761D01*
X97488095Y-31057142D01*
X98678571Y-30152380D02*
X98773809Y-30152380D01*
X98869047Y-30200000D01*
X98916666Y-30247619D01*
X98964285Y-30342857D01*
X99011904Y-30533333D01*
X99011904Y-30771428D01*
X98964285Y-30961904D01*
X98916666Y-31057142D01*
X98869047Y-31104761D01*
X98773809Y-31152380D01*
X98678571Y-31152380D01*
X98583333Y-31104761D01*
X98535714Y-31057142D01*
X98488095Y-30961904D01*
X98440476Y-30771428D01*
X98440476Y-30533333D01*
X98488095Y-30342857D01*
X98535714Y-30247619D01*
X98583333Y-30200000D01*
X98678571Y-30152380D01*
X99630952Y-30152380D02*
X99726190Y-30152380D01*
X99821428Y-30200000D01*
X99869047Y-30247619D01*
X99916666Y-30342857D01*
X99964285Y-30533333D01*
X99964285Y-30771428D01*
X99916666Y-30961904D01*
X99869047Y-31057142D01*
X99821428Y-31104761D01*
X99726190Y-31152380D01*
X99630952Y-31152380D01*
X99535714Y-31104761D01*
X99488095Y-31057142D01*
X99440476Y-30961904D01*
X99392857Y-30771428D01*
X99392857Y-30533333D01*
X99440476Y-30342857D01*
X99488095Y-30247619D01*
X99535714Y-30200000D01*
X99630952Y-30152380D01*
X101154761Y-31152380D02*
X101154761Y-30485714D01*
X101154761Y-30580952D02*
X101202380Y-30533333D01*
X101297619Y-30485714D01*
X101440476Y-30485714D01*
X101535714Y-30533333D01*
X101583333Y-30628571D01*
X101583333Y-31152380D01*
X101583333Y-30628571D02*
X101630952Y-30533333D01*
X101726190Y-30485714D01*
X101869047Y-30485714D01*
X101964285Y-30533333D01*
X102011904Y-30628571D01*
X102011904Y-31152380D01*
X102488095Y-31152380D02*
X102488095Y-30485714D01*
X102488095Y-30580952D02*
X102535714Y-30533333D01*
X102630952Y-30485714D01*
X102773809Y-30485714D01*
X102869047Y-30533333D01*
X102916666Y-30628571D01*
X102916666Y-31152380D01*
X102916666Y-30628571D02*
X102964285Y-30533333D01*
X103059523Y-30485714D01*
X103202380Y-30485714D01*
X103297619Y-30533333D01*
X103345238Y-30628571D01*
X103345238Y-31152380D01*
X78500000Y-32000000D02*
X120000000Y-32000000D01*
X78500000Y-43000000D02*
X78500000Y-31413579D01*
X120000000Y-43000000D02*
X120000000Y-31413579D01*
X120000000Y-32000000D02*
X118873496Y-32586421D01*
X120000000Y-32000000D02*
X118873496Y-31413579D01*
X78500000Y-32000000D02*
X79626504Y-32586421D01*
X78500000Y-32000000D02*
X79626504Y-31413579D01*
X95583333Y-23985714D02*
X95583333Y-24652380D01*
X95345238Y-23604761D02*
X95107142Y-24319047D01*
X95726190Y-24319047D01*
X96250000Y-24080952D02*
X96154761Y-24033333D01*
X96107142Y-23985714D01*
X96059523Y-23890476D01*
X96059523Y-23842857D01*
X96107142Y-23747619D01*
X96154761Y-23700000D01*
X96250000Y-23652380D01*
X96440476Y-23652380D01*
X96535714Y-23700000D01*
X96583333Y-23747619D01*
X96630952Y-23842857D01*
X96630952Y-23890476D01*
X96583333Y-23985714D01*
X96535714Y-24033333D01*
X96440476Y-24080952D01*
X96250000Y-24080952D01*
X96154761Y-24128571D01*
X96107142Y-24176190D01*
X96059523Y-24271428D01*
X96059523Y-24461904D01*
X96107142Y-24557142D01*
X96154761Y-24604761D01*
X96250000Y-24652380D01*
X96440476Y-24652380D01*
X96535714Y-24604761D01*
X96583333Y-24557142D01*
X96630952Y-24461904D01*
X96630952Y-24271428D01*
X96583333Y-24176190D01*
X96535714Y-24128571D01*
X96440476Y-24080952D01*
X97059523Y-24557142D02*
X97107142Y-24604761D01*
X97059523Y-24652380D01*
X97011904Y-24604761D01*
X97059523Y-24557142D01*
X97059523Y-24652380D01*
X98011904Y-23652380D02*
X97535714Y-23652380D01*
X97488095Y-24128571D01*
X97535714Y-24080952D01*
X97630952Y-24033333D01*
X97869047Y-24033333D01*
X97964285Y-24080952D01*
X98011904Y-24128571D01*
X98059523Y-24223809D01*
X98059523Y-24461904D01*
X98011904Y-24557142D01*
X97964285Y-24604761D01*
X97869047Y-24652380D01*
X97630952Y-24652380D01*
X97535714Y-24604761D01*
X97488095Y-24557142D01*
X98678571Y-23652380D02*
X98773809Y-23652380D01*
X98869047Y-23700000D01*
X98916666Y-23747619D01*
X98964285Y-23842857D01*
X99011904Y-24033333D01*
X99011904Y-24271428D01*
X98964285Y-24461904D01*
X98916666Y-24557142D01*
X98869047Y-24604761D01*
X98773809Y-24652380D01*
X98678571Y-24652380D01*
X98583333Y-24604761D01*
X98535714Y-24557142D01*
X98488095Y-24461904D01*
X98440476Y-24271428D01*
X98440476Y-24033333D01*
X98488095Y-23842857D01*
X98535714Y-23747619D01*
X98583333Y-23700000D01*
X98678571Y-23652380D01*
X99630952Y-23652380D02*
X99726190Y-23652380D01*
X99821428Y-23700000D01*
X99869047Y-23747619D01*
X99916666Y-23842857D01*
X99964285Y-24033333D01*
X99964285Y-24271428D01*
X99916666Y-24461904D01*
X99869047Y-24557142D01*
X99821428Y-24604761D01*
X99726190Y-24652380D01*
X99630952Y-24652380D01*
X99535714Y-24604761D01*
X99488095Y-24557142D01*
X99440476Y-24461904D01*
X99392857Y-24271428D01*
X99392857Y-24033333D01*
X99440476Y-23842857D01*
X99488095Y-23747619D01*
X99535714Y-23700000D01*
X99630952Y-23652380D01*
X101154761Y-24652380D02*
X101154761Y-23985714D01*
X101154761Y-24080952D02*
X101202380Y-24033333D01*
X101297619Y-23985714D01*
X101440476Y-23985714D01*
X101535714Y-24033333D01*
X101583333Y-24128571D01*
X101583333Y-24652380D01*
X101583333Y-24128571D02*
X101630952Y-24033333D01*
X101726190Y-23985714D01*
X101869047Y-23985714D01*
X101964285Y-24033333D01*
X102011904Y-24128571D01*
X102011904Y-24652380D01*
X102488095Y-24652380D02*
X102488095Y-23985714D01*
X102488095Y-24080952D02*
X102535714Y-24033333D01*
X102630952Y-23985714D01*
X102773809Y-23985714D01*
X102869047Y-24033333D01*
X102916666Y-24128571D01*
X102916666Y-24652380D01*
X102916666Y-24128571D02*
X102964285Y-24033333D01*
X103059523Y-23985714D01*
X103202380Y-23985714D01*
X103297619Y-24033333D01*
X103345238Y-24128571D01*
X103345238Y-24652380D01*
X75000000Y-25500000D02*
X123500000Y-25500000D01*
X75000000Y-39500000D02*
X75000000Y-24913579D01*
X123500000Y-39500000D02*
X123500000Y-24913579D01*
X123500000Y-25500000D02*
X122373496Y-26086421D01*
X123500000Y-25500000D02*
X122373496Y-24913579D01*
X75000000Y-25500000D02*
X76126504Y-26086421D01*
X75000000Y-25500000D02*
X76126504Y-24913579D01*
M02*
