G04 #@! TF.GenerationSoftware,KiCad,Pcbnew,5.1.10-88a1d61d58~90~ubuntu20.04.1*
G04 #@! TF.CreationDate,2022-01-16T12:05:17+00:00*
G04 #@! TF.ProjectId,12V5A_breakout,31325635-415f-4627-9265-616b6f75742e,rev?*
G04 #@! TF.SameCoordinates,Original*
G04 #@! TF.FileFunction,Copper,L1,Top*
G04 #@! TF.FilePolarity,Positive*
%FSLAX46Y46*%
G04 Gerber Fmt 4.6, Leading zero omitted, Abs format (unit mm)*
G04 Created by KiCad (PCBNEW 5.1.10-88a1d61d58~90~ubuntu20.04.1) date 2022-01-16 12:05:17*
%MOMM*%
%LPD*%
G01*
G04 APERTURE LIST*
G04 #@! TA.AperFunction,ComponentPad*
%ADD10O,2.000000X1.700000*%
G04 #@! TD*
G04 #@! TA.AperFunction,ComponentPad*
%ADD11C,2.000000*%
G04 #@! TD*
G04 #@! TA.AperFunction,ComponentPad*
%ADD12C,1.800000*%
G04 #@! TD*
G04 #@! TA.AperFunction,ComponentPad*
%ADD13R,1.800000X1.800000*%
G04 #@! TD*
G04 #@! TA.AperFunction,ComponentPad*
%ADD14R,3.500000X3.500000*%
G04 #@! TD*
G04 #@! TA.AperFunction,Conductor*
%ADD15C,1.250000*%
G04 #@! TD*
G04 #@! TA.AperFunction,Conductor*
%ADD16C,1.500000*%
G04 #@! TD*
G04 #@! TA.AperFunction,Conductor*
%ADD17C,1.000000*%
G04 #@! TD*
G04 APERTURE END LIST*
D10*
X109000000Y-53500000D03*
G04 #@! TA.AperFunction,ComponentPad*
G36*
G01*
X108250000Y-50150000D02*
X109750000Y-50150000D01*
G75*
G02*
X110000000Y-50400000I0J-250000D01*
G01*
X110000000Y-51600000D01*
G75*
G02*
X109750000Y-51850000I-250000J0D01*
G01*
X108250000Y-51850000D01*
G75*
G02*
X108000000Y-51600000I0J250000D01*
G01*
X108000000Y-50400000D01*
G75*
G02*
X108250000Y-50150000I250000J0D01*
G01*
G37*
G04 #@! TD.AperFunction*
D11*
X93000000Y-43000000D03*
X102000000Y-43000000D03*
D12*
X88040000Y-43000000D03*
D13*
X85500000Y-43000000D03*
D10*
X119000000Y-73500000D03*
G04 #@! TA.AperFunction,ComponentPad*
G36*
G01*
X118250000Y-70150000D02*
X119750000Y-70150000D01*
G75*
G02*
X120000000Y-70400000I0J-250000D01*
G01*
X120000000Y-71600000D01*
G75*
G02*
X119750000Y-71850000I-250000J0D01*
G01*
X118250000Y-71850000D01*
G75*
G02*
X118000000Y-71600000I0J250000D01*
G01*
X118000000Y-70400000D01*
G75*
G02*
X118250000Y-70150000I250000J0D01*
G01*
G37*
G04 #@! TD.AperFunction*
X119000000Y-63500000D03*
G04 #@! TA.AperFunction,ComponentPad*
G36*
G01*
X118250000Y-60150000D02*
X119750000Y-60150000D01*
G75*
G02*
X120000000Y-60400000I0J-250000D01*
G01*
X120000000Y-61600000D01*
G75*
G02*
X119750000Y-61850000I-250000J0D01*
G01*
X118250000Y-61850000D01*
G75*
G02*
X118000000Y-61600000I0J250000D01*
G01*
X118000000Y-60400000D01*
G75*
G02*
X118250000Y-60150000I250000J0D01*
G01*
G37*
G04 #@! TD.AperFunction*
X119000000Y-53500000D03*
G04 #@! TA.AperFunction,ComponentPad*
G36*
G01*
X118250000Y-50150000D02*
X119750000Y-50150000D01*
G75*
G02*
X120000000Y-50400000I0J-250000D01*
G01*
X120000000Y-51600000D01*
G75*
G02*
X119750000Y-51850000I-250000J0D01*
G01*
X118250000Y-51850000D01*
G75*
G02*
X118000000Y-51600000I0J250000D01*
G01*
X118000000Y-50400000D01*
G75*
G02*
X118250000Y-50150000I250000J0D01*
G01*
G37*
G04 #@! TD.AperFunction*
X109000000Y-73500000D03*
G04 #@! TA.AperFunction,ComponentPad*
G36*
G01*
X108250000Y-70150000D02*
X109750000Y-70150000D01*
G75*
G02*
X110000000Y-70400000I0J-250000D01*
G01*
X110000000Y-71600000D01*
G75*
G02*
X109750000Y-71850000I-250000J0D01*
G01*
X108250000Y-71850000D01*
G75*
G02*
X108000000Y-71600000I0J250000D01*
G01*
X108000000Y-70400000D01*
G75*
G02*
X108250000Y-70150000I250000J0D01*
G01*
G37*
G04 #@! TD.AperFunction*
X109000000Y-63500000D03*
G04 #@! TA.AperFunction,ComponentPad*
G36*
G01*
X108250000Y-60150000D02*
X109750000Y-60150000D01*
G75*
G02*
X110000000Y-60400000I0J-250000D01*
G01*
X110000000Y-61600000D01*
G75*
G02*
X109750000Y-61850000I-250000J0D01*
G01*
X108250000Y-61850000D01*
G75*
G02*
X108000000Y-61600000I0J250000D01*
G01*
X108000000Y-60400000D01*
G75*
G02*
X108250000Y-60150000I250000J0D01*
G01*
G37*
G04 #@! TD.AperFunction*
X99000000Y-73500000D03*
G04 #@! TA.AperFunction,ComponentPad*
G36*
G01*
X98250000Y-70150000D02*
X99750000Y-70150000D01*
G75*
G02*
X100000000Y-70400000I0J-250000D01*
G01*
X100000000Y-71600000D01*
G75*
G02*
X99750000Y-71850000I-250000J0D01*
G01*
X98250000Y-71850000D01*
G75*
G02*
X98000000Y-71600000I0J250000D01*
G01*
X98000000Y-70400000D01*
G75*
G02*
X98250000Y-70150000I250000J0D01*
G01*
G37*
G04 #@! TD.AperFunction*
X99000000Y-63500000D03*
G04 #@! TA.AperFunction,ComponentPad*
G36*
G01*
X98250000Y-60150000D02*
X99750000Y-60150000D01*
G75*
G02*
X100000000Y-60400000I0J-250000D01*
G01*
X100000000Y-61600000D01*
G75*
G02*
X99750000Y-61850000I-250000J0D01*
G01*
X98250000Y-61850000D01*
G75*
G02*
X98000000Y-61600000I0J250000D01*
G01*
X98000000Y-60400000D01*
G75*
G02*
X98250000Y-60150000I250000J0D01*
G01*
G37*
G04 #@! TD.AperFunction*
X99000000Y-53500000D03*
G04 #@! TA.AperFunction,ComponentPad*
G36*
G01*
X98250000Y-50150000D02*
X99750000Y-50150000D01*
G75*
G02*
X100000000Y-50400000I0J-250000D01*
G01*
X100000000Y-51600000D01*
G75*
G02*
X99750000Y-51850000I-250000J0D01*
G01*
X98250000Y-51850000D01*
G75*
G02*
X98000000Y-51600000I0J250000D01*
G01*
X98000000Y-50400000D01*
G75*
G02*
X98250000Y-50150000I250000J0D01*
G01*
G37*
G04 #@! TD.AperFunction*
G04 #@! TA.AperFunction,ComponentPad*
G36*
G01*
X85250000Y-58075000D02*
X85250000Y-56325000D01*
G75*
G02*
X86125000Y-55450000I875000J0D01*
G01*
X87875000Y-55450000D01*
G75*
G02*
X88750000Y-56325000I0J-875000D01*
G01*
X88750000Y-58075000D01*
G75*
G02*
X87875000Y-58950000I-875000J0D01*
G01*
X86125000Y-58950000D01*
G75*
G02*
X85250000Y-58075000I0J875000D01*
G01*
G37*
G04 #@! TD.AperFunction*
G04 #@! TA.AperFunction,ComponentPad*
G36*
G01*
X82500000Y-53500000D02*
X82500000Y-51500000D01*
G75*
G02*
X83250000Y-50750000I750000J0D01*
G01*
X84750000Y-50750000D01*
G75*
G02*
X85500000Y-51500000I0J-750000D01*
G01*
X85500000Y-53500000D01*
G75*
G02*
X84750000Y-54250000I-750000J0D01*
G01*
X83250000Y-54250000D01*
G75*
G02*
X82500000Y-53500000I0J750000D01*
G01*
G37*
G04 #@! TD.AperFunction*
D14*
X90000000Y-52500000D03*
D15*
X91500000Y-53500000D02*
X93000000Y-55000000D01*
X94500000Y-63500000D02*
X93000000Y-62000000D01*
X94500000Y-63500000D02*
X93000000Y-65000000D01*
X93000000Y-55000000D02*
X94500000Y-53500000D01*
D16*
X100585787Y-43000000D02*
X102000000Y-43000000D01*
X97500000Y-43000000D02*
X100585787Y-43000000D01*
X90000000Y-50500000D02*
X97500000Y-43000000D01*
X90000000Y-52500000D02*
X90000000Y-50500000D01*
X109000000Y-53500000D02*
X119000000Y-53500000D01*
X109000000Y-73500000D02*
X119000000Y-73500000D01*
X93000000Y-53500000D02*
X93000000Y-63500000D01*
X109000000Y-63500000D02*
X119000000Y-63500000D01*
D15*
X92000000Y-52500000D02*
X90000000Y-52500000D01*
X93000000Y-53500000D02*
X92000000Y-52500000D01*
D16*
X99000000Y-63500000D02*
X93000000Y-63500000D01*
X99000000Y-63500000D02*
X109000000Y-63500000D01*
X96000000Y-73500000D02*
X99000000Y-73500000D01*
X93000000Y-63500000D02*
X93000000Y-70500000D01*
X93000000Y-70500000D02*
X96000000Y-73500000D01*
X99000000Y-73500000D02*
X109000000Y-73500000D01*
X99000000Y-53500000D02*
X109000000Y-53500000D01*
X93000000Y-53500000D02*
X99000000Y-53500000D01*
D17*
X93000000Y-43000000D02*
X88040000Y-43000000D01*
M02*
