M48
; DRILL file {KiCad (5.1.4)-1} date 15/10/2020 16:48:16
; FORMAT={-:-/ absolute / metric / decimal}
; #@! TF.CreationDate,2020-10-15T16:48:16+03:00
; #@! TF.GenerationSoftware,Kicad,Pcbnew,(5.1.4)-1
; #@! TF.FileFunction,Plated,1,2,PTH
FMAT,2
METRIC
T1C0.900
T2C1.000
%
G90
G05
T1
X85.5Y-43.0
X88.04Y-43.0
T2
X98.5Y-51.0
X98.5Y-53.5
X109.0Y-51.0
X109.0Y-53.5
X119.0Y-51.0
X119.0Y-53.5
X93.0Y-43.0
X102.0Y-43.0
X98.5Y-71.0
X98.5Y-73.5
X109.0Y-71.0
X109.0Y-73.5
X119.0Y-71.0
X119.0Y-73.5
X98.5Y-61.0
X98.5Y-63.5
X109.0Y-61.0
X109.0Y-63.5
X119.0Y-61.0
X119.0Y-63.5
T2
G00X84.0Y-51.5
M15
G01X84.0Y-53.5
M16
G05
G00X86.0Y-57.2
M15
G01X88.0Y-57.2
M16
G05
G00X90.0Y-51.5
M15
G01X90.0Y-53.5
M16
G05
T0
M30
