%TF.GenerationSoftware,KiCad,Pcbnew,5.1.10-88a1d61d58~90~ubuntu20.04.1*%
%TF.CreationDate,2022-03-31T22:16:58+01:00*%
%TF.ProjectId,piezo_amplifier,7069657a-6f5f-4616-9d70-6c6966696572,rev?*%
%TF.SameCoordinates,Original*%
%TF.FileFunction,Legend,Top*%
%TF.FilePolarity,Positive*%
%FSLAX46Y46*%
G04 Gerber Fmt 4.6, Leading zero omitted, Abs format (unit mm)*
G04 Created by KiCad (PCBNEW 5.1.10-88a1d61d58~90~ubuntu20.04.1) date 2022-03-31 22:16:58*
%MOMM*%
%LPD*%
G01*
G04 APERTURE LIST*
%ADD10C,0.120000*%
%ADD11C,0.150000*%
G04 APERTURE END LIST*
D10*
%TO.C,R3*%
X97920000Y-117000000D02*
G75*
G03*
X97920000Y-117000000I-920000J0D01*
G01*
X96080000Y-117000000D02*
X92920000Y-117000000D01*
%TO.C,C1*%
X121970000Y-110370000D02*
X117030000Y-110370000D01*
X121970000Y-107630000D02*
X117030000Y-107630000D01*
X121970000Y-110370000D02*
X121970000Y-110055000D01*
X121970000Y-107945000D02*
X121970000Y-107630000D01*
X117030000Y-110370000D02*
X117030000Y-110055000D01*
X117030000Y-107945000D02*
X117030000Y-107630000D01*
%TO.C,D1*%
X109640000Y-111470000D02*
X109640000Y-108530000D01*
X109640000Y-108530000D02*
X104200000Y-108530000D01*
X104200000Y-108530000D02*
X104200000Y-111470000D01*
X104200000Y-111470000D02*
X109640000Y-111470000D01*
X110660000Y-110000000D02*
X109640000Y-110000000D01*
X103180000Y-110000000D02*
X104200000Y-110000000D01*
X108740000Y-111470000D02*
X108740000Y-108530000D01*
X108620000Y-111470000D02*
X108620000Y-108530000D01*
X108860000Y-111470000D02*
X108860000Y-108530000D01*
%TO.C,J1*%
X82460000Y-120440000D02*
X76490000Y-120440000D01*
X76490000Y-120440000D02*
X76490000Y-128060000D01*
X76490000Y-128060000D02*
X82460000Y-128060000D01*
X82460000Y-128060000D02*
X82460000Y-120440000D01*
X82450000Y-123750000D02*
X81700000Y-123750000D01*
X81700000Y-123750000D02*
X81700000Y-124750000D01*
X81700000Y-124750000D02*
X82450000Y-124750000D01*
X82450000Y-124750000D02*
X82450000Y-123750000D01*
X82450000Y-120450000D02*
X81700000Y-120450000D01*
X81700000Y-120450000D02*
X81700000Y-122250000D01*
X81700000Y-122250000D02*
X82450000Y-122250000D01*
X82450000Y-122250000D02*
X82450000Y-120450000D01*
X82450000Y-126250000D02*
X81700000Y-126250000D01*
X81700000Y-126250000D02*
X81700000Y-128050000D01*
X81700000Y-128050000D02*
X82450000Y-128050000D01*
X82450000Y-128050000D02*
X82450000Y-126250000D01*
X80200000Y-120450000D02*
X80200000Y-121200000D01*
X80200000Y-121200000D02*
X77250000Y-121200000D01*
X77250000Y-121200000D02*
X77250000Y-124250000D01*
X80200000Y-128050000D02*
X80200000Y-127300000D01*
X80200000Y-127300000D02*
X77250000Y-127300000D01*
X77250000Y-127300000D02*
X77250000Y-124250000D01*
X82750000Y-121400000D02*
X82750000Y-120150000D01*
X82750000Y-120150000D02*
X81500000Y-120150000D01*
%TO.C,J2*%
X121540000Y-128560000D02*
X127510000Y-128560000D01*
X127510000Y-128560000D02*
X127510000Y-115940000D01*
X127510000Y-115940000D02*
X121540000Y-115940000D01*
X121540000Y-115940000D02*
X121540000Y-128560000D01*
X121550000Y-125250000D02*
X122300000Y-125250000D01*
X122300000Y-125250000D02*
X122300000Y-119250000D01*
X122300000Y-119250000D02*
X121550000Y-119250000D01*
X121550000Y-119250000D02*
X121550000Y-125250000D01*
X121550000Y-128550000D02*
X122300000Y-128550000D01*
X122300000Y-128550000D02*
X122300000Y-126750000D01*
X122300000Y-126750000D02*
X121550000Y-126750000D01*
X121550000Y-126750000D02*
X121550000Y-128550000D01*
X121550000Y-117750000D02*
X122300000Y-117750000D01*
X122300000Y-117750000D02*
X122300000Y-115950000D01*
X122300000Y-115950000D02*
X121550000Y-115950000D01*
X121550000Y-115950000D02*
X121550000Y-117750000D01*
X123800000Y-128550000D02*
X123800000Y-127800000D01*
X123800000Y-127800000D02*
X126750000Y-127800000D01*
X126750000Y-127800000D02*
X126750000Y-122250000D01*
X123800000Y-115950000D02*
X123800000Y-116700000D01*
X123800000Y-116700000D02*
X126750000Y-116700000D01*
X126750000Y-116700000D02*
X126750000Y-122250000D01*
X121250000Y-127600000D02*
X121250000Y-128850000D01*
X121250000Y-128850000D02*
X122500000Y-128850000D01*
%TO.C,R1*%
X89000000Y-126080000D02*
X89000000Y-122920000D01*
X89920000Y-127000000D02*
G75*
G03*
X89920000Y-127000000I-920000J0D01*
G01*
%TO.C,R2*%
X95920000Y-122000000D02*
G75*
G03*
X95920000Y-122000000I-920000J0D01*
G01*
X95000000Y-122920000D02*
X95000000Y-126080000D01*
%TO.C,R4*%
X121080000Y-113000000D02*
X117920000Y-113000000D01*
X122920000Y-113000000D02*
G75*
G03*
X122920000Y-113000000I-920000J0D01*
G01*
%TO.C,RV1*%
X82460000Y-107440000D02*
X76490000Y-107440000D01*
X76490000Y-107440000D02*
X76490000Y-117560000D01*
X76490000Y-117560000D02*
X82460000Y-117560000D01*
X82460000Y-117560000D02*
X82460000Y-107440000D01*
X82450000Y-110750000D02*
X81700000Y-110750000D01*
X81700000Y-110750000D02*
X81700000Y-114250000D01*
X81700000Y-114250000D02*
X82450000Y-114250000D01*
X82450000Y-114250000D02*
X82450000Y-110750000D01*
X82450000Y-107450000D02*
X81700000Y-107450000D01*
X81700000Y-107450000D02*
X81700000Y-109250000D01*
X81700000Y-109250000D02*
X82450000Y-109250000D01*
X82450000Y-109250000D02*
X82450000Y-107450000D01*
X82450000Y-115750000D02*
X81700000Y-115750000D01*
X81700000Y-115750000D02*
X81700000Y-117550000D01*
X81700000Y-117550000D02*
X82450000Y-117550000D01*
X82450000Y-117550000D02*
X82450000Y-115750000D01*
X80200000Y-107450000D02*
X80200000Y-108200000D01*
X80200000Y-108200000D02*
X77250000Y-108200000D01*
X77250000Y-108200000D02*
X77250000Y-112500000D01*
X80200000Y-117550000D02*
X80200000Y-116800000D01*
X80200000Y-116800000D02*
X77250000Y-116800000D01*
X77250000Y-116800000D02*
X77250000Y-112500000D01*
X82750000Y-108400000D02*
X82750000Y-107150000D01*
X82750000Y-107150000D02*
X81500000Y-107150000D01*
%TO.C,U1*%
X105810000Y-116670000D02*
X104560000Y-116670000D01*
X104560000Y-116670000D02*
X104560000Y-126950000D01*
X104560000Y-126950000D02*
X109060000Y-126950000D01*
X109060000Y-126950000D02*
X109060000Y-116670000D01*
X109060000Y-116670000D02*
X107810000Y-116670000D01*
X107810000Y-116670000D02*
G75*
G02*
X105810000Y-116670000I-1000000J0D01*
G01*
%TO.C,R3*%
D11*
X94293333Y-119372380D02*
X93960000Y-118896190D01*
X93721904Y-119372380D02*
X93721904Y-118372380D01*
X94102857Y-118372380D01*
X94198095Y-118420000D01*
X94245714Y-118467619D01*
X94293333Y-118562857D01*
X94293333Y-118705714D01*
X94245714Y-118800952D01*
X94198095Y-118848571D01*
X94102857Y-118896190D01*
X93721904Y-118896190D01*
X94626666Y-118372380D02*
X95245714Y-118372380D01*
X94912380Y-118753333D01*
X95055238Y-118753333D01*
X95150476Y-118800952D01*
X95198095Y-118848571D01*
X95245714Y-118943809D01*
X95245714Y-119181904D01*
X95198095Y-119277142D01*
X95150476Y-119324761D01*
X95055238Y-119372380D01*
X94769523Y-119372380D01*
X94674285Y-119324761D01*
X94626666Y-119277142D01*
X94340952Y-115532380D02*
X93769523Y-115532380D01*
X94055238Y-115532380D02*
X94055238Y-114532380D01*
X93960000Y-114675238D01*
X93864761Y-114770476D01*
X93769523Y-114818095D01*
X94769523Y-115532380D02*
X94769523Y-114532380D01*
X94864761Y-115151428D02*
X95150476Y-115532380D01*
X95150476Y-114865714D02*
X94769523Y-115246666D01*
%TO.C,C1*%
X119333333Y-111857142D02*
X119285714Y-111904761D01*
X119142857Y-111952380D01*
X119047619Y-111952380D01*
X118904761Y-111904761D01*
X118809523Y-111809523D01*
X118761904Y-111714285D01*
X118714285Y-111523809D01*
X118714285Y-111380952D01*
X118761904Y-111190476D01*
X118809523Y-111095238D01*
X118904761Y-111000000D01*
X119047619Y-110952380D01*
X119142857Y-110952380D01*
X119285714Y-111000000D01*
X119333333Y-111047619D01*
X120285714Y-111952380D02*
X119714285Y-111952380D01*
X120000000Y-111952380D02*
X120000000Y-110952380D01*
X119904761Y-111095238D01*
X119809523Y-111190476D01*
X119714285Y-111238095D01*
X117380952Y-106047619D02*
X117428571Y-106000000D01*
X117523809Y-105952380D01*
X117761904Y-105952380D01*
X117857142Y-106000000D01*
X117904761Y-106047619D01*
X117952380Y-106142857D01*
X117952380Y-106238095D01*
X117904761Y-106380952D01*
X117333333Y-106952380D01*
X117952380Y-106952380D01*
X118809523Y-106285714D02*
X118809523Y-106952380D01*
X118571428Y-105904761D02*
X118333333Y-106619047D01*
X118952380Y-106619047D01*
X119523809Y-105952380D02*
X119619047Y-105952380D01*
X119714285Y-106000000D01*
X119761904Y-106047619D01*
X119809523Y-106142857D01*
X119857142Y-106333333D01*
X119857142Y-106571428D01*
X119809523Y-106761904D01*
X119761904Y-106857142D01*
X119714285Y-106904761D01*
X119619047Y-106952380D01*
X119523809Y-106952380D01*
X119428571Y-106904761D01*
X119380952Y-106857142D01*
X119333333Y-106761904D01*
X119285714Y-106571428D01*
X119285714Y-106333333D01*
X119333333Y-106142857D01*
X119380952Y-106047619D01*
X119428571Y-106000000D01*
X119523809Y-105952380D01*
X120285714Y-106285714D02*
X120285714Y-107285714D01*
X120285714Y-106333333D02*
X120380952Y-106285714D01*
X120571428Y-106285714D01*
X120666666Y-106333333D01*
X120714285Y-106380952D01*
X120761904Y-106476190D01*
X120761904Y-106761904D01*
X120714285Y-106857142D01*
X120666666Y-106904761D01*
X120571428Y-106952380D01*
X120380952Y-106952380D01*
X120285714Y-106904761D01*
X121523809Y-106428571D02*
X121190476Y-106428571D01*
X121190476Y-106952380D02*
X121190476Y-105952380D01*
X121666666Y-105952380D01*
%TO.C,D1*%
X106181904Y-112922380D02*
X106181904Y-111922380D01*
X106420000Y-111922380D01*
X106562857Y-111970000D01*
X106658095Y-112065238D01*
X106705714Y-112160476D01*
X106753333Y-112350952D01*
X106753333Y-112493809D01*
X106705714Y-112684285D01*
X106658095Y-112779523D01*
X106562857Y-112874761D01*
X106420000Y-112922380D01*
X106181904Y-112922380D01*
X107705714Y-112922380D02*
X107134285Y-112922380D01*
X107420000Y-112922380D02*
X107420000Y-111922380D01*
X107324761Y-112065238D01*
X107229523Y-112160476D01*
X107134285Y-112208095D01*
X104777142Y-107982380D02*
X104205714Y-107982380D01*
X104491428Y-107982380D02*
X104491428Y-106982380D01*
X104396190Y-107125238D01*
X104300952Y-107220476D01*
X104205714Y-107268095D01*
X105205714Y-107982380D02*
X105205714Y-106982380D01*
X105777142Y-107982380D01*
X105777142Y-106982380D01*
X106681904Y-107315714D02*
X106681904Y-107982380D01*
X106443809Y-106934761D02*
X106205714Y-107649047D01*
X106824761Y-107649047D01*
X107396190Y-106982380D02*
X107491428Y-106982380D01*
X107586666Y-107030000D01*
X107634285Y-107077619D01*
X107681904Y-107172857D01*
X107729523Y-107363333D01*
X107729523Y-107601428D01*
X107681904Y-107791904D01*
X107634285Y-107887142D01*
X107586666Y-107934761D01*
X107491428Y-107982380D01*
X107396190Y-107982380D01*
X107300952Y-107934761D01*
X107253333Y-107887142D01*
X107205714Y-107791904D01*
X107158095Y-107601428D01*
X107158095Y-107363333D01*
X107205714Y-107172857D01*
X107253333Y-107077619D01*
X107300952Y-107030000D01*
X107396190Y-106982380D01*
X108348571Y-106982380D02*
X108443809Y-106982380D01*
X108539047Y-107030000D01*
X108586666Y-107077619D01*
X108634285Y-107172857D01*
X108681904Y-107363333D01*
X108681904Y-107601428D01*
X108634285Y-107791904D01*
X108586666Y-107887142D01*
X108539047Y-107934761D01*
X108443809Y-107982380D01*
X108348571Y-107982380D01*
X108253333Y-107934761D01*
X108205714Y-107887142D01*
X108158095Y-107791904D01*
X108110476Y-107601428D01*
X108110476Y-107363333D01*
X108158095Y-107172857D01*
X108205714Y-107077619D01*
X108253333Y-107030000D01*
X108348571Y-106982380D01*
X109634285Y-107982380D02*
X109062857Y-107982380D01*
X109348571Y-107982380D02*
X109348571Y-106982380D01*
X109253333Y-107125238D01*
X109158095Y-107220476D01*
X109062857Y-107268095D01*
X111738095Y-112552380D02*
X111738095Y-111552380D01*
X112309523Y-112552380D02*
X111880952Y-111980952D01*
X112309523Y-111552380D02*
X111738095Y-112123809D01*
%TO.C,H1*%
X70238095Y-103602380D02*
X70238095Y-102602380D01*
X70238095Y-103078571D02*
X70809523Y-103078571D01*
X70809523Y-103602380D02*
X70809523Y-102602380D01*
X71809523Y-103602380D02*
X71238095Y-103602380D01*
X71523809Y-103602380D02*
X71523809Y-102602380D01*
X71428571Y-102745238D01*
X71333333Y-102840476D01*
X71238095Y-102888095D01*
%TO.C,H2*%
X70238095Y-125602380D02*
X70238095Y-124602380D01*
X70238095Y-125078571D02*
X70809523Y-125078571D01*
X70809523Y-125602380D02*
X70809523Y-124602380D01*
X71238095Y-124697619D02*
X71285714Y-124650000D01*
X71380952Y-124602380D01*
X71619047Y-124602380D01*
X71714285Y-124650000D01*
X71761904Y-124697619D01*
X71809523Y-124792857D01*
X71809523Y-124888095D01*
X71761904Y-125030952D01*
X71190476Y-125602380D01*
X71809523Y-125602380D01*
%TO.C,H3*%
X132238095Y-103602380D02*
X132238095Y-102602380D01*
X132238095Y-103078571D02*
X132809523Y-103078571D01*
X132809523Y-103602380D02*
X132809523Y-102602380D01*
X133190476Y-102602380D02*
X133809523Y-102602380D01*
X133476190Y-102983333D01*
X133619047Y-102983333D01*
X133714285Y-103030952D01*
X133761904Y-103078571D01*
X133809523Y-103173809D01*
X133809523Y-103411904D01*
X133761904Y-103507142D01*
X133714285Y-103554761D01*
X133619047Y-103602380D01*
X133333333Y-103602380D01*
X133238095Y-103554761D01*
X133190476Y-103507142D01*
%TO.C,H4*%
X132238095Y-125602380D02*
X132238095Y-124602380D01*
X132238095Y-125078571D02*
X132809523Y-125078571D01*
X132809523Y-125602380D02*
X132809523Y-124602380D01*
X133714285Y-124935714D02*
X133714285Y-125602380D01*
X133476190Y-124554761D02*
X133238095Y-125269047D01*
X133857142Y-125269047D01*
%TO.C,J1*%
X83002380Y-124583333D02*
X83716666Y-124583333D01*
X83859523Y-124630952D01*
X83954761Y-124726190D01*
X84002380Y-124869047D01*
X84002380Y-124964285D01*
X84002380Y-123583333D02*
X84002380Y-124154761D01*
X84002380Y-123869047D02*
X83002380Y-123869047D01*
X83145238Y-123964285D01*
X83240476Y-124059523D01*
X83288095Y-124154761D01*
X75185714Y-126464285D02*
X76185714Y-126464285D01*
X75233333Y-126464285D02*
X75185714Y-126369047D01*
X75185714Y-126178571D01*
X75233333Y-126083333D01*
X75280952Y-126035714D01*
X75376190Y-125988095D01*
X75661904Y-125988095D01*
X75757142Y-126035714D01*
X75804761Y-126083333D01*
X75852380Y-126178571D01*
X75852380Y-126369047D01*
X75804761Y-126464285D01*
X75852380Y-125559523D02*
X75185714Y-125559523D01*
X74852380Y-125559523D02*
X74900000Y-125607142D01*
X74947619Y-125559523D01*
X74900000Y-125511904D01*
X74852380Y-125559523D01*
X74947619Y-125559523D01*
X75804761Y-124702380D02*
X75852380Y-124797619D01*
X75852380Y-124988095D01*
X75804761Y-125083333D01*
X75709523Y-125130952D01*
X75328571Y-125130952D01*
X75233333Y-125083333D01*
X75185714Y-124988095D01*
X75185714Y-124797619D01*
X75233333Y-124702380D01*
X75328571Y-124654761D01*
X75423809Y-124654761D01*
X75519047Y-125130952D01*
X75185714Y-124321428D02*
X75185714Y-123797619D01*
X75852380Y-124321428D01*
X75852380Y-123797619D01*
X75852380Y-123273809D02*
X75804761Y-123369047D01*
X75757142Y-123416666D01*
X75661904Y-123464285D01*
X75376190Y-123464285D01*
X75280952Y-123416666D01*
X75233333Y-123369047D01*
X75185714Y-123273809D01*
X75185714Y-123130952D01*
X75233333Y-123035714D01*
X75280952Y-122988095D01*
X75376190Y-122940476D01*
X75661904Y-122940476D01*
X75757142Y-122988095D01*
X75804761Y-123035714D01*
X75852380Y-123130952D01*
X75852380Y-123273809D01*
X75852380Y-121988095D02*
X75852380Y-122559523D01*
X75852380Y-122273809D02*
X74852380Y-122273809D01*
X74995238Y-122369047D01*
X75090476Y-122464285D01*
X75138095Y-122559523D01*
%TO.C,J2*%
X119902380Y-122583333D02*
X120616666Y-122583333D01*
X120759523Y-122630952D01*
X120854761Y-122726190D01*
X120902380Y-122869047D01*
X120902380Y-122964285D01*
X119997619Y-122154761D02*
X119950000Y-122107142D01*
X119902380Y-122011904D01*
X119902380Y-121773809D01*
X119950000Y-121678571D01*
X119997619Y-121630952D01*
X120092857Y-121583333D01*
X120188095Y-121583333D01*
X120330952Y-121630952D01*
X120902380Y-122202380D01*
X120902380Y-121583333D01*
%TO.C,R1*%
X87532380Y-124626666D02*
X87056190Y-124960000D01*
X87532380Y-125198095D02*
X86532380Y-125198095D01*
X86532380Y-124817142D01*
X86580000Y-124721904D01*
X86627619Y-124674285D01*
X86722857Y-124626666D01*
X86865714Y-124626666D01*
X86960952Y-124674285D01*
X87008571Y-124721904D01*
X87056190Y-124817142D01*
X87056190Y-125198095D01*
X87532380Y-123674285D02*
X87532380Y-124245714D01*
X87532380Y-123960000D02*
X86532380Y-123960000D01*
X86675238Y-124055238D01*
X86770476Y-124150476D01*
X86818095Y-124245714D01*
X91372380Y-124745714D02*
X91372380Y-125317142D01*
X91372380Y-125031428D02*
X90372380Y-125031428D01*
X90515238Y-125126666D01*
X90610476Y-125221904D01*
X90658095Y-125317142D01*
X91372380Y-124317142D02*
X90372380Y-124317142D01*
X91086666Y-123983809D01*
X90372380Y-123650476D01*
X91372380Y-123650476D01*
%TO.C,R2*%
X97372380Y-124706666D02*
X96896190Y-125040000D01*
X97372380Y-125278095D02*
X96372380Y-125278095D01*
X96372380Y-124897142D01*
X96420000Y-124801904D01*
X96467619Y-124754285D01*
X96562857Y-124706666D01*
X96705714Y-124706666D01*
X96800952Y-124754285D01*
X96848571Y-124801904D01*
X96896190Y-124897142D01*
X96896190Y-125278095D01*
X96467619Y-124325714D02*
X96420000Y-124278095D01*
X96372380Y-124182857D01*
X96372380Y-123944761D01*
X96420000Y-123849523D01*
X96467619Y-123801904D01*
X96562857Y-123754285D01*
X96658095Y-123754285D01*
X96800952Y-123801904D01*
X97372380Y-124373333D01*
X97372380Y-123754285D01*
X93532380Y-124659047D02*
X93532380Y-125230476D01*
X93532380Y-124944761D02*
X92532380Y-124944761D01*
X92675238Y-125040000D01*
X92770476Y-125135238D01*
X92818095Y-125230476D01*
X93532380Y-124230476D02*
X92532380Y-124230476D01*
X93151428Y-124135238D02*
X93532380Y-123849523D01*
X92865714Y-123849523D02*
X93246666Y-124230476D01*
%TO.C,R4*%
X119293333Y-115372380D02*
X118960000Y-114896190D01*
X118721904Y-115372380D02*
X118721904Y-114372380D01*
X119102857Y-114372380D01*
X119198095Y-114420000D01*
X119245714Y-114467619D01*
X119293333Y-114562857D01*
X119293333Y-114705714D01*
X119245714Y-114800952D01*
X119198095Y-114848571D01*
X119102857Y-114896190D01*
X118721904Y-114896190D01*
X120150476Y-114705714D02*
X120150476Y-115372380D01*
X119912380Y-114324761D02*
X119674285Y-115039047D01*
X120293333Y-115039047D01*
X123357142Y-112547619D02*
X123404761Y-112500000D01*
X123500000Y-112452380D01*
X123738095Y-112452380D01*
X123833333Y-112500000D01*
X123880952Y-112547619D01*
X123928571Y-112642857D01*
X123928571Y-112738095D01*
X123880952Y-112880952D01*
X123309523Y-113452380D01*
X123928571Y-113452380D01*
X124309523Y-112547619D02*
X124357142Y-112500000D01*
X124452380Y-112452380D01*
X124690476Y-112452380D01*
X124785714Y-112500000D01*
X124833333Y-112547619D01*
X124880952Y-112642857D01*
X124880952Y-112738095D01*
X124833333Y-112880952D01*
X124261904Y-113452380D01*
X124880952Y-113452380D01*
X125500000Y-112452380D02*
X125595238Y-112452380D01*
X125690476Y-112500000D01*
X125738095Y-112547619D01*
X125785714Y-112642857D01*
X125833333Y-112833333D01*
X125833333Y-113071428D01*
X125785714Y-113261904D01*
X125738095Y-113357142D01*
X125690476Y-113404761D01*
X125595238Y-113452380D01*
X125500000Y-113452380D01*
X125404761Y-113404761D01*
X125357142Y-113357142D01*
X125309523Y-113261904D01*
X125261904Y-113071428D01*
X125261904Y-112833333D01*
X125309523Y-112642857D01*
X125357142Y-112547619D01*
X125404761Y-112500000D01*
X125500000Y-112452380D01*
X126261904Y-113452380D02*
X126261904Y-112452380D01*
X126357142Y-113071428D02*
X126642857Y-113452380D01*
X126642857Y-112785714D02*
X126261904Y-113166666D01*
%TO.C,RV1*%
X84002380Y-113095238D02*
X83526190Y-113428571D01*
X84002380Y-113666666D02*
X83002380Y-113666666D01*
X83002380Y-113285714D01*
X83050000Y-113190476D01*
X83097619Y-113142857D01*
X83192857Y-113095238D01*
X83335714Y-113095238D01*
X83430952Y-113142857D01*
X83478571Y-113190476D01*
X83526190Y-113285714D01*
X83526190Y-113666666D01*
X83002380Y-112809523D02*
X84002380Y-112476190D01*
X83002380Y-112142857D01*
X84002380Y-111285714D02*
X84002380Y-111857142D01*
X84002380Y-111571428D02*
X83002380Y-111571428D01*
X83145238Y-111666666D01*
X83240476Y-111761904D01*
X83288095Y-111857142D01*
X75852380Y-113095238D02*
X75852380Y-113666666D01*
X75852380Y-113380952D02*
X74852380Y-113380952D01*
X74995238Y-113476190D01*
X75090476Y-113571428D01*
X75138095Y-113666666D01*
X74852380Y-112476190D02*
X74852380Y-112380952D01*
X74900000Y-112285714D01*
X74947619Y-112238095D01*
X75042857Y-112190476D01*
X75233333Y-112142857D01*
X75471428Y-112142857D01*
X75661904Y-112190476D01*
X75757142Y-112238095D01*
X75804761Y-112285714D01*
X75852380Y-112380952D01*
X75852380Y-112476190D01*
X75804761Y-112571428D01*
X75757142Y-112619047D01*
X75661904Y-112666666D01*
X75471428Y-112714285D01*
X75233333Y-112714285D01*
X75042857Y-112666666D01*
X74947619Y-112619047D01*
X74900000Y-112571428D01*
X74852380Y-112476190D01*
X75852380Y-111714285D02*
X74852380Y-111714285D01*
X75471428Y-111619047D02*
X75852380Y-111333333D01*
X75185714Y-111333333D02*
X75566666Y-111714285D01*
%TO.C,U1*%
X106048095Y-115122380D02*
X106048095Y-115931904D01*
X106095714Y-116027142D01*
X106143333Y-116074761D01*
X106238571Y-116122380D01*
X106429047Y-116122380D01*
X106524285Y-116074761D01*
X106571904Y-116027142D01*
X106619523Y-115931904D01*
X106619523Y-115122380D01*
X107619523Y-116122380D02*
X107048095Y-116122380D01*
X107333809Y-116122380D02*
X107333809Y-115122380D01*
X107238571Y-115265238D01*
X107143333Y-115360476D01*
X107048095Y-115408095D01*
X105119523Y-128402380D02*
X104643333Y-128402380D01*
X104643333Y-127402380D01*
X105452857Y-128402380D02*
X105452857Y-127402380D01*
X105786190Y-128116666D01*
X106119523Y-127402380D01*
X106119523Y-128402380D01*
X106500476Y-127402380D02*
X107119523Y-127402380D01*
X106786190Y-127783333D01*
X106929047Y-127783333D01*
X107024285Y-127830952D01*
X107071904Y-127878571D01*
X107119523Y-127973809D01*
X107119523Y-128211904D01*
X107071904Y-128307142D01*
X107024285Y-128354761D01*
X106929047Y-128402380D01*
X106643333Y-128402380D01*
X106548095Y-128354761D01*
X106500476Y-128307142D01*
X108024285Y-127402380D02*
X107548095Y-127402380D01*
X107500476Y-127878571D01*
X107548095Y-127830952D01*
X107643333Y-127783333D01*
X107881428Y-127783333D01*
X107976666Y-127830952D01*
X108024285Y-127878571D01*
X108071904Y-127973809D01*
X108071904Y-128211904D01*
X108024285Y-128307142D01*
X107976666Y-128354761D01*
X107881428Y-128402380D01*
X107643333Y-128402380D01*
X107548095Y-128354761D01*
X107500476Y-128307142D01*
X108643333Y-127830952D02*
X108548095Y-127783333D01*
X108500476Y-127735714D01*
X108452857Y-127640476D01*
X108452857Y-127592857D01*
X108500476Y-127497619D01*
X108548095Y-127450000D01*
X108643333Y-127402380D01*
X108833809Y-127402380D01*
X108929047Y-127450000D01*
X108976666Y-127497619D01*
X109024285Y-127592857D01*
X109024285Y-127640476D01*
X108976666Y-127735714D01*
X108929047Y-127783333D01*
X108833809Y-127830952D01*
X108643333Y-127830952D01*
X108548095Y-127878571D01*
X108500476Y-127926190D01*
X108452857Y-128021428D01*
X108452857Y-128211904D01*
X108500476Y-128307142D01*
X108548095Y-128354761D01*
X108643333Y-128402380D01*
X108833809Y-128402380D01*
X108929047Y-128354761D01*
X108976666Y-128307142D01*
X109024285Y-128211904D01*
X109024285Y-128021428D01*
X108976666Y-127926190D01*
X108929047Y-127878571D01*
X108833809Y-127830952D01*
%TD*%
M02*
