M48
; DRILL file {KiCad (5.1.4)-1} date 25/01/2020 09:52:32
; FORMAT={-:-/ absolute / metric / decimal}
; #@! TF.CreationDate,2020-01-25T09:52:32+02:00
; #@! TF.GenerationSoftware,Kicad,Pcbnew,(5.1.4)-1
; #@! TF.FileFunction,Plated,1,2,PTH
FMAT,2
METRIC
T1C0.800
T2C0.950
T3C1.000
%
G90
G05
T1
X143.0Y-47.0
X143.0Y-49.54
X143.0Y-52.08
X143.0Y-54.62
X143.0Y-57.16
X143.0Y-59.7
X143.0Y-62.24
X143.0Y-64.78
X143.0Y-67.32
X143.0Y-69.86
X150.62Y-47.0
X150.62Y-49.54
X150.62Y-52.08
X150.62Y-54.62
X150.62Y-57.16
X150.62Y-59.7
X150.62Y-62.24
X150.62Y-64.78
X150.62Y-67.32
X150.62Y-69.86
X155.5Y-46.5
X155.5Y-49.04
X155.5Y-51.58
X140.25Y-46.5
X140.25Y-51.5
X137.5Y-61.0
X137.5Y-63.54
X137.5Y-66.08
X155.5Y-61.0
X155.5Y-63.54
X155.5Y-66.08
X135.75Y-46.5
X135.75Y-49.04
X135.75Y-51.58
T2
X136.0Y-38.0
X138.5Y-38.0
X141.0Y-38.0
X143.5Y-38.0
X150.0Y-38.0
X152.5Y-38.0
X155.0Y-38.0
X157.5Y-38.0
T3
X128.5Y-48.0
X128.5Y-50.5
X128.5Y-71.0
X137.5Y-71.0
X156.0Y-71.0
X165.0Y-71.0
X165.0Y-48.0
X165.0Y-50.5
X128.5Y-56.5
X137.5Y-56.5
X128.5Y-62.5
X128.5Y-65.0
X165.0Y-62.5
X165.0Y-65.0
X156.0Y-56.5
X165.0Y-56.5
X145.5Y-77.5
X148.0Y-77.5
T0
M30
