G04 #@! TF.GenerationSoftware,KiCad,Pcbnew,5.1.6-c6e7f7d~87~ubuntu20.04.1*
G04 #@! TF.CreationDate,2020-08-21T14:36:32+01:00*
G04 #@! TF.ProjectId,4_switch_array,345f7377-6974-4636-985f-61727261792e,rev?*
G04 #@! TF.SameCoordinates,Original*
G04 #@! TF.FileFunction,Legend,Top*
G04 #@! TF.FilePolarity,Positive*
%FSLAX46Y46*%
G04 Gerber Fmt 4.6, Leading zero omitted, Abs format (unit mm)*
G04 Created by KiCad (PCBNEW 5.1.6-c6e7f7d~87~ubuntu20.04.1) date 2020-08-21 14:36:32*
%MOMM*%
%LPD*%
G01*
G04 APERTURE LIST*
%ADD10C,0.150000*%
%ADD11C,0.120000*%
%ADD12C,0.250000*%
%ADD13C,0.010000*%
G04 APERTURE END LIST*
D10*
X153011904Y-77089285D02*
X153964285Y-77089285D01*
X153488095Y-77565476D02*
X153488095Y-76613095D01*
X155214285Y-77565476D02*
X154500000Y-77565476D01*
X154857142Y-77565476D02*
X154857142Y-76315476D01*
X154738095Y-76494047D01*
X154619047Y-76613095D01*
X154500000Y-76672619D01*
X155690476Y-76434523D02*
X155750000Y-76375000D01*
X155869047Y-76315476D01*
X156166666Y-76315476D01*
X156285714Y-76375000D01*
X156345238Y-76434523D01*
X156404761Y-76553571D01*
X156404761Y-76672619D01*
X156345238Y-76851190D01*
X155630952Y-77565476D01*
X156404761Y-77565476D01*
X156761904Y-76315476D02*
X157178571Y-77565476D01*
X157595238Y-76315476D01*
X158904761Y-76255952D02*
X157833333Y-77863095D01*
X159916666Y-76315476D02*
X159321428Y-76315476D01*
X159261904Y-76910714D01*
X159321428Y-76851190D01*
X159440476Y-76791666D01*
X159738095Y-76791666D01*
X159857142Y-76851190D01*
X159916666Y-76910714D01*
X159976190Y-77029761D01*
X159976190Y-77327380D01*
X159916666Y-77446428D01*
X159857142Y-77505952D01*
X159738095Y-77565476D01*
X159440476Y-77565476D01*
X159321428Y-77505952D01*
X159261904Y-77446428D01*
X160333333Y-76315476D02*
X160750000Y-77565476D01*
X161166666Y-76315476D01*
D11*
X152000000Y-73500000D02*
X151000000Y-73500000D01*
X152000000Y-74500000D02*
X152000000Y-73500000D01*
X152000000Y-76500000D02*
X152000000Y-75500000D01*
X152000000Y-78500000D02*
X152000000Y-77500000D01*
X152000000Y-80500000D02*
X152000000Y-79500000D01*
X143500000Y-73500000D02*
X142500000Y-73500000D01*
X145500000Y-73500000D02*
X144500000Y-73500000D01*
X147500000Y-73500000D02*
X146500000Y-73500000D01*
X149500000Y-73500000D02*
X148500000Y-73500000D01*
X141500000Y-74500000D02*
X141500000Y-73500000D01*
X141500000Y-76500000D02*
X141500000Y-75500000D01*
X141500000Y-78500000D02*
X141500000Y-77500000D01*
X141500000Y-80500000D02*
X141500000Y-79500000D01*
D10*
X160392857Y-64452380D02*
X160535714Y-64452380D01*
X160607142Y-64500000D01*
X160678571Y-64595238D01*
X160714285Y-64785714D01*
X160714285Y-65119047D01*
X160678571Y-65309523D01*
X160607142Y-65404761D01*
X160535714Y-65452380D01*
X160392857Y-65452380D01*
X160321428Y-65404761D01*
X160250000Y-65309523D01*
X160214285Y-65119047D01*
X160214285Y-64785714D01*
X160250000Y-64595238D01*
X160321428Y-64500000D01*
X160392857Y-64452380D01*
X161035714Y-64452380D02*
X161035714Y-65261904D01*
X161071428Y-65357142D01*
X161107142Y-65404761D01*
X161178571Y-65452380D01*
X161321428Y-65452380D01*
X161392857Y-65404761D01*
X161428571Y-65357142D01*
X161464285Y-65261904D01*
X161464285Y-64452380D01*
X161714285Y-64452380D02*
X162142857Y-64452380D01*
X161928571Y-65452380D02*
X161928571Y-64452380D01*
X162321428Y-64452380D02*
X162785714Y-64452380D01*
X162535714Y-64833333D01*
X162642857Y-64833333D01*
X162714285Y-64880952D01*
X162750000Y-64928571D01*
X162785714Y-65023809D01*
X162785714Y-65261904D01*
X162750000Y-65357142D01*
X162714285Y-65404761D01*
X162642857Y-65452380D01*
X162428571Y-65452380D01*
X162357142Y-65404761D01*
X162321428Y-65357142D01*
X149392857Y-64452380D02*
X149535714Y-64452380D01*
X149607142Y-64500000D01*
X149678571Y-64595238D01*
X149714285Y-64785714D01*
X149714285Y-65119047D01*
X149678571Y-65309523D01*
X149607142Y-65404761D01*
X149535714Y-65452380D01*
X149392857Y-65452380D01*
X149321428Y-65404761D01*
X149250000Y-65309523D01*
X149214285Y-65119047D01*
X149214285Y-64785714D01*
X149250000Y-64595238D01*
X149321428Y-64500000D01*
X149392857Y-64452380D01*
X150035714Y-64452380D02*
X150035714Y-65261904D01*
X150071428Y-65357142D01*
X150107142Y-65404761D01*
X150178571Y-65452380D01*
X150321428Y-65452380D01*
X150392857Y-65404761D01*
X150428571Y-65357142D01*
X150464285Y-65261904D01*
X150464285Y-64452380D01*
X150714285Y-64452380D02*
X151142857Y-64452380D01*
X150928571Y-65452380D02*
X150928571Y-64452380D01*
X151357142Y-64547619D02*
X151392857Y-64500000D01*
X151464285Y-64452380D01*
X151642857Y-64452380D01*
X151714285Y-64500000D01*
X151750000Y-64547619D01*
X151785714Y-64642857D01*
X151785714Y-64738095D01*
X151750000Y-64880952D01*
X151321428Y-65452380D01*
X151785714Y-65452380D01*
X138392857Y-64452380D02*
X138535714Y-64452380D01*
X138607142Y-64500000D01*
X138678571Y-64595238D01*
X138714285Y-64785714D01*
X138714285Y-65119047D01*
X138678571Y-65309523D01*
X138607142Y-65404761D01*
X138535714Y-65452380D01*
X138392857Y-65452380D01*
X138321428Y-65404761D01*
X138250000Y-65309523D01*
X138214285Y-65119047D01*
X138214285Y-64785714D01*
X138250000Y-64595238D01*
X138321428Y-64500000D01*
X138392857Y-64452380D01*
X139035714Y-64452380D02*
X139035714Y-65261904D01*
X139071428Y-65357142D01*
X139107142Y-65404761D01*
X139178571Y-65452380D01*
X139321428Y-65452380D01*
X139392857Y-65404761D01*
X139428571Y-65357142D01*
X139464285Y-65261904D01*
X139464285Y-64452380D01*
X139714285Y-64452380D02*
X140142857Y-64452380D01*
X139928571Y-65452380D02*
X139928571Y-64452380D01*
X140785714Y-65452380D02*
X140357142Y-65452380D01*
X140571428Y-65452380D02*
X140571428Y-64452380D01*
X140500000Y-64595238D01*
X140428571Y-64690476D01*
X140357142Y-64738095D01*
X167738095Y-71904761D02*
X167880952Y-71952380D01*
X168119047Y-71952380D01*
X168214285Y-71904761D01*
X168261904Y-71857142D01*
X168309523Y-71761904D01*
X168309523Y-71666666D01*
X168261904Y-71571428D01*
X168214285Y-71523809D01*
X168119047Y-71476190D01*
X167928571Y-71428571D01*
X167833333Y-71380952D01*
X167785714Y-71333333D01*
X167738095Y-71238095D01*
X167738095Y-71142857D01*
X167785714Y-71047619D01*
X167833333Y-71000000D01*
X167928571Y-70952380D01*
X168166666Y-70952380D01*
X168309523Y-71000000D01*
X168642857Y-70952380D02*
X169261904Y-70952380D01*
X168928571Y-71333333D01*
X169071428Y-71333333D01*
X169166666Y-71380952D01*
X169214285Y-71428571D01*
X169261904Y-71523809D01*
X169261904Y-71761904D01*
X169214285Y-71857142D01*
X169166666Y-71904761D01*
X169071428Y-71952380D01*
X168785714Y-71952380D01*
X168690476Y-71904761D01*
X168642857Y-71857142D01*
X156738095Y-71904761D02*
X156880952Y-71952380D01*
X157119047Y-71952380D01*
X157214285Y-71904761D01*
X157261904Y-71857142D01*
X157309523Y-71761904D01*
X157309523Y-71666666D01*
X157261904Y-71571428D01*
X157214285Y-71523809D01*
X157119047Y-71476190D01*
X156928571Y-71428571D01*
X156833333Y-71380952D01*
X156785714Y-71333333D01*
X156738095Y-71238095D01*
X156738095Y-71142857D01*
X156785714Y-71047619D01*
X156833333Y-71000000D01*
X156928571Y-70952380D01*
X157166666Y-70952380D01*
X157309523Y-71000000D01*
X157690476Y-71047619D02*
X157738095Y-71000000D01*
X157833333Y-70952380D01*
X158071428Y-70952380D01*
X158166666Y-71000000D01*
X158214285Y-71047619D01*
X158261904Y-71142857D01*
X158261904Y-71238095D01*
X158214285Y-71380952D01*
X157642857Y-71952380D01*
X158261904Y-71952380D01*
X145738095Y-71904761D02*
X145880952Y-71952380D01*
X146119047Y-71952380D01*
X146214285Y-71904761D01*
X146261904Y-71857142D01*
X146309523Y-71761904D01*
X146309523Y-71666666D01*
X146261904Y-71571428D01*
X146214285Y-71523809D01*
X146119047Y-71476190D01*
X145928571Y-71428571D01*
X145833333Y-71380952D01*
X145785714Y-71333333D01*
X145738095Y-71238095D01*
X145738095Y-71142857D01*
X145785714Y-71047619D01*
X145833333Y-71000000D01*
X145928571Y-70952380D01*
X146166666Y-70952380D01*
X146309523Y-71000000D01*
X147261904Y-71952380D02*
X146690476Y-71952380D01*
X146976190Y-71952380D02*
X146976190Y-70952380D01*
X146880952Y-71095238D01*
X146785714Y-71190476D01*
X146690476Y-71238095D01*
X134738095Y-71904761D02*
X134880952Y-71952380D01*
X135119047Y-71952380D01*
X135214285Y-71904761D01*
X135261904Y-71857142D01*
X135309523Y-71761904D01*
X135309523Y-71666666D01*
X135261904Y-71571428D01*
X135214285Y-71523809D01*
X135119047Y-71476190D01*
X134928571Y-71428571D01*
X134833333Y-71380952D01*
X134785714Y-71333333D01*
X134738095Y-71238095D01*
X134738095Y-71142857D01*
X134785714Y-71047619D01*
X134833333Y-71000000D01*
X134928571Y-70952380D01*
X135166666Y-70952380D01*
X135309523Y-71000000D01*
X135928571Y-70952380D02*
X136023809Y-70952380D01*
X136119047Y-71000000D01*
X136166666Y-71047619D01*
X136214285Y-71142857D01*
X136261904Y-71333333D01*
X136261904Y-71571428D01*
X136214285Y-71761904D01*
X136166666Y-71857142D01*
X136119047Y-71904761D01*
X136023809Y-71952380D01*
X135928571Y-71952380D01*
X135833333Y-71904761D01*
X135785714Y-71857142D01*
X135738095Y-71761904D01*
X135690476Y-71571428D01*
X135690476Y-71333333D01*
X135738095Y-71142857D01*
X135785714Y-71047619D01*
X135833333Y-71000000D01*
X135928571Y-70952380D01*
X127392857Y-64452380D02*
X127535714Y-64452380D01*
X127607142Y-64500000D01*
X127678571Y-64595238D01*
X127714285Y-64785714D01*
X127714285Y-65119047D01*
X127678571Y-65309523D01*
X127607142Y-65404761D01*
X127535714Y-65452380D01*
X127392857Y-65452380D01*
X127321428Y-65404761D01*
X127250000Y-65309523D01*
X127214285Y-65119047D01*
X127214285Y-64785714D01*
X127250000Y-64595238D01*
X127321428Y-64500000D01*
X127392857Y-64452380D01*
X128035714Y-64452380D02*
X128035714Y-65261904D01*
X128071428Y-65357142D01*
X128107142Y-65404761D01*
X128178571Y-65452380D01*
X128321428Y-65452380D01*
X128392857Y-65404761D01*
X128428571Y-65357142D01*
X128464285Y-65261904D01*
X128464285Y-64452380D01*
X128714285Y-64452380D02*
X129142857Y-64452380D01*
X128928571Y-65452380D02*
X128928571Y-64452380D01*
X129535714Y-64452380D02*
X129607142Y-64452380D01*
X129678571Y-64500000D01*
X129714285Y-64547619D01*
X129750000Y-64642857D01*
X129785714Y-64833333D01*
X129785714Y-65071428D01*
X129750000Y-65261904D01*
X129714285Y-65357142D01*
X129678571Y-65404761D01*
X129607142Y-65452380D01*
X129535714Y-65452380D01*
X129464285Y-65404761D01*
X129428571Y-65357142D01*
X129392857Y-65261904D01*
X129357142Y-65071428D01*
X129357142Y-64833333D01*
X129392857Y-64642857D01*
X129428571Y-64547619D01*
X129464285Y-64500000D01*
X129535714Y-64452380D01*
X130642857Y-65452380D02*
X130642857Y-64452380D01*
X131023809Y-64452380D01*
X131119047Y-64500000D01*
X131166666Y-64547619D01*
X131214285Y-64642857D01*
X131214285Y-64785714D01*
X131166666Y-64880952D01*
X131119047Y-64928571D01*
X131023809Y-64976190D01*
X130642857Y-64976190D01*
X131833333Y-64452380D02*
X132023809Y-64452380D01*
X132119047Y-64500000D01*
X132214285Y-64595238D01*
X132261904Y-64785714D01*
X132261904Y-65119047D01*
X132214285Y-65309523D01*
X132119047Y-65404761D01*
X132023809Y-65452380D01*
X131833333Y-65452380D01*
X131738095Y-65404761D01*
X131642857Y-65309523D01*
X131595238Y-65119047D01*
X131595238Y-64785714D01*
X131642857Y-64595238D01*
X131738095Y-64500000D01*
X131833333Y-64452380D01*
X132595238Y-64452380D02*
X132833333Y-65452380D01*
X133023809Y-64738095D01*
X133214285Y-65452380D01*
X133452380Y-64452380D01*
X141642857Y-65452380D02*
X141642857Y-64452380D01*
X142023809Y-64452380D01*
X142119047Y-64500000D01*
X142166666Y-64547619D01*
X142214285Y-64642857D01*
X142214285Y-64785714D01*
X142166666Y-64880952D01*
X142119047Y-64928571D01*
X142023809Y-64976190D01*
X141642857Y-64976190D01*
X142833333Y-64452380D02*
X143023809Y-64452380D01*
X143119047Y-64500000D01*
X143214285Y-64595238D01*
X143261904Y-64785714D01*
X143261904Y-65119047D01*
X143214285Y-65309523D01*
X143119047Y-65404761D01*
X143023809Y-65452380D01*
X142833333Y-65452380D01*
X142738095Y-65404761D01*
X142642857Y-65309523D01*
X142595238Y-65119047D01*
X142595238Y-64785714D01*
X142642857Y-64595238D01*
X142738095Y-64500000D01*
X142833333Y-64452380D01*
X143595238Y-64452380D02*
X143833333Y-65452380D01*
X144023809Y-64738095D01*
X144214285Y-65452380D01*
X144452380Y-64452380D01*
X152642857Y-65452380D02*
X152642857Y-64452380D01*
X153023809Y-64452380D01*
X153119047Y-64500000D01*
X153166666Y-64547619D01*
X153214285Y-64642857D01*
X153214285Y-64785714D01*
X153166666Y-64880952D01*
X153119047Y-64928571D01*
X153023809Y-64976190D01*
X152642857Y-64976190D01*
X153833333Y-64452380D02*
X154023809Y-64452380D01*
X154119047Y-64500000D01*
X154214285Y-64595238D01*
X154261904Y-64785714D01*
X154261904Y-65119047D01*
X154214285Y-65309523D01*
X154119047Y-65404761D01*
X154023809Y-65452380D01*
X153833333Y-65452380D01*
X153738095Y-65404761D01*
X153642857Y-65309523D01*
X153595238Y-65119047D01*
X153595238Y-64785714D01*
X153642857Y-64595238D01*
X153738095Y-64500000D01*
X153833333Y-64452380D01*
X154595238Y-64452380D02*
X154833333Y-65452380D01*
X155023809Y-64738095D01*
X155214285Y-65452380D01*
X155452380Y-64452380D01*
D12*
X159000000Y-43904761D02*
X159142857Y-43952380D01*
X159380952Y-43952380D01*
X159476190Y-43904761D01*
X159523809Y-43857142D01*
X159571428Y-43761904D01*
X159571428Y-43666666D01*
X159523809Y-43571428D01*
X159476190Y-43523809D01*
X159380952Y-43476190D01*
X159190476Y-43428571D01*
X159095238Y-43380952D01*
X159047619Y-43333333D01*
X159000000Y-43238095D01*
X159000000Y-43142857D01*
X159047619Y-43047619D01*
X159095238Y-43000000D01*
X159190476Y-42952380D01*
X159428571Y-42952380D01*
X159571428Y-43000000D01*
X159904761Y-43285714D02*
X160095238Y-43952380D01*
X160285714Y-43476190D01*
X160476190Y-43952380D01*
X160666666Y-43285714D01*
X161047619Y-43952380D02*
X161047619Y-43285714D01*
X161047619Y-42952380D02*
X161000000Y-43000000D01*
X161047619Y-43047619D01*
X161095238Y-43000000D01*
X161047619Y-42952380D01*
X161047619Y-43047619D01*
X161380952Y-43285714D02*
X161761904Y-43285714D01*
X161523809Y-42952380D02*
X161523809Y-43809523D01*
X161571428Y-43904761D01*
X161666666Y-43952380D01*
X161761904Y-43952380D01*
X162523809Y-43904761D02*
X162428571Y-43952380D01*
X162238095Y-43952380D01*
X162142857Y-43904761D01*
X162095238Y-43857142D01*
X162047619Y-43761904D01*
X162047619Y-43476190D01*
X162095238Y-43380952D01*
X162142857Y-43333333D01*
X162238095Y-43285714D01*
X162428571Y-43285714D01*
X162523809Y-43333333D01*
X162952380Y-43952380D02*
X162952380Y-42952380D01*
X163380952Y-43952380D02*
X163380952Y-43428571D01*
X163333333Y-43333333D01*
X163238095Y-43285714D01*
X163095238Y-43285714D01*
X163000000Y-43333333D01*
X162952380Y-43380952D01*
X165047619Y-43952380D02*
X165047619Y-43428571D01*
X165000000Y-43333333D01*
X164904761Y-43285714D01*
X164714285Y-43285714D01*
X164619047Y-43333333D01*
X165047619Y-43904761D02*
X164952380Y-43952380D01*
X164714285Y-43952380D01*
X164619047Y-43904761D01*
X164571428Y-43809523D01*
X164571428Y-43714285D01*
X164619047Y-43619047D01*
X164714285Y-43571428D01*
X164952380Y-43571428D01*
X165047619Y-43523809D01*
X165523809Y-43952380D02*
X165523809Y-43285714D01*
X165523809Y-43476190D02*
X165571428Y-43380952D01*
X165619047Y-43333333D01*
X165714285Y-43285714D01*
X165809523Y-43285714D01*
X166142857Y-43952380D02*
X166142857Y-43285714D01*
X166142857Y-43476190D02*
X166190476Y-43380952D01*
X166238095Y-43333333D01*
X166333333Y-43285714D01*
X166428571Y-43285714D01*
X167190476Y-43952380D02*
X167190476Y-43428571D01*
X167142857Y-43333333D01*
X167047619Y-43285714D01*
X166857142Y-43285714D01*
X166761904Y-43333333D01*
X167190476Y-43904761D02*
X167095238Y-43952380D01*
X166857142Y-43952380D01*
X166761904Y-43904761D01*
X166714285Y-43809523D01*
X166714285Y-43714285D01*
X166761904Y-43619047D01*
X166857142Y-43571428D01*
X167095238Y-43571428D01*
X167190476Y-43523809D01*
X167571428Y-43285714D02*
X167809523Y-43952380D01*
X168047619Y-43285714D02*
X167809523Y-43952380D01*
X167714285Y-44190476D01*
X167666666Y-44238095D01*
X167571428Y-44285714D01*
D10*
X151585000Y-45285714D02*
X151585000Y-44571428D01*
X152904761Y-45142857D02*
X152952380Y-45035714D01*
X152952380Y-44857142D01*
X152904761Y-44785714D01*
X152857142Y-44750000D01*
X152761904Y-44714285D01*
X152666666Y-44714285D01*
X152571428Y-44750000D01*
X152523809Y-44785714D01*
X152476190Y-44857142D01*
X152428571Y-45000000D01*
X152380952Y-45071428D01*
X152333333Y-45107142D01*
X152238095Y-45142857D01*
X152142857Y-45142857D01*
X152047619Y-45107142D01*
X152000000Y-45071428D01*
X151952380Y-45000000D01*
X151952380Y-44821428D01*
X152000000Y-44714285D01*
X151585000Y-44571428D02*
X151585000Y-43821428D01*
X152952380Y-43964285D02*
X152476190Y-44214285D01*
X152952380Y-44392857D02*
X151952380Y-44392857D01*
X151952380Y-44107142D01*
X152000000Y-44035714D01*
X152047619Y-44000000D01*
X152142857Y-43964285D01*
X152285714Y-43964285D01*
X152380952Y-44000000D01*
X152428571Y-44035714D01*
X152476190Y-44107142D01*
X152476190Y-44392857D01*
X151585000Y-43821428D02*
X151585000Y-43071428D01*
X152857142Y-43214285D02*
X152904761Y-43250000D01*
X152952380Y-43357142D01*
X152952380Y-43428571D01*
X152904761Y-43535714D01*
X152809523Y-43607142D01*
X152714285Y-43642857D01*
X152523809Y-43678571D01*
X152380952Y-43678571D01*
X152190476Y-43642857D01*
X152095238Y-43607142D01*
X152000000Y-43535714D01*
X151952380Y-43428571D01*
X151952380Y-43357142D01*
X152000000Y-43250000D01*
X152047619Y-43214285D01*
X151585000Y-43071428D02*
X151585000Y-42464285D01*
X152952380Y-42535714D02*
X152952380Y-42892857D01*
X151952380Y-42892857D01*
X151585000Y-42464285D02*
X151585000Y-41714285D01*
X152952380Y-41857142D02*
X152476190Y-42107142D01*
X152952380Y-42285714D02*
X151952380Y-42285714D01*
X151952380Y-42000000D01*
X152000000Y-41928571D01*
X152047619Y-41892857D01*
X152142857Y-41857142D01*
X152285714Y-41857142D01*
X152380952Y-41892857D01*
X152428571Y-41928571D01*
X152476190Y-42000000D01*
X152476190Y-42285714D01*
X163642857Y-65452380D02*
X163642857Y-64452380D01*
X164023809Y-64452380D01*
X164119047Y-64500000D01*
X164166666Y-64547619D01*
X164214285Y-64642857D01*
X164214285Y-64785714D01*
X164166666Y-64880952D01*
X164119047Y-64928571D01*
X164023809Y-64976190D01*
X163642857Y-64976190D01*
X164833333Y-64452380D02*
X165023809Y-64452380D01*
X165119047Y-64500000D01*
X165214285Y-64595238D01*
X165261904Y-64785714D01*
X165261904Y-65119047D01*
X165214285Y-65309523D01*
X165119047Y-65404761D01*
X165023809Y-65452380D01*
X164833333Y-65452380D01*
X164738095Y-65404761D01*
X164642857Y-65309523D01*
X164595238Y-65119047D01*
X164595238Y-64785714D01*
X164642857Y-64595238D01*
X164738095Y-64500000D01*
X164833333Y-64452380D01*
X165595238Y-64452380D02*
X165833333Y-65452380D01*
X166023809Y-64738095D01*
X166214285Y-65452380D01*
X166452380Y-64452380D01*
X147642857Y-73452380D02*
X147642857Y-72452380D01*
X148023809Y-72452380D01*
X148119047Y-72500000D01*
X148166666Y-72547619D01*
X148214285Y-72642857D01*
X148214285Y-72785714D01*
X148166666Y-72880952D01*
X148119047Y-72928571D01*
X148023809Y-72976190D01*
X147642857Y-72976190D01*
X148833333Y-72452380D02*
X149023809Y-72452380D01*
X149119047Y-72500000D01*
X149214285Y-72595238D01*
X149261904Y-72785714D01*
X149261904Y-73119047D01*
X149214285Y-73309523D01*
X149119047Y-73404761D01*
X149023809Y-73452380D01*
X148833333Y-73452380D01*
X148738095Y-73404761D01*
X148642857Y-73309523D01*
X148595238Y-73119047D01*
X148595238Y-72785714D01*
X148642857Y-72595238D01*
X148738095Y-72500000D01*
X148833333Y-72452380D01*
X149595238Y-72452380D02*
X149833333Y-73452380D01*
X150023809Y-72738095D01*
X150214285Y-73452380D01*
X150452380Y-72452380D01*
X143738095Y-72500000D02*
X143642857Y-72452380D01*
X143500000Y-72452380D01*
X143357142Y-72500000D01*
X143261904Y-72595238D01*
X143214285Y-72690476D01*
X143166666Y-72880952D01*
X143166666Y-73023809D01*
X143214285Y-73214285D01*
X143261904Y-73309523D01*
X143357142Y-73404761D01*
X143500000Y-73452380D01*
X143595238Y-73452380D01*
X143738095Y-73404761D01*
X143785714Y-73357142D01*
X143785714Y-73023809D01*
X143595238Y-73023809D01*
X144214285Y-73452380D02*
X144214285Y-72452380D01*
X144785714Y-73452380D01*
X144785714Y-72452380D01*
X145261904Y-73452380D02*
X145261904Y-72452380D01*
X145500000Y-72452380D01*
X145642857Y-72500000D01*
X145738095Y-72595238D01*
X145785714Y-72690476D01*
X145833333Y-72880952D01*
X145833333Y-73023809D01*
X145785714Y-73214285D01*
X145738095Y-73309523D01*
X145642857Y-73404761D01*
X145500000Y-73452380D01*
X145261904Y-73452380D01*
X157000000Y-44261904D02*
X156952380Y-44357142D01*
X156952380Y-44500000D01*
X157000000Y-44642857D01*
X157095238Y-44738095D01*
X157190476Y-44785714D01*
X157380952Y-44833333D01*
X157523809Y-44833333D01*
X157714285Y-44785714D01*
X157809523Y-44738095D01*
X157904761Y-44642857D01*
X157952380Y-44500000D01*
X157952380Y-44404761D01*
X157904761Y-44261904D01*
X157857142Y-44214285D01*
X157523809Y-44214285D01*
X157523809Y-44404761D01*
X157952380Y-43785714D02*
X156952380Y-43785714D01*
X157952380Y-43214285D01*
X156952380Y-43214285D01*
X157952380Y-42738095D02*
X156952380Y-42738095D01*
X156952380Y-42500000D01*
X157000000Y-42357142D01*
X157095238Y-42261904D01*
X157190476Y-42214285D01*
X157380952Y-42166666D01*
X157523809Y-42166666D01*
X157714285Y-42214285D01*
X157809523Y-42261904D01*
X157904761Y-42357142D01*
X157952380Y-42500000D01*
X157952380Y-42738095D01*
X155452380Y-43785714D02*
X154452380Y-43785714D01*
X155452380Y-43214285D01*
X154452380Y-43214285D01*
X155357142Y-42166666D02*
X155404761Y-42214285D01*
X155452380Y-42357142D01*
X155452380Y-42452380D01*
X155404761Y-42595238D01*
X155309523Y-42690476D01*
X155214285Y-42738095D01*
X155023809Y-42785714D01*
X154880952Y-42785714D01*
X154690476Y-42738095D01*
X154595238Y-42690476D01*
X154500000Y-42595238D01*
X154452380Y-42452380D01*
X154452380Y-42357142D01*
X154500000Y-42214285D01*
X154547619Y-42166666D01*
X150404761Y-45142857D02*
X150452380Y-45035714D01*
X150452380Y-44857142D01*
X150404761Y-44785714D01*
X150357142Y-44750000D01*
X150261904Y-44714285D01*
X150166666Y-44714285D01*
X150071428Y-44750000D01*
X150023809Y-44785714D01*
X149976190Y-44857142D01*
X149928571Y-45000000D01*
X149880952Y-45071428D01*
X149833333Y-45107142D01*
X149738095Y-45142857D01*
X149642857Y-45142857D01*
X149547619Y-45107142D01*
X149500000Y-45071428D01*
X149452380Y-45000000D01*
X149452380Y-44821428D01*
X149500000Y-44714285D01*
X150452380Y-43964285D02*
X149976190Y-44214285D01*
X150452380Y-44392857D02*
X149452380Y-44392857D01*
X149452380Y-44107142D01*
X149500000Y-44035714D01*
X149547619Y-44000000D01*
X149642857Y-43964285D01*
X149785714Y-43964285D01*
X149880952Y-44000000D01*
X149928571Y-44035714D01*
X149976190Y-44107142D01*
X149976190Y-44392857D01*
X150357142Y-43214285D02*
X150404761Y-43250000D01*
X150452380Y-43357142D01*
X150452380Y-43428571D01*
X150404761Y-43535714D01*
X150309523Y-43607142D01*
X150214285Y-43642857D01*
X150023809Y-43678571D01*
X149880952Y-43678571D01*
X149690476Y-43642857D01*
X149595238Y-43607142D01*
X149500000Y-43535714D01*
X149452380Y-43428571D01*
X149452380Y-43357142D01*
X149500000Y-43250000D01*
X149547619Y-43214285D01*
X150452380Y-42535714D02*
X150452380Y-42892857D01*
X149452380Y-42892857D01*
X150452380Y-42285714D02*
X149452380Y-42285714D01*
X150452380Y-41857142D02*
X149880952Y-42178571D01*
X149452380Y-41857142D02*
X150023809Y-42285714D01*
X143000000Y-44261904D02*
X142952380Y-44357142D01*
X142952380Y-44500000D01*
X143000000Y-44642857D01*
X143095238Y-44738095D01*
X143190476Y-44785714D01*
X143380952Y-44833333D01*
X143523809Y-44833333D01*
X143714285Y-44785714D01*
X143809523Y-44738095D01*
X143904761Y-44642857D01*
X143952380Y-44500000D01*
X143952380Y-44404761D01*
X143904761Y-44261904D01*
X143857142Y-44214285D01*
X143523809Y-44214285D01*
X143523809Y-44404761D01*
X143952380Y-43785714D02*
X142952380Y-43785714D01*
X143952380Y-43214285D01*
X142952380Y-43214285D01*
X143952380Y-42738095D02*
X142952380Y-42738095D01*
X142952380Y-42500000D01*
X143000000Y-42357142D01*
X143095238Y-42261904D01*
X143190476Y-42214285D01*
X143380952Y-42166666D01*
X143523809Y-42166666D01*
X143714285Y-42214285D01*
X143809523Y-42261904D01*
X143904761Y-42357142D01*
X143952380Y-42500000D01*
X143952380Y-42738095D01*
X140452380Y-44833333D02*
X141452380Y-44500000D01*
X140452380Y-44166666D01*
X141357142Y-43261904D02*
X141404761Y-43309523D01*
X141452380Y-43452380D01*
X141452380Y-43547619D01*
X141404761Y-43690476D01*
X141309523Y-43785714D01*
X141214285Y-43833333D01*
X141023809Y-43880952D01*
X140880952Y-43880952D01*
X140690476Y-43833333D01*
X140595238Y-43785714D01*
X140500000Y-43690476D01*
X140452380Y-43547619D01*
X140452380Y-43452380D01*
X140500000Y-43309523D01*
X140547619Y-43261904D01*
X141357142Y-42261904D02*
X141404761Y-42309523D01*
X141452380Y-42452380D01*
X141452380Y-42547619D01*
X141404761Y-42690476D01*
X141309523Y-42785714D01*
X141214285Y-42833333D01*
X141023809Y-42880952D01*
X140880952Y-42880952D01*
X140690476Y-42833333D01*
X140595238Y-42785714D01*
X140500000Y-42690476D01*
X140452380Y-42547619D01*
X140452380Y-42452380D01*
X140500000Y-42309523D01*
X140547619Y-42261904D01*
X136404761Y-45285714D02*
X136452380Y-45178571D01*
X136452380Y-45000000D01*
X136404761Y-44928571D01*
X136357142Y-44892857D01*
X136261904Y-44857142D01*
X136166666Y-44857142D01*
X136071428Y-44892857D01*
X136023809Y-44928571D01*
X135976190Y-45000000D01*
X135928571Y-45142857D01*
X135880952Y-45214285D01*
X135833333Y-45250000D01*
X135738095Y-45285714D01*
X135642857Y-45285714D01*
X135547619Y-45250000D01*
X135500000Y-45214285D01*
X135452380Y-45142857D01*
X135452380Y-44964285D01*
X135500000Y-44857142D01*
X135928571Y-44535714D02*
X135928571Y-44285714D01*
X136452380Y-44178571D02*
X136452380Y-44535714D01*
X135452380Y-44535714D01*
X135452380Y-44178571D01*
X136452380Y-43428571D02*
X135976190Y-43678571D01*
X136452380Y-43857142D02*
X135452380Y-43857142D01*
X135452380Y-43571428D01*
X135500000Y-43500000D01*
X135547619Y-43464285D01*
X135642857Y-43428571D01*
X135785714Y-43428571D01*
X135880952Y-43464285D01*
X135928571Y-43500000D01*
X135976190Y-43571428D01*
X135976190Y-43857142D01*
X136547619Y-43285714D02*
X136547619Y-42714285D01*
X136452380Y-42535714D02*
X135452380Y-42535714D01*
X136452380Y-42178571D02*
X135452380Y-42178571D01*
X136452380Y-41750000D01*
X135452380Y-41750000D01*
X138952380Y-44595238D02*
X138476190Y-44928571D01*
X138952380Y-45166666D02*
X137952380Y-45166666D01*
X137952380Y-44785714D01*
X138000000Y-44690476D01*
X138047619Y-44642857D01*
X138142857Y-44595238D01*
X138285714Y-44595238D01*
X138380952Y-44642857D01*
X138428571Y-44690476D01*
X138476190Y-44785714D01*
X138476190Y-45166666D01*
X138857142Y-43595238D02*
X138904761Y-43642857D01*
X138952380Y-43785714D01*
X138952380Y-43880952D01*
X138904761Y-44023809D01*
X138809523Y-44119047D01*
X138714285Y-44166666D01*
X138523809Y-44214285D01*
X138380952Y-44214285D01*
X138190476Y-44166666D01*
X138095238Y-44119047D01*
X138000000Y-44023809D01*
X137952380Y-43880952D01*
X137952380Y-43785714D01*
X138000000Y-43642857D01*
X138047619Y-43595238D01*
X138952380Y-42690476D02*
X138952380Y-43166666D01*
X137952380Y-43166666D01*
X138952380Y-42357142D02*
X137952380Y-42357142D01*
X138952380Y-41785714D02*
X138380952Y-42214285D01*
X137952380Y-41785714D02*
X138523809Y-42357142D01*
D11*
X136670000Y-51690000D02*
X136670000Y-53340000D01*
X136670000Y-53340000D02*
X157110000Y-53340000D01*
X157110000Y-53340000D02*
X157110000Y-48040000D01*
X157110000Y-48040000D02*
X136670000Y-48040000D01*
X136670000Y-48040000D02*
X136670000Y-49690000D01*
X136670000Y-49690000D02*
G75*
G02*
X136670000Y-51690000I0J-1000000D01*
G01*
X167350000Y-72250000D02*
X167350000Y-71000000D01*
X166100000Y-72250000D02*
X167350000Y-72250000D01*
X160200000Y-66750000D02*
X163250000Y-66750000D01*
X160200000Y-69700000D02*
X160200000Y-66750000D01*
X159450000Y-69700000D02*
X160200000Y-69700000D01*
X166300000Y-66750000D02*
X163250000Y-66750000D01*
X166300000Y-69700000D02*
X166300000Y-66750000D01*
X167050000Y-69700000D02*
X166300000Y-69700000D01*
X159450000Y-71950000D02*
X161250000Y-71950000D01*
X159450000Y-71200000D02*
X159450000Y-71950000D01*
X161250000Y-71200000D02*
X159450000Y-71200000D01*
X161250000Y-71950000D02*
X161250000Y-71200000D01*
X165250000Y-71950000D02*
X167050000Y-71950000D01*
X165250000Y-71200000D02*
X165250000Y-71950000D01*
X167050000Y-71200000D02*
X165250000Y-71200000D01*
X167050000Y-71950000D02*
X167050000Y-71200000D01*
X162750000Y-71950000D02*
X163750000Y-71950000D01*
X162750000Y-71200000D02*
X162750000Y-71950000D01*
X163750000Y-71200000D02*
X162750000Y-71200000D01*
X163750000Y-71950000D02*
X163750000Y-71200000D01*
X159440000Y-71960000D02*
X167060000Y-71960000D01*
X159440000Y-65990000D02*
X159440000Y-71960000D01*
X167060000Y-65990000D02*
X159440000Y-65990000D01*
X167060000Y-71960000D02*
X167060000Y-65990000D01*
D13*
G36*
X137008000Y-77173182D02*
G01*
X136904091Y-77173182D01*
X136904091Y-76630546D01*
X137008000Y-76630546D01*
X137008000Y-77173182D01*
G37*
X137008000Y-77173182D02*
X136904091Y-77173182D01*
X136904091Y-76630546D01*
X137008000Y-76630546D01*
X137008000Y-77173182D01*
G36*
X136084364Y-77173182D02*
G01*
X135980454Y-77173182D01*
X135980454Y-76630546D01*
X136084364Y-76630546D01*
X136084364Y-77173182D01*
G37*
X136084364Y-77173182D02*
X135980454Y-77173182D01*
X135980454Y-76630546D01*
X136084364Y-76630546D01*
X136084364Y-77173182D01*
G36*
X136873099Y-73877467D02*
G01*
X136869224Y-73890801D01*
X136854184Y-73913243D01*
X136827016Y-73945969D01*
X136786760Y-73990152D01*
X136732455Y-74046967D01*
X136663140Y-74117587D01*
X136596827Y-74184219D01*
X136309673Y-74471546D01*
X136508746Y-74471546D01*
X136581153Y-74471724D01*
X136633629Y-74472470D01*
X136669333Y-74474105D01*
X136691424Y-74476946D01*
X136703059Y-74481312D01*
X136707397Y-74487523D01*
X136707818Y-74491650D01*
X136699922Y-74504665D01*
X136677598Y-74531642D01*
X136642890Y-74570362D01*
X136597844Y-74618607D01*
X136544505Y-74674157D01*
X136484919Y-74734794D01*
X136468353Y-74751422D01*
X136392325Y-74828149D01*
X136332869Y-74889584D01*
X136289620Y-74936131D01*
X136262213Y-74968191D01*
X136250284Y-74986170D01*
X136251876Y-74990686D01*
X136275058Y-74988110D01*
X136311968Y-74981832D01*
X136346830Y-74974839D01*
X136387484Y-74966987D01*
X136411876Y-74965268D01*
X136426026Y-74969746D01*
X136432354Y-74975734D01*
X136439429Y-74988130D01*
X136436195Y-74998687D01*
X136420071Y-75008553D01*
X136388477Y-75018878D01*
X136338834Y-75030808D01*
X136281542Y-75042861D01*
X136218772Y-75055603D01*
X136174977Y-75064184D01*
X136146501Y-75069030D01*
X136129687Y-75070567D01*
X136120881Y-75069221D01*
X136116426Y-75065417D01*
X136114442Y-75062329D01*
X136113505Y-75046061D01*
X136117598Y-75013162D01*
X136125537Y-74968818D01*
X136136134Y-74918211D01*
X136148206Y-74866526D01*
X136160564Y-74818946D01*
X136172025Y-74780655D01*
X136181401Y-74756836D01*
X136185510Y-74751657D01*
X136204899Y-74750054D01*
X136214545Y-74765014D01*
X136214774Y-74798134D01*
X136205913Y-74851014D01*
X136205861Y-74851262D01*
X136197327Y-74892815D01*
X136191076Y-74925129D01*
X136188313Y-74941940D01*
X136188273Y-74942658D01*
X136196049Y-74936997D01*
X136217942Y-74917022D01*
X136251798Y-74884804D01*
X136295461Y-74842414D01*
X136346779Y-74791923D01*
X136396249Y-74742744D01*
X136604224Y-74535046D01*
X136416592Y-74529273D01*
X136345020Y-74526743D01*
X136293450Y-74523983D01*
X136258794Y-74520617D01*
X136237962Y-74516270D01*
X136227866Y-74510564D01*
X136225608Y-74506000D01*
X136232793Y-74494540D01*
X136254341Y-74469165D01*
X136288077Y-74432073D01*
X136331826Y-74385462D01*
X136383415Y-74331533D01*
X136440667Y-74272484D01*
X136501408Y-74210514D01*
X136563464Y-74147823D01*
X136624660Y-74086608D01*
X136682820Y-74029070D01*
X136735771Y-73977407D01*
X136781337Y-73933819D01*
X136817345Y-73900504D01*
X136841618Y-73879661D01*
X136851193Y-73873429D01*
X136866768Y-73872068D01*
X136873099Y-73877467D01*
G37*
X136873099Y-73877467D02*
X136869224Y-73890801D01*
X136854184Y-73913243D01*
X136827016Y-73945969D01*
X136786760Y-73990152D01*
X136732455Y-74046967D01*
X136663140Y-74117587D01*
X136596827Y-74184219D01*
X136309673Y-74471546D01*
X136508746Y-74471546D01*
X136581153Y-74471724D01*
X136633629Y-74472470D01*
X136669333Y-74474105D01*
X136691424Y-74476946D01*
X136703059Y-74481312D01*
X136707397Y-74487523D01*
X136707818Y-74491650D01*
X136699922Y-74504665D01*
X136677598Y-74531642D01*
X136642890Y-74570362D01*
X136597844Y-74618607D01*
X136544505Y-74674157D01*
X136484919Y-74734794D01*
X136468353Y-74751422D01*
X136392325Y-74828149D01*
X136332869Y-74889584D01*
X136289620Y-74936131D01*
X136262213Y-74968191D01*
X136250284Y-74986170D01*
X136251876Y-74990686D01*
X136275058Y-74988110D01*
X136311968Y-74981832D01*
X136346830Y-74974839D01*
X136387484Y-74966987D01*
X136411876Y-74965268D01*
X136426026Y-74969746D01*
X136432354Y-74975734D01*
X136439429Y-74988130D01*
X136436195Y-74998687D01*
X136420071Y-75008553D01*
X136388477Y-75018878D01*
X136338834Y-75030808D01*
X136281542Y-75042861D01*
X136218772Y-75055603D01*
X136174977Y-75064184D01*
X136146501Y-75069030D01*
X136129687Y-75070567D01*
X136120881Y-75069221D01*
X136116426Y-75065417D01*
X136114442Y-75062329D01*
X136113505Y-75046061D01*
X136117598Y-75013162D01*
X136125537Y-74968818D01*
X136136134Y-74918211D01*
X136148206Y-74866526D01*
X136160564Y-74818946D01*
X136172025Y-74780655D01*
X136181401Y-74756836D01*
X136185510Y-74751657D01*
X136204899Y-74750054D01*
X136214545Y-74765014D01*
X136214774Y-74798134D01*
X136205913Y-74851014D01*
X136205861Y-74851262D01*
X136197327Y-74892815D01*
X136191076Y-74925129D01*
X136188313Y-74941940D01*
X136188273Y-74942658D01*
X136196049Y-74936997D01*
X136217942Y-74917022D01*
X136251798Y-74884804D01*
X136295461Y-74842414D01*
X136346779Y-74791923D01*
X136396249Y-74742744D01*
X136604224Y-74535046D01*
X136416592Y-74529273D01*
X136345020Y-74526743D01*
X136293450Y-74523983D01*
X136258794Y-74520617D01*
X136237962Y-74516270D01*
X136227866Y-74510564D01*
X136225608Y-74506000D01*
X136232793Y-74494540D01*
X136254341Y-74469165D01*
X136288077Y-74432073D01*
X136331826Y-74385462D01*
X136383415Y-74331533D01*
X136440667Y-74272484D01*
X136501408Y-74210514D01*
X136563464Y-74147823D01*
X136624660Y-74086608D01*
X136682820Y-74029070D01*
X136735771Y-73977407D01*
X136781337Y-73933819D01*
X136817345Y-73900504D01*
X136841618Y-73879661D01*
X136851193Y-73873429D01*
X136866768Y-73872068D01*
X136873099Y-73877467D01*
G36*
X137281124Y-73661728D02*
G01*
X137320066Y-73687377D01*
X137350866Y-73722650D01*
X137362381Y-73746443D01*
X137369381Y-73796169D01*
X137360040Y-73844164D01*
X137336291Y-73882547D01*
X137326963Y-73890772D01*
X137300557Y-73910690D01*
X137360848Y-74038141D01*
X137442059Y-74234093D01*
X137503933Y-74438313D01*
X137546800Y-74652394D01*
X137570993Y-74877926D01*
X137577124Y-75077682D01*
X137573712Y-75224672D01*
X137563437Y-75354827D01*
X137545563Y-75473574D01*
X137519354Y-75586342D01*
X137498815Y-75654955D01*
X137468368Y-75736987D01*
X137426952Y-75830997D01*
X137377686Y-75930665D01*
X137323684Y-76029672D01*
X137270857Y-76117323D01*
X137241321Y-76163729D01*
X137216056Y-76203479D01*
X137197810Y-76232246D01*
X137189434Y-76245534D01*
X137194321Y-76257729D01*
X137214538Y-76277895D01*
X137245386Y-76301472D01*
X137310309Y-76352845D01*
X137376016Y-76416479D01*
X137437047Y-76486221D01*
X137487937Y-76555915D01*
X137518545Y-76609279D01*
X137553095Y-76689128D01*
X137574433Y-76761905D01*
X137584874Y-76837629D01*
X137586945Y-76905066D01*
X137576086Y-77020467D01*
X137545188Y-77132328D01*
X137495987Y-77235343D01*
X137462750Y-77284984D01*
X137435175Y-77321741D01*
X137496225Y-77402894D01*
X137532255Y-77454242D01*
X137570613Y-77514339D01*
X137603634Y-77571117D01*
X137606810Y-77577014D01*
X137656345Y-77669982D01*
X137769255Y-77441786D01*
X137879742Y-77226784D01*
X137988243Y-77032834D01*
X138095982Y-76858121D01*
X138204185Y-76700830D01*
X138314075Y-76559147D01*
X138426878Y-76431257D01*
X138504467Y-76352605D01*
X138628950Y-76241502D01*
X138750200Y-76152962D01*
X138869160Y-76086836D01*
X138986770Y-76042977D01*
X139103972Y-76021236D01*
X139221707Y-76021466D01*
X139340917Y-76043519D01*
X139462542Y-76087246D01*
X139587524Y-76152499D01*
X139625835Y-76176265D01*
X139738046Y-76258565D01*
X139836093Y-76351205D01*
X139919199Y-76452068D01*
X139986591Y-76559035D01*
X140037492Y-76669990D01*
X140071127Y-76782815D01*
X140086721Y-76895393D01*
X140083499Y-77005605D01*
X140060685Y-77111335D01*
X140017504Y-77210464D01*
X140009522Y-77224138D01*
X139967783Y-77282863D01*
X139910567Y-77348425D01*
X139842435Y-77416194D01*
X139767951Y-77481537D01*
X139715409Y-77522663D01*
X139676019Y-77551978D01*
X139644162Y-77575822D01*
X139623999Y-77591072D01*
X139619139Y-77594895D01*
X139625036Y-77603996D01*
X139644107Y-77625315D01*
X139672877Y-77655066D01*
X139689509Y-77671619D01*
X139757910Y-77753170D01*
X139816458Y-77851565D01*
X139863304Y-77961991D01*
X139896598Y-78079634D01*
X139914493Y-78199678D01*
X139917102Y-78264228D01*
X139908130Y-78381577D01*
X139882350Y-78492330D01*
X139841250Y-78593721D01*
X139786317Y-78682986D01*
X139719038Y-78757360D01*
X139640903Y-78814077D01*
X139613719Y-78828107D01*
X139509087Y-78865839D01*
X139386866Y-78889603D01*
X139247784Y-78899491D01*
X139092566Y-78895596D01*
X138921940Y-78878011D01*
X138736633Y-78846829D01*
X138537372Y-78802142D01*
X138324883Y-78744044D01*
X138099893Y-78672626D01*
X137930663Y-78613046D01*
X137820008Y-78572564D01*
X137795866Y-78718578D01*
X137753030Y-78913354D01*
X137690764Y-79095947D01*
X137608640Y-79267293D01*
X137506231Y-79428329D01*
X137423258Y-79534228D01*
X137314822Y-79647279D01*
X137193857Y-79746765D01*
X137063822Y-79830581D01*
X136928175Y-79896622D01*
X136790374Y-79942784D01*
X136729531Y-79956334D01*
X136689546Y-79963931D01*
X136658226Y-79970106D01*
X136643514Y-79973255D01*
X136635688Y-79984969D01*
X136623584Y-80014497D01*
X136608873Y-80057339D01*
X136593667Y-80107452D01*
X136576809Y-80166365D01*
X136560376Y-80223781D01*
X136546500Y-80272257D01*
X136538811Y-80299114D01*
X136525628Y-80336932D01*
X136512258Y-80355729D01*
X136500000Y-80359728D01*
X136484712Y-80353083D01*
X136471596Y-80330514D01*
X136461189Y-80299114D01*
X136450794Y-80262807D01*
X136436178Y-80211743D01*
X136419471Y-80153364D01*
X136406333Y-80107452D01*
X136390689Y-80055982D01*
X136376029Y-80013455D01*
X136364023Y-79984371D01*
X136356485Y-79973255D01*
X136339344Y-79969615D01*
X136306870Y-79963240D01*
X136270469Y-79956334D01*
X136132814Y-79919651D01*
X135995781Y-79862154D01*
X135862825Y-79785947D01*
X135737404Y-79693133D01*
X135622974Y-79585815D01*
X135576731Y-79534228D01*
X135460970Y-79380330D01*
X135364743Y-79214564D01*
X135287917Y-79036622D01*
X135280414Y-79011796D01*
X135334015Y-79011796D01*
X135339372Y-79030696D01*
X135353819Y-79065300D01*
X135375126Y-79111187D01*
X135401067Y-79163934D01*
X135429412Y-79219118D01*
X135457934Y-79272316D01*
X135484405Y-79319106D01*
X135506597Y-79355066D01*
X135508015Y-79357185D01*
X135541421Y-79404438D01*
X135579128Y-79454363D01*
X135608646Y-79490932D01*
X135659987Y-79551546D01*
X137341033Y-79551546D01*
X137392441Y-79490932D01*
X137438430Y-79432196D01*
X137486502Y-79362985D01*
X137533888Y-79288071D01*
X137577819Y-79212231D01*
X137615523Y-79140238D01*
X137644233Y-79076867D01*
X137660841Y-79028255D01*
X137668594Y-78997364D01*
X136501251Y-78997364D01*
X136304356Y-78997416D01*
X136129430Y-78997583D01*
X135975352Y-78997878D01*
X135841000Y-78998316D01*
X135725254Y-78998909D01*
X135626991Y-78999671D01*
X135545090Y-79000618D01*
X135478430Y-79001762D01*
X135425889Y-79003117D01*
X135386347Y-79004698D01*
X135358681Y-79006517D01*
X135341771Y-79008590D01*
X135334494Y-79010930D01*
X135334015Y-79011796D01*
X135280414Y-79011796D01*
X135230360Y-78846195D01*
X135191941Y-78642973D01*
X135189637Y-78625739D01*
X135182618Y-78571614D01*
X135070650Y-78612882D01*
X134870135Y-78683029D01*
X134674241Y-78744185D01*
X134485000Y-78795944D01*
X134304445Y-78837898D01*
X134134607Y-78869639D01*
X133977521Y-78890760D01*
X133835217Y-78900853D01*
X133709729Y-78899511D01*
X133661686Y-78895344D01*
X133537910Y-78875638D01*
X133433391Y-78846125D01*
X133345897Y-78805450D01*
X133273197Y-78752259D01*
X133213059Y-78685198D01*
X133163253Y-78602914D01*
X133156254Y-78588582D01*
X133114305Y-78481123D01*
X133091058Y-78372110D01*
X133088525Y-78320836D01*
X133142626Y-78320836D01*
X133150949Y-78403928D01*
X133169686Y-78480954D01*
X133200217Y-78559775D01*
X133203636Y-78567326D01*
X133243730Y-78634464D01*
X133298466Y-78697768D01*
X133361279Y-78750591D01*
X133415738Y-78782114D01*
X133506610Y-78813382D01*
X133615022Y-78834294D01*
X133737756Y-78844603D01*
X133871592Y-78844064D01*
X134013309Y-78832430D01*
X134036022Y-78829585D01*
X134247840Y-78794568D01*
X134473675Y-78743379D01*
X134711572Y-78676523D01*
X134959575Y-78594501D01*
X134989038Y-78583982D01*
X135174809Y-78517150D01*
X135179079Y-78390773D01*
X135230000Y-78390773D01*
X135230000Y-78454728D01*
X137773528Y-78454728D01*
X137766408Y-78330287D01*
X137760547Y-78263060D01*
X137816252Y-78263060D01*
X137821954Y-78512174D01*
X137868136Y-78530811D01*
X137939484Y-78558222D01*
X138026724Y-78589564D01*
X138123473Y-78622685D01*
X138223350Y-78655429D01*
X138319972Y-78685644D01*
X138378735Y-78703118D01*
X138593291Y-78760255D01*
X138792609Y-78802908D01*
X138976182Y-78831017D01*
X139143500Y-78844517D01*
X139294056Y-78843349D01*
X139416290Y-78829447D01*
X139512927Y-78807479D01*
X139591872Y-78777436D01*
X139657765Y-78737114D01*
X139709942Y-78690006D01*
X139774118Y-78607281D01*
X139819819Y-78513726D01*
X139847495Y-78407928D01*
X139857597Y-78288470D01*
X139856526Y-78229811D01*
X139840665Y-78088035D01*
X139806955Y-77960390D01*
X139755506Y-77847166D01*
X139686427Y-77748656D01*
X139670098Y-77730306D01*
X139627268Y-77685713D01*
X139594795Y-77657447D01*
X139568600Y-77643813D01*
X139544605Y-77643112D01*
X139518734Y-77653650D01*
X139505226Y-77661713D01*
X139458944Y-77688662D01*
X139395930Y-77722084D01*
X139320825Y-77759719D01*
X139238272Y-77799303D01*
X139152912Y-77838574D01*
X139069387Y-77875271D01*
X139050619Y-77883239D01*
X138957139Y-77920633D01*
X138846529Y-77961571D01*
X138723166Y-78004679D01*
X138591430Y-78048584D01*
X138455698Y-78091912D01*
X138320349Y-78133289D01*
X138189763Y-78171341D01*
X138068317Y-78204694D01*
X137960390Y-78231975D01*
X137885859Y-78248683D01*
X137816252Y-78263060D01*
X137760547Y-78263060D01*
X137759747Y-78253895D01*
X137748535Y-78167625D01*
X137734147Y-78079964D01*
X137717961Y-77999400D01*
X137703276Y-77940955D01*
X137693293Y-77906319D01*
X135305696Y-77906319D01*
X135279732Y-78010228D01*
X135260890Y-78098477D01*
X135245499Y-78195531D01*
X135234820Y-78291740D01*
X135230115Y-78377451D01*
X135230000Y-78390773D01*
X135179079Y-78390773D01*
X135183355Y-78264228D01*
X135065246Y-78236895D01*
X134998203Y-78220410D01*
X134914263Y-78198273D01*
X134818492Y-78171947D01*
X134715960Y-78142901D01*
X134611733Y-78112598D01*
X134510881Y-78082507D01*
X134418470Y-78054092D01*
X134339569Y-78028820D01*
X134300591Y-78015696D01*
X134176818Y-77971175D01*
X134051015Y-77922730D01*
X133927016Y-77872035D01*
X133808655Y-77820767D01*
X133699765Y-77770601D01*
X133604180Y-77723212D01*
X133525735Y-77680275D01*
X133506185Y-77668554D01*
X133472853Y-77649909D01*
X133446470Y-77642358D01*
X133421874Y-77647357D01*
X133393904Y-77666363D01*
X133357397Y-77700832D01*
X133344130Y-77714282D01*
X133267283Y-77809128D01*
X133208642Y-77918026D01*
X133168325Y-78040673D01*
X133146453Y-78176766D01*
X133143336Y-78223819D01*
X133142626Y-78320836D01*
X133088525Y-78320836D01*
X133085266Y-78254894D01*
X133086693Y-78218046D01*
X133103868Y-78080679D01*
X133138812Y-77952052D01*
X133190427Y-77834840D01*
X133257615Y-77731716D01*
X133311015Y-77671619D01*
X133343100Y-77639059D01*
X133367208Y-77613101D01*
X133379873Y-77597552D01*
X133380861Y-77594895D01*
X133370500Y-77586909D01*
X133345711Y-77568322D01*
X133310646Y-77542238D01*
X133283911Y-77522438D01*
X133207269Y-77461203D01*
X133133882Y-77394100D01*
X133068395Y-77325854D01*
X133015453Y-77261184D01*
X132990478Y-77224148D01*
X132943731Y-77125261D01*
X132917706Y-77019820D01*
X132912710Y-76928698D01*
X132968525Y-76928698D01*
X132969169Y-76960394D01*
X132972559Y-77015291D01*
X132978635Y-77056568D01*
X132989764Y-77093692D01*
X133008315Y-77136134D01*
X133018186Y-77156403D01*
X133074973Y-77248295D01*
X133154171Y-77340169D01*
X133255105Y-77431635D01*
X133377099Y-77522299D01*
X133519476Y-77611771D01*
X133681560Y-77699659D01*
X133862676Y-77785571D01*
X134062148Y-77869116D01*
X134279298Y-77949901D01*
X134513452Y-78027535D01*
X134531500Y-78033164D01*
X134600348Y-78053987D01*
X134676581Y-78076095D01*
X134757097Y-78098684D01*
X134838796Y-78120951D01*
X134918579Y-78142094D01*
X134993343Y-78161309D01*
X135059989Y-78177795D01*
X135115416Y-78190747D01*
X135156524Y-78199364D01*
X135180212Y-78202841D01*
X135184669Y-78202301D01*
X135189475Y-78188430D01*
X135196977Y-78157156D01*
X135205952Y-78113834D01*
X135211356Y-78085273D01*
X135224462Y-78023924D01*
X135242534Y-77952675D01*
X135262502Y-77883276D01*
X135271256Y-77855882D01*
X135311093Y-77736173D01*
X135309078Y-77731736D01*
X137687715Y-77731736D01*
X137724028Y-77841244D01*
X137744940Y-77908541D01*
X137764527Y-77979266D01*
X137781511Y-78048020D01*
X137794618Y-78109401D01*
X137802571Y-78158011D01*
X137804386Y-78181301D01*
X137807638Y-78204155D01*
X137819280Y-78209081D01*
X137824841Y-78207791D01*
X137842821Y-78202968D01*
X137878686Y-78193763D01*
X137927904Y-78181327D01*
X137985942Y-78166807D01*
X138012454Y-78160216D01*
X138263100Y-78094106D01*
X138500962Y-78023487D01*
X138725116Y-77948828D01*
X138934641Y-77870599D01*
X139128614Y-77789271D01*
X139306113Y-77705311D01*
X139466216Y-77619190D01*
X139608001Y-77531377D01*
X139730545Y-77442341D01*
X139832927Y-77352553D01*
X139914223Y-77262482D01*
X139973511Y-77172596D01*
X139980994Y-77158060D01*
X140002829Y-77111304D01*
X140016532Y-77072763D01*
X140024475Y-77033013D01*
X140029027Y-76982632D01*
X140030161Y-76962596D01*
X140025184Y-76839396D01*
X139997675Y-76718093D01*
X139948182Y-76599913D01*
X139877254Y-76486079D01*
X139785439Y-76377816D01*
X139754250Y-76346936D01*
X139645360Y-76255110D01*
X139531263Y-76181317D01*
X139414113Y-76126285D01*
X139296064Y-76090743D01*
X139179268Y-76075421D01*
X139065881Y-76081048D01*
X139005364Y-76093438D01*
X138893310Y-76134032D01*
X138778736Y-76196846D01*
X138662206Y-76281216D01*
X138544283Y-76386476D01*
X138425533Y-76511964D01*
X138306520Y-76657014D01*
X138187807Y-76820963D01*
X138069960Y-77003146D01*
X137953542Y-77202899D01*
X137839118Y-77419558D01*
X137784575Y-77530391D01*
X137687715Y-77731736D01*
X135309078Y-77731736D01*
X135257951Y-77619200D01*
X135155032Y-77403905D01*
X135047824Y-77201117D01*
X134937149Y-77011828D01*
X134823828Y-76837030D01*
X134708682Y-76677714D01*
X134592532Y-76534873D01*
X134476200Y-76409498D01*
X134360506Y-76302582D01*
X134246273Y-76215115D01*
X134134320Y-76148091D01*
X134025470Y-76102500D01*
X133994636Y-76093438D01*
X133884062Y-76075901D01*
X133768887Y-76079716D01*
X133651266Y-76104154D01*
X133533352Y-76148486D01*
X133417299Y-76211983D01*
X133305260Y-76293916D01*
X133245750Y-76346936D01*
X133147717Y-76453518D01*
X133070432Y-76566197D01*
X133014441Y-76683761D01*
X132980290Y-76804999D01*
X132968525Y-76928698D01*
X132912710Y-76928698D01*
X132911675Y-76909826D01*
X132924909Y-76797277D01*
X132956681Y-76684172D01*
X133006264Y-76572512D01*
X133072929Y-76464294D01*
X133155948Y-76361519D01*
X133254595Y-76266185D01*
X133368142Y-76180291D01*
X133371182Y-76178271D01*
X133496469Y-76105441D01*
X133619546Y-76054719D01*
X133741019Y-76026203D01*
X133861491Y-76019991D01*
X133981568Y-76036180D01*
X134101854Y-76074869D01*
X134222954Y-76136155D01*
X134345472Y-76220138D01*
X134470013Y-76326913D01*
X134506715Y-76362274D01*
X134623336Y-76485504D01*
X134736410Y-76621933D01*
X134847122Y-76773333D01*
X134956661Y-76941473D01*
X135066214Y-77128125D01*
X135176968Y-77335058D01*
X135230855Y-77442009D01*
X135343875Y-77670426D01*
X135390709Y-77580554D01*
X135421505Y-77526225D01*
X135459413Y-77466059D01*
X135496845Y-77412031D01*
X135501184Y-77406212D01*
X135564825Y-77321741D01*
X135537249Y-77284984D01*
X135478967Y-77188878D01*
X135438062Y-77081090D01*
X135416267Y-76966923D01*
X135413055Y-76905066D01*
X135413459Y-76895419D01*
X135464040Y-76895419D01*
X135473846Y-77004092D01*
X135504554Y-77109498D01*
X135555071Y-77210166D01*
X135624304Y-77304621D01*
X135711160Y-77391391D01*
X135814544Y-77469002D01*
X135933365Y-77535983D01*
X136066528Y-77590859D01*
X136076997Y-77594423D01*
X136156852Y-77618909D01*
X136231998Y-77636303D01*
X136308715Y-77647415D01*
X136393290Y-77653053D01*
X136492003Y-77654028D01*
X136534636Y-77653341D01*
X136612848Y-77651127D01*
X136674050Y-77647841D01*
X136724321Y-77642791D01*
X136769739Y-77635286D01*
X136816383Y-77624634D01*
X136839248Y-77618667D01*
X136980280Y-77572409D01*
X137107990Y-77513494D01*
X137221255Y-77443288D01*
X137318952Y-77363159D01*
X137399960Y-77274475D01*
X137463155Y-77178601D01*
X137507416Y-77076906D01*
X137531619Y-76970757D01*
X137534643Y-76861520D01*
X137523770Y-76784954D01*
X137488557Y-76673780D01*
X137432382Y-76569313D01*
X137356726Y-76472836D01*
X137263074Y-76385635D01*
X137152907Y-76308997D01*
X137027709Y-76244206D01*
X136888962Y-76192548D01*
X136817435Y-76172657D01*
X136765651Y-76160373D01*
X136720998Y-76151717D01*
X136677290Y-76146071D01*
X136628345Y-76142820D01*
X136567978Y-76141348D01*
X136500000Y-76141035D01*
X136424172Y-76141454D01*
X136365222Y-76143121D01*
X136316945Y-76146649D01*
X136273138Y-76152654D01*
X136227596Y-76161749D01*
X136182500Y-76172464D01*
X136037806Y-76217080D01*
X135905922Y-76275533D01*
X135788332Y-76346534D01*
X135686518Y-76428798D01*
X135601965Y-76521038D01*
X135536156Y-76621968D01*
X135490574Y-76730302D01*
X135476230Y-76784954D01*
X135464040Y-76895419D01*
X135413459Y-76895419D01*
X135416615Y-76820109D01*
X135429268Y-76745900D01*
X135453329Y-76672422D01*
X135481455Y-76609279D01*
X135519793Y-76544292D01*
X135572801Y-76474153D01*
X135635018Y-76405016D01*
X135700982Y-76343036D01*
X135754621Y-76301468D01*
X135818123Y-76257732D01*
X135788693Y-76210343D01*
X135724618Y-76087960D01*
X135684192Y-75972455D01*
X135672388Y-75909787D01*
X135665198Y-75831715D01*
X135662617Y-75745462D01*
X135664642Y-75658249D01*
X135671267Y-75577298D01*
X135682490Y-75509829D01*
X135684453Y-75501771D01*
X135705952Y-75417860D01*
X135676192Y-75394450D01*
X135644897Y-75356554D01*
X135631127Y-75310078D01*
X135632270Y-75293355D01*
X135680273Y-75293355D01*
X135689793Y-75320115D01*
X135713029Y-75347132D01*
X135741995Y-75366780D01*
X135762708Y-75372091D01*
X135789388Y-75364409D01*
X135815188Y-75346988D01*
X135836956Y-75313487D01*
X135840001Y-75277009D01*
X135826694Y-75243629D01*
X135799404Y-75219423D01*
X135761929Y-75210455D01*
X135728815Y-75220588D01*
X135699759Y-75245871D01*
X135682319Y-75278631D01*
X135680273Y-75293355D01*
X135632270Y-75293355D01*
X135634482Y-75260995D01*
X135654561Y-75215281D01*
X135690639Y-75179127D01*
X135735769Y-75157224D01*
X135780150Y-75155593D01*
X135824840Y-75170938D01*
X135860827Y-75199189D01*
X135887568Y-75241053D01*
X135899436Y-75287339D01*
X135899593Y-75293018D01*
X135889292Y-75335048D01*
X135862265Y-75375474D01*
X135824138Y-75406889D01*
X135806671Y-75415417D01*
X135778105Y-75429314D01*
X135760289Y-75447830D01*
X135746674Y-75478772D01*
X135742249Y-75492216D01*
X135730692Y-75544140D01*
X135722568Y-75612171D01*
X135718052Y-75689554D01*
X135717322Y-75769535D01*
X135720553Y-75845360D01*
X135727923Y-75910275D01*
X135730896Y-75926273D01*
X135742704Y-75969706D01*
X135760960Y-76021690D01*
X135783226Y-76076706D01*
X135807064Y-76129238D01*
X135830036Y-76173769D01*
X135849702Y-76204781D01*
X135858025Y-76213911D01*
X135876069Y-76215922D01*
X135912586Y-76206792D01*
X135968325Y-76186330D01*
X135971124Y-76185209D01*
X136143658Y-76128002D01*
X136318957Y-76093434D01*
X136495575Y-76081505D01*
X136672062Y-76092214D01*
X136846972Y-76125560D01*
X137018857Y-76181543D01*
X137029286Y-76185721D01*
X137129227Y-76226196D01*
X137152693Y-76197536D01*
X137175511Y-76166002D01*
X137206046Y-76118665D01*
X137241548Y-76060305D01*
X137279269Y-75995701D01*
X137316461Y-75929633D01*
X137350376Y-75866882D01*
X137378263Y-75812228D01*
X137394974Y-75776182D01*
X137452283Y-75615435D01*
X137493139Y-75441550D01*
X137517692Y-75257437D01*
X137526091Y-75066006D01*
X137518488Y-74870166D01*
X137495032Y-74672826D01*
X137455874Y-74476897D01*
X137401163Y-74285288D01*
X137331050Y-74100908D01*
X137305599Y-74044364D01*
X137282039Y-73994997D01*
X137264405Y-73962296D01*
X137249165Y-73941861D01*
X137232786Y-73929291D01*
X137211739Y-73920188D01*
X137203660Y-73917364D01*
X137159252Y-73893175D01*
X137124129Y-73857209D01*
X137103562Y-73815794D01*
X137100364Y-73793288D01*
X137104074Y-73775694D01*
X137159665Y-73775694D01*
X137162521Y-73811046D01*
X137183492Y-73842990D01*
X137188511Y-73847253D01*
X137225237Y-73867768D01*
X137258193Y-73866362D01*
X137291365Y-73842866D01*
X137291388Y-73842843D01*
X137314899Y-73809669D01*
X137316319Y-73776715D01*
X137295819Y-73739993D01*
X137295798Y-73739966D01*
X137263930Y-73714496D01*
X137238071Y-73709546D01*
X137199613Y-73718908D01*
X137172753Y-73742969D01*
X137159665Y-73775694D01*
X137104074Y-73775694D01*
X137111034Y-73742695D01*
X137139695Y-73698985D01*
X137181320Y-73667184D01*
X137230884Y-73652318D01*
X137241833Y-73651819D01*
X137281124Y-73661728D01*
G37*
X137281124Y-73661728D02*
X137320066Y-73687377D01*
X137350866Y-73722650D01*
X137362381Y-73746443D01*
X137369381Y-73796169D01*
X137360040Y-73844164D01*
X137336291Y-73882547D01*
X137326963Y-73890772D01*
X137300557Y-73910690D01*
X137360848Y-74038141D01*
X137442059Y-74234093D01*
X137503933Y-74438313D01*
X137546800Y-74652394D01*
X137570993Y-74877926D01*
X137577124Y-75077682D01*
X137573712Y-75224672D01*
X137563437Y-75354827D01*
X137545563Y-75473574D01*
X137519354Y-75586342D01*
X137498815Y-75654955D01*
X137468368Y-75736987D01*
X137426952Y-75830997D01*
X137377686Y-75930665D01*
X137323684Y-76029672D01*
X137270857Y-76117323D01*
X137241321Y-76163729D01*
X137216056Y-76203479D01*
X137197810Y-76232246D01*
X137189434Y-76245534D01*
X137194321Y-76257729D01*
X137214538Y-76277895D01*
X137245386Y-76301472D01*
X137310309Y-76352845D01*
X137376016Y-76416479D01*
X137437047Y-76486221D01*
X137487937Y-76555915D01*
X137518545Y-76609279D01*
X137553095Y-76689128D01*
X137574433Y-76761905D01*
X137584874Y-76837629D01*
X137586945Y-76905066D01*
X137576086Y-77020467D01*
X137545188Y-77132328D01*
X137495987Y-77235343D01*
X137462750Y-77284984D01*
X137435175Y-77321741D01*
X137496225Y-77402894D01*
X137532255Y-77454242D01*
X137570613Y-77514339D01*
X137603634Y-77571117D01*
X137606810Y-77577014D01*
X137656345Y-77669982D01*
X137769255Y-77441786D01*
X137879742Y-77226784D01*
X137988243Y-77032834D01*
X138095982Y-76858121D01*
X138204185Y-76700830D01*
X138314075Y-76559147D01*
X138426878Y-76431257D01*
X138504467Y-76352605D01*
X138628950Y-76241502D01*
X138750200Y-76152962D01*
X138869160Y-76086836D01*
X138986770Y-76042977D01*
X139103972Y-76021236D01*
X139221707Y-76021466D01*
X139340917Y-76043519D01*
X139462542Y-76087246D01*
X139587524Y-76152499D01*
X139625835Y-76176265D01*
X139738046Y-76258565D01*
X139836093Y-76351205D01*
X139919199Y-76452068D01*
X139986591Y-76559035D01*
X140037492Y-76669990D01*
X140071127Y-76782815D01*
X140086721Y-76895393D01*
X140083499Y-77005605D01*
X140060685Y-77111335D01*
X140017504Y-77210464D01*
X140009522Y-77224138D01*
X139967783Y-77282863D01*
X139910567Y-77348425D01*
X139842435Y-77416194D01*
X139767951Y-77481537D01*
X139715409Y-77522663D01*
X139676019Y-77551978D01*
X139644162Y-77575822D01*
X139623999Y-77591072D01*
X139619139Y-77594895D01*
X139625036Y-77603996D01*
X139644107Y-77625315D01*
X139672877Y-77655066D01*
X139689509Y-77671619D01*
X139757910Y-77753170D01*
X139816458Y-77851565D01*
X139863304Y-77961991D01*
X139896598Y-78079634D01*
X139914493Y-78199678D01*
X139917102Y-78264228D01*
X139908130Y-78381577D01*
X139882350Y-78492330D01*
X139841250Y-78593721D01*
X139786317Y-78682986D01*
X139719038Y-78757360D01*
X139640903Y-78814077D01*
X139613719Y-78828107D01*
X139509087Y-78865839D01*
X139386866Y-78889603D01*
X139247784Y-78899491D01*
X139092566Y-78895596D01*
X138921940Y-78878011D01*
X138736633Y-78846829D01*
X138537372Y-78802142D01*
X138324883Y-78744044D01*
X138099893Y-78672626D01*
X137930663Y-78613046D01*
X137820008Y-78572564D01*
X137795866Y-78718578D01*
X137753030Y-78913354D01*
X137690764Y-79095947D01*
X137608640Y-79267293D01*
X137506231Y-79428329D01*
X137423258Y-79534228D01*
X137314822Y-79647279D01*
X137193857Y-79746765D01*
X137063822Y-79830581D01*
X136928175Y-79896622D01*
X136790374Y-79942784D01*
X136729531Y-79956334D01*
X136689546Y-79963931D01*
X136658226Y-79970106D01*
X136643514Y-79973255D01*
X136635688Y-79984969D01*
X136623584Y-80014497D01*
X136608873Y-80057339D01*
X136593667Y-80107452D01*
X136576809Y-80166365D01*
X136560376Y-80223781D01*
X136546500Y-80272257D01*
X136538811Y-80299114D01*
X136525628Y-80336932D01*
X136512258Y-80355729D01*
X136500000Y-80359728D01*
X136484712Y-80353083D01*
X136471596Y-80330514D01*
X136461189Y-80299114D01*
X136450794Y-80262807D01*
X136436178Y-80211743D01*
X136419471Y-80153364D01*
X136406333Y-80107452D01*
X136390689Y-80055982D01*
X136376029Y-80013455D01*
X136364023Y-79984371D01*
X136356485Y-79973255D01*
X136339344Y-79969615D01*
X136306870Y-79963240D01*
X136270469Y-79956334D01*
X136132814Y-79919651D01*
X135995781Y-79862154D01*
X135862825Y-79785947D01*
X135737404Y-79693133D01*
X135622974Y-79585815D01*
X135576731Y-79534228D01*
X135460970Y-79380330D01*
X135364743Y-79214564D01*
X135287917Y-79036622D01*
X135280414Y-79011796D01*
X135334015Y-79011796D01*
X135339372Y-79030696D01*
X135353819Y-79065300D01*
X135375126Y-79111187D01*
X135401067Y-79163934D01*
X135429412Y-79219118D01*
X135457934Y-79272316D01*
X135484405Y-79319106D01*
X135506597Y-79355066D01*
X135508015Y-79357185D01*
X135541421Y-79404438D01*
X135579128Y-79454363D01*
X135608646Y-79490932D01*
X135659987Y-79551546D01*
X137341033Y-79551546D01*
X137392441Y-79490932D01*
X137438430Y-79432196D01*
X137486502Y-79362985D01*
X137533888Y-79288071D01*
X137577819Y-79212231D01*
X137615523Y-79140238D01*
X137644233Y-79076867D01*
X137660841Y-79028255D01*
X137668594Y-78997364D01*
X136501251Y-78997364D01*
X136304356Y-78997416D01*
X136129430Y-78997583D01*
X135975352Y-78997878D01*
X135841000Y-78998316D01*
X135725254Y-78998909D01*
X135626991Y-78999671D01*
X135545090Y-79000618D01*
X135478430Y-79001762D01*
X135425889Y-79003117D01*
X135386347Y-79004698D01*
X135358681Y-79006517D01*
X135341771Y-79008590D01*
X135334494Y-79010930D01*
X135334015Y-79011796D01*
X135280414Y-79011796D01*
X135230360Y-78846195D01*
X135191941Y-78642973D01*
X135189637Y-78625739D01*
X135182618Y-78571614D01*
X135070650Y-78612882D01*
X134870135Y-78683029D01*
X134674241Y-78744185D01*
X134485000Y-78795944D01*
X134304445Y-78837898D01*
X134134607Y-78869639D01*
X133977521Y-78890760D01*
X133835217Y-78900853D01*
X133709729Y-78899511D01*
X133661686Y-78895344D01*
X133537910Y-78875638D01*
X133433391Y-78846125D01*
X133345897Y-78805450D01*
X133273197Y-78752259D01*
X133213059Y-78685198D01*
X133163253Y-78602914D01*
X133156254Y-78588582D01*
X133114305Y-78481123D01*
X133091058Y-78372110D01*
X133088525Y-78320836D01*
X133142626Y-78320836D01*
X133150949Y-78403928D01*
X133169686Y-78480954D01*
X133200217Y-78559775D01*
X133203636Y-78567326D01*
X133243730Y-78634464D01*
X133298466Y-78697768D01*
X133361279Y-78750591D01*
X133415738Y-78782114D01*
X133506610Y-78813382D01*
X133615022Y-78834294D01*
X133737756Y-78844603D01*
X133871592Y-78844064D01*
X134013309Y-78832430D01*
X134036022Y-78829585D01*
X134247840Y-78794568D01*
X134473675Y-78743379D01*
X134711572Y-78676523D01*
X134959575Y-78594501D01*
X134989038Y-78583982D01*
X135174809Y-78517150D01*
X135179079Y-78390773D01*
X135230000Y-78390773D01*
X135230000Y-78454728D01*
X137773528Y-78454728D01*
X137766408Y-78330287D01*
X137760547Y-78263060D01*
X137816252Y-78263060D01*
X137821954Y-78512174D01*
X137868136Y-78530811D01*
X137939484Y-78558222D01*
X138026724Y-78589564D01*
X138123473Y-78622685D01*
X138223350Y-78655429D01*
X138319972Y-78685644D01*
X138378735Y-78703118D01*
X138593291Y-78760255D01*
X138792609Y-78802908D01*
X138976182Y-78831017D01*
X139143500Y-78844517D01*
X139294056Y-78843349D01*
X139416290Y-78829447D01*
X139512927Y-78807479D01*
X139591872Y-78777436D01*
X139657765Y-78737114D01*
X139709942Y-78690006D01*
X139774118Y-78607281D01*
X139819819Y-78513726D01*
X139847495Y-78407928D01*
X139857597Y-78288470D01*
X139856526Y-78229811D01*
X139840665Y-78088035D01*
X139806955Y-77960390D01*
X139755506Y-77847166D01*
X139686427Y-77748656D01*
X139670098Y-77730306D01*
X139627268Y-77685713D01*
X139594795Y-77657447D01*
X139568600Y-77643813D01*
X139544605Y-77643112D01*
X139518734Y-77653650D01*
X139505226Y-77661713D01*
X139458944Y-77688662D01*
X139395930Y-77722084D01*
X139320825Y-77759719D01*
X139238272Y-77799303D01*
X139152912Y-77838574D01*
X139069387Y-77875271D01*
X139050619Y-77883239D01*
X138957139Y-77920633D01*
X138846529Y-77961571D01*
X138723166Y-78004679D01*
X138591430Y-78048584D01*
X138455698Y-78091912D01*
X138320349Y-78133289D01*
X138189763Y-78171341D01*
X138068317Y-78204694D01*
X137960390Y-78231975D01*
X137885859Y-78248683D01*
X137816252Y-78263060D01*
X137760547Y-78263060D01*
X137759747Y-78253895D01*
X137748535Y-78167625D01*
X137734147Y-78079964D01*
X137717961Y-77999400D01*
X137703276Y-77940955D01*
X137693293Y-77906319D01*
X135305696Y-77906319D01*
X135279732Y-78010228D01*
X135260890Y-78098477D01*
X135245499Y-78195531D01*
X135234820Y-78291740D01*
X135230115Y-78377451D01*
X135230000Y-78390773D01*
X135179079Y-78390773D01*
X135183355Y-78264228D01*
X135065246Y-78236895D01*
X134998203Y-78220410D01*
X134914263Y-78198273D01*
X134818492Y-78171947D01*
X134715960Y-78142901D01*
X134611733Y-78112598D01*
X134510881Y-78082507D01*
X134418470Y-78054092D01*
X134339569Y-78028820D01*
X134300591Y-78015696D01*
X134176818Y-77971175D01*
X134051015Y-77922730D01*
X133927016Y-77872035D01*
X133808655Y-77820767D01*
X133699765Y-77770601D01*
X133604180Y-77723212D01*
X133525735Y-77680275D01*
X133506185Y-77668554D01*
X133472853Y-77649909D01*
X133446470Y-77642358D01*
X133421874Y-77647357D01*
X133393904Y-77666363D01*
X133357397Y-77700832D01*
X133344130Y-77714282D01*
X133267283Y-77809128D01*
X133208642Y-77918026D01*
X133168325Y-78040673D01*
X133146453Y-78176766D01*
X133143336Y-78223819D01*
X133142626Y-78320836D01*
X133088525Y-78320836D01*
X133085266Y-78254894D01*
X133086693Y-78218046D01*
X133103868Y-78080679D01*
X133138812Y-77952052D01*
X133190427Y-77834840D01*
X133257615Y-77731716D01*
X133311015Y-77671619D01*
X133343100Y-77639059D01*
X133367208Y-77613101D01*
X133379873Y-77597552D01*
X133380861Y-77594895D01*
X133370500Y-77586909D01*
X133345711Y-77568322D01*
X133310646Y-77542238D01*
X133283911Y-77522438D01*
X133207269Y-77461203D01*
X133133882Y-77394100D01*
X133068395Y-77325854D01*
X133015453Y-77261184D01*
X132990478Y-77224148D01*
X132943731Y-77125261D01*
X132917706Y-77019820D01*
X132912710Y-76928698D01*
X132968525Y-76928698D01*
X132969169Y-76960394D01*
X132972559Y-77015291D01*
X132978635Y-77056568D01*
X132989764Y-77093692D01*
X133008315Y-77136134D01*
X133018186Y-77156403D01*
X133074973Y-77248295D01*
X133154171Y-77340169D01*
X133255105Y-77431635D01*
X133377099Y-77522299D01*
X133519476Y-77611771D01*
X133681560Y-77699659D01*
X133862676Y-77785571D01*
X134062148Y-77869116D01*
X134279298Y-77949901D01*
X134513452Y-78027535D01*
X134531500Y-78033164D01*
X134600348Y-78053987D01*
X134676581Y-78076095D01*
X134757097Y-78098684D01*
X134838796Y-78120951D01*
X134918579Y-78142094D01*
X134993343Y-78161309D01*
X135059989Y-78177795D01*
X135115416Y-78190747D01*
X135156524Y-78199364D01*
X135180212Y-78202841D01*
X135184669Y-78202301D01*
X135189475Y-78188430D01*
X135196977Y-78157156D01*
X135205952Y-78113834D01*
X135211356Y-78085273D01*
X135224462Y-78023924D01*
X135242534Y-77952675D01*
X135262502Y-77883276D01*
X135271256Y-77855882D01*
X135311093Y-77736173D01*
X135309078Y-77731736D01*
X137687715Y-77731736D01*
X137724028Y-77841244D01*
X137744940Y-77908541D01*
X137764527Y-77979266D01*
X137781511Y-78048020D01*
X137794618Y-78109401D01*
X137802571Y-78158011D01*
X137804386Y-78181301D01*
X137807638Y-78204155D01*
X137819280Y-78209081D01*
X137824841Y-78207791D01*
X137842821Y-78202968D01*
X137878686Y-78193763D01*
X137927904Y-78181327D01*
X137985942Y-78166807D01*
X138012454Y-78160216D01*
X138263100Y-78094106D01*
X138500962Y-78023487D01*
X138725116Y-77948828D01*
X138934641Y-77870599D01*
X139128614Y-77789271D01*
X139306113Y-77705311D01*
X139466216Y-77619190D01*
X139608001Y-77531377D01*
X139730545Y-77442341D01*
X139832927Y-77352553D01*
X139914223Y-77262482D01*
X139973511Y-77172596D01*
X139980994Y-77158060D01*
X140002829Y-77111304D01*
X140016532Y-77072763D01*
X140024475Y-77033013D01*
X140029027Y-76982632D01*
X140030161Y-76962596D01*
X140025184Y-76839396D01*
X139997675Y-76718093D01*
X139948182Y-76599913D01*
X139877254Y-76486079D01*
X139785439Y-76377816D01*
X139754250Y-76346936D01*
X139645360Y-76255110D01*
X139531263Y-76181317D01*
X139414113Y-76126285D01*
X139296064Y-76090743D01*
X139179268Y-76075421D01*
X139065881Y-76081048D01*
X139005364Y-76093438D01*
X138893310Y-76134032D01*
X138778736Y-76196846D01*
X138662206Y-76281216D01*
X138544283Y-76386476D01*
X138425533Y-76511964D01*
X138306520Y-76657014D01*
X138187807Y-76820963D01*
X138069960Y-77003146D01*
X137953542Y-77202899D01*
X137839118Y-77419558D01*
X137784575Y-77530391D01*
X137687715Y-77731736D01*
X135309078Y-77731736D01*
X135257951Y-77619200D01*
X135155032Y-77403905D01*
X135047824Y-77201117D01*
X134937149Y-77011828D01*
X134823828Y-76837030D01*
X134708682Y-76677714D01*
X134592532Y-76534873D01*
X134476200Y-76409498D01*
X134360506Y-76302582D01*
X134246273Y-76215115D01*
X134134320Y-76148091D01*
X134025470Y-76102500D01*
X133994636Y-76093438D01*
X133884062Y-76075901D01*
X133768887Y-76079716D01*
X133651266Y-76104154D01*
X133533352Y-76148486D01*
X133417299Y-76211983D01*
X133305260Y-76293916D01*
X133245750Y-76346936D01*
X133147717Y-76453518D01*
X133070432Y-76566197D01*
X133014441Y-76683761D01*
X132980290Y-76804999D01*
X132968525Y-76928698D01*
X132912710Y-76928698D01*
X132911675Y-76909826D01*
X132924909Y-76797277D01*
X132956681Y-76684172D01*
X133006264Y-76572512D01*
X133072929Y-76464294D01*
X133155948Y-76361519D01*
X133254595Y-76266185D01*
X133368142Y-76180291D01*
X133371182Y-76178271D01*
X133496469Y-76105441D01*
X133619546Y-76054719D01*
X133741019Y-76026203D01*
X133861491Y-76019991D01*
X133981568Y-76036180D01*
X134101854Y-76074869D01*
X134222954Y-76136155D01*
X134345472Y-76220138D01*
X134470013Y-76326913D01*
X134506715Y-76362274D01*
X134623336Y-76485504D01*
X134736410Y-76621933D01*
X134847122Y-76773333D01*
X134956661Y-76941473D01*
X135066214Y-77128125D01*
X135176968Y-77335058D01*
X135230855Y-77442009D01*
X135343875Y-77670426D01*
X135390709Y-77580554D01*
X135421505Y-77526225D01*
X135459413Y-77466059D01*
X135496845Y-77412031D01*
X135501184Y-77406212D01*
X135564825Y-77321741D01*
X135537249Y-77284984D01*
X135478967Y-77188878D01*
X135438062Y-77081090D01*
X135416267Y-76966923D01*
X135413055Y-76905066D01*
X135413459Y-76895419D01*
X135464040Y-76895419D01*
X135473846Y-77004092D01*
X135504554Y-77109498D01*
X135555071Y-77210166D01*
X135624304Y-77304621D01*
X135711160Y-77391391D01*
X135814544Y-77469002D01*
X135933365Y-77535983D01*
X136066528Y-77590859D01*
X136076997Y-77594423D01*
X136156852Y-77618909D01*
X136231998Y-77636303D01*
X136308715Y-77647415D01*
X136393290Y-77653053D01*
X136492003Y-77654028D01*
X136534636Y-77653341D01*
X136612848Y-77651127D01*
X136674050Y-77647841D01*
X136724321Y-77642791D01*
X136769739Y-77635286D01*
X136816383Y-77624634D01*
X136839248Y-77618667D01*
X136980280Y-77572409D01*
X137107990Y-77513494D01*
X137221255Y-77443288D01*
X137318952Y-77363159D01*
X137399960Y-77274475D01*
X137463155Y-77178601D01*
X137507416Y-77076906D01*
X137531619Y-76970757D01*
X137534643Y-76861520D01*
X137523770Y-76784954D01*
X137488557Y-76673780D01*
X137432382Y-76569313D01*
X137356726Y-76472836D01*
X137263074Y-76385635D01*
X137152907Y-76308997D01*
X137027709Y-76244206D01*
X136888962Y-76192548D01*
X136817435Y-76172657D01*
X136765651Y-76160373D01*
X136720998Y-76151717D01*
X136677290Y-76146071D01*
X136628345Y-76142820D01*
X136567978Y-76141348D01*
X136500000Y-76141035D01*
X136424172Y-76141454D01*
X136365222Y-76143121D01*
X136316945Y-76146649D01*
X136273138Y-76152654D01*
X136227596Y-76161749D01*
X136182500Y-76172464D01*
X136037806Y-76217080D01*
X135905922Y-76275533D01*
X135788332Y-76346534D01*
X135686518Y-76428798D01*
X135601965Y-76521038D01*
X135536156Y-76621968D01*
X135490574Y-76730302D01*
X135476230Y-76784954D01*
X135464040Y-76895419D01*
X135413459Y-76895419D01*
X135416615Y-76820109D01*
X135429268Y-76745900D01*
X135453329Y-76672422D01*
X135481455Y-76609279D01*
X135519793Y-76544292D01*
X135572801Y-76474153D01*
X135635018Y-76405016D01*
X135700982Y-76343036D01*
X135754621Y-76301468D01*
X135818123Y-76257732D01*
X135788693Y-76210343D01*
X135724618Y-76087960D01*
X135684192Y-75972455D01*
X135672388Y-75909787D01*
X135665198Y-75831715D01*
X135662617Y-75745462D01*
X135664642Y-75658249D01*
X135671267Y-75577298D01*
X135682490Y-75509829D01*
X135684453Y-75501771D01*
X135705952Y-75417860D01*
X135676192Y-75394450D01*
X135644897Y-75356554D01*
X135631127Y-75310078D01*
X135632270Y-75293355D01*
X135680273Y-75293355D01*
X135689793Y-75320115D01*
X135713029Y-75347132D01*
X135741995Y-75366780D01*
X135762708Y-75372091D01*
X135789388Y-75364409D01*
X135815188Y-75346988D01*
X135836956Y-75313487D01*
X135840001Y-75277009D01*
X135826694Y-75243629D01*
X135799404Y-75219423D01*
X135761929Y-75210455D01*
X135728815Y-75220588D01*
X135699759Y-75245871D01*
X135682319Y-75278631D01*
X135680273Y-75293355D01*
X135632270Y-75293355D01*
X135634482Y-75260995D01*
X135654561Y-75215281D01*
X135690639Y-75179127D01*
X135735769Y-75157224D01*
X135780150Y-75155593D01*
X135824840Y-75170938D01*
X135860827Y-75199189D01*
X135887568Y-75241053D01*
X135899436Y-75287339D01*
X135899593Y-75293018D01*
X135889292Y-75335048D01*
X135862265Y-75375474D01*
X135824138Y-75406889D01*
X135806671Y-75415417D01*
X135778105Y-75429314D01*
X135760289Y-75447830D01*
X135746674Y-75478772D01*
X135742249Y-75492216D01*
X135730692Y-75544140D01*
X135722568Y-75612171D01*
X135718052Y-75689554D01*
X135717322Y-75769535D01*
X135720553Y-75845360D01*
X135727923Y-75910275D01*
X135730896Y-75926273D01*
X135742704Y-75969706D01*
X135760960Y-76021690D01*
X135783226Y-76076706D01*
X135807064Y-76129238D01*
X135830036Y-76173769D01*
X135849702Y-76204781D01*
X135858025Y-76213911D01*
X135876069Y-76215922D01*
X135912586Y-76206792D01*
X135968325Y-76186330D01*
X135971124Y-76185209D01*
X136143658Y-76128002D01*
X136318957Y-76093434D01*
X136495575Y-76081505D01*
X136672062Y-76092214D01*
X136846972Y-76125560D01*
X137018857Y-76181543D01*
X137029286Y-76185721D01*
X137129227Y-76226196D01*
X137152693Y-76197536D01*
X137175511Y-76166002D01*
X137206046Y-76118665D01*
X137241548Y-76060305D01*
X137279269Y-75995701D01*
X137316461Y-75929633D01*
X137350376Y-75866882D01*
X137378263Y-75812228D01*
X137394974Y-75776182D01*
X137452283Y-75615435D01*
X137493139Y-75441550D01*
X137517692Y-75257437D01*
X137526091Y-75066006D01*
X137518488Y-74870166D01*
X137495032Y-74672826D01*
X137455874Y-74476897D01*
X137401163Y-74285288D01*
X137331050Y-74100908D01*
X137305599Y-74044364D01*
X137282039Y-73994997D01*
X137264405Y-73962296D01*
X137249165Y-73941861D01*
X137232786Y-73929291D01*
X137211739Y-73920188D01*
X137203660Y-73917364D01*
X137159252Y-73893175D01*
X137124129Y-73857209D01*
X137103562Y-73815794D01*
X137100364Y-73793288D01*
X137104074Y-73775694D01*
X137159665Y-73775694D01*
X137162521Y-73811046D01*
X137183492Y-73842990D01*
X137188511Y-73847253D01*
X137225237Y-73867768D01*
X137258193Y-73866362D01*
X137291365Y-73842866D01*
X137291388Y-73842843D01*
X137314899Y-73809669D01*
X137316319Y-73776715D01*
X137295819Y-73739993D01*
X137295798Y-73739966D01*
X137263930Y-73714496D01*
X137238071Y-73709546D01*
X137199613Y-73718908D01*
X137172753Y-73742969D01*
X137159665Y-73775694D01*
X137104074Y-73775694D01*
X137111034Y-73742695D01*
X137139695Y-73698985D01*
X137181320Y-73667184D01*
X137230884Y-73652318D01*
X137241833Y-73651819D01*
X137281124Y-73661728D01*
D11*
X135620000Y-48370000D02*
X128380000Y-48370000D01*
X135620000Y-45630000D02*
X128380000Y-45630000D01*
X135620000Y-48370000D02*
X135620000Y-45630000D01*
X128380000Y-48370000D02*
X128380000Y-45630000D01*
D13*
G36*
X161099744Y-49419918D02*
G01*
X161155201Y-49447568D01*
X161204148Y-49498480D01*
X161217629Y-49517338D01*
X161232314Y-49542015D01*
X161241842Y-49568816D01*
X161247293Y-49604587D01*
X161249747Y-49656169D01*
X161250286Y-49724267D01*
X161247852Y-49817588D01*
X161239394Y-49887657D01*
X161223174Y-49939931D01*
X161197454Y-49979869D01*
X161160497Y-50012929D01*
X161157782Y-50014886D01*
X161121360Y-50034908D01*
X161077502Y-50044815D01*
X161021724Y-50047257D01*
X160931048Y-50047257D01*
X160931010Y-50135283D01*
X160930166Y-50184308D01*
X160925024Y-50213065D01*
X160911587Y-50230311D01*
X160885858Y-50244808D01*
X160879679Y-50247769D01*
X160850764Y-50261648D01*
X160828376Y-50270414D01*
X160811729Y-50271171D01*
X160800036Y-50261023D01*
X160792510Y-50237073D01*
X160788366Y-50196426D01*
X160786815Y-50136186D01*
X160787071Y-50053455D01*
X160788349Y-49945339D01*
X160788748Y-49913000D01*
X160790185Y-49801524D01*
X160791472Y-49728603D01*
X160930971Y-49728603D01*
X160931755Y-49790499D01*
X160935240Y-49830997D01*
X160943124Y-49857708D01*
X160957105Y-49878244D01*
X160966597Y-49888260D01*
X161005404Y-49917567D01*
X161039763Y-49919952D01*
X161075216Y-49895750D01*
X161076114Y-49894857D01*
X161090539Y-49876153D01*
X161099313Y-49850732D01*
X161103739Y-49811584D01*
X161105118Y-49751697D01*
X161105143Y-49738430D01*
X161101812Y-49655901D01*
X161090969Y-49598691D01*
X161071340Y-49563766D01*
X161041650Y-49548094D01*
X161024491Y-49546514D01*
X160983766Y-49553926D01*
X160955832Y-49578330D01*
X160939017Y-49622980D01*
X160931650Y-49691130D01*
X160930971Y-49728603D01*
X160791472Y-49728603D01*
X160791708Y-49715245D01*
X160793677Y-49650333D01*
X160796450Y-49602958D01*
X160800388Y-49569290D01*
X160805849Y-49545498D01*
X160813192Y-49527753D01*
X160822777Y-49512224D01*
X160826887Y-49506381D01*
X160881405Y-49451185D01*
X160950336Y-49419890D01*
X161030072Y-49411165D01*
X161099744Y-49419918D01*
G37*
X161099744Y-49419918D02*
X161155201Y-49447568D01*
X161204148Y-49498480D01*
X161217629Y-49517338D01*
X161232314Y-49542015D01*
X161241842Y-49568816D01*
X161247293Y-49604587D01*
X161249747Y-49656169D01*
X161250286Y-49724267D01*
X161247852Y-49817588D01*
X161239394Y-49887657D01*
X161223174Y-49939931D01*
X161197454Y-49979869D01*
X161160497Y-50012929D01*
X161157782Y-50014886D01*
X161121360Y-50034908D01*
X161077502Y-50044815D01*
X161021724Y-50047257D01*
X160931048Y-50047257D01*
X160931010Y-50135283D01*
X160930166Y-50184308D01*
X160925024Y-50213065D01*
X160911587Y-50230311D01*
X160885858Y-50244808D01*
X160879679Y-50247769D01*
X160850764Y-50261648D01*
X160828376Y-50270414D01*
X160811729Y-50271171D01*
X160800036Y-50261023D01*
X160792510Y-50237073D01*
X160788366Y-50196426D01*
X160786815Y-50136186D01*
X160787071Y-50053455D01*
X160788349Y-49945339D01*
X160788748Y-49913000D01*
X160790185Y-49801524D01*
X160791472Y-49728603D01*
X160930971Y-49728603D01*
X160931755Y-49790499D01*
X160935240Y-49830997D01*
X160943124Y-49857708D01*
X160957105Y-49878244D01*
X160966597Y-49888260D01*
X161005404Y-49917567D01*
X161039763Y-49919952D01*
X161075216Y-49895750D01*
X161076114Y-49894857D01*
X161090539Y-49876153D01*
X161099313Y-49850732D01*
X161103739Y-49811584D01*
X161105118Y-49751697D01*
X161105143Y-49738430D01*
X161101812Y-49655901D01*
X161090969Y-49598691D01*
X161071340Y-49563766D01*
X161041650Y-49548094D01*
X161024491Y-49546514D01*
X160983766Y-49553926D01*
X160955832Y-49578330D01*
X160939017Y-49622980D01*
X160931650Y-49691130D01*
X160930971Y-49728603D01*
X160791472Y-49728603D01*
X160791708Y-49715245D01*
X160793677Y-49650333D01*
X160796450Y-49602958D01*
X160800388Y-49569290D01*
X160805849Y-49545498D01*
X160813192Y-49527753D01*
X160822777Y-49512224D01*
X160826887Y-49506381D01*
X160881405Y-49451185D01*
X160950336Y-49419890D01*
X161030072Y-49411165D01*
X161099744Y-49419918D01*
G36*
X162216093Y-49427780D02*
G01*
X162262672Y-49454723D01*
X162295057Y-49481466D01*
X162318742Y-49509484D01*
X162335059Y-49543748D01*
X162345339Y-49589227D01*
X162350914Y-49650892D01*
X162353116Y-49733711D01*
X162353371Y-49793246D01*
X162353371Y-50012391D01*
X162291686Y-50040044D01*
X162230000Y-50067697D01*
X162222743Y-49827670D01*
X162219744Y-49738028D01*
X162216598Y-49672962D01*
X162212701Y-49628026D01*
X162207447Y-49598770D01*
X162200231Y-49580748D01*
X162190450Y-49569511D01*
X162187312Y-49567079D01*
X162139761Y-49548083D01*
X162091697Y-49555600D01*
X162063086Y-49575543D01*
X162051447Y-49589675D01*
X162043391Y-49608220D01*
X162038271Y-49636334D01*
X162035441Y-49679173D01*
X162034256Y-49741895D01*
X162034057Y-49807261D01*
X162034018Y-49889268D01*
X162032614Y-49947316D01*
X162027914Y-49986465D01*
X162017987Y-50011780D01*
X162000903Y-50028323D01*
X161974732Y-50041156D01*
X161939775Y-50054491D01*
X161901596Y-50069007D01*
X161906141Y-49811389D01*
X161907971Y-49718519D01*
X161910112Y-49649889D01*
X161913181Y-49600711D01*
X161917794Y-49566198D01*
X161924568Y-49541562D01*
X161934119Y-49522016D01*
X161945634Y-49504770D01*
X162001190Y-49449680D01*
X162068980Y-49417822D01*
X162142713Y-49410191D01*
X162216093Y-49427780D01*
G37*
X162216093Y-49427780D02*
X162262672Y-49454723D01*
X162295057Y-49481466D01*
X162318742Y-49509484D01*
X162335059Y-49543748D01*
X162345339Y-49589227D01*
X162350914Y-49650892D01*
X162353116Y-49733711D01*
X162353371Y-49793246D01*
X162353371Y-50012391D01*
X162291686Y-50040044D01*
X162230000Y-50067697D01*
X162222743Y-49827670D01*
X162219744Y-49738028D01*
X162216598Y-49672962D01*
X162212701Y-49628026D01*
X162207447Y-49598770D01*
X162200231Y-49580748D01*
X162190450Y-49569511D01*
X162187312Y-49567079D01*
X162139761Y-49548083D01*
X162091697Y-49555600D01*
X162063086Y-49575543D01*
X162051447Y-49589675D01*
X162043391Y-49608220D01*
X162038271Y-49636334D01*
X162035441Y-49679173D01*
X162034256Y-49741895D01*
X162034057Y-49807261D01*
X162034018Y-49889268D01*
X162032614Y-49947316D01*
X162027914Y-49986465D01*
X162017987Y-50011780D01*
X162000903Y-50028323D01*
X161974732Y-50041156D01*
X161939775Y-50054491D01*
X161901596Y-50069007D01*
X161906141Y-49811389D01*
X161907971Y-49718519D01*
X161910112Y-49649889D01*
X161913181Y-49600711D01*
X161917794Y-49566198D01*
X161924568Y-49541562D01*
X161934119Y-49522016D01*
X161945634Y-49504770D01*
X162001190Y-49449680D01*
X162068980Y-49417822D01*
X162142713Y-49410191D01*
X162216093Y-49427780D01*
G36*
X160541115Y-49421962D02*
G01*
X160609145Y-49457733D01*
X160659351Y-49515301D01*
X160677185Y-49552312D01*
X160691063Y-49607882D01*
X160698167Y-49678096D01*
X160698840Y-49754727D01*
X160693427Y-49829552D01*
X160682270Y-49894342D01*
X160665714Y-49940873D01*
X160660626Y-49948887D01*
X160600355Y-50008707D01*
X160528769Y-50044535D01*
X160451092Y-50055020D01*
X160372548Y-50038810D01*
X160350689Y-50029092D01*
X160308122Y-49999143D01*
X160270763Y-49959433D01*
X160267232Y-49954397D01*
X160252881Y-49930124D01*
X160243394Y-49904178D01*
X160237790Y-49870022D01*
X160235086Y-49821119D01*
X160234299Y-49750935D01*
X160234286Y-49735200D01*
X160234322Y-49730192D01*
X160379429Y-49730192D01*
X160380273Y-49796430D01*
X160383596Y-49840386D01*
X160390583Y-49868779D01*
X160402416Y-49888325D01*
X160408457Y-49894857D01*
X160443186Y-49919680D01*
X160476903Y-49918548D01*
X160510995Y-49897016D01*
X160531329Y-49874029D01*
X160543371Y-49840478D01*
X160550134Y-49787569D01*
X160550598Y-49781399D01*
X160551752Y-49685513D01*
X160539688Y-49614299D01*
X160514570Y-49568194D01*
X160476560Y-49547635D01*
X160462992Y-49546514D01*
X160427364Y-49552152D01*
X160402994Y-49571686D01*
X160388093Y-49609042D01*
X160380875Y-49668150D01*
X160379429Y-49730192D01*
X160234322Y-49730192D01*
X160234826Y-49660413D01*
X160237096Y-49608159D01*
X160242068Y-49571949D01*
X160250713Y-49545299D01*
X160264005Y-49521722D01*
X160266943Y-49517338D01*
X160316313Y-49458249D01*
X160370109Y-49423947D01*
X160435602Y-49410331D01*
X160457842Y-49409665D01*
X160541115Y-49421962D01*
G37*
X160541115Y-49421962D02*
X160609145Y-49457733D01*
X160659351Y-49515301D01*
X160677185Y-49552312D01*
X160691063Y-49607882D01*
X160698167Y-49678096D01*
X160698840Y-49754727D01*
X160693427Y-49829552D01*
X160682270Y-49894342D01*
X160665714Y-49940873D01*
X160660626Y-49948887D01*
X160600355Y-50008707D01*
X160528769Y-50044535D01*
X160451092Y-50055020D01*
X160372548Y-50038810D01*
X160350689Y-50029092D01*
X160308122Y-49999143D01*
X160270763Y-49959433D01*
X160267232Y-49954397D01*
X160252881Y-49930124D01*
X160243394Y-49904178D01*
X160237790Y-49870022D01*
X160235086Y-49821119D01*
X160234299Y-49750935D01*
X160234286Y-49735200D01*
X160234322Y-49730192D01*
X160379429Y-49730192D01*
X160380273Y-49796430D01*
X160383596Y-49840386D01*
X160390583Y-49868779D01*
X160402416Y-49888325D01*
X160408457Y-49894857D01*
X160443186Y-49919680D01*
X160476903Y-49918548D01*
X160510995Y-49897016D01*
X160531329Y-49874029D01*
X160543371Y-49840478D01*
X160550134Y-49787569D01*
X160550598Y-49781399D01*
X160551752Y-49685513D01*
X160539688Y-49614299D01*
X160514570Y-49568194D01*
X160476560Y-49547635D01*
X160462992Y-49546514D01*
X160427364Y-49552152D01*
X160402994Y-49571686D01*
X160388093Y-49609042D01*
X160380875Y-49668150D01*
X160379429Y-49730192D01*
X160234322Y-49730192D01*
X160234826Y-49660413D01*
X160237096Y-49608159D01*
X160242068Y-49571949D01*
X160250713Y-49545299D01*
X160264005Y-49521722D01*
X160266943Y-49517338D01*
X160316313Y-49458249D01*
X160370109Y-49423947D01*
X160435602Y-49410331D01*
X160457842Y-49409665D01*
X160541115Y-49421962D01*
G36*
X161668303Y-49431239D02*
G01*
X161725527Y-49469735D01*
X161769749Y-49525335D01*
X161796167Y-49596086D01*
X161801510Y-49648162D01*
X161800903Y-49669893D01*
X161795822Y-49686531D01*
X161781855Y-49701437D01*
X161754589Y-49717973D01*
X161709612Y-49739498D01*
X161642511Y-49769374D01*
X161642171Y-49769524D01*
X161580407Y-49797813D01*
X161529759Y-49822933D01*
X161495404Y-49842179D01*
X161482518Y-49852848D01*
X161482514Y-49852934D01*
X161493872Y-49876166D01*
X161520431Y-49901774D01*
X161550923Y-49920221D01*
X161566370Y-49923886D01*
X161608515Y-49911212D01*
X161644808Y-49879471D01*
X161662517Y-49844572D01*
X161679552Y-49818845D01*
X161712922Y-49789546D01*
X161752149Y-49764235D01*
X161786756Y-49750471D01*
X161793993Y-49749714D01*
X161802139Y-49762160D01*
X161802630Y-49793972D01*
X161796643Y-49836866D01*
X161785357Y-49882558D01*
X161769950Y-49922761D01*
X161769171Y-49924322D01*
X161722804Y-49989062D01*
X161662711Y-50033097D01*
X161594465Y-50054711D01*
X161523638Y-50052185D01*
X161455804Y-50023804D01*
X161452788Y-50021808D01*
X161399427Y-49973448D01*
X161364340Y-49910352D01*
X161344922Y-49827387D01*
X161342316Y-49804078D01*
X161337701Y-49694055D01*
X161343233Y-49642748D01*
X161482514Y-49642748D01*
X161484324Y-49674753D01*
X161494222Y-49684093D01*
X161518898Y-49677105D01*
X161557795Y-49660587D01*
X161601275Y-49639881D01*
X161602356Y-49639333D01*
X161639209Y-49619949D01*
X161654000Y-49607013D01*
X161650353Y-49593451D01*
X161634995Y-49575632D01*
X161595923Y-49549845D01*
X161553846Y-49547950D01*
X161516103Y-49566717D01*
X161490034Y-49602915D01*
X161482514Y-49642748D01*
X161343233Y-49642748D01*
X161347194Y-49606027D01*
X161371550Y-49536212D01*
X161405456Y-49487302D01*
X161466653Y-49437878D01*
X161534063Y-49413359D01*
X161602880Y-49411797D01*
X161668303Y-49431239D01*
G37*
X161668303Y-49431239D02*
X161725527Y-49469735D01*
X161769749Y-49525335D01*
X161796167Y-49596086D01*
X161801510Y-49648162D01*
X161800903Y-49669893D01*
X161795822Y-49686531D01*
X161781855Y-49701437D01*
X161754589Y-49717973D01*
X161709612Y-49739498D01*
X161642511Y-49769374D01*
X161642171Y-49769524D01*
X161580407Y-49797813D01*
X161529759Y-49822933D01*
X161495404Y-49842179D01*
X161482518Y-49852848D01*
X161482514Y-49852934D01*
X161493872Y-49876166D01*
X161520431Y-49901774D01*
X161550923Y-49920221D01*
X161566370Y-49923886D01*
X161608515Y-49911212D01*
X161644808Y-49879471D01*
X161662517Y-49844572D01*
X161679552Y-49818845D01*
X161712922Y-49789546D01*
X161752149Y-49764235D01*
X161786756Y-49750471D01*
X161793993Y-49749714D01*
X161802139Y-49762160D01*
X161802630Y-49793972D01*
X161796643Y-49836866D01*
X161785357Y-49882558D01*
X161769950Y-49922761D01*
X161769171Y-49924322D01*
X161722804Y-49989062D01*
X161662711Y-50033097D01*
X161594465Y-50054711D01*
X161523638Y-50052185D01*
X161455804Y-50023804D01*
X161452788Y-50021808D01*
X161399427Y-49973448D01*
X161364340Y-49910352D01*
X161344922Y-49827387D01*
X161342316Y-49804078D01*
X161337701Y-49694055D01*
X161343233Y-49642748D01*
X161482514Y-49642748D01*
X161484324Y-49674753D01*
X161494222Y-49684093D01*
X161518898Y-49677105D01*
X161557795Y-49660587D01*
X161601275Y-49639881D01*
X161602356Y-49639333D01*
X161639209Y-49619949D01*
X161654000Y-49607013D01*
X161650353Y-49593451D01*
X161634995Y-49575632D01*
X161595923Y-49549845D01*
X161553846Y-49547950D01*
X161516103Y-49566717D01*
X161490034Y-49602915D01*
X161482514Y-49642748D01*
X161343233Y-49642748D01*
X161347194Y-49606027D01*
X161371550Y-49536212D01*
X161405456Y-49487302D01*
X161466653Y-49437878D01*
X161534063Y-49413359D01*
X161602880Y-49411797D01*
X161668303Y-49431239D01*
G36*
X162875886Y-49351289D02*
G01*
X162880139Y-49410613D01*
X162885025Y-49445572D01*
X162891795Y-49460820D01*
X162901702Y-49461015D01*
X162904914Y-49459195D01*
X162947644Y-49446015D01*
X163003227Y-49446785D01*
X163059737Y-49460333D01*
X163095082Y-49477861D01*
X163131321Y-49505861D01*
X163157813Y-49537549D01*
X163175999Y-49577813D01*
X163187322Y-49631543D01*
X163193222Y-49703626D01*
X163195143Y-49798951D01*
X163195177Y-49817237D01*
X163195200Y-50022646D01*
X163149491Y-50038580D01*
X163117027Y-50049420D01*
X163099215Y-50054468D01*
X163098691Y-50054514D01*
X163096937Y-50040828D01*
X163095444Y-50003076D01*
X163094326Y-49946224D01*
X163093697Y-49875234D01*
X163093600Y-49832073D01*
X163093398Y-49746973D01*
X163092358Y-49685981D01*
X163089831Y-49644177D01*
X163085164Y-49616642D01*
X163077707Y-49598456D01*
X163066811Y-49584698D01*
X163060007Y-49578073D01*
X163013272Y-49551375D01*
X162962272Y-49549375D01*
X162916001Y-49571955D01*
X162907444Y-49580107D01*
X162894893Y-49595436D01*
X162886188Y-49613618D01*
X162880631Y-49639909D01*
X162877526Y-49679562D01*
X162876176Y-49737832D01*
X162875886Y-49818173D01*
X162875886Y-50022646D01*
X162830177Y-50038580D01*
X162797713Y-50049420D01*
X162779901Y-50054468D01*
X162779377Y-50054514D01*
X162778037Y-50040623D01*
X162776828Y-50001439D01*
X162775801Y-49940700D01*
X162775002Y-49862141D01*
X162774481Y-49769498D01*
X162774286Y-49666509D01*
X162774286Y-49269342D01*
X162821457Y-49249444D01*
X162868629Y-49229547D01*
X162875886Y-49351289D01*
G37*
X162875886Y-49351289D02*
X162880139Y-49410613D01*
X162885025Y-49445572D01*
X162891795Y-49460820D01*
X162901702Y-49461015D01*
X162904914Y-49459195D01*
X162947644Y-49446015D01*
X163003227Y-49446785D01*
X163059737Y-49460333D01*
X163095082Y-49477861D01*
X163131321Y-49505861D01*
X163157813Y-49537549D01*
X163175999Y-49577813D01*
X163187322Y-49631543D01*
X163193222Y-49703626D01*
X163195143Y-49798951D01*
X163195177Y-49817237D01*
X163195200Y-50022646D01*
X163149491Y-50038580D01*
X163117027Y-50049420D01*
X163099215Y-50054468D01*
X163098691Y-50054514D01*
X163096937Y-50040828D01*
X163095444Y-50003076D01*
X163094326Y-49946224D01*
X163093697Y-49875234D01*
X163093600Y-49832073D01*
X163093398Y-49746973D01*
X163092358Y-49685981D01*
X163089831Y-49644177D01*
X163085164Y-49616642D01*
X163077707Y-49598456D01*
X163066811Y-49584698D01*
X163060007Y-49578073D01*
X163013272Y-49551375D01*
X162962272Y-49549375D01*
X162916001Y-49571955D01*
X162907444Y-49580107D01*
X162894893Y-49595436D01*
X162886188Y-49613618D01*
X162880631Y-49639909D01*
X162877526Y-49679562D01*
X162876176Y-49737832D01*
X162875886Y-49818173D01*
X162875886Y-50022646D01*
X162830177Y-50038580D01*
X162797713Y-50049420D01*
X162779901Y-50054468D01*
X162779377Y-50054514D01*
X162778037Y-50040623D01*
X162776828Y-50001439D01*
X162775801Y-49940700D01*
X162775002Y-49862141D01*
X162774481Y-49769498D01*
X162774286Y-49666509D01*
X162774286Y-49269342D01*
X162821457Y-49249444D01*
X162868629Y-49229547D01*
X162875886Y-49351289D01*
G36*
X163539744Y-49450968D02*
G01*
X163596616Y-49472087D01*
X163597267Y-49472493D01*
X163632440Y-49498380D01*
X163658407Y-49528633D01*
X163676670Y-49568058D01*
X163688732Y-49621462D01*
X163696096Y-49693651D01*
X163700264Y-49789432D01*
X163700629Y-49803078D01*
X163705876Y-50008842D01*
X163661716Y-50031678D01*
X163629763Y-50047110D01*
X163610470Y-50054423D01*
X163609578Y-50054514D01*
X163606239Y-50041022D01*
X163603587Y-50004626D01*
X163601956Y-49951452D01*
X163601600Y-49908393D01*
X163601592Y-49838641D01*
X163598403Y-49794837D01*
X163587288Y-49773944D01*
X163563501Y-49772925D01*
X163522296Y-49788741D01*
X163460086Y-49817815D01*
X163414341Y-49841963D01*
X163390813Y-49862913D01*
X163383896Y-49885747D01*
X163383886Y-49886877D01*
X163395299Y-49926212D01*
X163429092Y-49947462D01*
X163480809Y-49950539D01*
X163518061Y-49950006D01*
X163537703Y-49960735D01*
X163549952Y-49986505D01*
X163557002Y-50019337D01*
X163546842Y-50037966D01*
X163543017Y-50040632D01*
X163507001Y-50051340D01*
X163456566Y-50052856D01*
X163404626Y-50045759D01*
X163367822Y-50032788D01*
X163316938Y-49989585D01*
X163288014Y-49929446D01*
X163282286Y-49882462D01*
X163286657Y-49840082D01*
X163302475Y-49805488D01*
X163333797Y-49774763D01*
X163384678Y-49743990D01*
X163459176Y-49709252D01*
X163463714Y-49707288D01*
X163530821Y-49676287D01*
X163572232Y-49650862D01*
X163589981Y-49628014D01*
X163586107Y-49604745D01*
X163562643Y-49578056D01*
X163555627Y-49571914D01*
X163508630Y-49548100D01*
X163459933Y-49549103D01*
X163417522Y-49572451D01*
X163389384Y-49615675D01*
X163386769Y-49624160D01*
X163361308Y-49665308D01*
X163329001Y-49685128D01*
X163282286Y-49704770D01*
X163282286Y-49653950D01*
X163296496Y-49580082D01*
X163338675Y-49512327D01*
X163360624Y-49489661D01*
X163410517Y-49460569D01*
X163473967Y-49447400D01*
X163539744Y-49450968D01*
G37*
X163539744Y-49450968D02*
X163596616Y-49472087D01*
X163597267Y-49472493D01*
X163632440Y-49498380D01*
X163658407Y-49528633D01*
X163676670Y-49568058D01*
X163688732Y-49621462D01*
X163696096Y-49693651D01*
X163700264Y-49789432D01*
X163700629Y-49803078D01*
X163705876Y-50008842D01*
X163661716Y-50031678D01*
X163629763Y-50047110D01*
X163610470Y-50054423D01*
X163609578Y-50054514D01*
X163606239Y-50041022D01*
X163603587Y-50004626D01*
X163601956Y-49951452D01*
X163601600Y-49908393D01*
X163601592Y-49838641D01*
X163598403Y-49794837D01*
X163587288Y-49773944D01*
X163563501Y-49772925D01*
X163522296Y-49788741D01*
X163460086Y-49817815D01*
X163414341Y-49841963D01*
X163390813Y-49862913D01*
X163383896Y-49885747D01*
X163383886Y-49886877D01*
X163395299Y-49926212D01*
X163429092Y-49947462D01*
X163480809Y-49950539D01*
X163518061Y-49950006D01*
X163537703Y-49960735D01*
X163549952Y-49986505D01*
X163557002Y-50019337D01*
X163546842Y-50037966D01*
X163543017Y-50040632D01*
X163507001Y-50051340D01*
X163456566Y-50052856D01*
X163404626Y-50045759D01*
X163367822Y-50032788D01*
X163316938Y-49989585D01*
X163288014Y-49929446D01*
X163282286Y-49882462D01*
X163286657Y-49840082D01*
X163302475Y-49805488D01*
X163333797Y-49774763D01*
X163384678Y-49743990D01*
X163459176Y-49709252D01*
X163463714Y-49707288D01*
X163530821Y-49676287D01*
X163572232Y-49650862D01*
X163589981Y-49628014D01*
X163586107Y-49604745D01*
X163562643Y-49578056D01*
X163555627Y-49571914D01*
X163508630Y-49548100D01*
X163459933Y-49549103D01*
X163417522Y-49572451D01*
X163389384Y-49615675D01*
X163386769Y-49624160D01*
X163361308Y-49665308D01*
X163329001Y-49685128D01*
X163282286Y-49704770D01*
X163282286Y-49653950D01*
X163296496Y-49580082D01*
X163338675Y-49512327D01*
X163360624Y-49489661D01*
X163410517Y-49460569D01*
X163473967Y-49447400D01*
X163539744Y-49450968D01*
G36*
X164029926Y-49449755D02*
G01*
X164095858Y-49474084D01*
X164149273Y-49517117D01*
X164170164Y-49547409D01*
X164192939Y-49602994D01*
X164192466Y-49643186D01*
X164168562Y-49670217D01*
X164159717Y-49674813D01*
X164121530Y-49689144D01*
X164102028Y-49685472D01*
X164095422Y-49661407D01*
X164095086Y-49648114D01*
X164082992Y-49599210D01*
X164051471Y-49564999D01*
X164007659Y-49548476D01*
X163958695Y-49552634D01*
X163918894Y-49574227D01*
X163905450Y-49586544D01*
X163895921Y-49601487D01*
X163889485Y-49624075D01*
X163885317Y-49659328D01*
X163882597Y-49712266D01*
X163880502Y-49787907D01*
X163879960Y-49811857D01*
X163877981Y-49893790D01*
X163875731Y-49951455D01*
X163872357Y-49989608D01*
X163867006Y-50013004D01*
X163858824Y-50026398D01*
X163846959Y-50034545D01*
X163839362Y-50038144D01*
X163807102Y-50050452D01*
X163788111Y-50054514D01*
X163781836Y-50040948D01*
X163778006Y-49999934D01*
X163776600Y-49930999D01*
X163777598Y-49833669D01*
X163777908Y-49818657D01*
X163780101Y-49729859D01*
X163782693Y-49665019D01*
X163786382Y-49619067D01*
X163791864Y-49586935D01*
X163799835Y-49563553D01*
X163810993Y-49543852D01*
X163816830Y-49535410D01*
X163850296Y-49498057D01*
X163887727Y-49469003D01*
X163892309Y-49466467D01*
X163959426Y-49446443D01*
X164029926Y-49449755D01*
G37*
X164029926Y-49449755D02*
X164095858Y-49474084D01*
X164149273Y-49517117D01*
X164170164Y-49547409D01*
X164192939Y-49602994D01*
X164192466Y-49643186D01*
X164168562Y-49670217D01*
X164159717Y-49674813D01*
X164121530Y-49689144D01*
X164102028Y-49685472D01*
X164095422Y-49661407D01*
X164095086Y-49648114D01*
X164082992Y-49599210D01*
X164051471Y-49564999D01*
X164007659Y-49548476D01*
X163958695Y-49552634D01*
X163918894Y-49574227D01*
X163905450Y-49586544D01*
X163895921Y-49601487D01*
X163889485Y-49624075D01*
X163885317Y-49659328D01*
X163882597Y-49712266D01*
X163880502Y-49787907D01*
X163879960Y-49811857D01*
X163877981Y-49893790D01*
X163875731Y-49951455D01*
X163872357Y-49989608D01*
X163867006Y-50013004D01*
X163858824Y-50026398D01*
X163846959Y-50034545D01*
X163839362Y-50038144D01*
X163807102Y-50050452D01*
X163788111Y-50054514D01*
X163781836Y-50040948D01*
X163778006Y-49999934D01*
X163776600Y-49930999D01*
X163777598Y-49833669D01*
X163777908Y-49818657D01*
X163780101Y-49729859D01*
X163782693Y-49665019D01*
X163786382Y-49619067D01*
X163791864Y-49586935D01*
X163799835Y-49563553D01*
X163810993Y-49543852D01*
X163816830Y-49535410D01*
X163850296Y-49498057D01*
X163887727Y-49469003D01*
X163892309Y-49466467D01*
X163959426Y-49446443D01*
X164029926Y-49449755D01*
G36*
X164690117Y-49565358D02*
G01*
X164689933Y-49673837D01*
X164689219Y-49757287D01*
X164687675Y-49819704D01*
X164685001Y-49865085D01*
X164680894Y-49897429D01*
X164675055Y-49920733D01*
X164667182Y-49938995D01*
X164661221Y-49949418D01*
X164611855Y-50005945D01*
X164549264Y-50041377D01*
X164480013Y-50054090D01*
X164410668Y-50042463D01*
X164369375Y-50021568D01*
X164326025Y-49985422D01*
X164296481Y-49941276D01*
X164278655Y-49883462D01*
X164270463Y-49806313D01*
X164269302Y-49749714D01*
X164269458Y-49745647D01*
X164370857Y-49745647D01*
X164371476Y-49810550D01*
X164374314Y-49853514D01*
X164380840Y-49881622D01*
X164392523Y-49901953D01*
X164406483Y-49917288D01*
X164453365Y-49946890D01*
X164503701Y-49949419D01*
X164551276Y-49924705D01*
X164554979Y-49921356D01*
X164570783Y-49903935D01*
X164580693Y-49883209D01*
X164586058Y-49852362D01*
X164588228Y-49804577D01*
X164588571Y-49751748D01*
X164587827Y-49685381D01*
X164584748Y-49641106D01*
X164578061Y-49612009D01*
X164566496Y-49591173D01*
X164557013Y-49580107D01*
X164512960Y-49552198D01*
X164462224Y-49548843D01*
X164413796Y-49570159D01*
X164404450Y-49578073D01*
X164388540Y-49595647D01*
X164378610Y-49616587D01*
X164373278Y-49647782D01*
X164371163Y-49696122D01*
X164370857Y-49745647D01*
X164269458Y-49745647D01*
X164272810Y-49658568D01*
X164284726Y-49590086D01*
X164307135Y-49538600D01*
X164342124Y-49498443D01*
X164369375Y-49477861D01*
X164418907Y-49455625D01*
X164476316Y-49445304D01*
X164529682Y-49448067D01*
X164559543Y-49459212D01*
X164571261Y-49462383D01*
X164579037Y-49450557D01*
X164584465Y-49418866D01*
X164588571Y-49370593D01*
X164593067Y-49316829D01*
X164599313Y-49284482D01*
X164610676Y-49265985D01*
X164630528Y-49253770D01*
X164643000Y-49248362D01*
X164690171Y-49228601D01*
X164690117Y-49565358D01*
G37*
X164690117Y-49565358D02*
X164689933Y-49673837D01*
X164689219Y-49757287D01*
X164687675Y-49819704D01*
X164685001Y-49865085D01*
X164680894Y-49897429D01*
X164675055Y-49920733D01*
X164667182Y-49938995D01*
X164661221Y-49949418D01*
X164611855Y-50005945D01*
X164549264Y-50041377D01*
X164480013Y-50054090D01*
X164410668Y-50042463D01*
X164369375Y-50021568D01*
X164326025Y-49985422D01*
X164296481Y-49941276D01*
X164278655Y-49883462D01*
X164270463Y-49806313D01*
X164269302Y-49749714D01*
X164269458Y-49745647D01*
X164370857Y-49745647D01*
X164371476Y-49810550D01*
X164374314Y-49853514D01*
X164380840Y-49881622D01*
X164392523Y-49901953D01*
X164406483Y-49917288D01*
X164453365Y-49946890D01*
X164503701Y-49949419D01*
X164551276Y-49924705D01*
X164554979Y-49921356D01*
X164570783Y-49903935D01*
X164580693Y-49883209D01*
X164586058Y-49852362D01*
X164588228Y-49804577D01*
X164588571Y-49751748D01*
X164587827Y-49685381D01*
X164584748Y-49641106D01*
X164578061Y-49612009D01*
X164566496Y-49591173D01*
X164557013Y-49580107D01*
X164512960Y-49552198D01*
X164462224Y-49548843D01*
X164413796Y-49570159D01*
X164404450Y-49578073D01*
X164388540Y-49595647D01*
X164378610Y-49616587D01*
X164373278Y-49647782D01*
X164371163Y-49696122D01*
X164370857Y-49745647D01*
X164269458Y-49745647D01*
X164272810Y-49658568D01*
X164284726Y-49590086D01*
X164307135Y-49538600D01*
X164342124Y-49498443D01*
X164369375Y-49477861D01*
X164418907Y-49455625D01*
X164476316Y-49445304D01*
X164529682Y-49448067D01*
X164559543Y-49459212D01*
X164571261Y-49462383D01*
X164579037Y-49450557D01*
X164584465Y-49418866D01*
X164588571Y-49370593D01*
X164593067Y-49316829D01*
X164599313Y-49284482D01*
X164610676Y-49265985D01*
X164630528Y-49253770D01*
X164643000Y-49248362D01*
X164690171Y-49228601D01*
X164690117Y-49565358D01*
G36*
X165279833Y-49458663D02*
G01*
X165282048Y-49496850D01*
X165283784Y-49554886D01*
X165284899Y-49628180D01*
X165285257Y-49705055D01*
X165285257Y-49965196D01*
X165239326Y-50011127D01*
X165207675Y-50039429D01*
X165179890Y-50050893D01*
X165141915Y-50050168D01*
X165126840Y-50048321D01*
X165079726Y-50042948D01*
X165040756Y-50039869D01*
X165031257Y-50039585D01*
X164999233Y-50041445D01*
X164953432Y-50046114D01*
X164935674Y-50048321D01*
X164892057Y-50051735D01*
X164862745Y-50044320D01*
X164833680Y-50021427D01*
X164823188Y-50011127D01*
X164777257Y-49965196D01*
X164777257Y-49478602D01*
X164814226Y-49461758D01*
X164846059Y-49449282D01*
X164864683Y-49444914D01*
X164869458Y-49458718D01*
X164873921Y-49497286D01*
X164877775Y-49556356D01*
X164880722Y-49631663D01*
X164882143Y-49695286D01*
X164886114Y-49945657D01*
X164920759Y-49950556D01*
X164952268Y-49947131D01*
X164967708Y-49936041D01*
X164972023Y-49915308D01*
X164975708Y-49871145D01*
X164978469Y-49809146D01*
X164980012Y-49734909D01*
X164980235Y-49696706D01*
X164980457Y-49476783D01*
X165026166Y-49460849D01*
X165058518Y-49450015D01*
X165076115Y-49444962D01*
X165076623Y-49444914D01*
X165078388Y-49458648D01*
X165080329Y-49496730D01*
X165082282Y-49554482D01*
X165084084Y-49627227D01*
X165085343Y-49695286D01*
X165089314Y-49945657D01*
X165176400Y-49945657D01*
X165180396Y-49717240D01*
X165184392Y-49488822D01*
X165226847Y-49466868D01*
X165258192Y-49451793D01*
X165276744Y-49444951D01*
X165277279Y-49444914D01*
X165279833Y-49458663D01*
G37*
X165279833Y-49458663D02*
X165282048Y-49496850D01*
X165283784Y-49554886D01*
X165284899Y-49628180D01*
X165285257Y-49705055D01*
X165285257Y-49965196D01*
X165239326Y-50011127D01*
X165207675Y-50039429D01*
X165179890Y-50050893D01*
X165141915Y-50050168D01*
X165126840Y-50048321D01*
X165079726Y-50042948D01*
X165040756Y-50039869D01*
X165031257Y-50039585D01*
X164999233Y-50041445D01*
X164953432Y-50046114D01*
X164935674Y-50048321D01*
X164892057Y-50051735D01*
X164862745Y-50044320D01*
X164833680Y-50021427D01*
X164823188Y-50011127D01*
X164777257Y-49965196D01*
X164777257Y-49478602D01*
X164814226Y-49461758D01*
X164846059Y-49449282D01*
X164864683Y-49444914D01*
X164869458Y-49458718D01*
X164873921Y-49497286D01*
X164877775Y-49556356D01*
X164880722Y-49631663D01*
X164882143Y-49695286D01*
X164886114Y-49945657D01*
X164920759Y-49950556D01*
X164952268Y-49947131D01*
X164967708Y-49936041D01*
X164972023Y-49915308D01*
X164975708Y-49871145D01*
X164978469Y-49809146D01*
X164980012Y-49734909D01*
X164980235Y-49696706D01*
X164980457Y-49476783D01*
X165026166Y-49460849D01*
X165058518Y-49450015D01*
X165076115Y-49444962D01*
X165076623Y-49444914D01*
X165078388Y-49458648D01*
X165080329Y-49496730D01*
X165082282Y-49554482D01*
X165084084Y-49627227D01*
X165085343Y-49695286D01*
X165089314Y-49945657D01*
X165176400Y-49945657D01*
X165180396Y-49717240D01*
X165184392Y-49488822D01*
X165226847Y-49466868D01*
X165258192Y-49451793D01*
X165276744Y-49444951D01*
X165277279Y-49444914D01*
X165279833Y-49458663D01*
G36*
X165644876Y-49456335D02*
G01*
X165686667Y-49475344D01*
X165719469Y-49498378D01*
X165743503Y-49524133D01*
X165760097Y-49557358D01*
X165770577Y-49602800D01*
X165776271Y-49665207D01*
X165778507Y-49749327D01*
X165778743Y-49804721D01*
X165778743Y-50020826D01*
X165741774Y-50037670D01*
X165712656Y-50049981D01*
X165698231Y-50054514D01*
X165695472Y-50041025D01*
X165693282Y-50004653D01*
X165691942Y-49951542D01*
X165691657Y-49909372D01*
X165690434Y-49848447D01*
X165687136Y-49800115D01*
X165682321Y-49770518D01*
X165678496Y-49764229D01*
X165652783Y-49770652D01*
X165612418Y-49787125D01*
X165565679Y-49809458D01*
X165520845Y-49833457D01*
X165486193Y-49854930D01*
X165470002Y-49869685D01*
X165469938Y-49869845D01*
X165471330Y-49897152D01*
X165483818Y-49923219D01*
X165505743Y-49944392D01*
X165537743Y-49951474D01*
X165565092Y-49950649D01*
X165603826Y-49950042D01*
X165624158Y-49959116D01*
X165636369Y-49983092D01*
X165637909Y-49987613D01*
X165643203Y-50021806D01*
X165629047Y-50042568D01*
X165592148Y-50052462D01*
X165552289Y-50054292D01*
X165480562Y-50040727D01*
X165443432Y-50021355D01*
X165397576Y-49975845D01*
X165373256Y-49919983D01*
X165371073Y-49860957D01*
X165391629Y-49805953D01*
X165422549Y-49771486D01*
X165453420Y-49752189D01*
X165501942Y-49727759D01*
X165558485Y-49702985D01*
X165567910Y-49699199D01*
X165630019Y-49671791D01*
X165665822Y-49647634D01*
X165677337Y-49623619D01*
X165666580Y-49596635D01*
X165648114Y-49575543D01*
X165604469Y-49549572D01*
X165556446Y-49547624D01*
X165512406Y-49567637D01*
X165480709Y-49607551D01*
X165476549Y-49617848D01*
X165452327Y-49655724D01*
X165416965Y-49683842D01*
X165372343Y-49706917D01*
X165372343Y-49641485D01*
X165374969Y-49601506D01*
X165386230Y-49569997D01*
X165411199Y-49536378D01*
X165435169Y-49510484D01*
X165472441Y-49473817D01*
X165501401Y-49454121D01*
X165532505Y-49446220D01*
X165567713Y-49444914D01*
X165644876Y-49456335D01*
G37*
X165644876Y-49456335D02*
X165686667Y-49475344D01*
X165719469Y-49498378D01*
X165743503Y-49524133D01*
X165760097Y-49557358D01*
X165770577Y-49602800D01*
X165776271Y-49665207D01*
X165778507Y-49749327D01*
X165778743Y-49804721D01*
X165778743Y-50020826D01*
X165741774Y-50037670D01*
X165712656Y-50049981D01*
X165698231Y-50054514D01*
X165695472Y-50041025D01*
X165693282Y-50004653D01*
X165691942Y-49951542D01*
X165691657Y-49909372D01*
X165690434Y-49848447D01*
X165687136Y-49800115D01*
X165682321Y-49770518D01*
X165678496Y-49764229D01*
X165652783Y-49770652D01*
X165612418Y-49787125D01*
X165565679Y-49809458D01*
X165520845Y-49833457D01*
X165486193Y-49854930D01*
X165470002Y-49869685D01*
X165469938Y-49869845D01*
X165471330Y-49897152D01*
X165483818Y-49923219D01*
X165505743Y-49944392D01*
X165537743Y-49951474D01*
X165565092Y-49950649D01*
X165603826Y-49950042D01*
X165624158Y-49959116D01*
X165636369Y-49983092D01*
X165637909Y-49987613D01*
X165643203Y-50021806D01*
X165629047Y-50042568D01*
X165592148Y-50052462D01*
X165552289Y-50054292D01*
X165480562Y-50040727D01*
X165443432Y-50021355D01*
X165397576Y-49975845D01*
X165373256Y-49919983D01*
X165371073Y-49860957D01*
X165391629Y-49805953D01*
X165422549Y-49771486D01*
X165453420Y-49752189D01*
X165501942Y-49727759D01*
X165558485Y-49702985D01*
X165567910Y-49699199D01*
X165630019Y-49671791D01*
X165665822Y-49647634D01*
X165677337Y-49623619D01*
X165666580Y-49596635D01*
X165648114Y-49575543D01*
X165604469Y-49549572D01*
X165556446Y-49547624D01*
X165512406Y-49567637D01*
X165480709Y-49607551D01*
X165476549Y-49617848D01*
X165452327Y-49655724D01*
X165416965Y-49683842D01*
X165372343Y-49706917D01*
X165372343Y-49641485D01*
X165374969Y-49601506D01*
X165386230Y-49569997D01*
X165411199Y-49536378D01*
X165435169Y-49510484D01*
X165472441Y-49473817D01*
X165501401Y-49454121D01*
X165532505Y-49446220D01*
X165567713Y-49444914D01*
X165644876Y-49456335D01*
G36*
X166152600Y-49458752D02*
G01*
X166169948Y-49466334D01*
X166211356Y-49499128D01*
X166246765Y-49546547D01*
X166268664Y-49597151D01*
X166272229Y-49622098D01*
X166260279Y-49656927D01*
X166234067Y-49675357D01*
X166205964Y-49686516D01*
X166193095Y-49688572D01*
X166186829Y-49673649D01*
X166174456Y-49641175D01*
X166169028Y-49626502D01*
X166138590Y-49575744D01*
X166094520Y-49550427D01*
X166038010Y-49551206D01*
X166033825Y-49552203D01*
X166003655Y-49566507D01*
X165981476Y-49594393D01*
X165966327Y-49639287D01*
X165957250Y-49704615D01*
X165953286Y-49793804D01*
X165952914Y-49841261D01*
X165952730Y-49916071D01*
X165951522Y-49967069D01*
X165948309Y-49999471D01*
X165942109Y-50018495D01*
X165931940Y-50029356D01*
X165916819Y-50037272D01*
X165915946Y-50037670D01*
X165886828Y-50049981D01*
X165872403Y-50054514D01*
X165870186Y-50040809D01*
X165868289Y-50002925D01*
X165866847Y-49945715D01*
X165865998Y-49874027D01*
X165865829Y-49821565D01*
X165866692Y-49720047D01*
X165870070Y-49643032D01*
X165877142Y-49586023D01*
X165889088Y-49544526D01*
X165907090Y-49514043D01*
X165932327Y-49490080D01*
X165957247Y-49473355D01*
X166017171Y-49451097D01*
X166086911Y-49446076D01*
X166152600Y-49458752D01*
G37*
X166152600Y-49458752D02*
X166169948Y-49466334D01*
X166211356Y-49499128D01*
X166246765Y-49546547D01*
X166268664Y-49597151D01*
X166272229Y-49622098D01*
X166260279Y-49656927D01*
X166234067Y-49675357D01*
X166205964Y-49686516D01*
X166193095Y-49688572D01*
X166186829Y-49673649D01*
X166174456Y-49641175D01*
X166169028Y-49626502D01*
X166138590Y-49575744D01*
X166094520Y-49550427D01*
X166038010Y-49551206D01*
X166033825Y-49552203D01*
X166003655Y-49566507D01*
X165981476Y-49594393D01*
X165966327Y-49639287D01*
X165957250Y-49704615D01*
X165953286Y-49793804D01*
X165952914Y-49841261D01*
X165952730Y-49916071D01*
X165951522Y-49967069D01*
X165948309Y-49999471D01*
X165942109Y-50018495D01*
X165931940Y-50029356D01*
X165916819Y-50037272D01*
X165915946Y-50037670D01*
X165886828Y-50049981D01*
X165872403Y-50054514D01*
X165870186Y-50040809D01*
X165868289Y-50002925D01*
X165866847Y-49945715D01*
X165865998Y-49874027D01*
X165865829Y-49821565D01*
X165866692Y-49720047D01*
X165870070Y-49643032D01*
X165877142Y-49586023D01*
X165889088Y-49544526D01*
X165907090Y-49514043D01*
X165932327Y-49490080D01*
X165957247Y-49473355D01*
X166017171Y-49451097D01*
X166086911Y-49446076D01*
X166152600Y-49458752D01*
G36*
X166653595Y-49466966D02*
G01*
X166711021Y-49504497D01*
X166738719Y-49538096D01*
X166760662Y-49599064D01*
X166762405Y-49647308D01*
X166758457Y-49711816D01*
X166609686Y-49776934D01*
X166537349Y-49810202D01*
X166490084Y-49836964D01*
X166465507Y-49860144D01*
X166461237Y-49882667D01*
X166474889Y-49907455D01*
X166489943Y-49923886D01*
X166533746Y-49950235D01*
X166581389Y-49952081D01*
X166625145Y-49931546D01*
X166657289Y-49890752D01*
X166663038Y-49876347D01*
X166690576Y-49831356D01*
X166722258Y-49812182D01*
X166765714Y-49795779D01*
X166765714Y-49857966D01*
X166761872Y-49900283D01*
X166746823Y-49935969D01*
X166715280Y-49976943D01*
X166710592Y-49982267D01*
X166675506Y-50018720D01*
X166645347Y-50038283D01*
X166607615Y-50047283D01*
X166576335Y-50050230D01*
X166520385Y-50050965D01*
X166480555Y-50041660D01*
X166455708Y-50027846D01*
X166416656Y-49997467D01*
X166389625Y-49964613D01*
X166372517Y-49923294D01*
X166363238Y-49867521D01*
X166359693Y-49791305D01*
X166359410Y-49752622D01*
X166360372Y-49706247D01*
X166448007Y-49706247D01*
X166449023Y-49731126D01*
X166451556Y-49735200D01*
X166468274Y-49729665D01*
X166504249Y-49715017D01*
X166552331Y-49694190D01*
X166562386Y-49689714D01*
X166623152Y-49658814D01*
X166656632Y-49631657D01*
X166663990Y-49606220D01*
X166646391Y-49580481D01*
X166631856Y-49569109D01*
X166579410Y-49546364D01*
X166530322Y-49550122D01*
X166489227Y-49577884D01*
X166460758Y-49627152D01*
X166451631Y-49666257D01*
X166448007Y-49706247D01*
X166360372Y-49706247D01*
X166361285Y-49662249D01*
X166368196Y-49595384D01*
X166381884Y-49546695D01*
X166404096Y-49510849D01*
X166436574Y-49482513D01*
X166450733Y-49473355D01*
X166515053Y-49449507D01*
X166585473Y-49448006D01*
X166653595Y-49466966D01*
G37*
X166653595Y-49466966D02*
X166711021Y-49504497D01*
X166738719Y-49538096D01*
X166760662Y-49599064D01*
X166762405Y-49647308D01*
X166758457Y-49711816D01*
X166609686Y-49776934D01*
X166537349Y-49810202D01*
X166490084Y-49836964D01*
X166465507Y-49860144D01*
X166461237Y-49882667D01*
X166474889Y-49907455D01*
X166489943Y-49923886D01*
X166533746Y-49950235D01*
X166581389Y-49952081D01*
X166625145Y-49931546D01*
X166657289Y-49890752D01*
X166663038Y-49876347D01*
X166690576Y-49831356D01*
X166722258Y-49812182D01*
X166765714Y-49795779D01*
X166765714Y-49857966D01*
X166761872Y-49900283D01*
X166746823Y-49935969D01*
X166715280Y-49976943D01*
X166710592Y-49982267D01*
X166675506Y-50018720D01*
X166645347Y-50038283D01*
X166607615Y-50047283D01*
X166576335Y-50050230D01*
X166520385Y-50050965D01*
X166480555Y-50041660D01*
X166455708Y-50027846D01*
X166416656Y-49997467D01*
X166389625Y-49964613D01*
X166372517Y-49923294D01*
X166363238Y-49867521D01*
X166359693Y-49791305D01*
X166359410Y-49752622D01*
X166360372Y-49706247D01*
X166448007Y-49706247D01*
X166449023Y-49731126D01*
X166451556Y-49735200D01*
X166468274Y-49729665D01*
X166504249Y-49715017D01*
X166552331Y-49694190D01*
X166562386Y-49689714D01*
X166623152Y-49658814D01*
X166656632Y-49631657D01*
X166663990Y-49606220D01*
X166646391Y-49580481D01*
X166631856Y-49569109D01*
X166579410Y-49546364D01*
X166530322Y-49550122D01*
X166489227Y-49577884D01*
X166460758Y-49627152D01*
X166451631Y-49666257D01*
X166448007Y-49706247D01*
X166360372Y-49706247D01*
X166361285Y-49662249D01*
X166368196Y-49595384D01*
X166381884Y-49546695D01*
X166404096Y-49510849D01*
X166436574Y-49482513D01*
X166450733Y-49473355D01*
X166515053Y-49449507D01*
X166585473Y-49448006D01*
X166653595Y-49466966D01*
G36*
X163603910Y-44742348D02*
G01*
X163682454Y-44742778D01*
X163739298Y-44743942D01*
X163778105Y-44746207D01*
X163802538Y-44749940D01*
X163816262Y-44755506D01*
X163822940Y-44763273D01*
X163826236Y-44773605D01*
X163826556Y-44774943D01*
X163831562Y-44799079D01*
X163840829Y-44846701D01*
X163853392Y-44912741D01*
X163868287Y-44992128D01*
X163884551Y-45079796D01*
X163885119Y-45082875D01*
X163901410Y-45168789D01*
X163916652Y-45244696D01*
X163929861Y-45306045D01*
X163940054Y-45348282D01*
X163946248Y-45366855D01*
X163946543Y-45367184D01*
X163964788Y-45376253D01*
X164002405Y-45391367D01*
X164051271Y-45409262D01*
X164051543Y-45409358D01*
X164113093Y-45432493D01*
X164185657Y-45461965D01*
X164254057Y-45491597D01*
X164257294Y-45493062D01*
X164368702Y-45543626D01*
X164615399Y-45375160D01*
X164691077Y-45323803D01*
X164759631Y-45277889D01*
X164817088Y-45240030D01*
X164859476Y-45212837D01*
X164882825Y-45198921D01*
X164885042Y-45197889D01*
X164902010Y-45202484D01*
X164933701Y-45224655D01*
X164981352Y-45265447D01*
X165046198Y-45325905D01*
X165112397Y-45390227D01*
X165176214Y-45453612D01*
X165233329Y-45511451D01*
X165280305Y-45560175D01*
X165313703Y-45596210D01*
X165330085Y-45615984D01*
X165330694Y-45617002D01*
X165332505Y-45630572D01*
X165325683Y-45652733D01*
X165308540Y-45686478D01*
X165279393Y-45734800D01*
X165236555Y-45800692D01*
X165179448Y-45885517D01*
X165128766Y-45960177D01*
X165083461Y-46027140D01*
X165046150Y-46082516D01*
X165019452Y-46122420D01*
X165005985Y-46142962D01*
X165005137Y-46144356D01*
X165006781Y-46164038D01*
X165019245Y-46202293D01*
X165040048Y-46251889D01*
X165047462Y-46267728D01*
X165079814Y-46338290D01*
X165114328Y-46418353D01*
X165142365Y-46487629D01*
X165162568Y-46539045D01*
X165178615Y-46578119D01*
X165187888Y-46598541D01*
X165189041Y-46600114D01*
X165206096Y-46602721D01*
X165246298Y-46609863D01*
X165304302Y-46620523D01*
X165374763Y-46633685D01*
X165452335Y-46648333D01*
X165531672Y-46663449D01*
X165607431Y-46678018D01*
X165674264Y-46691022D01*
X165726828Y-46701445D01*
X165759776Y-46708270D01*
X165767857Y-46710199D01*
X165776205Y-46714962D01*
X165782506Y-46725718D01*
X165787045Y-46746098D01*
X165790104Y-46779734D01*
X165791967Y-46830255D01*
X165792918Y-46901292D01*
X165793240Y-46996476D01*
X165793257Y-47035492D01*
X165793257Y-47352799D01*
X165717057Y-47367839D01*
X165674663Y-47375995D01*
X165611400Y-47387899D01*
X165534962Y-47402116D01*
X165453043Y-47417210D01*
X165430400Y-47421355D01*
X165354806Y-47436053D01*
X165288953Y-47450505D01*
X165238366Y-47463375D01*
X165208574Y-47473322D01*
X165203612Y-47476287D01*
X165191426Y-47497283D01*
X165173953Y-47537967D01*
X165154577Y-47590322D01*
X165150734Y-47601600D01*
X165125339Y-47671523D01*
X165093817Y-47750418D01*
X165062969Y-47821266D01*
X165062817Y-47821595D01*
X165011447Y-47932733D01*
X165180399Y-48181253D01*
X165349352Y-48429772D01*
X165132429Y-48647058D01*
X165066819Y-48711726D01*
X165006979Y-48768733D01*
X164956267Y-48815033D01*
X164918046Y-48847584D01*
X164895675Y-48863343D01*
X164892466Y-48864343D01*
X164873626Y-48856469D01*
X164835180Y-48834578D01*
X164781330Y-48801267D01*
X164716276Y-48759131D01*
X164645940Y-48711943D01*
X164574555Y-48663810D01*
X164510908Y-48621928D01*
X164459041Y-48588871D01*
X164422995Y-48567218D01*
X164406867Y-48559543D01*
X164387189Y-48566037D01*
X164349875Y-48583150D01*
X164302621Y-48607326D01*
X164297612Y-48610013D01*
X164233977Y-48641927D01*
X164190341Y-48657579D01*
X164163202Y-48657745D01*
X164149057Y-48643204D01*
X164148975Y-48643000D01*
X164141905Y-48625779D01*
X164125042Y-48584899D01*
X164099695Y-48523525D01*
X164067171Y-48444819D01*
X164028778Y-48351947D01*
X163985822Y-48248072D01*
X163944222Y-48147502D01*
X163898504Y-48036516D01*
X163856526Y-47933703D01*
X163819548Y-47842215D01*
X163788827Y-47765201D01*
X163765622Y-47705815D01*
X163751190Y-47667209D01*
X163746743Y-47652800D01*
X163757896Y-47636272D01*
X163787069Y-47609930D01*
X163825971Y-47580887D01*
X163936757Y-47489039D01*
X164023351Y-47383759D01*
X164084716Y-47267266D01*
X164119815Y-47141776D01*
X164127608Y-47009507D01*
X164121943Y-46948457D01*
X164091078Y-46821795D01*
X164037920Y-46709941D01*
X163965767Y-46614001D01*
X163877917Y-46535076D01*
X163777665Y-46474270D01*
X163668310Y-46432687D01*
X163553147Y-46411428D01*
X163435475Y-46411599D01*
X163318590Y-46434301D01*
X163205789Y-46480638D01*
X163100369Y-46551713D01*
X163056368Y-46591911D01*
X162971979Y-46695129D01*
X162913222Y-46807925D01*
X162879704Y-46927010D01*
X162871035Y-47049095D01*
X162886823Y-47170893D01*
X162926678Y-47289116D01*
X162990207Y-47400475D01*
X163077021Y-47501684D01*
X163174029Y-47580887D01*
X163214437Y-47611162D01*
X163242982Y-47637219D01*
X163253257Y-47652825D01*
X163247877Y-47669843D01*
X163232575Y-47710500D01*
X163208612Y-47771642D01*
X163177244Y-47850119D01*
X163139732Y-47942780D01*
X163097333Y-48046472D01*
X163055663Y-48147526D01*
X163009690Y-48258607D01*
X162967107Y-48361541D01*
X162929221Y-48453165D01*
X162897340Y-48530316D01*
X162872771Y-48589831D01*
X162856820Y-48628544D01*
X162850910Y-48643000D01*
X162836948Y-48657685D01*
X162809940Y-48657642D01*
X162766413Y-48642099D01*
X162702890Y-48610284D01*
X162702388Y-48610013D01*
X162654560Y-48585323D01*
X162615897Y-48567338D01*
X162594095Y-48559614D01*
X162593133Y-48559543D01*
X162576721Y-48567378D01*
X162540487Y-48589165D01*
X162488474Y-48622328D01*
X162424725Y-48664291D01*
X162354060Y-48711943D01*
X162282116Y-48760191D01*
X162217274Y-48802151D01*
X162163735Y-48835227D01*
X162125697Y-48856821D01*
X162107533Y-48864343D01*
X162090808Y-48854457D01*
X162057180Y-48826826D01*
X162010010Y-48784495D01*
X161952658Y-48730505D01*
X161888484Y-48667899D01*
X161867497Y-48646983D01*
X161650499Y-48429623D01*
X161815668Y-48187220D01*
X161865864Y-48112781D01*
X161909919Y-48045972D01*
X161945362Y-47990665D01*
X161969719Y-47950729D01*
X161980522Y-47930036D01*
X161980838Y-47928563D01*
X161975143Y-47909058D01*
X161959826Y-47869822D01*
X161937537Y-47817430D01*
X161921893Y-47782355D01*
X161892641Y-47715201D01*
X161865094Y-47647358D01*
X161843737Y-47590034D01*
X161837935Y-47572572D01*
X161821452Y-47525938D01*
X161805340Y-47489905D01*
X161796490Y-47476287D01*
X161776960Y-47467952D01*
X161734334Y-47456137D01*
X161674145Y-47442181D01*
X161601922Y-47427422D01*
X161569600Y-47421355D01*
X161487522Y-47406273D01*
X161408795Y-47391669D01*
X161341109Y-47378980D01*
X161292160Y-47369642D01*
X161282943Y-47367839D01*
X161206743Y-47352799D01*
X161206743Y-47035492D01*
X161206914Y-46931154D01*
X161207616Y-46852213D01*
X161209134Y-46795038D01*
X161211749Y-46755999D01*
X161215746Y-46731465D01*
X161221409Y-46717805D01*
X161229020Y-46711389D01*
X161232143Y-46710199D01*
X161250978Y-46705980D01*
X161292588Y-46697562D01*
X161351630Y-46685961D01*
X161422757Y-46672195D01*
X161500625Y-46657280D01*
X161579887Y-46642232D01*
X161655198Y-46628069D01*
X161721213Y-46615806D01*
X161772587Y-46606461D01*
X161803975Y-46601050D01*
X161810959Y-46600114D01*
X161817285Y-46587596D01*
X161831290Y-46554246D01*
X161850355Y-46506377D01*
X161857634Y-46487629D01*
X161886996Y-46415195D01*
X161921571Y-46335170D01*
X161952537Y-46267728D01*
X161975323Y-46216159D01*
X161990482Y-46173785D01*
X161995542Y-46147834D01*
X161994736Y-46144356D01*
X161984041Y-46127936D01*
X161959620Y-46091417D01*
X161924095Y-46038687D01*
X161880087Y-45973635D01*
X161830217Y-45900151D01*
X161820356Y-45885645D01*
X161762492Y-45799704D01*
X161719956Y-45734261D01*
X161691054Y-45686304D01*
X161674090Y-45652820D01*
X161667367Y-45630795D01*
X161669190Y-45617217D01*
X161669236Y-45617131D01*
X161683586Y-45599297D01*
X161715323Y-45564817D01*
X161761010Y-45517268D01*
X161817204Y-45460222D01*
X161880468Y-45397255D01*
X161887602Y-45390227D01*
X161967330Y-45313020D01*
X162028857Y-45256330D01*
X162073421Y-45219110D01*
X162102257Y-45200315D01*
X162114958Y-45197889D01*
X162133494Y-45208471D01*
X162171961Y-45232916D01*
X162226386Y-45268612D01*
X162292798Y-45312947D01*
X162367225Y-45363311D01*
X162384601Y-45375160D01*
X162631297Y-45543626D01*
X162742706Y-45493062D01*
X162810457Y-45463595D01*
X162883183Y-45433959D01*
X162945703Y-45410330D01*
X162948457Y-45409358D01*
X162997360Y-45391457D01*
X163035057Y-45376320D01*
X163053425Y-45367210D01*
X163053456Y-45367184D01*
X163059285Y-45350717D01*
X163069192Y-45310219D01*
X163082195Y-45250242D01*
X163097309Y-45175340D01*
X163113552Y-45090064D01*
X163114881Y-45082875D01*
X163131175Y-44995014D01*
X163146133Y-44915260D01*
X163158791Y-44848681D01*
X163168186Y-44800347D01*
X163173354Y-44775325D01*
X163173444Y-44774943D01*
X163176589Y-44764299D01*
X163182704Y-44756262D01*
X163195453Y-44750467D01*
X163218500Y-44746547D01*
X163255509Y-44744135D01*
X163310144Y-44742865D01*
X163386067Y-44742371D01*
X163486944Y-44742286D01*
X163500000Y-44742286D01*
X163603910Y-44742348D01*
G37*
X163603910Y-44742348D02*
X163682454Y-44742778D01*
X163739298Y-44743942D01*
X163778105Y-44746207D01*
X163802538Y-44749940D01*
X163816262Y-44755506D01*
X163822940Y-44763273D01*
X163826236Y-44773605D01*
X163826556Y-44774943D01*
X163831562Y-44799079D01*
X163840829Y-44846701D01*
X163853392Y-44912741D01*
X163868287Y-44992128D01*
X163884551Y-45079796D01*
X163885119Y-45082875D01*
X163901410Y-45168789D01*
X163916652Y-45244696D01*
X163929861Y-45306045D01*
X163940054Y-45348282D01*
X163946248Y-45366855D01*
X163946543Y-45367184D01*
X163964788Y-45376253D01*
X164002405Y-45391367D01*
X164051271Y-45409262D01*
X164051543Y-45409358D01*
X164113093Y-45432493D01*
X164185657Y-45461965D01*
X164254057Y-45491597D01*
X164257294Y-45493062D01*
X164368702Y-45543626D01*
X164615399Y-45375160D01*
X164691077Y-45323803D01*
X164759631Y-45277889D01*
X164817088Y-45240030D01*
X164859476Y-45212837D01*
X164882825Y-45198921D01*
X164885042Y-45197889D01*
X164902010Y-45202484D01*
X164933701Y-45224655D01*
X164981352Y-45265447D01*
X165046198Y-45325905D01*
X165112397Y-45390227D01*
X165176214Y-45453612D01*
X165233329Y-45511451D01*
X165280305Y-45560175D01*
X165313703Y-45596210D01*
X165330085Y-45615984D01*
X165330694Y-45617002D01*
X165332505Y-45630572D01*
X165325683Y-45652733D01*
X165308540Y-45686478D01*
X165279393Y-45734800D01*
X165236555Y-45800692D01*
X165179448Y-45885517D01*
X165128766Y-45960177D01*
X165083461Y-46027140D01*
X165046150Y-46082516D01*
X165019452Y-46122420D01*
X165005985Y-46142962D01*
X165005137Y-46144356D01*
X165006781Y-46164038D01*
X165019245Y-46202293D01*
X165040048Y-46251889D01*
X165047462Y-46267728D01*
X165079814Y-46338290D01*
X165114328Y-46418353D01*
X165142365Y-46487629D01*
X165162568Y-46539045D01*
X165178615Y-46578119D01*
X165187888Y-46598541D01*
X165189041Y-46600114D01*
X165206096Y-46602721D01*
X165246298Y-46609863D01*
X165304302Y-46620523D01*
X165374763Y-46633685D01*
X165452335Y-46648333D01*
X165531672Y-46663449D01*
X165607431Y-46678018D01*
X165674264Y-46691022D01*
X165726828Y-46701445D01*
X165759776Y-46708270D01*
X165767857Y-46710199D01*
X165776205Y-46714962D01*
X165782506Y-46725718D01*
X165787045Y-46746098D01*
X165790104Y-46779734D01*
X165791967Y-46830255D01*
X165792918Y-46901292D01*
X165793240Y-46996476D01*
X165793257Y-47035492D01*
X165793257Y-47352799D01*
X165717057Y-47367839D01*
X165674663Y-47375995D01*
X165611400Y-47387899D01*
X165534962Y-47402116D01*
X165453043Y-47417210D01*
X165430400Y-47421355D01*
X165354806Y-47436053D01*
X165288953Y-47450505D01*
X165238366Y-47463375D01*
X165208574Y-47473322D01*
X165203612Y-47476287D01*
X165191426Y-47497283D01*
X165173953Y-47537967D01*
X165154577Y-47590322D01*
X165150734Y-47601600D01*
X165125339Y-47671523D01*
X165093817Y-47750418D01*
X165062969Y-47821266D01*
X165062817Y-47821595D01*
X165011447Y-47932733D01*
X165180399Y-48181253D01*
X165349352Y-48429772D01*
X165132429Y-48647058D01*
X165066819Y-48711726D01*
X165006979Y-48768733D01*
X164956267Y-48815033D01*
X164918046Y-48847584D01*
X164895675Y-48863343D01*
X164892466Y-48864343D01*
X164873626Y-48856469D01*
X164835180Y-48834578D01*
X164781330Y-48801267D01*
X164716276Y-48759131D01*
X164645940Y-48711943D01*
X164574555Y-48663810D01*
X164510908Y-48621928D01*
X164459041Y-48588871D01*
X164422995Y-48567218D01*
X164406867Y-48559543D01*
X164387189Y-48566037D01*
X164349875Y-48583150D01*
X164302621Y-48607326D01*
X164297612Y-48610013D01*
X164233977Y-48641927D01*
X164190341Y-48657579D01*
X164163202Y-48657745D01*
X164149057Y-48643204D01*
X164148975Y-48643000D01*
X164141905Y-48625779D01*
X164125042Y-48584899D01*
X164099695Y-48523525D01*
X164067171Y-48444819D01*
X164028778Y-48351947D01*
X163985822Y-48248072D01*
X163944222Y-48147502D01*
X163898504Y-48036516D01*
X163856526Y-47933703D01*
X163819548Y-47842215D01*
X163788827Y-47765201D01*
X163765622Y-47705815D01*
X163751190Y-47667209D01*
X163746743Y-47652800D01*
X163757896Y-47636272D01*
X163787069Y-47609930D01*
X163825971Y-47580887D01*
X163936757Y-47489039D01*
X164023351Y-47383759D01*
X164084716Y-47267266D01*
X164119815Y-47141776D01*
X164127608Y-47009507D01*
X164121943Y-46948457D01*
X164091078Y-46821795D01*
X164037920Y-46709941D01*
X163965767Y-46614001D01*
X163877917Y-46535076D01*
X163777665Y-46474270D01*
X163668310Y-46432687D01*
X163553147Y-46411428D01*
X163435475Y-46411599D01*
X163318590Y-46434301D01*
X163205789Y-46480638D01*
X163100369Y-46551713D01*
X163056368Y-46591911D01*
X162971979Y-46695129D01*
X162913222Y-46807925D01*
X162879704Y-46927010D01*
X162871035Y-47049095D01*
X162886823Y-47170893D01*
X162926678Y-47289116D01*
X162990207Y-47400475D01*
X163077021Y-47501684D01*
X163174029Y-47580887D01*
X163214437Y-47611162D01*
X163242982Y-47637219D01*
X163253257Y-47652825D01*
X163247877Y-47669843D01*
X163232575Y-47710500D01*
X163208612Y-47771642D01*
X163177244Y-47850119D01*
X163139732Y-47942780D01*
X163097333Y-48046472D01*
X163055663Y-48147526D01*
X163009690Y-48258607D01*
X162967107Y-48361541D01*
X162929221Y-48453165D01*
X162897340Y-48530316D01*
X162872771Y-48589831D01*
X162856820Y-48628544D01*
X162850910Y-48643000D01*
X162836948Y-48657685D01*
X162809940Y-48657642D01*
X162766413Y-48642099D01*
X162702890Y-48610284D01*
X162702388Y-48610013D01*
X162654560Y-48585323D01*
X162615897Y-48567338D01*
X162594095Y-48559614D01*
X162593133Y-48559543D01*
X162576721Y-48567378D01*
X162540487Y-48589165D01*
X162488474Y-48622328D01*
X162424725Y-48664291D01*
X162354060Y-48711943D01*
X162282116Y-48760191D01*
X162217274Y-48802151D01*
X162163735Y-48835227D01*
X162125697Y-48856821D01*
X162107533Y-48864343D01*
X162090808Y-48854457D01*
X162057180Y-48826826D01*
X162010010Y-48784495D01*
X161952658Y-48730505D01*
X161888484Y-48667899D01*
X161867497Y-48646983D01*
X161650499Y-48429623D01*
X161815668Y-48187220D01*
X161865864Y-48112781D01*
X161909919Y-48045972D01*
X161945362Y-47990665D01*
X161969719Y-47950729D01*
X161980522Y-47930036D01*
X161980838Y-47928563D01*
X161975143Y-47909058D01*
X161959826Y-47869822D01*
X161937537Y-47817430D01*
X161921893Y-47782355D01*
X161892641Y-47715201D01*
X161865094Y-47647358D01*
X161843737Y-47590034D01*
X161837935Y-47572572D01*
X161821452Y-47525938D01*
X161805340Y-47489905D01*
X161796490Y-47476287D01*
X161776960Y-47467952D01*
X161734334Y-47456137D01*
X161674145Y-47442181D01*
X161601922Y-47427422D01*
X161569600Y-47421355D01*
X161487522Y-47406273D01*
X161408795Y-47391669D01*
X161341109Y-47378980D01*
X161292160Y-47369642D01*
X161282943Y-47367839D01*
X161206743Y-47352799D01*
X161206743Y-47035492D01*
X161206914Y-46931154D01*
X161207616Y-46852213D01*
X161209134Y-46795038D01*
X161211749Y-46755999D01*
X161215746Y-46731465D01*
X161221409Y-46717805D01*
X161229020Y-46711389D01*
X161232143Y-46710199D01*
X161250978Y-46705980D01*
X161292588Y-46697562D01*
X161351630Y-46685961D01*
X161422757Y-46672195D01*
X161500625Y-46657280D01*
X161579887Y-46642232D01*
X161655198Y-46628069D01*
X161721213Y-46615806D01*
X161772587Y-46606461D01*
X161803975Y-46601050D01*
X161810959Y-46600114D01*
X161817285Y-46587596D01*
X161831290Y-46554246D01*
X161850355Y-46506377D01*
X161857634Y-46487629D01*
X161886996Y-46415195D01*
X161921571Y-46335170D01*
X161952537Y-46267728D01*
X161975323Y-46216159D01*
X161990482Y-46173785D01*
X161995542Y-46147834D01*
X161994736Y-46144356D01*
X161984041Y-46127936D01*
X161959620Y-46091417D01*
X161924095Y-46038687D01*
X161880087Y-45973635D01*
X161830217Y-45900151D01*
X161820356Y-45885645D01*
X161762492Y-45799704D01*
X161719956Y-45734261D01*
X161691054Y-45686304D01*
X161674090Y-45652820D01*
X161667367Y-45630795D01*
X161669190Y-45617217D01*
X161669236Y-45617131D01*
X161683586Y-45599297D01*
X161715323Y-45564817D01*
X161761010Y-45517268D01*
X161817204Y-45460222D01*
X161880468Y-45397255D01*
X161887602Y-45390227D01*
X161967330Y-45313020D01*
X162028857Y-45256330D01*
X162073421Y-45219110D01*
X162102257Y-45200315D01*
X162114958Y-45197889D01*
X162133494Y-45208471D01*
X162171961Y-45232916D01*
X162226386Y-45268612D01*
X162292798Y-45312947D01*
X162367225Y-45363311D01*
X162384601Y-45375160D01*
X162631297Y-45543626D01*
X162742706Y-45493062D01*
X162810457Y-45463595D01*
X162883183Y-45433959D01*
X162945703Y-45410330D01*
X162948457Y-45409358D01*
X162997360Y-45391457D01*
X163035057Y-45376320D01*
X163053425Y-45367210D01*
X163053456Y-45367184D01*
X163059285Y-45350717D01*
X163069192Y-45310219D01*
X163082195Y-45250242D01*
X163097309Y-45175340D01*
X163113552Y-45090064D01*
X163114881Y-45082875D01*
X163131175Y-44995014D01*
X163146133Y-44915260D01*
X163158791Y-44848681D01*
X163168186Y-44800347D01*
X163173354Y-44775325D01*
X163173444Y-44774943D01*
X163176589Y-44764299D01*
X163182704Y-44756262D01*
X163195453Y-44750467D01*
X163218500Y-44746547D01*
X163255509Y-44744135D01*
X163310144Y-44742865D01*
X163386067Y-44742371D01*
X163486944Y-44742286D01*
X163500000Y-44742286D01*
X163603910Y-44742348D01*
D11*
X129620000Y-64120000D02*
X125380000Y-64120000D01*
X129620000Y-50880000D02*
X125380000Y-50880000D01*
X125380000Y-50880000D02*
X125380000Y-64120000D01*
X129620000Y-50880000D02*
X129620000Y-64120000D01*
X162620000Y-64120000D02*
X158380000Y-64120000D01*
X162620000Y-50880000D02*
X158380000Y-50880000D01*
X158380000Y-50880000D02*
X158380000Y-64120000D01*
X162620000Y-50880000D02*
X162620000Y-64120000D01*
X135120000Y-64120000D02*
X130880000Y-64120000D01*
X135120000Y-50880000D02*
X130880000Y-50880000D01*
X130880000Y-50880000D02*
X130880000Y-64120000D01*
X135120000Y-50880000D02*
X135120000Y-64120000D01*
X168120000Y-64120000D02*
X163880000Y-64120000D01*
X168120000Y-50880000D02*
X163880000Y-50880000D01*
X163880000Y-50880000D02*
X163880000Y-64120000D01*
X168120000Y-50880000D02*
X168120000Y-64120000D01*
X141650000Y-58740000D02*
X141650000Y-62340000D01*
X142377205Y-58215816D02*
G75*
G03*
X141650000Y-58740000I1122795J-2324184D01*
G01*
X144598807Y-58183600D02*
G75*
G02*
X146100000Y-60540000I-1098807J-2356400D01*
G01*
X144598807Y-62896400D02*
G75*
G03*
X146100000Y-60540000I-1098807J2356400D01*
G01*
X142377205Y-62864184D02*
G75*
G02*
X141650000Y-62340000I1122795J2324184D01*
G01*
X152650000Y-58740000D02*
X152650000Y-62340000D01*
X153377205Y-58215816D02*
G75*
G03*
X152650000Y-58740000I1122795J-2324184D01*
G01*
X155598807Y-58183600D02*
G75*
G02*
X157100000Y-60540000I-1098807J-2356400D01*
G01*
X155598807Y-62896400D02*
G75*
G03*
X157100000Y-60540000I-1098807J2356400D01*
G01*
X153377205Y-62864184D02*
G75*
G02*
X152650000Y-62340000I1122795J2324184D01*
G01*
X136150000Y-58740000D02*
X136150000Y-62340000D01*
X136877205Y-58215816D02*
G75*
G03*
X136150000Y-58740000I1122795J-2324184D01*
G01*
X139098807Y-58183600D02*
G75*
G02*
X140600000Y-60540000I-1098807J-2356400D01*
G01*
X139098807Y-62896400D02*
G75*
G03*
X140600000Y-60540000I-1098807J2356400D01*
G01*
X136877205Y-62864184D02*
G75*
G02*
X136150000Y-62340000I1122795J2324184D01*
G01*
X147150000Y-58740000D02*
X147150000Y-62340000D01*
X147877205Y-58215816D02*
G75*
G03*
X147150000Y-58740000I1122795J-2324184D01*
G01*
X150098807Y-58183600D02*
G75*
G02*
X151600000Y-60540000I-1098807J-2356400D01*
G01*
X150098807Y-62896400D02*
G75*
G03*
X151600000Y-60540000I-1098807J2356400D01*
G01*
X147877205Y-62864184D02*
G75*
G02*
X147150000Y-62340000I1122795J2324184D01*
G01*
X150560000Y-79960000D02*
X150560000Y-73990000D01*
X150560000Y-73990000D02*
X142940000Y-73990000D01*
X142940000Y-73990000D02*
X142940000Y-79960000D01*
X142940000Y-79960000D02*
X150560000Y-79960000D01*
X147250000Y-79950000D02*
X147250000Y-79200000D01*
X147250000Y-79200000D02*
X146250000Y-79200000D01*
X146250000Y-79200000D02*
X146250000Y-79950000D01*
X146250000Y-79950000D02*
X147250000Y-79950000D01*
X150550000Y-79950000D02*
X150550000Y-79200000D01*
X150550000Y-79200000D02*
X148750000Y-79200000D01*
X148750000Y-79200000D02*
X148750000Y-79950000D01*
X148750000Y-79950000D02*
X150550000Y-79950000D01*
X144750000Y-79950000D02*
X144750000Y-79200000D01*
X144750000Y-79200000D02*
X142950000Y-79200000D01*
X142950000Y-79200000D02*
X142950000Y-79950000D01*
X142950000Y-79950000D02*
X144750000Y-79950000D01*
X150550000Y-77700000D02*
X149800000Y-77700000D01*
X149800000Y-77700000D02*
X149800000Y-74750000D01*
X149800000Y-74750000D02*
X146750000Y-74750000D01*
X142950000Y-77700000D02*
X143700000Y-77700000D01*
X143700000Y-77700000D02*
X143700000Y-74750000D01*
X143700000Y-74750000D02*
X146750000Y-74750000D01*
X149600000Y-80250000D02*
X150850000Y-80250000D01*
X150850000Y-80250000D02*
X150850000Y-79000000D01*
X145350000Y-72250000D02*
X145350000Y-71000000D01*
X144100000Y-72250000D02*
X145350000Y-72250000D01*
X138200000Y-66750000D02*
X141250000Y-66750000D01*
X138200000Y-69700000D02*
X138200000Y-66750000D01*
X137450000Y-69700000D02*
X138200000Y-69700000D01*
X144300000Y-66750000D02*
X141250000Y-66750000D01*
X144300000Y-69700000D02*
X144300000Y-66750000D01*
X145050000Y-69700000D02*
X144300000Y-69700000D01*
X137450000Y-71950000D02*
X139250000Y-71950000D01*
X137450000Y-71200000D02*
X137450000Y-71950000D01*
X139250000Y-71200000D02*
X137450000Y-71200000D01*
X139250000Y-71950000D02*
X139250000Y-71200000D01*
X143250000Y-71950000D02*
X145050000Y-71950000D01*
X143250000Y-71200000D02*
X143250000Y-71950000D01*
X145050000Y-71200000D02*
X143250000Y-71200000D01*
X145050000Y-71950000D02*
X145050000Y-71200000D01*
X140750000Y-71950000D02*
X141750000Y-71950000D01*
X140750000Y-71200000D02*
X140750000Y-71950000D01*
X141750000Y-71200000D02*
X140750000Y-71200000D01*
X141750000Y-71950000D02*
X141750000Y-71200000D01*
X137440000Y-71960000D02*
X145060000Y-71960000D01*
X137440000Y-65990000D02*
X137440000Y-71960000D01*
X145060000Y-65990000D02*
X137440000Y-65990000D01*
X145060000Y-71960000D02*
X145060000Y-65990000D01*
X156350000Y-72250000D02*
X156350000Y-71000000D01*
X155100000Y-72250000D02*
X156350000Y-72250000D01*
X149200000Y-66750000D02*
X152250000Y-66750000D01*
X149200000Y-69700000D02*
X149200000Y-66750000D01*
X148450000Y-69700000D02*
X149200000Y-69700000D01*
X155300000Y-66750000D02*
X152250000Y-66750000D01*
X155300000Y-69700000D02*
X155300000Y-66750000D01*
X156050000Y-69700000D02*
X155300000Y-69700000D01*
X148450000Y-71950000D02*
X150250000Y-71950000D01*
X148450000Y-71200000D02*
X148450000Y-71950000D01*
X150250000Y-71200000D02*
X148450000Y-71200000D01*
X150250000Y-71950000D02*
X150250000Y-71200000D01*
X154250000Y-71950000D02*
X156050000Y-71950000D01*
X154250000Y-71200000D02*
X154250000Y-71950000D01*
X156050000Y-71200000D02*
X154250000Y-71200000D01*
X156050000Y-71950000D02*
X156050000Y-71200000D01*
X151750000Y-71950000D02*
X152750000Y-71950000D01*
X151750000Y-71200000D02*
X151750000Y-71950000D01*
X152750000Y-71200000D02*
X151750000Y-71200000D01*
X152750000Y-71950000D02*
X152750000Y-71200000D01*
X148440000Y-71960000D02*
X156060000Y-71960000D01*
X148440000Y-65990000D02*
X148440000Y-71960000D01*
X156060000Y-65990000D02*
X148440000Y-65990000D01*
X156060000Y-71960000D02*
X156060000Y-65990000D01*
X134350000Y-72250000D02*
X134350000Y-71000000D01*
X133100000Y-72250000D02*
X134350000Y-72250000D01*
X127200000Y-66750000D02*
X130250000Y-66750000D01*
X127200000Y-69700000D02*
X127200000Y-66750000D01*
X126450000Y-69700000D02*
X127200000Y-69700000D01*
X133300000Y-66750000D02*
X130250000Y-66750000D01*
X133300000Y-69700000D02*
X133300000Y-66750000D01*
X134050000Y-69700000D02*
X133300000Y-69700000D01*
X126450000Y-71950000D02*
X128250000Y-71950000D01*
X126450000Y-71200000D02*
X126450000Y-71950000D01*
X128250000Y-71200000D02*
X126450000Y-71200000D01*
X128250000Y-71950000D02*
X128250000Y-71200000D01*
X132250000Y-71950000D02*
X134050000Y-71950000D01*
X132250000Y-71200000D02*
X132250000Y-71950000D01*
X134050000Y-71200000D02*
X132250000Y-71200000D01*
X134050000Y-71950000D02*
X134050000Y-71200000D01*
X129750000Y-71950000D02*
X130750000Y-71950000D01*
X129750000Y-71200000D02*
X129750000Y-71950000D01*
X130750000Y-71200000D02*
X129750000Y-71200000D01*
X130750000Y-71950000D02*
X130750000Y-71200000D01*
X126440000Y-71960000D02*
X134060000Y-71960000D01*
X126440000Y-65990000D02*
X126440000Y-71960000D01*
X134060000Y-65990000D02*
X126440000Y-65990000D01*
X134060000Y-71960000D02*
X134060000Y-65990000D01*
X147440000Y-35540000D02*
X147440000Y-41510000D01*
X147440000Y-41510000D02*
X160060000Y-41510000D01*
X160060000Y-41510000D02*
X160060000Y-35540000D01*
X160060000Y-35540000D02*
X147440000Y-35540000D01*
X150750000Y-35550000D02*
X150750000Y-36300000D01*
X150750000Y-36300000D02*
X156750000Y-36300000D01*
X156750000Y-36300000D02*
X156750000Y-35550000D01*
X156750000Y-35550000D02*
X150750000Y-35550000D01*
X147450000Y-35550000D02*
X147450000Y-36300000D01*
X147450000Y-36300000D02*
X149250000Y-36300000D01*
X149250000Y-36300000D02*
X149250000Y-35550000D01*
X149250000Y-35550000D02*
X147450000Y-35550000D01*
X158250000Y-35550000D02*
X158250000Y-36300000D01*
X158250000Y-36300000D02*
X160050000Y-36300000D01*
X160050000Y-36300000D02*
X160050000Y-35550000D01*
X160050000Y-35550000D02*
X158250000Y-35550000D01*
X147450000Y-37800000D02*
X148200000Y-37800000D01*
X148200000Y-37800000D02*
X148200000Y-40750000D01*
X148200000Y-40750000D02*
X153750000Y-40750000D01*
X160050000Y-37800000D02*
X159300000Y-37800000D01*
X159300000Y-37800000D02*
X159300000Y-40750000D01*
X159300000Y-40750000D02*
X153750000Y-40750000D01*
X148400000Y-35250000D02*
X147150000Y-35250000D01*
X147150000Y-35250000D02*
X147150000Y-36500000D01*
X133440000Y-35540000D02*
X133440000Y-41510000D01*
X133440000Y-41510000D02*
X146060000Y-41510000D01*
X146060000Y-41510000D02*
X146060000Y-35540000D01*
X146060000Y-35540000D02*
X133440000Y-35540000D01*
X136750000Y-35550000D02*
X136750000Y-36300000D01*
X136750000Y-36300000D02*
X142750000Y-36300000D01*
X142750000Y-36300000D02*
X142750000Y-35550000D01*
X142750000Y-35550000D02*
X136750000Y-35550000D01*
X133450000Y-35550000D02*
X133450000Y-36300000D01*
X133450000Y-36300000D02*
X135250000Y-36300000D01*
X135250000Y-36300000D02*
X135250000Y-35550000D01*
X135250000Y-35550000D02*
X133450000Y-35550000D01*
X144250000Y-35550000D02*
X144250000Y-36300000D01*
X144250000Y-36300000D02*
X146050000Y-36300000D01*
X146050000Y-36300000D02*
X146050000Y-35550000D01*
X146050000Y-35550000D02*
X144250000Y-35550000D01*
X133450000Y-37800000D02*
X134200000Y-37800000D01*
X134200000Y-37800000D02*
X134200000Y-40750000D01*
X134200000Y-40750000D02*
X139750000Y-40750000D01*
X146050000Y-37800000D02*
X145300000Y-37800000D01*
X145300000Y-37800000D02*
X145300000Y-40750000D01*
X145300000Y-40750000D02*
X139750000Y-40750000D01*
X134400000Y-35250000D02*
X133150000Y-35250000D01*
X133150000Y-35250000D02*
X133150000Y-36500000D01*
D10*
X135122380Y-51451904D02*
X135931904Y-51451904D01*
X136027142Y-51404285D01*
X136074761Y-51356666D01*
X136122380Y-51261428D01*
X136122380Y-51070952D01*
X136074761Y-50975714D01*
X136027142Y-50928095D01*
X135931904Y-50880476D01*
X135122380Y-50880476D01*
X136122380Y-49880476D02*
X136122380Y-50451904D01*
X136122380Y-50166190D02*
X135122380Y-50166190D01*
X135265238Y-50261428D01*
X135360476Y-50356666D01*
X135408095Y-50451904D01*
X157562380Y-53951904D02*
X157562380Y-53285238D01*
X158562380Y-53713809D01*
X157895714Y-52475714D02*
X158562380Y-52475714D01*
X157514761Y-52713809D02*
X158229047Y-52951904D01*
X158229047Y-52332857D01*
X158562380Y-51951904D02*
X157562380Y-51951904D01*
X158038571Y-51951904D02*
X158038571Y-51380476D01*
X158562380Y-51380476D02*
X157562380Y-51380476D01*
X158467142Y-50332857D02*
X158514761Y-50380476D01*
X158562380Y-50523333D01*
X158562380Y-50618571D01*
X158514761Y-50761428D01*
X158419523Y-50856666D01*
X158324285Y-50904285D01*
X158133809Y-50951904D01*
X157990952Y-50951904D01*
X157800476Y-50904285D01*
X157705238Y-50856666D01*
X157610000Y-50761428D01*
X157562380Y-50618571D01*
X157562380Y-50523333D01*
X157610000Y-50380476D01*
X157657619Y-50332857D01*
X157562380Y-49428095D02*
X157562380Y-49904285D01*
X158038571Y-49951904D01*
X157990952Y-49904285D01*
X157943333Y-49809047D01*
X157943333Y-49570952D01*
X157990952Y-49475714D01*
X158038571Y-49428095D01*
X158133809Y-49380476D01*
X158371904Y-49380476D01*
X158467142Y-49428095D01*
X158514761Y-49475714D01*
X158562380Y-49570952D01*
X158562380Y-49809047D01*
X158514761Y-49904285D01*
X158467142Y-49951904D01*
X158562380Y-48904285D02*
X158562380Y-48713809D01*
X158514761Y-48618571D01*
X158467142Y-48570952D01*
X158324285Y-48475714D01*
X158133809Y-48428095D01*
X157752857Y-48428095D01*
X157657619Y-48475714D01*
X157610000Y-48523333D01*
X157562380Y-48618571D01*
X157562380Y-48809047D01*
X157610000Y-48904285D01*
X157657619Y-48951904D01*
X157752857Y-48999523D01*
X157990952Y-48999523D01*
X158086190Y-48951904D01*
X158133809Y-48904285D01*
X158181428Y-48809047D01*
X158181428Y-48618571D01*
X158133809Y-48523333D01*
X158086190Y-48475714D01*
X157990952Y-48428095D01*
X157562380Y-47523333D02*
X157562380Y-47999523D01*
X158038571Y-48047142D01*
X157990952Y-47999523D01*
X157943333Y-47904285D01*
X157943333Y-47666190D01*
X157990952Y-47570952D01*
X158038571Y-47523333D01*
X158133809Y-47475714D01*
X158371904Y-47475714D01*
X158467142Y-47523333D01*
X158514761Y-47570952D01*
X158562380Y-47666190D01*
X158562380Y-47904285D01*
X158514761Y-47999523D01*
X158467142Y-48047142D01*
X131833333Y-47357142D02*
X131785714Y-47404761D01*
X131642857Y-47452380D01*
X131547619Y-47452380D01*
X131404761Y-47404761D01*
X131309523Y-47309523D01*
X131261904Y-47214285D01*
X131214285Y-47023809D01*
X131214285Y-46880952D01*
X131261904Y-46690476D01*
X131309523Y-46595238D01*
X131404761Y-46500000D01*
X131547619Y-46452380D01*
X131642857Y-46452380D01*
X131785714Y-46500000D01*
X131833333Y-46547619D01*
X132785714Y-47452380D02*
X132214285Y-47452380D01*
X132500000Y-47452380D02*
X132500000Y-46452380D01*
X132404761Y-46595238D01*
X132309523Y-46690476D01*
X132214285Y-46738095D01*
X130452380Y-49952380D02*
X129880952Y-49952380D01*
X130166666Y-49952380D02*
X130166666Y-48952380D01*
X130071428Y-49095238D01*
X129976190Y-49190476D01*
X129880952Y-49238095D01*
X131071428Y-48952380D02*
X131166666Y-48952380D01*
X131261904Y-49000000D01*
X131309523Y-49047619D01*
X131357142Y-49142857D01*
X131404761Y-49333333D01*
X131404761Y-49571428D01*
X131357142Y-49761904D01*
X131309523Y-49857142D01*
X131261904Y-49904761D01*
X131166666Y-49952380D01*
X131071428Y-49952380D01*
X130976190Y-49904761D01*
X130928571Y-49857142D01*
X130880952Y-49761904D01*
X130833333Y-49571428D01*
X130833333Y-49333333D01*
X130880952Y-49142857D01*
X130928571Y-49047619D01*
X130976190Y-49000000D01*
X131071428Y-48952380D01*
X132023809Y-48952380D02*
X132119047Y-48952380D01*
X132214285Y-49000000D01*
X132261904Y-49047619D01*
X132309523Y-49142857D01*
X132357142Y-49333333D01*
X132357142Y-49571428D01*
X132309523Y-49761904D01*
X132261904Y-49857142D01*
X132214285Y-49904761D01*
X132119047Y-49952380D01*
X132023809Y-49952380D01*
X131928571Y-49904761D01*
X131880952Y-49857142D01*
X131833333Y-49761904D01*
X131785714Y-49571428D01*
X131785714Y-49333333D01*
X131833333Y-49142857D01*
X131880952Y-49047619D01*
X131928571Y-49000000D01*
X132023809Y-48952380D01*
X132785714Y-49285714D02*
X132785714Y-49952380D01*
X132785714Y-49380952D02*
X132833333Y-49333333D01*
X132928571Y-49285714D01*
X133071428Y-49285714D01*
X133166666Y-49333333D01*
X133214285Y-49428571D01*
X133214285Y-49952380D01*
X134023809Y-49428571D02*
X133690476Y-49428571D01*
X133690476Y-49952380D02*
X133690476Y-48952380D01*
X134166666Y-48952380D01*
X126952380Y-57666666D02*
X126476190Y-58000000D01*
X126952380Y-58238095D02*
X125952380Y-58238095D01*
X125952380Y-57857142D01*
X126000000Y-57761904D01*
X126047619Y-57714285D01*
X126142857Y-57666666D01*
X126285714Y-57666666D01*
X126380952Y-57714285D01*
X126428571Y-57761904D01*
X126476190Y-57857142D01*
X126476190Y-58238095D01*
X126952380Y-56714285D02*
X126952380Y-57285714D01*
X126952380Y-57000000D02*
X125952380Y-57000000D01*
X126095238Y-57095238D01*
X126190476Y-57190476D01*
X126238095Y-57285714D01*
X128047619Y-58738095D02*
X128000000Y-58690476D01*
X127952380Y-58595238D01*
X127952380Y-58357142D01*
X128000000Y-58261904D01*
X128047619Y-58214285D01*
X128142857Y-58166666D01*
X128238095Y-58166666D01*
X128380952Y-58214285D01*
X128952380Y-58785714D01*
X128952380Y-58166666D01*
X127952380Y-57833333D02*
X127952380Y-57166666D01*
X128952380Y-57595238D01*
X127952380Y-56595238D02*
X127952380Y-56500000D01*
X128000000Y-56404761D01*
X128047619Y-56357142D01*
X128142857Y-56309523D01*
X128333333Y-56261904D01*
X128571428Y-56261904D01*
X128761904Y-56309523D01*
X128857142Y-56357142D01*
X128904761Y-56404761D01*
X128952380Y-56500000D01*
X128952380Y-56595238D01*
X128904761Y-56690476D01*
X128857142Y-56738095D01*
X128761904Y-56785714D01*
X128571428Y-56833333D01*
X128333333Y-56833333D01*
X128142857Y-56785714D01*
X128047619Y-56738095D01*
X128000000Y-56690476D01*
X127952380Y-56595238D01*
X159952380Y-57666666D02*
X159476190Y-58000000D01*
X159952380Y-58238095D02*
X158952380Y-58238095D01*
X158952380Y-57857142D01*
X159000000Y-57761904D01*
X159047619Y-57714285D01*
X159142857Y-57666666D01*
X159285714Y-57666666D01*
X159380952Y-57714285D01*
X159428571Y-57761904D01*
X159476190Y-57857142D01*
X159476190Y-58238095D01*
X158952380Y-57333333D02*
X158952380Y-56714285D01*
X159333333Y-57047619D01*
X159333333Y-56904761D01*
X159380952Y-56809523D01*
X159428571Y-56761904D01*
X159523809Y-56714285D01*
X159761904Y-56714285D01*
X159857142Y-56761904D01*
X159904761Y-56809523D01*
X159952380Y-56904761D01*
X159952380Y-57190476D01*
X159904761Y-57285714D01*
X159857142Y-57333333D01*
X161047619Y-58738095D02*
X161000000Y-58690476D01*
X160952380Y-58595238D01*
X160952380Y-58357142D01*
X161000000Y-58261904D01*
X161047619Y-58214285D01*
X161142857Y-58166666D01*
X161238095Y-58166666D01*
X161380952Y-58214285D01*
X161952380Y-58785714D01*
X161952380Y-58166666D01*
X160952380Y-57833333D02*
X160952380Y-57166666D01*
X161952380Y-57595238D01*
X160952380Y-56595238D02*
X160952380Y-56500000D01*
X161000000Y-56404761D01*
X161047619Y-56357142D01*
X161142857Y-56309523D01*
X161333333Y-56261904D01*
X161571428Y-56261904D01*
X161761904Y-56309523D01*
X161857142Y-56357142D01*
X161904761Y-56404761D01*
X161952380Y-56500000D01*
X161952380Y-56595238D01*
X161904761Y-56690476D01*
X161857142Y-56738095D01*
X161761904Y-56785714D01*
X161571428Y-56833333D01*
X161333333Y-56833333D01*
X161142857Y-56785714D01*
X161047619Y-56738095D01*
X161000000Y-56690476D01*
X160952380Y-56595238D01*
X132452380Y-57666666D02*
X131976190Y-58000000D01*
X132452380Y-58238095D02*
X131452380Y-58238095D01*
X131452380Y-57857142D01*
X131500000Y-57761904D01*
X131547619Y-57714285D01*
X131642857Y-57666666D01*
X131785714Y-57666666D01*
X131880952Y-57714285D01*
X131928571Y-57761904D01*
X131976190Y-57857142D01*
X131976190Y-58238095D01*
X131547619Y-57285714D02*
X131500000Y-57238095D01*
X131452380Y-57142857D01*
X131452380Y-56904761D01*
X131500000Y-56809523D01*
X131547619Y-56761904D01*
X131642857Y-56714285D01*
X131738095Y-56714285D01*
X131880952Y-56761904D01*
X132452380Y-57333333D01*
X132452380Y-56714285D01*
X133547619Y-58738095D02*
X133500000Y-58690476D01*
X133452380Y-58595238D01*
X133452380Y-58357142D01*
X133500000Y-58261904D01*
X133547619Y-58214285D01*
X133642857Y-58166666D01*
X133738095Y-58166666D01*
X133880952Y-58214285D01*
X134452380Y-58785714D01*
X134452380Y-58166666D01*
X133452380Y-57833333D02*
X133452380Y-57166666D01*
X134452380Y-57595238D01*
X133452380Y-56595238D02*
X133452380Y-56500000D01*
X133500000Y-56404761D01*
X133547619Y-56357142D01*
X133642857Y-56309523D01*
X133833333Y-56261904D01*
X134071428Y-56261904D01*
X134261904Y-56309523D01*
X134357142Y-56357142D01*
X134404761Y-56404761D01*
X134452380Y-56500000D01*
X134452380Y-56595238D01*
X134404761Y-56690476D01*
X134357142Y-56738095D01*
X134261904Y-56785714D01*
X134071428Y-56833333D01*
X133833333Y-56833333D01*
X133642857Y-56785714D01*
X133547619Y-56738095D01*
X133500000Y-56690476D01*
X133452380Y-56595238D01*
X165452380Y-57666666D02*
X164976190Y-58000000D01*
X165452380Y-58238095D02*
X164452380Y-58238095D01*
X164452380Y-57857142D01*
X164500000Y-57761904D01*
X164547619Y-57714285D01*
X164642857Y-57666666D01*
X164785714Y-57666666D01*
X164880952Y-57714285D01*
X164928571Y-57761904D01*
X164976190Y-57857142D01*
X164976190Y-58238095D01*
X164785714Y-56809523D02*
X165452380Y-56809523D01*
X164404761Y-57047619D02*
X165119047Y-57285714D01*
X165119047Y-56666666D01*
X166547619Y-58738095D02*
X166500000Y-58690476D01*
X166452380Y-58595238D01*
X166452380Y-58357142D01*
X166500000Y-58261904D01*
X166547619Y-58214285D01*
X166642857Y-58166666D01*
X166738095Y-58166666D01*
X166880952Y-58214285D01*
X167452380Y-58785714D01*
X167452380Y-58166666D01*
X166452380Y-57833333D02*
X166452380Y-57166666D01*
X167452380Y-57595238D01*
X166452380Y-56595238D02*
X166452380Y-56500000D01*
X166500000Y-56404761D01*
X166547619Y-56357142D01*
X166642857Y-56309523D01*
X166833333Y-56261904D01*
X167071428Y-56261904D01*
X167261904Y-56309523D01*
X167357142Y-56357142D01*
X167404761Y-56404761D01*
X167452380Y-56500000D01*
X167452380Y-56595238D01*
X167404761Y-56690476D01*
X167357142Y-56738095D01*
X167261904Y-56785714D01*
X167071428Y-56833333D01*
X166833333Y-56833333D01*
X166642857Y-56785714D01*
X166547619Y-56738095D01*
X166500000Y-56690476D01*
X166452380Y-56595238D01*
X145404761Y-58047619D02*
X145309523Y-58000000D01*
X145214285Y-57904761D01*
X145071428Y-57761904D01*
X144976190Y-57714285D01*
X144880952Y-57714285D01*
X144928571Y-57952380D02*
X144833333Y-57904761D01*
X144738095Y-57809523D01*
X144690476Y-57619047D01*
X144690476Y-57285714D01*
X144738095Y-57095238D01*
X144833333Y-57000000D01*
X144928571Y-56952380D01*
X145119047Y-56952380D01*
X145214285Y-57000000D01*
X145309523Y-57095238D01*
X145357142Y-57285714D01*
X145357142Y-57619047D01*
X145309523Y-57809523D01*
X145214285Y-57904761D01*
X145119047Y-57952380D01*
X144928571Y-57952380D01*
X145738095Y-57047619D02*
X145785714Y-57000000D01*
X145880952Y-56952380D01*
X146119047Y-56952380D01*
X146214285Y-57000000D01*
X146261904Y-57047619D01*
X146309523Y-57142857D01*
X146309523Y-57238095D01*
X146261904Y-57380952D01*
X145690476Y-57952380D01*
X146309523Y-57952380D01*
X156404761Y-58047619D02*
X156309523Y-58000000D01*
X156214285Y-57904761D01*
X156071428Y-57761904D01*
X155976190Y-57714285D01*
X155880952Y-57714285D01*
X155928571Y-57952380D02*
X155833333Y-57904761D01*
X155738095Y-57809523D01*
X155690476Y-57619047D01*
X155690476Y-57285714D01*
X155738095Y-57095238D01*
X155833333Y-57000000D01*
X155928571Y-56952380D01*
X156119047Y-56952380D01*
X156214285Y-57000000D01*
X156309523Y-57095238D01*
X156357142Y-57285714D01*
X156357142Y-57619047D01*
X156309523Y-57809523D01*
X156214285Y-57904761D01*
X156119047Y-57952380D01*
X155928571Y-57952380D01*
X157214285Y-57285714D02*
X157214285Y-57952380D01*
X156976190Y-56904761D02*
X156738095Y-57619047D01*
X157357142Y-57619047D01*
X139904761Y-58047619D02*
X139809523Y-58000000D01*
X139714285Y-57904761D01*
X139571428Y-57761904D01*
X139476190Y-57714285D01*
X139380952Y-57714285D01*
X139428571Y-57952380D02*
X139333333Y-57904761D01*
X139238095Y-57809523D01*
X139190476Y-57619047D01*
X139190476Y-57285714D01*
X139238095Y-57095238D01*
X139333333Y-57000000D01*
X139428571Y-56952380D01*
X139619047Y-56952380D01*
X139714285Y-57000000D01*
X139809523Y-57095238D01*
X139857142Y-57285714D01*
X139857142Y-57619047D01*
X139809523Y-57809523D01*
X139714285Y-57904761D01*
X139619047Y-57952380D01*
X139428571Y-57952380D01*
X140809523Y-57952380D02*
X140238095Y-57952380D01*
X140523809Y-57952380D02*
X140523809Y-56952380D01*
X140428571Y-57095238D01*
X140333333Y-57190476D01*
X140238095Y-57238095D01*
X150904761Y-58047619D02*
X150809523Y-58000000D01*
X150714285Y-57904761D01*
X150571428Y-57761904D01*
X150476190Y-57714285D01*
X150380952Y-57714285D01*
X150428571Y-57952380D02*
X150333333Y-57904761D01*
X150238095Y-57809523D01*
X150190476Y-57619047D01*
X150190476Y-57285714D01*
X150238095Y-57095238D01*
X150333333Y-57000000D01*
X150428571Y-56952380D01*
X150619047Y-56952380D01*
X150714285Y-57000000D01*
X150809523Y-57095238D01*
X150857142Y-57285714D01*
X150857142Y-57619047D01*
X150809523Y-57809523D01*
X150714285Y-57904761D01*
X150619047Y-57952380D01*
X150428571Y-57952380D01*
X151190476Y-56952380D02*
X151809523Y-56952380D01*
X151476190Y-57333333D01*
X151619047Y-57333333D01*
X151714285Y-57380952D01*
X151761904Y-57428571D01*
X151809523Y-57523809D01*
X151809523Y-57761904D01*
X151761904Y-57857142D01*
X151714285Y-57904761D01*
X151619047Y-57952380D01*
X151333333Y-57952380D01*
X151238095Y-57904761D01*
X151190476Y-57857142D01*
X146166666Y-80452380D02*
X146166666Y-81166666D01*
X146119047Y-81309523D01*
X146023809Y-81404761D01*
X145880952Y-81452380D01*
X145785714Y-81452380D01*
X146547619Y-80452380D02*
X147214285Y-80452380D01*
X146785714Y-81452380D01*
X153416666Y-33902380D02*
X153416666Y-34616666D01*
X153369047Y-34759523D01*
X153273809Y-34854761D01*
X153130952Y-34902380D01*
X153035714Y-34902380D01*
X153845238Y-33997619D02*
X153892857Y-33950000D01*
X153988095Y-33902380D01*
X154226190Y-33902380D01*
X154321428Y-33950000D01*
X154369047Y-33997619D01*
X154416666Y-34092857D01*
X154416666Y-34188095D01*
X154369047Y-34330952D01*
X153797619Y-34902380D01*
X154416666Y-34902380D01*
X139416666Y-33902380D02*
X139416666Y-34616666D01*
X139369047Y-34759523D01*
X139273809Y-34854761D01*
X139130952Y-34902380D01*
X139035714Y-34902380D01*
X140416666Y-34902380D02*
X139845238Y-34902380D01*
X140130952Y-34902380D02*
X140130952Y-33902380D01*
X140035714Y-34045238D01*
X139940476Y-34140476D01*
X139845238Y-34188095D01*
M02*
