G04 #@! TF.GenerationSoftware,KiCad,Pcbnew,(5.1.7)-1*
G04 #@! TF.CreationDate,2020-12-10T17:59:24+02:00*
G04 #@! TF.ProjectId,4_switch_array,345f7377-6974-4636-985f-61727261792e,rev?*
G04 #@! TF.SameCoordinates,Original*
G04 #@! TF.FileFunction,Copper,L2,Bot*
G04 #@! TF.FilePolarity,Positive*
%FSLAX46Y46*%
G04 Gerber Fmt 4.6, Leading zero omitted, Abs format (unit mm)*
G04 Created by KiCad (PCBNEW (5.1.7)-1) date 2020-12-10 17:59:24*
%MOMM*%
%LPD*%
G01*
G04 APERTURE LIST*
G04 #@! TA.AperFunction,ComponentPad*
%ADD10O,1.700000X2.000000*%
G04 #@! TD*
G04 #@! TA.AperFunction,ComponentPad*
%ADD11O,1.600000X1.600000*%
G04 #@! TD*
G04 #@! TA.AperFunction,ComponentPad*
%ADD12R,1.600000X1.600000*%
G04 #@! TD*
G04 #@! TA.AperFunction,ComponentPad*
%ADD13C,1.600000*%
G04 #@! TD*
G04 #@! TA.AperFunction,ComponentPad*
%ADD14C,2.000000*%
G04 #@! TD*
G04 #@! TA.AperFunction,ComponentPad*
%ADD15C,1.500000*%
G04 #@! TD*
G04 #@! TA.AperFunction,ComponentPad*
%ADD16R,1.500000X1.500000*%
G04 #@! TD*
G04 #@! TA.AperFunction,ComponentPad*
%ADD17O,1.700000X1.950000*%
G04 #@! TD*
G04 #@! TA.AperFunction,Conductor*
%ADD18C,0.500000*%
G04 #@! TD*
G04 #@! TA.AperFunction,Conductor*
%ADD19C,0.100000*%
G04 #@! TD*
G04 APERTURE END LIST*
D10*
X151000000Y-78000000D03*
G04 #@! TA.AperFunction,ComponentPad*
G36*
G01*
X154350000Y-77250000D02*
X154350000Y-78750000D01*
G75*
G02*
X154100000Y-79000000I-250000J0D01*
G01*
X152900000Y-79000000D01*
G75*
G02*
X152650000Y-78750000I0J250000D01*
G01*
X152650000Y-77250000D01*
G75*
G02*
X152900000Y-77000000I250000J0D01*
G01*
X154100000Y-77000000D01*
G75*
G02*
X154350000Y-77250000I0J-250000D01*
G01*
G37*
G04 #@! TD.AperFunction*
D11*
X138000000Y-46880000D03*
X155780000Y-54500000D03*
X140540000Y-46880000D03*
X153240000Y-54500000D03*
X143080000Y-46880000D03*
X150700000Y-54500000D03*
X145620000Y-46880000D03*
X148160000Y-54500000D03*
X148160000Y-46880000D03*
X145620000Y-54500000D03*
X150700000Y-46880000D03*
X143080000Y-54500000D03*
X153240000Y-46880000D03*
X140540000Y-54500000D03*
X155780000Y-46880000D03*
D12*
X138000000Y-54500000D03*
G04 #@! TA.AperFunction,ComponentPad*
G36*
G01*
X165350000Y-68750000D02*
X165350000Y-70250000D01*
G75*
G02*
X165100000Y-70500000I-250000J0D01*
G01*
X163900000Y-70500000D01*
G75*
G02*
X163650000Y-70250000I0J250000D01*
G01*
X163650000Y-68750000D01*
G75*
G02*
X163900000Y-68500000I250000J0D01*
G01*
X165100000Y-68500000D01*
G75*
G02*
X165350000Y-68750000I0J-250000D01*
G01*
G37*
G04 #@! TD.AperFunction*
D10*
X162000000Y-69500000D03*
D13*
X129500000Y-47000000D03*
X134500000Y-47000000D03*
D14*
X127500000Y-53000000D03*
X127500000Y-62000000D03*
X160500000Y-53000000D03*
X160500000Y-62000000D03*
X133000000Y-53000000D03*
X133000000Y-62000000D03*
X166000000Y-53000000D03*
X166000000Y-62000000D03*
D15*
X143500000Y-60540000D03*
X143500000Y-63080000D03*
D16*
X143500000Y-58000000D03*
D15*
X154500000Y-60540000D03*
X154500000Y-63080000D03*
D16*
X154500000Y-58000000D03*
D15*
X138000000Y-60540000D03*
X138000000Y-63080000D03*
D16*
X138000000Y-58000000D03*
D15*
X149000000Y-60540000D03*
X149000000Y-63080000D03*
D16*
X149000000Y-58000000D03*
D10*
X140000000Y-78000000D03*
G04 #@! TA.AperFunction,ComponentPad*
G36*
G01*
X143350000Y-77250000D02*
X143350000Y-78750000D01*
G75*
G02*
X143100000Y-79000000I-250000J0D01*
G01*
X141900000Y-79000000D01*
G75*
G02*
X141650000Y-78750000I0J250000D01*
G01*
X141650000Y-77250000D01*
G75*
G02*
X141900000Y-77000000I250000J0D01*
G01*
X143100000Y-77000000D01*
G75*
G02*
X143350000Y-77250000I0J-250000D01*
G01*
G37*
G04 #@! TD.AperFunction*
G04 #@! TA.AperFunction,ComponentPad*
G36*
G01*
X143350000Y-68750000D02*
X143350000Y-70250000D01*
G75*
G02*
X143100000Y-70500000I-250000J0D01*
G01*
X141900000Y-70500000D01*
G75*
G02*
X141650000Y-70250000I0J250000D01*
G01*
X141650000Y-68750000D01*
G75*
G02*
X141900000Y-68500000I250000J0D01*
G01*
X143100000Y-68500000D01*
G75*
G02*
X143350000Y-68750000I0J-250000D01*
G01*
G37*
G04 #@! TD.AperFunction*
X140000000Y-69500000D03*
G04 #@! TA.AperFunction,ComponentPad*
G36*
G01*
X154350000Y-68750000D02*
X154350000Y-70250000D01*
G75*
G02*
X154100000Y-70500000I-250000J0D01*
G01*
X152900000Y-70500000D01*
G75*
G02*
X152650000Y-70250000I0J250000D01*
G01*
X152650000Y-68750000D01*
G75*
G02*
X152900000Y-68500000I250000J0D01*
G01*
X154100000Y-68500000D01*
G75*
G02*
X154350000Y-68750000I0J-250000D01*
G01*
G37*
G04 #@! TD.AperFunction*
X151000000Y-69500000D03*
G04 #@! TA.AperFunction,ComponentPad*
G36*
G01*
X132350000Y-68750000D02*
X132350000Y-70250000D01*
G75*
G02*
X132100000Y-70500000I-250000J0D01*
G01*
X130900000Y-70500000D01*
G75*
G02*
X130650000Y-70250000I0J250000D01*
G01*
X130650000Y-68750000D01*
G75*
G02*
X130900000Y-68500000I250000J0D01*
G01*
X132100000Y-68500000D01*
G75*
G02*
X132350000Y-68750000I0J-250000D01*
G01*
G37*
G04 #@! TD.AperFunction*
X129000000Y-69500000D03*
D17*
X157500000Y-38000000D03*
X155000000Y-38000000D03*
X152500000Y-38000000D03*
G04 #@! TA.AperFunction,ComponentPad*
G36*
G01*
X149150000Y-38725000D02*
X149150000Y-37275000D01*
G75*
G02*
X149400000Y-37025000I250000J0D01*
G01*
X150600000Y-37025000D01*
G75*
G02*
X150850000Y-37275000I0J-250000D01*
G01*
X150850000Y-38725000D01*
G75*
G02*
X150600000Y-38975000I-250000J0D01*
G01*
X149400000Y-38975000D01*
G75*
G02*
X149150000Y-38725000I0J250000D01*
G01*
G37*
G04 #@! TD.AperFunction*
X143500000Y-38000000D03*
X141000000Y-38000000D03*
X138500000Y-38000000D03*
G04 #@! TA.AperFunction,ComponentPad*
G36*
G01*
X135150000Y-38725000D02*
X135150000Y-37275000D01*
G75*
G02*
X135400000Y-37025000I250000J0D01*
G01*
X136600000Y-37025000D01*
G75*
G02*
X136850000Y-37275000I0J-250000D01*
G01*
X136850000Y-38725000D01*
G75*
G02*
X136600000Y-38975000I-250000J0D01*
G01*
X135400000Y-38975000D01*
G75*
G02*
X135150000Y-38725000I0J250000D01*
G01*
G37*
G04 #@! TD.AperFunction*
D18*
X162250000Y-40500000D02*
X162254804Y-40548773D01*
X162269030Y-40595671D01*
X162292133Y-40638893D01*
X162323223Y-40676777D01*
X162361107Y-40707867D01*
X162404329Y-40730970D01*
X162451227Y-40745196D01*
X162500000Y-40750000D01*
X168725000Y-40750000D01*
X168725001Y-74750000D01*
X162500000Y-74750000D01*
X162451227Y-74754804D01*
X162404329Y-74769030D01*
X162361107Y-74792133D01*
X162323223Y-74823223D01*
X162292133Y-74861107D01*
X162269030Y-74904329D01*
X162254804Y-74951227D01*
X162250000Y-75000000D01*
X162250000Y-81225000D01*
X131250000Y-81225000D01*
X131250000Y-78497839D01*
X138443074Y-78497839D01*
X138540850Y-78794897D01*
X138694700Y-79067172D01*
X138898712Y-79304200D01*
X139145046Y-79496873D01*
X139424236Y-79637786D01*
X139505857Y-79671783D01*
X139750000Y-79540200D01*
X139750000Y-78250000D01*
X138595328Y-78250000D01*
X138443074Y-78497839D01*
X131250000Y-78497839D01*
X131250000Y-77502161D01*
X138443074Y-77502161D01*
X138595328Y-77750000D01*
X139750000Y-77750000D01*
X139750000Y-76459800D01*
X140250000Y-76459800D01*
X140250000Y-77750000D01*
X140270000Y-77750000D01*
X140270000Y-78250000D01*
X140250000Y-78250000D01*
X140250000Y-79540200D01*
X140494143Y-79671783D01*
X140575764Y-79637786D01*
X140854954Y-79496873D01*
X141077807Y-79322566D01*
X141190328Y-79459672D01*
X141342414Y-79584486D01*
X141515928Y-79677231D01*
X141704202Y-79734344D01*
X141900000Y-79753628D01*
X143100000Y-79753628D01*
X143295798Y-79734344D01*
X143484072Y-79677231D01*
X143657586Y-79584486D01*
X143809672Y-79459672D01*
X143934486Y-79307586D01*
X144027231Y-79134072D01*
X144084344Y-78945798D01*
X144103628Y-78750000D01*
X144103628Y-78497839D01*
X149443074Y-78497839D01*
X149540850Y-78794897D01*
X149694700Y-79067172D01*
X149898712Y-79304200D01*
X150145046Y-79496873D01*
X150424236Y-79637786D01*
X150505857Y-79671783D01*
X150750000Y-79540200D01*
X150750000Y-78250000D01*
X149595328Y-78250000D01*
X149443074Y-78497839D01*
X144103628Y-78497839D01*
X144103628Y-77502161D01*
X149443074Y-77502161D01*
X149595328Y-77750000D01*
X150750000Y-77750000D01*
X150750000Y-76459800D01*
X151250000Y-76459800D01*
X151250000Y-77750000D01*
X151270000Y-77750000D01*
X151270000Y-78250000D01*
X151250000Y-78250000D01*
X151250000Y-79540200D01*
X151494143Y-79671783D01*
X151575764Y-79637786D01*
X151854954Y-79496873D01*
X152077807Y-79322566D01*
X152190328Y-79459672D01*
X152342414Y-79584486D01*
X152515928Y-79677231D01*
X152704202Y-79734344D01*
X152900000Y-79753628D01*
X154100000Y-79753628D01*
X154295798Y-79734344D01*
X154484072Y-79677231D01*
X154657586Y-79584486D01*
X154809672Y-79459672D01*
X154934486Y-79307586D01*
X155027231Y-79134072D01*
X155084344Y-78945798D01*
X155103628Y-78750000D01*
X155103628Y-77250000D01*
X155084344Y-77054202D01*
X155027231Y-76865928D01*
X154934486Y-76692414D01*
X154809672Y-76540328D01*
X154657586Y-76415514D01*
X154484072Y-76322769D01*
X154295798Y-76265656D01*
X154100000Y-76246372D01*
X152900000Y-76246372D01*
X152704202Y-76265656D01*
X152515928Y-76322769D01*
X152342414Y-76415514D01*
X152190328Y-76540328D01*
X152077807Y-76677434D01*
X151854954Y-76503127D01*
X151575764Y-76362214D01*
X151494143Y-76328217D01*
X151250000Y-76459800D01*
X150750000Y-76459800D01*
X150505857Y-76328217D01*
X150424236Y-76362214D01*
X150145046Y-76503127D01*
X149898712Y-76695800D01*
X149694700Y-76932828D01*
X149540850Y-77205103D01*
X149443074Y-77502161D01*
X144103628Y-77502161D01*
X144103628Y-77250000D01*
X144084344Y-77054202D01*
X144027231Y-76865928D01*
X143934486Y-76692414D01*
X143809672Y-76540328D01*
X143657586Y-76415514D01*
X143484072Y-76322769D01*
X143295798Y-76265656D01*
X143100000Y-76246372D01*
X141900000Y-76246372D01*
X141704202Y-76265656D01*
X141515928Y-76322769D01*
X141342414Y-76415514D01*
X141190328Y-76540328D01*
X141077807Y-76677434D01*
X140854954Y-76503127D01*
X140575764Y-76362214D01*
X140494143Y-76328217D01*
X140250000Y-76459800D01*
X139750000Y-76459800D01*
X139505857Y-76328217D01*
X139424236Y-76362214D01*
X139145046Y-76503127D01*
X138898712Y-76695800D01*
X138694700Y-76932828D01*
X138540850Y-77205103D01*
X138443074Y-77502161D01*
X131250000Y-77502161D01*
X131250000Y-75000000D01*
X131245196Y-74951227D01*
X131230970Y-74904329D01*
X131207867Y-74861107D01*
X131176777Y-74823223D01*
X131138893Y-74792133D01*
X131095671Y-74769030D01*
X131048773Y-74754804D01*
X131000000Y-74750000D01*
X124775000Y-74750000D01*
X124775000Y-69271403D01*
X127400000Y-69271403D01*
X127400000Y-69728596D01*
X127423151Y-69963654D01*
X127514641Y-70265255D01*
X127663212Y-70543212D01*
X127863155Y-70786845D01*
X128106787Y-70986788D01*
X128384744Y-71135359D01*
X128686345Y-71226849D01*
X129000000Y-71257741D01*
X129313654Y-71226849D01*
X129615255Y-71135359D01*
X129893212Y-70986788D01*
X130084050Y-70830172D01*
X130190328Y-70959672D01*
X130342414Y-71084486D01*
X130515928Y-71177231D01*
X130704202Y-71234344D01*
X130900000Y-71253628D01*
X132100000Y-71253628D01*
X132295798Y-71234344D01*
X132484072Y-71177231D01*
X132657586Y-71084486D01*
X132809672Y-70959672D01*
X132934486Y-70807586D01*
X133027231Y-70634072D01*
X133084344Y-70445798D01*
X133103628Y-70250000D01*
X133103628Y-69271403D01*
X138400000Y-69271403D01*
X138400000Y-69728596D01*
X138423151Y-69963654D01*
X138514641Y-70265255D01*
X138663212Y-70543212D01*
X138863155Y-70786845D01*
X139106787Y-70986788D01*
X139384744Y-71135359D01*
X139686345Y-71226849D01*
X140000000Y-71257741D01*
X140313654Y-71226849D01*
X140615255Y-71135359D01*
X140893212Y-70986788D01*
X141084050Y-70830172D01*
X141190328Y-70959672D01*
X141342414Y-71084486D01*
X141515928Y-71177231D01*
X141704202Y-71234344D01*
X141900000Y-71253628D01*
X143100000Y-71253628D01*
X143295798Y-71234344D01*
X143484072Y-71177231D01*
X143657586Y-71084486D01*
X143809672Y-70959672D01*
X143934486Y-70807586D01*
X144027231Y-70634072D01*
X144084344Y-70445798D01*
X144103628Y-70250000D01*
X144103628Y-69271403D01*
X149400000Y-69271403D01*
X149400000Y-69728596D01*
X149423151Y-69963654D01*
X149514641Y-70265255D01*
X149663212Y-70543212D01*
X149863155Y-70786845D01*
X150106787Y-70986788D01*
X150384744Y-71135359D01*
X150686345Y-71226849D01*
X151000000Y-71257741D01*
X151313654Y-71226849D01*
X151615255Y-71135359D01*
X151893212Y-70986788D01*
X152084050Y-70830172D01*
X152190328Y-70959672D01*
X152342414Y-71084486D01*
X152515928Y-71177231D01*
X152704202Y-71234344D01*
X152900000Y-71253628D01*
X154100000Y-71253628D01*
X154295798Y-71234344D01*
X154484072Y-71177231D01*
X154657586Y-71084486D01*
X154809672Y-70959672D01*
X154934486Y-70807586D01*
X155027231Y-70634072D01*
X155084344Y-70445798D01*
X155103628Y-70250000D01*
X155103628Y-69271403D01*
X160400000Y-69271403D01*
X160400000Y-69728596D01*
X160423151Y-69963654D01*
X160514641Y-70265255D01*
X160663212Y-70543212D01*
X160863155Y-70786845D01*
X161106787Y-70986788D01*
X161384744Y-71135359D01*
X161686345Y-71226849D01*
X162000000Y-71257741D01*
X162313654Y-71226849D01*
X162615255Y-71135359D01*
X162893212Y-70986788D01*
X163084050Y-70830172D01*
X163190328Y-70959672D01*
X163342414Y-71084486D01*
X163515928Y-71177231D01*
X163704202Y-71234344D01*
X163900000Y-71253628D01*
X165100000Y-71253628D01*
X165295798Y-71234344D01*
X165484072Y-71177231D01*
X165657586Y-71084486D01*
X165809672Y-70959672D01*
X165934486Y-70807586D01*
X166027231Y-70634072D01*
X166084344Y-70445798D01*
X166103628Y-70250000D01*
X166103628Y-68750000D01*
X166084344Y-68554202D01*
X166027231Y-68365928D01*
X165934486Y-68192414D01*
X165809672Y-68040328D01*
X165657586Y-67915514D01*
X165484072Y-67822769D01*
X165295798Y-67765656D01*
X165100000Y-67746372D01*
X163900000Y-67746372D01*
X163704202Y-67765656D01*
X163515928Y-67822769D01*
X163342414Y-67915514D01*
X163190328Y-68040328D01*
X163084050Y-68169828D01*
X162893213Y-68013212D01*
X162615256Y-67864641D01*
X162313655Y-67773151D01*
X162000000Y-67742259D01*
X161686346Y-67773151D01*
X161384745Y-67864641D01*
X161106788Y-68013212D01*
X160863155Y-68213155D01*
X160663212Y-68456787D01*
X160514641Y-68734744D01*
X160423151Y-69036345D01*
X160400000Y-69271403D01*
X155103628Y-69271403D01*
X155103628Y-68750000D01*
X155084344Y-68554202D01*
X155027231Y-68365928D01*
X154934486Y-68192414D01*
X154809672Y-68040328D01*
X154657586Y-67915514D01*
X154484072Y-67822769D01*
X154295798Y-67765656D01*
X154100000Y-67746372D01*
X152900000Y-67746372D01*
X152704202Y-67765656D01*
X152515928Y-67822769D01*
X152342414Y-67915514D01*
X152190328Y-68040328D01*
X152084050Y-68169828D01*
X151893213Y-68013212D01*
X151615256Y-67864641D01*
X151313655Y-67773151D01*
X151000000Y-67742259D01*
X150686346Y-67773151D01*
X150384745Y-67864641D01*
X150106788Y-68013212D01*
X149863155Y-68213155D01*
X149663212Y-68456787D01*
X149514641Y-68734744D01*
X149423151Y-69036345D01*
X149400000Y-69271403D01*
X144103628Y-69271403D01*
X144103628Y-68750000D01*
X144084344Y-68554202D01*
X144027231Y-68365928D01*
X143934486Y-68192414D01*
X143809672Y-68040328D01*
X143657586Y-67915514D01*
X143484072Y-67822769D01*
X143295798Y-67765656D01*
X143100000Y-67746372D01*
X141900000Y-67746372D01*
X141704202Y-67765656D01*
X141515928Y-67822769D01*
X141342414Y-67915514D01*
X141190328Y-68040328D01*
X141084050Y-68169828D01*
X140893213Y-68013212D01*
X140615256Y-67864641D01*
X140313655Y-67773151D01*
X140000000Y-67742259D01*
X139686346Y-67773151D01*
X139384745Y-67864641D01*
X139106788Y-68013212D01*
X138863155Y-68213155D01*
X138663212Y-68456787D01*
X138514641Y-68734744D01*
X138423151Y-69036345D01*
X138400000Y-69271403D01*
X133103628Y-69271403D01*
X133103628Y-68750000D01*
X133084344Y-68554202D01*
X133027231Y-68365928D01*
X132934486Y-68192414D01*
X132809672Y-68040328D01*
X132657586Y-67915514D01*
X132484072Y-67822769D01*
X132295798Y-67765656D01*
X132100000Y-67746372D01*
X130900000Y-67746372D01*
X130704202Y-67765656D01*
X130515928Y-67822769D01*
X130342414Y-67915514D01*
X130190328Y-68040328D01*
X130084050Y-68169828D01*
X129893213Y-68013212D01*
X129615256Y-67864641D01*
X129313655Y-67773151D01*
X129000000Y-67742259D01*
X128686346Y-67773151D01*
X128384745Y-67864641D01*
X128106788Y-68013212D01*
X127863155Y-68213155D01*
X127663212Y-68456787D01*
X127514641Y-68734744D01*
X127423151Y-69036345D01*
X127400000Y-69271403D01*
X124775000Y-69271403D01*
X124775000Y-61827640D01*
X125750000Y-61827640D01*
X125750000Y-62172360D01*
X125817251Y-62510456D01*
X125949170Y-62828936D01*
X126140686Y-63115560D01*
X126384440Y-63359314D01*
X126671064Y-63550830D01*
X126989544Y-63682749D01*
X127327640Y-63750000D01*
X127672360Y-63750000D01*
X128010456Y-63682749D01*
X128328936Y-63550830D01*
X128615560Y-63359314D01*
X128859314Y-63115560D01*
X129050830Y-62828936D01*
X129182749Y-62510456D01*
X129250000Y-62172360D01*
X129250000Y-61827640D01*
X131250000Y-61827640D01*
X131250000Y-62172360D01*
X131317251Y-62510456D01*
X131449170Y-62828936D01*
X131640686Y-63115560D01*
X131884440Y-63359314D01*
X132171064Y-63550830D01*
X132489544Y-63682749D01*
X132827640Y-63750000D01*
X133172360Y-63750000D01*
X133510456Y-63682749D01*
X133828936Y-63550830D01*
X134115560Y-63359314D01*
X134359314Y-63115560D01*
X134550830Y-62828936D01*
X134682749Y-62510456D01*
X134750000Y-62172360D01*
X134750000Y-61827640D01*
X134682749Y-61489544D01*
X134550830Y-61171064D01*
X134359314Y-60884440D01*
X134115560Y-60640686D01*
X133828936Y-60449170D01*
X133510456Y-60317251D01*
X133172360Y-60250000D01*
X132827640Y-60250000D01*
X132489544Y-60317251D01*
X132171064Y-60449170D01*
X131884440Y-60640686D01*
X131640686Y-60884440D01*
X131449170Y-61171064D01*
X131317251Y-61489544D01*
X131250000Y-61827640D01*
X129250000Y-61827640D01*
X129182749Y-61489544D01*
X129050830Y-61171064D01*
X128859314Y-60884440D01*
X128615560Y-60640686D01*
X128328936Y-60449170D01*
X128010456Y-60317251D01*
X127672360Y-60250000D01*
X127327640Y-60250000D01*
X126989544Y-60317251D01*
X126671064Y-60449170D01*
X126384440Y-60640686D01*
X126140686Y-60884440D01*
X125949170Y-61171064D01*
X125817251Y-61489544D01*
X125750000Y-61827640D01*
X124775000Y-61827640D01*
X124775000Y-58750000D01*
X136496371Y-58750000D01*
X136510852Y-58897026D01*
X136553738Y-59038401D01*
X136623380Y-59168694D01*
X136717104Y-59282896D01*
X136831306Y-59376620D01*
X136961599Y-59446262D01*
X136969900Y-59448780D01*
X136834874Y-59583806D01*
X136670717Y-59829483D01*
X136557644Y-60102466D01*
X136500000Y-60392263D01*
X136500000Y-60687737D01*
X136557644Y-60977534D01*
X136670717Y-61250517D01*
X136834874Y-61496194D01*
X137043806Y-61705126D01*
X137200760Y-61810000D01*
X137043806Y-61914874D01*
X136834874Y-62123806D01*
X136670717Y-62369483D01*
X136557644Y-62642466D01*
X136500000Y-62932263D01*
X136500000Y-63227737D01*
X136557644Y-63517534D01*
X136670717Y-63790517D01*
X136834874Y-64036194D01*
X137043806Y-64245126D01*
X137289483Y-64409283D01*
X137562466Y-64522356D01*
X137852263Y-64580000D01*
X138147737Y-64580000D01*
X138437534Y-64522356D01*
X138710517Y-64409283D01*
X138956194Y-64245126D01*
X139165126Y-64036194D01*
X139329283Y-63790517D01*
X139442356Y-63517534D01*
X139500000Y-63227737D01*
X139500000Y-62932263D01*
X139442356Y-62642466D01*
X139329283Y-62369483D01*
X139165126Y-62123806D01*
X138956194Y-61914874D01*
X138799240Y-61810000D01*
X138956194Y-61705126D01*
X139165126Y-61496194D01*
X139329283Y-61250517D01*
X139442356Y-60977534D01*
X139500000Y-60687737D01*
X139500000Y-60392263D01*
X139442356Y-60102466D01*
X139329283Y-59829483D01*
X139165126Y-59583806D01*
X139030100Y-59448780D01*
X139038401Y-59446262D01*
X139168694Y-59376620D01*
X139282896Y-59282896D01*
X139376620Y-59168694D01*
X139446262Y-59038401D01*
X139489148Y-58897026D01*
X139503629Y-58750000D01*
X141996371Y-58750000D01*
X142010852Y-58897026D01*
X142053738Y-59038401D01*
X142123380Y-59168694D01*
X142217104Y-59282896D01*
X142331306Y-59376620D01*
X142461599Y-59446262D01*
X142469900Y-59448780D01*
X142334874Y-59583806D01*
X142170717Y-59829483D01*
X142057644Y-60102466D01*
X142000000Y-60392263D01*
X142000000Y-60687737D01*
X142057644Y-60977534D01*
X142170717Y-61250517D01*
X142334874Y-61496194D01*
X142543806Y-61705126D01*
X142700760Y-61810000D01*
X142543806Y-61914874D01*
X142334874Y-62123806D01*
X142170717Y-62369483D01*
X142057644Y-62642466D01*
X142000000Y-62932263D01*
X142000000Y-63227737D01*
X142057644Y-63517534D01*
X142170717Y-63790517D01*
X142334874Y-64036194D01*
X142543806Y-64245126D01*
X142789483Y-64409283D01*
X143062466Y-64522356D01*
X143352263Y-64580000D01*
X143647737Y-64580000D01*
X143937534Y-64522356D01*
X144210517Y-64409283D01*
X144456194Y-64245126D01*
X144665126Y-64036194D01*
X144829283Y-63790517D01*
X144942356Y-63517534D01*
X145000000Y-63227737D01*
X145000000Y-62932263D01*
X144942356Y-62642466D01*
X144829283Y-62369483D01*
X144665126Y-62123806D01*
X144456194Y-61914874D01*
X144299240Y-61810000D01*
X144456194Y-61705126D01*
X144665126Y-61496194D01*
X144829283Y-61250517D01*
X144942356Y-60977534D01*
X145000000Y-60687737D01*
X145000000Y-60392263D01*
X144942356Y-60102466D01*
X144829283Y-59829483D01*
X144665126Y-59583806D01*
X144530100Y-59448780D01*
X144538401Y-59446262D01*
X144668694Y-59376620D01*
X144782896Y-59282896D01*
X144876620Y-59168694D01*
X144946262Y-59038401D01*
X144989148Y-58897026D01*
X145003629Y-58750000D01*
X147496371Y-58750000D01*
X147510852Y-58897026D01*
X147553738Y-59038401D01*
X147623380Y-59168694D01*
X147717104Y-59282896D01*
X147831306Y-59376620D01*
X147961599Y-59446262D01*
X147969900Y-59448780D01*
X147834874Y-59583806D01*
X147670717Y-59829483D01*
X147557644Y-60102466D01*
X147500000Y-60392263D01*
X147500000Y-60687737D01*
X147557644Y-60977534D01*
X147670717Y-61250517D01*
X147834874Y-61496194D01*
X148043806Y-61705126D01*
X148200760Y-61810000D01*
X148043806Y-61914874D01*
X147834874Y-62123806D01*
X147670717Y-62369483D01*
X147557644Y-62642466D01*
X147500000Y-62932263D01*
X147500000Y-63227737D01*
X147557644Y-63517534D01*
X147670717Y-63790517D01*
X147834874Y-64036194D01*
X148043806Y-64245126D01*
X148289483Y-64409283D01*
X148562466Y-64522356D01*
X148852263Y-64580000D01*
X149147737Y-64580000D01*
X149437534Y-64522356D01*
X149710517Y-64409283D01*
X149956194Y-64245126D01*
X150165126Y-64036194D01*
X150329283Y-63790517D01*
X150442356Y-63517534D01*
X150500000Y-63227737D01*
X150500000Y-62932263D01*
X150442356Y-62642466D01*
X150329283Y-62369483D01*
X150165126Y-62123806D01*
X149956194Y-61914874D01*
X149799240Y-61810000D01*
X149956194Y-61705126D01*
X150165126Y-61496194D01*
X150329283Y-61250517D01*
X150442356Y-60977534D01*
X150500000Y-60687737D01*
X150500000Y-60392263D01*
X150442356Y-60102466D01*
X150329283Y-59829483D01*
X150165126Y-59583806D01*
X150030100Y-59448780D01*
X150038401Y-59446262D01*
X150168694Y-59376620D01*
X150282896Y-59282896D01*
X150376620Y-59168694D01*
X150446262Y-59038401D01*
X150489148Y-58897026D01*
X150503629Y-58750000D01*
X152996371Y-58750000D01*
X153010852Y-58897026D01*
X153053738Y-59038401D01*
X153123380Y-59168694D01*
X153217104Y-59282896D01*
X153331306Y-59376620D01*
X153461599Y-59446262D01*
X153469900Y-59448780D01*
X153334874Y-59583806D01*
X153170717Y-59829483D01*
X153057644Y-60102466D01*
X153000000Y-60392263D01*
X153000000Y-60687737D01*
X153057644Y-60977534D01*
X153170717Y-61250517D01*
X153334874Y-61496194D01*
X153543806Y-61705126D01*
X153700760Y-61810000D01*
X153543806Y-61914874D01*
X153334874Y-62123806D01*
X153170717Y-62369483D01*
X153057644Y-62642466D01*
X153000000Y-62932263D01*
X153000000Y-63227737D01*
X153057644Y-63517534D01*
X153170717Y-63790517D01*
X153334874Y-64036194D01*
X153543806Y-64245126D01*
X153789483Y-64409283D01*
X154062466Y-64522356D01*
X154352263Y-64580000D01*
X154647737Y-64580000D01*
X154937534Y-64522356D01*
X155210517Y-64409283D01*
X155456194Y-64245126D01*
X155665126Y-64036194D01*
X155829283Y-63790517D01*
X155942356Y-63517534D01*
X156000000Y-63227737D01*
X156000000Y-62932263D01*
X155942356Y-62642466D01*
X155829283Y-62369483D01*
X155665126Y-62123806D01*
X155456194Y-61914874D01*
X155325640Y-61827640D01*
X158750000Y-61827640D01*
X158750000Y-62172360D01*
X158817251Y-62510456D01*
X158949170Y-62828936D01*
X159140686Y-63115560D01*
X159384440Y-63359314D01*
X159671064Y-63550830D01*
X159989544Y-63682749D01*
X160327640Y-63750000D01*
X160672360Y-63750000D01*
X161010456Y-63682749D01*
X161328936Y-63550830D01*
X161615560Y-63359314D01*
X161859314Y-63115560D01*
X162050830Y-62828936D01*
X162182749Y-62510456D01*
X162250000Y-62172360D01*
X162250000Y-61827640D01*
X164250000Y-61827640D01*
X164250000Y-62172360D01*
X164317251Y-62510456D01*
X164449170Y-62828936D01*
X164640686Y-63115560D01*
X164884440Y-63359314D01*
X165171064Y-63550830D01*
X165489544Y-63682749D01*
X165827640Y-63750000D01*
X166172360Y-63750000D01*
X166510456Y-63682749D01*
X166828936Y-63550830D01*
X167115560Y-63359314D01*
X167359314Y-63115560D01*
X167550830Y-62828936D01*
X167682749Y-62510456D01*
X167750000Y-62172360D01*
X167750000Y-61827640D01*
X167682749Y-61489544D01*
X167550830Y-61171064D01*
X167359314Y-60884440D01*
X167115560Y-60640686D01*
X166828936Y-60449170D01*
X166510456Y-60317251D01*
X166172360Y-60250000D01*
X165827640Y-60250000D01*
X165489544Y-60317251D01*
X165171064Y-60449170D01*
X164884440Y-60640686D01*
X164640686Y-60884440D01*
X164449170Y-61171064D01*
X164317251Y-61489544D01*
X164250000Y-61827640D01*
X162250000Y-61827640D01*
X162182749Y-61489544D01*
X162050830Y-61171064D01*
X161859314Y-60884440D01*
X161615560Y-60640686D01*
X161328936Y-60449170D01*
X161010456Y-60317251D01*
X160672360Y-60250000D01*
X160327640Y-60250000D01*
X159989544Y-60317251D01*
X159671064Y-60449170D01*
X159384440Y-60640686D01*
X159140686Y-60884440D01*
X158949170Y-61171064D01*
X158817251Y-61489544D01*
X158750000Y-61827640D01*
X155325640Y-61827640D01*
X155299240Y-61810000D01*
X155456194Y-61705126D01*
X155665126Y-61496194D01*
X155829283Y-61250517D01*
X155942356Y-60977534D01*
X156000000Y-60687737D01*
X156000000Y-60392263D01*
X155942356Y-60102466D01*
X155829283Y-59829483D01*
X155665126Y-59583806D01*
X155530100Y-59448780D01*
X155538401Y-59446262D01*
X155668694Y-59376620D01*
X155782896Y-59282896D01*
X155876620Y-59168694D01*
X155946262Y-59038401D01*
X155989148Y-58897026D01*
X156003629Y-58750000D01*
X156000000Y-58437500D01*
X155812500Y-58250000D01*
X154750000Y-58250000D01*
X154750000Y-58270000D01*
X154250000Y-58270000D01*
X154250000Y-58250000D01*
X153187500Y-58250000D01*
X153000000Y-58437500D01*
X152996371Y-58750000D01*
X150503629Y-58750000D01*
X150500000Y-58437500D01*
X150312500Y-58250000D01*
X149250000Y-58250000D01*
X149250000Y-58270000D01*
X148750000Y-58270000D01*
X148750000Y-58250000D01*
X147687500Y-58250000D01*
X147500000Y-58437500D01*
X147496371Y-58750000D01*
X145003629Y-58750000D01*
X145000000Y-58437500D01*
X144812500Y-58250000D01*
X143750000Y-58250000D01*
X143750000Y-58270000D01*
X143250000Y-58270000D01*
X143250000Y-58250000D01*
X142187500Y-58250000D01*
X142000000Y-58437500D01*
X141996371Y-58750000D01*
X139503629Y-58750000D01*
X139500000Y-58437500D01*
X139312500Y-58250000D01*
X138250000Y-58250000D01*
X138250000Y-58270000D01*
X137750000Y-58270000D01*
X137750000Y-58250000D01*
X136687500Y-58250000D01*
X136500000Y-58437500D01*
X136496371Y-58750000D01*
X124775000Y-58750000D01*
X124775000Y-57250000D01*
X136496371Y-57250000D01*
X136500000Y-57562500D01*
X136687500Y-57750000D01*
X137750000Y-57750000D01*
X137750000Y-56687500D01*
X138250000Y-56687500D01*
X138250000Y-57750000D01*
X139312500Y-57750000D01*
X139500000Y-57562500D01*
X139503629Y-57250000D01*
X141996371Y-57250000D01*
X142000000Y-57562500D01*
X142187500Y-57750000D01*
X143250000Y-57750000D01*
X143250000Y-56687500D01*
X143750000Y-56687500D01*
X143750000Y-57750000D01*
X144812500Y-57750000D01*
X145000000Y-57562500D01*
X145003629Y-57250000D01*
X147496371Y-57250000D01*
X147500000Y-57562500D01*
X147687500Y-57750000D01*
X148750000Y-57750000D01*
X148750000Y-56687500D01*
X149250000Y-56687500D01*
X149250000Y-57750000D01*
X150312500Y-57750000D01*
X150500000Y-57562500D01*
X150503629Y-57250000D01*
X152996371Y-57250000D01*
X153000000Y-57562500D01*
X153187500Y-57750000D01*
X154250000Y-57750000D01*
X154250000Y-56687500D01*
X154750000Y-56687500D01*
X154750000Y-57750000D01*
X155812500Y-57750000D01*
X156000000Y-57562500D01*
X156003629Y-57250000D01*
X155989148Y-57102974D01*
X155946262Y-56961599D01*
X155876620Y-56831306D01*
X155782896Y-56717104D01*
X155668694Y-56623380D01*
X155538401Y-56553738D01*
X155397026Y-56510852D01*
X155250000Y-56496371D01*
X154937500Y-56500000D01*
X154750000Y-56687500D01*
X154250000Y-56687500D01*
X154062500Y-56500000D01*
X153750000Y-56496371D01*
X153602974Y-56510852D01*
X153461599Y-56553738D01*
X153331306Y-56623380D01*
X153217104Y-56717104D01*
X153123380Y-56831306D01*
X153053738Y-56961599D01*
X153010852Y-57102974D01*
X152996371Y-57250000D01*
X150503629Y-57250000D01*
X150489148Y-57102974D01*
X150446262Y-56961599D01*
X150376620Y-56831306D01*
X150282896Y-56717104D01*
X150168694Y-56623380D01*
X150038401Y-56553738D01*
X149897026Y-56510852D01*
X149750000Y-56496371D01*
X149437500Y-56500000D01*
X149250000Y-56687500D01*
X148750000Y-56687500D01*
X148562500Y-56500000D01*
X148250000Y-56496371D01*
X148102974Y-56510852D01*
X147961599Y-56553738D01*
X147831306Y-56623380D01*
X147717104Y-56717104D01*
X147623380Y-56831306D01*
X147553738Y-56961599D01*
X147510852Y-57102974D01*
X147496371Y-57250000D01*
X145003629Y-57250000D01*
X144989148Y-57102974D01*
X144946262Y-56961599D01*
X144876620Y-56831306D01*
X144782896Y-56717104D01*
X144668694Y-56623380D01*
X144538401Y-56553738D01*
X144397026Y-56510852D01*
X144250000Y-56496371D01*
X143937500Y-56500000D01*
X143750000Y-56687500D01*
X143250000Y-56687500D01*
X143062500Y-56500000D01*
X142750000Y-56496371D01*
X142602974Y-56510852D01*
X142461599Y-56553738D01*
X142331306Y-56623380D01*
X142217104Y-56717104D01*
X142123380Y-56831306D01*
X142053738Y-56961599D01*
X142010852Y-57102974D01*
X141996371Y-57250000D01*
X139503629Y-57250000D01*
X139489148Y-57102974D01*
X139446262Y-56961599D01*
X139376620Y-56831306D01*
X139282896Y-56717104D01*
X139168694Y-56623380D01*
X139038401Y-56553738D01*
X138897026Y-56510852D01*
X138750000Y-56496371D01*
X138437500Y-56500000D01*
X138250000Y-56687500D01*
X137750000Y-56687500D01*
X137562500Y-56500000D01*
X137250000Y-56496371D01*
X137102974Y-56510852D01*
X136961599Y-56553738D01*
X136831306Y-56623380D01*
X136717104Y-56717104D01*
X136623380Y-56831306D01*
X136553738Y-56961599D01*
X136510852Y-57102974D01*
X136496371Y-57250000D01*
X124775000Y-57250000D01*
X124775000Y-52827640D01*
X125750000Y-52827640D01*
X125750000Y-53172360D01*
X125817251Y-53510456D01*
X125949170Y-53828936D01*
X126140686Y-54115560D01*
X126384440Y-54359314D01*
X126671064Y-54550830D01*
X126989544Y-54682749D01*
X127327640Y-54750000D01*
X127672360Y-54750000D01*
X128010456Y-54682749D01*
X128328936Y-54550830D01*
X128615560Y-54359314D01*
X128859314Y-54115560D01*
X129050830Y-53828936D01*
X129182749Y-53510456D01*
X129250000Y-53172360D01*
X129250000Y-52827640D01*
X131250000Y-52827640D01*
X131250000Y-53172360D01*
X131317251Y-53510456D01*
X131449170Y-53828936D01*
X131640686Y-54115560D01*
X131884440Y-54359314D01*
X132171064Y-54550830D01*
X132489544Y-54682749D01*
X132827640Y-54750000D01*
X133172360Y-54750000D01*
X133510456Y-54682749D01*
X133828936Y-54550830D01*
X134115560Y-54359314D01*
X134359314Y-54115560D01*
X134550830Y-53828936D01*
X134604237Y-53700000D01*
X136446372Y-53700000D01*
X136446372Y-55300000D01*
X136460853Y-55447026D01*
X136503739Y-55588401D01*
X136573381Y-55718693D01*
X136667105Y-55832895D01*
X136781307Y-55926619D01*
X136911599Y-55996261D01*
X137052974Y-56039147D01*
X137200000Y-56053628D01*
X138800000Y-56053628D01*
X138947026Y-56039147D01*
X139088401Y-55996261D01*
X139218693Y-55926619D01*
X139332895Y-55832895D01*
X139426619Y-55718693D01*
X139479351Y-55620038D01*
X139586396Y-55721952D01*
X139843110Y-55884511D01*
X140053779Y-55971764D01*
X140290000Y-55839368D01*
X140290000Y-54750000D01*
X140790000Y-54750000D01*
X140790000Y-55839368D01*
X141026221Y-55971764D01*
X141236890Y-55884511D01*
X141493604Y-55721952D01*
X141713672Y-55512434D01*
X141810000Y-55375661D01*
X141906328Y-55512434D01*
X142126396Y-55721952D01*
X142383110Y-55884511D01*
X142593779Y-55971764D01*
X142830000Y-55839368D01*
X142830000Y-54750000D01*
X143330000Y-54750000D01*
X143330000Y-55839368D01*
X143566221Y-55971764D01*
X143776890Y-55884511D01*
X144033604Y-55721952D01*
X144253672Y-55512434D01*
X144350000Y-55375661D01*
X144446328Y-55512434D01*
X144666396Y-55721952D01*
X144923110Y-55884511D01*
X145133779Y-55971764D01*
X145370000Y-55839368D01*
X145370000Y-54750000D01*
X145870000Y-54750000D01*
X145870000Y-55839368D01*
X146106221Y-55971764D01*
X146316890Y-55884511D01*
X146573604Y-55721952D01*
X146793672Y-55512434D01*
X146890000Y-55375661D01*
X146986328Y-55512434D01*
X147206396Y-55721952D01*
X147463110Y-55884511D01*
X147673779Y-55971764D01*
X147910000Y-55839368D01*
X147910000Y-54750000D01*
X145870000Y-54750000D01*
X145370000Y-54750000D01*
X143330000Y-54750000D01*
X142830000Y-54750000D01*
X140790000Y-54750000D01*
X140290000Y-54750000D01*
X140270000Y-54750000D01*
X140270000Y-54250000D01*
X140290000Y-54250000D01*
X140290000Y-53160632D01*
X140790000Y-53160632D01*
X140790000Y-54250000D01*
X142830000Y-54250000D01*
X142830000Y-53160632D01*
X143330000Y-53160632D01*
X143330000Y-54250000D01*
X145370000Y-54250000D01*
X145370000Y-53160632D01*
X145870000Y-53160632D01*
X145870000Y-54250000D01*
X147910000Y-54250000D01*
X147910000Y-53160632D01*
X148410000Y-53160632D01*
X148410000Y-54250000D01*
X148430000Y-54250000D01*
X148430000Y-54750000D01*
X148410000Y-54750000D01*
X148410000Y-55839368D01*
X148646221Y-55971764D01*
X148856890Y-55884511D01*
X149113604Y-55721952D01*
X149333672Y-55512434D01*
X149425345Y-55382271D01*
X149496036Y-55488068D01*
X149711932Y-55703964D01*
X149965800Y-55873592D01*
X150247882Y-55990435D01*
X150547338Y-56050000D01*
X150852662Y-56050000D01*
X151152118Y-55990435D01*
X151434200Y-55873592D01*
X151688068Y-55703964D01*
X151903964Y-55488068D01*
X151970000Y-55389237D01*
X152036036Y-55488068D01*
X152251932Y-55703964D01*
X152505800Y-55873592D01*
X152787882Y-55990435D01*
X153087338Y-56050000D01*
X153392662Y-56050000D01*
X153692118Y-55990435D01*
X153974200Y-55873592D01*
X154228068Y-55703964D01*
X154443964Y-55488068D01*
X154514655Y-55382271D01*
X154606328Y-55512434D01*
X154826396Y-55721952D01*
X155083110Y-55884511D01*
X155293779Y-55971764D01*
X155530000Y-55839368D01*
X155530000Y-54750000D01*
X156030000Y-54750000D01*
X156030000Y-55839368D01*
X156266221Y-55971764D01*
X156476890Y-55884511D01*
X156733604Y-55721952D01*
X156953672Y-55512434D01*
X157128636Y-55264008D01*
X157251773Y-54986222D01*
X157122215Y-54750000D01*
X156030000Y-54750000D01*
X155530000Y-54750000D01*
X155510000Y-54750000D01*
X155510000Y-54250000D01*
X155530000Y-54250000D01*
X155530000Y-53160632D01*
X156030000Y-53160632D01*
X156030000Y-54250000D01*
X157122215Y-54250000D01*
X157251773Y-54013778D01*
X157128636Y-53735992D01*
X156953672Y-53487566D01*
X156733604Y-53278048D01*
X156476890Y-53115489D01*
X156266221Y-53028236D01*
X156030000Y-53160632D01*
X155530000Y-53160632D01*
X155293779Y-53028236D01*
X155083110Y-53115489D01*
X154826396Y-53278048D01*
X154606328Y-53487566D01*
X154514655Y-53617729D01*
X154443964Y-53511932D01*
X154228068Y-53296036D01*
X153974200Y-53126408D01*
X153692118Y-53009565D01*
X153392662Y-52950000D01*
X153087338Y-52950000D01*
X152787882Y-53009565D01*
X152505800Y-53126408D01*
X152251932Y-53296036D01*
X152036036Y-53511932D01*
X151970000Y-53610763D01*
X151903964Y-53511932D01*
X151688068Y-53296036D01*
X151434200Y-53126408D01*
X151152118Y-53009565D01*
X150852662Y-52950000D01*
X150547338Y-52950000D01*
X150247882Y-53009565D01*
X149965800Y-53126408D01*
X149711932Y-53296036D01*
X149496036Y-53511932D01*
X149425345Y-53617729D01*
X149333672Y-53487566D01*
X149113604Y-53278048D01*
X148856890Y-53115489D01*
X148646221Y-53028236D01*
X148410000Y-53160632D01*
X147910000Y-53160632D01*
X147673779Y-53028236D01*
X147463110Y-53115489D01*
X147206396Y-53278048D01*
X146986328Y-53487566D01*
X146890000Y-53624339D01*
X146793672Y-53487566D01*
X146573604Y-53278048D01*
X146316890Y-53115489D01*
X146106221Y-53028236D01*
X145870000Y-53160632D01*
X145370000Y-53160632D01*
X145133779Y-53028236D01*
X144923110Y-53115489D01*
X144666396Y-53278048D01*
X144446328Y-53487566D01*
X144350000Y-53624339D01*
X144253672Y-53487566D01*
X144033604Y-53278048D01*
X143776890Y-53115489D01*
X143566221Y-53028236D01*
X143330000Y-53160632D01*
X142830000Y-53160632D01*
X142593779Y-53028236D01*
X142383110Y-53115489D01*
X142126396Y-53278048D01*
X141906328Y-53487566D01*
X141810000Y-53624339D01*
X141713672Y-53487566D01*
X141493604Y-53278048D01*
X141236890Y-53115489D01*
X141026221Y-53028236D01*
X140790000Y-53160632D01*
X140290000Y-53160632D01*
X140053779Y-53028236D01*
X139843110Y-53115489D01*
X139586396Y-53278048D01*
X139479351Y-53379962D01*
X139426619Y-53281307D01*
X139332895Y-53167105D01*
X139218693Y-53073381D01*
X139088401Y-53003739D01*
X138947026Y-52960853D01*
X138800000Y-52946372D01*
X137200000Y-52946372D01*
X137052974Y-52960853D01*
X136911599Y-53003739D01*
X136781307Y-53073381D01*
X136667105Y-53167105D01*
X136573381Y-53281307D01*
X136503739Y-53411599D01*
X136460853Y-53552974D01*
X136446372Y-53700000D01*
X134604237Y-53700000D01*
X134682749Y-53510456D01*
X134750000Y-53172360D01*
X134750000Y-52827640D01*
X158750000Y-52827640D01*
X158750000Y-53172360D01*
X158817251Y-53510456D01*
X158949170Y-53828936D01*
X159140686Y-54115560D01*
X159384440Y-54359314D01*
X159671064Y-54550830D01*
X159989544Y-54682749D01*
X160327640Y-54750000D01*
X160672360Y-54750000D01*
X161010456Y-54682749D01*
X161328936Y-54550830D01*
X161615560Y-54359314D01*
X161859314Y-54115560D01*
X162050830Y-53828936D01*
X162182749Y-53510456D01*
X162250000Y-53172360D01*
X162250000Y-52827640D01*
X164250000Y-52827640D01*
X164250000Y-53172360D01*
X164317251Y-53510456D01*
X164449170Y-53828936D01*
X164640686Y-54115560D01*
X164884440Y-54359314D01*
X165171064Y-54550830D01*
X165489544Y-54682749D01*
X165827640Y-54750000D01*
X166172360Y-54750000D01*
X166510456Y-54682749D01*
X166828936Y-54550830D01*
X167115560Y-54359314D01*
X167359314Y-54115560D01*
X167550830Y-53828936D01*
X167682749Y-53510456D01*
X167750000Y-53172360D01*
X167750000Y-52827640D01*
X167682749Y-52489544D01*
X167550830Y-52171064D01*
X167359314Y-51884440D01*
X167115560Y-51640686D01*
X166828936Y-51449170D01*
X166510456Y-51317251D01*
X166172360Y-51250000D01*
X165827640Y-51250000D01*
X165489544Y-51317251D01*
X165171064Y-51449170D01*
X164884440Y-51640686D01*
X164640686Y-51884440D01*
X164449170Y-52171064D01*
X164317251Y-52489544D01*
X164250000Y-52827640D01*
X162250000Y-52827640D01*
X162182749Y-52489544D01*
X162050830Y-52171064D01*
X161859314Y-51884440D01*
X161615560Y-51640686D01*
X161328936Y-51449170D01*
X161010456Y-51317251D01*
X160672360Y-51250000D01*
X160327640Y-51250000D01*
X159989544Y-51317251D01*
X159671064Y-51449170D01*
X159384440Y-51640686D01*
X159140686Y-51884440D01*
X158949170Y-52171064D01*
X158817251Y-52489544D01*
X158750000Y-52827640D01*
X134750000Y-52827640D01*
X134682749Y-52489544D01*
X134550830Y-52171064D01*
X134359314Y-51884440D01*
X134115560Y-51640686D01*
X133828936Y-51449170D01*
X133510456Y-51317251D01*
X133172360Y-51250000D01*
X132827640Y-51250000D01*
X132489544Y-51317251D01*
X132171064Y-51449170D01*
X131884440Y-51640686D01*
X131640686Y-51884440D01*
X131449170Y-52171064D01*
X131317251Y-52489544D01*
X131250000Y-52827640D01*
X129250000Y-52827640D01*
X129182749Y-52489544D01*
X129050830Y-52171064D01*
X128859314Y-51884440D01*
X128615560Y-51640686D01*
X128328936Y-51449170D01*
X128010456Y-51317251D01*
X127672360Y-51250000D01*
X127327640Y-51250000D01*
X126989544Y-51317251D01*
X126671064Y-51449170D01*
X126384440Y-51640686D01*
X126140686Y-51884440D01*
X125949170Y-52171064D01*
X125817251Y-52489544D01*
X125750000Y-52827640D01*
X124775000Y-52827640D01*
X124775000Y-48129247D01*
X128724306Y-48129247D01*
X128798649Y-48390653D01*
X129083429Y-48500758D01*
X129384216Y-48553190D01*
X129689454Y-48545935D01*
X129987411Y-48479270D01*
X130201351Y-48390653D01*
X130275694Y-48129247D01*
X129500000Y-47353553D01*
X128724306Y-48129247D01*
X124775000Y-48129247D01*
X124775000Y-46884216D01*
X127946810Y-46884216D01*
X127954065Y-47189454D01*
X128020730Y-47487411D01*
X128109347Y-47701351D01*
X128370753Y-47775694D01*
X129146447Y-47000000D01*
X129853553Y-47000000D01*
X130629247Y-47775694D01*
X130890653Y-47701351D01*
X131000758Y-47416571D01*
X131053190Y-47115784D01*
X131046810Y-46847338D01*
X132950000Y-46847338D01*
X132950000Y-47152662D01*
X133009565Y-47452118D01*
X133126408Y-47734200D01*
X133296036Y-47988068D01*
X133511932Y-48203964D01*
X133765800Y-48373592D01*
X134047882Y-48490435D01*
X134347338Y-48550000D01*
X134652662Y-48550000D01*
X134952118Y-48490435D01*
X135234200Y-48373592D01*
X135488068Y-48203964D01*
X135703964Y-47988068D01*
X135873592Y-47734200D01*
X135990435Y-47452118D01*
X136050000Y-47152662D01*
X136050000Y-46847338D01*
X136026131Y-46727338D01*
X136450000Y-46727338D01*
X136450000Y-47032662D01*
X136509565Y-47332118D01*
X136626408Y-47614200D01*
X136796036Y-47868068D01*
X137011932Y-48083964D01*
X137265800Y-48253592D01*
X137547882Y-48370435D01*
X137847338Y-48430000D01*
X138152662Y-48430000D01*
X138452118Y-48370435D01*
X138734200Y-48253592D01*
X138988068Y-48083964D01*
X139203964Y-47868068D01*
X139270000Y-47769237D01*
X139336036Y-47868068D01*
X139551932Y-48083964D01*
X139805800Y-48253592D01*
X140087882Y-48370435D01*
X140387338Y-48430000D01*
X140692662Y-48430000D01*
X140992118Y-48370435D01*
X141274200Y-48253592D01*
X141528068Y-48083964D01*
X141743964Y-47868068D01*
X141810000Y-47769237D01*
X141876036Y-47868068D01*
X142091932Y-48083964D01*
X142345800Y-48253592D01*
X142627882Y-48370435D01*
X142927338Y-48430000D01*
X143232662Y-48430000D01*
X143532118Y-48370435D01*
X143814200Y-48253592D01*
X144068068Y-48083964D01*
X144283964Y-47868068D01*
X144354655Y-47762271D01*
X144446328Y-47892434D01*
X144666396Y-48101952D01*
X144923110Y-48264511D01*
X145133779Y-48351764D01*
X145370000Y-48219368D01*
X145370000Y-47130000D01*
X145350000Y-47130000D01*
X145350000Y-46630000D01*
X145370000Y-46630000D01*
X145370000Y-45540632D01*
X145870000Y-45540632D01*
X145870000Y-46630000D01*
X145890000Y-46630000D01*
X145890000Y-47130000D01*
X145870000Y-47130000D01*
X145870000Y-48219368D01*
X146106221Y-48351764D01*
X146316890Y-48264511D01*
X146573604Y-48101952D01*
X146793672Y-47892434D01*
X146885345Y-47762271D01*
X146956036Y-47868068D01*
X147171932Y-48083964D01*
X147425800Y-48253592D01*
X147707882Y-48370435D01*
X148007338Y-48430000D01*
X148312662Y-48430000D01*
X148612118Y-48370435D01*
X148894200Y-48253592D01*
X149148068Y-48083964D01*
X149363964Y-47868068D01*
X149430000Y-47769237D01*
X149496036Y-47868068D01*
X149711932Y-48083964D01*
X149965800Y-48253592D01*
X150247882Y-48370435D01*
X150547338Y-48430000D01*
X150852662Y-48430000D01*
X151152118Y-48370435D01*
X151434200Y-48253592D01*
X151688068Y-48083964D01*
X151903964Y-47868068D01*
X151970000Y-47769237D01*
X152036036Y-47868068D01*
X152251932Y-48083964D01*
X152505800Y-48253592D01*
X152787882Y-48370435D01*
X153087338Y-48430000D01*
X153392662Y-48430000D01*
X153692118Y-48370435D01*
X153974200Y-48253592D01*
X154228068Y-48083964D01*
X154443964Y-47868068D01*
X154514655Y-47762271D01*
X154606328Y-47892434D01*
X154826396Y-48101952D01*
X155083110Y-48264511D01*
X155293779Y-48351764D01*
X155530000Y-48219368D01*
X155530000Y-47130000D01*
X156030000Y-47130000D01*
X156030000Y-48219368D01*
X156266221Y-48351764D01*
X156476890Y-48264511D01*
X156733604Y-48101952D01*
X156953672Y-47892434D01*
X157128636Y-47644008D01*
X157251773Y-47366222D01*
X157122215Y-47130000D01*
X156030000Y-47130000D01*
X155530000Y-47130000D01*
X155510000Y-47130000D01*
X155510000Y-46630000D01*
X155530000Y-46630000D01*
X155530000Y-45540632D01*
X156030000Y-45540632D01*
X156030000Y-46630000D01*
X157122215Y-46630000D01*
X157251773Y-46393778D01*
X157128636Y-46115992D01*
X156953672Y-45867566D01*
X156733604Y-45658048D01*
X156476890Y-45495489D01*
X156266221Y-45408236D01*
X156030000Y-45540632D01*
X155530000Y-45540632D01*
X155293779Y-45408236D01*
X155083110Y-45495489D01*
X154826396Y-45658048D01*
X154606328Y-45867566D01*
X154514655Y-45997729D01*
X154443964Y-45891932D01*
X154228068Y-45676036D01*
X153974200Y-45506408D01*
X153692118Y-45389565D01*
X153392662Y-45330000D01*
X153087338Y-45330000D01*
X152787882Y-45389565D01*
X152505800Y-45506408D01*
X152251932Y-45676036D01*
X152036036Y-45891932D01*
X151970000Y-45990763D01*
X151903964Y-45891932D01*
X151688068Y-45676036D01*
X151434200Y-45506408D01*
X151152118Y-45389565D01*
X150852662Y-45330000D01*
X150547338Y-45330000D01*
X150247882Y-45389565D01*
X149965800Y-45506408D01*
X149711932Y-45676036D01*
X149496036Y-45891932D01*
X149430000Y-45990763D01*
X149363964Y-45891932D01*
X149148068Y-45676036D01*
X148894200Y-45506408D01*
X148612118Y-45389565D01*
X148312662Y-45330000D01*
X148007338Y-45330000D01*
X147707882Y-45389565D01*
X147425800Y-45506408D01*
X147171932Y-45676036D01*
X146956036Y-45891932D01*
X146885345Y-45997729D01*
X146793672Y-45867566D01*
X146573604Y-45658048D01*
X146316890Y-45495489D01*
X146106221Y-45408236D01*
X145870000Y-45540632D01*
X145370000Y-45540632D01*
X145133779Y-45408236D01*
X144923110Y-45495489D01*
X144666396Y-45658048D01*
X144446328Y-45867566D01*
X144354655Y-45997729D01*
X144283964Y-45891932D01*
X144068068Y-45676036D01*
X143814200Y-45506408D01*
X143532118Y-45389565D01*
X143232662Y-45330000D01*
X142927338Y-45330000D01*
X142627882Y-45389565D01*
X142345800Y-45506408D01*
X142091932Y-45676036D01*
X141876036Y-45891932D01*
X141810000Y-45990763D01*
X141743964Y-45891932D01*
X141528068Y-45676036D01*
X141274200Y-45506408D01*
X140992118Y-45389565D01*
X140692662Y-45330000D01*
X140387338Y-45330000D01*
X140087882Y-45389565D01*
X139805800Y-45506408D01*
X139551932Y-45676036D01*
X139336036Y-45891932D01*
X139270000Y-45990763D01*
X139203964Y-45891932D01*
X138988068Y-45676036D01*
X138734200Y-45506408D01*
X138452118Y-45389565D01*
X138152662Y-45330000D01*
X137847338Y-45330000D01*
X137547882Y-45389565D01*
X137265800Y-45506408D01*
X137011932Y-45676036D01*
X136796036Y-45891932D01*
X136626408Y-46145800D01*
X136509565Y-46427882D01*
X136450000Y-46727338D01*
X136026131Y-46727338D01*
X135990435Y-46547882D01*
X135873592Y-46265800D01*
X135703964Y-46011932D01*
X135488068Y-45796036D01*
X135234200Y-45626408D01*
X134952118Y-45509565D01*
X134652662Y-45450000D01*
X134347338Y-45450000D01*
X134047882Y-45509565D01*
X133765800Y-45626408D01*
X133511932Y-45796036D01*
X133296036Y-46011932D01*
X133126408Y-46265800D01*
X133009565Y-46547882D01*
X132950000Y-46847338D01*
X131046810Y-46847338D01*
X131045935Y-46810546D01*
X130979270Y-46512589D01*
X130890653Y-46298649D01*
X130629247Y-46224306D01*
X129853553Y-47000000D01*
X129146447Y-47000000D01*
X128370753Y-46224306D01*
X128109347Y-46298649D01*
X127999242Y-46583429D01*
X127946810Y-46884216D01*
X124775000Y-46884216D01*
X124775000Y-45870753D01*
X128724306Y-45870753D01*
X129500000Y-46646447D01*
X130275694Y-45870753D01*
X130201351Y-45609347D01*
X129916571Y-45499242D01*
X129615784Y-45446810D01*
X129310546Y-45454065D01*
X129012589Y-45520730D01*
X128798649Y-45609347D01*
X128724306Y-45870753D01*
X124775000Y-45870753D01*
X124775000Y-40750000D01*
X131000000Y-40750000D01*
X131048773Y-40745196D01*
X131095671Y-40730970D01*
X131138893Y-40707867D01*
X131176777Y-40676777D01*
X131207867Y-40638893D01*
X131230970Y-40595671D01*
X131245196Y-40548773D01*
X131250000Y-40500000D01*
X131250000Y-37275000D01*
X134396372Y-37275000D01*
X134396372Y-38725000D01*
X134415656Y-38920798D01*
X134472769Y-39109072D01*
X134565514Y-39282586D01*
X134690328Y-39434672D01*
X134842414Y-39559486D01*
X135015928Y-39652231D01*
X135204202Y-39709344D01*
X135400000Y-39728628D01*
X136600000Y-39728628D01*
X136795798Y-39709344D01*
X136984072Y-39652231D01*
X137157586Y-39559486D01*
X137309672Y-39434672D01*
X137415950Y-39305172D01*
X137606788Y-39461788D01*
X137884745Y-39610359D01*
X138186346Y-39701849D01*
X138500000Y-39732741D01*
X138813655Y-39701849D01*
X139115256Y-39610359D01*
X139393213Y-39461788D01*
X139636845Y-39261845D01*
X139750000Y-39123965D01*
X139863155Y-39261845D01*
X140106788Y-39461788D01*
X140384745Y-39610359D01*
X140686346Y-39701849D01*
X141000000Y-39732741D01*
X141313655Y-39701849D01*
X141615256Y-39610359D01*
X141893213Y-39461788D01*
X142136845Y-39261845D01*
X142256760Y-39115728D01*
X142417124Y-39296226D01*
X142666426Y-39484980D01*
X142947762Y-39621471D01*
X143005857Y-39646783D01*
X143250000Y-39515200D01*
X143250000Y-38250000D01*
X143750000Y-38250000D01*
X143750000Y-39515200D01*
X143994143Y-39646783D01*
X144052238Y-39621471D01*
X144333574Y-39484980D01*
X144582876Y-39296226D01*
X144790564Y-39062463D01*
X144948656Y-38792673D01*
X145051077Y-38497225D01*
X144902709Y-38250000D01*
X143750000Y-38250000D01*
X143250000Y-38250000D01*
X143230000Y-38250000D01*
X143230000Y-37750000D01*
X143250000Y-37750000D01*
X143250000Y-36484800D01*
X143750000Y-36484800D01*
X143750000Y-37750000D01*
X144902709Y-37750000D01*
X145051077Y-37502775D01*
X144972116Y-37275000D01*
X148396372Y-37275000D01*
X148396372Y-38725000D01*
X148415656Y-38920798D01*
X148472769Y-39109072D01*
X148565514Y-39282586D01*
X148690328Y-39434672D01*
X148842414Y-39559486D01*
X149015928Y-39652231D01*
X149204202Y-39709344D01*
X149400000Y-39728628D01*
X150600000Y-39728628D01*
X150795798Y-39709344D01*
X150984072Y-39652231D01*
X151157586Y-39559486D01*
X151309672Y-39434672D01*
X151415950Y-39305172D01*
X151606788Y-39461788D01*
X151884745Y-39610359D01*
X152186346Y-39701849D01*
X152500000Y-39732741D01*
X152813655Y-39701849D01*
X153115256Y-39610359D01*
X153393213Y-39461788D01*
X153636845Y-39261845D01*
X153750000Y-39123965D01*
X153863155Y-39261845D01*
X154106788Y-39461788D01*
X154384745Y-39610359D01*
X154686346Y-39701849D01*
X155000000Y-39732741D01*
X155313655Y-39701849D01*
X155615256Y-39610359D01*
X155893213Y-39461788D01*
X156136845Y-39261845D01*
X156256760Y-39115728D01*
X156417124Y-39296226D01*
X156666426Y-39484980D01*
X156947762Y-39621471D01*
X157005857Y-39646783D01*
X157250000Y-39515200D01*
X157250000Y-38250000D01*
X157750000Y-38250000D01*
X157750000Y-39515200D01*
X157994143Y-39646783D01*
X158052238Y-39621471D01*
X158333574Y-39484980D01*
X158582876Y-39296226D01*
X158790564Y-39062463D01*
X158948656Y-38792673D01*
X159051077Y-38497225D01*
X158902709Y-38250000D01*
X157750000Y-38250000D01*
X157250000Y-38250000D01*
X157230000Y-38250000D01*
X157230000Y-37750000D01*
X157250000Y-37750000D01*
X157250000Y-36484800D01*
X157750000Y-36484800D01*
X157750000Y-37750000D01*
X158902709Y-37750000D01*
X159051077Y-37502775D01*
X158948656Y-37207327D01*
X158790564Y-36937537D01*
X158582876Y-36703774D01*
X158333574Y-36515020D01*
X158052238Y-36378529D01*
X157994143Y-36353217D01*
X157750000Y-36484800D01*
X157250000Y-36484800D01*
X157005857Y-36353217D01*
X156947762Y-36378529D01*
X156666426Y-36515020D01*
X156417124Y-36703774D01*
X156256760Y-36884272D01*
X156136845Y-36738155D01*
X155893212Y-36538212D01*
X155615255Y-36389641D01*
X155313654Y-36298151D01*
X155000000Y-36267259D01*
X154686345Y-36298151D01*
X154384744Y-36389641D01*
X154106787Y-36538212D01*
X153863155Y-36738155D01*
X153750000Y-36876035D01*
X153636845Y-36738155D01*
X153393212Y-36538212D01*
X153115255Y-36389641D01*
X152813654Y-36298151D01*
X152500000Y-36267259D01*
X152186345Y-36298151D01*
X151884744Y-36389641D01*
X151606787Y-36538212D01*
X151415950Y-36694828D01*
X151309672Y-36565328D01*
X151157586Y-36440514D01*
X150984072Y-36347769D01*
X150795798Y-36290656D01*
X150600000Y-36271372D01*
X149400000Y-36271372D01*
X149204202Y-36290656D01*
X149015928Y-36347769D01*
X148842414Y-36440514D01*
X148690328Y-36565328D01*
X148565514Y-36717414D01*
X148472769Y-36890928D01*
X148415656Y-37079202D01*
X148396372Y-37275000D01*
X144972116Y-37275000D01*
X144948656Y-37207327D01*
X144790564Y-36937537D01*
X144582876Y-36703774D01*
X144333574Y-36515020D01*
X144052238Y-36378529D01*
X143994143Y-36353217D01*
X143750000Y-36484800D01*
X143250000Y-36484800D01*
X143005857Y-36353217D01*
X142947762Y-36378529D01*
X142666426Y-36515020D01*
X142417124Y-36703774D01*
X142256760Y-36884272D01*
X142136845Y-36738155D01*
X141893212Y-36538212D01*
X141615255Y-36389641D01*
X141313654Y-36298151D01*
X141000000Y-36267259D01*
X140686345Y-36298151D01*
X140384744Y-36389641D01*
X140106787Y-36538212D01*
X139863155Y-36738155D01*
X139750000Y-36876035D01*
X139636845Y-36738155D01*
X139393212Y-36538212D01*
X139115255Y-36389641D01*
X138813654Y-36298151D01*
X138500000Y-36267259D01*
X138186345Y-36298151D01*
X137884744Y-36389641D01*
X137606787Y-36538212D01*
X137415950Y-36694828D01*
X137309672Y-36565328D01*
X137157586Y-36440514D01*
X136984072Y-36347769D01*
X136795798Y-36290656D01*
X136600000Y-36271372D01*
X135400000Y-36271372D01*
X135204202Y-36290656D01*
X135015928Y-36347769D01*
X134842414Y-36440514D01*
X134690328Y-36565328D01*
X134565514Y-36717414D01*
X134472769Y-36890928D01*
X134415656Y-37079202D01*
X134396372Y-37275000D01*
X131250000Y-37275000D01*
X131250000Y-34275000D01*
X162250000Y-34275000D01*
X162250000Y-40500000D01*
G04 #@! TA.AperFunction,Conductor*
D19*
G36*
X162250000Y-40500000D02*
G01*
X162254804Y-40548773D01*
X162269030Y-40595671D01*
X162292133Y-40638893D01*
X162323223Y-40676777D01*
X162361107Y-40707867D01*
X162404329Y-40730970D01*
X162451227Y-40745196D01*
X162500000Y-40750000D01*
X168725000Y-40750000D01*
X168725001Y-74750000D01*
X162500000Y-74750000D01*
X162451227Y-74754804D01*
X162404329Y-74769030D01*
X162361107Y-74792133D01*
X162323223Y-74823223D01*
X162292133Y-74861107D01*
X162269030Y-74904329D01*
X162254804Y-74951227D01*
X162250000Y-75000000D01*
X162250000Y-81225000D01*
X131250000Y-81225000D01*
X131250000Y-78497839D01*
X138443074Y-78497839D01*
X138540850Y-78794897D01*
X138694700Y-79067172D01*
X138898712Y-79304200D01*
X139145046Y-79496873D01*
X139424236Y-79637786D01*
X139505857Y-79671783D01*
X139750000Y-79540200D01*
X139750000Y-78250000D01*
X138595328Y-78250000D01*
X138443074Y-78497839D01*
X131250000Y-78497839D01*
X131250000Y-77502161D01*
X138443074Y-77502161D01*
X138595328Y-77750000D01*
X139750000Y-77750000D01*
X139750000Y-76459800D01*
X140250000Y-76459800D01*
X140250000Y-77750000D01*
X140270000Y-77750000D01*
X140270000Y-78250000D01*
X140250000Y-78250000D01*
X140250000Y-79540200D01*
X140494143Y-79671783D01*
X140575764Y-79637786D01*
X140854954Y-79496873D01*
X141077807Y-79322566D01*
X141190328Y-79459672D01*
X141342414Y-79584486D01*
X141515928Y-79677231D01*
X141704202Y-79734344D01*
X141900000Y-79753628D01*
X143100000Y-79753628D01*
X143295798Y-79734344D01*
X143484072Y-79677231D01*
X143657586Y-79584486D01*
X143809672Y-79459672D01*
X143934486Y-79307586D01*
X144027231Y-79134072D01*
X144084344Y-78945798D01*
X144103628Y-78750000D01*
X144103628Y-78497839D01*
X149443074Y-78497839D01*
X149540850Y-78794897D01*
X149694700Y-79067172D01*
X149898712Y-79304200D01*
X150145046Y-79496873D01*
X150424236Y-79637786D01*
X150505857Y-79671783D01*
X150750000Y-79540200D01*
X150750000Y-78250000D01*
X149595328Y-78250000D01*
X149443074Y-78497839D01*
X144103628Y-78497839D01*
X144103628Y-77502161D01*
X149443074Y-77502161D01*
X149595328Y-77750000D01*
X150750000Y-77750000D01*
X150750000Y-76459800D01*
X151250000Y-76459800D01*
X151250000Y-77750000D01*
X151270000Y-77750000D01*
X151270000Y-78250000D01*
X151250000Y-78250000D01*
X151250000Y-79540200D01*
X151494143Y-79671783D01*
X151575764Y-79637786D01*
X151854954Y-79496873D01*
X152077807Y-79322566D01*
X152190328Y-79459672D01*
X152342414Y-79584486D01*
X152515928Y-79677231D01*
X152704202Y-79734344D01*
X152900000Y-79753628D01*
X154100000Y-79753628D01*
X154295798Y-79734344D01*
X154484072Y-79677231D01*
X154657586Y-79584486D01*
X154809672Y-79459672D01*
X154934486Y-79307586D01*
X155027231Y-79134072D01*
X155084344Y-78945798D01*
X155103628Y-78750000D01*
X155103628Y-77250000D01*
X155084344Y-77054202D01*
X155027231Y-76865928D01*
X154934486Y-76692414D01*
X154809672Y-76540328D01*
X154657586Y-76415514D01*
X154484072Y-76322769D01*
X154295798Y-76265656D01*
X154100000Y-76246372D01*
X152900000Y-76246372D01*
X152704202Y-76265656D01*
X152515928Y-76322769D01*
X152342414Y-76415514D01*
X152190328Y-76540328D01*
X152077807Y-76677434D01*
X151854954Y-76503127D01*
X151575764Y-76362214D01*
X151494143Y-76328217D01*
X151250000Y-76459800D01*
X150750000Y-76459800D01*
X150505857Y-76328217D01*
X150424236Y-76362214D01*
X150145046Y-76503127D01*
X149898712Y-76695800D01*
X149694700Y-76932828D01*
X149540850Y-77205103D01*
X149443074Y-77502161D01*
X144103628Y-77502161D01*
X144103628Y-77250000D01*
X144084344Y-77054202D01*
X144027231Y-76865928D01*
X143934486Y-76692414D01*
X143809672Y-76540328D01*
X143657586Y-76415514D01*
X143484072Y-76322769D01*
X143295798Y-76265656D01*
X143100000Y-76246372D01*
X141900000Y-76246372D01*
X141704202Y-76265656D01*
X141515928Y-76322769D01*
X141342414Y-76415514D01*
X141190328Y-76540328D01*
X141077807Y-76677434D01*
X140854954Y-76503127D01*
X140575764Y-76362214D01*
X140494143Y-76328217D01*
X140250000Y-76459800D01*
X139750000Y-76459800D01*
X139505857Y-76328217D01*
X139424236Y-76362214D01*
X139145046Y-76503127D01*
X138898712Y-76695800D01*
X138694700Y-76932828D01*
X138540850Y-77205103D01*
X138443074Y-77502161D01*
X131250000Y-77502161D01*
X131250000Y-75000000D01*
X131245196Y-74951227D01*
X131230970Y-74904329D01*
X131207867Y-74861107D01*
X131176777Y-74823223D01*
X131138893Y-74792133D01*
X131095671Y-74769030D01*
X131048773Y-74754804D01*
X131000000Y-74750000D01*
X124775000Y-74750000D01*
X124775000Y-69271403D01*
X127400000Y-69271403D01*
X127400000Y-69728596D01*
X127423151Y-69963654D01*
X127514641Y-70265255D01*
X127663212Y-70543212D01*
X127863155Y-70786845D01*
X128106787Y-70986788D01*
X128384744Y-71135359D01*
X128686345Y-71226849D01*
X129000000Y-71257741D01*
X129313654Y-71226849D01*
X129615255Y-71135359D01*
X129893212Y-70986788D01*
X130084050Y-70830172D01*
X130190328Y-70959672D01*
X130342414Y-71084486D01*
X130515928Y-71177231D01*
X130704202Y-71234344D01*
X130900000Y-71253628D01*
X132100000Y-71253628D01*
X132295798Y-71234344D01*
X132484072Y-71177231D01*
X132657586Y-71084486D01*
X132809672Y-70959672D01*
X132934486Y-70807586D01*
X133027231Y-70634072D01*
X133084344Y-70445798D01*
X133103628Y-70250000D01*
X133103628Y-69271403D01*
X138400000Y-69271403D01*
X138400000Y-69728596D01*
X138423151Y-69963654D01*
X138514641Y-70265255D01*
X138663212Y-70543212D01*
X138863155Y-70786845D01*
X139106787Y-70986788D01*
X139384744Y-71135359D01*
X139686345Y-71226849D01*
X140000000Y-71257741D01*
X140313654Y-71226849D01*
X140615255Y-71135359D01*
X140893212Y-70986788D01*
X141084050Y-70830172D01*
X141190328Y-70959672D01*
X141342414Y-71084486D01*
X141515928Y-71177231D01*
X141704202Y-71234344D01*
X141900000Y-71253628D01*
X143100000Y-71253628D01*
X143295798Y-71234344D01*
X143484072Y-71177231D01*
X143657586Y-71084486D01*
X143809672Y-70959672D01*
X143934486Y-70807586D01*
X144027231Y-70634072D01*
X144084344Y-70445798D01*
X144103628Y-70250000D01*
X144103628Y-69271403D01*
X149400000Y-69271403D01*
X149400000Y-69728596D01*
X149423151Y-69963654D01*
X149514641Y-70265255D01*
X149663212Y-70543212D01*
X149863155Y-70786845D01*
X150106787Y-70986788D01*
X150384744Y-71135359D01*
X150686345Y-71226849D01*
X151000000Y-71257741D01*
X151313654Y-71226849D01*
X151615255Y-71135359D01*
X151893212Y-70986788D01*
X152084050Y-70830172D01*
X152190328Y-70959672D01*
X152342414Y-71084486D01*
X152515928Y-71177231D01*
X152704202Y-71234344D01*
X152900000Y-71253628D01*
X154100000Y-71253628D01*
X154295798Y-71234344D01*
X154484072Y-71177231D01*
X154657586Y-71084486D01*
X154809672Y-70959672D01*
X154934486Y-70807586D01*
X155027231Y-70634072D01*
X155084344Y-70445798D01*
X155103628Y-70250000D01*
X155103628Y-69271403D01*
X160400000Y-69271403D01*
X160400000Y-69728596D01*
X160423151Y-69963654D01*
X160514641Y-70265255D01*
X160663212Y-70543212D01*
X160863155Y-70786845D01*
X161106787Y-70986788D01*
X161384744Y-71135359D01*
X161686345Y-71226849D01*
X162000000Y-71257741D01*
X162313654Y-71226849D01*
X162615255Y-71135359D01*
X162893212Y-70986788D01*
X163084050Y-70830172D01*
X163190328Y-70959672D01*
X163342414Y-71084486D01*
X163515928Y-71177231D01*
X163704202Y-71234344D01*
X163900000Y-71253628D01*
X165100000Y-71253628D01*
X165295798Y-71234344D01*
X165484072Y-71177231D01*
X165657586Y-71084486D01*
X165809672Y-70959672D01*
X165934486Y-70807586D01*
X166027231Y-70634072D01*
X166084344Y-70445798D01*
X166103628Y-70250000D01*
X166103628Y-68750000D01*
X166084344Y-68554202D01*
X166027231Y-68365928D01*
X165934486Y-68192414D01*
X165809672Y-68040328D01*
X165657586Y-67915514D01*
X165484072Y-67822769D01*
X165295798Y-67765656D01*
X165100000Y-67746372D01*
X163900000Y-67746372D01*
X163704202Y-67765656D01*
X163515928Y-67822769D01*
X163342414Y-67915514D01*
X163190328Y-68040328D01*
X163084050Y-68169828D01*
X162893213Y-68013212D01*
X162615256Y-67864641D01*
X162313655Y-67773151D01*
X162000000Y-67742259D01*
X161686346Y-67773151D01*
X161384745Y-67864641D01*
X161106788Y-68013212D01*
X160863155Y-68213155D01*
X160663212Y-68456787D01*
X160514641Y-68734744D01*
X160423151Y-69036345D01*
X160400000Y-69271403D01*
X155103628Y-69271403D01*
X155103628Y-68750000D01*
X155084344Y-68554202D01*
X155027231Y-68365928D01*
X154934486Y-68192414D01*
X154809672Y-68040328D01*
X154657586Y-67915514D01*
X154484072Y-67822769D01*
X154295798Y-67765656D01*
X154100000Y-67746372D01*
X152900000Y-67746372D01*
X152704202Y-67765656D01*
X152515928Y-67822769D01*
X152342414Y-67915514D01*
X152190328Y-68040328D01*
X152084050Y-68169828D01*
X151893213Y-68013212D01*
X151615256Y-67864641D01*
X151313655Y-67773151D01*
X151000000Y-67742259D01*
X150686346Y-67773151D01*
X150384745Y-67864641D01*
X150106788Y-68013212D01*
X149863155Y-68213155D01*
X149663212Y-68456787D01*
X149514641Y-68734744D01*
X149423151Y-69036345D01*
X149400000Y-69271403D01*
X144103628Y-69271403D01*
X144103628Y-68750000D01*
X144084344Y-68554202D01*
X144027231Y-68365928D01*
X143934486Y-68192414D01*
X143809672Y-68040328D01*
X143657586Y-67915514D01*
X143484072Y-67822769D01*
X143295798Y-67765656D01*
X143100000Y-67746372D01*
X141900000Y-67746372D01*
X141704202Y-67765656D01*
X141515928Y-67822769D01*
X141342414Y-67915514D01*
X141190328Y-68040328D01*
X141084050Y-68169828D01*
X140893213Y-68013212D01*
X140615256Y-67864641D01*
X140313655Y-67773151D01*
X140000000Y-67742259D01*
X139686346Y-67773151D01*
X139384745Y-67864641D01*
X139106788Y-68013212D01*
X138863155Y-68213155D01*
X138663212Y-68456787D01*
X138514641Y-68734744D01*
X138423151Y-69036345D01*
X138400000Y-69271403D01*
X133103628Y-69271403D01*
X133103628Y-68750000D01*
X133084344Y-68554202D01*
X133027231Y-68365928D01*
X132934486Y-68192414D01*
X132809672Y-68040328D01*
X132657586Y-67915514D01*
X132484072Y-67822769D01*
X132295798Y-67765656D01*
X132100000Y-67746372D01*
X130900000Y-67746372D01*
X130704202Y-67765656D01*
X130515928Y-67822769D01*
X130342414Y-67915514D01*
X130190328Y-68040328D01*
X130084050Y-68169828D01*
X129893213Y-68013212D01*
X129615256Y-67864641D01*
X129313655Y-67773151D01*
X129000000Y-67742259D01*
X128686346Y-67773151D01*
X128384745Y-67864641D01*
X128106788Y-68013212D01*
X127863155Y-68213155D01*
X127663212Y-68456787D01*
X127514641Y-68734744D01*
X127423151Y-69036345D01*
X127400000Y-69271403D01*
X124775000Y-69271403D01*
X124775000Y-61827640D01*
X125750000Y-61827640D01*
X125750000Y-62172360D01*
X125817251Y-62510456D01*
X125949170Y-62828936D01*
X126140686Y-63115560D01*
X126384440Y-63359314D01*
X126671064Y-63550830D01*
X126989544Y-63682749D01*
X127327640Y-63750000D01*
X127672360Y-63750000D01*
X128010456Y-63682749D01*
X128328936Y-63550830D01*
X128615560Y-63359314D01*
X128859314Y-63115560D01*
X129050830Y-62828936D01*
X129182749Y-62510456D01*
X129250000Y-62172360D01*
X129250000Y-61827640D01*
X131250000Y-61827640D01*
X131250000Y-62172360D01*
X131317251Y-62510456D01*
X131449170Y-62828936D01*
X131640686Y-63115560D01*
X131884440Y-63359314D01*
X132171064Y-63550830D01*
X132489544Y-63682749D01*
X132827640Y-63750000D01*
X133172360Y-63750000D01*
X133510456Y-63682749D01*
X133828936Y-63550830D01*
X134115560Y-63359314D01*
X134359314Y-63115560D01*
X134550830Y-62828936D01*
X134682749Y-62510456D01*
X134750000Y-62172360D01*
X134750000Y-61827640D01*
X134682749Y-61489544D01*
X134550830Y-61171064D01*
X134359314Y-60884440D01*
X134115560Y-60640686D01*
X133828936Y-60449170D01*
X133510456Y-60317251D01*
X133172360Y-60250000D01*
X132827640Y-60250000D01*
X132489544Y-60317251D01*
X132171064Y-60449170D01*
X131884440Y-60640686D01*
X131640686Y-60884440D01*
X131449170Y-61171064D01*
X131317251Y-61489544D01*
X131250000Y-61827640D01*
X129250000Y-61827640D01*
X129182749Y-61489544D01*
X129050830Y-61171064D01*
X128859314Y-60884440D01*
X128615560Y-60640686D01*
X128328936Y-60449170D01*
X128010456Y-60317251D01*
X127672360Y-60250000D01*
X127327640Y-60250000D01*
X126989544Y-60317251D01*
X126671064Y-60449170D01*
X126384440Y-60640686D01*
X126140686Y-60884440D01*
X125949170Y-61171064D01*
X125817251Y-61489544D01*
X125750000Y-61827640D01*
X124775000Y-61827640D01*
X124775000Y-58750000D01*
X136496371Y-58750000D01*
X136510852Y-58897026D01*
X136553738Y-59038401D01*
X136623380Y-59168694D01*
X136717104Y-59282896D01*
X136831306Y-59376620D01*
X136961599Y-59446262D01*
X136969900Y-59448780D01*
X136834874Y-59583806D01*
X136670717Y-59829483D01*
X136557644Y-60102466D01*
X136500000Y-60392263D01*
X136500000Y-60687737D01*
X136557644Y-60977534D01*
X136670717Y-61250517D01*
X136834874Y-61496194D01*
X137043806Y-61705126D01*
X137200760Y-61810000D01*
X137043806Y-61914874D01*
X136834874Y-62123806D01*
X136670717Y-62369483D01*
X136557644Y-62642466D01*
X136500000Y-62932263D01*
X136500000Y-63227737D01*
X136557644Y-63517534D01*
X136670717Y-63790517D01*
X136834874Y-64036194D01*
X137043806Y-64245126D01*
X137289483Y-64409283D01*
X137562466Y-64522356D01*
X137852263Y-64580000D01*
X138147737Y-64580000D01*
X138437534Y-64522356D01*
X138710517Y-64409283D01*
X138956194Y-64245126D01*
X139165126Y-64036194D01*
X139329283Y-63790517D01*
X139442356Y-63517534D01*
X139500000Y-63227737D01*
X139500000Y-62932263D01*
X139442356Y-62642466D01*
X139329283Y-62369483D01*
X139165126Y-62123806D01*
X138956194Y-61914874D01*
X138799240Y-61810000D01*
X138956194Y-61705126D01*
X139165126Y-61496194D01*
X139329283Y-61250517D01*
X139442356Y-60977534D01*
X139500000Y-60687737D01*
X139500000Y-60392263D01*
X139442356Y-60102466D01*
X139329283Y-59829483D01*
X139165126Y-59583806D01*
X139030100Y-59448780D01*
X139038401Y-59446262D01*
X139168694Y-59376620D01*
X139282896Y-59282896D01*
X139376620Y-59168694D01*
X139446262Y-59038401D01*
X139489148Y-58897026D01*
X139503629Y-58750000D01*
X141996371Y-58750000D01*
X142010852Y-58897026D01*
X142053738Y-59038401D01*
X142123380Y-59168694D01*
X142217104Y-59282896D01*
X142331306Y-59376620D01*
X142461599Y-59446262D01*
X142469900Y-59448780D01*
X142334874Y-59583806D01*
X142170717Y-59829483D01*
X142057644Y-60102466D01*
X142000000Y-60392263D01*
X142000000Y-60687737D01*
X142057644Y-60977534D01*
X142170717Y-61250517D01*
X142334874Y-61496194D01*
X142543806Y-61705126D01*
X142700760Y-61810000D01*
X142543806Y-61914874D01*
X142334874Y-62123806D01*
X142170717Y-62369483D01*
X142057644Y-62642466D01*
X142000000Y-62932263D01*
X142000000Y-63227737D01*
X142057644Y-63517534D01*
X142170717Y-63790517D01*
X142334874Y-64036194D01*
X142543806Y-64245126D01*
X142789483Y-64409283D01*
X143062466Y-64522356D01*
X143352263Y-64580000D01*
X143647737Y-64580000D01*
X143937534Y-64522356D01*
X144210517Y-64409283D01*
X144456194Y-64245126D01*
X144665126Y-64036194D01*
X144829283Y-63790517D01*
X144942356Y-63517534D01*
X145000000Y-63227737D01*
X145000000Y-62932263D01*
X144942356Y-62642466D01*
X144829283Y-62369483D01*
X144665126Y-62123806D01*
X144456194Y-61914874D01*
X144299240Y-61810000D01*
X144456194Y-61705126D01*
X144665126Y-61496194D01*
X144829283Y-61250517D01*
X144942356Y-60977534D01*
X145000000Y-60687737D01*
X145000000Y-60392263D01*
X144942356Y-60102466D01*
X144829283Y-59829483D01*
X144665126Y-59583806D01*
X144530100Y-59448780D01*
X144538401Y-59446262D01*
X144668694Y-59376620D01*
X144782896Y-59282896D01*
X144876620Y-59168694D01*
X144946262Y-59038401D01*
X144989148Y-58897026D01*
X145003629Y-58750000D01*
X147496371Y-58750000D01*
X147510852Y-58897026D01*
X147553738Y-59038401D01*
X147623380Y-59168694D01*
X147717104Y-59282896D01*
X147831306Y-59376620D01*
X147961599Y-59446262D01*
X147969900Y-59448780D01*
X147834874Y-59583806D01*
X147670717Y-59829483D01*
X147557644Y-60102466D01*
X147500000Y-60392263D01*
X147500000Y-60687737D01*
X147557644Y-60977534D01*
X147670717Y-61250517D01*
X147834874Y-61496194D01*
X148043806Y-61705126D01*
X148200760Y-61810000D01*
X148043806Y-61914874D01*
X147834874Y-62123806D01*
X147670717Y-62369483D01*
X147557644Y-62642466D01*
X147500000Y-62932263D01*
X147500000Y-63227737D01*
X147557644Y-63517534D01*
X147670717Y-63790517D01*
X147834874Y-64036194D01*
X148043806Y-64245126D01*
X148289483Y-64409283D01*
X148562466Y-64522356D01*
X148852263Y-64580000D01*
X149147737Y-64580000D01*
X149437534Y-64522356D01*
X149710517Y-64409283D01*
X149956194Y-64245126D01*
X150165126Y-64036194D01*
X150329283Y-63790517D01*
X150442356Y-63517534D01*
X150500000Y-63227737D01*
X150500000Y-62932263D01*
X150442356Y-62642466D01*
X150329283Y-62369483D01*
X150165126Y-62123806D01*
X149956194Y-61914874D01*
X149799240Y-61810000D01*
X149956194Y-61705126D01*
X150165126Y-61496194D01*
X150329283Y-61250517D01*
X150442356Y-60977534D01*
X150500000Y-60687737D01*
X150500000Y-60392263D01*
X150442356Y-60102466D01*
X150329283Y-59829483D01*
X150165126Y-59583806D01*
X150030100Y-59448780D01*
X150038401Y-59446262D01*
X150168694Y-59376620D01*
X150282896Y-59282896D01*
X150376620Y-59168694D01*
X150446262Y-59038401D01*
X150489148Y-58897026D01*
X150503629Y-58750000D01*
X152996371Y-58750000D01*
X153010852Y-58897026D01*
X153053738Y-59038401D01*
X153123380Y-59168694D01*
X153217104Y-59282896D01*
X153331306Y-59376620D01*
X153461599Y-59446262D01*
X153469900Y-59448780D01*
X153334874Y-59583806D01*
X153170717Y-59829483D01*
X153057644Y-60102466D01*
X153000000Y-60392263D01*
X153000000Y-60687737D01*
X153057644Y-60977534D01*
X153170717Y-61250517D01*
X153334874Y-61496194D01*
X153543806Y-61705126D01*
X153700760Y-61810000D01*
X153543806Y-61914874D01*
X153334874Y-62123806D01*
X153170717Y-62369483D01*
X153057644Y-62642466D01*
X153000000Y-62932263D01*
X153000000Y-63227737D01*
X153057644Y-63517534D01*
X153170717Y-63790517D01*
X153334874Y-64036194D01*
X153543806Y-64245126D01*
X153789483Y-64409283D01*
X154062466Y-64522356D01*
X154352263Y-64580000D01*
X154647737Y-64580000D01*
X154937534Y-64522356D01*
X155210517Y-64409283D01*
X155456194Y-64245126D01*
X155665126Y-64036194D01*
X155829283Y-63790517D01*
X155942356Y-63517534D01*
X156000000Y-63227737D01*
X156000000Y-62932263D01*
X155942356Y-62642466D01*
X155829283Y-62369483D01*
X155665126Y-62123806D01*
X155456194Y-61914874D01*
X155325640Y-61827640D01*
X158750000Y-61827640D01*
X158750000Y-62172360D01*
X158817251Y-62510456D01*
X158949170Y-62828936D01*
X159140686Y-63115560D01*
X159384440Y-63359314D01*
X159671064Y-63550830D01*
X159989544Y-63682749D01*
X160327640Y-63750000D01*
X160672360Y-63750000D01*
X161010456Y-63682749D01*
X161328936Y-63550830D01*
X161615560Y-63359314D01*
X161859314Y-63115560D01*
X162050830Y-62828936D01*
X162182749Y-62510456D01*
X162250000Y-62172360D01*
X162250000Y-61827640D01*
X164250000Y-61827640D01*
X164250000Y-62172360D01*
X164317251Y-62510456D01*
X164449170Y-62828936D01*
X164640686Y-63115560D01*
X164884440Y-63359314D01*
X165171064Y-63550830D01*
X165489544Y-63682749D01*
X165827640Y-63750000D01*
X166172360Y-63750000D01*
X166510456Y-63682749D01*
X166828936Y-63550830D01*
X167115560Y-63359314D01*
X167359314Y-63115560D01*
X167550830Y-62828936D01*
X167682749Y-62510456D01*
X167750000Y-62172360D01*
X167750000Y-61827640D01*
X167682749Y-61489544D01*
X167550830Y-61171064D01*
X167359314Y-60884440D01*
X167115560Y-60640686D01*
X166828936Y-60449170D01*
X166510456Y-60317251D01*
X166172360Y-60250000D01*
X165827640Y-60250000D01*
X165489544Y-60317251D01*
X165171064Y-60449170D01*
X164884440Y-60640686D01*
X164640686Y-60884440D01*
X164449170Y-61171064D01*
X164317251Y-61489544D01*
X164250000Y-61827640D01*
X162250000Y-61827640D01*
X162182749Y-61489544D01*
X162050830Y-61171064D01*
X161859314Y-60884440D01*
X161615560Y-60640686D01*
X161328936Y-60449170D01*
X161010456Y-60317251D01*
X160672360Y-60250000D01*
X160327640Y-60250000D01*
X159989544Y-60317251D01*
X159671064Y-60449170D01*
X159384440Y-60640686D01*
X159140686Y-60884440D01*
X158949170Y-61171064D01*
X158817251Y-61489544D01*
X158750000Y-61827640D01*
X155325640Y-61827640D01*
X155299240Y-61810000D01*
X155456194Y-61705126D01*
X155665126Y-61496194D01*
X155829283Y-61250517D01*
X155942356Y-60977534D01*
X156000000Y-60687737D01*
X156000000Y-60392263D01*
X155942356Y-60102466D01*
X155829283Y-59829483D01*
X155665126Y-59583806D01*
X155530100Y-59448780D01*
X155538401Y-59446262D01*
X155668694Y-59376620D01*
X155782896Y-59282896D01*
X155876620Y-59168694D01*
X155946262Y-59038401D01*
X155989148Y-58897026D01*
X156003629Y-58750000D01*
X156000000Y-58437500D01*
X155812500Y-58250000D01*
X154750000Y-58250000D01*
X154750000Y-58270000D01*
X154250000Y-58270000D01*
X154250000Y-58250000D01*
X153187500Y-58250000D01*
X153000000Y-58437500D01*
X152996371Y-58750000D01*
X150503629Y-58750000D01*
X150500000Y-58437500D01*
X150312500Y-58250000D01*
X149250000Y-58250000D01*
X149250000Y-58270000D01*
X148750000Y-58270000D01*
X148750000Y-58250000D01*
X147687500Y-58250000D01*
X147500000Y-58437500D01*
X147496371Y-58750000D01*
X145003629Y-58750000D01*
X145000000Y-58437500D01*
X144812500Y-58250000D01*
X143750000Y-58250000D01*
X143750000Y-58270000D01*
X143250000Y-58270000D01*
X143250000Y-58250000D01*
X142187500Y-58250000D01*
X142000000Y-58437500D01*
X141996371Y-58750000D01*
X139503629Y-58750000D01*
X139500000Y-58437500D01*
X139312500Y-58250000D01*
X138250000Y-58250000D01*
X138250000Y-58270000D01*
X137750000Y-58270000D01*
X137750000Y-58250000D01*
X136687500Y-58250000D01*
X136500000Y-58437500D01*
X136496371Y-58750000D01*
X124775000Y-58750000D01*
X124775000Y-57250000D01*
X136496371Y-57250000D01*
X136500000Y-57562500D01*
X136687500Y-57750000D01*
X137750000Y-57750000D01*
X137750000Y-56687500D01*
X138250000Y-56687500D01*
X138250000Y-57750000D01*
X139312500Y-57750000D01*
X139500000Y-57562500D01*
X139503629Y-57250000D01*
X141996371Y-57250000D01*
X142000000Y-57562500D01*
X142187500Y-57750000D01*
X143250000Y-57750000D01*
X143250000Y-56687500D01*
X143750000Y-56687500D01*
X143750000Y-57750000D01*
X144812500Y-57750000D01*
X145000000Y-57562500D01*
X145003629Y-57250000D01*
X147496371Y-57250000D01*
X147500000Y-57562500D01*
X147687500Y-57750000D01*
X148750000Y-57750000D01*
X148750000Y-56687500D01*
X149250000Y-56687500D01*
X149250000Y-57750000D01*
X150312500Y-57750000D01*
X150500000Y-57562500D01*
X150503629Y-57250000D01*
X152996371Y-57250000D01*
X153000000Y-57562500D01*
X153187500Y-57750000D01*
X154250000Y-57750000D01*
X154250000Y-56687500D01*
X154750000Y-56687500D01*
X154750000Y-57750000D01*
X155812500Y-57750000D01*
X156000000Y-57562500D01*
X156003629Y-57250000D01*
X155989148Y-57102974D01*
X155946262Y-56961599D01*
X155876620Y-56831306D01*
X155782896Y-56717104D01*
X155668694Y-56623380D01*
X155538401Y-56553738D01*
X155397026Y-56510852D01*
X155250000Y-56496371D01*
X154937500Y-56500000D01*
X154750000Y-56687500D01*
X154250000Y-56687500D01*
X154062500Y-56500000D01*
X153750000Y-56496371D01*
X153602974Y-56510852D01*
X153461599Y-56553738D01*
X153331306Y-56623380D01*
X153217104Y-56717104D01*
X153123380Y-56831306D01*
X153053738Y-56961599D01*
X153010852Y-57102974D01*
X152996371Y-57250000D01*
X150503629Y-57250000D01*
X150489148Y-57102974D01*
X150446262Y-56961599D01*
X150376620Y-56831306D01*
X150282896Y-56717104D01*
X150168694Y-56623380D01*
X150038401Y-56553738D01*
X149897026Y-56510852D01*
X149750000Y-56496371D01*
X149437500Y-56500000D01*
X149250000Y-56687500D01*
X148750000Y-56687500D01*
X148562500Y-56500000D01*
X148250000Y-56496371D01*
X148102974Y-56510852D01*
X147961599Y-56553738D01*
X147831306Y-56623380D01*
X147717104Y-56717104D01*
X147623380Y-56831306D01*
X147553738Y-56961599D01*
X147510852Y-57102974D01*
X147496371Y-57250000D01*
X145003629Y-57250000D01*
X144989148Y-57102974D01*
X144946262Y-56961599D01*
X144876620Y-56831306D01*
X144782896Y-56717104D01*
X144668694Y-56623380D01*
X144538401Y-56553738D01*
X144397026Y-56510852D01*
X144250000Y-56496371D01*
X143937500Y-56500000D01*
X143750000Y-56687500D01*
X143250000Y-56687500D01*
X143062500Y-56500000D01*
X142750000Y-56496371D01*
X142602974Y-56510852D01*
X142461599Y-56553738D01*
X142331306Y-56623380D01*
X142217104Y-56717104D01*
X142123380Y-56831306D01*
X142053738Y-56961599D01*
X142010852Y-57102974D01*
X141996371Y-57250000D01*
X139503629Y-57250000D01*
X139489148Y-57102974D01*
X139446262Y-56961599D01*
X139376620Y-56831306D01*
X139282896Y-56717104D01*
X139168694Y-56623380D01*
X139038401Y-56553738D01*
X138897026Y-56510852D01*
X138750000Y-56496371D01*
X138437500Y-56500000D01*
X138250000Y-56687500D01*
X137750000Y-56687500D01*
X137562500Y-56500000D01*
X137250000Y-56496371D01*
X137102974Y-56510852D01*
X136961599Y-56553738D01*
X136831306Y-56623380D01*
X136717104Y-56717104D01*
X136623380Y-56831306D01*
X136553738Y-56961599D01*
X136510852Y-57102974D01*
X136496371Y-57250000D01*
X124775000Y-57250000D01*
X124775000Y-52827640D01*
X125750000Y-52827640D01*
X125750000Y-53172360D01*
X125817251Y-53510456D01*
X125949170Y-53828936D01*
X126140686Y-54115560D01*
X126384440Y-54359314D01*
X126671064Y-54550830D01*
X126989544Y-54682749D01*
X127327640Y-54750000D01*
X127672360Y-54750000D01*
X128010456Y-54682749D01*
X128328936Y-54550830D01*
X128615560Y-54359314D01*
X128859314Y-54115560D01*
X129050830Y-53828936D01*
X129182749Y-53510456D01*
X129250000Y-53172360D01*
X129250000Y-52827640D01*
X131250000Y-52827640D01*
X131250000Y-53172360D01*
X131317251Y-53510456D01*
X131449170Y-53828936D01*
X131640686Y-54115560D01*
X131884440Y-54359314D01*
X132171064Y-54550830D01*
X132489544Y-54682749D01*
X132827640Y-54750000D01*
X133172360Y-54750000D01*
X133510456Y-54682749D01*
X133828936Y-54550830D01*
X134115560Y-54359314D01*
X134359314Y-54115560D01*
X134550830Y-53828936D01*
X134604237Y-53700000D01*
X136446372Y-53700000D01*
X136446372Y-55300000D01*
X136460853Y-55447026D01*
X136503739Y-55588401D01*
X136573381Y-55718693D01*
X136667105Y-55832895D01*
X136781307Y-55926619D01*
X136911599Y-55996261D01*
X137052974Y-56039147D01*
X137200000Y-56053628D01*
X138800000Y-56053628D01*
X138947026Y-56039147D01*
X139088401Y-55996261D01*
X139218693Y-55926619D01*
X139332895Y-55832895D01*
X139426619Y-55718693D01*
X139479351Y-55620038D01*
X139586396Y-55721952D01*
X139843110Y-55884511D01*
X140053779Y-55971764D01*
X140290000Y-55839368D01*
X140290000Y-54750000D01*
X140790000Y-54750000D01*
X140790000Y-55839368D01*
X141026221Y-55971764D01*
X141236890Y-55884511D01*
X141493604Y-55721952D01*
X141713672Y-55512434D01*
X141810000Y-55375661D01*
X141906328Y-55512434D01*
X142126396Y-55721952D01*
X142383110Y-55884511D01*
X142593779Y-55971764D01*
X142830000Y-55839368D01*
X142830000Y-54750000D01*
X143330000Y-54750000D01*
X143330000Y-55839368D01*
X143566221Y-55971764D01*
X143776890Y-55884511D01*
X144033604Y-55721952D01*
X144253672Y-55512434D01*
X144350000Y-55375661D01*
X144446328Y-55512434D01*
X144666396Y-55721952D01*
X144923110Y-55884511D01*
X145133779Y-55971764D01*
X145370000Y-55839368D01*
X145370000Y-54750000D01*
X145870000Y-54750000D01*
X145870000Y-55839368D01*
X146106221Y-55971764D01*
X146316890Y-55884511D01*
X146573604Y-55721952D01*
X146793672Y-55512434D01*
X146890000Y-55375661D01*
X146986328Y-55512434D01*
X147206396Y-55721952D01*
X147463110Y-55884511D01*
X147673779Y-55971764D01*
X147910000Y-55839368D01*
X147910000Y-54750000D01*
X145870000Y-54750000D01*
X145370000Y-54750000D01*
X143330000Y-54750000D01*
X142830000Y-54750000D01*
X140790000Y-54750000D01*
X140290000Y-54750000D01*
X140270000Y-54750000D01*
X140270000Y-54250000D01*
X140290000Y-54250000D01*
X140290000Y-53160632D01*
X140790000Y-53160632D01*
X140790000Y-54250000D01*
X142830000Y-54250000D01*
X142830000Y-53160632D01*
X143330000Y-53160632D01*
X143330000Y-54250000D01*
X145370000Y-54250000D01*
X145370000Y-53160632D01*
X145870000Y-53160632D01*
X145870000Y-54250000D01*
X147910000Y-54250000D01*
X147910000Y-53160632D01*
X148410000Y-53160632D01*
X148410000Y-54250000D01*
X148430000Y-54250000D01*
X148430000Y-54750000D01*
X148410000Y-54750000D01*
X148410000Y-55839368D01*
X148646221Y-55971764D01*
X148856890Y-55884511D01*
X149113604Y-55721952D01*
X149333672Y-55512434D01*
X149425345Y-55382271D01*
X149496036Y-55488068D01*
X149711932Y-55703964D01*
X149965800Y-55873592D01*
X150247882Y-55990435D01*
X150547338Y-56050000D01*
X150852662Y-56050000D01*
X151152118Y-55990435D01*
X151434200Y-55873592D01*
X151688068Y-55703964D01*
X151903964Y-55488068D01*
X151970000Y-55389237D01*
X152036036Y-55488068D01*
X152251932Y-55703964D01*
X152505800Y-55873592D01*
X152787882Y-55990435D01*
X153087338Y-56050000D01*
X153392662Y-56050000D01*
X153692118Y-55990435D01*
X153974200Y-55873592D01*
X154228068Y-55703964D01*
X154443964Y-55488068D01*
X154514655Y-55382271D01*
X154606328Y-55512434D01*
X154826396Y-55721952D01*
X155083110Y-55884511D01*
X155293779Y-55971764D01*
X155530000Y-55839368D01*
X155530000Y-54750000D01*
X156030000Y-54750000D01*
X156030000Y-55839368D01*
X156266221Y-55971764D01*
X156476890Y-55884511D01*
X156733604Y-55721952D01*
X156953672Y-55512434D01*
X157128636Y-55264008D01*
X157251773Y-54986222D01*
X157122215Y-54750000D01*
X156030000Y-54750000D01*
X155530000Y-54750000D01*
X155510000Y-54750000D01*
X155510000Y-54250000D01*
X155530000Y-54250000D01*
X155530000Y-53160632D01*
X156030000Y-53160632D01*
X156030000Y-54250000D01*
X157122215Y-54250000D01*
X157251773Y-54013778D01*
X157128636Y-53735992D01*
X156953672Y-53487566D01*
X156733604Y-53278048D01*
X156476890Y-53115489D01*
X156266221Y-53028236D01*
X156030000Y-53160632D01*
X155530000Y-53160632D01*
X155293779Y-53028236D01*
X155083110Y-53115489D01*
X154826396Y-53278048D01*
X154606328Y-53487566D01*
X154514655Y-53617729D01*
X154443964Y-53511932D01*
X154228068Y-53296036D01*
X153974200Y-53126408D01*
X153692118Y-53009565D01*
X153392662Y-52950000D01*
X153087338Y-52950000D01*
X152787882Y-53009565D01*
X152505800Y-53126408D01*
X152251932Y-53296036D01*
X152036036Y-53511932D01*
X151970000Y-53610763D01*
X151903964Y-53511932D01*
X151688068Y-53296036D01*
X151434200Y-53126408D01*
X151152118Y-53009565D01*
X150852662Y-52950000D01*
X150547338Y-52950000D01*
X150247882Y-53009565D01*
X149965800Y-53126408D01*
X149711932Y-53296036D01*
X149496036Y-53511932D01*
X149425345Y-53617729D01*
X149333672Y-53487566D01*
X149113604Y-53278048D01*
X148856890Y-53115489D01*
X148646221Y-53028236D01*
X148410000Y-53160632D01*
X147910000Y-53160632D01*
X147673779Y-53028236D01*
X147463110Y-53115489D01*
X147206396Y-53278048D01*
X146986328Y-53487566D01*
X146890000Y-53624339D01*
X146793672Y-53487566D01*
X146573604Y-53278048D01*
X146316890Y-53115489D01*
X146106221Y-53028236D01*
X145870000Y-53160632D01*
X145370000Y-53160632D01*
X145133779Y-53028236D01*
X144923110Y-53115489D01*
X144666396Y-53278048D01*
X144446328Y-53487566D01*
X144350000Y-53624339D01*
X144253672Y-53487566D01*
X144033604Y-53278048D01*
X143776890Y-53115489D01*
X143566221Y-53028236D01*
X143330000Y-53160632D01*
X142830000Y-53160632D01*
X142593779Y-53028236D01*
X142383110Y-53115489D01*
X142126396Y-53278048D01*
X141906328Y-53487566D01*
X141810000Y-53624339D01*
X141713672Y-53487566D01*
X141493604Y-53278048D01*
X141236890Y-53115489D01*
X141026221Y-53028236D01*
X140790000Y-53160632D01*
X140290000Y-53160632D01*
X140053779Y-53028236D01*
X139843110Y-53115489D01*
X139586396Y-53278048D01*
X139479351Y-53379962D01*
X139426619Y-53281307D01*
X139332895Y-53167105D01*
X139218693Y-53073381D01*
X139088401Y-53003739D01*
X138947026Y-52960853D01*
X138800000Y-52946372D01*
X137200000Y-52946372D01*
X137052974Y-52960853D01*
X136911599Y-53003739D01*
X136781307Y-53073381D01*
X136667105Y-53167105D01*
X136573381Y-53281307D01*
X136503739Y-53411599D01*
X136460853Y-53552974D01*
X136446372Y-53700000D01*
X134604237Y-53700000D01*
X134682749Y-53510456D01*
X134750000Y-53172360D01*
X134750000Y-52827640D01*
X158750000Y-52827640D01*
X158750000Y-53172360D01*
X158817251Y-53510456D01*
X158949170Y-53828936D01*
X159140686Y-54115560D01*
X159384440Y-54359314D01*
X159671064Y-54550830D01*
X159989544Y-54682749D01*
X160327640Y-54750000D01*
X160672360Y-54750000D01*
X161010456Y-54682749D01*
X161328936Y-54550830D01*
X161615560Y-54359314D01*
X161859314Y-54115560D01*
X162050830Y-53828936D01*
X162182749Y-53510456D01*
X162250000Y-53172360D01*
X162250000Y-52827640D01*
X164250000Y-52827640D01*
X164250000Y-53172360D01*
X164317251Y-53510456D01*
X164449170Y-53828936D01*
X164640686Y-54115560D01*
X164884440Y-54359314D01*
X165171064Y-54550830D01*
X165489544Y-54682749D01*
X165827640Y-54750000D01*
X166172360Y-54750000D01*
X166510456Y-54682749D01*
X166828936Y-54550830D01*
X167115560Y-54359314D01*
X167359314Y-54115560D01*
X167550830Y-53828936D01*
X167682749Y-53510456D01*
X167750000Y-53172360D01*
X167750000Y-52827640D01*
X167682749Y-52489544D01*
X167550830Y-52171064D01*
X167359314Y-51884440D01*
X167115560Y-51640686D01*
X166828936Y-51449170D01*
X166510456Y-51317251D01*
X166172360Y-51250000D01*
X165827640Y-51250000D01*
X165489544Y-51317251D01*
X165171064Y-51449170D01*
X164884440Y-51640686D01*
X164640686Y-51884440D01*
X164449170Y-52171064D01*
X164317251Y-52489544D01*
X164250000Y-52827640D01*
X162250000Y-52827640D01*
X162182749Y-52489544D01*
X162050830Y-52171064D01*
X161859314Y-51884440D01*
X161615560Y-51640686D01*
X161328936Y-51449170D01*
X161010456Y-51317251D01*
X160672360Y-51250000D01*
X160327640Y-51250000D01*
X159989544Y-51317251D01*
X159671064Y-51449170D01*
X159384440Y-51640686D01*
X159140686Y-51884440D01*
X158949170Y-52171064D01*
X158817251Y-52489544D01*
X158750000Y-52827640D01*
X134750000Y-52827640D01*
X134682749Y-52489544D01*
X134550830Y-52171064D01*
X134359314Y-51884440D01*
X134115560Y-51640686D01*
X133828936Y-51449170D01*
X133510456Y-51317251D01*
X133172360Y-51250000D01*
X132827640Y-51250000D01*
X132489544Y-51317251D01*
X132171064Y-51449170D01*
X131884440Y-51640686D01*
X131640686Y-51884440D01*
X131449170Y-52171064D01*
X131317251Y-52489544D01*
X131250000Y-52827640D01*
X129250000Y-52827640D01*
X129182749Y-52489544D01*
X129050830Y-52171064D01*
X128859314Y-51884440D01*
X128615560Y-51640686D01*
X128328936Y-51449170D01*
X128010456Y-51317251D01*
X127672360Y-51250000D01*
X127327640Y-51250000D01*
X126989544Y-51317251D01*
X126671064Y-51449170D01*
X126384440Y-51640686D01*
X126140686Y-51884440D01*
X125949170Y-52171064D01*
X125817251Y-52489544D01*
X125750000Y-52827640D01*
X124775000Y-52827640D01*
X124775000Y-48129247D01*
X128724306Y-48129247D01*
X128798649Y-48390653D01*
X129083429Y-48500758D01*
X129384216Y-48553190D01*
X129689454Y-48545935D01*
X129987411Y-48479270D01*
X130201351Y-48390653D01*
X130275694Y-48129247D01*
X129500000Y-47353553D01*
X128724306Y-48129247D01*
X124775000Y-48129247D01*
X124775000Y-46884216D01*
X127946810Y-46884216D01*
X127954065Y-47189454D01*
X128020730Y-47487411D01*
X128109347Y-47701351D01*
X128370753Y-47775694D01*
X129146447Y-47000000D01*
X129853553Y-47000000D01*
X130629247Y-47775694D01*
X130890653Y-47701351D01*
X131000758Y-47416571D01*
X131053190Y-47115784D01*
X131046810Y-46847338D01*
X132950000Y-46847338D01*
X132950000Y-47152662D01*
X133009565Y-47452118D01*
X133126408Y-47734200D01*
X133296036Y-47988068D01*
X133511932Y-48203964D01*
X133765800Y-48373592D01*
X134047882Y-48490435D01*
X134347338Y-48550000D01*
X134652662Y-48550000D01*
X134952118Y-48490435D01*
X135234200Y-48373592D01*
X135488068Y-48203964D01*
X135703964Y-47988068D01*
X135873592Y-47734200D01*
X135990435Y-47452118D01*
X136050000Y-47152662D01*
X136050000Y-46847338D01*
X136026131Y-46727338D01*
X136450000Y-46727338D01*
X136450000Y-47032662D01*
X136509565Y-47332118D01*
X136626408Y-47614200D01*
X136796036Y-47868068D01*
X137011932Y-48083964D01*
X137265800Y-48253592D01*
X137547882Y-48370435D01*
X137847338Y-48430000D01*
X138152662Y-48430000D01*
X138452118Y-48370435D01*
X138734200Y-48253592D01*
X138988068Y-48083964D01*
X139203964Y-47868068D01*
X139270000Y-47769237D01*
X139336036Y-47868068D01*
X139551932Y-48083964D01*
X139805800Y-48253592D01*
X140087882Y-48370435D01*
X140387338Y-48430000D01*
X140692662Y-48430000D01*
X140992118Y-48370435D01*
X141274200Y-48253592D01*
X141528068Y-48083964D01*
X141743964Y-47868068D01*
X141810000Y-47769237D01*
X141876036Y-47868068D01*
X142091932Y-48083964D01*
X142345800Y-48253592D01*
X142627882Y-48370435D01*
X142927338Y-48430000D01*
X143232662Y-48430000D01*
X143532118Y-48370435D01*
X143814200Y-48253592D01*
X144068068Y-48083964D01*
X144283964Y-47868068D01*
X144354655Y-47762271D01*
X144446328Y-47892434D01*
X144666396Y-48101952D01*
X144923110Y-48264511D01*
X145133779Y-48351764D01*
X145370000Y-48219368D01*
X145370000Y-47130000D01*
X145350000Y-47130000D01*
X145350000Y-46630000D01*
X145370000Y-46630000D01*
X145370000Y-45540632D01*
X145870000Y-45540632D01*
X145870000Y-46630000D01*
X145890000Y-46630000D01*
X145890000Y-47130000D01*
X145870000Y-47130000D01*
X145870000Y-48219368D01*
X146106221Y-48351764D01*
X146316890Y-48264511D01*
X146573604Y-48101952D01*
X146793672Y-47892434D01*
X146885345Y-47762271D01*
X146956036Y-47868068D01*
X147171932Y-48083964D01*
X147425800Y-48253592D01*
X147707882Y-48370435D01*
X148007338Y-48430000D01*
X148312662Y-48430000D01*
X148612118Y-48370435D01*
X148894200Y-48253592D01*
X149148068Y-48083964D01*
X149363964Y-47868068D01*
X149430000Y-47769237D01*
X149496036Y-47868068D01*
X149711932Y-48083964D01*
X149965800Y-48253592D01*
X150247882Y-48370435D01*
X150547338Y-48430000D01*
X150852662Y-48430000D01*
X151152118Y-48370435D01*
X151434200Y-48253592D01*
X151688068Y-48083964D01*
X151903964Y-47868068D01*
X151970000Y-47769237D01*
X152036036Y-47868068D01*
X152251932Y-48083964D01*
X152505800Y-48253592D01*
X152787882Y-48370435D01*
X153087338Y-48430000D01*
X153392662Y-48430000D01*
X153692118Y-48370435D01*
X153974200Y-48253592D01*
X154228068Y-48083964D01*
X154443964Y-47868068D01*
X154514655Y-47762271D01*
X154606328Y-47892434D01*
X154826396Y-48101952D01*
X155083110Y-48264511D01*
X155293779Y-48351764D01*
X155530000Y-48219368D01*
X155530000Y-47130000D01*
X156030000Y-47130000D01*
X156030000Y-48219368D01*
X156266221Y-48351764D01*
X156476890Y-48264511D01*
X156733604Y-48101952D01*
X156953672Y-47892434D01*
X157128636Y-47644008D01*
X157251773Y-47366222D01*
X157122215Y-47130000D01*
X156030000Y-47130000D01*
X155530000Y-47130000D01*
X155510000Y-47130000D01*
X155510000Y-46630000D01*
X155530000Y-46630000D01*
X155530000Y-45540632D01*
X156030000Y-45540632D01*
X156030000Y-46630000D01*
X157122215Y-46630000D01*
X157251773Y-46393778D01*
X157128636Y-46115992D01*
X156953672Y-45867566D01*
X156733604Y-45658048D01*
X156476890Y-45495489D01*
X156266221Y-45408236D01*
X156030000Y-45540632D01*
X155530000Y-45540632D01*
X155293779Y-45408236D01*
X155083110Y-45495489D01*
X154826396Y-45658048D01*
X154606328Y-45867566D01*
X154514655Y-45997729D01*
X154443964Y-45891932D01*
X154228068Y-45676036D01*
X153974200Y-45506408D01*
X153692118Y-45389565D01*
X153392662Y-45330000D01*
X153087338Y-45330000D01*
X152787882Y-45389565D01*
X152505800Y-45506408D01*
X152251932Y-45676036D01*
X152036036Y-45891932D01*
X151970000Y-45990763D01*
X151903964Y-45891932D01*
X151688068Y-45676036D01*
X151434200Y-45506408D01*
X151152118Y-45389565D01*
X150852662Y-45330000D01*
X150547338Y-45330000D01*
X150247882Y-45389565D01*
X149965800Y-45506408D01*
X149711932Y-45676036D01*
X149496036Y-45891932D01*
X149430000Y-45990763D01*
X149363964Y-45891932D01*
X149148068Y-45676036D01*
X148894200Y-45506408D01*
X148612118Y-45389565D01*
X148312662Y-45330000D01*
X148007338Y-45330000D01*
X147707882Y-45389565D01*
X147425800Y-45506408D01*
X147171932Y-45676036D01*
X146956036Y-45891932D01*
X146885345Y-45997729D01*
X146793672Y-45867566D01*
X146573604Y-45658048D01*
X146316890Y-45495489D01*
X146106221Y-45408236D01*
X145870000Y-45540632D01*
X145370000Y-45540632D01*
X145133779Y-45408236D01*
X144923110Y-45495489D01*
X144666396Y-45658048D01*
X144446328Y-45867566D01*
X144354655Y-45997729D01*
X144283964Y-45891932D01*
X144068068Y-45676036D01*
X143814200Y-45506408D01*
X143532118Y-45389565D01*
X143232662Y-45330000D01*
X142927338Y-45330000D01*
X142627882Y-45389565D01*
X142345800Y-45506408D01*
X142091932Y-45676036D01*
X141876036Y-45891932D01*
X141810000Y-45990763D01*
X141743964Y-45891932D01*
X141528068Y-45676036D01*
X141274200Y-45506408D01*
X140992118Y-45389565D01*
X140692662Y-45330000D01*
X140387338Y-45330000D01*
X140087882Y-45389565D01*
X139805800Y-45506408D01*
X139551932Y-45676036D01*
X139336036Y-45891932D01*
X139270000Y-45990763D01*
X139203964Y-45891932D01*
X138988068Y-45676036D01*
X138734200Y-45506408D01*
X138452118Y-45389565D01*
X138152662Y-45330000D01*
X137847338Y-45330000D01*
X137547882Y-45389565D01*
X137265800Y-45506408D01*
X137011932Y-45676036D01*
X136796036Y-45891932D01*
X136626408Y-46145800D01*
X136509565Y-46427882D01*
X136450000Y-46727338D01*
X136026131Y-46727338D01*
X135990435Y-46547882D01*
X135873592Y-46265800D01*
X135703964Y-46011932D01*
X135488068Y-45796036D01*
X135234200Y-45626408D01*
X134952118Y-45509565D01*
X134652662Y-45450000D01*
X134347338Y-45450000D01*
X134047882Y-45509565D01*
X133765800Y-45626408D01*
X133511932Y-45796036D01*
X133296036Y-46011932D01*
X133126408Y-46265800D01*
X133009565Y-46547882D01*
X132950000Y-46847338D01*
X131046810Y-46847338D01*
X131045935Y-46810546D01*
X130979270Y-46512589D01*
X130890653Y-46298649D01*
X130629247Y-46224306D01*
X129853553Y-47000000D01*
X129146447Y-47000000D01*
X128370753Y-46224306D01*
X128109347Y-46298649D01*
X127999242Y-46583429D01*
X127946810Y-46884216D01*
X124775000Y-46884216D01*
X124775000Y-45870753D01*
X128724306Y-45870753D01*
X129500000Y-46646447D01*
X130275694Y-45870753D01*
X130201351Y-45609347D01*
X129916571Y-45499242D01*
X129615784Y-45446810D01*
X129310546Y-45454065D01*
X129012589Y-45520730D01*
X128798649Y-45609347D01*
X128724306Y-45870753D01*
X124775000Y-45870753D01*
X124775000Y-40750000D01*
X131000000Y-40750000D01*
X131048773Y-40745196D01*
X131095671Y-40730970D01*
X131138893Y-40707867D01*
X131176777Y-40676777D01*
X131207867Y-40638893D01*
X131230970Y-40595671D01*
X131245196Y-40548773D01*
X131250000Y-40500000D01*
X131250000Y-37275000D01*
X134396372Y-37275000D01*
X134396372Y-38725000D01*
X134415656Y-38920798D01*
X134472769Y-39109072D01*
X134565514Y-39282586D01*
X134690328Y-39434672D01*
X134842414Y-39559486D01*
X135015928Y-39652231D01*
X135204202Y-39709344D01*
X135400000Y-39728628D01*
X136600000Y-39728628D01*
X136795798Y-39709344D01*
X136984072Y-39652231D01*
X137157586Y-39559486D01*
X137309672Y-39434672D01*
X137415950Y-39305172D01*
X137606788Y-39461788D01*
X137884745Y-39610359D01*
X138186346Y-39701849D01*
X138500000Y-39732741D01*
X138813655Y-39701849D01*
X139115256Y-39610359D01*
X139393213Y-39461788D01*
X139636845Y-39261845D01*
X139750000Y-39123965D01*
X139863155Y-39261845D01*
X140106788Y-39461788D01*
X140384745Y-39610359D01*
X140686346Y-39701849D01*
X141000000Y-39732741D01*
X141313655Y-39701849D01*
X141615256Y-39610359D01*
X141893213Y-39461788D01*
X142136845Y-39261845D01*
X142256760Y-39115728D01*
X142417124Y-39296226D01*
X142666426Y-39484980D01*
X142947762Y-39621471D01*
X143005857Y-39646783D01*
X143250000Y-39515200D01*
X143250000Y-38250000D01*
X143750000Y-38250000D01*
X143750000Y-39515200D01*
X143994143Y-39646783D01*
X144052238Y-39621471D01*
X144333574Y-39484980D01*
X144582876Y-39296226D01*
X144790564Y-39062463D01*
X144948656Y-38792673D01*
X145051077Y-38497225D01*
X144902709Y-38250000D01*
X143750000Y-38250000D01*
X143250000Y-38250000D01*
X143230000Y-38250000D01*
X143230000Y-37750000D01*
X143250000Y-37750000D01*
X143250000Y-36484800D01*
X143750000Y-36484800D01*
X143750000Y-37750000D01*
X144902709Y-37750000D01*
X145051077Y-37502775D01*
X144972116Y-37275000D01*
X148396372Y-37275000D01*
X148396372Y-38725000D01*
X148415656Y-38920798D01*
X148472769Y-39109072D01*
X148565514Y-39282586D01*
X148690328Y-39434672D01*
X148842414Y-39559486D01*
X149015928Y-39652231D01*
X149204202Y-39709344D01*
X149400000Y-39728628D01*
X150600000Y-39728628D01*
X150795798Y-39709344D01*
X150984072Y-39652231D01*
X151157586Y-39559486D01*
X151309672Y-39434672D01*
X151415950Y-39305172D01*
X151606788Y-39461788D01*
X151884745Y-39610359D01*
X152186346Y-39701849D01*
X152500000Y-39732741D01*
X152813655Y-39701849D01*
X153115256Y-39610359D01*
X153393213Y-39461788D01*
X153636845Y-39261845D01*
X153750000Y-39123965D01*
X153863155Y-39261845D01*
X154106788Y-39461788D01*
X154384745Y-39610359D01*
X154686346Y-39701849D01*
X155000000Y-39732741D01*
X155313655Y-39701849D01*
X155615256Y-39610359D01*
X155893213Y-39461788D01*
X156136845Y-39261845D01*
X156256760Y-39115728D01*
X156417124Y-39296226D01*
X156666426Y-39484980D01*
X156947762Y-39621471D01*
X157005857Y-39646783D01*
X157250000Y-39515200D01*
X157250000Y-38250000D01*
X157750000Y-38250000D01*
X157750000Y-39515200D01*
X157994143Y-39646783D01*
X158052238Y-39621471D01*
X158333574Y-39484980D01*
X158582876Y-39296226D01*
X158790564Y-39062463D01*
X158948656Y-38792673D01*
X159051077Y-38497225D01*
X158902709Y-38250000D01*
X157750000Y-38250000D01*
X157250000Y-38250000D01*
X157230000Y-38250000D01*
X157230000Y-37750000D01*
X157250000Y-37750000D01*
X157250000Y-36484800D01*
X157750000Y-36484800D01*
X157750000Y-37750000D01*
X158902709Y-37750000D01*
X159051077Y-37502775D01*
X158948656Y-37207327D01*
X158790564Y-36937537D01*
X158582876Y-36703774D01*
X158333574Y-36515020D01*
X158052238Y-36378529D01*
X157994143Y-36353217D01*
X157750000Y-36484800D01*
X157250000Y-36484800D01*
X157005857Y-36353217D01*
X156947762Y-36378529D01*
X156666426Y-36515020D01*
X156417124Y-36703774D01*
X156256760Y-36884272D01*
X156136845Y-36738155D01*
X155893212Y-36538212D01*
X155615255Y-36389641D01*
X155313654Y-36298151D01*
X155000000Y-36267259D01*
X154686345Y-36298151D01*
X154384744Y-36389641D01*
X154106787Y-36538212D01*
X153863155Y-36738155D01*
X153750000Y-36876035D01*
X153636845Y-36738155D01*
X153393212Y-36538212D01*
X153115255Y-36389641D01*
X152813654Y-36298151D01*
X152500000Y-36267259D01*
X152186345Y-36298151D01*
X151884744Y-36389641D01*
X151606787Y-36538212D01*
X151415950Y-36694828D01*
X151309672Y-36565328D01*
X151157586Y-36440514D01*
X150984072Y-36347769D01*
X150795798Y-36290656D01*
X150600000Y-36271372D01*
X149400000Y-36271372D01*
X149204202Y-36290656D01*
X149015928Y-36347769D01*
X148842414Y-36440514D01*
X148690328Y-36565328D01*
X148565514Y-36717414D01*
X148472769Y-36890928D01*
X148415656Y-37079202D01*
X148396372Y-37275000D01*
X144972116Y-37275000D01*
X144948656Y-37207327D01*
X144790564Y-36937537D01*
X144582876Y-36703774D01*
X144333574Y-36515020D01*
X144052238Y-36378529D01*
X143994143Y-36353217D01*
X143750000Y-36484800D01*
X143250000Y-36484800D01*
X143005857Y-36353217D01*
X142947762Y-36378529D01*
X142666426Y-36515020D01*
X142417124Y-36703774D01*
X142256760Y-36884272D01*
X142136845Y-36738155D01*
X141893212Y-36538212D01*
X141615255Y-36389641D01*
X141313654Y-36298151D01*
X141000000Y-36267259D01*
X140686345Y-36298151D01*
X140384744Y-36389641D01*
X140106787Y-36538212D01*
X139863155Y-36738155D01*
X139750000Y-36876035D01*
X139636845Y-36738155D01*
X139393212Y-36538212D01*
X139115255Y-36389641D01*
X138813654Y-36298151D01*
X138500000Y-36267259D01*
X138186345Y-36298151D01*
X137884744Y-36389641D01*
X137606787Y-36538212D01*
X137415950Y-36694828D01*
X137309672Y-36565328D01*
X137157586Y-36440514D01*
X136984072Y-36347769D01*
X136795798Y-36290656D01*
X136600000Y-36271372D01*
X135400000Y-36271372D01*
X135204202Y-36290656D01*
X135015928Y-36347769D01*
X134842414Y-36440514D01*
X134690328Y-36565328D01*
X134565514Y-36717414D01*
X134472769Y-36890928D01*
X134415656Y-37079202D01*
X134396372Y-37275000D01*
X131250000Y-37275000D01*
X131250000Y-34275000D01*
X162250000Y-34275000D01*
X162250000Y-40500000D01*
G37*
G04 #@! TD.AperFunction*
M02*
