M48
; DRILL file {KiCad (5.1.7)-1} date 12/10/20 17:03:25
; FORMAT={-:-/ absolute / metric / decimal}
; #@! TF.CreationDate,2020-12-10T17:03:25+02:00
; #@! TF.GenerationSoftware,Kicad,Pcbnew,(5.1.7)-1
; #@! TF.FileFunction,Plated,1,2,PTH
FMAT,2
METRIC
T1C0.800
T2C0.800
T3C0.920
T4C0.950
T5C1.000
T6C1.040
T7C1.350
T8C1.501
%
G90
G05
T1
X204.0Y-92.0
X207.8Y-92.0
X192.0Y-92.0
X197.0Y-92.0
X198.0Y-63.2
X198.0Y-67.0
X186.0Y-130.5
X191.0Y-130.5
T2
X192.0Y-72.5
X192.0Y-77.5
X192.0Y-100.5
X192.0Y-105.5
T3
X192.0Y-118.5
X194.0Y-118.5
X196.0Y-118.5
X198.0Y-118.5
T4
X201.0Y-71.5
X201.0Y-74.9
X201.0Y-78.3
X205.2Y-73.2
X205.2Y-76.6
X201.0Y-99.5
X201.0Y-102.9
X201.0Y-106.3
X205.2Y-101.2
X205.2Y-104.6
T5
X140.5Y-92.0
X140.5Y-94.5
X140.5Y-97.0
X140.5Y-99.5
X169.5Y-123.0
X169.5Y-125.5
X169.5Y-128.0
X169.5Y-130.5
X178.5Y-123.0
X178.5Y-125.5
X178.5Y-128.0
X178.5Y-130.5
X197.5Y-141.0
X200.0Y-141.0
X146.5Y-141.0
X149.0Y-141.0
X151.5Y-141.0
X154.0Y-141.0
X140.5Y-107.5
X140.5Y-110.0
X140.5Y-112.5
X140.5Y-115.0
X150.5Y-107.5
X150.5Y-110.0
X150.5Y-112.5
X150.5Y-115.0
X174.5Y-141.0
X177.0Y-141.0
X179.5Y-141.0
X182.0Y-141.0
X140.5Y-76.5
X140.5Y-79.0
X140.5Y-81.5
X140.5Y-84.0
X150.5Y-92.0
X150.5Y-94.5
X150.5Y-97.0
X150.5Y-99.5
X188.5Y-141.0
X191.0Y-141.0
X150.5Y-76.5
X150.5Y-79.0
X150.5Y-81.5
X150.5Y-84.0
X160.5Y-141.0
X163.0Y-141.0
X165.5Y-141.0
X168.0Y-141.0
X150.5Y-123.0
X150.5Y-125.5
X150.5Y-128.0
X150.5Y-130.5
X160.5Y-123.0
X160.5Y-125.5
X160.5Y-128.0
X160.5Y-130.5
X140.5Y-123.0
X140.5Y-125.5
X140.5Y-128.0
X140.5Y-130.5
T6
X158.1Y-63.28
X158.1Y-65.82
X158.1Y-68.36
X158.1Y-70.9
X158.1Y-73.44
X158.1Y-75.98
X158.1Y-78.52
X158.1Y-81.06
X158.1Y-83.6
X158.1Y-86.14
X158.1Y-88.68
X158.1Y-91.22
X158.1Y-93.76
X158.1Y-96.3
X158.1Y-98.84
X158.1Y-101.38
X158.1Y-103.92
X158.1Y-106.46
X158.1Y-109.0
X183.5Y-63.28
X183.5Y-65.82
X183.5Y-68.36
X183.5Y-70.9
X183.5Y-73.44
X183.5Y-75.98
X183.5Y-78.52
X183.5Y-81.06
X183.5Y-83.6
X183.5Y-86.14
X183.5Y-88.68
X183.5Y-91.22
X183.5Y-93.76
X183.5Y-96.3
X183.5Y-98.84
X183.5Y-101.38
X183.5Y-103.92
X183.5Y-106.46
X183.5Y-109.0
T7
X191.73Y-115.78
X191.73Y-121.22
X198.73Y-115.78
X198.73Y-121.22
T8
X191.759Y-111.003
X206.999Y-111.003
X191.76Y-83.0
X207.0Y-83.0
T5
G00X197.0Y-132.5
M15
G01X197.0Y-130.5
M16
G05
G00X201.0Y-126.8
M15
G01X199.0Y-126.8
M16
G05
G00X203.0Y-132.5
M15
G01X203.0Y-130.5
M16
G05
T0
M30
