G04 #@! TF.GenerationSoftware,KiCad,Pcbnew,(5.1.10)-1*
G04 #@! TF.CreationDate,2021-10-09T13:30:43+01:00*
G04 #@! TF.ProjectId,8_switch_array,385f7377-6974-4636-985f-61727261792e,rev?*
G04 #@! TF.SameCoordinates,Original*
G04 #@! TF.FileFunction,Legend,Top*
G04 #@! TF.FilePolarity,Positive*
%FSLAX46Y46*%
G04 Gerber Fmt 4.6, Leading zero omitted, Abs format (unit mm)*
G04 Created by KiCad (PCBNEW (5.1.10)-1) date 2021-10-09 13:30:43*
%MOMM*%
%LPD*%
G01*
G04 APERTURE LIST*
%ADD10C,0.250000*%
%ADD11C,0.150000*%
%ADD12C,0.120000*%
%ADD13C,0.010000*%
G04 APERTURE END LIST*
D10*
X131571428Y-45285714D02*
X131809523Y-45952380D01*
X132047619Y-45285714D01*
X132619047Y-44952380D02*
X132714285Y-44952380D01*
X132809523Y-45000000D01*
X132857142Y-45047619D01*
X132904761Y-45142857D01*
X132952380Y-45333333D01*
X132952380Y-45571428D01*
X132904761Y-45761904D01*
X132857142Y-45857142D01*
X132809523Y-45904761D01*
X132714285Y-45952380D01*
X132619047Y-45952380D01*
X132523809Y-45904761D01*
X132476190Y-45857142D01*
X132428571Y-45761904D01*
X132380952Y-45571428D01*
X132380952Y-45333333D01*
X132428571Y-45142857D01*
X132476190Y-45047619D01*
X132523809Y-45000000D01*
X132619047Y-44952380D01*
X133380952Y-45857142D02*
X133428571Y-45904761D01*
X133380952Y-45952380D01*
X133333333Y-45904761D01*
X133380952Y-45857142D01*
X133380952Y-45952380D01*
X133809523Y-45047619D02*
X133857142Y-45000000D01*
X133952380Y-44952380D01*
X134190476Y-44952380D01*
X134285714Y-45000000D01*
X134333333Y-45047619D01*
X134380952Y-45142857D01*
X134380952Y-45238095D01*
X134333333Y-45380952D01*
X133761904Y-45952380D01*
X134380952Y-45952380D01*
D11*
X152642857Y-73452380D02*
X152642857Y-72452380D01*
X153023809Y-72452380D01*
X153119047Y-72500000D01*
X153166666Y-72547619D01*
X153214285Y-72642857D01*
X153214285Y-72785714D01*
X153166666Y-72880952D01*
X153119047Y-72928571D01*
X153023809Y-72976190D01*
X152642857Y-72976190D01*
X153833333Y-72452380D02*
X154023809Y-72452380D01*
X154119047Y-72500000D01*
X154214285Y-72595238D01*
X154261904Y-72785714D01*
X154261904Y-73119047D01*
X154214285Y-73309523D01*
X154119047Y-73404761D01*
X154023809Y-73452380D01*
X153833333Y-73452380D01*
X153738095Y-73404761D01*
X153642857Y-73309523D01*
X153595238Y-73119047D01*
X153595238Y-72785714D01*
X153642857Y-72595238D01*
X153738095Y-72500000D01*
X153833333Y-72452380D01*
X154595238Y-72452380D02*
X154833333Y-73452380D01*
X155023809Y-72738095D01*
X155214285Y-73452380D01*
X155452380Y-72452380D01*
X148738095Y-72500000D02*
X148642857Y-72452380D01*
X148500000Y-72452380D01*
X148357142Y-72500000D01*
X148261904Y-72595238D01*
X148214285Y-72690476D01*
X148166666Y-72880952D01*
X148166666Y-73023809D01*
X148214285Y-73214285D01*
X148261904Y-73309523D01*
X148357142Y-73404761D01*
X148500000Y-73452380D01*
X148595238Y-73452380D01*
X148738095Y-73404761D01*
X148785714Y-73357142D01*
X148785714Y-73023809D01*
X148595238Y-73023809D01*
X149214285Y-73452380D02*
X149214285Y-72452380D01*
X149785714Y-73452380D01*
X149785714Y-72452380D01*
X150261904Y-73452380D02*
X150261904Y-72452380D01*
X150500000Y-72452380D01*
X150642857Y-72500000D01*
X150738095Y-72595238D01*
X150785714Y-72690476D01*
X150833333Y-72880952D01*
X150833333Y-73023809D01*
X150785714Y-73214285D01*
X150738095Y-73309523D01*
X150642857Y-73404761D01*
X150500000Y-73452380D01*
X150261904Y-73452380D01*
D12*
X157000000Y-80500000D02*
X157000000Y-79500000D01*
X157000000Y-76500000D02*
X157000000Y-75500000D01*
X157000000Y-78500000D02*
X157000000Y-77500000D01*
X157000000Y-74500000D02*
X157000000Y-73500000D01*
X154000000Y-73500000D02*
X153000000Y-73500000D01*
X156000000Y-73500000D02*
X155000000Y-73500000D01*
X152000000Y-73500000D02*
X151000000Y-73500000D01*
X148000000Y-73500000D02*
X147000000Y-73500000D01*
X150000000Y-73500000D02*
X149000000Y-73500000D01*
D11*
X167238095Y-70904761D02*
X167380952Y-70952380D01*
X167619047Y-70952380D01*
X167714285Y-70904761D01*
X167761904Y-70857142D01*
X167809523Y-70761904D01*
X167809523Y-70666666D01*
X167761904Y-70571428D01*
X167714285Y-70523809D01*
X167619047Y-70476190D01*
X167428571Y-70428571D01*
X167333333Y-70380952D01*
X167285714Y-70333333D01*
X167238095Y-70238095D01*
X167238095Y-70142857D01*
X167285714Y-70047619D01*
X167333333Y-70000000D01*
X167428571Y-69952380D01*
X167666666Y-69952380D01*
X167809523Y-70000000D01*
X168142857Y-69952380D02*
X168809523Y-69952380D01*
X168380952Y-70952380D01*
X156238095Y-70904761D02*
X156380952Y-70952380D01*
X156619047Y-70952380D01*
X156714285Y-70904761D01*
X156761904Y-70857142D01*
X156809523Y-70761904D01*
X156809523Y-70666666D01*
X156761904Y-70571428D01*
X156714285Y-70523809D01*
X156619047Y-70476190D01*
X156428571Y-70428571D01*
X156333333Y-70380952D01*
X156285714Y-70333333D01*
X156238095Y-70238095D01*
X156238095Y-70142857D01*
X156285714Y-70047619D01*
X156333333Y-70000000D01*
X156428571Y-69952380D01*
X156666666Y-69952380D01*
X156809523Y-70000000D01*
X157666666Y-69952380D02*
X157476190Y-69952380D01*
X157380952Y-70000000D01*
X157333333Y-70047619D01*
X157238095Y-70190476D01*
X157190476Y-70380952D01*
X157190476Y-70761904D01*
X157238095Y-70857142D01*
X157285714Y-70904761D01*
X157380952Y-70952380D01*
X157571428Y-70952380D01*
X157666666Y-70904761D01*
X157714285Y-70857142D01*
X157761904Y-70761904D01*
X157761904Y-70523809D01*
X157714285Y-70428571D01*
X157666666Y-70380952D01*
X157571428Y-70333333D01*
X157380952Y-70333333D01*
X157285714Y-70380952D01*
X157238095Y-70428571D01*
X157190476Y-70523809D01*
X145238095Y-70904761D02*
X145380952Y-70952380D01*
X145619047Y-70952380D01*
X145714285Y-70904761D01*
X145761904Y-70857142D01*
X145809523Y-70761904D01*
X145809523Y-70666666D01*
X145761904Y-70571428D01*
X145714285Y-70523809D01*
X145619047Y-70476190D01*
X145428571Y-70428571D01*
X145333333Y-70380952D01*
X145285714Y-70333333D01*
X145238095Y-70238095D01*
X145238095Y-70142857D01*
X145285714Y-70047619D01*
X145333333Y-70000000D01*
X145428571Y-69952380D01*
X145666666Y-69952380D01*
X145809523Y-70000000D01*
X146714285Y-69952380D02*
X146238095Y-69952380D01*
X146190476Y-70428571D01*
X146238095Y-70380952D01*
X146333333Y-70333333D01*
X146571428Y-70333333D01*
X146666666Y-70380952D01*
X146714285Y-70428571D01*
X146761904Y-70523809D01*
X146761904Y-70761904D01*
X146714285Y-70857142D01*
X146666666Y-70904761D01*
X146571428Y-70952380D01*
X146333333Y-70952380D01*
X146238095Y-70904761D01*
X146190476Y-70857142D01*
X134238095Y-70904761D02*
X134380952Y-70952380D01*
X134619047Y-70952380D01*
X134714285Y-70904761D01*
X134761904Y-70857142D01*
X134809523Y-70761904D01*
X134809523Y-70666666D01*
X134761904Y-70571428D01*
X134714285Y-70523809D01*
X134619047Y-70476190D01*
X134428571Y-70428571D01*
X134333333Y-70380952D01*
X134285714Y-70333333D01*
X134238095Y-70238095D01*
X134238095Y-70142857D01*
X134285714Y-70047619D01*
X134333333Y-70000000D01*
X134428571Y-69952380D01*
X134666666Y-69952380D01*
X134809523Y-70000000D01*
X135666666Y-70285714D02*
X135666666Y-70952380D01*
X135428571Y-69904761D02*
X135190476Y-70619047D01*
X135809523Y-70619047D01*
X163142857Y-64452380D02*
X163142857Y-63452380D01*
X163523809Y-63452380D01*
X163619047Y-63500000D01*
X163666666Y-63547619D01*
X163714285Y-63642857D01*
X163714285Y-63785714D01*
X163666666Y-63880952D01*
X163619047Y-63928571D01*
X163523809Y-63976190D01*
X163142857Y-63976190D01*
X164333333Y-63452380D02*
X164523809Y-63452380D01*
X164619047Y-63500000D01*
X164714285Y-63595238D01*
X164761904Y-63785714D01*
X164761904Y-64119047D01*
X164714285Y-64309523D01*
X164619047Y-64404761D01*
X164523809Y-64452380D01*
X164333333Y-64452380D01*
X164238095Y-64404761D01*
X164142857Y-64309523D01*
X164095238Y-64119047D01*
X164095238Y-63785714D01*
X164142857Y-63595238D01*
X164238095Y-63500000D01*
X164333333Y-63452380D01*
X165095238Y-63452380D02*
X165333333Y-64452380D01*
X165523809Y-63738095D01*
X165714285Y-64452380D01*
X165952380Y-63452380D01*
X152142857Y-64452380D02*
X152142857Y-63452380D01*
X152523809Y-63452380D01*
X152619047Y-63500000D01*
X152666666Y-63547619D01*
X152714285Y-63642857D01*
X152714285Y-63785714D01*
X152666666Y-63880952D01*
X152619047Y-63928571D01*
X152523809Y-63976190D01*
X152142857Y-63976190D01*
X153333333Y-63452380D02*
X153523809Y-63452380D01*
X153619047Y-63500000D01*
X153714285Y-63595238D01*
X153761904Y-63785714D01*
X153761904Y-64119047D01*
X153714285Y-64309523D01*
X153619047Y-64404761D01*
X153523809Y-64452380D01*
X153333333Y-64452380D01*
X153238095Y-64404761D01*
X153142857Y-64309523D01*
X153095238Y-64119047D01*
X153095238Y-63785714D01*
X153142857Y-63595238D01*
X153238095Y-63500000D01*
X153333333Y-63452380D01*
X154095238Y-63452380D02*
X154333333Y-64452380D01*
X154523809Y-63738095D01*
X154714285Y-64452380D01*
X154952380Y-63452380D01*
X141142857Y-64452380D02*
X141142857Y-63452380D01*
X141523809Y-63452380D01*
X141619047Y-63500000D01*
X141666666Y-63547619D01*
X141714285Y-63642857D01*
X141714285Y-63785714D01*
X141666666Y-63880952D01*
X141619047Y-63928571D01*
X141523809Y-63976190D01*
X141142857Y-63976190D01*
X142333333Y-63452380D02*
X142523809Y-63452380D01*
X142619047Y-63500000D01*
X142714285Y-63595238D01*
X142761904Y-63785714D01*
X142761904Y-64119047D01*
X142714285Y-64309523D01*
X142619047Y-64404761D01*
X142523809Y-64452380D01*
X142333333Y-64452380D01*
X142238095Y-64404761D01*
X142142857Y-64309523D01*
X142095238Y-64119047D01*
X142095238Y-63785714D01*
X142142857Y-63595238D01*
X142238095Y-63500000D01*
X142333333Y-63452380D01*
X143095238Y-63452380D02*
X143333333Y-64452380D01*
X143523809Y-63738095D01*
X143714285Y-64452380D01*
X143952380Y-63452380D01*
X130142857Y-64452380D02*
X130142857Y-63452380D01*
X130523809Y-63452380D01*
X130619047Y-63500000D01*
X130666666Y-63547619D01*
X130714285Y-63642857D01*
X130714285Y-63785714D01*
X130666666Y-63880952D01*
X130619047Y-63928571D01*
X130523809Y-63976190D01*
X130142857Y-63976190D01*
X131333333Y-63452380D02*
X131523809Y-63452380D01*
X131619047Y-63500000D01*
X131714285Y-63595238D01*
X131761904Y-63785714D01*
X131761904Y-64119047D01*
X131714285Y-64309523D01*
X131619047Y-64404761D01*
X131523809Y-64452380D01*
X131333333Y-64452380D01*
X131238095Y-64404761D01*
X131142857Y-64309523D01*
X131095238Y-64119047D01*
X131095238Y-63785714D01*
X131142857Y-63595238D01*
X131238095Y-63500000D01*
X131333333Y-63452380D01*
X132095238Y-63452380D02*
X132333333Y-64452380D01*
X132523809Y-63738095D01*
X132714285Y-64452380D01*
X132952380Y-63452380D01*
X126892857Y-63452380D02*
X127035714Y-63452380D01*
X127107142Y-63500000D01*
X127178571Y-63595238D01*
X127214285Y-63785714D01*
X127214285Y-64119047D01*
X127178571Y-64309523D01*
X127107142Y-64404761D01*
X127035714Y-64452380D01*
X126892857Y-64452380D01*
X126821428Y-64404761D01*
X126750000Y-64309523D01*
X126714285Y-64119047D01*
X126714285Y-63785714D01*
X126750000Y-63595238D01*
X126821428Y-63500000D01*
X126892857Y-63452380D01*
X127535714Y-63452380D02*
X127535714Y-64261904D01*
X127571428Y-64357142D01*
X127607142Y-64404761D01*
X127678571Y-64452380D01*
X127821428Y-64452380D01*
X127892857Y-64404761D01*
X127928571Y-64357142D01*
X127964285Y-64261904D01*
X127964285Y-63452380D01*
X128214285Y-63452380D02*
X128642857Y-63452380D01*
X128428571Y-64452380D02*
X128428571Y-63452380D01*
X129214285Y-63785714D02*
X129214285Y-64452380D01*
X129035714Y-63404761D02*
X128857142Y-64119047D01*
X129321428Y-64119047D01*
X137892857Y-63452380D02*
X138035714Y-63452380D01*
X138107142Y-63500000D01*
X138178571Y-63595238D01*
X138214285Y-63785714D01*
X138214285Y-64119047D01*
X138178571Y-64309523D01*
X138107142Y-64404761D01*
X138035714Y-64452380D01*
X137892857Y-64452380D01*
X137821428Y-64404761D01*
X137750000Y-64309523D01*
X137714285Y-64119047D01*
X137714285Y-63785714D01*
X137750000Y-63595238D01*
X137821428Y-63500000D01*
X137892857Y-63452380D01*
X138535714Y-63452380D02*
X138535714Y-64261904D01*
X138571428Y-64357142D01*
X138607142Y-64404761D01*
X138678571Y-64452380D01*
X138821428Y-64452380D01*
X138892857Y-64404761D01*
X138928571Y-64357142D01*
X138964285Y-64261904D01*
X138964285Y-63452380D01*
X139214285Y-63452380D02*
X139642857Y-63452380D01*
X139428571Y-64452380D02*
X139428571Y-63452380D01*
X140250000Y-63452380D02*
X139892857Y-63452380D01*
X139857142Y-63928571D01*
X139892857Y-63880952D01*
X139964285Y-63833333D01*
X140142857Y-63833333D01*
X140214285Y-63880952D01*
X140250000Y-63928571D01*
X140285714Y-64023809D01*
X140285714Y-64261904D01*
X140250000Y-64357142D01*
X140214285Y-64404761D01*
X140142857Y-64452380D01*
X139964285Y-64452380D01*
X139892857Y-64404761D01*
X139857142Y-64357142D01*
X148892857Y-63452380D02*
X149035714Y-63452380D01*
X149107142Y-63500000D01*
X149178571Y-63595238D01*
X149214285Y-63785714D01*
X149214285Y-64119047D01*
X149178571Y-64309523D01*
X149107142Y-64404761D01*
X149035714Y-64452380D01*
X148892857Y-64452380D01*
X148821428Y-64404761D01*
X148750000Y-64309523D01*
X148714285Y-64119047D01*
X148714285Y-63785714D01*
X148750000Y-63595238D01*
X148821428Y-63500000D01*
X148892857Y-63452380D01*
X149535714Y-63452380D02*
X149535714Y-64261904D01*
X149571428Y-64357142D01*
X149607142Y-64404761D01*
X149678571Y-64452380D01*
X149821428Y-64452380D01*
X149892857Y-64404761D01*
X149928571Y-64357142D01*
X149964285Y-64261904D01*
X149964285Y-63452380D01*
X150214285Y-63452380D02*
X150642857Y-63452380D01*
X150428571Y-64452380D02*
X150428571Y-63452380D01*
X151214285Y-63452380D02*
X151071428Y-63452380D01*
X151000000Y-63500000D01*
X150964285Y-63547619D01*
X150892857Y-63690476D01*
X150857142Y-63880952D01*
X150857142Y-64261904D01*
X150892857Y-64357142D01*
X150928571Y-64404761D01*
X151000000Y-64452380D01*
X151142857Y-64452380D01*
X151214285Y-64404761D01*
X151250000Y-64357142D01*
X151285714Y-64261904D01*
X151285714Y-64023809D01*
X151250000Y-63928571D01*
X151214285Y-63880952D01*
X151142857Y-63833333D01*
X151000000Y-63833333D01*
X150928571Y-63880952D01*
X150892857Y-63928571D01*
X150857142Y-64023809D01*
X159892857Y-63452380D02*
X160035714Y-63452380D01*
X160107142Y-63500000D01*
X160178571Y-63595238D01*
X160214285Y-63785714D01*
X160214285Y-64119047D01*
X160178571Y-64309523D01*
X160107142Y-64404761D01*
X160035714Y-64452380D01*
X159892857Y-64452380D01*
X159821428Y-64404761D01*
X159750000Y-64309523D01*
X159714285Y-64119047D01*
X159714285Y-63785714D01*
X159750000Y-63595238D01*
X159821428Y-63500000D01*
X159892857Y-63452380D01*
X160535714Y-63452380D02*
X160535714Y-64261904D01*
X160571428Y-64357142D01*
X160607142Y-64404761D01*
X160678571Y-64452380D01*
X160821428Y-64452380D01*
X160892857Y-64404761D01*
X160928571Y-64357142D01*
X160964285Y-64261904D01*
X160964285Y-63452380D01*
X161214285Y-63452380D02*
X161642857Y-63452380D01*
X161428571Y-64452380D02*
X161428571Y-63452380D01*
X161821428Y-63452380D02*
X162321428Y-63452380D01*
X162000000Y-64452380D01*
X134238095Y-62904761D02*
X134380952Y-62952380D01*
X134619047Y-62952380D01*
X134714285Y-62904761D01*
X134761904Y-62857142D01*
X134809523Y-62761904D01*
X134809523Y-62666666D01*
X134761904Y-62571428D01*
X134714285Y-62523809D01*
X134619047Y-62476190D01*
X134428571Y-62428571D01*
X134333333Y-62380952D01*
X134285714Y-62333333D01*
X134238095Y-62238095D01*
X134238095Y-62142857D01*
X134285714Y-62047619D01*
X134333333Y-62000000D01*
X134428571Y-61952380D01*
X134666666Y-61952380D01*
X134809523Y-62000000D01*
X135428571Y-61952380D02*
X135523809Y-61952380D01*
X135619047Y-62000000D01*
X135666666Y-62047619D01*
X135714285Y-62142857D01*
X135761904Y-62333333D01*
X135761904Y-62571428D01*
X135714285Y-62761904D01*
X135666666Y-62857142D01*
X135619047Y-62904761D01*
X135523809Y-62952380D01*
X135428571Y-62952380D01*
X135333333Y-62904761D01*
X135285714Y-62857142D01*
X135238095Y-62761904D01*
X135190476Y-62571428D01*
X135190476Y-62333333D01*
X135238095Y-62142857D01*
X135285714Y-62047619D01*
X135333333Y-62000000D01*
X135428571Y-61952380D01*
X145238095Y-62904761D02*
X145380952Y-62952380D01*
X145619047Y-62952380D01*
X145714285Y-62904761D01*
X145761904Y-62857142D01*
X145809523Y-62761904D01*
X145809523Y-62666666D01*
X145761904Y-62571428D01*
X145714285Y-62523809D01*
X145619047Y-62476190D01*
X145428571Y-62428571D01*
X145333333Y-62380952D01*
X145285714Y-62333333D01*
X145238095Y-62238095D01*
X145238095Y-62142857D01*
X145285714Y-62047619D01*
X145333333Y-62000000D01*
X145428571Y-61952380D01*
X145666666Y-61952380D01*
X145809523Y-62000000D01*
X146761904Y-62952380D02*
X146190476Y-62952380D01*
X146476190Y-62952380D02*
X146476190Y-61952380D01*
X146380952Y-62095238D01*
X146285714Y-62190476D01*
X146190476Y-62238095D01*
X156238095Y-62904761D02*
X156380952Y-62952380D01*
X156619047Y-62952380D01*
X156714285Y-62904761D01*
X156761904Y-62857142D01*
X156809523Y-62761904D01*
X156809523Y-62666666D01*
X156761904Y-62571428D01*
X156714285Y-62523809D01*
X156619047Y-62476190D01*
X156428571Y-62428571D01*
X156333333Y-62380952D01*
X156285714Y-62333333D01*
X156238095Y-62238095D01*
X156238095Y-62142857D01*
X156285714Y-62047619D01*
X156333333Y-62000000D01*
X156428571Y-61952380D01*
X156666666Y-61952380D01*
X156809523Y-62000000D01*
X157190476Y-62047619D02*
X157238095Y-62000000D01*
X157333333Y-61952380D01*
X157571428Y-61952380D01*
X157666666Y-62000000D01*
X157714285Y-62047619D01*
X157761904Y-62142857D01*
X157761904Y-62238095D01*
X157714285Y-62380952D01*
X157142857Y-62952380D01*
X157761904Y-62952380D01*
X167238095Y-62904761D02*
X167380952Y-62952380D01*
X167619047Y-62952380D01*
X167714285Y-62904761D01*
X167761904Y-62857142D01*
X167809523Y-62761904D01*
X167809523Y-62666666D01*
X167761904Y-62571428D01*
X167714285Y-62523809D01*
X167619047Y-62476190D01*
X167428571Y-62428571D01*
X167333333Y-62380952D01*
X167285714Y-62333333D01*
X167238095Y-62238095D01*
X167238095Y-62142857D01*
X167285714Y-62047619D01*
X167333333Y-62000000D01*
X167428571Y-61952380D01*
X167666666Y-61952380D01*
X167809523Y-62000000D01*
X168142857Y-61952380D02*
X168761904Y-61952380D01*
X168428571Y-62333333D01*
X168571428Y-62333333D01*
X168666666Y-62380952D01*
X168714285Y-62428571D01*
X168761904Y-62523809D01*
X168761904Y-62761904D01*
X168714285Y-62857142D01*
X168666666Y-62904761D01*
X168571428Y-62952380D01*
X168285714Y-62952380D01*
X168190476Y-62904761D01*
X168142857Y-62857142D01*
X138952380Y-44595238D02*
X138476190Y-44928571D01*
X138952380Y-45166666D02*
X137952380Y-45166666D01*
X137952380Y-44785714D01*
X138000000Y-44690476D01*
X138047619Y-44642857D01*
X138142857Y-44595238D01*
X138285714Y-44595238D01*
X138380952Y-44642857D01*
X138428571Y-44690476D01*
X138476190Y-44785714D01*
X138476190Y-45166666D01*
X138857142Y-43595238D02*
X138904761Y-43642857D01*
X138952380Y-43785714D01*
X138952380Y-43880952D01*
X138904761Y-44023809D01*
X138809523Y-44119047D01*
X138714285Y-44166666D01*
X138523809Y-44214285D01*
X138380952Y-44214285D01*
X138190476Y-44166666D01*
X138095238Y-44119047D01*
X138000000Y-44023809D01*
X137952380Y-43880952D01*
X137952380Y-43785714D01*
X138000000Y-43642857D01*
X138047619Y-43595238D01*
X138952380Y-42690476D02*
X138952380Y-43166666D01*
X137952380Y-43166666D01*
X138952380Y-42357142D02*
X137952380Y-42357142D01*
X138952380Y-41785714D02*
X138380952Y-42214285D01*
X137952380Y-41785714D02*
X138523809Y-42357142D01*
X136404761Y-45285714D02*
X136452380Y-45178571D01*
X136452380Y-45000000D01*
X136404761Y-44928571D01*
X136357142Y-44892857D01*
X136261904Y-44857142D01*
X136166666Y-44857142D01*
X136071428Y-44892857D01*
X136023809Y-44928571D01*
X135976190Y-45000000D01*
X135928571Y-45142857D01*
X135880952Y-45214285D01*
X135833333Y-45250000D01*
X135738095Y-45285714D01*
X135642857Y-45285714D01*
X135547619Y-45250000D01*
X135500000Y-45214285D01*
X135452380Y-45142857D01*
X135452380Y-44964285D01*
X135500000Y-44857142D01*
X135928571Y-44535714D02*
X135928571Y-44285714D01*
X136452380Y-44178571D02*
X136452380Y-44535714D01*
X135452380Y-44535714D01*
X135452380Y-44178571D01*
X136452380Y-43428571D02*
X135976190Y-43678571D01*
X136452380Y-43857142D02*
X135452380Y-43857142D01*
X135452380Y-43571428D01*
X135500000Y-43500000D01*
X135547619Y-43464285D01*
X135642857Y-43428571D01*
X135785714Y-43428571D01*
X135880952Y-43464285D01*
X135928571Y-43500000D01*
X135976190Y-43571428D01*
X135976190Y-43857142D01*
X136547619Y-43285714D02*
X136547619Y-42714285D01*
X136452380Y-42535714D02*
X135452380Y-42535714D01*
X136452380Y-42178571D02*
X135452380Y-42178571D01*
X136452380Y-41750000D01*
X135452380Y-41750000D01*
X140452380Y-44833333D02*
X141452380Y-44500000D01*
X140452380Y-44166666D01*
X141357142Y-43261904D02*
X141404761Y-43309523D01*
X141452380Y-43452380D01*
X141452380Y-43547619D01*
X141404761Y-43690476D01*
X141309523Y-43785714D01*
X141214285Y-43833333D01*
X141023809Y-43880952D01*
X140880952Y-43880952D01*
X140690476Y-43833333D01*
X140595238Y-43785714D01*
X140500000Y-43690476D01*
X140452380Y-43547619D01*
X140452380Y-43452380D01*
X140500000Y-43309523D01*
X140547619Y-43261904D01*
X141357142Y-42261904D02*
X141404761Y-42309523D01*
X141452380Y-42452380D01*
X141452380Y-42547619D01*
X141404761Y-42690476D01*
X141309523Y-42785714D01*
X141214285Y-42833333D01*
X141023809Y-42880952D01*
X140880952Y-42880952D01*
X140690476Y-42833333D01*
X140595238Y-42785714D01*
X140500000Y-42690476D01*
X140452380Y-42547619D01*
X140452380Y-42452380D01*
X140500000Y-42309523D01*
X140547619Y-42261904D01*
X143000000Y-44261904D02*
X142952380Y-44357142D01*
X142952380Y-44500000D01*
X143000000Y-44642857D01*
X143095238Y-44738095D01*
X143190476Y-44785714D01*
X143380952Y-44833333D01*
X143523809Y-44833333D01*
X143714285Y-44785714D01*
X143809523Y-44738095D01*
X143904761Y-44642857D01*
X143952380Y-44500000D01*
X143952380Y-44404761D01*
X143904761Y-44261904D01*
X143857142Y-44214285D01*
X143523809Y-44214285D01*
X143523809Y-44404761D01*
X143952380Y-43785714D02*
X142952380Y-43785714D01*
X143952380Y-43214285D01*
X142952380Y-43214285D01*
X143952380Y-42738095D02*
X142952380Y-42738095D01*
X142952380Y-42500000D01*
X143000000Y-42357142D01*
X143095238Y-42261904D01*
X143190476Y-42214285D01*
X143380952Y-42166666D01*
X143523809Y-42166666D01*
X143714285Y-42214285D01*
X143809523Y-42261904D01*
X143904761Y-42357142D01*
X143952380Y-42500000D01*
X143952380Y-42738095D01*
X150404761Y-45142857D02*
X150452380Y-45035714D01*
X150452380Y-44857142D01*
X150404761Y-44785714D01*
X150357142Y-44750000D01*
X150261904Y-44714285D01*
X150166666Y-44714285D01*
X150071428Y-44750000D01*
X150023809Y-44785714D01*
X149976190Y-44857142D01*
X149928571Y-45000000D01*
X149880952Y-45071428D01*
X149833333Y-45107142D01*
X149738095Y-45142857D01*
X149642857Y-45142857D01*
X149547619Y-45107142D01*
X149500000Y-45071428D01*
X149452380Y-45000000D01*
X149452380Y-44821428D01*
X149500000Y-44714285D01*
X150452380Y-43964285D02*
X149976190Y-44214285D01*
X150452380Y-44392857D02*
X149452380Y-44392857D01*
X149452380Y-44107142D01*
X149500000Y-44035714D01*
X149547619Y-44000000D01*
X149642857Y-43964285D01*
X149785714Y-43964285D01*
X149880952Y-44000000D01*
X149928571Y-44035714D01*
X149976190Y-44107142D01*
X149976190Y-44392857D01*
X150357142Y-43214285D02*
X150404761Y-43250000D01*
X150452380Y-43357142D01*
X150452380Y-43428571D01*
X150404761Y-43535714D01*
X150309523Y-43607142D01*
X150214285Y-43642857D01*
X150023809Y-43678571D01*
X149880952Y-43678571D01*
X149690476Y-43642857D01*
X149595238Y-43607142D01*
X149500000Y-43535714D01*
X149452380Y-43428571D01*
X149452380Y-43357142D01*
X149500000Y-43250000D01*
X149547619Y-43214285D01*
X150452380Y-42535714D02*
X150452380Y-42892857D01*
X149452380Y-42892857D01*
X150452380Y-42285714D02*
X149452380Y-42285714D01*
X150452380Y-41857142D02*
X149880952Y-42178571D01*
X149452380Y-41857142D02*
X150023809Y-42285714D01*
X155452380Y-44285714D02*
X154452380Y-44285714D01*
X155452380Y-43714285D01*
X154452380Y-43714285D01*
X155357142Y-42666666D02*
X155404761Y-42714285D01*
X155452380Y-42857142D01*
X155452380Y-42952380D01*
X155404761Y-43095238D01*
X155309523Y-43190476D01*
X155214285Y-43238095D01*
X155023809Y-43285714D01*
X154880952Y-43285714D01*
X154690476Y-43238095D01*
X154595238Y-43190476D01*
X154500000Y-43095238D01*
X154452380Y-42952380D01*
X154452380Y-42857142D01*
X154500000Y-42714285D01*
X154547619Y-42666666D01*
X157000000Y-44261904D02*
X156952380Y-44357142D01*
X156952380Y-44500000D01*
X157000000Y-44642857D01*
X157095238Y-44738095D01*
X157190476Y-44785714D01*
X157380952Y-44833333D01*
X157523809Y-44833333D01*
X157714285Y-44785714D01*
X157809523Y-44738095D01*
X157904761Y-44642857D01*
X157952380Y-44500000D01*
X157952380Y-44404761D01*
X157904761Y-44261904D01*
X157857142Y-44214285D01*
X157523809Y-44214285D01*
X157523809Y-44404761D01*
X157952380Y-43785714D02*
X156952380Y-43785714D01*
X157952380Y-43214285D01*
X156952380Y-43214285D01*
X157952380Y-42738095D02*
X156952380Y-42738095D01*
X156952380Y-42500000D01*
X157000000Y-42357142D01*
X157095238Y-42261904D01*
X157190476Y-42214285D01*
X157380952Y-42166666D01*
X157523809Y-42166666D01*
X157714285Y-42214285D01*
X157809523Y-42261904D01*
X157904761Y-42357142D01*
X157952380Y-42500000D01*
X157952380Y-42738095D01*
X151585000Y-45285714D02*
X151585000Y-44571428D01*
X152904761Y-45142857D02*
X152952380Y-45035714D01*
X152952380Y-44857142D01*
X152904761Y-44785714D01*
X152857142Y-44750000D01*
X152761904Y-44714285D01*
X152666666Y-44714285D01*
X152571428Y-44750000D01*
X152523809Y-44785714D01*
X152476190Y-44857142D01*
X152428571Y-45000000D01*
X152380952Y-45071428D01*
X152333333Y-45107142D01*
X152238095Y-45142857D01*
X152142857Y-45142857D01*
X152047619Y-45107142D01*
X152000000Y-45071428D01*
X151952380Y-45000000D01*
X151952380Y-44821428D01*
X152000000Y-44714285D01*
X151585000Y-44571428D02*
X151585000Y-43821428D01*
X152952380Y-43964285D02*
X152476190Y-44214285D01*
X152952380Y-44392857D02*
X151952380Y-44392857D01*
X151952380Y-44107142D01*
X152000000Y-44035714D01*
X152047619Y-44000000D01*
X152142857Y-43964285D01*
X152285714Y-43964285D01*
X152380952Y-44000000D01*
X152428571Y-44035714D01*
X152476190Y-44107142D01*
X152476190Y-44392857D01*
X151585000Y-43821428D02*
X151585000Y-43071428D01*
X152857142Y-43214285D02*
X152904761Y-43250000D01*
X152952380Y-43357142D01*
X152952380Y-43428571D01*
X152904761Y-43535714D01*
X152809523Y-43607142D01*
X152714285Y-43642857D01*
X152523809Y-43678571D01*
X152380952Y-43678571D01*
X152190476Y-43642857D01*
X152095238Y-43607142D01*
X152000000Y-43535714D01*
X151952380Y-43428571D01*
X151952380Y-43357142D01*
X152000000Y-43250000D01*
X152047619Y-43214285D01*
X151585000Y-43071428D02*
X151585000Y-42464285D01*
X152952380Y-42535714D02*
X152952380Y-42892857D01*
X151952380Y-42892857D01*
X151585000Y-42464285D02*
X151585000Y-41714285D01*
X152952380Y-41857142D02*
X152476190Y-42107142D01*
X152952380Y-42285714D02*
X151952380Y-42285714D01*
X151952380Y-42000000D01*
X152000000Y-41928571D01*
X152047619Y-41892857D01*
X152142857Y-41857142D01*
X152285714Y-41857142D01*
X152380952Y-41892857D01*
X152428571Y-41928571D01*
X152476190Y-42000000D01*
X152476190Y-42285714D01*
D10*
X125000000Y-43904761D02*
X125142857Y-43952380D01*
X125380952Y-43952380D01*
X125476190Y-43904761D01*
X125523809Y-43857142D01*
X125571428Y-43761904D01*
X125571428Y-43666666D01*
X125523809Y-43571428D01*
X125476190Y-43523809D01*
X125380952Y-43476190D01*
X125190476Y-43428571D01*
X125095238Y-43380952D01*
X125047619Y-43333333D01*
X125000000Y-43238095D01*
X125000000Y-43142857D01*
X125047619Y-43047619D01*
X125095238Y-43000000D01*
X125190476Y-42952380D01*
X125428571Y-42952380D01*
X125571428Y-43000000D01*
X125904761Y-43285714D02*
X126095238Y-43952380D01*
X126285714Y-43476190D01*
X126476190Y-43952380D01*
X126666666Y-43285714D01*
X127047619Y-43952380D02*
X127047619Y-43285714D01*
X127047619Y-42952380D02*
X127000000Y-43000000D01*
X127047619Y-43047619D01*
X127095238Y-43000000D01*
X127047619Y-42952380D01*
X127047619Y-43047619D01*
X127380952Y-43285714D02*
X127761904Y-43285714D01*
X127523809Y-42952380D02*
X127523809Y-43809523D01*
X127571428Y-43904761D01*
X127666666Y-43952380D01*
X127761904Y-43952380D01*
X128523809Y-43904761D02*
X128428571Y-43952380D01*
X128238095Y-43952380D01*
X128142857Y-43904761D01*
X128095238Y-43857142D01*
X128047619Y-43761904D01*
X128047619Y-43476190D01*
X128095238Y-43380952D01*
X128142857Y-43333333D01*
X128238095Y-43285714D01*
X128428571Y-43285714D01*
X128523809Y-43333333D01*
X128952380Y-43952380D02*
X128952380Y-42952380D01*
X129380952Y-43952380D02*
X129380952Y-43428571D01*
X129333333Y-43333333D01*
X129238095Y-43285714D01*
X129095238Y-43285714D01*
X129000000Y-43333333D01*
X128952380Y-43380952D01*
X131047619Y-43952380D02*
X131047619Y-43428571D01*
X131000000Y-43333333D01*
X130904761Y-43285714D01*
X130714285Y-43285714D01*
X130619047Y-43333333D01*
X131047619Y-43904761D02*
X130952380Y-43952380D01*
X130714285Y-43952380D01*
X130619047Y-43904761D01*
X130571428Y-43809523D01*
X130571428Y-43714285D01*
X130619047Y-43619047D01*
X130714285Y-43571428D01*
X130952380Y-43571428D01*
X131047619Y-43523809D01*
X131523809Y-43952380D02*
X131523809Y-43285714D01*
X131523809Y-43476190D02*
X131571428Y-43380952D01*
X131619047Y-43333333D01*
X131714285Y-43285714D01*
X131809523Y-43285714D01*
X132142857Y-43952380D02*
X132142857Y-43285714D01*
X132142857Y-43476190D02*
X132190476Y-43380952D01*
X132238095Y-43333333D01*
X132333333Y-43285714D01*
X132428571Y-43285714D01*
X133190476Y-43952380D02*
X133190476Y-43428571D01*
X133142857Y-43333333D01*
X133047619Y-43285714D01*
X132857142Y-43285714D01*
X132761904Y-43333333D01*
X133190476Y-43904761D02*
X133095238Y-43952380D01*
X132857142Y-43952380D01*
X132761904Y-43904761D01*
X132714285Y-43809523D01*
X132714285Y-43714285D01*
X132761904Y-43619047D01*
X132857142Y-43571428D01*
X133095238Y-43571428D01*
X133190476Y-43523809D01*
X133571428Y-43285714D02*
X133809523Y-43952380D01*
X134047619Y-43285714D02*
X133809523Y-43952380D01*
X133714285Y-44190476D01*
X133666666Y-44238095D01*
X133571428Y-44285714D01*
D11*
X137738095Y-72500000D02*
X137642857Y-72452380D01*
X137500000Y-72452380D01*
X137357142Y-72500000D01*
X137261904Y-72595238D01*
X137214285Y-72690476D01*
X137166666Y-72880952D01*
X137166666Y-73023809D01*
X137214285Y-73214285D01*
X137261904Y-73309523D01*
X137357142Y-73404761D01*
X137500000Y-73452380D01*
X137595238Y-73452380D01*
X137738095Y-73404761D01*
X137785714Y-73357142D01*
X137785714Y-73023809D01*
X137595238Y-73023809D01*
X138214285Y-73452380D02*
X138214285Y-72452380D01*
X138785714Y-73452380D01*
X138785714Y-72452380D01*
X139261904Y-73452380D02*
X139261904Y-72452380D01*
X139500000Y-72452380D01*
X139642857Y-72500000D01*
X139738095Y-72595238D01*
X139785714Y-72690476D01*
X139833333Y-72880952D01*
X139833333Y-73023809D01*
X139785714Y-73214285D01*
X139738095Y-73309523D01*
X139642857Y-73404761D01*
X139500000Y-73452380D01*
X139261904Y-73452380D01*
X141642857Y-73452380D02*
X141642857Y-72452380D01*
X142023809Y-72452380D01*
X142119047Y-72500000D01*
X142166666Y-72547619D01*
X142214285Y-72642857D01*
X142214285Y-72785714D01*
X142166666Y-72880952D01*
X142119047Y-72928571D01*
X142023809Y-72976190D01*
X141642857Y-72976190D01*
X142833333Y-72452380D02*
X143023809Y-72452380D01*
X143119047Y-72500000D01*
X143214285Y-72595238D01*
X143261904Y-72785714D01*
X143261904Y-73119047D01*
X143214285Y-73309523D01*
X143119047Y-73404761D01*
X143023809Y-73452380D01*
X142833333Y-73452380D01*
X142738095Y-73404761D01*
X142642857Y-73309523D01*
X142595238Y-73119047D01*
X142595238Y-72785714D01*
X142642857Y-72595238D01*
X142738095Y-72500000D01*
X142833333Y-72452380D01*
X143595238Y-72452380D02*
X143833333Y-73452380D01*
X144023809Y-72738095D01*
X144214285Y-73452380D01*
X144452380Y-72452380D01*
X159589285Y-80488095D02*
X159589285Y-79535714D01*
X160065476Y-80011904D02*
X159113095Y-80011904D01*
X160065476Y-78285714D02*
X160065476Y-79000000D01*
X160065476Y-78642857D02*
X158815476Y-78642857D01*
X158994047Y-78761904D01*
X159113095Y-78880952D01*
X159172619Y-79000000D01*
X158934523Y-77809523D02*
X158875000Y-77750000D01*
X158815476Y-77630952D01*
X158815476Y-77333333D01*
X158875000Y-77214285D01*
X158934523Y-77154761D01*
X159053571Y-77095238D01*
X159172619Y-77095238D01*
X159351190Y-77154761D01*
X160065476Y-77869047D01*
X160065476Y-77095238D01*
X158815476Y-76738095D02*
X160065476Y-76321428D01*
X158815476Y-75904761D01*
X158755952Y-74595238D02*
X160363095Y-75666666D01*
X158815476Y-73583333D02*
X158815476Y-74178571D01*
X159410714Y-74238095D01*
X159351190Y-74178571D01*
X159291666Y-74059523D01*
X159291666Y-73761904D01*
X159351190Y-73642857D01*
X159410714Y-73583333D01*
X159529761Y-73523809D01*
X159827380Y-73523809D01*
X159946428Y-73583333D01*
X160005952Y-73642857D01*
X160065476Y-73761904D01*
X160065476Y-74059523D01*
X160005952Y-74178571D01*
X159946428Y-74238095D01*
X158815476Y-73166666D02*
X160065476Y-72750000D01*
X158815476Y-72333333D01*
D12*
X135500000Y-80500000D02*
X135500000Y-79500000D01*
X135500000Y-78500000D02*
X135500000Y-77500000D01*
X135500000Y-76500000D02*
X135500000Y-75500000D01*
X135500000Y-74500000D02*
X135500000Y-73500000D01*
X143500000Y-73500000D02*
X142500000Y-73500000D01*
X141500000Y-73500000D02*
X140500000Y-73500000D01*
X139500000Y-73500000D02*
X138500000Y-73500000D01*
X137500000Y-73500000D02*
X136500000Y-73500000D01*
X151500000Y-80000000D02*
X151500000Y-79000000D01*
X151500000Y-78000000D02*
X151500000Y-77000000D01*
X151500000Y-76000000D02*
X151500000Y-75000000D01*
X151500000Y-74000000D02*
X151500000Y-73000000D01*
X146000000Y-73500000D02*
X145000000Y-73500000D01*
D11*
X163142857Y-56452380D02*
X163142857Y-55452380D01*
X163523809Y-55452380D01*
X163619047Y-55500000D01*
X163666666Y-55547619D01*
X163714285Y-55642857D01*
X163714285Y-55785714D01*
X163666666Y-55880952D01*
X163619047Y-55928571D01*
X163523809Y-55976190D01*
X163142857Y-55976190D01*
X164333333Y-55452380D02*
X164523809Y-55452380D01*
X164619047Y-55500000D01*
X164714285Y-55595238D01*
X164761904Y-55785714D01*
X164761904Y-56119047D01*
X164714285Y-56309523D01*
X164619047Y-56404761D01*
X164523809Y-56452380D01*
X164333333Y-56452380D01*
X164238095Y-56404761D01*
X164142857Y-56309523D01*
X164095238Y-56119047D01*
X164095238Y-55785714D01*
X164142857Y-55595238D01*
X164238095Y-55500000D01*
X164333333Y-55452380D01*
X165095238Y-55452380D02*
X165333333Y-56452380D01*
X165523809Y-55738095D01*
X165714285Y-56452380D01*
X165952380Y-55452380D01*
X152142857Y-56452380D02*
X152142857Y-55452380D01*
X152523809Y-55452380D01*
X152619047Y-55500000D01*
X152666666Y-55547619D01*
X152714285Y-55642857D01*
X152714285Y-55785714D01*
X152666666Y-55880952D01*
X152619047Y-55928571D01*
X152523809Y-55976190D01*
X152142857Y-55976190D01*
X153333333Y-55452380D02*
X153523809Y-55452380D01*
X153619047Y-55500000D01*
X153714285Y-55595238D01*
X153761904Y-55785714D01*
X153761904Y-56119047D01*
X153714285Y-56309523D01*
X153619047Y-56404761D01*
X153523809Y-56452380D01*
X153333333Y-56452380D01*
X153238095Y-56404761D01*
X153142857Y-56309523D01*
X153095238Y-56119047D01*
X153095238Y-55785714D01*
X153142857Y-55595238D01*
X153238095Y-55500000D01*
X153333333Y-55452380D01*
X154095238Y-55452380D02*
X154333333Y-56452380D01*
X154523809Y-55738095D01*
X154714285Y-56452380D01*
X154952380Y-55452380D01*
X141142857Y-56452380D02*
X141142857Y-55452380D01*
X141523809Y-55452380D01*
X141619047Y-55500000D01*
X141666666Y-55547619D01*
X141714285Y-55642857D01*
X141714285Y-55785714D01*
X141666666Y-55880952D01*
X141619047Y-55928571D01*
X141523809Y-55976190D01*
X141142857Y-55976190D01*
X142333333Y-55452380D02*
X142523809Y-55452380D01*
X142619047Y-55500000D01*
X142714285Y-55595238D01*
X142761904Y-55785714D01*
X142761904Y-56119047D01*
X142714285Y-56309523D01*
X142619047Y-56404761D01*
X142523809Y-56452380D01*
X142333333Y-56452380D01*
X142238095Y-56404761D01*
X142142857Y-56309523D01*
X142095238Y-56119047D01*
X142095238Y-55785714D01*
X142142857Y-55595238D01*
X142238095Y-55500000D01*
X142333333Y-55452380D01*
X143095238Y-55452380D02*
X143333333Y-56452380D01*
X143523809Y-55738095D01*
X143714285Y-56452380D01*
X143952380Y-55452380D01*
X130142857Y-56452380D02*
X130142857Y-55452380D01*
X130523809Y-55452380D01*
X130619047Y-55500000D01*
X130666666Y-55547619D01*
X130714285Y-55642857D01*
X130714285Y-55785714D01*
X130666666Y-55880952D01*
X130619047Y-55928571D01*
X130523809Y-55976190D01*
X130142857Y-55976190D01*
X131333333Y-55452380D02*
X131523809Y-55452380D01*
X131619047Y-55500000D01*
X131714285Y-55595238D01*
X131761904Y-55785714D01*
X131761904Y-56119047D01*
X131714285Y-56309523D01*
X131619047Y-56404761D01*
X131523809Y-56452380D01*
X131333333Y-56452380D01*
X131238095Y-56404761D01*
X131142857Y-56309523D01*
X131095238Y-56119047D01*
X131095238Y-55785714D01*
X131142857Y-55595238D01*
X131238095Y-55500000D01*
X131333333Y-55452380D01*
X132095238Y-55452380D02*
X132333333Y-56452380D01*
X132523809Y-55738095D01*
X132714285Y-56452380D01*
X132952380Y-55452380D01*
X126892857Y-55452380D02*
X127035714Y-55452380D01*
X127107142Y-55500000D01*
X127178571Y-55595238D01*
X127214285Y-55785714D01*
X127214285Y-56119047D01*
X127178571Y-56309523D01*
X127107142Y-56404761D01*
X127035714Y-56452380D01*
X126892857Y-56452380D01*
X126821428Y-56404761D01*
X126750000Y-56309523D01*
X126714285Y-56119047D01*
X126714285Y-55785714D01*
X126750000Y-55595238D01*
X126821428Y-55500000D01*
X126892857Y-55452380D01*
X127535714Y-55452380D02*
X127535714Y-56261904D01*
X127571428Y-56357142D01*
X127607142Y-56404761D01*
X127678571Y-56452380D01*
X127821428Y-56452380D01*
X127892857Y-56404761D01*
X127928571Y-56357142D01*
X127964285Y-56261904D01*
X127964285Y-55452380D01*
X128214285Y-55452380D02*
X128642857Y-55452380D01*
X128428571Y-56452380D02*
X128428571Y-55452380D01*
X129035714Y-55452380D02*
X129107142Y-55452380D01*
X129178571Y-55500000D01*
X129214285Y-55547619D01*
X129250000Y-55642857D01*
X129285714Y-55833333D01*
X129285714Y-56071428D01*
X129250000Y-56261904D01*
X129214285Y-56357142D01*
X129178571Y-56404761D01*
X129107142Y-56452380D01*
X129035714Y-56452380D01*
X128964285Y-56404761D01*
X128928571Y-56357142D01*
X128892857Y-56261904D01*
X128857142Y-56071428D01*
X128857142Y-55833333D01*
X128892857Y-55642857D01*
X128928571Y-55547619D01*
X128964285Y-55500000D01*
X129035714Y-55452380D01*
X137892857Y-55452380D02*
X138035714Y-55452380D01*
X138107142Y-55500000D01*
X138178571Y-55595238D01*
X138214285Y-55785714D01*
X138214285Y-56119047D01*
X138178571Y-56309523D01*
X138107142Y-56404761D01*
X138035714Y-56452380D01*
X137892857Y-56452380D01*
X137821428Y-56404761D01*
X137750000Y-56309523D01*
X137714285Y-56119047D01*
X137714285Y-55785714D01*
X137750000Y-55595238D01*
X137821428Y-55500000D01*
X137892857Y-55452380D01*
X138535714Y-55452380D02*
X138535714Y-56261904D01*
X138571428Y-56357142D01*
X138607142Y-56404761D01*
X138678571Y-56452380D01*
X138821428Y-56452380D01*
X138892857Y-56404761D01*
X138928571Y-56357142D01*
X138964285Y-56261904D01*
X138964285Y-55452380D01*
X139214285Y-55452380D02*
X139642857Y-55452380D01*
X139428571Y-56452380D02*
X139428571Y-55452380D01*
X140285714Y-56452380D02*
X139857142Y-56452380D01*
X140071428Y-56452380D02*
X140071428Y-55452380D01*
X140000000Y-55595238D01*
X139928571Y-55690476D01*
X139857142Y-55738095D01*
X148892857Y-55452380D02*
X149035714Y-55452380D01*
X149107142Y-55500000D01*
X149178571Y-55595238D01*
X149214285Y-55785714D01*
X149214285Y-56119047D01*
X149178571Y-56309523D01*
X149107142Y-56404761D01*
X149035714Y-56452380D01*
X148892857Y-56452380D01*
X148821428Y-56404761D01*
X148750000Y-56309523D01*
X148714285Y-56119047D01*
X148714285Y-55785714D01*
X148750000Y-55595238D01*
X148821428Y-55500000D01*
X148892857Y-55452380D01*
X149535714Y-55452380D02*
X149535714Y-56261904D01*
X149571428Y-56357142D01*
X149607142Y-56404761D01*
X149678571Y-56452380D01*
X149821428Y-56452380D01*
X149892857Y-56404761D01*
X149928571Y-56357142D01*
X149964285Y-56261904D01*
X149964285Y-55452380D01*
X150214285Y-55452380D02*
X150642857Y-55452380D01*
X150428571Y-56452380D02*
X150428571Y-55452380D01*
X150857142Y-55547619D02*
X150892857Y-55500000D01*
X150964285Y-55452380D01*
X151142857Y-55452380D01*
X151214285Y-55500000D01*
X151250000Y-55547619D01*
X151285714Y-55642857D01*
X151285714Y-55738095D01*
X151250000Y-55880952D01*
X150821428Y-56452380D01*
X151285714Y-56452380D01*
X159892857Y-55452380D02*
X160035714Y-55452380D01*
X160107142Y-55500000D01*
X160178571Y-55595238D01*
X160214285Y-55785714D01*
X160214285Y-56119047D01*
X160178571Y-56309523D01*
X160107142Y-56404761D01*
X160035714Y-56452380D01*
X159892857Y-56452380D01*
X159821428Y-56404761D01*
X159750000Y-56309523D01*
X159714285Y-56119047D01*
X159714285Y-55785714D01*
X159750000Y-55595238D01*
X159821428Y-55500000D01*
X159892857Y-55452380D01*
X160535714Y-55452380D02*
X160535714Y-56261904D01*
X160571428Y-56357142D01*
X160607142Y-56404761D01*
X160678571Y-56452380D01*
X160821428Y-56452380D01*
X160892857Y-56404761D01*
X160928571Y-56357142D01*
X160964285Y-56261904D01*
X160964285Y-55452380D01*
X161214285Y-55452380D02*
X161642857Y-55452380D01*
X161428571Y-56452380D02*
X161428571Y-55452380D01*
X161821428Y-55452380D02*
X162285714Y-55452380D01*
X162035714Y-55833333D01*
X162142857Y-55833333D01*
X162214285Y-55880952D01*
X162250000Y-55928571D01*
X162285714Y-56023809D01*
X162285714Y-56261904D01*
X162250000Y-56357142D01*
X162214285Y-56404761D01*
X162142857Y-56452380D01*
X161928571Y-56452380D01*
X161857142Y-56404761D01*
X161821428Y-56357142D01*
D12*
X159830000Y-51310000D02*
G75*
G02*
X159830000Y-49310000I0J1000000D01*
G01*
X159830000Y-49310000D02*
X159830000Y-47660000D01*
X159830000Y-47660000D02*
X134310000Y-47660000D01*
X134310000Y-47660000D02*
X134310000Y-52960000D01*
X134310000Y-52960000D02*
X159830000Y-52960000D01*
X159830000Y-52960000D02*
X159830000Y-51310000D01*
X155850000Y-80250000D02*
X155850000Y-79000000D01*
X154600000Y-80250000D02*
X155850000Y-80250000D01*
X148700000Y-74750000D02*
X151750000Y-74750000D01*
X148700000Y-77700000D02*
X148700000Y-74750000D01*
X147950000Y-77700000D02*
X148700000Y-77700000D01*
X154800000Y-74750000D02*
X151750000Y-74750000D01*
X154800000Y-77700000D02*
X154800000Y-74750000D01*
X155550000Y-77700000D02*
X154800000Y-77700000D01*
X147950000Y-79950000D02*
X149750000Y-79950000D01*
X147950000Y-79200000D02*
X147950000Y-79950000D01*
X149750000Y-79200000D02*
X147950000Y-79200000D01*
X149750000Y-79950000D02*
X149750000Y-79200000D01*
X153750000Y-79950000D02*
X155550000Y-79950000D01*
X153750000Y-79200000D02*
X153750000Y-79950000D01*
X155550000Y-79200000D02*
X153750000Y-79200000D01*
X155550000Y-79950000D02*
X155550000Y-79200000D01*
X151250000Y-79950000D02*
X152250000Y-79950000D01*
X151250000Y-79200000D02*
X151250000Y-79950000D01*
X152250000Y-79200000D02*
X151250000Y-79200000D01*
X152250000Y-79950000D02*
X152250000Y-79200000D01*
X147940000Y-79960000D02*
X155560000Y-79960000D01*
X147940000Y-73990000D02*
X147940000Y-79960000D01*
X155560000Y-73990000D02*
X147940000Y-73990000D01*
X155560000Y-79960000D02*
X155560000Y-73990000D01*
D13*
G36*
X132673182Y-75992000D02*
G01*
X132673182Y-76095909D01*
X132130546Y-76095909D01*
X132130546Y-75992000D01*
X132673182Y-75992000D01*
G37*
X132673182Y-75992000D02*
X132673182Y-76095909D01*
X132130546Y-76095909D01*
X132130546Y-75992000D01*
X132673182Y-75992000D01*
G36*
X132673182Y-76915636D02*
G01*
X132673182Y-77019546D01*
X132130546Y-77019546D01*
X132130546Y-76915636D01*
X132673182Y-76915636D01*
G37*
X132673182Y-76915636D02*
X132673182Y-77019546D01*
X132130546Y-77019546D01*
X132130546Y-76915636D01*
X132673182Y-76915636D01*
G36*
X129377467Y-76126901D02*
G01*
X129390801Y-76130776D01*
X129413243Y-76145816D01*
X129445969Y-76172984D01*
X129490152Y-76213240D01*
X129546967Y-76267545D01*
X129617587Y-76336860D01*
X129684219Y-76403173D01*
X129971546Y-76690327D01*
X129971546Y-76491254D01*
X129971724Y-76418847D01*
X129972470Y-76366371D01*
X129974105Y-76330667D01*
X129976946Y-76308576D01*
X129981312Y-76296941D01*
X129987523Y-76292603D01*
X129991650Y-76292182D01*
X130004665Y-76300078D01*
X130031642Y-76322402D01*
X130070362Y-76357110D01*
X130118607Y-76402156D01*
X130174157Y-76455495D01*
X130234794Y-76515081D01*
X130251422Y-76531647D01*
X130328149Y-76607675D01*
X130389584Y-76667131D01*
X130436131Y-76710380D01*
X130468191Y-76737787D01*
X130486170Y-76749716D01*
X130490686Y-76748124D01*
X130488110Y-76724942D01*
X130481832Y-76688032D01*
X130474839Y-76653170D01*
X130466987Y-76612516D01*
X130465268Y-76588124D01*
X130469746Y-76573974D01*
X130475734Y-76567646D01*
X130488130Y-76560571D01*
X130498687Y-76563805D01*
X130508553Y-76579929D01*
X130518878Y-76611523D01*
X130530808Y-76661166D01*
X130542861Y-76718458D01*
X130555603Y-76781228D01*
X130564184Y-76825023D01*
X130569030Y-76853499D01*
X130570567Y-76870313D01*
X130569221Y-76879119D01*
X130565417Y-76883574D01*
X130562329Y-76885558D01*
X130546061Y-76886495D01*
X130513162Y-76882402D01*
X130468818Y-76874463D01*
X130418211Y-76863866D01*
X130366526Y-76851794D01*
X130318946Y-76839436D01*
X130280655Y-76827975D01*
X130256836Y-76818599D01*
X130251657Y-76814490D01*
X130250054Y-76795101D01*
X130265014Y-76785455D01*
X130298134Y-76785226D01*
X130351014Y-76794087D01*
X130351262Y-76794139D01*
X130392815Y-76802673D01*
X130425129Y-76808924D01*
X130441940Y-76811687D01*
X130442658Y-76811727D01*
X130436997Y-76803951D01*
X130417022Y-76782058D01*
X130384804Y-76748202D01*
X130342414Y-76704539D01*
X130291923Y-76653221D01*
X130242744Y-76603751D01*
X130035046Y-76395776D01*
X130029273Y-76583408D01*
X130026743Y-76654980D01*
X130023983Y-76706550D01*
X130020617Y-76741206D01*
X130016270Y-76762038D01*
X130010564Y-76772134D01*
X130006000Y-76774392D01*
X129994540Y-76767207D01*
X129969165Y-76745659D01*
X129932073Y-76711923D01*
X129885462Y-76668174D01*
X129831533Y-76616585D01*
X129772484Y-76559333D01*
X129710514Y-76498592D01*
X129647823Y-76436536D01*
X129586608Y-76375340D01*
X129529070Y-76317180D01*
X129477407Y-76264229D01*
X129433819Y-76218663D01*
X129400504Y-76182655D01*
X129379661Y-76158382D01*
X129373429Y-76148807D01*
X129372068Y-76133232D01*
X129377467Y-76126901D01*
G37*
X129377467Y-76126901D02*
X129390801Y-76130776D01*
X129413243Y-76145816D01*
X129445969Y-76172984D01*
X129490152Y-76213240D01*
X129546967Y-76267545D01*
X129617587Y-76336860D01*
X129684219Y-76403173D01*
X129971546Y-76690327D01*
X129971546Y-76491254D01*
X129971724Y-76418847D01*
X129972470Y-76366371D01*
X129974105Y-76330667D01*
X129976946Y-76308576D01*
X129981312Y-76296941D01*
X129987523Y-76292603D01*
X129991650Y-76292182D01*
X130004665Y-76300078D01*
X130031642Y-76322402D01*
X130070362Y-76357110D01*
X130118607Y-76402156D01*
X130174157Y-76455495D01*
X130234794Y-76515081D01*
X130251422Y-76531647D01*
X130328149Y-76607675D01*
X130389584Y-76667131D01*
X130436131Y-76710380D01*
X130468191Y-76737787D01*
X130486170Y-76749716D01*
X130490686Y-76748124D01*
X130488110Y-76724942D01*
X130481832Y-76688032D01*
X130474839Y-76653170D01*
X130466987Y-76612516D01*
X130465268Y-76588124D01*
X130469746Y-76573974D01*
X130475734Y-76567646D01*
X130488130Y-76560571D01*
X130498687Y-76563805D01*
X130508553Y-76579929D01*
X130518878Y-76611523D01*
X130530808Y-76661166D01*
X130542861Y-76718458D01*
X130555603Y-76781228D01*
X130564184Y-76825023D01*
X130569030Y-76853499D01*
X130570567Y-76870313D01*
X130569221Y-76879119D01*
X130565417Y-76883574D01*
X130562329Y-76885558D01*
X130546061Y-76886495D01*
X130513162Y-76882402D01*
X130468818Y-76874463D01*
X130418211Y-76863866D01*
X130366526Y-76851794D01*
X130318946Y-76839436D01*
X130280655Y-76827975D01*
X130256836Y-76818599D01*
X130251657Y-76814490D01*
X130250054Y-76795101D01*
X130265014Y-76785455D01*
X130298134Y-76785226D01*
X130351014Y-76794087D01*
X130351262Y-76794139D01*
X130392815Y-76802673D01*
X130425129Y-76808924D01*
X130441940Y-76811687D01*
X130442658Y-76811727D01*
X130436997Y-76803951D01*
X130417022Y-76782058D01*
X130384804Y-76748202D01*
X130342414Y-76704539D01*
X130291923Y-76653221D01*
X130242744Y-76603751D01*
X130035046Y-76395776D01*
X130029273Y-76583408D01*
X130026743Y-76654980D01*
X130023983Y-76706550D01*
X130020617Y-76741206D01*
X130016270Y-76762038D01*
X130010564Y-76772134D01*
X130006000Y-76774392D01*
X129994540Y-76767207D01*
X129969165Y-76745659D01*
X129932073Y-76711923D01*
X129885462Y-76668174D01*
X129831533Y-76616585D01*
X129772484Y-76559333D01*
X129710514Y-76498592D01*
X129647823Y-76436536D01*
X129586608Y-76375340D01*
X129529070Y-76317180D01*
X129477407Y-76264229D01*
X129433819Y-76218663D01*
X129400504Y-76182655D01*
X129379661Y-76158382D01*
X129373429Y-76148807D01*
X129372068Y-76133232D01*
X129377467Y-76126901D01*
G36*
X129161728Y-75718876D02*
G01*
X129187377Y-75679934D01*
X129222650Y-75649134D01*
X129246443Y-75637619D01*
X129296169Y-75630619D01*
X129344164Y-75639960D01*
X129382547Y-75663709D01*
X129390772Y-75673037D01*
X129410690Y-75699443D01*
X129538141Y-75639152D01*
X129734093Y-75557941D01*
X129938313Y-75496067D01*
X130152394Y-75453200D01*
X130377926Y-75429007D01*
X130577682Y-75422876D01*
X130724672Y-75426288D01*
X130854827Y-75436563D01*
X130973574Y-75454437D01*
X131086342Y-75480646D01*
X131154955Y-75501185D01*
X131236987Y-75531632D01*
X131330997Y-75573048D01*
X131430665Y-75622314D01*
X131529672Y-75676316D01*
X131617323Y-75729143D01*
X131663729Y-75758679D01*
X131703479Y-75783944D01*
X131732246Y-75802190D01*
X131745534Y-75810566D01*
X131757729Y-75805679D01*
X131777895Y-75785462D01*
X131801472Y-75754614D01*
X131852845Y-75689691D01*
X131916479Y-75623984D01*
X131986221Y-75562953D01*
X132055915Y-75512063D01*
X132109279Y-75481455D01*
X132189128Y-75446905D01*
X132261905Y-75425567D01*
X132337629Y-75415126D01*
X132405066Y-75413055D01*
X132520467Y-75423914D01*
X132632328Y-75454812D01*
X132735343Y-75504013D01*
X132784984Y-75537250D01*
X132821741Y-75564825D01*
X132902894Y-75503775D01*
X132954242Y-75467745D01*
X133014339Y-75429387D01*
X133071117Y-75396366D01*
X133077014Y-75393190D01*
X133169982Y-75343655D01*
X132941786Y-75230745D01*
X132726784Y-75120258D01*
X132532834Y-75011757D01*
X132358121Y-74904018D01*
X132200830Y-74795815D01*
X132059147Y-74685925D01*
X131931257Y-74573122D01*
X131852605Y-74495533D01*
X131741502Y-74371050D01*
X131652962Y-74249800D01*
X131586836Y-74130840D01*
X131542977Y-74013230D01*
X131521236Y-73896028D01*
X131521466Y-73778293D01*
X131543519Y-73659083D01*
X131587246Y-73537458D01*
X131652499Y-73412476D01*
X131676265Y-73374165D01*
X131758565Y-73261954D01*
X131851205Y-73163907D01*
X131952068Y-73080801D01*
X132059035Y-73013409D01*
X132169990Y-72962508D01*
X132282815Y-72928873D01*
X132395393Y-72913279D01*
X132505605Y-72916501D01*
X132611335Y-72939315D01*
X132710464Y-72982496D01*
X132724138Y-72990478D01*
X132782863Y-73032217D01*
X132848425Y-73089433D01*
X132916194Y-73157565D01*
X132981537Y-73232049D01*
X133022663Y-73284591D01*
X133051978Y-73323981D01*
X133075822Y-73355838D01*
X133091072Y-73376001D01*
X133094895Y-73380861D01*
X133103996Y-73374964D01*
X133125315Y-73355893D01*
X133155066Y-73327123D01*
X133171619Y-73310491D01*
X133253170Y-73242090D01*
X133351565Y-73183542D01*
X133461991Y-73136696D01*
X133579634Y-73103402D01*
X133699678Y-73085507D01*
X133764228Y-73082898D01*
X133881577Y-73091870D01*
X133992330Y-73117650D01*
X134093721Y-73158750D01*
X134182986Y-73213683D01*
X134257360Y-73280962D01*
X134314077Y-73359097D01*
X134328107Y-73386281D01*
X134365839Y-73490913D01*
X134389603Y-73613134D01*
X134399491Y-73752216D01*
X134395596Y-73907434D01*
X134378011Y-74078060D01*
X134346829Y-74263367D01*
X134302142Y-74462628D01*
X134244044Y-74675117D01*
X134172626Y-74900107D01*
X134113046Y-75069337D01*
X134072564Y-75179992D01*
X134218578Y-75204134D01*
X134413354Y-75246970D01*
X134595947Y-75309236D01*
X134767293Y-75391360D01*
X134928329Y-75493769D01*
X135034228Y-75576742D01*
X135147279Y-75685178D01*
X135246765Y-75806143D01*
X135330581Y-75936178D01*
X135396622Y-76071825D01*
X135442784Y-76209626D01*
X135456334Y-76270469D01*
X135463931Y-76310454D01*
X135470106Y-76341774D01*
X135473255Y-76356486D01*
X135484969Y-76364312D01*
X135514497Y-76376416D01*
X135557339Y-76391127D01*
X135607452Y-76406333D01*
X135666365Y-76423191D01*
X135723781Y-76439624D01*
X135772257Y-76453500D01*
X135799114Y-76461189D01*
X135836932Y-76474372D01*
X135855729Y-76487742D01*
X135859728Y-76500000D01*
X135853083Y-76515288D01*
X135830514Y-76528404D01*
X135799114Y-76538811D01*
X135762807Y-76549206D01*
X135711743Y-76563822D01*
X135653364Y-76580529D01*
X135607452Y-76593667D01*
X135555982Y-76609311D01*
X135513455Y-76623971D01*
X135484371Y-76635977D01*
X135473255Y-76643515D01*
X135469615Y-76660656D01*
X135463240Y-76693130D01*
X135456334Y-76729531D01*
X135419651Y-76867186D01*
X135362154Y-77004219D01*
X135285947Y-77137175D01*
X135193133Y-77262596D01*
X135085815Y-77377026D01*
X135034228Y-77423269D01*
X134880330Y-77539030D01*
X134714564Y-77635257D01*
X134536622Y-77712083D01*
X134511796Y-77719586D01*
X134511796Y-77665985D01*
X134530696Y-77660628D01*
X134565300Y-77646181D01*
X134611187Y-77624874D01*
X134663934Y-77598933D01*
X134719118Y-77570588D01*
X134772316Y-77542066D01*
X134819106Y-77515595D01*
X134855066Y-77493403D01*
X134857185Y-77491985D01*
X134904438Y-77458579D01*
X134954363Y-77420872D01*
X134990932Y-77391354D01*
X135051546Y-77340013D01*
X135051546Y-75658967D01*
X134990932Y-75607559D01*
X134932196Y-75561570D01*
X134862985Y-75513498D01*
X134788071Y-75466112D01*
X134712231Y-75422181D01*
X134640238Y-75384477D01*
X134576867Y-75355767D01*
X134528255Y-75339159D01*
X134497364Y-75331406D01*
X134497364Y-76498749D01*
X134497416Y-76695644D01*
X134497583Y-76870570D01*
X134497878Y-77024648D01*
X134498316Y-77159000D01*
X134498909Y-77274746D01*
X134499671Y-77373009D01*
X134500618Y-77454910D01*
X134501762Y-77521570D01*
X134503117Y-77574111D01*
X134504698Y-77613653D01*
X134506517Y-77641319D01*
X134508590Y-77658229D01*
X134510930Y-77665506D01*
X134511796Y-77665985D01*
X134511796Y-77719586D01*
X134346195Y-77769640D01*
X134142973Y-77808059D01*
X134125739Y-77810363D01*
X134071614Y-77817382D01*
X134112882Y-77929350D01*
X134183029Y-78129865D01*
X134244185Y-78325759D01*
X134295944Y-78515000D01*
X134337898Y-78695555D01*
X134369639Y-78865393D01*
X134390760Y-79022479D01*
X134400853Y-79164783D01*
X134399511Y-79290271D01*
X134395344Y-79338314D01*
X134375638Y-79462090D01*
X134346125Y-79566609D01*
X134305450Y-79654103D01*
X134252259Y-79726803D01*
X134185198Y-79786941D01*
X134102914Y-79836747D01*
X134088582Y-79843746D01*
X133981123Y-79885695D01*
X133872110Y-79908942D01*
X133820836Y-79911475D01*
X133820836Y-79857374D01*
X133903928Y-79849051D01*
X133980954Y-79830314D01*
X134059775Y-79799783D01*
X134067326Y-79796364D01*
X134134464Y-79756270D01*
X134197768Y-79701534D01*
X134250591Y-79638721D01*
X134282114Y-79584262D01*
X134313382Y-79493390D01*
X134334294Y-79384978D01*
X134344603Y-79262244D01*
X134344064Y-79128408D01*
X134332430Y-78986691D01*
X134329585Y-78963978D01*
X134294568Y-78752160D01*
X134243379Y-78526325D01*
X134176523Y-78288428D01*
X134094501Y-78040425D01*
X134083982Y-78010962D01*
X134017150Y-77825191D01*
X133890773Y-77820921D01*
X133890773Y-77770000D01*
X133954728Y-77770000D01*
X133954728Y-75226472D01*
X133830287Y-75233592D01*
X133763060Y-75239453D01*
X133763060Y-75183748D01*
X134012174Y-75178046D01*
X134030811Y-75131864D01*
X134058222Y-75060516D01*
X134089564Y-74973276D01*
X134122685Y-74876527D01*
X134155429Y-74776650D01*
X134185644Y-74680028D01*
X134203118Y-74621265D01*
X134260255Y-74406709D01*
X134302908Y-74207391D01*
X134331017Y-74023818D01*
X134344517Y-73856500D01*
X134343349Y-73705944D01*
X134329447Y-73583710D01*
X134307479Y-73487073D01*
X134277436Y-73408128D01*
X134237114Y-73342235D01*
X134190006Y-73290058D01*
X134107281Y-73225882D01*
X134013726Y-73180181D01*
X133907928Y-73152505D01*
X133788470Y-73142403D01*
X133729811Y-73143474D01*
X133588035Y-73159335D01*
X133460390Y-73193045D01*
X133347166Y-73244494D01*
X133248656Y-73313573D01*
X133230306Y-73329902D01*
X133185713Y-73372732D01*
X133157447Y-73405205D01*
X133143813Y-73431400D01*
X133143112Y-73455395D01*
X133153650Y-73481266D01*
X133161713Y-73494774D01*
X133188662Y-73541056D01*
X133222084Y-73604070D01*
X133259719Y-73679175D01*
X133299303Y-73761728D01*
X133338574Y-73847088D01*
X133375271Y-73930613D01*
X133383239Y-73949381D01*
X133420633Y-74042861D01*
X133461571Y-74153471D01*
X133504679Y-74276834D01*
X133548584Y-74408570D01*
X133591912Y-74544302D01*
X133633289Y-74679651D01*
X133671341Y-74810237D01*
X133704694Y-74931683D01*
X133731975Y-75039610D01*
X133748683Y-75114141D01*
X133763060Y-75183748D01*
X133763060Y-75239453D01*
X133753895Y-75240253D01*
X133667625Y-75251465D01*
X133579964Y-75265853D01*
X133499400Y-75282039D01*
X133440955Y-75296724D01*
X133406319Y-75306707D01*
X133406319Y-77694304D01*
X133510228Y-77720268D01*
X133598477Y-77739110D01*
X133695531Y-77754501D01*
X133791740Y-77765180D01*
X133877451Y-77769885D01*
X133890773Y-77770000D01*
X133890773Y-77820921D01*
X133764228Y-77816645D01*
X133736895Y-77934754D01*
X133720410Y-78001797D01*
X133698273Y-78085737D01*
X133671947Y-78181508D01*
X133642901Y-78284040D01*
X133612598Y-78388267D01*
X133582507Y-78489119D01*
X133554092Y-78581530D01*
X133528820Y-78660431D01*
X133515696Y-78699409D01*
X133471175Y-78823182D01*
X133422730Y-78948985D01*
X133372035Y-79072984D01*
X133320767Y-79191345D01*
X133270601Y-79300235D01*
X133223212Y-79395820D01*
X133180275Y-79474265D01*
X133168554Y-79493815D01*
X133149909Y-79527147D01*
X133142358Y-79553530D01*
X133147357Y-79578126D01*
X133166363Y-79606096D01*
X133200832Y-79642603D01*
X133214282Y-79655870D01*
X133309128Y-79732717D01*
X133418026Y-79791358D01*
X133540673Y-79831675D01*
X133676766Y-79853547D01*
X133723819Y-79856664D01*
X133820836Y-79857374D01*
X133820836Y-79911475D01*
X133754894Y-79914734D01*
X133718046Y-79913307D01*
X133580679Y-79896132D01*
X133452052Y-79861188D01*
X133334840Y-79809573D01*
X133231716Y-79742385D01*
X133171619Y-79688985D01*
X133139059Y-79656900D01*
X133113101Y-79632792D01*
X133097552Y-79620127D01*
X133094895Y-79619139D01*
X133086909Y-79629500D01*
X133068322Y-79654289D01*
X133042238Y-79689354D01*
X133022438Y-79716089D01*
X132961203Y-79792731D01*
X132894100Y-79866118D01*
X132825854Y-79931605D01*
X132761184Y-79984547D01*
X132724148Y-80009522D01*
X132625261Y-80056269D01*
X132519820Y-80082294D01*
X132428698Y-80087290D01*
X132428698Y-80031475D01*
X132460394Y-80030831D01*
X132515291Y-80027441D01*
X132556568Y-80021365D01*
X132593692Y-80010236D01*
X132636134Y-79991685D01*
X132656403Y-79981814D01*
X132748295Y-79925027D01*
X132840169Y-79845829D01*
X132931635Y-79744895D01*
X133022299Y-79622901D01*
X133111771Y-79480524D01*
X133199659Y-79318440D01*
X133285571Y-79137324D01*
X133369116Y-78937852D01*
X133449901Y-78720702D01*
X133527535Y-78486548D01*
X133533164Y-78468500D01*
X133553987Y-78399652D01*
X133576095Y-78323419D01*
X133598684Y-78242903D01*
X133620951Y-78161204D01*
X133642094Y-78081421D01*
X133661309Y-78006657D01*
X133677795Y-77940011D01*
X133690747Y-77884584D01*
X133699364Y-77843476D01*
X133702841Y-77819788D01*
X133702301Y-77815331D01*
X133688430Y-77810525D01*
X133657156Y-77803023D01*
X133613834Y-77794048D01*
X133585273Y-77788644D01*
X133523924Y-77775538D01*
X133452675Y-77757466D01*
X133383276Y-77737498D01*
X133355882Y-77728744D01*
X133236173Y-77688907D01*
X133231736Y-77690922D01*
X133231736Y-75312285D01*
X133341244Y-75275972D01*
X133408541Y-75255060D01*
X133479266Y-75235473D01*
X133548020Y-75218489D01*
X133609401Y-75205382D01*
X133658011Y-75197429D01*
X133681301Y-75195614D01*
X133704155Y-75192362D01*
X133709081Y-75180720D01*
X133707791Y-75175159D01*
X133702968Y-75157179D01*
X133693763Y-75121314D01*
X133681327Y-75072096D01*
X133666807Y-75014058D01*
X133660216Y-74987546D01*
X133594106Y-74736900D01*
X133523487Y-74499038D01*
X133448828Y-74274884D01*
X133370599Y-74065359D01*
X133289271Y-73871386D01*
X133205311Y-73693887D01*
X133119190Y-73533784D01*
X133031377Y-73391999D01*
X132942341Y-73269455D01*
X132852553Y-73167073D01*
X132762482Y-73085777D01*
X132672596Y-73026489D01*
X132658060Y-73019006D01*
X132611304Y-72997171D01*
X132572763Y-72983468D01*
X132533013Y-72975525D01*
X132482632Y-72970973D01*
X132462596Y-72969839D01*
X132339396Y-72974816D01*
X132218093Y-73002325D01*
X132099913Y-73051818D01*
X131986079Y-73122746D01*
X131877816Y-73214561D01*
X131846936Y-73245750D01*
X131755110Y-73354640D01*
X131681317Y-73468737D01*
X131626285Y-73585887D01*
X131590743Y-73703936D01*
X131575421Y-73820732D01*
X131581048Y-73934119D01*
X131593438Y-73994636D01*
X131634032Y-74106690D01*
X131696846Y-74221264D01*
X131781216Y-74337794D01*
X131886476Y-74455717D01*
X132011964Y-74574467D01*
X132157014Y-74693480D01*
X132320963Y-74812193D01*
X132503146Y-74930040D01*
X132702899Y-75046458D01*
X132919558Y-75160882D01*
X133030391Y-75215425D01*
X133231736Y-75312285D01*
X133231736Y-77690922D01*
X133119200Y-77742049D01*
X132903905Y-77844968D01*
X132701117Y-77952176D01*
X132511828Y-78062851D01*
X132337030Y-78176172D01*
X132177714Y-78291318D01*
X132034873Y-78407468D01*
X131909498Y-78523800D01*
X131802582Y-78639494D01*
X131715115Y-78753727D01*
X131648091Y-78865680D01*
X131602500Y-78974530D01*
X131593438Y-79005364D01*
X131575901Y-79115938D01*
X131579716Y-79231113D01*
X131604154Y-79348734D01*
X131648486Y-79466648D01*
X131711983Y-79582701D01*
X131793916Y-79694740D01*
X131846936Y-79754250D01*
X131953518Y-79852283D01*
X132066197Y-79929568D01*
X132183761Y-79985559D01*
X132304999Y-80019710D01*
X132428698Y-80031475D01*
X132428698Y-80087290D01*
X132409826Y-80088325D01*
X132297277Y-80075091D01*
X132184172Y-80043319D01*
X132072512Y-79993736D01*
X131964294Y-79927071D01*
X131861519Y-79844052D01*
X131766185Y-79745405D01*
X131680291Y-79631858D01*
X131678271Y-79628818D01*
X131605441Y-79503531D01*
X131554719Y-79380454D01*
X131526203Y-79258981D01*
X131519991Y-79138509D01*
X131536180Y-79018432D01*
X131574869Y-78898146D01*
X131636155Y-78777046D01*
X131720138Y-78654528D01*
X131826913Y-78529987D01*
X131862274Y-78493285D01*
X131985504Y-78376664D01*
X132121933Y-78263590D01*
X132273333Y-78152878D01*
X132441473Y-78043339D01*
X132628125Y-77933786D01*
X132835058Y-77823032D01*
X132942009Y-77769145D01*
X133170426Y-77656125D01*
X133080554Y-77609291D01*
X133026225Y-77578495D01*
X132966059Y-77540587D01*
X132912031Y-77503155D01*
X132906212Y-77498816D01*
X132821741Y-77435175D01*
X132784984Y-77462751D01*
X132688878Y-77521033D01*
X132581090Y-77561938D01*
X132466923Y-77583733D01*
X132405066Y-77586945D01*
X132395419Y-77586541D01*
X132395419Y-77535960D01*
X132504092Y-77526154D01*
X132609498Y-77495446D01*
X132710166Y-77444929D01*
X132804621Y-77375696D01*
X132891391Y-77288840D01*
X132969002Y-77185456D01*
X133035983Y-77066635D01*
X133090859Y-76933472D01*
X133094423Y-76923003D01*
X133118909Y-76843148D01*
X133136303Y-76768002D01*
X133147415Y-76691285D01*
X133153053Y-76606710D01*
X133154028Y-76507997D01*
X133153341Y-76465364D01*
X133151127Y-76387152D01*
X133147841Y-76325950D01*
X133142791Y-76275679D01*
X133135286Y-76230261D01*
X133124634Y-76183617D01*
X133118667Y-76160752D01*
X133072409Y-76019720D01*
X133013494Y-75892010D01*
X132943288Y-75778745D01*
X132863159Y-75681048D01*
X132774475Y-75600040D01*
X132678601Y-75536845D01*
X132576906Y-75492584D01*
X132470757Y-75468381D01*
X132361520Y-75465357D01*
X132284954Y-75476230D01*
X132173780Y-75511443D01*
X132069313Y-75567618D01*
X131972836Y-75643274D01*
X131885635Y-75736926D01*
X131808997Y-75847093D01*
X131744206Y-75972291D01*
X131692548Y-76111038D01*
X131672657Y-76182565D01*
X131660373Y-76234349D01*
X131651717Y-76279002D01*
X131646071Y-76322710D01*
X131642820Y-76371655D01*
X131641348Y-76432022D01*
X131641035Y-76500000D01*
X131641454Y-76575828D01*
X131643121Y-76634778D01*
X131646649Y-76683055D01*
X131652654Y-76726862D01*
X131661749Y-76772404D01*
X131672464Y-76817500D01*
X131717080Y-76962194D01*
X131775533Y-77094078D01*
X131846534Y-77211668D01*
X131928798Y-77313482D01*
X132021038Y-77398035D01*
X132121968Y-77463844D01*
X132230302Y-77509426D01*
X132284954Y-77523770D01*
X132395419Y-77535960D01*
X132395419Y-77586541D01*
X132320109Y-77583385D01*
X132245900Y-77570732D01*
X132172422Y-77546671D01*
X132109279Y-77518545D01*
X132044292Y-77480207D01*
X131974153Y-77427199D01*
X131905016Y-77364982D01*
X131843036Y-77299018D01*
X131801468Y-77245379D01*
X131757732Y-77181877D01*
X131710343Y-77211307D01*
X131587960Y-77275382D01*
X131472455Y-77315808D01*
X131409787Y-77327612D01*
X131331715Y-77334802D01*
X131245462Y-77337383D01*
X131158249Y-77335358D01*
X131077298Y-77328733D01*
X131009829Y-77317510D01*
X131001771Y-77315547D01*
X130917860Y-77294048D01*
X130894450Y-77323808D01*
X130856554Y-77355103D01*
X130810078Y-77368873D01*
X130793355Y-77367730D01*
X130793355Y-77319727D01*
X130820115Y-77310207D01*
X130847132Y-77286971D01*
X130866780Y-77258005D01*
X130872091Y-77237292D01*
X130864409Y-77210612D01*
X130846988Y-77184812D01*
X130813487Y-77163044D01*
X130777009Y-77159999D01*
X130743629Y-77173306D01*
X130719423Y-77200596D01*
X130710455Y-77238071D01*
X130720588Y-77271185D01*
X130745871Y-77300241D01*
X130778631Y-77317681D01*
X130793355Y-77319727D01*
X130793355Y-77367730D01*
X130760995Y-77365518D01*
X130715281Y-77345439D01*
X130679127Y-77309361D01*
X130657224Y-77264231D01*
X130655593Y-77219850D01*
X130670938Y-77175160D01*
X130699189Y-77139173D01*
X130741053Y-77112432D01*
X130787339Y-77100564D01*
X130793018Y-77100407D01*
X130835048Y-77110708D01*
X130875474Y-77137735D01*
X130906889Y-77175862D01*
X130915417Y-77193329D01*
X130929314Y-77221895D01*
X130947830Y-77239711D01*
X130978772Y-77253326D01*
X130992216Y-77257751D01*
X131044140Y-77269308D01*
X131112171Y-77277432D01*
X131189554Y-77281948D01*
X131269535Y-77282678D01*
X131345360Y-77279447D01*
X131410275Y-77272077D01*
X131426273Y-77269104D01*
X131469706Y-77257296D01*
X131521690Y-77239040D01*
X131576706Y-77216774D01*
X131629238Y-77192936D01*
X131673769Y-77169964D01*
X131704781Y-77150298D01*
X131713911Y-77141975D01*
X131715922Y-77123931D01*
X131706792Y-77087414D01*
X131686330Y-77031675D01*
X131685209Y-77028876D01*
X131628002Y-76856342D01*
X131593434Y-76681043D01*
X131581505Y-76504425D01*
X131592214Y-76327938D01*
X131625560Y-76153028D01*
X131681543Y-75981143D01*
X131685721Y-75970714D01*
X131726196Y-75870773D01*
X131697536Y-75847307D01*
X131666002Y-75824489D01*
X131618665Y-75793954D01*
X131560305Y-75758452D01*
X131495701Y-75720731D01*
X131429633Y-75683539D01*
X131366882Y-75649624D01*
X131312228Y-75621737D01*
X131276182Y-75605026D01*
X131115435Y-75547717D01*
X130941550Y-75506861D01*
X130757437Y-75482308D01*
X130566006Y-75473909D01*
X130370166Y-75481512D01*
X130172826Y-75504968D01*
X129976897Y-75544126D01*
X129785288Y-75598837D01*
X129600908Y-75668950D01*
X129544364Y-75694401D01*
X129494997Y-75717961D01*
X129462296Y-75735595D01*
X129441861Y-75750835D01*
X129429291Y-75767214D01*
X129420188Y-75788261D01*
X129417364Y-75796340D01*
X129393175Y-75840748D01*
X129357209Y-75875871D01*
X129315794Y-75896438D01*
X129293288Y-75899636D01*
X129275694Y-75895926D01*
X129275694Y-75840335D01*
X129311046Y-75837479D01*
X129342990Y-75816508D01*
X129347253Y-75811489D01*
X129367768Y-75774763D01*
X129366362Y-75741807D01*
X129342866Y-75708635D01*
X129342843Y-75708612D01*
X129309669Y-75685101D01*
X129276715Y-75683681D01*
X129239993Y-75704181D01*
X129239966Y-75704202D01*
X129214496Y-75736070D01*
X129209546Y-75761929D01*
X129218908Y-75800387D01*
X129242969Y-75827247D01*
X129275694Y-75840335D01*
X129275694Y-75895926D01*
X129242695Y-75888966D01*
X129198985Y-75860305D01*
X129167184Y-75818680D01*
X129152318Y-75769116D01*
X129151819Y-75758167D01*
X129161728Y-75718876D01*
G37*
X129161728Y-75718876D02*
X129187377Y-75679934D01*
X129222650Y-75649134D01*
X129246443Y-75637619D01*
X129296169Y-75630619D01*
X129344164Y-75639960D01*
X129382547Y-75663709D01*
X129390772Y-75673037D01*
X129410690Y-75699443D01*
X129538141Y-75639152D01*
X129734093Y-75557941D01*
X129938313Y-75496067D01*
X130152394Y-75453200D01*
X130377926Y-75429007D01*
X130577682Y-75422876D01*
X130724672Y-75426288D01*
X130854827Y-75436563D01*
X130973574Y-75454437D01*
X131086342Y-75480646D01*
X131154955Y-75501185D01*
X131236987Y-75531632D01*
X131330997Y-75573048D01*
X131430665Y-75622314D01*
X131529672Y-75676316D01*
X131617323Y-75729143D01*
X131663729Y-75758679D01*
X131703479Y-75783944D01*
X131732246Y-75802190D01*
X131745534Y-75810566D01*
X131757729Y-75805679D01*
X131777895Y-75785462D01*
X131801472Y-75754614D01*
X131852845Y-75689691D01*
X131916479Y-75623984D01*
X131986221Y-75562953D01*
X132055915Y-75512063D01*
X132109279Y-75481455D01*
X132189128Y-75446905D01*
X132261905Y-75425567D01*
X132337629Y-75415126D01*
X132405066Y-75413055D01*
X132520467Y-75423914D01*
X132632328Y-75454812D01*
X132735343Y-75504013D01*
X132784984Y-75537250D01*
X132821741Y-75564825D01*
X132902894Y-75503775D01*
X132954242Y-75467745D01*
X133014339Y-75429387D01*
X133071117Y-75396366D01*
X133077014Y-75393190D01*
X133169982Y-75343655D01*
X132941786Y-75230745D01*
X132726784Y-75120258D01*
X132532834Y-75011757D01*
X132358121Y-74904018D01*
X132200830Y-74795815D01*
X132059147Y-74685925D01*
X131931257Y-74573122D01*
X131852605Y-74495533D01*
X131741502Y-74371050D01*
X131652962Y-74249800D01*
X131586836Y-74130840D01*
X131542977Y-74013230D01*
X131521236Y-73896028D01*
X131521466Y-73778293D01*
X131543519Y-73659083D01*
X131587246Y-73537458D01*
X131652499Y-73412476D01*
X131676265Y-73374165D01*
X131758565Y-73261954D01*
X131851205Y-73163907D01*
X131952068Y-73080801D01*
X132059035Y-73013409D01*
X132169990Y-72962508D01*
X132282815Y-72928873D01*
X132395393Y-72913279D01*
X132505605Y-72916501D01*
X132611335Y-72939315D01*
X132710464Y-72982496D01*
X132724138Y-72990478D01*
X132782863Y-73032217D01*
X132848425Y-73089433D01*
X132916194Y-73157565D01*
X132981537Y-73232049D01*
X133022663Y-73284591D01*
X133051978Y-73323981D01*
X133075822Y-73355838D01*
X133091072Y-73376001D01*
X133094895Y-73380861D01*
X133103996Y-73374964D01*
X133125315Y-73355893D01*
X133155066Y-73327123D01*
X133171619Y-73310491D01*
X133253170Y-73242090D01*
X133351565Y-73183542D01*
X133461991Y-73136696D01*
X133579634Y-73103402D01*
X133699678Y-73085507D01*
X133764228Y-73082898D01*
X133881577Y-73091870D01*
X133992330Y-73117650D01*
X134093721Y-73158750D01*
X134182986Y-73213683D01*
X134257360Y-73280962D01*
X134314077Y-73359097D01*
X134328107Y-73386281D01*
X134365839Y-73490913D01*
X134389603Y-73613134D01*
X134399491Y-73752216D01*
X134395596Y-73907434D01*
X134378011Y-74078060D01*
X134346829Y-74263367D01*
X134302142Y-74462628D01*
X134244044Y-74675117D01*
X134172626Y-74900107D01*
X134113046Y-75069337D01*
X134072564Y-75179992D01*
X134218578Y-75204134D01*
X134413354Y-75246970D01*
X134595947Y-75309236D01*
X134767293Y-75391360D01*
X134928329Y-75493769D01*
X135034228Y-75576742D01*
X135147279Y-75685178D01*
X135246765Y-75806143D01*
X135330581Y-75936178D01*
X135396622Y-76071825D01*
X135442784Y-76209626D01*
X135456334Y-76270469D01*
X135463931Y-76310454D01*
X135470106Y-76341774D01*
X135473255Y-76356486D01*
X135484969Y-76364312D01*
X135514497Y-76376416D01*
X135557339Y-76391127D01*
X135607452Y-76406333D01*
X135666365Y-76423191D01*
X135723781Y-76439624D01*
X135772257Y-76453500D01*
X135799114Y-76461189D01*
X135836932Y-76474372D01*
X135855729Y-76487742D01*
X135859728Y-76500000D01*
X135853083Y-76515288D01*
X135830514Y-76528404D01*
X135799114Y-76538811D01*
X135762807Y-76549206D01*
X135711743Y-76563822D01*
X135653364Y-76580529D01*
X135607452Y-76593667D01*
X135555982Y-76609311D01*
X135513455Y-76623971D01*
X135484371Y-76635977D01*
X135473255Y-76643515D01*
X135469615Y-76660656D01*
X135463240Y-76693130D01*
X135456334Y-76729531D01*
X135419651Y-76867186D01*
X135362154Y-77004219D01*
X135285947Y-77137175D01*
X135193133Y-77262596D01*
X135085815Y-77377026D01*
X135034228Y-77423269D01*
X134880330Y-77539030D01*
X134714564Y-77635257D01*
X134536622Y-77712083D01*
X134511796Y-77719586D01*
X134511796Y-77665985D01*
X134530696Y-77660628D01*
X134565300Y-77646181D01*
X134611187Y-77624874D01*
X134663934Y-77598933D01*
X134719118Y-77570588D01*
X134772316Y-77542066D01*
X134819106Y-77515595D01*
X134855066Y-77493403D01*
X134857185Y-77491985D01*
X134904438Y-77458579D01*
X134954363Y-77420872D01*
X134990932Y-77391354D01*
X135051546Y-77340013D01*
X135051546Y-75658967D01*
X134990932Y-75607559D01*
X134932196Y-75561570D01*
X134862985Y-75513498D01*
X134788071Y-75466112D01*
X134712231Y-75422181D01*
X134640238Y-75384477D01*
X134576867Y-75355767D01*
X134528255Y-75339159D01*
X134497364Y-75331406D01*
X134497364Y-76498749D01*
X134497416Y-76695644D01*
X134497583Y-76870570D01*
X134497878Y-77024648D01*
X134498316Y-77159000D01*
X134498909Y-77274746D01*
X134499671Y-77373009D01*
X134500618Y-77454910D01*
X134501762Y-77521570D01*
X134503117Y-77574111D01*
X134504698Y-77613653D01*
X134506517Y-77641319D01*
X134508590Y-77658229D01*
X134510930Y-77665506D01*
X134511796Y-77665985D01*
X134511796Y-77719586D01*
X134346195Y-77769640D01*
X134142973Y-77808059D01*
X134125739Y-77810363D01*
X134071614Y-77817382D01*
X134112882Y-77929350D01*
X134183029Y-78129865D01*
X134244185Y-78325759D01*
X134295944Y-78515000D01*
X134337898Y-78695555D01*
X134369639Y-78865393D01*
X134390760Y-79022479D01*
X134400853Y-79164783D01*
X134399511Y-79290271D01*
X134395344Y-79338314D01*
X134375638Y-79462090D01*
X134346125Y-79566609D01*
X134305450Y-79654103D01*
X134252259Y-79726803D01*
X134185198Y-79786941D01*
X134102914Y-79836747D01*
X134088582Y-79843746D01*
X133981123Y-79885695D01*
X133872110Y-79908942D01*
X133820836Y-79911475D01*
X133820836Y-79857374D01*
X133903928Y-79849051D01*
X133980954Y-79830314D01*
X134059775Y-79799783D01*
X134067326Y-79796364D01*
X134134464Y-79756270D01*
X134197768Y-79701534D01*
X134250591Y-79638721D01*
X134282114Y-79584262D01*
X134313382Y-79493390D01*
X134334294Y-79384978D01*
X134344603Y-79262244D01*
X134344064Y-79128408D01*
X134332430Y-78986691D01*
X134329585Y-78963978D01*
X134294568Y-78752160D01*
X134243379Y-78526325D01*
X134176523Y-78288428D01*
X134094501Y-78040425D01*
X134083982Y-78010962D01*
X134017150Y-77825191D01*
X133890773Y-77820921D01*
X133890773Y-77770000D01*
X133954728Y-77770000D01*
X133954728Y-75226472D01*
X133830287Y-75233592D01*
X133763060Y-75239453D01*
X133763060Y-75183748D01*
X134012174Y-75178046D01*
X134030811Y-75131864D01*
X134058222Y-75060516D01*
X134089564Y-74973276D01*
X134122685Y-74876527D01*
X134155429Y-74776650D01*
X134185644Y-74680028D01*
X134203118Y-74621265D01*
X134260255Y-74406709D01*
X134302908Y-74207391D01*
X134331017Y-74023818D01*
X134344517Y-73856500D01*
X134343349Y-73705944D01*
X134329447Y-73583710D01*
X134307479Y-73487073D01*
X134277436Y-73408128D01*
X134237114Y-73342235D01*
X134190006Y-73290058D01*
X134107281Y-73225882D01*
X134013726Y-73180181D01*
X133907928Y-73152505D01*
X133788470Y-73142403D01*
X133729811Y-73143474D01*
X133588035Y-73159335D01*
X133460390Y-73193045D01*
X133347166Y-73244494D01*
X133248656Y-73313573D01*
X133230306Y-73329902D01*
X133185713Y-73372732D01*
X133157447Y-73405205D01*
X133143813Y-73431400D01*
X133143112Y-73455395D01*
X133153650Y-73481266D01*
X133161713Y-73494774D01*
X133188662Y-73541056D01*
X133222084Y-73604070D01*
X133259719Y-73679175D01*
X133299303Y-73761728D01*
X133338574Y-73847088D01*
X133375271Y-73930613D01*
X133383239Y-73949381D01*
X133420633Y-74042861D01*
X133461571Y-74153471D01*
X133504679Y-74276834D01*
X133548584Y-74408570D01*
X133591912Y-74544302D01*
X133633289Y-74679651D01*
X133671341Y-74810237D01*
X133704694Y-74931683D01*
X133731975Y-75039610D01*
X133748683Y-75114141D01*
X133763060Y-75183748D01*
X133763060Y-75239453D01*
X133753895Y-75240253D01*
X133667625Y-75251465D01*
X133579964Y-75265853D01*
X133499400Y-75282039D01*
X133440955Y-75296724D01*
X133406319Y-75306707D01*
X133406319Y-77694304D01*
X133510228Y-77720268D01*
X133598477Y-77739110D01*
X133695531Y-77754501D01*
X133791740Y-77765180D01*
X133877451Y-77769885D01*
X133890773Y-77770000D01*
X133890773Y-77820921D01*
X133764228Y-77816645D01*
X133736895Y-77934754D01*
X133720410Y-78001797D01*
X133698273Y-78085737D01*
X133671947Y-78181508D01*
X133642901Y-78284040D01*
X133612598Y-78388267D01*
X133582507Y-78489119D01*
X133554092Y-78581530D01*
X133528820Y-78660431D01*
X133515696Y-78699409D01*
X133471175Y-78823182D01*
X133422730Y-78948985D01*
X133372035Y-79072984D01*
X133320767Y-79191345D01*
X133270601Y-79300235D01*
X133223212Y-79395820D01*
X133180275Y-79474265D01*
X133168554Y-79493815D01*
X133149909Y-79527147D01*
X133142358Y-79553530D01*
X133147357Y-79578126D01*
X133166363Y-79606096D01*
X133200832Y-79642603D01*
X133214282Y-79655870D01*
X133309128Y-79732717D01*
X133418026Y-79791358D01*
X133540673Y-79831675D01*
X133676766Y-79853547D01*
X133723819Y-79856664D01*
X133820836Y-79857374D01*
X133820836Y-79911475D01*
X133754894Y-79914734D01*
X133718046Y-79913307D01*
X133580679Y-79896132D01*
X133452052Y-79861188D01*
X133334840Y-79809573D01*
X133231716Y-79742385D01*
X133171619Y-79688985D01*
X133139059Y-79656900D01*
X133113101Y-79632792D01*
X133097552Y-79620127D01*
X133094895Y-79619139D01*
X133086909Y-79629500D01*
X133068322Y-79654289D01*
X133042238Y-79689354D01*
X133022438Y-79716089D01*
X132961203Y-79792731D01*
X132894100Y-79866118D01*
X132825854Y-79931605D01*
X132761184Y-79984547D01*
X132724148Y-80009522D01*
X132625261Y-80056269D01*
X132519820Y-80082294D01*
X132428698Y-80087290D01*
X132428698Y-80031475D01*
X132460394Y-80030831D01*
X132515291Y-80027441D01*
X132556568Y-80021365D01*
X132593692Y-80010236D01*
X132636134Y-79991685D01*
X132656403Y-79981814D01*
X132748295Y-79925027D01*
X132840169Y-79845829D01*
X132931635Y-79744895D01*
X133022299Y-79622901D01*
X133111771Y-79480524D01*
X133199659Y-79318440D01*
X133285571Y-79137324D01*
X133369116Y-78937852D01*
X133449901Y-78720702D01*
X133527535Y-78486548D01*
X133533164Y-78468500D01*
X133553987Y-78399652D01*
X133576095Y-78323419D01*
X133598684Y-78242903D01*
X133620951Y-78161204D01*
X133642094Y-78081421D01*
X133661309Y-78006657D01*
X133677795Y-77940011D01*
X133690747Y-77884584D01*
X133699364Y-77843476D01*
X133702841Y-77819788D01*
X133702301Y-77815331D01*
X133688430Y-77810525D01*
X133657156Y-77803023D01*
X133613834Y-77794048D01*
X133585273Y-77788644D01*
X133523924Y-77775538D01*
X133452675Y-77757466D01*
X133383276Y-77737498D01*
X133355882Y-77728744D01*
X133236173Y-77688907D01*
X133231736Y-77690922D01*
X133231736Y-75312285D01*
X133341244Y-75275972D01*
X133408541Y-75255060D01*
X133479266Y-75235473D01*
X133548020Y-75218489D01*
X133609401Y-75205382D01*
X133658011Y-75197429D01*
X133681301Y-75195614D01*
X133704155Y-75192362D01*
X133709081Y-75180720D01*
X133707791Y-75175159D01*
X133702968Y-75157179D01*
X133693763Y-75121314D01*
X133681327Y-75072096D01*
X133666807Y-75014058D01*
X133660216Y-74987546D01*
X133594106Y-74736900D01*
X133523487Y-74499038D01*
X133448828Y-74274884D01*
X133370599Y-74065359D01*
X133289271Y-73871386D01*
X133205311Y-73693887D01*
X133119190Y-73533784D01*
X133031377Y-73391999D01*
X132942341Y-73269455D01*
X132852553Y-73167073D01*
X132762482Y-73085777D01*
X132672596Y-73026489D01*
X132658060Y-73019006D01*
X132611304Y-72997171D01*
X132572763Y-72983468D01*
X132533013Y-72975525D01*
X132482632Y-72970973D01*
X132462596Y-72969839D01*
X132339396Y-72974816D01*
X132218093Y-73002325D01*
X132099913Y-73051818D01*
X131986079Y-73122746D01*
X131877816Y-73214561D01*
X131846936Y-73245750D01*
X131755110Y-73354640D01*
X131681317Y-73468737D01*
X131626285Y-73585887D01*
X131590743Y-73703936D01*
X131575421Y-73820732D01*
X131581048Y-73934119D01*
X131593438Y-73994636D01*
X131634032Y-74106690D01*
X131696846Y-74221264D01*
X131781216Y-74337794D01*
X131886476Y-74455717D01*
X132011964Y-74574467D01*
X132157014Y-74693480D01*
X132320963Y-74812193D01*
X132503146Y-74930040D01*
X132702899Y-75046458D01*
X132919558Y-75160882D01*
X133030391Y-75215425D01*
X133231736Y-75312285D01*
X133231736Y-77690922D01*
X133119200Y-77742049D01*
X132903905Y-77844968D01*
X132701117Y-77952176D01*
X132511828Y-78062851D01*
X132337030Y-78176172D01*
X132177714Y-78291318D01*
X132034873Y-78407468D01*
X131909498Y-78523800D01*
X131802582Y-78639494D01*
X131715115Y-78753727D01*
X131648091Y-78865680D01*
X131602500Y-78974530D01*
X131593438Y-79005364D01*
X131575901Y-79115938D01*
X131579716Y-79231113D01*
X131604154Y-79348734D01*
X131648486Y-79466648D01*
X131711983Y-79582701D01*
X131793916Y-79694740D01*
X131846936Y-79754250D01*
X131953518Y-79852283D01*
X132066197Y-79929568D01*
X132183761Y-79985559D01*
X132304999Y-80019710D01*
X132428698Y-80031475D01*
X132428698Y-80087290D01*
X132409826Y-80088325D01*
X132297277Y-80075091D01*
X132184172Y-80043319D01*
X132072512Y-79993736D01*
X131964294Y-79927071D01*
X131861519Y-79844052D01*
X131766185Y-79745405D01*
X131680291Y-79631858D01*
X131678271Y-79628818D01*
X131605441Y-79503531D01*
X131554719Y-79380454D01*
X131526203Y-79258981D01*
X131519991Y-79138509D01*
X131536180Y-79018432D01*
X131574869Y-78898146D01*
X131636155Y-78777046D01*
X131720138Y-78654528D01*
X131826913Y-78529987D01*
X131862274Y-78493285D01*
X131985504Y-78376664D01*
X132121933Y-78263590D01*
X132273333Y-78152878D01*
X132441473Y-78043339D01*
X132628125Y-77933786D01*
X132835058Y-77823032D01*
X132942009Y-77769145D01*
X133170426Y-77656125D01*
X133080554Y-77609291D01*
X133026225Y-77578495D01*
X132966059Y-77540587D01*
X132912031Y-77503155D01*
X132906212Y-77498816D01*
X132821741Y-77435175D01*
X132784984Y-77462751D01*
X132688878Y-77521033D01*
X132581090Y-77561938D01*
X132466923Y-77583733D01*
X132405066Y-77586945D01*
X132395419Y-77586541D01*
X132395419Y-77535960D01*
X132504092Y-77526154D01*
X132609498Y-77495446D01*
X132710166Y-77444929D01*
X132804621Y-77375696D01*
X132891391Y-77288840D01*
X132969002Y-77185456D01*
X133035983Y-77066635D01*
X133090859Y-76933472D01*
X133094423Y-76923003D01*
X133118909Y-76843148D01*
X133136303Y-76768002D01*
X133147415Y-76691285D01*
X133153053Y-76606710D01*
X133154028Y-76507997D01*
X133153341Y-76465364D01*
X133151127Y-76387152D01*
X133147841Y-76325950D01*
X133142791Y-76275679D01*
X133135286Y-76230261D01*
X133124634Y-76183617D01*
X133118667Y-76160752D01*
X133072409Y-76019720D01*
X133013494Y-75892010D01*
X132943288Y-75778745D01*
X132863159Y-75681048D01*
X132774475Y-75600040D01*
X132678601Y-75536845D01*
X132576906Y-75492584D01*
X132470757Y-75468381D01*
X132361520Y-75465357D01*
X132284954Y-75476230D01*
X132173780Y-75511443D01*
X132069313Y-75567618D01*
X131972836Y-75643274D01*
X131885635Y-75736926D01*
X131808997Y-75847093D01*
X131744206Y-75972291D01*
X131692548Y-76111038D01*
X131672657Y-76182565D01*
X131660373Y-76234349D01*
X131651717Y-76279002D01*
X131646071Y-76322710D01*
X131642820Y-76371655D01*
X131641348Y-76432022D01*
X131641035Y-76500000D01*
X131641454Y-76575828D01*
X131643121Y-76634778D01*
X131646649Y-76683055D01*
X131652654Y-76726862D01*
X131661749Y-76772404D01*
X131672464Y-76817500D01*
X131717080Y-76962194D01*
X131775533Y-77094078D01*
X131846534Y-77211668D01*
X131928798Y-77313482D01*
X132021038Y-77398035D01*
X132121968Y-77463844D01*
X132230302Y-77509426D01*
X132284954Y-77523770D01*
X132395419Y-77535960D01*
X132395419Y-77586541D01*
X132320109Y-77583385D01*
X132245900Y-77570732D01*
X132172422Y-77546671D01*
X132109279Y-77518545D01*
X132044292Y-77480207D01*
X131974153Y-77427199D01*
X131905016Y-77364982D01*
X131843036Y-77299018D01*
X131801468Y-77245379D01*
X131757732Y-77181877D01*
X131710343Y-77211307D01*
X131587960Y-77275382D01*
X131472455Y-77315808D01*
X131409787Y-77327612D01*
X131331715Y-77334802D01*
X131245462Y-77337383D01*
X131158249Y-77335358D01*
X131077298Y-77328733D01*
X131009829Y-77317510D01*
X131001771Y-77315547D01*
X130917860Y-77294048D01*
X130894450Y-77323808D01*
X130856554Y-77355103D01*
X130810078Y-77368873D01*
X130793355Y-77367730D01*
X130793355Y-77319727D01*
X130820115Y-77310207D01*
X130847132Y-77286971D01*
X130866780Y-77258005D01*
X130872091Y-77237292D01*
X130864409Y-77210612D01*
X130846988Y-77184812D01*
X130813487Y-77163044D01*
X130777009Y-77159999D01*
X130743629Y-77173306D01*
X130719423Y-77200596D01*
X130710455Y-77238071D01*
X130720588Y-77271185D01*
X130745871Y-77300241D01*
X130778631Y-77317681D01*
X130793355Y-77319727D01*
X130793355Y-77367730D01*
X130760995Y-77365518D01*
X130715281Y-77345439D01*
X130679127Y-77309361D01*
X130657224Y-77264231D01*
X130655593Y-77219850D01*
X130670938Y-77175160D01*
X130699189Y-77139173D01*
X130741053Y-77112432D01*
X130787339Y-77100564D01*
X130793018Y-77100407D01*
X130835048Y-77110708D01*
X130875474Y-77137735D01*
X130906889Y-77175862D01*
X130915417Y-77193329D01*
X130929314Y-77221895D01*
X130947830Y-77239711D01*
X130978772Y-77253326D01*
X130992216Y-77257751D01*
X131044140Y-77269308D01*
X131112171Y-77277432D01*
X131189554Y-77281948D01*
X131269535Y-77282678D01*
X131345360Y-77279447D01*
X131410275Y-77272077D01*
X131426273Y-77269104D01*
X131469706Y-77257296D01*
X131521690Y-77239040D01*
X131576706Y-77216774D01*
X131629238Y-77192936D01*
X131673769Y-77169964D01*
X131704781Y-77150298D01*
X131713911Y-77141975D01*
X131715922Y-77123931D01*
X131706792Y-77087414D01*
X131686330Y-77031675D01*
X131685209Y-77028876D01*
X131628002Y-76856342D01*
X131593434Y-76681043D01*
X131581505Y-76504425D01*
X131592214Y-76327938D01*
X131625560Y-76153028D01*
X131681543Y-75981143D01*
X131685721Y-75970714D01*
X131726196Y-75870773D01*
X131697536Y-75847307D01*
X131666002Y-75824489D01*
X131618665Y-75793954D01*
X131560305Y-75758452D01*
X131495701Y-75720731D01*
X131429633Y-75683539D01*
X131366882Y-75649624D01*
X131312228Y-75621737D01*
X131276182Y-75605026D01*
X131115435Y-75547717D01*
X130941550Y-75506861D01*
X130757437Y-75482308D01*
X130566006Y-75473909D01*
X130370166Y-75481512D01*
X130172826Y-75504968D01*
X129976897Y-75544126D01*
X129785288Y-75598837D01*
X129600908Y-75668950D01*
X129544364Y-75694401D01*
X129494997Y-75717961D01*
X129462296Y-75735595D01*
X129441861Y-75750835D01*
X129429291Y-75767214D01*
X129420188Y-75788261D01*
X129417364Y-75796340D01*
X129393175Y-75840748D01*
X129357209Y-75875871D01*
X129315794Y-75896438D01*
X129293288Y-75899636D01*
X129275694Y-75895926D01*
X129275694Y-75840335D01*
X129311046Y-75837479D01*
X129342990Y-75816508D01*
X129347253Y-75811489D01*
X129367768Y-75774763D01*
X129366362Y-75741807D01*
X129342866Y-75708635D01*
X129342843Y-75708612D01*
X129309669Y-75685101D01*
X129276715Y-75683681D01*
X129239993Y-75704181D01*
X129239966Y-75704202D01*
X129214496Y-75736070D01*
X129209546Y-75761929D01*
X129218908Y-75800387D01*
X129242969Y-75827247D01*
X129275694Y-75840335D01*
X129275694Y-75895926D01*
X129242695Y-75888966D01*
X129198985Y-75860305D01*
X129167184Y-75818680D01*
X129152318Y-75769116D01*
X129151819Y-75758167D01*
X129161728Y-75718876D01*
D12*
X159880000Y-42130000D02*
X167120000Y-42130000D01*
X159880000Y-44870000D02*
X167120000Y-44870000D01*
X159880000Y-42130000D02*
X159880000Y-44870000D01*
X167120000Y-42130000D02*
X167120000Y-44870000D01*
X166560000Y-70960000D02*
X166560000Y-64990000D01*
X166560000Y-64990000D02*
X158940000Y-64990000D01*
X158940000Y-64990000D02*
X158940000Y-70960000D01*
X158940000Y-70960000D02*
X166560000Y-70960000D01*
X163250000Y-70950000D02*
X163250000Y-70200000D01*
X163250000Y-70200000D02*
X162250000Y-70200000D01*
X162250000Y-70200000D02*
X162250000Y-70950000D01*
X162250000Y-70950000D02*
X163250000Y-70950000D01*
X166550000Y-70950000D02*
X166550000Y-70200000D01*
X166550000Y-70200000D02*
X164750000Y-70200000D01*
X164750000Y-70200000D02*
X164750000Y-70950000D01*
X164750000Y-70950000D02*
X166550000Y-70950000D01*
X160750000Y-70950000D02*
X160750000Y-70200000D01*
X160750000Y-70200000D02*
X158950000Y-70200000D01*
X158950000Y-70200000D02*
X158950000Y-70950000D01*
X158950000Y-70950000D02*
X160750000Y-70950000D01*
X166550000Y-68700000D02*
X165800000Y-68700000D01*
X165800000Y-68700000D02*
X165800000Y-65750000D01*
X165800000Y-65750000D02*
X162750000Y-65750000D01*
X158950000Y-68700000D02*
X159700000Y-68700000D01*
X159700000Y-68700000D02*
X159700000Y-65750000D01*
X159700000Y-65750000D02*
X162750000Y-65750000D01*
X165600000Y-71250000D02*
X166850000Y-71250000D01*
X166850000Y-71250000D02*
X166850000Y-70000000D01*
X155560000Y-70960000D02*
X155560000Y-64990000D01*
X155560000Y-64990000D02*
X147940000Y-64990000D01*
X147940000Y-64990000D02*
X147940000Y-70960000D01*
X147940000Y-70960000D02*
X155560000Y-70960000D01*
X152250000Y-70950000D02*
X152250000Y-70200000D01*
X152250000Y-70200000D02*
X151250000Y-70200000D01*
X151250000Y-70200000D02*
X151250000Y-70950000D01*
X151250000Y-70950000D02*
X152250000Y-70950000D01*
X155550000Y-70950000D02*
X155550000Y-70200000D01*
X155550000Y-70200000D02*
X153750000Y-70200000D01*
X153750000Y-70200000D02*
X153750000Y-70950000D01*
X153750000Y-70950000D02*
X155550000Y-70950000D01*
X149750000Y-70950000D02*
X149750000Y-70200000D01*
X149750000Y-70200000D02*
X147950000Y-70200000D01*
X147950000Y-70200000D02*
X147950000Y-70950000D01*
X147950000Y-70950000D02*
X149750000Y-70950000D01*
X155550000Y-68700000D02*
X154800000Y-68700000D01*
X154800000Y-68700000D02*
X154800000Y-65750000D01*
X154800000Y-65750000D02*
X151750000Y-65750000D01*
X147950000Y-68700000D02*
X148700000Y-68700000D01*
X148700000Y-68700000D02*
X148700000Y-65750000D01*
X148700000Y-65750000D02*
X151750000Y-65750000D01*
X154600000Y-71250000D02*
X155850000Y-71250000D01*
X155850000Y-71250000D02*
X155850000Y-70000000D01*
X166560000Y-62960000D02*
X166560000Y-56990000D01*
X166560000Y-56990000D02*
X158940000Y-56990000D01*
X158940000Y-56990000D02*
X158940000Y-62960000D01*
X158940000Y-62960000D02*
X166560000Y-62960000D01*
X163250000Y-62950000D02*
X163250000Y-62200000D01*
X163250000Y-62200000D02*
X162250000Y-62200000D01*
X162250000Y-62200000D02*
X162250000Y-62950000D01*
X162250000Y-62950000D02*
X163250000Y-62950000D01*
X166550000Y-62950000D02*
X166550000Y-62200000D01*
X166550000Y-62200000D02*
X164750000Y-62200000D01*
X164750000Y-62200000D02*
X164750000Y-62950000D01*
X164750000Y-62950000D02*
X166550000Y-62950000D01*
X160750000Y-62950000D02*
X160750000Y-62200000D01*
X160750000Y-62200000D02*
X158950000Y-62200000D01*
X158950000Y-62200000D02*
X158950000Y-62950000D01*
X158950000Y-62950000D02*
X160750000Y-62950000D01*
X166550000Y-60700000D02*
X165800000Y-60700000D01*
X165800000Y-60700000D02*
X165800000Y-57750000D01*
X165800000Y-57750000D02*
X162750000Y-57750000D01*
X158950000Y-60700000D02*
X159700000Y-60700000D01*
X159700000Y-60700000D02*
X159700000Y-57750000D01*
X159700000Y-57750000D02*
X162750000Y-57750000D01*
X165600000Y-63250000D02*
X166850000Y-63250000D01*
X166850000Y-63250000D02*
X166850000Y-62000000D01*
X155560000Y-62960000D02*
X155560000Y-56990000D01*
X155560000Y-56990000D02*
X147940000Y-56990000D01*
X147940000Y-56990000D02*
X147940000Y-62960000D01*
X147940000Y-62960000D02*
X155560000Y-62960000D01*
X152250000Y-62950000D02*
X152250000Y-62200000D01*
X152250000Y-62200000D02*
X151250000Y-62200000D01*
X151250000Y-62200000D02*
X151250000Y-62950000D01*
X151250000Y-62950000D02*
X152250000Y-62950000D01*
X155550000Y-62950000D02*
X155550000Y-62200000D01*
X155550000Y-62200000D02*
X153750000Y-62200000D01*
X153750000Y-62200000D02*
X153750000Y-62950000D01*
X153750000Y-62950000D02*
X155550000Y-62950000D01*
X149750000Y-62950000D02*
X149750000Y-62200000D01*
X149750000Y-62200000D02*
X147950000Y-62200000D01*
X147950000Y-62200000D02*
X147950000Y-62950000D01*
X147950000Y-62950000D02*
X149750000Y-62950000D01*
X155550000Y-60700000D02*
X154800000Y-60700000D01*
X154800000Y-60700000D02*
X154800000Y-57750000D01*
X154800000Y-57750000D02*
X151750000Y-57750000D01*
X147950000Y-60700000D02*
X148700000Y-60700000D01*
X148700000Y-60700000D02*
X148700000Y-57750000D01*
X148700000Y-57750000D02*
X151750000Y-57750000D01*
X154600000Y-63250000D02*
X155850000Y-63250000D01*
X155850000Y-63250000D02*
X155850000Y-62000000D01*
D13*
G36*
X127099744Y-49419918D02*
G01*
X127155201Y-49447568D01*
X127204148Y-49498480D01*
X127217629Y-49517338D01*
X127232314Y-49542015D01*
X127241842Y-49568816D01*
X127247293Y-49604587D01*
X127249747Y-49656169D01*
X127250286Y-49724267D01*
X127247852Y-49817588D01*
X127239394Y-49887657D01*
X127223174Y-49939931D01*
X127197454Y-49979869D01*
X127160497Y-50012929D01*
X127157782Y-50014886D01*
X127121360Y-50034908D01*
X127077502Y-50044815D01*
X127021724Y-50047257D01*
X126931048Y-50047257D01*
X126931010Y-50135283D01*
X126930166Y-50184308D01*
X126925024Y-50213065D01*
X126911587Y-50230311D01*
X126885858Y-50244808D01*
X126879679Y-50247769D01*
X126850764Y-50261648D01*
X126828376Y-50270414D01*
X126811729Y-50271171D01*
X126800036Y-50261023D01*
X126792510Y-50237073D01*
X126788366Y-50196426D01*
X126786815Y-50136186D01*
X126787071Y-50053455D01*
X126788349Y-49945339D01*
X126788748Y-49913000D01*
X126790185Y-49801524D01*
X126791472Y-49728603D01*
X126930971Y-49728603D01*
X126931755Y-49790499D01*
X126935240Y-49830997D01*
X126943124Y-49857708D01*
X126957105Y-49878244D01*
X126966597Y-49888260D01*
X127005404Y-49917567D01*
X127039763Y-49919952D01*
X127075216Y-49895750D01*
X127076114Y-49894857D01*
X127090539Y-49876153D01*
X127099313Y-49850732D01*
X127103739Y-49811584D01*
X127105118Y-49751697D01*
X127105143Y-49738430D01*
X127101812Y-49655901D01*
X127090969Y-49598691D01*
X127071340Y-49563766D01*
X127041650Y-49548094D01*
X127024491Y-49546514D01*
X126983766Y-49553926D01*
X126955832Y-49578330D01*
X126939017Y-49622980D01*
X126931650Y-49691130D01*
X126930971Y-49728603D01*
X126791472Y-49728603D01*
X126791708Y-49715245D01*
X126793677Y-49650333D01*
X126796450Y-49602958D01*
X126800388Y-49569290D01*
X126805849Y-49545498D01*
X126813192Y-49527753D01*
X126822777Y-49512224D01*
X126826887Y-49506381D01*
X126881405Y-49451185D01*
X126950336Y-49419890D01*
X127030072Y-49411165D01*
X127099744Y-49419918D01*
G37*
X127099744Y-49419918D02*
X127155201Y-49447568D01*
X127204148Y-49498480D01*
X127217629Y-49517338D01*
X127232314Y-49542015D01*
X127241842Y-49568816D01*
X127247293Y-49604587D01*
X127249747Y-49656169D01*
X127250286Y-49724267D01*
X127247852Y-49817588D01*
X127239394Y-49887657D01*
X127223174Y-49939931D01*
X127197454Y-49979869D01*
X127160497Y-50012929D01*
X127157782Y-50014886D01*
X127121360Y-50034908D01*
X127077502Y-50044815D01*
X127021724Y-50047257D01*
X126931048Y-50047257D01*
X126931010Y-50135283D01*
X126930166Y-50184308D01*
X126925024Y-50213065D01*
X126911587Y-50230311D01*
X126885858Y-50244808D01*
X126879679Y-50247769D01*
X126850764Y-50261648D01*
X126828376Y-50270414D01*
X126811729Y-50271171D01*
X126800036Y-50261023D01*
X126792510Y-50237073D01*
X126788366Y-50196426D01*
X126786815Y-50136186D01*
X126787071Y-50053455D01*
X126788349Y-49945339D01*
X126788748Y-49913000D01*
X126790185Y-49801524D01*
X126791472Y-49728603D01*
X126930971Y-49728603D01*
X126931755Y-49790499D01*
X126935240Y-49830997D01*
X126943124Y-49857708D01*
X126957105Y-49878244D01*
X126966597Y-49888260D01*
X127005404Y-49917567D01*
X127039763Y-49919952D01*
X127075216Y-49895750D01*
X127076114Y-49894857D01*
X127090539Y-49876153D01*
X127099313Y-49850732D01*
X127103739Y-49811584D01*
X127105118Y-49751697D01*
X127105143Y-49738430D01*
X127101812Y-49655901D01*
X127090969Y-49598691D01*
X127071340Y-49563766D01*
X127041650Y-49548094D01*
X127024491Y-49546514D01*
X126983766Y-49553926D01*
X126955832Y-49578330D01*
X126939017Y-49622980D01*
X126931650Y-49691130D01*
X126930971Y-49728603D01*
X126791472Y-49728603D01*
X126791708Y-49715245D01*
X126793677Y-49650333D01*
X126796450Y-49602958D01*
X126800388Y-49569290D01*
X126805849Y-49545498D01*
X126813192Y-49527753D01*
X126822777Y-49512224D01*
X126826887Y-49506381D01*
X126881405Y-49451185D01*
X126950336Y-49419890D01*
X127030072Y-49411165D01*
X127099744Y-49419918D01*
G36*
X128216093Y-49427780D02*
G01*
X128262672Y-49454723D01*
X128295057Y-49481466D01*
X128318742Y-49509484D01*
X128335059Y-49543748D01*
X128345339Y-49589227D01*
X128350914Y-49650892D01*
X128353116Y-49733711D01*
X128353371Y-49793246D01*
X128353371Y-50012391D01*
X128291686Y-50040044D01*
X128230000Y-50067697D01*
X128222743Y-49827670D01*
X128219744Y-49738028D01*
X128216598Y-49672962D01*
X128212701Y-49628026D01*
X128207447Y-49598770D01*
X128200231Y-49580748D01*
X128190450Y-49569511D01*
X128187312Y-49567079D01*
X128139761Y-49548083D01*
X128091697Y-49555600D01*
X128063086Y-49575543D01*
X128051447Y-49589675D01*
X128043391Y-49608220D01*
X128038271Y-49636334D01*
X128035441Y-49679173D01*
X128034256Y-49741895D01*
X128034057Y-49807261D01*
X128034018Y-49889268D01*
X128032614Y-49947316D01*
X128027914Y-49986465D01*
X128017987Y-50011780D01*
X128000903Y-50028323D01*
X127974732Y-50041156D01*
X127939775Y-50054491D01*
X127901596Y-50069007D01*
X127906141Y-49811389D01*
X127907971Y-49718519D01*
X127910112Y-49649889D01*
X127913181Y-49600711D01*
X127917794Y-49566198D01*
X127924568Y-49541562D01*
X127934119Y-49522016D01*
X127945634Y-49504770D01*
X128001190Y-49449680D01*
X128068980Y-49417822D01*
X128142713Y-49410191D01*
X128216093Y-49427780D01*
G37*
X128216093Y-49427780D02*
X128262672Y-49454723D01*
X128295057Y-49481466D01*
X128318742Y-49509484D01*
X128335059Y-49543748D01*
X128345339Y-49589227D01*
X128350914Y-49650892D01*
X128353116Y-49733711D01*
X128353371Y-49793246D01*
X128353371Y-50012391D01*
X128291686Y-50040044D01*
X128230000Y-50067697D01*
X128222743Y-49827670D01*
X128219744Y-49738028D01*
X128216598Y-49672962D01*
X128212701Y-49628026D01*
X128207447Y-49598770D01*
X128200231Y-49580748D01*
X128190450Y-49569511D01*
X128187312Y-49567079D01*
X128139761Y-49548083D01*
X128091697Y-49555600D01*
X128063086Y-49575543D01*
X128051447Y-49589675D01*
X128043391Y-49608220D01*
X128038271Y-49636334D01*
X128035441Y-49679173D01*
X128034256Y-49741895D01*
X128034057Y-49807261D01*
X128034018Y-49889268D01*
X128032614Y-49947316D01*
X128027914Y-49986465D01*
X128017987Y-50011780D01*
X128000903Y-50028323D01*
X127974732Y-50041156D01*
X127939775Y-50054491D01*
X127901596Y-50069007D01*
X127906141Y-49811389D01*
X127907971Y-49718519D01*
X127910112Y-49649889D01*
X127913181Y-49600711D01*
X127917794Y-49566198D01*
X127924568Y-49541562D01*
X127934119Y-49522016D01*
X127945634Y-49504770D01*
X128001190Y-49449680D01*
X128068980Y-49417822D01*
X128142713Y-49410191D01*
X128216093Y-49427780D01*
G36*
X126541115Y-49421962D02*
G01*
X126609145Y-49457733D01*
X126659351Y-49515301D01*
X126677185Y-49552312D01*
X126691063Y-49607882D01*
X126698167Y-49678096D01*
X126698840Y-49754727D01*
X126693427Y-49829552D01*
X126682270Y-49894342D01*
X126665714Y-49940873D01*
X126660626Y-49948887D01*
X126600355Y-50008707D01*
X126528769Y-50044535D01*
X126451092Y-50055020D01*
X126372548Y-50038810D01*
X126350689Y-50029092D01*
X126308122Y-49999143D01*
X126270763Y-49959433D01*
X126267232Y-49954397D01*
X126252881Y-49930124D01*
X126243394Y-49904178D01*
X126237790Y-49870022D01*
X126235086Y-49821119D01*
X126234299Y-49750935D01*
X126234286Y-49735200D01*
X126234322Y-49730192D01*
X126379429Y-49730192D01*
X126380273Y-49796430D01*
X126383596Y-49840386D01*
X126390583Y-49868779D01*
X126402416Y-49888325D01*
X126408457Y-49894857D01*
X126443186Y-49919680D01*
X126476903Y-49918548D01*
X126510995Y-49897016D01*
X126531329Y-49874029D01*
X126543371Y-49840478D01*
X126550134Y-49787569D01*
X126550598Y-49781399D01*
X126551752Y-49685513D01*
X126539688Y-49614299D01*
X126514570Y-49568194D01*
X126476560Y-49547635D01*
X126462992Y-49546514D01*
X126427364Y-49552152D01*
X126402994Y-49571686D01*
X126388093Y-49609042D01*
X126380875Y-49668150D01*
X126379429Y-49730192D01*
X126234322Y-49730192D01*
X126234826Y-49660413D01*
X126237096Y-49608159D01*
X126242068Y-49571949D01*
X126250713Y-49545299D01*
X126264005Y-49521722D01*
X126266943Y-49517338D01*
X126316313Y-49458249D01*
X126370109Y-49423947D01*
X126435602Y-49410331D01*
X126457842Y-49409665D01*
X126541115Y-49421962D01*
G37*
X126541115Y-49421962D02*
X126609145Y-49457733D01*
X126659351Y-49515301D01*
X126677185Y-49552312D01*
X126691063Y-49607882D01*
X126698167Y-49678096D01*
X126698840Y-49754727D01*
X126693427Y-49829552D01*
X126682270Y-49894342D01*
X126665714Y-49940873D01*
X126660626Y-49948887D01*
X126600355Y-50008707D01*
X126528769Y-50044535D01*
X126451092Y-50055020D01*
X126372548Y-50038810D01*
X126350689Y-50029092D01*
X126308122Y-49999143D01*
X126270763Y-49959433D01*
X126267232Y-49954397D01*
X126252881Y-49930124D01*
X126243394Y-49904178D01*
X126237790Y-49870022D01*
X126235086Y-49821119D01*
X126234299Y-49750935D01*
X126234286Y-49735200D01*
X126234322Y-49730192D01*
X126379429Y-49730192D01*
X126380273Y-49796430D01*
X126383596Y-49840386D01*
X126390583Y-49868779D01*
X126402416Y-49888325D01*
X126408457Y-49894857D01*
X126443186Y-49919680D01*
X126476903Y-49918548D01*
X126510995Y-49897016D01*
X126531329Y-49874029D01*
X126543371Y-49840478D01*
X126550134Y-49787569D01*
X126550598Y-49781399D01*
X126551752Y-49685513D01*
X126539688Y-49614299D01*
X126514570Y-49568194D01*
X126476560Y-49547635D01*
X126462992Y-49546514D01*
X126427364Y-49552152D01*
X126402994Y-49571686D01*
X126388093Y-49609042D01*
X126380875Y-49668150D01*
X126379429Y-49730192D01*
X126234322Y-49730192D01*
X126234826Y-49660413D01*
X126237096Y-49608159D01*
X126242068Y-49571949D01*
X126250713Y-49545299D01*
X126264005Y-49521722D01*
X126266943Y-49517338D01*
X126316313Y-49458249D01*
X126370109Y-49423947D01*
X126435602Y-49410331D01*
X126457842Y-49409665D01*
X126541115Y-49421962D01*
G36*
X127668303Y-49431239D02*
G01*
X127725527Y-49469735D01*
X127769749Y-49525335D01*
X127796167Y-49596086D01*
X127801510Y-49648162D01*
X127800903Y-49669893D01*
X127795822Y-49686531D01*
X127781855Y-49701437D01*
X127754589Y-49717973D01*
X127709612Y-49739498D01*
X127642511Y-49769374D01*
X127642171Y-49769524D01*
X127580407Y-49797813D01*
X127529759Y-49822933D01*
X127495404Y-49842179D01*
X127482518Y-49852848D01*
X127482514Y-49852934D01*
X127493872Y-49876166D01*
X127520431Y-49901774D01*
X127550923Y-49920221D01*
X127566370Y-49923886D01*
X127608515Y-49911212D01*
X127644808Y-49879471D01*
X127662517Y-49844572D01*
X127679552Y-49818845D01*
X127712922Y-49789546D01*
X127752149Y-49764235D01*
X127786756Y-49750471D01*
X127793993Y-49749714D01*
X127802139Y-49762160D01*
X127802630Y-49793972D01*
X127796643Y-49836866D01*
X127785357Y-49882558D01*
X127769950Y-49922761D01*
X127769171Y-49924322D01*
X127722804Y-49989062D01*
X127662711Y-50033097D01*
X127594465Y-50054711D01*
X127523638Y-50052185D01*
X127455804Y-50023804D01*
X127452788Y-50021808D01*
X127399427Y-49973448D01*
X127364340Y-49910352D01*
X127344922Y-49827387D01*
X127342316Y-49804078D01*
X127337701Y-49694055D01*
X127343233Y-49642748D01*
X127482514Y-49642748D01*
X127484324Y-49674753D01*
X127494222Y-49684093D01*
X127518898Y-49677105D01*
X127557795Y-49660587D01*
X127601275Y-49639881D01*
X127602356Y-49639333D01*
X127639209Y-49619949D01*
X127654000Y-49607013D01*
X127650353Y-49593451D01*
X127634995Y-49575632D01*
X127595923Y-49549845D01*
X127553846Y-49547950D01*
X127516103Y-49566717D01*
X127490034Y-49602915D01*
X127482514Y-49642748D01*
X127343233Y-49642748D01*
X127347194Y-49606027D01*
X127371550Y-49536212D01*
X127405456Y-49487302D01*
X127466653Y-49437878D01*
X127534063Y-49413359D01*
X127602880Y-49411797D01*
X127668303Y-49431239D01*
G37*
X127668303Y-49431239D02*
X127725527Y-49469735D01*
X127769749Y-49525335D01*
X127796167Y-49596086D01*
X127801510Y-49648162D01*
X127800903Y-49669893D01*
X127795822Y-49686531D01*
X127781855Y-49701437D01*
X127754589Y-49717973D01*
X127709612Y-49739498D01*
X127642511Y-49769374D01*
X127642171Y-49769524D01*
X127580407Y-49797813D01*
X127529759Y-49822933D01*
X127495404Y-49842179D01*
X127482518Y-49852848D01*
X127482514Y-49852934D01*
X127493872Y-49876166D01*
X127520431Y-49901774D01*
X127550923Y-49920221D01*
X127566370Y-49923886D01*
X127608515Y-49911212D01*
X127644808Y-49879471D01*
X127662517Y-49844572D01*
X127679552Y-49818845D01*
X127712922Y-49789546D01*
X127752149Y-49764235D01*
X127786756Y-49750471D01*
X127793993Y-49749714D01*
X127802139Y-49762160D01*
X127802630Y-49793972D01*
X127796643Y-49836866D01*
X127785357Y-49882558D01*
X127769950Y-49922761D01*
X127769171Y-49924322D01*
X127722804Y-49989062D01*
X127662711Y-50033097D01*
X127594465Y-50054711D01*
X127523638Y-50052185D01*
X127455804Y-50023804D01*
X127452788Y-50021808D01*
X127399427Y-49973448D01*
X127364340Y-49910352D01*
X127344922Y-49827387D01*
X127342316Y-49804078D01*
X127337701Y-49694055D01*
X127343233Y-49642748D01*
X127482514Y-49642748D01*
X127484324Y-49674753D01*
X127494222Y-49684093D01*
X127518898Y-49677105D01*
X127557795Y-49660587D01*
X127601275Y-49639881D01*
X127602356Y-49639333D01*
X127639209Y-49619949D01*
X127654000Y-49607013D01*
X127650353Y-49593451D01*
X127634995Y-49575632D01*
X127595923Y-49549845D01*
X127553846Y-49547950D01*
X127516103Y-49566717D01*
X127490034Y-49602915D01*
X127482514Y-49642748D01*
X127343233Y-49642748D01*
X127347194Y-49606027D01*
X127371550Y-49536212D01*
X127405456Y-49487302D01*
X127466653Y-49437878D01*
X127534063Y-49413359D01*
X127602880Y-49411797D01*
X127668303Y-49431239D01*
G36*
X128875886Y-49351289D02*
G01*
X128880139Y-49410613D01*
X128885025Y-49445572D01*
X128891795Y-49460820D01*
X128901702Y-49461015D01*
X128904914Y-49459195D01*
X128947644Y-49446015D01*
X129003227Y-49446785D01*
X129059737Y-49460333D01*
X129095082Y-49477861D01*
X129131321Y-49505861D01*
X129157813Y-49537549D01*
X129175999Y-49577813D01*
X129187322Y-49631543D01*
X129193222Y-49703626D01*
X129195143Y-49798951D01*
X129195177Y-49817237D01*
X129195200Y-50022646D01*
X129149491Y-50038580D01*
X129117027Y-50049420D01*
X129099215Y-50054468D01*
X129098691Y-50054514D01*
X129096937Y-50040828D01*
X129095444Y-50003076D01*
X129094326Y-49946224D01*
X129093697Y-49875234D01*
X129093600Y-49832073D01*
X129093398Y-49746973D01*
X129092358Y-49685981D01*
X129089831Y-49644177D01*
X129085164Y-49616642D01*
X129077707Y-49598456D01*
X129066811Y-49584698D01*
X129060007Y-49578073D01*
X129013272Y-49551375D01*
X128962272Y-49549375D01*
X128916001Y-49571955D01*
X128907444Y-49580107D01*
X128894893Y-49595436D01*
X128886188Y-49613618D01*
X128880631Y-49639909D01*
X128877526Y-49679562D01*
X128876176Y-49737832D01*
X128875886Y-49818173D01*
X128875886Y-50022646D01*
X128830177Y-50038580D01*
X128797713Y-50049420D01*
X128779901Y-50054468D01*
X128779377Y-50054514D01*
X128778037Y-50040623D01*
X128776828Y-50001439D01*
X128775801Y-49940700D01*
X128775002Y-49862141D01*
X128774481Y-49769498D01*
X128774286Y-49666509D01*
X128774286Y-49269342D01*
X128821457Y-49249444D01*
X128868629Y-49229547D01*
X128875886Y-49351289D01*
G37*
X128875886Y-49351289D02*
X128880139Y-49410613D01*
X128885025Y-49445572D01*
X128891795Y-49460820D01*
X128901702Y-49461015D01*
X128904914Y-49459195D01*
X128947644Y-49446015D01*
X129003227Y-49446785D01*
X129059737Y-49460333D01*
X129095082Y-49477861D01*
X129131321Y-49505861D01*
X129157813Y-49537549D01*
X129175999Y-49577813D01*
X129187322Y-49631543D01*
X129193222Y-49703626D01*
X129195143Y-49798951D01*
X129195177Y-49817237D01*
X129195200Y-50022646D01*
X129149491Y-50038580D01*
X129117027Y-50049420D01*
X129099215Y-50054468D01*
X129098691Y-50054514D01*
X129096937Y-50040828D01*
X129095444Y-50003076D01*
X129094326Y-49946224D01*
X129093697Y-49875234D01*
X129093600Y-49832073D01*
X129093398Y-49746973D01*
X129092358Y-49685981D01*
X129089831Y-49644177D01*
X129085164Y-49616642D01*
X129077707Y-49598456D01*
X129066811Y-49584698D01*
X129060007Y-49578073D01*
X129013272Y-49551375D01*
X128962272Y-49549375D01*
X128916001Y-49571955D01*
X128907444Y-49580107D01*
X128894893Y-49595436D01*
X128886188Y-49613618D01*
X128880631Y-49639909D01*
X128877526Y-49679562D01*
X128876176Y-49737832D01*
X128875886Y-49818173D01*
X128875886Y-50022646D01*
X128830177Y-50038580D01*
X128797713Y-50049420D01*
X128779901Y-50054468D01*
X128779377Y-50054514D01*
X128778037Y-50040623D01*
X128776828Y-50001439D01*
X128775801Y-49940700D01*
X128775002Y-49862141D01*
X128774481Y-49769498D01*
X128774286Y-49666509D01*
X128774286Y-49269342D01*
X128821457Y-49249444D01*
X128868629Y-49229547D01*
X128875886Y-49351289D01*
G36*
X129539744Y-49450968D02*
G01*
X129596616Y-49472087D01*
X129597267Y-49472493D01*
X129632440Y-49498380D01*
X129658407Y-49528633D01*
X129676670Y-49568058D01*
X129688732Y-49621462D01*
X129696096Y-49693651D01*
X129700264Y-49789432D01*
X129700629Y-49803078D01*
X129705876Y-50008842D01*
X129661716Y-50031678D01*
X129629763Y-50047110D01*
X129610470Y-50054423D01*
X129609578Y-50054514D01*
X129606239Y-50041022D01*
X129603587Y-50004626D01*
X129601956Y-49951452D01*
X129601600Y-49908393D01*
X129601592Y-49838641D01*
X129598403Y-49794837D01*
X129587288Y-49773944D01*
X129563501Y-49772925D01*
X129522296Y-49788741D01*
X129460086Y-49817815D01*
X129414341Y-49841963D01*
X129390813Y-49862913D01*
X129383896Y-49885747D01*
X129383886Y-49886877D01*
X129395299Y-49926212D01*
X129429092Y-49947462D01*
X129480809Y-49950539D01*
X129518061Y-49950006D01*
X129537703Y-49960735D01*
X129549952Y-49986505D01*
X129557002Y-50019337D01*
X129546842Y-50037966D01*
X129543017Y-50040632D01*
X129507001Y-50051340D01*
X129456566Y-50052856D01*
X129404626Y-50045759D01*
X129367822Y-50032788D01*
X129316938Y-49989585D01*
X129288014Y-49929446D01*
X129282286Y-49882462D01*
X129286657Y-49840082D01*
X129302475Y-49805488D01*
X129333797Y-49774763D01*
X129384678Y-49743990D01*
X129459176Y-49709252D01*
X129463714Y-49707288D01*
X129530821Y-49676287D01*
X129572232Y-49650862D01*
X129589981Y-49628014D01*
X129586107Y-49604745D01*
X129562643Y-49578056D01*
X129555627Y-49571914D01*
X129508630Y-49548100D01*
X129459933Y-49549103D01*
X129417522Y-49572451D01*
X129389384Y-49615675D01*
X129386769Y-49624160D01*
X129361308Y-49665308D01*
X129329001Y-49685128D01*
X129282286Y-49704770D01*
X129282286Y-49653950D01*
X129296496Y-49580082D01*
X129338675Y-49512327D01*
X129360624Y-49489661D01*
X129410517Y-49460569D01*
X129473967Y-49447400D01*
X129539744Y-49450968D01*
G37*
X129539744Y-49450968D02*
X129596616Y-49472087D01*
X129597267Y-49472493D01*
X129632440Y-49498380D01*
X129658407Y-49528633D01*
X129676670Y-49568058D01*
X129688732Y-49621462D01*
X129696096Y-49693651D01*
X129700264Y-49789432D01*
X129700629Y-49803078D01*
X129705876Y-50008842D01*
X129661716Y-50031678D01*
X129629763Y-50047110D01*
X129610470Y-50054423D01*
X129609578Y-50054514D01*
X129606239Y-50041022D01*
X129603587Y-50004626D01*
X129601956Y-49951452D01*
X129601600Y-49908393D01*
X129601592Y-49838641D01*
X129598403Y-49794837D01*
X129587288Y-49773944D01*
X129563501Y-49772925D01*
X129522296Y-49788741D01*
X129460086Y-49817815D01*
X129414341Y-49841963D01*
X129390813Y-49862913D01*
X129383896Y-49885747D01*
X129383886Y-49886877D01*
X129395299Y-49926212D01*
X129429092Y-49947462D01*
X129480809Y-49950539D01*
X129518061Y-49950006D01*
X129537703Y-49960735D01*
X129549952Y-49986505D01*
X129557002Y-50019337D01*
X129546842Y-50037966D01*
X129543017Y-50040632D01*
X129507001Y-50051340D01*
X129456566Y-50052856D01*
X129404626Y-50045759D01*
X129367822Y-50032788D01*
X129316938Y-49989585D01*
X129288014Y-49929446D01*
X129282286Y-49882462D01*
X129286657Y-49840082D01*
X129302475Y-49805488D01*
X129333797Y-49774763D01*
X129384678Y-49743990D01*
X129459176Y-49709252D01*
X129463714Y-49707288D01*
X129530821Y-49676287D01*
X129572232Y-49650862D01*
X129589981Y-49628014D01*
X129586107Y-49604745D01*
X129562643Y-49578056D01*
X129555627Y-49571914D01*
X129508630Y-49548100D01*
X129459933Y-49549103D01*
X129417522Y-49572451D01*
X129389384Y-49615675D01*
X129386769Y-49624160D01*
X129361308Y-49665308D01*
X129329001Y-49685128D01*
X129282286Y-49704770D01*
X129282286Y-49653950D01*
X129296496Y-49580082D01*
X129338675Y-49512327D01*
X129360624Y-49489661D01*
X129410517Y-49460569D01*
X129473967Y-49447400D01*
X129539744Y-49450968D01*
G36*
X130029926Y-49449755D02*
G01*
X130095858Y-49474084D01*
X130149273Y-49517117D01*
X130170164Y-49547409D01*
X130192939Y-49602994D01*
X130192466Y-49643186D01*
X130168562Y-49670217D01*
X130159717Y-49674813D01*
X130121530Y-49689144D01*
X130102028Y-49685472D01*
X130095422Y-49661407D01*
X130095086Y-49648114D01*
X130082992Y-49599210D01*
X130051471Y-49564999D01*
X130007659Y-49548476D01*
X129958695Y-49552634D01*
X129918894Y-49574227D01*
X129905450Y-49586544D01*
X129895921Y-49601487D01*
X129889485Y-49624075D01*
X129885317Y-49659328D01*
X129882597Y-49712266D01*
X129880502Y-49787907D01*
X129879960Y-49811857D01*
X129877981Y-49893790D01*
X129875731Y-49951455D01*
X129872357Y-49989608D01*
X129867006Y-50013004D01*
X129858824Y-50026398D01*
X129846959Y-50034545D01*
X129839362Y-50038144D01*
X129807102Y-50050452D01*
X129788111Y-50054514D01*
X129781836Y-50040948D01*
X129778006Y-49999934D01*
X129776600Y-49930999D01*
X129777598Y-49833669D01*
X129777908Y-49818657D01*
X129780101Y-49729859D01*
X129782693Y-49665019D01*
X129786382Y-49619067D01*
X129791864Y-49586935D01*
X129799835Y-49563553D01*
X129810993Y-49543852D01*
X129816830Y-49535410D01*
X129850296Y-49498057D01*
X129887727Y-49469003D01*
X129892309Y-49466467D01*
X129959426Y-49446443D01*
X130029926Y-49449755D01*
G37*
X130029926Y-49449755D02*
X130095858Y-49474084D01*
X130149273Y-49517117D01*
X130170164Y-49547409D01*
X130192939Y-49602994D01*
X130192466Y-49643186D01*
X130168562Y-49670217D01*
X130159717Y-49674813D01*
X130121530Y-49689144D01*
X130102028Y-49685472D01*
X130095422Y-49661407D01*
X130095086Y-49648114D01*
X130082992Y-49599210D01*
X130051471Y-49564999D01*
X130007659Y-49548476D01*
X129958695Y-49552634D01*
X129918894Y-49574227D01*
X129905450Y-49586544D01*
X129895921Y-49601487D01*
X129889485Y-49624075D01*
X129885317Y-49659328D01*
X129882597Y-49712266D01*
X129880502Y-49787907D01*
X129879960Y-49811857D01*
X129877981Y-49893790D01*
X129875731Y-49951455D01*
X129872357Y-49989608D01*
X129867006Y-50013004D01*
X129858824Y-50026398D01*
X129846959Y-50034545D01*
X129839362Y-50038144D01*
X129807102Y-50050452D01*
X129788111Y-50054514D01*
X129781836Y-50040948D01*
X129778006Y-49999934D01*
X129776600Y-49930999D01*
X129777598Y-49833669D01*
X129777908Y-49818657D01*
X129780101Y-49729859D01*
X129782693Y-49665019D01*
X129786382Y-49619067D01*
X129791864Y-49586935D01*
X129799835Y-49563553D01*
X129810993Y-49543852D01*
X129816830Y-49535410D01*
X129850296Y-49498057D01*
X129887727Y-49469003D01*
X129892309Y-49466467D01*
X129959426Y-49446443D01*
X130029926Y-49449755D01*
G36*
X130690117Y-49565358D02*
G01*
X130689933Y-49673837D01*
X130689219Y-49757287D01*
X130687675Y-49819704D01*
X130685001Y-49865085D01*
X130680894Y-49897429D01*
X130675055Y-49920733D01*
X130667182Y-49938995D01*
X130661221Y-49949418D01*
X130611855Y-50005945D01*
X130549264Y-50041377D01*
X130480013Y-50054090D01*
X130410668Y-50042463D01*
X130369375Y-50021568D01*
X130326025Y-49985422D01*
X130296481Y-49941276D01*
X130278655Y-49883462D01*
X130270463Y-49806313D01*
X130269302Y-49749714D01*
X130269458Y-49745647D01*
X130370857Y-49745647D01*
X130371476Y-49810550D01*
X130374314Y-49853514D01*
X130380840Y-49881622D01*
X130392523Y-49901953D01*
X130406483Y-49917288D01*
X130453365Y-49946890D01*
X130503701Y-49949419D01*
X130551276Y-49924705D01*
X130554979Y-49921356D01*
X130570783Y-49903935D01*
X130580693Y-49883209D01*
X130586058Y-49852362D01*
X130588228Y-49804577D01*
X130588571Y-49751748D01*
X130587827Y-49685381D01*
X130584748Y-49641106D01*
X130578061Y-49612009D01*
X130566496Y-49591173D01*
X130557013Y-49580107D01*
X130512960Y-49552198D01*
X130462224Y-49548843D01*
X130413796Y-49570159D01*
X130404450Y-49578073D01*
X130388540Y-49595647D01*
X130378610Y-49616587D01*
X130373278Y-49647782D01*
X130371163Y-49696122D01*
X130370857Y-49745647D01*
X130269458Y-49745647D01*
X130272810Y-49658568D01*
X130284726Y-49590086D01*
X130307135Y-49538600D01*
X130342124Y-49498443D01*
X130369375Y-49477861D01*
X130418907Y-49455625D01*
X130476316Y-49445304D01*
X130529682Y-49448067D01*
X130559543Y-49459212D01*
X130571261Y-49462383D01*
X130579037Y-49450557D01*
X130584465Y-49418866D01*
X130588571Y-49370593D01*
X130593067Y-49316829D01*
X130599313Y-49284482D01*
X130610676Y-49265985D01*
X130630528Y-49253770D01*
X130643000Y-49248362D01*
X130690171Y-49228601D01*
X130690117Y-49565358D01*
G37*
X130690117Y-49565358D02*
X130689933Y-49673837D01*
X130689219Y-49757287D01*
X130687675Y-49819704D01*
X130685001Y-49865085D01*
X130680894Y-49897429D01*
X130675055Y-49920733D01*
X130667182Y-49938995D01*
X130661221Y-49949418D01*
X130611855Y-50005945D01*
X130549264Y-50041377D01*
X130480013Y-50054090D01*
X130410668Y-50042463D01*
X130369375Y-50021568D01*
X130326025Y-49985422D01*
X130296481Y-49941276D01*
X130278655Y-49883462D01*
X130270463Y-49806313D01*
X130269302Y-49749714D01*
X130269458Y-49745647D01*
X130370857Y-49745647D01*
X130371476Y-49810550D01*
X130374314Y-49853514D01*
X130380840Y-49881622D01*
X130392523Y-49901953D01*
X130406483Y-49917288D01*
X130453365Y-49946890D01*
X130503701Y-49949419D01*
X130551276Y-49924705D01*
X130554979Y-49921356D01*
X130570783Y-49903935D01*
X130580693Y-49883209D01*
X130586058Y-49852362D01*
X130588228Y-49804577D01*
X130588571Y-49751748D01*
X130587827Y-49685381D01*
X130584748Y-49641106D01*
X130578061Y-49612009D01*
X130566496Y-49591173D01*
X130557013Y-49580107D01*
X130512960Y-49552198D01*
X130462224Y-49548843D01*
X130413796Y-49570159D01*
X130404450Y-49578073D01*
X130388540Y-49595647D01*
X130378610Y-49616587D01*
X130373278Y-49647782D01*
X130371163Y-49696122D01*
X130370857Y-49745647D01*
X130269458Y-49745647D01*
X130272810Y-49658568D01*
X130284726Y-49590086D01*
X130307135Y-49538600D01*
X130342124Y-49498443D01*
X130369375Y-49477861D01*
X130418907Y-49455625D01*
X130476316Y-49445304D01*
X130529682Y-49448067D01*
X130559543Y-49459212D01*
X130571261Y-49462383D01*
X130579037Y-49450557D01*
X130584465Y-49418866D01*
X130588571Y-49370593D01*
X130593067Y-49316829D01*
X130599313Y-49284482D01*
X130610676Y-49265985D01*
X130630528Y-49253770D01*
X130643000Y-49248362D01*
X130690171Y-49228601D01*
X130690117Y-49565358D01*
G36*
X131279833Y-49458663D02*
G01*
X131282048Y-49496850D01*
X131283784Y-49554886D01*
X131284899Y-49628180D01*
X131285257Y-49705055D01*
X131285257Y-49965196D01*
X131239326Y-50011127D01*
X131207675Y-50039429D01*
X131179890Y-50050893D01*
X131141915Y-50050168D01*
X131126840Y-50048321D01*
X131079726Y-50042948D01*
X131040756Y-50039869D01*
X131031257Y-50039585D01*
X130999233Y-50041445D01*
X130953432Y-50046114D01*
X130935674Y-50048321D01*
X130892057Y-50051735D01*
X130862745Y-50044320D01*
X130833680Y-50021427D01*
X130823188Y-50011127D01*
X130777257Y-49965196D01*
X130777257Y-49478602D01*
X130814226Y-49461758D01*
X130846059Y-49449282D01*
X130864683Y-49444914D01*
X130869458Y-49458718D01*
X130873921Y-49497286D01*
X130877775Y-49556356D01*
X130880722Y-49631663D01*
X130882143Y-49695286D01*
X130886114Y-49945657D01*
X130920759Y-49950556D01*
X130952268Y-49947131D01*
X130967708Y-49936041D01*
X130972023Y-49915308D01*
X130975708Y-49871145D01*
X130978469Y-49809146D01*
X130980012Y-49734909D01*
X130980235Y-49696706D01*
X130980457Y-49476783D01*
X131026166Y-49460849D01*
X131058518Y-49450015D01*
X131076115Y-49444962D01*
X131076623Y-49444914D01*
X131078388Y-49458648D01*
X131080329Y-49496730D01*
X131082282Y-49554482D01*
X131084084Y-49627227D01*
X131085343Y-49695286D01*
X131089314Y-49945657D01*
X131176400Y-49945657D01*
X131180396Y-49717240D01*
X131184392Y-49488822D01*
X131226847Y-49466868D01*
X131258192Y-49451793D01*
X131276744Y-49444951D01*
X131277279Y-49444914D01*
X131279833Y-49458663D01*
G37*
X131279833Y-49458663D02*
X131282048Y-49496850D01*
X131283784Y-49554886D01*
X131284899Y-49628180D01*
X131285257Y-49705055D01*
X131285257Y-49965196D01*
X131239326Y-50011127D01*
X131207675Y-50039429D01*
X131179890Y-50050893D01*
X131141915Y-50050168D01*
X131126840Y-50048321D01*
X131079726Y-50042948D01*
X131040756Y-50039869D01*
X131031257Y-50039585D01*
X130999233Y-50041445D01*
X130953432Y-50046114D01*
X130935674Y-50048321D01*
X130892057Y-50051735D01*
X130862745Y-50044320D01*
X130833680Y-50021427D01*
X130823188Y-50011127D01*
X130777257Y-49965196D01*
X130777257Y-49478602D01*
X130814226Y-49461758D01*
X130846059Y-49449282D01*
X130864683Y-49444914D01*
X130869458Y-49458718D01*
X130873921Y-49497286D01*
X130877775Y-49556356D01*
X130880722Y-49631663D01*
X130882143Y-49695286D01*
X130886114Y-49945657D01*
X130920759Y-49950556D01*
X130952268Y-49947131D01*
X130967708Y-49936041D01*
X130972023Y-49915308D01*
X130975708Y-49871145D01*
X130978469Y-49809146D01*
X130980012Y-49734909D01*
X130980235Y-49696706D01*
X130980457Y-49476783D01*
X131026166Y-49460849D01*
X131058518Y-49450015D01*
X131076115Y-49444962D01*
X131076623Y-49444914D01*
X131078388Y-49458648D01*
X131080329Y-49496730D01*
X131082282Y-49554482D01*
X131084084Y-49627227D01*
X131085343Y-49695286D01*
X131089314Y-49945657D01*
X131176400Y-49945657D01*
X131180396Y-49717240D01*
X131184392Y-49488822D01*
X131226847Y-49466868D01*
X131258192Y-49451793D01*
X131276744Y-49444951D01*
X131277279Y-49444914D01*
X131279833Y-49458663D01*
G36*
X131644876Y-49456335D02*
G01*
X131686667Y-49475344D01*
X131719469Y-49498378D01*
X131743503Y-49524133D01*
X131760097Y-49557358D01*
X131770577Y-49602800D01*
X131776271Y-49665207D01*
X131778507Y-49749327D01*
X131778743Y-49804721D01*
X131778743Y-50020826D01*
X131741774Y-50037670D01*
X131712656Y-50049981D01*
X131698231Y-50054514D01*
X131695472Y-50041025D01*
X131693282Y-50004653D01*
X131691942Y-49951542D01*
X131691657Y-49909372D01*
X131690434Y-49848447D01*
X131687136Y-49800115D01*
X131682321Y-49770518D01*
X131678496Y-49764229D01*
X131652783Y-49770652D01*
X131612418Y-49787125D01*
X131565679Y-49809458D01*
X131520845Y-49833457D01*
X131486193Y-49854930D01*
X131470002Y-49869685D01*
X131469938Y-49869845D01*
X131471330Y-49897152D01*
X131483818Y-49923219D01*
X131505743Y-49944392D01*
X131537743Y-49951474D01*
X131565092Y-49950649D01*
X131603826Y-49950042D01*
X131624158Y-49959116D01*
X131636369Y-49983092D01*
X131637909Y-49987613D01*
X131643203Y-50021806D01*
X131629047Y-50042568D01*
X131592148Y-50052462D01*
X131552289Y-50054292D01*
X131480562Y-50040727D01*
X131443432Y-50021355D01*
X131397576Y-49975845D01*
X131373256Y-49919983D01*
X131371073Y-49860957D01*
X131391629Y-49805953D01*
X131422549Y-49771486D01*
X131453420Y-49752189D01*
X131501942Y-49727759D01*
X131558485Y-49702985D01*
X131567910Y-49699199D01*
X131630019Y-49671791D01*
X131665822Y-49647634D01*
X131677337Y-49623619D01*
X131666580Y-49596635D01*
X131648114Y-49575543D01*
X131604469Y-49549572D01*
X131556446Y-49547624D01*
X131512406Y-49567637D01*
X131480709Y-49607551D01*
X131476549Y-49617848D01*
X131452327Y-49655724D01*
X131416965Y-49683842D01*
X131372343Y-49706917D01*
X131372343Y-49641485D01*
X131374969Y-49601506D01*
X131386230Y-49569997D01*
X131411199Y-49536378D01*
X131435169Y-49510484D01*
X131472441Y-49473817D01*
X131501401Y-49454121D01*
X131532505Y-49446220D01*
X131567713Y-49444914D01*
X131644876Y-49456335D01*
G37*
X131644876Y-49456335D02*
X131686667Y-49475344D01*
X131719469Y-49498378D01*
X131743503Y-49524133D01*
X131760097Y-49557358D01*
X131770577Y-49602800D01*
X131776271Y-49665207D01*
X131778507Y-49749327D01*
X131778743Y-49804721D01*
X131778743Y-50020826D01*
X131741774Y-50037670D01*
X131712656Y-50049981D01*
X131698231Y-50054514D01*
X131695472Y-50041025D01*
X131693282Y-50004653D01*
X131691942Y-49951542D01*
X131691657Y-49909372D01*
X131690434Y-49848447D01*
X131687136Y-49800115D01*
X131682321Y-49770518D01*
X131678496Y-49764229D01*
X131652783Y-49770652D01*
X131612418Y-49787125D01*
X131565679Y-49809458D01*
X131520845Y-49833457D01*
X131486193Y-49854930D01*
X131470002Y-49869685D01*
X131469938Y-49869845D01*
X131471330Y-49897152D01*
X131483818Y-49923219D01*
X131505743Y-49944392D01*
X131537743Y-49951474D01*
X131565092Y-49950649D01*
X131603826Y-49950042D01*
X131624158Y-49959116D01*
X131636369Y-49983092D01*
X131637909Y-49987613D01*
X131643203Y-50021806D01*
X131629047Y-50042568D01*
X131592148Y-50052462D01*
X131552289Y-50054292D01*
X131480562Y-50040727D01*
X131443432Y-50021355D01*
X131397576Y-49975845D01*
X131373256Y-49919983D01*
X131371073Y-49860957D01*
X131391629Y-49805953D01*
X131422549Y-49771486D01*
X131453420Y-49752189D01*
X131501942Y-49727759D01*
X131558485Y-49702985D01*
X131567910Y-49699199D01*
X131630019Y-49671791D01*
X131665822Y-49647634D01*
X131677337Y-49623619D01*
X131666580Y-49596635D01*
X131648114Y-49575543D01*
X131604469Y-49549572D01*
X131556446Y-49547624D01*
X131512406Y-49567637D01*
X131480709Y-49607551D01*
X131476549Y-49617848D01*
X131452327Y-49655724D01*
X131416965Y-49683842D01*
X131372343Y-49706917D01*
X131372343Y-49641485D01*
X131374969Y-49601506D01*
X131386230Y-49569997D01*
X131411199Y-49536378D01*
X131435169Y-49510484D01*
X131472441Y-49473817D01*
X131501401Y-49454121D01*
X131532505Y-49446220D01*
X131567713Y-49444914D01*
X131644876Y-49456335D01*
G36*
X132152600Y-49458752D02*
G01*
X132169948Y-49466334D01*
X132211356Y-49499128D01*
X132246765Y-49546547D01*
X132268664Y-49597151D01*
X132272229Y-49622098D01*
X132260279Y-49656927D01*
X132234067Y-49675357D01*
X132205964Y-49686516D01*
X132193095Y-49688572D01*
X132186829Y-49673649D01*
X132174456Y-49641175D01*
X132169028Y-49626502D01*
X132138590Y-49575744D01*
X132094520Y-49550427D01*
X132038010Y-49551206D01*
X132033825Y-49552203D01*
X132003655Y-49566507D01*
X131981476Y-49594393D01*
X131966327Y-49639287D01*
X131957250Y-49704615D01*
X131953286Y-49793804D01*
X131952914Y-49841261D01*
X131952730Y-49916071D01*
X131951522Y-49967069D01*
X131948309Y-49999471D01*
X131942109Y-50018495D01*
X131931940Y-50029356D01*
X131916819Y-50037272D01*
X131915946Y-50037670D01*
X131886828Y-50049981D01*
X131872403Y-50054514D01*
X131870186Y-50040809D01*
X131868289Y-50002925D01*
X131866847Y-49945715D01*
X131865998Y-49874027D01*
X131865829Y-49821565D01*
X131866692Y-49720047D01*
X131870070Y-49643032D01*
X131877142Y-49586023D01*
X131889088Y-49544526D01*
X131907090Y-49514043D01*
X131932327Y-49490080D01*
X131957247Y-49473355D01*
X132017171Y-49451097D01*
X132086911Y-49446076D01*
X132152600Y-49458752D01*
G37*
X132152600Y-49458752D02*
X132169948Y-49466334D01*
X132211356Y-49499128D01*
X132246765Y-49546547D01*
X132268664Y-49597151D01*
X132272229Y-49622098D01*
X132260279Y-49656927D01*
X132234067Y-49675357D01*
X132205964Y-49686516D01*
X132193095Y-49688572D01*
X132186829Y-49673649D01*
X132174456Y-49641175D01*
X132169028Y-49626502D01*
X132138590Y-49575744D01*
X132094520Y-49550427D01*
X132038010Y-49551206D01*
X132033825Y-49552203D01*
X132003655Y-49566507D01*
X131981476Y-49594393D01*
X131966327Y-49639287D01*
X131957250Y-49704615D01*
X131953286Y-49793804D01*
X131952914Y-49841261D01*
X131952730Y-49916071D01*
X131951522Y-49967069D01*
X131948309Y-49999471D01*
X131942109Y-50018495D01*
X131931940Y-50029356D01*
X131916819Y-50037272D01*
X131915946Y-50037670D01*
X131886828Y-50049981D01*
X131872403Y-50054514D01*
X131870186Y-50040809D01*
X131868289Y-50002925D01*
X131866847Y-49945715D01*
X131865998Y-49874027D01*
X131865829Y-49821565D01*
X131866692Y-49720047D01*
X131870070Y-49643032D01*
X131877142Y-49586023D01*
X131889088Y-49544526D01*
X131907090Y-49514043D01*
X131932327Y-49490080D01*
X131957247Y-49473355D01*
X132017171Y-49451097D01*
X132086911Y-49446076D01*
X132152600Y-49458752D01*
G36*
X132653595Y-49466966D02*
G01*
X132711021Y-49504497D01*
X132738719Y-49538096D01*
X132760662Y-49599064D01*
X132762405Y-49647308D01*
X132758457Y-49711816D01*
X132609686Y-49776934D01*
X132537349Y-49810202D01*
X132490084Y-49836964D01*
X132465507Y-49860144D01*
X132461237Y-49882667D01*
X132474889Y-49907455D01*
X132489943Y-49923886D01*
X132533746Y-49950235D01*
X132581389Y-49952081D01*
X132625145Y-49931546D01*
X132657289Y-49890752D01*
X132663038Y-49876347D01*
X132690576Y-49831356D01*
X132722258Y-49812182D01*
X132765714Y-49795779D01*
X132765714Y-49857966D01*
X132761872Y-49900283D01*
X132746823Y-49935969D01*
X132715280Y-49976943D01*
X132710592Y-49982267D01*
X132675506Y-50018720D01*
X132645347Y-50038283D01*
X132607615Y-50047283D01*
X132576335Y-50050230D01*
X132520385Y-50050965D01*
X132480555Y-50041660D01*
X132455708Y-50027846D01*
X132416656Y-49997467D01*
X132389625Y-49964613D01*
X132372517Y-49923294D01*
X132363238Y-49867521D01*
X132359693Y-49791305D01*
X132359410Y-49752622D01*
X132360372Y-49706247D01*
X132448007Y-49706247D01*
X132449023Y-49731126D01*
X132451556Y-49735200D01*
X132468274Y-49729665D01*
X132504249Y-49715017D01*
X132552331Y-49694190D01*
X132562386Y-49689714D01*
X132623152Y-49658814D01*
X132656632Y-49631657D01*
X132663990Y-49606220D01*
X132646391Y-49580481D01*
X132631856Y-49569109D01*
X132579410Y-49546364D01*
X132530322Y-49550122D01*
X132489227Y-49577884D01*
X132460758Y-49627152D01*
X132451631Y-49666257D01*
X132448007Y-49706247D01*
X132360372Y-49706247D01*
X132361285Y-49662249D01*
X132368196Y-49595384D01*
X132381884Y-49546695D01*
X132404096Y-49510849D01*
X132436574Y-49482513D01*
X132450733Y-49473355D01*
X132515053Y-49449507D01*
X132585473Y-49448006D01*
X132653595Y-49466966D01*
G37*
X132653595Y-49466966D02*
X132711021Y-49504497D01*
X132738719Y-49538096D01*
X132760662Y-49599064D01*
X132762405Y-49647308D01*
X132758457Y-49711816D01*
X132609686Y-49776934D01*
X132537349Y-49810202D01*
X132490084Y-49836964D01*
X132465507Y-49860144D01*
X132461237Y-49882667D01*
X132474889Y-49907455D01*
X132489943Y-49923886D01*
X132533746Y-49950235D01*
X132581389Y-49952081D01*
X132625145Y-49931546D01*
X132657289Y-49890752D01*
X132663038Y-49876347D01*
X132690576Y-49831356D01*
X132722258Y-49812182D01*
X132765714Y-49795779D01*
X132765714Y-49857966D01*
X132761872Y-49900283D01*
X132746823Y-49935969D01*
X132715280Y-49976943D01*
X132710592Y-49982267D01*
X132675506Y-50018720D01*
X132645347Y-50038283D01*
X132607615Y-50047283D01*
X132576335Y-50050230D01*
X132520385Y-50050965D01*
X132480555Y-50041660D01*
X132455708Y-50027846D01*
X132416656Y-49997467D01*
X132389625Y-49964613D01*
X132372517Y-49923294D01*
X132363238Y-49867521D01*
X132359693Y-49791305D01*
X132359410Y-49752622D01*
X132360372Y-49706247D01*
X132448007Y-49706247D01*
X132449023Y-49731126D01*
X132451556Y-49735200D01*
X132468274Y-49729665D01*
X132504249Y-49715017D01*
X132552331Y-49694190D01*
X132562386Y-49689714D01*
X132623152Y-49658814D01*
X132656632Y-49631657D01*
X132663990Y-49606220D01*
X132646391Y-49580481D01*
X132631856Y-49569109D01*
X132579410Y-49546364D01*
X132530322Y-49550122D01*
X132489227Y-49577884D01*
X132460758Y-49627152D01*
X132451631Y-49666257D01*
X132448007Y-49706247D01*
X132360372Y-49706247D01*
X132361285Y-49662249D01*
X132368196Y-49595384D01*
X132381884Y-49546695D01*
X132404096Y-49510849D01*
X132436574Y-49482513D01*
X132450733Y-49473355D01*
X132515053Y-49449507D01*
X132585473Y-49448006D01*
X132653595Y-49466966D01*
G36*
X129603910Y-44742348D02*
G01*
X129682454Y-44742778D01*
X129739298Y-44743942D01*
X129778105Y-44746207D01*
X129802538Y-44749940D01*
X129816262Y-44755506D01*
X129822940Y-44763273D01*
X129826236Y-44773605D01*
X129826556Y-44774943D01*
X129831562Y-44799079D01*
X129840829Y-44846701D01*
X129853392Y-44912741D01*
X129868287Y-44992128D01*
X129884551Y-45079796D01*
X129885119Y-45082875D01*
X129901410Y-45168789D01*
X129916652Y-45244696D01*
X129929861Y-45306045D01*
X129940054Y-45348282D01*
X129946248Y-45366855D01*
X129946543Y-45367184D01*
X129964788Y-45376253D01*
X130002405Y-45391367D01*
X130051271Y-45409262D01*
X130051543Y-45409358D01*
X130113093Y-45432493D01*
X130185657Y-45461965D01*
X130254057Y-45491597D01*
X130257294Y-45493062D01*
X130368702Y-45543626D01*
X130615399Y-45375160D01*
X130691077Y-45323803D01*
X130759631Y-45277889D01*
X130817088Y-45240030D01*
X130859476Y-45212837D01*
X130882825Y-45198921D01*
X130885042Y-45197889D01*
X130902010Y-45202484D01*
X130933701Y-45224655D01*
X130981352Y-45265447D01*
X131046198Y-45325905D01*
X131112397Y-45390227D01*
X131176214Y-45453612D01*
X131233329Y-45511451D01*
X131280305Y-45560175D01*
X131313703Y-45596210D01*
X131330085Y-45615984D01*
X131330694Y-45617002D01*
X131332505Y-45630572D01*
X131325683Y-45652733D01*
X131308540Y-45686478D01*
X131279393Y-45734800D01*
X131236555Y-45800692D01*
X131179448Y-45885517D01*
X131128766Y-45960177D01*
X131083461Y-46027140D01*
X131046150Y-46082516D01*
X131019452Y-46122420D01*
X131005985Y-46142962D01*
X131005137Y-46144356D01*
X131006781Y-46164038D01*
X131019245Y-46202293D01*
X131040048Y-46251889D01*
X131047462Y-46267728D01*
X131079814Y-46338290D01*
X131114328Y-46418353D01*
X131142365Y-46487629D01*
X131162568Y-46539045D01*
X131178615Y-46578119D01*
X131187888Y-46598541D01*
X131189041Y-46600114D01*
X131206096Y-46602721D01*
X131246298Y-46609863D01*
X131304302Y-46620523D01*
X131374763Y-46633685D01*
X131452335Y-46648333D01*
X131531672Y-46663449D01*
X131607431Y-46678018D01*
X131674264Y-46691022D01*
X131726828Y-46701445D01*
X131759776Y-46708270D01*
X131767857Y-46710199D01*
X131776205Y-46714962D01*
X131782506Y-46725718D01*
X131787045Y-46746098D01*
X131790104Y-46779734D01*
X131791967Y-46830255D01*
X131792918Y-46901292D01*
X131793240Y-46996476D01*
X131793257Y-47035492D01*
X131793257Y-47352799D01*
X131717057Y-47367839D01*
X131674663Y-47375995D01*
X131611400Y-47387899D01*
X131534962Y-47402116D01*
X131453043Y-47417210D01*
X131430400Y-47421355D01*
X131354806Y-47436053D01*
X131288953Y-47450505D01*
X131238366Y-47463375D01*
X131208574Y-47473322D01*
X131203612Y-47476287D01*
X131191426Y-47497283D01*
X131173953Y-47537967D01*
X131154577Y-47590322D01*
X131150734Y-47601600D01*
X131125339Y-47671523D01*
X131093817Y-47750418D01*
X131062969Y-47821266D01*
X131062817Y-47821595D01*
X131011447Y-47932733D01*
X131180399Y-48181253D01*
X131349352Y-48429772D01*
X131132429Y-48647058D01*
X131066819Y-48711726D01*
X131006979Y-48768733D01*
X130956267Y-48815033D01*
X130918046Y-48847584D01*
X130895675Y-48863343D01*
X130892466Y-48864343D01*
X130873626Y-48856469D01*
X130835180Y-48834578D01*
X130781330Y-48801267D01*
X130716276Y-48759131D01*
X130645940Y-48711943D01*
X130574555Y-48663810D01*
X130510908Y-48621928D01*
X130459041Y-48588871D01*
X130422995Y-48567218D01*
X130406867Y-48559543D01*
X130387189Y-48566037D01*
X130349875Y-48583150D01*
X130302621Y-48607326D01*
X130297612Y-48610013D01*
X130233977Y-48641927D01*
X130190341Y-48657579D01*
X130163202Y-48657745D01*
X130149057Y-48643204D01*
X130148975Y-48643000D01*
X130141905Y-48625779D01*
X130125042Y-48584899D01*
X130099695Y-48523525D01*
X130067171Y-48444819D01*
X130028778Y-48351947D01*
X129985822Y-48248072D01*
X129944222Y-48147502D01*
X129898504Y-48036516D01*
X129856526Y-47933703D01*
X129819548Y-47842215D01*
X129788827Y-47765201D01*
X129765622Y-47705815D01*
X129751190Y-47667209D01*
X129746743Y-47652800D01*
X129757896Y-47636272D01*
X129787069Y-47609930D01*
X129825971Y-47580887D01*
X129936757Y-47489039D01*
X130023351Y-47383759D01*
X130084716Y-47267266D01*
X130119815Y-47141776D01*
X130127608Y-47009507D01*
X130121943Y-46948457D01*
X130091078Y-46821795D01*
X130037920Y-46709941D01*
X129965767Y-46614001D01*
X129877917Y-46535076D01*
X129777665Y-46474270D01*
X129668310Y-46432687D01*
X129553147Y-46411428D01*
X129435475Y-46411599D01*
X129318590Y-46434301D01*
X129205789Y-46480638D01*
X129100369Y-46551713D01*
X129056368Y-46591911D01*
X128971979Y-46695129D01*
X128913222Y-46807925D01*
X128879704Y-46927010D01*
X128871035Y-47049095D01*
X128886823Y-47170893D01*
X128926678Y-47289116D01*
X128990207Y-47400475D01*
X129077021Y-47501684D01*
X129174029Y-47580887D01*
X129214437Y-47611162D01*
X129242982Y-47637219D01*
X129253257Y-47652825D01*
X129247877Y-47669843D01*
X129232575Y-47710500D01*
X129208612Y-47771642D01*
X129177244Y-47850119D01*
X129139732Y-47942780D01*
X129097333Y-48046472D01*
X129055663Y-48147526D01*
X129009690Y-48258607D01*
X128967107Y-48361541D01*
X128929221Y-48453165D01*
X128897340Y-48530316D01*
X128872771Y-48589831D01*
X128856820Y-48628544D01*
X128850910Y-48643000D01*
X128836948Y-48657685D01*
X128809940Y-48657642D01*
X128766413Y-48642099D01*
X128702890Y-48610284D01*
X128702388Y-48610013D01*
X128654560Y-48585323D01*
X128615897Y-48567338D01*
X128594095Y-48559614D01*
X128593133Y-48559543D01*
X128576721Y-48567378D01*
X128540487Y-48589165D01*
X128488474Y-48622328D01*
X128424725Y-48664291D01*
X128354060Y-48711943D01*
X128282116Y-48760191D01*
X128217274Y-48802151D01*
X128163735Y-48835227D01*
X128125697Y-48856821D01*
X128107533Y-48864343D01*
X128090808Y-48854457D01*
X128057180Y-48826826D01*
X128010010Y-48784495D01*
X127952658Y-48730505D01*
X127888484Y-48667899D01*
X127867497Y-48646983D01*
X127650499Y-48429623D01*
X127815668Y-48187220D01*
X127865864Y-48112781D01*
X127909919Y-48045972D01*
X127945362Y-47990665D01*
X127969719Y-47950729D01*
X127980522Y-47930036D01*
X127980838Y-47928563D01*
X127975143Y-47909058D01*
X127959826Y-47869822D01*
X127937537Y-47817430D01*
X127921893Y-47782355D01*
X127892641Y-47715201D01*
X127865094Y-47647358D01*
X127843737Y-47590034D01*
X127837935Y-47572572D01*
X127821452Y-47525938D01*
X127805340Y-47489905D01*
X127796490Y-47476287D01*
X127776960Y-47467952D01*
X127734334Y-47456137D01*
X127674145Y-47442181D01*
X127601922Y-47427422D01*
X127569600Y-47421355D01*
X127487522Y-47406273D01*
X127408795Y-47391669D01*
X127341109Y-47378980D01*
X127292160Y-47369642D01*
X127282943Y-47367839D01*
X127206743Y-47352799D01*
X127206743Y-47035492D01*
X127206914Y-46931154D01*
X127207616Y-46852213D01*
X127209134Y-46795038D01*
X127211749Y-46755999D01*
X127215746Y-46731465D01*
X127221409Y-46717805D01*
X127229020Y-46711389D01*
X127232143Y-46710199D01*
X127250978Y-46705980D01*
X127292588Y-46697562D01*
X127351630Y-46685961D01*
X127422757Y-46672195D01*
X127500625Y-46657280D01*
X127579887Y-46642232D01*
X127655198Y-46628069D01*
X127721213Y-46615806D01*
X127772587Y-46606461D01*
X127803975Y-46601050D01*
X127810959Y-46600114D01*
X127817285Y-46587596D01*
X127831290Y-46554246D01*
X127850355Y-46506377D01*
X127857634Y-46487629D01*
X127886996Y-46415195D01*
X127921571Y-46335170D01*
X127952537Y-46267728D01*
X127975323Y-46216159D01*
X127990482Y-46173785D01*
X127995542Y-46147834D01*
X127994736Y-46144356D01*
X127984041Y-46127936D01*
X127959620Y-46091417D01*
X127924095Y-46038687D01*
X127880087Y-45973635D01*
X127830217Y-45900151D01*
X127820356Y-45885645D01*
X127762492Y-45799704D01*
X127719956Y-45734261D01*
X127691054Y-45686304D01*
X127674090Y-45652820D01*
X127667367Y-45630795D01*
X127669190Y-45617217D01*
X127669236Y-45617131D01*
X127683586Y-45599297D01*
X127715323Y-45564817D01*
X127761010Y-45517268D01*
X127817204Y-45460222D01*
X127880468Y-45397255D01*
X127887602Y-45390227D01*
X127967330Y-45313020D01*
X128028857Y-45256330D01*
X128073421Y-45219110D01*
X128102257Y-45200315D01*
X128114958Y-45197889D01*
X128133494Y-45208471D01*
X128171961Y-45232916D01*
X128226386Y-45268612D01*
X128292798Y-45312947D01*
X128367225Y-45363311D01*
X128384601Y-45375160D01*
X128631297Y-45543626D01*
X128742706Y-45493062D01*
X128810457Y-45463595D01*
X128883183Y-45433959D01*
X128945703Y-45410330D01*
X128948457Y-45409358D01*
X128997360Y-45391457D01*
X129035057Y-45376320D01*
X129053425Y-45367210D01*
X129053456Y-45367184D01*
X129059285Y-45350717D01*
X129069192Y-45310219D01*
X129082195Y-45250242D01*
X129097309Y-45175340D01*
X129113552Y-45090064D01*
X129114881Y-45082875D01*
X129131175Y-44995014D01*
X129146133Y-44915260D01*
X129158791Y-44848681D01*
X129168186Y-44800347D01*
X129173354Y-44775325D01*
X129173444Y-44774943D01*
X129176589Y-44764299D01*
X129182704Y-44756262D01*
X129195453Y-44750467D01*
X129218500Y-44746547D01*
X129255509Y-44744135D01*
X129310144Y-44742865D01*
X129386067Y-44742371D01*
X129486944Y-44742286D01*
X129500000Y-44742286D01*
X129603910Y-44742348D01*
G37*
X129603910Y-44742348D02*
X129682454Y-44742778D01*
X129739298Y-44743942D01*
X129778105Y-44746207D01*
X129802538Y-44749940D01*
X129816262Y-44755506D01*
X129822940Y-44763273D01*
X129826236Y-44773605D01*
X129826556Y-44774943D01*
X129831562Y-44799079D01*
X129840829Y-44846701D01*
X129853392Y-44912741D01*
X129868287Y-44992128D01*
X129884551Y-45079796D01*
X129885119Y-45082875D01*
X129901410Y-45168789D01*
X129916652Y-45244696D01*
X129929861Y-45306045D01*
X129940054Y-45348282D01*
X129946248Y-45366855D01*
X129946543Y-45367184D01*
X129964788Y-45376253D01*
X130002405Y-45391367D01*
X130051271Y-45409262D01*
X130051543Y-45409358D01*
X130113093Y-45432493D01*
X130185657Y-45461965D01*
X130254057Y-45491597D01*
X130257294Y-45493062D01*
X130368702Y-45543626D01*
X130615399Y-45375160D01*
X130691077Y-45323803D01*
X130759631Y-45277889D01*
X130817088Y-45240030D01*
X130859476Y-45212837D01*
X130882825Y-45198921D01*
X130885042Y-45197889D01*
X130902010Y-45202484D01*
X130933701Y-45224655D01*
X130981352Y-45265447D01*
X131046198Y-45325905D01*
X131112397Y-45390227D01*
X131176214Y-45453612D01*
X131233329Y-45511451D01*
X131280305Y-45560175D01*
X131313703Y-45596210D01*
X131330085Y-45615984D01*
X131330694Y-45617002D01*
X131332505Y-45630572D01*
X131325683Y-45652733D01*
X131308540Y-45686478D01*
X131279393Y-45734800D01*
X131236555Y-45800692D01*
X131179448Y-45885517D01*
X131128766Y-45960177D01*
X131083461Y-46027140D01*
X131046150Y-46082516D01*
X131019452Y-46122420D01*
X131005985Y-46142962D01*
X131005137Y-46144356D01*
X131006781Y-46164038D01*
X131019245Y-46202293D01*
X131040048Y-46251889D01*
X131047462Y-46267728D01*
X131079814Y-46338290D01*
X131114328Y-46418353D01*
X131142365Y-46487629D01*
X131162568Y-46539045D01*
X131178615Y-46578119D01*
X131187888Y-46598541D01*
X131189041Y-46600114D01*
X131206096Y-46602721D01*
X131246298Y-46609863D01*
X131304302Y-46620523D01*
X131374763Y-46633685D01*
X131452335Y-46648333D01*
X131531672Y-46663449D01*
X131607431Y-46678018D01*
X131674264Y-46691022D01*
X131726828Y-46701445D01*
X131759776Y-46708270D01*
X131767857Y-46710199D01*
X131776205Y-46714962D01*
X131782506Y-46725718D01*
X131787045Y-46746098D01*
X131790104Y-46779734D01*
X131791967Y-46830255D01*
X131792918Y-46901292D01*
X131793240Y-46996476D01*
X131793257Y-47035492D01*
X131793257Y-47352799D01*
X131717057Y-47367839D01*
X131674663Y-47375995D01*
X131611400Y-47387899D01*
X131534962Y-47402116D01*
X131453043Y-47417210D01*
X131430400Y-47421355D01*
X131354806Y-47436053D01*
X131288953Y-47450505D01*
X131238366Y-47463375D01*
X131208574Y-47473322D01*
X131203612Y-47476287D01*
X131191426Y-47497283D01*
X131173953Y-47537967D01*
X131154577Y-47590322D01*
X131150734Y-47601600D01*
X131125339Y-47671523D01*
X131093817Y-47750418D01*
X131062969Y-47821266D01*
X131062817Y-47821595D01*
X131011447Y-47932733D01*
X131180399Y-48181253D01*
X131349352Y-48429772D01*
X131132429Y-48647058D01*
X131066819Y-48711726D01*
X131006979Y-48768733D01*
X130956267Y-48815033D01*
X130918046Y-48847584D01*
X130895675Y-48863343D01*
X130892466Y-48864343D01*
X130873626Y-48856469D01*
X130835180Y-48834578D01*
X130781330Y-48801267D01*
X130716276Y-48759131D01*
X130645940Y-48711943D01*
X130574555Y-48663810D01*
X130510908Y-48621928D01*
X130459041Y-48588871D01*
X130422995Y-48567218D01*
X130406867Y-48559543D01*
X130387189Y-48566037D01*
X130349875Y-48583150D01*
X130302621Y-48607326D01*
X130297612Y-48610013D01*
X130233977Y-48641927D01*
X130190341Y-48657579D01*
X130163202Y-48657745D01*
X130149057Y-48643204D01*
X130148975Y-48643000D01*
X130141905Y-48625779D01*
X130125042Y-48584899D01*
X130099695Y-48523525D01*
X130067171Y-48444819D01*
X130028778Y-48351947D01*
X129985822Y-48248072D01*
X129944222Y-48147502D01*
X129898504Y-48036516D01*
X129856526Y-47933703D01*
X129819548Y-47842215D01*
X129788827Y-47765201D01*
X129765622Y-47705815D01*
X129751190Y-47667209D01*
X129746743Y-47652800D01*
X129757896Y-47636272D01*
X129787069Y-47609930D01*
X129825971Y-47580887D01*
X129936757Y-47489039D01*
X130023351Y-47383759D01*
X130084716Y-47267266D01*
X130119815Y-47141776D01*
X130127608Y-47009507D01*
X130121943Y-46948457D01*
X130091078Y-46821795D01*
X130037920Y-46709941D01*
X129965767Y-46614001D01*
X129877917Y-46535076D01*
X129777665Y-46474270D01*
X129668310Y-46432687D01*
X129553147Y-46411428D01*
X129435475Y-46411599D01*
X129318590Y-46434301D01*
X129205789Y-46480638D01*
X129100369Y-46551713D01*
X129056368Y-46591911D01*
X128971979Y-46695129D01*
X128913222Y-46807925D01*
X128879704Y-46927010D01*
X128871035Y-47049095D01*
X128886823Y-47170893D01*
X128926678Y-47289116D01*
X128990207Y-47400475D01*
X129077021Y-47501684D01*
X129174029Y-47580887D01*
X129214437Y-47611162D01*
X129242982Y-47637219D01*
X129253257Y-47652825D01*
X129247877Y-47669843D01*
X129232575Y-47710500D01*
X129208612Y-47771642D01*
X129177244Y-47850119D01*
X129139732Y-47942780D01*
X129097333Y-48046472D01*
X129055663Y-48147526D01*
X129009690Y-48258607D01*
X128967107Y-48361541D01*
X128929221Y-48453165D01*
X128897340Y-48530316D01*
X128872771Y-48589831D01*
X128856820Y-48628544D01*
X128850910Y-48643000D01*
X128836948Y-48657685D01*
X128809940Y-48657642D01*
X128766413Y-48642099D01*
X128702890Y-48610284D01*
X128702388Y-48610013D01*
X128654560Y-48585323D01*
X128615897Y-48567338D01*
X128594095Y-48559614D01*
X128593133Y-48559543D01*
X128576721Y-48567378D01*
X128540487Y-48589165D01*
X128488474Y-48622328D01*
X128424725Y-48664291D01*
X128354060Y-48711943D01*
X128282116Y-48760191D01*
X128217274Y-48802151D01*
X128163735Y-48835227D01*
X128125697Y-48856821D01*
X128107533Y-48864343D01*
X128090808Y-48854457D01*
X128057180Y-48826826D01*
X128010010Y-48784495D01*
X127952658Y-48730505D01*
X127888484Y-48667899D01*
X127867497Y-48646983D01*
X127650499Y-48429623D01*
X127815668Y-48187220D01*
X127865864Y-48112781D01*
X127909919Y-48045972D01*
X127945362Y-47990665D01*
X127969719Y-47950729D01*
X127980522Y-47930036D01*
X127980838Y-47928563D01*
X127975143Y-47909058D01*
X127959826Y-47869822D01*
X127937537Y-47817430D01*
X127921893Y-47782355D01*
X127892641Y-47715201D01*
X127865094Y-47647358D01*
X127843737Y-47590034D01*
X127837935Y-47572572D01*
X127821452Y-47525938D01*
X127805340Y-47489905D01*
X127796490Y-47476287D01*
X127776960Y-47467952D01*
X127734334Y-47456137D01*
X127674145Y-47442181D01*
X127601922Y-47427422D01*
X127569600Y-47421355D01*
X127487522Y-47406273D01*
X127408795Y-47391669D01*
X127341109Y-47378980D01*
X127292160Y-47369642D01*
X127282943Y-47367839D01*
X127206743Y-47352799D01*
X127206743Y-47035492D01*
X127206914Y-46931154D01*
X127207616Y-46852213D01*
X127209134Y-46795038D01*
X127211749Y-46755999D01*
X127215746Y-46731465D01*
X127221409Y-46717805D01*
X127229020Y-46711389D01*
X127232143Y-46710199D01*
X127250978Y-46705980D01*
X127292588Y-46697562D01*
X127351630Y-46685961D01*
X127422757Y-46672195D01*
X127500625Y-46657280D01*
X127579887Y-46642232D01*
X127655198Y-46628069D01*
X127721213Y-46615806D01*
X127772587Y-46606461D01*
X127803975Y-46601050D01*
X127810959Y-46600114D01*
X127817285Y-46587596D01*
X127831290Y-46554246D01*
X127850355Y-46506377D01*
X127857634Y-46487629D01*
X127886996Y-46415195D01*
X127921571Y-46335170D01*
X127952537Y-46267728D01*
X127975323Y-46216159D01*
X127990482Y-46173785D01*
X127995542Y-46147834D01*
X127994736Y-46144356D01*
X127984041Y-46127936D01*
X127959620Y-46091417D01*
X127924095Y-46038687D01*
X127880087Y-45973635D01*
X127830217Y-45900151D01*
X127820356Y-45885645D01*
X127762492Y-45799704D01*
X127719956Y-45734261D01*
X127691054Y-45686304D01*
X127674090Y-45652820D01*
X127667367Y-45630795D01*
X127669190Y-45617217D01*
X127669236Y-45617131D01*
X127683586Y-45599297D01*
X127715323Y-45564817D01*
X127761010Y-45517268D01*
X127817204Y-45460222D01*
X127880468Y-45397255D01*
X127887602Y-45390227D01*
X127967330Y-45313020D01*
X128028857Y-45256330D01*
X128073421Y-45219110D01*
X128102257Y-45200315D01*
X128114958Y-45197889D01*
X128133494Y-45208471D01*
X128171961Y-45232916D01*
X128226386Y-45268612D01*
X128292798Y-45312947D01*
X128367225Y-45363311D01*
X128384601Y-45375160D01*
X128631297Y-45543626D01*
X128742706Y-45493062D01*
X128810457Y-45463595D01*
X128883183Y-45433959D01*
X128945703Y-45410330D01*
X128948457Y-45409358D01*
X128997360Y-45391457D01*
X129035057Y-45376320D01*
X129053425Y-45367210D01*
X129053456Y-45367184D01*
X129059285Y-45350717D01*
X129069192Y-45310219D01*
X129082195Y-45250242D01*
X129097309Y-45175340D01*
X129113552Y-45090064D01*
X129114881Y-45082875D01*
X129131175Y-44995014D01*
X129146133Y-44915260D01*
X129158791Y-44848681D01*
X129168186Y-44800347D01*
X129173354Y-44775325D01*
X129173444Y-44774943D01*
X129176589Y-44764299D01*
X129182704Y-44756262D01*
X129195453Y-44750467D01*
X129218500Y-44746547D01*
X129255509Y-44744135D01*
X129310144Y-44742865D01*
X129386067Y-44742371D01*
X129486944Y-44742286D01*
X129500000Y-44742286D01*
X129603910Y-44742348D01*
D12*
X144560000Y-79960000D02*
X144560000Y-73990000D01*
X144560000Y-73990000D02*
X136940000Y-73990000D01*
X136940000Y-73990000D02*
X136940000Y-79960000D01*
X136940000Y-79960000D02*
X144560000Y-79960000D01*
X141250000Y-79950000D02*
X141250000Y-79200000D01*
X141250000Y-79200000D02*
X140250000Y-79200000D01*
X140250000Y-79200000D02*
X140250000Y-79950000D01*
X140250000Y-79950000D02*
X141250000Y-79950000D01*
X144550000Y-79950000D02*
X144550000Y-79200000D01*
X144550000Y-79200000D02*
X142750000Y-79200000D01*
X142750000Y-79200000D02*
X142750000Y-79950000D01*
X142750000Y-79950000D02*
X144550000Y-79950000D01*
X138750000Y-79950000D02*
X138750000Y-79200000D01*
X138750000Y-79200000D02*
X136950000Y-79200000D01*
X136950000Y-79200000D02*
X136950000Y-79950000D01*
X136950000Y-79950000D02*
X138750000Y-79950000D01*
X144550000Y-77700000D02*
X143800000Y-77700000D01*
X143800000Y-77700000D02*
X143800000Y-74750000D01*
X143800000Y-74750000D02*
X140750000Y-74750000D01*
X136950000Y-77700000D02*
X137700000Y-77700000D01*
X137700000Y-77700000D02*
X137700000Y-74750000D01*
X137700000Y-74750000D02*
X140750000Y-74750000D01*
X143600000Y-80250000D02*
X144850000Y-80250000D01*
X144850000Y-80250000D02*
X144850000Y-79000000D01*
X144560000Y-62960000D02*
X144560000Y-56990000D01*
X144560000Y-56990000D02*
X136940000Y-56990000D01*
X136940000Y-56990000D02*
X136940000Y-62960000D01*
X136940000Y-62960000D02*
X144560000Y-62960000D01*
X141250000Y-62950000D02*
X141250000Y-62200000D01*
X141250000Y-62200000D02*
X140250000Y-62200000D01*
X140250000Y-62200000D02*
X140250000Y-62950000D01*
X140250000Y-62950000D02*
X141250000Y-62950000D01*
X144550000Y-62950000D02*
X144550000Y-62200000D01*
X144550000Y-62200000D02*
X142750000Y-62200000D01*
X142750000Y-62200000D02*
X142750000Y-62950000D01*
X142750000Y-62950000D02*
X144550000Y-62950000D01*
X138750000Y-62950000D02*
X138750000Y-62200000D01*
X138750000Y-62200000D02*
X136950000Y-62200000D01*
X136950000Y-62200000D02*
X136950000Y-62950000D01*
X136950000Y-62950000D02*
X138750000Y-62950000D01*
X144550000Y-60700000D02*
X143800000Y-60700000D01*
X143800000Y-60700000D02*
X143800000Y-57750000D01*
X143800000Y-57750000D02*
X140750000Y-57750000D01*
X136950000Y-60700000D02*
X137700000Y-60700000D01*
X137700000Y-60700000D02*
X137700000Y-57750000D01*
X137700000Y-57750000D02*
X140750000Y-57750000D01*
X143600000Y-63250000D02*
X144850000Y-63250000D01*
X144850000Y-63250000D02*
X144850000Y-62000000D01*
X133560000Y-70960000D02*
X133560000Y-64990000D01*
X133560000Y-64990000D02*
X125940000Y-64990000D01*
X125940000Y-64990000D02*
X125940000Y-70960000D01*
X125940000Y-70960000D02*
X133560000Y-70960000D01*
X130250000Y-70950000D02*
X130250000Y-70200000D01*
X130250000Y-70200000D02*
X129250000Y-70200000D01*
X129250000Y-70200000D02*
X129250000Y-70950000D01*
X129250000Y-70950000D02*
X130250000Y-70950000D01*
X133550000Y-70950000D02*
X133550000Y-70200000D01*
X133550000Y-70200000D02*
X131750000Y-70200000D01*
X131750000Y-70200000D02*
X131750000Y-70950000D01*
X131750000Y-70950000D02*
X133550000Y-70950000D01*
X127750000Y-70950000D02*
X127750000Y-70200000D01*
X127750000Y-70200000D02*
X125950000Y-70200000D01*
X125950000Y-70200000D02*
X125950000Y-70950000D01*
X125950000Y-70950000D02*
X127750000Y-70950000D01*
X133550000Y-68700000D02*
X132800000Y-68700000D01*
X132800000Y-68700000D02*
X132800000Y-65750000D01*
X132800000Y-65750000D02*
X129750000Y-65750000D01*
X125950000Y-68700000D02*
X126700000Y-68700000D01*
X126700000Y-68700000D02*
X126700000Y-65750000D01*
X126700000Y-65750000D02*
X129750000Y-65750000D01*
X132600000Y-71250000D02*
X133850000Y-71250000D01*
X133850000Y-71250000D02*
X133850000Y-70000000D01*
X133560000Y-62960000D02*
X133560000Y-56990000D01*
X133560000Y-56990000D02*
X125940000Y-56990000D01*
X125940000Y-56990000D02*
X125940000Y-62960000D01*
X125940000Y-62960000D02*
X133560000Y-62960000D01*
X130250000Y-62950000D02*
X130250000Y-62200000D01*
X130250000Y-62200000D02*
X129250000Y-62200000D01*
X129250000Y-62200000D02*
X129250000Y-62950000D01*
X129250000Y-62950000D02*
X130250000Y-62950000D01*
X133550000Y-62950000D02*
X133550000Y-62200000D01*
X133550000Y-62200000D02*
X131750000Y-62200000D01*
X131750000Y-62200000D02*
X131750000Y-62950000D01*
X131750000Y-62950000D02*
X133550000Y-62950000D01*
X127750000Y-62950000D02*
X127750000Y-62200000D01*
X127750000Y-62200000D02*
X125950000Y-62200000D01*
X125950000Y-62200000D02*
X125950000Y-62950000D01*
X125950000Y-62950000D02*
X127750000Y-62950000D01*
X133550000Y-60700000D02*
X132800000Y-60700000D01*
X132800000Y-60700000D02*
X132800000Y-57750000D01*
X132800000Y-57750000D02*
X129750000Y-57750000D01*
X125950000Y-60700000D02*
X126700000Y-60700000D01*
X126700000Y-60700000D02*
X126700000Y-57750000D01*
X126700000Y-57750000D02*
X129750000Y-57750000D01*
X132600000Y-63250000D02*
X133850000Y-63250000D01*
X133850000Y-63250000D02*
X133850000Y-62000000D01*
X144560000Y-70960000D02*
X144560000Y-64990000D01*
X144560000Y-64990000D02*
X136940000Y-64990000D01*
X136940000Y-64990000D02*
X136940000Y-70960000D01*
X136940000Y-70960000D02*
X144560000Y-70960000D01*
X141250000Y-70950000D02*
X141250000Y-70200000D01*
X141250000Y-70200000D02*
X140250000Y-70200000D01*
X140250000Y-70200000D02*
X140250000Y-70950000D01*
X140250000Y-70950000D02*
X141250000Y-70950000D01*
X144550000Y-70950000D02*
X144550000Y-70200000D01*
X144550000Y-70200000D02*
X142750000Y-70200000D01*
X142750000Y-70200000D02*
X142750000Y-70950000D01*
X142750000Y-70950000D02*
X144550000Y-70950000D01*
X138750000Y-70950000D02*
X138750000Y-70200000D01*
X138750000Y-70200000D02*
X136950000Y-70200000D01*
X136950000Y-70200000D02*
X136950000Y-70950000D01*
X136950000Y-70950000D02*
X138750000Y-70950000D01*
X144550000Y-68700000D02*
X143800000Y-68700000D01*
X143800000Y-68700000D02*
X143800000Y-65750000D01*
X143800000Y-65750000D02*
X140750000Y-65750000D01*
X136950000Y-68700000D02*
X137700000Y-68700000D01*
X137700000Y-68700000D02*
X137700000Y-65750000D01*
X137700000Y-65750000D02*
X140750000Y-65750000D01*
X143600000Y-71250000D02*
X144850000Y-71250000D01*
X144850000Y-71250000D02*
X144850000Y-70000000D01*
X147440000Y-35540000D02*
X147440000Y-41510000D01*
X147440000Y-41510000D02*
X160060000Y-41510000D01*
X160060000Y-41510000D02*
X160060000Y-35540000D01*
X160060000Y-35540000D02*
X147440000Y-35540000D01*
X150750000Y-35550000D02*
X150750000Y-36300000D01*
X150750000Y-36300000D02*
X156750000Y-36300000D01*
X156750000Y-36300000D02*
X156750000Y-35550000D01*
X156750000Y-35550000D02*
X150750000Y-35550000D01*
X147450000Y-35550000D02*
X147450000Y-36300000D01*
X147450000Y-36300000D02*
X149250000Y-36300000D01*
X149250000Y-36300000D02*
X149250000Y-35550000D01*
X149250000Y-35550000D02*
X147450000Y-35550000D01*
X158250000Y-35550000D02*
X158250000Y-36300000D01*
X158250000Y-36300000D02*
X160050000Y-36300000D01*
X160050000Y-36300000D02*
X160050000Y-35550000D01*
X160050000Y-35550000D02*
X158250000Y-35550000D01*
X147450000Y-37800000D02*
X148200000Y-37800000D01*
X148200000Y-37800000D02*
X148200000Y-40750000D01*
X148200000Y-40750000D02*
X153750000Y-40750000D01*
X160050000Y-37800000D02*
X159300000Y-37800000D01*
X159300000Y-37800000D02*
X159300000Y-40750000D01*
X159300000Y-40750000D02*
X153750000Y-40750000D01*
X148400000Y-35250000D02*
X147150000Y-35250000D01*
X147150000Y-35250000D02*
X147150000Y-36500000D01*
X133440000Y-35540000D02*
X133440000Y-41510000D01*
X133440000Y-41510000D02*
X146060000Y-41510000D01*
X146060000Y-41510000D02*
X146060000Y-35540000D01*
X146060000Y-35540000D02*
X133440000Y-35540000D01*
X136750000Y-35550000D02*
X136750000Y-36300000D01*
X136750000Y-36300000D02*
X142750000Y-36300000D01*
X142750000Y-36300000D02*
X142750000Y-35550000D01*
X142750000Y-35550000D02*
X136750000Y-35550000D01*
X133450000Y-35550000D02*
X133450000Y-36300000D01*
X133450000Y-36300000D02*
X135250000Y-36300000D01*
X135250000Y-36300000D02*
X135250000Y-35550000D01*
X135250000Y-35550000D02*
X133450000Y-35550000D01*
X144250000Y-35550000D02*
X144250000Y-36300000D01*
X144250000Y-36300000D02*
X146050000Y-36300000D01*
X146050000Y-36300000D02*
X146050000Y-35550000D01*
X146050000Y-35550000D02*
X144250000Y-35550000D01*
X133450000Y-37800000D02*
X134200000Y-37800000D01*
X134200000Y-37800000D02*
X134200000Y-40750000D01*
X134200000Y-40750000D02*
X139750000Y-40750000D01*
X146050000Y-37800000D02*
X145300000Y-37800000D01*
X145300000Y-37800000D02*
X145300000Y-40750000D01*
X145300000Y-40750000D02*
X139750000Y-40750000D01*
X134400000Y-35250000D02*
X133150000Y-35250000D01*
X133150000Y-35250000D02*
X133150000Y-36500000D01*
D11*
X160282380Y-51071904D02*
X161091904Y-51071904D01*
X161187142Y-51024285D01*
X161234761Y-50976666D01*
X161282380Y-50881428D01*
X161282380Y-50690952D01*
X161234761Y-50595714D01*
X161187142Y-50548095D01*
X161091904Y-50500476D01*
X160282380Y-50500476D01*
X161282380Y-49500476D02*
X161282380Y-50071904D01*
X161282380Y-49786190D02*
X160282380Y-49786190D01*
X160425238Y-49881428D01*
X160520476Y-49976666D01*
X160568095Y-50071904D01*
X150940476Y-80502380D02*
X150940476Y-81216666D01*
X150892857Y-81359523D01*
X150797619Y-81454761D01*
X150654761Y-81502380D01*
X150559523Y-81502380D01*
X151940476Y-81502380D02*
X151369047Y-81502380D01*
X151654761Y-81502380D02*
X151654761Y-80502380D01*
X151559523Y-80645238D01*
X151464285Y-80740476D01*
X151369047Y-80788095D01*
X152321428Y-80597619D02*
X152369047Y-80550000D01*
X152464285Y-80502380D01*
X152702380Y-80502380D01*
X152797619Y-80550000D01*
X152845238Y-80597619D01*
X152892857Y-80692857D01*
X152892857Y-80788095D01*
X152845238Y-80930952D01*
X152273809Y-81502380D01*
X152892857Y-81502380D01*
X163333333Y-43857142D02*
X163285714Y-43904761D01*
X163142857Y-43952380D01*
X163047619Y-43952380D01*
X162904761Y-43904761D01*
X162809523Y-43809523D01*
X162761904Y-43714285D01*
X162714285Y-43523809D01*
X162714285Y-43380952D01*
X162761904Y-43190476D01*
X162809523Y-43095238D01*
X162904761Y-43000000D01*
X163047619Y-42952380D01*
X163142857Y-42952380D01*
X163285714Y-43000000D01*
X163333333Y-43047619D01*
X164285714Y-43952380D02*
X163714285Y-43952380D01*
X164000000Y-43952380D02*
X164000000Y-42952380D01*
X163904761Y-43095238D01*
X163809523Y-43190476D01*
X163714285Y-43238095D01*
X162952380Y-46452380D02*
X162380952Y-46452380D01*
X162666666Y-46452380D02*
X162666666Y-45452380D01*
X162571428Y-45595238D01*
X162476190Y-45690476D01*
X162380952Y-45738095D01*
X163571428Y-45452380D02*
X163666666Y-45452380D01*
X163761904Y-45500000D01*
X163809523Y-45547619D01*
X163857142Y-45642857D01*
X163904761Y-45833333D01*
X163904761Y-46071428D01*
X163857142Y-46261904D01*
X163809523Y-46357142D01*
X163761904Y-46404761D01*
X163666666Y-46452380D01*
X163571428Y-46452380D01*
X163476190Y-46404761D01*
X163428571Y-46357142D01*
X163380952Y-46261904D01*
X163333333Y-46071428D01*
X163333333Y-45833333D01*
X163380952Y-45642857D01*
X163428571Y-45547619D01*
X163476190Y-45500000D01*
X163571428Y-45452380D01*
X164523809Y-45452380D02*
X164619047Y-45452380D01*
X164714285Y-45500000D01*
X164761904Y-45547619D01*
X164809523Y-45642857D01*
X164857142Y-45833333D01*
X164857142Y-46071428D01*
X164809523Y-46261904D01*
X164761904Y-46357142D01*
X164714285Y-46404761D01*
X164619047Y-46452380D01*
X164523809Y-46452380D01*
X164428571Y-46404761D01*
X164380952Y-46357142D01*
X164333333Y-46261904D01*
X164285714Y-46071428D01*
X164285714Y-45833333D01*
X164333333Y-45642857D01*
X164380952Y-45547619D01*
X164428571Y-45500000D01*
X164523809Y-45452380D01*
X165285714Y-45785714D02*
X165285714Y-46452380D01*
X165285714Y-45880952D02*
X165333333Y-45833333D01*
X165428571Y-45785714D01*
X165571428Y-45785714D01*
X165666666Y-45833333D01*
X165714285Y-45928571D01*
X165714285Y-46452380D01*
X166523809Y-45928571D02*
X166190476Y-45928571D01*
X166190476Y-46452380D02*
X166190476Y-45452380D01*
X166666666Y-45452380D01*
X139690476Y-80452380D02*
X139690476Y-81166666D01*
X139642857Y-81309523D01*
X139547619Y-81404761D01*
X139404761Y-81452380D01*
X139309523Y-81452380D01*
X140690476Y-81452380D02*
X140119047Y-81452380D01*
X140404761Y-81452380D02*
X140404761Y-80452380D01*
X140309523Y-80595238D01*
X140214285Y-80690476D01*
X140119047Y-80738095D01*
X141642857Y-81452380D02*
X141071428Y-81452380D01*
X141357142Y-81452380D02*
X141357142Y-80452380D01*
X141261904Y-80595238D01*
X141166666Y-80690476D01*
X141071428Y-80738095D01*
X153416666Y-33902380D02*
X153416666Y-34616666D01*
X153369047Y-34759523D01*
X153273809Y-34854761D01*
X153130952Y-34902380D01*
X153035714Y-34902380D01*
X153845238Y-33997619D02*
X153892857Y-33950000D01*
X153988095Y-33902380D01*
X154226190Y-33902380D01*
X154321428Y-33950000D01*
X154369047Y-33997619D01*
X154416666Y-34092857D01*
X154416666Y-34188095D01*
X154369047Y-34330952D01*
X153797619Y-34902380D01*
X154416666Y-34902380D01*
X139416666Y-33902380D02*
X139416666Y-34616666D01*
X139369047Y-34759523D01*
X139273809Y-34854761D01*
X139130952Y-34902380D01*
X139035714Y-34902380D01*
X140416666Y-34902380D02*
X139845238Y-34902380D01*
X140130952Y-34902380D02*
X140130952Y-33902380D01*
X140035714Y-34045238D01*
X139940476Y-34140476D01*
X139845238Y-34188095D01*
M02*
