G04 #@! TF.GenerationSoftware,KiCad,Pcbnew,(5.1.10)-1*
G04 #@! TF.CreationDate,2021-10-09T13:30:43+01:00*
G04 #@! TF.ProjectId,8_switch_array,385f7377-6974-4636-985f-61727261792e,rev?*
G04 #@! TF.SameCoordinates,Original*
G04 #@! TF.FileFunction,Other,User*
%FSLAX46Y46*%
G04 Gerber Fmt 4.6, Leading zero omitted, Abs format (unit mm)*
G04 Created by KiCad (PCBNEW (5.1.10)-1) date 2021-10-09 13:30:43*
%MOMM*%
%LPD*%
G01*
G04 APERTURE LIST*
%ADD10C,0.050000*%
G04 APERTURE END LIST*
D10*
X160050000Y-45400000D02*
X134100000Y-45400000D01*
X134100000Y-45400000D02*
X134100000Y-55200000D01*
X134100000Y-55200000D02*
X160050000Y-55200000D01*
X160050000Y-55200000D02*
X160050000Y-45400000D01*
X147550000Y-80350000D02*
X155950000Y-80350000D01*
X147550000Y-73600000D02*
X147550000Y-80350000D01*
X155950000Y-73600000D02*
X147550000Y-73600000D01*
X155950000Y-80350000D02*
X155950000Y-73600000D01*
X159750000Y-42000000D02*
X159750000Y-45000000D01*
X159750000Y-45000000D02*
X167250000Y-45000000D01*
X167250000Y-45000000D02*
X167250000Y-42000000D01*
X167250000Y-42000000D02*
X159750000Y-42000000D01*
X166950000Y-71350000D02*
X166950000Y-64600000D01*
X166950000Y-64600000D02*
X158550000Y-64600000D01*
X158550000Y-64600000D02*
X158550000Y-71350000D01*
X158550000Y-71350000D02*
X166950000Y-71350000D01*
X155950000Y-71350000D02*
X155950000Y-64600000D01*
X155950000Y-64600000D02*
X147550000Y-64600000D01*
X147550000Y-64600000D02*
X147550000Y-71350000D01*
X147550000Y-71350000D02*
X155950000Y-71350000D01*
X166950000Y-63350000D02*
X166950000Y-56600000D01*
X166950000Y-56600000D02*
X158550000Y-56600000D01*
X158550000Y-56600000D02*
X158550000Y-63350000D01*
X158550000Y-63350000D02*
X166950000Y-63350000D01*
X155950000Y-63350000D02*
X155950000Y-56600000D01*
X155950000Y-56600000D02*
X147550000Y-56600000D01*
X147550000Y-56600000D02*
X147550000Y-63350000D01*
X147550000Y-63350000D02*
X155950000Y-63350000D01*
X169050000Y-37000000D02*
G75*
G03*
X169050000Y-37000000I-3050000J0D01*
G01*
X169050000Y-78500000D02*
G75*
G03*
X169050000Y-78500000I-3050000J0D01*
G01*
X130550000Y-78500000D02*
G75*
G03*
X130550000Y-78500000I-3050000J0D01*
G01*
X130550000Y-37000000D02*
G75*
G03*
X130550000Y-37000000I-3050000J0D01*
G01*
X144950000Y-80350000D02*
X144950000Y-73600000D01*
X144950000Y-73600000D02*
X136550000Y-73600000D01*
X136550000Y-73600000D02*
X136550000Y-80350000D01*
X136550000Y-80350000D02*
X144950000Y-80350000D01*
X144950000Y-63350000D02*
X144950000Y-56600000D01*
X144950000Y-56600000D02*
X136550000Y-56600000D01*
X136550000Y-56600000D02*
X136550000Y-63350000D01*
X136550000Y-63350000D02*
X144950000Y-63350000D01*
X133950000Y-71350000D02*
X133950000Y-64600000D01*
X133950000Y-64600000D02*
X125550000Y-64600000D01*
X125550000Y-64600000D02*
X125550000Y-71350000D01*
X125550000Y-71350000D02*
X133950000Y-71350000D01*
X133950000Y-63350000D02*
X133950000Y-56600000D01*
X133950000Y-56600000D02*
X125550000Y-56600000D01*
X125550000Y-56600000D02*
X125550000Y-63350000D01*
X125550000Y-63350000D02*
X133950000Y-63350000D01*
X144950000Y-71350000D02*
X144950000Y-64600000D01*
X144950000Y-64600000D02*
X136550000Y-64600000D01*
X136550000Y-64600000D02*
X136550000Y-71350000D01*
X136550000Y-71350000D02*
X144950000Y-71350000D01*
X147050000Y-35150000D02*
X147050000Y-41900000D01*
X147050000Y-41900000D02*
X160450000Y-41900000D01*
X160450000Y-41900000D02*
X160450000Y-35150000D01*
X160450000Y-35150000D02*
X147050000Y-35150000D01*
X133050000Y-35150000D02*
X133050000Y-41900000D01*
X133050000Y-41900000D02*
X146450000Y-41900000D01*
X146450000Y-41900000D02*
X146450000Y-35150000D01*
X146450000Y-35150000D02*
X133050000Y-35150000D01*
M02*
