%TF.GenerationSoftware,KiCad,Pcbnew,5.1.10-88a1d61d58~88~ubuntu20.04.1*%
%TF.CreationDate,2021-05-05T16:02:56+01:00*%
%TF.ProjectId,spike_n_hold,7370696b-655f-46e5-9f68-6f6c642e6b69,rev?*%
%TF.SameCoordinates,Original*%
%TF.FileFunction,Copper,L1,Top*%
%TF.FilePolarity,Positive*%
%FSLAX46Y46*%
G04 Gerber Fmt 4.6, Leading zero omitted, Abs format (unit mm)*
G04 Created by KiCad (PCBNEW 5.1.10-88a1d61d58~88~ubuntu20.04.1) date 2021-05-05 16:02:56*
%MOMM*%
%LPD*%
G01*
G04 APERTURE LIST*
%TA.AperFunction,ComponentPad*%
%ADD10R,2.200000X2.200000*%
%TD*%
%TA.AperFunction,ComponentPad*%
%ADD11O,2.200000X2.200000*%
%TD*%
%TA.AperFunction,ComponentPad*%
%ADD12C,1.600000*%
%TD*%
%TA.AperFunction,ComponentPad*%
%ADD13C,2.000000*%
%TD*%
%TA.AperFunction,ComponentPad*%
%ADD14R,2.000000X2.000000*%
%TD*%
%TA.AperFunction,ComponentPad*%
%ADD15R,3.200000X3.200000*%
%TD*%
%TA.AperFunction,ComponentPad*%
%ADD16O,3.200000X3.200000*%
%TD*%
%TA.AperFunction,ComponentPad*%
%ADD17R,1.700000X1.700000*%
%TD*%
%TA.AperFunction,ComponentPad*%
%ADD18O,1.700000X1.700000*%
%TD*%
%TA.AperFunction,ComponentPad*%
%ADD19R,4.500000X2.000000*%
%TD*%
%TA.AperFunction,ComponentPad*%
%ADD20R,2.000000X4.500000*%
%TD*%
%TA.AperFunction,ComponentPad*%
%ADD21C,2.600000*%
%TD*%
%TA.AperFunction,ComponentPad*%
%ADD22O,2.500000X4.500000*%
%TD*%
%TA.AperFunction,ComponentPad*%
%ADD23R,2.500000X4.500000*%
%TD*%
%TA.AperFunction,ComponentPad*%
%ADD24C,2.400000*%
%TD*%
%TA.AperFunction,ComponentPad*%
%ADD25O,2.400000X2.400000*%
%TD*%
%TA.AperFunction,ComponentPad*%
%ADD26R,2.400000X1.600000*%
%TD*%
%TA.AperFunction,ComponentPad*%
%ADD27O,2.400000X1.600000*%
%TD*%
%TA.AperFunction,ComponentPad*%
%ADD28C,1.500000*%
%TD*%
%TA.AperFunction,ComponentPad*%
%ADD29R,1.500000X1.500000*%
%TD*%
%TA.AperFunction,ComponentPad*%
%ADD30R,1.800000X1.800000*%
%TD*%
%TA.AperFunction,ComponentPad*%
%ADD31O,1.800000X1.800000*%
%TD*%
%TA.AperFunction,ViaPad*%
%ADD32C,0.800000*%
%TD*%
%TA.AperFunction,Conductor*%
%ADD33C,0.250000*%
%TD*%
%TA.AperFunction,Conductor*%
%ADD34C,0.700000*%
%TD*%
G04 APERTURE END LIST*
D10*
%TO.P,D4,1*%
%TO.N,Net-(D4-Pad1)*%
X117000000Y-57000000D03*
D11*
%TO.P,D4,2*%
%TO.N,GND*%
X117000000Y-67160000D03*
%TD*%
D12*
%TO.P,C1,1*%
%TO.N,Net-(C1-Pad1)*%
X117500000Y-117500000D03*
%TO.P,C1,2*%
%TO.N,input_trigger2*%
X117500000Y-122500000D03*
%TD*%
%TO.P,C2,1*%
%TO.N,Net-(C2-Pad1)*%
X109500000Y-74500000D03*
%TO.P,C2,2*%
%TO.N,input_trigger1*%
X114500000Y-74500000D03*
%TD*%
%TO.P,C3,2*%
%TO.N,Net-(C3-Pad2)*%
X144500000Y-112500000D03*
%TO.P,C3,1*%
%TO.N,GND*%
X149500000Y-112500000D03*
%TD*%
%TO.P,C4,2*%
%TO.N,Net-(C4-Pad2)*%
X145500000Y-68000000D03*
%TO.P,C4,1*%
%TO.N,GND*%
X150500000Y-68000000D03*
%TD*%
%TO.P,C5,1*%
%TO.N,Net-(C5-Pad1)*%
X144500000Y-107500000D03*
%TO.P,C5,2*%
%TO.N,GND*%
X149500000Y-107500000D03*
%TD*%
%TO.P,C6,2*%
%TO.N,GND*%
X150500000Y-63000000D03*
%TO.P,C6,1*%
%TO.N,Net-(C6-Pad1)*%
X145500000Y-63000000D03*
%TD*%
D13*
%TO.P,C11,2*%
%TO.N,GND*%
X124000000Y-51500000D03*
D14*
%TO.P,C11,1*%
%TO.N,+24V*%
X124000000Y-46500000D03*
%TD*%
%TO.P,C15,1*%
%TO.N,+12V*%
X143000000Y-38500000D03*
D13*
%TO.P,C15,2*%
%TO.N,GND*%
X148000000Y-38500000D03*
%TD*%
D11*
%TO.P,D1,2*%
%TO.N,+12V*%
X153340000Y-105000000D03*
D10*
%TO.P,D1,1*%
%TO.N,Net-(D1-Pad1)*%
X163500000Y-105000000D03*
%TD*%
%TO.P,D2,1*%
%TO.N,Net-(D2-Pad1)*%
X165000000Y-63000000D03*
D11*
%TO.P,D2,2*%
%TO.N,+12V*%
X154840000Y-63000000D03*
%TD*%
%TO.P,D3,2*%
%TO.N,GND*%
X119000000Y-113660000D03*
D10*
%TO.P,D3,1*%
%TO.N,Net-(D3-Pad1)*%
X119000000Y-103500000D03*
%TD*%
D11*
%TO.P,D5,2*%
%TO.N,Net-(D5-Pad2)*%
X153340000Y-110500000D03*
D10*
%TO.P,D5,1*%
%TO.N,Net-(D1-Pad1)*%
X163500000Y-110500000D03*
%TD*%
D11*
%TO.P,D6,2*%
%TO.N,Net-(D6-Pad2)*%
X154840000Y-68500000D03*
D10*
%TO.P,D6,1*%
%TO.N,Net-(D2-Pad1)*%
X165000000Y-68500000D03*
%TD*%
%TO.P,D7,1*%
%TO.N,Net-(D7-Pad1)*%
X163500000Y-116500000D03*
D11*
%TO.P,D7,2*%
%TO.N,Net-(D5-Pad2)*%
X153340000Y-116500000D03*
%TD*%
%TO.P,D8,2*%
%TO.N,Net-(D6-Pad2)*%
X154840000Y-74000000D03*
D10*
%TO.P,D8,1*%
%TO.N,Net-(D8-Pad1)*%
X165000000Y-74000000D03*
%TD*%
D15*
%TO.P,D17,1*%
%TO.N,Net-(D17-Pad1)*%
X132500000Y-49000000D03*
D16*
%TO.P,D17,2*%
%TO.N,GND*%
X147740000Y-49000000D03*
%TD*%
D17*
%TO.P,J1,1*%
%TO.N,input_trigger2*%
X114500000Y-128000000D03*
D18*
%TO.P,J1,2*%
%TO.N,GND*%
X114500000Y-130540000D03*
%TD*%
D17*
%TO.P,J2,1*%
%TO.N,input_trigger1*%
X111500000Y-80500000D03*
D18*
%TO.P,J2,2*%
%TO.N,GND*%
X111500000Y-83040000D03*
%TD*%
D17*
%TO.P,J3,1*%
%TO.N,Net-(D1-Pad1)*%
X161000000Y-124500000D03*
D18*
%TO.P,J3,2*%
%TO.N,Net-(D7-Pad1)*%
X161000000Y-127040000D03*
%TD*%
%TO.P,J4,2*%
%TO.N,Net-(D8-Pad1)*%
X161500000Y-82540000D03*
D17*
%TO.P,J4,1*%
%TO.N,Net-(D2-Pad1)*%
X161500000Y-80000000D03*
%TD*%
D19*
%TO.P,J9,3*%
%TO.N,N/C*%
X111500000Y-51700000D03*
D20*
%TO.P,J9,1*%
%TO.N,+24V*%
X114500000Y-47000000D03*
%TO.P,J9,2*%
%TO.N,GND*%
X108500000Y-47000000D03*
%TD*%
D21*
%TO.P,L1,1*%
%TO.N,Net-(D17-Pad1)*%
X134500000Y-42500000D03*
%TO.P,L1,2*%
%TO.N,+12V*%
X134500000Y-39000000D03*
%TD*%
D22*
%TO.P,Q1,3*%
%TO.N,+24V*%
X151400000Y-138000000D03*
%TO.P,Q1,2*%
%TO.N,Net-(D1-Pad1)*%
X145950000Y-138000000D03*
D23*
%TO.P,Q1,1*%
%TO.N,Net-(Q1-Pad1)*%
X140500000Y-138000000D03*
%TD*%
%TO.P,Q2,1*%
%TO.N,Net-(Q2-Pad1)*%
X142000000Y-91500000D03*
D22*
%TO.P,Q2,2*%
%TO.N,Net-(D2-Pad1)*%
X147450000Y-91500000D03*
%TO.P,Q2,3*%
%TO.N,+24V*%
X152900000Y-91500000D03*
%TD*%
%TO.P,Q7,3*%
%TO.N,GND*%
X131400000Y-138000000D03*
%TO.P,Q7,2*%
%TO.N,Net-(D7-Pad1)*%
X125950000Y-138000000D03*
D23*
%TO.P,Q7,1*%
%TO.N,Net-(Q7-Pad1)*%
X120500000Y-138000000D03*
%TD*%
D22*
%TO.P,Q8,3*%
%TO.N,GND*%
X129400000Y-91500000D03*
%TO.P,Q8,2*%
%TO.N,Net-(D8-Pad1)*%
X123950000Y-91500000D03*
D23*
%TO.P,Q8,1*%
%TO.N,Net-(Q8-Pad1)*%
X118500000Y-91500000D03*
%TD*%
D24*
%TO.P,R1,1*%
%TO.N,+24V*%
X149000000Y-131000000D03*
D25*
%TO.P,R1,2*%
%TO.N,Net-(Q5-Pad3)*%
X149000000Y-118300000D03*
%TD*%
%TO.P,R2,2*%
%TO.N,Net-(Q6-Pad3)*%
X148500000Y-72800000D03*
D24*
%TO.P,R2,1*%
%TO.N,+24V*%
X148500000Y-85500000D03*
%TD*%
D25*
%TO.P,R3,2*%
%TO.N,Net-(Q1-Pad1)*%
X143500000Y-131200000D03*
D24*
%TO.P,R3,1*%
%TO.N,Net-(Q5-Pad3)*%
X143500000Y-118500000D03*
%TD*%
%TO.P,R4,1*%
%TO.N,Net-(Q6-Pad3)*%
X142500000Y-72500000D03*
D25*
%TO.P,R4,2*%
%TO.N,Net-(Q2-Pad1)*%
X142500000Y-85200000D03*
%TD*%
%TO.P,R5,2*%
%TO.N,Net-(C1-Pad1)*%
X112500000Y-115700000D03*
D24*
%TO.P,R5,1*%
%TO.N,Net-(D3-Pad1)*%
X112500000Y-103000000D03*
%TD*%
%TO.P,R6,1*%
%TO.N,Net-(D4-Pad1)*%
X110500000Y-56500000D03*
D25*
%TO.P,R6,2*%
%TO.N,Net-(C2-Pad1)*%
X110500000Y-69200000D03*
%TD*%
%TO.P,R7,2*%
%TO.N,timed_trigger2*%
X129000000Y-117800000D03*
D24*
%TO.P,R7,1*%
%TO.N,Net-(Q5-Pad2)*%
X129000000Y-130500000D03*
%TD*%
%TO.P,R8,1*%
%TO.N,Net-(Q6-Pad2)*%
X125000000Y-85000000D03*
D25*
%TO.P,R8,2*%
%TO.N,timed_trigger1*%
X125000000Y-72300000D03*
%TD*%
D24*
%TO.P,R9,1*%
%TO.N,Net-(Q3-Pad3)*%
X127500000Y-99000000D03*
D25*
%TO.P,R9,2*%
%TO.N,+12V*%
X140200000Y-99000000D03*
%TD*%
%TO.P,R10,2*%
%TO.N,+12V*%
X140700000Y-57500000D03*
D24*
%TO.P,R10,1*%
%TO.N,Net-(Q4-Pad3)*%
X128000000Y-57500000D03*
%TD*%
%TO.P,R11,1*%
%TO.N,Net-(Q7-Pad1)*%
X123000000Y-130500000D03*
D25*
%TO.P,R11,2*%
%TO.N,input_trigger2*%
X123000000Y-117800000D03*
%TD*%
%TO.P,R12,2*%
%TO.N,input_trigger1*%
X119500000Y-72300000D03*
D24*
%TO.P,R12,1*%
%TO.N,Net-(Q8-Pad1)*%
X119500000Y-85000000D03*
%TD*%
D25*
%TO.P,R13,2*%
%TO.N,+12V*%
X157700000Y-99000000D03*
D24*
%TO.P,R13,1*%
%TO.N,Net-(C5-Pad1)*%
X145000000Y-99000000D03*
%TD*%
%TO.P,R14,1*%
%TO.N,Net-(C6-Pad1)*%
X145500000Y-57500000D03*
D25*
%TO.P,R14,2*%
%TO.N,+12V*%
X158200000Y-57500000D03*
%TD*%
D26*
%TO.P,U1,1*%
%TO.N,GND*%
X132000000Y-105000000D03*
D27*
%TO.P,U1,5*%
%TO.N,Net-(C3-Pad2)*%
X139620000Y-112620000D03*
%TO.P,U1,2*%
%TO.N,Net-(Q3-Pad3)*%
X132000000Y-107540000D03*
%TO.P,U1,6*%
%TO.N,Net-(C5-Pad1)*%
X139620000Y-110080000D03*
%TO.P,U1,3*%
%TO.N,timed_trigger2*%
X132000000Y-110080000D03*
%TO.P,U1,7*%
%TO.N,Net-(C5-Pad1)*%
X139620000Y-107540000D03*
%TO.P,U1,4*%
%TO.N,+12V*%
X132000000Y-112620000D03*
%TO.P,U1,8*%
X139620000Y-105000000D03*
%TD*%
D26*
%TO.P,U2,1*%
%TO.N,GND*%
X130000000Y-62500000D03*
D27*
%TO.P,U2,5*%
%TO.N,Net-(C4-Pad2)*%
X137620000Y-70120000D03*
%TO.P,U2,2*%
%TO.N,Net-(Q4-Pad3)*%
X130000000Y-65040000D03*
%TO.P,U2,6*%
%TO.N,Net-(C6-Pad1)*%
X137620000Y-67580000D03*
%TO.P,U2,3*%
%TO.N,timed_trigger1*%
X130000000Y-67580000D03*
%TO.P,U2,7*%
%TO.N,Net-(C6-Pad1)*%
X137620000Y-65040000D03*
%TO.P,U2,4*%
%TO.N,+12V*%
X130000000Y-70120000D03*
%TO.P,U2,8*%
X137620000Y-62500000D03*
%TD*%
D28*
%TO.P,Q3,2*%
%TO.N,Net-(D3-Pad1)*%
X126000000Y-108460000D03*
%TO.P,Q3,3*%
%TO.N,Net-(Q3-Pad3)*%
X126000000Y-105920000D03*
D29*
%TO.P,Q3,1*%
%TO.N,GND*%
X126000000Y-111000000D03*
%TD*%
%TO.P,Q4,1*%
%TO.N,GND*%
X123000000Y-68500000D03*
D28*
%TO.P,Q4,3*%
%TO.N,Net-(Q4-Pad3)*%
X123000000Y-63420000D03*
%TO.P,Q4,2*%
%TO.N,Net-(D4-Pad1)*%
X123000000Y-65960000D03*
%TD*%
D29*
%TO.P,Q5,1*%
%TO.N,GND*%
X136500000Y-119000000D03*
D28*
%TO.P,Q5,3*%
%TO.N,Net-(Q5-Pad3)*%
X136500000Y-124080000D03*
%TO.P,Q5,2*%
%TO.N,Net-(Q5-Pad2)*%
X136500000Y-121540000D03*
%TD*%
D29*
%TO.P,Q6,1*%
%TO.N,GND*%
X133500000Y-76500000D03*
D28*
%TO.P,Q6,3*%
%TO.N,Net-(Q6-Pad3)*%
X133500000Y-81580000D03*
%TO.P,Q6,2*%
%TO.N,Net-(Q6-Pad2)*%
X133500000Y-79040000D03*
%TD*%
D25*
%TO.P,R15,2*%
%TO.N,Net-(R15-Pad2)*%
X152300000Y-47000000D03*
D24*
%TO.P,R15,1*%
%TO.N,GND*%
X165000000Y-47000000D03*
%TD*%
%TO.P,R16,1*%
%TO.N,Net-(R15-Pad2)*%
X152000000Y-51500000D03*
D25*
%TO.P,R16,2*%
%TO.N,+12V*%
X164700000Y-51500000D03*
%TD*%
D30*
%TO.P,U5,1*%
%TO.N,+24V*%
X120000000Y-41000000D03*
D31*
%TO.P,U5,2*%
%TO.N,Net-(D17-Pad1)*%
X121700000Y-37300000D03*
%TO.P,U5,3*%
%TO.N,GND*%
X123400000Y-41000000D03*
%TO.P,U5,4*%
%TO.N,Net-(R15-Pad2)*%
X125100000Y-37300000D03*
%TO.P,U5,5*%
%TO.N,GND*%
X126800000Y-41000000D03*
%TD*%
D32*
%TO.N,+12V*%
X148500000Y-55000000D03*
X146947817Y-97052183D03*
%TD*%
D33*
%TO.N,Net-(C1-Pad1)*%
X115700000Y-115700000D02*
X117500000Y-117500000D01*
X112500000Y-115700000D02*
X115700000Y-115700000D01*
%TO.N,input_trigger2*%
X114500000Y-125500000D02*
X117500000Y-122500000D01*
X114500000Y-128000000D02*
X114500000Y-125500000D01*
X117500000Y-122500000D02*
X119500000Y-122500000D01*
X123000000Y-119000000D02*
X123000000Y-117800000D01*
X119500000Y-122500000D02*
X123000000Y-119000000D01*
%TO.N,Net-(C2-Pad1)*%
X109500000Y-70200000D02*
X110500000Y-69200000D01*
X109500000Y-74500000D02*
X109500000Y-70200000D01*
%TO.N,input_trigger1*%
X119500000Y-72500000D02*
X119500000Y-72300000D01*
X114500000Y-74500000D02*
X115500000Y-75500000D01*
X116500000Y-75500000D02*
X117000000Y-75000000D01*
X115500000Y-75500000D02*
X116500000Y-75500000D01*
X117000000Y-75000000D02*
X119500000Y-72500000D01*
X111500000Y-80500000D02*
X117000000Y-75000000D01*
D34*
%TO.N,Net-(C3-Pad2)*%
X144380000Y-112620000D02*
X144500000Y-112500000D01*
X139620000Y-112620000D02*
X144380000Y-112620000D01*
%TO.N,Net-(C4-Pad2)*%
X137620000Y-70120000D02*
X139380000Y-70120000D01*
X141500000Y-68000000D02*
X145500000Y-68000000D01*
X139380000Y-70120000D02*
X141500000Y-68000000D01*
%TO.N,Net-(C5-Pad1)*%
X139620000Y-107540000D02*
X139620000Y-110080000D01*
X144460000Y-107540000D02*
X144500000Y-107500000D01*
X145000000Y-99000000D02*
X145000000Y-104580000D01*
X142040000Y-107540000D02*
X144460000Y-107540000D01*
X145000000Y-104580000D02*
X142040000Y-107540000D01*
X139620000Y-107540000D02*
X142040000Y-107540000D01*
%TO.N,Net-(C6-Pad1)*%
X145500000Y-57500000D02*
X142000000Y-61000000D01*
X142000000Y-61000000D02*
X142000000Y-63500000D01*
X140460000Y-65040000D02*
X137620000Y-65040000D01*
X142000000Y-63500000D02*
X140460000Y-65040000D01*
X145000000Y-63500000D02*
X145500000Y-63000000D01*
X142000000Y-63500000D02*
X145000000Y-63500000D01*
X137620000Y-67580000D02*
X137620000Y-65040000D01*
%TO.N,+24V*%
X123500000Y-47000000D02*
X124000000Y-46500000D01*
X114500000Y-47000000D02*
X123500000Y-47000000D01*
X120000000Y-42500000D02*
X124000000Y-46500000D01*
X120000000Y-41000000D02*
X120000000Y-42500000D01*
%TO.N,+12V*%
X137620000Y-60580000D02*
X140700000Y-57500000D01*
X137620000Y-62500000D02*
X137620000Y-60580000D01*
X154840000Y-60860000D02*
X158200000Y-57500000D01*
X140700000Y-57500000D02*
X143200000Y-55000000D01*
X148180000Y-55000000D02*
X154840000Y-61660000D01*
X154840000Y-61660000D02*
X154840000Y-60860000D01*
X154840000Y-63000000D02*
X154840000Y-61660000D01*
X140200000Y-99000000D02*
X140200000Y-104420000D01*
X132000000Y-112620000D02*
X139620000Y-105000000D01*
X153340000Y-103360000D02*
X153340000Y-105000000D01*
X157700000Y-99000000D02*
X153340000Y-103360000D01*
X139620000Y-105000000D02*
X140200000Y-104420000D01*
X140200000Y-99000000D02*
X142200000Y-97000000D01*
X153340000Y-103444366D02*
X153340000Y-105000000D01*
X146895634Y-97000000D02*
X146947817Y-97052183D01*
X142200000Y-97000000D02*
X146895634Y-97000000D01*
X130000000Y-70120000D02*
X137620000Y-62500000D01*
X134500000Y-39000000D02*
X137000000Y-39000000D01*
X137000000Y-39000000D02*
X138500000Y-40500000D01*
X147500000Y-55000000D02*
X148180000Y-55000000D01*
X138500000Y-46000000D02*
X147500000Y-55000000D01*
X143200000Y-55000000D02*
X147500000Y-55000000D01*
X138500000Y-40500000D02*
X138500000Y-46000000D01*
X140500000Y-38500000D02*
X143000000Y-38500000D01*
X138500000Y-40500000D02*
X140500000Y-38500000D01*
X161200000Y-55000000D02*
X164700000Y-51500000D01*
X148180000Y-55000000D02*
X148500000Y-55000000D01*
X148500000Y-55000000D02*
X161200000Y-55000000D01*
X146947817Y-97052183D02*
X153340000Y-103444366D01*
%TO.N,Net-(D1-Pad1)*%
X161000000Y-113000000D02*
X163500000Y-110500000D01*
X161000000Y-107500000D02*
X163500000Y-105000000D01*
X161000000Y-113000000D02*
X161000000Y-107500000D01*
X161000000Y-124500000D02*
X161000000Y-113000000D01*
X161000000Y-124500000D02*
X151400000Y-134100000D01*
X147500000Y-138000000D02*
X151400000Y-134100000D01*
X145950000Y-138000000D02*
X147500000Y-138000000D01*
%TO.N,Net-(D2-Pad1)*%
X165000000Y-64000000D02*
X158500000Y-70500000D01*
X165000000Y-63000000D02*
X165000000Y-64000000D01*
X158500000Y-77000000D02*
X161500000Y-80000000D01*
X158500000Y-70500000D02*
X158500000Y-73500000D01*
X159000000Y-74500000D02*
X165000000Y-68500000D01*
X158500000Y-74500000D02*
X159000000Y-74500000D01*
X158500000Y-73500000D02*
X158500000Y-74500000D01*
X158500000Y-74500000D02*
X158500000Y-77000000D01*
X151250000Y-87700000D02*
X147450000Y-91500000D01*
X157000000Y-87700000D02*
X151250000Y-87700000D01*
X158500000Y-86200000D02*
X157000000Y-87700000D01*
X158500000Y-73500000D02*
X158500000Y-86200000D01*
D33*
%TO.N,Net-(D3-Pad1)*%
X118500000Y-103000000D02*
X119000000Y-103500000D01*
X112500000Y-103000000D02*
X118500000Y-103000000D01*
X123960000Y-108460000D02*
X119000000Y-103500000D01*
X126000000Y-108460000D02*
X123960000Y-108460000D01*
%TO.N,Net-(D4-Pad1)*%
X116500000Y-56500000D02*
X117000000Y-57000000D01*
X110500000Y-56500000D02*
X116500000Y-56500000D01*
X117000000Y-59960000D02*
X123000000Y-65960000D01*
X117000000Y-57000000D02*
X117000000Y-59960000D01*
D34*
%TO.N,Net-(D5-Pad2)*%
X153340000Y-110500000D02*
X153340000Y-116500000D01*
%TO.N,Net-(D6-Pad2)*%
X154840000Y-68500000D02*
X154840000Y-74000000D01*
%TO.N,Net-(D7-Pad1)*%
X163500000Y-124540000D02*
X163500000Y-116500000D01*
X161000000Y-127040000D02*
X163500000Y-124540000D01*
X159000000Y-129040000D02*
X161000000Y-127040000D01*
X129450000Y-141500000D02*
X133500000Y-141500000D01*
X125950000Y-138000000D02*
X129450000Y-141500000D01*
X133000000Y-141500000D02*
X133500000Y-141500000D01*
X159000000Y-129040000D02*
X158960000Y-129040000D01*
X158960000Y-129040000D02*
X155000000Y-133000000D01*
X155000000Y-133000000D02*
X155000000Y-139000000D01*
X155000000Y-139000000D02*
X152500000Y-141500000D01*
X133500000Y-141500000D02*
X152500000Y-141500000D01*
%TO.N,Net-(D8-Pad1)*%
X165000000Y-86500000D02*
X165000000Y-74000000D01*
X156500000Y-95000000D02*
X165000000Y-86500000D01*
X127450000Y-95000000D02*
X156500000Y-95000000D01*
X123950000Y-91500000D02*
X127450000Y-95000000D01*
X165000000Y-86040000D02*
X161500000Y-82540000D01*
X165000000Y-86500000D02*
X165000000Y-86040000D01*
%TO.N,Net-(D17-Pad1)*%
X134500000Y-48000000D02*
X134000000Y-48500000D01*
X134500000Y-42500000D02*
X134500000Y-48000000D01*
X121700000Y-37300000D02*
X123400000Y-39000000D01*
X131000000Y-39000000D02*
X134500000Y-42500000D01*
X123400000Y-39000000D02*
X131000000Y-39000000D01*
D33*
%TO.N,Net-(Q1-Pad1)*%
X143500000Y-135000000D02*
X140500000Y-138000000D01*
X143500000Y-131200000D02*
X143500000Y-135000000D01*
D34*
%TO.N,Net-(Q2-Pad1)*%
X142500000Y-91000000D02*
X142000000Y-91500000D01*
X142500000Y-85200000D02*
X142500000Y-91000000D01*
D33*
%TO.N,Net-(Q7-Pad1)*%
X123000000Y-135500000D02*
X120500000Y-138000000D01*
X123000000Y-130500000D02*
X123000000Y-135500000D01*
D34*
%TO.N,Net-(Q8-Pad1)*%
X119500000Y-90500000D02*
X118500000Y-91500000D01*
X119500000Y-85000000D02*
X119500000Y-90500000D01*
%TO.N,Net-(Q5-Pad3)*%
X136500000Y-124080000D02*
X143220000Y-124080000D01*
X145400000Y-120400000D02*
X145400000Y-121900000D01*
X143500000Y-118500000D02*
X145400000Y-120400000D01*
X145400000Y-121900000D02*
X149000000Y-118300000D01*
X143220000Y-124080000D02*
X145400000Y-121900000D01*
D33*
%TO.N,Net-(Q6-Pad3)*%
X142500000Y-72580000D02*
X142500000Y-72500000D01*
D34*
X148500000Y-72800000D02*
X145000000Y-76300000D01*
X138780000Y-76300000D02*
X133500000Y-81580000D01*
X145000000Y-76300000D02*
X138780000Y-76300000D01*
X145000000Y-75000000D02*
X142500000Y-72500000D01*
X145000000Y-76300000D02*
X145000000Y-75000000D01*
D33*
%TO.N,timed_trigger2*%
X129000000Y-113080000D02*
X129000000Y-117800000D01*
X132000000Y-110080000D02*
X129000000Y-113080000D01*
%TO.N,Net-(Q5-Pad2)*%
X129000000Y-130500000D02*
X129000000Y-126000000D01*
X133460000Y-121540000D02*
X136500000Y-121540000D01*
X129000000Y-126000000D02*
X133460000Y-121540000D01*
%TO.N,Net-(Q6-Pad2)*%
X127540000Y-85000000D02*
X133500000Y-79040000D01*
X125000000Y-85000000D02*
X127540000Y-85000000D01*
%TO.N,timed_trigger1*%
X129720000Y-67580000D02*
X125000000Y-72300000D01*
X130000000Y-67580000D02*
X129720000Y-67580000D01*
D34*
%TO.N,Net-(Q3-Pad3)*%
X127500000Y-104420000D02*
X126000000Y-105920000D01*
X130100000Y-107540000D02*
X132000000Y-107540000D01*
X127500000Y-104940000D02*
X130100000Y-107540000D01*
X127500000Y-103000000D02*
X127500000Y-104940000D01*
X127500000Y-99000000D02*
X127500000Y-103000000D01*
X127500000Y-103000000D02*
X127500000Y-104420000D01*
D33*
%TO.N,Net-(Q4-Pad3)*%
X123000000Y-63420000D02*
X123000000Y-60500000D01*
X126000000Y-57500000D02*
X128000000Y-57500000D01*
X123000000Y-60500000D02*
X126000000Y-57500000D01*
X123000000Y-63420000D02*
X125080000Y-65500000D01*
X129540000Y-65500000D02*
X130000000Y-65040000D01*
X125080000Y-65500000D02*
X129540000Y-65500000D01*
%TD*%
M02*
