%TF.GenerationSoftware,KiCad,Pcbnew,5.1.10-88a1d61d58~90~ubuntu20.04.1*%
%TF.CreationDate,2022-01-16T21:36:51+00:00*%
%TF.ProjectId,spike_n_hold,7370696b-655f-46e5-9f68-6f6c642e6b69,rev?*%
%TF.SameCoordinates,Original*%
%TF.FileFunction,Copper,L1,Top*%
%TF.FilePolarity,Positive*%
%FSLAX46Y46*%
G04 Gerber Fmt 4.6, Leading zero omitted, Abs format (unit mm)*
G04 Created by KiCad (PCBNEW 5.1.10-88a1d61d58~90~ubuntu20.04.1) date 2022-01-16 21:36:51*
%MOMM*%
%LPD*%
G01*
G04 APERTURE LIST*
%TA.AperFunction,ComponentPad*%
%ADD10C,2.400000*%
%TD*%
%TA.AperFunction,ComponentPad*%
%ADD11O,2.000000X1.700000*%
%TD*%
%TA.AperFunction,ComponentPad*%
%ADD12O,2.400000X2.400000*%
%TD*%
%TA.AperFunction,ComponentPad*%
%ADD13C,1.600000*%
%TD*%
%TA.AperFunction,ComponentPad*%
%ADD14R,1.600000X1.600000*%
%TD*%
%TA.AperFunction,ComponentPad*%
%ADD15O,2.400000X1.600000*%
%TD*%
%TA.AperFunction,ComponentPad*%
%ADD16R,2.400000X1.600000*%
%TD*%
%TA.AperFunction,ComponentPad*%
%ADD17O,1.905000X2.000000*%
%TD*%
%TA.AperFunction,ComponentPad*%
%ADD18R,1.905000X2.000000*%
%TD*%
%TA.AperFunction,ComponentPad*%
%ADD19O,1.700000X2.000000*%
%TD*%
%TA.AperFunction,ComponentPad*%
%ADD20R,2.200000X2.200000*%
%TD*%
%TA.AperFunction,ComponentPad*%
%ADD21O,2.200000X2.200000*%
%TD*%
%TA.AperFunction,ComponentPad*%
%ADD22R,3.200000X3.200000*%
%TD*%
%TA.AperFunction,ComponentPad*%
%ADD23O,3.200000X3.200000*%
%TD*%
%TA.AperFunction,ComponentPad*%
%ADD24R,1.700000X1.700000*%
%TD*%
%TA.AperFunction,ComponentPad*%
%ADD25O,1.700000X1.700000*%
%TD*%
%TA.AperFunction,ComponentPad*%
%ADD26O,2.500000X4.500000*%
%TD*%
%TA.AperFunction,ComponentPad*%
%ADD27R,2.500000X4.500000*%
%TD*%
%TA.AperFunction,ComponentPad*%
%ADD28C,1.500000*%
%TD*%
%TA.AperFunction,ComponentPad*%
%ADD29R,1.500000X1.500000*%
%TD*%
%TA.AperFunction,ComponentPad*%
%ADD30O,1.950000X1.700000*%
%TD*%
%TA.AperFunction,ViaPad*%
%ADD31C,0.800000*%
%TD*%
%TA.AperFunction,Conductor*%
%ADD32C,0.250000*%
%TD*%
%TA.AperFunction,Conductor*%
%ADD33C,0.700000*%
%TD*%
G04 APERTURE END LIST*
D10*
%TO.P,L1,2*%
%TO.N,Net-(D17-Pad2)*%
X141000000Y-38500000D03*
%TO.P,L1,1*%
%TO.N,+12V*%
X146000000Y-38500000D03*
%TD*%
D11*
%TO.P,J7,2*%
%TO.N,GND*%
X109500000Y-47500000D03*
%TO.P,J7,1*%
%TO.N,+24V*%
%TA.AperFunction,ComponentPad*%
G36*
G01*
X110250000Y-50850000D02*
X108750000Y-50850000D01*
G75*
G02*
X108500000Y-50600000I0J250000D01*
G01*
X108500000Y-49400000D01*
G75*
G02*
X108750000Y-49150000I250000J0D01*
G01*
X110250000Y-49150000D01*
G75*
G02*
X110500000Y-49400000I0J-250000D01*
G01*
X110500000Y-50600000D01*
G75*
G02*
X110250000Y-50850000I-250000J0D01*
G01*
G37*
%TD.AperFunction*%
%TD*%
D10*
%TO.P,R15,1*%
%TO.N,+12V*%
X131500000Y-57500000D03*
D12*
%TO.P,R15,2*%
%TO.N,Net-(R15-Pad2)*%
X118800000Y-57500000D03*
%TD*%
D13*
%TO.P,C15,2*%
%TO.N,GND*%
X116500000Y-36500000D03*
D14*
%TO.P,C15,1*%
%TO.N,+24V*%
X114500000Y-36500000D03*
%TD*%
D15*
%TO.P,U3,8*%
%TO.N,+12V*%
X147880000Y-53000000D03*
%TO.P,U3,4*%
X155500000Y-45380000D03*
%TO.P,U3,7*%
%TO.N,Net-(R15-Pad2)*%
X147880000Y-50460000D03*
%TO.P,U3,3*%
%TO.N,Net-(R17-Pad1)*%
X155500000Y-47920000D03*
%TO.P,U3,6*%
%TO.N,Net-(C7-Pad2)*%
X147880000Y-47920000D03*
%TO.P,U3,2*%
X155500000Y-50460000D03*
%TO.P,U3,5*%
%TO.N,Net-(C8-Pad2)*%
X147880000Y-45380000D03*
D16*
%TO.P,U3,1*%
%TO.N,GND*%
X155500000Y-53000000D03*
%TD*%
D12*
%TO.P,R18,2*%
%TO.N,GND*%
X124500000Y-53200000D03*
D10*
%TO.P,R18,1*%
%TO.N,Net-(Q9-Pad1)*%
X124500000Y-40500000D03*
%TD*%
D12*
%TO.P,R17,2*%
%TO.N,Net-(Q9-Pad1)*%
X129000000Y-53200000D03*
D10*
%TO.P,R17,1*%
%TO.N,Net-(R17-Pad1)*%
X129000000Y-40500000D03*
%TD*%
D17*
%TO.P,Q9,3*%
%TO.N,GND*%
X127580000Y-36500000D03*
%TO.P,Q9,2*%
%TO.N,Net-(D17-Pad2)*%
X125040000Y-36500000D03*
D18*
%TO.P,Q9,1*%
%TO.N,Net-(Q9-Pad1)*%
X122500000Y-36500000D03*
%TD*%
D19*
%TO.P,J6,2*%
%TO.N,GND*%
X155000000Y-37500000D03*
%TO.P,J6,1*%
%TO.N,+12V*%
%TA.AperFunction,ComponentPad*%
G36*
G01*
X151650000Y-38250000D02*
X151650000Y-36750000D01*
G75*
G02*
X151900000Y-36500000I250000J0D01*
G01*
X153100000Y-36500000D01*
G75*
G02*
X153350000Y-36750000I0J-250000D01*
G01*
X153350000Y-38250000D01*
G75*
G02*
X153100000Y-38500000I-250000J0D01*
G01*
X151900000Y-38500000D01*
G75*
G02*
X151650000Y-38250000I0J250000D01*
G01*
G37*
%TD.AperFunction*%
%TD*%
D11*
%TO.P,J5,2*%
%TO.N,GND*%
X162000000Y-47500000D03*
%TO.P,J5,1*%
%TO.N,+12V*%
%TA.AperFunction,ComponentPad*%
G36*
G01*
X161250000Y-44150000D02*
X162750000Y-44150000D01*
G75*
G02*
X163000000Y-44400000I0J-250000D01*
G01*
X163000000Y-45600000D01*
G75*
G02*
X162750000Y-45850000I-250000J0D01*
G01*
X161250000Y-45850000D01*
G75*
G02*
X161000000Y-45600000I0J250000D01*
G01*
X161000000Y-44400000D01*
G75*
G02*
X161250000Y-44150000I250000J0D01*
G01*
G37*
%TD.AperFunction*%
%TD*%
D13*
%TO.P,C8,2*%
%TO.N,Net-(C8-Pad2)*%
X143500000Y-47500000D03*
%TO.P,C8,1*%
%TO.N,GND*%
X143500000Y-52500000D03*
%TD*%
%TO.P,C7,2*%
%TO.N,Net-(C7-Pad2)*%
X159000000Y-53000000D03*
%TO.P,C7,1*%
%TO.N,GND*%
X164000000Y-53000000D03*
%TD*%
D20*
%TO.P,D4,1*%
%TO.N,Net-(D4-Pad1)*%
X114500000Y-56500000D03*
D21*
%TO.P,D4,2*%
%TO.N,GND*%
X114500000Y-66660000D03*
%TD*%
D13*
%TO.P,C1,1*%
%TO.N,Net-(C1-Pad1)*%
X117500000Y-117500000D03*
%TO.P,C1,2*%
%TO.N,input_trigger2*%
X117500000Y-122500000D03*
%TD*%
%TO.P,C2,1*%
%TO.N,Net-(C2-Pad1)*%
X109500000Y-74500000D03*
%TO.P,C2,2*%
%TO.N,input_trigger1*%
X114500000Y-74500000D03*
%TD*%
%TO.P,C3,2*%
%TO.N,Net-(C3-Pad2)*%
X144500000Y-112500000D03*
%TO.P,C3,1*%
%TO.N,GND*%
X149500000Y-112500000D03*
%TD*%
%TO.P,C4,2*%
%TO.N,Net-(C4-Pad2)*%
X145500000Y-68000000D03*
%TO.P,C4,1*%
%TO.N,GND*%
X150500000Y-68000000D03*
%TD*%
%TO.P,C5,1*%
%TO.N,Net-(C5-Pad1)*%
X144500000Y-107500000D03*
%TO.P,C5,2*%
%TO.N,GND*%
X149500000Y-107500000D03*
%TD*%
%TO.P,C6,2*%
%TO.N,GND*%
X150500000Y-63000000D03*
%TO.P,C6,1*%
%TO.N,Net-(C6-Pad1)*%
X145500000Y-63000000D03*
%TD*%
D21*
%TO.P,D1,2*%
%TO.N,+12V*%
X153340000Y-105000000D03*
D20*
%TO.P,D1,1*%
%TO.N,Net-(D1-Pad1)*%
X163500000Y-105000000D03*
%TD*%
%TO.P,D2,1*%
%TO.N,Net-(D2-Pad1)*%
X165000000Y-63000000D03*
D21*
%TO.P,D2,2*%
%TO.N,+12V*%
X154840000Y-63000000D03*
%TD*%
%TO.P,D3,2*%
%TO.N,GND*%
X119000000Y-113660000D03*
D20*
%TO.P,D3,1*%
%TO.N,Net-(D3-Pad1)*%
X119000000Y-103500000D03*
%TD*%
D21*
%TO.P,D5,2*%
%TO.N,Net-(D5-Pad2)*%
X153340000Y-110500000D03*
D20*
%TO.P,D5,1*%
%TO.N,Net-(D1-Pad1)*%
X163500000Y-110500000D03*
%TD*%
D21*
%TO.P,D6,2*%
%TO.N,Net-(D6-Pad2)*%
X154840000Y-68500000D03*
D20*
%TO.P,D6,1*%
%TO.N,Net-(D2-Pad1)*%
X165000000Y-68500000D03*
%TD*%
%TO.P,D7,1*%
%TO.N,Net-(D7-Pad1)*%
X163500000Y-116500000D03*
D21*
%TO.P,D7,2*%
%TO.N,Net-(D5-Pad2)*%
X153340000Y-116500000D03*
%TD*%
%TO.P,D8,2*%
%TO.N,Net-(D6-Pad2)*%
X154840000Y-74000000D03*
D20*
%TO.P,D8,1*%
%TO.N,Net-(D8-Pad1)*%
X165000000Y-74000000D03*
%TD*%
D22*
%TO.P,D17,1*%
%TO.N,+24V*%
X134500000Y-53000000D03*
D23*
%TO.P,D17,2*%
%TO.N,Net-(D17-Pad2)*%
X134500000Y-37760000D03*
%TD*%
D24*
%TO.P,J3,1*%
%TO.N,Net-(D1-Pad1)*%
X161000000Y-124500000D03*
D25*
%TO.P,J3,2*%
%TO.N,Net-(D7-Pad1)*%
X161000000Y-127040000D03*
%TD*%
%TO.P,J4,2*%
%TO.N,Net-(D8-Pad1)*%
X161500000Y-82540000D03*
D24*
%TO.P,J4,1*%
%TO.N,Net-(D2-Pad1)*%
X161500000Y-80000000D03*
%TD*%
D26*
%TO.P,Q1,3*%
%TO.N,+24V*%
X151400000Y-138000000D03*
%TO.P,Q1,2*%
%TO.N,Net-(D1-Pad1)*%
X145950000Y-138000000D03*
D27*
%TO.P,Q1,1*%
%TO.N,Net-(Q1-Pad1)*%
X140500000Y-138000000D03*
%TD*%
%TO.P,Q2,1*%
%TO.N,Net-(Q2-Pad1)*%
X142000000Y-91500000D03*
D26*
%TO.P,Q2,2*%
%TO.N,Net-(D2-Pad1)*%
X147450000Y-91500000D03*
%TO.P,Q2,3*%
%TO.N,+24V*%
X152900000Y-91500000D03*
%TD*%
%TO.P,Q7,3*%
%TO.N,GND*%
X131400000Y-138000000D03*
%TO.P,Q7,2*%
%TO.N,Net-(D7-Pad1)*%
X125950000Y-138000000D03*
D27*
%TO.P,Q7,1*%
%TO.N,Net-(Q7-Pad1)*%
X120500000Y-138000000D03*
%TD*%
D26*
%TO.P,Q8,3*%
%TO.N,GND*%
X129400000Y-91500000D03*
%TO.P,Q8,2*%
%TO.N,Net-(D8-Pad1)*%
X123950000Y-91500000D03*
D27*
%TO.P,Q8,1*%
%TO.N,Net-(Q8-Pad1)*%
X118500000Y-91500000D03*
%TD*%
D10*
%TO.P,R1,1*%
%TO.N,+24V*%
X149000000Y-131000000D03*
D12*
%TO.P,R1,2*%
%TO.N,Net-(Q5-Pad3)*%
X149000000Y-118300000D03*
%TD*%
%TO.P,R2,2*%
%TO.N,Net-(Q6-Pad3)*%
X148500000Y-72800000D03*
D10*
%TO.P,R2,1*%
%TO.N,+24V*%
X148500000Y-85500000D03*
%TD*%
D12*
%TO.P,R3,2*%
%TO.N,Net-(Q1-Pad1)*%
X143500000Y-131200000D03*
D10*
%TO.P,R3,1*%
%TO.N,Net-(Q5-Pad3)*%
X143500000Y-118500000D03*
%TD*%
%TO.P,R4,1*%
%TO.N,Net-(Q6-Pad3)*%
X142500000Y-72500000D03*
D12*
%TO.P,R4,2*%
%TO.N,Net-(Q2-Pad1)*%
X142500000Y-85200000D03*
%TD*%
%TO.P,R5,2*%
%TO.N,Net-(C1-Pad1)*%
X112500000Y-115700000D03*
D10*
%TO.P,R5,1*%
%TO.N,Net-(D3-Pad1)*%
X112500000Y-103000000D03*
%TD*%
%TO.P,R6,1*%
%TO.N,Net-(D4-Pad1)*%
X109500000Y-56500000D03*
D12*
%TO.P,R6,2*%
%TO.N,Net-(C2-Pad1)*%
X109500000Y-69200000D03*
%TD*%
%TO.P,R7,2*%
%TO.N,timed_trigger2*%
X129000000Y-117800000D03*
D10*
%TO.P,R7,1*%
%TO.N,Net-(Q5-Pad2)*%
X129000000Y-130500000D03*
%TD*%
%TO.P,R8,1*%
%TO.N,Net-(Q6-Pad2)*%
X125000000Y-85000000D03*
D12*
%TO.P,R8,2*%
%TO.N,timed_trigger1*%
X125000000Y-72300000D03*
%TD*%
D10*
%TO.P,R9,1*%
%TO.N,Net-(Q3-Pad3)*%
X127500000Y-99500000D03*
D12*
%TO.P,R9,2*%
%TO.N,+12V*%
X140200000Y-99500000D03*
%TD*%
%TO.P,R10,2*%
%TO.N,+12V*%
X148200000Y-57500000D03*
D10*
%TO.P,R10,1*%
%TO.N,Net-(Q4-Pad3)*%
X135500000Y-57500000D03*
%TD*%
%TO.P,R11,1*%
%TO.N,Net-(Q7-Pad1)*%
X123000000Y-130500000D03*
D12*
%TO.P,R11,2*%
%TO.N,input_trigger2*%
X123000000Y-117800000D03*
%TD*%
%TO.P,R12,2*%
%TO.N,input_trigger1*%
X119500000Y-72300000D03*
D10*
%TO.P,R12,1*%
%TO.N,Net-(Q8-Pad1)*%
X119500000Y-85000000D03*
%TD*%
D12*
%TO.P,R13,2*%
%TO.N,+12V*%
X157700000Y-99500000D03*
D10*
%TO.P,R13,1*%
%TO.N,Net-(C5-Pad1)*%
X145000000Y-99500000D03*
%TD*%
%TO.P,R14,1*%
%TO.N,Net-(C6-Pad1)*%
X152000000Y-57500000D03*
D12*
%TO.P,R14,2*%
%TO.N,+12V*%
X164700000Y-57500000D03*
%TD*%
D16*
%TO.P,U1,1*%
%TO.N,GND*%
X132000000Y-105000000D03*
D15*
%TO.P,U1,5*%
%TO.N,Net-(C3-Pad2)*%
X139620000Y-112620000D03*
%TO.P,U1,2*%
%TO.N,Net-(Q3-Pad3)*%
X132000000Y-107540000D03*
%TO.P,U1,6*%
%TO.N,Net-(C5-Pad1)*%
X139620000Y-110080000D03*
%TO.P,U1,3*%
%TO.N,timed_trigger2*%
X132000000Y-110080000D03*
%TO.P,U1,7*%
%TO.N,Net-(C5-Pad1)*%
X139620000Y-107540000D03*
%TO.P,U1,4*%
%TO.N,+12V*%
X132000000Y-112620000D03*
%TO.P,U1,8*%
X139620000Y-105000000D03*
%TD*%
D16*
%TO.P,U2,1*%
%TO.N,GND*%
X130000000Y-62500000D03*
D15*
%TO.P,U2,5*%
%TO.N,Net-(C4-Pad2)*%
X137620000Y-70120000D03*
%TO.P,U2,2*%
%TO.N,Net-(Q4-Pad3)*%
X130000000Y-65040000D03*
%TO.P,U2,6*%
%TO.N,Net-(C6-Pad1)*%
X137620000Y-67580000D03*
%TO.P,U2,3*%
%TO.N,timed_trigger1*%
X130000000Y-67580000D03*
%TO.P,U2,7*%
%TO.N,Net-(C6-Pad1)*%
X137620000Y-65040000D03*
%TO.P,U2,4*%
%TO.N,+12V*%
X130000000Y-70120000D03*
%TO.P,U2,8*%
X137620000Y-62500000D03*
%TD*%
D28*
%TO.P,Q3,2*%
%TO.N,Net-(D3-Pad1)*%
X126000000Y-108460000D03*
%TO.P,Q3,3*%
%TO.N,Net-(Q3-Pad3)*%
X126000000Y-105920000D03*
D29*
%TO.P,Q3,1*%
%TO.N,GND*%
X126000000Y-111000000D03*
%TD*%
%TO.P,Q4,1*%
%TO.N,GND*%
X123000000Y-68500000D03*
D28*
%TO.P,Q4,3*%
%TO.N,Net-(Q4-Pad3)*%
X123000000Y-63420000D03*
%TO.P,Q4,2*%
%TO.N,Net-(D4-Pad1)*%
X123000000Y-65960000D03*
%TD*%
D29*
%TO.P,Q5,1*%
%TO.N,GND*%
X136500000Y-119000000D03*
D28*
%TO.P,Q5,3*%
%TO.N,Net-(Q5-Pad3)*%
X136500000Y-124080000D03*
%TO.P,Q5,2*%
%TO.N,Net-(Q5-Pad2)*%
X136500000Y-121540000D03*
%TD*%
D29*
%TO.P,Q6,1*%
%TO.N,GND*%
X133500000Y-76500000D03*
D28*
%TO.P,Q6,3*%
%TO.N,Net-(Q6-Pad3)*%
X133500000Y-81580000D03*
%TO.P,Q6,2*%
%TO.N,Net-(Q6-Pad2)*%
X133500000Y-79040000D03*
%TD*%
D10*
%TO.P,R16,1*%
%TO.N,Net-(C7-Pad2)*%
X120000000Y-40500000D03*
D12*
%TO.P,R16,2*%
%TO.N,Net-(R15-Pad2)*%
X120000000Y-53200000D03*
%TD*%
%TO.P,J1,1*%
%TO.N,input_trigger1*%
%TA.AperFunction,ComponentPad*%
G36*
G01*
X111323000Y-79576000D02*
X112773000Y-79576000D01*
G75*
G02*
X113023000Y-79826000I0J-250000D01*
G01*
X113023000Y-81026000D01*
G75*
G02*
X112773000Y-81276000I-250000J0D01*
G01*
X111323000Y-81276000D01*
G75*
G02*
X111073000Y-81026000I0J250000D01*
G01*
X111073000Y-79826000D01*
G75*
G02*
X111323000Y-79576000I250000J0D01*
G01*
G37*
%TD.AperFunction*%
D30*
%TO.P,J1,2*%
%TO.N,input_trigger2*%
X112048000Y-82926000D03*
%TO.P,J1,3*%
%TO.N,Net-(J1-Pad3)*%
X112048000Y-85426000D03*
%TO.P,J1,4*%
%TO.N,GND*%
X112048000Y-87926000D03*
%TD*%
D31*
%TO.N,+12V*%
X153499990Y-55000000D03*
X148500000Y-97552183D03*
%TD*%
D32*
%TO.N,Net-(C1-Pad1)*%
X115700000Y-115700000D02*
X117500000Y-117500000D01*
X112500000Y-115700000D02*
X115700000Y-115700000D01*
%TO.N,input_trigger2*%
X117500000Y-122500000D02*
X119500000Y-122500000D01*
X123000000Y-119000000D02*
X123000000Y-117800000D01*
X119500000Y-122500000D02*
X123000000Y-119000000D01*
X111540000Y-83180000D02*
X109000000Y-85720000D01*
X109000000Y-85720000D02*
X109000000Y-118272000D01*
X113228000Y-122500000D02*
X117500000Y-122500000D01*
X109000000Y-118272000D02*
X113228000Y-122500000D01*
%TO.N,Net-(C2-Pad1)*%
X109500000Y-70200000D02*
X110500000Y-69200000D01*
X109500000Y-74500000D02*
X109500000Y-70200000D01*
%TO.N,input_trigger1*%
X119500000Y-72500000D02*
X119500000Y-72300000D01*
X114500000Y-74500000D02*
X115500000Y-75500000D01*
X116500000Y-75500000D02*
X117000000Y-75000000D01*
X115500000Y-75500000D02*
X116500000Y-75500000D01*
X117000000Y-75000000D02*
X119500000Y-72500000D01*
X111500000Y-80500000D02*
X117000000Y-75000000D01*
D33*
%TO.N,Net-(C3-Pad2)*%
X144380000Y-112620000D02*
X144500000Y-112500000D01*
X139620000Y-112620000D02*
X144380000Y-112620000D01*
%TO.N,Net-(C4-Pad2)*%
X137620000Y-70120000D02*
X139380000Y-70120000D01*
X141500000Y-68000000D02*
X145500000Y-68000000D01*
X139380000Y-70120000D02*
X141500000Y-68000000D01*
%TO.N,Net-(C5-Pad1)*%
X139620000Y-107540000D02*
X139620000Y-110080000D01*
X144460000Y-107540000D02*
X144500000Y-107500000D01*
X142040000Y-107540000D02*
X144460000Y-107540000D01*
X139620000Y-107540000D02*
X142040000Y-107540000D01*
X145000000Y-104580000D02*
X142040000Y-107540000D01*
X145000000Y-99500000D02*
X145000000Y-104580000D01*
%TO.N,Net-(C6-Pad1)*%
X137620000Y-67580000D02*
X137620000Y-65040000D01*
X142500000Y-63000000D02*
X145500000Y-63000000D01*
X140460000Y-65040000D02*
X142500000Y-63000000D01*
X137620000Y-65040000D02*
X140460000Y-65040000D01*
%TO.N,+24V*%
X114500000Y-35500000D02*
X114500000Y-36500000D01*
X115500000Y-34500000D02*
X114500000Y-35500000D01*
X128752370Y-34500000D02*
X115500000Y-34500000D01*
X130500000Y-38000000D02*
X130500000Y-36247630D01*
X134500000Y-42000000D02*
X130500000Y-38000000D01*
X130500000Y-36247630D02*
X128752370Y-34500000D01*
X134500000Y-53000000D02*
X134500000Y-42000000D01*
%TO.N,+12V*%
X147500000Y-55000000D02*
X148000000Y-55500000D01*
X148000000Y-55500000D02*
X148500000Y-55000000D01*
X132000000Y-112620000D02*
X139620000Y-105000000D01*
X130000000Y-70120000D02*
X137620000Y-62500000D01*
X151434315Y-55000000D02*
X153499990Y-55000000D01*
X143200000Y-55000000D02*
X151434315Y-55000000D01*
X137620000Y-62500000D02*
X137620000Y-60580000D01*
X148000000Y-55000000D02*
X151434315Y-55000000D01*
X148000000Y-57500000D02*
X148000000Y-55000000D01*
X153500000Y-63000000D02*
X148000000Y-57500000D01*
X154840000Y-63000000D02*
X153500000Y-63000000D01*
X158200000Y-57500000D02*
X164700000Y-57500000D01*
X155000000Y-60700000D02*
X158200000Y-57500000D01*
X155000000Y-63000000D02*
X155000000Y-60700000D01*
X154840000Y-63000000D02*
X155000000Y-63000000D01*
X140200000Y-99500000D02*
X140200000Y-104420000D01*
X140200000Y-104420000D02*
X139620000Y-105000000D01*
X142147817Y-97552183D02*
X148500000Y-97552183D01*
X140200000Y-99500000D02*
X142147817Y-97552183D01*
X153500000Y-105000000D02*
X153340000Y-105000000D01*
X157700000Y-100800000D02*
X153500000Y-105000000D01*
X157700000Y-99500000D02*
X157700000Y-100800000D01*
X152500000Y-101552183D02*
X148500000Y-97552183D01*
X152500000Y-104160000D02*
X152500000Y-101552183D01*
X153340000Y-105000000D02*
X152500000Y-104160000D01*
X133500000Y-55500000D02*
X137000000Y-55500000D01*
X131500000Y-57500000D02*
X133500000Y-55500000D01*
X139500000Y-58700000D02*
X139350000Y-58850000D01*
X137620000Y-60580000D02*
X139350000Y-58850000D01*
X137000000Y-55500000D02*
X139500000Y-58000000D01*
X139500000Y-58000000D02*
X139500000Y-58700000D01*
X139500000Y-58000000D02*
X139850000Y-58350000D01*
X140000000Y-58000000D02*
X140100000Y-58100000D01*
X139500000Y-58000000D02*
X140000000Y-58000000D01*
X140100000Y-58100000D02*
X143200000Y-55000000D01*
X139350000Y-58850000D02*
X140100000Y-58100000D01*
X159500000Y-55000000D02*
X153499990Y-55000000D01*
X164000000Y-50500000D02*
X159500000Y-55000000D01*
X164000000Y-46500000D02*
X164000000Y-50500000D01*
X162500000Y-45000000D02*
X164000000Y-46500000D01*
X162000000Y-45000000D02*
X162500000Y-45000000D01*
X147000000Y-37500000D02*
X146000000Y-38500000D01*
X152500000Y-37500000D02*
X147000000Y-37500000D01*
X151499990Y-53000000D02*
X153499990Y-55000000D01*
X147880000Y-53000000D02*
X151499990Y-53000000D01*
X152500000Y-39000000D02*
X155500000Y-42000000D01*
X155500000Y-42000000D02*
X155500000Y-45380000D01*
X152500000Y-37500000D02*
X152500000Y-39000000D01*
X161000000Y-45000000D02*
X162000000Y-45000000D01*
X160500000Y-45500000D02*
X161000000Y-45000000D01*
X155620000Y-45500000D02*
X160500000Y-45500000D01*
X155500000Y-45380000D02*
X155620000Y-45500000D01*
%TO.N,Net-(D1-Pad1)*%
X161000000Y-113000000D02*
X163500000Y-110500000D01*
X161000000Y-107500000D02*
X163500000Y-105000000D01*
X161000000Y-113000000D02*
X161000000Y-107500000D01*
X161000000Y-124500000D02*
X161000000Y-113000000D01*
X161000000Y-124500000D02*
X151400000Y-134100000D01*
X147500000Y-138000000D02*
X151400000Y-134100000D01*
X145950000Y-138000000D02*
X147500000Y-138000000D01*
%TO.N,Net-(D2-Pad1)*%
X165000000Y-64000000D02*
X158500000Y-70500000D01*
X165000000Y-63000000D02*
X165000000Y-64000000D01*
X158500000Y-77000000D02*
X161500000Y-80000000D01*
X158500000Y-70500000D02*
X158500000Y-73500000D01*
X158500000Y-73500000D02*
X158500000Y-74500000D01*
X158500000Y-74500000D02*
X158500000Y-77000000D01*
X151250000Y-87700000D02*
X147450000Y-91500000D01*
X157000000Y-87700000D02*
X151250000Y-87700000D01*
X158500000Y-86200000D02*
X157000000Y-87700000D01*
X158500000Y-73500000D02*
X158500000Y-86200000D01*
X158500000Y-75000000D02*
X165000000Y-68500000D01*
D32*
%TO.N,Net-(D3-Pad1)*%
X118500000Y-103000000D02*
X119000000Y-103500000D01*
X112500000Y-103000000D02*
X118500000Y-103000000D01*
X123960000Y-108460000D02*
X119000000Y-103500000D01*
X126000000Y-108460000D02*
X123960000Y-108460000D01*
%TO.N,Net-(D4-Pad1)*%
X110500000Y-56500000D02*
X114500000Y-56500000D01*
X121460000Y-65960000D02*
X123000000Y-65960000D01*
X116500000Y-57500000D02*
X116500000Y-61000000D01*
X115500000Y-56500000D02*
X116500000Y-57500000D01*
X116500000Y-61000000D02*
X121460000Y-65960000D01*
X114500000Y-56500000D02*
X115500000Y-56500000D01*
D33*
%TO.N,Net-(D5-Pad2)*%
X153340000Y-110500000D02*
X153340000Y-116500000D01*
%TO.N,Net-(D6-Pad2)*%
X154840000Y-68500000D02*
X154840000Y-74000000D01*
%TO.N,Net-(D7-Pad1)*%
X163500000Y-124540000D02*
X163500000Y-116500000D01*
X161000000Y-127040000D02*
X163500000Y-124540000D01*
X159000000Y-129040000D02*
X161000000Y-127040000D01*
X129450000Y-141500000D02*
X133500000Y-141500000D01*
X125950000Y-138000000D02*
X129450000Y-141500000D01*
X133000000Y-141500000D02*
X133500000Y-141500000D01*
X159000000Y-129040000D02*
X158960000Y-129040000D01*
X158960000Y-129040000D02*
X155000000Y-133000000D01*
X155000000Y-133000000D02*
X155000000Y-139000000D01*
X155000000Y-139000000D02*
X152500000Y-141500000D01*
X133500000Y-141500000D02*
X152500000Y-141500000D01*
%TO.N,Net-(D8-Pad1)*%
X165000000Y-86500000D02*
X165000000Y-74000000D01*
X165000000Y-86040000D02*
X161500000Y-82540000D01*
X165000000Y-86500000D02*
X165000000Y-86040000D01*
X156000000Y-95500000D02*
X165000000Y-86500000D01*
X127950000Y-95500000D02*
X156000000Y-95500000D01*
X123950000Y-91500000D02*
X127950000Y-95500000D01*
D32*
%TO.N,Net-(Q1-Pad1)*%
X143500000Y-135000000D02*
X140500000Y-138000000D01*
X143500000Y-131200000D02*
X143500000Y-135000000D01*
D33*
%TO.N,Net-(Q2-Pad1)*%
X142500000Y-91000000D02*
X142000000Y-91500000D01*
X142500000Y-85200000D02*
X142500000Y-91000000D01*
D32*
%TO.N,Net-(Q7-Pad1)*%
X123000000Y-135500000D02*
X120500000Y-138000000D01*
X123000000Y-130500000D02*
X123000000Y-135500000D01*
D33*
%TO.N,Net-(Q8-Pad1)*%
X119500000Y-90500000D02*
X118500000Y-91500000D01*
X119500000Y-85000000D02*
X119500000Y-90500000D01*
%TO.N,Net-(Q5-Pad3)*%
X136500000Y-124080000D02*
X143220000Y-124080000D01*
X145400000Y-120400000D02*
X145400000Y-121900000D01*
X143500000Y-118500000D02*
X145400000Y-120400000D01*
X145400000Y-121900000D02*
X149000000Y-118300000D01*
X143220000Y-124080000D02*
X145400000Y-121900000D01*
D32*
%TO.N,Net-(Q6-Pad3)*%
X142500000Y-72580000D02*
X142500000Y-72500000D01*
D33*
X148500000Y-72800000D02*
X145000000Y-76300000D01*
X138780000Y-76300000D02*
X133500000Y-81580000D01*
X145000000Y-76300000D02*
X138780000Y-76300000D01*
X145000000Y-75000000D02*
X142500000Y-72500000D01*
X145000000Y-76300000D02*
X145000000Y-75000000D01*
D32*
%TO.N,timed_trigger2*%
X129000000Y-113080000D02*
X129000000Y-117800000D01*
X132000000Y-110080000D02*
X129000000Y-113080000D01*
%TO.N,Net-(Q5-Pad2)*%
X129000000Y-130500000D02*
X129000000Y-126000000D01*
X133460000Y-121540000D02*
X136500000Y-121540000D01*
X129000000Y-126000000D02*
X133460000Y-121540000D01*
%TO.N,Net-(Q6-Pad2)*%
X127540000Y-85000000D02*
X133500000Y-79040000D01*
X125000000Y-85000000D02*
X127540000Y-85000000D01*
%TO.N,timed_trigger1*%
X129720000Y-67580000D02*
X125000000Y-72300000D01*
X130000000Y-67580000D02*
X129720000Y-67580000D01*
D33*
%TO.N,Net-(Q3-Pad3)*%
X127500000Y-104420000D02*
X126000000Y-105920000D01*
X130100000Y-107540000D02*
X132000000Y-107540000D01*
X127500000Y-104940000D02*
X130100000Y-107540000D01*
X127500000Y-103000000D02*
X127500000Y-104940000D01*
X127500000Y-103000000D02*
X127500000Y-104420000D01*
X127500000Y-99500000D02*
X127500000Y-103000000D01*
D32*
%TO.N,Net-(Q4-Pad3)*%
X123000000Y-63420000D02*
X125080000Y-65500000D01*
X129540000Y-65500000D02*
X130000000Y-65040000D01*
X125080000Y-65500000D02*
X129540000Y-65500000D01*
X123000000Y-62000000D02*
X123000000Y-63420000D01*
X125000000Y-60000000D02*
X123000000Y-62000000D01*
X133000000Y-60000000D02*
X125000000Y-60000000D01*
X135500000Y-57500000D02*
X133000000Y-60000000D01*
D33*
%TO.N,Net-(R15-Pad2)*%
X120000000Y-56000000D02*
X120000000Y-53200000D01*
X118800000Y-57200000D02*
X120000000Y-56000000D01*
X118800000Y-57400000D02*
X118800000Y-57200000D01*
%TO.N,Net-(C7-Pad2)*%
X149420000Y-47920000D02*
X147880000Y-47920000D01*
X156960000Y-50460000D02*
X151960000Y-50460000D01*
X159000000Y-52500000D02*
X156960000Y-50460000D01*
X151960000Y-50460000D02*
X149420000Y-47920000D01*
X159000000Y-53000000D02*
X159000000Y-52500000D01*
%TO.N,Net-(C8-Pad2)*%
X145620000Y-45380000D02*
X147880000Y-45380000D01*
X143500000Y-47500000D02*
X145620000Y-45380000D01*
%TO.N,Net-(D17-Pad2)*%
X135240000Y-38500000D02*
X134500000Y-37760000D01*
X141000000Y-38500000D02*
X135240000Y-38500000D01*
%TO.N,Net-(Q9-Pad1)*%
X124500000Y-43500000D02*
X124500000Y-40500000D01*
X124500000Y-48700000D02*
X124500000Y-43500000D01*
X129000000Y-53200000D02*
X124500000Y-48700000D01*
X122500000Y-38000000D02*
X122500000Y-36500000D01*
X124500000Y-40000000D02*
X122500000Y-38000000D01*
X124500000Y-40500000D02*
X124500000Y-40000000D01*
%TD*%
M02*
