%TF.GenerationSoftware,KiCad,Pcbnew,5.1.10-88a1d61d58~88~ubuntu20.04.1*%
%TF.CreationDate,2021-05-05T16:02:56+01:00*%
%TF.ProjectId,spike_n_hold,7370696b-655f-46e5-9f68-6f6c642e6b69,rev?*%
%TF.SameCoordinates,Original*%
%TF.FileFunction,Other,Fab,Top*%
%FSLAX46Y46*%
G04 Gerber Fmt 4.6, Leading zero omitted, Abs format (unit mm)*
G04 Created by KiCad (PCBNEW 5.1.10-88a1d61d58~88~ubuntu20.04.1) date 2021-05-05 16:02:56*
%MOMM*%
%LPD*%
G01*
G04 APERTURE LIST*
%ADD10C,0.100000*%
%ADD11C,0.150000*%
G04 APERTURE END LIST*
D10*
%TO.C,D4*%
X118350000Y-59480000D02*
X115650000Y-59480000D01*
X115650000Y-59480000D02*
X115650000Y-64680000D01*
X115650000Y-64680000D02*
X118350000Y-64680000D01*
X118350000Y-64680000D02*
X118350000Y-59480000D01*
X117000000Y-57000000D02*
X117000000Y-59480000D01*
X117000000Y-67160000D02*
X117000000Y-64680000D01*
X118350000Y-60260000D02*
X115650000Y-60260000D01*
X118350000Y-60360000D02*
X115650000Y-60360000D01*
X118350000Y-60160000D02*
X115650000Y-60160000D01*
%TO.C,C1*%
X119100000Y-117450000D02*
X115900000Y-117450000D01*
X115900000Y-117450000D02*
X115900000Y-122550000D01*
X115900000Y-122550000D02*
X119100000Y-122550000D01*
X119100000Y-122550000D02*
X119100000Y-117450000D01*
%TO.C,C2*%
X109450000Y-72900000D02*
X109450000Y-76100000D01*
X109450000Y-76100000D02*
X114550000Y-76100000D01*
X114550000Y-76100000D02*
X114550000Y-72900000D01*
X114550000Y-72900000D02*
X109450000Y-72900000D01*
%TO.C,C3*%
X144450000Y-114100000D02*
X149550000Y-114100000D01*
X144450000Y-110900000D02*
X144450000Y-114100000D01*
X149550000Y-110900000D02*
X144450000Y-110900000D01*
X149550000Y-114100000D02*
X149550000Y-110900000D01*
%TO.C,C4*%
X145450000Y-69600000D02*
X150550000Y-69600000D01*
X145450000Y-66400000D02*
X145450000Y-69600000D01*
X150550000Y-66400000D02*
X145450000Y-66400000D01*
X150550000Y-69600000D02*
X150550000Y-66400000D01*
%TO.C,C5*%
X144450000Y-105900000D02*
X144450000Y-109100000D01*
X144450000Y-109100000D02*
X149550000Y-109100000D01*
X149550000Y-109100000D02*
X149550000Y-105900000D01*
X149550000Y-105900000D02*
X144450000Y-105900000D01*
%TO.C,C6*%
X150550000Y-61400000D02*
X145450000Y-61400000D01*
X150550000Y-64600000D02*
X150550000Y-61400000D01*
X145450000Y-64600000D02*
X150550000Y-64600000D01*
X145450000Y-61400000D02*
X145450000Y-64600000D01*
%TO.C,C11*%
X126687500Y-45211139D02*
X125687500Y-45211139D01*
X126187500Y-44711139D02*
X126187500Y-45711139D01*
X129000000Y-49000000D02*
G75*
G03*
X129000000Y-49000000I-5000000J0D01*
G01*
%TO.C,C15*%
X150500000Y-38500000D02*
G75*
G03*
X150500000Y-38500000I-5000000J0D01*
G01*
X141211139Y-36312500D02*
X142211139Y-36312500D01*
X141711139Y-35812500D02*
X141711139Y-36812500D01*
%TO.C,D1*%
X160340000Y-106350000D02*
X160340000Y-103650000D01*
X160140000Y-106350000D02*
X160140000Y-103650000D01*
X160240000Y-106350000D02*
X160240000Y-103650000D01*
X153340000Y-105000000D02*
X155820000Y-105000000D01*
X163500000Y-105000000D02*
X161020000Y-105000000D01*
X155820000Y-106350000D02*
X161020000Y-106350000D01*
X155820000Y-103650000D02*
X155820000Y-106350000D01*
X161020000Y-103650000D02*
X155820000Y-103650000D01*
X161020000Y-106350000D02*
X161020000Y-103650000D01*
%TO.C,D2*%
X162520000Y-64350000D02*
X162520000Y-61650000D01*
X162520000Y-61650000D02*
X157320000Y-61650000D01*
X157320000Y-61650000D02*
X157320000Y-64350000D01*
X157320000Y-64350000D02*
X162520000Y-64350000D01*
X165000000Y-63000000D02*
X162520000Y-63000000D01*
X154840000Y-63000000D02*
X157320000Y-63000000D01*
X161740000Y-64350000D02*
X161740000Y-61650000D01*
X161640000Y-64350000D02*
X161640000Y-61650000D01*
X161840000Y-64350000D02*
X161840000Y-61650000D01*
%TO.C,D3*%
X120350000Y-106660000D02*
X117650000Y-106660000D01*
X120350000Y-106860000D02*
X117650000Y-106860000D01*
X120350000Y-106760000D02*
X117650000Y-106760000D01*
X119000000Y-113660000D02*
X119000000Y-111180000D01*
X119000000Y-103500000D02*
X119000000Y-105980000D01*
X120350000Y-111180000D02*
X120350000Y-105980000D01*
X117650000Y-111180000D02*
X120350000Y-111180000D01*
X117650000Y-105980000D02*
X117650000Y-111180000D01*
X120350000Y-105980000D02*
X117650000Y-105980000D01*
%TO.C,D5*%
X160340000Y-111850000D02*
X160340000Y-109150000D01*
X160140000Y-111850000D02*
X160140000Y-109150000D01*
X160240000Y-111850000D02*
X160240000Y-109150000D01*
X153340000Y-110500000D02*
X155820000Y-110500000D01*
X163500000Y-110500000D02*
X161020000Y-110500000D01*
X155820000Y-111850000D02*
X161020000Y-111850000D01*
X155820000Y-109150000D02*
X155820000Y-111850000D01*
X161020000Y-109150000D02*
X155820000Y-109150000D01*
X161020000Y-111850000D02*
X161020000Y-109150000D01*
%TO.C,D6*%
X161840000Y-69850000D02*
X161840000Y-67150000D01*
X161640000Y-69850000D02*
X161640000Y-67150000D01*
X161740000Y-69850000D02*
X161740000Y-67150000D01*
X154840000Y-68500000D02*
X157320000Y-68500000D01*
X165000000Y-68500000D02*
X162520000Y-68500000D01*
X157320000Y-69850000D02*
X162520000Y-69850000D01*
X157320000Y-67150000D02*
X157320000Y-69850000D01*
X162520000Y-67150000D02*
X157320000Y-67150000D01*
X162520000Y-69850000D02*
X162520000Y-67150000D01*
%TO.C,D7*%
X161020000Y-117850000D02*
X161020000Y-115150000D01*
X161020000Y-115150000D02*
X155820000Y-115150000D01*
X155820000Y-115150000D02*
X155820000Y-117850000D01*
X155820000Y-117850000D02*
X161020000Y-117850000D01*
X163500000Y-116500000D02*
X161020000Y-116500000D01*
X153340000Y-116500000D02*
X155820000Y-116500000D01*
X160240000Y-117850000D02*
X160240000Y-115150000D01*
X160140000Y-117850000D02*
X160140000Y-115150000D01*
X160340000Y-117850000D02*
X160340000Y-115150000D01*
%TO.C,D8*%
X161840000Y-75350000D02*
X161840000Y-72650000D01*
X161640000Y-75350000D02*
X161640000Y-72650000D01*
X161740000Y-75350000D02*
X161740000Y-72650000D01*
X154840000Y-74000000D02*
X157320000Y-74000000D01*
X165000000Y-74000000D02*
X162520000Y-74000000D01*
X157320000Y-75350000D02*
X162520000Y-75350000D01*
X157320000Y-72650000D02*
X157320000Y-75350000D01*
X162520000Y-72650000D02*
X157320000Y-72650000D01*
X162520000Y-75350000D02*
X162520000Y-72650000D01*
%TO.C,D17*%
X135370000Y-46400000D02*
X135370000Y-51600000D01*
X135370000Y-51600000D02*
X144870000Y-51600000D01*
X144870000Y-51600000D02*
X144870000Y-46400000D01*
X144870000Y-46400000D02*
X135370000Y-46400000D01*
X132500000Y-49000000D02*
X135370000Y-49000000D01*
X147740000Y-49000000D02*
X144870000Y-49000000D01*
X136795000Y-46400000D02*
X136795000Y-51600000D01*
X136895000Y-46400000D02*
X136895000Y-51600000D01*
X136695000Y-46400000D02*
X136695000Y-51600000D01*
%TO.C,J1*%
X113865000Y-126730000D02*
X115770000Y-126730000D01*
X115770000Y-126730000D02*
X115770000Y-131810000D01*
X115770000Y-131810000D02*
X113230000Y-131810000D01*
X113230000Y-131810000D02*
X113230000Y-127365000D01*
X113230000Y-127365000D02*
X113865000Y-126730000D01*
%TO.C,J2*%
X110865000Y-79230000D02*
X112770000Y-79230000D01*
X112770000Y-79230000D02*
X112770000Y-84310000D01*
X112770000Y-84310000D02*
X110230000Y-84310000D01*
X110230000Y-84310000D02*
X110230000Y-79865000D01*
X110230000Y-79865000D02*
X110865000Y-79230000D01*
%TO.C,J3*%
X160365000Y-123230000D02*
X162270000Y-123230000D01*
X162270000Y-123230000D02*
X162270000Y-128310000D01*
X162270000Y-128310000D02*
X159730000Y-128310000D01*
X159730000Y-128310000D02*
X159730000Y-123865000D01*
X159730000Y-123865000D02*
X160365000Y-123230000D01*
%TO.C,J4*%
X160230000Y-79365000D02*
X160865000Y-78730000D01*
X160230000Y-83810000D02*
X160230000Y-79365000D01*
X162770000Y-83810000D02*
X160230000Y-83810000D01*
X162770000Y-78730000D02*
X162770000Y-83810000D01*
X160865000Y-78730000D02*
X162770000Y-78730000D01*
%TO.C,J9*%
X100800000Y-51500000D02*
X100800000Y-42500000D01*
X115200000Y-42500000D02*
X100800000Y-42500000D01*
X115200000Y-51500000D02*
X100800000Y-51500000D01*
X115200000Y-51500000D02*
X115200000Y-42500000D01*
%TO.C,L1*%
X138250000Y-40750000D02*
G75*
G03*
X138250000Y-40750000I-3750000J0D01*
G01*
%TO.C,Q1*%
X147755000Y-135670000D02*
X147755000Y-140700000D01*
X144145000Y-135670000D02*
X144145000Y-140700000D01*
X153900000Y-135670000D02*
X138000000Y-135670000D01*
X153900000Y-140700000D02*
X153900000Y-135670000D01*
X138000000Y-140700000D02*
X153900000Y-140700000D01*
X138000000Y-135670000D02*
X138000000Y-140700000D01*
%TO.C,Q2*%
X139500000Y-89170000D02*
X139500000Y-94200000D01*
X139500000Y-94200000D02*
X155400000Y-94200000D01*
X155400000Y-94200000D02*
X155400000Y-89170000D01*
X155400000Y-89170000D02*
X139500000Y-89170000D01*
X145645000Y-89170000D02*
X145645000Y-94200000D01*
X149255000Y-89170000D02*
X149255000Y-94200000D01*
%TO.C,Q7*%
X127755000Y-135670000D02*
X127755000Y-140700000D01*
X124145000Y-135670000D02*
X124145000Y-140700000D01*
X133900000Y-135670000D02*
X118000000Y-135670000D01*
X133900000Y-140700000D02*
X133900000Y-135670000D01*
X118000000Y-140700000D02*
X133900000Y-140700000D01*
X118000000Y-135670000D02*
X118000000Y-140700000D01*
%TO.C,Q8*%
X125755000Y-89170000D02*
X125755000Y-94200000D01*
X122145000Y-89170000D02*
X122145000Y-94200000D01*
X131900000Y-89170000D02*
X116000000Y-89170000D01*
X131900000Y-94200000D02*
X131900000Y-89170000D01*
X116000000Y-94200000D02*
X131900000Y-94200000D01*
X116000000Y-89170000D02*
X116000000Y-94200000D01*
%TO.C,R1*%
X147200000Y-129600000D02*
X150800000Y-129600000D01*
X150800000Y-129600000D02*
X150800000Y-119700000D01*
X150800000Y-119700000D02*
X147200000Y-119700000D01*
X147200000Y-119700000D02*
X147200000Y-129600000D01*
X149000000Y-131000000D02*
X149000000Y-129600000D01*
X149000000Y-118300000D02*
X149000000Y-119700000D01*
%TO.C,R2*%
X148500000Y-72800000D02*
X148500000Y-74200000D01*
X148500000Y-85500000D02*
X148500000Y-84100000D01*
X146700000Y-74200000D02*
X146700000Y-84100000D01*
X150300000Y-74200000D02*
X146700000Y-74200000D01*
X150300000Y-84100000D02*
X150300000Y-74200000D01*
X146700000Y-84100000D02*
X150300000Y-84100000D01*
%TO.C,R3*%
X143500000Y-131200000D02*
X143500000Y-129800000D01*
X143500000Y-118500000D02*
X143500000Y-119900000D01*
X145300000Y-129800000D02*
X145300000Y-119900000D01*
X141700000Y-129800000D02*
X145300000Y-129800000D01*
X141700000Y-119900000D02*
X141700000Y-129800000D01*
X145300000Y-119900000D02*
X141700000Y-119900000D01*
%TO.C,R4*%
X144300000Y-73900000D02*
X140700000Y-73900000D01*
X140700000Y-73900000D02*
X140700000Y-83800000D01*
X140700000Y-83800000D02*
X144300000Y-83800000D01*
X144300000Y-83800000D02*
X144300000Y-73900000D01*
X142500000Y-72500000D02*
X142500000Y-73900000D01*
X142500000Y-85200000D02*
X142500000Y-83800000D01*
%TO.C,R5*%
X112500000Y-115700000D02*
X112500000Y-114300000D01*
X112500000Y-103000000D02*
X112500000Y-104400000D01*
X114300000Y-114300000D02*
X114300000Y-104400000D01*
X110700000Y-114300000D02*
X114300000Y-114300000D01*
X110700000Y-104400000D02*
X110700000Y-114300000D01*
X114300000Y-104400000D02*
X110700000Y-104400000D01*
%TO.C,R6*%
X112300000Y-57900000D02*
X108700000Y-57900000D01*
X108700000Y-57900000D02*
X108700000Y-67800000D01*
X108700000Y-67800000D02*
X112300000Y-67800000D01*
X112300000Y-67800000D02*
X112300000Y-57900000D01*
X110500000Y-56500000D02*
X110500000Y-57900000D01*
X110500000Y-69200000D02*
X110500000Y-67800000D01*
%TO.C,R7*%
X129000000Y-117800000D02*
X129000000Y-119200000D01*
X129000000Y-130500000D02*
X129000000Y-129100000D01*
X127200000Y-119200000D02*
X127200000Y-129100000D01*
X130800000Y-119200000D02*
X127200000Y-119200000D01*
X130800000Y-129100000D02*
X130800000Y-119200000D01*
X127200000Y-129100000D02*
X130800000Y-129100000D01*
%TO.C,R8*%
X123200000Y-83600000D02*
X126800000Y-83600000D01*
X126800000Y-83600000D02*
X126800000Y-73700000D01*
X126800000Y-73700000D02*
X123200000Y-73700000D01*
X123200000Y-73700000D02*
X123200000Y-83600000D01*
X125000000Y-85000000D02*
X125000000Y-83600000D01*
X125000000Y-72300000D02*
X125000000Y-73700000D01*
%TO.C,R9*%
X128900000Y-97200000D02*
X128900000Y-100800000D01*
X128900000Y-100800000D02*
X138800000Y-100800000D01*
X138800000Y-100800000D02*
X138800000Y-97200000D01*
X138800000Y-97200000D02*
X128900000Y-97200000D01*
X127500000Y-99000000D02*
X128900000Y-99000000D01*
X140200000Y-99000000D02*
X138800000Y-99000000D01*
%TO.C,R10*%
X140700000Y-57500000D02*
X139300000Y-57500000D01*
X128000000Y-57500000D02*
X129400000Y-57500000D01*
X139300000Y-55700000D02*
X129400000Y-55700000D01*
X139300000Y-59300000D02*
X139300000Y-55700000D01*
X129400000Y-59300000D02*
X139300000Y-59300000D01*
X129400000Y-55700000D02*
X129400000Y-59300000D01*
%TO.C,R11*%
X121200000Y-129100000D02*
X124800000Y-129100000D01*
X124800000Y-129100000D02*
X124800000Y-119200000D01*
X124800000Y-119200000D02*
X121200000Y-119200000D01*
X121200000Y-119200000D02*
X121200000Y-129100000D01*
X123000000Y-130500000D02*
X123000000Y-129100000D01*
X123000000Y-117800000D02*
X123000000Y-119200000D01*
%TO.C,R12*%
X119500000Y-72300000D02*
X119500000Y-73700000D01*
X119500000Y-85000000D02*
X119500000Y-83600000D01*
X117700000Y-73700000D02*
X117700000Y-83600000D01*
X121300000Y-73700000D02*
X117700000Y-73700000D01*
X121300000Y-83600000D02*
X121300000Y-73700000D01*
X117700000Y-83600000D02*
X121300000Y-83600000D01*
%TO.C,R13*%
X157700000Y-99000000D02*
X156300000Y-99000000D01*
X145000000Y-99000000D02*
X146400000Y-99000000D01*
X156300000Y-97200000D02*
X146400000Y-97200000D01*
X156300000Y-100800000D02*
X156300000Y-97200000D01*
X146400000Y-100800000D02*
X156300000Y-100800000D01*
X146400000Y-97200000D02*
X146400000Y-100800000D01*
%TO.C,R14*%
X146900000Y-55700000D02*
X146900000Y-59300000D01*
X146900000Y-59300000D02*
X156800000Y-59300000D01*
X156800000Y-59300000D02*
X156800000Y-55700000D01*
X156800000Y-55700000D02*
X146900000Y-55700000D01*
X145500000Y-57500000D02*
X146900000Y-57500000D01*
X158200000Y-57500000D02*
X156800000Y-57500000D01*
%TO.C,U1*%
X133635000Y-103730000D02*
X138985000Y-103730000D01*
X138985000Y-103730000D02*
X138985000Y-113890000D01*
X138985000Y-113890000D02*
X132635000Y-113890000D01*
X132635000Y-113890000D02*
X132635000Y-104730000D01*
X132635000Y-104730000D02*
X133635000Y-103730000D01*
%TO.C,U2*%
X131635000Y-61230000D02*
X136985000Y-61230000D01*
X136985000Y-61230000D02*
X136985000Y-71390000D01*
X136985000Y-71390000D02*
X130635000Y-71390000D01*
X130635000Y-71390000D02*
X130635000Y-62230000D01*
X130635000Y-62230000D02*
X131635000Y-61230000D01*
%TO.C,Q3*%
X127600000Y-110350000D02*
X127600000Y-106600000D01*
X127592547Y-106558897D02*
G75*
G03*
X123520000Y-108460000I-1592547J-1901103D01*
G01*
X127602385Y-110352818D02*
G75*
G02*
X123520000Y-108460000I-1602385J1892818D01*
G01*
%TO.C,Q4*%
X124600000Y-67850000D02*
X124600000Y-64100000D01*
X124602385Y-67852818D02*
G75*
G02*
X120520000Y-65960000I-1602385J1892818D01*
G01*
X124592547Y-64058897D02*
G75*
G03*
X120520000Y-65960000I-1592547J-1901103D01*
G01*
%TO.C,Q5*%
X134900000Y-119650000D02*
X134900000Y-123400000D01*
X134897615Y-119647182D02*
G75*
G02*
X138980000Y-121540000I1602385J-1892818D01*
G01*
X134907453Y-123441103D02*
G75*
G03*
X138980000Y-121540000I1592547J1901103D01*
G01*
%TO.C,Q6*%
X131900000Y-77150000D02*
X131900000Y-80900000D01*
X131897615Y-77147182D02*
G75*
G02*
X135980000Y-79040000I1602385J-1892818D01*
G01*
X131907453Y-80941103D02*
G75*
G03*
X135980000Y-79040000I1592547J1901103D01*
G01*
%TO.C,R15*%
X152300000Y-47000000D02*
X153700000Y-47000000D01*
X165000000Y-47000000D02*
X163600000Y-47000000D01*
X153700000Y-48800000D02*
X163600000Y-48800000D01*
X153700000Y-45200000D02*
X153700000Y-48800000D01*
X163600000Y-45200000D02*
X153700000Y-45200000D01*
X163600000Y-48800000D02*
X163600000Y-45200000D01*
%TO.C,R16*%
X153400000Y-49700000D02*
X153400000Y-53300000D01*
X153400000Y-53300000D02*
X163300000Y-53300000D01*
X163300000Y-53300000D02*
X163300000Y-49700000D01*
X163300000Y-49700000D02*
X153400000Y-49700000D01*
X152000000Y-51500000D02*
X153400000Y-51500000D01*
X164700000Y-51500000D02*
X163300000Y-51500000D01*
%TO.C,U5*%
X118400000Y-32800000D02*
X118400000Y-37200000D01*
X118400000Y-37200000D02*
X128400000Y-37200000D01*
X128400000Y-37200000D02*
X128400000Y-32800000D01*
X128400000Y-32800000D02*
X118400000Y-32800000D01*
X118400000Y-34070000D02*
X128400000Y-34070000D01*
X121550000Y-32800000D02*
X121550000Y-34070000D01*
X125250000Y-32800000D02*
X125250000Y-34070000D01*
X120000000Y-37200000D02*
X120000000Y-41000000D01*
X121700000Y-37200000D02*
X121700000Y-37300000D01*
X123400000Y-37200000D02*
X123400000Y-41000000D01*
X125100000Y-37200000D02*
X125100000Y-37300000D01*
X126800000Y-37200000D02*
X126800000Y-41000000D01*
%TD*%
%TO.C,H3*%
D11*
X161538095Y-37952380D02*
X161538095Y-36952380D01*
X161538095Y-37428571D02*
X162109523Y-37428571D01*
X162109523Y-37952380D02*
X162109523Y-36952380D01*
X162490476Y-36952380D02*
X163109523Y-36952380D01*
X162776190Y-37333333D01*
X162919047Y-37333333D01*
X163014285Y-37380952D01*
X163061904Y-37428571D01*
X163109523Y-37523809D01*
X163109523Y-37761904D01*
X163061904Y-37857142D01*
X163014285Y-37904761D01*
X162919047Y-37952380D01*
X162633333Y-37952380D01*
X162538095Y-37904761D01*
X162490476Y-37857142D01*
%TO.C,D4*%
X117452380Y-63208095D02*
X116452380Y-63208095D01*
X116452380Y-62970000D01*
X116500000Y-62827142D01*
X116595238Y-62731904D01*
X116690476Y-62684285D01*
X116880952Y-62636666D01*
X117023809Y-62636666D01*
X117214285Y-62684285D01*
X117309523Y-62731904D01*
X117404761Y-62827142D01*
X117452380Y-62970000D01*
X117452380Y-63208095D01*
X116785714Y-61779523D02*
X117452380Y-61779523D01*
X116404761Y-62017619D02*
X117119047Y-62255714D01*
X117119047Y-61636666D01*
X119552380Y-57261904D02*
X118552380Y-57261904D01*
X119552380Y-56690476D02*
X118980952Y-57119047D01*
X118552380Y-56690476D02*
X119123809Y-57261904D01*
%TO.C,C1*%
X117857142Y-120166666D02*
X117904761Y-120214285D01*
X117952380Y-120357142D01*
X117952380Y-120452380D01*
X117904761Y-120595238D01*
X117809523Y-120690476D01*
X117714285Y-120738095D01*
X117523809Y-120785714D01*
X117380952Y-120785714D01*
X117190476Y-120738095D01*
X117095238Y-120690476D01*
X117000000Y-120595238D01*
X116952380Y-120452380D01*
X116952380Y-120357142D01*
X117000000Y-120214285D01*
X117047619Y-120166666D01*
X117952380Y-119214285D02*
X117952380Y-119785714D01*
X117952380Y-119500000D02*
X116952380Y-119500000D01*
X117095238Y-119595238D01*
X117190476Y-119690476D01*
X117238095Y-119785714D01*
%TO.C,C2*%
X111833333Y-74857142D02*
X111785714Y-74904761D01*
X111642857Y-74952380D01*
X111547619Y-74952380D01*
X111404761Y-74904761D01*
X111309523Y-74809523D01*
X111261904Y-74714285D01*
X111214285Y-74523809D01*
X111214285Y-74380952D01*
X111261904Y-74190476D01*
X111309523Y-74095238D01*
X111404761Y-74000000D01*
X111547619Y-73952380D01*
X111642857Y-73952380D01*
X111785714Y-74000000D01*
X111833333Y-74047619D01*
X112214285Y-74047619D02*
X112261904Y-74000000D01*
X112357142Y-73952380D01*
X112595238Y-73952380D01*
X112690476Y-74000000D01*
X112738095Y-74047619D01*
X112785714Y-74142857D01*
X112785714Y-74238095D01*
X112738095Y-74380952D01*
X112166666Y-74952380D01*
X112785714Y-74952380D01*
%TO.C,C3*%
X146833333Y-112857142D02*
X146785714Y-112904761D01*
X146642857Y-112952380D01*
X146547619Y-112952380D01*
X146404761Y-112904761D01*
X146309523Y-112809523D01*
X146261904Y-112714285D01*
X146214285Y-112523809D01*
X146214285Y-112380952D01*
X146261904Y-112190476D01*
X146309523Y-112095238D01*
X146404761Y-112000000D01*
X146547619Y-111952380D01*
X146642857Y-111952380D01*
X146785714Y-112000000D01*
X146833333Y-112047619D01*
X147166666Y-111952380D02*
X147785714Y-111952380D01*
X147452380Y-112333333D01*
X147595238Y-112333333D01*
X147690476Y-112380952D01*
X147738095Y-112428571D01*
X147785714Y-112523809D01*
X147785714Y-112761904D01*
X147738095Y-112857142D01*
X147690476Y-112904761D01*
X147595238Y-112952380D01*
X147309523Y-112952380D01*
X147214285Y-112904761D01*
X147166666Y-112857142D01*
%TO.C,C4*%
X147833333Y-68357142D02*
X147785714Y-68404761D01*
X147642857Y-68452380D01*
X147547619Y-68452380D01*
X147404761Y-68404761D01*
X147309523Y-68309523D01*
X147261904Y-68214285D01*
X147214285Y-68023809D01*
X147214285Y-67880952D01*
X147261904Y-67690476D01*
X147309523Y-67595238D01*
X147404761Y-67500000D01*
X147547619Y-67452380D01*
X147642857Y-67452380D01*
X147785714Y-67500000D01*
X147833333Y-67547619D01*
X148690476Y-67785714D02*
X148690476Y-68452380D01*
X148452380Y-67404761D02*
X148214285Y-68119047D01*
X148833333Y-68119047D01*
%TO.C,C5*%
X146833333Y-107857142D02*
X146785714Y-107904761D01*
X146642857Y-107952380D01*
X146547619Y-107952380D01*
X146404761Y-107904761D01*
X146309523Y-107809523D01*
X146261904Y-107714285D01*
X146214285Y-107523809D01*
X146214285Y-107380952D01*
X146261904Y-107190476D01*
X146309523Y-107095238D01*
X146404761Y-107000000D01*
X146547619Y-106952380D01*
X146642857Y-106952380D01*
X146785714Y-107000000D01*
X146833333Y-107047619D01*
X147738095Y-106952380D02*
X147261904Y-106952380D01*
X147214285Y-107428571D01*
X147261904Y-107380952D01*
X147357142Y-107333333D01*
X147595238Y-107333333D01*
X147690476Y-107380952D01*
X147738095Y-107428571D01*
X147785714Y-107523809D01*
X147785714Y-107761904D01*
X147738095Y-107857142D01*
X147690476Y-107904761D01*
X147595238Y-107952380D01*
X147357142Y-107952380D01*
X147261904Y-107904761D01*
X147214285Y-107857142D01*
%TO.C,C6*%
X147833333Y-63357142D02*
X147785714Y-63404761D01*
X147642857Y-63452380D01*
X147547619Y-63452380D01*
X147404761Y-63404761D01*
X147309523Y-63309523D01*
X147261904Y-63214285D01*
X147214285Y-63023809D01*
X147214285Y-62880952D01*
X147261904Y-62690476D01*
X147309523Y-62595238D01*
X147404761Y-62500000D01*
X147547619Y-62452380D01*
X147642857Y-62452380D01*
X147785714Y-62500000D01*
X147833333Y-62547619D01*
X148690476Y-62452380D02*
X148500000Y-62452380D01*
X148404761Y-62500000D01*
X148357142Y-62547619D01*
X148261904Y-62690476D01*
X148214285Y-62880952D01*
X148214285Y-63261904D01*
X148261904Y-63357142D01*
X148309523Y-63404761D01*
X148404761Y-63452380D01*
X148595238Y-63452380D01*
X148690476Y-63404761D01*
X148738095Y-63357142D01*
X148785714Y-63261904D01*
X148785714Y-63023809D01*
X148738095Y-62928571D01*
X148690476Y-62880952D01*
X148595238Y-62833333D01*
X148404761Y-62833333D01*
X148309523Y-62880952D01*
X148261904Y-62928571D01*
X148214285Y-63023809D01*
%TO.C,C11*%
X124357142Y-49642857D02*
X124404761Y-49690476D01*
X124452380Y-49833333D01*
X124452380Y-49928571D01*
X124404761Y-50071428D01*
X124309523Y-50166666D01*
X124214285Y-50214285D01*
X124023809Y-50261904D01*
X123880952Y-50261904D01*
X123690476Y-50214285D01*
X123595238Y-50166666D01*
X123500000Y-50071428D01*
X123452380Y-49928571D01*
X123452380Y-49833333D01*
X123500000Y-49690476D01*
X123547619Y-49642857D01*
X124452380Y-48690476D02*
X124452380Y-49261904D01*
X124452380Y-48976190D02*
X123452380Y-48976190D01*
X123595238Y-49071428D01*
X123690476Y-49166666D01*
X123738095Y-49261904D01*
X124452380Y-47738095D02*
X124452380Y-48309523D01*
X124452380Y-48023809D02*
X123452380Y-48023809D01*
X123595238Y-48119047D01*
X123690476Y-48214285D01*
X123738095Y-48309523D01*
%TO.C,C15*%
X144857142Y-38857142D02*
X144809523Y-38904761D01*
X144666666Y-38952380D01*
X144571428Y-38952380D01*
X144428571Y-38904761D01*
X144333333Y-38809523D01*
X144285714Y-38714285D01*
X144238095Y-38523809D01*
X144238095Y-38380952D01*
X144285714Y-38190476D01*
X144333333Y-38095238D01*
X144428571Y-38000000D01*
X144571428Y-37952380D01*
X144666666Y-37952380D01*
X144809523Y-38000000D01*
X144857142Y-38047619D01*
X145809523Y-38952380D02*
X145238095Y-38952380D01*
X145523809Y-38952380D02*
X145523809Y-37952380D01*
X145428571Y-38095238D01*
X145333333Y-38190476D01*
X145238095Y-38238095D01*
X146714285Y-37952380D02*
X146238095Y-37952380D01*
X146190476Y-38428571D01*
X146238095Y-38380952D01*
X146333333Y-38333333D01*
X146571428Y-38333333D01*
X146666666Y-38380952D01*
X146714285Y-38428571D01*
X146761904Y-38523809D01*
X146761904Y-38761904D01*
X146714285Y-38857142D01*
X146666666Y-38904761D01*
X146571428Y-38952380D01*
X146333333Y-38952380D01*
X146238095Y-38904761D01*
X146190476Y-38857142D01*
%TO.C,D1*%
X163238095Y-107552380D02*
X163238095Y-106552380D01*
X163809523Y-107552380D02*
X163380952Y-106980952D01*
X163809523Y-106552380D02*
X163238095Y-107123809D01*
X157291904Y-105452380D02*
X157291904Y-104452380D01*
X157530000Y-104452380D01*
X157672857Y-104500000D01*
X157768095Y-104595238D01*
X157815714Y-104690476D01*
X157863333Y-104880952D01*
X157863333Y-105023809D01*
X157815714Y-105214285D01*
X157768095Y-105309523D01*
X157672857Y-105404761D01*
X157530000Y-105452380D01*
X157291904Y-105452380D01*
X158815714Y-105452380D02*
X158244285Y-105452380D01*
X158530000Y-105452380D02*
X158530000Y-104452380D01*
X158434761Y-104595238D01*
X158339523Y-104690476D01*
X158244285Y-104738095D01*
%TO.C,D2*%
X158791904Y-63452380D02*
X158791904Y-62452380D01*
X159030000Y-62452380D01*
X159172857Y-62500000D01*
X159268095Y-62595238D01*
X159315714Y-62690476D01*
X159363333Y-62880952D01*
X159363333Y-63023809D01*
X159315714Y-63214285D01*
X159268095Y-63309523D01*
X159172857Y-63404761D01*
X159030000Y-63452380D01*
X158791904Y-63452380D01*
X159744285Y-62547619D02*
X159791904Y-62500000D01*
X159887142Y-62452380D01*
X160125238Y-62452380D01*
X160220476Y-62500000D01*
X160268095Y-62547619D01*
X160315714Y-62642857D01*
X160315714Y-62738095D01*
X160268095Y-62880952D01*
X159696666Y-63452380D01*
X160315714Y-63452380D01*
X164738095Y-65552380D02*
X164738095Y-64552380D01*
X165309523Y-65552380D02*
X164880952Y-64980952D01*
X165309523Y-64552380D02*
X164738095Y-65123809D01*
%TO.C,D3*%
X121552380Y-103761904D02*
X120552380Y-103761904D01*
X121552380Y-103190476D02*
X120980952Y-103619047D01*
X120552380Y-103190476D02*
X121123809Y-103761904D01*
X119452380Y-109708095D02*
X118452380Y-109708095D01*
X118452380Y-109470000D01*
X118500000Y-109327142D01*
X118595238Y-109231904D01*
X118690476Y-109184285D01*
X118880952Y-109136666D01*
X119023809Y-109136666D01*
X119214285Y-109184285D01*
X119309523Y-109231904D01*
X119404761Y-109327142D01*
X119452380Y-109470000D01*
X119452380Y-109708095D01*
X118452380Y-108803333D02*
X118452380Y-108184285D01*
X118833333Y-108517619D01*
X118833333Y-108374761D01*
X118880952Y-108279523D01*
X118928571Y-108231904D01*
X119023809Y-108184285D01*
X119261904Y-108184285D01*
X119357142Y-108231904D01*
X119404761Y-108279523D01*
X119452380Y-108374761D01*
X119452380Y-108660476D01*
X119404761Y-108755714D01*
X119357142Y-108803333D01*
%TO.C,D5*%
X163238095Y-113052380D02*
X163238095Y-112052380D01*
X163809523Y-113052380D02*
X163380952Y-112480952D01*
X163809523Y-112052380D02*
X163238095Y-112623809D01*
X157291904Y-110952380D02*
X157291904Y-109952380D01*
X157530000Y-109952380D01*
X157672857Y-110000000D01*
X157768095Y-110095238D01*
X157815714Y-110190476D01*
X157863333Y-110380952D01*
X157863333Y-110523809D01*
X157815714Y-110714285D01*
X157768095Y-110809523D01*
X157672857Y-110904761D01*
X157530000Y-110952380D01*
X157291904Y-110952380D01*
X158768095Y-109952380D02*
X158291904Y-109952380D01*
X158244285Y-110428571D01*
X158291904Y-110380952D01*
X158387142Y-110333333D01*
X158625238Y-110333333D01*
X158720476Y-110380952D01*
X158768095Y-110428571D01*
X158815714Y-110523809D01*
X158815714Y-110761904D01*
X158768095Y-110857142D01*
X158720476Y-110904761D01*
X158625238Y-110952380D01*
X158387142Y-110952380D01*
X158291904Y-110904761D01*
X158244285Y-110857142D01*
%TO.C,D6*%
X164738095Y-71052380D02*
X164738095Y-70052380D01*
X165309523Y-71052380D02*
X164880952Y-70480952D01*
X165309523Y-70052380D02*
X164738095Y-70623809D01*
X158791904Y-68952380D02*
X158791904Y-67952380D01*
X159030000Y-67952380D01*
X159172857Y-68000000D01*
X159268095Y-68095238D01*
X159315714Y-68190476D01*
X159363333Y-68380952D01*
X159363333Y-68523809D01*
X159315714Y-68714285D01*
X159268095Y-68809523D01*
X159172857Y-68904761D01*
X159030000Y-68952380D01*
X158791904Y-68952380D01*
X160220476Y-67952380D02*
X160030000Y-67952380D01*
X159934761Y-68000000D01*
X159887142Y-68047619D01*
X159791904Y-68190476D01*
X159744285Y-68380952D01*
X159744285Y-68761904D01*
X159791904Y-68857142D01*
X159839523Y-68904761D01*
X159934761Y-68952380D01*
X160125238Y-68952380D01*
X160220476Y-68904761D01*
X160268095Y-68857142D01*
X160315714Y-68761904D01*
X160315714Y-68523809D01*
X160268095Y-68428571D01*
X160220476Y-68380952D01*
X160125238Y-68333333D01*
X159934761Y-68333333D01*
X159839523Y-68380952D01*
X159791904Y-68428571D01*
X159744285Y-68523809D01*
%TO.C,D7*%
X157291904Y-116952380D02*
X157291904Y-115952380D01*
X157530000Y-115952380D01*
X157672857Y-116000000D01*
X157768095Y-116095238D01*
X157815714Y-116190476D01*
X157863333Y-116380952D01*
X157863333Y-116523809D01*
X157815714Y-116714285D01*
X157768095Y-116809523D01*
X157672857Y-116904761D01*
X157530000Y-116952380D01*
X157291904Y-116952380D01*
X158196666Y-115952380D02*
X158863333Y-115952380D01*
X158434761Y-116952380D01*
X163238095Y-119052380D02*
X163238095Y-118052380D01*
X163809523Y-119052380D02*
X163380952Y-118480952D01*
X163809523Y-118052380D02*
X163238095Y-118623809D01*
%TO.C,D8*%
X164738095Y-76552380D02*
X164738095Y-75552380D01*
X165309523Y-76552380D02*
X164880952Y-75980952D01*
X165309523Y-75552380D02*
X164738095Y-76123809D01*
X158791904Y-74452380D02*
X158791904Y-73452380D01*
X159030000Y-73452380D01*
X159172857Y-73500000D01*
X159268095Y-73595238D01*
X159315714Y-73690476D01*
X159363333Y-73880952D01*
X159363333Y-74023809D01*
X159315714Y-74214285D01*
X159268095Y-74309523D01*
X159172857Y-74404761D01*
X159030000Y-74452380D01*
X158791904Y-74452380D01*
X159934761Y-73880952D02*
X159839523Y-73833333D01*
X159791904Y-73785714D01*
X159744285Y-73690476D01*
X159744285Y-73642857D01*
X159791904Y-73547619D01*
X159839523Y-73500000D01*
X159934761Y-73452380D01*
X160125238Y-73452380D01*
X160220476Y-73500000D01*
X160268095Y-73547619D01*
X160315714Y-73642857D01*
X160315714Y-73690476D01*
X160268095Y-73785714D01*
X160220476Y-73833333D01*
X160125238Y-73880952D01*
X159934761Y-73880952D01*
X159839523Y-73928571D01*
X159791904Y-73976190D01*
X159744285Y-74071428D01*
X159744285Y-74261904D01*
X159791904Y-74357142D01*
X159839523Y-74404761D01*
X159934761Y-74452380D01*
X160125238Y-74452380D01*
X160220476Y-74404761D01*
X160268095Y-74357142D01*
X160315714Y-74261904D01*
X160315714Y-74071428D01*
X160268095Y-73976190D01*
X160220476Y-73928571D01*
X160125238Y-73880952D01*
%TO.C,D17*%
X139618214Y-49452380D02*
X139618214Y-48452380D01*
X139856309Y-48452380D01*
X139999166Y-48500000D01*
X140094404Y-48595238D01*
X140142023Y-48690476D01*
X140189642Y-48880952D01*
X140189642Y-49023809D01*
X140142023Y-49214285D01*
X140094404Y-49309523D01*
X139999166Y-49404761D01*
X139856309Y-49452380D01*
X139618214Y-49452380D01*
X141142023Y-49452380D02*
X140570595Y-49452380D01*
X140856309Y-49452380D02*
X140856309Y-48452380D01*
X140761071Y-48595238D01*
X140665833Y-48690476D01*
X140570595Y-48738095D01*
X141475357Y-48452380D02*
X142142023Y-48452380D01*
X141713452Y-49452380D01*
X132238095Y-46852380D02*
X132238095Y-45852380D01*
X132809523Y-46852380D02*
X132380952Y-46280952D01*
X132809523Y-45852380D02*
X132238095Y-46423809D01*
%TO.C,J1*%
X113952380Y-129603333D02*
X114666666Y-129603333D01*
X114809523Y-129650952D01*
X114904761Y-129746190D01*
X114952380Y-129889047D01*
X114952380Y-129984285D01*
X114952380Y-128603333D02*
X114952380Y-129174761D01*
X114952380Y-128889047D02*
X113952380Y-128889047D01*
X114095238Y-128984285D01*
X114190476Y-129079523D01*
X114238095Y-129174761D01*
%TO.C,J2*%
X110952380Y-82103333D02*
X111666666Y-82103333D01*
X111809523Y-82150952D01*
X111904761Y-82246190D01*
X111952380Y-82389047D01*
X111952380Y-82484285D01*
X111047619Y-81674761D02*
X111000000Y-81627142D01*
X110952380Y-81531904D01*
X110952380Y-81293809D01*
X111000000Y-81198571D01*
X111047619Y-81150952D01*
X111142857Y-81103333D01*
X111238095Y-81103333D01*
X111380952Y-81150952D01*
X111952380Y-81722380D01*
X111952380Y-81103333D01*
%TO.C,J3*%
X160452380Y-126103333D02*
X161166666Y-126103333D01*
X161309523Y-126150952D01*
X161404761Y-126246190D01*
X161452380Y-126389047D01*
X161452380Y-126484285D01*
X160452380Y-125722380D02*
X160452380Y-125103333D01*
X160833333Y-125436666D01*
X160833333Y-125293809D01*
X160880952Y-125198571D01*
X160928571Y-125150952D01*
X161023809Y-125103333D01*
X161261904Y-125103333D01*
X161357142Y-125150952D01*
X161404761Y-125198571D01*
X161452380Y-125293809D01*
X161452380Y-125579523D01*
X161404761Y-125674761D01*
X161357142Y-125722380D01*
%TO.C,J4*%
X160952380Y-81603333D02*
X161666666Y-81603333D01*
X161809523Y-81650952D01*
X161904761Y-81746190D01*
X161952380Y-81889047D01*
X161952380Y-81984285D01*
X161285714Y-80698571D02*
X161952380Y-80698571D01*
X160904761Y-80936666D02*
X161619047Y-81174761D01*
X161619047Y-80555714D01*
%TO.C,L1*%
X134952380Y-40916666D02*
X134952380Y-41392857D01*
X133952380Y-41392857D01*
X134952380Y-40059523D02*
X134952380Y-40630952D01*
X134952380Y-40345238D02*
X133952380Y-40345238D01*
X134095238Y-40440476D01*
X134190476Y-40535714D01*
X134238095Y-40630952D01*
%TO.C,Q1*%
X145854761Y-135097619D02*
X145759523Y-135050000D01*
X145664285Y-134954761D01*
X145521428Y-134811904D01*
X145426190Y-134764285D01*
X145330952Y-134764285D01*
X145378571Y-135002380D02*
X145283333Y-134954761D01*
X145188095Y-134859523D01*
X145140476Y-134669047D01*
X145140476Y-134335714D01*
X145188095Y-134145238D01*
X145283333Y-134050000D01*
X145378571Y-134002380D01*
X145569047Y-134002380D01*
X145664285Y-134050000D01*
X145759523Y-134145238D01*
X145807142Y-134335714D01*
X145807142Y-134669047D01*
X145759523Y-134859523D01*
X145664285Y-134954761D01*
X145569047Y-135002380D01*
X145378571Y-135002380D01*
X146759523Y-135002380D02*
X146188095Y-135002380D01*
X146473809Y-135002380D02*
X146473809Y-134002380D01*
X146378571Y-134145238D01*
X146283333Y-134240476D01*
X146188095Y-134288095D01*
%TO.C,Q2*%
X147354761Y-88597619D02*
X147259523Y-88550000D01*
X147164285Y-88454761D01*
X147021428Y-88311904D01*
X146926190Y-88264285D01*
X146830952Y-88264285D01*
X146878571Y-88502380D02*
X146783333Y-88454761D01*
X146688095Y-88359523D01*
X146640476Y-88169047D01*
X146640476Y-87835714D01*
X146688095Y-87645238D01*
X146783333Y-87550000D01*
X146878571Y-87502380D01*
X147069047Y-87502380D01*
X147164285Y-87550000D01*
X147259523Y-87645238D01*
X147307142Y-87835714D01*
X147307142Y-88169047D01*
X147259523Y-88359523D01*
X147164285Y-88454761D01*
X147069047Y-88502380D01*
X146878571Y-88502380D01*
X147688095Y-87597619D02*
X147735714Y-87550000D01*
X147830952Y-87502380D01*
X148069047Y-87502380D01*
X148164285Y-87550000D01*
X148211904Y-87597619D01*
X148259523Y-87692857D01*
X148259523Y-87788095D01*
X148211904Y-87930952D01*
X147640476Y-88502380D01*
X148259523Y-88502380D01*
%TO.C,Q7*%
X125854761Y-135097619D02*
X125759523Y-135050000D01*
X125664285Y-134954761D01*
X125521428Y-134811904D01*
X125426190Y-134764285D01*
X125330952Y-134764285D01*
X125378571Y-135002380D02*
X125283333Y-134954761D01*
X125188095Y-134859523D01*
X125140476Y-134669047D01*
X125140476Y-134335714D01*
X125188095Y-134145238D01*
X125283333Y-134050000D01*
X125378571Y-134002380D01*
X125569047Y-134002380D01*
X125664285Y-134050000D01*
X125759523Y-134145238D01*
X125807142Y-134335714D01*
X125807142Y-134669047D01*
X125759523Y-134859523D01*
X125664285Y-134954761D01*
X125569047Y-135002380D01*
X125378571Y-135002380D01*
X126140476Y-134002380D02*
X126807142Y-134002380D01*
X126378571Y-135002380D01*
%TO.C,Q8*%
X123854761Y-88597619D02*
X123759523Y-88550000D01*
X123664285Y-88454761D01*
X123521428Y-88311904D01*
X123426190Y-88264285D01*
X123330952Y-88264285D01*
X123378571Y-88502380D02*
X123283333Y-88454761D01*
X123188095Y-88359523D01*
X123140476Y-88169047D01*
X123140476Y-87835714D01*
X123188095Y-87645238D01*
X123283333Y-87550000D01*
X123378571Y-87502380D01*
X123569047Y-87502380D01*
X123664285Y-87550000D01*
X123759523Y-87645238D01*
X123807142Y-87835714D01*
X123807142Y-88169047D01*
X123759523Y-88359523D01*
X123664285Y-88454761D01*
X123569047Y-88502380D01*
X123378571Y-88502380D01*
X124378571Y-87930952D02*
X124283333Y-87883333D01*
X124235714Y-87835714D01*
X124188095Y-87740476D01*
X124188095Y-87692857D01*
X124235714Y-87597619D01*
X124283333Y-87550000D01*
X124378571Y-87502380D01*
X124569047Y-87502380D01*
X124664285Y-87550000D01*
X124711904Y-87597619D01*
X124759523Y-87692857D01*
X124759523Y-87740476D01*
X124711904Y-87835714D01*
X124664285Y-87883333D01*
X124569047Y-87930952D01*
X124378571Y-87930952D01*
X124283333Y-87978571D01*
X124235714Y-88026190D01*
X124188095Y-88121428D01*
X124188095Y-88311904D01*
X124235714Y-88407142D01*
X124283333Y-88454761D01*
X124378571Y-88502380D01*
X124569047Y-88502380D01*
X124664285Y-88454761D01*
X124711904Y-88407142D01*
X124759523Y-88311904D01*
X124759523Y-88121428D01*
X124711904Y-88026190D01*
X124664285Y-87978571D01*
X124569047Y-87930952D01*
%TO.C,R1*%
X149452380Y-124816666D02*
X148976190Y-125150000D01*
X149452380Y-125388095D02*
X148452380Y-125388095D01*
X148452380Y-125007142D01*
X148500000Y-124911904D01*
X148547619Y-124864285D01*
X148642857Y-124816666D01*
X148785714Y-124816666D01*
X148880952Y-124864285D01*
X148928571Y-124911904D01*
X148976190Y-125007142D01*
X148976190Y-125388095D01*
X149452380Y-123864285D02*
X149452380Y-124435714D01*
X149452380Y-124150000D02*
X148452380Y-124150000D01*
X148595238Y-124245238D01*
X148690476Y-124340476D01*
X148738095Y-124435714D01*
%TO.C,R2*%
X148952380Y-79316666D02*
X148476190Y-79650000D01*
X148952380Y-79888095D02*
X147952380Y-79888095D01*
X147952380Y-79507142D01*
X148000000Y-79411904D01*
X148047619Y-79364285D01*
X148142857Y-79316666D01*
X148285714Y-79316666D01*
X148380952Y-79364285D01*
X148428571Y-79411904D01*
X148476190Y-79507142D01*
X148476190Y-79888095D01*
X148047619Y-78935714D02*
X148000000Y-78888095D01*
X147952380Y-78792857D01*
X147952380Y-78554761D01*
X148000000Y-78459523D01*
X148047619Y-78411904D01*
X148142857Y-78364285D01*
X148238095Y-78364285D01*
X148380952Y-78411904D01*
X148952380Y-78983333D01*
X148952380Y-78364285D01*
%TO.C,R3*%
X143952380Y-125016666D02*
X143476190Y-125350000D01*
X143952380Y-125588095D02*
X142952380Y-125588095D01*
X142952380Y-125207142D01*
X143000000Y-125111904D01*
X143047619Y-125064285D01*
X143142857Y-125016666D01*
X143285714Y-125016666D01*
X143380952Y-125064285D01*
X143428571Y-125111904D01*
X143476190Y-125207142D01*
X143476190Y-125588095D01*
X142952380Y-124683333D02*
X142952380Y-124064285D01*
X143333333Y-124397619D01*
X143333333Y-124254761D01*
X143380952Y-124159523D01*
X143428571Y-124111904D01*
X143523809Y-124064285D01*
X143761904Y-124064285D01*
X143857142Y-124111904D01*
X143904761Y-124159523D01*
X143952380Y-124254761D01*
X143952380Y-124540476D01*
X143904761Y-124635714D01*
X143857142Y-124683333D01*
%TO.C,R4*%
X142952380Y-79016666D02*
X142476190Y-79350000D01*
X142952380Y-79588095D02*
X141952380Y-79588095D01*
X141952380Y-79207142D01*
X142000000Y-79111904D01*
X142047619Y-79064285D01*
X142142857Y-79016666D01*
X142285714Y-79016666D01*
X142380952Y-79064285D01*
X142428571Y-79111904D01*
X142476190Y-79207142D01*
X142476190Y-79588095D01*
X142285714Y-78159523D02*
X142952380Y-78159523D01*
X141904761Y-78397619D02*
X142619047Y-78635714D01*
X142619047Y-78016666D01*
%TO.C,R5*%
X112952380Y-109516666D02*
X112476190Y-109850000D01*
X112952380Y-110088095D02*
X111952380Y-110088095D01*
X111952380Y-109707142D01*
X112000000Y-109611904D01*
X112047619Y-109564285D01*
X112142857Y-109516666D01*
X112285714Y-109516666D01*
X112380952Y-109564285D01*
X112428571Y-109611904D01*
X112476190Y-109707142D01*
X112476190Y-110088095D01*
X111952380Y-108611904D02*
X111952380Y-109088095D01*
X112428571Y-109135714D01*
X112380952Y-109088095D01*
X112333333Y-108992857D01*
X112333333Y-108754761D01*
X112380952Y-108659523D01*
X112428571Y-108611904D01*
X112523809Y-108564285D01*
X112761904Y-108564285D01*
X112857142Y-108611904D01*
X112904761Y-108659523D01*
X112952380Y-108754761D01*
X112952380Y-108992857D01*
X112904761Y-109088095D01*
X112857142Y-109135714D01*
%TO.C,R6*%
X110952380Y-63016666D02*
X110476190Y-63350000D01*
X110952380Y-63588095D02*
X109952380Y-63588095D01*
X109952380Y-63207142D01*
X110000000Y-63111904D01*
X110047619Y-63064285D01*
X110142857Y-63016666D01*
X110285714Y-63016666D01*
X110380952Y-63064285D01*
X110428571Y-63111904D01*
X110476190Y-63207142D01*
X110476190Y-63588095D01*
X109952380Y-62159523D02*
X109952380Y-62350000D01*
X110000000Y-62445238D01*
X110047619Y-62492857D01*
X110190476Y-62588095D01*
X110380952Y-62635714D01*
X110761904Y-62635714D01*
X110857142Y-62588095D01*
X110904761Y-62540476D01*
X110952380Y-62445238D01*
X110952380Y-62254761D01*
X110904761Y-62159523D01*
X110857142Y-62111904D01*
X110761904Y-62064285D01*
X110523809Y-62064285D01*
X110428571Y-62111904D01*
X110380952Y-62159523D01*
X110333333Y-62254761D01*
X110333333Y-62445238D01*
X110380952Y-62540476D01*
X110428571Y-62588095D01*
X110523809Y-62635714D01*
%TO.C,R7*%
X129452380Y-124316666D02*
X128976190Y-124650000D01*
X129452380Y-124888095D02*
X128452380Y-124888095D01*
X128452380Y-124507142D01*
X128500000Y-124411904D01*
X128547619Y-124364285D01*
X128642857Y-124316666D01*
X128785714Y-124316666D01*
X128880952Y-124364285D01*
X128928571Y-124411904D01*
X128976190Y-124507142D01*
X128976190Y-124888095D01*
X128452380Y-123983333D02*
X128452380Y-123316666D01*
X129452380Y-123745238D01*
%TO.C,R8*%
X125452380Y-78816666D02*
X124976190Y-79150000D01*
X125452380Y-79388095D02*
X124452380Y-79388095D01*
X124452380Y-79007142D01*
X124500000Y-78911904D01*
X124547619Y-78864285D01*
X124642857Y-78816666D01*
X124785714Y-78816666D01*
X124880952Y-78864285D01*
X124928571Y-78911904D01*
X124976190Y-79007142D01*
X124976190Y-79388095D01*
X124880952Y-78245238D02*
X124833333Y-78340476D01*
X124785714Y-78388095D01*
X124690476Y-78435714D01*
X124642857Y-78435714D01*
X124547619Y-78388095D01*
X124500000Y-78340476D01*
X124452380Y-78245238D01*
X124452380Y-78054761D01*
X124500000Y-77959523D01*
X124547619Y-77911904D01*
X124642857Y-77864285D01*
X124690476Y-77864285D01*
X124785714Y-77911904D01*
X124833333Y-77959523D01*
X124880952Y-78054761D01*
X124880952Y-78245238D01*
X124928571Y-78340476D01*
X124976190Y-78388095D01*
X125071428Y-78435714D01*
X125261904Y-78435714D01*
X125357142Y-78388095D01*
X125404761Y-78340476D01*
X125452380Y-78245238D01*
X125452380Y-78054761D01*
X125404761Y-77959523D01*
X125357142Y-77911904D01*
X125261904Y-77864285D01*
X125071428Y-77864285D01*
X124976190Y-77911904D01*
X124928571Y-77959523D01*
X124880952Y-78054761D01*
%TO.C,R9*%
X133683333Y-99452380D02*
X133350000Y-98976190D01*
X133111904Y-99452380D02*
X133111904Y-98452380D01*
X133492857Y-98452380D01*
X133588095Y-98500000D01*
X133635714Y-98547619D01*
X133683333Y-98642857D01*
X133683333Y-98785714D01*
X133635714Y-98880952D01*
X133588095Y-98928571D01*
X133492857Y-98976190D01*
X133111904Y-98976190D01*
X134159523Y-99452380D02*
X134350000Y-99452380D01*
X134445238Y-99404761D01*
X134492857Y-99357142D01*
X134588095Y-99214285D01*
X134635714Y-99023809D01*
X134635714Y-98642857D01*
X134588095Y-98547619D01*
X134540476Y-98500000D01*
X134445238Y-98452380D01*
X134254761Y-98452380D01*
X134159523Y-98500000D01*
X134111904Y-98547619D01*
X134064285Y-98642857D01*
X134064285Y-98880952D01*
X134111904Y-98976190D01*
X134159523Y-99023809D01*
X134254761Y-99071428D01*
X134445238Y-99071428D01*
X134540476Y-99023809D01*
X134588095Y-98976190D01*
X134635714Y-98880952D01*
%TO.C,R10*%
X133707142Y-57952380D02*
X133373809Y-57476190D01*
X133135714Y-57952380D02*
X133135714Y-56952380D01*
X133516666Y-56952380D01*
X133611904Y-57000000D01*
X133659523Y-57047619D01*
X133707142Y-57142857D01*
X133707142Y-57285714D01*
X133659523Y-57380952D01*
X133611904Y-57428571D01*
X133516666Y-57476190D01*
X133135714Y-57476190D01*
X134659523Y-57952380D02*
X134088095Y-57952380D01*
X134373809Y-57952380D02*
X134373809Y-56952380D01*
X134278571Y-57095238D01*
X134183333Y-57190476D01*
X134088095Y-57238095D01*
X135278571Y-56952380D02*
X135373809Y-56952380D01*
X135469047Y-57000000D01*
X135516666Y-57047619D01*
X135564285Y-57142857D01*
X135611904Y-57333333D01*
X135611904Y-57571428D01*
X135564285Y-57761904D01*
X135516666Y-57857142D01*
X135469047Y-57904761D01*
X135373809Y-57952380D01*
X135278571Y-57952380D01*
X135183333Y-57904761D01*
X135135714Y-57857142D01*
X135088095Y-57761904D01*
X135040476Y-57571428D01*
X135040476Y-57333333D01*
X135088095Y-57142857D01*
X135135714Y-57047619D01*
X135183333Y-57000000D01*
X135278571Y-56952380D01*
%TO.C,R11*%
X123452380Y-124792857D02*
X122976190Y-125126190D01*
X123452380Y-125364285D02*
X122452380Y-125364285D01*
X122452380Y-124983333D01*
X122500000Y-124888095D01*
X122547619Y-124840476D01*
X122642857Y-124792857D01*
X122785714Y-124792857D01*
X122880952Y-124840476D01*
X122928571Y-124888095D01*
X122976190Y-124983333D01*
X122976190Y-125364285D01*
X123452380Y-123840476D02*
X123452380Y-124411904D01*
X123452380Y-124126190D02*
X122452380Y-124126190D01*
X122595238Y-124221428D01*
X122690476Y-124316666D01*
X122738095Y-124411904D01*
X123452380Y-122888095D02*
X123452380Y-123459523D01*
X123452380Y-123173809D02*
X122452380Y-123173809D01*
X122595238Y-123269047D01*
X122690476Y-123364285D01*
X122738095Y-123459523D01*
%TO.C,R12*%
X119952380Y-79292857D02*
X119476190Y-79626190D01*
X119952380Y-79864285D02*
X118952380Y-79864285D01*
X118952380Y-79483333D01*
X119000000Y-79388095D01*
X119047619Y-79340476D01*
X119142857Y-79292857D01*
X119285714Y-79292857D01*
X119380952Y-79340476D01*
X119428571Y-79388095D01*
X119476190Y-79483333D01*
X119476190Y-79864285D01*
X119952380Y-78340476D02*
X119952380Y-78911904D01*
X119952380Y-78626190D02*
X118952380Y-78626190D01*
X119095238Y-78721428D01*
X119190476Y-78816666D01*
X119238095Y-78911904D01*
X119047619Y-77959523D02*
X119000000Y-77911904D01*
X118952380Y-77816666D01*
X118952380Y-77578571D01*
X119000000Y-77483333D01*
X119047619Y-77435714D01*
X119142857Y-77388095D01*
X119238095Y-77388095D01*
X119380952Y-77435714D01*
X119952380Y-78007142D01*
X119952380Y-77388095D01*
%TO.C,R13*%
X150707142Y-99452380D02*
X150373809Y-98976190D01*
X150135714Y-99452380D02*
X150135714Y-98452380D01*
X150516666Y-98452380D01*
X150611904Y-98500000D01*
X150659523Y-98547619D01*
X150707142Y-98642857D01*
X150707142Y-98785714D01*
X150659523Y-98880952D01*
X150611904Y-98928571D01*
X150516666Y-98976190D01*
X150135714Y-98976190D01*
X151659523Y-99452380D02*
X151088095Y-99452380D01*
X151373809Y-99452380D02*
X151373809Y-98452380D01*
X151278571Y-98595238D01*
X151183333Y-98690476D01*
X151088095Y-98738095D01*
X151992857Y-98452380D02*
X152611904Y-98452380D01*
X152278571Y-98833333D01*
X152421428Y-98833333D01*
X152516666Y-98880952D01*
X152564285Y-98928571D01*
X152611904Y-99023809D01*
X152611904Y-99261904D01*
X152564285Y-99357142D01*
X152516666Y-99404761D01*
X152421428Y-99452380D01*
X152135714Y-99452380D01*
X152040476Y-99404761D01*
X151992857Y-99357142D01*
%TO.C,R14*%
X151207142Y-57952380D02*
X150873809Y-57476190D01*
X150635714Y-57952380D02*
X150635714Y-56952380D01*
X151016666Y-56952380D01*
X151111904Y-57000000D01*
X151159523Y-57047619D01*
X151207142Y-57142857D01*
X151207142Y-57285714D01*
X151159523Y-57380952D01*
X151111904Y-57428571D01*
X151016666Y-57476190D01*
X150635714Y-57476190D01*
X152159523Y-57952380D02*
X151588095Y-57952380D01*
X151873809Y-57952380D02*
X151873809Y-56952380D01*
X151778571Y-57095238D01*
X151683333Y-57190476D01*
X151588095Y-57238095D01*
X153016666Y-57285714D02*
X153016666Y-57952380D01*
X152778571Y-56904761D02*
X152540476Y-57619047D01*
X153159523Y-57619047D01*
%TO.C,U1*%
X135048095Y-108262380D02*
X135048095Y-109071904D01*
X135095714Y-109167142D01*
X135143333Y-109214761D01*
X135238571Y-109262380D01*
X135429047Y-109262380D01*
X135524285Y-109214761D01*
X135571904Y-109167142D01*
X135619523Y-109071904D01*
X135619523Y-108262380D01*
X136619523Y-109262380D02*
X136048095Y-109262380D01*
X136333809Y-109262380D02*
X136333809Y-108262380D01*
X136238571Y-108405238D01*
X136143333Y-108500476D01*
X136048095Y-108548095D01*
%TO.C,U2*%
X133048095Y-65762380D02*
X133048095Y-66571904D01*
X133095714Y-66667142D01*
X133143333Y-66714761D01*
X133238571Y-66762380D01*
X133429047Y-66762380D01*
X133524285Y-66714761D01*
X133571904Y-66667142D01*
X133619523Y-66571904D01*
X133619523Y-65762380D01*
X134048095Y-65857619D02*
X134095714Y-65810000D01*
X134190952Y-65762380D01*
X134429047Y-65762380D01*
X134524285Y-65810000D01*
X134571904Y-65857619D01*
X134619523Y-65952857D01*
X134619523Y-66048095D01*
X134571904Y-66190952D01*
X134000476Y-66762380D01*
X134619523Y-66762380D01*
%TO.C,Q3*%
X126547619Y-108555238D02*
X126500000Y-108650476D01*
X126404761Y-108745714D01*
X126261904Y-108888571D01*
X126214285Y-108983809D01*
X126214285Y-109079047D01*
X126452380Y-109031428D02*
X126404761Y-109126666D01*
X126309523Y-109221904D01*
X126119047Y-109269523D01*
X125785714Y-109269523D01*
X125595238Y-109221904D01*
X125500000Y-109126666D01*
X125452380Y-109031428D01*
X125452380Y-108840952D01*
X125500000Y-108745714D01*
X125595238Y-108650476D01*
X125785714Y-108602857D01*
X126119047Y-108602857D01*
X126309523Y-108650476D01*
X126404761Y-108745714D01*
X126452380Y-108840952D01*
X126452380Y-109031428D01*
X125452380Y-108269523D02*
X125452380Y-107650476D01*
X125833333Y-107983809D01*
X125833333Y-107840952D01*
X125880952Y-107745714D01*
X125928571Y-107698095D01*
X126023809Y-107650476D01*
X126261904Y-107650476D01*
X126357142Y-107698095D01*
X126404761Y-107745714D01*
X126452380Y-107840952D01*
X126452380Y-108126666D01*
X126404761Y-108221904D01*
X126357142Y-108269523D01*
%TO.C,Q4*%
X123547619Y-66055238D02*
X123500000Y-66150476D01*
X123404761Y-66245714D01*
X123261904Y-66388571D01*
X123214285Y-66483809D01*
X123214285Y-66579047D01*
X123452380Y-66531428D02*
X123404761Y-66626666D01*
X123309523Y-66721904D01*
X123119047Y-66769523D01*
X122785714Y-66769523D01*
X122595238Y-66721904D01*
X122500000Y-66626666D01*
X122452380Y-66531428D01*
X122452380Y-66340952D01*
X122500000Y-66245714D01*
X122595238Y-66150476D01*
X122785714Y-66102857D01*
X123119047Y-66102857D01*
X123309523Y-66150476D01*
X123404761Y-66245714D01*
X123452380Y-66340952D01*
X123452380Y-66531428D01*
X122785714Y-65245714D02*
X123452380Y-65245714D01*
X122404761Y-65483809D02*
X123119047Y-65721904D01*
X123119047Y-65102857D01*
%TO.C,Q5*%
X137047619Y-121635238D02*
X137000000Y-121730476D01*
X136904761Y-121825714D01*
X136761904Y-121968571D01*
X136714285Y-122063809D01*
X136714285Y-122159047D01*
X136952380Y-122111428D02*
X136904761Y-122206666D01*
X136809523Y-122301904D01*
X136619047Y-122349523D01*
X136285714Y-122349523D01*
X136095238Y-122301904D01*
X136000000Y-122206666D01*
X135952380Y-122111428D01*
X135952380Y-121920952D01*
X136000000Y-121825714D01*
X136095238Y-121730476D01*
X136285714Y-121682857D01*
X136619047Y-121682857D01*
X136809523Y-121730476D01*
X136904761Y-121825714D01*
X136952380Y-121920952D01*
X136952380Y-122111428D01*
X135952380Y-120778095D02*
X135952380Y-121254285D01*
X136428571Y-121301904D01*
X136380952Y-121254285D01*
X136333333Y-121159047D01*
X136333333Y-120920952D01*
X136380952Y-120825714D01*
X136428571Y-120778095D01*
X136523809Y-120730476D01*
X136761904Y-120730476D01*
X136857142Y-120778095D01*
X136904761Y-120825714D01*
X136952380Y-120920952D01*
X136952380Y-121159047D01*
X136904761Y-121254285D01*
X136857142Y-121301904D01*
%TO.C,Q6*%
X134047619Y-79135238D02*
X134000000Y-79230476D01*
X133904761Y-79325714D01*
X133761904Y-79468571D01*
X133714285Y-79563809D01*
X133714285Y-79659047D01*
X133952380Y-79611428D02*
X133904761Y-79706666D01*
X133809523Y-79801904D01*
X133619047Y-79849523D01*
X133285714Y-79849523D01*
X133095238Y-79801904D01*
X133000000Y-79706666D01*
X132952380Y-79611428D01*
X132952380Y-79420952D01*
X133000000Y-79325714D01*
X133095238Y-79230476D01*
X133285714Y-79182857D01*
X133619047Y-79182857D01*
X133809523Y-79230476D01*
X133904761Y-79325714D01*
X133952380Y-79420952D01*
X133952380Y-79611428D01*
X132952380Y-78325714D02*
X132952380Y-78516190D01*
X133000000Y-78611428D01*
X133047619Y-78659047D01*
X133190476Y-78754285D01*
X133380952Y-78801904D01*
X133761904Y-78801904D01*
X133857142Y-78754285D01*
X133904761Y-78706666D01*
X133952380Y-78611428D01*
X133952380Y-78420952D01*
X133904761Y-78325714D01*
X133857142Y-78278095D01*
X133761904Y-78230476D01*
X133523809Y-78230476D01*
X133428571Y-78278095D01*
X133380952Y-78325714D01*
X133333333Y-78420952D01*
X133333333Y-78611428D01*
X133380952Y-78706666D01*
X133428571Y-78754285D01*
X133523809Y-78801904D01*
%TO.C,R15*%
X158007142Y-47452380D02*
X157673809Y-46976190D01*
X157435714Y-47452380D02*
X157435714Y-46452380D01*
X157816666Y-46452380D01*
X157911904Y-46500000D01*
X157959523Y-46547619D01*
X158007142Y-46642857D01*
X158007142Y-46785714D01*
X157959523Y-46880952D01*
X157911904Y-46928571D01*
X157816666Y-46976190D01*
X157435714Y-46976190D01*
X158959523Y-47452380D02*
X158388095Y-47452380D01*
X158673809Y-47452380D02*
X158673809Y-46452380D01*
X158578571Y-46595238D01*
X158483333Y-46690476D01*
X158388095Y-46738095D01*
X159864285Y-46452380D02*
X159388095Y-46452380D01*
X159340476Y-46928571D01*
X159388095Y-46880952D01*
X159483333Y-46833333D01*
X159721428Y-46833333D01*
X159816666Y-46880952D01*
X159864285Y-46928571D01*
X159911904Y-47023809D01*
X159911904Y-47261904D01*
X159864285Y-47357142D01*
X159816666Y-47404761D01*
X159721428Y-47452380D01*
X159483333Y-47452380D01*
X159388095Y-47404761D01*
X159340476Y-47357142D01*
%TO.C,R16*%
X157707142Y-51952380D02*
X157373809Y-51476190D01*
X157135714Y-51952380D02*
X157135714Y-50952380D01*
X157516666Y-50952380D01*
X157611904Y-51000000D01*
X157659523Y-51047619D01*
X157707142Y-51142857D01*
X157707142Y-51285714D01*
X157659523Y-51380952D01*
X157611904Y-51428571D01*
X157516666Y-51476190D01*
X157135714Y-51476190D01*
X158659523Y-51952380D02*
X158088095Y-51952380D01*
X158373809Y-51952380D02*
X158373809Y-50952380D01*
X158278571Y-51095238D01*
X158183333Y-51190476D01*
X158088095Y-51238095D01*
X159516666Y-50952380D02*
X159326190Y-50952380D01*
X159230952Y-51000000D01*
X159183333Y-51047619D01*
X159088095Y-51190476D01*
X159040476Y-51380952D01*
X159040476Y-51761904D01*
X159088095Y-51857142D01*
X159135714Y-51904761D01*
X159230952Y-51952380D01*
X159421428Y-51952380D01*
X159516666Y-51904761D01*
X159564285Y-51857142D01*
X159611904Y-51761904D01*
X159611904Y-51523809D01*
X159564285Y-51428571D01*
X159516666Y-51380952D01*
X159421428Y-51333333D01*
X159230952Y-51333333D01*
X159135714Y-51380952D01*
X159088095Y-51428571D01*
X159040476Y-51523809D01*
%TO.C,U5*%
X122638095Y-31132380D02*
X122638095Y-31941904D01*
X122685714Y-32037142D01*
X122733333Y-32084761D01*
X122828571Y-32132380D01*
X123019047Y-32132380D01*
X123114285Y-32084761D01*
X123161904Y-32037142D01*
X123209523Y-31941904D01*
X123209523Y-31132380D01*
X124161904Y-31132380D02*
X123685714Y-31132380D01*
X123638095Y-31608571D01*
X123685714Y-31560952D01*
X123780952Y-31513333D01*
X124019047Y-31513333D01*
X124114285Y-31560952D01*
X124161904Y-31608571D01*
X124209523Y-31703809D01*
X124209523Y-31941904D01*
X124161904Y-32037142D01*
X124114285Y-32084761D01*
X124019047Y-32132380D01*
X123780952Y-32132380D01*
X123685714Y-32084761D01*
X123638095Y-32037142D01*
%TO.C,H1*%
X108538095Y-37952380D02*
X108538095Y-36952380D01*
X108538095Y-37428571D02*
X109109523Y-37428571D01*
X109109523Y-37952380D02*
X109109523Y-36952380D01*
X110109523Y-37952380D02*
X109538095Y-37952380D01*
X109823809Y-37952380D02*
X109823809Y-36952380D01*
X109728571Y-37095238D01*
X109633333Y-37190476D01*
X109538095Y-37238095D01*
%TO.C,H2*%
X108538095Y-138452380D02*
X108538095Y-137452380D01*
X108538095Y-137928571D02*
X109109523Y-137928571D01*
X109109523Y-138452380D02*
X109109523Y-137452380D01*
X109538095Y-137547619D02*
X109585714Y-137500000D01*
X109680952Y-137452380D01*
X109919047Y-137452380D01*
X110014285Y-137500000D01*
X110061904Y-137547619D01*
X110109523Y-137642857D01*
X110109523Y-137738095D01*
X110061904Y-137880952D01*
X109490476Y-138452380D01*
X110109523Y-138452380D01*
%TO.C,H4*%
X161538095Y-138452380D02*
X161538095Y-137452380D01*
X161538095Y-137928571D02*
X162109523Y-137928571D01*
X162109523Y-138452380D02*
X162109523Y-137452380D01*
X163014285Y-137785714D02*
X163014285Y-138452380D01*
X162776190Y-137404761D02*
X162538095Y-138119047D01*
X163157142Y-138119047D01*
%TD*%
M02*
