%TF.GenerationSoftware,KiCad,Pcbnew,5.1.10-88a1d61d58~88~ubuntu20.04.1*%
%TF.CreationDate,2021-05-05T16:02:56+01:00*%
%TF.ProjectId,spike_n_hold,7370696b-655f-46e5-9f68-6f6c642e6b69,rev?*%
%TF.SameCoordinates,Original*%
%TF.FileFunction,Legend,Top*%
%TF.FilePolarity,Positive*%
%FSLAX46Y46*%
G04 Gerber Fmt 4.6, Leading zero omitted, Abs format (unit mm)*
G04 Created by KiCad (PCBNEW 5.1.10-88a1d61d58~88~ubuntu20.04.1) date 2021-05-05 16:02:56*
%MOMM*%
%LPD*%
G01*
G04 APERTURE LIST*
%ADD10C,0.150000*%
%ADD11C,0.300000*%
%ADD12C,0.120000*%
%ADD13C,0.100000*%
G04 APERTURE END LIST*
D10*
X142274047Y-105516428D02*
X143035952Y-105516428D01*
X142655000Y-105897380D02*
X142655000Y-105135476D01*
X142909047Y-61701428D02*
X143670952Y-61701428D01*
X143290000Y-62082380D02*
X143290000Y-61320476D01*
D11*
X106332142Y-131357142D02*
X106403571Y-131214285D01*
X106403571Y-130928571D01*
X106332142Y-130785714D01*
X106189285Y-130714285D01*
X106117857Y-130714285D01*
X105975000Y-130785714D01*
X105903571Y-130928571D01*
X105903571Y-131142857D01*
X105832142Y-131285714D01*
X105689285Y-131357142D01*
X105617857Y-131357142D01*
X105475000Y-131285714D01*
X105403571Y-131142857D01*
X105403571Y-130928571D01*
X105475000Y-130785714D01*
X105403571Y-130071428D02*
X106903571Y-130071428D01*
X105475000Y-130071428D02*
X105403571Y-129928571D01*
X105403571Y-129642857D01*
X105475000Y-129499999D01*
X105546428Y-129428571D01*
X105689285Y-129357142D01*
X106117857Y-129357142D01*
X106260714Y-129428571D01*
X106332142Y-129499999D01*
X106403571Y-129642857D01*
X106403571Y-129928571D01*
X106332142Y-130071428D01*
X106403571Y-128714285D02*
X105403571Y-128714285D01*
X104903571Y-128714285D02*
X104975000Y-128785714D01*
X105046428Y-128714285D01*
X104975000Y-128642857D01*
X104903571Y-128714285D01*
X105046428Y-128714285D01*
X106403571Y-127999999D02*
X104903571Y-127999999D01*
X105832142Y-127857142D02*
X106403571Y-127428571D01*
X105403571Y-127428571D02*
X105975000Y-127999999D01*
X106332142Y-126214285D02*
X106403571Y-126357142D01*
X106403571Y-126642857D01*
X106332142Y-126785714D01*
X106189285Y-126857142D01*
X105617857Y-126857142D01*
X105475000Y-126785714D01*
X105403571Y-126642857D01*
X105403571Y-126357142D01*
X105475000Y-126214285D01*
X105617857Y-126142857D01*
X105760714Y-126142857D01*
X105903571Y-126857142D01*
X106403571Y-123714285D02*
X105617857Y-123714285D01*
X105475000Y-123785714D01*
X105403571Y-123928571D01*
X105403571Y-124214285D01*
X105475000Y-124357142D01*
X106332142Y-123714285D02*
X106403571Y-123857142D01*
X106403571Y-124214285D01*
X106332142Y-124357142D01*
X106189285Y-124428571D01*
X106046428Y-124428571D01*
X105903571Y-124357142D01*
X105832142Y-124214285D01*
X105832142Y-123857142D01*
X105760714Y-123714285D01*
X105403571Y-122999999D02*
X106403571Y-122999999D01*
X105546428Y-122999999D02*
X105475000Y-122928571D01*
X105403571Y-122785714D01*
X105403571Y-122571428D01*
X105475000Y-122428571D01*
X105617857Y-122357142D01*
X106403571Y-122357142D01*
X106403571Y-120999999D02*
X104903571Y-120999999D01*
X106332142Y-120999999D02*
X106403571Y-121142857D01*
X106403571Y-121428571D01*
X106332142Y-121571428D01*
X106260714Y-121642857D01*
X106117857Y-121714285D01*
X105689285Y-121714285D01*
X105546428Y-121642857D01*
X105475000Y-121571428D01*
X105403571Y-121428571D01*
X105403571Y-121142857D01*
X105475000Y-120999999D01*
X106403571Y-119142857D02*
X104903571Y-119142857D01*
X106403571Y-118499999D02*
X105617857Y-118499999D01*
X105475000Y-118571428D01*
X105403571Y-118714285D01*
X105403571Y-118928571D01*
X105475000Y-119071428D01*
X105546428Y-119142857D01*
X106403571Y-117571428D02*
X106332142Y-117714285D01*
X106260714Y-117785714D01*
X106117857Y-117857142D01*
X105689285Y-117857142D01*
X105546428Y-117785714D01*
X105475000Y-117714285D01*
X105403571Y-117571428D01*
X105403571Y-117357142D01*
X105475000Y-117214285D01*
X105546428Y-117142857D01*
X105689285Y-117071428D01*
X106117857Y-117071428D01*
X106260714Y-117142857D01*
X106332142Y-117214285D01*
X106403571Y-117357142D01*
X106403571Y-117571428D01*
X106403571Y-116214285D02*
X106332142Y-116357142D01*
X106189285Y-116428571D01*
X104903571Y-116428571D01*
X106403571Y-114999999D02*
X104903571Y-114999999D01*
X106332142Y-114999999D02*
X106403571Y-115142857D01*
X106403571Y-115428571D01*
X106332142Y-115571428D01*
X106260714Y-115642857D01*
X106117857Y-115714285D01*
X105689285Y-115714285D01*
X105546428Y-115642857D01*
X105475000Y-115571428D01*
X105403571Y-115428571D01*
X105403571Y-115142857D01*
X105475000Y-114999999D01*
X106332142Y-112499999D02*
X106403571Y-112642857D01*
X106403571Y-112928571D01*
X106332142Y-113071428D01*
X106260714Y-113142857D01*
X106117857Y-113214285D01*
X105689285Y-113214285D01*
X105546428Y-113142857D01*
X105475000Y-113071428D01*
X105403571Y-112928571D01*
X105403571Y-112642857D01*
X105475000Y-112499999D01*
X106403571Y-111857142D02*
X105403571Y-111857142D01*
X104903571Y-111857142D02*
X104975000Y-111928571D01*
X105046428Y-111857142D01*
X104975000Y-111785714D01*
X104903571Y-111857142D01*
X105046428Y-111857142D01*
X106403571Y-111142857D02*
X105403571Y-111142857D01*
X105689285Y-111142857D02*
X105546428Y-111071428D01*
X105475000Y-110999999D01*
X105403571Y-110857142D01*
X105403571Y-110714285D01*
X106332142Y-109571428D02*
X106403571Y-109714285D01*
X106403571Y-109999999D01*
X106332142Y-110142857D01*
X106260714Y-110214285D01*
X106117857Y-110285714D01*
X105689285Y-110285714D01*
X105546428Y-110214285D01*
X105475000Y-110142857D01*
X105403571Y-109999999D01*
X105403571Y-109714285D01*
X105475000Y-109571428D01*
X105403571Y-108285714D02*
X106403571Y-108285714D01*
X105403571Y-108928571D02*
X106189285Y-108928571D01*
X106332142Y-108857142D01*
X106403571Y-108714285D01*
X106403571Y-108499999D01*
X106332142Y-108357142D01*
X106260714Y-108285714D01*
X106403571Y-107571428D02*
X105403571Y-107571428D01*
X104903571Y-107571428D02*
X104975000Y-107642857D01*
X105046428Y-107571428D01*
X104975000Y-107499999D01*
X104903571Y-107571428D01*
X105046428Y-107571428D01*
X105403571Y-107071428D02*
X105403571Y-106499999D01*
X104903571Y-106857142D02*
X106189285Y-106857142D01*
X106332142Y-106785714D01*
X106403571Y-106642857D01*
X106403571Y-106499999D01*
X106975000Y-104428571D02*
X106903571Y-104499999D01*
X106689285Y-104642857D01*
X106546428Y-104714285D01*
X106332142Y-104785714D01*
X105975000Y-104857142D01*
X105689285Y-104857142D01*
X105332142Y-104785714D01*
X105117857Y-104714285D01*
X104975000Y-104642857D01*
X104760714Y-104499999D01*
X104689285Y-104428571D01*
X105046428Y-103928571D02*
X104975000Y-103857142D01*
X104903571Y-103714285D01*
X104903571Y-103357142D01*
X104975000Y-103214285D01*
X105046428Y-103142857D01*
X105189285Y-103071428D01*
X105332142Y-103071428D01*
X105546428Y-103142857D01*
X106403571Y-103999999D01*
X106403571Y-103071428D01*
X104903571Y-102571428D02*
X106403571Y-101571428D01*
X104903571Y-101571428D02*
X106403571Y-102571428D01*
X106975000Y-101142857D02*
X106903571Y-101071428D01*
X106689285Y-100928571D01*
X106546428Y-100857142D01*
X106332142Y-100785714D01*
X105975000Y-100714285D01*
X105689285Y-100714285D01*
X105332142Y-100785714D01*
X105117857Y-100857142D01*
X104975000Y-100928571D01*
X104760714Y-101071428D01*
X104689285Y-101142857D01*
X106260714Y-97999999D02*
X106332142Y-98071428D01*
X106403571Y-98285714D01*
X106403571Y-98428571D01*
X106332142Y-98642857D01*
X106189285Y-98785714D01*
X106046428Y-98857142D01*
X105760714Y-98928571D01*
X105546428Y-98928571D01*
X105260714Y-98857142D01*
X105117857Y-98785714D01*
X104975000Y-98642857D01*
X104903571Y-98428571D01*
X104903571Y-98285714D01*
X104975000Y-98071428D01*
X105046428Y-97999999D01*
X105617857Y-97357142D02*
X105617857Y-96857142D01*
X106403571Y-96642857D02*
X106403571Y-97357142D01*
X104903571Y-97357142D01*
X104903571Y-96642857D01*
X106403571Y-95142857D02*
X105689285Y-95642857D01*
X106403571Y-95999999D02*
X104903571Y-95999999D01*
X104903571Y-95428571D01*
X104975000Y-95285714D01*
X105046428Y-95214285D01*
X105189285Y-95142857D01*
X105403571Y-95142857D01*
X105546428Y-95214285D01*
X105617857Y-95285714D01*
X105689285Y-95428571D01*
X105689285Y-95999999D01*
X106403571Y-94499999D02*
X104903571Y-94499999D01*
X106403571Y-93642857D01*
X104903571Y-93642857D01*
X104903571Y-91499999D02*
X104903571Y-91214285D01*
X104975000Y-91071428D01*
X105117857Y-90928571D01*
X105403571Y-90857142D01*
X105903571Y-90857142D01*
X106189285Y-90928571D01*
X106332142Y-91071428D01*
X106403571Y-91214285D01*
X106403571Y-91499999D01*
X106332142Y-91642857D01*
X106189285Y-91785714D01*
X105903571Y-91857142D01*
X105403571Y-91857142D01*
X105117857Y-91785714D01*
X104975000Y-91642857D01*
X104903571Y-91499999D01*
X106403571Y-90214285D02*
X104903571Y-90214285D01*
X105617857Y-90214285D02*
X105617857Y-89357142D01*
X106403571Y-89357142D02*
X104903571Y-89357142D01*
X106403571Y-87928571D02*
X106403571Y-88642857D01*
X104903571Y-88642857D01*
X104903571Y-86499999D02*
X106403571Y-85999999D01*
X104903571Y-85499999D01*
X105046428Y-85071428D02*
X104975000Y-84999999D01*
X104903571Y-84857142D01*
X104903571Y-84499999D01*
X104975000Y-84357142D01*
X105046428Y-84285714D01*
X105189285Y-84214285D01*
X105332142Y-84214285D01*
X105546428Y-84285714D01*
X106403571Y-85142857D01*
X106403571Y-84214285D01*
X106332142Y-82499999D02*
X106403571Y-82285714D01*
X106403571Y-81928571D01*
X106332142Y-81785714D01*
X106260714Y-81714285D01*
X106117857Y-81642857D01*
X105975000Y-81642857D01*
X105832142Y-81714285D01*
X105760714Y-81785714D01*
X105689285Y-81928571D01*
X105617857Y-82214285D01*
X105546428Y-82357142D01*
X105475000Y-82428571D01*
X105332142Y-82499999D01*
X105189285Y-82499999D01*
X105046428Y-82428571D01*
X104975000Y-82357142D01*
X104903571Y-82214285D01*
X104903571Y-81857142D01*
X104975000Y-81642857D01*
X105046428Y-79928571D02*
X104975000Y-79857142D01*
X104903571Y-79714285D01*
X104903571Y-79357142D01*
X104975000Y-79214285D01*
X105046428Y-79142857D01*
X105189285Y-79071428D01*
X105332142Y-79071428D01*
X105546428Y-79142857D01*
X106403571Y-79999999D01*
X106403571Y-79071428D01*
X104903571Y-78142857D02*
X104903571Y-77999999D01*
X104975000Y-77857142D01*
X105046428Y-77785714D01*
X105189285Y-77714285D01*
X105475000Y-77642857D01*
X105832142Y-77642857D01*
X106117857Y-77714285D01*
X106260714Y-77785714D01*
X106332142Y-77857142D01*
X106403571Y-77999999D01*
X106403571Y-78142857D01*
X106332142Y-78285714D01*
X106260714Y-78357142D01*
X106117857Y-78428571D01*
X105832142Y-78499999D01*
X105475000Y-78499999D01*
X105189285Y-78428571D01*
X105046428Y-78357142D01*
X104975000Y-78285714D01*
X104903571Y-78142857D01*
X105046428Y-77071428D02*
X104975000Y-76999999D01*
X104903571Y-76857142D01*
X104903571Y-76499999D01*
X104975000Y-76357142D01*
X105046428Y-76285714D01*
X105189285Y-76214285D01*
X105332142Y-76214285D01*
X105546428Y-76285714D01*
X106403571Y-77142857D01*
X106403571Y-76214285D01*
X104903571Y-75285714D02*
X104903571Y-75142857D01*
X104975000Y-75000000D01*
X105046428Y-74928571D01*
X105189285Y-74857142D01*
X105475000Y-74785714D01*
X105832142Y-74785714D01*
X106117857Y-74857142D01*
X106260714Y-74928571D01*
X106332142Y-75000000D01*
X106403571Y-75142857D01*
X106403571Y-75285714D01*
X106332142Y-75428571D01*
X106260714Y-75500000D01*
X106117857Y-75571428D01*
X105832142Y-75642857D01*
X105475000Y-75642857D01*
X105189285Y-75571428D01*
X105046428Y-75500000D01*
X104975000Y-75428571D01*
X104903571Y-75285714D01*
X104903571Y-73857142D02*
X104903571Y-73714285D01*
X104975000Y-73571428D01*
X105046428Y-73500000D01*
X105189285Y-73428571D01*
X105475000Y-73357142D01*
X105832142Y-73357142D01*
X106117857Y-73428571D01*
X106260714Y-73500000D01*
X106332142Y-73571428D01*
X106403571Y-73714285D01*
X106403571Y-73857142D01*
X106332142Y-74000000D01*
X106260714Y-74071428D01*
X106117857Y-74142857D01*
X105832142Y-74214285D01*
X105475000Y-74214285D01*
X105189285Y-74142857D01*
X105046428Y-74071428D01*
X104975000Y-74000000D01*
X104903571Y-73857142D01*
X105046428Y-72785714D02*
X104975000Y-72714285D01*
X104903571Y-72571428D01*
X104903571Y-72214285D01*
X104975000Y-72071428D01*
X105046428Y-72000000D01*
X105189285Y-71928571D01*
X105332142Y-71928571D01*
X105546428Y-72000000D01*
X106403571Y-72857142D01*
X106403571Y-71928571D01*
X104903571Y-71000000D02*
X104903571Y-70857142D01*
X104975000Y-70714285D01*
X105046428Y-70642857D01*
X105189285Y-70571428D01*
X105475000Y-70500000D01*
X105832142Y-70500000D01*
X106117857Y-70571428D01*
X106260714Y-70642857D01*
X106332142Y-70714285D01*
X106403571Y-70857142D01*
X106403571Y-71000000D01*
X106332142Y-71142857D01*
X106260714Y-71214285D01*
X106117857Y-71285714D01*
X105832142Y-71357142D01*
X105475000Y-71357142D01*
X105189285Y-71285714D01*
X105046428Y-71214285D01*
X104975000Y-71142857D01*
X104903571Y-71000000D01*
X105046428Y-69928571D02*
X104975000Y-69857142D01*
X104903571Y-69714285D01*
X104903571Y-69357142D01*
X104975000Y-69214285D01*
X105046428Y-69142857D01*
X105189285Y-69071428D01*
X105332142Y-69071428D01*
X105546428Y-69142857D01*
X106403571Y-70000000D01*
X106403571Y-69071428D01*
X106260714Y-66428571D02*
X106332142Y-66500000D01*
X106403571Y-66714285D01*
X106403571Y-66857142D01*
X106332142Y-67071428D01*
X106189285Y-67214285D01*
X106046428Y-67285714D01*
X105760714Y-67357142D01*
X105546428Y-67357142D01*
X105260714Y-67285714D01*
X105117857Y-67214285D01*
X104975000Y-67071428D01*
X104903571Y-66857142D01*
X104903571Y-66714285D01*
X104975000Y-66500000D01*
X105046428Y-66428571D01*
X106403571Y-65785714D02*
X104903571Y-65785714D01*
X106403571Y-65142857D02*
X105617857Y-65142857D01*
X105475000Y-65214285D01*
X105403571Y-65357142D01*
X105403571Y-65571428D01*
X105475000Y-65714285D01*
X105546428Y-65785714D01*
X106403571Y-63785714D02*
X105617857Y-63785714D01*
X105475000Y-63857142D01*
X105403571Y-64000000D01*
X105403571Y-64285714D01*
X105475000Y-64428571D01*
X106332142Y-63785714D02*
X106403571Y-63928571D01*
X106403571Y-64285714D01*
X106332142Y-64428571D01*
X106189285Y-64500000D01*
X106046428Y-64500000D01*
X105903571Y-64428571D01*
X105832142Y-64285714D01*
X105832142Y-63928571D01*
X105760714Y-63785714D01*
X105403571Y-62428571D02*
X106617857Y-62428571D01*
X106760714Y-62500000D01*
X106832142Y-62571428D01*
X106903571Y-62714285D01*
X106903571Y-62928571D01*
X106832142Y-63071428D01*
X106332142Y-62428571D02*
X106403571Y-62571428D01*
X106403571Y-62857142D01*
X106332142Y-63000000D01*
X106260714Y-63071428D01*
X106117857Y-63142857D01*
X105689285Y-63142857D01*
X105546428Y-63071428D01*
X105475000Y-63000000D01*
X105403571Y-62857142D01*
X105403571Y-62571428D01*
X105475000Y-62428571D01*
X106403571Y-61071428D02*
X105617857Y-61071428D01*
X105475000Y-61142857D01*
X105403571Y-61285714D01*
X105403571Y-61571428D01*
X105475000Y-61714285D01*
X106332142Y-61071428D02*
X106403571Y-61214285D01*
X106403571Y-61571428D01*
X106332142Y-61714285D01*
X106189285Y-61785714D01*
X106046428Y-61785714D01*
X105903571Y-61714285D01*
X105832142Y-61571428D01*
X105832142Y-61214285D01*
X105760714Y-61071428D01*
X106332142Y-60428571D02*
X106403571Y-60285714D01*
X106403571Y-60000000D01*
X106332142Y-59857142D01*
X106189285Y-59785714D01*
X106117857Y-59785714D01*
X105975000Y-59857142D01*
X105903571Y-60000000D01*
X105903571Y-60214285D01*
X105832142Y-60357142D01*
X105689285Y-60428571D01*
X105617857Y-60428571D01*
X105475000Y-60357142D01*
X105403571Y-60214285D01*
X105403571Y-60000000D01*
X105475000Y-59857142D01*
X105975000Y-58071428D02*
X105975000Y-57357142D01*
X106403571Y-58214285D02*
X104903571Y-57714285D01*
X106403571Y-57214285D01*
X106403571Y-56714285D02*
X104903571Y-56714285D01*
X105975000Y-56214285D01*
X104903571Y-55714285D01*
X106403571Y-55714285D01*
X107453571Y-95785714D02*
X108953571Y-95285714D01*
X107453571Y-94785714D01*
X107453571Y-94000000D02*
X107453571Y-93857142D01*
X107525000Y-93714285D01*
X107596428Y-93642857D01*
X107739285Y-93571428D01*
X108025000Y-93500000D01*
X108382142Y-93500000D01*
X108667857Y-93571428D01*
X108810714Y-93642857D01*
X108882142Y-93714285D01*
X108953571Y-93857142D01*
X108953571Y-94000000D01*
X108882142Y-94142857D01*
X108810714Y-94214285D01*
X108667857Y-94285714D01*
X108382142Y-94357142D01*
X108025000Y-94357142D01*
X107739285Y-94285714D01*
X107596428Y-94214285D01*
X107525000Y-94142857D01*
X107453571Y-94000000D01*
X108810714Y-92857142D02*
X108882142Y-92785714D01*
X108953571Y-92857142D01*
X108882142Y-92928571D01*
X108810714Y-92857142D01*
X108953571Y-92857142D01*
X108953571Y-91357142D02*
X108953571Y-92214285D01*
X108953571Y-91785714D02*
X107453571Y-91785714D01*
X107667857Y-91928571D01*
X107810714Y-92071428D01*
X107882142Y-92214285D01*
D12*
%TO.C,D4*%
X118470000Y-59360000D02*
X115530000Y-59360000D01*
X115530000Y-59360000D02*
X115530000Y-64800000D01*
X115530000Y-64800000D02*
X118470000Y-64800000D01*
X118470000Y-64800000D02*
X118470000Y-59360000D01*
X117000000Y-58340000D02*
X117000000Y-59360000D01*
X117000000Y-65820000D02*
X117000000Y-64800000D01*
X118470000Y-60260000D02*
X115530000Y-60260000D01*
X118470000Y-60380000D02*
X115530000Y-60380000D01*
X118470000Y-60140000D02*
X115530000Y-60140000D01*
%TO.C,C1*%
X119221000Y-117330000D02*
X119221000Y-122670000D01*
X115779000Y-117330000D02*
X115779000Y-122670000D01*
X119221000Y-117330000D02*
X118555000Y-117330000D01*
X116445000Y-117330000D02*
X115779000Y-117330000D01*
X119221000Y-122670000D02*
X118555000Y-122670000D01*
X116445000Y-122670000D02*
X115779000Y-122670000D01*
%TO.C,C2*%
X109330000Y-72779000D02*
X114670000Y-72779000D01*
X109330000Y-76221000D02*
X114670000Y-76221000D01*
X109330000Y-72779000D02*
X109330000Y-73445000D01*
X109330000Y-75555000D02*
X109330000Y-76221000D01*
X114670000Y-72779000D02*
X114670000Y-73445000D01*
X114670000Y-75555000D02*
X114670000Y-76221000D01*
%TO.C,C3*%
X144330000Y-111445000D02*
X144330000Y-110779000D01*
X144330000Y-114221000D02*
X144330000Y-113555000D01*
X149670000Y-111445000D02*
X149670000Y-110779000D01*
X149670000Y-114221000D02*
X149670000Y-113555000D01*
X149670000Y-110779000D02*
X144330000Y-110779000D01*
X149670000Y-114221000D02*
X144330000Y-114221000D01*
%TO.C,C4*%
X145330000Y-66945000D02*
X145330000Y-66279000D01*
X145330000Y-69721000D02*
X145330000Y-69055000D01*
X150670000Y-66945000D02*
X150670000Y-66279000D01*
X150670000Y-69721000D02*
X150670000Y-69055000D01*
X150670000Y-66279000D02*
X145330000Y-66279000D01*
X150670000Y-69721000D02*
X145330000Y-69721000D01*
%TO.C,C5*%
X144330000Y-105779000D02*
X149670000Y-105779000D01*
X144330000Y-109221000D02*
X149670000Y-109221000D01*
X144330000Y-105779000D02*
X144330000Y-106445000D01*
X144330000Y-108555000D02*
X144330000Y-109221000D01*
X149670000Y-105779000D02*
X149670000Y-106445000D01*
X149670000Y-108555000D02*
X149670000Y-109221000D01*
%TO.C,C6*%
X150670000Y-64055000D02*
X150670000Y-64721000D01*
X150670000Y-61279000D02*
X150670000Y-61945000D01*
X145330000Y-64055000D02*
X145330000Y-64721000D01*
X145330000Y-61279000D02*
X145330000Y-61945000D01*
X145330000Y-64721000D02*
X150670000Y-64721000D01*
X145330000Y-61279000D02*
X150670000Y-61279000D01*
%TO.C,C11*%
X127375000Y-44020354D02*
X126375000Y-44020354D01*
X126875000Y-43520354D02*
X126875000Y-44520354D01*
X124599000Y-54081000D02*
X123401000Y-54081000D01*
X124862000Y-54041000D02*
X123138000Y-54041000D01*
X125062000Y-54001000D02*
X122938000Y-54001000D01*
X125230000Y-53961000D02*
X122770000Y-53961000D01*
X125378000Y-53921000D02*
X122622000Y-53921000D01*
X125510000Y-53881000D02*
X122490000Y-53881000D01*
X125630000Y-53841000D02*
X122370000Y-53841000D01*
X125742000Y-53801000D02*
X122258000Y-53801000D01*
X125846000Y-53761000D02*
X122154000Y-53761000D01*
X125944000Y-53721000D02*
X122056000Y-53721000D01*
X126037000Y-53681000D02*
X121963000Y-53681000D01*
X126125000Y-53641000D02*
X121875000Y-53641000D01*
X126209000Y-53601000D02*
X121791000Y-53601000D01*
X126289000Y-53561000D02*
X121711000Y-53561000D01*
X126365000Y-53521000D02*
X121635000Y-53521000D01*
X126439000Y-53481000D02*
X121561000Y-53481000D01*
X126510000Y-53441000D02*
X121490000Y-53441000D01*
X126579000Y-53401000D02*
X121421000Y-53401000D01*
X126645000Y-53361000D02*
X121355000Y-53361000D01*
X126709000Y-53321000D02*
X121291000Y-53321000D01*
X126770000Y-53281000D02*
X121230000Y-53281000D01*
X126830000Y-53241000D02*
X121170000Y-53241000D01*
X126889000Y-53201000D02*
X121111000Y-53201000D01*
X126945000Y-53161000D02*
X121055000Y-53161000D01*
X127000000Y-53121000D02*
X121000000Y-53121000D01*
X127054000Y-53081000D02*
X120946000Y-53081000D01*
X127106000Y-53041000D02*
X120894000Y-53041000D01*
X127156000Y-53001000D02*
X120844000Y-53001000D01*
X127206000Y-52961000D02*
X120794000Y-52961000D01*
X127254000Y-52921000D02*
X120746000Y-52921000D01*
X127301000Y-52881000D02*
X120699000Y-52881000D01*
X127347000Y-52841000D02*
X120653000Y-52841000D01*
X127392000Y-52801000D02*
X120608000Y-52801000D01*
X127436000Y-52761000D02*
X120564000Y-52761000D01*
X122759000Y-52721000D02*
X120522000Y-52721000D01*
X127478000Y-52721000D02*
X125241000Y-52721000D01*
X122759000Y-52681000D02*
X120480000Y-52681000D01*
X127520000Y-52681000D02*
X125241000Y-52681000D01*
X122759000Y-52641000D02*
X120439000Y-52641000D01*
X127561000Y-52641000D02*
X125241000Y-52641000D01*
X122759000Y-52601000D02*
X120399000Y-52601000D01*
X127601000Y-52601000D02*
X125241000Y-52601000D01*
X122759000Y-52561000D02*
X120360000Y-52561000D01*
X127640000Y-52561000D02*
X125241000Y-52561000D01*
X122759000Y-52521000D02*
X120321000Y-52521000D01*
X127679000Y-52521000D02*
X125241000Y-52521000D01*
X122759000Y-52481000D02*
X120284000Y-52481000D01*
X127716000Y-52481000D02*
X125241000Y-52481000D01*
X122759000Y-52441000D02*
X120247000Y-52441000D01*
X127753000Y-52441000D02*
X125241000Y-52441000D01*
X122759000Y-52401000D02*
X120211000Y-52401000D01*
X127789000Y-52401000D02*
X125241000Y-52401000D01*
X122759000Y-52361000D02*
X120176000Y-52361000D01*
X127824000Y-52361000D02*
X125241000Y-52361000D01*
X122759000Y-52321000D02*
X120142000Y-52321000D01*
X127858000Y-52321000D02*
X125241000Y-52321000D01*
X122759000Y-52281000D02*
X120108000Y-52281000D01*
X127892000Y-52281000D02*
X125241000Y-52281000D01*
X122759000Y-52241000D02*
X120075000Y-52241000D01*
X127925000Y-52241000D02*
X125241000Y-52241000D01*
X122759000Y-52201000D02*
X120043000Y-52201000D01*
X127957000Y-52201000D02*
X125241000Y-52201000D01*
X122759000Y-52161000D02*
X120011000Y-52161000D01*
X127989000Y-52161000D02*
X125241000Y-52161000D01*
X122759000Y-52121000D02*
X119980000Y-52121000D01*
X128020000Y-52121000D02*
X125241000Y-52121000D01*
X122759000Y-52081000D02*
X119950000Y-52081000D01*
X128050000Y-52081000D02*
X125241000Y-52081000D01*
X122759000Y-52041000D02*
X119920000Y-52041000D01*
X128080000Y-52041000D02*
X125241000Y-52041000D01*
X122759000Y-52001000D02*
X119890000Y-52001000D01*
X128110000Y-52001000D02*
X125241000Y-52001000D01*
X122759000Y-51961000D02*
X119862000Y-51961000D01*
X128138000Y-51961000D02*
X125241000Y-51961000D01*
X122759000Y-51921000D02*
X119834000Y-51921000D01*
X128166000Y-51921000D02*
X125241000Y-51921000D01*
X122759000Y-51881000D02*
X119806000Y-51881000D01*
X128194000Y-51881000D02*
X125241000Y-51881000D01*
X122759000Y-51841000D02*
X119779000Y-51841000D01*
X128221000Y-51841000D02*
X125241000Y-51841000D01*
X122759000Y-51801000D02*
X119753000Y-51801000D01*
X128247000Y-51801000D02*
X125241000Y-51801000D01*
X122759000Y-51761000D02*
X119727000Y-51761000D01*
X128273000Y-51761000D02*
X125241000Y-51761000D01*
X122759000Y-51721000D02*
X119702000Y-51721000D01*
X128298000Y-51721000D02*
X125241000Y-51721000D01*
X122759000Y-51681000D02*
X119677000Y-51681000D01*
X128323000Y-51681000D02*
X125241000Y-51681000D01*
X122759000Y-51641000D02*
X119653000Y-51641000D01*
X128347000Y-51641000D02*
X125241000Y-51641000D01*
X122759000Y-51601000D02*
X119629000Y-51601000D01*
X128371000Y-51601000D02*
X125241000Y-51601000D01*
X122759000Y-51561000D02*
X119605000Y-51561000D01*
X128395000Y-51561000D02*
X125241000Y-51561000D01*
X122759000Y-51521000D02*
X119583000Y-51521000D01*
X128417000Y-51521000D02*
X125241000Y-51521000D01*
X122759000Y-51481000D02*
X119560000Y-51481000D01*
X128440000Y-51481000D02*
X125241000Y-51481000D01*
X122759000Y-51441000D02*
X119538000Y-51441000D01*
X128462000Y-51441000D02*
X125241000Y-51441000D01*
X122759000Y-51401000D02*
X119517000Y-51401000D01*
X128483000Y-51401000D02*
X125241000Y-51401000D01*
X122759000Y-51361000D02*
X119496000Y-51361000D01*
X128504000Y-51361000D02*
X125241000Y-51361000D01*
X122759000Y-51321000D02*
X119475000Y-51321000D01*
X128525000Y-51321000D02*
X125241000Y-51321000D01*
X122759000Y-51281000D02*
X119455000Y-51281000D01*
X128545000Y-51281000D02*
X125241000Y-51281000D01*
X122759000Y-51241000D02*
X119436000Y-51241000D01*
X128564000Y-51241000D02*
X125241000Y-51241000D01*
X122759000Y-51201000D02*
X119416000Y-51201000D01*
X128584000Y-51201000D02*
X125241000Y-51201000D01*
X122759000Y-51161000D02*
X119397000Y-51161000D01*
X128603000Y-51161000D02*
X125241000Y-51161000D01*
X122759000Y-51121000D02*
X119379000Y-51121000D01*
X128621000Y-51121000D02*
X125241000Y-51121000D01*
X122759000Y-51081000D02*
X119361000Y-51081000D01*
X128639000Y-51081000D02*
X125241000Y-51081000D01*
X122759000Y-51041000D02*
X119343000Y-51041000D01*
X128657000Y-51041000D02*
X125241000Y-51041000D01*
X122759000Y-51001000D02*
X119326000Y-51001000D01*
X128674000Y-51001000D02*
X125241000Y-51001000D01*
X122759000Y-50961000D02*
X119310000Y-50961000D01*
X128690000Y-50961000D02*
X125241000Y-50961000D01*
X122759000Y-50921000D02*
X119293000Y-50921000D01*
X128707000Y-50921000D02*
X125241000Y-50921000D01*
X122759000Y-50881000D02*
X119277000Y-50881000D01*
X128723000Y-50881000D02*
X125241000Y-50881000D01*
X122759000Y-50841000D02*
X119262000Y-50841000D01*
X128738000Y-50841000D02*
X125241000Y-50841000D01*
X122759000Y-50801000D02*
X119246000Y-50801000D01*
X128754000Y-50801000D02*
X125241000Y-50801000D01*
X122759000Y-50761000D02*
X119232000Y-50761000D01*
X128768000Y-50761000D02*
X125241000Y-50761000D01*
X122759000Y-50721000D02*
X119217000Y-50721000D01*
X128783000Y-50721000D02*
X125241000Y-50721000D01*
X122759000Y-50681000D02*
X119203000Y-50681000D01*
X128797000Y-50681000D02*
X125241000Y-50681000D01*
X122759000Y-50641000D02*
X119189000Y-50641000D01*
X128811000Y-50641000D02*
X125241000Y-50641000D01*
X122759000Y-50601000D02*
X119176000Y-50601000D01*
X128824000Y-50601000D02*
X125241000Y-50601000D01*
X122759000Y-50561000D02*
X119163000Y-50561000D01*
X128837000Y-50561000D02*
X125241000Y-50561000D01*
X122759000Y-50521000D02*
X119150000Y-50521000D01*
X128850000Y-50521000D02*
X125241000Y-50521000D01*
X122759000Y-50481000D02*
X119138000Y-50481000D01*
X128862000Y-50481000D02*
X125241000Y-50481000D01*
X122759000Y-50441000D02*
X119126000Y-50441000D01*
X128874000Y-50441000D02*
X125241000Y-50441000D01*
X122759000Y-50401000D02*
X119115000Y-50401000D01*
X128885000Y-50401000D02*
X125241000Y-50401000D01*
X122759000Y-50361000D02*
X119103000Y-50361000D01*
X128897000Y-50361000D02*
X125241000Y-50361000D01*
X122759000Y-50321000D02*
X119093000Y-50321000D01*
X128907000Y-50321000D02*
X125241000Y-50321000D01*
X122759000Y-50281000D02*
X119082000Y-50281000D01*
X128918000Y-50281000D02*
X125241000Y-50281000D01*
X128928000Y-50241000D02*
X119072000Y-50241000D01*
X128938000Y-50201000D02*
X119062000Y-50201000D01*
X128947000Y-50161000D02*
X119053000Y-50161000D01*
X128956000Y-50121000D02*
X119044000Y-50121000D01*
X128965000Y-50081000D02*
X119035000Y-50081000D01*
X128974000Y-50041000D02*
X119026000Y-50041000D01*
X128982000Y-50001000D02*
X119018000Y-50001000D01*
X128990000Y-49961000D02*
X119010000Y-49961000D01*
X128997000Y-49921000D02*
X119003000Y-49921000D01*
X129004000Y-49881000D02*
X118996000Y-49881000D01*
X129011000Y-49841000D02*
X118989000Y-49841000D01*
X129018000Y-49801000D02*
X118982000Y-49801000D01*
X129024000Y-49761000D02*
X118976000Y-49761000D01*
X129030000Y-49721000D02*
X118970000Y-49721000D01*
X129035000Y-49680000D02*
X118965000Y-49680000D01*
X129040000Y-49640000D02*
X118960000Y-49640000D01*
X129045000Y-49600000D02*
X118955000Y-49600000D01*
X129050000Y-49560000D02*
X118950000Y-49560000D01*
X129054000Y-49520000D02*
X118946000Y-49520000D01*
X129058000Y-49480000D02*
X118942000Y-49480000D01*
X129062000Y-49440000D02*
X118938000Y-49440000D01*
X129065000Y-49400000D02*
X118935000Y-49400000D01*
X129068000Y-49360000D02*
X118932000Y-49360000D01*
X129070000Y-49320000D02*
X118930000Y-49320000D01*
X129073000Y-49280000D02*
X118927000Y-49280000D01*
X129075000Y-49240000D02*
X118925000Y-49240000D01*
X129077000Y-49200000D02*
X118923000Y-49200000D01*
X129078000Y-49160000D02*
X118922000Y-49160000D01*
X129079000Y-49120000D02*
X118921000Y-49120000D01*
X129080000Y-49080000D02*
X118920000Y-49080000D01*
X129080000Y-49040000D02*
X118920000Y-49040000D01*
X129080000Y-49000000D02*
X118920000Y-49000000D01*
X129120000Y-49000000D02*
G75*
G03*
X129120000Y-49000000I-5120000J0D01*
G01*
%TO.C,C15*%
X150620000Y-38500000D02*
G75*
G03*
X150620000Y-38500000I-5120000J0D01*
G01*
X145500000Y-33420000D02*
X145500000Y-43580000D01*
X145540000Y-33420000D02*
X145540000Y-43580000D01*
X145580000Y-33420000D02*
X145580000Y-43580000D01*
X145620000Y-33421000D02*
X145620000Y-43579000D01*
X145660000Y-33422000D02*
X145660000Y-43578000D01*
X145700000Y-33423000D02*
X145700000Y-43577000D01*
X145740000Y-33425000D02*
X145740000Y-43575000D01*
X145780000Y-33427000D02*
X145780000Y-43573000D01*
X145820000Y-33430000D02*
X145820000Y-43570000D01*
X145860000Y-33432000D02*
X145860000Y-43568000D01*
X145900000Y-33435000D02*
X145900000Y-43565000D01*
X145940000Y-33438000D02*
X145940000Y-43562000D01*
X145980000Y-33442000D02*
X145980000Y-43558000D01*
X146020000Y-33446000D02*
X146020000Y-43554000D01*
X146060000Y-33450000D02*
X146060000Y-43550000D01*
X146100000Y-33455000D02*
X146100000Y-43545000D01*
X146140000Y-33460000D02*
X146140000Y-43540000D01*
X146180000Y-33465000D02*
X146180000Y-43535000D01*
X146221000Y-33470000D02*
X146221000Y-43530000D01*
X146261000Y-33476000D02*
X146261000Y-43524000D01*
X146301000Y-33482000D02*
X146301000Y-43518000D01*
X146341000Y-33489000D02*
X146341000Y-43511000D01*
X146381000Y-33496000D02*
X146381000Y-43504000D01*
X146421000Y-33503000D02*
X146421000Y-43497000D01*
X146461000Y-33510000D02*
X146461000Y-43490000D01*
X146501000Y-33518000D02*
X146501000Y-43482000D01*
X146541000Y-33526000D02*
X146541000Y-43474000D01*
X146581000Y-33535000D02*
X146581000Y-43465000D01*
X146621000Y-33544000D02*
X146621000Y-43456000D01*
X146661000Y-33553000D02*
X146661000Y-43447000D01*
X146701000Y-33562000D02*
X146701000Y-43438000D01*
X146741000Y-33572000D02*
X146741000Y-43428000D01*
X146781000Y-33582000D02*
X146781000Y-37259000D01*
X146781000Y-39741000D02*
X146781000Y-43418000D01*
X146821000Y-33593000D02*
X146821000Y-37259000D01*
X146821000Y-39741000D02*
X146821000Y-43407000D01*
X146861000Y-33603000D02*
X146861000Y-37259000D01*
X146861000Y-39741000D02*
X146861000Y-43397000D01*
X146901000Y-33615000D02*
X146901000Y-37259000D01*
X146901000Y-39741000D02*
X146901000Y-43385000D01*
X146941000Y-33626000D02*
X146941000Y-37259000D01*
X146941000Y-39741000D02*
X146941000Y-43374000D01*
X146981000Y-33638000D02*
X146981000Y-37259000D01*
X146981000Y-39741000D02*
X146981000Y-43362000D01*
X147021000Y-33650000D02*
X147021000Y-37259000D01*
X147021000Y-39741000D02*
X147021000Y-43350000D01*
X147061000Y-33663000D02*
X147061000Y-37259000D01*
X147061000Y-39741000D02*
X147061000Y-43337000D01*
X147101000Y-33676000D02*
X147101000Y-37259000D01*
X147101000Y-39741000D02*
X147101000Y-43324000D01*
X147141000Y-33689000D02*
X147141000Y-37259000D01*
X147141000Y-39741000D02*
X147141000Y-43311000D01*
X147181000Y-33703000D02*
X147181000Y-37259000D01*
X147181000Y-39741000D02*
X147181000Y-43297000D01*
X147221000Y-33717000D02*
X147221000Y-37259000D01*
X147221000Y-39741000D02*
X147221000Y-43283000D01*
X147261000Y-33732000D02*
X147261000Y-37259000D01*
X147261000Y-39741000D02*
X147261000Y-43268000D01*
X147301000Y-33746000D02*
X147301000Y-37259000D01*
X147301000Y-39741000D02*
X147301000Y-43254000D01*
X147341000Y-33762000D02*
X147341000Y-37259000D01*
X147341000Y-39741000D02*
X147341000Y-43238000D01*
X147381000Y-33777000D02*
X147381000Y-37259000D01*
X147381000Y-39741000D02*
X147381000Y-43223000D01*
X147421000Y-33793000D02*
X147421000Y-37259000D01*
X147421000Y-39741000D02*
X147421000Y-43207000D01*
X147461000Y-33810000D02*
X147461000Y-37259000D01*
X147461000Y-39741000D02*
X147461000Y-43190000D01*
X147501000Y-33826000D02*
X147501000Y-37259000D01*
X147501000Y-39741000D02*
X147501000Y-43174000D01*
X147541000Y-33843000D02*
X147541000Y-37259000D01*
X147541000Y-39741000D02*
X147541000Y-43157000D01*
X147581000Y-33861000D02*
X147581000Y-37259000D01*
X147581000Y-39741000D02*
X147581000Y-43139000D01*
X147621000Y-33879000D02*
X147621000Y-37259000D01*
X147621000Y-39741000D02*
X147621000Y-43121000D01*
X147661000Y-33897000D02*
X147661000Y-37259000D01*
X147661000Y-39741000D02*
X147661000Y-43103000D01*
X147701000Y-33916000D02*
X147701000Y-37259000D01*
X147701000Y-39741000D02*
X147701000Y-43084000D01*
X147741000Y-33936000D02*
X147741000Y-37259000D01*
X147741000Y-39741000D02*
X147741000Y-43064000D01*
X147781000Y-33955000D02*
X147781000Y-37259000D01*
X147781000Y-39741000D02*
X147781000Y-43045000D01*
X147821000Y-33975000D02*
X147821000Y-37259000D01*
X147821000Y-39741000D02*
X147821000Y-43025000D01*
X147861000Y-33996000D02*
X147861000Y-37259000D01*
X147861000Y-39741000D02*
X147861000Y-43004000D01*
X147901000Y-34017000D02*
X147901000Y-37259000D01*
X147901000Y-39741000D02*
X147901000Y-42983000D01*
X147941000Y-34038000D02*
X147941000Y-37259000D01*
X147941000Y-39741000D02*
X147941000Y-42962000D01*
X147981000Y-34060000D02*
X147981000Y-37259000D01*
X147981000Y-39741000D02*
X147981000Y-42940000D01*
X148021000Y-34083000D02*
X148021000Y-37259000D01*
X148021000Y-39741000D02*
X148021000Y-42917000D01*
X148061000Y-34105000D02*
X148061000Y-37259000D01*
X148061000Y-39741000D02*
X148061000Y-42895000D01*
X148101000Y-34129000D02*
X148101000Y-37259000D01*
X148101000Y-39741000D02*
X148101000Y-42871000D01*
X148141000Y-34153000D02*
X148141000Y-37259000D01*
X148141000Y-39741000D02*
X148141000Y-42847000D01*
X148181000Y-34177000D02*
X148181000Y-37259000D01*
X148181000Y-39741000D02*
X148181000Y-42823000D01*
X148221000Y-34202000D02*
X148221000Y-37259000D01*
X148221000Y-39741000D02*
X148221000Y-42798000D01*
X148261000Y-34227000D02*
X148261000Y-37259000D01*
X148261000Y-39741000D02*
X148261000Y-42773000D01*
X148301000Y-34253000D02*
X148301000Y-37259000D01*
X148301000Y-39741000D02*
X148301000Y-42747000D01*
X148341000Y-34279000D02*
X148341000Y-37259000D01*
X148341000Y-39741000D02*
X148341000Y-42721000D01*
X148381000Y-34306000D02*
X148381000Y-37259000D01*
X148381000Y-39741000D02*
X148381000Y-42694000D01*
X148421000Y-34334000D02*
X148421000Y-37259000D01*
X148421000Y-39741000D02*
X148421000Y-42666000D01*
X148461000Y-34362000D02*
X148461000Y-37259000D01*
X148461000Y-39741000D02*
X148461000Y-42638000D01*
X148501000Y-34390000D02*
X148501000Y-37259000D01*
X148501000Y-39741000D02*
X148501000Y-42610000D01*
X148541000Y-34420000D02*
X148541000Y-37259000D01*
X148541000Y-39741000D02*
X148541000Y-42580000D01*
X148581000Y-34450000D02*
X148581000Y-37259000D01*
X148581000Y-39741000D02*
X148581000Y-42550000D01*
X148621000Y-34480000D02*
X148621000Y-37259000D01*
X148621000Y-39741000D02*
X148621000Y-42520000D01*
X148661000Y-34511000D02*
X148661000Y-37259000D01*
X148661000Y-39741000D02*
X148661000Y-42489000D01*
X148701000Y-34543000D02*
X148701000Y-37259000D01*
X148701000Y-39741000D02*
X148701000Y-42457000D01*
X148741000Y-34575000D02*
X148741000Y-37259000D01*
X148741000Y-39741000D02*
X148741000Y-42425000D01*
X148781000Y-34608000D02*
X148781000Y-37259000D01*
X148781000Y-39741000D02*
X148781000Y-42392000D01*
X148821000Y-34642000D02*
X148821000Y-37259000D01*
X148821000Y-39741000D02*
X148821000Y-42358000D01*
X148861000Y-34676000D02*
X148861000Y-37259000D01*
X148861000Y-39741000D02*
X148861000Y-42324000D01*
X148901000Y-34711000D02*
X148901000Y-37259000D01*
X148901000Y-39741000D02*
X148901000Y-42289000D01*
X148941000Y-34747000D02*
X148941000Y-37259000D01*
X148941000Y-39741000D02*
X148941000Y-42253000D01*
X148981000Y-34784000D02*
X148981000Y-37259000D01*
X148981000Y-39741000D02*
X148981000Y-42216000D01*
X149021000Y-34821000D02*
X149021000Y-37259000D01*
X149021000Y-39741000D02*
X149021000Y-42179000D01*
X149061000Y-34860000D02*
X149061000Y-37259000D01*
X149061000Y-39741000D02*
X149061000Y-42140000D01*
X149101000Y-34899000D02*
X149101000Y-37259000D01*
X149101000Y-39741000D02*
X149101000Y-42101000D01*
X149141000Y-34939000D02*
X149141000Y-37259000D01*
X149141000Y-39741000D02*
X149141000Y-42061000D01*
X149181000Y-34980000D02*
X149181000Y-37259000D01*
X149181000Y-39741000D02*
X149181000Y-42020000D01*
X149221000Y-35022000D02*
X149221000Y-37259000D01*
X149221000Y-39741000D02*
X149221000Y-41978000D01*
X149261000Y-35064000D02*
X149261000Y-41936000D01*
X149301000Y-35108000D02*
X149301000Y-41892000D01*
X149341000Y-35153000D02*
X149341000Y-41847000D01*
X149381000Y-35199000D02*
X149381000Y-41801000D01*
X149421000Y-35246000D02*
X149421000Y-41754000D01*
X149461000Y-35294000D02*
X149461000Y-41706000D01*
X149501000Y-35344000D02*
X149501000Y-41656000D01*
X149541000Y-35394000D02*
X149541000Y-41606000D01*
X149581000Y-35446000D02*
X149581000Y-41554000D01*
X149621000Y-35500000D02*
X149621000Y-41500000D01*
X149661000Y-35555000D02*
X149661000Y-41445000D01*
X149701000Y-35611000D02*
X149701000Y-41389000D01*
X149741000Y-35670000D02*
X149741000Y-41330000D01*
X149781000Y-35730000D02*
X149781000Y-41270000D01*
X149821000Y-35791000D02*
X149821000Y-41209000D01*
X149861000Y-35855000D02*
X149861000Y-41145000D01*
X149901000Y-35921000D02*
X149901000Y-41079000D01*
X149941000Y-35990000D02*
X149941000Y-41010000D01*
X149981000Y-36061000D02*
X149981000Y-40939000D01*
X150021000Y-36135000D02*
X150021000Y-40865000D01*
X150061000Y-36211000D02*
X150061000Y-40789000D01*
X150101000Y-36291000D02*
X150101000Y-40709000D01*
X150141000Y-36375000D02*
X150141000Y-40625000D01*
X150181000Y-36463000D02*
X150181000Y-40537000D01*
X150221000Y-36556000D02*
X150221000Y-40444000D01*
X150261000Y-36654000D02*
X150261000Y-40346000D01*
X150301000Y-36758000D02*
X150301000Y-40242000D01*
X150341000Y-36870000D02*
X150341000Y-40130000D01*
X150381000Y-36990000D02*
X150381000Y-40010000D01*
X150421000Y-37122000D02*
X150421000Y-39878000D01*
X150461000Y-37270000D02*
X150461000Y-39730000D01*
X150501000Y-37438000D02*
X150501000Y-39562000D01*
X150541000Y-37638000D02*
X150541000Y-39362000D01*
X150581000Y-37901000D02*
X150581000Y-39099000D01*
X140020354Y-35625000D02*
X141020354Y-35625000D01*
X140520354Y-35125000D02*
X140520354Y-36125000D01*
%TO.C,D1*%
X160360000Y-106470000D02*
X160360000Y-103530000D01*
X160120000Y-106470000D02*
X160120000Y-103530000D01*
X160240000Y-106470000D02*
X160240000Y-103530000D01*
X154680000Y-105000000D02*
X155700000Y-105000000D01*
X162160000Y-105000000D02*
X161140000Y-105000000D01*
X155700000Y-106470000D02*
X161140000Y-106470000D01*
X155700000Y-103530000D02*
X155700000Y-106470000D01*
X161140000Y-103530000D02*
X155700000Y-103530000D01*
X161140000Y-106470000D02*
X161140000Y-103530000D01*
%TO.C,D2*%
X162640000Y-64470000D02*
X162640000Y-61530000D01*
X162640000Y-61530000D02*
X157200000Y-61530000D01*
X157200000Y-61530000D02*
X157200000Y-64470000D01*
X157200000Y-64470000D02*
X162640000Y-64470000D01*
X163660000Y-63000000D02*
X162640000Y-63000000D01*
X156180000Y-63000000D02*
X157200000Y-63000000D01*
X161740000Y-64470000D02*
X161740000Y-61530000D01*
X161620000Y-64470000D02*
X161620000Y-61530000D01*
X161860000Y-64470000D02*
X161860000Y-61530000D01*
%TO.C,D3*%
X120470000Y-106640000D02*
X117530000Y-106640000D01*
X120470000Y-106880000D02*
X117530000Y-106880000D01*
X120470000Y-106760000D02*
X117530000Y-106760000D01*
X119000000Y-112320000D02*
X119000000Y-111300000D01*
X119000000Y-104840000D02*
X119000000Y-105860000D01*
X120470000Y-111300000D02*
X120470000Y-105860000D01*
X117530000Y-111300000D02*
X120470000Y-111300000D01*
X117530000Y-105860000D02*
X117530000Y-111300000D01*
X120470000Y-105860000D02*
X117530000Y-105860000D01*
%TO.C,D5*%
X160360000Y-111970000D02*
X160360000Y-109030000D01*
X160120000Y-111970000D02*
X160120000Y-109030000D01*
X160240000Y-111970000D02*
X160240000Y-109030000D01*
X154680000Y-110500000D02*
X155700000Y-110500000D01*
X162160000Y-110500000D02*
X161140000Y-110500000D01*
X155700000Y-111970000D02*
X161140000Y-111970000D01*
X155700000Y-109030000D02*
X155700000Y-111970000D01*
X161140000Y-109030000D02*
X155700000Y-109030000D01*
X161140000Y-111970000D02*
X161140000Y-109030000D01*
%TO.C,D6*%
X161860000Y-69970000D02*
X161860000Y-67030000D01*
X161620000Y-69970000D02*
X161620000Y-67030000D01*
X161740000Y-69970000D02*
X161740000Y-67030000D01*
X156180000Y-68500000D02*
X157200000Y-68500000D01*
X163660000Y-68500000D02*
X162640000Y-68500000D01*
X157200000Y-69970000D02*
X162640000Y-69970000D01*
X157200000Y-67030000D02*
X157200000Y-69970000D01*
X162640000Y-67030000D02*
X157200000Y-67030000D01*
X162640000Y-69970000D02*
X162640000Y-67030000D01*
%TO.C,D7*%
X161140000Y-117970000D02*
X161140000Y-115030000D01*
X161140000Y-115030000D02*
X155700000Y-115030000D01*
X155700000Y-115030000D02*
X155700000Y-117970000D01*
X155700000Y-117970000D02*
X161140000Y-117970000D01*
X162160000Y-116500000D02*
X161140000Y-116500000D01*
X154680000Y-116500000D02*
X155700000Y-116500000D01*
X160240000Y-117970000D02*
X160240000Y-115030000D01*
X160120000Y-117970000D02*
X160120000Y-115030000D01*
X160360000Y-117970000D02*
X160360000Y-115030000D01*
%TO.C,D8*%
X161860000Y-75470000D02*
X161860000Y-72530000D01*
X161620000Y-75470000D02*
X161620000Y-72530000D01*
X161740000Y-75470000D02*
X161740000Y-72530000D01*
X156180000Y-74000000D02*
X157200000Y-74000000D01*
X163660000Y-74000000D02*
X162640000Y-74000000D01*
X157200000Y-75470000D02*
X162640000Y-75470000D01*
X157200000Y-72530000D02*
X157200000Y-75470000D01*
X162640000Y-72530000D02*
X157200000Y-72530000D01*
X162640000Y-75470000D02*
X162640000Y-72530000D01*
%TO.C,D17*%
X135250000Y-46280000D02*
X135250000Y-51720000D01*
X135250000Y-51720000D02*
X144990000Y-51720000D01*
X144990000Y-51720000D02*
X144990000Y-46280000D01*
X144990000Y-46280000D02*
X135250000Y-46280000D01*
X134340000Y-49000000D02*
X135250000Y-49000000D01*
X145900000Y-49000000D02*
X144990000Y-49000000D01*
X136795000Y-46280000D02*
X136795000Y-51720000D01*
X136915000Y-46280000D02*
X136915000Y-51720000D01*
X136675000Y-46280000D02*
X136675000Y-51720000D01*
%TO.C,J1*%
X113170000Y-131870000D02*
X115830000Y-131870000D01*
X113170000Y-129270000D02*
X113170000Y-131870000D01*
X115830000Y-129270000D02*
X115830000Y-131870000D01*
X113170000Y-129270000D02*
X115830000Y-129270000D01*
X113170000Y-128000000D02*
X113170000Y-126670000D01*
X113170000Y-126670000D02*
X114500000Y-126670000D01*
%TO.C,J2*%
X110170000Y-84370000D02*
X112830000Y-84370000D01*
X110170000Y-81770000D02*
X110170000Y-84370000D01*
X112830000Y-81770000D02*
X112830000Y-84370000D01*
X110170000Y-81770000D02*
X112830000Y-81770000D01*
X110170000Y-80500000D02*
X110170000Y-79170000D01*
X110170000Y-79170000D02*
X111500000Y-79170000D01*
%TO.C,J3*%
X159670000Y-128370000D02*
X162330000Y-128370000D01*
X159670000Y-125770000D02*
X159670000Y-128370000D01*
X162330000Y-125770000D02*
X162330000Y-128370000D01*
X159670000Y-125770000D02*
X162330000Y-125770000D01*
X159670000Y-124500000D02*
X159670000Y-123170000D01*
X159670000Y-123170000D02*
X161000000Y-123170000D01*
%TO.C,J4*%
X160170000Y-78670000D02*
X161500000Y-78670000D01*
X160170000Y-80000000D02*
X160170000Y-78670000D01*
X160170000Y-81270000D02*
X162830000Y-81270000D01*
X162830000Y-81270000D02*
X162830000Y-83870000D01*
X160170000Y-81270000D02*
X160170000Y-83870000D01*
X160170000Y-83870000D02*
X162830000Y-83870000D01*
D13*
%TO.C,J9*%
X108000000Y-42400000D02*
X107000000Y-42400000D01*
X108000000Y-51600000D02*
X107000000Y-51600000D01*
X100700000Y-42400000D02*
X101200000Y-42400000D01*
X100700000Y-42400000D02*
X100700000Y-42900000D01*
X100700000Y-51600000D02*
X100700000Y-51100000D01*
X100700000Y-51600000D02*
X101200000Y-51600000D01*
X109700000Y-48200000D02*
X109700000Y-45800000D01*
X115300000Y-51600000D02*
X114800000Y-51600000D01*
X115300000Y-51600000D02*
X115300000Y-51100000D01*
X115300000Y-42400000D02*
X114800000Y-42400000D01*
X115300000Y-42400000D02*
X115300000Y-42900000D01*
D12*
%TO.C,L1*%
X138370000Y-40750000D02*
G75*
G03*
X138370000Y-40750000I-3870000J0D01*
G01*
%TO.C,Q1*%
X147755000Y-135549000D02*
X147755000Y-140820000D01*
X144146000Y-135549000D02*
X144146000Y-140820000D01*
X154020000Y-135549000D02*
X154020000Y-140820000D01*
X137880000Y-135549000D02*
X137880000Y-140820000D01*
X137880000Y-140820000D02*
X154020000Y-140820000D01*
X137880000Y-135549000D02*
X154020000Y-135549000D01*
%TO.C,Q2*%
X139380000Y-89049000D02*
X155520000Y-89049000D01*
X139380000Y-94320000D02*
X155520000Y-94320000D01*
X139380000Y-89049000D02*
X139380000Y-94320000D01*
X155520000Y-89049000D02*
X155520000Y-94320000D01*
X145646000Y-89049000D02*
X145646000Y-94320000D01*
X149255000Y-89049000D02*
X149255000Y-94320000D01*
%TO.C,Q7*%
X127755000Y-135549000D02*
X127755000Y-140820000D01*
X124146000Y-135549000D02*
X124146000Y-140820000D01*
X134020000Y-135549000D02*
X134020000Y-140820000D01*
X117880000Y-135549000D02*
X117880000Y-140820000D01*
X117880000Y-140820000D02*
X134020000Y-140820000D01*
X117880000Y-135549000D02*
X134020000Y-135549000D01*
%TO.C,Q8*%
X125755000Y-89049000D02*
X125755000Y-94320000D01*
X122146000Y-89049000D02*
X122146000Y-94320000D01*
X132020000Y-89049000D02*
X132020000Y-94320000D01*
X115880000Y-89049000D02*
X115880000Y-94320000D01*
X115880000Y-94320000D02*
X132020000Y-94320000D01*
X115880000Y-89049000D02*
X132020000Y-89049000D01*
%TO.C,R1*%
X147560000Y-129720000D02*
X147080000Y-129720000D01*
X147080000Y-129720000D02*
X147080000Y-119580000D01*
X147080000Y-119580000D02*
X147560000Y-119580000D01*
X150440000Y-129720000D02*
X150920000Y-129720000D01*
X150920000Y-129720000D02*
X150920000Y-119580000D01*
X150920000Y-119580000D02*
X150440000Y-119580000D01*
%TO.C,R2*%
X150420000Y-74080000D02*
X149940000Y-74080000D01*
X150420000Y-84220000D02*
X150420000Y-74080000D01*
X149940000Y-84220000D02*
X150420000Y-84220000D01*
X146580000Y-74080000D02*
X147060000Y-74080000D01*
X146580000Y-84220000D02*
X146580000Y-74080000D01*
X147060000Y-84220000D02*
X146580000Y-84220000D01*
%TO.C,R3*%
X141580000Y-129920000D02*
X142060000Y-129920000D01*
X141580000Y-119780000D02*
X141580000Y-129920000D01*
X142060000Y-119780000D02*
X141580000Y-119780000D01*
X145420000Y-129920000D02*
X144940000Y-129920000D01*
X145420000Y-119780000D02*
X145420000Y-129920000D01*
X144940000Y-119780000D02*
X145420000Y-119780000D01*
%TO.C,R4*%
X143940000Y-73780000D02*
X144420000Y-73780000D01*
X144420000Y-73780000D02*
X144420000Y-83920000D01*
X144420000Y-83920000D02*
X143940000Y-83920000D01*
X141060000Y-73780000D02*
X140580000Y-73780000D01*
X140580000Y-73780000D02*
X140580000Y-83920000D01*
X140580000Y-83920000D02*
X141060000Y-83920000D01*
%TO.C,R5*%
X110580000Y-114420000D02*
X111060000Y-114420000D01*
X110580000Y-104280000D02*
X110580000Y-114420000D01*
X111060000Y-104280000D02*
X110580000Y-104280000D01*
X114420000Y-114420000D02*
X113940000Y-114420000D01*
X114420000Y-104280000D02*
X114420000Y-114420000D01*
X113940000Y-104280000D02*
X114420000Y-104280000D01*
%TO.C,R6*%
X111940000Y-57780000D02*
X112420000Y-57780000D01*
X112420000Y-57780000D02*
X112420000Y-67920000D01*
X112420000Y-67920000D02*
X111940000Y-67920000D01*
X109060000Y-57780000D02*
X108580000Y-57780000D01*
X108580000Y-57780000D02*
X108580000Y-67920000D01*
X108580000Y-67920000D02*
X109060000Y-67920000D01*
%TO.C,R7*%
X130920000Y-119080000D02*
X130440000Y-119080000D01*
X130920000Y-129220000D02*
X130920000Y-119080000D01*
X130440000Y-129220000D02*
X130920000Y-129220000D01*
X127080000Y-119080000D02*
X127560000Y-119080000D01*
X127080000Y-129220000D02*
X127080000Y-119080000D01*
X127560000Y-129220000D02*
X127080000Y-129220000D01*
%TO.C,R8*%
X123560000Y-83720000D02*
X123080000Y-83720000D01*
X123080000Y-83720000D02*
X123080000Y-73580000D01*
X123080000Y-73580000D02*
X123560000Y-73580000D01*
X126440000Y-83720000D02*
X126920000Y-83720000D01*
X126920000Y-83720000D02*
X126920000Y-73580000D01*
X126920000Y-73580000D02*
X126440000Y-73580000D01*
%TO.C,R9*%
X128780000Y-97560000D02*
X128780000Y-97080000D01*
X128780000Y-97080000D02*
X138920000Y-97080000D01*
X138920000Y-97080000D02*
X138920000Y-97560000D01*
X128780000Y-100440000D02*
X128780000Y-100920000D01*
X128780000Y-100920000D02*
X138920000Y-100920000D01*
X138920000Y-100920000D02*
X138920000Y-100440000D01*
%TO.C,R10*%
X139420000Y-59420000D02*
X139420000Y-58940000D01*
X129280000Y-59420000D02*
X139420000Y-59420000D01*
X129280000Y-58940000D02*
X129280000Y-59420000D01*
X139420000Y-55580000D02*
X139420000Y-56060000D01*
X129280000Y-55580000D02*
X139420000Y-55580000D01*
X129280000Y-56060000D02*
X129280000Y-55580000D01*
%TO.C,R11*%
X121560000Y-129220000D02*
X121080000Y-129220000D01*
X121080000Y-129220000D02*
X121080000Y-119080000D01*
X121080000Y-119080000D02*
X121560000Y-119080000D01*
X124440000Y-129220000D02*
X124920000Y-129220000D01*
X124920000Y-129220000D02*
X124920000Y-119080000D01*
X124920000Y-119080000D02*
X124440000Y-119080000D01*
%TO.C,R12*%
X121420000Y-73580000D02*
X120940000Y-73580000D01*
X121420000Y-83720000D02*
X121420000Y-73580000D01*
X120940000Y-83720000D02*
X121420000Y-83720000D01*
X117580000Y-73580000D02*
X118060000Y-73580000D01*
X117580000Y-83720000D02*
X117580000Y-73580000D01*
X118060000Y-83720000D02*
X117580000Y-83720000D01*
%TO.C,R13*%
X156420000Y-100920000D02*
X156420000Y-100440000D01*
X146280000Y-100920000D02*
X156420000Y-100920000D01*
X146280000Y-100440000D02*
X146280000Y-100920000D01*
X156420000Y-97080000D02*
X156420000Y-97560000D01*
X146280000Y-97080000D02*
X156420000Y-97080000D01*
X146280000Y-97560000D02*
X146280000Y-97080000D01*
%TO.C,R14*%
X146780000Y-56060000D02*
X146780000Y-55580000D01*
X146780000Y-55580000D02*
X156920000Y-55580000D01*
X156920000Y-55580000D02*
X156920000Y-56060000D01*
X146780000Y-58940000D02*
X146780000Y-59420000D01*
X146780000Y-59420000D02*
X156920000Y-59420000D01*
X156920000Y-59420000D02*
X156920000Y-58940000D01*
%TO.C,U1*%
X134810000Y-103670000D02*
X133560000Y-103670000D01*
X133560000Y-103670000D02*
X133560000Y-113950000D01*
X133560000Y-113950000D02*
X138060000Y-113950000D01*
X138060000Y-113950000D02*
X138060000Y-103670000D01*
X138060000Y-103670000D02*
X136810000Y-103670000D01*
X136810000Y-103670000D02*
G75*
G02*
X134810000Y-103670000I-1000000J0D01*
G01*
%TO.C,U2*%
X132810000Y-61170000D02*
X131560000Y-61170000D01*
X131560000Y-61170000D02*
X131560000Y-71450000D01*
X131560000Y-71450000D02*
X136060000Y-71450000D01*
X136060000Y-71450000D02*
X136060000Y-61170000D01*
X136060000Y-61170000D02*
X134810000Y-61170000D01*
X134810000Y-61170000D02*
G75*
G02*
X132810000Y-61170000I-1000000J0D01*
G01*
%TO.C,Q3*%
X127700000Y-110400000D02*
X127700000Y-106550000D01*
X127122045Y-110782631D02*
G75*
G03*
X127700000Y-110400000I-1122045J2322631D01*
G01*
X124901193Y-110816400D02*
G75*
G02*
X123400000Y-108460000I1098807J2356400D01*
G01*
X124901193Y-106103600D02*
G75*
G03*
X123400000Y-108460000I1098807J-2356400D01*
G01*
X127112264Y-106157617D02*
G75*
G02*
X127700000Y-106550000I-1112264J-2302383D01*
G01*
%TO.C,Q4*%
X124700000Y-67900000D02*
X124700000Y-64050000D01*
X124112264Y-63657617D02*
G75*
G02*
X124700000Y-64050000I-1112264J-2302383D01*
G01*
X121901193Y-63603600D02*
G75*
G03*
X120400000Y-65960000I1098807J-2356400D01*
G01*
X121901193Y-68316400D02*
G75*
G02*
X120400000Y-65960000I1098807J2356400D01*
G01*
X124122045Y-68282631D02*
G75*
G03*
X124700000Y-67900000I-1122045J2322631D01*
G01*
%TO.C,Q5*%
X134800000Y-119600000D02*
X134800000Y-123450000D01*
X135387736Y-123842383D02*
G75*
G02*
X134800000Y-123450000I1112264J2302383D01*
G01*
X137598807Y-123896400D02*
G75*
G03*
X139100000Y-121540000I-1098807J2356400D01*
G01*
X137598807Y-119183600D02*
G75*
G02*
X139100000Y-121540000I-1098807J-2356400D01*
G01*
X135377955Y-119217369D02*
G75*
G03*
X134800000Y-119600000I1122045J-2322631D01*
G01*
%TO.C,Q6*%
X131800000Y-77100000D02*
X131800000Y-80950000D01*
X132387736Y-81342383D02*
G75*
G02*
X131800000Y-80950000I1112264J2302383D01*
G01*
X134598807Y-81396400D02*
G75*
G03*
X136100000Y-79040000I-1098807J2356400D01*
G01*
X134598807Y-76683600D02*
G75*
G02*
X136100000Y-79040000I-1098807J-2356400D01*
G01*
X132377955Y-76717369D02*
G75*
G03*
X131800000Y-77100000I1122045J-2322631D01*
G01*
%TO.C,R15*%
X153580000Y-45080000D02*
X153580000Y-45560000D01*
X163720000Y-45080000D02*
X153580000Y-45080000D01*
X163720000Y-45560000D02*
X163720000Y-45080000D01*
X153580000Y-48920000D02*
X153580000Y-48440000D01*
X163720000Y-48920000D02*
X153580000Y-48920000D01*
X163720000Y-48440000D02*
X163720000Y-48920000D01*
%TO.C,R16*%
X153280000Y-50060000D02*
X153280000Y-49580000D01*
X153280000Y-49580000D02*
X163420000Y-49580000D01*
X163420000Y-49580000D02*
X163420000Y-50060000D01*
X153280000Y-52940000D02*
X153280000Y-53420000D01*
X153280000Y-53420000D02*
X163420000Y-53420000D01*
X163420000Y-53420000D02*
X163420000Y-52940000D01*
%TO.C,U5*%
X118279000Y-32680000D02*
X128520000Y-32680000D01*
X118279000Y-37321000D02*
X120635000Y-37321000D01*
X122765000Y-37321000D02*
X124035000Y-37321000D01*
X126165000Y-37321000D02*
X128520000Y-37321000D01*
X118279000Y-32680000D02*
X118279000Y-37321000D01*
X128520000Y-32680000D02*
X128520000Y-37321000D01*
X118279000Y-34189000D02*
X128520000Y-34189000D01*
X121550000Y-32680000D02*
X121550000Y-34189000D01*
X125250000Y-32680000D02*
X125250000Y-34189000D01*
X120000000Y-37321000D02*
X120000000Y-39951000D01*
X123400000Y-37321000D02*
X123400000Y-39935000D01*
X126800000Y-37321000D02*
X126800000Y-39935000D01*
%TO.C,H3*%
D10*
X161238095Y-33752380D02*
X161238095Y-32752380D01*
X161238095Y-33228571D02*
X161809523Y-33228571D01*
X161809523Y-33752380D02*
X161809523Y-32752380D01*
X162190476Y-32752380D02*
X162809523Y-32752380D01*
X162476190Y-33133333D01*
X162619047Y-33133333D01*
X162714285Y-33180952D01*
X162761904Y-33228571D01*
X162809523Y-33323809D01*
X162809523Y-33561904D01*
X162761904Y-33657142D01*
X162714285Y-33704761D01*
X162619047Y-33752380D01*
X162333333Y-33752380D01*
X162238095Y-33704761D01*
X162190476Y-33657142D01*
%TO.C,D4*%
X119922380Y-66238095D02*
X118922380Y-66238095D01*
X118922380Y-66000000D01*
X118970000Y-65857142D01*
X119065238Y-65761904D01*
X119160476Y-65714285D01*
X119350952Y-65666666D01*
X119493809Y-65666666D01*
X119684285Y-65714285D01*
X119779523Y-65761904D01*
X119874761Y-65857142D01*
X119922380Y-66000000D01*
X119922380Y-66238095D01*
X119255714Y-64809523D02*
X119922380Y-64809523D01*
X118874761Y-65047619D02*
X119589047Y-65285714D01*
X119589047Y-64666666D01*
X119952380Y-63142857D02*
X119952380Y-63714285D01*
X119952380Y-63428571D02*
X118952380Y-63428571D01*
X119095238Y-63523809D01*
X119190476Y-63619047D01*
X119238095Y-63714285D01*
X119952380Y-62714285D02*
X118952380Y-62714285D01*
X119952380Y-62142857D01*
X118952380Y-62142857D01*
X119285714Y-61238095D02*
X119952380Y-61238095D01*
X118904761Y-61476190D02*
X119619047Y-61714285D01*
X119619047Y-61095238D01*
X118952380Y-60523809D02*
X118952380Y-60428571D01*
X119000000Y-60333333D01*
X119047619Y-60285714D01*
X119142857Y-60238095D01*
X119333333Y-60190476D01*
X119571428Y-60190476D01*
X119761904Y-60238095D01*
X119857142Y-60285714D01*
X119904761Y-60333333D01*
X119952380Y-60428571D01*
X119952380Y-60523809D01*
X119904761Y-60619047D01*
X119857142Y-60666666D01*
X119761904Y-60714285D01*
X119571428Y-60761904D01*
X119333333Y-60761904D01*
X119142857Y-60714285D01*
X119047619Y-60666666D01*
X119000000Y-60619047D01*
X118952380Y-60523809D01*
X118952380Y-59571428D02*
X118952380Y-59476190D01*
X119000000Y-59380952D01*
X119047619Y-59333333D01*
X119142857Y-59285714D01*
X119333333Y-59238095D01*
X119571428Y-59238095D01*
X119761904Y-59285714D01*
X119857142Y-59333333D01*
X119904761Y-59380952D01*
X119952380Y-59476190D01*
X119952380Y-59571428D01*
X119904761Y-59666666D01*
X119857142Y-59714285D01*
X119761904Y-59761904D01*
X119571428Y-59809523D01*
X119333333Y-59809523D01*
X119142857Y-59761904D01*
X119047619Y-59714285D01*
X119000000Y-59666666D01*
X118952380Y-59571428D01*
X118952380Y-58333333D02*
X118952380Y-58809523D01*
X119428571Y-58857142D01*
X119380952Y-58809523D01*
X119333333Y-58714285D01*
X119333333Y-58476190D01*
X119380952Y-58380952D01*
X119428571Y-58333333D01*
X119523809Y-58285714D01*
X119761904Y-58285714D01*
X119857142Y-58333333D01*
X119904761Y-58380952D01*
X119952380Y-58476190D01*
X119952380Y-58714285D01*
X119904761Y-58809523D01*
X119857142Y-58857142D01*
X119552380Y-57261904D02*
X118552380Y-57261904D01*
X119552380Y-56690476D02*
X118980952Y-57119047D01*
X118552380Y-56690476D02*
X119123809Y-57261904D01*
%TO.C,C1*%
X120357142Y-117666666D02*
X120404761Y-117714285D01*
X120452380Y-117857142D01*
X120452380Y-117952380D01*
X120404761Y-118095238D01*
X120309523Y-118190476D01*
X120214285Y-118238095D01*
X120023809Y-118285714D01*
X119880952Y-118285714D01*
X119690476Y-118238095D01*
X119595238Y-118190476D01*
X119500000Y-118095238D01*
X119452380Y-117952380D01*
X119452380Y-117857142D01*
X119500000Y-117714285D01*
X119547619Y-117666666D01*
X120452380Y-116714285D02*
X120452380Y-117285714D01*
X120452380Y-117000000D02*
X119452380Y-117000000D01*
X119595238Y-117095238D01*
X119690476Y-117190476D01*
X119738095Y-117285714D01*
X114102380Y-121642857D02*
X114102380Y-121833333D01*
X114150000Y-121928571D01*
X114197619Y-121976190D01*
X114340476Y-122071428D01*
X114530952Y-122119047D01*
X114911904Y-122119047D01*
X115007142Y-122071428D01*
X115054761Y-122023809D01*
X115102380Y-121928571D01*
X115102380Y-121738095D01*
X115054761Y-121642857D01*
X115007142Y-121595238D01*
X114911904Y-121547619D01*
X114673809Y-121547619D01*
X114578571Y-121595238D01*
X114530952Y-121642857D01*
X114483333Y-121738095D01*
X114483333Y-121928571D01*
X114530952Y-122023809D01*
X114578571Y-122071428D01*
X114673809Y-122119047D01*
X114530952Y-120976190D02*
X114483333Y-121071428D01*
X114435714Y-121119047D01*
X114340476Y-121166666D01*
X114292857Y-121166666D01*
X114197619Y-121119047D01*
X114150000Y-121071428D01*
X114102380Y-120976190D01*
X114102380Y-120785714D01*
X114150000Y-120690476D01*
X114197619Y-120642857D01*
X114292857Y-120595238D01*
X114340476Y-120595238D01*
X114435714Y-120642857D01*
X114483333Y-120690476D01*
X114530952Y-120785714D01*
X114530952Y-120976190D01*
X114578571Y-121071428D01*
X114626190Y-121119047D01*
X114721428Y-121166666D01*
X114911904Y-121166666D01*
X115007142Y-121119047D01*
X115054761Y-121071428D01*
X115102380Y-120976190D01*
X115102380Y-120785714D01*
X115054761Y-120690476D01*
X115007142Y-120642857D01*
X114911904Y-120595238D01*
X114721428Y-120595238D01*
X114626190Y-120642857D01*
X114578571Y-120690476D01*
X114530952Y-120785714D01*
X114102380Y-119976190D02*
X114102380Y-119880952D01*
X114150000Y-119785714D01*
X114197619Y-119738095D01*
X114292857Y-119690476D01*
X114483333Y-119642857D01*
X114721428Y-119642857D01*
X114911904Y-119690476D01*
X115007142Y-119738095D01*
X115054761Y-119785714D01*
X115102380Y-119880952D01*
X115102380Y-119976190D01*
X115054761Y-120071428D01*
X115007142Y-120119047D01*
X114911904Y-120166666D01*
X114721428Y-120214285D01*
X114483333Y-120214285D01*
X114292857Y-120166666D01*
X114197619Y-120119047D01*
X114150000Y-120071428D01*
X114102380Y-119976190D01*
X114435714Y-119214285D02*
X115435714Y-119214285D01*
X114483333Y-119214285D02*
X114435714Y-119119047D01*
X114435714Y-118928571D01*
X114483333Y-118833333D01*
X114530952Y-118785714D01*
X114626190Y-118738095D01*
X114911904Y-118738095D01*
X115007142Y-118785714D01*
X115054761Y-118833333D01*
X115102380Y-118928571D01*
X115102380Y-119119047D01*
X115054761Y-119214285D01*
X114578571Y-117976190D02*
X114578571Y-118309523D01*
X115102380Y-118309523D02*
X114102380Y-118309523D01*
X114102380Y-117833333D01*
%TO.C,C2*%
X109333333Y-72357142D02*
X109285714Y-72404761D01*
X109142857Y-72452380D01*
X109047619Y-72452380D01*
X108904761Y-72404761D01*
X108809523Y-72309523D01*
X108761904Y-72214285D01*
X108714285Y-72023809D01*
X108714285Y-71880952D01*
X108761904Y-71690476D01*
X108809523Y-71595238D01*
X108904761Y-71500000D01*
X109047619Y-71452380D01*
X109142857Y-71452380D01*
X109285714Y-71500000D01*
X109333333Y-71547619D01*
X109714285Y-71547619D02*
X109761904Y-71500000D01*
X109857142Y-71452380D01*
X110095238Y-71452380D01*
X110190476Y-71500000D01*
X110238095Y-71547619D01*
X110285714Y-71642857D01*
X110285714Y-71738095D01*
X110238095Y-71880952D01*
X109666666Y-72452380D01*
X110285714Y-72452380D01*
X112357142Y-71452380D02*
X112166666Y-71452380D01*
X112071428Y-71500000D01*
X112023809Y-71547619D01*
X111928571Y-71690476D01*
X111880952Y-71880952D01*
X111880952Y-72261904D01*
X111928571Y-72357142D01*
X111976190Y-72404761D01*
X112071428Y-72452380D01*
X112261904Y-72452380D01*
X112357142Y-72404761D01*
X112404761Y-72357142D01*
X112452380Y-72261904D01*
X112452380Y-72023809D01*
X112404761Y-71928571D01*
X112357142Y-71880952D01*
X112261904Y-71833333D01*
X112071428Y-71833333D01*
X111976190Y-71880952D01*
X111928571Y-71928571D01*
X111880952Y-72023809D01*
X113023809Y-71880952D02*
X112928571Y-71833333D01*
X112880952Y-71785714D01*
X112833333Y-71690476D01*
X112833333Y-71642857D01*
X112880952Y-71547619D01*
X112928571Y-71500000D01*
X113023809Y-71452380D01*
X113214285Y-71452380D01*
X113309523Y-71500000D01*
X113357142Y-71547619D01*
X113404761Y-71642857D01*
X113404761Y-71690476D01*
X113357142Y-71785714D01*
X113309523Y-71833333D01*
X113214285Y-71880952D01*
X113023809Y-71880952D01*
X112928571Y-71928571D01*
X112880952Y-71976190D01*
X112833333Y-72071428D01*
X112833333Y-72261904D01*
X112880952Y-72357142D01*
X112928571Y-72404761D01*
X113023809Y-72452380D01*
X113214285Y-72452380D01*
X113309523Y-72404761D01*
X113357142Y-72357142D01*
X113404761Y-72261904D01*
X113404761Y-72071428D01*
X113357142Y-71976190D01*
X113309523Y-71928571D01*
X113214285Y-71880952D01*
X114023809Y-71452380D02*
X114119047Y-71452380D01*
X114214285Y-71500000D01*
X114261904Y-71547619D01*
X114309523Y-71642857D01*
X114357142Y-71833333D01*
X114357142Y-72071428D01*
X114309523Y-72261904D01*
X114261904Y-72357142D01*
X114214285Y-72404761D01*
X114119047Y-72452380D01*
X114023809Y-72452380D01*
X113928571Y-72404761D01*
X113880952Y-72357142D01*
X113833333Y-72261904D01*
X113785714Y-72071428D01*
X113785714Y-71833333D01*
X113833333Y-71642857D01*
X113880952Y-71547619D01*
X113928571Y-71500000D01*
X114023809Y-71452380D01*
X114785714Y-71785714D02*
X114785714Y-72785714D01*
X114785714Y-71833333D02*
X114880952Y-71785714D01*
X115071428Y-71785714D01*
X115166666Y-71833333D01*
X115214285Y-71880952D01*
X115261904Y-71976190D01*
X115261904Y-72261904D01*
X115214285Y-72357142D01*
X115166666Y-72404761D01*
X115071428Y-72452380D01*
X114880952Y-72452380D01*
X114785714Y-72404761D01*
X116023809Y-71928571D02*
X115690476Y-71928571D01*
X115690476Y-72452380D02*
X115690476Y-71452380D01*
X116166666Y-71452380D01*
%TO.C,C3*%
X144333333Y-115707142D02*
X144285714Y-115754761D01*
X144142857Y-115802380D01*
X144047619Y-115802380D01*
X143904761Y-115754761D01*
X143809523Y-115659523D01*
X143761904Y-115564285D01*
X143714285Y-115373809D01*
X143714285Y-115230952D01*
X143761904Y-115040476D01*
X143809523Y-114945238D01*
X143904761Y-114850000D01*
X144047619Y-114802380D01*
X144142857Y-114802380D01*
X144285714Y-114850000D01*
X144333333Y-114897619D01*
X144666666Y-114802380D02*
X145285714Y-114802380D01*
X144952380Y-115183333D01*
X145095238Y-115183333D01*
X145190476Y-115230952D01*
X145238095Y-115278571D01*
X145285714Y-115373809D01*
X145285714Y-115611904D01*
X145238095Y-115707142D01*
X145190476Y-115754761D01*
X145095238Y-115802380D01*
X144809523Y-115802380D01*
X144714285Y-115754761D01*
X144666666Y-115707142D01*
X148428571Y-115452380D02*
X147857142Y-115452380D01*
X148142857Y-115452380D02*
X148142857Y-114452380D01*
X148047619Y-114595238D01*
X147952380Y-114690476D01*
X147857142Y-114738095D01*
X149047619Y-114452380D02*
X149142857Y-114452380D01*
X149238095Y-114500000D01*
X149285714Y-114547619D01*
X149333333Y-114642857D01*
X149380952Y-114833333D01*
X149380952Y-115071428D01*
X149333333Y-115261904D01*
X149285714Y-115357142D01*
X149238095Y-115404761D01*
X149142857Y-115452380D01*
X149047619Y-115452380D01*
X148952380Y-115404761D01*
X148904761Y-115357142D01*
X148857142Y-115261904D01*
X148809523Y-115071428D01*
X148809523Y-114833333D01*
X148857142Y-114642857D01*
X148904761Y-114547619D01*
X148952380Y-114500000D01*
X149047619Y-114452380D01*
X149809523Y-114785714D02*
X149809523Y-115452380D01*
X149809523Y-114880952D02*
X149857142Y-114833333D01*
X149952380Y-114785714D01*
X150095238Y-114785714D01*
X150190476Y-114833333D01*
X150238095Y-114928571D01*
X150238095Y-115452380D01*
X151047619Y-114928571D02*
X150714285Y-114928571D01*
X150714285Y-115452380D02*
X150714285Y-114452380D01*
X151190476Y-114452380D01*
%TO.C,C4*%
X145833333Y-70857142D02*
X145785714Y-70904761D01*
X145642857Y-70952380D01*
X145547619Y-70952380D01*
X145404761Y-70904761D01*
X145309523Y-70809523D01*
X145261904Y-70714285D01*
X145214285Y-70523809D01*
X145214285Y-70380952D01*
X145261904Y-70190476D01*
X145309523Y-70095238D01*
X145404761Y-70000000D01*
X145547619Y-69952380D01*
X145642857Y-69952380D01*
X145785714Y-70000000D01*
X145833333Y-70047619D01*
X146690476Y-70285714D02*
X146690476Y-70952380D01*
X146452380Y-69904761D02*
X146214285Y-70619047D01*
X146833333Y-70619047D01*
X149928571Y-70952380D02*
X149357142Y-70952380D01*
X149642857Y-70952380D02*
X149642857Y-69952380D01*
X149547619Y-70095238D01*
X149452380Y-70190476D01*
X149357142Y-70238095D01*
X150547619Y-69952380D02*
X150642857Y-69952380D01*
X150738095Y-70000000D01*
X150785714Y-70047619D01*
X150833333Y-70142857D01*
X150880952Y-70333333D01*
X150880952Y-70571428D01*
X150833333Y-70761904D01*
X150785714Y-70857142D01*
X150738095Y-70904761D01*
X150642857Y-70952380D01*
X150547619Y-70952380D01*
X150452380Y-70904761D01*
X150404761Y-70857142D01*
X150357142Y-70761904D01*
X150309523Y-70571428D01*
X150309523Y-70333333D01*
X150357142Y-70142857D01*
X150404761Y-70047619D01*
X150452380Y-70000000D01*
X150547619Y-69952380D01*
X151309523Y-70285714D02*
X151309523Y-70952380D01*
X151309523Y-70380952D02*
X151357142Y-70333333D01*
X151452380Y-70285714D01*
X151595238Y-70285714D01*
X151690476Y-70333333D01*
X151738095Y-70428571D01*
X151738095Y-70952380D01*
X152547619Y-70428571D02*
X152214285Y-70428571D01*
X152214285Y-70952380D02*
X152214285Y-69952380D01*
X152690476Y-69952380D01*
%TO.C,C5*%
X144333333Y-105007142D02*
X144285714Y-105054761D01*
X144142857Y-105102380D01*
X144047619Y-105102380D01*
X143904761Y-105054761D01*
X143809523Y-104959523D01*
X143761904Y-104864285D01*
X143714285Y-104673809D01*
X143714285Y-104530952D01*
X143761904Y-104340476D01*
X143809523Y-104245238D01*
X143904761Y-104150000D01*
X144047619Y-104102380D01*
X144142857Y-104102380D01*
X144285714Y-104150000D01*
X144333333Y-104197619D01*
X145238095Y-104102380D02*
X144761904Y-104102380D01*
X144714285Y-104578571D01*
X144761904Y-104530952D01*
X144857142Y-104483333D01*
X145095238Y-104483333D01*
X145190476Y-104530952D01*
X145238095Y-104578571D01*
X145285714Y-104673809D01*
X145285714Y-104911904D01*
X145238095Y-105007142D01*
X145190476Y-105054761D01*
X145095238Y-105102380D01*
X144857142Y-105102380D01*
X144761904Y-105054761D01*
X144714285Y-105007142D01*
X148357142Y-105452380D02*
X147785714Y-105452380D01*
X148071428Y-105452380D02*
X148071428Y-104452380D01*
X147976190Y-104595238D01*
X147880952Y-104690476D01*
X147785714Y-104738095D01*
X148976190Y-104452380D02*
X149071428Y-104452380D01*
X149166666Y-104500000D01*
X149214285Y-104547619D01*
X149261904Y-104642857D01*
X149309523Y-104833333D01*
X149309523Y-105071428D01*
X149261904Y-105261904D01*
X149214285Y-105357142D01*
X149166666Y-105404761D01*
X149071428Y-105452380D01*
X148976190Y-105452380D01*
X148880952Y-105404761D01*
X148833333Y-105357142D01*
X148785714Y-105261904D01*
X148738095Y-105071428D01*
X148738095Y-104833333D01*
X148785714Y-104642857D01*
X148833333Y-104547619D01*
X148880952Y-104500000D01*
X148976190Y-104452380D01*
X149738095Y-104785714D02*
X149738095Y-105785714D01*
X150214285Y-105309523D02*
X150261904Y-105404761D01*
X150357142Y-105452380D01*
X149738095Y-105309523D02*
X149785714Y-105404761D01*
X149880952Y-105452380D01*
X150071428Y-105452380D01*
X150166666Y-105404761D01*
X150214285Y-105309523D01*
X150214285Y-104785714D01*
X151119047Y-104928571D02*
X150785714Y-104928571D01*
X150785714Y-105452380D02*
X150785714Y-104452380D01*
X151261904Y-104452380D01*
%TO.C,C6*%
X144833333Y-60657142D02*
X144785714Y-60704761D01*
X144642857Y-60752380D01*
X144547619Y-60752380D01*
X144404761Y-60704761D01*
X144309523Y-60609523D01*
X144261904Y-60514285D01*
X144214285Y-60323809D01*
X144214285Y-60180952D01*
X144261904Y-59990476D01*
X144309523Y-59895238D01*
X144404761Y-59800000D01*
X144547619Y-59752380D01*
X144642857Y-59752380D01*
X144785714Y-59800000D01*
X144833333Y-59847619D01*
X145690476Y-59752380D02*
X145500000Y-59752380D01*
X145404761Y-59800000D01*
X145357142Y-59847619D01*
X145261904Y-59990476D01*
X145214285Y-60180952D01*
X145214285Y-60561904D01*
X145261904Y-60657142D01*
X145309523Y-60704761D01*
X145404761Y-60752380D01*
X145595238Y-60752380D01*
X145690476Y-60704761D01*
X145738095Y-60657142D01*
X145785714Y-60561904D01*
X145785714Y-60323809D01*
X145738095Y-60228571D01*
X145690476Y-60180952D01*
X145595238Y-60133333D01*
X145404761Y-60133333D01*
X145309523Y-60180952D01*
X145261904Y-60228571D01*
X145214285Y-60323809D01*
X149657142Y-60752380D02*
X149085714Y-60752380D01*
X149371428Y-60752380D02*
X149371428Y-59752380D01*
X149276190Y-59895238D01*
X149180952Y-59990476D01*
X149085714Y-60038095D01*
X150276190Y-59752380D02*
X150371428Y-59752380D01*
X150466666Y-59800000D01*
X150514285Y-59847619D01*
X150561904Y-59942857D01*
X150609523Y-60133333D01*
X150609523Y-60371428D01*
X150561904Y-60561904D01*
X150514285Y-60657142D01*
X150466666Y-60704761D01*
X150371428Y-60752380D01*
X150276190Y-60752380D01*
X150180952Y-60704761D01*
X150133333Y-60657142D01*
X150085714Y-60561904D01*
X150038095Y-60371428D01*
X150038095Y-60133333D01*
X150085714Y-59942857D01*
X150133333Y-59847619D01*
X150180952Y-59800000D01*
X150276190Y-59752380D01*
X151038095Y-60085714D02*
X151038095Y-61085714D01*
X151514285Y-60609523D02*
X151561904Y-60704761D01*
X151657142Y-60752380D01*
X151038095Y-60609523D02*
X151085714Y-60704761D01*
X151180952Y-60752380D01*
X151371428Y-60752380D01*
X151466666Y-60704761D01*
X151514285Y-60609523D01*
X151514285Y-60085714D01*
X152419047Y-60228571D02*
X152085714Y-60228571D01*
X152085714Y-60752380D02*
X152085714Y-59752380D01*
X152561904Y-59752380D01*
%TO.C,C11*%
X130607142Y-49642857D02*
X130654761Y-49690476D01*
X130702380Y-49833333D01*
X130702380Y-49928571D01*
X130654761Y-50071428D01*
X130559523Y-50166666D01*
X130464285Y-50214285D01*
X130273809Y-50261904D01*
X130130952Y-50261904D01*
X129940476Y-50214285D01*
X129845238Y-50166666D01*
X129750000Y-50071428D01*
X129702380Y-49928571D01*
X129702380Y-49833333D01*
X129750000Y-49690476D01*
X129797619Y-49642857D01*
X130702380Y-48690476D02*
X130702380Y-49261904D01*
X130702380Y-48976190D02*
X129702380Y-48976190D01*
X129845238Y-49071428D01*
X129940476Y-49166666D01*
X129988095Y-49261904D01*
X130702380Y-47738095D02*
X130702380Y-48309523D01*
X130702380Y-48023809D02*
X129702380Y-48023809D01*
X129845238Y-48119047D01*
X129940476Y-48214285D01*
X129988095Y-48309523D01*
X117202380Y-50714285D02*
X117202380Y-50904761D01*
X117250000Y-51000000D01*
X117297619Y-51047619D01*
X117440476Y-51142857D01*
X117630952Y-51190476D01*
X118011904Y-51190476D01*
X118107142Y-51142857D01*
X118154761Y-51095238D01*
X118202380Y-51000000D01*
X118202380Y-50809523D01*
X118154761Y-50714285D01*
X118107142Y-50666666D01*
X118011904Y-50619047D01*
X117773809Y-50619047D01*
X117678571Y-50666666D01*
X117630952Y-50714285D01*
X117583333Y-50809523D01*
X117583333Y-51000000D01*
X117630952Y-51095238D01*
X117678571Y-51142857D01*
X117773809Y-51190476D01*
X117630952Y-50047619D02*
X117583333Y-50142857D01*
X117535714Y-50190476D01*
X117440476Y-50238095D01*
X117392857Y-50238095D01*
X117297619Y-50190476D01*
X117250000Y-50142857D01*
X117202380Y-50047619D01*
X117202380Y-49857142D01*
X117250000Y-49761904D01*
X117297619Y-49714285D01*
X117392857Y-49666666D01*
X117440476Y-49666666D01*
X117535714Y-49714285D01*
X117583333Y-49761904D01*
X117630952Y-49857142D01*
X117630952Y-50047619D01*
X117678571Y-50142857D01*
X117726190Y-50190476D01*
X117821428Y-50238095D01*
X118011904Y-50238095D01*
X118107142Y-50190476D01*
X118154761Y-50142857D01*
X118202380Y-50047619D01*
X118202380Y-49857142D01*
X118154761Y-49761904D01*
X118107142Y-49714285D01*
X118011904Y-49666666D01*
X117821428Y-49666666D01*
X117726190Y-49714285D01*
X117678571Y-49761904D01*
X117630952Y-49857142D01*
X117202380Y-49047619D02*
X117202380Y-48952380D01*
X117250000Y-48857142D01*
X117297619Y-48809523D01*
X117392857Y-48761904D01*
X117583333Y-48714285D01*
X117821428Y-48714285D01*
X118011904Y-48761904D01*
X118107142Y-48809523D01*
X118154761Y-48857142D01*
X118202380Y-48952380D01*
X118202380Y-49047619D01*
X118154761Y-49142857D01*
X118107142Y-49190476D01*
X118011904Y-49238095D01*
X117821428Y-49285714D01*
X117583333Y-49285714D01*
X117392857Y-49238095D01*
X117297619Y-49190476D01*
X117250000Y-49142857D01*
X117202380Y-49047619D01*
X117535714Y-48285714D02*
X118535714Y-48285714D01*
X118059523Y-47809523D02*
X118154761Y-47761904D01*
X118202380Y-47666666D01*
X118059523Y-48285714D02*
X118154761Y-48238095D01*
X118202380Y-48142857D01*
X118202380Y-47952380D01*
X118154761Y-47857142D01*
X118059523Y-47809523D01*
X117535714Y-47809523D01*
X117678571Y-46904761D02*
X117678571Y-47238095D01*
X118202380Y-47238095D02*
X117202380Y-47238095D01*
X117202380Y-46761904D01*
%TO.C,C15*%
X144857142Y-32607142D02*
X144809523Y-32654761D01*
X144666666Y-32702380D01*
X144571428Y-32702380D01*
X144428571Y-32654761D01*
X144333333Y-32559523D01*
X144285714Y-32464285D01*
X144238095Y-32273809D01*
X144238095Y-32130952D01*
X144285714Y-31940476D01*
X144333333Y-31845238D01*
X144428571Y-31750000D01*
X144571428Y-31702380D01*
X144666666Y-31702380D01*
X144809523Y-31750000D01*
X144857142Y-31797619D01*
X145809523Y-32702380D02*
X145238095Y-32702380D01*
X145523809Y-32702380D02*
X145523809Y-31702380D01*
X145428571Y-31845238D01*
X145333333Y-31940476D01*
X145238095Y-31988095D01*
X146714285Y-31702380D02*
X146238095Y-31702380D01*
X146190476Y-32178571D01*
X146238095Y-32130952D01*
X146333333Y-32083333D01*
X146571428Y-32083333D01*
X146666666Y-32130952D01*
X146714285Y-32178571D01*
X146761904Y-32273809D01*
X146761904Y-32511904D01*
X146714285Y-32607142D01*
X146666666Y-32654761D01*
X146571428Y-32702380D01*
X146333333Y-32702380D01*
X146238095Y-32654761D01*
X146190476Y-32607142D01*
X143309523Y-44297619D02*
X143357142Y-44250000D01*
X143452380Y-44202380D01*
X143690476Y-44202380D01*
X143785714Y-44250000D01*
X143833333Y-44297619D01*
X143880952Y-44392857D01*
X143880952Y-44488095D01*
X143833333Y-44630952D01*
X143261904Y-45202380D01*
X143880952Y-45202380D01*
X144261904Y-44297619D02*
X144309523Y-44250000D01*
X144404761Y-44202380D01*
X144642857Y-44202380D01*
X144738095Y-44250000D01*
X144785714Y-44297619D01*
X144833333Y-44392857D01*
X144833333Y-44488095D01*
X144785714Y-44630952D01*
X144214285Y-45202380D01*
X144833333Y-45202380D01*
X145452380Y-44202380D02*
X145547619Y-44202380D01*
X145642857Y-44250000D01*
X145690476Y-44297619D01*
X145738095Y-44392857D01*
X145785714Y-44583333D01*
X145785714Y-44821428D01*
X145738095Y-45011904D01*
X145690476Y-45107142D01*
X145642857Y-45154761D01*
X145547619Y-45202380D01*
X145452380Y-45202380D01*
X145357142Y-45154761D01*
X145309523Y-45107142D01*
X145261904Y-45011904D01*
X145214285Y-44821428D01*
X145214285Y-44583333D01*
X145261904Y-44392857D01*
X145309523Y-44297619D01*
X145357142Y-44250000D01*
X145452380Y-44202380D01*
X146214285Y-44535714D02*
X146214285Y-45535714D01*
X146690476Y-45059523D02*
X146738095Y-45154761D01*
X146833333Y-45202380D01*
X146214285Y-45059523D02*
X146261904Y-45154761D01*
X146357142Y-45202380D01*
X146547619Y-45202380D01*
X146642857Y-45154761D01*
X146690476Y-45059523D01*
X146690476Y-44535714D01*
X147595238Y-44678571D02*
X147261904Y-44678571D01*
X147261904Y-45202380D02*
X147261904Y-44202380D01*
X147738095Y-44202380D01*
%TO.C,D1*%
X157681904Y-107922380D02*
X157681904Y-106922380D01*
X157920000Y-106922380D01*
X158062857Y-106970000D01*
X158158095Y-107065238D01*
X158205714Y-107160476D01*
X158253333Y-107350952D01*
X158253333Y-107493809D01*
X158205714Y-107684285D01*
X158158095Y-107779523D01*
X158062857Y-107874761D01*
X157920000Y-107922380D01*
X157681904Y-107922380D01*
X159205714Y-107922380D02*
X158634285Y-107922380D01*
X158920000Y-107922380D02*
X158920000Y-106922380D01*
X158824761Y-107065238D01*
X158729523Y-107160476D01*
X158634285Y-107208095D01*
X156277142Y-102982380D02*
X155705714Y-102982380D01*
X155991428Y-102982380D02*
X155991428Y-101982380D01*
X155896190Y-102125238D01*
X155800952Y-102220476D01*
X155705714Y-102268095D01*
X156705714Y-102982380D02*
X156705714Y-101982380D01*
X157277142Y-102982380D01*
X157277142Y-101982380D01*
X158181904Y-102315714D02*
X158181904Y-102982380D01*
X157943809Y-101934761D02*
X157705714Y-102649047D01*
X158324761Y-102649047D01*
X158896190Y-101982380D02*
X158991428Y-101982380D01*
X159086666Y-102030000D01*
X159134285Y-102077619D01*
X159181904Y-102172857D01*
X159229523Y-102363333D01*
X159229523Y-102601428D01*
X159181904Y-102791904D01*
X159134285Y-102887142D01*
X159086666Y-102934761D01*
X158991428Y-102982380D01*
X158896190Y-102982380D01*
X158800952Y-102934761D01*
X158753333Y-102887142D01*
X158705714Y-102791904D01*
X158658095Y-102601428D01*
X158658095Y-102363333D01*
X158705714Y-102172857D01*
X158753333Y-102077619D01*
X158800952Y-102030000D01*
X158896190Y-101982380D01*
X159848571Y-101982380D02*
X159943809Y-101982380D01*
X160039047Y-102030000D01*
X160086666Y-102077619D01*
X160134285Y-102172857D01*
X160181904Y-102363333D01*
X160181904Y-102601428D01*
X160134285Y-102791904D01*
X160086666Y-102887142D01*
X160039047Y-102934761D01*
X159943809Y-102982380D01*
X159848571Y-102982380D01*
X159753333Y-102934761D01*
X159705714Y-102887142D01*
X159658095Y-102791904D01*
X159610476Y-102601428D01*
X159610476Y-102363333D01*
X159658095Y-102172857D01*
X159705714Y-102077619D01*
X159753333Y-102030000D01*
X159848571Y-101982380D01*
X161086666Y-101982380D02*
X160610476Y-101982380D01*
X160562857Y-102458571D01*
X160610476Y-102410952D01*
X160705714Y-102363333D01*
X160943809Y-102363333D01*
X161039047Y-102410952D01*
X161086666Y-102458571D01*
X161134285Y-102553809D01*
X161134285Y-102791904D01*
X161086666Y-102887142D01*
X161039047Y-102934761D01*
X160943809Y-102982380D01*
X160705714Y-102982380D01*
X160610476Y-102934761D01*
X160562857Y-102887142D01*
X163238095Y-107552380D02*
X163238095Y-106552380D01*
X163809523Y-107552380D02*
X163380952Y-106980952D01*
X163809523Y-106552380D02*
X163238095Y-107123809D01*
%TO.C,D2*%
X160761904Y-60952380D02*
X160761904Y-59952380D01*
X161000000Y-59952380D01*
X161142857Y-60000000D01*
X161238095Y-60095238D01*
X161285714Y-60190476D01*
X161333333Y-60380952D01*
X161333333Y-60523809D01*
X161285714Y-60714285D01*
X161238095Y-60809523D01*
X161142857Y-60904761D01*
X161000000Y-60952380D01*
X160761904Y-60952380D01*
X161714285Y-60047619D02*
X161761904Y-60000000D01*
X161857142Y-59952380D01*
X162095238Y-59952380D01*
X162190476Y-60000000D01*
X162238095Y-60047619D01*
X162285714Y-60142857D01*
X162285714Y-60238095D01*
X162238095Y-60380952D01*
X161666666Y-60952380D01*
X162285714Y-60952380D01*
X153857142Y-60982380D02*
X153285714Y-60982380D01*
X153571428Y-60982380D02*
X153571428Y-59982380D01*
X153476190Y-60125238D01*
X153380952Y-60220476D01*
X153285714Y-60268095D01*
X154285714Y-60982380D02*
X154285714Y-59982380D01*
X154857142Y-60982380D01*
X154857142Y-59982380D01*
X155761904Y-60315714D02*
X155761904Y-60982380D01*
X155523809Y-59934761D02*
X155285714Y-60649047D01*
X155904761Y-60649047D01*
X156476190Y-59982380D02*
X156571428Y-59982380D01*
X156666666Y-60030000D01*
X156714285Y-60077619D01*
X156761904Y-60172857D01*
X156809523Y-60363333D01*
X156809523Y-60601428D01*
X156761904Y-60791904D01*
X156714285Y-60887142D01*
X156666666Y-60934761D01*
X156571428Y-60982380D01*
X156476190Y-60982380D01*
X156380952Y-60934761D01*
X156333333Y-60887142D01*
X156285714Y-60791904D01*
X156238095Y-60601428D01*
X156238095Y-60363333D01*
X156285714Y-60172857D01*
X156333333Y-60077619D01*
X156380952Y-60030000D01*
X156476190Y-59982380D01*
X157428571Y-59982380D02*
X157523809Y-59982380D01*
X157619047Y-60030000D01*
X157666666Y-60077619D01*
X157714285Y-60172857D01*
X157761904Y-60363333D01*
X157761904Y-60601428D01*
X157714285Y-60791904D01*
X157666666Y-60887142D01*
X157619047Y-60934761D01*
X157523809Y-60982380D01*
X157428571Y-60982380D01*
X157333333Y-60934761D01*
X157285714Y-60887142D01*
X157238095Y-60791904D01*
X157190476Y-60601428D01*
X157190476Y-60363333D01*
X157238095Y-60172857D01*
X157285714Y-60077619D01*
X157333333Y-60030000D01*
X157428571Y-59982380D01*
X158666666Y-59982380D02*
X158190476Y-59982380D01*
X158142857Y-60458571D01*
X158190476Y-60410952D01*
X158285714Y-60363333D01*
X158523809Y-60363333D01*
X158619047Y-60410952D01*
X158666666Y-60458571D01*
X158714285Y-60553809D01*
X158714285Y-60791904D01*
X158666666Y-60887142D01*
X158619047Y-60934761D01*
X158523809Y-60982380D01*
X158285714Y-60982380D01*
X158190476Y-60934761D01*
X158142857Y-60887142D01*
X164738095Y-65552380D02*
X164738095Y-64552380D01*
X165309523Y-65552380D02*
X164880952Y-64980952D01*
X165309523Y-64552380D02*
X164738095Y-65123809D01*
%TO.C,D3*%
X121922380Y-109318095D02*
X120922380Y-109318095D01*
X120922380Y-109080000D01*
X120970000Y-108937142D01*
X121065238Y-108841904D01*
X121160476Y-108794285D01*
X121350952Y-108746666D01*
X121493809Y-108746666D01*
X121684285Y-108794285D01*
X121779523Y-108841904D01*
X121874761Y-108937142D01*
X121922380Y-109080000D01*
X121922380Y-109318095D01*
X120922380Y-108413333D02*
X120922380Y-107794285D01*
X121303333Y-108127619D01*
X121303333Y-107984761D01*
X121350952Y-107889523D01*
X121398571Y-107841904D01*
X121493809Y-107794285D01*
X121731904Y-107794285D01*
X121827142Y-107841904D01*
X121874761Y-107889523D01*
X121922380Y-107984761D01*
X121922380Y-108270476D01*
X121874761Y-108365714D01*
X121827142Y-108413333D01*
X116982380Y-110722857D02*
X116982380Y-111294285D01*
X116982380Y-111008571D02*
X115982380Y-111008571D01*
X116125238Y-111103809D01*
X116220476Y-111199047D01*
X116268095Y-111294285D01*
X116982380Y-110294285D02*
X115982380Y-110294285D01*
X116982380Y-109722857D01*
X115982380Y-109722857D01*
X116315714Y-108818095D02*
X116982380Y-108818095D01*
X115934761Y-109056190D02*
X116649047Y-109294285D01*
X116649047Y-108675238D01*
X115982380Y-108103809D02*
X115982380Y-108008571D01*
X116030000Y-107913333D01*
X116077619Y-107865714D01*
X116172857Y-107818095D01*
X116363333Y-107770476D01*
X116601428Y-107770476D01*
X116791904Y-107818095D01*
X116887142Y-107865714D01*
X116934761Y-107913333D01*
X116982380Y-108008571D01*
X116982380Y-108103809D01*
X116934761Y-108199047D01*
X116887142Y-108246666D01*
X116791904Y-108294285D01*
X116601428Y-108341904D01*
X116363333Y-108341904D01*
X116172857Y-108294285D01*
X116077619Y-108246666D01*
X116030000Y-108199047D01*
X115982380Y-108103809D01*
X115982380Y-107151428D02*
X115982380Y-107056190D01*
X116030000Y-106960952D01*
X116077619Y-106913333D01*
X116172857Y-106865714D01*
X116363333Y-106818095D01*
X116601428Y-106818095D01*
X116791904Y-106865714D01*
X116887142Y-106913333D01*
X116934761Y-106960952D01*
X116982380Y-107056190D01*
X116982380Y-107151428D01*
X116934761Y-107246666D01*
X116887142Y-107294285D01*
X116791904Y-107341904D01*
X116601428Y-107389523D01*
X116363333Y-107389523D01*
X116172857Y-107341904D01*
X116077619Y-107294285D01*
X116030000Y-107246666D01*
X115982380Y-107151428D01*
X115982380Y-105913333D02*
X115982380Y-106389523D01*
X116458571Y-106437142D01*
X116410952Y-106389523D01*
X116363333Y-106294285D01*
X116363333Y-106056190D01*
X116410952Y-105960952D01*
X116458571Y-105913333D01*
X116553809Y-105865714D01*
X116791904Y-105865714D01*
X116887142Y-105913333D01*
X116934761Y-105960952D01*
X116982380Y-106056190D01*
X116982380Y-106294285D01*
X116934761Y-106389523D01*
X116887142Y-106437142D01*
X121552380Y-103761904D02*
X120552380Y-103761904D01*
X121552380Y-103190476D02*
X120980952Y-103619047D01*
X120552380Y-103190476D02*
X121123809Y-103761904D01*
%TO.C,D5*%
X152261904Y-113452380D02*
X152261904Y-112452380D01*
X152500000Y-112452380D01*
X152642857Y-112500000D01*
X152738095Y-112595238D01*
X152785714Y-112690476D01*
X152833333Y-112880952D01*
X152833333Y-113023809D01*
X152785714Y-113214285D01*
X152738095Y-113309523D01*
X152642857Y-113404761D01*
X152500000Y-113452380D01*
X152261904Y-113452380D01*
X153738095Y-112452380D02*
X153261904Y-112452380D01*
X153214285Y-112928571D01*
X153261904Y-112880952D01*
X153357142Y-112833333D01*
X153595238Y-112833333D01*
X153690476Y-112880952D01*
X153738095Y-112928571D01*
X153785714Y-113023809D01*
X153785714Y-113261904D01*
X153738095Y-113357142D01*
X153690476Y-113404761D01*
X153595238Y-113452380D01*
X153357142Y-113452380D01*
X153261904Y-113404761D01*
X153214285Y-113357142D01*
X154857142Y-113452380D02*
X154285714Y-113452380D01*
X154571428Y-113452380D02*
X154571428Y-112452380D01*
X154476190Y-112595238D01*
X154380952Y-112690476D01*
X154285714Y-112738095D01*
X155285714Y-113452380D02*
X155285714Y-112452380D01*
X155857142Y-113452380D01*
X155857142Y-112452380D01*
X156761904Y-112785714D02*
X156761904Y-113452380D01*
X156523809Y-112404761D02*
X156285714Y-113119047D01*
X156904761Y-113119047D01*
X157476190Y-112452380D02*
X157571428Y-112452380D01*
X157666666Y-112500000D01*
X157714285Y-112547619D01*
X157761904Y-112642857D01*
X157809523Y-112833333D01*
X157809523Y-113071428D01*
X157761904Y-113261904D01*
X157714285Y-113357142D01*
X157666666Y-113404761D01*
X157571428Y-113452380D01*
X157476190Y-113452380D01*
X157380952Y-113404761D01*
X157333333Y-113357142D01*
X157285714Y-113261904D01*
X157238095Y-113071428D01*
X157238095Y-112833333D01*
X157285714Y-112642857D01*
X157333333Y-112547619D01*
X157380952Y-112500000D01*
X157476190Y-112452380D01*
X158428571Y-112452380D02*
X158523809Y-112452380D01*
X158619047Y-112500000D01*
X158666666Y-112547619D01*
X158714285Y-112642857D01*
X158761904Y-112833333D01*
X158761904Y-113071428D01*
X158714285Y-113261904D01*
X158666666Y-113357142D01*
X158619047Y-113404761D01*
X158523809Y-113452380D01*
X158428571Y-113452380D01*
X158333333Y-113404761D01*
X158285714Y-113357142D01*
X158238095Y-113261904D01*
X158190476Y-113071428D01*
X158190476Y-112833333D01*
X158238095Y-112642857D01*
X158285714Y-112547619D01*
X158333333Y-112500000D01*
X158428571Y-112452380D01*
X159666666Y-112452380D02*
X159190476Y-112452380D01*
X159142857Y-112928571D01*
X159190476Y-112880952D01*
X159285714Y-112833333D01*
X159523809Y-112833333D01*
X159619047Y-112880952D01*
X159666666Y-112928571D01*
X159714285Y-113023809D01*
X159714285Y-113261904D01*
X159666666Y-113357142D01*
X159619047Y-113404761D01*
X159523809Y-113452380D01*
X159285714Y-113452380D01*
X159190476Y-113404761D01*
X159142857Y-113357142D01*
X163238095Y-113052380D02*
X163238095Y-112052380D01*
X163809523Y-113052380D02*
X163380952Y-112480952D01*
X163809523Y-112052380D02*
X163238095Y-112623809D01*
%TO.C,D6*%
X160261904Y-66452380D02*
X160261904Y-65452380D01*
X160500000Y-65452380D01*
X160642857Y-65500000D01*
X160738095Y-65595238D01*
X160785714Y-65690476D01*
X160833333Y-65880952D01*
X160833333Y-66023809D01*
X160785714Y-66214285D01*
X160738095Y-66309523D01*
X160642857Y-66404761D01*
X160500000Y-66452380D01*
X160261904Y-66452380D01*
X161690476Y-65452380D02*
X161500000Y-65452380D01*
X161404761Y-65500000D01*
X161357142Y-65547619D01*
X161261904Y-65690476D01*
X161214285Y-65880952D01*
X161214285Y-66261904D01*
X161261904Y-66357142D01*
X161309523Y-66404761D01*
X161404761Y-66452380D01*
X161595238Y-66452380D01*
X161690476Y-66404761D01*
X161738095Y-66357142D01*
X161785714Y-66261904D01*
X161785714Y-66023809D01*
X161738095Y-65928571D01*
X161690476Y-65880952D01*
X161595238Y-65833333D01*
X161404761Y-65833333D01*
X161309523Y-65880952D01*
X161261904Y-65928571D01*
X161214285Y-66023809D01*
X153857142Y-66452380D02*
X153285714Y-66452380D01*
X153571428Y-66452380D02*
X153571428Y-65452380D01*
X153476190Y-65595238D01*
X153380952Y-65690476D01*
X153285714Y-65738095D01*
X154285714Y-66452380D02*
X154285714Y-65452380D01*
X154857142Y-66452380D01*
X154857142Y-65452380D01*
X155761904Y-65785714D02*
X155761904Y-66452380D01*
X155523809Y-65404761D02*
X155285714Y-66119047D01*
X155904761Y-66119047D01*
X156476190Y-65452380D02*
X156571428Y-65452380D01*
X156666666Y-65500000D01*
X156714285Y-65547619D01*
X156761904Y-65642857D01*
X156809523Y-65833333D01*
X156809523Y-66071428D01*
X156761904Y-66261904D01*
X156714285Y-66357142D01*
X156666666Y-66404761D01*
X156571428Y-66452380D01*
X156476190Y-66452380D01*
X156380952Y-66404761D01*
X156333333Y-66357142D01*
X156285714Y-66261904D01*
X156238095Y-66071428D01*
X156238095Y-65833333D01*
X156285714Y-65642857D01*
X156333333Y-65547619D01*
X156380952Y-65500000D01*
X156476190Y-65452380D01*
X157428571Y-65452380D02*
X157523809Y-65452380D01*
X157619047Y-65500000D01*
X157666666Y-65547619D01*
X157714285Y-65642857D01*
X157761904Y-65833333D01*
X157761904Y-66071428D01*
X157714285Y-66261904D01*
X157666666Y-66357142D01*
X157619047Y-66404761D01*
X157523809Y-66452380D01*
X157428571Y-66452380D01*
X157333333Y-66404761D01*
X157285714Y-66357142D01*
X157238095Y-66261904D01*
X157190476Y-66071428D01*
X157190476Y-65833333D01*
X157238095Y-65642857D01*
X157285714Y-65547619D01*
X157333333Y-65500000D01*
X157428571Y-65452380D01*
X158666666Y-65452380D02*
X158190476Y-65452380D01*
X158142857Y-65928571D01*
X158190476Y-65880952D01*
X158285714Y-65833333D01*
X158523809Y-65833333D01*
X158619047Y-65880952D01*
X158666666Y-65928571D01*
X158714285Y-66023809D01*
X158714285Y-66261904D01*
X158666666Y-66357142D01*
X158619047Y-66404761D01*
X158523809Y-66452380D01*
X158285714Y-66452380D01*
X158190476Y-66404761D01*
X158142857Y-66357142D01*
X164738095Y-71052380D02*
X164738095Y-70052380D01*
X165309523Y-71052380D02*
X164880952Y-70480952D01*
X165309523Y-70052380D02*
X164738095Y-70623809D01*
%TO.C,D7*%
X153261904Y-119452380D02*
X153261904Y-118452380D01*
X153500000Y-118452380D01*
X153642857Y-118500000D01*
X153738095Y-118595238D01*
X153785714Y-118690476D01*
X153833333Y-118880952D01*
X153833333Y-119023809D01*
X153785714Y-119214285D01*
X153738095Y-119309523D01*
X153642857Y-119404761D01*
X153500000Y-119452380D01*
X153261904Y-119452380D01*
X154166666Y-118452380D02*
X154833333Y-118452380D01*
X154404761Y-119452380D01*
X159071428Y-119452380D02*
X158500000Y-119452380D01*
X158785714Y-119452380D02*
X158785714Y-118452380D01*
X158690476Y-118595238D01*
X158595238Y-118690476D01*
X158500000Y-118738095D01*
X159500000Y-119452380D02*
X159500000Y-118452380D01*
X160071428Y-119452380D01*
X160071428Y-118452380D01*
X160976190Y-118785714D02*
X160976190Y-119452380D01*
X160738095Y-118404761D02*
X160500000Y-119119047D01*
X161119047Y-119119047D01*
X161404761Y-118452380D02*
X162071428Y-118452380D01*
X161642857Y-119452380D01*
X162357142Y-119452380D02*
X162880952Y-118785714D01*
X162357142Y-118785714D02*
X162880952Y-119452380D01*
X163166666Y-119452380D02*
X163690476Y-118785714D01*
X163166666Y-118785714D02*
X163690476Y-119452380D01*
X164023809Y-119166666D02*
X164500000Y-119166666D01*
X163928571Y-119452380D02*
X164261904Y-118452380D01*
X164595238Y-119452380D01*
X163238095Y-119052380D02*
X163238095Y-118052380D01*
X163809523Y-119052380D02*
X163380952Y-118480952D01*
X163809523Y-118052380D02*
X163238095Y-118623809D01*
%TO.C,D8*%
X160761904Y-71952380D02*
X160761904Y-70952380D01*
X161000000Y-70952380D01*
X161142857Y-71000000D01*
X161238095Y-71095238D01*
X161285714Y-71190476D01*
X161333333Y-71380952D01*
X161333333Y-71523809D01*
X161285714Y-71714285D01*
X161238095Y-71809523D01*
X161142857Y-71904761D01*
X161000000Y-71952380D01*
X160761904Y-71952380D01*
X161904761Y-71380952D02*
X161809523Y-71333333D01*
X161761904Y-71285714D01*
X161714285Y-71190476D01*
X161714285Y-71142857D01*
X161761904Y-71047619D01*
X161809523Y-71000000D01*
X161904761Y-70952380D01*
X162095238Y-70952380D01*
X162190476Y-71000000D01*
X162238095Y-71047619D01*
X162285714Y-71142857D01*
X162285714Y-71190476D01*
X162238095Y-71285714D01*
X162190476Y-71333333D01*
X162095238Y-71380952D01*
X161904761Y-71380952D01*
X161809523Y-71428571D01*
X161761904Y-71476190D01*
X161714285Y-71571428D01*
X161714285Y-71761904D01*
X161761904Y-71857142D01*
X161809523Y-71904761D01*
X161904761Y-71952380D01*
X162095238Y-71952380D01*
X162190476Y-71904761D01*
X162238095Y-71857142D01*
X162285714Y-71761904D01*
X162285714Y-71571428D01*
X162238095Y-71476190D01*
X162190476Y-71428571D01*
X162095238Y-71380952D01*
X153571428Y-71982380D02*
X153000000Y-71982380D01*
X153285714Y-71982380D02*
X153285714Y-70982380D01*
X153190476Y-71125238D01*
X153095238Y-71220476D01*
X153000000Y-71268095D01*
X154000000Y-71982380D02*
X154000000Y-70982380D01*
X154571428Y-71982380D01*
X154571428Y-70982380D01*
X155476190Y-71315714D02*
X155476190Y-71982380D01*
X155238095Y-70934761D02*
X155000000Y-71649047D01*
X155619047Y-71649047D01*
X155904761Y-70982380D02*
X156571428Y-70982380D01*
X156142857Y-71982380D01*
X156857142Y-71982380D02*
X157380952Y-71315714D01*
X156857142Y-71315714D02*
X157380952Y-71982380D01*
X157666666Y-71982380D02*
X158190476Y-71315714D01*
X157666666Y-71315714D02*
X158190476Y-71982380D01*
X158523809Y-71696666D02*
X159000000Y-71696666D01*
X158428571Y-71982380D02*
X158761904Y-70982380D01*
X159095238Y-71982380D01*
X164738095Y-76552380D02*
X164738095Y-75552380D01*
X165309523Y-76552380D02*
X164880952Y-75980952D01*
X165309523Y-75552380D02*
X164738095Y-76123809D01*
%TO.C,D17*%
X138905714Y-45732380D02*
X138905714Y-44732380D01*
X139143809Y-44732380D01*
X139286666Y-44780000D01*
X139381904Y-44875238D01*
X139429523Y-44970476D01*
X139477142Y-45160952D01*
X139477142Y-45303809D01*
X139429523Y-45494285D01*
X139381904Y-45589523D01*
X139286666Y-45684761D01*
X139143809Y-45732380D01*
X138905714Y-45732380D01*
X140429523Y-45732380D02*
X139858095Y-45732380D01*
X140143809Y-45732380D02*
X140143809Y-44732380D01*
X140048571Y-44875238D01*
X139953333Y-44970476D01*
X139858095Y-45018095D01*
X140762857Y-44732380D02*
X141429523Y-44732380D01*
X141000952Y-45732380D01*
X137977142Y-53172380D02*
X137405714Y-53172380D01*
X137691428Y-53172380D02*
X137691428Y-52172380D01*
X137596190Y-52315238D01*
X137500952Y-52410476D01*
X137405714Y-52458095D01*
X138405714Y-53172380D02*
X138405714Y-52172380D01*
X138977142Y-53172380D01*
X138977142Y-52172380D01*
X139929523Y-52172380D02*
X139453333Y-52172380D01*
X139405714Y-52648571D01*
X139453333Y-52600952D01*
X139548571Y-52553333D01*
X139786666Y-52553333D01*
X139881904Y-52600952D01*
X139929523Y-52648571D01*
X139977142Y-52743809D01*
X139977142Y-52981904D01*
X139929523Y-53077142D01*
X139881904Y-53124761D01*
X139786666Y-53172380D01*
X139548571Y-53172380D01*
X139453333Y-53124761D01*
X139405714Y-53077142D01*
X140548571Y-52600952D02*
X140453333Y-52553333D01*
X140405714Y-52505714D01*
X140358095Y-52410476D01*
X140358095Y-52362857D01*
X140405714Y-52267619D01*
X140453333Y-52220000D01*
X140548571Y-52172380D01*
X140739047Y-52172380D01*
X140834285Y-52220000D01*
X140881904Y-52267619D01*
X140929523Y-52362857D01*
X140929523Y-52410476D01*
X140881904Y-52505714D01*
X140834285Y-52553333D01*
X140739047Y-52600952D01*
X140548571Y-52600952D01*
X140453333Y-52648571D01*
X140405714Y-52696190D01*
X140358095Y-52791428D01*
X140358095Y-52981904D01*
X140405714Y-53077142D01*
X140453333Y-53124761D01*
X140548571Y-53172380D01*
X140739047Y-53172380D01*
X140834285Y-53124761D01*
X140881904Y-53077142D01*
X140929523Y-52981904D01*
X140929523Y-52791428D01*
X140881904Y-52696190D01*
X140834285Y-52648571D01*
X140739047Y-52600952D01*
X141310476Y-52267619D02*
X141358095Y-52220000D01*
X141453333Y-52172380D01*
X141691428Y-52172380D01*
X141786666Y-52220000D01*
X141834285Y-52267619D01*
X141881904Y-52362857D01*
X141881904Y-52458095D01*
X141834285Y-52600952D01*
X141262857Y-53172380D01*
X141881904Y-53172380D01*
X142500952Y-52172380D02*
X142596190Y-52172380D01*
X142691428Y-52220000D01*
X142739047Y-52267619D01*
X142786666Y-52362857D01*
X142834285Y-52553333D01*
X142834285Y-52791428D01*
X142786666Y-52981904D01*
X142739047Y-53077142D01*
X142691428Y-53124761D01*
X142596190Y-53172380D01*
X142500952Y-53172380D01*
X142405714Y-53124761D01*
X142358095Y-53077142D01*
X142310476Y-52981904D01*
X142262857Y-52791428D01*
X142262857Y-52553333D01*
X142310476Y-52362857D01*
X142358095Y-52267619D01*
X142405714Y-52220000D01*
X142500952Y-52172380D01*
X132238095Y-46852380D02*
X132238095Y-45852380D01*
X132809523Y-46852380D02*
X132380952Y-46280952D01*
X132809523Y-45852380D02*
X132238095Y-46423809D01*
%TO.C,J1*%
X114166666Y-125122380D02*
X114166666Y-125836666D01*
X114119047Y-125979523D01*
X114023809Y-126074761D01*
X113880952Y-126122380D01*
X113785714Y-126122380D01*
X115166666Y-126122380D02*
X114595238Y-126122380D01*
X114880952Y-126122380D02*
X114880952Y-125122380D01*
X114785714Y-125265238D01*
X114690476Y-125360476D01*
X114595238Y-125408095D01*
X109142857Y-133322380D02*
X109142857Y-132655714D01*
X109142857Y-132322380D02*
X109095238Y-132370000D01*
X109142857Y-132417619D01*
X109190476Y-132370000D01*
X109142857Y-132322380D01*
X109142857Y-132417619D01*
X109619047Y-132655714D02*
X109619047Y-133322380D01*
X109619047Y-132750952D02*
X109666666Y-132703333D01*
X109761904Y-132655714D01*
X109904761Y-132655714D01*
X110000000Y-132703333D01*
X110047619Y-132798571D01*
X110047619Y-133322380D01*
X110523809Y-132655714D02*
X110523809Y-133655714D01*
X110523809Y-132703333D02*
X110619047Y-132655714D01*
X110809523Y-132655714D01*
X110904761Y-132703333D01*
X110952380Y-132750952D01*
X111000000Y-132846190D01*
X111000000Y-133131904D01*
X110952380Y-133227142D01*
X110904761Y-133274761D01*
X110809523Y-133322380D01*
X110619047Y-133322380D01*
X110523809Y-133274761D01*
X111857142Y-132655714D02*
X111857142Y-133322380D01*
X111428571Y-132655714D02*
X111428571Y-133179523D01*
X111476190Y-133274761D01*
X111571428Y-133322380D01*
X111714285Y-133322380D01*
X111809523Y-133274761D01*
X111857142Y-133227142D01*
X112190476Y-132655714D02*
X112571428Y-132655714D01*
X112333333Y-132322380D02*
X112333333Y-133179523D01*
X112380952Y-133274761D01*
X112476190Y-133322380D01*
X112571428Y-133322380D01*
X112666666Y-133417619D02*
X113428571Y-133417619D01*
X113523809Y-132655714D02*
X113904761Y-132655714D01*
X113666666Y-132322380D02*
X113666666Y-133179523D01*
X113714285Y-133274761D01*
X113809523Y-133322380D01*
X113904761Y-133322380D01*
X114238095Y-133322380D02*
X114238095Y-132655714D01*
X114238095Y-132846190D02*
X114285714Y-132750952D01*
X114333333Y-132703333D01*
X114428571Y-132655714D01*
X114523809Y-132655714D01*
X114857142Y-133322380D02*
X114857142Y-132655714D01*
X114857142Y-132322380D02*
X114809523Y-132370000D01*
X114857142Y-132417619D01*
X114904761Y-132370000D01*
X114857142Y-132322380D01*
X114857142Y-132417619D01*
X115761904Y-132655714D02*
X115761904Y-133465238D01*
X115714285Y-133560476D01*
X115666666Y-133608095D01*
X115571428Y-133655714D01*
X115428571Y-133655714D01*
X115333333Y-133608095D01*
X115761904Y-133274761D02*
X115666666Y-133322380D01*
X115476190Y-133322380D01*
X115380952Y-133274761D01*
X115333333Y-133227142D01*
X115285714Y-133131904D01*
X115285714Y-132846190D01*
X115333333Y-132750952D01*
X115380952Y-132703333D01*
X115476190Y-132655714D01*
X115666666Y-132655714D01*
X115761904Y-132703333D01*
X116666666Y-132655714D02*
X116666666Y-133465238D01*
X116619047Y-133560476D01*
X116571428Y-133608095D01*
X116476190Y-133655714D01*
X116333333Y-133655714D01*
X116238095Y-133608095D01*
X116666666Y-133274761D02*
X116571428Y-133322380D01*
X116380952Y-133322380D01*
X116285714Y-133274761D01*
X116238095Y-133227142D01*
X116190476Y-133131904D01*
X116190476Y-132846190D01*
X116238095Y-132750952D01*
X116285714Y-132703333D01*
X116380952Y-132655714D01*
X116571428Y-132655714D01*
X116666666Y-132703333D01*
X117523809Y-133274761D02*
X117428571Y-133322380D01*
X117238095Y-133322380D01*
X117142857Y-133274761D01*
X117095238Y-133179523D01*
X117095238Y-132798571D01*
X117142857Y-132703333D01*
X117238095Y-132655714D01*
X117428571Y-132655714D01*
X117523809Y-132703333D01*
X117571428Y-132798571D01*
X117571428Y-132893809D01*
X117095238Y-132989047D01*
X118000000Y-133322380D02*
X118000000Y-132655714D01*
X118000000Y-132846190D02*
X118047619Y-132750952D01*
X118095238Y-132703333D01*
X118190476Y-132655714D01*
X118285714Y-132655714D01*
X118380952Y-133417619D02*
X119142857Y-133417619D01*
X119333333Y-132417619D02*
X119380952Y-132370000D01*
X119476190Y-132322380D01*
X119714285Y-132322380D01*
X119809523Y-132370000D01*
X119857142Y-132417619D01*
X119904761Y-132512857D01*
X119904761Y-132608095D01*
X119857142Y-132750952D01*
X119285714Y-133322380D01*
X119904761Y-133322380D01*
%TO.C,J2*%
X111166666Y-77622380D02*
X111166666Y-78336666D01*
X111119047Y-78479523D01*
X111023809Y-78574761D01*
X110880952Y-78622380D01*
X110785714Y-78622380D01*
X111595238Y-77717619D02*
X111642857Y-77670000D01*
X111738095Y-77622380D01*
X111976190Y-77622380D01*
X112071428Y-77670000D01*
X112119047Y-77717619D01*
X112166666Y-77812857D01*
X112166666Y-77908095D01*
X112119047Y-78050952D01*
X111547619Y-78622380D01*
X112166666Y-78622380D01*
X106142857Y-85822380D02*
X106142857Y-85155714D01*
X106142857Y-84822380D02*
X106095238Y-84870000D01*
X106142857Y-84917619D01*
X106190476Y-84870000D01*
X106142857Y-84822380D01*
X106142857Y-84917619D01*
X106619047Y-85155714D02*
X106619047Y-85822380D01*
X106619047Y-85250952D02*
X106666666Y-85203333D01*
X106761904Y-85155714D01*
X106904761Y-85155714D01*
X107000000Y-85203333D01*
X107047619Y-85298571D01*
X107047619Y-85822380D01*
X107523809Y-85155714D02*
X107523809Y-86155714D01*
X107523809Y-85203333D02*
X107619047Y-85155714D01*
X107809523Y-85155714D01*
X107904761Y-85203333D01*
X107952380Y-85250952D01*
X108000000Y-85346190D01*
X108000000Y-85631904D01*
X107952380Y-85727142D01*
X107904761Y-85774761D01*
X107809523Y-85822380D01*
X107619047Y-85822380D01*
X107523809Y-85774761D01*
X108857142Y-85155714D02*
X108857142Y-85822380D01*
X108428571Y-85155714D02*
X108428571Y-85679523D01*
X108476190Y-85774761D01*
X108571428Y-85822380D01*
X108714285Y-85822380D01*
X108809523Y-85774761D01*
X108857142Y-85727142D01*
X109190476Y-85155714D02*
X109571428Y-85155714D01*
X109333333Y-84822380D02*
X109333333Y-85679523D01*
X109380952Y-85774761D01*
X109476190Y-85822380D01*
X109571428Y-85822380D01*
X109666666Y-85917619D02*
X110428571Y-85917619D01*
X110523809Y-85155714D02*
X110904761Y-85155714D01*
X110666666Y-84822380D02*
X110666666Y-85679523D01*
X110714285Y-85774761D01*
X110809523Y-85822380D01*
X110904761Y-85822380D01*
X111238095Y-85822380D02*
X111238095Y-85155714D01*
X111238095Y-85346190D02*
X111285714Y-85250952D01*
X111333333Y-85203333D01*
X111428571Y-85155714D01*
X111523809Y-85155714D01*
X111857142Y-85822380D02*
X111857142Y-85155714D01*
X111857142Y-84822380D02*
X111809523Y-84870000D01*
X111857142Y-84917619D01*
X111904761Y-84870000D01*
X111857142Y-84822380D01*
X111857142Y-84917619D01*
X112761904Y-85155714D02*
X112761904Y-85965238D01*
X112714285Y-86060476D01*
X112666666Y-86108095D01*
X112571428Y-86155714D01*
X112428571Y-86155714D01*
X112333333Y-86108095D01*
X112761904Y-85774761D02*
X112666666Y-85822380D01*
X112476190Y-85822380D01*
X112380952Y-85774761D01*
X112333333Y-85727142D01*
X112285714Y-85631904D01*
X112285714Y-85346190D01*
X112333333Y-85250952D01*
X112380952Y-85203333D01*
X112476190Y-85155714D01*
X112666666Y-85155714D01*
X112761904Y-85203333D01*
X113666666Y-85155714D02*
X113666666Y-85965238D01*
X113619047Y-86060476D01*
X113571428Y-86108095D01*
X113476190Y-86155714D01*
X113333333Y-86155714D01*
X113238095Y-86108095D01*
X113666666Y-85774761D02*
X113571428Y-85822380D01*
X113380952Y-85822380D01*
X113285714Y-85774761D01*
X113238095Y-85727142D01*
X113190476Y-85631904D01*
X113190476Y-85346190D01*
X113238095Y-85250952D01*
X113285714Y-85203333D01*
X113380952Y-85155714D01*
X113571428Y-85155714D01*
X113666666Y-85203333D01*
X114523809Y-85774761D02*
X114428571Y-85822380D01*
X114238095Y-85822380D01*
X114142857Y-85774761D01*
X114095238Y-85679523D01*
X114095238Y-85298571D01*
X114142857Y-85203333D01*
X114238095Y-85155714D01*
X114428571Y-85155714D01*
X114523809Y-85203333D01*
X114571428Y-85298571D01*
X114571428Y-85393809D01*
X114095238Y-85489047D01*
X115000000Y-85822380D02*
X115000000Y-85155714D01*
X115000000Y-85346190D02*
X115047619Y-85250952D01*
X115095238Y-85203333D01*
X115190476Y-85155714D01*
X115285714Y-85155714D01*
X115380952Y-85917619D02*
X116142857Y-85917619D01*
X116904761Y-85822380D02*
X116333333Y-85822380D01*
X116619047Y-85822380D02*
X116619047Y-84822380D01*
X116523809Y-84965238D01*
X116428571Y-85060476D01*
X116333333Y-85108095D01*
%TO.C,J3*%
X160666666Y-121622380D02*
X160666666Y-122336666D01*
X160619047Y-122479523D01*
X160523809Y-122574761D01*
X160380952Y-122622380D01*
X160285714Y-122622380D01*
X161047619Y-121622380D02*
X161666666Y-121622380D01*
X161333333Y-122003333D01*
X161476190Y-122003333D01*
X161571428Y-122050952D01*
X161619047Y-122098571D01*
X161666666Y-122193809D01*
X161666666Y-122431904D01*
X161619047Y-122527142D01*
X161571428Y-122574761D01*
X161476190Y-122622380D01*
X161190476Y-122622380D01*
X161095238Y-122574761D01*
X161047619Y-122527142D01*
X155976190Y-129155714D02*
X156357142Y-129155714D01*
X156119047Y-128822380D02*
X156119047Y-129679523D01*
X156166666Y-129774761D01*
X156261904Y-129822380D01*
X156357142Y-129822380D01*
X156833333Y-129822380D02*
X156738095Y-129774761D01*
X156690476Y-129727142D01*
X156642857Y-129631904D01*
X156642857Y-129346190D01*
X156690476Y-129250952D01*
X156738095Y-129203333D01*
X156833333Y-129155714D01*
X156976190Y-129155714D01*
X157071428Y-129203333D01*
X157119047Y-129250952D01*
X157166666Y-129346190D01*
X157166666Y-129631904D01*
X157119047Y-129727142D01*
X157071428Y-129774761D01*
X156976190Y-129822380D01*
X156833333Y-129822380D01*
X157357142Y-129917619D02*
X158119047Y-129917619D01*
X158309523Y-129774761D02*
X158404761Y-129822380D01*
X158595238Y-129822380D01*
X158690476Y-129774761D01*
X158738095Y-129679523D01*
X158738095Y-129631904D01*
X158690476Y-129536666D01*
X158595238Y-129489047D01*
X158452380Y-129489047D01*
X158357142Y-129441428D01*
X158309523Y-129346190D01*
X158309523Y-129298571D01*
X158357142Y-129203333D01*
X158452380Y-129155714D01*
X158595238Y-129155714D01*
X158690476Y-129203333D01*
X159309523Y-129822380D02*
X159214285Y-129774761D01*
X159166666Y-129727142D01*
X159119047Y-129631904D01*
X159119047Y-129346190D01*
X159166666Y-129250952D01*
X159214285Y-129203333D01*
X159309523Y-129155714D01*
X159452380Y-129155714D01*
X159547619Y-129203333D01*
X159595238Y-129250952D01*
X159642857Y-129346190D01*
X159642857Y-129631904D01*
X159595238Y-129727142D01*
X159547619Y-129774761D01*
X159452380Y-129822380D01*
X159309523Y-129822380D01*
X160214285Y-129822380D02*
X160119047Y-129774761D01*
X160071428Y-129679523D01*
X160071428Y-128822380D01*
X160976190Y-129774761D02*
X160880952Y-129822380D01*
X160690476Y-129822380D01*
X160595238Y-129774761D01*
X160547619Y-129679523D01*
X160547619Y-129298571D01*
X160595238Y-129203333D01*
X160690476Y-129155714D01*
X160880952Y-129155714D01*
X160976190Y-129203333D01*
X161023809Y-129298571D01*
X161023809Y-129393809D01*
X160547619Y-129489047D01*
X161452380Y-129155714D02*
X161452380Y-129822380D01*
X161452380Y-129250952D02*
X161500000Y-129203333D01*
X161595238Y-129155714D01*
X161738095Y-129155714D01*
X161833333Y-129203333D01*
X161880952Y-129298571D01*
X161880952Y-129822380D01*
X162500000Y-129822380D02*
X162404761Y-129774761D01*
X162357142Y-129727142D01*
X162309523Y-129631904D01*
X162309523Y-129346190D01*
X162357142Y-129250952D01*
X162404761Y-129203333D01*
X162500000Y-129155714D01*
X162642857Y-129155714D01*
X162738095Y-129203333D01*
X162785714Y-129250952D01*
X162833333Y-129346190D01*
X162833333Y-129631904D01*
X162785714Y-129727142D01*
X162738095Y-129774761D01*
X162642857Y-129822380D01*
X162500000Y-129822380D01*
X163261904Y-129822380D02*
X163261904Y-129155714D01*
X163261904Y-128822380D02*
X163214285Y-128870000D01*
X163261904Y-128917619D01*
X163309523Y-128870000D01*
X163261904Y-128822380D01*
X163261904Y-128917619D01*
X164166666Y-129822380D02*
X164166666Y-128822380D01*
X164166666Y-129774761D02*
X164071428Y-129822380D01*
X163880952Y-129822380D01*
X163785714Y-129774761D01*
X163738095Y-129727142D01*
X163690476Y-129631904D01*
X163690476Y-129346190D01*
X163738095Y-129250952D01*
X163785714Y-129203333D01*
X163880952Y-129155714D01*
X164071428Y-129155714D01*
X164166666Y-129203333D01*
X164404761Y-129917619D02*
X165166666Y-129917619D01*
X165357142Y-128917619D02*
X165404761Y-128870000D01*
X165500000Y-128822380D01*
X165738095Y-128822380D01*
X165833333Y-128870000D01*
X165880952Y-128917619D01*
X165928571Y-129012857D01*
X165928571Y-129108095D01*
X165880952Y-129250952D01*
X165309523Y-129822380D01*
X165928571Y-129822380D01*
%TO.C,J4*%
X161166666Y-77122380D02*
X161166666Y-77836666D01*
X161119047Y-77979523D01*
X161023809Y-78074761D01*
X160880952Y-78122380D01*
X160785714Y-78122380D01*
X162071428Y-77455714D02*
X162071428Y-78122380D01*
X161833333Y-77074761D02*
X161595238Y-77789047D01*
X162214285Y-77789047D01*
X156476190Y-84655714D02*
X156857142Y-84655714D01*
X156619047Y-84322380D02*
X156619047Y-85179523D01*
X156666666Y-85274761D01*
X156761904Y-85322380D01*
X156857142Y-85322380D01*
X157333333Y-85322380D02*
X157238095Y-85274761D01*
X157190476Y-85227142D01*
X157142857Y-85131904D01*
X157142857Y-84846190D01*
X157190476Y-84750952D01*
X157238095Y-84703333D01*
X157333333Y-84655714D01*
X157476190Y-84655714D01*
X157571428Y-84703333D01*
X157619047Y-84750952D01*
X157666666Y-84846190D01*
X157666666Y-85131904D01*
X157619047Y-85227142D01*
X157571428Y-85274761D01*
X157476190Y-85322380D01*
X157333333Y-85322380D01*
X157857142Y-85417619D02*
X158619047Y-85417619D01*
X158809523Y-85274761D02*
X158904761Y-85322380D01*
X159095238Y-85322380D01*
X159190476Y-85274761D01*
X159238095Y-85179523D01*
X159238095Y-85131904D01*
X159190476Y-85036666D01*
X159095238Y-84989047D01*
X158952380Y-84989047D01*
X158857142Y-84941428D01*
X158809523Y-84846190D01*
X158809523Y-84798571D01*
X158857142Y-84703333D01*
X158952380Y-84655714D01*
X159095238Y-84655714D01*
X159190476Y-84703333D01*
X159809523Y-85322380D02*
X159714285Y-85274761D01*
X159666666Y-85227142D01*
X159619047Y-85131904D01*
X159619047Y-84846190D01*
X159666666Y-84750952D01*
X159714285Y-84703333D01*
X159809523Y-84655714D01*
X159952380Y-84655714D01*
X160047619Y-84703333D01*
X160095238Y-84750952D01*
X160142857Y-84846190D01*
X160142857Y-85131904D01*
X160095238Y-85227142D01*
X160047619Y-85274761D01*
X159952380Y-85322380D01*
X159809523Y-85322380D01*
X160714285Y-85322380D02*
X160619047Y-85274761D01*
X160571428Y-85179523D01*
X160571428Y-84322380D01*
X161476190Y-85274761D02*
X161380952Y-85322380D01*
X161190476Y-85322380D01*
X161095238Y-85274761D01*
X161047619Y-85179523D01*
X161047619Y-84798571D01*
X161095238Y-84703333D01*
X161190476Y-84655714D01*
X161380952Y-84655714D01*
X161476190Y-84703333D01*
X161523809Y-84798571D01*
X161523809Y-84893809D01*
X161047619Y-84989047D01*
X161952380Y-84655714D02*
X161952380Y-85322380D01*
X161952380Y-84750952D02*
X162000000Y-84703333D01*
X162095238Y-84655714D01*
X162238095Y-84655714D01*
X162333333Y-84703333D01*
X162380952Y-84798571D01*
X162380952Y-85322380D01*
X163000000Y-85322380D02*
X162904761Y-85274761D01*
X162857142Y-85227142D01*
X162809523Y-85131904D01*
X162809523Y-84846190D01*
X162857142Y-84750952D01*
X162904761Y-84703333D01*
X163000000Y-84655714D01*
X163142857Y-84655714D01*
X163238095Y-84703333D01*
X163285714Y-84750952D01*
X163333333Y-84846190D01*
X163333333Y-85131904D01*
X163285714Y-85227142D01*
X163238095Y-85274761D01*
X163142857Y-85322380D01*
X163000000Y-85322380D01*
X163761904Y-85322380D02*
X163761904Y-84655714D01*
X163761904Y-84322380D02*
X163714285Y-84370000D01*
X163761904Y-84417619D01*
X163809523Y-84370000D01*
X163761904Y-84322380D01*
X163761904Y-84417619D01*
X164666666Y-85322380D02*
X164666666Y-84322380D01*
X164666666Y-85274761D02*
X164571428Y-85322380D01*
X164380952Y-85322380D01*
X164285714Y-85274761D01*
X164238095Y-85227142D01*
X164190476Y-85131904D01*
X164190476Y-84846190D01*
X164238095Y-84750952D01*
X164285714Y-84703333D01*
X164380952Y-84655714D01*
X164571428Y-84655714D01*
X164666666Y-84703333D01*
X164904761Y-85417619D02*
X165666666Y-85417619D01*
X166428571Y-85322380D02*
X165857142Y-85322380D01*
X166142857Y-85322380D02*
X166142857Y-84322380D01*
X166047619Y-84465238D01*
X165952380Y-84560476D01*
X165857142Y-84608095D01*
%TO.C,J9*%
X98852380Y-47333333D02*
X99566666Y-47333333D01*
X99709523Y-47380952D01*
X99804761Y-47476190D01*
X99852380Y-47619047D01*
X99852380Y-47714285D01*
X99852380Y-46809523D02*
X99852380Y-46619047D01*
X99804761Y-46523809D01*
X99757142Y-46476190D01*
X99614285Y-46380952D01*
X99423809Y-46333333D01*
X99042857Y-46333333D01*
X98947619Y-46380952D01*
X98900000Y-46428571D01*
X98852380Y-46523809D01*
X98852380Y-46714285D01*
X98900000Y-46809523D01*
X98947619Y-46857142D01*
X99042857Y-46904761D01*
X99280952Y-46904761D01*
X99376190Y-46857142D01*
X99423809Y-46809523D01*
X99471428Y-46714285D01*
X99471428Y-46523809D01*
X99423809Y-46428571D01*
X99376190Y-46380952D01*
X99280952Y-46333333D01*
%TO.C,L1*%
X129952380Y-40916666D02*
X129952380Y-41392857D01*
X128952380Y-41392857D01*
X129952380Y-40059523D02*
X129952380Y-40630952D01*
X129952380Y-40345238D02*
X128952380Y-40345238D01*
X129095238Y-40440476D01*
X129190476Y-40535714D01*
X129238095Y-40630952D01*
X138952380Y-42607142D02*
X138952380Y-41988095D01*
X139333333Y-42321428D01*
X139333333Y-42178571D01*
X139380952Y-42083333D01*
X139428571Y-42035714D01*
X139523809Y-41988095D01*
X139761904Y-41988095D01*
X139857142Y-42035714D01*
X139904761Y-42083333D01*
X139952380Y-42178571D01*
X139952380Y-42464285D01*
X139904761Y-42559523D01*
X139857142Y-42607142D01*
X138952380Y-41654761D02*
X138952380Y-41035714D01*
X139333333Y-41369047D01*
X139333333Y-41226190D01*
X139380952Y-41130952D01*
X139428571Y-41083333D01*
X139523809Y-41035714D01*
X139761904Y-41035714D01*
X139857142Y-41083333D01*
X139904761Y-41130952D01*
X139952380Y-41226190D01*
X139952380Y-41511904D01*
X139904761Y-41607142D01*
X139857142Y-41654761D01*
X139285714Y-40607142D02*
X140285714Y-40607142D01*
X139809523Y-40130952D02*
X139904761Y-40083333D01*
X139952380Y-39988095D01*
X139809523Y-40607142D02*
X139904761Y-40559523D01*
X139952380Y-40464285D01*
X139952380Y-40273809D01*
X139904761Y-40178571D01*
X139809523Y-40130952D01*
X139285714Y-40130952D01*
X139952380Y-39559523D02*
X138952380Y-39559523D01*
X139428571Y-39559523D02*
X139428571Y-38988095D01*
X139952380Y-38988095D02*
X138952380Y-38988095D01*
%TO.C,Q1*%
X145854761Y-135097619D02*
X145759523Y-135050000D01*
X145664285Y-134954761D01*
X145521428Y-134811904D01*
X145426190Y-134764285D01*
X145330952Y-134764285D01*
X145378571Y-135002380D02*
X145283333Y-134954761D01*
X145188095Y-134859523D01*
X145140476Y-134669047D01*
X145140476Y-134335714D01*
X145188095Y-134145238D01*
X145283333Y-134050000D01*
X145378571Y-134002380D01*
X145569047Y-134002380D01*
X145664285Y-134050000D01*
X145759523Y-134145238D01*
X145807142Y-134335714D01*
X145807142Y-134669047D01*
X145759523Y-134859523D01*
X145664285Y-134954761D01*
X145569047Y-135002380D01*
X145378571Y-135002380D01*
X146759523Y-135002380D02*
X146188095Y-135002380D01*
X146473809Y-135002380D02*
X146473809Y-134002380D01*
X146378571Y-134145238D01*
X146283333Y-134240476D01*
X146188095Y-134288095D01*
X141830952Y-142402380D02*
X141830952Y-141402380D01*
X142164285Y-142116666D01*
X142497619Y-141402380D01*
X142497619Y-142402380D01*
X143259523Y-141402380D02*
X143259523Y-142116666D01*
X143211904Y-142259523D01*
X143116666Y-142354761D01*
X142973809Y-142402380D01*
X142878571Y-142402380D01*
X143735714Y-142402380D02*
X143735714Y-141402380D01*
X143735714Y-141878571D02*
X144307142Y-141878571D01*
X144307142Y-142402380D02*
X144307142Y-141402380D01*
X145307142Y-142402380D02*
X144735714Y-142402380D01*
X145021428Y-142402380D02*
X145021428Y-141402380D01*
X144926190Y-141545238D01*
X144830952Y-141640476D01*
X144735714Y-141688095D01*
X146259523Y-142402380D02*
X145688095Y-142402380D01*
X145973809Y-142402380D02*
X145973809Y-141402380D01*
X145878571Y-141545238D01*
X145783333Y-141640476D01*
X145688095Y-141688095D01*
X146878571Y-141402380D02*
X146973809Y-141402380D01*
X147069047Y-141450000D01*
X147116666Y-141497619D01*
X147164285Y-141592857D01*
X147211904Y-141783333D01*
X147211904Y-142021428D01*
X147164285Y-142211904D01*
X147116666Y-142307142D01*
X147069047Y-142354761D01*
X146973809Y-142402380D01*
X146878571Y-142402380D01*
X146783333Y-142354761D01*
X146735714Y-142307142D01*
X146688095Y-142211904D01*
X146640476Y-142021428D01*
X146640476Y-141783333D01*
X146688095Y-141592857D01*
X146735714Y-141497619D01*
X146783333Y-141450000D01*
X146878571Y-141402380D01*
X147592857Y-141497619D02*
X147640476Y-141450000D01*
X147735714Y-141402380D01*
X147973809Y-141402380D01*
X148069047Y-141450000D01*
X148116666Y-141497619D01*
X148164285Y-141592857D01*
X148164285Y-141688095D01*
X148116666Y-141830952D01*
X147545238Y-142402380D01*
X148164285Y-142402380D01*
X149116666Y-142402380D02*
X148545238Y-142402380D01*
X148830952Y-142402380D02*
X148830952Y-141402380D01*
X148735714Y-141545238D01*
X148640476Y-141640476D01*
X148545238Y-141688095D01*
X150069047Y-141450000D02*
X149973809Y-141402380D01*
X149830952Y-141402380D01*
X149688095Y-141450000D01*
X149592857Y-141545238D01*
X149545238Y-141640476D01*
X149497619Y-141830952D01*
X149497619Y-141973809D01*
X149545238Y-142164285D01*
X149592857Y-142259523D01*
X149688095Y-142354761D01*
X149830952Y-142402380D01*
X149926190Y-142402380D01*
X150069047Y-142354761D01*
X150116666Y-142307142D01*
X150116666Y-141973809D01*
X149926190Y-141973809D01*
%TO.C,Q2*%
X147354761Y-88597619D02*
X147259523Y-88550000D01*
X147164285Y-88454761D01*
X147021428Y-88311904D01*
X146926190Y-88264285D01*
X146830952Y-88264285D01*
X146878571Y-88502380D02*
X146783333Y-88454761D01*
X146688095Y-88359523D01*
X146640476Y-88169047D01*
X146640476Y-87835714D01*
X146688095Y-87645238D01*
X146783333Y-87550000D01*
X146878571Y-87502380D01*
X147069047Y-87502380D01*
X147164285Y-87550000D01*
X147259523Y-87645238D01*
X147307142Y-87835714D01*
X147307142Y-88169047D01*
X147259523Y-88359523D01*
X147164285Y-88454761D01*
X147069047Y-88502380D01*
X146878571Y-88502380D01*
X147688095Y-87597619D02*
X147735714Y-87550000D01*
X147830952Y-87502380D01*
X148069047Y-87502380D01*
X148164285Y-87550000D01*
X148211904Y-87597619D01*
X148259523Y-87692857D01*
X148259523Y-87788095D01*
X148211904Y-87930952D01*
X147640476Y-88502380D01*
X148259523Y-88502380D01*
X143330952Y-95902380D02*
X143330952Y-94902380D01*
X143664285Y-95616666D01*
X143997619Y-94902380D01*
X143997619Y-95902380D01*
X144759523Y-94902380D02*
X144759523Y-95616666D01*
X144711904Y-95759523D01*
X144616666Y-95854761D01*
X144473809Y-95902380D01*
X144378571Y-95902380D01*
X145235714Y-95902380D02*
X145235714Y-94902380D01*
X145235714Y-95378571D02*
X145807142Y-95378571D01*
X145807142Y-95902380D02*
X145807142Y-94902380D01*
X146807142Y-95902380D02*
X146235714Y-95902380D01*
X146521428Y-95902380D02*
X146521428Y-94902380D01*
X146426190Y-95045238D01*
X146330952Y-95140476D01*
X146235714Y-95188095D01*
X147759523Y-95902380D02*
X147188095Y-95902380D01*
X147473809Y-95902380D02*
X147473809Y-94902380D01*
X147378571Y-95045238D01*
X147283333Y-95140476D01*
X147188095Y-95188095D01*
X148378571Y-94902380D02*
X148473809Y-94902380D01*
X148569047Y-94950000D01*
X148616666Y-94997619D01*
X148664285Y-95092857D01*
X148711904Y-95283333D01*
X148711904Y-95521428D01*
X148664285Y-95711904D01*
X148616666Y-95807142D01*
X148569047Y-95854761D01*
X148473809Y-95902380D01*
X148378571Y-95902380D01*
X148283333Y-95854761D01*
X148235714Y-95807142D01*
X148188095Y-95711904D01*
X148140476Y-95521428D01*
X148140476Y-95283333D01*
X148188095Y-95092857D01*
X148235714Y-94997619D01*
X148283333Y-94950000D01*
X148378571Y-94902380D01*
X149092857Y-94997619D02*
X149140476Y-94950000D01*
X149235714Y-94902380D01*
X149473809Y-94902380D01*
X149569047Y-94950000D01*
X149616666Y-94997619D01*
X149664285Y-95092857D01*
X149664285Y-95188095D01*
X149616666Y-95330952D01*
X149045238Y-95902380D01*
X149664285Y-95902380D01*
X150616666Y-95902380D02*
X150045238Y-95902380D01*
X150330952Y-95902380D02*
X150330952Y-94902380D01*
X150235714Y-95045238D01*
X150140476Y-95140476D01*
X150045238Y-95188095D01*
X151569047Y-94950000D02*
X151473809Y-94902380D01*
X151330952Y-94902380D01*
X151188095Y-94950000D01*
X151092857Y-95045238D01*
X151045238Y-95140476D01*
X150997619Y-95330952D01*
X150997619Y-95473809D01*
X151045238Y-95664285D01*
X151092857Y-95759523D01*
X151188095Y-95854761D01*
X151330952Y-95902380D01*
X151426190Y-95902380D01*
X151569047Y-95854761D01*
X151616666Y-95807142D01*
X151616666Y-95473809D01*
X151426190Y-95473809D01*
%TO.C,Q7*%
X125854761Y-135097619D02*
X125759523Y-135050000D01*
X125664285Y-134954761D01*
X125521428Y-134811904D01*
X125426190Y-134764285D01*
X125330952Y-134764285D01*
X125378571Y-135002380D02*
X125283333Y-134954761D01*
X125188095Y-134859523D01*
X125140476Y-134669047D01*
X125140476Y-134335714D01*
X125188095Y-134145238D01*
X125283333Y-134050000D01*
X125378571Y-134002380D01*
X125569047Y-134002380D01*
X125664285Y-134050000D01*
X125759523Y-134145238D01*
X125807142Y-134335714D01*
X125807142Y-134669047D01*
X125759523Y-134859523D01*
X125664285Y-134954761D01*
X125569047Y-135002380D01*
X125378571Y-135002380D01*
X126140476Y-134002380D02*
X126807142Y-134002380D01*
X126378571Y-135002380D01*
X121830952Y-142402380D02*
X121830952Y-141402380D01*
X122164285Y-142116666D01*
X122497619Y-141402380D01*
X122497619Y-142402380D01*
X123259523Y-141402380D02*
X123259523Y-142116666D01*
X123211904Y-142259523D01*
X123116666Y-142354761D01*
X122973809Y-142402380D01*
X122878571Y-142402380D01*
X123735714Y-142402380D02*
X123735714Y-141402380D01*
X123735714Y-141878571D02*
X124307142Y-141878571D01*
X124307142Y-142402380D02*
X124307142Y-141402380D01*
X125307142Y-142402380D02*
X124735714Y-142402380D01*
X125021428Y-142402380D02*
X125021428Y-141402380D01*
X124926190Y-141545238D01*
X124830952Y-141640476D01*
X124735714Y-141688095D01*
X126259523Y-142402380D02*
X125688095Y-142402380D01*
X125973809Y-142402380D02*
X125973809Y-141402380D01*
X125878571Y-141545238D01*
X125783333Y-141640476D01*
X125688095Y-141688095D01*
X126878571Y-141402380D02*
X126973809Y-141402380D01*
X127069047Y-141450000D01*
X127116666Y-141497619D01*
X127164285Y-141592857D01*
X127211904Y-141783333D01*
X127211904Y-142021428D01*
X127164285Y-142211904D01*
X127116666Y-142307142D01*
X127069047Y-142354761D01*
X126973809Y-142402380D01*
X126878571Y-142402380D01*
X126783333Y-142354761D01*
X126735714Y-142307142D01*
X126688095Y-142211904D01*
X126640476Y-142021428D01*
X126640476Y-141783333D01*
X126688095Y-141592857D01*
X126735714Y-141497619D01*
X126783333Y-141450000D01*
X126878571Y-141402380D01*
X127592857Y-141497619D02*
X127640476Y-141450000D01*
X127735714Y-141402380D01*
X127973809Y-141402380D01*
X128069047Y-141450000D01*
X128116666Y-141497619D01*
X128164285Y-141592857D01*
X128164285Y-141688095D01*
X128116666Y-141830952D01*
X127545238Y-142402380D01*
X128164285Y-142402380D01*
X128545238Y-141497619D02*
X128592857Y-141450000D01*
X128688095Y-141402380D01*
X128926190Y-141402380D01*
X129021428Y-141450000D01*
X129069047Y-141497619D01*
X129116666Y-141592857D01*
X129116666Y-141688095D01*
X129069047Y-141830952D01*
X128497619Y-142402380D01*
X129116666Y-142402380D01*
X130069047Y-141450000D02*
X129973809Y-141402380D01*
X129830952Y-141402380D01*
X129688095Y-141450000D01*
X129592857Y-141545238D01*
X129545238Y-141640476D01*
X129497619Y-141830952D01*
X129497619Y-141973809D01*
X129545238Y-142164285D01*
X129592857Y-142259523D01*
X129688095Y-142354761D01*
X129830952Y-142402380D01*
X129926190Y-142402380D01*
X130069047Y-142354761D01*
X130116666Y-142307142D01*
X130116666Y-141973809D01*
X129926190Y-141973809D01*
%TO.C,Q8*%
X123854761Y-88597619D02*
X123759523Y-88550000D01*
X123664285Y-88454761D01*
X123521428Y-88311904D01*
X123426190Y-88264285D01*
X123330952Y-88264285D01*
X123378571Y-88502380D02*
X123283333Y-88454761D01*
X123188095Y-88359523D01*
X123140476Y-88169047D01*
X123140476Y-87835714D01*
X123188095Y-87645238D01*
X123283333Y-87550000D01*
X123378571Y-87502380D01*
X123569047Y-87502380D01*
X123664285Y-87550000D01*
X123759523Y-87645238D01*
X123807142Y-87835714D01*
X123807142Y-88169047D01*
X123759523Y-88359523D01*
X123664285Y-88454761D01*
X123569047Y-88502380D01*
X123378571Y-88502380D01*
X124378571Y-87930952D02*
X124283333Y-87883333D01*
X124235714Y-87835714D01*
X124188095Y-87740476D01*
X124188095Y-87692857D01*
X124235714Y-87597619D01*
X124283333Y-87550000D01*
X124378571Y-87502380D01*
X124569047Y-87502380D01*
X124664285Y-87550000D01*
X124711904Y-87597619D01*
X124759523Y-87692857D01*
X124759523Y-87740476D01*
X124711904Y-87835714D01*
X124664285Y-87883333D01*
X124569047Y-87930952D01*
X124378571Y-87930952D01*
X124283333Y-87978571D01*
X124235714Y-88026190D01*
X124188095Y-88121428D01*
X124188095Y-88311904D01*
X124235714Y-88407142D01*
X124283333Y-88454761D01*
X124378571Y-88502380D01*
X124569047Y-88502380D01*
X124664285Y-88454761D01*
X124711904Y-88407142D01*
X124759523Y-88311904D01*
X124759523Y-88121428D01*
X124711904Y-88026190D01*
X124664285Y-87978571D01*
X124569047Y-87930952D01*
X119830952Y-95902380D02*
X119830952Y-94902380D01*
X120164285Y-95616666D01*
X120497619Y-94902380D01*
X120497619Y-95902380D01*
X121259523Y-94902380D02*
X121259523Y-95616666D01*
X121211904Y-95759523D01*
X121116666Y-95854761D01*
X120973809Y-95902380D01*
X120878571Y-95902380D01*
X121735714Y-95902380D02*
X121735714Y-94902380D01*
X121735714Y-95378571D02*
X122307142Y-95378571D01*
X122307142Y-95902380D02*
X122307142Y-94902380D01*
X123307142Y-95902380D02*
X122735714Y-95902380D01*
X123021428Y-95902380D02*
X123021428Y-94902380D01*
X122926190Y-95045238D01*
X122830952Y-95140476D01*
X122735714Y-95188095D01*
X124259523Y-95902380D02*
X123688095Y-95902380D01*
X123973809Y-95902380D02*
X123973809Y-94902380D01*
X123878571Y-95045238D01*
X123783333Y-95140476D01*
X123688095Y-95188095D01*
X124878571Y-94902380D02*
X124973809Y-94902380D01*
X125069047Y-94950000D01*
X125116666Y-94997619D01*
X125164285Y-95092857D01*
X125211904Y-95283333D01*
X125211904Y-95521428D01*
X125164285Y-95711904D01*
X125116666Y-95807142D01*
X125069047Y-95854761D01*
X124973809Y-95902380D01*
X124878571Y-95902380D01*
X124783333Y-95854761D01*
X124735714Y-95807142D01*
X124688095Y-95711904D01*
X124640476Y-95521428D01*
X124640476Y-95283333D01*
X124688095Y-95092857D01*
X124735714Y-94997619D01*
X124783333Y-94950000D01*
X124878571Y-94902380D01*
X125592857Y-94997619D02*
X125640476Y-94950000D01*
X125735714Y-94902380D01*
X125973809Y-94902380D01*
X126069047Y-94950000D01*
X126116666Y-94997619D01*
X126164285Y-95092857D01*
X126164285Y-95188095D01*
X126116666Y-95330952D01*
X125545238Y-95902380D01*
X126164285Y-95902380D01*
X126545238Y-94997619D02*
X126592857Y-94950000D01*
X126688095Y-94902380D01*
X126926190Y-94902380D01*
X127021428Y-94950000D01*
X127069047Y-94997619D01*
X127116666Y-95092857D01*
X127116666Y-95188095D01*
X127069047Y-95330952D01*
X126497619Y-95902380D01*
X127116666Y-95902380D01*
X128069047Y-94950000D02*
X127973809Y-94902380D01*
X127830952Y-94902380D01*
X127688095Y-94950000D01*
X127592857Y-95045238D01*
X127545238Y-95140476D01*
X127497619Y-95330952D01*
X127497619Y-95473809D01*
X127545238Y-95664285D01*
X127592857Y-95759523D01*
X127688095Y-95854761D01*
X127830952Y-95902380D01*
X127926190Y-95902380D01*
X128069047Y-95854761D01*
X128116666Y-95807142D01*
X128116666Y-95473809D01*
X127926190Y-95473809D01*
%TO.C,R1*%
X152452380Y-131166666D02*
X151976190Y-131500000D01*
X152452380Y-131738095D02*
X151452380Y-131738095D01*
X151452380Y-131357142D01*
X151500000Y-131261904D01*
X151547619Y-131214285D01*
X151642857Y-131166666D01*
X151785714Y-131166666D01*
X151880952Y-131214285D01*
X151928571Y-131261904D01*
X151976190Y-131357142D01*
X151976190Y-131738095D01*
X152452380Y-130214285D02*
X152452380Y-130785714D01*
X152452380Y-130500000D02*
X151452380Y-130500000D01*
X151595238Y-130595238D01*
X151690476Y-130690476D01*
X151738095Y-130785714D01*
X152372380Y-125245238D02*
X152372380Y-125816666D01*
X152372380Y-125530952D02*
X151372380Y-125530952D01*
X151515238Y-125626190D01*
X151610476Y-125721428D01*
X151658095Y-125816666D01*
X151372380Y-124626190D02*
X151372380Y-124530952D01*
X151420000Y-124435714D01*
X151467619Y-124388095D01*
X151562857Y-124340476D01*
X151753333Y-124292857D01*
X151991428Y-124292857D01*
X152181904Y-124340476D01*
X152277142Y-124388095D01*
X152324761Y-124435714D01*
X152372380Y-124530952D01*
X152372380Y-124626190D01*
X152324761Y-124721428D01*
X152277142Y-124769047D01*
X152181904Y-124816666D01*
X151991428Y-124864285D01*
X151753333Y-124864285D01*
X151562857Y-124816666D01*
X151467619Y-124769047D01*
X151420000Y-124721428D01*
X151372380Y-124626190D01*
X152372380Y-123864285D02*
X151372380Y-123864285D01*
X151991428Y-123769047D02*
X152372380Y-123483333D01*
X151705714Y-123483333D02*
X152086666Y-123864285D01*
%TO.C,R2*%
X151952380Y-82166666D02*
X151476190Y-82500000D01*
X151952380Y-82738095D02*
X150952380Y-82738095D01*
X150952380Y-82357142D01*
X151000000Y-82261904D01*
X151047619Y-82214285D01*
X151142857Y-82166666D01*
X151285714Y-82166666D01*
X151380952Y-82214285D01*
X151428571Y-82261904D01*
X151476190Y-82357142D01*
X151476190Y-82738095D01*
X151047619Y-81785714D02*
X151000000Y-81738095D01*
X150952380Y-81642857D01*
X150952380Y-81404761D01*
X151000000Y-81309523D01*
X151047619Y-81261904D01*
X151142857Y-81214285D01*
X151238095Y-81214285D01*
X151380952Y-81261904D01*
X151952380Y-81833333D01*
X151952380Y-81214285D01*
X151872380Y-79745238D02*
X151872380Y-80316666D01*
X151872380Y-80030952D02*
X150872380Y-80030952D01*
X151015238Y-80126190D01*
X151110476Y-80221428D01*
X151158095Y-80316666D01*
X150872380Y-79126190D02*
X150872380Y-79030952D01*
X150920000Y-78935714D01*
X150967619Y-78888095D01*
X151062857Y-78840476D01*
X151253333Y-78792857D01*
X151491428Y-78792857D01*
X151681904Y-78840476D01*
X151777142Y-78888095D01*
X151824761Y-78935714D01*
X151872380Y-79030952D01*
X151872380Y-79126190D01*
X151824761Y-79221428D01*
X151777142Y-79269047D01*
X151681904Y-79316666D01*
X151491428Y-79364285D01*
X151253333Y-79364285D01*
X151062857Y-79316666D01*
X150967619Y-79269047D01*
X150920000Y-79221428D01*
X150872380Y-79126190D01*
X151872380Y-78364285D02*
X150872380Y-78364285D01*
X151491428Y-78269047D02*
X151872380Y-77983333D01*
X151205714Y-77983333D02*
X151586666Y-78364285D01*
%TO.C,R3*%
X140952380Y-128666666D02*
X140476190Y-129000000D01*
X140952380Y-129238095D02*
X139952380Y-129238095D01*
X139952380Y-128857142D01*
X140000000Y-128761904D01*
X140047619Y-128714285D01*
X140142857Y-128666666D01*
X140285714Y-128666666D01*
X140380952Y-128714285D01*
X140428571Y-128761904D01*
X140476190Y-128857142D01*
X140476190Y-129238095D01*
X139952380Y-128333333D02*
X139952380Y-127714285D01*
X140333333Y-128047619D01*
X140333333Y-127904761D01*
X140380952Y-127809523D01*
X140428571Y-127761904D01*
X140523809Y-127714285D01*
X140761904Y-127714285D01*
X140857142Y-127761904D01*
X140904761Y-127809523D01*
X140952380Y-127904761D01*
X140952380Y-128190476D01*
X140904761Y-128285714D01*
X140857142Y-128333333D01*
X140365714Y-125778571D02*
X141032380Y-125778571D01*
X139984761Y-126016666D02*
X140699047Y-126254761D01*
X140699047Y-125635714D01*
X140937142Y-125254761D02*
X140984761Y-125207142D01*
X141032380Y-125254761D01*
X140984761Y-125302380D01*
X140937142Y-125254761D01*
X141032380Y-125254761D01*
X140032380Y-124873809D02*
X140032380Y-124207142D01*
X141032380Y-124635714D01*
X141032380Y-123826190D02*
X140032380Y-123826190D01*
X140651428Y-123730952D02*
X141032380Y-123445238D01*
X140365714Y-123445238D02*
X140746666Y-123826190D01*
%TO.C,R4*%
X139952380Y-82166666D02*
X139476190Y-82500000D01*
X139952380Y-82738095D02*
X138952380Y-82738095D01*
X138952380Y-82357142D01*
X139000000Y-82261904D01*
X139047619Y-82214285D01*
X139142857Y-82166666D01*
X139285714Y-82166666D01*
X139380952Y-82214285D01*
X139428571Y-82261904D01*
X139476190Y-82357142D01*
X139476190Y-82738095D01*
X139285714Y-81309523D02*
X139952380Y-81309523D01*
X138904761Y-81547619D02*
X139619047Y-81785714D01*
X139619047Y-81166666D01*
X139365714Y-79778571D02*
X140032380Y-79778571D01*
X138984761Y-80016666D02*
X139699047Y-80254761D01*
X139699047Y-79635714D01*
X139937142Y-79254761D02*
X139984761Y-79207142D01*
X140032380Y-79254761D01*
X139984761Y-79302380D01*
X139937142Y-79254761D01*
X140032380Y-79254761D01*
X139032380Y-78873809D02*
X139032380Y-78207142D01*
X140032380Y-78635714D01*
X140032380Y-77826190D02*
X139032380Y-77826190D01*
X139651428Y-77730952D02*
X140032380Y-77445238D01*
X139365714Y-77445238D02*
X139746666Y-77826190D01*
%TO.C,R5*%
X109952380Y-113166666D02*
X109476190Y-113500000D01*
X109952380Y-113738095D02*
X108952380Y-113738095D01*
X108952380Y-113357142D01*
X109000000Y-113261904D01*
X109047619Y-113214285D01*
X109142857Y-113166666D01*
X109285714Y-113166666D01*
X109380952Y-113214285D01*
X109428571Y-113261904D01*
X109476190Y-113357142D01*
X109476190Y-113738095D01*
X108952380Y-112261904D02*
X108952380Y-112738095D01*
X109428571Y-112785714D01*
X109380952Y-112738095D01*
X109333333Y-112642857D01*
X109333333Y-112404761D01*
X109380952Y-112309523D01*
X109428571Y-112261904D01*
X109523809Y-112214285D01*
X109761904Y-112214285D01*
X109857142Y-112261904D01*
X109904761Y-112309523D01*
X109952380Y-112404761D01*
X109952380Y-112642857D01*
X109904761Y-112738095D01*
X109857142Y-112785714D01*
X109032380Y-110635714D02*
X109032380Y-110016666D01*
X109413333Y-110350000D01*
X109413333Y-110207142D01*
X109460952Y-110111904D01*
X109508571Y-110064285D01*
X109603809Y-110016666D01*
X109841904Y-110016666D01*
X109937142Y-110064285D01*
X109984761Y-110111904D01*
X110032380Y-110207142D01*
X110032380Y-110492857D01*
X109984761Y-110588095D01*
X109937142Y-110635714D01*
X109032380Y-109683333D02*
X109032380Y-109064285D01*
X109413333Y-109397619D01*
X109413333Y-109254761D01*
X109460952Y-109159523D01*
X109508571Y-109111904D01*
X109603809Y-109064285D01*
X109841904Y-109064285D01*
X109937142Y-109111904D01*
X109984761Y-109159523D01*
X110032380Y-109254761D01*
X110032380Y-109540476D01*
X109984761Y-109635714D01*
X109937142Y-109683333D01*
X109032380Y-108445238D02*
X109032380Y-108350000D01*
X109080000Y-108254761D01*
X109127619Y-108207142D01*
X109222857Y-108159523D01*
X109413333Y-108111904D01*
X109651428Y-108111904D01*
X109841904Y-108159523D01*
X109937142Y-108207142D01*
X109984761Y-108254761D01*
X110032380Y-108350000D01*
X110032380Y-108445238D01*
X109984761Y-108540476D01*
X109937142Y-108588095D01*
X109841904Y-108635714D01*
X109651428Y-108683333D01*
X109413333Y-108683333D01*
X109222857Y-108635714D01*
X109127619Y-108588095D01*
X109080000Y-108540476D01*
X109032380Y-108445238D01*
%TO.C,R6*%
X113872380Y-63016666D02*
X113396190Y-63350000D01*
X113872380Y-63588095D02*
X112872380Y-63588095D01*
X112872380Y-63207142D01*
X112920000Y-63111904D01*
X112967619Y-63064285D01*
X113062857Y-63016666D01*
X113205714Y-63016666D01*
X113300952Y-63064285D01*
X113348571Y-63111904D01*
X113396190Y-63207142D01*
X113396190Y-63588095D01*
X112872380Y-62159523D02*
X112872380Y-62350000D01*
X112920000Y-62445238D01*
X112967619Y-62492857D01*
X113110476Y-62588095D01*
X113300952Y-62635714D01*
X113681904Y-62635714D01*
X113777142Y-62588095D01*
X113824761Y-62540476D01*
X113872380Y-62445238D01*
X113872380Y-62254761D01*
X113824761Y-62159523D01*
X113777142Y-62111904D01*
X113681904Y-62064285D01*
X113443809Y-62064285D01*
X113348571Y-62111904D01*
X113300952Y-62159523D01*
X113253333Y-62254761D01*
X113253333Y-62445238D01*
X113300952Y-62540476D01*
X113348571Y-62588095D01*
X113443809Y-62635714D01*
X112952380Y-59285714D02*
X112952380Y-58666666D01*
X113333333Y-59000000D01*
X113333333Y-58857142D01*
X113380952Y-58761904D01*
X113428571Y-58714285D01*
X113523809Y-58666666D01*
X113761904Y-58666666D01*
X113857142Y-58714285D01*
X113904761Y-58761904D01*
X113952380Y-58857142D01*
X113952380Y-59142857D01*
X113904761Y-59238095D01*
X113857142Y-59285714D01*
X112952380Y-58333333D02*
X112952380Y-57714285D01*
X113333333Y-58047619D01*
X113333333Y-57904761D01*
X113380952Y-57809523D01*
X113428571Y-57761904D01*
X113523809Y-57714285D01*
X113761904Y-57714285D01*
X113857142Y-57761904D01*
X113904761Y-57809523D01*
X113952380Y-57904761D01*
X113952380Y-58190476D01*
X113904761Y-58285714D01*
X113857142Y-58333333D01*
X112952380Y-57095238D02*
X112952380Y-57000000D01*
X113000000Y-56904761D01*
X113047619Y-56857142D01*
X113142857Y-56809523D01*
X113333333Y-56761904D01*
X113571428Y-56761904D01*
X113761904Y-56809523D01*
X113857142Y-56857142D01*
X113904761Y-56904761D01*
X113952380Y-57000000D01*
X113952380Y-57095238D01*
X113904761Y-57190476D01*
X113857142Y-57238095D01*
X113761904Y-57285714D01*
X113571428Y-57333333D01*
X113333333Y-57333333D01*
X113142857Y-57285714D01*
X113047619Y-57238095D01*
X113000000Y-57190476D01*
X112952380Y-57095238D01*
%TO.C,R7*%
X132452380Y-127166666D02*
X131976190Y-127500000D01*
X132452380Y-127738095D02*
X131452380Y-127738095D01*
X131452380Y-127357142D01*
X131500000Y-127261904D01*
X131547619Y-127214285D01*
X131642857Y-127166666D01*
X131785714Y-127166666D01*
X131880952Y-127214285D01*
X131928571Y-127261904D01*
X131976190Y-127357142D01*
X131976190Y-127738095D01*
X131452380Y-126833333D02*
X131452380Y-126166666D01*
X132452380Y-126595238D01*
X131372380Y-125435714D02*
X131372380Y-124816666D01*
X131753333Y-125150000D01*
X131753333Y-125007142D01*
X131800952Y-124911904D01*
X131848571Y-124864285D01*
X131943809Y-124816666D01*
X132181904Y-124816666D01*
X132277142Y-124864285D01*
X132324761Y-124911904D01*
X132372380Y-125007142D01*
X132372380Y-125292857D01*
X132324761Y-125388095D01*
X132277142Y-125435714D01*
X131372380Y-124483333D02*
X131372380Y-123864285D01*
X131753333Y-124197619D01*
X131753333Y-124054761D01*
X131800952Y-123959523D01*
X131848571Y-123911904D01*
X131943809Y-123864285D01*
X132181904Y-123864285D01*
X132277142Y-123911904D01*
X132324761Y-123959523D01*
X132372380Y-124054761D01*
X132372380Y-124340476D01*
X132324761Y-124435714D01*
X132277142Y-124483333D01*
X131372380Y-123245238D02*
X131372380Y-123150000D01*
X131420000Y-123054761D01*
X131467619Y-123007142D01*
X131562857Y-122959523D01*
X131753333Y-122911904D01*
X131991428Y-122911904D01*
X132181904Y-122959523D01*
X132277142Y-123007142D01*
X132324761Y-123054761D01*
X132372380Y-123150000D01*
X132372380Y-123245238D01*
X132324761Y-123340476D01*
X132277142Y-123388095D01*
X132181904Y-123435714D01*
X131991428Y-123483333D01*
X131753333Y-123483333D01*
X131562857Y-123435714D01*
X131467619Y-123388095D01*
X131420000Y-123340476D01*
X131372380Y-123245238D01*
%TO.C,R8*%
X128452380Y-81666666D02*
X127976190Y-82000000D01*
X128452380Y-82238095D02*
X127452380Y-82238095D01*
X127452380Y-81857142D01*
X127500000Y-81761904D01*
X127547619Y-81714285D01*
X127642857Y-81666666D01*
X127785714Y-81666666D01*
X127880952Y-81714285D01*
X127928571Y-81761904D01*
X127976190Y-81857142D01*
X127976190Y-82238095D01*
X127880952Y-81095238D02*
X127833333Y-81190476D01*
X127785714Y-81238095D01*
X127690476Y-81285714D01*
X127642857Y-81285714D01*
X127547619Y-81238095D01*
X127500000Y-81190476D01*
X127452380Y-81095238D01*
X127452380Y-80904761D01*
X127500000Y-80809523D01*
X127547619Y-80761904D01*
X127642857Y-80714285D01*
X127690476Y-80714285D01*
X127785714Y-80761904D01*
X127833333Y-80809523D01*
X127880952Y-80904761D01*
X127880952Y-81095238D01*
X127928571Y-81190476D01*
X127976190Y-81238095D01*
X128071428Y-81285714D01*
X128261904Y-81285714D01*
X128357142Y-81238095D01*
X128404761Y-81190476D01*
X128452380Y-81095238D01*
X128452380Y-80904761D01*
X128404761Y-80809523D01*
X128357142Y-80761904D01*
X128261904Y-80714285D01*
X128071428Y-80714285D01*
X127976190Y-80761904D01*
X127928571Y-80809523D01*
X127880952Y-80904761D01*
X127372380Y-79935714D02*
X127372380Y-79316666D01*
X127753333Y-79650000D01*
X127753333Y-79507142D01*
X127800952Y-79411904D01*
X127848571Y-79364285D01*
X127943809Y-79316666D01*
X128181904Y-79316666D01*
X128277142Y-79364285D01*
X128324761Y-79411904D01*
X128372380Y-79507142D01*
X128372380Y-79792857D01*
X128324761Y-79888095D01*
X128277142Y-79935714D01*
X127372380Y-78983333D02*
X127372380Y-78364285D01*
X127753333Y-78697619D01*
X127753333Y-78554761D01*
X127800952Y-78459523D01*
X127848571Y-78411904D01*
X127943809Y-78364285D01*
X128181904Y-78364285D01*
X128277142Y-78411904D01*
X128324761Y-78459523D01*
X128372380Y-78554761D01*
X128372380Y-78840476D01*
X128324761Y-78935714D01*
X128277142Y-78983333D01*
X127372380Y-77745238D02*
X127372380Y-77650000D01*
X127420000Y-77554761D01*
X127467619Y-77507142D01*
X127562857Y-77459523D01*
X127753333Y-77411904D01*
X127991428Y-77411904D01*
X128181904Y-77459523D01*
X128277142Y-77507142D01*
X128324761Y-77554761D01*
X128372380Y-77650000D01*
X128372380Y-77745238D01*
X128324761Y-77840476D01*
X128277142Y-77888095D01*
X128181904Y-77935714D01*
X127991428Y-77983333D01*
X127753333Y-77983333D01*
X127562857Y-77935714D01*
X127467619Y-77888095D01*
X127420000Y-77840476D01*
X127372380Y-77745238D01*
%TO.C,R9*%
X133683333Y-96532380D02*
X133350000Y-96056190D01*
X133111904Y-96532380D02*
X133111904Y-95532380D01*
X133492857Y-95532380D01*
X133588095Y-95580000D01*
X133635714Y-95627619D01*
X133683333Y-95722857D01*
X133683333Y-95865714D01*
X133635714Y-95960952D01*
X133588095Y-96008571D01*
X133492857Y-96056190D01*
X133111904Y-96056190D01*
X134159523Y-96532380D02*
X134350000Y-96532380D01*
X134445238Y-96484761D01*
X134492857Y-96437142D01*
X134588095Y-96294285D01*
X134635714Y-96103809D01*
X134635714Y-95722857D01*
X134588095Y-95627619D01*
X134540476Y-95580000D01*
X134445238Y-95532380D01*
X134254761Y-95532380D01*
X134159523Y-95580000D01*
X134111904Y-95627619D01*
X134064285Y-95722857D01*
X134064285Y-95960952D01*
X134111904Y-96056190D01*
X134159523Y-96103809D01*
X134254761Y-96151428D01*
X134445238Y-96151428D01*
X134540476Y-96103809D01*
X134588095Y-96056190D01*
X134635714Y-95960952D01*
X135904761Y-96452380D02*
X135333333Y-96452380D01*
X135619047Y-96452380D02*
X135619047Y-95452380D01*
X135523809Y-95595238D01*
X135428571Y-95690476D01*
X135333333Y-95738095D01*
X136523809Y-95452380D02*
X136619047Y-95452380D01*
X136714285Y-95500000D01*
X136761904Y-95547619D01*
X136809523Y-95642857D01*
X136857142Y-95833333D01*
X136857142Y-96071428D01*
X136809523Y-96261904D01*
X136761904Y-96357142D01*
X136714285Y-96404761D01*
X136619047Y-96452380D01*
X136523809Y-96452380D01*
X136428571Y-96404761D01*
X136380952Y-96357142D01*
X136333333Y-96261904D01*
X136285714Y-96071428D01*
X136285714Y-95833333D01*
X136333333Y-95642857D01*
X136380952Y-95547619D01*
X136428571Y-95500000D01*
X136523809Y-95452380D01*
X137285714Y-96452380D02*
X137285714Y-95452380D01*
X137380952Y-96071428D02*
X137666666Y-96452380D01*
X137666666Y-95785714D02*
X137285714Y-96166666D01*
%TO.C,R10*%
X133707142Y-55032380D02*
X133373809Y-54556190D01*
X133135714Y-55032380D02*
X133135714Y-54032380D01*
X133516666Y-54032380D01*
X133611904Y-54080000D01*
X133659523Y-54127619D01*
X133707142Y-54222857D01*
X133707142Y-54365714D01*
X133659523Y-54460952D01*
X133611904Y-54508571D01*
X133516666Y-54556190D01*
X133135714Y-54556190D01*
X134659523Y-55032380D02*
X134088095Y-55032380D01*
X134373809Y-55032380D02*
X134373809Y-54032380D01*
X134278571Y-54175238D01*
X134183333Y-54270476D01*
X134088095Y-54318095D01*
X135278571Y-54032380D02*
X135373809Y-54032380D01*
X135469047Y-54080000D01*
X135516666Y-54127619D01*
X135564285Y-54222857D01*
X135611904Y-54413333D01*
X135611904Y-54651428D01*
X135564285Y-54841904D01*
X135516666Y-54937142D01*
X135469047Y-54984761D01*
X135373809Y-55032380D01*
X135278571Y-55032380D01*
X135183333Y-54984761D01*
X135135714Y-54937142D01*
X135088095Y-54841904D01*
X135040476Y-54651428D01*
X135040476Y-54413333D01*
X135088095Y-54222857D01*
X135135714Y-54127619D01*
X135183333Y-54080000D01*
X135278571Y-54032380D01*
X137404761Y-54952380D02*
X136833333Y-54952380D01*
X137119047Y-54952380D02*
X137119047Y-53952380D01*
X137023809Y-54095238D01*
X136928571Y-54190476D01*
X136833333Y-54238095D01*
X138023809Y-53952380D02*
X138119047Y-53952380D01*
X138214285Y-54000000D01*
X138261904Y-54047619D01*
X138309523Y-54142857D01*
X138357142Y-54333333D01*
X138357142Y-54571428D01*
X138309523Y-54761904D01*
X138261904Y-54857142D01*
X138214285Y-54904761D01*
X138119047Y-54952380D01*
X138023809Y-54952380D01*
X137928571Y-54904761D01*
X137880952Y-54857142D01*
X137833333Y-54761904D01*
X137785714Y-54571428D01*
X137785714Y-54333333D01*
X137833333Y-54142857D01*
X137880952Y-54047619D01*
X137928571Y-54000000D01*
X138023809Y-53952380D01*
X138785714Y-54952380D02*
X138785714Y-53952380D01*
X138880952Y-54571428D02*
X139166666Y-54952380D01*
X139166666Y-54285714D02*
X138785714Y-54666666D01*
%TO.C,R11*%
X120532380Y-130142857D02*
X120056190Y-130476190D01*
X120532380Y-130714285D02*
X119532380Y-130714285D01*
X119532380Y-130333333D01*
X119580000Y-130238095D01*
X119627619Y-130190476D01*
X119722857Y-130142857D01*
X119865714Y-130142857D01*
X119960952Y-130190476D01*
X120008571Y-130238095D01*
X120056190Y-130333333D01*
X120056190Y-130714285D01*
X120532380Y-129190476D02*
X120532380Y-129761904D01*
X120532380Y-129476190D02*
X119532380Y-129476190D01*
X119675238Y-129571428D01*
X119770476Y-129666666D01*
X119818095Y-129761904D01*
X120532380Y-128238095D02*
X120532380Y-128809523D01*
X120532380Y-128523809D02*
X119532380Y-128523809D01*
X119675238Y-128619047D01*
X119770476Y-128714285D01*
X119818095Y-128809523D01*
X119452380Y-126785714D02*
X119452380Y-126166666D01*
X119833333Y-126500000D01*
X119833333Y-126357142D01*
X119880952Y-126261904D01*
X119928571Y-126214285D01*
X120023809Y-126166666D01*
X120261904Y-126166666D01*
X120357142Y-126214285D01*
X120404761Y-126261904D01*
X120452380Y-126357142D01*
X120452380Y-126642857D01*
X120404761Y-126738095D01*
X120357142Y-126785714D01*
X119452380Y-125833333D02*
X119452380Y-125214285D01*
X119833333Y-125547619D01*
X119833333Y-125404761D01*
X119880952Y-125309523D01*
X119928571Y-125261904D01*
X120023809Y-125214285D01*
X120261904Y-125214285D01*
X120357142Y-125261904D01*
X120404761Y-125309523D01*
X120452380Y-125404761D01*
X120452380Y-125690476D01*
X120404761Y-125785714D01*
X120357142Y-125833333D01*
X119452380Y-124595238D02*
X119452380Y-124500000D01*
X119500000Y-124404761D01*
X119547619Y-124357142D01*
X119642857Y-124309523D01*
X119833333Y-124261904D01*
X120071428Y-124261904D01*
X120261904Y-124309523D01*
X120357142Y-124357142D01*
X120404761Y-124404761D01*
X120452380Y-124500000D01*
X120452380Y-124595238D01*
X120404761Y-124690476D01*
X120357142Y-124738095D01*
X120261904Y-124785714D01*
X120071428Y-124833333D01*
X119833333Y-124833333D01*
X119642857Y-124785714D01*
X119547619Y-124738095D01*
X119500000Y-124690476D01*
X119452380Y-124595238D01*
%TO.C,R12*%
X117032380Y-79292857D02*
X116556190Y-79626190D01*
X117032380Y-79864285D02*
X116032380Y-79864285D01*
X116032380Y-79483333D01*
X116080000Y-79388095D01*
X116127619Y-79340476D01*
X116222857Y-79292857D01*
X116365714Y-79292857D01*
X116460952Y-79340476D01*
X116508571Y-79388095D01*
X116556190Y-79483333D01*
X116556190Y-79864285D01*
X117032380Y-78340476D02*
X117032380Y-78911904D01*
X117032380Y-78626190D02*
X116032380Y-78626190D01*
X116175238Y-78721428D01*
X116270476Y-78816666D01*
X116318095Y-78911904D01*
X116127619Y-77959523D02*
X116080000Y-77911904D01*
X116032380Y-77816666D01*
X116032380Y-77578571D01*
X116080000Y-77483333D01*
X116127619Y-77435714D01*
X116222857Y-77388095D01*
X116318095Y-77388095D01*
X116460952Y-77435714D01*
X117032380Y-78007142D01*
X117032380Y-77388095D01*
X115952380Y-76285714D02*
X115952380Y-75666666D01*
X116333333Y-76000000D01*
X116333333Y-75857142D01*
X116380952Y-75761904D01*
X116428571Y-75714285D01*
X116523809Y-75666666D01*
X116761904Y-75666666D01*
X116857142Y-75714285D01*
X116904761Y-75761904D01*
X116952380Y-75857142D01*
X116952380Y-76142857D01*
X116904761Y-76238095D01*
X116857142Y-76285714D01*
X115952380Y-75333333D02*
X115952380Y-74714285D01*
X116333333Y-75047619D01*
X116333333Y-74904761D01*
X116380952Y-74809523D01*
X116428571Y-74761904D01*
X116523809Y-74714285D01*
X116761904Y-74714285D01*
X116857142Y-74761904D01*
X116904761Y-74809523D01*
X116952380Y-74904761D01*
X116952380Y-75190476D01*
X116904761Y-75285714D01*
X116857142Y-75333333D01*
X115952380Y-74095238D02*
X115952380Y-74000000D01*
X116000000Y-73904761D01*
X116047619Y-73857142D01*
X116142857Y-73809523D01*
X116333333Y-73761904D01*
X116571428Y-73761904D01*
X116761904Y-73809523D01*
X116857142Y-73857142D01*
X116904761Y-73904761D01*
X116952380Y-74000000D01*
X116952380Y-74095238D01*
X116904761Y-74190476D01*
X116857142Y-74238095D01*
X116761904Y-74285714D01*
X116571428Y-74333333D01*
X116333333Y-74333333D01*
X116142857Y-74285714D01*
X116047619Y-74238095D01*
X116000000Y-74190476D01*
X115952380Y-74095238D01*
%TO.C,R13*%
X150707142Y-96532380D02*
X150373809Y-96056190D01*
X150135714Y-96532380D02*
X150135714Y-95532380D01*
X150516666Y-95532380D01*
X150611904Y-95580000D01*
X150659523Y-95627619D01*
X150707142Y-95722857D01*
X150707142Y-95865714D01*
X150659523Y-95960952D01*
X150611904Y-96008571D01*
X150516666Y-96056190D01*
X150135714Y-96056190D01*
X151659523Y-96532380D02*
X151088095Y-96532380D01*
X151373809Y-96532380D02*
X151373809Y-95532380D01*
X151278571Y-95675238D01*
X151183333Y-95770476D01*
X151088095Y-95818095D01*
X151992857Y-95532380D02*
X152611904Y-95532380D01*
X152278571Y-95913333D01*
X152421428Y-95913333D01*
X152516666Y-95960952D01*
X152564285Y-96008571D01*
X152611904Y-96103809D01*
X152611904Y-96341904D01*
X152564285Y-96437142D01*
X152516666Y-96484761D01*
X152421428Y-96532380D01*
X152135714Y-96532380D01*
X152040476Y-96484761D01*
X151992857Y-96437142D01*
X153809523Y-95547619D02*
X153857142Y-95500000D01*
X153952380Y-95452380D01*
X154190476Y-95452380D01*
X154285714Y-95500000D01*
X154333333Y-95547619D01*
X154380952Y-95642857D01*
X154380952Y-95738095D01*
X154333333Y-95880952D01*
X153761904Y-96452380D01*
X154380952Y-96452380D01*
X154809523Y-96452380D02*
X154809523Y-95452380D01*
X154904761Y-96071428D02*
X155190476Y-96452380D01*
X155190476Y-95785714D02*
X154809523Y-96166666D01*
%TO.C,R14*%
X144857142Y-55452380D02*
X144523809Y-54976190D01*
X144285714Y-55452380D02*
X144285714Y-54452380D01*
X144666666Y-54452380D01*
X144761904Y-54500000D01*
X144809523Y-54547619D01*
X144857142Y-54642857D01*
X144857142Y-54785714D01*
X144809523Y-54880952D01*
X144761904Y-54928571D01*
X144666666Y-54976190D01*
X144285714Y-54976190D01*
X145809523Y-55452380D02*
X145238095Y-55452380D01*
X145523809Y-55452380D02*
X145523809Y-54452380D01*
X145428571Y-54595238D01*
X145333333Y-54690476D01*
X145238095Y-54738095D01*
X146666666Y-54785714D02*
X146666666Y-55452380D01*
X146428571Y-54404761D02*
X146190476Y-55119047D01*
X146809523Y-55119047D01*
X149309523Y-54047619D02*
X149357142Y-54000000D01*
X149452380Y-53952380D01*
X149690476Y-53952380D01*
X149785714Y-54000000D01*
X149833333Y-54047619D01*
X149880952Y-54142857D01*
X149880952Y-54238095D01*
X149833333Y-54380952D01*
X149261904Y-54952380D01*
X149880952Y-54952380D01*
X150309523Y-54952380D02*
X150309523Y-53952380D01*
X150404761Y-54571428D02*
X150690476Y-54952380D01*
X150690476Y-54285714D02*
X150309523Y-54666666D01*
%TO.C,U1*%
X135048095Y-102122380D02*
X135048095Y-102931904D01*
X135095714Y-103027142D01*
X135143333Y-103074761D01*
X135238571Y-103122380D01*
X135429047Y-103122380D01*
X135524285Y-103074761D01*
X135571904Y-103027142D01*
X135619523Y-102931904D01*
X135619523Y-102122380D01*
X136619523Y-103122380D02*
X136048095Y-103122380D01*
X136333809Y-103122380D02*
X136333809Y-102122380D01*
X136238571Y-102265238D01*
X136143333Y-102360476D01*
X136048095Y-102408095D01*
X133143333Y-115402380D02*
X132667142Y-115402380D01*
X132667142Y-114402380D01*
X133476666Y-115402380D02*
X133476666Y-114402380D01*
X133810000Y-115116666D01*
X134143333Y-114402380D01*
X134143333Y-115402380D01*
X135095714Y-114402380D02*
X134619523Y-114402380D01*
X134571904Y-114878571D01*
X134619523Y-114830952D01*
X134714761Y-114783333D01*
X134952857Y-114783333D01*
X135048095Y-114830952D01*
X135095714Y-114878571D01*
X135143333Y-114973809D01*
X135143333Y-115211904D01*
X135095714Y-115307142D01*
X135048095Y-115354761D01*
X134952857Y-115402380D01*
X134714761Y-115402380D01*
X134619523Y-115354761D01*
X134571904Y-115307142D01*
X136048095Y-114402380D02*
X135571904Y-114402380D01*
X135524285Y-114878571D01*
X135571904Y-114830952D01*
X135667142Y-114783333D01*
X135905238Y-114783333D01*
X136000476Y-114830952D01*
X136048095Y-114878571D01*
X136095714Y-114973809D01*
X136095714Y-115211904D01*
X136048095Y-115307142D01*
X136000476Y-115354761D01*
X135905238Y-115402380D01*
X135667142Y-115402380D01*
X135571904Y-115354761D01*
X135524285Y-115307142D01*
X137000476Y-114402380D02*
X136524285Y-114402380D01*
X136476666Y-114878571D01*
X136524285Y-114830952D01*
X136619523Y-114783333D01*
X136857619Y-114783333D01*
X136952857Y-114830952D01*
X137000476Y-114878571D01*
X137048095Y-114973809D01*
X137048095Y-115211904D01*
X137000476Y-115307142D01*
X136952857Y-115354761D01*
X136857619Y-115402380D01*
X136619523Y-115402380D01*
X136524285Y-115354761D01*
X136476666Y-115307142D01*
X137381428Y-115402380D02*
X137905238Y-114735714D01*
X137381428Y-114735714D02*
X137905238Y-115402380D01*
X138286190Y-115402380D02*
X138286190Y-114402380D01*
X138619523Y-115116666D01*
X138952857Y-114402380D01*
X138952857Y-115402380D01*
%TO.C,U2*%
X133048095Y-59622380D02*
X133048095Y-60431904D01*
X133095714Y-60527142D01*
X133143333Y-60574761D01*
X133238571Y-60622380D01*
X133429047Y-60622380D01*
X133524285Y-60574761D01*
X133571904Y-60527142D01*
X133619523Y-60431904D01*
X133619523Y-59622380D01*
X134048095Y-59717619D02*
X134095714Y-59670000D01*
X134190952Y-59622380D01*
X134429047Y-59622380D01*
X134524285Y-59670000D01*
X134571904Y-59717619D01*
X134619523Y-59812857D01*
X134619523Y-59908095D01*
X134571904Y-60050952D01*
X134000476Y-60622380D01*
X134619523Y-60622380D01*
X131143333Y-72902380D02*
X130667142Y-72902380D01*
X130667142Y-71902380D01*
X131476666Y-72902380D02*
X131476666Y-71902380D01*
X131810000Y-72616666D01*
X132143333Y-71902380D01*
X132143333Y-72902380D01*
X133095714Y-71902380D02*
X132619523Y-71902380D01*
X132571904Y-72378571D01*
X132619523Y-72330952D01*
X132714761Y-72283333D01*
X132952857Y-72283333D01*
X133048095Y-72330952D01*
X133095714Y-72378571D01*
X133143333Y-72473809D01*
X133143333Y-72711904D01*
X133095714Y-72807142D01*
X133048095Y-72854761D01*
X132952857Y-72902380D01*
X132714761Y-72902380D01*
X132619523Y-72854761D01*
X132571904Y-72807142D01*
X134048095Y-71902380D02*
X133571904Y-71902380D01*
X133524285Y-72378571D01*
X133571904Y-72330952D01*
X133667142Y-72283333D01*
X133905238Y-72283333D01*
X134000476Y-72330952D01*
X134048095Y-72378571D01*
X134095714Y-72473809D01*
X134095714Y-72711904D01*
X134048095Y-72807142D01*
X134000476Y-72854761D01*
X133905238Y-72902380D01*
X133667142Y-72902380D01*
X133571904Y-72854761D01*
X133524285Y-72807142D01*
X135000476Y-71902380D02*
X134524285Y-71902380D01*
X134476666Y-72378571D01*
X134524285Y-72330952D01*
X134619523Y-72283333D01*
X134857619Y-72283333D01*
X134952857Y-72330952D01*
X135000476Y-72378571D01*
X135048095Y-72473809D01*
X135048095Y-72711904D01*
X135000476Y-72807142D01*
X134952857Y-72854761D01*
X134857619Y-72902380D01*
X134619523Y-72902380D01*
X134524285Y-72854761D01*
X134476666Y-72807142D01*
X135381428Y-72902380D02*
X135905238Y-72235714D01*
X135381428Y-72235714D02*
X135905238Y-72902380D01*
X136286190Y-72902380D02*
X136286190Y-71902380D01*
X136619523Y-72616666D01*
X136952857Y-71902380D01*
X136952857Y-72902380D01*
%TO.C,Q3*%
X123047619Y-111095238D02*
X123000000Y-111190476D01*
X122904761Y-111285714D01*
X122761904Y-111428571D01*
X122714285Y-111523809D01*
X122714285Y-111619047D01*
X122952380Y-111571428D02*
X122904761Y-111666666D01*
X122809523Y-111761904D01*
X122619047Y-111809523D01*
X122285714Y-111809523D01*
X122095238Y-111761904D01*
X122000000Y-111666666D01*
X121952380Y-111571428D01*
X121952380Y-111380952D01*
X122000000Y-111285714D01*
X122095238Y-111190476D01*
X122285714Y-111142857D01*
X122619047Y-111142857D01*
X122809523Y-111190476D01*
X122904761Y-111285714D01*
X122952380Y-111380952D01*
X122952380Y-111571428D01*
X121952380Y-110809523D02*
X121952380Y-110190476D01*
X122333333Y-110523809D01*
X122333333Y-110380952D01*
X122380952Y-110285714D01*
X122428571Y-110238095D01*
X122523809Y-110190476D01*
X122761904Y-110190476D01*
X122857142Y-110238095D01*
X122904761Y-110285714D01*
X122952380Y-110380952D01*
X122952380Y-110666666D01*
X122904761Y-110761904D01*
X122857142Y-110809523D01*
X129242380Y-111150476D02*
X128242380Y-111150476D01*
X128956666Y-110817142D01*
X128242380Y-110483809D01*
X129242380Y-110483809D01*
X129242380Y-110007619D02*
X128242380Y-110007619D01*
X128242380Y-109626666D01*
X128290000Y-109531428D01*
X128337619Y-109483809D01*
X128432857Y-109436190D01*
X128575714Y-109436190D01*
X128670952Y-109483809D01*
X128718571Y-109531428D01*
X128766190Y-109626666D01*
X128766190Y-110007619D01*
X129194761Y-109055238D02*
X129242380Y-108912380D01*
X129242380Y-108674285D01*
X129194761Y-108579047D01*
X129147142Y-108531428D01*
X129051904Y-108483809D01*
X128956666Y-108483809D01*
X128861428Y-108531428D01*
X128813809Y-108579047D01*
X128766190Y-108674285D01*
X128718571Y-108864761D01*
X128670952Y-108960000D01*
X128623333Y-109007619D01*
X128528095Y-109055238D01*
X128432857Y-109055238D01*
X128337619Y-109007619D01*
X128290000Y-108960000D01*
X128242380Y-108864761D01*
X128242380Y-108626666D01*
X128290000Y-108483809D01*
X128956666Y-108102857D02*
X128956666Y-107626666D01*
X129242380Y-108198095D02*
X128242380Y-107864761D01*
X129242380Y-107531428D01*
X128575714Y-106769523D02*
X129242380Y-106769523D01*
X128194761Y-107007619D02*
X128909047Y-107245714D01*
X128909047Y-106626666D01*
X128337619Y-106293333D02*
X128290000Y-106245714D01*
X128242380Y-106150476D01*
X128242380Y-105912380D01*
X128290000Y-105817142D01*
X128337619Y-105769523D01*
X128432857Y-105721904D01*
X128528095Y-105721904D01*
X128670952Y-105769523D01*
X129242380Y-106340952D01*
X129242380Y-105721904D01*
%TO.C,Q4*%
X123904761Y-62047619D02*
X123809523Y-62000000D01*
X123714285Y-61904761D01*
X123571428Y-61761904D01*
X123476190Y-61714285D01*
X123380952Y-61714285D01*
X123428571Y-61952380D02*
X123333333Y-61904761D01*
X123238095Y-61809523D01*
X123190476Y-61619047D01*
X123190476Y-61285714D01*
X123238095Y-61095238D01*
X123333333Y-61000000D01*
X123428571Y-60952380D01*
X123619047Y-60952380D01*
X123714285Y-61000000D01*
X123809523Y-61095238D01*
X123857142Y-61285714D01*
X123857142Y-61619047D01*
X123809523Y-61809523D01*
X123714285Y-61904761D01*
X123619047Y-61952380D01*
X123428571Y-61952380D01*
X124714285Y-61285714D02*
X124714285Y-61952380D01*
X124476190Y-60904761D02*
X124238095Y-61619047D01*
X124857142Y-61619047D01*
X126242380Y-68650476D02*
X125242380Y-68650476D01*
X125956666Y-68317142D01*
X125242380Y-67983809D01*
X126242380Y-67983809D01*
X126242380Y-67507619D02*
X125242380Y-67507619D01*
X125242380Y-67126666D01*
X125290000Y-67031428D01*
X125337619Y-66983809D01*
X125432857Y-66936190D01*
X125575714Y-66936190D01*
X125670952Y-66983809D01*
X125718571Y-67031428D01*
X125766190Y-67126666D01*
X125766190Y-67507619D01*
X126194761Y-66555238D02*
X126242380Y-66412380D01*
X126242380Y-66174285D01*
X126194761Y-66079047D01*
X126147142Y-66031428D01*
X126051904Y-65983809D01*
X125956666Y-65983809D01*
X125861428Y-66031428D01*
X125813809Y-66079047D01*
X125766190Y-66174285D01*
X125718571Y-66364761D01*
X125670952Y-66460000D01*
X125623333Y-66507619D01*
X125528095Y-66555238D01*
X125432857Y-66555238D01*
X125337619Y-66507619D01*
X125290000Y-66460000D01*
X125242380Y-66364761D01*
X125242380Y-66126666D01*
X125290000Y-65983809D01*
X125956666Y-65602857D02*
X125956666Y-65126666D01*
X126242380Y-65698095D02*
X125242380Y-65364761D01*
X126242380Y-65031428D01*
X125575714Y-64269523D02*
X126242380Y-64269523D01*
X125194761Y-64507619D02*
X125909047Y-64745714D01*
X125909047Y-64126666D01*
X125337619Y-63793333D02*
X125290000Y-63745714D01*
X125242380Y-63650476D01*
X125242380Y-63412380D01*
X125290000Y-63317142D01*
X125337619Y-63269523D01*
X125432857Y-63221904D01*
X125528095Y-63221904D01*
X125670952Y-63269523D01*
X126242380Y-63840952D01*
X126242380Y-63221904D01*
%TO.C,Q5*%
X140607619Y-121635238D02*
X140560000Y-121730476D01*
X140464761Y-121825714D01*
X140321904Y-121968571D01*
X140274285Y-122063809D01*
X140274285Y-122159047D01*
X140512380Y-122111428D02*
X140464761Y-122206666D01*
X140369523Y-122301904D01*
X140179047Y-122349523D01*
X139845714Y-122349523D01*
X139655238Y-122301904D01*
X139560000Y-122206666D01*
X139512380Y-122111428D01*
X139512380Y-121920952D01*
X139560000Y-121825714D01*
X139655238Y-121730476D01*
X139845714Y-121682857D01*
X140179047Y-121682857D01*
X140369523Y-121730476D01*
X140464761Y-121825714D01*
X140512380Y-121920952D01*
X140512380Y-122111428D01*
X139512380Y-120778095D02*
X139512380Y-121254285D01*
X139988571Y-121301904D01*
X139940952Y-121254285D01*
X139893333Y-121159047D01*
X139893333Y-120920952D01*
X139940952Y-120825714D01*
X139988571Y-120778095D01*
X140083809Y-120730476D01*
X140321904Y-120730476D01*
X140417142Y-120778095D01*
X140464761Y-120825714D01*
X140512380Y-120920952D01*
X140512380Y-121159047D01*
X140464761Y-121254285D01*
X140417142Y-121301904D01*
X134162380Y-124230476D02*
X133162380Y-124230476D01*
X133876666Y-123897142D01*
X133162380Y-123563809D01*
X134162380Y-123563809D01*
X134162380Y-123087619D02*
X133162380Y-123087619D01*
X133162380Y-122706666D01*
X133210000Y-122611428D01*
X133257619Y-122563809D01*
X133352857Y-122516190D01*
X133495714Y-122516190D01*
X133590952Y-122563809D01*
X133638571Y-122611428D01*
X133686190Y-122706666D01*
X133686190Y-123087619D01*
X134114761Y-122135238D02*
X134162380Y-121992380D01*
X134162380Y-121754285D01*
X134114761Y-121659047D01*
X134067142Y-121611428D01*
X133971904Y-121563809D01*
X133876666Y-121563809D01*
X133781428Y-121611428D01*
X133733809Y-121659047D01*
X133686190Y-121754285D01*
X133638571Y-121944761D01*
X133590952Y-122040000D01*
X133543333Y-122087619D01*
X133448095Y-122135238D01*
X133352857Y-122135238D01*
X133257619Y-122087619D01*
X133210000Y-122040000D01*
X133162380Y-121944761D01*
X133162380Y-121706666D01*
X133210000Y-121563809D01*
X133876666Y-121182857D02*
X133876666Y-120706666D01*
X134162380Y-121278095D02*
X133162380Y-120944761D01*
X134162380Y-120611428D01*
X133495714Y-119849523D02*
X134162380Y-119849523D01*
X133114761Y-120087619D02*
X133829047Y-120325714D01*
X133829047Y-119706666D01*
X133257619Y-119373333D02*
X133210000Y-119325714D01*
X133162380Y-119230476D01*
X133162380Y-118992380D01*
X133210000Y-118897142D01*
X133257619Y-118849523D01*
X133352857Y-118801904D01*
X133448095Y-118801904D01*
X133590952Y-118849523D01*
X134162380Y-119420952D01*
X134162380Y-118801904D01*
%TO.C,Q6*%
X137607619Y-79135238D02*
X137560000Y-79230476D01*
X137464761Y-79325714D01*
X137321904Y-79468571D01*
X137274285Y-79563809D01*
X137274285Y-79659047D01*
X137512380Y-79611428D02*
X137464761Y-79706666D01*
X137369523Y-79801904D01*
X137179047Y-79849523D01*
X136845714Y-79849523D01*
X136655238Y-79801904D01*
X136560000Y-79706666D01*
X136512380Y-79611428D01*
X136512380Y-79420952D01*
X136560000Y-79325714D01*
X136655238Y-79230476D01*
X136845714Y-79182857D01*
X137179047Y-79182857D01*
X137369523Y-79230476D01*
X137464761Y-79325714D01*
X137512380Y-79420952D01*
X137512380Y-79611428D01*
X136512380Y-78325714D02*
X136512380Y-78516190D01*
X136560000Y-78611428D01*
X136607619Y-78659047D01*
X136750476Y-78754285D01*
X136940952Y-78801904D01*
X137321904Y-78801904D01*
X137417142Y-78754285D01*
X137464761Y-78706666D01*
X137512380Y-78611428D01*
X137512380Y-78420952D01*
X137464761Y-78325714D01*
X137417142Y-78278095D01*
X137321904Y-78230476D01*
X137083809Y-78230476D01*
X136988571Y-78278095D01*
X136940952Y-78325714D01*
X136893333Y-78420952D01*
X136893333Y-78611428D01*
X136940952Y-78706666D01*
X136988571Y-78754285D01*
X137083809Y-78801904D01*
X131162380Y-81730476D02*
X130162380Y-81730476D01*
X130876666Y-81397142D01*
X130162380Y-81063809D01*
X131162380Y-81063809D01*
X131162380Y-80587619D02*
X130162380Y-80587619D01*
X130162380Y-80206666D01*
X130210000Y-80111428D01*
X130257619Y-80063809D01*
X130352857Y-80016190D01*
X130495714Y-80016190D01*
X130590952Y-80063809D01*
X130638571Y-80111428D01*
X130686190Y-80206666D01*
X130686190Y-80587619D01*
X131114761Y-79635238D02*
X131162380Y-79492380D01*
X131162380Y-79254285D01*
X131114761Y-79159047D01*
X131067142Y-79111428D01*
X130971904Y-79063809D01*
X130876666Y-79063809D01*
X130781428Y-79111428D01*
X130733809Y-79159047D01*
X130686190Y-79254285D01*
X130638571Y-79444761D01*
X130590952Y-79540000D01*
X130543333Y-79587619D01*
X130448095Y-79635238D01*
X130352857Y-79635238D01*
X130257619Y-79587619D01*
X130210000Y-79540000D01*
X130162380Y-79444761D01*
X130162380Y-79206666D01*
X130210000Y-79063809D01*
X130876666Y-78682857D02*
X130876666Y-78206666D01*
X131162380Y-78778095D02*
X130162380Y-78444761D01*
X131162380Y-78111428D01*
X130495714Y-77349523D02*
X131162380Y-77349523D01*
X130114761Y-77587619D02*
X130829047Y-77825714D01*
X130829047Y-77206666D01*
X130257619Y-76873333D02*
X130210000Y-76825714D01*
X130162380Y-76730476D01*
X130162380Y-76492380D01*
X130210000Y-76397142D01*
X130257619Y-76349523D01*
X130352857Y-76301904D01*
X130448095Y-76301904D01*
X130590952Y-76349523D01*
X131162380Y-76920952D01*
X131162380Y-76301904D01*
%TO.C,R15*%
X164357142Y-44452380D02*
X164023809Y-43976190D01*
X163785714Y-44452380D02*
X163785714Y-43452380D01*
X164166666Y-43452380D01*
X164261904Y-43500000D01*
X164309523Y-43547619D01*
X164357142Y-43642857D01*
X164357142Y-43785714D01*
X164309523Y-43880952D01*
X164261904Y-43928571D01*
X164166666Y-43976190D01*
X163785714Y-43976190D01*
X165309523Y-44452380D02*
X164738095Y-44452380D01*
X165023809Y-44452380D02*
X165023809Y-43452380D01*
X164928571Y-43595238D01*
X164833333Y-43690476D01*
X164738095Y-43738095D01*
X166214285Y-43452380D02*
X165738095Y-43452380D01*
X165690476Y-43928571D01*
X165738095Y-43880952D01*
X165833333Y-43833333D01*
X166071428Y-43833333D01*
X166166666Y-43880952D01*
X166214285Y-43928571D01*
X166261904Y-44023809D01*
X166261904Y-44261904D01*
X166214285Y-44357142D01*
X166166666Y-44404761D01*
X166071428Y-44452380D01*
X165833333Y-44452380D01*
X165738095Y-44404761D01*
X165690476Y-44357142D01*
X158530952Y-44532380D02*
X157959523Y-44532380D01*
X158245238Y-44532380D02*
X158245238Y-43532380D01*
X158150000Y-43675238D01*
X158054761Y-43770476D01*
X157959523Y-43818095D01*
X158959523Y-44532380D02*
X158959523Y-43532380D01*
X159054761Y-44151428D02*
X159340476Y-44532380D01*
X159340476Y-43865714D02*
X158959523Y-44246666D01*
%TO.C,R16*%
X163857142Y-54952380D02*
X163523809Y-54476190D01*
X163285714Y-54952380D02*
X163285714Y-53952380D01*
X163666666Y-53952380D01*
X163761904Y-54000000D01*
X163809523Y-54047619D01*
X163857142Y-54142857D01*
X163857142Y-54285714D01*
X163809523Y-54380952D01*
X163761904Y-54428571D01*
X163666666Y-54476190D01*
X163285714Y-54476190D01*
X164809523Y-54952380D02*
X164238095Y-54952380D01*
X164523809Y-54952380D02*
X164523809Y-53952380D01*
X164428571Y-54095238D01*
X164333333Y-54190476D01*
X164238095Y-54238095D01*
X165666666Y-53952380D02*
X165476190Y-53952380D01*
X165380952Y-54000000D01*
X165333333Y-54047619D01*
X165238095Y-54190476D01*
X165190476Y-54380952D01*
X165190476Y-54761904D01*
X165238095Y-54857142D01*
X165285714Y-54904761D01*
X165380952Y-54952380D01*
X165571428Y-54952380D01*
X165666666Y-54904761D01*
X165714285Y-54857142D01*
X165761904Y-54761904D01*
X165761904Y-54523809D01*
X165714285Y-54428571D01*
X165666666Y-54380952D01*
X165571428Y-54333333D01*
X165380952Y-54333333D01*
X165285714Y-54380952D01*
X165238095Y-54428571D01*
X165190476Y-54523809D01*
X157040476Y-54872380D02*
X157230952Y-54872380D01*
X157326190Y-54824761D01*
X157373809Y-54777142D01*
X157469047Y-54634285D01*
X157516666Y-54443809D01*
X157516666Y-54062857D01*
X157469047Y-53967619D01*
X157421428Y-53920000D01*
X157326190Y-53872380D01*
X157135714Y-53872380D01*
X157040476Y-53920000D01*
X156992857Y-53967619D01*
X156945238Y-54062857D01*
X156945238Y-54300952D01*
X156992857Y-54396190D01*
X157040476Y-54443809D01*
X157135714Y-54491428D01*
X157326190Y-54491428D01*
X157421428Y-54443809D01*
X157469047Y-54396190D01*
X157516666Y-54300952D01*
X157945238Y-54777142D02*
X157992857Y-54824761D01*
X157945238Y-54872380D01*
X157897619Y-54824761D01*
X157945238Y-54777142D01*
X157945238Y-54872380D01*
X158945238Y-54872380D02*
X158373809Y-54872380D01*
X158659523Y-54872380D02*
X158659523Y-53872380D01*
X158564285Y-54015238D01*
X158469047Y-54110476D01*
X158373809Y-54158095D01*
X159373809Y-54872380D02*
X159373809Y-53872380D01*
X159469047Y-54491428D02*
X159754761Y-54872380D01*
X159754761Y-54205714D02*
X159373809Y-54586666D01*
%TO.C,U5*%
X122638095Y-31132380D02*
X122638095Y-31941904D01*
X122685714Y-32037142D01*
X122733333Y-32084761D01*
X122828571Y-32132380D01*
X123019047Y-32132380D01*
X123114285Y-32084761D01*
X123161904Y-32037142D01*
X123209523Y-31941904D01*
X123209523Y-31132380D01*
X124161904Y-31132380D02*
X123685714Y-31132380D01*
X123638095Y-31608571D01*
X123685714Y-31560952D01*
X123780952Y-31513333D01*
X124019047Y-31513333D01*
X124114285Y-31560952D01*
X124161904Y-31608571D01*
X124209523Y-31703809D01*
X124209523Y-31941904D01*
X124161904Y-32037142D01*
X124114285Y-32084761D01*
X124019047Y-32132380D01*
X123780952Y-32132380D01*
X123685714Y-32084761D01*
X123638095Y-32037142D01*
X118923809Y-43602380D02*
X118447619Y-43602380D01*
X118447619Y-42602380D01*
X119257142Y-43602380D02*
X119257142Y-42602380D01*
X119590476Y-43316666D01*
X119923809Y-42602380D01*
X119923809Y-43602380D01*
X120352380Y-42697619D02*
X120400000Y-42650000D01*
X120495238Y-42602380D01*
X120733333Y-42602380D01*
X120828571Y-42650000D01*
X120876190Y-42697619D01*
X120923809Y-42792857D01*
X120923809Y-42888095D01*
X120876190Y-43030952D01*
X120304761Y-43602380D01*
X120923809Y-43602380D01*
X121828571Y-42602380D02*
X121352380Y-42602380D01*
X121304761Y-43078571D01*
X121352380Y-43030952D01*
X121447619Y-42983333D01*
X121685714Y-42983333D01*
X121780952Y-43030952D01*
X121828571Y-43078571D01*
X121876190Y-43173809D01*
X121876190Y-43411904D01*
X121828571Y-43507142D01*
X121780952Y-43554761D01*
X121685714Y-43602380D01*
X121447619Y-43602380D01*
X121352380Y-43554761D01*
X121304761Y-43507142D01*
X122352380Y-43602380D02*
X122542857Y-43602380D01*
X122638095Y-43554761D01*
X122685714Y-43507142D01*
X122780952Y-43364285D01*
X122828571Y-43173809D01*
X122828571Y-42792857D01*
X122780952Y-42697619D01*
X122733333Y-42650000D01*
X122638095Y-42602380D01*
X122447619Y-42602380D01*
X122352380Y-42650000D01*
X122304761Y-42697619D01*
X122257142Y-42792857D01*
X122257142Y-43030952D01*
X122304761Y-43126190D01*
X122352380Y-43173809D01*
X122447619Y-43221428D01*
X122638095Y-43221428D01*
X122733333Y-43173809D01*
X122780952Y-43126190D01*
X122828571Y-43030952D01*
X123685714Y-42602380D02*
X123495238Y-42602380D01*
X123400000Y-42650000D01*
X123352380Y-42697619D01*
X123257142Y-42840476D01*
X123209523Y-43030952D01*
X123209523Y-43411904D01*
X123257142Y-43507142D01*
X123304761Y-43554761D01*
X123400000Y-43602380D01*
X123590476Y-43602380D01*
X123685714Y-43554761D01*
X123733333Y-43507142D01*
X123780952Y-43411904D01*
X123780952Y-43173809D01*
X123733333Y-43078571D01*
X123685714Y-43030952D01*
X123590476Y-42983333D01*
X123400000Y-42983333D01*
X123304761Y-43030952D01*
X123257142Y-43078571D01*
X123209523Y-43173809D01*
X124066666Y-42602380D02*
X124638095Y-42602380D01*
X124352380Y-43602380D02*
X124352380Y-42602380D01*
X124971428Y-43221428D02*
X125733333Y-43221428D01*
X126161904Y-43316666D02*
X126638095Y-43316666D01*
X126066666Y-43602380D02*
X126400000Y-42602380D01*
X126733333Y-43602380D01*
X127066666Y-43602380D02*
X127066666Y-42602380D01*
X127304761Y-42602380D01*
X127447619Y-42650000D01*
X127542857Y-42745238D01*
X127590476Y-42840476D01*
X127638095Y-43030952D01*
X127638095Y-43173809D01*
X127590476Y-43364285D01*
X127542857Y-43459523D01*
X127447619Y-43554761D01*
X127304761Y-43602380D01*
X127066666Y-43602380D01*
X128352380Y-42602380D02*
X128352380Y-43316666D01*
X128304761Y-43459523D01*
X128209523Y-43554761D01*
X128066666Y-43602380D01*
X127971428Y-43602380D01*
%TO.C,H1*%
X108238095Y-33752380D02*
X108238095Y-32752380D01*
X108238095Y-33228571D02*
X108809523Y-33228571D01*
X108809523Y-33752380D02*
X108809523Y-32752380D01*
X109809523Y-33752380D02*
X109238095Y-33752380D01*
X109523809Y-33752380D02*
X109523809Y-32752380D01*
X109428571Y-32895238D01*
X109333333Y-32990476D01*
X109238095Y-33038095D01*
%TO.C,H2*%
X108238095Y-134252380D02*
X108238095Y-133252380D01*
X108238095Y-133728571D02*
X108809523Y-133728571D01*
X108809523Y-134252380D02*
X108809523Y-133252380D01*
X109238095Y-133347619D02*
X109285714Y-133300000D01*
X109380952Y-133252380D01*
X109619047Y-133252380D01*
X109714285Y-133300000D01*
X109761904Y-133347619D01*
X109809523Y-133442857D01*
X109809523Y-133538095D01*
X109761904Y-133680952D01*
X109190476Y-134252380D01*
X109809523Y-134252380D01*
%TO.C,H4*%
X161238095Y-134252380D02*
X161238095Y-133252380D01*
X161238095Y-133728571D02*
X161809523Y-133728571D01*
X161809523Y-134252380D02*
X161809523Y-133252380D01*
X162714285Y-133585714D02*
X162714285Y-134252380D01*
X162476190Y-133204761D02*
X162238095Y-133919047D01*
X162857142Y-133919047D01*
%TD*%
M02*
