%TF.GenerationSoftware,KiCad,Pcbnew,5.1.10-88a1d61d58~90~ubuntu20.04.1*%
%TF.CreationDate,2022-01-16T21:36:51+00:00*%
%TF.ProjectId,spike_n_hold,7370696b-655f-46e5-9f68-6f6c642e6b69,rev?*%
%TF.SameCoordinates,Original*%
%TF.FileFunction,Soldermask,Bot*%
%TF.FilePolarity,Negative*%
%FSLAX46Y46*%
G04 Gerber Fmt 4.6, Leading zero omitted, Abs format (unit mm)*
G04 Created by KiCad (PCBNEW 5.1.10-88a1d61d58~90~ubuntu20.04.1) date 2022-01-16 21:36:51*
%MOMM*%
%LPD*%
G01*
G04 APERTURE LIST*
%ADD10C,2.400000*%
%ADD11O,2.000000X1.700000*%
%ADD12O,2.400000X2.400000*%
%ADD13C,1.600000*%
%ADD14R,1.600000X1.600000*%
%ADD15O,2.400000X1.600000*%
%ADD16R,2.400000X1.600000*%
%ADD17O,1.905000X2.000000*%
%ADD18R,1.905000X2.000000*%
%ADD19O,1.700000X2.000000*%
%ADD20C,3.200000*%
%ADD21R,2.200000X2.200000*%
%ADD22O,2.200000X2.200000*%
%ADD23R,3.200000X3.200000*%
%ADD24O,3.200000X3.200000*%
%ADD25R,1.700000X1.700000*%
%ADD26O,1.700000X1.700000*%
%ADD27O,2.500000X4.500000*%
%ADD28R,2.500000X4.500000*%
%ADD29C,1.500000*%
%ADD30R,1.500000X1.500000*%
%ADD31O,1.950000X1.700000*%
G04 APERTURE END LIST*
D10*
%TO.C,L1*%
X141000000Y-38500000D03*
X146000000Y-38500000D03*
%TD*%
D11*
%TO.C,J7*%
X109500000Y-47500000D03*
G36*
G01*
X110250000Y-50850000D02*
X108750000Y-50850000D01*
G75*
G02*
X108500000Y-50600000I0J250000D01*
G01*
X108500000Y-49400000D01*
G75*
G02*
X108750000Y-49150000I250000J0D01*
G01*
X110250000Y-49150000D01*
G75*
G02*
X110500000Y-49400000I0J-250000D01*
G01*
X110500000Y-50600000D01*
G75*
G02*
X110250000Y-50850000I-250000J0D01*
G01*
G37*
%TD*%
D10*
%TO.C,R15*%
X131500000Y-57500000D03*
D12*
X118800000Y-57500000D03*
%TD*%
D13*
%TO.C,C15*%
X116500000Y-36500000D03*
D14*
X114500000Y-36500000D03*
%TD*%
D15*
%TO.C,U3*%
X147880000Y-53000000D03*
X155500000Y-45380000D03*
X147880000Y-50460000D03*
X155500000Y-47920000D03*
X147880000Y-47920000D03*
X155500000Y-50460000D03*
X147880000Y-45380000D03*
D16*
X155500000Y-53000000D03*
%TD*%
D12*
%TO.C,R18*%
X124500000Y-53200000D03*
D10*
X124500000Y-40500000D03*
%TD*%
D12*
%TO.C,R17*%
X129000000Y-53200000D03*
D10*
X129000000Y-40500000D03*
%TD*%
D17*
%TO.C,Q9*%
X127580000Y-36500000D03*
X125040000Y-36500000D03*
D18*
X122500000Y-36500000D03*
%TD*%
D19*
%TO.C,J6*%
X155000000Y-37500000D03*
G36*
G01*
X151650000Y-38250000D02*
X151650000Y-36750000D01*
G75*
G02*
X151900000Y-36500000I250000J0D01*
G01*
X153100000Y-36500000D01*
G75*
G02*
X153350000Y-36750000I0J-250000D01*
G01*
X153350000Y-38250000D01*
G75*
G02*
X153100000Y-38500000I-250000J0D01*
G01*
X151900000Y-38500000D01*
G75*
G02*
X151650000Y-38250000I0J250000D01*
G01*
G37*
%TD*%
D11*
%TO.C,J5*%
X162000000Y-47500000D03*
G36*
G01*
X161250000Y-44150000D02*
X162750000Y-44150000D01*
G75*
G02*
X163000000Y-44400000I0J-250000D01*
G01*
X163000000Y-45600000D01*
G75*
G02*
X162750000Y-45850000I-250000J0D01*
G01*
X161250000Y-45850000D01*
G75*
G02*
X161000000Y-45600000I0J250000D01*
G01*
X161000000Y-44400000D01*
G75*
G02*
X161250000Y-44150000I250000J0D01*
G01*
G37*
%TD*%
D13*
%TO.C,C8*%
X143500000Y-47500000D03*
X143500000Y-52500000D03*
%TD*%
%TO.C,C7*%
X159000000Y-53000000D03*
X164000000Y-53000000D03*
%TD*%
D20*
%TO.C,H3*%
X162000000Y-37500000D03*
%TD*%
D21*
%TO.C,D4*%
X114500000Y-56500000D03*
D22*
X114500000Y-66660000D03*
%TD*%
D13*
%TO.C,C1*%
X117500000Y-117500000D03*
X117500000Y-122500000D03*
%TD*%
%TO.C,C2*%
X109500000Y-74500000D03*
X114500000Y-74500000D03*
%TD*%
%TO.C,C3*%
X144500000Y-112500000D03*
X149500000Y-112500000D03*
%TD*%
%TO.C,C4*%
X145500000Y-68000000D03*
X150500000Y-68000000D03*
%TD*%
%TO.C,C5*%
X144500000Y-107500000D03*
X149500000Y-107500000D03*
%TD*%
%TO.C,C6*%
X150500000Y-63000000D03*
X145500000Y-63000000D03*
%TD*%
D22*
%TO.C,D1*%
X153340000Y-105000000D03*
D21*
X163500000Y-105000000D03*
%TD*%
%TO.C,D2*%
X165000000Y-63000000D03*
D22*
X154840000Y-63000000D03*
%TD*%
%TO.C,D3*%
X119000000Y-113660000D03*
D21*
X119000000Y-103500000D03*
%TD*%
D22*
%TO.C,D5*%
X153340000Y-110500000D03*
D21*
X163500000Y-110500000D03*
%TD*%
D22*
%TO.C,D6*%
X154840000Y-68500000D03*
D21*
X165000000Y-68500000D03*
%TD*%
%TO.C,D7*%
X163500000Y-116500000D03*
D22*
X153340000Y-116500000D03*
%TD*%
%TO.C,D8*%
X154840000Y-74000000D03*
D21*
X165000000Y-74000000D03*
%TD*%
D23*
%TO.C,D17*%
X134500000Y-53000000D03*
D24*
X134500000Y-37760000D03*
%TD*%
D25*
%TO.C,J3*%
X161000000Y-124500000D03*
D26*
X161000000Y-127040000D03*
%TD*%
%TO.C,J4*%
X161500000Y-82540000D03*
D25*
X161500000Y-80000000D03*
%TD*%
D27*
%TO.C,Q1*%
X151400000Y-138000000D03*
X145950000Y-138000000D03*
D28*
X140500000Y-138000000D03*
%TD*%
%TO.C,Q2*%
X142000000Y-91500000D03*
D27*
X147450000Y-91500000D03*
X152900000Y-91500000D03*
%TD*%
%TO.C,Q7*%
X131400000Y-138000000D03*
X125950000Y-138000000D03*
D28*
X120500000Y-138000000D03*
%TD*%
D27*
%TO.C,Q8*%
X129400000Y-91500000D03*
X123950000Y-91500000D03*
D28*
X118500000Y-91500000D03*
%TD*%
D10*
%TO.C,R1*%
X149000000Y-131000000D03*
D12*
X149000000Y-118300000D03*
%TD*%
%TO.C,R2*%
X148500000Y-72800000D03*
D10*
X148500000Y-85500000D03*
%TD*%
D12*
%TO.C,R3*%
X143500000Y-131200000D03*
D10*
X143500000Y-118500000D03*
%TD*%
%TO.C,R4*%
X142500000Y-72500000D03*
D12*
X142500000Y-85200000D03*
%TD*%
%TO.C,R5*%
X112500000Y-115700000D03*
D10*
X112500000Y-103000000D03*
%TD*%
%TO.C,R6*%
X109500000Y-56500000D03*
D12*
X109500000Y-69200000D03*
%TD*%
%TO.C,R7*%
X129000000Y-117800000D03*
D10*
X129000000Y-130500000D03*
%TD*%
%TO.C,R8*%
X125000000Y-85000000D03*
D12*
X125000000Y-72300000D03*
%TD*%
D10*
%TO.C,R9*%
X127500000Y-99500000D03*
D12*
X140200000Y-99500000D03*
%TD*%
%TO.C,R10*%
X148200000Y-57500000D03*
D10*
X135500000Y-57500000D03*
%TD*%
%TO.C,R11*%
X123000000Y-130500000D03*
D12*
X123000000Y-117800000D03*
%TD*%
%TO.C,R12*%
X119500000Y-72300000D03*
D10*
X119500000Y-85000000D03*
%TD*%
D12*
%TO.C,R13*%
X157700000Y-99500000D03*
D10*
X145000000Y-99500000D03*
%TD*%
%TO.C,R14*%
X152000000Y-57500000D03*
D12*
X164700000Y-57500000D03*
%TD*%
D16*
%TO.C,U1*%
X132000000Y-105000000D03*
D15*
X139620000Y-112620000D03*
X132000000Y-107540000D03*
X139620000Y-110080000D03*
X132000000Y-110080000D03*
X139620000Y-107540000D03*
X132000000Y-112620000D03*
X139620000Y-105000000D03*
%TD*%
D16*
%TO.C,U2*%
X130000000Y-62500000D03*
D15*
X137620000Y-70120000D03*
X130000000Y-65040000D03*
X137620000Y-67580000D03*
X130000000Y-67580000D03*
X137620000Y-65040000D03*
X130000000Y-70120000D03*
X137620000Y-62500000D03*
%TD*%
D29*
%TO.C,Q3*%
X126000000Y-108460000D03*
X126000000Y-105920000D03*
D30*
X126000000Y-111000000D03*
%TD*%
%TO.C,Q4*%
X123000000Y-68500000D03*
D29*
X123000000Y-63420000D03*
X123000000Y-65960000D03*
%TD*%
D30*
%TO.C,Q5*%
X136500000Y-119000000D03*
D29*
X136500000Y-124080000D03*
X136500000Y-121540000D03*
%TD*%
D30*
%TO.C,Q6*%
X133500000Y-76500000D03*
D29*
X133500000Y-81580000D03*
X133500000Y-79040000D03*
%TD*%
D10*
%TO.C,R16*%
X120000000Y-40500000D03*
D12*
X120000000Y-53200000D03*
%TD*%
D20*
%TO.C,H1*%
X109000000Y-37500000D03*
%TD*%
%TO.C,H2*%
X109000000Y-138000000D03*
%TD*%
%TO.C,H4*%
X162000000Y-138000000D03*
%TD*%
%TO.C,J1*%
G36*
G01*
X111323000Y-79576000D02*
X112773000Y-79576000D01*
G75*
G02*
X113023000Y-79826000I0J-250000D01*
G01*
X113023000Y-81026000D01*
G75*
G02*
X112773000Y-81276000I-250000J0D01*
G01*
X111323000Y-81276000D01*
G75*
G02*
X111073000Y-81026000I0J250000D01*
G01*
X111073000Y-79826000D01*
G75*
G02*
X111323000Y-79576000I250000J0D01*
G01*
G37*
D31*
X112048000Y-82926000D03*
X112048000Y-85426000D03*
X112048000Y-87926000D03*
%TD*%
M02*
