<?xml version="1.0" encoding="utf-8"?>
<!-- Generator: Adobe Illustrator 23.1.0, SVG Export Plug-In . SVG Version: 6.00 Build 0)  -->
<svg version="1.1" id="Layer_1" xmlns="http://www.w3.org/2000/svg" xmlns:xlink="http://www.w3.org/1999/xlink" x="0px" y="0px"
	 viewBox="0 0 319.5 352.6" style="enable-background:new 0 0 319.5 352.6;" xml:space="preserve">
<style type="text/css">
	.st0{fill:#1D1D1B;}
	.st1{fill:#1D1D1B;stroke:#000000;stroke-width:0.2585;stroke-miterlimit:10;}
	.st2{fill:#555555;}
	.st3{opacity:0.5;fill:#1D1D1B;stroke:#000000;stroke-width:0.2973;stroke-miterlimit:10;}
	.st4{fill:#1D1D1B;stroke:#000000;stroke-width:0.2062;stroke-miterlimit:10;}
	.st5{opacity:0.5;fill:#1D1D1B;stroke:#000000;stroke-width:0.2062;stroke-miterlimit:10;}
</style>
<g>
	<g>
		<path class="st0" d="M208.2,223.5c-0.1,0-0.2-0.1-0.2-0.4c-0.2-0.7-0.3-1.5-0.4-2.2c-0.8-3.4-1.2-6.8-1.5-10.3
			c-0.2-0.4-0.2-1.2-0.2-1.4c0-0.1,0-0.3,0.1-0.4c0-0.3,0-0.6,0-0.8c0,0,0,0,0,0c0-0.2,0-0.4-0.1-0.5c0-0.2,0-0.5,0.1-0.8
			c0-0.4,0.1-0.7,0.2-1.1c0.1-0.3,0.3-0.7,0.6-0.8c0.5-1.1,1.3-2.1,2.2-2.9c0.4-0.7,0.8-1.4,1.2-2.2c0.1-0.2,0.2-0.4,0.4-0.5
			c-0.1,0-0.2,0-0.3,0c-0.6-0.1-0.9-0.8-0.7-1.4c0.2-1,1.1-1.8,1.8-2.4c0.1-0.1,0.2-0.1,0.3-0.2c0.2-0.2,0.4-0.4,0.6-0.6
			c0.8-0.6,1.7-1.1,2.7-1.1c0.2,0,0.2,0.3,0.1,0.4c-0.3,0.6-0.6,1.2-1,1.7c-0.4,0.8-0.7,1.6-1.3,2.3c-0.2,0.2-0.4,0.4-0.6,0.5
			c0.2,0.1,0.4,0.3,0.2,0.7c-0.4,0.8-0.9,1.7-1.3,2.5c0,0,0,0,0,0c0.6,0,0.2,0.5,0,0.8c-0.6,0.7-1.2,1.4-1.8,2.1
			c-0.3,0.4-0.6,0.8-0.9,1.2c-0.1,0.1-0.4,0.3-0.7,0.5c0.4,1.4,0.3,2.8,0.3,4.3c0,0.2,0.1,0.4,0.1,0.5c0.1,1,0.2,2.1,0.2,3.1
			c0.3,2.3,0.7,4.6,1.2,6.9C209.4,221.5,208.7,224.6,208.2,223.5z"/>
		<path class="st0" d="M166.1,171c0,0.1,0,0.2,0.3,0.4c0.6,0.4,1.3,0.8,1.9,1.2c2.9,1.9,5.9,3.6,9,5.1c0.3,0.3,1,0.6,1.3,0.7
			c0.1,0,0.3,0.1,0.4,0.1c0.3,0.1,0.5,0.2,0.8,0.4c0,0,0,0,0,0c0.2,0.1,0.3,0.2,0.5,0.2c0.2,0.1,0.5,0.2,0.8,0.2
			c0.4,0.1,0.7,0.2,1.1,0.2c0.3,0,0.8,0,0.9-0.3c1.2,0,2.4-0.4,3.5-1c0.8-0.1,1.6-0.2,2.4-0.3c0.2,0,0.4-0.1,0.6-0.2
			c0,0.1-0.1,0.2-0.1,0.3c-0.1,0.6,0.5,1.1,1,1.2c1,0.2,2-0.4,2.9-0.8c0.1,0,0.2-0.1,0.3-0.2c0.3-0.1,0.5-0.2,0.7-0.3
			c0.9-0.5,1.6-1.1,2-2.1c0.1-0.2-0.2-0.3-0.3-0.3c-0.7,0-1.3,0.1-1.9,0.3c-0.9,0-1.8,0.1-2.6,0.4c-0.2,0.1-0.5,0.2-0.7,0.3
			c0-0.3-0.1-0.4-0.6-0.4c-0.9,0.1-1.9,0.2-2.8,0.3c0,0,0,0,0,0c0.2-0.5-0.4-0.4-0.8-0.3c-0.9,0.3-1.8,0.6-2.7,0.9
			c-0.5,0.1-1,0.2-1.4,0.4c-0.2,0.1-0.5,0.3-0.7,0.5c-1.1-0.8-2.5-1.3-3.9-1.8c-0.2-0.1-0.3-0.2-0.5-0.3c-0.9-0.5-1.9-0.9-2.8-1.3
			c-2-1.1-4-2.3-6-3.6C168.4,170.6,165.3,170.2,166.1,171z"/>
		<path class="st0" d="M202.2,164.3c-0.4,1.1-1.3,2.2-2.5,2.5c-0.5,0.1-1.1,0.4-1.3,0.9c-0.3-0.3-0.7-0.5-1.1-0.4
			c-0.6,0.2-0.7,1.1-0.4,1.6c0.4,1,0.7,1.9,0.8,3c0.1,0.9,2,2.5,2.1,0.9c0.1-1.4-0.2-2.8-0.7-4.1c0.2,0,0.4,0,0.6,0
			c2.4-0.4,4.6-2,5.4-4.3C205.5,162.8,202.6,163.1,202.2,164.3z"/>
		<path class="st0" d="M191.5,150c4.3,4.1,8,8.6,12,12.9c1.2,1.3,0.5-1,0.1-1.5c-3.8-4.9-8-9.5-12.4-13.8
			C189.9,146.4,190.9,149.4,191.5,150z"/>
		<path class="st0" d="M222.2,195.9c0.5,0.6,1.6,0.8,2.3,0.9c1.9,0.1,3.5,1.3,4.7,2.7c1.1,1.4,5.4,1.2,4-0.7c-2.2-2.9-6-4.5-9.6-4.5
			c-0.3,0-0.5,0.1-0.8,0.1C222.7,194.4,222.2,195.9,222.2,195.9z"/>
		<path class="st0" d="M216.3,191.7c1.3,0.9,2.4,2,3.4,3.2c0.5,0.6,1.8,1.3,2.5,0.7c0.4-0.3,0.2-1.3,0.2-1.3
			c-0.1-0.6-0.5-1.2-1.1-1.8c0,0-2.9-2.8-4.8-3.7C214.3,187.7,215.2,190.9,216.3,191.7z"/>
		<path class="st0" d="M269.9,184.7c-2.5-0.6-4.8-1.5-7-2.7c-0.1,0-0.1-0.1-0.1-0.1c-0.6,0.4-1.6,0.4-2.1,0.3
			c-3.1-0.6-6.1-1.6-9-2.9c-0.8-0.1-1.6-0.2-2.3-0.3c-0.8-0.1-1-0.6-0.9-1c-2.8,2.2-5.9,4-9.1,5.7c-0.6,0.3-1.5,0.5-2.2,0.4
			c-0.1,0-0.4-0.1-0.6-0.1c-0.6,0.2-1.3,0.4-2,0.4c-0.6,0-1.2-0.3-1.5-0.7c-0.3,0-0.5,0-0.8,0c-0.3,0-0.6-0.2-0.8-0.4
			c-1.9-0.4-3.8-1-5.6-1.8c-0.1,0-0.1-0.1-0.2-0.1c0,0-0.1,0-0.1,0c-1.2,0.2-1.7-1.2-0.5-1.6c0.2-0.1,0.3-0.1,0.5-0.2
			c0.3-0.2,0.6-0.3,1-0.3c1.9-0.5,3.8-0.8,5.7-1.1c0.6-0.1,1.2,0.3,1.4,0.8c0.4,0,0.7,0.2,0.9,0.4c0.7,0.2,1.4,0.5,2.1,1
			c0.9,0.7,1.3,1.4,1.3,1.9c2.8-1.8,5.6-3.6,8.4-5.3c0.5-0.3,3.2-0.3,2.9,0.1c0.1,0,0.2,0,0.3,0c0.9,0.1,1.8,0.3,2.7,0.5
			c0.2,0,0.3,0.1,0.4,0.3c0,0,0.1,0,0.1,0c3.2,1,6.5,1.8,9.7,2.7c0.5,0.1,0.6,0.4,0.5,0.7c0,0,0,0,0.1,0c0.5-0.2,1.3-0.2,1.8,0
			c2.1,1,4.3,1.8,6.5,2.5c0.5,0.2,0.4,0.4,0.1,0.6C271.2,184.8,270.4,184.8,269.9,184.7z"/>
		<path class="st0" d="M226.5,120.3c-0.8,2.4-1.4,4.8-1.6,7.3c0,0.1,0,0.1,0,0.1c-0.6,0.3-1.2,1.1-1.4,1.6c-1.2,2.9-2.1,6-2.5,9.1
			c-0.4,0.7-0.7,1.4-1.1,2.1c-0.3,0.7-0.1,1.2,0.3,1.3c-3.4,1.2-6.6,2.7-9.8,4.5c-0.6,0.3-1.3,1-1.5,1.7c0,0.1-0.1,0.3-0.2,0.5
			c-0.5,0.4-1,0.9-1.4,1.4c-0.4,0.5-0.4,1.1-0.2,1.6c-0.1,0.2-0.3,0.4-0.4,0.7c-0.1,0.2-0.2,0.6-0.1,0.9c-0.7,1.8-1.2,3.7-1.5,5.7
			c0,0.1,0,0.1,0,0.2c0,0-0.1,0.1-0.1,0.1c-0.8,0.9,0.1,2.1,1.1,1.3c0.1-0.1,0.3-0.2,0.4-0.3c0.3-0.1,0.6-0.4,0.8-0.7
			c1.5-1.3,2.8-2.8,4-4.2c0.4-0.5,0.4-1.2,0.1-1.6c0.2-0.3,0.2-0.7,0.2-0.9c0.2-0.7,0.4-1.5,0.3-2.4c-0.1-1.2-0.4-1.8-0.9-2.1
			c3-1.3,6.1-2.6,9-4.1c0.5-0.3,2-2.5,1.5-2.5c0.1-0.1,0.1-0.2,0.2-0.3c0.4-0.8,0.7-1.7,1-2.5c0.1-0.2,0.1-0.3,0-0.5
			c0,0,0-0.1,0-0.1c1-3.2,2-6.4,3-9.6c0.1-0.5,0-0.7-0.3-0.8c0,0,0,0,0.1,0c0.4-0.3,0.9-0.9,1-1.5c0.4-2.3,0.8-4.6,1.4-6.8
			c0.1-0.5-0.1-0.6-0.5-0.4C227.1,119.2,226.6,119.9,226.5,120.3z"/>
	</g>
	<path class="st1" d="M211.7,177.6c6.3,6,10.2,12.2,21.8,0.1c11.6-12.1,26.6-37.8,20.3-43.8c-6.3-6-31.4,9.9-43,22
		C199.1,167.9,205.4,171.5,211.7,177.6z"/>
	
		<ellipse transform="matrix(0.6932 -0.7208 0.7208 0.6932 -68.0448 204.4076)" class="st1" cx="206.1" cy="182.1" rx="11" ry="14.9"/>
	<path class="st1" d="M206.2,200.7c3.2-3.4-1.2-7.2-6.3-12.1s-9.1-9.2-12.4-5.8s-4.5,13.1,0.6,18.1
		C193.3,205.8,202.9,204.1,206.2,200.7z"/>
	<ellipse transform="matrix(0.3363 -0.9418 0.9418 0.3363 -52.7109 299.3693)" class="st2" cx="186" cy="187.1" rx="6.2" ry="3.2"/>
	<ellipse transform="matrix(0.9037 -0.4282 0.4282 0.9037 -67.2318 105.9943)" class="st2" cx="202" cy="202.5" rx="6.2" ry="3.2"/>
	<path class="st2" d="M240.3,169.6c0.3-0.3-4.3-5.3-10.1-10.9c-5.8-5.6-11.3-10.3-11.6-10c-0.4,0.3,5.2,5,11,10.6
		C235.5,164.9,240,170,240.3,169.6z"/>
	<path class="st2" d="M244,164.3c0.3-0.4-3.6-4.7-9.3-10.2c-5.7-5.5-10.5-9.6-10.9-9.3c-0.4,0.3,4.4,5.1,10.1,10.6
		C239.5,160.8,243.7,164.8,244,164.3z"/>
	<path class="st2" d="M247.5,158.7c0.3-0.5-3.2-4.7-8.4-9.6s-9.4-8.3-9.9-8c-0.6,0.3,3.6,4.6,8.7,9.6
		C243,155.6,247.2,159.2,247.5,158.7z"/>
	<path class="st2" d="M254.6,142.9c0.5-1.5,1.5-6.8-0.6-8.8c-2.7-2.6-7.9-1.2-9.3-0.7c-1.3,0.5,2.4,3.6,4.4,5.6
		S254.1,144.3,254.6,142.9z"/>
	<path class="st2" d="M244,141.4c-0.1,0.5-0.1,1.6,0.2,2c0.4,0.4,1.5,0.3,2,0.2c4.8,4.6,6.1,5.9,6.6,4.6c0.5-1.3-0.6-5.5-4.3-9.1
		s-7.7-4.2-8.9-3.6C238.5,135.9,239.2,136.8,244,141.4z"/>
	<path class="st2" d="M240.6,144.8c-0.2,0.5-0.3,1.9,0.1,2.3c0.4,0.4,1.8,0.2,2.3,0c6.3,6,7.1,6.8,7.5,6.1c0.4-0.7-2-4.7-6.4-9
		c-4.4-4.2-8.8-6.7-9.5-6.3C233.9,138.2,235,139.3,240.6,144.8z"/>
	<path class="st0" d="M192.4,208.7c-0.4,0.3-1-0.5-1.3-1.7c-0.2-0.5-0.4-0.9-0.4-1.5c-0.1-0.1-0.2-0.1-0.4-0.2
		c-0.6-0.4-0.4-2.9,0.4-2.8c0,0,0.1-0.1,0.1-0.1c0.7-0.4,1.5,0.4,2.1,0.7c0.6,0.4,0.5,2.3-0.2,2.7c0.1,0.2,0.2,0.5,0.3,0.7
		c0.2,0.4,0.1,1.1-0.2,1.5C192.7,208.4,192.6,208.6,192.4,208.7z"/>
	<path class="st0" d="M180.3,197.6c-0.3,0.4,0.6,1,1.7,1.3c0.5,0.2,1,0.3,1.5,0.4c0.1,0.1,0.1,0.2,0.2,0.4c0.4,0.6,2.9,0.3,2.8-0.6
		c0,0,0.1-0.1,0.1-0.1c0.4-0.7-0.4-1.5-0.8-2.1c-0.4-0.6-2.4-0.4-2.7,0.4c-0.2-0.1-0.5-0.1-0.7-0.3c-0.4-0.2-1.1-0.1-1.5,0.2
		C180.7,197.3,180.5,197.4,180.3,197.6z"/>
	<path class="st3" d="M232.3,143.2c-11.7,17.3-15.7,34.4-13.8,43.7c1.8,9.1,27-14.4,42.1-28.9c15.1-14.5,22.4-31.4,16.3-37.7
		C270.8,114,243.8,126.2,232.3,143.2z"/>
	<path class="st3" d="M242.9,150.3c-15.2,14.4-31.4,21-40.9,20.7c-9.3-0.3,9.8-29,21.7-46.2c11.9-17.2,27.4-27.2,34.6-22.2
		C265.6,107.6,257.9,136.2,242.9,150.3z"/>
</g>
<g>
	<g>
		<path class="st0" d="M136.9,223c0.1,0,0.1-0.2,0.1-0.5c-0.1-0.8-0.3-1.5-0.5-2.3c-0.6-3.5-1.5-6.8-2.7-10.2c0-0.4-0.3-1.2-0.4-1.4
			c-0.1-0.1-0.1-0.2-0.2-0.4c-0.1-0.3-0.2-0.5-0.3-0.8c0,0,0,0,0,0c-0.1-0.2-0.1-0.4-0.2-0.5c-0.1-0.2-0.2-0.5-0.4-0.7
			c-0.2-0.3-0.4-0.6-0.7-1c-0.2-0.2-0.6-0.6-0.9-0.5c-0.9-0.9-2-1.5-3.2-1.8c-0.7-0.5-1.3-1-2-1.5c-0.2-0.1-0.4-0.2-0.6-0.4
			c0.1,0,0.2,0,0.3-0.1c0.5-0.4,0.5-1.1,0.1-1.6c-0.6-0.8-1.7-1.2-2.6-1.5c-0.1,0-0.2-0.1-0.4-0.1c-0.3-0.1-0.5-0.2-0.8-0.3
			c-1-0.3-2-0.4-2.9,0.1c-0.2,0.1-0.1,0.3,0,0.4c0.5,0.5,1,0.8,1.6,1.2c0.7,0.6,1.3,1.2,2.1,1.6c0.2,0.1,0.5,0.2,0.8,0.3
			c-0.2,0.2-0.2,0.4,0.1,0.7c0.7,0.6,1.5,1.2,2.2,1.8c0,0,0,0,0,0c-0.5,0.2,0,0.6,0.3,0.7c0.8,0.4,1.7,0.9,2.5,1.3
			c0.4,0.3,0.8,0.5,1.3,0.7c0.2,0.1,0.5,0.1,0.9,0.1c0.2,1.4,0.8,2.8,1.4,4.1c0,0.2,0.1,0.4,0.1,0.5c0.3,1,0.7,2,1.1,3
			c0.6,2.3,1.1,4.5,1.6,6.9C134.9,221.6,136.8,224.2,136.9,223z"/>
		<path class="st0" d="M161.1,166.4c0,0.1,0,0.2-0.3,0.4c-0.6,0.4-1.3,0.8-2,1.2c-2.9,1.9-6,3.6-9.2,5.1c-0.3,0.3-1,0.6-1.3,0.7
			c-0.1,0-0.3,0.1-0.4,0.1c-0.3,0.1-0.5,0.2-0.8,0.3c0,0,0,0,0,0c-0.2,0.1-0.3,0.2-0.5,0.2c-0.2,0.1-0.5,0.2-0.8,0.2
			c-0.4,0.1-0.7,0.2-1.2,0.2c-0.3,0-0.8,0-0.9-0.3c-1.2-0.1-2.5-0.5-3.6-1.1c-0.8-0.1-1.6-0.3-2.5-0.4c-0.2,0-0.4-0.1-0.6-0.2
			c0,0.1,0.1,0.2,0.1,0.3c0.1,0.6-0.5,1.1-1.1,1.2c-1,0.1-2-0.4-2.9-0.9c-0.1,0-0.2-0.1-0.3-0.2c-0.3-0.1-0.5-0.2-0.7-0.4
			c-0.9-0.5-1.7-1.2-2-2.1c-0.1-0.2,0.2-0.3,0.3-0.3c0.7,0,1.3,0.2,1.9,0.3c0.9,0.1,1.8,0.1,2.6,0.4c0.2,0.1,0.5,0.2,0.7,0.4
			c0-0.3,0.1-0.4,0.6-0.4c1,0.1,1.9,0.2,2.9,0.3c0,0,0,0,0,0c-0.2-0.5,0.4-0.4,0.8-0.3c0.9,0.3,1.8,0.6,2.7,1c0.5,0.1,1,0.3,1.4,0.4
			c0.2,0.1,0.5,0.3,0.7,0.5c1.2-0.8,2.6-1.3,3.9-1.8c0.2-0.1,0.3-0.2,0.5-0.3c0.9-0.5,1.9-0.9,2.9-1.3c2.1-1.1,4.1-2.3,6.1-3.6
			C158.8,165.9,162,165.5,161.1,166.4z"/>
		<path class="st0" d="M124.4,160.5c0.2,1.2,0.9,2.4,2.1,2.9c0.4,0.2,1,0.6,1.2,1.1c0.4-0.2,0.8-0.4,1.2-0.2
			c0.6,0.3,0.5,1.2,0.2,1.7c-0.6,0.9-1,1.8-1.3,2.8c-0.3,0.9-2.4,2.2-2.2,0.5c0.1-1.5,0.7-2.8,1.4-4c-0.2,0-0.4,0-0.6-0.1
			c-2.3-0.8-4.2-2.7-4.7-5.2C121.3,158.4,124.1,159.3,124.4,160.5z"/>
		<path class="st0" d="M137.5,148c-5,3.3-9.4,7.2-14.1,10.9c-1.4,1.1-0.3-1.1,0.2-1.6c4.6-4.3,9.6-8.2,14.7-11.7
			C139.6,144.7,138.1,147.6,137.5,148z"/>
		<path class="st0" d="M107.1,200.7c1.1-0.7,2.3-1,3.5-0.5c0.4,0.2,1.1,0.4,1.6,0.1c0.1,0.4,0.3,0.8,0.7,1c0.6,0.2,1.2-0.5,1.3-1
			c0.3-1.1,0.6-2,1.1-2.9c0.5-0.8,0-3.2-1.2-2c-1,1.1-1.5,2.4-1.9,3.8c-0.1-0.1-0.3-0.3-0.4-0.4c-2.2-1.2-4.9-1.2-7,0.2
			C103.5,199.9,106.1,201.3,107.1,200.7z"/>
		<path class="st0" d="M107.1,218.8c-1-5.9-1.2-11.8-1.9-17.7c-0.2-1.7-1,0.5-1,1.2c0.1,6.3,0.7,12.6,1.7,18.8
			C106.2,222.6,107.2,219.5,107.1,218.8z"/>
		<path class="st0" d="M56,187.9c2.6-0.1,5-0.4,7.5-1.1c0.1,0,0.1-0.1,0.1-0.1c0.5,0.5,1.5,0.7,2,0.8c3.2,0.1,6.4-0.2,9.5-0.9
			c0.8,0.1,1.6,0.2,2.4,0.2c0.8,0.1,1.2-0.3,1.1-0.8c2.3,2.8,5,5.3,7.7,7.6c0.5,0.5,1.4,0.8,2.1,0.8c0.1,0,0.4,0,0.6,0
			c0.5,0.3,1.2,0.6,1.9,0.8c0.6,0.2,1.2,0,1.6-0.4c0.3,0.1,0.5,0.1,0.8,0.2c0.3,0,0.6,0,0.9-0.2c2,0,4-0.2,5.9-0.6
			c0.1,0,0.1,0,0.2-0.1c0,0,0.1,0,0.1,0.1c1.2,0.4,1.9-0.8,0.8-1.5c-0.2-0.1-0.3-0.2-0.5-0.3c-0.2-0.3-0.6-0.4-0.9-0.5
			c-1.7-0.9-3.6-1.6-5.4-2.3c-0.6-0.2-1.3,0-1.6,0.5c-0.4-0.1-0.7,0-1,0.2c-0.8,0-1.5,0.2-2.3,0.6c-1.1,0.5-1.6,1.1-1.7,1.6
			c-2.3-2.4-4.7-4.8-7.1-7.1c-0.4-0.4-3-1-2.9-0.5c-0.1,0-0.2-0.1-0.3-0.1c-0.9-0.1-1.8-0.1-2.7-0.1c-0.2,0-0.3,0.1-0.5,0.2
			c0,0-0.1,0-0.1,0c-3.4,0.2-6.8,0.4-10.2,0.6c-0.5,0-0.7,0.3-0.6,0.6c0,0,0,0-0.1,0c-0.5-0.3-1.2-0.5-1.8-0.4
			c-2.3,0.5-4.6,0.8-7,1.1c-0.5,0-0.5,0.3-0.2,0.6C54.7,187.8,55.5,187.9,56,187.9z"/>
		<path class="st0" d="M79.2,134c1.7,1.9,3.2,3.9,4.4,6.2c0,0.1,0,0.1,0,0.1c0.7,0,1.5,0.6,1.9,1c2.3,2.2,4.3,4.8,5.9,7.5
			c0.6,0.5,1.2,1,1.8,1.6c0.6,0.6,0.5,1.1,0.2,1.4c3.6-0.2,7.3,0,10.8,0.3c0.7,0.1,1.6,0.4,2.1,1c0.1,0.1,0.3,0.3,0.4,0.4
			c0.6,0.2,1.3,0.4,1.9,0.8c0.5,0.3,0.8,0.9,0.8,1.4c0.2,0.2,0.4,0.3,0.7,0.4c0.2,0.2,0.4,0.5,0.5,0.8c1.4,1.4,2.6,3,3.7,4.7
			c0,0.1,0,0.1,0.1,0.2c0,0,0.1,0,0.1,0.1c1.1,0.6,0.7,2-0.5,1.6c-0.2,0-0.3-0.1-0.5-0.2c-0.3,0-0.7-0.1-1-0.3
			c-1.9-0.6-3.7-1.5-5.4-2.3c-0.6-0.3-0.9-1-0.8-1.5c-0.3-0.2-0.5-0.5-0.5-0.8c-0.5-0.6-0.9-1.2-1.2-2.1c-0.4-1.1-0.3-1.9,0-2.3
			c-3.4-0.1-6.7-0.1-10.1-0.3c-0.6,0-2.8-1.5-2.4-1.8c-0.1-0.1-0.2-0.1-0.3-0.2c-0.7-0.6-1.3-1.3-1.9-1.9c-0.1-0.1-0.2-0.3-0.2-0.5
			c0,0-0.1-0.1-0.1-0.1c-2.2-2.6-4.4-5.2-6.6-7.7c-0.3-0.4-0.3-0.7,0-0.8c0,0-0.1,0-0.1,0c-0.5-0.2-1.2-0.5-1.5-1
			c-1.2-2-2.6-3.9-4-5.8c-0.3-0.4-0.2-0.6,0.3-0.5C78.2,133.2,78.8,133.6,79.2,134z"/>
	</g>
	<path class="st4" d="M115.5,181.6c-3.5,8.1-4.7,15.4-20.2,8.7s-39.6-24.8-36.2-32.9c3.5-8.1,33.2-3.1,48.8,3.5
		S119,173.5,115.5,181.6z"/>
	
		<ellipse transform="matrix(0.3943 -0.919 0.919 0.3943 -94.5022 223.7816)" class="st4" cx="122.5" cy="183.6" rx="15.1" ry="11.2"/>
	<path class="st4" d="M129.8,201c-4.4-1.9-1.7-7.1,1.1-13.8c2.9-6.7,4.9-12.2,9.2-10.3s9.4,10.4,6.5,17.1
		C143.8,200.6,134.1,202.8,129.8,201z"/>
	
		<ellipse transform="matrix(0.7368 -0.6761 0.6761 0.7368 -84.6489 143.3075)" class="st2" cx="141.7" cy="180.4" rx="3.2" ry="6.3"/>
	
		<ellipse transform="matrix(4.286403e-02 -0.9991 0.9991 4.286403e-02 -72.6242 324.7577)" class="st2" cx="133.2" cy="200.3" rx="3.2" ry="6.3"/>
	<path class="st2" d="M80.1,181.9c-0.9-0.8,1.2-6,4.4-13.3c3.2-7.4,6-13,6.9-12.8c1.4,0.3-2.3,6.1-5.5,13.4
		C82.7,176.5,80.7,182.4,80.1,181.9z"/>
	<path class="st2" d="M74.7,178.1c-0.9-0.5,0.8-5.7,3.7-12.4c2.9-6.7,5.5-11.4,6.5-11.3c1,0.2-2,5.2-4.8,11.9S75.7,178.7,74.7,178.1
		z"/>
	<path class="st2" d="M69.5,173.8c-1.4-0.6-12.9-10.9-10.5-16.4c2.4-5.6,17.7-4.3,19.1-3.7c1.4,0.6-2,4.5-4.4,10.1
		C71.4,169.2,70.9,174.4,69.5,173.8z"/>
	<path class="st0" d="M145.8,203c0.5,0.1,0.7-0.9,0.6-2.1c0-0.5,0-1-0.2-1.5c0.1-0.1,0.2-0.2,0.3-0.4c0.4-0.6-0.8-2.9-1.5-2.4
		c0,0-0.1,0-0.1-0.1c-0.8-0.1-1.3,0.9-1.7,1.5c-0.4,0.6,0.5,2.4,1.3,2.4c0,0.3,0,0.5,0,0.8c-0.1,0.4,0.3,1,0.8,1.3
		C145.3,202.8,145.5,202.9,145.8,203z"/>
	<path class="st5" d="M71.1,202.2c15.8-14.1,32.4-20.4,41.9-19.8c9.4,0.6-10.8,29.1-23.2,46.2S61.4,255.2,54.2,250
		C47,244.8,55.5,216.1,71.1,202.2z"/>
	<path class="st5" d="M77.9,173.2c20.4,5.6,38.1,3.8,46.4-1c8.1-4.7-22.6-21.2-41.4-30.9c-18.8-9.7-37.4-11.2-41.4-3.4
		C37.4,145.8,57.8,167.7,77.9,173.2z"/>
	<path class="st0" d="M152.6,186.4c0.4,0.3-0.2,1.1-1.1,1.9c-0.3,0.4-0.8,0.7-1.2,0.9c0,0.1,0,0.3-0.1,0.4c-0.1,0.7-2.6,1.4-2.8,0.6
		c0,0-0.1,0-0.1-0.1c-0.7-0.5-0.2-1.6-0.1-2.3c0.2-0.7,2-1.3,2.7-0.7c0.2-0.2,0.4-0.3,0.6-0.5c0.3-0.3,1-0.5,1.5-0.4
		C152.2,186.3,152.4,186.3,152.6,186.4z"/>
</g>
</svg>
